<?xml version='1.0' encoding='us-ascii'?>
<mlt LC_NUMERIC="C" producer="main_bin" title="Shotcut version 20.02.17" version="6.20.0">
  <profile colorspace="709" description="HD 1080p 25 fps" display_aspect_den="9" display_aspect_num="16" frame_rate_den="1" frame_rate_num="25" height="1080" progressive="1" sample_aspect_den="1" sample_aspect_num="1" width="1920" />
  <playlist id="main_bin">
    <property name="xml_retain">1</property>
  </playlist>
  <producer id="black" in="00:00:00.000" out="00:03:41.680">
    <property name="length">00:03:41.720</property>
    <property name="eof">pause</property>
    <property name="resource">0</property>
    <property name="aspect_ratio">1</property>
    <property name="mlt_service">color</property>
    <property name="mlt_image_format">rgb24a</property>
    <property name="set.test_audio">0</property>
  </producer>
  <playlist id="background">
    <entry in="00:00:00.000" out="00:03:41.680" producer="black" />
  </playlist>
  <producer id="producer0" in="00:00:00.000" out="03:59:59.960" title="Anonymous Submission">
    <property name="length">04:00:00:00</property>
    <property name="eof">pause</property>
    <property name="resource">#00000000</property>
    <property name="aspect_ratio">1</property>
    <property name="mlt_service">color</property>
    <property name="mlt_image_format">rgb24a</property>
    <property name="shotcut:caption">transparent</property>
    <property name="shotcut:detail">transparent</property>
    <property name="ignore_points">0</property>
    <property name="global_feed">1</property>
    <property name="xml">was here</property>
    <property name="seekable">1</property>
    <filter id="filter0" out="00:00:04.960">
      <property name="argument" />
      <property name="geometry">0 0 1920 1080 1</property>
      <property name="family">Verdana</property>
      <property name="size">1080</property>
      <property name="weight">500</property>
      <property name="style">normal</property>
      <property name="fgcolour">#ffffffff</property>
      <property name="bgcolour">#00000000</property>
      <property name="olcolour">#aa000000</property>
      <property name="pad">0</property>
      <property name="halign">center</property>
      <property name="valign">bottom</property>
      <property name="outline">3</property>
      <property name="mlt_service">dynamictext</property>
      <property name="shotcut:filter">dynamicText</property>
      <property name="shotcut:usePointSize">0</property>
      <property name="shotcut:animIn">00:00:00.000</property>
      <property name="shotcut:animOut">00:00:00.000</property>
    </filter>
  </producer>
  <producer id="producer1" in="00:00:00.000" out="03:59:59.960" title="Anonymous Submission">
    <property name="length">04:00:00:00</property>
    <property name="eof">pause</property>
    <property name="resource">#00000000</property>
    <property name="aspect_ratio">1</property>
    <property name="mlt_service">color</property>
    <property name="mlt_image_format">rgb24a</property>
    <property name="shotcut:caption">transparent</property>
    <property name="shotcut:detail">transparent</property>
    <property name="ignore_points">0</property>
    <property name="global_feed">1</property>
    <property name="xml">was here</property>
    <property name="seekable">1</property>
    <filter id="filter1" in="00:00:05.000" out="00:03:41.520">
      <property name="argument" />
      <property name="geometry">0 0 1920 1080 1</property>
      <property name="family">Verdana</property>
      <property name="size">1080</property>
      <property name="weight">500</property>
      <property name="style">normal</property>
      <property name="fgcolour">#ffffffff</property>
      <property name="bgcolour">#00000000</property>
      <property name="olcolour">#aa000000</property>
      <property name="pad">0</property>
      <property name="halign">center</property>
      <property name="valign">bottom</property>
      <property name="outline">3</property>
      <property name="mlt_service">dynamictext</property>
      <property name="shotcut:filter">dynamicText</property>
      <property name="shotcut:usePointSize">0</property>
      <property name="shotcut:animIn">00:00:00.000</property>
      <property name="shotcut:animOut">00:00:00.000</property>
    </filter>
  </producer>
  <playlist id="playlist0">
    <property name="shotcut:video">1</property>
    <property name="shotcut:name">Storyboard</property>
    <property name="shotcut:lock">1</property>
    <entry in="00:00:00.000" out="00:00:04.960" producer="producer0" />
    <entry in="00:00:05.000" out="00:03:41.520" producer="producer1" />
  </playlist>
  <producer id="producer2" in="00:00:00.000" out="00:04:05.560" title="Anonymous Submission">
    <property name="length">00:04:05:15</property>
    <property name="eof">pause</property>
    <property name="resource">../../006 - Videos format youtube/Percussions/Jean-Seb_percu_totoro.mp4</property>
    <property name="audio_index">1</property>
    <property name="video_index">0</property>
    <property name="mute_on_pause">0</property>
    <property name="mlt_service">avformat-novalidate</property>
    <property name="seekable">1</property>
    <property name="aspect_ratio">1</property>
    <property name="creation_time">2020-05-01T20:32:43</property>
    <property name="shotcut:hash">a2e950dced0df93b86cbf01dbc5519c9</property>
    <property name="ignore_points">0</property>
    <property name="shotcut:caption">Jean-Seb_percu_totoro.mp4</property>
    <property name="shotcut:skipConvert">1</property>
    <property name="global_feed">1</property>
    <property name="xml">was here</property>
    <filter id="filter2" in="00:00:49.440000" out="00:00:50.640000">
      <property name="background">colour:0</property>
      <property name="mlt_service">affine</property>
      <property name="shotcut:filter">affineSizePosition</property>
      <property name="transition.fill">1</property>
      <property name="transition.distort">0</property>
      <property name="transition.rect">00:00:00.000000=-1920.0 -1080.0 1922.0 1081.0 1;00:00:00.000000=2048.0 431.0 384.0 216.0 1</property>
      <property name="transition.valign">top</property>
      <property name="transition.halign">left</property>
      <property name="shotcut:animIn">00:00:00.040000</property>
      <property name="shotcut:animOut">00:00:00.000</property>
      <property name="transition.threads">0</property>
    </filter>
    <filter id="filter3" in="00:00:49.440000" out="00:00:50.640000">
      <property name="window">75</property>
      <property name="max_gain">20dB</property>
      <property name="mlt_service">volume</property>
      <property name="shotcut:filter">muteVolume</property>
      <property name="gain">0</property>
    </filter>
  </producer>
  <producer id="producer3" in="00:00:00.000" out="00:04:05.560" title="Anonymous Submission">
    <property name="length">00:04:05:15</property>
    <property name="eof">pause</property>
    <property name="resource">../../006 - Videos format youtube/Percussions/Jean-Seb_percu_totoro.mp4</property>
    <property name="audio_index">1</property>
    <property name="video_index">0</property>
    <property name="mute_on_pause">0</property>
    <property name="mlt_service">avformat-novalidate</property>
    <property name="seekable">1</property>
    <property name="aspect_ratio">1</property>
    <property name="creation_time">2020-05-01T20:32:43</property>
    <property name="shotcut:hash">a2e950dced0df93b86cbf01dbc5519c9</property>
    <property name="ignore_points">0</property>
    <property name="shotcut:caption">Jean-Seb_percu_totoro.mp4</property>
    <property name="shotcut:skipConvert">1</property>
    <property name="global_feed">1</property>
    <property name="xml">was here</property>
    <filter id="filter4" in="00:00:50.680000" out="00:00:51.880000">
      <property name="background">colour:0</property>
      <property name="mlt_service">affine</property>
      <property name="shotcut:filter">affineSizePosition</property>
      <property name="transition.fill">1</property>
      <property name="transition.distort">0</property>
      <property name="transition.rect">00:00:00.000000=2048.0 431.0 385.0 217.0 1;00:00:01.200000=1408.0 431.0 384.0 216.0 1</property>
      <property name="transition.valign">top</property>
      <property name="transition.halign">left</property>
      <property name="shotcut:animIn">00:00:01.240000</property>
      <property name="shotcut:animOut">00:00:00.000</property>
      <property name="transition.threads">0</property>
    </filter>
    <filter id="filter5" in="00:00:50.680000" out="00:00:51.880000">
      <property name="window">75</property>
      <property name="max_gain">20dB</property>
      <property name="mlt_service">volume</property>
      <property name="shotcut:filter">muteVolume</property>
      <property name="gain">0</property>
    </filter>
  </producer>
  <producer id="producer4" in="00:00:00.000" out="00:04:05.560" title="Anonymous Submission">
    <property name="length">00:04:05:15</property>
    <property name="eof">pause</property>
    <property name="resource">../../006 - Videos format youtube/Percussions/Jean-Seb_percu_totoro.mp4</property>
    <property name="audio_index">1</property>
    <property name="video_index">0</property>
    <property name="mute_on_pause">0</property>
    <property name="mlt_service">avformat-novalidate</property>
    <property name="seekable">1</property>
    <property name="aspect_ratio">1</property>
    <property name="creation_time">2020-05-01T20:32:43</property>
    <property name="shotcut:hash">a2e950dced0df93b86cbf01dbc5519c9</property>
    <property name="ignore_points">0</property>
    <property name="shotcut:caption">Jean-Seb_percu_totoro.mp4</property>
    <property name="shotcut:skipConvert">1</property>
    <property name="global_feed">1</property>
    <property name="xml">was here</property>
    <filter id="filter6" in="00:00:51.920000" out="00:00:53.160000">
      <property name="background">colour:0</property>
      <property name="mlt_service">affine</property>
      <property name="shotcut:filter">affineSizePosition</property>
      <property name="transition.fill">1</property>
      <property name="transition.distort">0</property>
      <property name="transition.rect">00:00:00.000000=1408.0 431.0 385.0 217.0 1;00:00:01.200000=576.0 324.0 768.0 432.0 1</property>
      <property name="transition.valign">top</property>
      <property name="transition.halign">left</property>
      <property name="shotcut:animIn">00:00:01.240000</property>
      <property name="shotcut:animOut">00:00:00.000</property>
      <property name="transition.threads">0</property>
    </filter>
    <filter id="filter7" in="00:00:51.920000" out="00:00:53.160000">
      <property name="window">75</property>
      <property name="max_gain">20dB</property>
      <property name="mlt_service">volume</property>
      <property name="shotcut:filter">muteVolume</property>
      <property name="gain">0</property>
    </filter>
  </producer>
  <producer id="producer5" in="00:00:00.000" out="00:04:05.560" title="Anonymous Submission">
    <property name="length">00:04:05:15</property>
    <property name="eof">pause</property>
    <property name="resource">../../006 - Videos format youtube/Percussions/Jean-Seb_percu_totoro.mp4</property>
    <property name="audio_index">1</property>
    <property name="video_index">0</property>
    <property name="mute_on_pause">0</property>
    <property name="mlt_service">avformat-novalidate</property>
    <property name="seekable">1</property>
    <property name="aspect_ratio">1</property>
    <property name="creation_time">2020-05-01T20:32:43</property>
    <property name="shotcut:hash">a2e950dced0df93b86cbf01dbc5519c9</property>
    <property name="ignore_points">0</property>
    <property name="shotcut:caption">Jean-Seb_percu_totoro.mp4</property>
    <property name="shotcut:skipConvert">1</property>
    <property name="global_feed">1</property>
    <property name="xml">was here</property>
    <filter id="filter8" in="00:00:53.200000" out="00:00:54.400000">
      <property name="background">colour:0</property>
      <property name="mlt_service">affine</property>
      <property name="shotcut:filter">affineSizePosition</property>
      <property name="transition.fill">1</property>
      <property name="transition.distort">0</property>
      <property name="transition.rect">00:00:00.000000=576.0 324.0 769.0 433.0 1;00:00:01.200000=128.0 431.0 384.0 216.0 1</property>
      <property name="transition.valign">top</property>
      <property name="transition.halign">left</property>
      <property name="shotcut:animIn">00:00:01.240000</property>
      <property name="shotcut:animOut">00:00:00.000</property>
      <property name="transition.threads">0</property>
    </filter>
    <filter id="filter9" in="00:00:53.200000" out="00:00:54.400000">
      <property name="window">75</property>
      <property name="max_gain">20dB</property>
      <property name="mlt_service">volume</property>
      <property name="shotcut:filter">muteVolume</property>
      <property name="gain">0</property>
    </filter>
  </producer>
  <producer id="producer6" in="00:00:00.000" out="00:04:05.560" title="Anonymous Submission">
    <property name="length">00:04:05:15</property>
    <property name="eof">pause</property>
    <property name="resource">../../006 - Videos format youtube/Percussions/Jean-Seb_percu_totoro.mp4</property>
    <property name="audio_index">1</property>
    <property name="video_index">0</property>
    <property name="mute_on_pause">0</property>
    <property name="mlt_service">avformat-novalidate</property>
    <property name="seekable">1</property>
    <property name="aspect_ratio">1</property>
    <property name="creation_time">2020-05-01T20:32:43</property>
    <property name="shotcut:hash">a2e950dced0df93b86cbf01dbc5519c9</property>
    <property name="ignore_points">0</property>
    <property name="shotcut:caption">Jean-Seb_percu_totoro.mp4</property>
    <property name="shotcut:skipConvert">1</property>
    <property name="global_feed">1</property>
    <property name="xml">was here</property>
    <filter id="filter10" in="00:00:54.440000" out="00:01:44.800000">
      <property name="background">colour:0</property>
      <property name="mlt_service">affine</property>
      <property name="shotcut:filter">affineSizePosition</property>
      <property name="transition.fill">1</property>
      <property name="transition.distort">0</property>
      <property name="transition.rect">00:00:00.000000=128.0 431.0 385.0 217.0 1;00:00:01.200000=-512.0 431.0 384.0 216.0 1</property>
      <property name="transition.valign">top</property>
      <property name="transition.halign">left</property>
      <property name="shotcut:animIn">00:00:01.240000</property>
      <property name="shotcut:animOut">00:00:00.000</property>
      <property name="transition.threads">0</property>
    </filter>
    <filter id="filter11" in="00:00:54.440000" out="00:01:44.800000">
      <property name="window">75</property>
      <property name="max_gain">20dB</property>
      <property name="mlt_service">volume</property>
      <property name="shotcut:filter">muteVolume</property>
      <property name="gain">0</property>
    </filter>
  </producer>
  <playlist id="playlist1">
    <property name="shotcut:video">1</property>
    <property name="shotcut:name">Jean-Seb percu</property>
    <property name="shotcut:lock">1</property>
    <blank length="00:00:29.000000" />
    <entry in="00:00:49.440000" out="00:00:50.640000" producer="producer2" />
    <entry in="00:00:50.680000" out="00:00:51.880000" producer="producer3" />
    <entry in="00:00:51.920000" out="00:00:53.160000" producer="producer4" />
    <entry in="00:00:53.200000" out="00:00:54.400000" producer="producer5" />
    <entry in="00:00:54.440000" out="00:01:44.800000" producer="producer6" />
    <filter id="filter12" out="00:03:41.680">
      <property name="window">75</property>
      <property name="max_gain">20dB</property>
      <property name="level">-15</property>
      <property name="mlt_service">volume</property>
    </filter>
  </playlist>
  <producer id="producer7" in="00:00:00.000" out="00:02:58.320" title="Anonymous Submission">
    <property name="length">00:02:58:09</property>
    <property name="eof">pause</property>
    <property name="resource">../../006 - Videos format youtube/Chef/Jean-Jacques_chef_totoro.mp4</property>
    <property name="audio_index">1</property>
    <property name="video_index">0</property>
    <property name="mute_on_pause">0</property>
    <property name="mlt_service">avformat-novalidate</property>
    <property name="seekable">1</property>
    <property name="aspect_ratio">1</property>
    <property name="creation_time">2020-04-05T13:55:58</property>
    <property name="shotcut:hash">54631fa1ec31562eee0a931256e35e96</property>
    <property name="ignore_points">0</property>
    <property name="shotcut:caption">Jean-Jacques_chef_totoro.mp4</property>
    <property name="shotcut:skipConvert">1</property>
    <property name="global_feed">1</property>
    <property name="xml">was here</property>
    <filter id="filter13" in="00:00:06.680000" out="00:01:02.040000">
      <property name="background">colour:0</property>
      <property name="mlt_service">affine</property>
      <property name="shotcut:filter">affineSizePosition</property>
      <property name="transition.fill">1</property>
      <property name="transition.distort">0</property>
      <property name="transition.rect">-1920.0 -1080.0 1921.0 1081.0 1</property>
      <property name="transition.valign">top</property>
      <property name="transition.halign">left</property>
      <property name="shotcut:animIn">00:00:00.040000</property>
      <property name="shotcut:animOut">00:00:00.000</property>
      <property name="transition.threads">0</property>
    </filter>
    <filter id="filter14" in="00:00:06.680000" out="00:01:02.040000">
      <property name="window">75</property>
      <property name="max_gain">20dB</property>
      <property name="mlt_service">volume</property>
      <property name="shotcut:filter">muteVolume</property>
      <property name="gain">0</property>
    </filter>
  </producer>
  <playlist id="playlist2">
    <property name="shotcut:video">1</property>
    <property name="shotcut:name">JJS_chef</property>
    <property name="shotcut:lock">1</property>
    <blank length="00:00:29.000000" />
    <entry in="00:00:06.680000" out="00:01:02.040000" producer="producer7" />
  </playlist>
  <producer id="producer8" in="00:00:00.000" out="00:02:58.600" title="Anonymous Submission">
    <property name="length">00:02:58:16</property>
    <property name="eof">pause</property>
    <property name="resource">../../006 - Videos format youtube/Percussions/Jean-Jacques_percu_totoro.mp4</property>
    <property name="audio_index">1</property>
    <property name="video_index">0</property>
    <property name="mute_on_pause">0</property>
    <property name="mlt_service">avformat-novalidate</property>
    <property name="seekable">1</property>
    <property name="aspect_ratio">1</property>
    <property name="creation_time">2020-04-05T13:32:56</property>
    <property name="shotcut:hash">a1cdbff80b90b0e15755cba1300f6075</property>
    <property name="ignore_points">0</property>
    <property name="shotcut:caption">Jean-Jacques_percu_totoro.mp4</property>
    <property name="shotcut:skipConvert">1</property>
    <property name="global_feed">1</property>
    <property name="xml">was here</property>
    <filter id="filter15" in="00:00:08.280000" out="00:00:09.480000">
      <property name="background">colour:0</property>
      <property name="mlt_service">affine</property>
      <property name="shotcut:filter">affineSizePosition</property>
      <property name="transition.fill">1</property>
      <property name="transition.distort">0</property>
      <property name="transition.rect">-1920.0 -1080.0 1921.0 1081.0 1</property>
      <property name="transition.valign">top</property>
      <property name="transition.halign">left</property>
      <property name="shotcut:animIn">00:00:00.040000</property>
      <property name="shotcut:animOut">00:00:00.000</property>
      <property name="transition.threads">0</property>
    </filter>
    <filter id="filter16" in="00:00:08.280000" out="00:00:09.480000">
      <property name="window">75</property>
      <property name="max_gain">20dB</property>
      <property name="level">-2</property>
      <property name="mlt_service">volume</property>
    </filter>
    <filter id="filter17" in="00:00:08.280000" out="00:00:09.480000">
      <property name="window">75</property>
      <property name="max_gain">20dB</property>
      <property name="mlt_service">volume</property>
      <property name="shotcut:filter">muteVolume</property>
      <property name="gain">0</property>
    </filter>
  </producer>
  <producer id="producer9" in="00:00:00.000" out="00:02:58.600" title="Anonymous Submission">
    <property name="length">00:02:58:16</property>
    <property name="eof">pause</property>
    <property name="resource">../../006 - Videos format youtube/Percussions/Jean-Jacques_percu_totoro.mp4</property>
    <property name="audio_index">1</property>
    <property name="video_index">0</property>
    <property name="mute_on_pause">0</property>
    <property name="mlt_service">avformat-novalidate</property>
    <property name="seekable">1</property>
    <property name="aspect_ratio">1</property>
    <property name="creation_time">2020-04-05T13:32:56</property>
    <property name="shotcut:hash">a1cdbff80b90b0e15755cba1300f6075</property>
    <property name="ignore_points">0</property>
    <property name="shotcut:caption">Jean-Jacques_percu_totoro.mp4</property>
    <property name="shotcut:skipConvert">1</property>
    <property name="global_feed">1</property>
    <property name="xml">was here</property>
    <filter id="filter18" in="00:00:09.520000" out="00:00:10.720000">
      <property name="background">colour:0</property>
      <property name="mlt_service">affine</property>
      <property name="shotcut:filter">affineSizePosition</property>
      <property name="transition.fill">1</property>
      <property name="transition.distort">0</property>
      <property name="transition.rect">00:00:00.000000=-1920.0 -1080.0 1922.0 1081.0 1;00:00:00.000000=2048.0 431.0 384.0 216.0 1</property>
      <property name="transition.valign">top</property>
      <property name="transition.halign">left</property>
      <property name="shotcut:animIn">00:00:00.040000</property>
      <property name="shotcut:animOut">00:00:00.000</property>
      <property name="transition.threads">0</property>
    </filter>
    <filter id="filter19" in="00:00:09.520000" out="00:00:10.720000">
      <property name="window">75</property>
      <property name="max_gain">20dB</property>
      <property name="level">-2</property>
      <property name="mlt_service">volume</property>
    </filter>
    <filter id="filter20" in="00:00:09.520000" out="00:00:10.720000">
      <property name="window">75</property>
      <property name="max_gain">20dB</property>
      <property name="mlt_service">volume</property>
      <property name="shotcut:filter">muteVolume</property>
      <property name="gain">0</property>
    </filter>
  </producer>
  <producer id="producer10" in="00:00:00.000" out="00:02:58.600" title="Anonymous Submission">
    <property name="length">00:02:58:16</property>
    <property name="eof">pause</property>
    <property name="resource">../../006 - Videos format youtube/Percussions/Jean-Jacques_percu_totoro.mp4</property>
    <property name="audio_index">1</property>
    <property name="video_index">0</property>
    <property name="mute_on_pause">0</property>
    <property name="mlt_service">avformat-novalidate</property>
    <property name="seekable">1</property>
    <property name="aspect_ratio">1</property>
    <property name="creation_time">2020-04-05T13:32:56</property>
    <property name="shotcut:hash">a1cdbff80b90b0e15755cba1300f6075</property>
    <property name="ignore_points">0</property>
    <property name="shotcut:caption">Jean-Jacques_percu_totoro.mp4</property>
    <property name="shotcut:skipConvert">1</property>
    <property name="global_feed">1</property>
    <property name="xml">was here</property>
    <filter id="filter21" in="00:00:10.760000" out="00:00:12.000000">
      <property name="background">colour:0</property>
      <property name="mlt_service">affine</property>
      <property name="shotcut:filter">affineSizePosition</property>
      <property name="transition.fill">1</property>
      <property name="transition.distort">0</property>
      <property name="transition.rect">00:00:00.000000=2048.0 431.0 385.0 217.0 1;00:00:01.200000=1408.0 431.0 384.0 216.0 1</property>
      <property name="transition.valign">top</property>
      <property name="transition.halign">left</property>
      <property name="shotcut:animIn">00:00:01.240000</property>
      <property name="shotcut:animOut">00:00:00.000</property>
      <property name="transition.threads">0</property>
    </filter>
    <filter id="filter22" in="00:00:10.760000" out="00:00:12.000000">
      <property name="window">75</property>
      <property name="max_gain">20dB</property>
      <property name="level">-2</property>
      <property name="mlt_service">volume</property>
    </filter>
    <filter id="filter23" in="00:00:10.760000" out="00:00:12.000000">
      <property name="window">75</property>
      <property name="max_gain">20dB</property>
      <property name="mlt_service">volume</property>
      <property name="shotcut:filter">muteVolume</property>
      <property name="gain">0</property>
    </filter>
  </producer>
  <producer id="producer11" in="00:00:00.000" out="00:02:58.600" title="Anonymous Submission">
    <property name="length">00:02:58:16</property>
    <property name="eof">pause</property>
    <property name="resource">../../006 - Videos format youtube/Percussions/Jean-Jacques_percu_totoro.mp4</property>
    <property name="audio_index">1</property>
    <property name="video_index">0</property>
    <property name="mute_on_pause">0</property>
    <property name="mlt_service">avformat-novalidate</property>
    <property name="seekable">1</property>
    <property name="aspect_ratio">1</property>
    <property name="creation_time">2020-04-05T13:32:56</property>
    <property name="shotcut:hash">a1cdbff80b90b0e15755cba1300f6075</property>
    <property name="ignore_points">0</property>
    <property name="shotcut:caption">Jean-Jacques_percu_totoro.mp4</property>
    <property name="shotcut:skipConvert">1</property>
    <property name="global_feed">1</property>
    <property name="xml">was here</property>
    <filter id="filter24" in="00:00:12.040000" out="00:00:13.240000">
      <property name="background">colour:0</property>
      <property name="mlt_service">affine</property>
      <property name="shotcut:filter">affineSizePosition</property>
      <property name="transition.fill">1</property>
      <property name="transition.distort">0</property>
      <property name="transition.rect">00:00:00.000000=1408.0 431.0 385.0 217.0 1;00:00:01.200000=576.0 324.0 768.0 432.0 1</property>
      <property name="transition.valign">top</property>
      <property name="transition.halign">left</property>
      <property name="shotcut:animIn">00:00:01.240000</property>
      <property name="shotcut:animOut">00:00:00.000</property>
      <property name="transition.threads">0</property>
    </filter>
    <filter id="filter25" in="00:00:12.040000" out="00:00:13.240000">
      <property name="window">75</property>
      <property name="max_gain">20dB</property>
      <property name="level">-2</property>
      <property name="mlt_service">volume</property>
    </filter>
    <filter id="filter26" in="00:00:12.040000" out="00:00:13.240000">
      <property name="window">75</property>
      <property name="max_gain">20dB</property>
      <property name="mlt_service">volume</property>
      <property name="shotcut:filter">muteVolume</property>
      <property name="gain">0</property>
    </filter>
  </producer>
  <producer id="producer12" in="00:00:00.000" out="00:02:58.600" title="Anonymous Submission">
    <property name="length">00:02:58:16</property>
    <property name="eof">pause</property>
    <property name="resource">../../006 - Videos format youtube/Percussions/Jean-Jacques_percu_totoro.mp4</property>
    <property name="audio_index">1</property>
    <property name="video_index">0</property>
    <property name="mute_on_pause">0</property>
    <property name="mlt_service">avformat-novalidate</property>
    <property name="seekable">1</property>
    <property name="aspect_ratio">1</property>
    <property name="creation_time">2020-04-05T13:32:56</property>
    <property name="shotcut:hash">a1cdbff80b90b0e15755cba1300f6075</property>
    <property name="ignore_points">0</property>
    <property name="shotcut:caption">Jean-Jacques_percu_totoro.mp4</property>
    <property name="shotcut:skipConvert">1</property>
    <property name="global_feed">1</property>
    <property name="xml">was here</property>
    <filter id="filter27" in="00:00:13.280000" out="00:00:14.520000">
      <property name="background">colour:0</property>
      <property name="mlt_service">affine</property>
      <property name="shotcut:filter">affineSizePosition</property>
      <property name="transition.fill">1</property>
      <property name="transition.distort">0</property>
      <property name="transition.rect">00:00:00.000000=576.0 324.0 769.0 433.0 1;00:00:01.200000=128.0 431.0 384.0 216.0 1</property>
      <property name="transition.valign">top</property>
      <property name="transition.halign">left</property>
      <property name="shotcut:animIn">00:00:01.240000</property>
      <property name="shotcut:animOut">00:00:00.000</property>
      <property name="transition.threads">0</property>
    </filter>
    <filter id="filter28" in="00:00:13.280000" out="00:00:14.520000">
      <property name="window">75</property>
      <property name="max_gain">20dB</property>
      <property name="level">-2</property>
      <property name="mlt_service">volume</property>
    </filter>
    <filter id="filter29" in="00:00:13.280000" out="00:00:14.520000">
      <property name="window">75</property>
      <property name="max_gain">20dB</property>
      <property name="mlt_service">volume</property>
      <property name="shotcut:filter">muteVolume</property>
      <property name="gain">0</property>
    </filter>
  </producer>
  <producer id="producer13" in="00:00:00.000" out="00:02:58.600" title="Anonymous Submission">
    <property name="length">00:02:58:16</property>
    <property name="eof">pause</property>
    <property name="resource">../../006 - Videos format youtube/Percussions/Jean-Jacques_percu_totoro.mp4</property>
    <property name="audio_index">1</property>
    <property name="video_index">0</property>
    <property name="mute_on_pause">0</property>
    <property name="mlt_service">avformat-novalidate</property>
    <property name="seekable">1</property>
    <property name="aspect_ratio">1</property>
    <property name="creation_time">2020-04-05T13:32:56</property>
    <property name="shotcut:hash">a1cdbff80b90b0e15755cba1300f6075</property>
    <property name="ignore_points">0</property>
    <property name="shotcut:caption">Jean-Jacques_percu_totoro.mp4</property>
    <property name="shotcut:skipConvert">1</property>
    <property name="global_feed">1</property>
    <property name="xml">was here</property>
    <filter id="filter30" in="00:00:14.560000" out="00:01:03.640000">
      <property name="background">colour:0</property>
      <property name="mlt_service">affine</property>
      <property name="shotcut:filter">affineSizePosition</property>
      <property name="transition.fill">1</property>
      <property name="transition.distort">0</property>
      <property name="transition.rect">00:00:00.000000=128.0 431.0 385.0 217.0 1;00:00:01.200000=-512.0 431.0 384.0 216.0 1</property>
      <property name="transition.valign">top</property>
      <property name="transition.halign">left</property>
      <property name="shotcut:animIn">00:00:01.240000</property>
      <property name="shotcut:animOut">00:00:00.000</property>
      <property name="transition.threads">0</property>
    </filter>
    <filter id="filter31" in="00:00:14.560000" out="00:01:03.640000">
      <property name="window">75</property>
      <property name="max_gain">20dB</property>
      <property name="level">-2</property>
      <property name="mlt_service">volume</property>
    </filter>
    <filter id="filter32" in="00:00:14.560000" out="00:01:03.640000">
      <property name="window">75</property>
      <property name="max_gain">20dB</property>
      <property name="mlt_service">volume</property>
      <property name="shotcut:filter">muteVolume</property>
      <property name="gain">0</property>
    </filter>
  </producer>
  <playlist id="playlist3">
    <property name="shotcut:video">1</property>
    <property name="shotcut:name">JJS Percu</property>
    <property name="shotcut:lock">1</property>
    <blank length="00:00:29.000000" />
    <entry in="00:00:08.280000" out="00:00:09.480000" producer="producer8" />
    <entry in="00:00:09.520000" out="00:00:10.720000" producer="producer9" />
    <entry in="00:00:10.760000" out="00:00:12.000000" producer="producer10" />
    <entry in="00:00:12.040000" out="00:00:13.240000" producer="producer11" />
    <entry in="00:00:13.280000" out="00:00:14.520000" producer="producer12" />
    <entry in="00:00:14.560000" out="00:01:03.640000" producer="producer13" />
    <filter id="filter33" out="00:03:41.680">
      <property name="window">75</property>
      <property name="max_gain">20dB</property>
      <property name="level">-8</property>
      <property name="mlt_service">volume</property>
    </filter>
  </playlist>
  <producer id="producer14" in="00:00:00.000" out="00:02:57.280" title="Anonymous Submission">
    <property name="length">00:02:57:08</property>
    <property name="eof">pause</property>
    <property name="resource">../../006 - Videos format youtube/Chef/Jean-Jacques_chef_lach&#233; prise.mp4</property>
    <property name="audio_index">1</property>
    <property name="video_index">0</property>
    <property name="mute_on_pause">0</property>
    <property name="mlt_service">avformat-novalidate</property>
    <property name="seekable">1</property>
    <property name="aspect_ratio">1</property>
    <property name="shotcut:hash">4af0ab01efd3cc0f2a28e1cc1318c9c1</property>
    <property name="ignore_points">0</property>
    <property name="shotcut:caption">Jean-Jacques_chef_lach&#233; prise.mp4</property>
    <property name="shotcut:skipConvert">1</property>
    <property name="global_feed">1</property>
    <property name="xml">was here</property>
    <filter id="filter34" in="00:00:07.600000" out="00:00:56.640000">
      <property name="background">colour:0</property>
      <property name="mlt_service">affine</property>
      <property name="shotcut:filter">affineSizePosition</property>
      <property name="transition.fill">1</property>
      <property name="transition.distort">0</property>
      <property name="transition.rect">-1920.0 -1080.0 1921.0 1081.0 1</property>
      <property name="transition.valign">top</property>
      <property name="transition.halign">left</property>
      <property name="shotcut:animIn">00:00:00.040000</property>
      <property name="shotcut:animOut">00:00:00.000</property>
      <property name="transition.threads">0</property>
    </filter>
    <filter id="filter35" in="00:00:07.600000" out="00:00:56.640000">
      <property name="window">75</property>
      <property name="max_gain">20dB</property>
      <property name="mlt_service">volume</property>
      <property name="shotcut:filter">muteVolume</property>
      <property name="gain">0</property>
    </filter>
  </producer>
  <producer id="producer15" in="00:00:00.000" out="00:02:57.280" title="Anonymous Submission">
    <property name="length">00:02:57:08</property>
    <property name="eof">pause</property>
    <property name="resource">../../006 - Videos format youtube/Chef/Jean-Jacques_chef_lach&#233; prise.mp4</property>
    <property name="audio_index">1</property>
    <property name="video_index">0</property>
    <property name="mute_on_pause">0</property>
    <property name="mlt_service">avformat-novalidate</property>
    <property name="seekable">1</property>
    <property name="aspect_ratio">1</property>
    <property name="shotcut:hash">4af0ab01efd3cc0f2a28e1cc1318c9c1</property>
    <property name="ignore_points">0</property>
    <property name="shotcut:caption">Jean-Jacques_chef_lach&#233; prise.mp4</property>
    <property name="shotcut:skipConvert">1</property>
    <property name="global_feed">1</property>
    <property name="xml">was here</property>
    <filter id="filter36" in="00:00:56.680000" out="00:00:57.920000">
      <property name="background">colour:0</property>
      <property name="mlt_service">affine</property>
      <property name="shotcut:filter">affineSizePosition</property>
      <property name="transition.fill">1</property>
      <property name="transition.distort">0</property>
      <property name="transition.rect">00:00:00.000000=-1920.0 -1080.0 1922.0 1081.0 1;00:00:00.000000=2048.0 431.0 384.0 216.0 1</property>
      <property name="transition.valign">top</property>
      <property name="transition.halign">left</property>
      <property name="shotcut:animIn">00:00:00.040000</property>
      <property name="shotcut:animOut">00:00:00.000</property>
      <property name="transition.threads">0</property>
    </filter>
    <filter id="filter37" in="00:00:56.680000" out="00:00:57.920000">
      <property name="window">75</property>
      <property name="max_gain">20dB</property>
      <property name="mlt_service">volume</property>
      <property name="shotcut:filter">muteVolume</property>
      <property name="gain">0</property>
    </filter>
  </producer>
  <producer id="producer16" in="00:00:00.000" out="00:02:57.280" title="Anonymous Submission">
    <property name="length">00:02:57:08</property>
    <property name="eof">pause</property>
    <property name="resource">../../006 - Videos format youtube/Chef/Jean-Jacques_chef_lach&#233; prise.mp4</property>
    <property name="audio_index">1</property>
    <property name="video_index">0</property>
    <property name="mute_on_pause">0</property>
    <property name="mlt_service">avformat-novalidate</property>
    <property name="seekable">1</property>
    <property name="aspect_ratio">1</property>
    <property name="shotcut:hash">4af0ab01efd3cc0f2a28e1cc1318c9c1</property>
    <property name="ignore_points">0</property>
    <property name="shotcut:caption">Jean-Jacques_chef_lach&#233; prise.mp4</property>
    <property name="shotcut:skipConvert">1</property>
    <property name="global_feed">1</property>
    <property name="xml">was here</property>
    <filter id="filter38" in="00:00:57.960000" out="00:00:59.160000">
      <property name="background">colour:0</property>
      <property name="mlt_service">affine</property>
      <property name="shotcut:filter">affineSizePosition</property>
      <property name="transition.fill">1</property>
      <property name="transition.distort">0</property>
      <property name="transition.rect">00:00:00.000000=2048.0 431.0 385.0 217.0 1;00:00:01.200000=1408.0 431.0 384.0 216.0 1</property>
      <property name="transition.valign">top</property>
      <property name="transition.halign">left</property>
      <property name="shotcut:animIn">00:00:01.240000</property>
      <property name="shotcut:animOut">00:00:00.000</property>
      <property name="transition.threads">0</property>
    </filter>
    <filter id="filter39" in="00:00:57.960000" out="00:00:59.160000">
      <property name="window">75</property>
      <property name="max_gain">20dB</property>
      <property name="mlt_service">volume</property>
      <property name="shotcut:filter">muteVolume</property>
      <property name="gain">0</property>
    </filter>
  </producer>
  <producer id="producer17" in="00:00:00.000" out="00:02:57.280" title="Anonymous Submission">
    <property name="length">00:02:57:08</property>
    <property name="eof">pause</property>
    <property name="resource">../../006 - Videos format youtube/Chef/Jean-Jacques_chef_lach&#233; prise.mp4</property>
    <property name="audio_index">1</property>
    <property name="video_index">0</property>
    <property name="mute_on_pause">0</property>
    <property name="mlt_service">avformat-novalidate</property>
    <property name="seekable">1</property>
    <property name="aspect_ratio">1</property>
    <property name="shotcut:hash">4af0ab01efd3cc0f2a28e1cc1318c9c1</property>
    <property name="ignore_points">0</property>
    <property name="shotcut:caption">Jean-Jacques_chef_lach&#233; prise.mp4</property>
    <property name="shotcut:skipConvert">1</property>
    <property name="global_feed">1</property>
    <property name="xml">was here</property>
    <filter id="filter40" in="00:00:59.200000" out="00:01:00.440000">
      <property name="background">colour:0</property>
      <property name="mlt_service">affine</property>
      <property name="shotcut:filter">affineSizePosition</property>
      <property name="transition.fill">1</property>
      <property name="transition.distort">0</property>
      <property name="transition.rect">00:00:00.000000=1408.0 431.0 385.0 217.0 1;00:00:01.200000=576.0 324.0 768.0 432.0 1</property>
      <property name="transition.valign">top</property>
      <property name="transition.halign">left</property>
      <property name="shotcut:animIn">00:00:01.240000</property>
      <property name="shotcut:animOut">00:00:00.000</property>
      <property name="transition.threads">0</property>
    </filter>
    <filter id="filter41" in="00:00:59.200000" out="00:01:00.440000">
      <property name="window">75</property>
      <property name="max_gain">20dB</property>
      <property name="mlt_service">volume</property>
      <property name="shotcut:filter">muteVolume</property>
      <property name="gain">0</property>
    </filter>
  </producer>
  <producer id="producer18" in="00:00:00.000" out="00:02:57.280" title="Anonymous Submission">
    <property name="length">00:02:57:08</property>
    <property name="eof">pause</property>
    <property name="resource">../../006 - Videos format youtube/Chef/Jean-Jacques_chef_lach&#233; prise.mp4</property>
    <property name="audio_index">1</property>
    <property name="video_index">0</property>
    <property name="mute_on_pause">0</property>
    <property name="mlt_service">avformat-novalidate</property>
    <property name="seekable">1</property>
    <property name="aspect_ratio">1</property>
    <property name="shotcut:hash">4af0ab01efd3cc0f2a28e1cc1318c9c1</property>
    <property name="ignore_points">0</property>
    <property name="shotcut:caption">Jean-Jacques_chef_lach&#233; prise.mp4</property>
    <property name="shotcut:skipConvert">1</property>
    <property name="global_feed">1</property>
    <property name="xml">was here</property>
    <filter id="filter42" in="00:01:00.480000" out="00:01:01.680000">
      <property name="background">colour:0</property>
      <property name="mlt_service">affine</property>
      <property name="shotcut:filter">affineSizePosition</property>
      <property name="transition.fill">1</property>
      <property name="transition.distort">0</property>
      <property name="transition.rect">00:00:00.000000=576.0 324.0 769.0 433.0 1;00:00:01.200000=128.0 431.0 384.0 216.0 1</property>
      <property name="transition.valign">top</property>
      <property name="transition.halign">left</property>
      <property name="shotcut:animIn">00:00:01.240000</property>
      <property name="shotcut:animOut">00:00:00.000</property>
      <property name="transition.threads">0</property>
    </filter>
    <filter id="filter43" in="00:01:00.480000" out="00:01:01.680000">
      <property name="window">75</property>
      <property name="max_gain">20dB</property>
      <property name="mlt_service">volume</property>
      <property name="shotcut:filter">muteVolume</property>
      <property name="gain">0</property>
    </filter>
  </producer>
  <producer id="producer19" in="00:00:00.000" out="00:02:57.280" title="Anonymous Submission">
    <property name="length">00:02:57:08</property>
    <property name="eof">pause</property>
    <property name="resource">../../006 - Videos format youtube/Chef/Jean-Jacques_chef_lach&#233; prise.mp4</property>
    <property name="audio_index">1</property>
    <property name="video_index">0</property>
    <property name="mute_on_pause">0</property>
    <property name="mlt_service">avformat-novalidate</property>
    <property name="seekable">1</property>
    <property name="aspect_ratio">1</property>
    <property name="shotcut:hash">4af0ab01efd3cc0f2a28e1cc1318c9c1</property>
    <property name="ignore_points">0</property>
    <property name="shotcut:caption">Jean-Jacques_chef_lach&#233; prise.mp4</property>
    <property name="shotcut:skipConvert">1</property>
    <property name="global_feed">1</property>
    <property name="xml">was here</property>
    <filter id="filter44" in="00:01:01.720000" out="00:01:02.960000">
      <property name="background">colour:0</property>
      <property name="mlt_service">affine</property>
      <property name="shotcut:filter">affineSizePosition</property>
      <property name="transition.fill">1</property>
      <property name="transition.distort">0</property>
      <property name="transition.rect">00:00:00.000000=128.0 431.0 385.0 217.0 1;00:00:01.200000=-512.0 431.0 384.0 216.0 1</property>
      <property name="transition.valign">top</property>
      <property name="transition.halign">left</property>
      <property name="shotcut:animIn">00:00:01.240000</property>
      <property name="shotcut:animOut">00:00:00.000</property>
      <property name="transition.threads">0</property>
    </filter>
    <filter id="filter45" in="00:01:01.720000" out="00:01:02.960000">
      <property name="window">75</property>
      <property name="max_gain">20dB</property>
      <property name="mlt_service">volume</property>
      <property name="shotcut:filter">muteVolume</property>
      <property name="gain">0</property>
    </filter>
  </producer>
  <playlist id="playlist4">
    <property name="shotcut:video">1</property>
    <property name="shotcut:name">JJS lach&#233; prise</property>
    <property name="shotcut:lock">1</property>
    <blank length="00:00:29.000000" />
    <entry in="00:00:07.600000" out="00:00:56.640000" producer="producer14" />
  <entry in="00:00:56.680000" out="00:00:57.920000" producer="producer15" />
  <entry in="00:00:57.960000" out="00:00:59.160000" producer="producer16" />
  <entry in="00:00:59.200000" out="00:01:00.440000" producer="producer17" />
  <entry in="00:01:00.480000" out="00:01:01.680000" producer="producer18" />
  <entry in="00:01:01.720000" out="00:01:02.960000" producer="producer19" />
  </playlist>
  <producer id="producer20" in="00:00:00.000" out="00:03:16.800" title="Anonymous Submission">
    <property name="length">00:03:16:21</property>
    <property name="eof">pause</property>
    <property name="resource">../../006 - Videos format youtube/Percussions/Alizee_piano_totoro.mp4</property>
    <property name="audio_index">1</property>
    <property name="video_index">0</property>
    <property name="mute_on_pause">0</property>
    <property name="mlt_service">avformat-novalidate</property>
    <property name="seekable">1</property>
    <property name="aspect_ratio">1</property>
    <property name="creation_time">2020-04-18T16:05:16</property>
    <property name="shotcut:hash">a1e6a8a71a5f1a2680d6075bfdc34382</property>
    <property name="ignore_points">0</property>
    <property name="shotcut:caption">Alizee_piano_totoro.mp4</property>
    <property name="shotcut:skipConvert">1</property>
    <property name="global_feed">1</property>
    <property name="xml">was here</property>
    <filter id="filter46" in="00:00:24.000000" out="00:00:26.440000">
      <property name="background">colour:0</property>
      <property name="mlt_service">affine</property>
      <property name="shotcut:filter">affineSizePosition</property>
      <property name="transition.fill">1</property>
      <property name="transition.distort">0</property>
      <property name="transition.rect">-1920.0 -1080.0 1921.0 1081.0 1</property>
      <property name="transition.valign">top</property>
      <property name="transition.halign">left</property>
      <property name="shotcut:animIn">00:00:00.040000</property>
      <property name="shotcut:animOut">00:00:00.000</property>
      <property name="transition.threads">0</property>
    </filter>
  </producer>
  <producer id="producer21" in="00:00:00.000" out="00:03:16.800" title="Anonymous Submission">
    <property name="length">00:03:16:21</property>
    <property name="eof">pause</property>
    <property name="resource">../../006 - Videos format youtube/Percussions/Alizee_piano_totoro.mp4</property>
    <property name="audio_index">1</property>
    <property name="video_index">0</property>
    <property name="mute_on_pause">0</property>
    <property name="mlt_service">avformat-novalidate</property>
    <property name="seekable">1</property>
    <property name="aspect_ratio">1</property>
    <property name="creation_time">2020-04-18T16:05:16</property>
    <property name="shotcut:hash">a1e6a8a71a5f1a2680d6075bfdc34382</property>
    <property name="ignore_points">0</property>
    <property name="shotcut:caption">Alizee_piano_totoro.mp4</property>
    <property name="shotcut:skipConvert">1</property>
    <property name="global_feed">1</property>
    <property name="xml">was here</property>
    <filter id="filter47" in="00:00:26.480000" out="00:00:27.720000">
      <property name="background">colour:0</property>
      <property name="mlt_service">affine</property>
      <property name="shotcut:filter">affineSizePosition</property>
      <property name="transition.fill">1</property>
      <property name="transition.distort">0</property>
      <property name="transition.rect">00:00:00.000000=-1920.0 -1080.0 1922.0 1081.0 1;00:00:00.000000=2048.0 431.0 384.0 216.0 1</property>
      <property name="transition.valign">top</property>
      <property name="transition.halign">left</property>
      <property name="shotcut:animIn">00:00:00.040000</property>
      <property name="shotcut:animOut">00:00:00.000</property>
      <property name="transition.threads">0</property>
    </filter>
  </producer>
  <producer id="producer22" in="00:00:00.000" out="00:03:16.800" title="Anonymous Submission">
    <property name="length">00:03:16:21</property>
    <property name="eof">pause</property>
    <property name="resource">../../006 - Videos format youtube/Percussions/Alizee_piano_totoro.mp4</property>
    <property name="audio_index">1</property>
    <property name="video_index">0</property>
    <property name="mute_on_pause">0</property>
    <property name="mlt_service">avformat-novalidate</property>
    <property name="seekable">1</property>
    <property name="aspect_ratio">1</property>
    <property name="creation_time">2020-04-18T16:05:16</property>
    <property name="shotcut:hash">a1e6a8a71a5f1a2680d6075bfdc34382</property>
    <property name="ignore_points">0</property>
    <property name="shotcut:caption">Alizee_piano_totoro.mp4</property>
    <property name="shotcut:skipConvert">1</property>
    <property name="global_feed">1</property>
    <property name="xml">was here</property>
    <filter id="filter48" in="00:00:27.760000" out="00:00:28.960000">
      <property name="background">colour:0</property>
      <property name="mlt_service">affine</property>
      <property name="shotcut:filter">affineSizePosition</property>
      <property name="transition.fill">1</property>
      <property name="transition.distort">0</property>
      <property name="transition.rect">00:00:00.000000=2048.0 431.0 385.0 217.0 1;00:00:01.200000=1408.0 431.0 384.0 216.0 1</property>
      <property name="transition.valign">top</property>
      <property name="transition.halign">left</property>
      <property name="shotcut:animIn">00:00:01.240000</property>
      <property name="shotcut:animOut">00:00:00.000</property>
      <property name="transition.threads">0</property>
    </filter>
  </producer>
  <producer id="producer23" in="00:00:00.000" out="00:03:16.800" title="Anonymous Submission">
    <property name="length">00:03:16:21</property>
    <property name="eof">pause</property>
    <property name="resource">../../006 - Videos format youtube/Percussions/Alizee_piano_totoro.mp4</property>
    <property name="audio_index">1</property>
    <property name="video_index">0</property>
    <property name="mute_on_pause">0</property>
    <property name="mlt_service">avformat-novalidate</property>
    <property name="seekable">1</property>
    <property name="aspect_ratio">1</property>
    <property name="creation_time">2020-04-18T16:05:16</property>
    <property name="shotcut:hash">a1e6a8a71a5f1a2680d6075bfdc34382</property>
    <property name="ignore_points">0</property>
    <property name="shotcut:caption">Alizee_piano_totoro.mp4</property>
    <property name="shotcut:skipConvert">1</property>
    <property name="global_feed">1</property>
    <property name="xml">was here</property>
    <filter id="filter49" in="00:00:29.000000" out="00:00:30.240000">
      <property name="background">colour:0</property>
      <property name="mlt_service">affine</property>
      <property name="shotcut:filter">affineSizePosition</property>
      <property name="transition.fill">1</property>
      <property name="transition.distort">0</property>
      <property name="transition.rect">00:00:00.000000=1408.0 431.0 385.0 217.0 1;00:00:01.200000=576.0 324.0 768.0 432.0 1</property>
      <property name="transition.valign">top</property>
      <property name="transition.halign">left</property>
      <property name="shotcut:animIn">00:00:01.240000</property>
      <property name="shotcut:animOut">00:00:00.000</property>
      <property name="transition.threads">0</property>
    </filter>
  </producer>
  <producer id="producer24" in="00:00:00.000" out="00:03:16.800" title="Anonymous Submission">
    <property name="length">00:03:16:21</property>
    <property name="eof">pause</property>
    <property name="resource">../../006 - Videos format youtube/Percussions/Alizee_piano_totoro.mp4</property>
    <property name="audio_index">1</property>
    <property name="video_index">0</property>
    <property name="mute_on_pause">0</property>
    <property name="mlt_service">avformat-novalidate</property>
    <property name="seekable">1</property>
    <property name="aspect_ratio">1</property>
    <property name="creation_time">2020-04-18T16:05:16</property>
    <property name="shotcut:hash">a1e6a8a71a5f1a2680d6075bfdc34382</property>
    <property name="ignore_points">0</property>
    <property name="shotcut:caption">Alizee_piano_totoro.mp4</property>
    <property name="shotcut:skipConvert">1</property>
    <property name="global_feed">1</property>
    <property name="xml">was here</property>
    <filter id="filter50" in="00:00:30.280000" out="00:00:31.480000">
      <property name="background">colour:0</property>
      <property name="mlt_service">affine</property>
      <property name="shotcut:filter">affineSizePosition</property>
      <property name="transition.fill">1</property>
      <property name="transition.distort">0</property>
      <property name="transition.rect">00:00:00.000000=576.0 324.0 769.0 433.0 1;00:00:01.200000=128.0 431.0 384.0 216.0 1</property>
      <property name="transition.valign">top</property>
      <property name="transition.halign">left</property>
      <property name="shotcut:animIn">00:00:01.240000</property>
      <property name="shotcut:animOut">00:00:00.000</property>
      <property name="transition.threads">0</property>
    </filter>
  </producer>
  <producer id="producer25" in="00:00:00.000" out="00:03:16.800" title="Anonymous Submission">
    <property name="length">00:03:16:21</property>
    <property name="eof">pause</property>
    <property name="resource">../../006 - Videos format youtube/Percussions/Alizee_piano_totoro.mp4</property>
    <property name="audio_index">1</property>
    <property name="video_index">0</property>
    <property name="mute_on_pause">0</property>
    <property name="mlt_service">avformat-novalidate</property>
    <property name="seekable">1</property>
    <property name="aspect_ratio">1</property>
    <property name="creation_time">2020-04-18T16:05:16</property>
    <property name="shotcut:hash">a1e6a8a71a5f1a2680d6075bfdc34382</property>
    <property name="ignore_points">0</property>
    <property name="shotcut:caption">Alizee_piano_totoro.mp4</property>
    <property name="shotcut:skipConvert">1</property>
    <property name="global_feed">1</property>
    <property name="xml">was here</property>
    <filter id="filter51" in="00:00:31.520000" out="00:01:19.360000">
      <property name="background">colour:0</property>
      <property name="mlt_service">affine</property>
      <property name="shotcut:filter">affineSizePosition</property>
      <property name="transition.fill">1</property>
      <property name="transition.distort">0</property>
      <property name="transition.rect">00:00:00.000000=128.0 431.0 385.0 217.0 1;00:00:01.200000=-512.0 431.0 384.0 216.0 1</property>
      <property name="transition.valign">top</property>
      <property name="transition.halign">left</property>
      <property name="shotcut:animIn">00:00:01.240000</property>
      <property name="shotcut:animOut">00:00:00.000</property>
      <property name="transition.threads">0</property>
    </filter>
  </producer>
  <playlist id="playlist5">
    <property name="shotcut:video">1</property>
    <property name="shotcut:name">Alizee</property>
    <property name="shotcut:lock">1</property>
    <blank length="00:00:29.000000" />
    <entry in="00:00:24.000000" out="00:00:26.440000" producer="producer20" />
    <entry in="00:00:26.480000" out="00:00:27.720000" producer="producer21" />
    <entry in="00:00:27.760000" out="00:00:28.960000" producer="producer22" />
    <entry in="00:00:29.000000" out="00:00:30.240000" producer="producer23" />
    <entry in="00:00:30.280000" out="00:00:31.480000" producer="producer24" />
    <entry in="00:00:31.520000" out="00:01:19.360000" producer="producer25" />
    <filter id="filter52" out="00:03:41.680">
      <property name="window">75</property>
      <property name="max_gain">20dB</property>
      <property name="level">-6</property>
      <property name="mlt_service">volume</property>
    </filter>
  </playlist>
  <producer id="producer26" in="00:00:00.000" out="00:03:32.480" title="Anonymous Submission">
    <property name="length">00:03:32:13</property>
    <property name="eof">pause</property>
    <property name="resource">../../006 - Videos format youtube/Percussions/Flore_piano_totoro.mp4</property>
    <property name="audio_index">1</property>
    <property name="video_index">0</property>
    <property name="mute_on_pause">0</property>
    <property name="mlt_service">avformat-novalidate</property>
    <property name="seekable">1</property>
    <property name="aspect_ratio">1</property>
    <property name="creation_time">2020-05-07T19:01:41</property>
    <property name="shotcut:hash">14bc3475bb6bea8e129a8f14ee95db47</property>
    <property name="ignore_points">0</property>
    <property name="shotcut:caption">Flore_piano_totoro.mp4</property>
    <property name="shotcut:skipConvert">1</property>
    <property name="global_feed">1</property>
    <property name="xml">was here</property>
    <filter id="filter53" in="00:00:36.080000" out="00:00:39.800000">
      <property name="background">colour:0</property>
      <property name="mlt_service">affine</property>
      <property name="shotcut:filter">affineSizePosition</property>
      <property name="transition.fill">1</property>
      <property name="transition.distort">0</property>
      <property name="transition.rect">-1920.0 -1080.0 1921.0 1081.0 1</property>
      <property name="transition.valign">top</property>
      <property name="transition.halign">left</property>
      <property name="shotcut:animIn">00:00:00.040000</property>
      <property name="shotcut:animOut">00:00:00.000</property>
      <property name="transition.threads">0</property>
    </filter>
  </producer>
  <producer id="producer27" in="00:00:00.000" out="00:03:32.480" title="Anonymous Submission">
    <property name="length">00:03:32:13</property>
    <property name="eof">pause</property>
    <property name="resource">../../006 - Videos format youtube/Percussions/Flore_piano_totoro.mp4</property>
    <property name="audio_index">1</property>
    <property name="video_index">0</property>
    <property name="mute_on_pause">0</property>
    <property name="mlt_service">avformat-novalidate</property>
    <property name="seekable">1</property>
    <property name="aspect_ratio">1</property>
    <property name="creation_time">2020-05-07T19:01:41</property>
    <property name="shotcut:hash">14bc3475bb6bea8e129a8f14ee95db47</property>
    <property name="ignore_points">0</property>
    <property name="shotcut:caption">Flore_piano_totoro.mp4</property>
    <property name="shotcut:skipConvert">1</property>
    <property name="global_feed">1</property>
    <property name="xml">was here</property>
    <filter id="filter54" in="00:00:39.840000" out="00:00:41.040000">
      <property name="background">colour:0</property>
      <property name="mlt_service">affine</property>
      <property name="shotcut:filter">affineSizePosition</property>
      <property name="transition.fill">1</property>
      <property name="transition.distort">0</property>
      <property name="transition.rect">00:00:00.000000=-1920.0 -1080.0 1922.0 1081.0 1;00:00:00.000000=2048.0 431.0 384.0 216.0 1</property>
      <property name="transition.valign">top</property>
      <property name="transition.halign">left</property>
      <property name="shotcut:animIn">00:00:00.040000</property>
      <property name="shotcut:animOut">00:00:00.000</property>
      <property name="transition.threads">0</property>
    </filter>
  </producer>
  <producer id="producer28" in="00:00:00.000" out="00:03:32.480" title="Anonymous Submission">
    <property name="length">00:03:32:13</property>
    <property name="eof">pause</property>
    <property name="resource">../../006 - Videos format youtube/Percussions/Flore_piano_totoro.mp4</property>
    <property name="audio_index">1</property>
    <property name="video_index">0</property>
    <property name="mute_on_pause">0</property>
    <property name="mlt_service">avformat-novalidate</property>
    <property name="seekable">1</property>
    <property name="aspect_ratio">1</property>
    <property name="creation_time">2020-05-07T19:01:41</property>
    <property name="shotcut:hash">14bc3475bb6bea8e129a8f14ee95db47</property>
    <property name="ignore_points">0</property>
    <property name="shotcut:caption">Flore_piano_totoro.mp4</property>
    <property name="shotcut:skipConvert">1</property>
    <property name="global_feed">1</property>
    <property name="xml">was here</property>
    <filter id="filter55" in="00:00:41.080000" out="00:00:42.320000">
      <property name="background">colour:0</property>
      <property name="mlt_service">affine</property>
      <property name="shotcut:filter">affineSizePosition</property>
      <property name="transition.fill">1</property>
      <property name="transition.distort">0</property>
      <property name="transition.rect">00:00:00.000000=2048.0 431.0 385.0 217.0 1;00:00:01.200000=1408.0 431.0 384.0 216.0 1</property>
      <property name="transition.valign">top</property>
      <property name="transition.halign">left</property>
      <property name="shotcut:animIn">00:00:01.240000</property>
      <property name="shotcut:animOut">00:00:00.000</property>
      <property name="transition.threads">0</property>
    </filter>
  </producer>
  <producer id="producer29" in="00:00:00.000" out="00:03:32.480" title="Anonymous Submission">
    <property name="length">00:03:32:13</property>
    <property name="eof">pause</property>
    <property name="resource">../../006 - Videos format youtube/Percussions/Flore_piano_totoro.mp4</property>
    <property name="audio_index">1</property>
    <property name="video_index">0</property>
    <property name="mute_on_pause">0</property>
    <property name="mlt_service">avformat-novalidate</property>
    <property name="seekable">1</property>
    <property name="aspect_ratio">1</property>
    <property name="creation_time">2020-05-07T19:01:41</property>
    <property name="shotcut:hash">14bc3475bb6bea8e129a8f14ee95db47</property>
    <property name="ignore_points">0</property>
    <property name="shotcut:caption">Flore_piano_totoro.mp4</property>
    <property name="shotcut:skipConvert">1</property>
    <property name="global_feed">1</property>
    <property name="xml">was here</property>
    <filter id="filter56" in="00:00:42.360000" out="00:00:43.560000">
      <property name="background">colour:0</property>
      <property name="mlt_service">affine</property>
      <property name="shotcut:filter">affineSizePosition</property>
      <property name="transition.fill">1</property>
      <property name="transition.distort">0</property>
      <property name="transition.rect">00:00:00.000000=1408.0 431.0 385.0 217.0 1;00:00:01.200000=576.0 324.0 768.0 432.0 1</property>
      <property name="transition.valign">top</property>
      <property name="transition.halign">left</property>
      <property name="shotcut:animIn">00:00:01.240000</property>
      <property name="shotcut:animOut">00:00:00.000</property>
      <property name="transition.threads">0</property>
    </filter>
  </producer>
  <producer id="producer30" in="00:00:00.000" out="00:03:32.480" title="Anonymous Submission">
    <property name="length">00:03:32:13</property>
    <property name="eof">pause</property>
    <property name="resource">../../006 - Videos format youtube/Percussions/Flore_piano_totoro.mp4</property>
    <property name="audio_index">1</property>
    <property name="video_index">0</property>
    <property name="mute_on_pause">0</property>
    <property name="mlt_service">avformat-novalidate</property>
    <property name="seekable">1</property>
    <property name="aspect_ratio">1</property>
    <property name="creation_time">2020-05-07T19:01:41</property>
    <property name="shotcut:hash">14bc3475bb6bea8e129a8f14ee95db47</property>
    <property name="ignore_points">0</property>
    <property name="shotcut:caption">Flore_piano_totoro.mp4</property>
    <property name="shotcut:skipConvert">1</property>
    <property name="global_feed">1</property>
    <property name="xml">was here</property>
    <filter id="filter57" in="00:00:43.600000" out="00:00:44.840000">
      <property name="background">colour:0</property>
      <property name="mlt_service">affine</property>
      <property name="shotcut:filter">affineSizePosition</property>
      <property name="transition.fill">1</property>
      <property name="transition.distort">0</property>
      <property name="transition.rect">00:00:00.000000=576.0 324.0 769.0 433.0 1;00:00:01.200000=128.0 431.0 384.0 216.0 1</property>
      <property name="transition.valign">top</property>
      <property name="transition.halign">left</property>
      <property name="shotcut:animIn">00:00:01.240000</property>
      <property name="shotcut:animOut">00:00:00.000</property>
      <property name="transition.threads">0</property>
    </filter>
  </producer>
  <producer id="producer31" in="00:00:00.000" out="00:03:32.480" title="Anonymous Submission">
    <property name="length">00:03:32:13</property>
    <property name="eof">pause</property>
    <property name="resource">../../006 - Videos format youtube/Percussions/Flore_piano_totoro.mp4</property>
    <property name="audio_index">1</property>
    <property name="video_index">0</property>
    <property name="mute_on_pause">0</property>
    <property name="mlt_service">avformat-novalidate</property>
    <property name="seekable">1</property>
    <property name="aspect_ratio">1</property>
    <property name="creation_time">2020-05-07T19:01:41</property>
    <property name="shotcut:hash">14bc3475bb6bea8e129a8f14ee95db47</property>
    <property name="ignore_points">0</property>
    <property name="shotcut:caption">Flore_piano_totoro.mp4</property>
    <property name="shotcut:skipConvert">1</property>
    <property name="global_feed">1</property>
    <property name="xml">was here</property>
    <filter id="filter58" in="00:00:44.880000" out="00:01:31.440000">
      <property name="background">colour:0</property>
      <property name="mlt_service">affine</property>
      <property name="shotcut:filter">affineSizePosition</property>
      <property name="transition.fill">1</property>
      <property name="transition.distort">0</property>
      <property name="transition.rect">00:00:00.000000=128.0 431.0 385.0 217.0 1;00:00:01.200000=-512.0 431.0 384.0 216.0 1</property>
      <property name="transition.valign">top</property>
      <property name="transition.halign">left</property>
      <property name="shotcut:animIn">00:00:01.240000</property>
      <property name="shotcut:animOut">00:00:00.000</property>
      <property name="transition.threads">0</property>
    </filter>
  </producer>
  <playlist id="playlist6">
    <property name="shotcut:video">1</property>
    <property name="shotcut:name">Flore</property>
    <property name="shotcut:lock">0</property>
    <blank length="00:00:29.000000" />
    <entry in="00:00:36.080000" out="00:00:39.800000" producer="producer26" />
  <entry in="00:00:39.840000" out="00:00:41.040000" producer="producer27" />
  <entry in="00:00:41.080000" out="00:00:42.320000" producer="producer28" />
  <entry in="00:00:42.360000" out="00:00:43.560000" producer="producer29" />
  <entry in="00:00:43.600000" out="00:00:44.840000" producer="producer30" />
  <entry in="00:00:44.880000" out="00:01:31.440000" producer="producer31" />
  </playlist>
  <producer id="producer32" in="00:00:00.000" out="00:03:41.680" title="Anonymous Submission">
    <property name="length">00:03:41.720</property>
    <property name="eof">pause</property>
    <property name="resource">../../003 - Bande son/TOTORO_camille.mp3</property>
    <property name="audio_index">0</property>
    <property name="video_index">-1</property>
    <property name="mute_on_pause">0</property>
    <property name="mlt_service">avformat-novalidate</property>
    <property name="seekable">1</property>
    <property name="creation_time">2020-05-08T00:12:51</property>
    <property name="shotcut:hash">28a41f79b2275f13064f4d756150cc49</property>
    <property name="ignore_points">0</property>
    <property name="shotcut:caption">TOTORO_camille.mp3</property>
    <property name="shotcut:skipConvert">1</property>
    <property name="global_feed">1</property>
    <property name="xml">was here</property>
  </producer>
  <playlist id="playlist7">
    <property name="shotcut:audio">1</property>
    <property name="shotcut:name">A1</property>
    <entry in="00:00:00.000" out="00:03:41.680" producer="producer32" />
  </playlist>
  <producer id="producer33" in="00:00:00.000" out="00:03:21.840" title="Anonymous Submission">
    <property name="length">00:03:21:22</property>
    <property name="eof">pause</property>
    <property name="resource">../../006 - Videos format youtube/Euphonium/Bidou_euphonium_totoro.mp4</property>
    <property name="audio_index">1</property>
    <property name="video_index">0</property>
    <property name="mute_on_pause">0</property>
    <property name="mlt_service">avformat-novalidate</property>
    <property name="seekable">1</property>
    <property name="aspect_ratio">1</property>
    <property name="creation_time">2020-04-05T19:40:16</property>
    <property name="shotcut:hash">c61ed928d3936826431ae6103cd9bcfd</property>
    <property name="ignore_points">0</property>
    <property name="shotcut:caption">Bidou_euphonium_totoro.mp4</property>
    <property name="shotcut:skipConvert">1</property>
    <property name="global_feed">1</property>
    <property name="xml">was here</property>
    <filter id="filter59" in="00:00:28.960000" out="00:00:33.920000">
      <property name="background">colour:0</property>
      <property name="mlt_service">affine</property>
      <property name="shotcut:filter">affineSizePosition</property>
      <property name="transition.fill">1</property>
      <property name="transition.distort">0</property>
      <property name="transition.rect">-1920.0 -1080.0 1921.0 1081.0 1</property>
      <property name="transition.valign">top</property>
      <property name="transition.halign">left</property>
      <property name="shotcut:animIn">00:00:00.040000</property>
      <property name="shotcut:animOut">00:00:00.000</property>
      <property name="transition.threads">0</property>
    </filter>
    <filter id="filter60" in="00:00:28.960000" out="00:00:33.920000">
      <property name="window">75</property>
      <property name="max_gain">20dB</property>
      <property name="mlt_service">volume</property>
      <property name="shotcut:filter">muteVolume</property>
      <property name="gain">0</property>
    </filter>
  </producer>
  <producer id="producer34" in="00:00:00.000" out="00:03:21.840" title="Anonymous Submission">
    <property name="length">00:03:21:22</property>
    <property name="eof">pause</property>
    <property name="resource">../../006 - Videos format youtube/Euphonium/Bidou_euphonium_totoro.mp4</property>
    <property name="audio_index">1</property>
    <property name="video_index">0</property>
    <property name="mute_on_pause">0</property>
    <property name="mlt_service">avformat-novalidate</property>
    <property name="seekable">1</property>
    <property name="aspect_ratio">1</property>
    <property name="creation_time">2020-04-05T19:40:16</property>
    <property name="shotcut:hash">c61ed928d3936826431ae6103cd9bcfd</property>
    <property name="ignore_points">0</property>
    <property name="shotcut:caption">Bidou_euphonium_totoro.mp4</property>
    <property name="shotcut:skipConvert">1</property>
    <property name="global_feed">1</property>
    <property name="xml">was here</property>
    <filter id="filter61" in="00:00:33.960000" out="00:00:35.200000">
      <property name="background">colour:0</property>
      <property name="mlt_service">affine</property>
      <property name="shotcut:filter">affineSizePosition</property>
      <property name="transition.fill">1</property>
      <property name="transition.distort">0</property>
      <property name="transition.rect">00:00:00.000000=-1920.0 -1080.0 1922.0 1081.0 1;00:00:00.000000=2048.0 431.0 384.0 216.0 1</property>
      <property name="transition.valign">top</property>
      <property name="transition.halign">left</property>
      <property name="shotcut:animIn">00:00:00.040000</property>
      <property name="shotcut:animOut">00:00:00.000</property>
      <property name="transition.threads">0</property>
    </filter>
    <filter id="filter62" in="00:00:33.960000" out="00:00:35.200000">
      <property name="window">75</property>
      <property name="max_gain">20dB</property>
      <property name="mlt_service">volume</property>
      <property name="shotcut:filter">muteVolume</property>
      <property name="gain">0</property>
    </filter>
  </producer>
  <producer id="producer35" in="00:00:00.000" out="00:03:21.840" title="Anonymous Submission">
    <property name="length">00:03:21:22</property>
    <property name="eof">pause</property>
    <property name="resource">../../006 - Videos format youtube/Euphonium/Bidou_euphonium_totoro.mp4</property>
    <property name="audio_index">1</property>
    <property name="video_index">0</property>
    <property name="mute_on_pause">0</property>
    <property name="mlt_service">avformat-novalidate</property>
    <property name="seekable">1</property>
    <property name="aspect_ratio">1</property>
    <property name="creation_time">2020-04-05T19:40:16</property>
    <property name="shotcut:hash">c61ed928d3936826431ae6103cd9bcfd</property>
    <property name="ignore_points">0</property>
    <property name="shotcut:caption">Bidou_euphonium_totoro.mp4</property>
    <property name="shotcut:skipConvert">1</property>
    <property name="global_feed">1</property>
    <property name="xml">was here</property>
    <filter id="filter63" in="00:00:35.240000" out="00:00:36.440000">
      <property name="background">colour:0</property>
      <property name="mlt_service">affine</property>
      <property name="shotcut:filter">affineSizePosition</property>
      <property name="transition.fill">1</property>
      <property name="transition.distort">0</property>
      <property name="transition.rect">00:00:00.000000=2048.0 431.0 385.0 217.0 1;00:00:01.200000=1408.0 431.0 384.0 216.0 1</property>
      <property name="transition.valign">top</property>
      <property name="transition.halign">left</property>
      <property name="shotcut:animIn">00:00:01.240000</property>
      <property name="shotcut:animOut">00:00:00.000</property>
      <property name="transition.threads">0</property>
    </filter>
    <filter id="filter64" in="00:00:35.240000" out="00:00:36.440000">
      <property name="window">75</property>
      <property name="max_gain">20dB</property>
      <property name="mlt_service">volume</property>
      <property name="shotcut:filter">muteVolume</property>
      <property name="gain">0</property>
    </filter>
  </producer>
  <producer id="producer36" in="00:00:00.000" out="00:03:21.840" title="Anonymous Submission">
    <property name="length">00:03:21:22</property>
    <property name="eof">pause</property>
    <property name="resource">../../006 - Videos format youtube/Euphonium/Bidou_euphonium_totoro.mp4</property>
    <property name="audio_index">1</property>
    <property name="video_index">0</property>
    <property name="mute_on_pause">0</property>
    <property name="mlt_service">avformat-novalidate</property>
    <property name="seekable">1</property>
    <property name="aspect_ratio">1</property>
    <property name="creation_time">2020-04-05T19:40:16</property>
    <property name="shotcut:hash">c61ed928d3936826431ae6103cd9bcfd</property>
    <property name="ignore_points">0</property>
    <property name="shotcut:caption">Bidou_euphonium_totoro.mp4</property>
    <property name="shotcut:skipConvert">1</property>
    <property name="global_feed">1</property>
    <property name="xml">was here</property>
    <filter id="filter65" in="00:00:36.480000" out="00:00:37.720000">
      <property name="background">colour:0</property>
      <property name="mlt_service">affine</property>
      <property name="shotcut:filter">affineSizePosition</property>
      <property name="transition.fill">1</property>
      <property name="transition.distort">0</property>
      <property name="transition.rect">00:00:00.000000=1408.0 431.0 385.0 217.0 1;00:00:01.200000=576.0 324.0 768.0 432.0 1</property>
      <property name="transition.valign">top</property>
      <property name="transition.halign">left</property>
      <property name="shotcut:animIn">00:00:01.240000</property>
      <property name="shotcut:animOut">00:00:00.000</property>
      <property name="transition.threads">0</property>
    </filter>
    <filter id="filter66" in="00:00:36.480000" out="00:00:37.720000">
      <property name="window">75</property>
      <property name="max_gain">20dB</property>
      <property name="mlt_service">volume</property>
      <property name="shotcut:filter">muteVolume</property>
      <property name="gain">0</property>
    </filter>
  </producer>
  <producer id="producer37" in="00:00:00.000" out="00:03:21.840" title="Anonymous Submission">
    <property name="length">00:03:21:22</property>
    <property name="eof">pause</property>
    <property name="resource">../../006 - Videos format youtube/Euphonium/Bidou_euphonium_totoro.mp4</property>
    <property name="audio_index">1</property>
    <property name="video_index">0</property>
    <property name="mute_on_pause">0</property>
    <property name="mlt_service">avformat-novalidate</property>
    <property name="seekable">1</property>
    <property name="aspect_ratio">1</property>
    <property name="creation_time">2020-04-05T19:40:16</property>
    <property name="shotcut:hash">c61ed928d3936826431ae6103cd9bcfd</property>
    <property name="ignore_points">0</property>
    <property name="shotcut:caption">Bidou_euphonium_totoro.mp4</property>
    <property name="shotcut:skipConvert">1</property>
    <property name="global_feed">1</property>
    <property name="xml">was here</property>
    <filter id="filter67" in="00:00:37.760000" out="00:00:38.960000">
      <property name="background">colour:0</property>
      <property name="mlt_service">affine</property>
      <property name="shotcut:filter">affineSizePosition</property>
      <property name="transition.fill">1</property>
      <property name="transition.distort">0</property>
      <property name="transition.rect">00:00:00.000000=576.0 324.0 769.0 433.0 1;00:00:01.200000=128.0 431.0 384.0 216.0 1</property>
      <property name="transition.valign">top</property>
      <property name="transition.halign">left</property>
      <property name="shotcut:animIn">00:00:01.240000</property>
      <property name="shotcut:animOut">00:00:00.000</property>
      <property name="transition.threads">0</property>
    </filter>
    <filter id="filter68" in="00:00:37.760000" out="00:00:38.960000">
      <property name="window">75</property>
      <property name="max_gain">20dB</property>
      <property name="mlt_service">volume</property>
      <property name="shotcut:filter">muteVolume</property>
      <property name="gain">0</property>
    </filter>
  </producer>
  <producer id="producer38" in="00:00:00.000" out="00:03:21.840" title="Anonymous Submission">
    <property name="length">00:03:21:22</property>
    <property name="eof">pause</property>
    <property name="resource">../../006 - Videos format youtube/Euphonium/Bidou_euphonium_totoro.mp4</property>
    <property name="audio_index">1</property>
    <property name="video_index">0</property>
    <property name="mute_on_pause">0</property>
    <property name="mlt_service">avformat-novalidate</property>
    <property name="seekable">1</property>
    <property name="aspect_ratio">1</property>
    <property name="creation_time">2020-04-05T19:40:16</property>
    <property name="shotcut:hash">c61ed928d3936826431ae6103cd9bcfd</property>
    <property name="ignore_points">0</property>
    <property name="shotcut:caption">Bidou_euphonium_totoro.mp4</property>
    <property name="shotcut:skipConvert">1</property>
    <property name="global_feed">1</property>
    <property name="xml">was here</property>
    <filter id="filter69" in="00:00:39.000000" out="00:01:24.320000">
      <property name="background">colour:0</property>
      <property name="mlt_service">affine</property>
      <property name="shotcut:filter">affineSizePosition</property>
      <property name="transition.fill">1</property>
      <property name="transition.distort">0</property>
      <property name="transition.rect">00:00:00.000000=128.0 431.0 385.0 217.0 1;00:00:01.200000=-512.0 431.0 384.0 216.0 1</property>
      <property name="transition.valign">top</property>
      <property name="transition.halign">left</property>
      <property name="shotcut:animIn">00:00:01.240000</property>
      <property name="shotcut:animOut">00:00:00.000</property>
      <property name="transition.threads">0</property>
    </filter>
    <filter id="filter70" in="00:00:39.000000" out="00:01:24.320000">
      <property name="window">75</property>
      <property name="max_gain">20dB</property>
      <property name="mlt_service">volume</property>
      <property name="shotcut:filter">muteVolume</property>
      <property name="gain">0</property>
    </filter>
  </producer>
  <playlist id="playlist8">
    <property name="shotcut:video">1</property>
    <property name="shotcut:name">Bidou_euphonium</property>
    <property name="shotcut:lock">1</property>
    <blank length="00:00:29.000000" />
    <entry in="00:00:28.960000" out="00:00:33.920000" producer="producer33" />
    <entry in="00:00:33.960000" out="00:00:35.200000" producer="producer34" />
    <entry in="00:00:35.240000" out="00:00:36.440000" producer="producer35" />
    <entry in="00:00:36.480000" out="00:00:37.720000" producer="producer36" />
    <entry in="00:00:37.760000" out="00:00:38.960000" producer="producer37" />
    <entry in="00:00:39.000000" out="00:01:24.320000" producer="producer38" />
    <filter id="filter71" out="00:03:24.320">
      <property name="window">75</property>
      <property name="max_gain">20dB</property>
      <property name="level">-8</property>
      <property name="mlt_service">volume</property>
    </filter>
  </playlist>
  <producer id="producer39" in="00:00:00.000" out="00:03:39.760" title="Anonymous Submission">
    <property name="length">00:03:39:20</property>
    <property name="eof">pause</property>
    <property name="resource">../../006 - Videos format youtube/Euphonium/Serge_euphonium_totoro.mp4</property>
    <property name="audio_index">1</property>
    <property name="video_index">0</property>
    <property name="mute_on_pause">0</property>
    <property name="mlt_service">avformat-novalidate</property>
    <property name="seekable">1</property>
    <property name="aspect_ratio">1</property>
    <property name="creation_time">2020-04-09T18:38:52</property>
    <property name="shotcut:hash">febfb730e69b265c8667487f9874d68f</property>
    <property name="ignore_points">0</property>
    <property name="shotcut:caption">Serge_euphonium_totoro.mp4</property>
    <property name="shotcut:skipConvert">1</property>
    <property name="global_feed">1</property>
    <property name="xml">was here</property>
    <filter id="filter72" in="00:00:30.760000" out="00:00:37.000000">
      <property name="background">colour:0</property>
      <property name="mlt_service">affine</property>
      <property name="shotcut:filter">affineSizePosition</property>
      <property name="transition.fill">1</property>
      <property name="transition.distort">0</property>
      <property name="transition.rect">-1920.0 -1080.0 1921.0 1081.0 1</property>
      <property name="transition.valign">top</property>
      <property name="transition.halign">left</property>
      <property name="shotcut:animIn">00:00:00.040000</property>
      <property name="shotcut:animOut">00:00:00.000</property>
      <property name="transition.threads">0</property>
    </filter>
  </producer>
  <producer id="producer40" in="00:00:00.000" out="00:03:39.760" title="Anonymous Submission">
    <property name="length">00:03:39:20</property>
    <property name="eof">pause</property>
    <property name="resource">../../006 - Videos format youtube/Euphonium/Serge_euphonium_totoro.mp4</property>
    <property name="audio_index">1</property>
    <property name="video_index">0</property>
    <property name="mute_on_pause">0</property>
    <property name="mlt_service">avformat-novalidate</property>
    <property name="seekable">1</property>
    <property name="aspect_ratio">1</property>
    <property name="creation_time">2020-04-09T18:38:52</property>
    <property name="shotcut:hash">febfb730e69b265c8667487f9874d68f</property>
    <property name="ignore_points">0</property>
    <property name="shotcut:caption">Serge_euphonium_totoro.mp4</property>
    <property name="shotcut:skipConvert">1</property>
    <property name="global_feed">1</property>
    <property name="xml">was here</property>
    <filter id="filter73" in="00:00:37.040000" out="00:00:38.240000">
      <property name="background">colour:0</property>
      <property name="mlt_service">affine</property>
      <property name="shotcut:filter">affineSizePosition</property>
      <property name="transition.fill">1</property>
      <property name="transition.distort">0</property>
      <property name="transition.rect">00:00:00.000000=-1920.0 -1080.0 1922.0 1081.0 1;00:00:00.000000=2048.0 431.0 384.0 216.0 1</property>
      <property name="transition.valign">top</property>
      <property name="transition.halign">left</property>
      <property name="shotcut:animIn">00:00:00.040000</property>
      <property name="shotcut:animOut">00:00:00.000</property>
      <property name="transition.threads">0</property>
    </filter>
  </producer>
  <producer id="producer41" in="00:00:00.000" out="00:03:39.760" title="Anonymous Submission">
    <property name="length">00:03:39:20</property>
    <property name="eof">pause</property>
    <property name="resource">../../006 - Videos format youtube/Euphonium/Serge_euphonium_totoro.mp4</property>
    <property name="audio_index">1</property>
    <property name="video_index">0</property>
    <property name="mute_on_pause">0</property>
    <property name="mlt_service">avformat-novalidate</property>
    <property name="seekable">1</property>
    <property name="aspect_ratio">1</property>
    <property name="creation_time">2020-04-09T18:38:52</property>
    <property name="shotcut:hash">febfb730e69b265c8667487f9874d68f</property>
    <property name="ignore_points">0</property>
    <property name="shotcut:caption">Serge_euphonium_totoro.mp4</property>
    <property name="shotcut:skipConvert">1</property>
    <property name="global_feed">1</property>
    <property name="xml">was here</property>
    <filter id="filter74" in="00:00:38.280000" out="00:00:39.520000">
      <property name="background">colour:0</property>
      <property name="mlt_service">affine</property>
      <property name="shotcut:filter">affineSizePosition</property>
      <property name="transition.fill">1</property>
      <property name="transition.distort">0</property>
      <property name="transition.rect">00:00:00.000000=2048.0 431.0 385.0 217.0 1;00:00:01.200000=1408.0 431.0 384.0 216.0 1</property>
      <property name="transition.valign">top</property>
      <property name="transition.halign">left</property>
      <property name="shotcut:animIn">00:00:01.240000</property>
      <property name="shotcut:animOut">00:00:00.000</property>
      <property name="transition.threads">0</property>
    </filter>
  </producer>
  <producer id="producer42" in="00:00:00.000" out="00:03:39.760" title="Anonymous Submission">
    <property name="length">00:03:39:20</property>
    <property name="eof">pause</property>
    <property name="resource">../../006 - Videos format youtube/Euphonium/Serge_euphonium_totoro.mp4</property>
    <property name="audio_index">1</property>
    <property name="video_index">0</property>
    <property name="mute_on_pause">0</property>
    <property name="mlt_service">avformat-novalidate</property>
    <property name="seekable">1</property>
    <property name="aspect_ratio">1</property>
    <property name="creation_time">2020-04-09T18:38:52</property>
    <property name="shotcut:hash">febfb730e69b265c8667487f9874d68f</property>
    <property name="ignore_points">0</property>
    <property name="shotcut:caption">Serge_euphonium_totoro.mp4</property>
    <property name="shotcut:skipConvert">1</property>
    <property name="global_feed">1</property>
    <property name="xml">was here</property>
    <filter id="filter75" in="00:00:39.560000" out="00:00:40.760000">
      <property name="background">colour:0</property>
      <property name="mlt_service">affine</property>
      <property name="shotcut:filter">affineSizePosition</property>
      <property name="transition.fill">1</property>
      <property name="transition.distort">0</property>
      <property name="transition.rect">00:00:00.000000=1408.0 431.0 385.0 217.0 1;00:00:01.200000=576.0 324.0 768.0 432.0 1</property>
      <property name="transition.valign">top</property>
      <property name="transition.halign">left</property>
      <property name="shotcut:animIn">00:00:01.240000</property>
      <property name="shotcut:animOut">00:00:00.000</property>
      <property name="transition.threads">0</property>
    </filter>
  </producer>
  <producer id="producer43" in="00:00:00.000" out="00:03:39.760" title="Anonymous Submission">
    <property name="length">00:03:39:20</property>
    <property name="eof">pause</property>
    <property name="resource">../../006 - Videos format youtube/Euphonium/Serge_euphonium_totoro.mp4</property>
    <property name="audio_index">1</property>
    <property name="video_index">0</property>
    <property name="mute_on_pause">0</property>
    <property name="mlt_service">avformat-novalidate</property>
    <property name="seekable">1</property>
    <property name="aspect_ratio">1</property>
    <property name="creation_time">2020-04-09T18:38:52</property>
    <property name="shotcut:hash">febfb730e69b265c8667487f9874d68f</property>
    <property name="ignore_points">0</property>
    <property name="shotcut:caption">Serge_euphonium_totoro.mp4</property>
    <property name="shotcut:skipConvert">1</property>
    <property name="global_feed">1</property>
    <property name="xml">was here</property>
    <filter id="filter76" in="00:00:40.800000" out="00:00:42.040000">
      <property name="background">colour:0</property>
      <property name="mlt_service">affine</property>
      <property name="shotcut:filter">affineSizePosition</property>
      <property name="transition.fill">1</property>
      <property name="transition.distort">0</property>
      <property name="transition.rect">00:00:00.000000=576.0 324.0 769.0 433.0 1;00:00:01.200000=128.0 431.0 384.0 216.0 1</property>
      <property name="transition.valign">top</property>
      <property name="transition.halign">left</property>
      <property name="shotcut:animIn">00:00:01.240000</property>
      <property name="shotcut:animOut">00:00:00.000</property>
      <property name="transition.threads">0</property>
    </filter>
  </producer>
  <producer id="producer44" in="00:00:00.000" out="00:03:39.760" title="Anonymous Submission">
    <property name="length">00:03:39:20</property>
    <property name="eof">pause</property>
    <property name="resource">../../006 - Videos format youtube/Euphonium/Serge_euphonium_totoro.mp4</property>
    <property name="audio_index">1</property>
    <property name="video_index">0</property>
    <property name="mute_on_pause">0</property>
    <property name="mlt_service">avformat-novalidate</property>
    <property name="seekable">1</property>
    <property name="aspect_ratio">1</property>
    <property name="creation_time">2020-04-09T18:38:52</property>
    <property name="shotcut:hash">febfb730e69b265c8667487f9874d68f</property>
    <property name="ignore_points">0</property>
    <property name="shotcut:caption">Serge_euphonium_totoro.mp4</property>
    <property name="shotcut:skipConvert">1</property>
    <property name="global_feed">1</property>
    <property name="xml">was here</property>
    <filter id="filter77" in="00:00:42.080000" out="00:01:26.120000">
      <property name="background">colour:0</property>
      <property name="mlt_service">affine</property>
      <property name="shotcut:filter">affineSizePosition</property>
      <property name="transition.fill">1</property>
      <property name="transition.distort">0</property>
      <property name="transition.rect">00:00:00.000000=128.0 431.0 385.0 217.0 1;00:00:01.200000=-512.0 431.0 384.0 216.0 1</property>
      <property name="transition.valign">top</property>
      <property name="transition.halign">left</property>
      <property name="shotcut:animIn">00:00:01.240000</property>
      <property name="shotcut:animOut">00:00:00.000</property>
      <property name="transition.threads">0</property>
    </filter>
  </producer>
  <playlist id="playlist9">
    <blank length="00:00:29.000000" /><property name="shotcut:video">1</property>
    <property name="shotcut:name">Serge_euphonium</property>
    <property name="shotcut:lock">1</property>
    <entry in="00:00:30.760000" out="00:00:37.000000" producer="producer39" />
    <entry in="00:00:37.040000" out="00:00:38.240000" producer="producer40" />
    <entry in="00:00:38.280000" out="00:00:39.520000" producer="producer41" />
    <entry in="00:00:39.560000" out="00:00:40.760000" producer="producer42" />
    <entry in="00:00:40.800000" out="00:00:42.040000" producer="producer43" />
    <entry in="00:00:42.080000" out="00:01:26.120000" producer="producer44" />
    </playlist>
  <producer id="producer45" in="00:00:00.000" out="00:03:23.360" title="Anonymous Submission">
    <property name="length">00:03:23:10</property>
    <property name="eof">pause</property>
    <property name="resource">../../006 - Videos format youtube/Clarinettes/Cecile_clarinette_totoro_recadre.mp4</property>
    <property name="audio_index">1</property>
    <property name="video_index">0</property>
    <property name="mute_on_pause">0</property>
    <property name="mlt_service">avformat-novalidate</property>
    <property name="seekable">1</property>
    <property name="aspect_ratio">1</property>
    <property name="creation_time">2020-04-20T12:31:07</property>
    <property name="shotcut:hash">fa0b3ca4ef9842045a4dd842a677be53</property>
    <property name="ignore_points">0</property>
    <property name="shotcut:caption">Cecile_clarinette_totoro_recadre.mp4</property>
    <property name="shotcut:skipConvert">1</property>
    <property name="global_feed">1</property>
    <property name="xml">was here</property>
    <filter id="filter78" in="00:00:29.040000" out="00:00:36.520000">
      <property name="background">colour:0</property>
      <property name="mlt_service">affine</property>
      <property name="shotcut:filter">affineSizePosition</property>
      <property name="transition.fill">1</property>
      <property name="transition.distort">0</property>
      <property name="transition.rect">-1920.0 -1080.0 1921.0 1081.0 1</property>
      <property name="transition.valign">top</property>
      <property name="transition.halign">left</property>
      <property name="shotcut:animIn">00:00:00.040000</property>
      <property name="shotcut:animOut">00:00:00.000</property>
      <property name="transition.threads">0</property>
    </filter>
    <filter id="filter79" in="00:00:29.040000" out="00:00:36.520000">
      <property name="window">75</property>
      <property name="max_gain">20dB</property>
      <property name="mlt_service">volume</property>
      <property name="shotcut:filter">muteVolume</property>
      <property name="gain">0</property>
    </filter>
  </producer>
  <producer id="producer46" in="00:00:00.000" out="00:03:23.360" title="Anonymous Submission">
    <property name="length">00:03:23:10</property>
    <property name="eof">pause</property>
    <property name="resource">../../006 - Videos format youtube/Clarinettes/Cecile_clarinette_totoro_recadre.mp4</property>
    <property name="audio_index">1</property>
    <property name="video_index">0</property>
    <property name="mute_on_pause">0</property>
    <property name="mlt_service">avformat-novalidate</property>
    <property name="seekable">1</property>
    <property name="aspect_ratio">1</property>
    <property name="creation_time">2020-04-20T12:31:07</property>
    <property name="shotcut:hash">fa0b3ca4ef9842045a4dd842a677be53</property>
    <property name="ignore_points">0</property>
    <property name="shotcut:caption">Cecile_clarinette_totoro_recadre.mp4</property>
    <property name="shotcut:skipConvert">1</property>
    <property name="global_feed">1</property>
    <property name="xml">was here</property>
    <filter id="filter80" in="00:00:36.560000" out="00:00:37.800000">
      <property name="background">colour:0</property>
      <property name="mlt_service">affine</property>
      <property name="shotcut:filter">affineSizePosition</property>
      <property name="transition.fill">1</property>
      <property name="transition.distort">0</property>
      <property name="transition.rect">00:00:00.000000=-1920.0 -1080.0 1922.0 1081.0 1;00:00:00.000000=2048.0 431.0 384.0 216.0 1</property>
      <property name="transition.valign">top</property>
      <property name="transition.halign">left</property>
      <property name="shotcut:animIn">00:00:00.040000</property>
      <property name="shotcut:animOut">00:00:00.000</property>
      <property name="transition.threads">0</property>
    </filter>
    <filter id="filter81" in="00:00:36.560000" out="00:00:37.800000">
      <property name="window">75</property>
      <property name="max_gain">20dB</property>
      <property name="mlt_service">volume</property>
      <property name="shotcut:filter">muteVolume</property>
      <property name="gain">0</property>
    </filter>
  </producer>
  <producer id="producer47" in="00:00:00.000" out="00:03:23.360" title="Anonymous Submission">
    <property name="length">00:03:23:10</property>
    <property name="eof">pause</property>
    <property name="resource">../../006 - Videos format youtube/Clarinettes/Cecile_clarinette_totoro_recadre.mp4</property>
    <property name="audio_index">1</property>
    <property name="video_index">0</property>
    <property name="mute_on_pause">0</property>
    <property name="mlt_service">avformat-novalidate</property>
    <property name="seekable">1</property>
    <property name="aspect_ratio">1</property>
    <property name="creation_time">2020-04-20T12:31:07</property>
    <property name="shotcut:hash">fa0b3ca4ef9842045a4dd842a677be53</property>
    <property name="ignore_points">0</property>
    <property name="shotcut:caption">Cecile_clarinette_totoro_recadre.mp4</property>
    <property name="shotcut:skipConvert">1</property>
    <property name="global_feed">1</property>
    <property name="xml">was here</property>
    <filter id="filter82" in="00:00:37.840000" out="00:00:39.040000">
      <property name="background">colour:0</property>
      <property name="mlt_service">affine</property>
      <property name="shotcut:filter">affineSizePosition</property>
      <property name="transition.fill">1</property>
      <property name="transition.distort">0</property>
      <property name="transition.rect">00:00:00.000000=2048.0 431.0 385.0 217.0 1;00:00:01.200000=1408.0 431.0 384.0 216.0 1</property>
      <property name="transition.valign">top</property>
      <property name="transition.halign">left</property>
      <property name="shotcut:animIn">00:00:01.240000</property>
      <property name="shotcut:animOut">00:00:00.000</property>
      <property name="transition.threads">0</property>
    </filter>
    <filter id="filter83" in="00:00:37.840000" out="00:00:39.040000">
      <property name="window">75</property>
      <property name="max_gain">20dB</property>
      <property name="mlt_service">volume</property>
      <property name="shotcut:filter">muteVolume</property>
      <property name="gain">0</property>
    </filter>
  </producer>
  <producer id="producer48" in="00:00:00.000" out="00:03:23.360" title="Anonymous Submission">
    <property name="length">00:03:23:10</property>
    <property name="eof">pause</property>
    <property name="resource">../../006 - Videos format youtube/Clarinettes/Cecile_clarinette_totoro_recadre.mp4</property>
    <property name="audio_index">1</property>
    <property name="video_index">0</property>
    <property name="mute_on_pause">0</property>
    <property name="mlt_service">avformat-novalidate</property>
    <property name="seekable">1</property>
    <property name="aspect_ratio">1</property>
    <property name="creation_time">2020-04-20T12:31:07</property>
    <property name="shotcut:hash">fa0b3ca4ef9842045a4dd842a677be53</property>
    <property name="ignore_points">0</property>
    <property name="shotcut:caption">Cecile_clarinette_totoro_recadre.mp4</property>
    <property name="shotcut:skipConvert">1</property>
    <property name="global_feed">1</property>
    <property name="xml">was here</property>
    <filter id="filter84" in="00:00:39.080000" out="00:00:40.320000">
      <property name="background">colour:0</property>
      <property name="mlt_service">affine</property>
      <property name="shotcut:filter">affineSizePosition</property>
      <property name="transition.fill">1</property>
      <property name="transition.distort">0</property>
      <property name="transition.rect">00:00:00.000000=1408.0 431.0 385.0 217.0 1;00:00:01.200000=576.0 324.0 768.0 432.0 1</property>
      <property name="transition.valign">top</property>
      <property name="transition.halign">left</property>
      <property name="shotcut:animIn">00:00:01.240000</property>
      <property name="shotcut:animOut">00:00:00.000</property>
      <property name="transition.threads">0</property>
    </filter>
    <filter id="filter85" in="00:00:39.080000" out="00:00:40.320000">
      <property name="window">75</property>
      <property name="max_gain">20dB</property>
      <property name="mlt_service">volume</property>
      <property name="shotcut:filter">muteVolume</property>
      <property name="gain">0</property>
    </filter>
  </producer>
  <producer id="producer49" in="00:00:00.000" out="00:03:23.360" title="Anonymous Submission">
    <property name="length">00:03:23:10</property>
    <property name="eof">pause</property>
    <property name="resource">../../006 - Videos format youtube/Clarinettes/Cecile_clarinette_totoro_recadre.mp4</property>
    <property name="audio_index">1</property>
    <property name="video_index">0</property>
    <property name="mute_on_pause">0</property>
    <property name="mlt_service">avformat-novalidate</property>
    <property name="seekable">1</property>
    <property name="aspect_ratio">1</property>
    <property name="creation_time">2020-04-20T12:31:07</property>
    <property name="shotcut:hash">fa0b3ca4ef9842045a4dd842a677be53</property>
    <property name="ignore_points">0</property>
    <property name="shotcut:caption">Cecile_clarinette_totoro_recadre.mp4</property>
    <property name="shotcut:skipConvert">1</property>
    <property name="global_feed">1</property>
    <property name="xml">was here</property>
    <filter id="filter86" in="00:00:40.360000" out="00:00:41.560000">
      <property name="background">colour:0</property>
      <property name="mlt_service">affine</property>
      <property name="shotcut:filter">affineSizePosition</property>
      <property name="transition.fill">1</property>
      <property name="transition.distort">0</property>
      <property name="transition.rect">00:00:00.000000=576.0 324.0 769.0 433.0 1;00:00:01.200000=128.0 431.0 384.0 216.0 1</property>
      <property name="transition.valign">top</property>
      <property name="transition.halign">left</property>
      <property name="shotcut:animIn">00:00:01.240000</property>
      <property name="shotcut:animOut">00:00:00.000</property>
      <property name="transition.threads">0</property>
    </filter>
    <filter id="filter87" in="00:00:40.360000" out="00:00:41.560000">
      <property name="window">75</property>
      <property name="max_gain">20dB</property>
      <property name="mlt_service">volume</property>
      <property name="shotcut:filter">muteVolume</property>
      <property name="gain">0</property>
    </filter>
  </producer>
  <producer id="producer50" in="00:00:00.000" out="00:03:23.360" title="Anonymous Submission">
    <property name="length">00:03:23:10</property>
    <property name="eof">pause</property>
    <property name="resource">../../006 - Videos format youtube/Clarinettes/Cecile_clarinette_totoro_recadre.mp4</property>
    <property name="audio_index">1</property>
    <property name="video_index">0</property>
    <property name="mute_on_pause">0</property>
    <property name="mlt_service">avformat-novalidate</property>
    <property name="seekable">1</property>
    <property name="aspect_ratio">1</property>
    <property name="creation_time">2020-04-20T12:31:07</property>
    <property name="shotcut:hash">fa0b3ca4ef9842045a4dd842a677be53</property>
    <property name="ignore_points">0</property>
    <property name="shotcut:caption">Cecile_clarinette_totoro_recadre.mp4</property>
    <property name="shotcut:skipConvert">1</property>
    <property name="global_feed">1</property>
    <property name="xml">was here</property>
    <filter id="filter88" in="00:00:41.600000" out="00:01:24.400000">
      <property name="background">colour:0</property>
      <property name="mlt_service">affine</property>
      <property name="shotcut:filter">affineSizePosition</property>
      <property name="transition.fill">1</property>
      <property name="transition.distort">0</property>
      <property name="transition.rect">00:00:00.000000=128.0 431.0 385.0 217.0 1;00:00:01.200000=-512.0 431.0 384.0 216.0 1</property>
      <property name="transition.valign">top</property>
      <property name="transition.halign">left</property>
      <property name="shotcut:animIn">00:00:01.240000</property>
      <property name="shotcut:animOut">00:00:00.000</property>
      <property name="transition.threads">0</property>
    </filter>
    <filter id="filter89" in="00:00:41.600000" out="00:01:24.400000">
      <property name="window">75</property>
      <property name="max_gain">20dB</property>
      <property name="mlt_service">volume</property>
      <property name="shotcut:filter">muteVolume</property>
      <property name="gain">0</property>
    </filter>
  </producer>
  <playlist id="playlist10">
    <property name="shotcut:video">1</property>
    <property name="shotcut:name">Cecile clar bass</property>
    <property name="shotcut:lock">1</property>
    <blank length="00:00:29.000000" />
    <entry in="00:00:29.040000" out="00:00:36.520000" producer="producer45" />
    <entry in="00:00:36.560000" out="00:00:37.800000" producer="producer46" />
    <entry in="00:00:37.840000" out="00:00:39.040000" producer="producer47" />
    <entry in="00:00:39.080000" out="00:00:40.320000" producer="producer48" />
    <entry in="00:00:40.360000" out="00:00:41.560000" producer="producer49" />
    <entry in="00:00:41.600000" out="00:01:24.400000" producer="producer50" />
    <filter id="filter90" out="00:03:23.320">
      <property name="window">75</property>
      <property name="max_gain">20dB</property>
      <property name="level">-8</property>
      <property name="mlt_service">volume</property>
    </filter>
  </playlist>
  <producer id="producer51" in="00:00:00.000" out="00:03:22.160" title="Anonymous Submission">
    <property name="length">00:03:22:05</property>
    <property name="eof">pause</property>
    <property name="resource">../../006 - Videos format youtube/Clarinettes/Am&#233;lie_clarinette_recadre.mp4</property>
    <property name="audio_index">1</property>
    <property name="video_index">0</property>
    <property name="mute_on_pause">0</property>
    <property name="mlt_service">avformat-novalidate</property>
    <property name="seekable">1</property>
    <property name="aspect_ratio">1</property>
    <property name="shotcut:hash">76dbe6d6a34f9982b0d3bc9056faad5e</property>
    <property name="ignore_points">0</property>
    <property name="shotcut:caption">Am&#233;lie_clarinette_recadre.mp4</property>
    <property name="shotcut:skipConvert">1</property>
    <property name="global_feed">1</property>
    <property name="xml">was here</property>
    <filter id="filter91" in="00:00:29.000000" out="00:00:37.760000">
      <property name="background">colour:0</property>
      <property name="mlt_service">affine</property>
      <property name="shotcut:filter">affineSizePosition</property>
      <property name="transition.fill">1</property>
      <property name="transition.distort">0</property>
      <property name="transition.rect">-1920.0 -1080.0 1921.0 1081.0 1</property>
      <property name="transition.valign">top</property>
      <property name="transition.halign">left</property>
      <property name="shotcut:animIn">00:00:00.040000</property>
      <property name="shotcut:animOut">00:00:00.000</property>
      <property name="transition.threads">0</property>
    </filter>
  </producer>
  <producer id="producer52" in="00:00:00.000" out="00:03:22.160" title="Anonymous Submission">
    <property name="length">00:03:22:05</property>
    <property name="eof">pause</property>
    <property name="resource">../../006 - Videos format youtube/Clarinettes/Am&#233;lie_clarinette_recadre.mp4</property>
    <property name="audio_index">1</property>
    <property name="video_index">0</property>
    <property name="mute_on_pause">0</property>
    <property name="mlt_service">avformat-novalidate</property>
    <property name="seekable">1</property>
    <property name="aspect_ratio">1</property>
    <property name="shotcut:hash">76dbe6d6a34f9982b0d3bc9056faad5e</property>
    <property name="ignore_points">0</property>
    <property name="shotcut:caption">Am&#233;lie_clarinette_recadre.mp4</property>
    <property name="shotcut:skipConvert">1</property>
    <property name="global_feed">1</property>
    <property name="xml">was here</property>
    <filter id="filter92" in="00:00:37.800000" out="00:00:39.000000">
      <property name="background">colour:0</property>
      <property name="mlt_service">affine</property>
      <property name="shotcut:filter">affineSizePosition</property>
      <property name="transition.fill">1</property>
      <property name="transition.distort">0</property>
      <property name="transition.rect">00:00:00.000000=-1920.0 -1080.0 1922.0 1081.0 1;00:00:00.000000=2048.0 431.0 384.0 216.0 1</property>
      <property name="transition.valign">top</property>
      <property name="transition.halign">left</property>
      <property name="shotcut:animIn">00:00:00.040000</property>
      <property name="shotcut:animOut">00:00:00.000</property>
      <property name="transition.threads">0</property>
    </filter>
  </producer>
  <producer id="producer53" in="00:00:00.000" out="00:03:22.160" title="Anonymous Submission">
    <property name="length">00:03:22:05</property>
    <property name="eof">pause</property>
    <property name="resource">../../006 - Videos format youtube/Clarinettes/Am&#233;lie_clarinette_recadre.mp4</property>
    <property name="audio_index">1</property>
    <property name="video_index">0</property>
    <property name="mute_on_pause">0</property>
    <property name="mlt_service">avformat-novalidate</property>
    <property name="seekable">1</property>
    <property name="aspect_ratio">1</property>
    <property name="shotcut:hash">76dbe6d6a34f9982b0d3bc9056faad5e</property>
    <property name="ignore_points">0</property>
    <property name="shotcut:caption">Am&#233;lie_clarinette_recadre.mp4</property>
    <property name="shotcut:skipConvert">1</property>
    <property name="global_feed">1</property>
    <property name="xml">was here</property>
    <filter id="filter93" in="00:00:39.040000" out="00:00:40.280000">
      <property name="background">colour:0</property>
      <property name="mlt_service">affine</property>
      <property name="shotcut:filter">affineSizePosition</property>
      <property name="transition.fill">1</property>
      <property name="transition.distort">0</property>
      <property name="transition.rect">00:00:00.000000=2048.0 431.0 385.0 217.0 1;00:00:01.200000=1408.0 431.0 384.0 216.0 1</property>
      <property name="transition.valign">top</property>
      <property name="transition.halign">left</property>
      <property name="shotcut:animIn">00:00:01.240000</property>
      <property name="shotcut:animOut">00:00:00.000</property>
      <property name="transition.threads">0</property>
    </filter>
  </producer>
  <producer id="producer54" in="00:00:00.000" out="00:03:22.160" title="Anonymous Submission">
    <property name="length">00:03:22:05</property>
    <property name="eof">pause</property>
    <property name="resource">../../006 - Videos format youtube/Clarinettes/Am&#233;lie_clarinette_recadre.mp4</property>
    <property name="audio_index">1</property>
    <property name="video_index">0</property>
    <property name="mute_on_pause">0</property>
    <property name="mlt_service">avformat-novalidate</property>
    <property name="seekable">1</property>
    <property name="aspect_ratio">1</property>
    <property name="shotcut:hash">76dbe6d6a34f9982b0d3bc9056faad5e</property>
    <property name="ignore_points">0</property>
    <property name="shotcut:caption">Am&#233;lie_clarinette_recadre.mp4</property>
    <property name="shotcut:skipConvert">1</property>
    <property name="global_feed">1</property>
    <property name="xml">was here</property>
    <filter id="filter94" in="00:00:40.320000" out="00:00:41.520000">
      <property name="background">colour:0</property>
      <property name="mlt_service">affine</property>
      <property name="shotcut:filter">affineSizePosition</property>
      <property name="transition.fill">1</property>
      <property name="transition.distort">0</property>
      <property name="transition.rect">00:00:00.000000=1408.0 431.0 385.0 217.0 1;00:00:01.200000=576.0 324.0 768.0 432.0 1</property>
      <property name="transition.valign">top</property>
      <property name="transition.halign">left</property>
      <property name="shotcut:animIn">00:00:01.240000</property>
      <property name="shotcut:animOut">00:00:00.000</property>
      <property name="transition.threads">0</property>
    </filter>
  </producer>
  <producer id="producer55" in="00:00:00.000" out="00:03:22.160" title="Anonymous Submission">
    <property name="length">00:03:22:05</property>
    <property name="eof">pause</property>
    <property name="resource">../../006 - Videos format youtube/Clarinettes/Am&#233;lie_clarinette_recadre.mp4</property>
    <property name="audio_index">1</property>
    <property name="video_index">0</property>
    <property name="mute_on_pause">0</property>
    <property name="mlt_service">avformat-novalidate</property>
    <property name="seekable">1</property>
    <property name="aspect_ratio">1</property>
    <property name="shotcut:hash">76dbe6d6a34f9982b0d3bc9056faad5e</property>
    <property name="ignore_points">0</property>
    <property name="shotcut:caption">Am&#233;lie_clarinette_recadre.mp4</property>
    <property name="shotcut:skipConvert">1</property>
    <property name="global_feed">1</property>
    <property name="xml">was here</property>
    <filter id="filter95" in="00:00:41.560000" out="00:00:42.800000">
      <property name="background">colour:0</property>
      <property name="mlt_service">affine</property>
      <property name="shotcut:filter">affineSizePosition</property>
      <property name="transition.fill">1</property>
      <property name="transition.distort">0</property>
      <property name="transition.rect">00:00:00.000000=576.0 324.0 769.0 433.0 1;00:00:01.200000=128.0 431.0 384.0 216.0 1</property>
      <property name="transition.valign">top</property>
      <property name="transition.halign">left</property>
      <property name="shotcut:animIn">00:00:01.240000</property>
      <property name="shotcut:animOut">00:00:00.000</property>
      <property name="transition.threads">0</property>
    </filter>
  </producer>
  <producer id="producer56" in="00:00:00.000" out="00:03:22.160" title="Anonymous Submission">
    <property name="length">00:03:22:05</property>
    <property name="eof">pause</property>
    <property name="resource">../../006 - Videos format youtube/Clarinettes/Am&#233;lie_clarinette_recadre.mp4</property>
    <property name="audio_index">1</property>
    <property name="video_index">0</property>
    <property name="mute_on_pause">0</property>
    <property name="mlt_service">avformat-novalidate</property>
    <property name="seekable">1</property>
    <property name="aspect_ratio">1</property>
    <property name="shotcut:hash">76dbe6d6a34f9982b0d3bc9056faad5e</property>
    <property name="ignore_points">0</property>
    <property name="shotcut:caption">Am&#233;lie_clarinette_recadre.mp4</property>
    <property name="shotcut:skipConvert">1</property>
    <property name="global_feed">1</property>
    <property name="xml">was here</property>
    <filter id="filter96" in="00:00:42.840000" out="00:01:24.360000">
      <property name="background">colour:0</property>
      <property name="mlt_service">affine</property>
      <property name="shotcut:filter">affineSizePosition</property>
      <property name="transition.fill">1</property>
      <property name="transition.distort">0</property>
      <property name="transition.rect">00:00:00.000000=128.0 431.0 385.0 217.0 1;00:00:01.200000=-512.0 431.0 384.0 216.0 1</property>
      <property name="transition.valign">top</property>
      <property name="transition.halign">left</property>
      <property name="shotcut:animIn">00:00:01.240000</property>
      <property name="shotcut:animOut">00:00:00.000</property>
      <property name="transition.threads">0</property>
    </filter>
  </producer>
  <playlist id="playlist11">
    <blank length="00:00:29.000000" /><property name="shotcut:video">1</property>
    <property name="shotcut:name">Clarinette_amelie_recadree</property>
    <property name="shotcut:lock">1</property>
    <entry in="00:00:29.000000" out="00:00:37.760000" producer="producer51" />
    <entry in="00:00:37.800000" out="00:00:39.000000" producer="producer52" />
    <entry in="00:00:39.040000" out="00:00:40.280000" producer="producer53" />
    <entry in="00:00:40.320000" out="00:00:41.520000" producer="producer54" />
    <entry in="00:00:41.560000" out="00:00:42.800000" producer="producer55" />
    <entry in="00:00:42.840000" out="00:01:24.360000" producer="producer56" />
    <filter id="filter97" out="00:03:23.320">
      <property name="window">75</property>
      <property name="max_gain">20dB</property>
      <property name="level">-8</property>
      <property name="mlt_service">volume</property>
    </filter>
  </playlist>
  <producer id="producer57" in="00:00:00.000" out="00:03:27.800" title="Anonymous Submission">
    <property name="length">00:03:27:21</property>
    <property name="eof">pause</property>
    <property name="resource">../../006 - Videos format youtube/Clarinettes/Nelly_clarinette_totoro.mp4</property>
    <property name="audio_index">1</property>
    <property name="video_index">0</property>
    <property name="mute_on_pause">0</property>
    <property name="mlt_service">avformat-novalidate</property>
    <property name="seekable">1</property>
    <property name="aspect_ratio">1</property>
    <property name="creation_time">2020-04-05T13:37:57</property>
    <property name="shotcut:hash">ce64ff05cbaafa4ab64d61c9e57002dd</property>
    <property name="ignore_points">0</property>
    <property name="shotcut:caption">Nelly_clarinette_totoro.mp4</property>
    <property name="shotcut:skipConvert">1</property>
    <property name="global_feed">1</property>
    <property name="xml">was here</property>
    <filter id="filter98" in="00:00:35.920000" out="00:00:45.920000">
      <property name="background">colour:0</property>
      <property name="mlt_service">affine</property>
      <property name="shotcut:filter">affineSizePosition</property>
      <property name="transition.fill">1</property>
      <property name="transition.distort">0</property>
      <property name="transition.rect">-1920.0 -1080.0 1921.0 1081.0 1</property>
      <property name="transition.valign">top</property>
      <property name="transition.halign">left</property>
      <property name="shotcut:animIn">00:00:00.040000</property>
      <property name="shotcut:animOut">00:00:00.000</property>
      <property name="transition.threads">0</property>
    </filter>
    <filter id="filter99" in="00:00:35.920000" out="00:00:45.920000">
      <property name="window">75</property>
      <property name="max_gain">20dB</property>
      <property name="level">0</property>
      <property name="mlt_service">volume</property>
      <property name="disable">1</property>
    </filter>
  </producer>
  <producer id="producer58" in="00:00:00.000" out="00:03:27.800" title="Anonymous Submission">
    <property name="length">00:03:27:21</property>
    <property name="eof">pause</property>
    <property name="resource">../../006 - Videos format youtube/Clarinettes/Nelly_clarinette_totoro.mp4</property>
    <property name="audio_index">1</property>
    <property name="video_index">0</property>
    <property name="mute_on_pause">0</property>
    <property name="mlt_service">avformat-novalidate</property>
    <property name="seekable">1</property>
    <property name="aspect_ratio">1</property>
    <property name="creation_time">2020-04-05T13:37:57</property>
    <property name="shotcut:hash">ce64ff05cbaafa4ab64d61c9e57002dd</property>
    <property name="ignore_points">0</property>
    <property name="shotcut:caption">Nelly_clarinette_totoro.mp4</property>
    <property name="shotcut:skipConvert">1</property>
    <property name="global_feed">1</property>
    <property name="xml">was here</property>
    <filter id="filter100" in="00:00:45.960000" out="00:00:47.200000">
      <property name="background">colour:0</property>
      <property name="mlt_service">affine</property>
      <property name="shotcut:filter">affineSizePosition</property>
      <property name="transition.fill">1</property>
      <property name="transition.distort">0</property>
      <property name="transition.rect">00:00:00.000000=-1920.0 -1080.0 1922.0 1081.0 1;00:00:00.000000=2048.0 431.0 384.0 216.0 1</property>
      <property name="transition.valign">top</property>
      <property name="transition.halign">left</property>
      <property name="shotcut:animIn">00:00:00.040000</property>
      <property name="shotcut:animOut">00:00:00.000</property>
      <property name="transition.threads">0</property>
    </filter>
    <filter id="filter101" in="00:00:45.960000" out="00:00:47.200000">
      <property name="window">75</property>
      <property name="max_gain">20dB</property>
      <property name="level">0</property>
      <property name="mlt_service">volume</property>
      <property name="disable">1</property>
    </filter>
  </producer>
  <producer id="producer59" in="00:00:00.000" out="00:03:27.800" title="Anonymous Submission">
    <property name="length">00:03:27:21</property>
    <property name="eof">pause</property>
    <property name="resource">../../006 - Videos format youtube/Clarinettes/Nelly_clarinette_totoro.mp4</property>
    <property name="audio_index">1</property>
    <property name="video_index">0</property>
    <property name="mute_on_pause">0</property>
    <property name="mlt_service">avformat-novalidate</property>
    <property name="seekable">1</property>
    <property name="aspect_ratio">1</property>
    <property name="creation_time">2020-04-05T13:37:57</property>
    <property name="shotcut:hash">ce64ff05cbaafa4ab64d61c9e57002dd</property>
    <property name="ignore_points">0</property>
    <property name="shotcut:caption">Nelly_clarinette_totoro.mp4</property>
    <property name="shotcut:skipConvert">1</property>
    <property name="global_feed">1</property>
    <property name="xml">was here</property>
    <filter id="filter102" in="00:00:47.240000" out="00:00:48.440000">
      <property name="background">colour:0</property>
      <property name="mlt_service">affine</property>
      <property name="shotcut:filter">affineSizePosition</property>
      <property name="transition.fill">1</property>
      <property name="transition.distort">0</property>
      <property name="transition.rect">00:00:00.000000=2048.0 431.0 385.0 217.0 1;00:00:01.200000=1408.0 431.0 384.0 216.0 1</property>
      <property name="transition.valign">top</property>
      <property name="transition.halign">left</property>
      <property name="shotcut:animIn">00:00:01.240000</property>
      <property name="shotcut:animOut">00:00:00.000</property>
      <property name="transition.threads">0</property>
    </filter>
    <filter id="filter103" in="00:00:47.240000" out="00:00:48.440000">
      <property name="window">75</property>
      <property name="max_gain">20dB</property>
      <property name="level">0</property>
      <property name="mlt_service">volume</property>
      <property name="disable">1</property>
    </filter>
  </producer>
  <producer id="producer60" in="00:00:00.000" out="00:03:27.800" title="Anonymous Submission">
    <property name="length">00:03:27:21</property>
    <property name="eof">pause</property>
    <property name="resource">../../006 - Videos format youtube/Clarinettes/Nelly_clarinette_totoro.mp4</property>
    <property name="audio_index">1</property>
    <property name="video_index">0</property>
    <property name="mute_on_pause">0</property>
    <property name="mlt_service">avformat-novalidate</property>
    <property name="seekable">1</property>
    <property name="aspect_ratio">1</property>
    <property name="creation_time">2020-04-05T13:37:57</property>
    <property name="shotcut:hash">ce64ff05cbaafa4ab64d61c9e57002dd</property>
    <property name="ignore_points">0</property>
    <property name="shotcut:caption">Nelly_clarinette_totoro.mp4</property>
    <property name="shotcut:skipConvert">1</property>
    <property name="global_feed">1</property>
    <property name="xml">was here</property>
    <filter id="filter104" in="00:00:48.480000" out="00:00:49.720000">
      <property name="background">colour:0</property>
      <property name="mlt_service">affine</property>
      <property name="shotcut:filter">affineSizePosition</property>
      <property name="transition.fill">1</property>
      <property name="transition.distort">0</property>
      <property name="transition.rect">00:00:00.000000=1408.0 431.0 385.0 217.0 1;00:00:01.200000=576.0 324.0 768.0 432.0 1</property>
      <property name="transition.valign">top</property>
      <property name="transition.halign">left</property>
      <property name="shotcut:animIn">00:00:01.240000</property>
      <property name="shotcut:animOut">00:00:00.000</property>
      <property name="transition.threads">0</property>
    </filter>
    <filter id="filter105" in="00:00:48.480000" out="00:00:49.720000">
      <property name="window">75</property>
      <property name="max_gain">20dB</property>
      <property name="level">0</property>
      <property name="mlt_service">volume</property>
      <property name="disable">1</property>
    </filter>
  </producer>
  <producer id="producer61" in="00:00:00.000" out="00:03:27.800" title="Anonymous Submission">
    <property name="length">00:03:27:21</property>
    <property name="eof">pause</property>
    <property name="resource">../../006 - Videos format youtube/Clarinettes/Nelly_clarinette_totoro.mp4</property>
    <property name="audio_index">1</property>
    <property name="video_index">0</property>
    <property name="mute_on_pause">0</property>
    <property name="mlt_service">avformat-novalidate</property>
    <property name="seekable">1</property>
    <property name="aspect_ratio">1</property>
    <property name="creation_time">2020-04-05T13:37:57</property>
    <property name="shotcut:hash">ce64ff05cbaafa4ab64d61c9e57002dd</property>
    <property name="ignore_points">0</property>
    <property name="shotcut:caption">Nelly_clarinette_totoro.mp4</property>
    <property name="shotcut:skipConvert">1</property>
    <property name="global_feed">1</property>
    <property name="xml">was here</property>
    <filter id="filter106" in="00:00:49.760000" out="00:00:50.960000">
      <property name="background">colour:0</property>
      <property name="mlt_service">affine</property>
      <property name="shotcut:filter">affineSizePosition</property>
      <property name="transition.fill">1</property>
      <property name="transition.distort">0</property>
      <property name="transition.rect">00:00:00.000000=576.0 324.0 769.0 433.0 1;00:00:01.200000=128.0 431.0 384.0 216.0 1</property>
      <property name="transition.valign">top</property>
      <property name="transition.halign">left</property>
      <property name="shotcut:animIn">00:00:01.240000</property>
      <property name="shotcut:animOut">00:00:00.000</property>
      <property name="transition.threads">0</property>
    </filter>
    <filter id="filter107" in="00:00:49.760000" out="00:00:50.960000">
      <property name="window">75</property>
      <property name="max_gain">20dB</property>
      <property name="level">0</property>
      <property name="mlt_service">volume</property>
      <property name="disable">1</property>
    </filter>
  </producer>
  <producer id="producer62" in="00:00:00.000" out="00:03:27.800" title="Anonymous Submission">
    <property name="length">00:03:27:21</property>
    <property name="eof">pause</property>
    <property name="resource">../../006 - Videos format youtube/Clarinettes/Nelly_clarinette_totoro.mp4</property>
    <property name="audio_index">1</property>
    <property name="video_index">0</property>
    <property name="mute_on_pause">0</property>
    <property name="mlt_service">avformat-novalidate</property>
    <property name="seekable">1</property>
    <property name="aspect_ratio">1</property>
    <property name="creation_time">2020-04-05T13:37:57</property>
    <property name="shotcut:hash">ce64ff05cbaafa4ab64d61c9e57002dd</property>
    <property name="ignore_points">0</property>
    <property name="shotcut:caption">Nelly_clarinette_totoro.mp4</property>
    <property name="shotcut:skipConvert">1</property>
    <property name="global_feed">1</property>
    <property name="xml">was here</property>
    <filter id="filter108" in="00:00:51.000000" out="00:01:31.280000">
      <property name="background">colour:0</property>
      <property name="mlt_service">affine</property>
      <property name="shotcut:filter">affineSizePosition</property>
      <property name="transition.fill">1</property>
      <property name="transition.distort">0</property>
      <property name="transition.rect">00:00:00.000000=128.0 431.0 385.0 217.0 1;00:00:01.200000=-512.0 431.0 384.0 216.0 1</property>
      <property name="transition.valign">top</property>
      <property name="transition.halign">left</property>
      <property name="shotcut:animIn">00:00:01.240000</property>
      <property name="shotcut:animOut">00:00:00.000</property>
      <property name="transition.threads">0</property>
    </filter>
    <filter id="filter109" in="00:00:51.000000" out="00:01:31.280000">
      <property name="window">75</property>
      <property name="max_gain">20dB</property>
      <property name="level">0</property>
      <property name="mlt_service">volume</property>
      <property name="disable">1</property>
    </filter>
  </producer>
  <playlist id="playlist12">
    <property name="shotcut:video">1</property>
    <property name="shotcut:name">Clarinette_Nelly</property>
    <property name="shotcut:lock">1</property>
    <blank length="00:00:29.000000" />
    <entry in="00:00:35.920000" out="00:00:45.920000" producer="producer57" />
    <entry in="00:00:45.960000" out="00:00:47.200000" producer="producer58" />
    <entry in="00:00:47.240000" out="00:00:48.440000" producer="producer59" />
    <entry in="00:00:48.480000" out="00:00:49.720000" producer="producer60" />
    <entry in="00:00:49.760000" out="00:00:50.960000" producer="producer61" />
    <entry in="00:00:51.000000" out="00:01:31.280000" producer="producer62" />
    <filter id="filter110" out="00:03:23.320">
      <property name="window">75</property>
      <property name="max_gain">20dB</property>
      <property name="level">-11</property>
      <property name="mlt_service">volume</property>
    </filter>
  </playlist>
  <producer id="producer63" in="00:00:00.000" out="00:03:16.440" title="Anonymous Submission">
    <property name="length">00:03:16:12</property>
    <property name="eof">pause</property>
    <property name="resource">../../006 - Videos format youtube/Clarinettes/Natacha_clarinette_totoro.mp4</property>
    <property name="audio_index">1</property>
    <property name="video_index">0</property>
    <property name="mute_on_pause">0</property>
    <property name="mlt_service">avformat-novalidate</property>
    <property name="seekable">1</property>
    <property name="aspect_ratio">1</property>
    <property name="creation_time">2020-04-09T18:24:43</property>
    <property name="shotcut:hash">ef0c345cac52960b965edf602ef26da9</property>
    <property name="ignore_points">0</property>
    <property name="shotcut:caption">Natacha_clarinette_totoro.mp4</property>
    <property name="shotcut:skipConvert">1</property>
    <property name="global_feed">1</property>
    <property name="xml">was here</property>
    <filter id="filter111" in="00:00:25.920000" out="00:00:37.200000">
      <property name="background">colour:0</property>
      <property name="mlt_service">affine</property>
      <property name="shotcut:filter">affineSizePosition</property>
      <property name="transition.fill">1</property>
      <property name="transition.distort">0</property>
      <property name="transition.rect">-1920.0 -1080.0 1921.0 1081.0 1</property>
      <property name="transition.valign">top</property>
      <property name="transition.halign">left</property>
      <property name="shotcut:animIn">00:00:00.040000</property>
      <property name="shotcut:animOut">00:00:00.000</property>
      <property name="transition.threads">0</property>
    </filter>
    <filter id="filter112" in="00:00:25.920000" out="00:00:37.200000">
      <property name="window">75</property>
      <property name="max_gain">20dB</property>
      <property name="mlt_service">volume</property>
      <property name="shotcut:filter">muteVolume</property>
      <property name="gain">0</property>
    </filter>
  </producer>
  <producer id="producer64" in="00:00:00.000" out="00:03:16.440" title="Anonymous Submission">
    <property name="length">00:03:16:12</property>
    <property name="eof">pause</property>
    <property name="resource">../../006 - Videos format youtube/Clarinettes/Natacha_clarinette_totoro.mp4</property>
    <property name="audio_index">1</property>
    <property name="video_index">0</property>
    <property name="mute_on_pause">0</property>
    <property name="mlt_service">avformat-novalidate</property>
    <property name="seekable">1</property>
    <property name="aspect_ratio">1</property>
    <property name="creation_time">2020-04-09T18:24:43</property>
    <property name="shotcut:hash">ef0c345cac52960b965edf602ef26da9</property>
    <property name="ignore_points">0</property>
    <property name="shotcut:caption">Natacha_clarinette_totoro.mp4</property>
    <property name="shotcut:skipConvert">1</property>
    <property name="global_feed">1</property>
    <property name="xml">was here</property>
    <filter id="filter113" in="00:00:37.240000" out="00:00:38.440000">
      <property name="background">colour:0</property>
      <property name="mlt_service">affine</property>
      <property name="shotcut:filter">affineSizePosition</property>
      <property name="transition.fill">1</property>
      <property name="transition.distort">0</property>
      <property name="transition.rect">00:00:00.000000=-1920.0 -1080.0 1922.0 1081.0 1;00:00:00.000000=2048.0 431.0 384.0 216.0 1</property>
      <property name="transition.valign">top</property>
      <property name="transition.halign">left</property>
      <property name="shotcut:animIn">00:00:00.040000</property>
      <property name="shotcut:animOut">00:00:00.000</property>
      <property name="transition.threads">0</property>
    </filter>
    <filter id="filter114" in="00:00:37.240000" out="00:00:38.440000">
      <property name="window">75</property>
      <property name="max_gain">20dB</property>
      <property name="mlt_service">volume</property>
      <property name="shotcut:filter">muteVolume</property>
      <property name="gain">0</property>
    </filter>
  </producer>
  <producer id="producer65" in="00:00:00.000" out="00:03:16.440" title="Anonymous Submission">
    <property name="length">00:03:16:12</property>
    <property name="eof">pause</property>
    <property name="resource">../../006 - Videos format youtube/Clarinettes/Natacha_clarinette_totoro.mp4</property>
    <property name="audio_index">1</property>
    <property name="video_index">0</property>
    <property name="mute_on_pause">0</property>
    <property name="mlt_service">avformat-novalidate</property>
    <property name="seekable">1</property>
    <property name="aspect_ratio">1</property>
    <property name="creation_time">2020-04-09T18:24:43</property>
    <property name="shotcut:hash">ef0c345cac52960b965edf602ef26da9</property>
    <property name="ignore_points">0</property>
    <property name="shotcut:caption">Natacha_clarinette_totoro.mp4</property>
    <property name="shotcut:skipConvert">1</property>
    <property name="global_feed">1</property>
    <property name="xml">was here</property>
    <filter id="filter115" in="00:00:38.480000" out="00:00:39.720000">
      <property name="background">colour:0</property>
      <property name="mlt_service">affine</property>
      <property name="shotcut:filter">affineSizePosition</property>
      <property name="transition.fill">1</property>
      <property name="transition.distort">0</property>
      <property name="transition.rect">00:00:00.000000=2048.0 431.0 385.0 217.0 1;00:00:01.200000=1408.0 431.0 384.0 216.0 1</property>
      <property name="transition.valign">top</property>
      <property name="transition.halign">left</property>
      <property name="shotcut:animIn">00:00:01.240000</property>
      <property name="shotcut:animOut">00:00:00.000</property>
      <property name="transition.threads">0</property>
    </filter>
    <filter id="filter116" in="00:00:38.480000" out="00:00:39.720000">
      <property name="window">75</property>
      <property name="max_gain">20dB</property>
      <property name="mlt_service">volume</property>
      <property name="shotcut:filter">muteVolume</property>
      <property name="gain">0</property>
    </filter>
  </producer>
  <producer id="producer66" in="00:00:00.000" out="00:03:16.440" title="Anonymous Submission">
    <property name="length">00:03:16:12</property>
    <property name="eof">pause</property>
    <property name="resource">../../006 - Videos format youtube/Clarinettes/Natacha_clarinette_totoro.mp4</property>
    <property name="audio_index">1</property>
    <property name="video_index">0</property>
    <property name="mute_on_pause">0</property>
    <property name="mlt_service">avformat-novalidate</property>
    <property name="seekable">1</property>
    <property name="aspect_ratio">1</property>
    <property name="creation_time">2020-04-09T18:24:43</property>
    <property name="shotcut:hash">ef0c345cac52960b965edf602ef26da9</property>
    <property name="ignore_points">0</property>
    <property name="shotcut:caption">Natacha_clarinette_totoro.mp4</property>
    <property name="shotcut:skipConvert">1</property>
    <property name="global_feed">1</property>
    <property name="xml">was here</property>
    <filter id="filter117" in="00:00:39.760000" out="00:00:40.960000">
      <property name="background">colour:0</property>
      <property name="mlt_service">affine</property>
      <property name="shotcut:filter">affineSizePosition</property>
      <property name="transition.fill">1</property>
      <property name="transition.distort">0</property>
      <property name="transition.rect">00:00:00.000000=1408.0 431.0 385.0 217.0 1;00:00:01.200000=576.0 324.0 768.0 432.0 1</property>
      <property name="transition.valign">top</property>
      <property name="transition.halign">left</property>
      <property name="shotcut:animIn">00:00:01.240000</property>
      <property name="shotcut:animOut">00:00:00.000</property>
      <property name="transition.threads">0</property>
    </filter>
    <filter id="filter118" in="00:00:39.760000" out="00:00:40.960000">
      <property name="window">75</property>
      <property name="max_gain">20dB</property>
      <property name="mlt_service">volume</property>
      <property name="shotcut:filter">muteVolume</property>
      <property name="gain">0</property>
    </filter>
  </producer>
  <producer id="producer67" in="00:00:00.000" out="00:03:16.440" title="Anonymous Submission">
    <property name="length">00:03:16:12</property>
    <property name="eof">pause</property>
    <property name="resource">../../006 - Videos format youtube/Clarinettes/Natacha_clarinette_totoro.mp4</property>
    <property name="audio_index">1</property>
    <property name="video_index">0</property>
    <property name="mute_on_pause">0</property>
    <property name="mlt_service">avformat-novalidate</property>
    <property name="seekable">1</property>
    <property name="aspect_ratio">1</property>
    <property name="creation_time">2020-04-09T18:24:43</property>
    <property name="shotcut:hash">ef0c345cac52960b965edf602ef26da9</property>
    <property name="ignore_points">0</property>
    <property name="shotcut:caption">Natacha_clarinette_totoro.mp4</property>
    <property name="shotcut:skipConvert">1</property>
    <property name="global_feed">1</property>
    <property name="xml">was here</property>
    <filter id="filter119" in="00:00:41.000000" out="00:00:42.240000">
      <property name="background">colour:0</property>
      <property name="mlt_service">affine</property>
      <property name="shotcut:filter">affineSizePosition</property>
      <property name="transition.fill">1</property>
      <property name="transition.distort">0</property>
      <property name="transition.rect">00:00:00.000000=576.0 324.0 769.0 433.0 1;00:00:01.200000=128.0 431.0 384.0 216.0 1</property>
      <property name="transition.valign">top</property>
      <property name="transition.halign">left</property>
      <property name="shotcut:animIn">00:00:01.240000</property>
      <property name="shotcut:animOut">00:00:00.000</property>
      <property name="transition.threads">0</property>
    </filter>
    <filter id="filter120" in="00:00:41.000000" out="00:00:42.240000">
      <property name="window">75</property>
      <property name="max_gain">20dB</property>
      <property name="mlt_service">volume</property>
      <property name="shotcut:filter">muteVolume</property>
      <property name="gain">0</property>
    </filter>
  </producer>
  <producer id="producer68" in="00:00:00.000" out="00:03:16.440" title="Anonymous Submission">
    <property name="length">00:03:16:12</property>
    <property name="eof">pause</property>
    <property name="resource">../../006 - Videos format youtube/Clarinettes/Natacha_clarinette_totoro.mp4</property>
    <property name="audio_index">1</property>
    <property name="video_index">0</property>
    <property name="mute_on_pause">0</property>
    <property name="mlt_service">avformat-novalidate</property>
    <property name="seekable">1</property>
    <property name="aspect_ratio">1</property>
    <property name="creation_time">2020-04-09T18:24:43</property>
    <property name="shotcut:hash">ef0c345cac52960b965edf602ef26da9</property>
    <property name="ignore_points">0</property>
    <property name="shotcut:caption">Natacha_clarinette_totoro.mp4</property>
    <property name="shotcut:skipConvert">1</property>
    <property name="global_feed">1</property>
    <property name="xml">was here</property>
    <filter id="filter121" in="00:00:42.280000" out="00:01:21.280000">
      <property name="background">colour:0</property>
      <property name="mlt_service">affine</property>
      <property name="shotcut:filter">affineSizePosition</property>
      <property name="transition.fill">1</property>
      <property name="transition.distort">0</property>
      <property name="transition.rect">00:00:00.000000=128.0 431.0 385.0 217.0 1;00:00:01.200000=-512.0 431.0 384.0 216.0 1</property>
      <property name="transition.valign">top</property>
      <property name="transition.halign">left</property>
      <property name="shotcut:animIn">00:00:01.240000</property>
      <property name="shotcut:animOut">00:00:00.000</property>
      <property name="transition.threads">0</property>
    </filter>
    <filter id="filter122" in="00:00:42.280000" out="00:01:21.280000">
      <property name="window">75</property>
      <property name="max_gain">20dB</property>
      <property name="mlt_service">volume</property>
      <property name="shotcut:filter">muteVolume</property>
      <property name="gain">0</property>
    </filter>
  </producer>
  <playlist id="playlist13">
    <property name="shotcut:video">1</property>
    <property name="shotcut:name">natacha</property>
    <property name="shotcut:lock">1</property>
    <blank length="00:00:29.000000" />
    <entry in="00:00:25.920000" out="00:00:37.200000" producer="producer63" />
    <entry in="00:00:37.240000" out="00:00:38.440000" producer="producer64" />
    <entry in="00:00:38.480000" out="00:00:39.720000" producer="producer65" />
    <entry in="00:00:39.760000" out="00:00:40.960000" producer="producer66" />
    <entry in="00:00:41.000000" out="00:00:42.240000" producer="producer67" />
    <entry in="00:00:42.280000" out="00:01:21.280000" producer="producer68" />
    <filter id="filter123" out="00:03:23.320">
      <property name="window">75</property>
      <property name="max_gain">20dB</property>
      <property name="level">-11</property>
      <property name="mlt_service">volume</property>
    </filter>
  </playlist>
  <producer id="producer69" in="00:00:00.000" out="00:03:22.120" title="Anonymous Submission">
    <property name="length">00:03:22:04</property>
    <property name="eof">pause</property>
    <property name="resource">../../006 - Videos format youtube/Clarinettes/Pierre_clarinette_totoro_recadre.mp4</property>
    <property name="audio_index">1</property>
    <property name="video_index">0</property>
    <property name="mute_on_pause">0</property>
    <property name="mlt_service">avformat-novalidate</property>
    <property name="seekable">1</property>
    <property name="aspect_ratio">1</property>
    <property name="creation_time">2020-04-12T15:55:36</property>
    <property name="shotcut:hash">e4c0c36f4b8e968ab780c99675fecd9b</property>
    <property name="ignore_points">0</property>
    <property name="shotcut:caption">Pierre_clarinette_totoro_recadre.mp4</property>
    <property name="shotcut:skipConvert">1</property>
    <property name="global_feed">1</property>
    <property name="xml">was here</property>
    <filter id="filter124" in="00:00:29.000000" out="00:00:41.520000">
      <property name="background">colour:0</property>
      <property name="mlt_service">affine</property>
      <property name="shotcut:filter">affineSizePosition</property>
      <property name="transition.fill">1</property>
      <property name="transition.distort">0</property>
      <property name="transition.rect">-1920.0 -1080.0 1921.0 1081.0 1</property>
      <property name="transition.valign">top</property>
      <property name="transition.halign">left</property>
      <property name="shotcut:animIn">00:00:00.040000</property>
      <property name="shotcut:animOut">00:00:00.000</property>
      <property name="transition.threads">0</property>
    </filter>
  </producer>
  <producer id="producer70" in="00:00:00.000" out="00:03:22.120" title="Anonymous Submission">
    <property name="length">00:03:22:04</property>
    <property name="eof">pause</property>
    <property name="resource">../../006 - Videos format youtube/Clarinettes/Pierre_clarinette_totoro_recadre.mp4</property>
    <property name="audio_index">1</property>
    <property name="video_index">0</property>
    <property name="mute_on_pause">0</property>
    <property name="mlt_service">avformat-novalidate</property>
    <property name="seekable">1</property>
    <property name="aspect_ratio">1</property>
    <property name="creation_time">2020-04-12T15:55:36</property>
    <property name="shotcut:hash">e4c0c36f4b8e968ab780c99675fecd9b</property>
    <property name="ignore_points">0</property>
    <property name="shotcut:caption">Pierre_clarinette_totoro_recadre.mp4</property>
    <property name="shotcut:skipConvert">1</property>
    <property name="global_feed">1</property>
    <property name="xml">was here</property>
    <filter id="filter125" in="00:00:41.560000" out="00:00:42.800000">
      <property name="background">colour:0</property>
      <property name="mlt_service">affine</property>
      <property name="shotcut:filter">affineSizePosition</property>
      <property name="transition.fill">1</property>
      <property name="transition.distort">0</property>
      <property name="transition.rect">00:00:00.000000=-1920.0 -1080.0 1922.0 1081.0 1;00:00:00.000000=2048.0 431.0 384.0 216.0 1</property>
      <property name="transition.valign">top</property>
      <property name="transition.halign">left</property>
      <property name="shotcut:animIn">00:00:00.040000</property>
      <property name="shotcut:animOut">00:00:00.000</property>
      <property name="transition.threads">0</property>
    </filter>
  </producer>
  <producer id="producer71" in="00:00:00.000" out="00:03:22.120" title="Anonymous Submission">
    <property name="length">00:03:22:04</property>
    <property name="eof">pause</property>
    <property name="resource">../../006 - Videos format youtube/Clarinettes/Pierre_clarinette_totoro_recadre.mp4</property>
    <property name="audio_index">1</property>
    <property name="video_index">0</property>
    <property name="mute_on_pause">0</property>
    <property name="mlt_service">avformat-novalidate</property>
    <property name="seekable">1</property>
    <property name="aspect_ratio">1</property>
    <property name="creation_time">2020-04-12T15:55:36</property>
    <property name="shotcut:hash">e4c0c36f4b8e968ab780c99675fecd9b</property>
    <property name="ignore_points">0</property>
    <property name="shotcut:caption">Pierre_clarinette_totoro_recadre.mp4</property>
    <property name="shotcut:skipConvert">1</property>
    <property name="global_feed">1</property>
    <property name="xml">was here</property>
    <filter id="filter126" in="00:00:42.840000" out="00:00:44.040000">
      <property name="background">colour:0</property>
      <property name="mlt_service">affine</property>
      <property name="shotcut:filter">affineSizePosition</property>
      <property name="transition.fill">1</property>
      <property name="transition.distort">0</property>
      <property name="transition.rect">00:00:00.000000=2048.0 431.0 385.0 217.0 1;00:00:01.200000=1408.0 431.0 384.0 216.0 1</property>
      <property name="transition.valign">top</property>
      <property name="transition.halign">left</property>
      <property name="shotcut:animIn">00:00:01.240000</property>
      <property name="shotcut:animOut">00:00:00.000</property>
      <property name="transition.threads">0</property>
    </filter>
  </producer>
  <producer id="producer72" in="00:00:00.000" out="00:03:22.120" title="Anonymous Submission">
    <property name="length">00:03:22:04</property>
    <property name="eof">pause</property>
    <property name="resource">../../006 - Videos format youtube/Clarinettes/Pierre_clarinette_totoro_recadre.mp4</property>
    <property name="audio_index">1</property>
    <property name="video_index">0</property>
    <property name="mute_on_pause">0</property>
    <property name="mlt_service">avformat-novalidate</property>
    <property name="seekable">1</property>
    <property name="aspect_ratio">1</property>
    <property name="creation_time">2020-04-12T15:55:36</property>
    <property name="shotcut:hash">e4c0c36f4b8e968ab780c99675fecd9b</property>
    <property name="ignore_points">0</property>
    <property name="shotcut:caption">Pierre_clarinette_totoro_recadre.mp4</property>
    <property name="shotcut:skipConvert">1</property>
    <property name="global_feed">1</property>
    <property name="xml">was here</property>
    <filter id="filter127" in="00:00:44.080000" out="00:00:45.320000">
      <property name="background">colour:0</property>
      <property name="mlt_service">affine</property>
      <property name="shotcut:filter">affineSizePosition</property>
      <property name="transition.fill">1</property>
      <property name="transition.distort">0</property>
      <property name="transition.rect">00:00:00.000000=1408.0 431.0 385.0 217.0 1;00:00:01.200000=576.0 324.0 768.0 432.0 1</property>
      <property name="transition.valign">top</property>
      <property name="transition.halign">left</property>
      <property name="shotcut:animIn">00:00:01.240000</property>
      <property name="shotcut:animOut">00:00:00.000</property>
      <property name="transition.threads">0</property>
    </filter>
  </producer>
  <producer id="producer73" in="00:00:00.000" out="00:03:22.120" title="Anonymous Submission">
    <property name="length">00:03:22:04</property>
    <property name="eof">pause</property>
    <property name="resource">../../006 - Videos format youtube/Clarinettes/Pierre_clarinette_totoro_recadre.mp4</property>
    <property name="audio_index">1</property>
    <property name="video_index">0</property>
    <property name="mute_on_pause">0</property>
    <property name="mlt_service">avformat-novalidate</property>
    <property name="seekable">1</property>
    <property name="aspect_ratio">1</property>
    <property name="creation_time">2020-04-12T15:55:36</property>
    <property name="shotcut:hash">e4c0c36f4b8e968ab780c99675fecd9b</property>
    <property name="ignore_points">0</property>
    <property name="shotcut:caption">Pierre_clarinette_totoro_recadre.mp4</property>
    <property name="shotcut:skipConvert">1</property>
    <property name="global_feed">1</property>
    <property name="xml">was here</property>
    <filter id="filter128" in="00:00:45.360000" out="00:00:46.560000">
      <property name="background">colour:0</property>
      <property name="mlt_service">affine</property>
      <property name="shotcut:filter">affineSizePosition</property>
      <property name="transition.fill">1</property>
      <property name="transition.distort">0</property>
      <property name="transition.rect">00:00:00.000000=576.0 324.0 769.0 433.0 1;00:00:01.200000=128.0 431.0 384.0 216.0 1</property>
      <property name="transition.valign">top</property>
      <property name="transition.halign">left</property>
      <property name="shotcut:animIn">00:00:01.240000</property>
      <property name="shotcut:animOut">00:00:00.000</property>
      <property name="transition.threads">0</property>
    </filter>
  </producer>
  <producer id="producer74" in="00:00:00.000" out="00:03:22.120" title="Anonymous Submission">
    <property name="length">00:03:22:04</property>
    <property name="eof">pause</property>
    <property name="resource">../../006 - Videos format youtube/Clarinettes/Pierre_clarinette_totoro_recadre.mp4</property>
    <property name="audio_index">1</property>
    <property name="video_index">0</property>
    <property name="mute_on_pause">0</property>
    <property name="mlt_service">avformat-novalidate</property>
    <property name="seekable">1</property>
    <property name="aspect_ratio">1</property>
    <property name="creation_time">2020-04-12T15:55:36</property>
    <property name="shotcut:hash">e4c0c36f4b8e968ab780c99675fecd9b</property>
    <property name="ignore_points">0</property>
    <property name="shotcut:caption">Pierre_clarinette_totoro_recadre.mp4</property>
    <property name="shotcut:skipConvert">1</property>
    <property name="global_feed">1</property>
    <property name="xml">was here</property>
    <filter id="filter129" in="00:00:46.600000" out="00:01:24.360000">
      <property name="background">colour:0</property>
      <property name="mlt_service">affine</property>
      <property name="shotcut:filter">affineSizePosition</property>
      <property name="transition.fill">1</property>
      <property name="transition.distort">0</property>
      <property name="transition.rect">00:00:00.000000=128.0 431.0 385.0 217.0 1;00:00:01.200000=-512.0 431.0 384.0 216.0 1</property>
      <property name="transition.valign">top</property>
      <property name="transition.halign">left</property>
      <property name="shotcut:animIn">00:00:01.240000</property>
      <property name="shotcut:animOut">00:00:00.000</property>
      <property name="transition.threads">0</property>
    </filter>
  </producer>
  <playlist id="playlist14">
    <blank length="00:00:29.000000" /><property name="shotcut:video">1</property>
    <property name="shotcut:name">Pierre_clarinette_recadr&#233;</property>
    <property name="shotcut:lock">1</property>
    <entry in="00:00:29.000000" out="00:00:41.520000" producer="producer69" />
    <entry in="00:00:41.560000" out="00:00:42.800000" producer="producer70" />
    <entry in="00:00:42.840000" out="00:00:44.040000" producer="producer71" />
    <entry in="00:00:44.080000" out="00:00:45.320000" producer="producer72" />
    <entry in="00:00:45.360000" out="00:00:46.560000" producer="producer73" />
    <entry in="00:00:46.600000" out="00:01:24.360000" producer="producer74" />
    <filter id="filter130" out="00:03:23.320">
      <property name="window">75</property>
      <property name="max_gain">20dB</property>
      <property name="level">-10</property>
      <property name="mlt_service">volume</property>
    </filter>
  </playlist>
  <producer id="producer75" in="00:00:00.000" out="00:03:17.240" title="Anonymous Submission">
    <property name="length">00:03:17:07</property>
    <property name="eof">pause</property>
    <property name="resource">../../006 - Videos format youtube/Clarinettes/Ineke_clarinette_totoro.mp4</property>
    <property name="audio_index">1</property>
    <property name="video_index">0</property>
    <property name="mute_on_pause">0</property>
    <property name="mlt_service">avformat-novalidate</property>
    <property name="seekable">1</property>
    <property name="aspect_ratio">1</property>
    <property name="creation_time">2020-04-20T19:10:56</property>
    <property name="shotcut:hash">44edbdde4a7730436d308ed2f8de3797</property>
    <property name="ignore_points">0</property>
    <property name="shotcut:caption">Ineke_clarinette_totoro.mp4</property>
    <property name="shotcut:skipConvert">1</property>
    <property name="global_feed">1</property>
    <property name="xml">was here</property>
    <filter id="filter131" in="00:00:28.440000" out="00:00:42.240000">
      <property name="background">colour:0</property>
      <property name="mlt_service">affine</property>
      <property name="shotcut:filter">affineSizePosition</property>
      <property name="transition.fill">1</property>
      <property name="transition.distort">0</property>
      <property name="transition.rect">-1920.0 -1080.0 1921.0 1081.0 1</property>
      <property name="transition.valign">top</property>
      <property name="transition.halign">left</property>
      <property name="shotcut:animIn">00:00:00.040000</property>
      <property name="shotcut:animOut">00:00:00.000</property>
      <property name="transition.threads">0</property>
    </filter>
    <filter id="filter132" in="00:00:28.440000" out="00:00:42.240000">
      <property name="window">75</property>
      <property name="max_gain">20dB</property>
      <property name="mlt_service">volume</property>
      <property name="shotcut:filter">muteVolume</property>
      <property name="gain">0</property>
    </filter>
  </producer>
  <producer id="producer76" in="00:00:00.000" out="00:03:17.240" title="Anonymous Submission">
    <property name="length">00:03:17:07</property>
    <property name="eof">pause</property>
    <property name="resource">../../006 - Videos format youtube/Clarinettes/Ineke_clarinette_totoro.mp4</property>
    <property name="audio_index">1</property>
    <property name="video_index">0</property>
    <property name="mute_on_pause">0</property>
    <property name="mlt_service">avformat-novalidate</property>
    <property name="seekable">1</property>
    <property name="aspect_ratio">1</property>
    <property name="creation_time">2020-04-20T19:10:56</property>
    <property name="shotcut:hash">44edbdde4a7730436d308ed2f8de3797</property>
    <property name="ignore_points">0</property>
    <property name="shotcut:caption">Ineke_clarinette_totoro.mp4</property>
    <property name="shotcut:skipConvert">1</property>
    <property name="global_feed">1</property>
    <property name="xml">was here</property>
    <filter id="filter133" in="00:00:42.280000" out="00:00:43.480000">
      <property name="background">colour:0</property>
      <property name="mlt_service">affine</property>
      <property name="shotcut:filter">affineSizePosition</property>
      <property name="transition.fill">1</property>
      <property name="transition.distort">0</property>
      <property name="transition.rect">00:00:00.000000=-1920.0 -1080.0 1922.0 1081.0 1;00:00:00.000000=2048.0 431.0 384.0 216.0 1</property>
      <property name="transition.valign">top</property>
      <property name="transition.halign">left</property>
      <property name="shotcut:animIn">00:00:00.040000</property>
      <property name="shotcut:animOut">00:00:00.000</property>
      <property name="transition.threads">0</property>
    </filter>
    <filter id="filter134" in="00:00:42.280000" out="00:00:43.480000">
      <property name="window">75</property>
      <property name="max_gain">20dB</property>
      <property name="mlt_service">volume</property>
      <property name="shotcut:filter">muteVolume</property>
      <property name="gain">0</property>
    </filter>
  </producer>
  <producer id="producer77" in="00:00:00.000" out="00:03:17.240" title="Anonymous Submission">
    <property name="length">00:03:17:07</property>
    <property name="eof">pause</property>
    <property name="resource">../../006 - Videos format youtube/Clarinettes/Ineke_clarinette_totoro.mp4</property>
    <property name="audio_index">1</property>
    <property name="video_index">0</property>
    <property name="mute_on_pause">0</property>
    <property name="mlt_service">avformat-novalidate</property>
    <property name="seekable">1</property>
    <property name="aspect_ratio">1</property>
    <property name="creation_time">2020-04-20T19:10:56</property>
    <property name="shotcut:hash">44edbdde4a7730436d308ed2f8de3797</property>
    <property name="ignore_points">0</property>
    <property name="shotcut:caption">Ineke_clarinette_totoro.mp4</property>
    <property name="shotcut:skipConvert">1</property>
    <property name="global_feed">1</property>
    <property name="xml">was here</property>
    <filter id="filter135" in="00:00:43.520000" out="00:00:44.760000">
      <property name="background">colour:0</property>
      <property name="mlt_service">affine</property>
      <property name="shotcut:filter">affineSizePosition</property>
      <property name="transition.fill">1</property>
      <property name="transition.distort">0</property>
      <property name="transition.rect">00:00:00.000000=2048.0 431.0 385.0 217.0 1;00:00:01.200000=1408.0 431.0 384.0 216.0 1</property>
      <property name="transition.valign">top</property>
      <property name="transition.halign">left</property>
      <property name="shotcut:animIn">00:00:01.240000</property>
      <property name="shotcut:animOut">00:00:00.000</property>
      <property name="transition.threads">0</property>
    </filter>
    <filter id="filter136" in="00:00:43.520000" out="00:00:44.760000">
      <property name="window">75</property>
      <property name="max_gain">20dB</property>
      <property name="mlt_service">volume</property>
      <property name="shotcut:filter">muteVolume</property>
      <property name="gain">0</property>
    </filter>
  </producer>
  <producer id="producer78" in="00:00:00.000" out="00:03:17.240" title="Anonymous Submission">
    <property name="length">00:03:17:07</property>
    <property name="eof">pause</property>
    <property name="resource">../../006 - Videos format youtube/Clarinettes/Ineke_clarinette_totoro.mp4</property>
    <property name="audio_index">1</property>
    <property name="video_index">0</property>
    <property name="mute_on_pause">0</property>
    <property name="mlt_service">avformat-novalidate</property>
    <property name="seekable">1</property>
    <property name="aspect_ratio">1</property>
    <property name="creation_time">2020-04-20T19:10:56</property>
    <property name="shotcut:hash">44edbdde4a7730436d308ed2f8de3797</property>
    <property name="ignore_points">0</property>
    <property name="shotcut:caption">Ineke_clarinette_totoro.mp4</property>
    <property name="shotcut:skipConvert">1</property>
    <property name="global_feed">1</property>
    <property name="xml">was here</property>
    <filter id="filter137" in="00:00:44.800000" out="00:00:46.000000">
      <property name="background">colour:0</property>
      <property name="mlt_service">affine</property>
      <property name="shotcut:filter">affineSizePosition</property>
      <property name="transition.fill">1</property>
      <property name="transition.distort">0</property>
      <property name="transition.rect">00:00:00.000000=1408.0 431.0 385.0 217.0 1;00:00:01.200000=576.0 324.0 768.0 432.0 1</property>
      <property name="transition.valign">top</property>
      <property name="transition.halign">left</property>
      <property name="shotcut:animIn">00:00:01.240000</property>
      <property name="shotcut:animOut">00:00:00.000</property>
      <property name="transition.threads">0</property>
    </filter>
    <filter id="filter138" in="00:00:44.800000" out="00:00:46.000000">
      <property name="window">75</property>
      <property name="max_gain">20dB</property>
      <property name="mlt_service">volume</property>
      <property name="shotcut:filter">muteVolume</property>
      <property name="gain">0</property>
    </filter>
  </producer>
  <producer id="producer79" in="00:00:00.000" out="00:03:17.240" title="Anonymous Submission">
    <property name="length">00:03:17:07</property>
    <property name="eof">pause</property>
    <property name="resource">../../006 - Videos format youtube/Clarinettes/Ineke_clarinette_totoro.mp4</property>
    <property name="audio_index">1</property>
    <property name="video_index">0</property>
    <property name="mute_on_pause">0</property>
    <property name="mlt_service">avformat-novalidate</property>
    <property name="seekable">1</property>
    <property name="aspect_ratio">1</property>
    <property name="creation_time">2020-04-20T19:10:56</property>
    <property name="shotcut:hash">44edbdde4a7730436d308ed2f8de3797</property>
    <property name="ignore_points">0</property>
    <property name="shotcut:caption">Ineke_clarinette_totoro.mp4</property>
    <property name="shotcut:skipConvert">1</property>
    <property name="global_feed">1</property>
    <property name="xml">was here</property>
    <filter id="filter139" in="00:00:46.040000" out="00:00:47.280000">
      <property name="background">colour:0</property>
      <property name="mlt_service">affine</property>
      <property name="shotcut:filter">affineSizePosition</property>
      <property name="transition.fill">1</property>
      <property name="transition.distort">0</property>
      <property name="transition.rect">00:00:00.000000=576.0 324.0 769.0 433.0 1;00:00:01.200000=128.0 431.0 384.0 216.0 1</property>
      <property name="transition.valign">top</property>
      <property name="transition.halign">left</property>
      <property name="shotcut:animIn">00:00:01.240000</property>
      <property name="shotcut:animOut">00:00:00.000</property>
      <property name="transition.threads">0</property>
    </filter>
    <filter id="filter140" in="00:00:46.040000" out="00:00:47.280000">
      <property name="window">75</property>
      <property name="max_gain">20dB</property>
      <property name="mlt_service">volume</property>
      <property name="shotcut:filter">muteVolume</property>
      <property name="gain">0</property>
    </filter>
  </producer>
  <producer id="producer80" in="00:00:00.000" out="00:03:17.240" title="Anonymous Submission">
    <property name="length">00:03:17:07</property>
    <property name="eof">pause</property>
    <property name="resource">../../006 - Videos format youtube/Clarinettes/Ineke_clarinette_totoro.mp4</property>
    <property name="audio_index">1</property>
    <property name="video_index">0</property>
    <property name="mute_on_pause">0</property>
    <property name="mlt_service">avformat-novalidate</property>
    <property name="seekable">1</property>
    <property name="aspect_ratio">1</property>
    <property name="creation_time">2020-04-20T19:10:56</property>
    <property name="shotcut:hash">44edbdde4a7730436d308ed2f8de3797</property>
    <property name="ignore_points">0</property>
    <property name="shotcut:caption">Ineke_clarinette_totoro.mp4</property>
    <property name="shotcut:skipConvert">1</property>
    <property name="global_feed">1</property>
    <property name="xml">was here</property>
    <filter id="filter141" in="00:00:47.320000" out="00:01:23.800000">
      <property name="background">colour:0</property>
      <property name="mlt_service">affine</property>
      <property name="shotcut:filter">affineSizePosition</property>
      <property name="transition.fill">1</property>
      <property name="transition.distort">0</property>
      <property name="transition.rect">00:00:00.000000=128.0 431.0 385.0 217.0 1;00:00:01.200000=-512.0 431.0 384.0 216.0 1</property>
      <property name="transition.valign">top</property>
      <property name="transition.halign">left</property>
      <property name="shotcut:animIn">00:00:01.240000</property>
      <property name="shotcut:animOut">00:00:00.000</property>
      <property name="transition.threads">0</property>
    </filter>
    <filter id="filter142" in="00:00:47.320000" out="00:01:23.800000">
      <property name="window">75</property>
      <property name="max_gain">20dB</property>
      <property name="mlt_service">volume</property>
      <property name="shotcut:filter">muteVolume</property>
      <property name="gain">0</property>
    </filter>
  </producer>
  <playlist id="playlist15">
    <property name="shotcut:video">1</property>
    <property name="shotcut:name">Ineke</property>
    <property name="shotcut:lock">1</property>
    <blank length="00:00:29.000000" />
    <entry in="00:00:28.440000" out="00:00:42.240000" producer="producer75" />
    <entry in="00:00:42.280000" out="00:00:43.480000" producer="producer76" />
    <entry in="00:00:43.520000" out="00:00:44.760000" producer="producer77" />
    <entry in="00:00:44.800000" out="00:00:46.000000" producer="producer78" />
    <entry in="00:00:46.040000" out="00:00:47.280000" producer="producer79" />
    <entry in="00:00:47.320000" out="00:01:23.800000" producer="producer80" />
    <filter id="filter143" out="00:03:23.320">
      <property name="window">75</property>
      <property name="max_gain">20dB</property>
      <property name="level">-10</property>
      <property name="mlt_service">volume</property>
    </filter>
  </playlist>
  <producer id="producer81" in="00:00:00.000" out="00:03:14.400" title="Anonymous Submission">
    <property name="length">00:03:14:11</property>
    <property name="eof">pause</property>
    <property name="resource">../../006 - Videos format youtube/Clarinettes/Anne-sonia_clarinette_totoro.mp4</property>
    <property name="audio_index">1</property>
    <property name="video_index">0</property>
    <property name="mute_on_pause">0</property>
    <property name="mlt_service">avformat-novalidate</property>
    <property name="seekable">1</property>
    <property name="aspect_ratio">1</property>
    <property name="creation_time">2020-04-05T19:51:43</property>
    <property name="shotcut:hash">4571e04128d43e4e5e43a6e2575279f6</property>
    <property name="ignore_points">0</property>
    <property name="shotcut:caption">Anne-sonia_clarinette_totoro.mp4</property>
    <property name="shotcut:skipConvert">1</property>
    <property name="global_feed">1</property>
    <property name="xml">was here</property>
    <filter id="filter144" in="00:00:21.320000" out="00:00:36.360000">
      <property name="background">colour:0</property>
      <property name="mlt_service">affine</property>
      <property name="shotcut:filter">affineSizePosition</property>
      <property name="transition.fill">1</property>
      <property name="transition.distort">0</property>
      <property name="transition.rect">-1920.0 -1080.0 1921.0 1081.0 1</property>
      <property name="transition.valign">top</property>
      <property name="transition.halign">left</property>
      <property name="shotcut:animIn">00:00:00.040000</property>
      <property name="shotcut:animOut">00:00:00.000</property>
      <property name="transition.threads">0</property>
    </filter>
    <filter id="filter145" in="00:00:21.320000" out="00:00:36.360000">
      <property name="window">75</property>
      <property name="max_gain">20dB</property>
      <property name="mlt_service">volume</property>
      <property name="shotcut:filter">muteVolume</property>
      <property name="gain">0</property>
    </filter>
  </producer>
  <producer id="producer82" in="00:00:00.000" out="00:03:14.400" title="Anonymous Submission">
    <property name="length">00:03:14:11</property>
    <property name="eof">pause</property>
    <property name="resource">../../006 - Videos format youtube/Clarinettes/Anne-sonia_clarinette_totoro.mp4</property>
    <property name="audio_index">1</property>
    <property name="video_index">0</property>
    <property name="mute_on_pause">0</property>
    <property name="mlt_service">avformat-novalidate</property>
    <property name="seekable">1</property>
    <property name="aspect_ratio">1</property>
    <property name="creation_time">2020-04-05T19:51:43</property>
    <property name="shotcut:hash">4571e04128d43e4e5e43a6e2575279f6</property>
    <property name="ignore_points">0</property>
    <property name="shotcut:caption">Anne-sonia_clarinette_totoro.mp4</property>
    <property name="shotcut:skipConvert">1</property>
    <property name="global_feed">1</property>
    <property name="xml">was here</property>
    <filter id="filter146" in="00:00:36.400000" out="00:00:37.640000">
      <property name="background">colour:0</property>
      <property name="mlt_service">affine</property>
      <property name="shotcut:filter">affineSizePosition</property>
      <property name="transition.fill">1</property>
      <property name="transition.distort">0</property>
      <property name="transition.rect">00:00:00.000000=-1920.0 -1080.0 1922.0 1081.0 1;00:00:00.000000=2048.0 431.0 384.0 216.0 1</property>
      <property name="transition.valign">top</property>
      <property name="transition.halign">left</property>
      <property name="shotcut:animIn">00:00:00.040000</property>
      <property name="shotcut:animOut">00:00:00.000</property>
      <property name="transition.threads">0</property>
    </filter>
    <filter id="filter147" in="00:00:36.400000" out="00:00:37.640000">
      <property name="window">75</property>
      <property name="max_gain">20dB</property>
      <property name="mlt_service">volume</property>
      <property name="shotcut:filter">muteVolume</property>
      <property name="gain">0</property>
    </filter>
  </producer>
  <producer id="producer83" in="00:00:00.000" out="00:03:14.400" title="Anonymous Submission">
    <property name="length">00:03:14:11</property>
    <property name="eof">pause</property>
    <property name="resource">../../006 - Videos format youtube/Clarinettes/Anne-sonia_clarinette_totoro.mp4</property>
    <property name="audio_index">1</property>
    <property name="video_index">0</property>
    <property name="mute_on_pause">0</property>
    <property name="mlt_service">avformat-novalidate</property>
    <property name="seekable">1</property>
    <property name="aspect_ratio">1</property>
    <property name="creation_time">2020-04-05T19:51:43</property>
    <property name="shotcut:hash">4571e04128d43e4e5e43a6e2575279f6</property>
    <property name="ignore_points">0</property>
    <property name="shotcut:caption">Anne-sonia_clarinette_totoro.mp4</property>
    <property name="shotcut:skipConvert">1</property>
    <property name="global_feed">1</property>
    <property name="xml">was here</property>
    <filter id="filter148" in="00:00:37.680000" out="00:00:38.880000">
      <property name="background">colour:0</property>
      <property name="mlt_service">affine</property>
      <property name="shotcut:filter">affineSizePosition</property>
      <property name="transition.fill">1</property>
      <property name="transition.distort">0</property>
      <property name="transition.rect">00:00:00.000000=2048.0 431.0 385.0 217.0 1;00:00:01.200000=1408.0 431.0 384.0 216.0 1</property>
      <property name="transition.valign">top</property>
      <property name="transition.halign">left</property>
      <property name="shotcut:animIn">00:00:01.240000</property>
      <property name="shotcut:animOut">00:00:00.000</property>
      <property name="transition.threads">0</property>
    </filter>
    <filter id="filter149" in="00:00:37.680000" out="00:00:38.880000">
      <property name="window">75</property>
      <property name="max_gain">20dB</property>
      <property name="mlt_service">volume</property>
      <property name="shotcut:filter">muteVolume</property>
      <property name="gain">0</property>
    </filter>
  </producer>
  <producer id="producer84" in="00:00:00.000" out="00:03:14.400" title="Anonymous Submission">
    <property name="length">00:03:14:11</property>
    <property name="eof">pause</property>
    <property name="resource">../../006 - Videos format youtube/Clarinettes/Anne-sonia_clarinette_totoro.mp4</property>
    <property name="audio_index">1</property>
    <property name="video_index">0</property>
    <property name="mute_on_pause">0</property>
    <property name="mlt_service">avformat-novalidate</property>
    <property name="seekable">1</property>
    <property name="aspect_ratio">1</property>
    <property name="creation_time">2020-04-05T19:51:43</property>
    <property name="shotcut:hash">4571e04128d43e4e5e43a6e2575279f6</property>
    <property name="ignore_points">0</property>
    <property name="shotcut:caption">Anne-sonia_clarinette_totoro.mp4</property>
    <property name="shotcut:skipConvert">1</property>
    <property name="global_feed">1</property>
    <property name="xml">was here</property>
    <filter id="filter150" in="00:00:38.920000" out="00:00:40.160000">
      <property name="background">colour:0</property>
      <property name="mlt_service">affine</property>
      <property name="shotcut:filter">affineSizePosition</property>
      <property name="transition.fill">1</property>
      <property name="transition.distort">0</property>
      <property name="transition.rect">00:00:00.000000=1408.0 431.0 385.0 217.0 1;00:00:01.200000=576.0 324.0 768.0 432.0 1</property>
      <property name="transition.valign">top</property>
      <property name="transition.halign">left</property>
      <property name="shotcut:animIn">00:00:01.240000</property>
      <property name="shotcut:animOut">00:00:00.000</property>
      <property name="transition.threads">0</property>
    </filter>
    <filter id="filter151" in="00:00:38.920000" out="00:00:40.160000">
      <property name="window">75</property>
      <property name="max_gain">20dB</property>
      <property name="mlt_service">volume</property>
      <property name="shotcut:filter">muteVolume</property>
      <property name="gain">0</property>
    </filter>
  </producer>
  <producer id="producer85" in="00:00:00.000" out="00:03:14.400" title="Anonymous Submission">
    <property name="length">00:03:14:11</property>
    <property name="eof">pause</property>
    <property name="resource">../../006 - Videos format youtube/Clarinettes/Anne-sonia_clarinette_totoro.mp4</property>
    <property name="audio_index">1</property>
    <property name="video_index">0</property>
    <property name="mute_on_pause">0</property>
    <property name="mlt_service">avformat-novalidate</property>
    <property name="seekable">1</property>
    <property name="aspect_ratio">1</property>
    <property name="creation_time">2020-04-05T19:51:43</property>
    <property name="shotcut:hash">4571e04128d43e4e5e43a6e2575279f6</property>
    <property name="ignore_points">0</property>
    <property name="shotcut:caption">Anne-sonia_clarinette_totoro.mp4</property>
    <property name="shotcut:skipConvert">1</property>
    <property name="global_feed">1</property>
    <property name="xml">was here</property>
    <filter id="filter152" in="00:00:40.200000" out="00:00:41.400000">
      <property name="background">colour:0</property>
      <property name="mlt_service">affine</property>
      <property name="shotcut:filter">affineSizePosition</property>
      <property name="transition.fill">1</property>
      <property name="transition.distort">0</property>
      <property name="transition.rect">00:00:00.000000=576.0 324.0 769.0 433.0 1;00:00:01.200000=128.0 431.0 384.0 216.0 1</property>
      <property name="transition.valign">top</property>
      <property name="transition.halign">left</property>
      <property name="shotcut:animIn">00:00:01.240000</property>
      <property name="shotcut:animOut">00:00:00.000</property>
      <property name="transition.threads">0</property>
    </filter>
    <filter id="filter153" in="00:00:40.200000" out="00:00:41.400000">
      <property name="window">75</property>
      <property name="max_gain">20dB</property>
      <property name="mlt_service">volume</property>
      <property name="shotcut:filter">muteVolume</property>
      <property name="gain">0</property>
    </filter>
  </producer>
  <producer id="producer86" in="00:00:00.000" out="00:03:14.400" title="Anonymous Submission">
    <property name="length">00:03:14:11</property>
    <property name="eof">pause</property>
    <property name="resource">../../006 - Videos format youtube/Clarinettes/Anne-sonia_clarinette_totoro.mp4</property>
    <property name="audio_index">1</property>
    <property name="video_index">0</property>
    <property name="mute_on_pause">0</property>
    <property name="mlt_service">avformat-novalidate</property>
    <property name="seekable">1</property>
    <property name="aspect_ratio">1</property>
    <property name="creation_time">2020-04-05T19:51:43</property>
    <property name="shotcut:hash">4571e04128d43e4e5e43a6e2575279f6</property>
    <property name="ignore_points">0</property>
    <property name="shotcut:caption">Anne-sonia_clarinette_totoro.mp4</property>
    <property name="shotcut:skipConvert">1</property>
    <property name="global_feed">1</property>
    <property name="xml">was here</property>
    <filter id="filter154" in="00:00:41.440000" out="00:01:16.680000">
      <property name="background">colour:0</property>
      <property name="mlt_service">affine</property>
      <property name="shotcut:filter">affineSizePosition</property>
      <property name="transition.fill">1</property>
      <property name="transition.distort">0</property>
      <property name="transition.rect">00:00:00.000000=128.0 431.0 385.0 217.0 1;00:00:01.200000=-512.0 431.0 384.0 216.0 1</property>
      <property name="transition.valign">top</property>
      <property name="transition.halign">left</property>
      <property name="shotcut:animIn">00:00:01.240000</property>
      <property name="shotcut:animOut">00:00:00.000</property>
      <property name="transition.threads">0</property>
    </filter>
    <filter id="filter155" in="00:00:41.440000" out="00:01:16.680000">
      <property name="window">75</property>
      <property name="max_gain">20dB</property>
      <property name="mlt_service">volume</property>
      <property name="shotcut:filter">muteVolume</property>
      <property name="gain">0</property>
    </filter>
  </producer>
  <playlist id="playlist16">
    <property name="shotcut:video">1</property>
    <property name="shotcut:name">Anne-Sonia_clar 2?</property>
    <property name="shotcut:lock">1</property>
    <blank length="00:00:29.000000" />
    <entry in="00:00:21.320000" out="00:00:36.360000" producer="producer81" />
    <entry in="00:00:36.400000" out="00:00:37.640000" producer="producer82" />
    <entry in="00:00:37.680000" out="00:00:38.880000" producer="producer83" />
    <entry in="00:00:38.920000" out="00:00:40.160000" producer="producer84" />
    <entry in="00:00:40.200000" out="00:00:41.400000" producer="producer85" />
    <entry in="00:00:41.440000" out="00:01:16.680000" producer="producer86" />
    <filter id="filter156" out="00:03:23.320">
      <property name="window">75</property>
      <property name="max_gain">20dB</property>
      <property name="level">-11</property>
      <property name="mlt_service">volume</property>
    </filter>
  </playlist>
  <producer id="producer87" in="00:00:00.000" out="00:03:09.640" title="Anonymous Submission">
    <property name="length">00:03:09:17</property>
    <property name="eof">pause</property>
    <property name="resource">../../006 - Videos format youtube/Clarinettes/Stephane_clarinette_totoro.mp4</property>
    <property name="audio_index">1</property>
    <property name="video_index">0</property>
    <property name="mute_on_pause">0</property>
    <property name="mlt_service">avformat-novalidate</property>
    <property name="seekable">1</property>
    <property name="aspect_ratio">1</property>
    <property name="creation_time">2020-04-13T11:40:34</property>
    <property name="shotcut:hash">9a40f89235cfd4458835cfec463e07c8</property>
    <property name="ignore_points">0</property>
    <property name="shotcut:caption">Stephane_clarinette_totoro.mp4</property>
    <property name="shotcut:skipConvert">1</property>
    <property name="global_feed">1</property>
    <property name="xml">was here</property>
    <filter id="filter157" in="00:00:18.800000" out="00:00:35.120000">
      <property name="background">colour:0</property>
      <property name="mlt_service">affine</property>
      <property name="shotcut:filter">affineSizePosition</property>
      <property name="transition.fill">1</property>
      <property name="transition.distort">0</property>
      <property name="transition.rect">-1920.0 -1080.0 1921.0 1081.0 1</property>
      <property name="transition.valign">top</property>
      <property name="transition.halign">left</property>
      <property name="shotcut:animIn">00:00:00.040000</property>
      <property name="shotcut:animOut">00:00:00.000</property>
      <property name="transition.threads">0</property>
    </filter>
    <filter id="filter158" in="00:00:18.800000" out="00:00:35.120000">
      <property name="window">75</property>
      <property name="max_gain">20dB</property>
      <property name="mlt_service">volume</property>
      <property name="shotcut:filter">muteVolume</property>
      <property name="gain">0</property>
    </filter>
  </producer>
  <producer id="producer88" in="00:00:00.000" out="00:03:09.640" title="Anonymous Submission">
    <property name="length">00:03:09:17</property>
    <property name="eof">pause</property>
    <property name="resource">../../006 - Videos format youtube/Clarinettes/Stephane_clarinette_totoro.mp4</property>
    <property name="audio_index">1</property>
    <property name="video_index">0</property>
    <property name="mute_on_pause">0</property>
    <property name="mlt_service">avformat-novalidate</property>
    <property name="seekable">1</property>
    <property name="aspect_ratio">1</property>
    <property name="creation_time">2020-04-13T11:40:34</property>
    <property name="shotcut:hash">9a40f89235cfd4458835cfec463e07c8</property>
    <property name="ignore_points">0</property>
    <property name="shotcut:caption">Stephane_clarinette_totoro.mp4</property>
    <property name="shotcut:skipConvert">1</property>
    <property name="global_feed">1</property>
    <property name="xml">was here</property>
    <filter id="filter159" in="00:00:35.160000" out="00:00:36.360000">
      <property name="background">colour:0</property>
      <property name="mlt_service">affine</property>
      <property name="shotcut:filter">affineSizePosition</property>
      <property name="transition.fill">1</property>
      <property name="transition.distort">0</property>
      <property name="transition.rect">00:00:00.000000=-1920.0 -1080.0 1922.0 1081.0 1;00:00:00.000000=2048.0 431.0 384.0 216.0 1</property>
      <property name="transition.valign">top</property>
      <property name="transition.halign">left</property>
      <property name="shotcut:animIn">00:00:00.040000</property>
      <property name="shotcut:animOut">00:00:00.000</property>
      <property name="transition.threads">0</property>
    </filter>
    <filter id="filter160" in="00:00:35.160000" out="00:00:36.360000">
      <property name="window">75</property>
      <property name="max_gain">20dB</property>
      <property name="mlt_service">volume</property>
      <property name="shotcut:filter">muteVolume</property>
      <property name="gain">0</property>
    </filter>
  </producer>
  <producer id="producer89" in="00:00:00.000" out="00:03:09.640" title="Anonymous Submission">
    <property name="length">00:03:09:17</property>
    <property name="eof">pause</property>
    <property name="resource">../../006 - Videos format youtube/Clarinettes/Stephane_clarinette_totoro.mp4</property>
    <property name="audio_index">1</property>
    <property name="video_index">0</property>
    <property name="mute_on_pause">0</property>
    <property name="mlt_service">avformat-novalidate</property>
    <property name="seekable">1</property>
    <property name="aspect_ratio">1</property>
    <property name="creation_time">2020-04-13T11:40:34</property>
    <property name="shotcut:hash">9a40f89235cfd4458835cfec463e07c8</property>
    <property name="ignore_points">0</property>
    <property name="shotcut:caption">Stephane_clarinette_totoro.mp4</property>
    <property name="shotcut:skipConvert">1</property>
    <property name="global_feed">1</property>
    <property name="xml">was here</property>
    <filter id="filter161" in="00:00:36.400000" out="00:00:37.640000">
      <property name="background">colour:0</property>
      <property name="mlt_service">affine</property>
      <property name="shotcut:filter">affineSizePosition</property>
      <property name="transition.fill">1</property>
      <property name="transition.distort">0</property>
      <property name="transition.rect">00:00:00.000000=2048.0 431.0 385.0 217.0 1;00:00:01.200000=1408.0 431.0 384.0 216.0 1</property>
      <property name="transition.valign">top</property>
      <property name="transition.halign">left</property>
      <property name="shotcut:animIn">00:00:01.240000</property>
      <property name="shotcut:animOut">00:00:00.000</property>
      <property name="transition.threads">0</property>
    </filter>
    <filter id="filter162" in="00:00:36.400000" out="00:00:37.640000">
      <property name="window">75</property>
      <property name="max_gain">20dB</property>
      <property name="mlt_service">volume</property>
      <property name="shotcut:filter">muteVolume</property>
      <property name="gain">0</property>
    </filter>
  </producer>
  <producer id="producer90" in="00:00:00.000" out="00:03:09.640" title="Anonymous Submission">
    <property name="length">00:03:09:17</property>
    <property name="eof">pause</property>
    <property name="resource">../../006 - Videos format youtube/Clarinettes/Stephane_clarinette_totoro.mp4</property>
    <property name="audio_index">1</property>
    <property name="video_index">0</property>
    <property name="mute_on_pause">0</property>
    <property name="mlt_service">avformat-novalidate</property>
    <property name="seekable">1</property>
    <property name="aspect_ratio">1</property>
    <property name="creation_time">2020-04-13T11:40:34</property>
    <property name="shotcut:hash">9a40f89235cfd4458835cfec463e07c8</property>
    <property name="ignore_points">0</property>
    <property name="shotcut:caption">Stephane_clarinette_totoro.mp4</property>
    <property name="shotcut:skipConvert">1</property>
    <property name="global_feed">1</property>
    <property name="xml">was here</property>
    <filter id="filter163" in="00:00:37.680000" out="00:00:38.880000">
      <property name="background">colour:0</property>
      <property name="mlt_service">affine</property>
      <property name="shotcut:filter">affineSizePosition</property>
      <property name="transition.fill">1</property>
      <property name="transition.distort">0</property>
      <property name="transition.rect">00:00:00.000000=1408.0 431.0 385.0 217.0 1;00:00:01.200000=576.0 324.0 768.0 432.0 1</property>
      <property name="transition.valign">top</property>
      <property name="transition.halign">left</property>
      <property name="shotcut:animIn">00:00:01.240000</property>
      <property name="shotcut:animOut">00:00:00.000</property>
      <property name="transition.threads">0</property>
    </filter>
    <filter id="filter164" in="00:00:37.680000" out="00:00:38.880000">
      <property name="window">75</property>
      <property name="max_gain">20dB</property>
      <property name="mlt_service">volume</property>
      <property name="shotcut:filter">muteVolume</property>
      <property name="gain">0</property>
    </filter>
  </producer>
  <producer id="producer91" in="00:00:00.000" out="00:03:09.640" title="Anonymous Submission">
    <property name="length">00:03:09:17</property>
    <property name="eof">pause</property>
    <property name="resource">../../006 - Videos format youtube/Clarinettes/Stephane_clarinette_totoro.mp4</property>
    <property name="audio_index">1</property>
    <property name="video_index">0</property>
    <property name="mute_on_pause">0</property>
    <property name="mlt_service">avformat-novalidate</property>
    <property name="seekable">1</property>
    <property name="aspect_ratio">1</property>
    <property name="creation_time">2020-04-13T11:40:34</property>
    <property name="shotcut:hash">9a40f89235cfd4458835cfec463e07c8</property>
    <property name="ignore_points">0</property>
    <property name="shotcut:caption">Stephane_clarinette_totoro.mp4</property>
    <property name="shotcut:skipConvert">1</property>
    <property name="global_feed">1</property>
    <property name="xml">was here</property>
    <filter id="filter165" in="00:00:38.920000" out="00:00:40.160000">
      <property name="background">colour:0</property>
      <property name="mlt_service">affine</property>
      <property name="shotcut:filter">affineSizePosition</property>
      <property name="transition.fill">1</property>
      <property name="transition.distort">0</property>
      <property name="transition.rect">00:00:00.000000=576.0 324.0 769.0 433.0 1;00:00:01.200000=128.0 431.0 384.0 216.0 1</property>
      <property name="transition.valign">top</property>
      <property name="transition.halign">left</property>
      <property name="shotcut:animIn">00:00:01.240000</property>
      <property name="shotcut:animOut">00:00:00.000</property>
      <property name="transition.threads">0</property>
    </filter>
    <filter id="filter166" in="00:00:38.920000" out="00:00:40.160000">
      <property name="window">75</property>
      <property name="max_gain">20dB</property>
      <property name="mlt_service">volume</property>
      <property name="shotcut:filter">muteVolume</property>
      <property name="gain">0</property>
    </filter>
  </producer>
  <producer id="producer92" in="00:00:00.000" out="00:03:09.640" title="Anonymous Submission">
    <property name="length">00:03:09:17</property>
    <property name="eof">pause</property>
    <property name="resource">../../006 - Videos format youtube/Clarinettes/Stephane_clarinette_totoro.mp4</property>
    <property name="audio_index">1</property>
    <property name="video_index">0</property>
    <property name="mute_on_pause">0</property>
    <property name="mlt_service">avformat-novalidate</property>
    <property name="seekable">1</property>
    <property name="aspect_ratio">1</property>
    <property name="creation_time">2020-04-13T11:40:34</property>
    <property name="shotcut:hash">9a40f89235cfd4458835cfec463e07c8</property>
    <property name="ignore_points">0</property>
    <property name="shotcut:caption">Stephane_clarinette_totoro.mp4</property>
    <property name="shotcut:skipConvert">1</property>
    <property name="global_feed">1</property>
    <property name="xml">was here</property>
    <filter id="filter167" in="00:00:40.200000" out="00:01:14.160000">
      <property name="background">colour:0</property>
      <property name="mlt_service">affine</property>
      <property name="shotcut:filter">affineSizePosition</property>
      <property name="transition.fill">1</property>
      <property name="transition.distort">0</property>
      <property name="transition.rect">00:00:00.000000=128.0 431.0 385.0 217.0 1;00:00:01.200000=-512.0 431.0 384.0 216.0 1</property>
      <property name="transition.valign">top</property>
      <property name="transition.halign">left</property>
      <property name="shotcut:animIn">00:00:01.240000</property>
      <property name="shotcut:animOut">00:00:00.000</property>
      <property name="transition.threads">0</property>
    </filter>
    <filter id="filter168" in="00:00:40.200000" out="00:01:14.160000">
      <property name="window">75</property>
      <property name="max_gain">20dB</property>
      <property name="mlt_service">volume</property>
      <property name="shotcut:filter">muteVolume</property>
      <property name="gain">0</property>
    </filter>
  </producer>
  <playlist id="playlist17">
    <property name="shotcut:video">1</property>
    <property name="shotcut:name">Stephane</property>
    <property name="shotcut:lock">1</property>
    <blank length="00:00:29.000000" />
    <entry in="00:00:18.800000" out="00:00:35.120000" producer="producer87" />
    <entry in="00:00:35.160000" out="00:00:36.360000" producer="producer88" />
    <entry in="00:00:36.400000" out="00:00:37.640000" producer="producer89" />
    <entry in="00:00:37.680000" out="00:00:38.880000" producer="producer90" />
    <entry in="00:00:38.920000" out="00:00:40.160000" producer="producer91" />
    <entry in="00:00:40.200000" out="00:01:14.160000" producer="producer92" />
    <filter id="filter169" out="00:03:23.320">
      <property name="window">75</property>
      <property name="max_gain">20dB</property>
      <property name="level">-11</property>
      <property name="mlt_service">volume</property>
    </filter>
  </playlist>
  <producer id="producer93" in="00:00:00.000" out="00:03:32.360" title="Anonymous Submission">
    <property name="length">00:03:32:10</property>
    <property name="eof">pause</property>
    <property name="resource">../../006 - Videos format youtube/Clarinettes/PierreG_clarinette_totoro.mp4</property>
    <property name="audio_index">1</property>
    <property name="video_index">0</property>
    <property name="mute_on_pause">0</property>
    <property name="mlt_service">avformat-novalidate</property>
    <property name="seekable">1</property>
    <property name="aspect_ratio">1</property>
    <property name="creation_time">2020-04-17T16:52:31</property>
    <property name="shotcut:hash">6b94f299793e62fd39584d2bc1ca99a4</property>
    <property name="ignore_points">0</property>
    <property name="shotcut:caption">PierreG_clarinette_totoro.mp4</property>
    <property name="shotcut:skipConvert">1</property>
    <property name="global_feed">1</property>
    <property name="xml">was here</property>
    <filter id="filter170" in="00:00:38.040000" out="00:00:55.600000">
      <property name="background">colour:0</property>
      <property name="mlt_service">affine</property>
      <property name="shotcut:filter">affineSizePosition</property>
      <property name="transition.fill">1</property>
      <property name="transition.distort">0</property>
      <property name="transition.rect">-1920.0 -1080.0 1921.0 1081.0 1</property>
      <property name="transition.valign">top</property>
      <property name="transition.halign">left</property>
      <property name="shotcut:animIn">00:00:00.040000</property>
      <property name="shotcut:animOut">00:00:00.000</property>
      <property name="transition.threads">0</property>
    </filter>
    <filter id="filter171" in="00:00:38.040000" out="00:00:55.600000">
      <property name="window">75</property>
      <property name="max_gain">20dB</property>
      <property name="mlt_service">volume</property>
      <property name="shotcut:filter">muteVolume</property>
      <property name="gain">0</property>
    </filter>
  </producer>
  <producer id="producer94" in="00:00:00.000" out="00:03:32.360" title="Anonymous Submission">
    <property name="length">00:03:32:10</property>
    <property name="eof">pause</property>
    <property name="resource">../../006 - Videos format youtube/Clarinettes/PierreG_clarinette_totoro.mp4</property>
    <property name="audio_index">1</property>
    <property name="video_index">0</property>
    <property name="mute_on_pause">0</property>
    <property name="mlt_service">avformat-novalidate</property>
    <property name="seekable">1</property>
    <property name="aspect_ratio">1</property>
    <property name="creation_time">2020-04-17T16:52:31</property>
    <property name="shotcut:hash">6b94f299793e62fd39584d2bc1ca99a4</property>
    <property name="ignore_points">0</property>
    <property name="shotcut:caption">PierreG_clarinette_totoro.mp4</property>
    <property name="shotcut:skipConvert">1</property>
    <property name="global_feed">1</property>
    <property name="xml">was here</property>
    <filter id="filter172" in="00:00:55.640000" out="00:00:56.880000">
      <property name="background">colour:0</property>
      <property name="mlt_service">affine</property>
      <property name="shotcut:filter">affineSizePosition</property>
      <property name="transition.fill">1</property>
      <property name="transition.distort">0</property>
      <property name="transition.rect">00:00:00.000000=-1920.0 -1080.0 1922.0 1081.0 1;00:00:00.000000=2048.0 431.0 384.0 216.0 1</property>
      <property name="transition.valign">top</property>
      <property name="transition.halign">left</property>
      <property name="shotcut:animIn">00:00:00.040000</property>
      <property name="shotcut:animOut">00:00:00.000</property>
      <property name="transition.threads">0</property>
    </filter>
    <filter id="filter173" in="00:00:55.640000" out="00:00:56.880000">
      <property name="window">75</property>
      <property name="max_gain">20dB</property>
      <property name="mlt_service">volume</property>
      <property name="shotcut:filter">muteVolume</property>
      <property name="gain">0</property>
    </filter>
  </producer>
  <producer id="producer95" in="00:00:00.000" out="00:03:32.360" title="Anonymous Submission">
    <property name="length">00:03:32:10</property>
    <property name="eof">pause</property>
    <property name="resource">../../006 - Videos format youtube/Clarinettes/PierreG_clarinette_totoro.mp4</property>
    <property name="audio_index">1</property>
    <property name="video_index">0</property>
    <property name="mute_on_pause">0</property>
    <property name="mlt_service">avformat-novalidate</property>
    <property name="seekable">1</property>
    <property name="aspect_ratio">1</property>
    <property name="creation_time">2020-04-17T16:52:31</property>
    <property name="shotcut:hash">6b94f299793e62fd39584d2bc1ca99a4</property>
    <property name="ignore_points">0</property>
    <property name="shotcut:caption">PierreG_clarinette_totoro.mp4</property>
    <property name="shotcut:skipConvert">1</property>
    <property name="global_feed">1</property>
    <property name="xml">was here</property>
    <filter id="filter174" in="00:00:56.920000" out="00:00:58.120000">
      <property name="background">colour:0</property>
      <property name="mlt_service">affine</property>
      <property name="shotcut:filter">affineSizePosition</property>
      <property name="transition.fill">1</property>
      <property name="transition.distort">0</property>
      <property name="transition.rect">00:00:00.000000=2048.0 431.0 385.0 217.0 1;00:00:01.200000=1408.0 431.0 384.0 216.0 1</property>
      <property name="transition.valign">top</property>
      <property name="transition.halign">left</property>
      <property name="shotcut:animIn">00:00:01.240000</property>
      <property name="shotcut:animOut">00:00:00.000</property>
      <property name="transition.threads">0</property>
    </filter>
    <filter id="filter175" in="00:00:56.920000" out="00:00:58.120000">
      <property name="window">75</property>
      <property name="max_gain">20dB</property>
      <property name="mlt_service">volume</property>
      <property name="shotcut:filter">muteVolume</property>
      <property name="gain">0</property>
    </filter>
  </producer>
  <producer id="producer96" in="00:00:00.000" out="00:03:32.360" title="Anonymous Submission">
    <property name="length">00:03:32:10</property>
    <property name="eof">pause</property>
    <property name="resource">../../006 - Videos format youtube/Clarinettes/PierreG_clarinette_totoro.mp4</property>
    <property name="audio_index">1</property>
    <property name="video_index">0</property>
    <property name="mute_on_pause">0</property>
    <property name="mlt_service">avformat-novalidate</property>
    <property name="seekable">1</property>
    <property name="aspect_ratio">1</property>
    <property name="creation_time">2020-04-17T16:52:31</property>
    <property name="shotcut:hash">6b94f299793e62fd39584d2bc1ca99a4</property>
    <property name="ignore_points">0</property>
    <property name="shotcut:caption">PierreG_clarinette_totoro.mp4</property>
    <property name="shotcut:skipConvert">1</property>
    <property name="global_feed">1</property>
    <property name="xml">was here</property>
    <filter id="filter176" in="00:00:58.160000" out="00:00:59.400000">
      <property name="background">colour:0</property>
      <property name="mlt_service">affine</property>
      <property name="shotcut:filter">affineSizePosition</property>
      <property name="transition.fill">1</property>
      <property name="transition.distort">0</property>
      <property name="transition.rect">00:00:00.000000=1408.0 431.0 385.0 217.0 1;00:00:01.200000=576.0 324.0 768.0 432.0 1</property>
      <property name="transition.valign">top</property>
      <property name="transition.halign">left</property>
      <property name="shotcut:animIn">00:00:01.240000</property>
      <property name="shotcut:animOut">00:00:00.000</property>
      <property name="transition.threads">0</property>
    </filter>
    <filter id="filter177" in="00:00:58.160000" out="00:00:59.400000">
      <property name="window">75</property>
      <property name="max_gain">20dB</property>
      <property name="mlt_service">volume</property>
      <property name="shotcut:filter">muteVolume</property>
      <property name="gain">0</property>
    </filter>
  </producer>
  <producer id="producer97" in="00:00:00.000" out="00:03:32.360" title="Anonymous Submission">
    <property name="length">00:03:32:10</property>
    <property name="eof">pause</property>
    <property name="resource">../../006 - Videos format youtube/Clarinettes/PierreG_clarinette_totoro.mp4</property>
    <property name="audio_index">1</property>
    <property name="video_index">0</property>
    <property name="mute_on_pause">0</property>
    <property name="mlt_service">avformat-novalidate</property>
    <property name="seekable">1</property>
    <property name="aspect_ratio">1</property>
    <property name="creation_time">2020-04-17T16:52:31</property>
    <property name="shotcut:hash">6b94f299793e62fd39584d2bc1ca99a4</property>
    <property name="ignore_points">0</property>
    <property name="shotcut:caption">PierreG_clarinette_totoro.mp4</property>
    <property name="shotcut:skipConvert">1</property>
    <property name="global_feed">1</property>
    <property name="xml">was here</property>
    <filter id="filter178" in="00:00:59.440000" out="00:01:00.640000">
      <property name="background">colour:0</property>
      <property name="mlt_service">affine</property>
      <property name="shotcut:filter">affineSizePosition</property>
      <property name="transition.fill">1</property>
      <property name="transition.distort">0</property>
      <property name="transition.rect">00:00:00.000000=576.0 324.0 769.0 433.0 1;00:00:01.200000=128.0 431.0 384.0 216.0 1</property>
      <property name="transition.valign">top</property>
      <property name="transition.halign">left</property>
      <property name="shotcut:animIn">00:00:01.240000</property>
      <property name="shotcut:animOut">00:00:00.000</property>
      <property name="transition.threads">0</property>
    </filter>
    <filter id="filter179" in="00:00:59.440000" out="00:01:00.640000">
      <property name="window">75</property>
      <property name="max_gain">20dB</property>
      <property name="mlt_service">volume</property>
      <property name="shotcut:filter">muteVolume</property>
      <property name="gain">0</property>
    </filter>
  </producer>
  <producer id="producer98" in="00:00:00.000" out="00:03:32.360" title="Anonymous Submission">
    <property name="length">00:03:32:10</property>
    <property name="eof">pause</property>
    <property name="resource">../../006 - Videos format youtube/Clarinettes/PierreG_clarinette_totoro.mp4</property>
    <property name="audio_index">1</property>
    <property name="video_index">0</property>
    <property name="mute_on_pause">0</property>
    <property name="mlt_service">avformat-novalidate</property>
    <property name="seekable">1</property>
    <property name="aspect_ratio">1</property>
    <property name="creation_time">2020-04-17T16:52:31</property>
    <property name="shotcut:hash">6b94f299793e62fd39584d2bc1ca99a4</property>
    <property name="ignore_points">0</property>
    <property name="shotcut:caption">PierreG_clarinette_totoro.mp4</property>
    <property name="shotcut:skipConvert">1</property>
    <property name="global_feed">1</property>
    <property name="xml">was here</property>
    <filter id="filter180" in="00:01:00.680000" out="00:01:33.400000">
      <property name="background">colour:0</property>
      <property name="mlt_service">affine</property>
      <property name="shotcut:filter">affineSizePosition</property>
      <property name="transition.fill">1</property>
      <property name="transition.distort">0</property>
      <property name="transition.rect">00:00:00.000000=128.0 431.0 385.0 217.0 1;00:00:01.200000=-512.0 431.0 384.0 216.0 1</property>
      <property name="transition.valign">top</property>
      <property name="transition.halign">left</property>
      <property name="shotcut:animIn">00:00:01.240000</property>
      <property name="shotcut:animOut">00:00:00.000</property>
      <property name="transition.threads">0</property>
    </filter>
    <filter id="filter181" in="00:01:00.680000" out="00:01:33.400000">
      <property name="window">75</property>
      <property name="max_gain">20dB</property>
      <property name="mlt_service">volume</property>
      <property name="shotcut:filter">muteVolume</property>
      <property name="gain">0</property>
    </filter>
  </producer>
  <playlist id="playlist18">
    <property name="shotcut:video">1</property>
    <property name="shotcut:name">Pierre_G</property>
    <property name="shotcut:lock">1</property>
    <blank length="00:00:29.000000" />
    <entry in="00:00:38.040000" out="00:00:55.600000" producer="producer93" />
    <entry in="00:00:55.640000" out="00:00:56.880000" producer="producer94" />
    <entry in="00:00:56.920000" out="00:00:58.120000" producer="producer95" />
    <entry in="00:00:58.160000" out="00:00:59.400000" producer="producer96" />
    <entry in="00:00:59.440000" out="00:01:00.640000" producer="producer97" />
    <entry in="00:01:00.680000" out="00:01:33.400000" producer="producer98" />
    <filter id="filter182" out="00:03:23.320">
      <property name="window">75</property>
      <property name="max_gain">20dB</property>
      <property name="level">-11</property>
      <property name="mlt_service">volume</property>
    </filter>
  </playlist>
  <producer id="producer99" in="00:00:00.000" out="00:03:04.400" title="Anonymous Submission">
    <property name="length">00:03:04:11</property>
    <property name="eof">pause</property>
    <property name="resource">../../006 - Videos format youtube/Clarinettes/Violette_clarinette_totoro.mp4</property>
    <property name="audio_index">1</property>
    <property name="video_index">0</property>
    <property name="mute_on_pause">0</property>
    <property name="mlt_service">avformat-novalidate</property>
    <property name="seekable">1</property>
    <property name="aspect_ratio">1</property>
    <property name="creation_time">2020-04-13T15:00:56</property>
    <property name="shotcut:hash">be5d154cb44417d0faf36686c0a4cbbc</property>
    <property name="ignore_points">0</property>
    <property name="shotcut:caption">Violette_clarinette_totoro.mp4</property>
    <property name="shotcut:skipConvert">1</property>
    <property name="global_feed">1</property>
    <property name="xml">was here</property>
    <filter id="filter183" in="00:00:15.040000" out="00:00:33.880000">
      <property name="background">colour:0</property>
      <property name="mlt_service">affine</property>
      <property name="shotcut:filter">affineSizePosition</property>
      <property name="transition.fill">1</property>
      <property name="transition.distort">0</property>
      <property name="transition.rect">-1920.0 -1080.0 1921.0 1081.0 1</property>
      <property name="transition.valign">top</property>
      <property name="transition.halign">left</property>
      <property name="shotcut:animIn">00:00:00.040000</property>
      <property name="shotcut:animOut">00:00:00.000</property>
      <property name="transition.threads">0</property>
    </filter>
    <filter id="filter184" in="00:00:15.040000" out="00:00:33.880000">
      <property name="window">75</property>
      <property name="max_gain">20dB</property>
      <property name="mlt_service">volume</property>
      <property name="shotcut:filter">muteVolume</property>
      <property name="gain">0</property>
    </filter>
  </producer>
  <producer id="producer100" in="00:00:00.000" out="00:03:04.400" title="Anonymous Submission">
    <property name="length">00:03:04:11</property>
    <property name="eof">pause</property>
    <property name="resource">../../006 - Videos format youtube/Clarinettes/Violette_clarinette_totoro.mp4</property>
    <property name="audio_index">1</property>
    <property name="video_index">0</property>
    <property name="mute_on_pause">0</property>
    <property name="mlt_service">avformat-novalidate</property>
    <property name="seekable">1</property>
    <property name="aspect_ratio">1</property>
    <property name="creation_time">2020-04-13T15:00:56</property>
    <property name="shotcut:hash">be5d154cb44417d0faf36686c0a4cbbc</property>
    <property name="ignore_points">0</property>
    <property name="shotcut:caption">Violette_clarinette_totoro.mp4</property>
    <property name="shotcut:skipConvert">1</property>
    <property name="global_feed">1</property>
    <property name="xml">was here</property>
    <filter id="filter185" in="00:00:33.920000" out="00:00:35.120000">
      <property name="background">colour:0</property>
      <property name="mlt_service">affine</property>
      <property name="shotcut:filter">affineSizePosition</property>
      <property name="transition.fill">1</property>
      <property name="transition.distort">0</property>
      <property name="transition.rect">00:00:00.000000=-1920.0 -1080.0 1922.0 1081.0 1;00:00:00.000000=2048.0 431.0 384.0 216.0 1</property>
      <property name="transition.valign">top</property>
      <property name="transition.halign">left</property>
      <property name="shotcut:animIn">00:00:00.040000</property>
      <property name="shotcut:animOut">00:00:00.000</property>
      <property name="transition.threads">0</property>
    </filter>
    <filter id="filter186" in="00:00:33.920000" out="00:00:35.120000">
      <property name="window">75</property>
      <property name="max_gain">20dB</property>
      <property name="mlt_service">volume</property>
      <property name="shotcut:filter">muteVolume</property>
      <property name="gain">0</property>
    </filter>
  </producer>
  <producer id="producer101" in="00:00:00.000" out="00:03:04.400" title="Anonymous Submission">
    <property name="length">00:03:04:11</property>
    <property name="eof">pause</property>
    <property name="resource">../../006 - Videos format youtube/Clarinettes/Violette_clarinette_totoro.mp4</property>
    <property name="audio_index">1</property>
    <property name="video_index">0</property>
    <property name="mute_on_pause">0</property>
    <property name="mlt_service">avformat-novalidate</property>
    <property name="seekable">1</property>
    <property name="aspect_ratio">1</property>
    <property name="creation_time">2020-04-13T15:00:56</property>
    <property name="shotcut:hash">be5d154cb44417d0faf36686c0a4cbbc</property>
    <property name="ignore_points">0</property>
    <property name="shotcut:caption">Violette_clarinette_totoro.mp4</property>
    <property name="shotcut:skipConvert">1</property>
    <property name="global_feed">1</property>
    <property name="xml">was here</property>
    <filter id="filter187" in="00:00:35.160000" out="00:00:36.400000">
      <property name="background">colour:0</property>
      <property name="mlt_service">affine</property>
      <property name="shotcut:filter">affineSizePosition</property>
      <property name="transition.fill">1</property>
      <property name="transition.distort">0</property>
      <property name="transition.rect">00:00:00.000000=2048.0 431.0 385.0 217.0 1;00:00:01.200000=1408.0 431.0 384.0 216.0 1</property>
      <property name="transition.valign">top</property>
      <property name="transition.halign">left</property>
      <property name="shotcut:animIn">00:00:01.240000</property>
      <property name="shotcut:animOut">00:00:00.000</property>
      <property name="transition.threads">0</property>
    </filter>
    <filter id="filter188" in="00:00:35.160000" out="00:00:36.400000">
      <property name="window">75</property>
      <property name="max_gain">20dB</property>
      <property name="mlt_service">volume</property>
      <property name="shotcut:filter">muteVolume</property>
      <property name="gain">0</property>
    </filter>
  </producer>
  <producer id="producer102" in="00:00:00.000" out="00:03:04.400" title="Anonymous Submission">
    <property name="length">00:03:04:11</property>
    <property name="eof">pause</property>
    <property name="resource">../../006 - Videos format youtube/Clarinettes/Violette_clarinette_totoro.mp4</property>
    <property name="audio_index">1</property>
    <property name="video_index">0</property>
    <property name="mute_on_pause">0</property>
    <property name="mlt_service">avformat-novalidate</property>
    <property name="seekable">1</property>
    <property name="aspect_ratio">1</property>
    <property name="creation_time">2020-04-13T15:00:56</property>
    <property name="shotcut:hash">be5d154cb44417d0faf36686c0a4cbbc</property>
    <property name="ignore_points">0</property>
    <property name="shotcut:caption">Violette_clarinette_totoro.mp4</property>
    <property name="shotcut:skipConvert">1</property>
    <property name="global_feed">1</property>
    <property name="xml">was here</property>
    <filter id="filter189" in="00:00:36.440000" out="00:00:37.640000">
      <property name="background">colour:0</property>
      <property name="mlt_service">affine</property>
      <property name="shotcut:filter">affineSizePosition</property>
      <property name="transition.fill">1</property>
      <property name="transition.distort">0</property>
      <property name="transition.rect">00:00:00.000000=1408.0 431.0 385.0 217.0 1;00:00:01.200000=576.0 324.0 768.0 432.0 1</property>
      <property name="transition.valign">top</property>
      <property name="transition.halign">left</property>
      <property name="shotcut:animIn">00:00:01.240000</property>
      <property name="shotcut:animOut">00:00:00.000</property>
      <property name="transition.threads">0</property>
    </filter>
    <filter id="filter190" in="00:00:36.440000" out="00:00:37.640000">
      <property name="window">75</property>
      <property name="max_gain">20dB</property>
      <property name="mlt_service">volume</property>
      <property name="shotcut:filter">muteVolume</property>
      <property name="gain">0</property>
    </filter>
  </producer>
  <producer id="producer103" in="00:00:00.000" out="00:03:04.400" title="Anonymous Submission">
    <property name="length">00:03:04:11</property>
    <property name="eof">pause</property>
    <property name="resource">../../006 - Videos format youtube/Clarinettes/Violette_clarinette_totoro.mp4</property>
    <property name="audio_index">1</property>
    <property name="video_index">0</property>
    <property name="mute_on_pause">0</property>
    <property name="mlt_service">avformat-novalidate</property>
    <property name="seekable">1</property>
    <property name="aspect_ratio">1</property>
    <property name="creation_time">2020-04-13T15:00:56</property>
    <property name="shotcut:hash">be5d154cb44417d0faf36686c0a4cbbc</property>
    <property name="ignore_points">0</property>
    <property name="shotcut:caption">Violette_clarinette_totoro.mp4</property>
    <property name="shotcut:skipConvert">1</property>
    <property name="global_feed">1</property>
    <property name="xml">was here</property>
    <filter id="filter191" in="00:00:37.680000" out="00:00:38.920000">
      <property name="background">colour:0</property>
      <property name="mlt_service">affine</property>
      <property name="shotcut:filter">affineSizePosition</property>
      <property name="transition.fill">1</property>
      <property name="transition.distort">0</property>
      <property name="transition.rect">00:00:00.000000=576.0 324.0 769.0 433.0 1;00:00:01.200000=128.0 431.0 384.0 216.0 1</property>
      <property name="transition.valign">top</property>
      <property name="transition.halign">left</property>
      <property name="shotcut:animIn">00:00:01.240000</property>
      <property name="shotcut:animOut">00:00:00.000</property>
      <property name="transition.threads">0</property>
    </filter>
    <filter id="filter192" in="00:00:37.680000" out="00:00:38.920000">
      <property name="window">75</property>
      <property name="max_gain">20dB</property>
      <property name="mlt_service">volume</property>
      <property name="shotcut:filter">muteVolume</property>
      <property name="gain">0</property>
    </filter>
  </producer>
  <producer id="producer104" in="00:00:00.000" out="00:03:04.400" title="Anonymous Submission">
    <property name="length">00:03:04:11</property>
    <property name="eof">pause</property>
    <property name="resource">../../006 - Videos format youtube/Clarinettes/Violette_clarinette_totoro.mp4</property>
    <property name="audio_index">1</property>
    <property name="video_index">0</property>
    <property name="mute_on_pause">0</property>
    <property name="mlt_service">avformat-novalidate</property>
    <property name="seekable">1</property>
    <property name="aspect_ratio">1</property>
    <property name="creation_time">2020-04-13T15:00:56</property>
    <property name="shotcut:hash">be5d154cb44417d0faf36686c0a4cbbc</property>
    <property name="ignore_points">0</property>
    <property name="shotcut:caption">Violette_clarinette_totoro.mp4</property>
    <property name="shotcut:skipConvert">1</property>
    <property name="global_feed">1</property>
    <property name="xml">was here</property>
    <filter id="filter193" in="00:00:38.960000" out="00:01:10.400000">
      <property name="background">colour:0</property>
      <property name="mlt_service">affine</property>
      <property name="shotcut:filter">affineSizePosition</property>
      <property name="transition.fill">1</property>
      <property name="transition.distort">0</property>
      <property name="transition.rect">00:00:00.000000=128.0 431.0 385.0 217.0 1;00:00:01.200000=-512.0 431.0 384.0 216.0 1</property>
      <property name="transition.valign">top</property>
      <property name="transition.halign">left</property>
      <property name="shotcut:animIn">00:00:01.240000</property>
      <property name="shotcut:animOut">00:00:00.000</property>
      <property name="transition.threads">0</property>
    </filter>
    <filter id="filter194" in="00:00:38.960000" out="00:01:10.400000">
      <property name="window">75</property>
      <property name="max_gain">20dB</property>
      <property name="mlt_service">volume</property>
      <property name="shotcut:filter">muteVolume</property>
      <property name="gain">0</property>
    </filter>
  </producer>
  <playlist id="playlist19">
    <property name="shotcut:video">1</property>
    <property name="shotcut:name">Violette</property>
    <property name="shotcut:lock">1</property>
    <blank length="00:00:29.000000" />
    <entry in="00:00:15.040000" out="00:00:33.880000" producer="producer99" />
    <entry in="00:00:33.920000" out="00:00:35.120000" producer="producer100" />
    <entry in="00:00:35.160000" out="00:00:36.400000" producer="producer101" />
    <entry in="00:00:36.440000" out="00:00:37.640000" producer="producer102" />
    <entry in="00:00:37.680000" out="00:00:38.920000" producer="producer103" />
    <entry in="00:00:38.960000" out="00:01:10.400000" producer="producer104" />
    <filter id="filter195" out="00:03:23.320">
      <property name="window">75</property>
      <property name="max_gain">20dB</property>
      <property name="level">-10</property>
      <property name="mlt_service">volume</property>
    </filter>
  </playlist>
  <producer id="producer105" in="00:00:00.000" out="00:03:41.120" title="Anonymous Submission">
    <property name="length">00:03:41:04</property>
    <property name="eof">pause</property>
    <property name="resource">../../006 - Videos format youtube/Cor/Andr&#233;_cor_totoro.mp4</property>
    <property name="audio_index">1</property>
    <property name="video_index">0</property>
    <property name="mute_on_pause">0</property>
    <property name="mlt_service">avformat-novalidate</property>
    <property name="seekable">1</property>
    <property name="aspect_ratio">1</property>
    <property name="shotcut:hash">8728c09feae42f34c50f8e6c186504c9</property>
    <property name="ignore_points">0</property>
    <property name="shotcut:caption">Andr&#233;_cor_totoro.mp4</property>
    <property name="shotcut:skipConvert">1</property>
    <property name="global_feed">1</property>
    <property name="xml">was here</property>
    <filter id="filter196" in="00:00:46.960000" out="00:01:07.040000">
      <property name="background">colour:0</property>
      <property name="mlt_service">affine</property>
      <property name="shotcut:filter">affineSizePosition</property>
      <property name="transition.fill">1</property>
      <property name="transition.distort">0</property>
      <property name="transition.rect">-1920.0 -1080.0 1921.0 1081.0 1</property>
      <property name="transition.valign">top</property>
      <property name="transition.halign">left</property>
      <property name="shotcut:animIn">00:00:00.040000</property>
      <property name="shotcut:animOut">00:00:00.000</property>
      <property name="transition.threads">0</property>
    </filter>
    <filter id="filter197" in="00:00:46.960000" out="00:01:07.040000">
      <property name="window">75</property>
      <property name="max_gain">20dB</property>
      <property name="mlt_service">volume</property>
      <property name="shotcut:filter">muteVolume</property>
      <property name="gain">0</property>
    </filter>
  </producer>
  <producer id="producer106" in="00:00:00.000" out="00:03:41.120" title="Anonymous Submission">
    <property name="length">00:03:41:04</property>
    <property name="eof">pause</property>
    <property name="resource">../../006 - Videos format youtube/Cor/Andr&#233;_cor_totoro.mp4</property>
    <property name="audio_index">1</property>
    <property name="video_index">0</property>
    <property name="mute_on_pause">0</property>
    <property name="mlt_service">avformat-novalidate</property>
    <property name="seekable">1</property>
    <property name="aspect_ratio">1</property>
    <property name="shotcut:hash">8728c09feae42f34c50f8e6c186504c9</property>
    <property name="ignore_points">0</property>
    <property name="shotcut:caption">Andr&#233;_cor_totoro.mp4</property>
    <property name="shotcut:skipConvert">1</property>
    <property name="global_feed">1</property>
    <property name="xml">was here</property>
    <filter id="filter198" in="00:01:07.080000" out="00:01:08.320000">
      <property name="background">colour:0</property>
      <property name="mlt_service">affine</property>
      <property name="shotcut:filter">affineSizePosition</property>
      <property name="transition.fill">1</property>
      <property name="transition.distort">0</property>
      <property name="transition.rect">00:00:00.000000=-1920.0 -1080.0 1922.0 1081.0 1;00:00:00.000000=2048.0 431.0 384.0 216.0 1</property>
      <property name="transition.valign">top</property>
      <property name="transition.halign">left</property>
      <property name="shotcut:animIn">00:00:00.040000</property>
      <property name="shotcut:animOut">00:00:00.000</property>
      <property name="transition.threads">0</property>
    </filter>
    <filter id="filter199" in="00:01:07.080000" out="00:01:08.320000">
      <property name="window">75</property>
      <property name="max_gain">20dB</property>
      <property name="mlt_service">volume</property>
      <property name="shotcut:filter">muteVolume</property>
      <property name="gain">0</property>
    </filter>
  </producer>
  <producer id="producer107" in="00:00:00.000" out="00:03:41.120" title="Anonymous Submission">
    <property name="length">00:03:41:04</property>
    <property name="eof">pause</property>
    <property name="resource">../../006 - Videos format youtube/Cor/Andr&#233;_cor_totoro.mp4</property>
    <property name="audio_index">1</property>
    <property name="video_index">0</property>
    <property name="mute_on_pause">0</property>
    <property name="mlt_service">avformat-novalidate</property>
    <property name="seekable">1</property>
    <property name="aspect_ratio">1</property>
    <property name="shotcut:hash">8728c09feae42f34c50f8e6c186504c9</property>
    <property name="ignore_points">0</property>
    <property name="shotcut:caption">Andr&#233;_cor_totoro.mp4</property>
    <property name="shotcut:skipConvert">1</property>
    <property name="global_feed">1</property>
    <property name="xml">was here</property>
    <filter id="filter200" in="00:01:08.360000" out="00:01:09.560000">
      <property name="background">colour:0</property>
      <property name="mlt_service">affine</property>
      <property name="shotcut:filter">affineSizePosition</property>
      <property name="transition.fill">1</property>
      <property name="transition.distort">0</property>
      <property name="transition.rect">00:00:00.000000=2048.0 431.0 385.0 217.0 1;00:00:01.200000=1408.0 431.0 384.0 216.0 1</property>
      <property name="transition.valign">top</property>
      <property name="transition.halign">left</property>
      <property name="shotcut:animIn">00:00:01.240000</property>
      <property name="shotcut:animOut">00:00:00.000</property>
      <property name="transition.threads">0</property>
    </filter>
    <filter id="filter201" in="00:01:08.360000" out="00:01:09.560000">
      <property name="window">75</property>
      <property name="max_gain">20dB</property>
      <property name="mlt_service">volume</property>
      <property name="shotcut:filter">muteVolume</property>
      <property name="gain">0</property>
    </filter>
  </producer>
  <producer id="producer108" in="00:00:00.000" out="00:03:41.120" title="Anonymous Submission">
    <property name="length">00:03:41:04</property>
    <property name="eof">pause</property>
    <property name="resource">../../006 - Videos format youtube/Cor/Andr&#233;_cor_totoro.mp4</property>
    <property name="audio_index">1</property>
    <property name="video_index">0</property>
    <property name="mute_on_pause">0</property>
    <property name="mlt_service">avformat-novalidate</property>
    <property name="seekable">1</property>
    <property name="aspect_ratio">1</property>
    <property name="shotcut:hash">8728c09feae42f34c50f8e6c186504c9</property>
    <property name="ignore_points">0</property>
    <property name="shotcut:caption">Andr&#233;_cor_totoro.mp4</property>
    <property name="shotcut:skipConvert">1</property>
    <property name="global_feed">1</property>
    <property name="xml">was here</property>
    <filter id="filter202" in="00:01:09.600000" out="00:01:10.840000">
      <property name="background">colour:0</property>
      <property name="mlt_service">affine</property>
      <property name="shotcut:filter">affineSizePosition</property>
      <property name="transition.fill">1</property>
      <property name="transition.distort">0</property>
      <property name="transition.rect">00:00:00.000000=1408.0 431.0 385.0 217.0 1;00:00:01.200000=576.0 324.0 768.0 432.0 1</property>
      <property name="transition.valign">top</property>
      <property name="transition.halign">left</property>
      <property name="shotcut:animIn">00:00:01.240000</property>
      <property name="shotcut:animOut">00:00:00.000</property>
      <property name="transition.threads">0</property>
    </filter>
    <filter id="filter203" in="00:01:09.600000" out="00:01:10.840000">
      <property name="window">75</property>
      <property name="max_gain">20dB</property>
      <property name="mlt_service">volume</property>
      <property name="shotcut:filter">muteVolume</property>
      <property name="gain">0</property>
    </filter>
  </producer>
  <producer id="producer109" in="00:00:00.000" out="00:03:41.120" title="Anonymous Submission">
    <property name="length">00:03:41:04</property>
    <property name="eof">pause</property>
    <property name="resource">../../006 - Videos format youtube/Cor/Andr&#233;_cor_totoro.mp4</property>
    <property name="audio_index">1</property>
    <property name="video_index">0</property>
    <property name="mute_on_pause">0</property>
    <property name="mlt_service">avformat-novalidate</property>
    <property name="seekable">1</property>
    <property name="aspect_ratio">1</property>
    <property name="shotcut:hash">8728c09feae42f34c50f8e6c186504c9</property>
    <property name="ignore_points">0</property>
    <property name="shotcut:caption">Andr&#233;_cor_totoro.mp4</property>
    <property name="shotcut:skipConvert">1</property>
    <property name="global_feed">1</property>
    <property name="xml">was here</property>
    <filter id="filter204" in="00:01:10.880000" out="00:01:12.080000">
      <property name="background">colour:0</property>
      <property name="mlt_service">affine</property>
      <property name="shotcut:filter">affineSizePosition</property>
      <property name="transition.fill">1</property>
      <property name="transition.distort">0</property>
      <property name="transition.rect">00:00:00.000000=576.0 324.0 769.0 433.0 1;00:00:01.200000=128.0 431.0 384.0 216.0 1</property>
      <property name="transition.valign">top</property>
      <property name="transition.halign">left</property>
      <property name="shotcut:animIn">00:00:01.240000</property>
      <property name="shotcut:animOut">00:00:00.000</property>
      <property name="transition.threads">0</property>
    </filter>
    <filter id="filter205" in="00:01:10.880000" out="00:01:12.080000">
      <property name="window">75</property>
      <property name="max_gain">20dB</property>
      <property name="mlt_service">volume</property>
      <property name="shotcut:filter">muteVolume</property>
      <property name="gain">0</property>
    </filter>
  </producer>
  <producer id="producer110" in="00:00:00.000" out="00:03:41.120" title="Anonymous Submission">
    <property name="length">00:03:41:04</property>
    <property name="eof">pause</property>
    <property name="resource">../../006 - Videos format youtube/Cor/Andr&#233;_cor_totoro.mp4</property>
    <property name="audio_index">1</property>
    <property name="video_index">0</property>
    <property name="mute_on_pause">0</property>
    <property name="mlt_service">avformat-novalidate</property>
    <property name="seekable">1</property>
    <property name="aspect_ratio">1</property>
    <property name="shotcut:hash">8728c09feae42f34c50f8e6c186504c9</property>
    <property name="ignore_points">0</property>
    <property name="shotcut:caption">Andr&#233;_cor_totoro.mp4</property>
    <property name="shotcut:skipConvert">1</property>
    <property name="global_feed">1</property>
    <property name="xml">was here</property>
    <filter id="filter206" in="00:01:12.120000" out="00:01:42.320000">
      <property name="background">colour:0</property>
      <property name="mlt_service">affine</property>
      <property name="shotcut:filter">affineSizePosition</property>
      <property name="transition.fill">1</property>
      <property name="transition.distort">0</property>
      <property name="transition.rect">00:00:00.000000=128.0 431.0 385.0 217.0 1;00:00:01.200000=-512.0 431.0 384.0 216.0 1</property>
      <property name="transition.valign">top</property>
      <property name="transition.halign">left</property>
      <property name="shotcut:animIn">00:00:01.240000</property>
      <property name="shotcut:animOut">00:00:00.000</property>
      <property name="transition.threads">0</property>
    </filter>
    <filter id="filter207" in="00:01:12.120000" out="00:01:42.320000">
      <property name="window">75</property>
      <property name="max_gain">20dB</property>
      <property name="mlt_service">volume</property>
      <property name="shotcut:filter">muteVolume</property>
      <property name="gain">0</property>
    </filter>
  </producer>
  <playlist id="playlist20">
    <property name="shotcut:video">1</property>
    <property name="shotcut:name">Andr&#233; cor</property>
    <property name="shotcut:lock">1</property>
    <blank length="00:00:29.000000" />
    <entry in="00:00:46.960000" out="00:01:07.040000" producer="producer105" />
    <entry in="00:01:07.080000" out="00:01:08.320000" producer="producer106" />
    <entry in="00:01:08.360000" out="00:01:09.560000" producer="producer107" />
    <entry in="00:01:09.600000" out="00:01:10.840000" producer="producer108" />
    <entry in="00:01:10.880000" out="00:01:12.080000" producer="producer109" />
    <entry in="00:01:12.120000" out="00:01:42.320000" producer="producer110" />
    <filter id="filter208" out="00:03:23.160">
      <property name="window">75</property>
      <property name="max_gain">20dB</property>
      <property name="level">-8</property>
      <property name="mlt_service">volume</property>
    </filter>
  </playlist>
  <producer id="producer111" in="00:00:00.000" out="00:03:09.320" title="Anonymous Submission">
    <property name="length">00:03:09:09</property>
    <property name="eof">pause</property>
    <property name="resource">../../006 - Videos format youtube/Cor/Myrtille_cor_totoro.mp4</property>
    <property name="audio_index">1</property>
    <property name="video_index">0</property>
    <property name="mute_on_pause">0</property>
    <property name="mlt_service">avformat-novalidate</property>
    <property name="seekable">1</property>
    <property name="aspect_ratio">1</property>
    <property name="creation_time">2020-04-21T06:33:53</property>
    <property name="shotcut:hash">010e5be869f07125ac95af97a3278e87</property>
    <property name="ignore_points">0</property>
    <property name="shotcut:caption">Myrtille_cor_totoro.mp4</property>
    <property name="shotcut:skipConvert">1</property>
    <property name="global_feed">1</property>
    <property name="xml">was here</property>
    <filter id="filter209" in="00:00:22.400000" out="00:00:43.760000">
      <property name="background">colour:0</property>
      <property name="mlt_service">affine</property>
      <property name="shotcut:filter">affineSizePosition</property>
      <property name="transition.fill">1</property>
      <property name="transition.distort">0</property>
      <property name="transition.rect">-1920.0 -1080.0 1921.0 1081.0 1</property>
      <property name="transition.valign">top</property>
      <property name="transition.halign">left</property>
      <property name="shotcut:animIn">00:00:00.040000</property>
      <property name="shotcut:animOut">00:00:00.000</property>
      <property name="transition.threads">0</property>
    </filter>
    <filter id="filter210" in="00:00:22.400000" out="00:00:43.760000">
      <property name="window">75</property>
      <property name="max_gain">20dB</property>
      <property name="mlt_service">volume</property>
      <property name="shotcut:filter">muteVolume</property>
      <property name="gain">0</property>
    </filter>
  </producer>
  <producer id="producer112" in="00:00:00.000" out="00:03:09.320" title="Anonymous Submission">
    <property name="length">00:03:09:09</property>
    <property name="eof">pause</property>
    <property name="resource">../../006 - Videos format youtube/Cor/Myrtille_cor_totoro.mp4</property>
    <property name="audio_index">1</property>
    <property name="video_index">0</property>
    <property name="mute_on_pause">0</property>
    <property name="mlt_service">avformat-novalidate</property>
    <property name="seekable">1</property>
    <property name="aspect_ratio">1</property>
    <property name="creation_time">2020-04-21T06:33:53</property>
    <property name="shotcut:hash">010e5be869f07125ac95af97a3278e87</property>
    <property name="ignore_points">0</property>
    <property name="shotcut:caption">Myrtille_cor_totoro.mp4</property>
    <property name="shotcut:skipConvert">1</property>
    <property name="global_feed">1</property>
    <property name="xml">was here</property>
    <filter id="filter211" in="00:00:43.800000" out="00:00:45.000000">
      <property name="background">colour:0</property>
      <property name="mlt_service">affine</property>
      <property name="shotcut:filter">affineSizePosition</property>
      <property name="transition.fill">1</property>
      <property name="transition.distort">0</property>
      <property name="transition.rect">00:00:00.000000=-1920.0 -1080.0 1922.0 1081.0 1;00:00:00.000000=2048.0 431.0 384.0 216.0 1</property>
      <property name="transition.valign">top</property>
      <property name="transition.halign">left</property>
      <property name="shotcut:animIn">00:00:00.040000</property>
      <property name="shotcut:animOut">00:00:00.000</property>
      <property name="transition.threads">0</property>
    </filter>
    <filter id="filter212" in="00:00:43.800000" out="00:00:45.000000">
      <property name="window">75</property>
      <property name="max_gain">20dB</property>
      <property name="mlt_service">volume</property>
      <property name="shotcut:filter">muteVolume</property>
      <property name="gain">0</property>
    </filter>
  </producer>
  <producer id="producer113" in="00:00:00.000" out="00:03:09.320" title="Anonymous Submission">
    <property name="length">00:03:09:09</property>
    <property name="eof">pause</property>
    <property name="resource">../../006 - Videos format youtube/Cor/Myrtille_cor_totoro.mp4</property>
    <property name="audio_index">1</property>
    <property name="video_index">0</property>
    <property name="mute_on_pause">0</property>
    <property name="mlt_service">avformat-novalidate</property>
    <property name="seekable">1</property>
    <property name="aspect_ratio">1</property>
    <property name="creation_time">2020-04-21T06:33:53</property>
    <property name="shotcut:hash">010e5be869f07125ac95af97a3278e87</property>
    <property name="ignore_points">0</property>
    <property name="shotcut:caption">Myrtille_cor_totoro.mp4</property>
    <property name="shotcut:skipConvert">1</property>
    <property name="global_feed">1</property>
    <property name="xml">was here</property>
    <filter id="filter213" in="00:00:45.040000" out="00:00:46.280000">
      <property name="background">colour:0</property>
      <property name="mlt_service">affine</property>
      <property name="shotcut:filter">affineSizePosition</property>
      <property name="transition.fill">1</property>
      <property name="transition.distort">0</property>
      <property name="transition.rect">00:00:00.000000=2048.0 431.0 385.0 217.0 1;00:00:01.200000=1408.0 431.0 384.0 216.0 1</property>
      <property name="transition.valign">top</property>
      <property name="transition.halign">left</property>
      <property name="shotcut:animIn">00:00:01.240000</property>
      <property name="shotcut:animOut">00:00:00.000</property>
      <property name="transition.threads">0</property>
    </filter>
    <filter id="filter214" in="00:00:45.040000" out="00:00:46.280000">
      <property name="window">75</property>
      <property name="max_gain">20dB</property>
      <property name="mlt_service">volume</property>
      <property name="shotcut:filter">muteVolume</property>
      <property name="gain">0</property>
    </filter>
  </producer>
  <producer id="producer114" in="00:00:00.000" out="00:03:09.320" title="Anonymous Submission">
    <property name="length">00:03:09:09</property>
    <property name="eof">pause</property>
    <property name="resource">../../006 - Videos format youtube/Cor/Myrtille_cor_totoro.mp4</property>
    <property name="audio_index">1</property>
    <property name="video_index">0</property>
    <property name="mute_on_pause">0</property>
    <property name="mlt_service">avformat-novalidate</property>
    <property name="seekable">1</property>
    <property name="aspect_ratio">1</property>
    <property name="creation_time">2020-04-21T06:33:53</property>
    <property name="shotcut:hash">010e5be869f07125ac95af97a3278e87</property>
    <property name="ignore_points">0</property>
    <property name="shotcut:caption">Myrtille_cor_totoro.mp4</property>
    <property name="shotcut:skipConvert">1</property>
    <property name="global_feed">1</property>
    <property name="xml">was here</property>
    <filter id="filter215" in="00:00:46.320000" out="00:00:47.520000">
      <property name="background">colour:0</property>
      <property name="mlt_service">affine</property>
      <property name="shotcut:filter">affineSizePosition</property>
      <property name="transition.fill">1</property>
      <property name="transition.distort">0</property>
      <property name="transition.rect">00:00:00.000000=1408.0 431.0 385.0 217.0 1;00:00:01.200000=576.0 324.0 768.0 432.0 1</property>
      <property name="transition.valign">top</property>
      <property name="transition.halign">left</property>
      <property name="shotcut:animIn">00:00:01.240000</property>
      <property name="shotcut:animOut">00:00:00.000</property>
      <property name="transition.threads">0</property>
    </filter>
    <filter id="filter216" in="00:00:46.320000" out="00:00:47.520000">
      <property name="window">75</property>
      <property name="max_gain">20dB</property>
      <property name="mlt_service">volume</property>
      <property name="shotcut:filter">muteVolume</property>
      <property name="gain">0</property>
    </filter>
  </producer>
  <producer id="producer115" in="00:00:00.000" out="00:03:09.320" title="Anonymous Submission">
    <property name="length">00:03:09:09</property>
    <property name="eof">pause</property>
    <property name="resource">../../006 - Videos format youtube/Cor/Myrtille_cor_totoro.mp4</property>
    <property name="audio_index">1</property>
    <property name="video_index">0</property>
    <property name="mute_on_pause">0</property>
    <property name="mlt_service">avformat-novalidate</property>
    <property name="seekable">1</property>
    <property name="aspect_ratio">1</property>
    <property name="creation_time">2020-04-21T06:33:53</property>
    <property name="shotcut:hash">010e5be869f07125ac95af97a3278e87</property>
    <property name="ignore_points">0</property>
    <property name="shotcut:caption">Myrtille_cor_totoro.mp4</property>
    <property name="shotcut:skipConvert">1</property>
    <property name="global_feed">1</property>
    <property name="xml">was here</property>
    <filter id="filter217" in="00:00:47.560000" out="00:00:48.800000">
      <property name="background">colour:0</property>
      <property name="mlt_service">affine</property>
      <property name="shotcut:filter">affineSizePosition</property>
      <property name="transition.fill">1</property>
      <property name="transition.distort">0</property>
      <property name="transition.rect">00:00:00.000000=576.0 324.0 769.0 433.0 1;00:00:01.200000=128.0 431.0 384.0 216.0 1</property>
      <property name="transition.valign">top</property>
      <property name="transition.halign">left</property>
      <property name="shotcut:animIn">00:00:01.240000</property>
      <property name="shotcut:animOut">00:00:00.000</property>
      <property name="transition.threads">0</property>
    </filter>
    <filter id="filter218" in="00:00:47.560000" out="00:00:48.800000">
      <property name="window">75</property>
      <property name="max_gain">20dB</property>
      <property name="mlt_service">volume</property>
      <property name="shotcut:filter">muteVolume</property>
      <property name="gain">0</property>
    </filter>
  </producer>
  <producer id="producer116" in="00:00:00.000" out="00:03:09.320" title="Anonymous Submission">
    <property name="length">00:03:09:09</property>
    <property name="eof">pause</property>
    <property name="resource">../../006 - Videos format youtube/Cor/Myrtille_cor_totoro.mp4</property>
    <property name="audio_index">1</property>
    <property name="video_index">0</property>
    <property name="mute_on_pause">0</property>
    <property name="mlt_service">avformat-novalidate</property>
    <property name="seekable">1</property>
    <property name="aspect_ratio">1</property>
    <property name="creation_time">2020-04-21T06:33:53</property>
    <property name="shotcut:hash">010e5be869f07125ac95af97a3278e87</property>
    <property name="ignore_points">0</property>
    <property name="shotcut:caption">Myrtille_cor_totoro.mp4</property>
    <property name="shotcut:skipConvert">1</property>
    <property name="global_feed">1</property>
    <property name="xml">was here</property>
    <filter id="filter219" in="00:00:48.840000" out="00:01:17.760000">
      <property name="background">colour:0</property>
      <property name="mlt_service">affine</property>
      <property name="shotcut:filter">affineSizePosition</property>
      <property name="transition.fill">1</property>
      <property name="transition.distort">0</property>
      <property name="transition.rect">00:00:00.000000=128.0 431.0 385.0 217.0 1;00:00:01.200000=-512.0 431.0 384.0 216.0 1</property>
      <property name="transition.valign">top</property>
      <property name="transition.halign">left</property>
      <property name="shotcut:animIn">00:00:01.240000</property>
      <property name="shotcut:animOut">00:00:00.000</property>
      <property name="transition.threads">0</property>
    </filter>
    <filter id="filter220" in="00:00:48.840000" out="00:01:17.760000">
      <property name="window">75</property>
      <property name="max_gain">20dB</property>
      <property name="mlt_service">volume</property>
      <property name="shotcut:filter">muteVolume</property>
      <property name="gain">0</property>
    </filter>
  </producer>
  <playlist id="playlist21">
    <property name="shotcut:video">1</property>
    <property name="shotcut:name">V4</property>
    <property name="shotcut:lock">1</property>
    <blank length="00:00:29.000000" />
    <entry in="00:00:22.400000" out="00:00:43.760000" producer="producer111" />
    <entry in="00:00:43.800000" out="00:00:45.000000" producer="producer112" />
    <entry in="00:00:45.040000" out="00:00:46.280000" producer="producer113" />
    <entry in="00:00:46.320000" out="00:00:47.520000" producer="producer114" />
    <entry in="00:00:47.560000" out="00:00:48.800000" producer="producer115" />
    <entry in="00:00:48.840000" out="00:01:17.760000" producer="producer116" />
    <filter id="filter221" out="00:03:23.160">
      <property name="window">75</property>
      <property name="max_gain">20dB</property>
      <property name="level">-11</property>
      <property name="mlt_service">volume</property>
    </filter>
  </playlist>
  <producer id="producer117" in="00:00:00.000" out="00:03:19.240" title="Anonymous Submission">
    <property name="length">00:03:19:07</property>
    <property name="eof">pause</property>
    <property name="resource">../../006 - Videos format youtube/Flutes/Alain_flute_totoro.mp4</property>
    <property name="audio_index">1</property>
    <property name="video_index">0</property>
    <property name="mute_on_pause">0</property>
    <property name="mlt_service">avformat-novalidate</property>
    <property name="seekable">1</property>
    <property name="aspect_ratio">1</property>
    <property name="creation_time">2020-04-08T16:32:02</property>
    <property name="shotcut:hash">e4470a14bf088b76cf4b34d8127e4e51</property>
    <property name="ignore_points">0</property>
    <property name="shotcut:caption">Alain_flute_totoro.mp4</property>
    <property name="shotcut:skipConvert">1</property>
    <property name="global_feed">1</property>
    <property name="xml">was here</property>
    <filter id="filter222" in="00:00:26.920000" out="00:00:49.520000">
      <property name="background">colour:0</property>
      <property name="mlt_service">affine</property>
      <property name="shotcut:filter">affineSizePosition</property>
      <property name="transition.fill">1</property>
      <property name="transition.distort">0</property>
      <property name="transition.rect">-1920.0 -1080.0 1921.0 1081.0 1</property>
      <property name="transition.valign">top</property>
      <property name="transition.halign">left</property>
      <property name="shotcut:animIn">00:00:00.040000</property>
      <property name="shotcut:animOut">00:00:00.000</property>
      <property name="transition.threads">0</property>
    </filter>
    <filter id="filter223" in="00:00:26.920000" out="00:00:49.520000">
      <property name="window">75</property>
      <property name="max_gain">20dB</property>
      <property name="mlt_service">volume</property>
      <property name="shotcut:filter">muteVolume</property>
      <property name="gain">0</property>
    </filter>
  </producer>
  <producer id="producer118" in="00:00:00.000" out="00:03:19.240" title="Anonymous Submission">
    <property name="length">00:03:19:07</property>
    <property name="eof">pause</property>
    <property name="resource">../../006 - Videos format youtube/Flutes/Alain_flute_totoro.mp4</property>
    <property name="audio_index">1</property>
    <property name="video_index">0</property>
    <property name="mute_on_pause">0</property>
    <property name="mlt_service">avformat-novalidate</property>
    <property name="seekable">1</property>
    <property name="aspect_ratio">1</property>
    <property name="creation_time">2020-04-08T16:32:02</property>
    <property name="shotcut:hash">e4470a14bf088b76cf4b34d8127e4e51</property>
    <property name="ignore_points">0</property>
    <property name="shotcut:caption">Alain_flute_totoro.mp4</property>
    <property name="shotcut:skipConvert">1</property>
    <property name="global_feed">1</property>
    <property name="xml">was here</property>
    <filter id="filter224" in="00:00:49.560000" out="00:00:50.800000">
      <property name="background">colour:0</property>
      <property name="mlt_service">affine</property>
      <property name="shotcut:filter">affineSizePosition</property>
      <property name="transition.fill">1</property>
      <property name="transition.distort">0</property>
      <property name="transition.rect">00:00:00.000000=-1920.0 -1080.0 1922.0 1081.0 1;00:00:00.000000=2048.0 431.0 384.0 216.0 1</property>
      <property name="transition.valign">top</property>
      <property name="transition.halign">left</property>
      <property name="shotcut:animIn">00:00:00.040000</property>
      <property name="shotcut:animOut">00:00:00.000</property>
      <property name="transition.threads">0</property>
    </filter>
    <filter id="filter225" in="00:00:49.560000" out="00:00:50.800000">
      <property name="window">75</property>
      <property name="max_gain">20dB</property>
      <property name="mlt_service">volume</property>
      <property name="shotcut:filter">muteVolume</property>
      <property name="gain">0</property>
    </filter>
  </producer>
  <producer id="producer119" in="00:00:00.000" out="00:03:19.240" title="Anonymous Submission">
    <property name="length">00:03:19:07</property>
    <property name="eof">pause</property>
    <property name="resource">../../006 - Videos format youtube/Flutes/Alain_flute_totoro.mp4</property>
    <property name="audio_index">1</property>
    <property name="video_index">0</property>
    <property name="mute_on_pause">0</property>
    <property name="mlt_service">avformat-novalidate</property>
    <property name="seekable">1</property>
    <property name="aspect_ratio">1</property>
    <property name="creation_time">2020-04-08T16:32:02</property>
    <property name="shotcut:hash">e4470a14bf088b76cf4b34d8127e4e51</property>
    <property name="ignore_points">0</property>
    <property name="shotcut:caption">Alain_flute_totoro.mp4</property>
    <property name="shotcut:skipConvert">1</property>
    <property name="global_feed">1</property>
    <property name="xml">was here</property>
    <filter id="filter226" in="00:00:50.840000" out="00:00:52.040000">
      <property name="background">colour:0</property>
      <property name="mlt_service">affine</property>
      <property name="shotcut:filter">affineSizePosition</property>
      <property name="transition.fill">1</property>
      <property name="transition.distort">0</property>
      <property name="transition.rect">00:00:00.000000=2048.0 431.0 385.0 217.0 1;00:00:01.200000=1408.0 431.0 384.0 216.0 1</property>
      <property name="transition.valign">top</property>
      <property name="transition.halign">left</property>
      <property name="shotcut:animIn">00:00:01.240000</property>
      <property name="shotcut:animOut">00:00:00.000</property>
      <property name="transition.threads">0</property>
    </filter>
    <filter id="filter227" in="00:00:50.840000" out="00:00:52.040000">
      <property name="window">75</property>
      <property name="max_gain">20dB</property>
      <property name="mlt_service">volume</property>
      <property name="shotcut:filter">muteVolume</property>
      <property name="gain">0</property>
    </filter>
  </producer>
  <producer id="producer120" in="00:00:00.000" out="00:03:19.240" title="Anonymous Submission">
    <property name="length">00:03:19:07</property>
    <property name="eof">pause</property>
    <property name="resource">../../006 - Videos format youtube/Flutes/Alain_flute_totoro.mp4</property>
    <property name="audio_index">1</property>
    <property name="video_index">0</property>
    <property name="mute_on_pause">0</property>
    <property name="mlt_service">avformat-novalidate</property>
    <property name="seekable">1</property>
    <property name="aspect_ratio">1</property>
    <property name="creation_time">2020-04-08T16:32:02</property>
    <property name="shotcut:hash">e4470a14bf088b76cf4b34d8127e4e51</property>
    <property name="ignore_points">0</property>
    <property name="shotcut:caption">Alain_flute_totoro.mp4</property>
    <property name="shotcut:skipConvert">1</property>
    <property name="global_feed">1</property>
    <property name="xml">was here</property>
    <filter id="filter228" in="00:00:52.080000" out="00:00:53.320000">
      <property name="background">colour:0</property>
      <property name="mlt_service">affine</property>
      <property name="shotcut:filter">affineSizePosition</property>
      <property name="transition.fill">1</property>
      <property name="transition.distort">0</property>
      <property name="transition.rect">00:00:00.000000=1408.0 431.0 385.0 217.0 1;00:00:01.200000=576.0 324.0 768.0 432.0 1</property>
      <property name="transition.valign">top</property>
      <property name="transition.halign">left</property>
      <property name="shotcut:animIn">00:00:01.240000</property>
      <property name="shotcut:animOut">00:00:00.000</property>
      <property name="transition.threads">0</property>
    </filter>
    <filter id="filter229" in="00:00:52.080000" out="00:00:53.320000">
      <property name="window">75</property>
      <property name="max_gain">20dB</property>
      <property name="mlt_service">volume</property>
      <property name="shotcut:filter">muteVolume</property>
      <property name="gain">0</property>
    </filter>
  </producer>
  <producer id="producer121" in="00:00:00.000" out="00:03:19.240" title="Anonymous Submission">
    <property name="length">00:03:19:07</property>
    <property name="eof">pause</property>
    <property name="resource">../../006 - Videos format youtube/Flutes/Alain_flute_totoro.mp4</property>
    <property name="audio_index">1</property>
    <property name="video_index">0</property>
    <property name="mute_on_pause">0</property>
    <property name="mlt_service">avformat-novalidate</property>
    <property name="seekable">1</property>
    <property name="aspect_ratio">1</property>
    <property name="creation_time">2020-04-08T16:32:02</property>
    <property name="shotcut:hash">e4470a14bf088b76cf4b34d8127e4e51</property>
    <property name="ignore_points">0</property>
    <property name="shotcut:caption">Alain_flute_totoro.mp4</property>
    <property name="shotcut:skipConvert">1</property>
    <property name="global_feed">1</property>
    <property name="xml">was here</property>
    <filter id="filter230" in="00:00:53.360000" out="00:00:54.560000">
      <property name="background">colour:0</property>
      <property name="mlt_service">affine</property>
      <property name="shotcut:filter">affineSizePosition</property>
      <property name="transition.fill">1</property>
      <property name="transition.distort">0</property>
      <property name="transition.rect">00:00:00.000000=576.0 324.0 769.0 433.0 1;00:00:01.200000=128.0 431.0 384.0 216.0 1</property>
      <property name="transition.valign">top</property>
      <property name="transition.halign">left</property>
      <property name="shotcut:animIn">00:00:01.240000</property>
      <property name="shotcut:animOut">00:00:00.000</property>
      <property name="transition.threads">0</property>
    </filter>
    <filter id="filter231" in="00:00:53.360000" out="00:00:54.560000">
      <property name="window">75</property>
      <property name="max_gain">20dB</property>
      <property name="mlt_service">volume</property>
      <property name="shotcut:filter">muteVolume</property>
      <property name="gain">0</property>
    </filter>
  </producer>
  <producer id="producer122" in="00:00:00.000" out="00:03:19.240" title="Anonymous Submission">
    <property name="length">00:03:19:07</property>
    <property name="eof">pause</property>
    <property name="resource">../../006 - Videos format youtube/Flutes/Alain_flute_totoro.mp4</property>
    <property name="audio_index">1</property>
    <property name="video_index">0</property>
    <property name="mute_on_pause">0</property>
    <property name="mlt_service">avformat-novalidate</property>
    <property name="seekable">1</property>
    <property name="aspect_ratio">1</property>
    <property name="creation_time">2020-04-08T16:32:02</property>
    <property name="shotcut:hash">e4470a14bf088b76cf4b34d8127e4e51</property>
    <property name="ignore_points">0</property>
    <property name="shotcut:caption">Alain_flute_totoro.mp4</property>
    <property name="shotcut:skipConvert">1</property>
    <property name="global_feed">1</property>
    <property name="xml">was here</property>
    <filter id="filter232" in="00:00:54.600000" out="00:01:22.280000">
      <property name="background">colour:0</property>
      <property name="mlt_service">affine</property>
      <property name="shotcut:filter">affineSizePosition</property>
      <property name="transition.fill">1</property>
      <property name="transition.distort">0</property>
      <property name="transition.rect">00:00:00.000000=128.0 431.0 385.0 217.0 1;00:00:01.200000=-512.0 431.0 384.0 216.0 1</property>
      <property name="transition.valign">top</property>
      <property name="transition.halign">left</property>
      <property name="shotcut:animIn">00:00:01.240000</property>
      <property name="shotcut:animOut">00:00:00.000</property>
      <property name="transition.threads">0</property>
    </filter>
    <filter id="filter233" in="00:00:54.600000" out="00:01:22.280000">
      <property name="window">75</property>
      <property name="max_gain">20dB</property>
      <property name="mlt_service">volume</property>
      <property name="shotcut:filter">muteVolume</property>
      <property name="gain">0</property>
    </filter>
  </producer>
  <playlist id="playlist22">
    <property name="shotcut:video">1</property>
    <property name="shotcut:name">Alain_flute2</property>
    <property name="shotcut:lock">1</property>
    <blank length="00:00:29.000000" />
    <entry in="00:00:26.920000" out="00:00:49.520000" producer="producer117" />
    <entry in="00:00:49.560000" out="00:00:50.800000" producer="producer118" />
    <entry in="00:00:50.840000" out="00:00:52.040000" producer="producer119" />
    <entry in="00:00:52.080000" out="00:00:53.320000" producer="producer120" />
    <entry in="00:00:53.360000" out="00:00:54.560000" producer="producer121" />
    <entry in="00:00:54.600000" out="00:01:22.280000" producer="producer122" />
    <filter id="filter234" out="00:03:35.640">
      <property name="window">75</property>
      <property name="max_gain">20dB</property>
      <property name="level">-10</property>
      <property name="mlt_service">volume</property>
    </filter>
  </playlist>
  <producer id="producer123" in="00:00:00.000" out="00:02:58.120" title="Anonymous Submission">
    <property name="length">00:02:58:04</property>
    <property name="eof">pause</property>
    <property name="resource">../../006 - Videos format youtube/Flutes/Laurence_flute_totoro.mp4</property>
    <property name="audio_index">1</property>
    <property name="video_index">0</property>
    <property name="mute_on_pause">0</property>
    <property name="mlt_service">avformat-novalidate</property>
    <property name="seekable">1</property>
    <property name="aspect_ratio">1</property>
    <property name="creation_time">2020-04-10T18:00:41</property>
    <property name="shotcut:hash">60bcdee113b1401df52909414ee98b5b</property>
    <property name="ignore_points">0</property>
    <property name="shotcut:caption">Laurence_flute_totoro.mp4</property>
    <property name="shotcut:skipConvert">1</property>
    <property name="global_feed">1</property>
    <property name="xml">was here</property>
    <filter id="filter235" in="00:00:09.440000" out="00:00:33.320000">
      <property name="background">colour:0</property>
      <property name="mlt_service">affine</property>
      <property name="shotcut:filter">affineSizePosition</property>
      <property name="transition.fill">1</property>
      <property name="transition.distort">0</property>
      <property name="transition.rect">-1920.0 -1080.0 1921.0 1081.0 1</property>
      <property name="transition.valign">top</property>
      <property name="transition.halign">left</property>
      <property name="shotcut:animIn">00:00:00.040000</property>
      <property name="shotcut:animOut">00:00:00.000</property>
      <property name="transition.threads">0</property>
    </filter>
  </producer>
  <producer id="producer124" in="00:00:00.000" out="00:02:58.120" title="Anonymous Submission">
    <property name="length">00:02:58:04</property>
    <property name="eof">pause</property>
    <property name="resource">../../006 - Videos format youtube/Flutes/Laurence_flute_totoro.mp4</property>
    <property name="audio_index">1</property>
    <property name="video_index">0</property>
    <property name="mute_on_pause">0</property>
    <property name="mlt_service">avformat-novalidate</property>
    <property name="seekable">1</property>
    <property name="aspect_ratio">1</property>
    <property name="creation_time">2020-04-10T18:00:41</property>
    <property name="shotcut:hash">60bcdee113b1401df52909414ee98b5b</property>
    <property name="ignore_points">0</property>
    <property name="shotcut:caption">Laurence_flute_totoro.mp4</property>
    <property name="shotcut:skipConvert">1</property>
    <property name="global_feed">1</property>
    <property name="xml">was here</property>
    <filter id="filter236" in="00:00:33.360000" out="00:00:34.560000">
      <property name="background">colour:0</property>
      <property name="mlt_service">affine</property>
      <property name="shotcut:filter">affineSizePosition</property>
      <property name="transition.fill">1</property>
      <property name="transition.distort">0</property>
      <property name="transition.rect">00:00:00.000000=-1920.0 -1080.0 1922.0 1081.0 1;00:00:00.000000=2048.0 431.0 384.0 216.0 1</property>
      <property name="transition.valign">top</property>
      <property name="transition.halign">left</property>
      <property name="shotcut:animIn">00:00:00.040000</property>
      <property name="shotcut:animOut">00:00:00.000</property>
      <property name="transition.threads">0</property>
    </filter>
  </producer>
  <producer id="producer125" in="00:00:00.000" out="00:02:58.120" title="Anonymous Submission">
    <property name="length">00:02:58:04</property>
    <property name="eof">pause</property>
    <property name="resource">../../006 - Videos format youtube/Flutes/Laurence_flute_totoro.mp4</property>
    <property name="audio_index">1</property>
    <property name="video_index">0</property>
    <property name="mute_on_pause">0</property>
    <property name="mlt_service">avformat-novalidate</property>
    <property name="seekable">1</property>
    <property name="aspect_ratio">1</property>
    <property name="creation_time">2020-04-10T18:00:41</property>
    <property name="shotcut:hash">60bcdee113b1401df52909414ee98b5b</property>
    <property name="ignore_points">0</property>
    <property name="shotcut:caption">Laurence_flute_totoro.mp4</property>
    <property name="shotcut:skipConvert">1</property>
    <property name="global_feed">1</property>
    <property name="xml">was here</property>
    <filter id="filter237" in="00:00:34.600000" out="00:00:35.840000">
      <property name="background">colour:0</property>
      <property name="mlt_service">affine</property>
      <property name="shotcut:filter">affineSizePosition</property>
      <property name="transition.fill">1</property>
      <property name="transition.distort">0</property>
      <property name="transition.rect">00:00:00.000000=2048.0 431.0 385.0 217.0 1;00:00:01.200000=1408.0 431.0 384.0 216.0 1</property>
      <property name="transition.valign">top</property>
      <property name="transition.halign">left</property>
      <property name="shotcut:animIn">00:00:01.240000</property>
      <property name="shotcut:animOut">00:00:00.000</property>
      <property name="transition.threads">0</property>
    </filter>
  </producer>
  <producer id="producer126" in="00:00:00.000" out="00:02:58.120" title="Anonymous Submission">
    <property name="length">00:02:58:04</property>
    <property name="eof">pause</property>
    <property name="resource">../../006 - Videos format youtube/Flutes/Laurence_flute_totoro.mp4</property>
    <property name="audio_index">1</property>
    <property name="video_index">0</property>
    <property name="mute_on_pause">0</property>
    <property name="mlt_service">avformat-novalidate</property>
    <property name="seekable">1</property>
    <property name="aspect_ratio">1</property>
    <property name="creation_time">2020-04-10T18:00:41</property>
    <property name="shotcut:hash">60bcdee113b1401df52909414ee98b5b</property>
    <property name="ignore_points">0</property>
    <property name="shotcut:caption">Laurence_flute_totoro.mp4</property>
    <property name="shotcut:skipConvert">1</property>
    <property name="global_feed">1</property>
    <property name="xml">was here</property>
    <filter id="filter238" in="00:00:35.880000" out="00:00:37.080000">
      <property name="background">colour:0</property>
      <property name="mlt_service">affine</property>
      <property name="shotcut:filter">affineSizePosition</property>
      <property name="transition.fill">1</property>
      <property name="transition.distort">0</property>
      <property name="transition.rect">00:00:00.000000=1408.0 431.0 385.0 217.0 1;00:00:01.200000=576.0 324.0 768.0 432.0 1</property>
      <property name="transition.valign">top</property>
      <property name="transition.halign">left</property>
      <property name="shotcut:animIn">00:00:01.240000</property>
      <property name="shotcut:animOut">00:00:00.000</property>
      <property name="transition.threads">0</property>
    </filter>
  </producer>
  <producer id="producer127" in="00:00:00.000" out="00:02:58.120" title="Anonymous Submission">
    <property name="length">00:02:58:04</property>
    <property name="eof">pause</property>
    <property name="resource">../../006 - Videos format youtube/Flutes/Laurence_flute_totoro.mp4</property>
    <property name="audio_index">1</property>
    <property name="video_index">0</property>
    <property name="mute_on_pause">0</property>
    <property name="mlt_service">avformat-novalidate</property>
    <property name="seekable">1</property>
    <property name="aspect_ratio">1</property>
    <property name="creation_time">2020-04-10T18:00:41</property>
    <property name="shotcut:hash">60bcdee113b1401df52909414ee98b5b</property>
    <property name="ignore_points">0</property>
    <property name="shotcut:caption">Laurence_flute_totoro.mp4</property>
    <property name="shotcut:skipConvert">1</property>
    <property name="global_feed">1</property>
    <property name="xml">was here</property>
    <filter id="filter239" in="00:00:37.120000" out="00:00:38.360000">
      <property name="background">colour:0</property>
      <property name="mlt_service">affine</property>
      <property name="shotcut:filter">affineSizePosition</property>
      <property name="transition.fill">1</property>
      <property name="transition.distort">0</property>
      <property name="transition.rect">00:00:00.000000=576.0 324.0 769.0 433.0 1;00:00:01.200000=128.0 431.0 384.0 216.0 1</property>
      <property name="transition.valign">top</property>
      <property name="transition.halign">left</property>
      <property name="shotcut:animIn">00:00:01.240000</property>
      <property name="shotcut:animOut">00:00:00.000</property>
      <property name="transition.threads">0</property>
    </filter>
  </producer>
  <producer id="producer128" in="00:00:00.000" out="00:02:58.120" title="Anonymous Submission">
    <property name="length">00:02:58:04</property>
    <property name="eof">pause</property>
    <property name="resource">../../006 - Videos format youtube/Flutes/Laurence_flute_totoro.mp4</property>
    <property name="audio_index">1</property>
    <property name="video_index">0</property>
    <property name="mute_on_pause">0</property>
    <property name="mlt_service">avformat-novalidate</property>
    <property name="seekable">1</property>
    <property name="aspect_ratio">1</property>
    <property name="creation_time">2020-04-10T18:00:41</property>
    <property name="shotcut:hash">60bcdee113b1401df52909414ee98b5b</property>
    <property name="ignore_points">0</property>
    <property name="shotcut:caption">Laurence_flute_totoro.mp4</property>
    <property name="shotcut:skipConvert">1</property>
    <property name="global_feed">1</property>
    <property name="xml">was here</property>
    <filter id="filter240" in="00:00:38.400000" out="00:01:04.800000">
      <property name="background">colour:0</property>
      <property name="mlt_service">affine</property>
      <property name="shotcut:filter">affineSizePosition</property>
      <property name="transition.fill">1</property>
      <property name="transition.distort">0</property>
      <property name="transition.rect">00:00:00.000000=128.0 431.0 385.0 217.0 1;00:00:01.200000=-512.0 431.0 384.0 216.0 1</property>
      <property name="transition.valign">top</property>
      <property name="transition.halign">left</property>
      <property name="shotcut:animIn">00:00:01.240000</property>
      <property name="shotcut:animOut">00:00:00.000</property>
      <property name="transition.threads">0</property>
    </filter>
  </producer>
  <playlist id="playlist23">
    <property name="shotcut:video">1</property>
    <property name="shotcut:name"> Laurence_flute 2</property>
    <property name="shotcut:lock">1</property>
    <blank length="00:00:29.000000" />
    <entry in="00:00:09.440000" out="00:00:33.320000" producer="producer123" />
    <entry in="00:00:33.360000" out="00:00:34.560000" producer="producer124" />
    <entry in="00:00:34.600000" out="00:00:35.840000" producer="producer125" />
    <entry in="00:00:35.880000" out="00:00:37.080000" producer="producer126" />
    <entry in="00:00:37.120000" out="00:00:38.360000" producer="producer127" />
    <entry in="00:00:38.400000" out="00:01:04.800000" producer="producer128" />
    <filter id="filter241" out="00:03:35.640">
      <property name="window">75</property>
      <property name="max_gain">20dB</property>
      <property name="level">-12</property>
      <property name="mlt_service">volume</property>
    </filter>
  </playlist>
  <producer id="producer129" in="00:00:00.000" out="00:02:59.720" title="Anonymous Submission">
    <property name="length">00:02:59:19</property>
    <property name="eof">pause</property>
    <property name="resource">../../006 - Videos format youtube/Flutes/Antoine_flute_totoro.mp4</property>
    <property name="audio_index">1</property>
    <property name="video_index">0</property>
    <property name="mute_on_pause">0</property>
    <property name="mlt_service">avformat-novalidate</property>
    <property name="seekable">1</property>
    <property name="aspect_ratio">1</property>
    <property name="creation_time">2020-04-09T18:43:14</property>
    <property name="shotcut:hash">4b5c310c51f982bf236c6a3fad1fff39</property>
    <property name="ignore_points">0</property>
    <property name="shotcut:caption">Antoine_flute_totoro.mp4</property>
    <property name="shotcut:skipConvert">1</property>
    <property name="global_feed">1</property>
    <property name="xml">was here</property>
    <filter id="filter242" in="00:00:12.280000" out="00:00:37.400000">
      <property name="background">colour:0</property>
      <property name="mlt_service">affine</property>
      <property name="shotcut:filter">affineSizePosition</property>
      <property name="transition.fill">1</property>
      <property name="transition.distort">0</property>
      <property name="transition.rect">-1920.0 -1080.0 1921.0 1081.0 1</property>
      <property name="transition.valign">top</property>
      <property name="transition.halign">left</property>
      <property name="shotcut:animIn">00:00:00.040000</property>
      <property name="shotcut:animOut">00:00:00.000</property>
      <property name="transition.threads">0</property>
    </filter>
    <filter id="filter243" in="00:00:12.280000" out="00:00:37.400000">
      <property name="window">75</property>
      <property name="max_gain">20dB</property>
      <property name="mlt_service">volume</property>
      <property name="shotcut:filter">muteVolume</property>
      <property name="gain">0</property>
    </filter>
  </producer>
  <producer id="producer130" in="00:00:00.000" out="00:02:59.720" title="Anonymous Submission">
    <property name="length">00:02:59:19</property>
    <property name="eof">pause</property>
    <property name="resource">../../006 - Videos format youtube/Flutes/Antoine_flute_totoro.mp4</property>
    <property name="audio_index">1</property>
    <property name="video_index">0</property>
    <property name="mute_on_pause">0</property>
    <property name="mlt_service">avformat-novalidate</property>
    <property name="seekable">1</property>
    <property name="aspect_ratio">1</property>
    <property name="creation_time">2020-04-09T18:43:14</property>
    <property name="shotcut:hash">4b5c310c51f982bf236c6a3fad1fff39</property>
    <property name="ignore_points">0</property>
    <property name="shotcut:caption">Antoine_flute_totoro.mp4</property>
    <property name="shotcut:skipConvert">1</property>
    <property name="global_feed">1</property>
    <property name="xml">was here</property>
    <filter id="filter244" in="00:00:37.440000" out="00:00:38.680000">
      <property name="background">colour:0</property>
      <property name="mlt_service">affine</property>
      <property name="shotcut:filter">affineSizePosition</property>
      <property name="transition.fill">1</property>
      <property name="transition.distort">0</property>
      <property name="transition.rect">00:00:00.000000=-1920.0 -1080.0 1922.0 1081.0 1;00:00:00.000000=2048.0 431.0 384.0 216.0 1</property>
      <property name="transition.valign">top</property>
      <property name="transition.halign">left</property>
      <property name="shotcut:animIn">00:00:00.040000</property>
      <property name="shotcut:animOut">00:00:00.000</property>
      <property name="transition.threads">0</property>
    </filter>
    <filter id="filter245" in="00:00:37.440000" out="00:00:38.680000">
      <property name="window">75</property>
      <property name="max_gain">20dB</property>
      <property name="mlt_service">volume</property>
      <property name="shotcut:filter">muteVolume</property>
      <property name="gain">0</property>
    </filter>
  </producer>
  <producer id="producer131" in="00:00:00.000" out="00:02:59.720" title="Anonymous Submission">
    <property name="length">00:02:59:19</property>
    <property name="eof">pause</property>
    <property name="resource">../../006 - Videos format youtube/Flutes/Antoine_flute_totoro.mp4</property>
    <property name="audio_index">1</property>
    <property name="video_index">0</property>
    <property name="mute_on_pause">0</property>
    <property name="mlt_service">avformat-novalidate</property>
    <property name="seekable">1</property>
    <property name="aspect_ratio">1</property>
    <property name="creation_time">2020-04-09T18:43:14</property>
    <property name="shotcut:hash">4b5c310c51f982bf236c6a3fad1fff39</property>
    <property name="ignore_points">0</property>
    <property name="shotcut:caption">Antoine_flute_totoro.mp4</property>
    <property name="shotcut:skipConvert">1</property>
    <property name="global_feed">1</property>
    <property name="xml">was here</property>
    <filter id="filter246" in="00:00:38.720000" out="00:00:39.920000">
      <property name="background">colour:0</property>
      <property name="mlt_service">affine</property>
      <property name="shotcut:filter">affineSizePosition</property>
      <property name="transition.fill">1</property>
      <property name="transition.distort">0</property>
      <property name="transition.rect">00:00:00.000000=2048.0 431.0 385.0 217.0 1;00:00:01.200000=1408.0 431.0 384.0 216.0 1</property>
      <property name="transition.valign">top</property>
      <property name="transition.halign">left</property>
      <property name="shotcut:animIn">00:00:01.240000</property>
      <property name="shotcut:animOut">00:00:00.000</property>
      <property name="transition.threads">0</property>
    </filter>
    <filter id="filter247" in="00:00:38.720000" out="00:00:39.920000">
      <property name="window">75</property>
      <property name="max_gain">20dB</property>
      <property name="mlt_service">volume</property>
      <property name="shotcut:filter">muteVolume</property>
      <property name="gain">0</property>
    </filter>
  </producer>
  <producer id="producer132" in="00:00:00.000" out="00:02:59.720" title="Anonymous Submission">
    <property name="length">00:02:59:19</property>
    <property name="eof">pause</property>
    <property name="resource">../../006 - Videos format youtube/Flutes/Antoine_flute_totoro.mp4</property>
    <property name="audio_index">1</property>
    <property name="video_index">0</property>
    <property name="mute_on_pause">0</property>
    <property name="mlt_service">avformat-novalidate</property>
    <property name="seekable">1</property>
    <property name="aspect_ratio">1</property>
    <property name="creation_time">2020-04-09T18:43:14</property>
    <property name="shotcut:hash">4b5c310c51f982bf236c6a3fad1fff39</property>
    <property name="ignore_points">0</property>
    <property name="shotcut:caption">Antoine_flute_totoro.mp4</property>
    <property name="shotcut:skipConvert">1</property>
    <property name="global_feed">1</property>
    <property name="xml">was here</property>
    <filter id="filter248" in="00:00:39.960000" out="00:00:41.200000">
      <property name="background">colour:0</property>
      <property name="mlt_service">affine</property>
      <property name="shotcut:filter">affineSizePosition</property>
      <property name="transition.fill">1</property>
      <property name="transition.distort">0</property>
      <property name="transition.rect">00:00:00.000000=1408.0 431.0 385.0 217.0 1;00:00:01.200000=576.0 324.0 768.0 432.0 1</property>
      <property name="transition.valign">top</property>
      <property name="transition.halign">left</property>
      <property name="shotcut:animIn">00:00:01.240000</property>
      <property name="shotcut:animOut">00:00:00.000</property>
      <property name="transition.threads">0</property>
    </filter>
    <filter id="filter249" in="00:00:39.960000" out="00:00:41.200000">
      <property name="window">75</property>
      <property name="max_gain">20dB</property>
      <property name="mlt_service">volume</property>
      <property name="shotcut:filter">muteVolume</property>
      <property name="gain">0</property>
    </filter>
  </producer>
  <producer id="producer133" in="00:00:00.000" out="00:02:59.720" title="Anonymous Submission">
    <property name="length">00:02:59:19</property>
    <property name="eof">pause</property>
    <property name="resource">../../006 - Videos format youtube/Flutes/Antoine_flute_totoro.mp4</property>
    <property name="audio_index">1</property>
    <property name="video_index">0</property>
    <property name="mute_on_pause">0</property>
    <property name="mlt_service">avformat-novalidate</property>
    <property name="seekable">1</property>
    <property name="aspect_ratio">1</property>
    <property name="creation_time">2020-04-09T18:43:14</property>
    <property name="shotcut:hash">4b5c310c51f982bf236c6a3fad1fff39</property>
    <property name="ignore_points">0</property>
    <property name="shotcut:caption">Antoine_flute_totoro.mp4</property>
    <property name="shotcut:skipConvert">1</property>
    <property name="global_feed">1</property>
    <property name="xml">was here</property>
    <filter id="filter250" in="00:00:41.240000" out="00:00:42.440000">
      <property name="background">colour:0</property>
      <property name="mlt_service">affine</property>
      <property name="shotcut:filter">affineSizePosition</property>
      <property name="transition.fill">1</property>
      <property name="transition.distort">0</property>
      <property name="transition.rect">00:00:00.000000=576.0 324.0 769.0 433.0 1;00:00:01.200000=128.0 431.0 384.0 216.0 1</property>
      <property name="transition.valign">top</property>
      <property name="transition.halign">left</property>
      <property name="shotcut:animIn">00:00:01.240000</property>
      <property name="shotcut:animOut">00:00:00.000</property>
      <property name="transition.threads">0</property>
    </filter>
    <filter id="filter251" in="00:00:41.240000" out="00:00:42.440000">
      <property name="window">75</property>
      <property name="max_gain">20dB</property>
      <property name="mlt_service">volume</property>
      <property name="shotcut:filter">muteVolume</property>
      <property name="gain">0</property>
    </filter>
  </producer>
  <producer id="producer134" in="00:00:00.000" out="00:02:59.720" title="Anonymous Submission">
    <property name="length">00:02:59:19</property>
    <property name="eof">pause</property>
    <property name="resource">../../006 - Videos format youtube/Flutes/Antoine_flute_totoro.mp4</property>
    <property name="audio_index">1</property>
    <property name="video_index">0</property>
    <property name="mute_on_pause">0</property>
    <property name="mlt_service">avformat-novalidate</property>
    <property name="seekable">1</property>
    <property name="aspect_ratio">1</property>
    <property name="creation_time">2020-04-09T18:43:14</property>
    <property name="shotcut:hash">4b5c310c51f982bf236c6a3fad1fff39</property>
    <property name="ignore_points">0</property>
    <property name="shotcut:caption">Antoine_flute_totoro.mp4</property>
    <property name="shotcut:skipConvert">1</property>
    <property name="global_feed">1</property>
    <property name="xml">was here</property>
    <filter id="filter252" in="00:00:42.480000" out="00:01:07.640000">
      <property name="background">colour:0</property>
      <property name="mlt_service">affine</property>
      <property name="shotcut:filter">affineSizePosition</property>
      <property name="transition.fill">1</property>
      <property name="transition.distort">0</property>
      <property name="transition.rect">00:00:00.000000=128.0 431.0 385.0 217.0 1;00:00:01.200000=-512.0 431.0 384.0 216.0 1</property>
      <property name="transition.valign">top</property>
      <property name="transition.halign">left</property>
      <property name="shotcut:animIn">00:00:01.240000</property>
      <property name="shotcut:animOut">00:00:00.000</property>
      <property name="transition.threads">0</property>
    </filter>
    <filter id="filter253" in="00:00:42.480000" out="00:01:07.640000">
      <property name="window">75</property>
      <property name="max_gain">20dB</property>
      <property name="mlt_service">volume</property>
      <property name="shotcut:filter">muteVolume</property>
      <property name="gain">0</property>
    </filter>
  </producer>
  <playlist id="playlist24">
    <property name="shotcut:video">1</property>
    <property name="shotcut:name">Antoine_flute1</property>
    <property name="shotcut:lock">1</property>
    <blank length="00:00:29.000000" />
    <entry in="00:00:12.280000" out="00:00:37.400000" producer="producer129" />
    <entry in="00:00:37.440000" out="00:00:38.680000" producer="producer130" />
    <entry in="00:00:38.720000" out="00:00:39.920000" producer="producer131" />
    <entry in="00:00:39.960000" out="00:00:41.200000" producer="producer132" />
    <entry in="00:00:41.240000" out="00:00:42.440000" producer="producer133" />
    <entry in="00:00:42.480000" out="00:01:07.640000" producer="producer134" />
    <filter id="filter254" out="00:03:35.640">
      <property name="window">75</property>
      <property name="max_gain">20dB</property>
      <property name="level">-12</property>
      <property name="mlt_service">volume</property>
    </filter>
  </playlist>
  <producer id="producer135" in="00:00:00.000" out="00:03:35.640" title="Anonymous Submission">
    <property name="length">00:03:35:17</property>
    <property name="eof">pause</property>
    <property name="resource">../../006 - Videos format youtube/Flutes/Gwenn_flute_totoro_recadre.mp4</property>
    <property name="audio_index">1</property>
    <property name="video_index">0</property>
    <property name="mute_on_pause">0</property>
    <property name="mlt_service">avformat-novalidate</property>
    <property name="seekable">1</property>
    <property name="aspect_ratio">1</property>
    <property name="creation_time">2020-04-30T15:27:42</property>
    <property name="shotcut:hash">100c5d626d0e8201453c2f0a20325b08</property>
    <property name="ignore_points">0</property>
    <property name="shotcut:caption">Gwenn_flute_totoro_recadre.mp4</property>
    <property name="shotcut:skipConvert">1</property>
    <property name="global_feed">1</property>
    <property name="xml">was here</property>
    <filter id="filter255" in="00:00:29.000000" out="00:00:55.400000">
      <property name="background">colour:0</property>
      <property name="mlt_service">affine</property>
      <property name="shotcut:filter">affineSizePosition</property>
      <property name="transition.fill">1</property>
      <property name="transition.distort">0</property>
      <property name="transition.rect">-1920.0 -1080.0 1921.0 1081.0 1</property>
      <property name="transition.valign">top</property>
      <property name="transition.halign">left</property>
      <property name="shotcut:animIn">00:00:00.040000</property>
      <property name="shotcut:animOut">00:00:00.000</property>
      <property name="transition.threads">0</property>
    </filter>
  </producer>
  <producer id="producer136" in="00:00:00.000" out="00:03:35.640" title="Anonymous Submission">
    <property name="length">00:03:35:17</property>
    <property name="eof">pause</property>
    <property name="resource">../../006 - Videos format youtube/Flutes/Gwenn_flute_totoro_recadre.mp4</property>
    <property name="audio_index">1</property>
    <property name="video_index">0</property>
    <property name="mute_on_pause">0</property>
    <property name="mlt_service">avformat-novalidate</property>
    <property name="seekable">1</property>
    <property name="aspect_ratio">1</property>
    <property name="creation_time">2020-04-30T15:27:42</property>
    <property name="shotcut:hash">100c5d626d0e8201453c2f0a20325b08</property>
    <property name="ignore_points">0</property>
    <property name="shotcut:caption">Gwenn_flute_totoro_recadre.mp4</property>
    <property name="shotcut:skipConvert">1</property>
    <property name="global_feed">1</property>
    <property name="xml">was here</property>
    <filter id="filter256" in="00:00:55.440000" out="00:00:56.640000">
      <property name="background">colour:0</property>
      <property name="mlt_service">affine</property>
      <property name="shotcut:filter">affineSizePosition</property>
      <property name="transition.fill">1</property>
      <property name="transition.distort">0</property>
      <property name="transition.rect">00:00:00.000000=-1920.0 -1080.0 1922.0 1081.0 1;00:00:00.000000=2048.0 431.0 384.0 216.0 1</property>
      <property name="transition.valign">top</property>
      <property name="transition.halign">left</property>
      <property name="shotcut:animIn">00:00:00.040000</property>
      <property name="shotcut:animOut">00:00:00.000</property>
      <property name="transition.threads">0</property>
    </filter>
  </producer>
  <producer id="producer137" in="00:00:00.000" out="00:03:35.640" title="Anonymous Submission">
    <property name="length">00:03:35:17</property>
    <property name="eof">pause</property>
    <property name="resource">../../006 - Videos format youtube/Flutes/Gwenn_flute_totoro_recadre.mp4</property>
    <property name="audio_index">1</property>
    <property name="video_index">0</property>
    <property name="mute_on_pause">0</property>
    <property name="mlt_service">avformat-novalidate</property>
    <property name="seekable">1</property>
    <property name="aspect_ratio">1</property>
    <property name="creation_time">2020-04-30T15:27:42</property>
    <property name="shotcut:hash">100c5d626d0e8201453c2f0a20325b08</property>
    <property name="ignore_points">0</property>
    <property name="shotcut:caption">Gwenn_flute_totoro_recadre.mp4</property>
    <property name="shotcut:skipConvert">1</property>
    <property name="global_feed">1</property>
    <property name="xml">was here</property>
    <filter id="filter257" in="00:00:56.680000" out="00:00:57.920000">
      <property name="background">colour:0</property>
      <property name="mlt_service">affine</property>
      <property name="shotcut:filter">affineSizePosition</property>
      <property name="transition.fill">1</property>
      <property name="transition.distort">0</property>
      <property name="transition.rect">00:00:00.000000=2048.0 431.0 385.0 217.0 1;00:00:01.200000=1408.0 431.0 384.0 216.0 1</property>
      <property name="transition.valign">top</property>
      <property name="transition.halign">left</property>
      <property name="shotcut:animIn">00:00:01.240000</property>
      <property name="shotcut:animOut">00:00:00.000</property>
      <property name="transition.threads">0</property>
    </filter>
  </producer>
  <producer id="producer138" in="00:00:00.000" out="00:03:35.640" title="Anonymous Submission">
    <property name="length">00:03:35:17</property>
    <property name="eof">pause</property>
    <property name="resource">../../006 - Videos format youtube/Flutes/Gwenn_flute_totoro_recadre.mp4</property>
    <property name="audio_index">1</property>
    <property name="video_index">0</property>
    <property name="mute_on_pause">0</property>
    <property name="mlt_service">avformat-novalidate</property>
    <property name="seekable">1</property>
    <property name="aspect_ratio">1</property>
    <property name="creation_time">2020-04-30T15:27:42</property>
    <property name="shotcut:hash">100c5d626d0e8201453c2f0a20325b08</property>
    <property name="ignore_points">0</property>
    <property name="shotcut:caption">Gwenn_flute_totoro_recadre.mp4</property>
    <property name="shotcut:skipConvert">1</property>
    <property name="global_feed">1</property>
    <property name="xml">was here</property>
    <filter id="filter258" in="00:00:57.960000" out="00:00:59.160000">
      <property name="background">colour:0</property>
      <property name="mlt_service">affine</property>
      <property name="shotcut:filter">affineSizePosition</property>
      <property name="transition.fill">1</property>
      <property name="transition.distort">0</property>
      <property name="transition.rect">00:00:00.000000=1408.0 431.0 385.0 217.0 1;00:00:01.200000=576.0 324.0 768.0 432.0 1</property>
      <property name="transition.valign">top</property>
      <property name="transition.halign">left</property>
      <property name="shotcut:animIn">00:00:01.240000</property>
      <property name="shotcut:animOut">00:00:00.000</property>
      <property name="transition.threads">0</property>
    </filter>
  </producer>
  <producer id="producer139" in="00:00:00.000" out="00:03:35.640" title="Anonymous Submission">
    <property name="length">00:03:35:17</property>
    <property name="eof">pause</property>
    <property name="resource">../../006 - Videos format youtube/Flutes/Gwenn_flute_totoro_recadre.mp4</property>
    <property name="audio_index">1</property>
    <property name="video_index">0</property>
    <property name="mute_on_pause">0</property>
    <property name="mlt_service">avformat-novalidate</property>
    <property name="seekable">1</property>
    <property name="aspect_ratio">1</property>
    <property name="creation_time">2020-04-30T15:27:42</property>
    <property name="shotcut:hash">100c5d626d0e8201453c2f0a20325b08</property>
    <property name="ignore_points">0</property>
    <property name="shotcut:caption">Gwenn_flute_totoro_recadre.mp4</property>
    <property name="shotcut:skipConvert">1</property>
    <property name="global_feed">1</property>
    <property name="xml">was here</property>
    <filter id="filter259" in="00:00:59.200000" out="00:01:00.440000">
      <property name="background">colour:0</property>
      <property name="mlt_service">affine</property>
      <property name="shotcut:filter">affineSizePosition</property>
      <property name="transition.fill">1</property>
      <property name="transition.distort">0</property>
      <property name="transition.rect">00:00:00.000000=576.0 324.0 769.0 433.0 1;00:00:01.200000=128.0 431.0 384.0 216.0 1</property>
      <property name="transition.valign">top</property>
      <property name="transition.halign">left</property>
      <property name="shotcut:animIn">00:00:01.240000</property>
      <property name="shotcut:animOut">00:00:00.000</property>
      <property name="transition.threads">0</property>
    </filter>
  </producer>
  <producer id="producer140" in="00:00:00.000" out="00:03:35.640" title="Anonymous Submission">
    <property name="length">00:03:35:17</property>
    <property name="eof">pause</property>
    <property name="resource">../../006 - Videos format youtube/Flutes/Gwenn_flute_totoro_recadre.mp4</property>
    <property name="audio_index">1</property>
    <property name="video_index">0</property>
    <property name="mute_on_pause">0</property>
    <property name="mlt_service">avformat-novalidate</property>
    <property name="seekable">1</property>
    <property name="aspect_ratio">1</property>
    <property name="creation_time">2020-04-30T15:27:42</property>
    <property name="shotcut:hash">100c5d626d0e8201453c2f0a20325b08</property>
    <property name="ignore_points">0</property>
    <property name="shotcut:caption">Gwenn_flute_totoro_recadre.mp4</property>
    <property name="shotcut:skipConvert">1</property>
    <property name="global_feed">1</property>
    <property name="xml">was here</property>
    <filter id="filter260" in="00:01:00.480000" out="00:01:24.360000">
      <property name="background">colour:0</property>
      <property name="mlt_service">affine</property>
      <property name="shotcut:filter">affineSizePosition</property>
      <property name="transition.fill">1</property>
      <property name="transition.distort">0</property>
      <property name="transition.rect">00:00:00.000000=128.0 431.0 385.0 217.0 1;00:00:01.200000=-512.0 431.0 384.0 216.0 1</property>
      <property name="transition.valign">top</property>
      <property name="transition.halign">left</property>
      <property name="shotcut:animIn">00:00:01.240000</property>
      <property name="shotcut:animOut">00:00:00.000</property>
      <property name="transition.threads">0</property>
    </filter>
  </producer>
  <playlist id="playlist25">
    <blank length="00:00:29.000000" /><property name="shotcut:video">1</property>
    <property name="shotcut:name">Gwenn miroir&#233;</property>
    <entry in="00:00:29.000000" out="00:00:55.400000" producer="producer135" />
  <entry in="00:00:55.440000" out="00:00:56.640000" producer="producer136" />
  <entry in="00:00:56.680000" out="00:00:57.920000" producer="producer137" />
  <entry in="00:00:57.960000" out="00:00:59.160000" producer="producer138" />
  <entry in="00:00:59.200000" out="00:01:00.440000" producer="producer139" />
  <entry in="00:01:00.480000" out="00:01:24.360000" producer="producer140" />
  </playlist>
  <producer id="producer141" in="00:00:00.000" out="00:03:07.840" title="Anonymous Submission">
    <property name="length">00:03:07:22</property>
    <property name="eof">pause</property>
    <property name="resource">../../006 - Videos format youtube/Flutes/Benoit_flute_totoro2.mp4</property>
    <property name="audio_index">1</property>
    <property name="video_index">0</property>
    <property name="mute_on_pause">0</property>
    <property name="mlt_service">avformat-novalidate</property>
    <property name="seekable">1</property>
    <property name="aspect_ratio">1</property>
    <property name="creation_time">2020-04-25T18:09:23</property>
    <property name="shotcut:hash">25e06be6934fe2d45b07a99ff037b350</property>
    <property name="ignore_points">0</property>
    <property name="shotcut:caption">Benoit_flute_totoro2.mp4</property>
    <property name="shotcut:skipConvert">1</property>
    <property name="global_feed">1</property>
    <property name="xml">was here</property>
    <filter id="filter261" in="00:00:07.360000" out="00:00:35.000000">
      <property name="background">colour:0</property>
      <property name="mlt_service">affine</property>
      <property name="shotcut:filter">affineSizePosition</property>
      <property name="transition.fill">1</property>
      <property name="transition.distort">0</property>
      <property name="transition.rect">-1920.0 -1080.0 1921.0 1081.0 1</property>
      <property name="transition.valign">top</property>
      <property name="transition.halign">left</property>
      <property name="shotcut:animIn">00:00:00.040000</property>
      <property name="shotcut:animOut">00:00:00.000</property>
      <property name="transition.threads">0</property>
    </filter>
  </producer>
  <producer id="producer142" in="00:00:00.000" out="00:03:07.840" title="Anonymous Submission">
    <property name="length">00:03:07:22</property>
    <property name="eof">pause</property>
    <property name="resource">../../006 - Videos format youtube/Flutes/Benoit_flute_totoro2.mp4</property>
    <property name="audio_index">1</property>
    <property name="video_index">0</property>
    <property name="mute_on_pause">0</property>
    <property name="mlt_service">avformat-novalidate</property>
    <property name="seekable">1</property>
    <property name="aspect_ratio">1</property>
    <property name="creation_time">2020-04-25T18:09:23</property>
    <property name="shotcut:hash">25e06be6934fe2d45b07a99ff037b350</property>
    <property name="ignore_points">0</property>
    <property name="shotcut:caption">Benoit_flute_totoro2.mp4</property>
    <property name="shotcut:skipConvert">1</property>
    <property name="global_feed">1</property>
    <property name="xml">was here</property>
    <filter id="filter262" in="00:00:35.040000" out="00:00:36.280000">
      <property name="background">colour:0</property>
      <property name="mlt_service">affine</property>
      <property name="shotcut:filter">affineSizePosition</property>
      <property name="transition.fill">1</property>
      <property name="transition.distort">0</property>
      <property name="transition.rect">00:00:00.000000=-1920.0 -1080.0 1922.0 1081.0 1;00:00:00.000000=2048.0 431.0 384.0 216.0 1</property>
      <property name="transition.valign">top</property>
      <property name="transition.halign">left</property>
      <property name="shotcut:animIn">00:00:00.040000</property>
      <property name="shotcut:animOut">00:00:00.000</property>
      <property name="transition.threads">0</property>
    </filter>
  </producer>
  <producer id="producer143" in="00:00:00.000" out="00:03:07.840" title="Anonymous Submission">
    <property name="length">00:03:07:22</property>
    <property name="eof">pause</property>
    <property name="resource">../../006 - Videos format youtube/Flutes/Benoit_flute_totoro2.mp4</property>
    <property name="audio_index">1</property>
    <property name="video_index">0</property>
    <property name="mute_on_pause">0</property>
    <property name="mlt_service">avformat-novalidate</property>
    <property name="seekable">1</property>
    <property name="aspect_ratio">1</property>
    <property name="creation_time">2020-04-25T18:09:23</property>
    <property name="shotcut:hash">25e06be6934fe2d45b07a99ff037b350</property>
    <property name="ignore_points">0</property>
    <property name="shotcut:caption">Benoit_flute_totoro2.mp4</property>
    <property name="shotcut:skipConvert">1</property>
    <property name="global_feed">1</property>
    <property name="xml">was here</property>
    <filter id="filter263" in="00:00:36.320000" out="00:00:37.520000">
      <property name="background">colour:0</property>
      <property name="mlt_service">affine</property>
      <property name="shotcut:filter">affineSizePosition</property>
      <property name="transition.fill">1</property>
      <property name="transition.distort">0</property>
      <property name="transition.rect">00:00:00.000000=2048.0 431.0 385.0 217.0 1;00:00:01.200000=1408.0 431.0 384.0 216.0 1</property>
      <property name="transition.valign">top</property>
      <property name="transition.halign">left</property>
      <property name="shotcut:animIn">00:00:01.240000</property>
      <property name="shotcut:animOut">00:00:00.000</property>
      <property name="transition.threads">0</property>
    </filter>
  </producer>
  <producer id="producer144" in="00:00:00.000" out="00:03:07.840" title="Anonymous Submission">
    <property name="length">00:03:07:22</property>
    <property name="eof">pause</property>
    <property name="resource">../../006 - Videos format youtube/Flutes/Benoit_flute_totoro2.mp4</property>
    <property name="audio_index">1</property>
    <property name="video_index">0</property>
    <property name="mute_on_pause">0</property>
    <property name="mlt_service">avformat-novalidate</property>
    <property name="seekable">1</property>
    <property name="aspect_ratio">1</property>
    <property name="creation_time">2020-04-25T18:09:23</property>
    <property name="shotcut:hash">25e06be6934fe2d45b07a99ff037b350</property>
    <property name="ignore_points">0</property>
    <property name="shotcut:caption">Benoit_flute_totoro2.mp4</property>
    <property name="shotcut:skipConvert">1</property>
    <property name="global_feed">1</property>
    <property name="xml">was here</property>
    <filter id="filter264" in="00:00:37.560000" out="00:00:38.800000">
      <property name="background">colour:0</property>
      <property name="mlt_service">affine</property>
      <property name="shotcut:filter">affineSizePosition</property>
      <property name="transition.fill">1</property>
      <property name="transition.distort">0</property>
      <property name="transition.rect">00:00:00.000000=1408.0 431.0 385.0 217.0 1;00:00:01.200000=576.0 324.0 768.0 432.0 1</property>
      <property name="transition.valign">top</property>
      <property name="transition.halign">left</property>
      <property name="shotcut:animIn">00:00:01.240000</property>
      <property name="shotcut:animOut">00:00:00.000</property>
      <property name="transition.threads">0</property>
    </filter>
  </producer>
  <producer id="producer145" in="00:00:00.000" out="00:03:07.840" title="Anonymous Submission">
    <property name="length">00:03:07:22</property>
    <property name="eof">pause</property>
    <property name="resource">../../006 - Videos format youtube/Flutes/Benoit_flute_totoro2.mp4</property>
    <property name="audio_index">1</property>
    <property name="video_index">0</property>
    <property name="mute_on_pause">0</property>
    <property name="mlt_service">avformat-novalidate</property>
    <property name="seekable">1</property>
    <property name="aspect_ratio">1</property>
    <property name="creation_time">2020-04-25T18:09:23</property>
    <property name="shotcut:hash">25e06be6934fe2d45b07a99ff037b350</property>
    <property name="ignore_points">0</property>
    <property name="shotcut:caption">Benoit_flute_totoro2.mp4</property>
    <property name="shotcut:skipConvert">1</property>
    <property name="global_feed">1</property>
    <property name="xml">was here</property>
    <filter id="filter265" in="00:00:38.840000" out="00:00:40.040000">
      <property name="background">colour:0</property>
      <property name="mlt_service">affine</property>
      <property name="shotcut:filter">affineSizePosition</property>
      <property name="transition.fill">1</property>
      <property name="transition.distort">0</property>
      <property name="transition.rect">00:00:00.000000=576.0 324.0 769.0 433.0 1;00:00:01.200000=128.0 431.0 384.0 216.0 1</property>
      <property name="transition.valign">top</property>
      <property name="transition.halign">left</property>
      <property name="shotcut:animIn">00:00:01.240000</property>
      <property name="shotcut:animOut">00:00:00.000</property>
      <property name="transition.threads">0</property>
    </filter>
  </producer>
  <producer id="producer146" in="00:00:00.000" out="00:03:07.840" title="Anonymous Submission">
    <property name="length">00:03:07:22</property>
    <property name="eof">pause</property>
    <property name="resource">../../006 - Videos format youtube/Flutes/Benoit_flute_totoro2.mp4</property>
    <property name="audio_index">1</property>
    <property name="video_index">0</property>
    <property name="mute_on_pause">0</property>
    <property name="mlt_service">avformat-novalidate</property>
    <property name="seekable">1</property>
    <property name="aspect_ratio">1</property>
    <property name="creation_time">2020-04-25T18:09:23</property>
    <property name="shotcut:hash">25e06be6934fe2d45b07a99ff037b350</property>
    <property name="ignore_points">0</property>
    <property name="shotcut:caption">Benoit_flute_totoro2.mp4</property>
    <property name="shotcut:skipConvert">1</property>
    <property name="global_feed">1</property>
    <property name="xml">was here</property>
    <filter id="filter266" in="00:00:40.080000" out="00:01:02.720000">
      <property name="background">colour:0</property>
      <property name="mlt_service">affine</property>
      <property name="shotcut:filter">affineSizePosition</property>
      <property name="transition.fill">1</property>
      <property name="transition.distort">0</property>
      <property name="transition.rect">00:00:00.000000=128.0 431.0 385.0 217.0 1;00:00:01.200000=-512.0 431.0 384.0 216.0 1</property>
      <property name="transition.valign">top</property>
      <property name="transition.halign">left</property>
      <property name="shotcut:animIn">00:00:01.240000</property>
      <property name="shotcut:animOut">00:00:00.000</property>
      <property name="transition.threads">0</property>
    </filter>
  </producer>
  <playlist id="playlist26">
    <property name="shotcut:video">1</property>
    <property name="shotcut:name">Benoit 2</property>
    <property name="shotcut:lock">1</property>
    <blank length="00:00:29.000000" />
    <entry in="00:00:07.360000" out="00:00:35.000000" producer="producer141" />
    <entry in="00:00:35.040000" out="00:00:36.280000" producer="producer142" />
    <entry in="00:00:36.320000" out="00:00:37.520000" producer="producer143" />
    <entry in="00:00:37.560000" out="00:00:38.800000" producer="producer144" />
    <entry in="00:00:38.840000" out="00:00:40.040000" producer="producer145" />
    <entry in="00:00:40.080000" out="00:01:02.720000" producer="producer146" />
    </playlist>
  <producer id="producer147" in="00:00:00.000" out="00:03:15.240" title="Anonymous Submission">
    <property name="length">00:03:15:07</property>
    <property name="eof">pause</property>
    <property name="resource">../../006 - Videos format youtube/Flutes/Jawad_flute_totoro.mp4</property>
    <property name="audio_index">1</property>
    <property name="video_index">0</property>
    <property name="mute_on_pause">0</property>
    <property name="mlt_service">avformat-novalidate</property>
    <property name="seekable">1</property>
    <property name="aspect_ratio">1</property>
    <property name="creation_time">2020-04-23T20:25:29</property>
    <property name="shotcut:hash">bc7b77ed976cd8d1d97d8c5d2bfce239</property>
    <property name="ignore_points">0</property>
    <property name="shotcut:caption">Jawad_flute_totoro.mp4</property>
    <property name="shotcut:skipConvert">1</property>
    <property name="global_feed">1</property>
    <property name="xml">was here</property>
    <filter id="filter267" in="00:00:20.840000" out="00:00:49.760000">
      <property name="background">colour:0</property>
      <property name="mlt_service">affine</property>
      <property name="shotcut:filter">affineSizePosition</property>
      <property name="transition.fill">1</property>
      <property name="transition.distort">0</property>
      <property name="transition.rect">-1920.0 -1080.0 1921.0 1081.0 1</property>
      <property name="transition.valign">top</property>
      <property name="transition.halign">left</property>
      <property name="shotcut:animIn">00:00:00.040000</property>
      <property name="shotcut:animOut">00:00:00.000</property>
      <property name="transition.threads">0</property>
    </filter>
    <filter id="filter268" in="00:00:20.840000" out="00:00:49.760000">
      <property name="window">75</property>
      <property name="max_gain">20dB</property>
      <property name="mlt_service">volume</property>
      <property name="shotcut:filter">muteVolume</property>
      <property name="gain">0</property>
    </filter>
  </producer>
  <producer id="producer148" in="00:00:00.000" out="00:03:15.240" title="Anonymous Submission">
    <property name="length">00:03:15:07</property>
    <property name="eof">pause</property>
    <property name="resource">../../006 - Videos format youtube/Flutes/Jawad_flute_totoro.mp4</property>
    <property name="audio_index">1</property>
    <property name="video_index">0</property>
    <property name="mute_on_pause">0</property>
    <property name="mlt_service">avformat-novalidate</property>
    <property name="seekable">1</property>
    <property name="aspect_ratio">1</property>
    <property name="creation_time">2020-04-23T20:25:29</property>
    <property name="shotcut:hash">bc7b77ed976cd8d1d97d8c5d2bfce239</property>
    <property name="ignore_points">0</property>
    <property name="shotcut:caption">Jawad_flute_totoro.mp4</property>
    <property name="shotcut:skipConvert">1</property>
    <property name="global_feed">1</property>
    <property name="xml">was here</property>
    <filter id="filter269" in="00:00:49.800000" out="00:00:51.000000">
      <property name="background">colour:0</property>
      <property name="mlt_service">affine</property>
      <property name="shotcut:filter">affineSizePosition</property>
      <property name="transition.fill">1</property>
      <property name="transition.distort">0</property>
      <property name="transition.rect">00:00:00.000000=-1920.0 -1080.0 1922.0 1081.0 1;00:00:00.000000=2048.0 431.0 384.0 216.0 1</property>
      <property name="transition.valign">top</property>
      <property name="transition.halign">left</property>
      <property name="shotcut:animIn">00:00:00.040000</property>
      <property name="shotcut:animOut">00:00:00.000</property>
      <property name="transition.threads">0</property>
    </filter>
    <filter id="filter270" in="00:00:49.800000" out="00:00:51.000000">
      <property name="window">75</property>
      <property name="max_gain">20dB</property>
      <property name="mlt_service">volume</property>
      <property name="shotcut:filter">muteVolume</property>
      <property name="gain">0</property>
    </filter>
  </producer>
  <producer id="producer149" in="00:00:00.000" out="00:03:15.240" title="Anonymous Submission">
    <property name="length">00:03:15:07</property>
    <property name="eof">pause</property>
    <property name="resource">../../006 - Videos format youtube/Flutes/Jawad_flute_totoro.mp4</property>
    <property name="audio_index">1</property>
    <property name="video_index">0</property>
    <property name="mute_on_pause">0</property>
    <property name="mlt_service">avformat-novalidate</property>
    <property name="seekable">1</property>
    <property name="aspect_ratio">1</property>
    <property name="creation_time">2020-04-23T20:25:29</property>
    <property name="shotcut:hash">bc7b77ed976cd8d1d97d8c5d2bfce239</property>
    <property name="ignore_points">0</property>
    <property name="shotcut:caption">Jawad_flute_totoro.mp4</property>
    <property name="shotcut:skipConvert">1</property>
    <property name="global_feed">1</property>
    <property name="xml">was here</property>
    <filter id="filter271" in="00:00:51.040000" out="00:00:52.280000">
      <property name="background">colour:0</property>
      <property name="mlt_service">affine</property>
      <property name="shotcut:filter">affineSizePosition</property>
      <property name="transition.fill">1</property>
      <property name="transition.distort">0</property>
      <property name="transition.rect">00:00:00.000000=2048.0 431.0 385.0 217.0 1;00:00:01.200000=1408.0 431.0 384.0 216.0 1</property>
      <property name="transition.valign">top</property>
      <property name="transition.halign">left</property>
      <property name="shotcut:animIn">00:00:01.240000</property>
      <property name="shotcut:animOut">00:00:00.000</property>
      <property name="transition.threads">0</property>
    </filter>
    <filter id="filter272" in="00:00:51.040000" out="00:00:52.280000">
      <property name="window">75</property>
      <property name="max_gain">20dB</property>
      <property name="mlt_service">volume</property>
      <property name="shotcut:filter">muteVolume</property>
      <property name="gain">0</property>
    </filter>
  </producer>
  <producer id="producer150" in="00:00:00.000" out="00:03:15.240" title="Anonymous Submission">
    <property name="length">00:03:15:07</property>
    <property name="eof">pause</property>
    <property name="resource">../../006 - Videos format youtube/Flutes/Jawad_flute_totoro.mp4</property>
    <property name="audio_index">1</property>
    <property name="video_index">0</property>
    <property name="mute_on_pause">0</property>
    <property name="mlt_service">avformat-novalidate</property>
    <property name="seekable">1</property>
    <property name="aspect_ratio">1</property>
    <property name="creation_time">2020-04-23T20:25:29</property>
    <property name="shotcut:hash">bc7b77ed976cd8d1d97d8c5d2bfce239</property>
    <property name="ignore_points">0</property>
    <property name="shotcut:caption">Jawad_flute_totoro.mp4</property>
    <property name="shotcut:skipConvert">1</property>
    <property name="global_feed">1</property>
    <property name="xml">was here</property>
    <filter id="filter273" in="00:00:52.320000" out="00:00:53.520000">
      <property name="background">colour:0</property>
      <property name="mlt_service">affine</property>
      <property name="shotcut:filter">affineSizePosition</property>
      <property name="transition.fill">1</property>
      <property name="transition.distort">0</property>
      <property name="transition.rect">00:00:00.000000=1408.0 431.0 385.0 217.0 1;00:00:01.200000=576.0 324.0 768.0 432.0 1</property>
      <property name="transition.valign">top</property>
      <property name="transition.halign">left</property>
      <property name="shotcut:animIn">00:00:01.240000</property>
      <property name="shotcut:animOut">00:00:00.000</property>
      <property name="transition.threads">0</property>
    </filter>
    <filter id="filter274" in="00:00:52.320000" out="00:00:53.520000">
      <property name="window">75</property>
      <property name="max_gain">20dB</property>
      <property name="mlt_service">volume</property>
      <property name="shotcut:filter">muteVolume</property>
      <property name="gain">0</property>
    </filter>
  </producer>
  <producer id="producer151" in="00:00:00.000" out="00:03:15.240" title="Anonymous Submission">
    <property name="length">00:03:15:07</property>
    <property name="eof">pause</property>
    <property name="resource">../../006 - Videos format youtube/Flutes/Jawad_flute_totoro.mp4</property>
    <property name="audio_index">1</property>
    <property name="video_index">0</property>
    <property name="mute_on_pause">0</property>
    <property name="mlt_service">avformat-novalidate</property>
    <property name="seekable">1</property>
    <property name="aspect_ratio">1</property>
    <property name="creation_time">2020-04-23T20:25:29</property>
    <property name="shotcut:hash">bc7b77ed976cd8d1d97d8c5d2bfce239</property>
    <property name="ignore_points">0</property>
    <property name="shotcut:caption">Jawad_flute_totoro.mp4</property>
    <property name="shotcut:skipConvert">1</property>
    <property name="global_feed">1</property>
    <property name="xml">was here</property>
    <filter id="filter275" in="00:00:53.560000" out="00:00:54.800000">
      <property name="background">colour:0</property>
      <property name="mlt_service">affine</property>
      <property name="shotcut:filter">affineSizePosition</property>
      <property name="transition.fill">1</property>
      <property name="transition.distort">0</property>
      <property name="transition.rect">00:00:00.000000=576.0 324.0 769.0 433.0 1;00:00:01.200000=128.0 431.0 384.0 216.0 1</property>
      <property name="transition.valign">top</property>
      <property name="transition.halign">left</property>
      <property name="shotcut:animIn">00:00:01.240000</property>
      <property name="shotcut:animOut">00:00:00.000</property>
      <property name="transition.threads">0</property>
    </filter>
    <filter id="filter276" in="00:00:53.560000" out="00:00:54.800000">
      <property name="window">75</property>
      <property name="max_gain">20dB</property>
      <property name="mlt_service">volume</property>
      <property name="shotcut:filter">muteVolume</property>
      <property name="gain">0</property>
    </filter>
  </producer>
  <producer id="producer152" in="00:00:00.000" out="00:03:15.240" title="Anonymous Submission">
    <property name="length">00:03:15:07</property>
    <property name="eof">pause</property>
    <property name="resource">../../006 - Videos format youtube/Flutes/Jawad_flute_totoro.mp4</property>
    <property name="audio_index">1</property>
    <property name="video_index">0</property>
    <property name="mute_on_pause">0</property>
    <property name="mlt_service">avformat-novalidate</property>
    <property name="seekable">1</property>
    <property name="aspect_ratio">1</property>
    <property name="creation_time">2020-04-23T20:25:29</property>
    <property name="shotcut:hash">bc7b77ed976cd8d1d97d8c5d2bfce239</property>
    <property name="ignore_points">0</property>
    <property name="shotcut:caption">Jawad_flute_totoro.mp4</property>
    <property name="shotcut:skipConvert">1</property>
    <property name="global_feed">1</property>
    <property name="xml">was here</property>
    <filter id="filter277" in="00:00:54.840000" out="00:01:16.200000">
      <property name="background">colour:0</property>
      <property name="mlt_service">affine</property>
      <property name="shotcut:filter">affineSizePosition</property>
      <property name="transition.fill">1</property>
      <property name="transition.distort">0</property>
      <property name="transition.rect">00:00:00.000000=128.0 431.0 385.0 217.0 1;00:00:01.200000=-512.0 431.0 384.0 216.0 1</property>
      <property name="transition.valign">top</property>
      <property name="transition.halign">left</property>
      <property name="shotcut:animIn">00:00:01.240000</property>
      <property name="shotcut:animOut">00:00:00.000</property>
      <property name="transition.threads">0</property>
    </filter>
    <filter id="filter278" in="00:00:54.840000" out="00:01:16.200000">
      <property name="window">75</property>
      <property name="max_gain">20dB</property>
      <property name="mlt_service">volume</property>
      <property name="shotcut:filter">muteVolume</property>
      <property name="gain">0</property>
    </filter>
  </producer>
  <playlist id="playlist27">
    <property name="shotcut:video">1</property>
    <property name="shotcut:name">Jawad</property>
    <property name="shotcut:lock">1</property>
    <blank length="00:00:29.000000" />
    <entry in="00:00:20.840000" out="00:00:49.760000" producer="producer147" />
  <entry in="00:00:49.800000" out="00:00:51.000000" producer="producer148" />
  <entry in="00:00:51.040000" out="00:00:52.280000" producer="producer149" />
  <entry in="00:00:52.320000" out="00:00:53.520000" producer="producer150" />
  <entry in="00:00:53.560000" out="00:00:54.800000" producer="producer151" />
  <entry in="00:00:54.840000" out="00:01:16.200000" producer="producer152" />
  </playlist>
  <producer id="producer153" in="00:00:00.000" out="00:03:11.560" title="Anonymous Submission">
    <property name="length">00:03:11:15</property>
    <property name="eof">pause</property>
    <property name="resource">../../006 - Videos format youtube/Hautbois/Aur&#233;lie_hautbois_totoro.mp4</property>
    <property name="audio_index">1</property>
    <property name="video_index">0</property>
    <property name="mute_on_pause">0</property>
    <property name="mlt_service">avformat-novalidate</property>
    <property name="seekable">1</property>
    <property name="aspect_ratio">1</property>
    <property name="shotcut:hash">eef028a0ef9d0a891fcda437adec93c6</property>
    <property name="ignore_points">0</property>
    <property name="shotcut:caption">Aur&#233;lie_hautbois_totoro.mp4</property>
    <property name="shotcut:skipConvert">1</property>
    <property name="global_feed">1</property>
    <property name="xml">was here</property>
    <filter id="filter279" in="00:00:21.040000" out="00:00:51.200000">
      <property name="background">colour:0</property>
      <property name="mlt_service">affine</property>
      <property name="shotcut:filter">affineSizePosition</property>
      <property name="transition.fill">1</property>
      <property name="transition.distort">0</property>
      <property name="transition.rect">-1920.0 -1080.0 1921.0 1081.0 1</property>
      <property name="transition.valign">top</property>
      <property name="transition.halign">left</property>
      <property name="shotcut:animIn">00:00:00.040000</property>
      <property name="shotcut:animOut">00:00:00.000</property>
      <property name="transition.threads">0</property>
    </filter>
  </producer>
  <producer id="producer154" in="00:00:00.000" out="00:03:11.560" title="Anonymous Submission">
    <property name="length">00:03:11:15</property>
    <property name="eof">pause</property>
    <property name="resource">../../006 - Videos format youtube/Hautbois/Aur&#233;lie_hautbois_totoro.mp4</property>
    <property name="audio_index">1</property>
    <property name="video_index">0</property>
    <property name="mute_on_pause">0</property>
    <property name="mlt_service">avformat-novalidate</property>
    <property name="seekable">1</property>
    <property name="aspect_ratio">1</property>
    <property name="shotcut:hash">eef028a0ef9d0a891fcda437adec93c6</property>
    <property name="ignore_points">0</property>
    <property name="shotcut:caption">Aur&#233;lie_hautbois_totoro.mp4</property>
    <property name="shotcut:skipConvert">1</property>
    <property name="global_feed">1</property>
    <property name="xml">was here</property>
    <filter id="filter280" in="00:00:51.240000" out="00:00:52.480000">
      <property name="background">colour:0</property>
      <property name="mlt_service">affine</property>
      <property name="shotcut:filter">affineSizePosition</property>
      <property name="transition.fill">1</property>
      <property name="transition.distort">0</property>
      <property name="transition.rect">00:00:00.000000=-1920.0 -1080.0 1922.0 1081.0 1;00:00:00.000000=2048.0 431.0 384.0 216.0 1</property>
      <property name="transition.valign">top</property>
      <property name="transition.halign">left</property>
      <property name="shotcut:animIn">00:00:00.040000</property>
      <property name="shotcut:animOut">00:00:00.000</property>
      <property name="transition.threads">0</property>
    </filter>
  </producer>
  <producer id="producer155" in="00:00:00.000" out="00:03:11.560" title="Anonymous Submission">
    <property name="length">00:03:11:15</property>
    <property name="eof">pause</property>
    <property name="resource">../../006 - Videos format youtube/Hautbois/Aur&#233;lie_hautbois_totoro.mp4</property>
    <property name="audio_index">1</property>
    <property name="video_index">0</property>
    <property name="mute_on_pause">0</property>
    <property name="mlt_service">avformat-novalidate</property>
    <property name="seekable">1</property>
    <property name="aspect_ratio">1</property>
    <property name="shotcut:hash">eef028a0ef9d0a891fcda437adec93c6</property>
    <property name="ignore_points">0</property>
    <property name="shotcut:caption">Aur&#233;lie_hautbois_totoro.mp4</property>
    <property name="shotcut:skipConvert">1</property>
    <property name="global_feed">1</property>
    <property name="xml">was here</property>
    <filter id="filter281" in="00:00:52.520000" out="00:00:53.720000">
      <property name="background">colour:0</property>
      <property name="mlt_service">affine</property>
      <property name="shotcut:filter">affineSizePosition</property>
      <property name="transition.fill">1</property>
      <property name="transition.distort">0</property>
      <property name="transition.rect">00:00:00.000000=2048.0 431.0 385.0 217.0 1;00:00:01.200000=1408.0 431.0 384.0 216.0 1</property>
      <property name="transition.valign">top</property>
      <property name="transition.halign">left</property>
      <property name="shotcut:animIn">00:00:01.240000</property>
      <property name="shotcut:animOut">00:00:00.000</property>
      <property name="transition.threads">0</property>
    </filter>
  </producer>
  <producer id="producer156" in="00:00:00.000" out="00:03:11.560" title="Anonymous Submission">
    <property name="length">00:03:11:15</property>
    <property name="eof">pause</property>
    <property name="resource">../../006 - Videos format youtube/Hautbois/Aur&#233;lie_hautbois_totoro.mp4</property>
    <property name="audio_index">1</property>
    <property name="video_index">0</property>
    <property name="mute_on_pause">0</property>
    <property name="mlt_service">avformat-novalidate</property>
    <property name="seekable">1</property>
    <property name="aspect_ratio">1</property>
    <property name="shotcut:hash">eef028a0ef9d0a891fcda437adec93c6</property>
    <property name="ignore_points">0</property>
    <property name="shotcut:caption">Aur&#233;lie_hautbois_totoro.mp4</property>
    <property name="shotcut:skipConvert">1</property>
    <property name="global_feed">1</property>
    <property name="xml">was here</property>
    <filter id="filter282" in="00:00:53.760000" out="00:00:55.000000">
      <property name="background">colour:0</property>
      <property name="mlt_service">affine</property>
      <property name="shotcut:filter">affineSizePosition</property>
      <property name="transition.fill">1</property>
      <property name="transition.distort">0</property>
      <property name="transition.rect">00:00:00.000000=1408.0 431.0 385.0 217.0 1;00:00:01.200000=576.0 324.0 768.0 432.0 1</property>
      <property name="transition.valign">top</property>
      <property name="transition.halign">left</property>
      <property name="shotcut:animIn">00:00:01.240000</property>
      <property name="shotcut:animOut">00:00:00.000</property>
      <property name="transition.threads">0</property>
    </filter>
  </producer>
  <producer id="producer157" in="00:00:00.000" out="00:03:11.560" title="Anonymous Submission">
    <property name="length">00:03:11:15</property>
    <property name="eof">pause</property>
    <property name="resource">../../006 - Videos format youtube/Hautbois/Aur&#233;lie_hautbois_totoro.mp4</property>
    <property name="audio_index">1</property>
    <property name="video_index">0</property>
    <property name="mute_on_pause">0</property>
    <property name="mlt_service">avformat-novalidate</property>
    <property name="seekable">1</property>
    <property name="aspect_ratio">1</property>
    <property name="shotcut:hash">eef028a0ef9d0a891fcda437adec93c6</property>
    <property name="ignore_points">0</property>
    <property name="shotcut:caption">Aur&#233;lie_hautbois_totoro.mp4</property>
    <property name="shotcut:skipConvert">1</property>
    <property name="global_feed">1</property>
    <property name="xml">was here</property>
    <filter id="filter283" in="00:00:55.040000" out="00:00:56.240000">
      <property name="background">colour:0</property>
      <property name="mlt_service">affine</property>
      <property name="shotcut:filter">affineSizePosition</property>
      <property name="transition.fill">1</property>
      <property name="transition.distort">0</property>
      <property name="transition.rect">00:00:00.000000=576.0 324.0 769.0 433.0 1;00:00:01.200000=128.0 431.0 384.0 216.0 1</property>
      <property name="transition.valign">top</property>
      <property name="transition.halign">left</property>
      <property name="shotcut:animIn">00:00:01.240000</property>
      <property name="shotcut:animOut">00:00:00.000</property>
      <property name="transition.threads">0</property>
    </filter>
  </producer>
  <producer id="producer158" in="00:00:00.000" out="00:03:11.560" title="Anonymous Submission">
    <property name="length">00:03:11:15</property>
    <property name="eof">pause</property>
    <property name="resource">../../006 - Videos format youtube/Hautbois/Aur&#233;lie_hautbois_totoro.mp4</property>
    <property name="audio_index">1</property>
    <property name="video_index">0</property>
    <property name="mute_on_pause">0</property>
    <property name="mlt_service">avformat-novalidate</property>
    <property name="seekable">1</property>
    <property name="aspect_ratio">1</property>
    <property name="shotcut:hash">eef028a0ef9d0a891fcda437adec93c6</property>
    <property name="ignore_points">0</property>
    <property name="shotcut:caption">Aur&#233;lie_hautbois_totoro.mp4</property>
    <property name="shotcut:skipConvert">1</property>
    <property name="global_feed">1</property>
    <property name="xml">was here</property>
    <filter id="filter284" in="00:00:56.280000" out="00:01:16.400000">
      <property name="background">colour:0</property>
      <property name="mlt_service">affine</property>
      <property name="shotcut:filter">affineSizePosition</property>
      <property name="transition.fill">1</property>
      <property name="transition.distort">0</property>
      <property name="transition.rect">00:00:00.000000=128.0 431.0 385.0 217.0 1;00:00:01.200000=-512.0 431.0 384.0 216.0 1</property>
      <property name="transition.valign">top</property>
      <property name="transition.halign">left</property>
      <property name="shotcut:animIn">00:00:01.240000</property>
      <property name="shotcut:animOut">00:00:00.000</property>
      <property name="transition.threads">0</property>
    </filter>
  </producer>
  <playlist id="playlist28">
    <property name="shotcut:video">1</property>
    <property name="shotcut:name">Aur&#233;lie_hautbois</property>
    <property name="shotcut:lock">1</property>
    <blank length="00:00:29.000000" />
    <entry in="00:00:21.040000" out="00:00:51.200000" producer="producer153" />
    <entry in="00:00:51.240000" out="00:00:52.480000" producer="producer154" />
    <entry in="00:00:52.520000" out="00:00:53.720000" producer="producer155" />
    <entry in="00:00:53.760000" out="00:00:55.000000" producer="producer156" />
    <entry in="00:00:55.040000" out="00:00:56.240000" producer="producer157" />
    <entry in="00:00:56.280000" out="00:01:16.400000" producer="producer158" />
    <filter id="filter285" out="00:03:35.640">
      <property name="window">75</property>
      <property name="max_gain">20dB</property>
      <property name="level">-5</property>
      <property name="mlt_service">volume</property>
    </filter>
  </playlist>
  <producer id="producer159" in="00:00:00.000" out="00:03:26.320" title="Anonymous Submission">
    <property name="length">00:03:26:09</property>
    <property name="eof">pause</property>
    <property name="resource">../../006 - Videos format youtube/Hautbois/Veronique_hautbois_totoro.mp4</property>
    <property name="audio_index">1</property>
    <property name="video_index">0</property>
    <property name="mute_on_pause">0</property>
    <property name="mlt_service">avformat-novalidate</property>
    <property name="seekable">1</property>
    <property name="aspect_ratio">1</property>
    <property name="creation_time">2020-04-17T16:41:56</property>
    <property name="shotcut:hash">506874eb3b33a62e78b559d4ce6a6bec</property>
    <property name="ignore_points">0</property>
    <property name="shotcut:caption">Veronique_hautbois_totoro.mp4</property>
    <property name="shotcut:skipConvert">1</property>
    <property name="global_feed">1</property>
    <property name="xml">was here</property>
    <filter id="filter286" in="00:00:19.720000" out="00:00:51.160000">
      <property name="background">colour:0</property>
      <property name="mlt_service">affine</property>
      <property name="shotcut:filter">affineSizePosition</property>
      <property name="transition.fill">1</property>
      <property name="transition.distort">0</property>
      <property name="transition.rect">-1920.0 -1080.0 1921.0 1081.0 1</property>
      <property name="transition.valign">top</property>
      <property name="transition.halign">left</property>
      <property name="shotcut:animIn">00:00:00.040000</property>
      <property name="shotcut:animOut">00:00:00.000</property>
      <property name="transition.threads">0</property>
    </filter>
  </producer>
  <producer id="producer160" in="00:00:00.000" out="00:03:26.320" title="Anonymous Submission">
    <property name="length">00:03:26:09</property>
    <property name="eof">pause</property>
    <property name="resource">../../006 - Videos format youtube/Hautbois/Veronique_hautbois_totoro.mp4</property>
    <property name="audio_index">1</property>
    <property name="video_index">0</property>
    <property name="mute_on_pause">0</property>
    <property name="mlt_service">avformat-novalidate</property>
    <property name="seekable">1</property>
    <property name="aspect_ratio">1</property>
    <property name="creation_time">2020-04-17T16:41:56</property>
    <property name="shotcut:hash">506874eb3b33a62e78b559d4ce6a6bec</property>
    <property name="ignore_points">0</property>
    <property name="shotcut:caption">Veronique_hautbois_totoro.mp4</property>
    <property name="shotcut:skipConvert">1</property>
    <property name="global_feed">1</property>
    <property name="xml">was here</property>
    <filter id="filter287" in="00:00:51.200000" out="00:00:52.400000">
      <property name="background">colour:0</property>
      <property name="mlt_service">affine</property>
      <property name="shotcut:filter">affineSizePosition</property>
      <property name="transition.fill">1</property>
      <property name="transition.distort">0</property>
      <property name="transition.rect">00:00:00.000000=-1920.0 -1080.0 1922.0 1081.0 1;00:00:00.000000=2048.0 431.0 384.0 216.0 1</property>
      <property name="transition.valign">top</property>
      <property name="transition.halign">left</property>
      <property name="shotcut:animIn">00:00:00.040000</property>
      <property name="shotcut:animOut">00:00:00.000</property>
      <property name="transition.threads">0</property>
    </filter>
  </producer>
  <producer id="producer161" in="00:00:00.000" out="00:03:26.320" title="Anonymous Submission">
    <property name="length">00:03:26:09</property>
    <property name="eof">pause</property>
    <property name="resource">../../006 - Videos format youtube/Hautbois/Veronique_hautbois_totoro.mp4</property>
    <property name="audio_index">1</property>
    <property name="video_index">0</property>
    <property name="mute_on_pause">0</property>
    <property name="mlt_service">avformat-novalidate</property>
    <property name="seekable">1</property>
    <property name="aspect_ratio">1</property>
    <property name="creation_time">2020-04-17T16:41:56</property>
    <property name="shotcut:hash">506874eb3b33a62e78b559d4ce6a6bec</property>
    <property name="ignore_points">0</property>
    <property name="shotcut:caption">Veronique_hautbois_totoro.mp4</property>
    <property name="shotcut:skipConvert">1</property>
    <property name="global_feed">1</property>
    <property name="xml">was here</property>
    <filter id="filter288" in="00:00:52.440000" out="00:00:53.680000">
      <property name="background">colour:0</property>
      <property name="mlt_service">affine</property>
      <property name="shotcut:filter">affineSizePosition</property>
      <property name="transition.fill">1</property>
      <property name="transition.distort">0</property>
      <property name="transition.rect">00:00:00.000000=2048.0 431.0 385.0 217.0 1;00:00:01.200000=1408.0 431.0 384.0 216.0 1</property>
      <property name="transition.valign">top</property>
      <property name="transition.halign">left</property>
      <property name="shotcut:animIn">00:00:01.240000</property>
      <property name="shotcut:animOut">00:00:00.000</property>
      <property name="transition.threads">0</property>
    </filter>
  </producer>
  <producer id="producer162" in="00:00:00.000" out="00:03:26.320" title="Anonymous Submission">
    <property name="length">00:03:26:09</property>
    <property name="eof">pause</property>
    <property name="resource">../../006 - Videos format youtube/Hautbois/Veronique_hautbois_totoro.mp4</property>
    <property name="audio_index">1</property>
    <property name="video_index">0</property>
    <property name="mute_on_pause">0</property>
    <property name="mlt_service">avformat-novalidate</property>
    <property name="seekable">1</property>
    <property name="aspect_ratio">1</property>
    <property name="creation_time">2020-04-17T16:41:56</property>
    <property name="shotcut:hash">506874eb3b33a62e78b559d4ce6a6bec</property>
    <property name="ignore_points">0</property>
    <property name="shotcut:caption">Veronique_hautbois_totoro.mp4</property>
    <property name="shotcut:skipConvert">1</property>
    <property name="global_feed">1</property>
    <property name="xml">was here</property>
    <filter id="filter289" in="00:00:53.720000" out="00:00:54.920000">
      <property name="background">colour:0</property>
      <property name="mlt_service">affine</property>
      <property name="shotcut:filter">affineSizePosition</property>
      <property name="transition.fill">1</property>
      <property name="transition.distort">0</property>
      <property name="transition.rect">00:00:00.000000=1408.0 431.0 385.0 217.0 1;00:00:01.200000=576.0 324.0 768.0 432.0 1</property>
      <property name="transition.valign">top</property>
      <property name="transition.halign">left</property>
      <property name="shotcut:animIn">00:00:01.240000</property>
      <property name="shotcut:animOut">00:00:00.000</property>
      <property name="transition.threads">0</property>
    </filter>
  </producer>
  <producer id="producer163" in="00:00:00.000" out="00:03:26.320" title="Anonymous Submission">
    <property name="length">00:03:26:09</property>
    <property name="eof">pause</property>
    <property name="resource">../../006 - Videos format youtube/Hautbois/Veronique_hautbois_totoro.mp4</property>
    <property name="audio_index">1</property>
    <property name="video_index">0</property>
    <property name="mute_on_pause">0</property>
    <property name="mlt_service">avformat-novalidate</property>
    <property name="seekable">1</property>
    <property name="aspect_ratio">1</property>
    <property name="creation_time">2020-04-17T16:41:56</property>
    <property name="shotcut:hash">506874eb3b33a62e78b559d4ce6a6bec</property>
    <property name="ignore_points">0</property>
    <property name="shotcut:caption">Veronique_hautbois_totoro.mp4</property>
    <property name="shotcut:skipConvert">1</property>
    <property name="global_feed">1</property>
    <property name="xml">was here</property>
    <filter id="filter290" in="00:00:54.960000" out="00:00:56.200000">
      <property name="background">colour:0</property>
      <property name="mlt_service">affine</property>
      <property name="shotcut:filter">affineSizePosition</property>
      <property name="transition.fill">1</property>
      <property name="transition.distort">0</property>
      <property name="transition.rect">00:00:00.000000=576.0 324.0 769.0 433.0 1;00:00:01.200000=128.0 431.0 384.0 216.0 1</property>
      <property name="transition.valign">top</property>
      <property name="transition.halign">left</property>
      <property name="shotcut:animIn">00:00:01.240000</property>
      <property name="shotcut:animOut">00:00:00.000</property>
      <property name="transition.threads">0</property>
    </filter>
  </producer>
  <producer id="producer164" in="00:00:00.000" out="00:03:26.320" title="Anonymous Submission">
    <property name="length">00:03:26:09</property>
    <property name="eof">pause</property>
    <property name="resource">../../006 - Videos format youtube/Hautbois/Veronique_hautbois_totoro.mp4</property>
    <property name="audio_index">1</property>
    <property name="video_index">0</property>
    <property name="mute_on_pause">0</property>
    <property name="mlt_service">avformat-novalidate</property>
    <property name="seekable">1</property>
    <property name="aspect_ratio">1</property>
    <property name="creation_time">2020-04-17T16:41:56</property>
    <property name="shotcut:hash">506874eb3b33a62e78b559d4ce6a6bec</property>
    <property name="ignore_points">0</property>
    <property name="shotcut:caption">Veronique_hautbois_totoro.mp4</property>
    <property name="shotcut:skipConvert">1</property>
    <property name="global_feed">1</property>
    <property name="xml">was here</property>
    <filter id="filter291" in="00:00:56.240000" out="00:01:15.080000">
      <property name="background">colour:0</property>
      <property name="mlt_service">affine</property>
      <property name="shotcut:filter">affineSizePosition</property>
      <property name="transition.fill">1</property>
      <property name="transition.distort">0</property>
      <property name="transition.rect">00:00:00.000000=128.0 431.0 385.0 217.0 1;00:00:01.200000=-512.0 431.0 384.0 216.0 1</property>
      <property name="transition.valign">top</property>
      <property name="transition.halign">left</property>
      <property name="shotcut:animIn">00:00:01.240000</property>
      <property name="shotcut:animOut">00:00:00.000</property>
      <property name="transition.threads">0</property>
    </filter>
  </producer>
  <playlist id="playlist29">
    <property name="shotcut:video">1</property>
    <property name="shotcut:name">Veronique_cor-anglais</property>
    <property name="shotcut:lock">1</property>
    <blank length="00:00:29.000000" />
    <entry in="00:00:19.720000" out="00:00:51.160000" producer="producer159" />
    <entry in="00:00:51.200000" out="00:00:52.400000" producer="producer160" />
    <entry in="00:00:52.440000" out="00:00:53.680000" producer="producer161" />
    <entry in="00:00:53.720000" out="00:00:54.920000" producer="producer162" />
    <entry in="00:00:54.960000" out="00:00:56.200000" producer="producer163" />
    <entry in="00:00:56.240000" out="00:01:15.080000" producer="producer164" />
    <filter id="filter292" out="00:03:35.640">
      <property name="window">75</property>
      <property name="max_gain">20dB</property>
      <property name="level">-8</property>
      <property name="mlt_service">volume</property>
    </filter>
  </playlist>
  <producer id="producer165" in="00:00:00.000" out="00:03:12.560" title="Anonymous Submission">
    <property name="length">00:03:12:15</property>
    <property name="eof">pause</property>
    <property name="resource">../../006 - Videos format youtube/Saxophone/Francoise_saxophone_totoro.mp4</property>
    <property name="audio_index">1</property>
    <property name="video_index">0</property>
    <property name="mute_on_pause">0</property>
    <property name="mlt_service">avformat-novalidate</property>
    <property name="seekable">1</property>
    <property name="aspect_ratio">1</property>
    <property name="creation_time">2020-04-21T20:21:24</property>
    <property name="shotcut:hash">bf995f50e95c73cb7593ff8be7ce82da</property>
    <property name="ignore_points">0</property>
    <property name="shotcut:caption">Francoise_saxophone_totoro.mp4</property>
    <property name="shotcut:skipConvert">1</property>
    <property name="global_feed">1</property>
    <property name="xml">was here</property>
    <filter id="filter293" in="00:00:20.720000" out="00:00:53.400000">
      <property name="background">colour:0</property>
      <property name="mlt_service">affine</property>
      <property name="shotcut:filter">affineSizePosition</property>
      <property name="transition.fill">1</property>
      <property name="transition.distort">0</property>
      <property name="transition.rect">-1920.0 -1080.0 1921.0 1081.0 1</property>
      <property name="transition.valign">top</property>
      <property name="transition.halign">left</property>
      <property name="shotcut:animIn">00:00:00.040000</property>
      <property name="shotcut:animOut">00:00:00.000</property>
      <property name="transition.threads">0</property>
    </filter>
  </producer>
  <producer id="producer166" in="00:00:00.000" out="00:03:12.560" title="Anonymous Submission">
    <property name="length">00:03:12:15</property>
    <property name="eof">pause</property>
    <property name="resource">../../006 - Videos format youtube/Saxophone/Francoise_saxophone_totoro.mp4</property>
    <property name="audio_index">1</property>
    <property name="video_index">0</property>
    <property name="mute_on_pause">0</property>
    <property name="mlt_service">avformat-novalidate</property>
    <property name="seekable">1</property>
    <property name="aspect_ratio">1</property>
    <property name="creation_time">2020-04-21T20:21:24</property>
    <property name="shotcut:hash">bf995f50e95c73cb7593ff8be7ce82da</property>
    <property name="ignore_points">0</property>
    <property name="shotcut:caption">Francoise_saxophone_totoro.mp4</property>
    <property name="shotcut:skipConvert">1</property>
    <property name="global_feed">1</property>
    <property name="xml">was here</property>
    <filter id="filter294" in="00:00:53.440000" out="00:00:54.680000">
      <property name="background">colour:0</property>
      <property name="mlt_service">affine</property>
      <property name="shotcut:filter">affineSizePosition</property>
      <property name="transition.fill">1</property>
      <property name="transition.distort">0</property>
      <property name="transition.rect">00:00:00.000000=-1920.0 -1080.0 1922.0 1081.0 1;00:00:00.000000=2048.0 431.0 384.0 216.0 1</property>
      <property name="transition.valign">top</property>
      <property name="transition.halign">left</property>
      <property name="shotcut:animIn">00:00:00.040000</property>
      <property name="shotcut:animOut">00:00:00.000</property>
      <property name="transition.threads">0</property>
    </filter>
  </producer>
  <producer id="producer167" in="00:00:00.000" out="00:03:12.560" title="Anonymous Submission">
    <property name="length">00:03:12:15</property>
    <property name="eof">pause</property>
    <property name="resource">../../006 - Videos format youtube/Saxophone/Francoise_saxophone_totoro.mp4</property>
    <property name="audio_index">1</property>
    <property name="video_index">0</property>
    <property name="mute_on_pause">0</property>
    <property name="mlt_service">avformat-novalidate</property>
    <property name="seekable">1</property>
    <property name="aspect_ratio">1</property>
    <property name="creation_time">2020-04-21T20:21:24</property>
    <property name="shotcut:hash">bf995f50e95c73cb7593ff8be7ce82da</property>
    <property name="ignore_points">0</property>
    <property name="shotcut:caption">Francoise_saxophone_totoro.mp4</property>
    <property name="shotcut:skipConvert">1</property>
    <property name="global_feed">1</property>
    <property name="xml">was here</property>
    <filter id="filter295" in="00:00:54.720000" out="00:00:55.920000">
      <property name="background">colour:0</property>
      <property name="mlt_service">affine</property>
      <property name="shotcut:filter">affineSizePosition</property>
      <property name="transition.fill">1</property>
      <property name="transition.distort">0</property>
      <property name="transition.rect">00:00:00.000000=2048.0 431.0 385.0 217.0 1;00:00:01.200000=1408.0 431.0 384.0 216.0 1</property>
      <property name="transition.valign">top</property>
      <property name="transition.halign">left</property>
      <property name="shotcut:animIn">00:00:01.240000</property>
      <property name="shotcut:animOut">00:00:00.000</property>
      <property name="transition.threads">0</property>
    </filter>
  </producer>
  <producer id="producer168" in="00:00:00.000" out="00:03:12.560" title="Anonymous Submission">
    <property name="length">00:03:12:15</property>
    <property name="eof">pause</property>
    <property name="resource">../../006 - Videos format youtube/Saxophone/Francoise_saxophone_totoro.mp4</property>
    <property name="audio_index">1</property>
    <property name="video_index">0</property>
    <property name="mute_on_pause">0</property>
    <property name="mlt_service">avformat-novalidate</property>
    <property name="seekable">1</property>
    <property name="aspect_ratio">1</property>
    <property name="creation_time">2020-04-21T20:21:24</property>
    <property name="shotcut:hash">bf995f50e95c73cb7593ff8be7ce82da</property>
    <property name="ignore_points">0</property>
    <property name="shotcut:caption">Francoise_saxophone_totoro.mp4</property>
    <property name="shotcut:skipConvert">1</property>
    <property name="global_feed">1</property>
    <property name="xml">was here</property>
    <filter id="filter296" in="00:00:55.960000" out="00:00:57.200000">
      <property name="background">colour:0</property>
      <property name="mlt_service">affine</property>
      <property name="shotcut:filter">affineSizePosition</property>
      <property name="transition.fill">1</property>
      <property name="transition.distort">0</property>
      <property name="transition.rect">00:00:00.000000=1408.0 431.0 385.0 217.0 1;00:00:01.200000=576.0 324.0 768.0 432.0 1</property>
      <property name="transition.valign">top</property>
      <property name="transition.halign">left</property>
      <property name="shotcut:animIn">00:00:01.240000</property>
      <property name="shotcut:animOut">00:00:00.000</property>
      <property name="transition.threads">0</property>
    </filter>
  </producer>
  <producer id="producer169" in="00:00:00.000" out="00:03:12.560" title="Anonymous Submission">
    <property name="length">00:03:12:15</property>
    <property name="eof">pause</property>
    <property name="resource">../../006 - Videos format youtube/Saxophone/Francoise_saxophone_totoro.mp4</property>
    <property name="audio_index">1</property>
    <property name="video_index">0</property>
    <property name="mute_on_pause">0</property>
    <property name="mlt_service">avformat-novalidate</property>
    <property name="seekable">1</property>
    <property name="aspect_ratio">1</property>
    <property name="creation_time">2020-04-21T20:21:24</property>
    <property name="shotcut:hash">bf995f50e95c73cb7593ff8be7ce82da</property>
    <property name="ignore_points">0</property>
    <property name="shotcut:caption">Francoise_saxophone_totoro.mp4</property>
    <property name="shotcut:skipConvert">1</property>
    <property name="global_feed">1</property>
    <property name="xml">was here</property>
    <filter id="filter297" in="00:00:57.240000" out="00:00:58.440000">
      <property name="background">colour:0</property>
      <property name="mlt_service">affine</property>
      <property name="shotcut:filter">affineSizePosition</property>
      <property name="transition.fill">1</property>
      <property name="transition.distort">0</property>
      <property name="transition.rect">00:00:00.000000=576.0 324.0 769.0 433.0 1;00:00:01.200000=128.0 431.0 384.0 216.0 1</property>
      <property name="transition.valign">top</property>
      <property name="transition.halign">left</property>
      <property name="shotcut:animIn">00:00:01.240000</property>
      <property name="shotcut:animOut">00:00:00.000</property>
      <property name="transition.threads">0</property>
    </filter>
  </producer>
  <producer id="producer170" in="00:00:00.000" out="00:03:12.560" title="Anonymous Submission">
    <property name="length">00:03:12:15</property>
    <property name="eof">pause</property>
    <property name="resource">../../006 - Videos format youtube/Saxophone/Francoise_saxophone_totoro.mp4</property>
    <property name="audio_index">1</property>
    <property name="video_index">0</property>
    <property name="mute_on_pause">0</property>
    <property name="mlt_service">avformat-novalidate</property>
    <property name="seekable">1</property>
    <property name="aspect_ratio">1</property>
    <property name="creation_time">2020-04-21T20:21:24</property>
    <property name="shotcut:hash">bf995f50e95c73cb7593ff8be7ce82da</property>
    <property name="ignore_points">0</property>
    <property name="shotcut:caption">Francoise_saxophone_totoro.mp4</property>
    <property name="shotcut:skipConvert">1</property>
    <property name="global_feed">1</property>
    <property name="xml">was here</property>
    <filter id="filter298" in="00:00:58.480000" out="00:01:16.080000">
      <property name="background">colour:0</property>
      <property name="mlt_service">affine</property>
      <property name="shotcut:filter">affineSizePosition</property>
      <property name="transition.fill">1</property>
      <property name="transition.distort">0</property>
      <property name="transition.rect">00:00:00.000000=128.0 431.0 385.0 217.0 1;00:00:01.200000=-512.0 431.0 384.0 216.0 1</property>
      <property name="transition.valign">top</property>
      <property name="transition.halign">left</property>
      <property name="shotcut:animIn">00:00:01.240000</property>
      <property name="shotcut:animOut">00:00:00.000</property>
      <property name="transition.threads">0</property>
    </filter>
  </producer>
  <playlist id="playlist30">
    <property name="shotcut:video">1</property>
    <property name="shotcut:name">Francoise saxo</property>
    <property name="shotcut:lock">1</property>
    <blank length="00:00:29.000000" />
    <entry in="00:00:20.720000" out="00:00:53.400000" producer="producer165" />
  <entry in="00:00:53.440000" out="00:00:54.680000" producer="producer166" />
  <entry in="00:00:54.720000" out="00:00:55.920000" producer="producer167" />
  <entry in="00:00:55.960000" out="00:00:57.200000" producer="producer168" />
  <entry in="00:00:57.240000" out="00:00:58.440000" producer="producer169" />
  <entry in="00:00:58.480000" out="00:01:16.080000" producer="producer170" />
  </playlist>
  <producer id="producer171" in="00:00:00.000" out="00:03:01.800" title="Anonymous Submission">
    <property name="length">00:03:01:21</property>
    <property name="eof">pause</property>
    <property name="resource">../../006 - Videos format youtube/Saxophone/Aurianne_saxophone_totoro.mp4</property>
    <property name="audio_index">1</property>
    <property name="video_index">0</property>
    <property name="mute_on_pause">0</property>
    <property name="mlt_service">avformat-novalidate</property>
    <property name="seekable">1</property>
    <property name="aspect_ratio">1</property>
    <property name="creation_time">2020-04-09T18:32:01</property>
    <property name="shotcut:hash">dd198363db28b4d265caa15eb2e0f266</property>
    <property name="ignore_points">0</property>
    <property name="shotcut:caption">Aurianne_saxophone_totoro.mp4</property>
    <property name="shotcut:skipConvert">1</property>
    <property name="global_feed">1</property>
    <property name="xml">was here</property>
    <filter id="filter299" in="00:00:12.760000" out="00:00:46.720000">
      <property name="background">colour:0</property>
      <property name="mlt_service">affine</property>
      <property name="shotcut:filter">affineSizePosition</property>
      <property name="transition.fill">1</property>
      <property name="transition.distort">0</property>
      <property name="transition.rect">-1920.0 -1080.0 1921.0 1081.0 1</property>
      <property name="transition.valign">top</property>
      <property name="transition.halign">left</property>
      <property name="shotcut:animIn">00:00:00.040000</property>
      <property name="shotcut:animOut">00:00:00.000</property>
      <property name="transition.threads">0</property>
    </filter>
    <filter id="filter300" in="00:00:12.760000" out="00:00:46.720000">
      <property name="window">75</property>
      <property name="max_gain">20dB</property>
      <property name="mlt_service">volume</property>
      <property name="shotcut:filter">muteVolume</property>
      <property name="gain">0</property>
    </filter>
  </producer>
  <producer id="producer172" in="00:00:00.000" out="00:03:01.800" title="Anonymous Submission">
    <property name="length">00:03:01:21</property>
    <property name="eof">pause</property>
    <property name="resource">../../006 - Videos format youtube/Saxophone/Aurianne_saxophone_totoro.mp4</property>
    <property name="audio_index">1</property>
    <property name="video_index">0</property>
    <property name="mute_on_pause">0</property>
    <property name="mlt_service">avformat-novalidate</property>
    <property name="seekable">1</property>
    <property name="aspect_ratio">1</property>
    <property name="creation_time">2020-04-09T18:32:01</property>
    <property name="shotcut:hash">dd198363db28b4d265caa15eb2e0f266</property>
    <property name="ignore_points">0</property>
    <property name="shotcut:caption">Aurianne_saxophone_totoro.mp4</property>
    <property name="shotcut:skipConvert">1</property>
    <property name="global_feed">1</property>
    <property name="xml">was here</property>
    <filter id="filter301" in="00:00:46.760000" out="00:00:47.960000">
      <property name="background">colour:0</property>
      <property name="mlt_service">affine</property>
      <property name="shotcut:filter">affineSizePosition</property>
      <property name="transition.fill">1</property>
      <property name="transition.distort">0</property>
      <property name="transition.rect">00:00:00.000000=-1920.0 -1080.0 1922.0 1081.0 1;00:00:00.000000=2048.0 431.0 384.0 216.0 1</property>
      <property name="transition.valign">top</property>
      <property name="transition.halign">left</property>
      <property name="shotcut:animIn">00:00:00.040000</property>
      <property name="shotcut:animOut">00:00:00.000</property>
      <property name="transition.threads">0</property>
    </filter>
    <filter id="filter302" in="00:00:46.760000" out="00:00:47.960000">
      <property name="window">75</property>
      <property name="max_gain">20dB</property>
      <property name="mlt_service">volume</property>
      <property name="shotcut:filter">muteVolume</property>
      <property name="gain">0</property>
    </filter>
  </producer>
  <producer id="producer173" in="00:00:00.000" out="00:03:01.800" title="Anonymous Submission">
    <property name="length">00:03:01:21</property>
    <property name="eof">pause</property>
    <property name="resource">../../006 - Videos format youtube/Saxophone/Aurianne_saxophone_totoro.mp4</property>
    <property name="audio_index">1</property>
    <property name="video_index">0</property>
    <property name="mute_on_pause">0</property>
    <property name="mlt_service">avformat-novalidate</property>
    <property name="seekable">1</property>
    <property name="aspect_ratio">1</property>
    <property name="creation_time">2020-04-09T18:32:01</property>
    <property name="shotcut:hash">dd198363db28b4d265caa15eb2e0f266</property>
    <property name="ignore_points">0</property>
    <property name="shotcut:caption">Aurianne_saxophone_totoro.mp4</property>
    <property name="shotcut:skipConvert">1</property>
    <property name="global_feed">1</property>
    <property name="xml">was here</property>
    <filter id="filter303" in="00:00:48.000000" out="00:00:49.240000">
      <property name="background">colour:0</property>
      <property name="mlt_service">affine</property>
      <property name="shotcut:filter">affineSizePosition</property>
      <property name="transition.fill">1</property>
      <property name="transition.distort">0</property>
      <property name="transition.rect">00:00:00.000000=2048.0 431.0 385.0 217.0 1;00:00:01.200000=1408.0 431.0 384.0 216.0 1</property>
      <property name="transition.valign">top</property>
      <property name="transition.halign">left</property>
      <property name="shotcut:animIn">00:00:01.240000</property>
      <property name="shotcut:animOut">00:00:00.000</property>
      <property name="transition.threads">0</property>
    </filter>
    <filter id="filter304" in="00:00:48.000000" out="00:00:49.240000">
      <property name="window">75</property>
      <property name="max_gain">20dB</property>
      <property name="mlt_service">volume</property>
      <property name="shotcut:filter">muteVolume</property>
      <property name="gain">0</property>
    </filter>
  </producer>
  <producer id="producer174" in="00:00:00.000" out="00:03:01.800" title="Anonymous Submission">
    <property name="length">00:03:01:21</property>
    <property name="eof">pause</property>
    <property name="resource">../../006 - Videos format youtube/Saxophone/Aurianne_saxophone_totoro.mp4</property>
    <property name="audio_index">1</property>
    <property name="video_index">0</property>
    <property name="mute_on_pause">0</property>
    <property name="mlt_service">avformat-novalidate</property>
    <property name="seekable">1</property>
    <property name="aspect_ratio">1</property>
    <property name="creation_time">2020-04-09T18:32:01</property>
    <property name="shotcut:hash">dd198363db28b4d265caa15eb2e0f266</property>
    <property name="ignore_points">0</property>
    <property name="shotcut:caption">Aurianne_saxophone_totoro.mp4</property>
    <property name="shotcut:skipConvert">1</property>
    <property name="global_feed">1</property>
    <property name="xml">was here</property>
    <filter id="filter305" in="00:00:49.280000" out="00:00:50.480000">
      <property name="background">colour:0</property>
      <property name="mlt_service">affine</property>
      <property name="shotcut:filter">affineSizePosition</property>
      <property name="transition.fill">1</property>
      <property name="transition.distort">0</property>
      <property name="transition.rect">00:00:00.000000=1408.0 431.0 385.0 217.0 1;00:00:01.200000=576.0 324.0 768.0 432.0 1</property>
      <property name="transition.valign">top</property>
      <property name="transition.halign">left</property>
      <property name="shotcut:animIn">00:00:01.240000</property>
      <property name="shotcut:animOut">00:00:00.000</property>
      <property name="transition.threads">0</property>
    </filter>
    <filter id="filter306" in="00:00:49.280000" out="00:00:50.480000">
      <property name="window">75</property>
      <property name="max_gain">20dB</property>
      <property name="mlt_service">volume</property>
      <property name="shotcut:filter">muteVolume</property>
      <property name="gain">0</property>
    </filter>
  </producer>
  <producer id="producer175" in="00:00:00.000" out="00:03:01.800" title="Anonymous Submission">
    <property name="length">00:03:01:21</property>
    <property name="eof">pause</property>
    <property name="resource">../../006 - Videos format youtube/Saxophone/Aurianne_saxophone_totoro.mp4</property>
    <property name="audio_index">1</property>
    <property name="video_index">0</property>
    <property name="mute_on_pause">0</property>
    <property name="mlt_service">avformat-novalidate</property>
    <property name="seekable">1</property>
    <property name="aspect_ratio">1</property>
    <property name="creation_time">2020-04-09T18:32:01</property>
    <property name="shotcut:hash">dd198363db28b4d265caa15eb2e0f266</property>
    <property name="ignore_points">0</property>
    <property name="shotcut:caption">Aurianne_saxophone_totoro.mp4</property>
    <property name="shotcut:skipConvert">1</property>
    <property name="global_feed">1</property>
    <property name="xml">was here</property>
    <filter id="filter307" in="00:00:50.520000" out="00:00:51.760000">
      <property name="background">colour:0</property>
      <property name="mlt_service">affine</property>
      <property name="shotcut:filter">affineSizePosition</property>
      <property name="transition.fill">1</property>
      <property name="transition.distort">0</property>
      <property name="transition.rect">00:00:00.000000=576.0 324.0 769.0 433.0 1;00:00:01.200000=128.0 431.0 384.0 216.0 1</property>
      <property name="transition.valign">top</property>
      <property name="transition.halign">left</property>
      <property name="shotcut:animIn">00:00:01.240000</property>
      <property name="shotcut:animOut">00:00:00.000</property>
      <property name="transition.threads">0</property>
    </filter>
    <filter id="filter308" in="00:00:50.520000" out="00:00:51.760000">
      <property name="window">75</property>
      <property name="max_gain">20dB</property>
      <property name="mlt_service">volume</property>
      <property name="shotcut:filter">muteVolume</property>
      <property name="gain">0</property>
    </filter>
  </producer>
  <producer id="producer176" in="00:00:00.000" out="00:03:01.800" title="Anonymous Submission">
    <property name="length">00:03:01:21</property>
    <property name="eof">pause</property>
    <property name="resource">../../006 - Videos format youtube/Saxophone/Aurianne_saxophone_totoro.mp4</property>
    <property name="audio_index">1</property>
    <property name="video_index">0</property>
    <property name="mute_on_pause">0</property>
    <property name="mlt_service">avformat-novalidate</property>
    <property name="seekable">1</property>
    <property name="aspect_ratio">1</property>
    <property name="creation_time">2020-04-09T18:32:01</property>
    <property name="shotcut:hash">dd198363db28b4d265caa15eb2e0f266</property>
    <property name="ignore_points">0</property>
    <property name="shotcut:caption">Aurianne_saxophone_totoro.mp4</property>
    <property name="shotcut:skipConvert">1</property>
    <property name="global_feed">1</property>
    <property name="xml">was here</property>
    <filter id="filter309" in="00:00:51.800000" out="00:01:08.120000">
      <property name="background">colour:0</property>
      <property name="mlt_service">affine</property>
      <property name="shotcut:filter">affineSizePosition</property>
      <property name="transition.fill">1</property>
      <property name="transition.distort">0</property>
      <property name="transition.rect">00:00:00.000000=128.0 431.0 385.0 217.0 1;00:00:01.200000=-512.0 431.0 384.0 216.0 1</property>
      <property name="transition.valign">top</property>
      <property name="transition.halign">left</property>
      <property name="shotcut:animIn">00:00:01.240000</property>
      <property name="shotcut:animOut">00:00:00.000</property>
      <property name="transition.threads">0</property>
    </filter>
    <filter id="filter310" in="00:00:51.800000" out="00:01:08.120000">
      <property name="window">75</property>
      <property name="max_gain">20dB</property>
      <property name="mlt_service">volume</property>
      <property name="shotcut:filter">muteVolume</property>
      <property name="gain">0</property>
    </filter>
  </producer>
  <playlist id="playlist31">
    <property name="shotcut:video">1</property>
    <property name="shotcut:name">Aurianne_saxo1</property>
    <property name="shotcut:lock">1</property>
    <blank length="00:00:29.000000" />
    <entry in="00:00:12.760000" out="00:00:46.720000" producer="producer171" />
    <entry in="00:00:46.760000" out="00:00:47.960000" producer="producer172" />
    <entry in="00:00:48.000000" out="00:00:49.240000" producer="producer173" />
    <entry in="00:00:49.280000" out="00:00:50.480000" producer="producer174" />
    <entry in="00:00:50.520000" out="00:00:51.760000" producer="producer175" />
    <entry in="00:00:51.800000" out="00:01:08.120000" producer="producer176" />
    <filter id="filter311" out="00:03:20.840">
      <property name="window">75</property>
      <property name="max_gain">20dB</property>
      <property name="level">-7</property>
      <property name="mlt_service">volume</property>
    </filter>
  </playlist>
  <producer id="producer177" in="00:00:00.000" out="00:03:14.560" title="Anonymous Submission">
    <property name="length">00:03:14:15</property>
    <property name="eof">pause</property>
    <property name="resource">../../006 - Videos format youtube/Saxophone/Marie-Claude_saxophone_totoro.mp4</property>
    <property name="audio_index">1</property>
    <property name="video_index">0</property>
    <property name="mute_on_pause">0</property>
    <property name="mlt_service">avformat-novalidate</property>
    <property name="seekable">1</property>
    <property name="aspect_ratio">1</property>
    <property name="creation_time">2020-04-17T16:47:48</property>
    <property name="shotcut:hash">93486417d24480bfbb5e6dc264b34a22</property>
    <property name="ignore_points">0</property>
    <property name="shotcut:caption">Marie-Claude_saxophone_totoro.mp4</property>
    <property name="shotcut:skipConvert">1</property>
    <property name="global_feed">1</property>
    <property name="xml">was here</property>
    <filter id="filter312" in="00:00:23.080000" out="00:00:58.280000">
      <property name="background">colour:0</property>
      <property name="mlt_service">affine</property>
      <property name="shotcut:filter">affineSizePosition</property>
      <property name="transition.fill">1</property>
      <property name="transition.distort">0</property>
      <property name="transition.rect">-1920.0 -1080.0 1921.0 1081.0 1</property>
      <property name="transition.valign">top</property>
      <property name="transition.halign">left</property>
      <property name="shotcut:animIn">00:00:00.040000</property>
      <property name="shotcut:animOut">00:00:00.000</property>
      <property name="transition.threads">0</property>
    </filter>
    <filter id="filter313" in="00:00:23.080000" out="00:00:58.280000">
      <property name="window">75</property>
      <property name="max_gain">20dB</property>
      <property name="mlt_service">volume</property>
      <property name="shotcut:filter">muteVolume</property>
      <property name="gain">0</property>
    </filter>
  </producer>
  <producer id="producer178" in="00:00:00.000" out="00:03:14.560" title="Anonymous Submission">
    <property name="length">00:03:14:15</property>
    <property name="eof">pause</property>
    <property name="resource">../../006 - Videos format youtube/Saxophone/Marie-Claude_saxophone_totoro.mp4</property>
    <property name="audio_index">1</property>
    <property name="video_index">0</property>
    <property name="mute_on_pause">0</property>
    <property name="mlt_service">avformat-novalidate</property>
    <property name="seekable">1</property>
    <property name="aspect_ratio">1</property>
    <property name="creation_time">2020-04-17T16:47:48</property>
    <property name="shotcut:hash">93486417d24480bfbb5e6dc264b34a22</property>
    <property name="ignore_points">0</property>
    <property name="shotcut:caption">Marie-Claude_saxophone_totoro.mp4</property>
    <property name="shotcut:skipConvert">1</property>
    <property name="global_feed">1</property>
    <property name="xml">was here</property>
    <filter id="filter314" in="00:00:58.320000" out="00:00:59.560000">
      <property name="background">colour:0</property>
      <property name="mlt_service">affine</property>
      <property name="shotcut:filter">affineSizePosition</property>
      <property name="transition.fill">1</property>
      <property name="transition.distort">0</property>
      <property name="transition.rect">00:00:00.000000=-1920.0 -1080.0 1922.0 1081.0 1;00:00:00.000000=2048.0 431.0 384.0 216.0 1</property>
      <property name="transition.valign">top</property>
      <property name="transition.halign">left</property>
      <property name="shotcut:animIn">00:00:00.040000</property>
      <property name="shotcut:animOut">00:00:00.000</property>
      <property name="transition.threads">0</property>
    </filter>
    <filter id="filter315" in="00:00:58.320000" out="00:00:59.560000">
      <property name="window">75</property>
      <property name="max_gain">20dB</property>
      <property name="mlt_service">volume</property>
      <property name="shotcut:filter">muteVolume</property>
      <property name="gain">0</property>
    </filter>
  </producer>
  <producer id="producer179" in="00:00:00.000" out="00:03:14.560" title="Anonymous Submission">
    <property name="length">00:03:14:15</property>
    <property name="eof">pause</property>
    <property name="resource">../../006 - Videos format youtube/Saxophone/Marie-Claude_saxophone_totoro.mp4</property>
    <property name="audio_index">1</property>
    <property name="video_index">0</property>
    <property name="mute_on_pause">0</property>
    <property name="mlt_service">avformat-novalidate</property>
    <property name="seekable">1</property>
    <property name="aspect_ratio">1</property>
    <property name="creation_time">2020-04-17T16:47:48</property>
    <property name="shotcut:hash">93486417d24480bfbb5e6dc264b34a22</property>
    <property name="ignore_points">0</property>
    <property name="shotcut:caption">Marie-Claude_saxophone_totoro.mp4</property>
    <property name="shotcut:skipConvert">1</property>
    <property name="global_feed">1</property>
    <property name="xml">was here</property>
    <filter id="filter316" in="00:00:59.600000" out="00:01:00.800000">
      <property name="background">colour:0</property>
      <property name="mlt_service">affine</property>
      <property name="shotcut:filter">affineSizePosition</property>
      <property name="transition.fill">1</property>
      <property name="transition.distort">0</property>
      <property name="transition.rect">00:00:00.000000=2048.0 431.0 385.0 217.0 1;00:00:01.200000=1408.0 431.0 384.0 216.0 1</property>
      <property name="transition.valign">top</property>
      <property name="transition.halign">left</property>
      <property name="shotcut:animIn">00:00:01.240000</property>
      <property name="shotcut:animOut">00:00:00.000</property>
      <property name="transition.threads">0</property>
    </filter>
    <filter id="filter317" in="00:00:59.600000" out="00:01:00.800000">
      <property name="window">75</property>
      <property name="max_gain">20dB</property>
      <property name="mlt_service">volume</property>
      <property name="shotcut:filter">muteVolume</property>
      <property name="gain">0</property>
    </filter>
  </producer>
  <producer id="producer180" in="00:00:00.000" out="00:03:14.560" title="Anonymous Submission">
    <property name="length">00:03:14:15</property>
    <property name="eof">pause</property>
    <property name="resource">../../006 - Videos format youtube/Saxophone/Marie-Claude_saxophone_totoro.mp4</property>
    <property name="audio_index">1</property>
    <property name="video_index">0</property>
    <property name="mute_on_pause">0</property>
    <property name="mlt_service">avformat-novalidate</property>
    <property name="seekable">1</property>
    <property name="aspect_ratio">1</property>
    <property name="creation_time">2020-04-17T16:47:48</property>
    <property name="shotcut:hash">93486417d24480bfbb5e6dc264b34a22</property>
    <property name="ignore_points">0</property>
    <property name="shotcut:caption">Marie-Claude_saxophone_totoro.mp4</property>
    <property name="shotcut:skipConvert">1</property>
    <property name="global_feed">1</property>
    <property name="xml">was here</property>
    <filter id="filter318" in="00:01:00.840000" out="00:01:02.080000">
      <property name="background">colour:0</property>
      <property name="mlt_service">affine</property>
      <property name="shotcut:filter">affineSizePosition</property>
      <property name="transition.fill">1</property>
      <property name="transition.distort">0</property>
      <property name="transition.rect">00:00:00.000000=1408.0 431.0 385.0 217.0 1;00:00:01.200000=576.0 324.0 768.0 432.0 1</property>
      <property name="transition.valign">top</property>
      <property name="transition.halign">left</property>
      <property name="shotcut:animIn">00:00:01.240000</property>
      <property name="shotcut:animOut">00:00:00.000</property>
      <property name="transition.threads">0</property>
    </filter>
    <filter id="filter319" in="00:01:00.840000" out="00:01:02.080000">
      <property name="window">75</property>
      <property name="max_gain">20dB</property>
      <property name="mlt_service">volume</property>
      <property name="shotcut:filter">muteVolume</property>
      <property name="gain">0</property>
    </filter>
  </producer>
  <producer id="producer181" in="00:00:00.000" out="00:03:14.560" title="Anonymous Submission">
    <property name="length">00:03:14:15</property>
    <property name="eof">pause</property>
    <property name="resource">../../006 - Videos format youtube/Saxophone/Marie-Claude_saxophone_totoro.mp4</property>
    <property name="audio_index">1</property>
    <property name="video_index">0</property>
    <property name="mute_on_pause">0</property>
    <property name="mlt_service">avformat-novalidate</property>
    <property name="seekable">1</property>
    <property name="aspect_ratio">1</property>
    <property name="creation_time">2020-04-17T16:47:48</property>
    <property name="shotcut:hash">93486417d24480bfbb5e6dc264b34a22</property>
    <property name="ignore_points">0</property>
    <property name="shotcut:caption">Marie-Claude_saxophone_totoro.mp4</property>
    <property name="shotcut:skipConvert">1</property>
    <property name="global_feed">1</property>
    <property name="xml">was here</property>
    <filter id="filter320" in="00:01:02.120000" out="00:01:03.320000">
      <property name="background">colour:0</property>
      <property name="mlt_service">affine</property>
      <property name="shotcut:filter">affineSizePosition</property>
      <property name="transition.fill">1</property>
      <property name="transition.distort">0</property>
      <property name="transition.rect">00:00:00.000000=576.0 324.0 769.0 433.0 1;00:00:01.200000=128.0 431.0 384.0 216.0 1</property>
      <property name="transition.valign">top</property>
      <property name="transition.halign">left</property>
      <property name="shotcut:animIn">00:00:01.240000</property>
      <property name="shotcut:animOut">00:00:00.000</property>
      <property name="transition.threads">0</property>
    </filter>
    <filter id="filter321" in="00:01:02.120000" out="00:01:03.320000">
      <property name="window">75</property>
      <property name="max_gain">20dB</property>
      <property name="mlt_service">volume</property>
      <property name="shotcut:filter">muteVolume</property>
      <property name="gain">0</property>
    </filter>
  </producer>
  <producer id="producer182" in="00:00:00.000" out="00:03:14.560" title="Anonymous Submission">
    <property name="length">00:03:14:15</property>
    <property name="eof">pause</property>
    <property name="resource">../../006 - Videos format youtube/Saxophone/Marie-Claude_saxophone_totoro.mp4</property>
    <property name="audio_index">1</property>
    <property name="video_index">0</property>
    <property name="mute_on_pause">0</property>
    <property name="mlt_service">avformat-novalidate</property>
    <property name="seekable">1</property>
    <property name="aspect_ratio">1</property>
    <property name="creation_time">2020-04-17T16:47:48</property>
    <property name="shotcut:hash">93486417d24480bfbb5e6dc264b34a22</property>
    <property name="ignore_points">0</property>
    <property name="shotcut:caption">Marie-Claude_saxophone_totoro.mp4</property>
    <property name="shotcut:skipConvert">1</property>
    <property name="global_feed">1</property>
    <property name="xml">was here</property>
    <filter id="filter322" in="00:01:03.360000" out="00:01:18.440000">
      <property name="background">colour:0</property>
      <property name="mlt_service">affine</property>
      <property name="shotcut:filter">affineSizePosition</property>
      <property name="transition.fill">1</property>
      <property name="transition.distort">0</property>
      <property name="transition.rect">00:00:00.000000=128.0 431.0 385.0 217.0 1;00:00:01.200000=-512.0 431.0 384.0 216.0 1</property>
      <property name="transition.valign">top</property>
      <property name="transition.halign">left</property>
      <property name="shotcut:animIn">00:00:01.240000</property>
      <property name="shotcut:animOut">00:00:00.000</property>
      <property name="transition.threads">0</property>
    </filter>
    <filter id="filter323" in="00:01:03.360000" out="00:01:18.440000">
      <property name="window">75</property>
      <property name="max_gain">20dB</property>
      <property name="mlt_service">volume</property>
      <property name="shotcut:filter">muteVolume</property>
      <property name="gain">0</property>
    </filter>
  </producer>
  <playlist id="playlist32">
    <property name="shotcut:video">1</property>
    <property name="shotcut:name">Marie(Claude</property>
    <property name="shotcut:lock">1</property>
    <blank length="00:00:29.000000" />
    <entry in="00:00:23.080000" out="00:00:58.280000" producer="producer177" />
    <entry in="00:00:58.320000" out="00:00:59.560000" producer="producer178" />
    <entry in="00:00:59.600000" out="00:01:00.800000" producer="producer179" />
    <entry in="00:01:00.840000" out="00:01:02.080000" producer="producer180" />
    <entry in="00:01:02.120000" out="00:01:03.320000" producer="producer181" />
    <entry in="00:01:03.360000" out="00:01:18.440000" producer="producer182" />
    <filter id="filter324" out="00:03:20.840">
      <property name="window">75</property>
      <property name="max_gain">20dB</property>
      <property name="level">-10</property>
      <property name="mlt_service">volume</property>
    </filter>
  </playlist>
  <producer id="producer183" in="00:00:00.000" out="00:03:18.880" title="Anonymous Submission">
    <property name="length">00:03:18:23</property>
    <property name="eof">pause</property>
    <property name="resource">../../006 - Videos format youtube/Saxophone/Franck_saxophone_totoro.mp4</property>
    <property name="audio_index">1</property>
    <property name="video_index">0</property>
    <property name="mute_on_pause">0</property>
    <property name="mlt_service">avformat-novalidate</property>
    <property name="seekable">1</property>
    <property name="aspect_ratio">1</property>
    <property name="creation_time">2020-04-13T11:28:12</property>
    <property name="shotcut:hash">65568a88d02d9b90ac8b802dbc8299d0</property>
    <property name="ignore_points">0</property>
    <property name="shotcut:caption">Franck_saxophone_totoro.mp4</property>
    <property name="shotcut:skipConvert">1</property>
    <property name="global_feed">1</property>
    <property name="xml">was here</property>
    <filter id="filter325" in="00:00:30.560000" out="00:01:07.040000">
      <property name="background">colour:0</property>
      <property name="mlt_service">affine</property>
      <property name="shotcut:filter">affineSizePosition</property>
      <property name="transition.fill">1</property>
      <property name="transition.distort">0</property>
      <property name="transition.rect">-1920.0 -1080.0 1921.0 1081.0 1</property>
      <property name="transition.valign">top</property>
      <property name="transition.halign">left</property>
      <property name="shotcut:animIn">00:00:00.040000</property>
      <property name="shotcut:animOut">00:00:00.000</property>
      <property name="transition.threads">0</property>
    </filter>
    <filter id="filter326" in="00:00:30.560000" out="00:01:07.040000">
      <property name="window">75</property>
      <property name="max_gain">20dB</property>
      <property name="mlt_service">volume</property>
      <property name="shotcut:filter">muteVolume</property>
      <property name="gain">0</property>
    </filter>
  </producer>
  <producer id="producer184" in="00:00:00.000" out="00:03:18.880" title="Anonymous Submission">
    <property name="length">00:03:18:23</property>
    <property name="eof">pause</property>
    <property name="resource">../../006 - Videos format youtube/Saxophone/Franck_saxophone_totoro.mp4</property>
    <property name="audio_index">1</property>
    <property name="video_index">0</property>
    <property name="mute_on_pause">0</property>
    <property name="mlt_service">avformat-novalidate</property>
    <property name="seekable">1</property>
    <property name="aspect_ratio">1</property>
    <property name="creation_time">2020-04-13T11:28:12</property>
    <property name="shotcut:hash">65568a88d02d9b90ac8b802dbc8299d0</property>
    <property name="ignore_points">0</property>
    <property name="shotcut:caption">Franck_saxophone_totoro.mp4</property>
    <property name="shotcut:skipConvert">1</property>
    <property name="global_feed">1</property>
    <property name="xml">was here</property>
    <filter id="filter327" in="00:01:07.080000" out="00:01:08.280000">
      <property name="background">colour:0</property>
      <property name="mlt_service">affine</property>
      <property name="shotcut:filter">affineSizePosition</property>
      <property name="transition.fill">1</property>
      <property name="transition.distort">0</property>
      <property name="transition.rect">00:00:00.000000=-1920.0 -1080.0 1922.0 1081.0 1;00:00:00.000000=2048.0 431.0 384.0 216.0 1</property>
      <property name="transition.valign">top</property>
      <property name="transition.halign">left</property>
      <property name="shotcut:animIn">00:00:00.040000</property>
      <property name="shotcut:animOut">00:00:00.000</property>
      <property name="transition.threads">0</property>
    </filter>
    <filter id="filter328" in="00:01:07.080000" out="00:01:08.280000">
      <property name="window">75</property>
      <property name="max_gain">20dB</property>
      <property name="mlt_service">volume</property>
      <property name="shotcut:filter">muteVolume</property>
      <property name="gain">0</property>
    </filter>
  </producer>
  <producer id="producer185" in="00:00:00.000" out="00:03:18.880" title="Anonymous Submission">
    <property name="length">00:03:18:23</property>
    <property name="eof">pause</property>
    <property name="resource">../../006 - Videos format youtube/Saxophone/Franck_saxophone_totoro.mp4</property>
    <property name="audio_index">1</property>
    <property name="video_index">0</property>
    <property name="mute_on_pause">0</property>
    <property name="mlt_service">avformat-novalidate</property>
    <property name="seekable">1</property>
    <property name="aspect_ratio">1</property>
    <property name="creation_time">2020-04-13T11:28:12</property>
    <property name="shotcut:hash">65568a88d02d9b90ac8b802dbc8299d0</property>
    <property name="ignore_points">0</property>
    <property name="shotcut:caption">Franck_saxophone_totoro.mp4</property>
    <property name="shotcut:skipConvert">1</property>
    <property name="global_feed">1</property>
    <property name="xml">was here</property>
    <filter id="filter329" in="00:01:08.320000" out="00:01:09.560000">
      <property name="background">colour:0</property>
      <property name="mlt_service">affine</property>
      <property name="shotcut:filter">affineSizePosition</property>
      <property name="transition.fill">1</property>
      <property name="transition.distort">0</property>
      <property name="transition.rect">00:00:00.000000=2048.0 431.0 385.0 217.0 1;00:00:01.200000=1408.0 431.0 384.0 216.0 1</property>
      <property name="transition.valign">top</property>
      <property name="transition.halign">left</property>
      <property name="shotcut:animIn">00:00:01.240000</property>
      <property name="shotcut:animOut">00:00:00.000</property>
      <property name="transition.threads">0</property>
    </filter>
    <filter id="filter330" in="00:01:08.320000" out="00:01:09.560000">
      <property name="window">75</property>
      <property name="max_gain">20dB</property>
      <property name="mlt_service">volume</property>
      <property name="shotcut:filter">muteVolume</property>
      <property name="gain">0</property>
    </filter>
  </producer>
  <producer id="producer186" in="00:00:00.000" out="00:03:18.880" title="Anonymous Submission">
    <property name="length">00:03:18:23</property>
    <property name="eof">pause</property>
    <property name="resource">../../006 - Videos format youtube/Saxophone/Franck_saxophone_totoro.mp4</property>
    <property name="audio_index">1</property>
    <property name="video_index">0</property>
    <property name="mute_on_pause">0</property>
    <property name="mlt_service">avformat-novalidate</property>
    <property name="seekable">1</property>
    <property name="aspect_ratio">1</property>
    <property name="creation_time">2020-04-13T11:28:12</property>
    <property name="shotcut:hash">65568a88d02d9b90ac8b802dbc8299d0</property>
    <property name="ignore_points">0</property>
    <property name="shotcut:caption">Franck_saxophone_totoro.mp4</property>
    <property name="shotcut:skipConvert">1</property>
    <property name="global_feed">1</property>
    <property name="xml">was here</property>
    <filter id="filter331" in="00:01:09.600000" out="00:01:10.800000">
      <property name="background">colour:0</property>
      <property name="mlt_service">affine</property>
      <property name="shotcut:filter">affineSizePosition</property>
      <property name="transition.fill">1</property>
      <property name="transition.distort">0</property>
      <property name="transition.rect">00:00:00.000000=1408.0 431.0 385.0 217.0 1;00:00:01.200000=576.0 324.0 768.0 432.0 1</property>
      <property name="transition.valign">top</property>
      <property name="transition.halign">left</property>
      <property name="shotcut:animIn">00:00:01.240000</property>
      <property name="shotcut:animOut">00:00:00.000</property>
      <property name="transition.threads">0</property>
    </filter>
    <filter id="filter332" in="00:01:09.600000" out="00:01:10.800000">
      <property name="window">75</property>
      <property name="max_gain">20dB</property>
      <property name="mlt_service">volume</property>
      <property name="shotcut:filter">muteVolume</property>
      <property name="gain">0</property>
    </filter>
  </producer>
  <producer id="producer187" in="00:00:00.000" out="00:03:18.880" title="Anonymous Submission">
    <property name="length">00:03:18:23</property>
    <property name="eof">pause</property>
    <property name="resource">../../006 - Videos format youtube/Saxophone/Franck_saxophone_totoro.mp4</property>
    <property name="audio_index">1</property>
    <property name="video_index">0</property>
    <property name="mute_on_pause">0</property>
    <property name="mlt_service">avformat-novalidate</property>
    <property name="seekable">1</property>
    <property name="aspect_ratio">1</property>
    <property name="creation_time">2020-04-13T11:28:12</property>
    <property name="shotcut:hash">65568a88d02d9b90ac8b802dbc8299d0</property>
    <property name="ignore_points">0</property>
    <property name="shotcut:caption">Franck_saxophone_totoro.mp4</property>
    <property name="shotcut:skipConvert">1</property>
    <property name="global_feed">1</property>
    <property name="xml">was here</property>
    <filter id="filter333" in="00:01:10.840000" out="00:01:12.080000">
      <property name="background">colour:0</property>
      <property name="mlt_service">affine</property>
      <property name="shotcut:filter">affineSizePosition</property>
      <property name="transition.fill">1</property>
      <property name="transition.distort">0</property>
      <property name="transition.rect">00:00:00.000000=576.0 324.0 769.0 433.0 1;00:00:01.200000=128.0 431.0 384.0 216.0 1</property>
      <property name="transition.valign">top</property>
      <property name="transition.halign">left</property>
      <property name="shotcut:animIn">00:00:01.240000</property>
      <property name="shotcut:animOut">00:00:00.000</property>
      <property name="transition.threads">0</property>
    </filter>
    <filter id="filter334" in="00:01:10.840000" out="00:01:12.080000">
      <property name="window">75</property>
      <property name="max_gain">20dB</property>
      <property name="mlt_service">volume</property>
      <property name="shotcut:filter">muteVolume</property>
      <property name="gain">0</property>
    </filter>
  </producer>
  <producer id="producer188" in="00:00:00.000" out="00:03:18.880" title="Anonymous Submission">
    <property name="length">00:03:18:23</property>
    <property name="eof">pause</property>
    <property name="resource">../../006 - Videos format youtube/Saxophone/Franck_saxophone_totoro.mp4</property>
    <property name="audio_index">1</property>
    <property name="video_index">0</property>
    <property name="mute_on_pause">0</property>
    <property name="mlt_service">avformat-novalidate</property>
    <property name="seekable">1</property>
    <property name="aspect_ratio">1</property>
    <property name="creation_time">2020-04-13T11:28:12</property>
    <property name="shotcut:hash">65568a88d02d9b90ac8b802dbc8299d0</property>
    <property name="ignore_points">0</property>
    <property name="shotcut:caption">Franck_saxophone_totoro.mp4</property>
    <property name="shotcut:skipConvert">1</property>
    <property name="global_feed">1</property>
    <property name="xml">was here</property>
    <filter id="filter335" in="00:01:12.120000" out="00:01:25.920000">
      <property name="background">colour:0</property>
      <property name="mlt_service">affine</property>
      <property name="shotcut:filter">affineSizePosition</property>
      <property name="transition.fill">1</property>
      <property name="transition.distort">0</property>
      <property name="transition.rect">00:00:00.000000=128.0 431.0 385.0 217.0 1;00:00:01.200000=-512.0 431.0 384.0 216.0 1</property>
      <property name="transition.valign">top</property>
      <property name="transition.halign">left</property>
      <property name="shotcut:animIn">00:00:01.240000</property>
      <property name="shotcut:animOut">00:00:00.000</property>
      <property name="transition.threads">0</property>
    </filter>
    <filter id="filter336" in="00:01:12.120000" out="00:01:25.920000">
      <property name="window">75</property>
      <property name="max_gain">20dB</property>
      <property name="mlt_service">volume</property>
      <property name="shotcut:filter">muteVolume</property>
      <property name="gain">0</property>
    </filter>
  </producer>
  <playlist id="playlist33">
    <property name="shotcut:video">1</property>
    <property name="shotcut:name">Franck</property>
    <property name="shotcut:lock">1</property>
    <blank length="00:00:29.000000" />
    <entry in="00:00:30.560000" out="00:01:07.040000" producer="producer183" />
    <entry in="00:01:07.080000" out="00:01:08.280000" producer="producer184" />
    <entry in="00:01:08.320000" out="00:01:09.560000" producer="producer185" />
    <entry in="00:01:09.600000" out="00:01:10.800000" producer="producer186" />
    <entry in="00:01:10.840000" out="00:01:12.080000" producer="producer187" />
    <entry in="00:01:12.120000" out="00:01:25.920000" producer="producer188" />
    <filter id="filter337" out="00:03:20.840">
      <property name="window">75</property>
      <property name="max_gain">20dB</property>
      <property name="level">-8</property>
      <property name="mlt_service">volume</property>
    </filter>
  </playlist>
  <producer id="producer189" in="00:00:00.000" out="00:02:56.880" title="Anonymous Submission">
    <property name="length">00:02:56:23</property>
    <property name="eof">pause</property>
    <property name="resource">../../006 - Videos format youtube/Saxophone/Nadine_saxophone_totoro.mp4</property>
    <property name="audio_index">1</property>
    <property name="video_index">0</property>
    <property name="mute_on_pause">0</property>
    <property name="mlt_service">avformat-novalidate</property>
    <property name="seekable">1</property>
    <property name="aspect_ratio">1</property>
    <property name="creation_time">2020-04-05T10:59:22</property>
    <property name="shotcut:hash">82626502be7a153c67023eb3ec220870</property>
    <property name="ignore_points">0</property>
    <property name="shotcut:caption">Nadine_saxophone_totoro.mp4</property>
    <property name="shotcut:skipConvert">1</property>
    <property name="global_feed">1</property>
    <property name="xml">was here</property>
    <filter id="filter338" in="00:00:07.400000" out="00:00:45.120000">
      <property name="background">colour:0</property>
      <property name="mlt_service">affine</property>
      <property name="shotcut:filter">affineSizePosition</property>
      <property name="transition.fill">1</property>
      <property name="transition.distort">0</property>
      <property name="transition.rect">-1920.0 -1080.0 1921.0 1081.0 1</property>
      <property name="transition.valign">top</property>
      <property name="transition.halign">left</property>
      <property name="shotcut:animIn">00:00:00.040000</property>
      <property name="shotcut:animOut">00:00:00.000</property>
      <property name="transition.threads">0</property>
    </filter>
  </producer>
  <producer id="producer190" in="00:00:00.000" out="00:02:56.880" title="Anonymous Submission">
    <property name="length">00:02:56:23</property>
    <property name="eof">pause</property>
    <property name="resource">../../006 - Videos format youtube/Saxophone/Nadine_saxophone_totoro.mp4</property>
    <property name="audio_index">1</property>
    <property name="video_index">0</property>
    <property name="mute_on_pause">0</property>
    <property name="mlt_service">avformat-novalidate</property>
    <property name="seekable">1</property>
    <property name="aspect_ratio">1</property>
    <property name="creation_time">2020-04-05T10:59:22</property>
    <property name="shotcut:hash">82626502be7a153c67023eb3ec220870</property>
    <property name="ignore_points">0</property>
    <property name="shotcut:caption">Nadine_saxophone_totoro.mp4</property>
    <property name="shotcut:skipConvert">1</property>
    <property name="global_feed">1</property>
    <property name="xml">was here</property>
    <filter id="filter339" in="00:00:45.160000" out="00:00:46.400000">
      <property name="background">colour:0</property>
      <property name="mlt_service">affine</property>
      <property name="shotcut:filter">affineSizePosition</property>
      <property name="transition.fill">1</property>
      <property name="transition.distort">0</property>
      <property name="transition.rect">00:00:00.000000=-1920.0 -1080.0 1922.0 1081.0 1;00:00:00.000000=2048.0 431.0 384.0 216.0 1</property>
      <property name="transition.valign">top</property>
      <property name="transition.halign">left</property>
      <property name="shotcut:animIn">00:00:00.040000</property>
      <property name="shotcut:animOut">00:00:00.000</property>
      <property name="transition.threads">0</property>
    </filter>
  </producer>
  <producer id="producer191" in="00:00:00.000" out="00:02:56.880" title="Anonymous Submission">
    <property name="length">00:02:56:23</property>
    <property name="eof">pause</property>
    <property name="resource">../../006 - Videos format youtube/Saxophone/Nadine_saxophone_totoro.mp4</property>
    <property name="audio_index">1</property>
    <property name="video_index">0</property>
    <property name="mute_on_pause">0</property>
    <property name="mlt_service">avformat-novalidate</property>
    <property name="seekable">1</property>
    <property name="aspect_ratio">1</property>
    <property name="creation_time">2020-04-05T10:59:22</property>
    <property name="shotcut:hash">82626502be7a153c67023eb3ec220870</property>
    <property name="ignore_points">0</property>
    <property name="shotcut:caption">Nadine_saxophone_totoro.mp4</property>
    <property name="shotcut:skipConvert">1</property>
    <property name="global_feed">1</property>
    <property name="xml">was here</property>
    <filter id="filter340" in="00:00:46.440000" out="00:00:47.640000">
      <property name="background">colour:0</property>
      <property name="mlt_service">affine</property>
      <property name="shotcut:filter">affineSizePosition</property>
      <property name="transition.fill">1</property>
      <property name="transition.distort">0</property>
      <property name="transition.rect">00:00:00.000000=2048.0 431.0 385.0 217.0 1;00:00:01.200000=1408.0 431.0 384.0 216.0 1</property>
      <property name="transition.valign">top</property>
      <property name="transition.halign">left</property>
      <property name="shotcut:animIn">00:00:01.240000</property>
      <property name="shotcut:animOut">00:00:00.000</property>
      <property name="transition.threads">0</property>
    </filter>
  </producer>
  <producer id="producer192" in="00:00:00.000" out="00:02:56.880" title="Anonymous Submission">
    <property name="length">00:02:56:23</property>
    <property name="eof">pause</property>
    <property name="resource">../../006 - Videos format youtube/Saxophone/Nadine_saxophone_totoro.mp4</property>
    <property name="audio_index">1</property>
    <property name="video_index">0</property>
    <property name="mute_on_pause">0</property>
    <property name="mlt_service">avformat-novalidate</property>
    <property name="seekable">1</property>
    <property name="aspect_ratio">1</property>
    <property name="creation_time">2020-04-05T10:59:22</property>
    <property name="shotcut:hash">82626502be7a153c67023eb3ec220870</property>
    <property name="ignore_points">0</property>
    <property name="shotcut:caption">Nadine_saxophone_totoro.mp4</property>
    <property name="shotcut:skipConvert">1</property>
    <property name="global_feed">1</property>
    <property name="xml">was here</property>
    <filter id="filter341" in="00:00:47.680000" out="00:00:48.920000">
      <property name="background">colour:0</property>
      <property name="mlt_service">affine</property>
      <property name="shotcut:filter">affineSizePosition</property>
      <property name="transition.fill">1</property>
      <property name="transition.distort">0</property>
      <property name="transition.rect">00:00:00.000000=1408.0 431.0 385.0 217.0 1;00:00:01.200000=576.0 324.0 768.0 432.0 1</property>
      <property name="transition.valign">top</property>
      <property name="transition.halign">left</property>
      <property name="shotcut:animIn">00:00:01.240000</property>
      <property name="shotcut:animOut">00:00:00.000</property>
      <property name="transition.threads">0</property>
    </filter>
  </producer>
  <producer id="producer193" in="00:00:00.000" out="00:02:56.880" title="Anonymous Submission">
    <property name="length">00:02:56:23</property>
    <property name="eof">pause</property>
    <property name="resource">../../006 - Videos format youtube/Saxophone/Nadine_saxophone_totoro.mp4</property>
    <property name="audio_index">1</property>
    <property name="video_index">0</property>
    <property name="mute_on_pause">0</property>
    <property name="mlt_service">avformat-novalidate</property>
    <property name="seekable">1</property>
    <property name="aspect_ratio">1</property>
    <property name="creation_time">2020-04-05T10:59:22</property>
    <property name="shotcut:hash">82626502be7a153c67023eb3ec220870</property>
    <property name="ignore_points">0</property>
    <property name="shotcut:caption">Nadine_saxophone_totoro.mp4</property>
    <property name="shotcut:skipConvert">1</property>
    <property name="global_feed">1</property>
    <property name="xml">was here</property>
    <filter id="filter342" in="00:00:48.960000" out="00:00:50.160000">
      <property name="background">colour:0</property>
      <property name="mlt_service">affine</property>
      <property name="shotcut:filter">affineSizePosition</property>
      <property name="transition.fill">1</property>
      <property name="transition.distort">0</property>
      <property name="transition.rect">00:00:00.000000=576.0 324.0 769.0 433.0 1;00:00:01.200000=128.0 431.0 384.0 216.0 1</property>
      <property name="transition.valign">top</property>
      <property name="transition.halign">left</property>
      <property name="shotcut:animIn">00:00:01.240000</property>
      <property name="shotcut:animOut">00:00:00.000</property>
      <property name="transition.threads">0</property>
    </filter>
  </producer>
  <producer id="producer194" in="00:00:00.000" out="00:02:56.880" title="Anonymous Submission">
    <property name="length">00:02:56:23</property>
    <property name="eof">pause</property>
    <property name="resource">../../006 - Videos format youtube/Saxophone/Nadine_saxophone_totoro.mp4</property>
    <property name="audio_index">1</property>
    <property name="video_index">0</property>
    <property name="mute_on_pause">0</property>
    <property name="mlt_service">avformat-novalidate</property>
    <property name="seekable">1</property>
    <property name="aspect_ratio">1</property>
    <property name="creation_time">2020-04-05T10:59:22</property>
    <property name="shotcut:hash">82626502be7a153c67023eb3ec220870</property>
    <property name="ignore_points">0</property>
    <property name="shotcut:caption">Nadine_saxophone_totoro.mp4</property>
    <property name="shotcut:skipConvert">1</property>
    <property name="global_feed">1</property>
    <property name="xml">was here</property>
    <filter id="filter343" in="00:00:50.200000" out="00:01:02.760000">
      <property name="background">colour:0</property>
      <property name="mlt_service">affine</property>
      <property name="shotcut:filter">affineSizePosition</property>
      <property name="transition.fill">1</property>
      <property name="transition.distort">0</property>
      <property name="transition.rect">00:00:00.000000=128.0 431.0 385.0 217.0 1;00:00:01.200000=-512.0 431.0 384.0 216.0 1</property>
      <property name="transition.valign">top</property>
      <property name="transition.halign">left</property>
      <property name="shotcut:animIn">00:00:01.240000</property>
      <property name="shotcut:animOut">00:00:00.000</property>
      <property name="transition.threads">0</property>
    </filter>
  </producer>
  <playlist id="playlist34">
    <property name="shotcut:video">1</property>
    <property name="shotcut:name">Nadine_saxo2/3?</property>
    <property name="shotcut:lock">1</property>
    <blank length="00:00:29.000000" />
    <entry in="00:00:07.400000" out="00:00:45.120000" producer="producer189" />
    <entry in="00:00:45.160000" out="00:00:46.400000" producer="producer190" />
    <entry in="00:00:46.440000" out="00:00:47.640000" producer="producer191" />
    <entry in="00:00:47.680000" out="00:00:48.920000" producer="producer192" />
    <entry in="00:00:48.960000" out="00:00:50.160000" producer="producer193" />
    <entry in="00:00:50.200000" out="00:01:02.760000" producer="producer194" />
    <filter id="filter344" out="00:03:20.840">
      <property name="window">75</property>
      <property name="max_gain">20dB</property>
      <property name="level">-10</property>
      <property name="mlt_service">volume</property>
    </filter>
  </playlist>
  <producer id="producer195" in="00:00:00.000" out="00:03:00.640" title="Anonymous Submission">
    <property name="length">00:03:00:17</property>
    <property name="eof">pause</property>
    <property name="resource">../../006 - Videos format youtube/Saxophone/Nathalie_saxophone_totoro.mp4</property>
    <property name="audio_index">1</property>
    <property name="video_index">0</property>
    <property name="mute_on_pause">0</property>
    <property name="mlt_service">avformat-novalidate</property>
    <property name="seekable">1</property>
    <property name="aspect_ratio">1</property>
    <property name="creation_time">2020-04-05T20:53:59</property>
    <property name="shotcut:hash">0d7f5f7f840ed30cff72366d537ba970</property>
    <property name="ignore_points">0</property>
    <property name="shotcut:caption">Nathalie_saxophone_totoro.mp4</property>
    <property name="shotcut:skipConvert">1</property>
    <property name="global_feed">1</property>
    <property name="xml">was here</property>
    <filter id="filter345" in="00:00:12.560000" out="00:00:51.560000">
      <property name="background">colour:0</property>
      <property name="mlt_service">affine</property>
      <property name="shotcut:filter">affineSizePosition</property>
      <property name="transition.fill">1</property>
      <property name="transition.distort">0</property>
      <property name="transition.rect">-1920.0 -1080.0 1921.0 1081.0 1</property>
      <property name="transition.valign">top</property>
      <property name="transition.halign">left</property>
      <property name="shotcut:animIn">00:00:00.040000</property>
      <property name="shotcut:animOut">00:00:00.000</property>
      <property name="transition.threads">0</property>
    </filter>
  </producer>
  <producer id="producer196" in="00:00:00.000" out="00:03:00.640" title="Anonymous Submission">
    <property name="length">00:03:00:17</property>
    <property name="eof">pause</property>
    <property name="resource">../../006 - Videos format youtube/Saxophone/Nathalie_saxophone_totoro.mp4</property>
    <property name="audio_index">1</property>
    <property name="video_index">0</property>
    <property name="mute_on_pause">0</property>
    <property name="mlt_service">avformat-novalidate</property>
    <property name="seekable">1</property>
    <property name="aspect_ratio">1</property>
    <property name="creation_time">2020-04-05T20:53:59</property>
    <property name="shotcut:hash">0d7f5f7f840ed30cff72366d537ba970</property>
    <property name="ignore_points">0</property>
    <property name="shotcut:caption">Nathalie_saxophone_totoro.mp4</property>
    <property name="shotcut:skipConvert">1</property>
    <property name="global_feed">1</property>
    <property name="xml">was here</property>
    <filter id="filter346" in="00:00:51.600000" out="00:00:52.800000">
      <property name="background">colour:0</property>
      <property name="mlt_service">affine</property>
      <property name="shotcut:filter">affineSizePosition</property>
      <property name="transition.fill">1</property>
      <property name="transition.distort">0</property>
      <property name="transition.rect">00:00:00.000000=-1920.0 -1080.0 1922.0 1081.0 1;00:00:00.000000=2048.0 431.0 384.0 216.0 1</property>
      <property name="transition.valign">top</property>
      <property name="transition.halign">left</property>
      <property name="shotcut:animIn">00:00:00.040000</property>
      <property name="shotcut:animOut">00:00:00.000</property>
      <property name="transition.threads">0</property>
    </filter>
  </producer>
  <producer id="producer197" in="00:00:00.000" out="00:03:00.640" title="Anonymous Submission">
    <property name="length">00:03:00:17</property>
    <property name="eof">pause</property>
    <property name="resource">../../006 - Videos format youtube/Saxophone/Nathalie_saxophone_totoro.mp4</property>
    <property name="audio_index">1</property>
    <property name="video_index">0</property>
    <property name="mute_on_pause">0</property>
    <property name="mlt_service">avformat-novalidate</property>
    <property name="seekable">1</property>
    <property name="aspect_ratio">1</property>
    <property name="creation_time">2020-04-05T20:53:59</property>
    <property name="shotcut:hash">0d7f5f7f840ed30cff72366d537ba970</property>
    <property name="ignore_points">0</property>
    <property name="shotcut:caption">Nathalie_saxophone_totoro.mp4</property>
    <property name="shotcut:skipConvert">1</property>
    <property name="global_feed">1</property>
    <property name="xml">was here</property>
    <filter id="filter347" in="00:00:52.840000" out="00:00:54.080000">
      <property name="background">colour:0</property>
      <property name="mlt_service">affine</property>
      <property name="shotcut:filter">affineSizePosition</property>
      <property name="transition.fill">1</property>
      <property name="transition.distort">0</property>
      <property name="transition.rect">00:00:00.000000=2048.0 431.0 385.0 217.0 1;00:00:01.200000=1408.0 431.0 384.0 216.0 1</property>
      <property name="transition.valign">top</property>
      <property name="transition.halign">left</property>
      <property name="shotcut:animIn">00:00:01.240000</property>
      <property name="shotcut:animOut">00:00:00.000</property>
      <property name="transition.threads">0</property>
    </filter>
  </producer>
  <producer id="producer198" in="00:00:00.000" out="00:03:00.640" title="Anonymous Submission">
    <property name="length">00:03:00:17</property>
    <property name="eof">pause</property>
    <property name="resource">../../006 - Videos format youtube/Saxophone/Nathalie_saxophone_totoro.mp4</property>
    <property name="audio_index">1</property>
    <property name="video_index">0</property>
    <property name="mute_on_pause">0</property>
    <property name="mlt_service">avformat-novalidate</property>
    <property name="seekable">1</property>
    <property name="aspect_ratio">1</property>
    <property name="creation_time">2020-04-05T20:53:59</property>
    <property name="shotcut:hash">0d7f5f7f840ed30cff72366d537ba970</property>
    <property name="ignore_points">0</property>
    <property name="shotcut:caption">Nathalie_saxophone_totoro.mp4</property>
    <property name="shotcut:skipConvert">1</property>
    <property name="global_feed">1</property>
    <property name="xml">was here</property>
    <filter id="filter348" in="00:00:54.120000" out="00:00:55.320000">
      <property name="background">colour:0</property>
      <property name="mlt_service">affine</property>
      <property name="shotcut:filter">affineSizePosition</property>
      <property name="transition.fill">1</property>
      <property name="transition.distort">0</property>
      <property name="transition.rect">00:00:00.000000=1408.0 431.0 385.0 217.0 1;00:00:01.200000=576.0 324.0 768.0 432.0 1</property>
      <property name="transition.valign">top</property>
      <property name="transition.halign">left</property>
      <property name="shotcut:animIn">00:00:01.240000</property>
      <property name="shotcut:animOut">00:00:00.000</property>
      <property name="transition.threads">0</property>
    </filter>
  </producer>
  <producer id="producer199" in="00:00:00.000" out="00:03:00.640" title="Anonymous Submission">
    <property name="length">00:03:00:17</property>
    <property name="eof">pause</property>
    <property name="resource">../../006 - Videos format youtube/Saxophone/Nathalie_saxophone_totoro.mp4</property>
    <property name="audio_index">1</property>
    <property name="video_index">0</property>
    <property name="mute_on_pause">0</property>
    <property name="mlt_service">avformat-novalidate</property>
    <property name="seekable">1</property>
    <property name="aspect_ratio">1</property>
    <property name="creation_time">2020-04-05T20:53:59</property>
    <property name="shotcut:hash">0d7f5f7f840ed30cff72366d537ba970</property>
    <property name="ignore_points">0</property>
    <property name="shotcut:caption">Nathalie_saxophone_totoro.mp4</property>
    <property name="shotcut:skipConvert">1</property>
    <property name="global_feed">1</property>
    <property name="xml">was here</property>
    <filter id="filter349" in="00:00:55.360000" out="00:00:56.600000">
      <property name="background">colour:0</property>
      <property name="mlt_service">affine</property>
      <property name="shotcut:filter">affineSizePosition</property>
      <property name="transition.fill">1</property>
      <property name="transition.distort">0</property>
      <property name="transition.rect">00:00:00.000000=576.0 324.0 769.0 433.0 1;00:00:01.200000=128.0 431.0 384.0 216.0 1</property>
      <property name="transition.valign">top</property>
      <property name="transition.halign">left</property>
      <property name="shotcut:animIn">00:00:01.240000</property>
      <property name="shotcut:animOut">00:00:00.000</property>
      <property name="transition.threads">0</property>
    </filter>
  </producer>
  <producer id="producer200" in="00:00:00.000" out="00:03:00.640" title="Anonymous Submission">
    <property name="length">00:03:00:17</property>
    <property name="eof">pause</property>
    <property name="resource">../../006 - Videos format youtube/Saxophone/Nathalie_saxophone_totoro.mp4</property>
    <property name="audio_index">1</property>
    <property name="video_index">0</property>
    <property name="mute_on_pause">0</property>
    <property name="mlt_service">avformat-novalidate</property>
    <property name="seekable">1</property>
    <property name="aspect_ratio">1</property>
    <property name="creation_time">2020-04-05T20:53:59</property>
    <property name="shotcut:hash">0d7f5f7f840ed30cff72366d537ba970</property>
    <property name="ignore_points">0</property>
    <property name="shotcut:caption">Nathalie_saxophone_totoro.mp4</property>
    <property name="shotcut:skipConvert">1</property>
    <property name="global_feed">1</property>
    <property name="xml">was here</property>
    <filter id="filter350" in="00:00:56.640000" out="00:01:07.920000">
      <property name="background">colour:0</property>
      <property name="mlt_service">affine</property>
      <property name="shotcut:filter">affineSizePosition</property>
      <property name="transition.fill">1</property>
      <property name="transition.distort">0</property>
      <property name="transition.rect">00:00:00.000000=128.0 431.0 385.0 217.0 1;00:00:01.200000=-512.0 431.0 384.0 216.0 1</property>
      <property name="transition.valign">top</property>
      <property name="transition.halign">left</property>
      <property name="shotcut:animIn">00:00:01.240000</property>
      <property name="shotcut:animOut">00:00:00.000</property>
      <property name="transition.threads">0</property>
    </filter>
  </producer>
  <playlist id="playlist35">
    <property name="shotcut:video">1</property>
    <property name="shotcut:name">Nathalie_saxo2/3?</property>
    <property name="shotcut:lock">1</property>
    <blank length="00:00:29.000000" />
    <entry in="00:00:12.560000" out="00:00:51.560000" producer="producer195" />
    <entry in="00:00:51.600000" out="00:00:52.800000" producer="producer196" />
    <entry in="00:00:52.840000" out="00:00:54.080000" producer="producer197" />
    <entry in="00:00:54.120000" out="00:00:55.320000" producer="producer198" />
    <entry in="00:00:55.360000" out="00:00:56.600000" producer="producer199" />
    <entry in="00:00:56.640000" out="00:01:07.920000" producer="producer200" />
    <filter id="filter351" out="00:03:20.840">
      <property name="window">75</property>
      <property name="max_gain">20dB</property>
      <property name="level">-10</property>
      <property name="mlt_service">volume</property>
    </filter>
  </playlist>
  <producer id="producer201" in="00:00:00.000" out="00:03:20.680" title="Anonymous Submission">
    <property name="length">00:03:20:18</property>
    <property name="eof">pause</property>
    <property name="resource">../../006 - Videos format youtube/Saxophone/Chloe_saxophone_totoro_clown_recadre.mp4</property>
    <property name="audio_index">1</property>
    <property name="video_index">0</property>
    <property name="mute_on_pause">0</property>
    <property name="mlt_service">avformat-novalidate</property>
    <property name="seekable">1</property>
    <property name="aspect_ratio">1</property>
    <property name="creation_time">2020-04-12T15:45:35</property>
    <property name="shotcut:hash">93226b3e2e8f077ce38531a1c7650b73</property>
    <property name="ignore_points">0</property>
    <property name="shotcut:caption">Chloe_saxophone_totoro_clown_recadre.mp4</property>
    <property name="shotcut:skipConvert">1</property>
    <property name="global_feed">1</property>
    <property name="xml">was here</property>
    <filter id="filter352" in="00:00:29.000000" out="00:01:09.240000">
      <property name="background">colour:0</property>
      <property name="mlt_service">affine</property>
      <property name="shotcut:filter">affineSizePosition</property>
      <property name="transition.fill">1</property>
      <property name="transition.distort">0</property>
      <property name="transition.rect">-1920.0 -1080.0 1921.0 1081.0 1</property>
      <property name="transition.valign">top</property>
      <property name="transition.halign">left</property>
      <property name="shotcut:animIn">00:00:00.040000</property>
      <property name="shotcut:animOut">00:00:00.000</property>
      <property name="transition.threads">0</property>
    </filter>
    <filter id="filter353" in="00:00:29.000000" out="00:01:09.240000">
      <property name="window">75</property>
      <property name="max_gain">20dB</property>
      <property name="level">-15</property>
      <property name="mlt_service">volume</property>
    </filter>
  </producer>
  <producer id="producer202" in="00:00:00.000" out="00:03:20.680" title="Anonymous Submission">
    <property name="length">00:03:20:18</property>
    <property name="eof">pause</property>
    <property name="resource">../../006 - Videos format youtube/Saxophone/Chloe_saxophone_totoro_clown_recadre.mp4</property>
    <property name="audio_index">1</property>
    <property name="video_index">0</property>
    <property name="mute_on_pause">0</property>
    <property name="mlt_service">avformat-novalidate</property>
    <property name="seekable">1</property>
    <property name="aspect_ratio">1</property>
    <property name="creation_time">2020-04-12T15:45:35</property>
    <property name="shotcut:hash">93226b3e2e8f077ce38531a1c7650b73</property>
    <property name="ignore_points">0</property>
    <property name="shotcut:caption">Chloe_saxophone_totoro_clown_recadre.mp4</property>
    <property name="shotcut:skipConvert">1</property>
    <property name="global_feed">1</property>
    <property name="xml">was here</property>
    <filter id="filter354" in="00:01:09.280000" out="00:01:10.520000">
      <property name="background">colour:0</property>
      <property name="mlt_service">affine</property>
      <property name="shotcut:filter">affineSizePosition</property>
      <property name="transition.fill">1</property>
      <property name="transition.distort">0</property>
      <property name="transition.rect">00:00:00.000000=-1920.0 -1080.0 1922.0 1081.0 1;00:00:00.000000=2048.0 431.0 384.0 216.0 1</property>
      <property name="transition.valign">top</property>
      <property name="transition.halign">left</property>
      <property name="shotcut:animIn">00:00:00.040000</property>
      <property name="shotcut:animOut">00:00:00.000</property>
      <property name="transition.threads">0</property>
    </filter>
    <filter id="filter355" in="00:01:09.280000" out="00:01:10.520000">
      <property name="window">75</property>
      <property name="max_gain">20dB</property>
      <property name="level">-15</property>
      <property name="mlt_service">volume</property>
    </filter>
  </producer>
  <producer id="producer203" in="00:00:00.000" out="00:03:20.680" title="Anonymous Submission">
    <property name="length">00:03:20:18</property>
    <property name="eof">pause</property>
    <property name="resource">../../006 - Videos format youtube/Saxophone/Chloe_saxophone_totoro_clown_recadre.mp4</property>
    <property name="audio_index">1</property>
    <property name="video_index">0</property>
    <property name="mute_on_pause">0</property>
    <property name="mlt_service">avformat-novalidate</property>
    <property name="seekable">1</property>
    <property name="aspect_ratio">1</property>
    <property name="creation_time">2020-04-12T15:45:35</property>
    <property name="shotcut:hash">93226b3e2e8f077ce38531a1c7650b73</property>
    <property name="ignore_points">0</property>
    <property name="shotcut:caption">Chloe_saxophone_totoro_clown_recadre.mp4</property>
    <property name="shotcut:skipConvert">1</property>
    <property name="global_feed">1</property>
    <property name="xml">was here</property>
    <filter id="filter356" in="00:01:10.560000" out="00:01:11.760000">
      <property name="background">colour:0</property>
      <property name="mlt_service">affine</property>
      <property name="shotcut:filter">affineSizePosition</property>
      <property name="transition.fill">1</property>
      <property name="transition.distort">0</property>
      <property name="transition.rect">00:00:00.000000=2048.0 431.0 385.0 217.0 1;00:00:01.200000=1408.0 431.0 384.0 216.0 1</property>
      <property name="transition.valign">top</property>
      <property name="transition.halign">left</property>
      <property name="shotcut:animIn">00:00:01.240000</property>
      <property name="shotcut:animOut">00:00:00.000</property>
      <property name="transition.threads">0</property>
    </filter>
    <filter id="filter357" in="00:01:10.560000" out="00:01:11.760000">
      <property name="window">75</property>
      <property name="max_gain">20dB</property>
      <property name="level">-15</property>
      <property name="mlt_service">volume</property>
    </filter>
  </producer>
  <producer id="producer204" in="00:00:00.000" out="00:03:20.680" title="Anonymous Submission">
    <property name="length">00:03:20:18</property>
    <property name="eof">pause</property>
    <property name="resource">../../006 - Videos format youtube/Saxophone/Chloe_saxophone_totoro_clown_recadre.mp4</property>
    <property name="audio_index">1</property>
    <property name="video_index">0</property>
    <property name="mute_on_pause">0</property>
    <property name="mlt_service">avformat-novalidate</property>
    <property name="seekable">1</property>
    <property name="aspect_ratio">1</property>
    <property name="creation_time">2020-04-12T15:45:35</property>
    <property name="shotcut:hash">93226b3e2e8f077ce38531a1c7650b73</property>
    <property name="ignore_points">0</property>
    <property name="shotcut:caption">Chloe_saxophone_totoro_clown_recadre.mp4</property>
    <property name="shotcut:skipConvert">1</property>
    <property name="global_feed">1</property>
    <property name="xml">was here</property>
    <filter id="filter358" in="00:01:11.800000" out="00:01:13.040000">
      <property name="background">colour:0</property>
      <property name="mlt_service">affine</property>
      <property name="shotcut:filter">affineSizePosition</property>
      <property name="transition.fill">1</property>
      <property name="transition.distort">0</property>
      <property name="transition.rect">00:00:00.000000=1408.0 431.0 385.0 217.0 1;00:00:01.200000=576.0 324.0 768.0 432.0 1</property>
      <property name="transition.valign">top</property>
      <property name="transition.halign">left</property>
      <property name="shotcut:animIn">00:00:01.240000</property>
      <property name="shotcut:animOut">00:00:00.000</property>
      <property name="transition.threads">0</property>
    </filter>
    <filter id="filter359" in="00:01:11.800000" out="00:01:13.040000">
      <property name="window">75</property>
      <property name="max_gain">20dB</property>
      <property name="level">-15</property>
      <property name="mlt_service">volume</property>
    </filter>
  </producer>
  <producer id="producer205" in="00:00:00.000" out="00:03:20.680" title="Anonymous Submission">
    <property name="length">00:03:20:18</property>
    <property name="eof">pause</property>
    <property name="resource">../../006 - Videos format youtube/Saxophone/Chloe_saxophone_totoro_clown_recadre.mp4</property>
    <property name="audio_index">1</property>
    <property name="video_index">0</property>
    <property name="mute_on_pause">0</property>
    <property name="mlt_service">avformat-novalidate</property>
    <property name="seekable">1</property>
    <property name="aspect_ratio">1</property>
    <property name="creation_time">2020-04-12T15:45:35</property>
    <property name="shotcut:hash">93226b3e2e8f077ce38531a1c7650b73</property>
    <property name="ignore_points">0</property>
    <property name="shotcut:caption">Chloe_saxophone_totoro_clown_recadre.mp4</property>
    <property name="shotcut:skipConvert">1</property>
    <property name="global_feed">1</property>
    <property name="xml">was here</property>
    <filter id="filter360" in="00:01:13.080000" out="00:01:14.280000">
      <property name="background">colour:0</property>
      <property name="mlt_service">affine</property>
      <property name="shotcut:filter">affineSizePosition</property>
      <property name="transition.fill">1</property>
      <property name="transition.distort">0</property>
      <property name="transition.rect">00:00:00.000000=576.0 324.0 769.0 433.0 1;00:00:01.200000=128.0 431.0 384.0 216.0 1</property>
      <property name="transition.valign">top</property>
      <property name="transition.halign">left</property>
      <property name="shotcut:animIn">00:00:01.240000</property>
      <property name="shotcut:animOut">00:00:00.000</property>
      <property name="transition.threads">0</property>
    </filter>
    <filter id="filter361" in="00:01:13.080000" out="00:01:14.280000">
      <property name="window">75</property>
      <property name="max_gain">20dB</property>
      <property name="level">-15</property>
      <property name="mlt_service">volume</property>
    </filter>
  </producer>
  <producer id="producer206" in="00:00:00.000" out="00:03:20.680" title="Anonymous Submission">
    <property name="length">00:03:20:18</property>
    <property name="eof">pause</property>
    <property name="resource">../../006 - Videos format youtube/Saxophone/Chloe_saxophone_totoro_clown_recadre.mp4</property>
    <property name="audio_index">1</property>
    <property name="video_index">0</property>
    <property name="mute_on_pause">0</property>
    <property name="mlt_service">avformat-novalidate</property>
    <property name="seekable">1</property>
    <property name="aspect_ratio">1</property>
    <property name="creation_time">2020-04-12T15:45:35</property>
    <property name="shotcut:hash">93226b3e2e8f077ce38531a1c7650b73</property>
    <property name="ignore_points">0</property>
    <property name="shotcut:caption">Chloe_saxophone_totoro_clown_recadre.mp4</property>
    <property name="shotcut:skipConvert">1</property>
    <property name="global_feed">1</property>
    <property name="xml">was here</property>
    <filter id="filter362" in="00:01:14.320000" out="00:01:24.360000">
      <property name="background">colour:0</property>
      <property name="mlt_service">affine</property>
      <property name="shotcut:filter">affineSizePosition</property>
      <property name="transition.fill">1</property>
      <property name="transition.distort">0</property>
      <property name="transition.rect">00:00:00.000000=128.0 431.0 385.0 217.0 1;00:00:01.200000=-512.0 431.0 384.0 216.0 1</property>
      <property name="transition.valign">top</property>
      <property name="transition.halign">left</property>
      <property name="shotcut:animIn">00:00:01.240000</property>
      <property name="shotcut:animOut">00:00:00.000</property>
      <property name="transition.threads">0</property>
    </filter>
    <filter id="filter363" in="00:01:14.320000" out="00:01:24.360000">
      <property name="window">75</property>
      <property name="max_gain">20dB</property>
      <property name="level">-15</property>
      <property name="mlt_service">volume</property>
    </filter>
  </producer>
  <playlist id="playlist36">
    <blank length="00:00:29.000000" /><property name="shotcut:video">1</property>
    <property name="shotcut:name">Chloe recadre</property>
    <property name="shotcut:lock">1</property>
    <entry in="00:00:29.000000" out="00:01:09.240000" producer="producer201" />
  <entry in="00:01:09.280000" out="00:01:10.520000" producer="producer202" />
  <entry in="00:01:10.560000" out="00:01:11.760000" producer="producer203" />
  <entry in="00:01:11.800000" out="00:01:13.040000" producer="producer204" />
  <entry in="00:01:13.080000" out="00:01:14.280000" producer="producer205" />
  <entry in="00:01:14.320000" out="00:01:24.360000" producer="producer206" />
  </playlist>
  <producer id="producer207" in="00:00:00.000" out="00:03:16.680" title="Anonymous Submission">
    <property name="length">00:03:16:18</property>
    <property name="eof">pause</property>
    <property name="resource">../../006 - Videos format youtube/Trombone/Camille_trombone_totoro.mp4</property>
    <property name="audio_index">1</property>
    <property name="video_index">0</property>
    <property name="mute_on_pause">0</property>
    <property name="mlt_service">avformat-novalidate</property>
    <property name="seekable">1</property>
    <property name="aspect_ratio">1</property>
    <property name="creation_time">2020-04-09T17:56:38</property>
    <property name="shotcut:hash">6322ebba469dd48f4d62f48f0e58e722</property>
    <property name="ignore_points">0</property>
    <property name="shotcut:caption">Camille_trombone_totoro.mp4</property>
    <property name="shotcut:skipConvert">1</property>
    <property name="global_feed">1</property>
    <property name="xml">was here</property>
    <filter id="filter364" in="00:00:19.960000" out="00:01:15.320000">
      <property name="background">colour:0</property>
      <property name="mlt_service">affine</property>
      <property name="shotcut:filter">affineSizePosition</property>
      <property name="transition.fill">1</property>
      <property name="transition.distort">0</property>
      <property name="transition.rect">-1920.0 -1080.0 1921.0 1081.0 1</property>
      <property name="transition.valign">top</property>
      <property name="transition.halign">left</property>
      <property name="shotcut:animIn">00:00:00.040000</property>
      <property name="shotcut:animOut">00:00:00.000</property>
      <property name="transition.threads">0</property>
    </filter>
    <filter id="filter365" in="00:00:19.960000" out="00:01:15.320000">
      <property name="window">75</property>
      <property name="max_gain">20dB</property>
      <property name="mlt_service">volume</property>
      <property name="shotcut:filter">muteVolume</property>
      <property name="gain">0</property>
    </filter>
  </producer>
  <playlist id="playlist37">
    <property name="shotcut:video">1</property>
    <property name="shotcut:name">Camille_trombone</property>
    <property name="shotcut:lock">1</property>
    <blank length="00:00:29.000000" />
    <entry in="00:00:19.960000" out="00:01:15.320000" producer="producer207" />
    <filter id="filter366" out="00:05:41.880">
      <property name="window">75</property>
      <property name="max_gain">20dB</property>
      <property name="level">-10</property>
      <property name="mlt_service">volume</property>
    </filter>
  </playlist>
  <producer id="producer208" in="00:00:00.000" out="00:03:18.320" title="Anonymous Submission">
    <property name="length">00:03:18:09</property>
    <property name="eof">pause</property>
    <property name="resource">../../006 - Videos format youtube/Trombone/Cecile_trombone_totoro.mp4</property>
    <property name="audio_index">1</property>
    <property name="video_index">0</property>
    <property name="mute_on_pause">0</property>
    <property name="mlt_service">avformat-novalidate</property>
    <property name="seekable">1</property>
    <property name="aspect_ratio">1</property>
    <property name="creation_time">2020-04-19T16:42:14</property>
    <property name="shotcut:hash">c7c2345077b92c636ec8da26a84f18d5</property>
    <property name="ignore_points">0</property>
    <property name="shotcut:caption">Cecile_trombone_totoro.mp4</property>
    <property name="shotcut:skipConvert">1</property>
    <property name="global_feed">1</property>
    <property name="xml">was here</property>
    <filter id="filter367" in="00:00:28.480000" out="00:01:10.000000">
      <property name="background">colour:0</property>
      <property name="mlt_service">affine</property>
      <property name="shotcut:filter">affineSizePosition</property>
      <property name="transition.fill">1</property>
      <property name="transition.distort">0</property>
      <property name="transition.rect">-1920.0 -1080.0 1921.0 1081.0 1</property>
      <property name="transition.valign">top</property>
      <property name="transition.halign">left</property>
      <property name="shotcut:animIn">00:00:00.040000</property>
      <property name="shotcut:animOut">00:00:00.000</property>
      <property name="transition.threads">0</property>
    </filter>
    <filter id="filter368" in="00:00:28.480000" out="00:01:10.000000">
      <property name="window">75</property>
      <property name="max_gain">20dB</property>
      <property name="mlt_service">volume</property>
      <property name="shotcut:filter">muteVolume</property>
      <property name="gain">0</property>
    </filter>
  </producer>
  <producer id="producer209" in="00:00:00.000" out="00:03:18.320" title="Anonymous Submission">
    <property name="length">00:03:18:09</property>
    <property name="eof">pause</property>
    <property name="resource">../../006 - Videos format youtube/Trombone/Cecile_trombone_totoro.mp4</property>
    <property name="audio_index">1</property>
    <property name="video_index">0</property>
    <property name="mute_on_pause">0</property>
    <property name="mlt_service">avformat-novalidate</property>
    <property name="seekable">1</property>
    <property name="aspect_ratio">1</property>
    <property name="creation_time">2020-04-19T16:42:14</property>
    <property name="shotcut:hash">c7c2345077b92c636ec8da26a84f18d5</property>
    <property name="ignore_points">0</property>
    <property name="shotcut:caption">Cecile_trombone_totoro.mp4</property>
    <property name="shotcut:skipConvert">1</property>
    <property name="global_feed">1</property>
    <property name="xml">was here</property>
    <filter id="filter369" in="00:01:10.040000" out="00:01:11.240000">
      <property name="background">colour:0</property>
      <property name="mlt_service">affine</property>
      <property name="shotcut:filter">affineSizePosition</property>
      <property name="transition.fill">1</property>
      <property name="transition.distort">0</property>
      <property name="transition.rect">00:00:00.000000=-1920.0 -1080.0 1922.0 1081.0 1;00:00:00.000000=2048.0 431.0 384.0 216.0 1</property>
      <property name="transition.valign">top</property>
      <property name="transition.halign">left</property>
      <property name="shotcut:animIn">00:00:00.040000</property>
      <property name="shotcut:animOut">00:00:00.000</property>
      <property name="transition.threads">0</property>
    </filter>
    <filter id="filter370" in="00:01:10.040000" out="00:01:11.240000">
      <property name="window">75</property>
      <property name="max_gain">20dB</property>
      <property name="mlt_service">volume</property>
      <property name="shotcut:filter">muteVolume</property>
      <property name="gain">0</property>
    </filter>
  </producer>
  <producer id="producer210" in="00:00:00.000" out="00:03:18.320" title="Anonymous Submission">
    <property name="length">00:03:18:09</property>
    <property name="eof">pause</property>
    <property name="resource">../../006 - Videos format youtube/Trombone/Cecile_trombone_totoro.mp4</property>
    <property name="audio_index">1</property>
    <property name="video_index">0</property>
    <property name="mute_on_pause">0</property>
    <property name="mlt_service">avformat-novalidate</property>
    <property name="seekable">1</property>
    <property name="aspect_ratio">1</property>
    <property name="creation_time">2020-04-19T16:42:14</property>
    <property name="shotcut:hash">c7c2345077b92c636ec8da26a84f18d5</property>
    <property name="ignore_points">0</property>
    <property name="shotcut:caption">Cecile_trombone_totoro.mp4</property>
    <property name="shotcut:skipConvert">1</property>
    <property name="global_feed">1</property>
    <property name="xml">was here</property>
    <filter id="filter371" in="00:01:11.280000" out="00:01:12.520000">
      <property name="background">colour:0</property>
      <property name="mlt_service">affine</property>
      <property name="shotcut:filter">affineSizePosition</property>
      <property name="transition.fill">1</property>
      <property name="transition.distort">0</property>
      <property name="transition.rect">00:00:00.000000=2048.0 431.0 385.0 217.0 1;00:00:01.200000=1408.0 431.0 384.0 216.0 1</property>
      <property name="transition.valign">top</property>
      <property name="transition.halign">left</property>
      <property name="shotcut:animIn">00:00:01.240000</property>
      <property name="shotcut:animOut">00:00:00.000</property>
      <property name="transition.threads">0</property>
    </filter>
    <filter id="filter372" in="00:01:11.280000" out="00:01:12.520000">
      <property name="window">75</property>
      <property name="max_gain">20dB</property>
      <property name="mlt_service">volume</property>
      <property name="shotcut:filter">muteVolume</property>
      <property name="gain">0</property>
    </filter>
  </producer>
  <producer id="producer211" in="00:00:00.000" out="00:03:18.320" title="Anonymous Submission">
    <property name="length">00:03:18:09</property>
    <property name="eof">pause</property>
    <property name="resource">../../006 - Videos format youtube/Trombone/Cecile_trombone_totoro.mp4</property>
    <property name="audio_index">1</property>
    <property name="video_index">0</property>
    <property name="mute_on_pause">0</property>
    <property name="mlt_service">avformat-novalidate</property>
    <property name="seekable">1</property>
    <property name="aspect_ratio">1</property>
    <property name="creation_time">2020-04-19T16:42:14</property>
    <property name="shotcut:hash">c7c2345077b92c636ec8da26a84f18d5</property>
    <property name="ignore_points">0</property>
    <property name="shotcut:caption">Cecile_trombone_totoro.mp4</property>
    <property name="shotcut:skipConvert">1</property>
    <property name="global_feed">1</property>
    <property name="xml">was here</property>
    <filter id="filter373" in="00:01:12.560000" out="00:01:13.760000">
      <property name="background">colour:0</property>
      <property name="mlt_service">affine</property>
      <property name="shotcut:filter">affineSizePosition</property>
      <property name="transition.fill">1</property>
      <property name="transition.distort">0</property>
      <property name="transition.rect">00:00:00.000000=1408.0 431.0 385.0 217.0 1;00:00:01.200000=576.0 324.0 768.0 432.0 1</property>
      <property name="transition.valign">top</property>
      <property name="transition.halign">left</property>
      <property name="shotcut:animIn">00:00:01.240000</property>
      <property name="shotcut:animOut">00:00:00.000</property>
      <property name="transition.threads">0</property>
    </filter>
    <filter id="filter374" in="00:01:12.560000" out="00:01:13.760000">
      <property name="window">75</property>
      <property name="max_gain">20dB</property>
      <property name="mlt_service">volume</property>
      <property name="shotcut:filter">muteVolume</property>
      <property name="gain">0</property>
    </filter>
  </producer>
  <producer id="producer212" in="00:00:00.000" out="00:03:18.320" title="Anonymous Submission">
    <property name="length">00:03:18:09</property>
    <property name="eof">pause</property>
    <property name="resource">../../006 - Videos format youtube/Trombone/Cecile_trombone_totoro.mp4</property>
    <property name="audio_index">1</property>
    <property name="video_index">0</property>
    <property name="mute_on_pause">0</property>
    <property name="mlt_service">avformat-novalidate</property>
    <property name="seekable">1</property>
    <property name="aspect_ratio">1</property>
    <property name="creation_time">2020-04-19T16:42:14</property>
    <property name="shotcut:hash">c7c2345077b92c636ec8da26a84f18d5</property>
    <property name="ignore_points">0</property>
    <property name="shotcut:caption">Cecile_trombone_totoro.mp4</property>
    <property name="shotcut:skipConvert">1</property>
    <property name="global_feed">1</property>
    <property name="xml">was here</property>
    <filter id="filter375" in="00:01:13.800000" out="00:01:15.000000">
      <property name="background">colour:0</property>
      <property name="mlt_service">affine</property>
      <property name="shotcut:filter">affineSizePosition</property>
      <property name="transition.fill">1</property>
      <property name="transition.distort">0</property>
      <property name="transition.rect">00:00:00.000000=576.0 324.0 769.0 433.0 1;00:00:01.200000=128.0 431.0 384.0 216.0 1</property>
      <property name="transition.valign">top</property>
      <property name="transition.halign">left</property>
      <property name="shotcut:animIn">00:00:01.240000</property>
      <property name="shotcut:animOut">00:00:00.000</property>
      <property name="transition.threads">0</property>
    </filter>
    <filter id="filter376" in="00:01:13.800000" out="00:01:15.000000">
      <property name="window">75</property>
      <property name="max_gain">20dB</property>
      <property name="mlt_service">volume</property>
      <property name="shotcut:filter">muteVolume</property>
      <property name="gain">0</property>
    </filter>
  </producer>
  <producer id="producer213" in="00:00:00.000" out="00:03:18.320" title="Anonymous Submission">
    <property name="length">00:03:18:09</property>
    <property name="eof">pause</property>
    <property name="resource">../../006 - Videos format youtube/Trombone/Cecile_trombone_totoro.mp4</property>
    <property name="audio_index">1</property>
    <property name="video_index">0</property>
    <property name="mute_on_pause">0</property>
    <property name="mlt_service">avformat-novalidate</property>
    <property name="seekable">1</property>
    <property name="aspect_ratio">1</property>
    <property name="creation_time">2020-04-19T16:42:14</property>
    <property name="shotcut:hash">c7c2345077b92c636ec8da26a84f18d5</property>
    <property name="ignore_points">0</property>
    <property name="shotcut:caption">Cecile_trombone_totoro.mp4</property>
    <property name="shotcut:skipConvert">1</property>
    <property name="global_feed">1</property>
    <property name="xml">was here</property>
    <filter id="filter377" in="00:01:15.040000" out="00:01:23.840000">
      <property name="background">colour:0</property>
      <property name="mlt_service">affine</property>
      <property name="shotcut:filter">affineSizePosition</property>
      <property name="transition.fill">1</property>
      <property name="transition.distort">0</property>
      <property name="transition.rect">00:00:00.000000=128.0 431.0 385.0 217.0 1;00:00:01.200000=-512.0 431.0 384.0 216.0 1</property>
      <property name="transition.valign">top</property>
      <property name="transition.halign">left</property>
      <property name="shotcut:animIn">00:00:01.240000</property>
      <property name="shotcut:animOut">00:00:00.000</property>
      <property name="transition.threads">0</property>
    </filter>
    <filter id="filter378" in="00:01:15.040000" out="00:01:23.840000">
      <property name="window">75</property>
      <property name="max_gain">20dB</property>
      <property name="mlt_service">volume</property>
      <property name="shotcut:filter">muteVolume</property>
      <property name="gain">0</property>
    </filter>
  </producer>
  <playlist id="playlist38">
    <property name="shotcut:video">1</property>
    <property name="shotcut:name">Cecile</property>
    <property name="shotcut:lock">1</property>
    <blank length="00:00:29.000000" />
    <entry in="00:00:28.480000" out="00:01:10.000000" producer="producer208" />
    <entry in="00:01:10.040000" out="00:01:11.240000" producer="producer209" />
    <entry in="00:01:11.280000" out="00:01:12.520000" producer="producer210" />
    <entry in="00:01:12.560000" out="00:01:13.760000" producer="producer211" />
    <entry in="00:01:13.800000" out="00:01:15.000000" producer="producer212" />
    <entry in="00:01:15.040000" out="00:01:23.840000" producer="producer213" />
    <filter id="filter379" out="00:05:41.880">
      <property name="window">75</property>
      <property name="max_gain">20dB</property>
      <property name="level">-10</property>
      <property name="mlt_service">volume</property>
    </filter>
  </playlist>
  <producer id="producer214" in="00:00:00.000" out="00:03:25.760" title="Anonymous Submission">
    <property name="length">00:03:25.800</property>
    <property name="eof">pause</property>
    <property name="resource">../../006 - Videos format youtube/Trombone/daniel_trombonne_recadre.mp4</property>
    <property name="audio_index">1</property>
    <property name="video_index">0</property>
    <property name="mute_on_pause">0</property>
    <property name="mlt_service">avformat-novalidate</property>
    <property name="seekable">1</property>
    <property name="aspect_ratio">1</property>
    <property name="creation_time">2020-05-03T08:10:04</property>
    <property name="shotcut:hash">de43792e7531d555f05e5239ba522e38</property>
    <property name="ignore_points">0</property>
    <property name="shotcut:caption">daniel_trombonne_recadre.mp4</property>
    <property name="shotcut:skipConvert">1</property>
    <property name="global_feed">1</property>
    <property name="xml">was here</property>
    <filter id="filter380" in="00:00:29.000000" out="00:01:11.760000">
      <property name="background">colour:0</property>
      <property name="mlt_service">affine</property>
      <property name="shotcut:filter">affineSizePosition</property>
      <property name="transition.fill">1</property>
      <property name="transition.distort">0</property>
      <property name="transition.rect">-1920.0 -1080.0 1921.0 1081.0 1</property>
      <property name="transition.valign">top</property>
      <property name="transition.halign">left</property>
      <property name="shotcut:animIn">00:00:00.040000</property>
      <property name="shotcut:animOut">00:00:00.000</property>
      <property name="transition.threads">0</property>
    </filter>
  </producer>
  <producer id="producer215" in="00:00:00.000" out="00:03:25.760" title="Anonymous Submission">
    <property name="length">00:03:25.800</property>
    <property name="eof">pause</property>
    <property name="resource">../../006 - Videos format youtube/Trombone/daniel_trombonne_recadre.mp4</property>
    <property name="audio_index">1</property>
    <property name="video_index">0</property>
    <property name="mute_on_pause">0</property>
    <property name="mlt_service">avformat-novalidate</property>
    <property name="seekable">1</property>
    <property name="aspect_ratio">1</property>
    <property name="creation_time">2020-05-03T08:10:04</property>
    <property name="shotcut:hash">de43792e7531d555f05e5239ba522e38</property>
    <property name="ignore_points">0</property>
    <property name="shotcut:caption">daniel_trombonne_recadre.mp4</property>
    <property name="shotcut:skipConvert">1</property>
    <property name="global_feed">1</property>
    <property name="xml">was here</property>
    <filter id="filter381" in="00:01:11.800000" out="00:01:13.040000">
      <property name="background">colour:0</property>
      <property name="mlt_service">affine</property>
      <property name="shotcut:filter">affineSizePosition</property>
      <property name="transition.fill">1</property>
      <property name="transition.distort">0</property>
      <property name="transition.rect">00:00:00.000000=-1920.0 -1080.0 1922.0 1081.0 1;00:00:00.000000=2048.0 431.0 384.0 216.0 1</property>
      <property name="transition.valign">top</property>
      <property name="transition.halign">left</property>
      <property name="shotcut:animIn">00:00:00.040000</property>
      <property name="shotcut:animOut">00:00:00.000</property>
      <property name="transition.threads">0</property>
    </filter>
  </producer>
  <producer id="producer216" in="00:00:00.000" out="00:03:25.760" title="Anonymous Submission">
    <property name="length">00:03:25.800</property>
    <property name="eof">pause</property>
    <property name="resource">../../006 - Videos format youtube/Trombone/daniel_trombonne_recadre.mp4</property>
    <property name="audio_index">1</property>
    <property name="video_index">0</property>
    <property name="mute_on_pause">0</property>
    <property name="mlt_service">avformat-novalidate</property>
    <property name="seekable">1</property>
    <property name="aspect_ratio">1</property>
    <property name="creation_time">2020-05-03T08:10:04</property>
    <property name="shotcut:hash">de43792e7531d555f05e5239ba522e38</property>
    <property name="ignore_points">0</property>
    <property name="shotcut:caption">daniel_trombonne_recadre.mp4</property>
    <property name="shotcut:skipConvert">1</property>
    <property name="global_feed">1</property>
    <property name="xml">was here</property>
    <filter id="filter382" in="00:01:13.080000" out="00:01:14.280000">
      <property name="background">colour:0</property>
      <property name="mlt_service">affine</property>
      <property name="shotcut:filter">affineSizePosition</property>
      <property name="transition.fill">1</property>
      <property name="transition.distort">0</property>
      <property name="transition.rect">00:00:00.000000=2048.0 431.0 385.0 217.0 1;00:00:01.200000=1408.0 431.0 384.0 216.0 1</property>
      <property name="transition.valign">top</property>
      <property name="transition.halign">left</property>
      <property name="shotcut:animIn">00:00:01.240000</property>
      <property name="shotcut:animOut">00:00:00.000</property>
      <property name="transition.threads">0</property>
    </filter>
  </producer>
  <producer id="producer217" in="00:00:00.000" out="00:03:25.760" title="Anonymous Submission">
    <property name="length">00:03:25.800</property>
    <property name="eof">pause</property>
    <property name="resource">../../006 - Videos format youtube/Trombone/daniel_trombonne_recadre.mp4</property>
    <property name="audio_index">1</property>
    <property name="video_index">0</property>
    <property name="mute_on_pause">0</property>
    <property name="mlt_service">avformat-novalidate</property>
    <property name="seekable">1</property>
    <property name="aspect_ratio">1</property>
    <property name="creation_time">2020-05-03T08:10:04</property>
    <property name="shotcut:hash">de43792e7531d555f05e5239ba522e38</property>
    <property name="ignore_points">0</property>
    <property name="shotcut:caption">daniel_trombonne_recadre.mp4</property>
    <property name="shotcut:skipConvert">1</property>
    <property name="global_feed">1</property>
    <property name="xml">was here</property>
    <filter id="filter383" in="00:01:14.320000" out="00:01:15.520000">
      <property name="background">colour:0</property>
      <property name="mlt_service">affine</property>
      <property name="shotcut:filter">affineSizePosition</property>
      <property name="transition.fill">1</property>
      <property name="transition.distort">0</property>
      <property name="transition.rect">00:00:00.000000=1408.0 431.0 385.0 217.0 1;00:00:01.200000=576.0 324.0 768.0 432.0 1</property>
      <property name="transition.valign">top</property>
      <property name="transition.halign">left</property>
      <property name="shotcut:animIn">00:00:01.240000</property>
      <property name="shotcut:animOut">00:00:00.000</property>
      <property name="transition.threads">0</property>
    </filter>
  </producer>
  <producer id="producer218" in="00:00:00.000" out="00:03:25.760" title="Anonymous Submission">
    <property name="length">00:03:25.800</property>
    <property name="eof">pause</property>
    <property name="resource">../../006 - Videos format youtube/Trombone/daniel_trombonne_recadre.mp4</property>
    <property name="audio_index">1</property>
    <property name="video_index">0</property>
    <property name="mute_on_pause">0</property>
    <property name="mlt_service">avformat-novalidate</property>
    <property name="seekable">1</property>
    <property name="aspect_ratio">1</property>
    <property name="creation_time">2020-05-03T08:10:04</property>
    <property name="shotcut:hash">de43792e7531d555f05e5239ba522e38</property>
    <property name="ignore_points">0</property>
    <property name="shotcut:caption">daniel_trombonne_recadre.mp4</property>
    <property name="shotcut:skipConvert">1</property>
    <property name="global_feed">1</property>
    <property name="xml">was here</property>
    <filter id="filter384" in="00:01:15.560000" out="00:01:16.800000">
      <property name="background">colour:0</property>
      <property name="mlt_service">affine</property>
      <property name="shotcut:filter">affineSizePosition</property>
      <property name="transition.fill">1</property>
      <property name="transition.distort">0</property>
      <property name="transition.rect">00:00:00.000000=576.0 324.0 769.0 433.0 1;00:00:01.200000=128.0 431.0 384.0 216.0 1</property>
      <property name="transition.valign">top</property>
      <property name="transition.halign">left</property>
      <property name="shotcut:animIn">00:00:01.240000</property>
      <property name="shotcut:animOut">00:00:00.000</property>
      <property name="transition.threads">0</property>
    </filter>
  </producer>
  <producer id="producer219" in="00:00:00.000" out="00:03:25.760" title="Anonymous Submission">
    <property name="length">00:03:25.800</property>
    <property name="eof">pause</property>
    <property name="resource">../../006 - Videos format youtube/Trombone/daniel_trombonne_recadre.mp4</property>
    <property name="audio_index">1</property>
    <property name="video_index">0</property>
    <property name="mute_on_pause">0</property>
    <property name="mlt_service">avformat-novalidate</property>
    <property name="seekable">1</property>
    <property name="aspect_ratio">1</property>
    <property name="creation_time">2020-05-03T08:10:04</property>
    <property name="shotcut:hash">de43792e7531d555f05e5239ba522e38</property>
    <property name="ignore_points">0</property>
    <property name="shotcut:caption">daniel_trombonne_recadre.mp4</property>
    <property name="shotcut:skipConvert">1</property>
    <property name="global_feed">1</property>
    <property name="xml">was here</property>
    <filter id="filter385" in="00:01:16.840000" out="00:01:24.360000">
      <property name="background">colour:0</property>
      <property name="mlt_service">affine</property>
      <property name="shotcut:filter">affineSizePosition</property>
      <property name="transition.fill">1</property>
      <property name="transition.distort">0</property>
      <property name="transition.rect">00:00:00.000000=128.0 431.0 385.0 217.0 1;00:00:01.200000=-512.0 431.0 384.0 216.0 1</property>
      <property name="transition.valign">top</property>
      <property name="transition.halign">left</property>
      <property name="shotcut:animIn">00:00:01.240000</property>
      <property name="shotcut:animOut">00:00:00.000</property>
      <property name="transition.threads">0</property>
    </filter>
  </producer>
  <playlist id="playlist39">
    <blank length="00:00:29.000000" /><property name="shotcut:video">1</property>
    <property name="shotcut:name">V5</property>
    <entry in="00:00:29.000000" out="00:01:11.760000" producer="producer214" />
  <entry in="00:01:11.800000" out="00:01:13.040000" producer="producer215" />
  <entry in="00:01:13.080000" out="00:01:14.280000" producer="producer216" />
  <entry in="00:01:14.320000" out="00:01:15.520000" producer="producer217" />
  <entry in="00:01:15.560000" out="00:01:16.800000" producer="producer218" />
  <entry in="00:01:16.840000" out="00:01:24.360000" producer="producer219" />
  </playlist>
  <producer id="producer220" in="00:00:00.000" out="00:03:41.040" title="Anonymous Submission">
    <property name="length">00:03:41:02</property>
    <property name="eof">pause</property>
    <property name="resource">../../006 - Videos format youtube/Trompettes et cornets/Bidou_cornet_totoro.mp4</property>
    <property name="audio_index">1</property>
    <property name="video_index">0</property>
    <property name="mute_on_pause">0</property>
    <property name="mlt_service">avformat-novalidate</property>
    <property name="seekable">1</property>
    <property name="aspect_ratio">1</property>
    <property name="creation_time">2020-04-05T19:25:31</property>
    <property name="shotcut:hash">df47beb18305e9051d91b2aae87978a4</property>
    <property name="ignore_points">0</property>
    <property name="shotcut:caption">Bidou_cornet_totoro.mp4</property>
    <property name="shotcut:skipConvert">1</property>
    <property name="global_feed">1</property>
    <property name="xml">was here</property>
    <filter id="filter386" in="00:00:49.120000" out="00:01:44.480000">
      <property name="background">colour:0</property>
      <property name="mlt_service">affine</property>
      <property name="shotcut:filter">affineSizePosition</property>
      <property name="transition.fill">1</property>
      <property name="transition.distort">0</property>
      <property name="transition.rect">-1920.0 -1080.0 1921.0 1081.0 1</property>
      <property name="transition.valign">top</property>
      <property name="transition.halign">left</property>
      <property name="shotcut:animIn">00:00:00.040000</property>
      <property name="shotcut:animOut">00:00:00.000</property>
      <property name="transition.threads">0</property>
    </filter>
    <filter id="filter387" in="00:00:49.120000" out="00:01:44.480000">
      <property name="window">75</property>
      <property name="max_gain">20dB</property>
      <property name="mlt_service">volume</property>
      <property name="shotcut:filter">muteVolume</property>
      <property name="gain">0</property>
    </filter>
  </producer>
  <playlist id="playlist40">
    <property name="shotcut:video">1</property>
    <property name="shotcut:name">Bidou_cornet</property>
    <property name="shotcut:lock">1</property>
    <blank length="00:00:29.000000" />
    <entry in="00:00:49.120000" out="00:01:44.480000" producer="producer220" />
    <filter id="filter388" out="00:03:24.360">
      <property name="window">75</property>
      <property name="max_gain">20dB</property>
      <property name="level">-11</property>
      <property name="mlt_service">volume</property>
    </filter>
  </playlist>
  <producer id="producer221" in="00:00:00.000" out="00:03:02.520" title="Anonymous Submission">
    <property name="length">00:03:02:14</property>
    <property name="eof">pause</property>
    <property name="resource">../../006 - Videos format youtube/Trompettes et cornets/Serge_trompette_totoro.mp4</property>
    <property name="audio_index">1</property>
    <property name="video_index">0</property>
    <property name="mute_on_pause">0</property>
    <property name="mlt_service">avformat-novalidate</property>
    <property name="seekable">1</property>
    <property name="aspect_ratio">1</property>
    <property name="creation_time">2020-04-12T19:40:43</property>
    <property name="shotcut:hash">8ef8fab703d506ba08497a54257ebc1e</property>
    <property name="ignore_points">0</property>
    <property name="shotcut:caption">Serge_trompette_totoro.mp4</property>
    <property name="shotcut:skipConvert">1</property>
    <property name="global_feed">1</property>
    <property name="xml">was here</property>
    <filter id="filter389" in="00:00:14.320000" out="00:01:09.680000">
      <property name="background">colour:0</property>
      <property name="mlt_service">affine</property>
      <property name="shotcut:filter">affineSizePosition</property>
      <property name="transition.fill">1</property>
      <property name="transition.distort">0</property>
      <property name="transition.rect">-1920.0 -1080.0 1921.0 1081.0 1</property>
      <property name="transition.valign">top</property>
      <property name="transition.halign">left</property>
      <property name="shotcut:animIn">00:00:00.040000</property>
      <property name="shotcut:animOut">00:00:00.000</property>
      <property name="transition.threads">0</property>
    </filter>
    <filter id="filter390" in="00:00:14.320000" out="00:01:09.680000">
      <property name="window">75</property>
      <property name="max_gain">20dB</property>
      <property name="level">-8</property>
      <property name="mlt_service">volume</property>
    </filter>
    <filter id="filter391" in="00:00:14.320000" out="00:01:09.680000">
      <property name="window">75</property>
      <property name="max_gain">20dB</property>
      <property name="mlt_service">volume</property>
      <property name="shotcut:filter">muteVolume</property>
      <property name="gain">0</property>
    </filter>
  </producer>
  <playlist id="playlist41">
    <property name="shotcut:video">1</property>
    <property name="shotcut:name">Serge_arrive</property>
    <property name="shotcut:lock">1</property>
    <blank length="00:00:29.000000" />
    <entry in="00:00:14.320000" out="00:01:09.680000" producer="producer221" />
    </playlist>
  <producer id="producer222" in="00:00:00.000" out="00:03:24.360" title="Anonymous Submission">
    <property name="length">00:03:24:10</property>
    <property name="eof">pause</property>
    <property name="resource">../../006 - Videos format youtube/Trompettes et cornets/Patrick_trompette_totoro_recadre.mp4</property>
    <property name="audio_index">1</property>
    <property name="video_index">0</property>
    <property name="mute_on_pause">0</property>
    <property name="mlt_service">avformat-novalidate</property>
    <property name="seekable">1</property>
    <property name="aspect_ratio">1</property>
    <property name="creation_time">2020-04-30T16:36:42</property>
    <property name="shotcut:hash">6d403b6511552862d61535ad4f275af7</property>
    <property name="ignore_points">0</property>
    <property name="shotcut:caption">Patrick_trompette_totoro_recadre.mp4</property>
    <property name="shotcut:skipConvert">1</property>
    <property name="global_feed">1</property>
    <property name="xml">was here</property>
    <filter id="filter392" in="00:00:29.000000" out="00:01:13.040000">
      <property name="background">colour:0</property>
      <property name="mlt_service">affine</property>
      <property name="shotcut:filter">affineSizePosition</property>
      <property name="transition.fill">1</property>
      <property name="transition.distort">0</property>
      <property name="transition.rect">-1920.0 -1080.0 1921.0 1081.0 1</property>
      <property name="transition.valign">top</property>
      <property name="transition.halign">left</property>
      <property name="shotcut:animIn">00:00:00.040000</property>
      <property name="shotcut:animOut">00:00:00.000</property>
      <property name="transition.threads">0</property>
    </filter>
  </producer>
  <producer id="producer223" in="00:00:00.000" out="00:03:24.360" title="Anonymous Submission">
    <property name="length">00:03:24:10</property>
    <property name="eof">pause</property>
    <property name="resource">../../006 - Videos format youtube/Trompettes et cornets/Patrick_trompette_totoro_recadre.mp4</property>
    <property name="audio_index">1</property>
    <property name="video_index">0</property>
    <property name="mute_on_pause">0</property>
    <property name="mlt_service">avformat-novalidate</property>
    <property name="seekable">1</property>
    <property name="aspect_ratio">1</property>
    <property name="creation_time">2020-04-30T16:36:42</property>
    <property name="shotcut:hash">6d403b6511552862d61535ad4f275af7</property>
    <property name="ignore_points">0</property>
    <property name="shotcut:caption">Patrick_trompette_totoro_recadre.mp4</property>
    <property name="shotcut:skipConvert">1</property>
    <property name="global_feed">1</property>
    <property name="xml">was here</property>
    <filter id="filter393" in="00:01:13.080000" out="00:01:14.280000">
      <property name="background">colour:0</property>
      <property name="mlt_service">affine</property>
      <property name="shotcut:filter">affineSizePosition</property>
      <property name="transition.fill">1</property>
      <property name="transition.distort">0</property>
      <property name="transition.rect">00:00:00.000000=-1920.0 -1080.0 1922.0 1081.0 1;00:00:00.000000=2048.0 431.0 384.0 216.0 1</property>
      <property name="transition.valign">top</property>
      <property name="transition.halign">left</property>
      <property name="shotcut:animIn">00:00:00.040000</property>
      <property name="shotcut:animOut">00:00:00.000</property>
      <property name="transition.threads">0</property>
    </filter>
  </producer>
  <producer id="producer224" in="00:00:00.000" out="00:03:24.360" title="Anonymous Submission">
    <property name="length">00:03:24:10</property>
    <property name="eof">pause</property>
    <property name="resource">../../006 - Videos format youtube/Trompettes et cornets/Patrick_trompette_totoro_recadre.mp4</property>
    <property name="audio_index">1</property>
    <property name="video_index">0</property>
    <property name="mute_on_pause">0</property>
    <property name="mlt_service">avformat-novalidate</property>
    <property name="seekable">1</property>
    <property name="aspect_ratio">1</property>
    <property name="creation_time">2020-04-30T16:36:42</property>
    <property name="shotcut:hash">6d403b6511552862d61535ad4f275af7</property>
    <property name="ignore_points">0</property>
    <property name="shotcut:caption">Patrick_trompette_totoro_recadre.mp4</property>
    <property name="shotcut:skipConvert">1</property>
    <property name="global_feed">1</property>
    <property name="xml">was here</property>
    <filter id="filter394" in="00:01:14.320000" out="00:01:15.520000">
      <property name="background">colour:0</property>
      <property name="mlt_service">affine</property>
      <property name="shotcut:filter">affineSizePosition</property>
      <property name="transition.fill">1</property>
      <property name="transition.distort">0</property>
      <property name="transition.rect">00:00:00.000000=2048.0 431.0 385.0 217.0 1;00:00:01.200000=1408.0 431.0 384.0 216.0 1</property>
      <property name="transition.valign">top</property>
      <property name="transition.halign">left</property>
      <property name="shotcut:animIn">00:00:01.240000</property>
      <property name="shotcut:animOut">00:00:00.000</property>
      <property name="transition.threads">0</property>
    </filter>
  </producer>
  <producer id="producer225" in="00:00:00.000" out="00:03:24.360" title="Anonymous Submission">
    <property name="length">00:03:24:10</property>
    <property name="eof">pause</property>
    <property name="resource">../../006 - Videos format youtube/Trompettes et cornets/Patrick_trompette_totoro_recadre.mp4</property>
    <property name="audio_index">1</property>
    <property name="video_index">0</property>
    <property name="mute_on_pause">0</property>
    <property name="mlt_service">avformat-novalidate</property>
    <property name="seekable">1</property>
    <property name="aspect_ratio">1</property>
    <property name="creation_time">2020-04-30T16:36:42</property>
    <property name="shotcut:hash">6d403b6511552862d61535ad4f275af7</property>
    <property name="ignore_points">0</property>
    <property name="shotcut:caption">Patrick_trompette_totoro_recadre.mp4</property>
    <property name="shotcut:skipConvert">1</property>
    <property name="global_feed">1</property>
    <property name="xml">was here</property>
    <filter id="filter395" in="00:01:15.560000" out="00:01:16.800000">
      <property name="background">colour:0</property>
      <property name="mlt_service">affine</property>
      <property name="shotcut:filter">affineSizePosition</property>
      <property name="transition.fill">1</property>
      <property name="transition.distort">0</property>
      <property name="transition.rect">00:00:00.000000=1408.0 431.0 385.0 217.0 1;00:00:01.200000=576.0 324.0 768.0 432.0 1</property>
      <property name="transition.valign">top</property>
      <property name="transition.halign">left</property>
      <property name="shotcut:animIn">00:00:01.240000</property>
      <property name="shotcut:animOut">00:00:00.000</property>
      <property name="transition.threads">0</property>
    </filter>
  </producer>
  <producer id="producer226" in="00:00:00.000" out="00:03:24.360" title="Anonymous Submission">
    <property name="length">00:03:24:10</property>
    <property name="eof">pause</property>
    <property name="resource">../../006 - Videos format youtube/Trompettes et cornets/Patrick_trompette_totoro_recadre.mp4</property>
    <property name="audio_index">1</property>
    <property name="video_index">0</property>
    <property name="mute_on_pause">0</property>
    <property name="mlt_service">avformat-novalidate</property>
    <property name="seekable">1</property>
    <property name="aspect_ratio">1</property>
    <property name="creation_time">2020-04-30T16:36:42</property>
    <property name="shotcut:hash">6d403b6511552862d61535ad4f275af7</property>
    <property name="ignore_points">0</property>
    <property name="shotcut:caption">Patrick_trompette_totoro_recadre.mp4</property>
    <property name="shotcut:skipConvert">1</property>
    <property name="global_feed">1</property>
    <property name="xml">was here</property>
    <filter id="filter396" in="00:01:16.840000" out="00:01:18.040000">
      <property name="background">colour:0</property>
      <property name="mlt_service">affine</property>
      <property name="shotcut:filter">affineSizePosition</property>
      <property name="transition.fill">1</property>
      <property name="transition.distort">0</property>
      <property name="transition.rect">00:00:00.000000=576.0 324.0 769.0 433.0 1;00:00:01.200000=128.0 431.0 384.0 216.0 1</property>
      <property name="transition.valign">top</property>
      <property name="transition.halign">left</property>
      <property name="shotcut:animIn">00:00:01.240000</property>
      <property name="shotcut:animOut">00:00:00.000</property>
      <property name="transition.threads">0</property>
    </filter>
  </producer>
  <producer id="producer227" in="00:00:00.000" out="00:03:24.360" title="Anonymous Submission">
    <property name="length">00:03:24:10</property>
    <property name="eof">pause</property>
    <property name="resource">../../006 - Videos format youtube/Trompettes et cornets/Patrick_trompette_totoro_recadre.mp4</property>
    <property name="audio_index">1</property>
    <property name="video_index">0</property>
    <property name="mute_on_pause">0</property>
    <property name="mlt_service">avformat-novalidate</property>
    <property name="seekable">1</property>
    <property name="aspect_ratio">1</property>
    <property name="creation_time">2020-04-30T16:36:42</property>
    <property name="shotcut:hash">6d403b6511552862d61535ad4f275af7</property>
    <property name="ignore_points">0</property>
    <property name="shotcut:caption">Patrick_trompette_totoro_recadre.mp4</property>
    <property name="shotcut:skipConvert">1</property>
    <property name="global_feed">1</property>
    <property name="xml">was here</property>
    <filter id="filter397" in="00:01:18.080000" out="00:01:24.360000">
      <property name="background">colour:0</property>
      <property name="mlt_service">affine</property>
      <property name="shotcut:filter">affineSizePosition</property>
      <property name="transition.fill">1</property>
      <property name="transition.distort">0</property>
      <property name="transition.rect">00:00:00.000000=128.0 431.0 385.0 217.0 1;00:00:01.200000=-512.0 431.0 384.0 216.0 1</property>
      <property name="transition.valign">top</property>
      <property name="transition.halign">left</property>
      <property name="shotcut:animIn">00:00:01.240000</property>
      <property name="shotcut:animOut">00:00:00.000</property>
      <property name="transition.threads">0</property>
    </filter>
  </producer>
  <playlist id="playlist42">
    <blank length="00:00:29.000000" /><property name="shotcut:video">1</property>
    <property name="shotcut:name">Patrick trompette recadre</property>
    <property name="shotcut:lock">1</property>
    <entry in="00:00:29.000000" out="00:01:13.040000" producer="producer222" />
  <entry in="00:01:13.080000" out="00:01:14.280000" producer="producer223" />
  <entry in="00:01:14.320000" out="00:01:15.520000" producer="producer224" />
  <entry in="00:01:15.560000" out="00:01:16.800000" producer="producer225" />
  <entry in="00:01:16.840000" out="00:01:18.040000" producer="producer226" />
  <entry in="00:01:18.080000" out="00:01:24.360000" producer="producer227" />
  </playlist>
  <producer id="producer228" in="00:00:00.000" out="00:03:23.200" title="Anonymous Submission">
    <property name="length">00:03:23:06</property>
    <property name="eof">pause</property>
    <property name="resource">../../006 - Videos format youtube/Trompettes et cornets/Marianne_trompette_totoro.mp4</property>
    <property name="audio_index">1</property>
    <property name="video_index">0</property>
    <property name="mute_on_pause">0</property>
    <property name="mlt_service">avformat-novalidate</property>
    <property name="seekable">1</property>
    <property name="aspect_ratio">1</property>
    <property name="creation_time">2020-04-17T16:46:13</property>
    <property name="shotcut:hash">028a5d33b6622364c3abee360843bcb6</property>
    <property name="ignore_points">0</property>
    <property name="shotcut:caption">Marianne_trompette_totoro.mp4</property>
    <property name="shotcut:skipConvert">1</property>
    <property name="global_feed">1</property>
    <property name="xml">was here</property>
    <filter id="filter398" in="00:00:27.880000" out="00:01:13.160000">
      <property name="background">colour:0</property>
      <property name="mlt_service">affine</property>
      <property name="shotcut:filter">affineSizePosition</property>
      <property name="transition.fill">1</property>
      <property name="transition.distort">0</property>
      <property name="transition.rect">-1920.0 -1080.0 1921.0 1081.0 1</property>
      <property name="transition.valign">top</property>
      <property name="transition.halign">left</property>
      <property name="shotcut:animIn">00:00:00.040000</property>
      <property name="shotcut:animOut">00:00:00.000</property>
      <property name="transition.threads">0</property>
    </filter>
  </producer>
  <producer id="producer229" in="00:00:00.000" out="00:03:23.200" title="Anonymous Submission">
    <property name="length">00:03:23:06</property>
    <property name="eof">pause</property>
    <property name="resource">../../006 - Videos format youtube/Trompettes et cornets/Marianne_trompette_totoro.mp4</property>
    <property name="audio_index">1</property>
    <property name="video_index">0</property>
    <property name="mute_on_pause">0</property>
    <property name="mlt_service">avformat-novalidate</property>
    <property name="seekable">1</property>
    <property name="aspect_ratio">1</property>
    <property name="creation_time">2020-04-17T16:46:13</property>
    <property name="shotcut:hash">028a5d33b6622364c3abee360843bcb6</property>
    <property name="ignore_points">0</property>
    <property name="shotcut:caption">Marianne_trompette_totoro.mp4</property>
    <property name="shotcut:skipConvert">1</property>
    <property name="global_feed">1</property>
    <property name="xml">was here</property>
    <filter id="filter399" in="00:01:13.200000" out="00:01:14.400000">
      <property name="background">colour:0</property>
      <property name="mlt_service">affine</property>
      <property name="shotcut:filter">affineSizePosition</property>
      <property name="transition.fill">1</property>
      <property name="transition.distort">0</property>
      <property name="transition.rect">00:00:00.000000=-1920.0 -1080.0 1922.0 1081.0 1;00:00:00.000000=2048.0 431.0 384.0 216.0 1</property>
      <property name="transition.valign">top</property>
      <property name="transition.halign">left</property>
      <property name="shotcut:animIn">00:00:00.040000</property>
      <property name="shotcut:animOut">00:00:00.000</property>
      <property name="transition.threads">0</property>
    </filter>
  </producer>
  <producer id="producer230" in="00:00:00.000" out="00:03:23.200" title="Anonymous Submission">
    <property name="length">00:03:23:06</property>
    <property name="eof">pause</property>
    <property name="resource">../../006 - Videos format youtube/Trompettes et cornets/Marianne_trompette_totoro.mp4</property>
    <property name="audio_index">1</property>
    <property name="video_index">0</property>
    <property name="mute_on_pause">0</property>
    <property name="mlt_service">avformat-novalidate</property>
    <property name="seekable">1</property>
    <property name="aspect_ratio">1</property>
    <property name="creation_time">2020-04-17T16:46:13</property>
    <property name="shotcut:hash">028a5d33b6622364c3abee360843bcb6</property>
    <property name="ignore_points">0</property>
    <property name="shotcut:caption">Marianne_trompette_totoro.mp4</property>
    <property name="shotcut:skipConvert">1</property>
    <property name="global_feed">1</property>
    <property name="xml">was here</property>
    <filter id="filter400" in="00:01:14.440000" out="00:01:15.680000">
      <property name="background">colour:0</property>
      <property name="mlt_service">affine</property>
      <property name="shotcut:filter">affineSizePosition</property>
      <property name="transition.fill">1</property>
      <property name="transition.distort">0</property>
      <property name="transition.rect">00:00:00.000000=2048.0 431.0 385.0 217.0 1;00:00:01.200000=1408.0 431.0 384.0 216.0 1</property>
      <property name="transition.valign">top</property>
      <property name="transition.halign">left</property>
      <property name="shotcut:animIn">00:00:01.240000</property>
      <property name="shotcut:animOut">00:00:00.000</property>
      <property name="transition.threads">0</property>
    </filter>
  </producer>
  <producer id="producer231" in="00:00:00.000" out="00:03:23.200" title="Anonymous Submission">
    <property name="length">00:03:23:06</property>
    <property name="eof">pause</property>
    <property name="resource">../../006 - Videos format youtube/Trompettes et cornets/Marianne_trompette_totoro.mp4</property>
    <property name="audio_index">1</property>
    <property name="video_index">0</property>
    <property name="mute_on_pause">0</property>
    <property name="mlt_service">avformat-novalidate</property>
    <property name="seekable">1</property>
    <property name="aspect_ratio">1</property>
    <property name="creation_time">2020-04-17T16:46:13</property>
    <property name="shotcut:hash">028a5d33b6622364c3abee360843bcb6</property>
    <property name="ignore_points">0</property>
    <property name="shotcut:caption">Marianne_trompette_totoro.mp4</property>
    <property name="shotcut:skipConvert">1</property>
    <property name="global_feed">1</property>
    <property name="xml">was here</property>
    <filter id="filter401" in="00:01:15.720000" out="00:01:16.920000">
      <property name="background">colour:0</property>
      <property name="mlt_service">affine</property>
      <property name="shotcut:filter">affineSizePosition</property>
      <property name="transition.fill">1</property>
      <property name="transition.distort">0</property>
      <property name="transition.rect">00:00:00.000000=1408.0 431.0 385.0 217.0 1;00:00:01.200000=576.0 324.0 768.0 432.0 1</property>
      <property name="transition.valign">top</property>
      <property name="transition.halign">left</property>
      <property name="shotcut:animIn">00:00:01.240000</property>
      <property name="shotcut:animOut">00:00:00.000</property>
      <property name="transition.threads">0</property>
    </filter>
  </producer>
  <producer id="producer232" in="00:00:00.000" out="00:03:23.200" title="Anonymous Submission">
    <property name="length">00:03:23:06</property>
    <property name="eof">pause</property>
    <property name="resource">../../006 - Videos format youtube/Trompettes et cornets/Marianne_trompette_totoro.mp4</property>
    <property name="audio_index">1</property>
    <property name="video_index">0</property>
    <property name="mute_on_pause">0</property>
    <property name="mlt_service">avformat-novalidate</property>
    <property name="seekable">1</property>
    <property name="aspect_ratio">1</property>
    <property name="creation_time">2020-04-17T16:46:13</property>
    <property name="shotcut:hash">028a5d33b6622364c3abee360843bcb6</property>
    <property name="ignore_points">0</property>
    <property name="shotcut:caption">Marianne_trompette_totoro.mp4</property>
    <property name="shotcut:skipConvert">1</property>
    <property name="global_feed">1</property>
    <property name="xml">was here</property>
    <filter id="filter402" in="00:01:16.960000" out="00:01:18.200000">
      <property name="background">colour:0</property>
      <property name="mlt_service">affine</property>
      <property name="shotcut:filter">affineSizePosition</property>
      <property name="transition.fill">1</property>
      <property name="transition.distort">0</property>
      <property name="transition.rect">00:00:00.000000=576.0 324.0 769.0 433.0 1;00:00:01.200000=128.0 431.0 384.0 216.0 1</property>
      <property name="transition.valign">top</property>
      <property name="transition.halign">left</property>
      <property name="shotcut:animIn">00:00:01.240000</property>
      <property name="shotcut:animOut">00:00:00.000</property>
      <property name="transition.threads">0</property>
    </filter>
  </producer>
  <producer id="producer233" in="00:00:00.000" out="00:03:23.200" title="Anonymous Submission">
    <property name="length">00:03:23:06</property>
    <property name="eof">pause</property>
    <property name="resource">../../006 - Videos format youtube/Trompettes et cornets/Marianne_trompette_totoro.mp4</property>
    <property name="audio_index">1</property>
    <property name="video_index">0</property>
    <property name="mute_on_pause">0</property>
    <property name="mlt_service">avformat-novalidate</property>
    <property name="seekable">1</property>
    <property name="aspect_ratio">1</property>
    <property name="creation_time">2020-04-17T16:46:13</property>
    <property name="shotcut:hash">028a5d33b6622364c3abee360843bcb6</property>
    <property name="ignore_points">0</property>
    <property name="shotcut:caption">Marianne_trompette_totoro.mp4</property>
    <property name="shotcut:skipConvert">1</property>
    <property name="global_feed">1</property>
    <property name="xml">was here</property>
    <filter id="filter403" in="00:01:18.240000" out="00:01:23.240000">
      <property name="background">colour:0</property>
      <property name="mlt_service">affine</property>
      <property name="shotcut:filter">affineSizePosition</property>
      <property name="transition.fill">1</property>
      <property name="transition.distort">0</property>
      <property name="transition.rect">00:00:00.000000=128.0 431.0 385.0 217.0 1;00:00:01.200000=-512.0 431.0 384.0 216.0 1</property>
      <property name="transition.valign">top</property>
      <property name="transition.halign">left</property>
      <property name="shotcut:animIn">00:00:01.240000</property>
      <property name="shotcut:animOut">00:00:00.000</property>
      <property name="transition.threads">0</property>
    </filter>
  </producer>
  <playlist id="playlist43">
    <property name="shotcut:video">1</property>
    <property name="shotcut:name">Marianne</property>
    <property name="shotcut:lock">1</property>
    <blank length="00:00:29.000000" />
    <entry in="00:00:27.880000" out="00:01:13.160000" producer="producer228" />
    <entry in="00:01:13.200000" out="00:01:14.400000" producer="producer229" />
    <entry in="00:01:14.440000" out="00:01:15.680000" producer="producer230" />
    <entry in="00:01:15.720000" out="00:01:16.920000" producer="producer231" />
    <entry in="00:01:16.960000" out="00:01:18.200000" producer="producer232" />
    <entry in="00:01:18.240000" out="00:01:23.240000" producer="producer233" />
    <filter id="filter404" out="00:03:24.360">
      <property name="window">75</property>
      <property name="max_gain">20dB</property>
      <property name="level">-5</property>
      <property name="mlt_service">volume</property>
    </filter>
  </playlist>
  <producer id="producer234" in="00:00:00.000" out="00:03:26.280" title="Anonymous Submission">
    <property name="length">00:03:26:08</property>
    <property name="eof">pause</property>
    <property name="resource">../../006 - Videos format youtube/Tuba/Svoisine_tuba.mp4</property>
    <property name="audio_index">1</property>
    <property name="video_index">0</property>
    <property name="mute_on_pause">0</property>
    <property name="mlt_service">avformat-novalidate</property>
    <property name="seekable">1</property>
    <property name="aspect_ratio">1</property>
    <property name="creation_time">2020-04-11T08:39:47</property>
    <property name="shotcut:hash">8494f33c31e06cf5728dcdd20ff8db58</property>
    <property name="ignore_points">0</property>
    <property name="shotcut:caption">Svoisine_tuba.mp4</property>
    <property name="shotcut:skipConvert">1</property>
    <property name="global_feed">1</property>
    <property name="xml">was here</property>
    <filter id="filter405" in="00:00:33.400000" out="00:01:19.920000">
      <property name="background">colour:0</property>
      <property name="mlt_service">affine</property>
      <property name="shotcut:filter">affineSizePosition</property>
      <property name="transition.fill">1</property>
      <property name="transition.distort">0</property>
      <property name="transition.rect">-1920.0 -1080.0 1921.0 1081.0 1</property>
      <property name="transition.valign">top</property>
      <property name="transition.halign">left</property>
      <property name="shotcut:animIn">00:00:00.040000</property>
      <property name="shotcut:animOut">00:00:00.000</property>
      <property name="transition.threads">0</property>
    </filter>
    <filter id="filter406" in="00:00:33.400000" out="00:01:19.920000">
      <property name="window">75</property>
      <property name="max_gain">20dB</property>
      <property name="mlt_service">volume</property>
      <property name="shotcut:filter">muteVolume</property>
      <property name="gain">0</property>
    </filter>
  </producer>
  <producer id="producer235" in="00:00:00.000" out="00:03:26.280" title="Anonymous Submission">
    <property name="length">00:03:26:08</property>
    <property name="eof">pause</property>
    <property name="resource">../../006 - Videos format youtube/Tuba/Svoisine_tuba.mp4</property>
    <property name="audio_index">1</property>
    <property name="video_index">0</property>
    <property name="mute_on_pause">0</property>
    <property name="mlt_service">avformat-novalidate</property>
    <property name="seekable">1</property>
    <property name="aspect_ratio">1</property>
    <property name="creation_time">2020-04-11T08:39:47</property>
    <property name="shotcut:hash">8494f33c31e06cf5728dcdd20ff8db58</property>
    <property name="ignore_points">0</property>
    <property name="shotcut:caption">Svoisine_tuba.mp4</property>
    <property name="shotcut:skipConvert">1</property>
    <property name="global_feed">1</property>
    <property name="xml">was here</property>
    <filter id="filter407" in="00:01:19.960000" out="00:01:21.200000">
      <property name="background">colour:0</property>
      <property name="mlt_service">affine</property>
      <property name="shotcut:filter">affineSizePosition</property>
      <property name="transition.fill">1</property>
      <property name="transition.distort">0</property>
      <property name="transition.rect">00:00:00.000000=-1920.0 -1080.0 1922.0 1081.0 1;00:00:00.000000=2048.0 431.0 384.0 216.0 1</property>
      <property name="transition.valign">top</property>
      <property name="transition.halign">left</property>
      <property name="shotcut:animIn">00:00:00.040000</property>
      <property name="shotcut:animOut">00:00:00.000</property>
      <property name="transition.threads">0</property>
    </filter>
    <filter id="filter408" in="00:01:19.960000" out="00:01:21.200000">
      <property name="window">75</property>
      <property name="max_gain">20dB</property>
      <property name="mlt_service">volume</property>
      <property name="shotcut:filter">muteVolume</property>
      <property name="gain">0</property>
    </filter>
  </producer>
  <producer id="producer236" in="00:00:00.000" out="00:03:26.280" title="Anonymous Submission">
    <property name="length">00:03:26:08</property>
    <property name="eof">pause</property>
    <property name="resource">../../006 - Videos format youtube/Tuba/Svoisine_tuba.mp4</property>
    <property name="audio_index">1</property>
    <property name="video_index">0</property>
    <property name="mute_on_pause">0</property>
    <property name="mlt_service">avformat-novalidate</property>
    <property name="seekable">1</property>
    <property name="aspect_ratio">1</property>
    <property name="creation_time">2020-04-11T08:39:47</property>
    <property name="shotcut:hash">8494f33c31e06cf5728dcdd20ff8db58</property>
    <property name="ignore_points">0</property>
    <property name="shotcut:caption">Svoisine_tuba.mp4</property>
    <property name="shotcut:skipConvert">1</property>
    <property name="global_feed">1</property>
    <property name="xml">was here</property>
    <filter id="filter409" in="00:01:21.240000" out="00:01:22.440000">
      <property name="background">colour:0</property>
      <property name="mlt_service">affine</property>
      <property name="shotcut:filter">affineSizePosition</property>
      <property name="transition.fill">1</property>
      <property name="transition.distort">0</property>
      <property name="transition.rect">00:00:00.000000=2048.0 431.0 385.0 217.0 1;00:00:01.200000=1408.0 431.0 384.0 216.0 1</property>
      <property name="transition.valign">top</property>
      <property name="transition.halign">left</property>
      <property name="shotcut:animIn">00:00:01.240000</property>
      <property name="shotcut:animOut">00:00:00.000</property>
      <property name="transition.threads">0</property>
    </filter>
    <filter id="filter410" in="00:01:21.240000" out="00:01:22.440000">
      <property name="window">75</property>
      <property name="max_gain">20dB</property>
      <property name="mlt_service">volume</property>
      <property name="shotcut:filter">muteVolume</property>
      <property name="gain">0</property>
    </filter>
  </producer>
  <producer id="producer237" in="00:00:00.000" out="00:03:26.280" title="Anonymous Submission">
    <property name="length">00:03:26:08</property>
    <property name="eof">pause</property>
    <property name="resource">../../006 - Videos format youtube/Tuba/Svoisine_tuba.mp4</property>
    <property name="audio_index">1</property>
    <property name="video_index">0</property>
    <property name="mute_on_pause">0</property>
    <property name="mlt_service">avformat-novalidate</property>
    <property name="seekable">1</property>
    <property name="aspect_ratio">1</property>
    <property name="creation_time">2020-04-11T08:39:47</property>
    <property name="shotcut:hash">8494f33c31e06cf5728dcdd20ff8db58</property>
    <property name="ignore_points">0</property>
    <property name="shotcut:caption">Svoisine_tuba.mp4</property>
    <property name="shotcut:skipConvert">1</property>
    <property name="global_feed">1</property>
    <property name="xml">was here</property>
    <filter id="filter411" in="00:01:22.480000" out="00:01:23.720000">
      <property name="background">colour:0</property>
      <property name="mlt_service">affine</property>
      <property name="shotcut:filter">affineSizePosition</property>
      <property name="transition.fill">1</property>
      <property name="transition.distort">0</property>
      <property name="transition.rect">00:00:00.000000=1408.0 431.0 385.0 217.0 1;00:00:01.200000=576.0 324.0 768.0 432.0 1</property>
      <property name="transition.valign">top</property>
      <property name="transition.halign">left</property>
      <property name="shotcut:animIn">00:00:01.240000</property>
      <property name="shotcut:animOut">00:00:00.000</property>
      <property name="transition.threads">0</property>
    </filter>
    <filter id="filter412" in="00:01:22.480000" out="00:01:23.720000">
      <property name="window">75</property>
      <property name="max_gain">20dB</property>
      <property name="mlt_service">volume</property>
      <property name="shotcut:filter">muteVolume</property>
      <property name="gain">0</property>
    </filter>
  </producer>
  <producer id="producer238" in="00:00:00.000" out="00:03:26.280" title="Anonymous Submission">
    <property name="length">00:03:26:08</property>
    <property name="eof">pause</property>
    <property name="resource">../../006 - Videos format youtube/Tuba/Svoisine_tuba.mp4</property>
    <property name="audio_index">1</property>
    <property name="video_index">0</property>
    <property name="mute_on_pause">0</property>
    <property name="mlt_service">avformat-novalidate</property>
    <property name="seekable">1</property>
    <property name="aspect_ratio">1</property>
    <property name="creation_time">2020-04-11T08:39:47</property>
    <property name="shotcut:hash">8494f33c31e06cf5728dcdd20ff8db58</property>
    <property name="ignore_points">0</property>
    <property name="shotcut:caption">Svoisine_tuba.mp4</property>
    <property name="shotcut:skipConvert">1</property>
    <property name="global_feed">1</property>
    <property name="xml">was here</property>
    <filter id="filter413" in="00:01:23.760000" out="00:01:24.960000">
      <property name="background">colour:0</property>
      <property name="mlt_service">affine</property>
      <property name="shotcut:filter">affineSizePosition</property>
      <property name="transition.fill">1</property>
      <property name="transition.distort">0</property>
      <property name="transition.rect">00:00:00.000000=576.0 324.0 769.0 433.0 1;00:00:01.200000=128.0 431.0 384.0 216.0 1</property>
      <property name="transition.valign">top</property>
      <property name="transition.halign">left</property>
      <property name="shotcut:animIn">00:00:01.240000</property>
      <property name="shotcut:animOut">00:00:00.000</property>
      <property name="transition.threads">0</property>
    </filter>
    <filter id="filter414" in="00:01:23.760000" out="00:01:24.960000">
      <property name="window">75</property>
      <property name="max_gain">20dB</property>
      <property name="mlt_service">volume</property>
      <property name="shotcut:filter">muteVolume</property>
      <property name="gain">0</property>
    </filter>
  </producer>
  <producer id="producer239" in="00:00:00.000" out="00:03:26.280" title="Anonymous Submission">
    <property name="length">00:03:26:08</property>
    <property name="eof">pause</property>
    <property name="resource">../../006 - Videos format youtube/Tuba/Svoisine_tuba.mp4</property>
    <property name="audio_index">1</property>
    <property name="video_index">0</property>
    <property name="mute_on_pause">0</property>
    <property name="mlt_service">avformat-novalidate</property>
    <property name="seekable">1</property>
    <property name="aspect_ratio">1</property>
    <property name="creation_time">2020-04-11T08:39:47</property>
    <property name="shotcut:hash">8494f33c31e06cf5728dcdd20ff8db58</property>
    <property name="ignore_points">0</property>
    <property name="shotcut:caption">Svoisine_tuba.mp4</property>
    <property name="shotcut:skipConvert">1</property>
    <property name="global_feed">1</property>
    <property name="xml">was here</property>
    <filter id="filter415" in="00:01:25.000000" out="00:01:28.760000">
      <property name="background">colour:0</property>
      <property name="mlt_service">affine</property>
      <property name="shotcut:filter">affineSizePosition</property>
      <property name="transition.fill">1</property>
      <property name="transition.distort">0</property>
      <property name="transition.rect">00:00:00.000000=128.0 431.0 385.0 217.0 1;00:00:01.200000=-512.0 431.0 384.0 216.0 1</property>
      <property name="transition.valign">top</property>
      <property name="transition.halign">left</property>
      <property name="shotcut:animIn">00:00:01.240000</property>
      <property name="shotcut:animOut">00:00:00.000</property>
      <property name="transition.threads">0</property>
    </filter>
    <filter id="filter416" in="00:01:25.000000" out="00:01:28.760000">
      <property name="window">75</property>
      <property name="max_gain">20dB</property>
      <property name="mlt_service">volume</property>
      <property name="shotcut:filter">muteVolume</property>
      <property name="gain">0</property>
    </filter>
  </producer>
  <playlist id="playlist44">
    <property name="shotcut:video">1</property>
    <property name="shotcut:name">S Voisine</property>
    <property name="shotcut:lock">1</property>
    <blank length="00:00:29.000000" />
    <entry in="00:00:33.400000" out="00:01:19.920000" producer="producer234" />
    <entry in="00:01:19.960000" out="00:01:21.200000" producer="producer235" />
    <entry in="00:01:21.240000" out="00:01:22.440000" producer="producer236" />
    <entry in="00:01:22.480000" out="00:01:23.720000" producer="producer237" />
    <entry in="00:01:23.760000" out="00:01:24.960000" producer="producer238" />
    <entry in="00:01:25.000000" out="00:01:28.760000" producer="producer239" />
    <filter id="filter417" out="00:03:32.600">
      <property name="window">75</property>
      <property name="max_gain">20dB</property>
      <property name="level">-10</property>
      <property name="mlt_service">volume</property>
    </filter>
  </playlist>
  <producer id="producer240" in="00:00:00.000" out="00:05:55.520" title="Anonymous Submission">
    <property name="length">00:05:55:14</property>
    <property name="eof">pause</property>
    <property name="resource">../../006 - Videos format youtube/Euphonium/Serge_baryton_totoro_recadre.mp4</property>
    <property name="audio_index">1</property>
    <property name="video_index">0</property>
    <property name="mute_on_pause">0</property>
    <property name="mlt_service">avformat-novalidate</property>
    <property name="seekable">1</property>
    <property name="aspect_ratio">1</property>
    <property name="creation_time">2020-04-12T16:27:49</property>
    <property name="shotcut:hash">b07d92044a15ac5f1a605af51e13624e</property>
    <property name="ignore_points">0</property>
    <property name="shotcut:caption">Serge_baryton_totoro_recadre.mp4</property>
    <property name="shotcut:skipConvert">1</property>
    <property name="global_feed">1</property>
    <property name="xml">was here</property>
    <filter id="filter418" in="00:00:28.920000" out="00:01:16.720000">
      <property name="background">colour:0</property>
      <property name="mlt_service">affine</property>
      <property name="shotcut:filter">affineSizePosition</property>
      <property name="transition.fill">1</property>
      <property name="transition.distort">0</property>
      <property name="transition.rect">-1920.0 -1080.0 1921.0 1081.0 1</property>
      <property name="transition.valign">top</property>
      <property name="transition.halign">left</property>
      <property name="shotcut:animIn">00:00:00.040000</property>
      <property name="shotcut:animOut">00:00:00.000</property>
      <property name="transition.threads">0</property>
    </filter>
  </producer>
  <producer id="producer241" in="00:00:00.000" out="00:05:55.520" title="Anonymous Submission">
    <property name="length">00:05:55:14</property>
    <property name="eof">pause</property>
    <property name="resource">../../006 - Videos format youtube/Euphonium/Serge_baryton_totoro_recadre.mp4</property>
    <property name="audio_index">1</property>
    <property name="video_index">0</property>
    <property name="mute_on_pause">0</property>
    <property name="mlt_service">avformat-novalidate</property>
    <property name="seekable">1</property>
    <property name="aspect_ratio">1</property>
    <property name="creation_time">2020-04-12T16:27:49</property>
    <property name="shotcut:hash">b07d92044a15ac5f1a605af51e13624e</property>
    <property name="ignore_points">0</property>
    <property name="shotcut:caption">Serge_baryton_totoro_recadre.mp4</property>
    <property name="shotcut:skipConvert">1</property>
    <property name="global_feed">1</property>
    <property name="xml">was here</property>
    <filter id="filter419" in="00:01:16.760000" out="00:01:17.960000">
      <property name="background">colour:0</property>
      <property name="mlt_service">affine</property>
      <property name="shotcut:filter">affineSizePosition</property>
      <property name="transition.fill">1</property>
      <property name="transition.distort">0</property>
      <property name="transition.rect">00:00:00.000000=-1920.0 -1080.0 1922.0 1081.0 1;00:00:00.000000=2048.0 431.0 384.0 216.0 1</property>
      <property name="transition.valign">top</property>
      <property name="transition.halign">left</property>
      <property name="shotcut:animIn">00:00:00.040000</property>
      <property name="shotcut:animOut">00:00:00.000</property>
      <property name="transition.threads">0</property>
    </filter>
  </producer>
  <producer id="producer242" in="00:00:00.000" out="00:05:55.520" title="Anonymous Submission">
    <property name="length">00:05:55:14</property>
    <property name="eof">pause</property>
    <property name="resource">../../006 - Videos format youtube/Euphonium/Serge_baryton_totoro_recadre.mp4</property>
    <property name="audio_index">1</property>
    <property name="video_index">0</property>
    <property name="mute_on_pause">0</property>
    <property name="mlt_service">avformat-novalidate</property>
    <property name="seekable">1</property>
    <property name="aspect_ratio">1</property>
    <property name="creation_time">2020-04-12T16:27:49</property>
    <property name="shotcut:hash">b07d92044a15ac5f1a605af51e13624e</property>
    <property name="ignore_points">0</property>
    <property name="shotcut:caption">Serge_baryton_totoro_recadre.mp4</property>
    <property name="shotcut:skipConvert">1</property>
    <property name="global_feed">1</property>
    <property name="xml">was here</property>
    <filter id="filter420" in="00:01:18.000000" out="00:01:19.240000">
      <property name="background">colour:0</property>
      <property name="mlt_service">affine</property>
      <property name="shotcut:filter">affineSizePosition</property>
      <property name="transition.fill">1</property>
      <property name="transition.distort">0</property>
      <property name="transition.rect">00:00:00.000000=2048.0 431.0 385.0 217.0 1;00:00:01.200000=1408.0 431.0 384.0 216.0 1</property>
      <property name="transition.valign">top</property>
      <property name="transition.halign">left</property>
      <property name="shotcut:animIn">00:00:01.240000</property>
      <property name="shotcut:animOut">00:00:00.000</property>
      <property name="transition.threads">0</property>
    </filter>
  </producer>
  <producer id="producer243" in="00:00:00.000" out="00:05:55.520" title="Anonymous Submission">
    <property name="length">00:05:55:14</property>
    <property name="eof">pause</property>
    <property name="resource">../../006 - Videos format youtube/Euphonium/Serge_baryton_totoro_recadre.mp4</property>
    <property name="audio_index">1</property>
    <property name="video_index">0</property>
    <property name="mute_on_pause">0</property>
    <property name="mlt_service">avformat-novalidate</property>
    <property name="seekable">1</property>
    <property name="aspect_ratio">1</property>
    <property name="creation_time">2020-04-12T16:27:49</property>
    <property name="shotcut:hash">b07d92044a15ac5f1a605af51e13624e</property>
    <property name="ignore_points">0</property>
    <property name="shotcut:caption">Serge_baryton_totoro_recadre.mp4</property>
    <property name="shotcut:skipConvert">1</property>
    <property name="global_feed">1</property>
    <property name="xml">was here</property>
    <filter id="filter421" in="00:01:19.280000" out="00:01:20.480000">
      <property name="background">colour:0</property>
      <property name="mlt_service">affine</property>
      <property name="shotcut:filter">affineSizePosition</property>
      <property name="transition.fill">1</property>
      <property name="transition.distort">0</property>
      <property name="transition.rect">00:00:00.000000=1408.0 431.0 385.0 217.0 1;00:00:01.200000=576.0 324.0 768.0 432.0 1</property>
      <property name="transition.valign">top</property>
      <property name="transition.halign">left</property>
      <property name="shotcut:animIn">00:00:01.240000</property>
      <property name="shotcut:animOut">00:00:00.000</property>
      <property name="transition.threads">0</property>
    </filter>
  </producer>
  <producer id="producer244" in="00:00:00.000" out="00:05:55.520" title="Anonymous Submission">
    <property name="length">00:05:55:14</property>
    <property name="eof">pause</property>
    <property name="resource">../../006 - Videos format youtube/Euphonium/Serge_baryton_totoro_recadre.mp4</property>
    <property name="audio_index">1</property>
    <property name="video_index">0</property>
    <property name="mute_on_pause">0</property>
    <property name="mlt_service">avformat-novalidate</property>
    <property name="seekable">1</property>
    <property name="aspect_ratio">1</property>
    <property name="creation_time">2020-04-12T16:27:49</property>
    <property name="shotcut:hash">b07d92044a15ac5f1a605af51e13624e</property>
    <property name="ignore_points">0</property>
    <property name="shotcut:caption">Serge_baryton_totoro_recadre.mp4</property>
    <property name="shotcut:skipConvert">1</property>
    <property name="global_feed">1</property>
    <property name="xml">was here</property>
    <filter id="filter422" in="00:01:20.520000" out="00:01:21.760000">
      <property name="background">colour:0</property>
      <property name="mlt_service">affine</property>
      <property name="shotcut:filter">affineSizePosition</property>
      <property name="transition.fill">1</property>
      <property name="transition.distort">0</property>
      <property name="transition.rect">00:00:00.000000=576.0 324.0 769.0 433.0 1;00:00:01.200000=128.0 431.0 384.0 216.0 1</property>
      <property name="transition.valign">top</property>
      <property name="transition.halign">left</property>
      <property name="shotcut:animIn">00:00:01.240000</property>
      <property name="shotcut:animOut">00:00:00.000</property>
      <property name="transition.threads">0</property>
    </filter>
  </producer>
  <producer id="producer245" in="00:00:00.000" out="00:05:55.520" title="Anonymous Submission">
    <property name="length">00:05:55:14</property>
    <property name="eof">pause</property>
    <property name="resource">../../006 - Videos format youtube/Euphonium/Serge_baryton_totoro_recadre.mp4</property>
    <property name="audio_index">1</property>
    <property name="video_index">0</property>
    <property name="mute_on_pause">0</property>
    <property name="mlt_service">avformat-novalidate</property>
    <property name="seekable">1</property>
    <property name="aspect_ratio">1</property>
    <property name="creation_time">2020-04-12T16:27:49</property>
    <property name="shotcut:hash">b07d92044a15ac5f1a605af51e13624e</property>
    <property name="ignore_points">0</property>
    <property name="shotcut:caption">Serge_baryton_totoro_recadre.mp4</property>
    <property name="shotcut:skipConvert">1</property>
    <property name="global_feed">1</property>
    <property name="xml">was here</property>
    <filter id="filter423" in="00:01:21.800000" out="00:01:24.280000">
      <property name="background">colour:0</property>
      <property name="mlt_service">affine</property>
      <property name="shotcut:filter">affineSizePosition</property>
      <property name="transition.fill">1</property>
      <property name="transition.distort">0</property>
      <property name="transition.rect">00:00:00.000000=128.0 431.0 385.0 217.0 1;00:00:01.200000=-512.0 431.0 384.0 216.0 1</property>
      <property name="transition.valign">top</property>
      <property name="transition.halign">left</property>
      <property name="shotcut:animIn">00:00:01.240000</property>
      <property name="shotcut:animOut">00:00:00.000</property>
      <property name="transition.threads">0</property>
    </filter>
  </producer>
  <playlist id="playlist45">
    <property name="shotcut:video">1</property>
    <property name="shotcut:name">S Baudry recadre</property>
    <property name="shotcut:lock">1</property>
    <blank length="00:00:29.000000" />
    <entry in="00:00:28.920000" out="00:01:16.720000" producer="producer240" />
    <entry in="00:01:16.760000" out="00:01:17.960000" producer="producer241" />
    <entry in="00:01:18.000000" out="00:01:19.240000" producer="producer242" />
    <entry in="00:01:19.280000" out="00:01:20.480000" producer="producer243" />
    <entry in="00:01:20.520000" out="00:01:21.760000" producer="producer244" />
    <entry in="00:01:21.800000" out="00:01:24.280000" producer="producer245" />
    <filter id="filter424" out="00:03:32.600">
      <property name="window">75</property>
      <property name="max_gain">20dB</property>
      <property name="level">-13</property>
      <property name="mlt_service">volume</property>
    </filter>
  </playlist>
  <producer id="producer246" in="00:00:00.000" out="00:05:55.520" title="Anonymous Submission">
    <property name="length">00:05:55:14</property>
    <property name="eof">pause</property>
    <property name="resource">../../006 - Videos format youtube/Tuba/Srevol_tuba_recadre.mp4</property>
    <property name="audio_index">1</property>
    <property name="video_index">0</property>
    <property name="mute_on_pause">0</property>
    <property name="mlt_service">avformat-novalidate</property>
    <property name="seekable">1</property>
    <property name="aspect_ratio">1</property>
    <property name="creation_time">2020-04-12T16:43:58</property>
    <property name="shotcut:hash">297b5a36e5ddc4793893fda24b46726f</property>
    <property name="ignore_points">0</property>
    <property name="shotcut:caption">Srevol_tuba_recadre.mp4</property>
    <property name="shotcut:skipConvert">1</property>
    <property name="global_feed">1</property>
    <property name="xml">was here</property>
    <filter id="filter425" in="00:00:29.000000" out="00:01:24.360000">
      <property name="background">colour:0</property>
      <property name="mlt_service">affine</property>
      <property name="shotcut:filter">affineSizePosition</property>
      <property name="transition.fill">1</property>
      <property name="transition.distort">0</property>
      <property name="transition.rect">-1920.0 -1080.0 1921.0 1081.0 1</property>
      <property name="transition.valign">top</property>
      <property name="transition.halign">left</property>
      <property name="shotcut:animIn">00:00:00.040000</property>
      <property name="shotcut:animOut">00:00:00.000</property>
      <property name="transition.threads">0</property>
    </filter>
    <filter id="filter426" in="00:00:29.000000" out="00:01:24.360000">
      <property name="window">75</property>
      <property name="max_gain">20dB</property>
      <property name="mlt_service">volume</property>
      <property name="shotcut:filter">muteVolume</property>
      <property name="gain">0</property>
    </filter>
  </producer>
  <playlist id="playlist46">
    <blank length="00:00:29.000000" /><property name="shotcut:video">1</property>
    <property name="shotcut:name">S Revol recadre</property>
    <property name="shotcut:lock">1</property>
    <entry in="00:00:29.000000" out="00:01:24.360000" producer="producer246" />
    <filter id="filter427" out="00:03:32.600">
      <property name="window">75</property>
      <property name="max_gain">20dB</property>
      <property name="level">-7</property>
      <property name="mlt_service">volume</property>
    </filter>
  </playlist>
  <producer id="producer247" in="00:00:00.000" out="00:03:35.640" title="Anonymous Submission">
    <property name="length">00:03:35:17</property>
    <property name="eof">pause</property>
    <property name="resource">../../006 - Videos format youtube/Bonus/Camille_bonus_recadre.mp4</property>
    <property name="audio_index">1</property>
    <property name="video_index">0</property>
    <property name="mute_on_pause">0</property>
    <property name="mlt_service">avformat-novalidate</property>
    <property name="seekable">1</property>
    <property name="aspect_ratio">1</property>
    <property name="creation_time">2020-05-04T19:45:54</property>
    <property name="shotcut:hash">2e165d68055d486add3c4562e4c703c2</property>
    <property name="ignore_points">0</property>
    <property name="shotcut:caption">Camille_bonus_recadre.mp4</property>
    <property name="shotcut:skipConvert">1</property>
    <property name="global_feed">1</property>
    <property name="xml">was here</property>
    <filter id="filter428" in="00:00:29.000000" out="00:01:24.360000">
      <property name="background">colour:0</property>
      <property name="mlt_service">affine</property>
      <property name="shotcut:filter">affineSizePosition</property>
      <property name="transition.fill">1</property>
      <property name="transition.distort">0</property>
      <property name="transition.rect">-1920.0 -1080.0 1921.0 1081.0 1</property>
      <property name="transition.valign">top</property>
      <property name="transition.halign">left</property>
      <property name="shotcut:animIn">00:00:00.040000</property>
      <property name="shotcut:animOut">00:00:00.000</property>
      <property name="transition.threads">0</property>
    </filter>
  </producer>
  <playlist id="playlist47">
    <blank length="00:00:29.000000" /><property name="shotcut:video">1</property>
    <property name="shotcut:name">Camille bonus recadre</property>
    <property name="shotcut:lock">1</property>
    <entry in="00:00:29.000000" out="00:01:24.360000" producer="producer247" />
  </playlist>
  <producer id="producer248" in="00:00:00.000" out="00:03:35.640" title="Anonymous Submission">
    <property name="length">00:03:35:17</property>
    <property name="eof">pause</property>
    <property name="resource">../../006 - Videos format youtube/Bonus/Bidou_bonus_recadre.mp4</property>
    <property name="audio_index">1</property>
    <property name="video_index">0</property>
    <property name="mute_on_pause">0</property>
    <property name="mlt_service">avformat-novalidate</property>
    <property name="seekable">1</property>
    <property name="aspect_ratio">1</property>
    <property name="creation_time">2020-05-04T19:40:43</property>
    <property name="shotcut:hash">cad9e016c8749576a320bd38391ed515</property>
    <property name="ignore_points">0</property>
    <property name="shotcut:caption">Bidou_bonus_recadre.mp4</property>
    <property name="shotcut:skipConvert">1</property>
    <property name="global_feed">1</property>
    <property name="xml">was here</property>
    <filter id="filter429" in="00:00:29.000000" out="00:01:24.360000">
      <property name="background">colour:0</property>
      <property name="mlt_service">affine</property>
      <property name="shotcut:filter">affineSizePosition</property>
      <property name="transition.fill">1</property>
      <property name="transition.distort">0</property>
      <property name="transition.rect">-1920.0 -1080.0 1921.0 1081.0 1</property>
      <property name="transition.valign">top</property>
      <property name="transition.halign">left</property>
      <property name="shotcut:animIn">00:00:00.040000</property>
      <property name="shotcut:animOut">00:00:00.000</property>
      <property name="transition.threads">0</property>
    </filter>
  </producer>
  <playlist id="playlist48">
    <blank length="00:00:29.000000" /><property name="shotcut:video">1</property>
    <property name="shotcut:name">Bidou bonus recadre</property>
    <property name="shotcut:lock">1</property>
    <entry in="00:00:29.000000" out="00:01:24.360000" producer="producer248" />
  </playlist>
  <producer id="producer249" in="00:00:00.000" out="00:03:35.640" title="Anonymous Submission">
    <property name="length">00:03:35:17</property>
    <property name="eof">pause</property>
    <property name="resource">../../006 - Videos format youtube/Bonus/Nelly_bonus_recadre.mp4</property>
    <property name="audio_index">1</property>
    <property name="video_index">0</property>
    <property name="mute_on_pause">0</property>
    <property name="mlt_service">avformat-novalidate</property>
    <property name="seekable">1</property>
    <property name="aspect_ratio">1</property>
    <property name="creation_time">2020-05-04T19:36:46</property>
    <property name="shotcut:hash">bda5dde38a2a50f885f7d825540c3463</property>
    <property name="ignore_points">0</property>
    <property name="shotcut:caption">Nelly_bonus_recadre.mp4</property>
    <property name="shotcut:skipConvert">1</property>
    <property name="global_feed">1</property>
    <property name="xml">was here</property>
    <filter id="filter430" in="00:00:29.000000" out="00:01:24.360000">
      <property name="background">colour:0</property>
      <property name="mlt_service">affine</property>
      <property name="shotcut:filter">affineSizePosition</property>
      <property name="transition.fill">1</property>
      <property name="transition.distort">0</property>
      <property name="transition.rect">-1920.0 -1080.0 1921.0 1081.0 1</property>
      <property name="transition.valign">top</property>
      <property name="transition.halign">left</property>
      <property name="shotcut:animIn">00:00:00.040000</property>
      <property name="shotcut:animOut">00:00:00.000</property>
      <property name="transition.threads">0</property>
    </filter>
  </producer>
  <playlist id="playlist49">
    <blank length="00:00:29.000000" /><property name="shotcut:video">1</property>
    <property name="shotcut:name">Nelly bonus recadre</property>
    <property name="shotcut:lock">1</property>
    <entry in="00:00:29.000000" out="00:01:24.360000" producer="producer249" />
  </playlist>
  <producer id="producer250" in="00:00:00.000" out="00:03:35.640" title="Anonymous Submission">
    <property name="length">00:03:35:17</property>
    <property name="eof">pause</property>
    <property name="resource">../../006 - Videos format youtube/Bonus/Laurence_bonus_recadre.mp4</property>
    <property name="audio_index">1</property>
    <property name="video_index">0</property>
    <property name="mute_on_pause">0</property>
    <property name="mlt_service">avformat-novalidate</property>
    <property name="seekable">1</property>
    <property name="aspect_ratio">1</property>
    <property name="creation_time">2020-05-04T19:48:20</property>
    <property name="shotcut:hash">96b817e0ade0ca64c6c4eafb78718e1d</property>
    <property name="ignore_points">0</property>
    <property name="shotcut:caption">Laurence_bonus_recadre.mp4</property>
    <property name="shotcut:skipConvert">1</property>
    <property name="global_feed">1</property>
    <property name="xml">was here</property>
    <filter id="filter431" in="00:00:28.960000" out="00:01:24.320000">
      <property name="background">colour:0</property>
      <property name="mlt_service">affine</property>
      <property name="shotcut:filter">affineSizePosition</property>
      <property name="transition.fill">1</property>
      <property name="transition.distort">0</property>
      <property name="transition.rect">-1920.0 -1080.0 1921.0 1081.0 1</property>
      <property name="transition.valign">top</property>
      <property name="transition.halign">left</property>
      <property name="shotcut:animIn">00:00:00.040000</property>
      <property name="shotcut:animOut">00:00:00.000</property>
      <property name="transition.threads">0</property>
    </filter>
  </producer>
  <playlist id="playlist50">
    <property name="shotcut:video">1</property>
    <property name="shotcut:name">Laurence bonus recadre</property>
    <property name="shotcut:lock">1</property>
    <blank length="00:00:29.000000" />
    <entry in="00:00:28.960000" out="00:01:24.320000" producer="producer250" />
  </playlist>
  <producer id="producer251" in="00:00:00.000" out="00:03:35.640" title="Anonymous Submission">
    <property name="length">00:03:35:17</property>
    <property name="eof">pause</property>
    <property name="resource">../../006 - Videos format youtube/Bonus/Nadine_bonus_recadre.mp4</property>
    <property name="audio_index">1</property>
    <property name="video_index">0</property>
    <property name="mute_on_pause">0</property>
    <property name="mlt_service">avformat-novalidate</property>
    <property name="seekable">1</property>
    <property name="aspect_ratio">1</property>
    <property name="creation_time">2020-05-04T19:47:08</property>
    <property name="shotcut:hash">72a5c03ede31823c1442cf41fa4ce158</property>
    <property name="ignore_points">0</property>
    <property name="shotcut:caption">Nadine_bonus_recadre.mp4</property>
    <property name="shotcut:skipConvert">1</property>
    <property name="global_feed">1</property>
    <property name="xml">was here</property>
    <filter id="filter432" in="00:00:29.000000" out="00:01:24.360000">
      <property name="background">colour:0</property>
      <property name="mlt_service">affine</property>
      <property name="shotcut:filter">affineSizePosition</property>
      <property name="transition.fill">1</property>
      <property name="transition.distort">0</property>
      <property name="transition.rect">-1920.0 -1080.0 1921.0 1081.0 1</property>
      <property name="transition.valign">top</property>
      <property name="transition.halign">left</property>
      <property name="shotcut:animIn">00:00:00.040000</property>
      <property name="shotcut:animOut">00:00:00.000</property>
      <property name="transition.threads">0</property>
    </filter>
  </producer>
  <playlist id="playlist51">
    <blank length="00:00:29.000000" /><property name="shotcut:video">1</property>
    <property name="shotcut:name">Nadine bonus recadre</property>
    <property name="shotcut:lock">1</property>
    <entry in="00:00:29.000000" out="00:01:24.360000" producer="producer251" />
  </playlist>
  <tractor global_feed="1" id="tractor0" in="00:00:00.000" out="00:03:41.680" title="Shotcut version 20.02.17">
    <property name="shotcut">1</property>
    <property name="shotcut:projectAudioChannels">2</property>
    <property name="shotcut:projectFolder">1</property>
    <property name="shotcut:scaleFactor">0.531825</property>
    <track producer="background" />
    <track hide="audio" producer="playlist0" />
    <track hide="audio" producer="playlist1" />
    <track hide="audio" producer="playlist2" />
    <track hide="audio" producer="playlist3" />
    <track hide="audio" producer="playlist4" />
    <track hide="audio" producer="playlist5" />
    <track hide="audio" producer="playlist6" />
    <track hide="video" producer="playlist7" />
    <track hide="audio" producer="playlist8" />
    <track hide="audio" producer="playlist9" />
    <track hide="audio" producer="playlist10" />
    <track hide="audio" producer="playlist11" />
    <track hide="audio" producer="playlist12" />
    <track hide="audio" producer="playlist13" />
    <track hide="audio" producer="playlist14" />
    <track hide="audio" producer="playlist15" />
    <track hide="audio" producer="playlist16" />
    <track hide="audio" producer="playlist17" />
    <track hide="audio" producer="playlist18" />
    <track hide="audio" producer="playlist19" />
    <track hide="audio" producer="playlist20" />
    <track hide="audio" producer="playlist21" />
    <track hide="audio" producer="playlist22" />
    <track hide="audio" producer="playlist23" />
    <track hide="audio" producer="playlist24" />
    <track hide="audio" producer="playlist25" />
    <track hide="audio" producer="playlist26" />
    <track hide="audio" producer="playlist27" />
    <track hide="audio" producer="playlist28" />
    <track hide="audio" producer="playlist29" />
    <track hide="audio" producer="playlist30" />
    <track hide="audio" producer="playlist31" />
    <track hide="audio" producer="playlist32" />
    <track hide="audio" producer="playlist33" />
    <track hide="audio" producer="playlist34" />
    <track hide="audio" producer="playlist35" />
    <track hide="audio" producer="playlist36" />
    <track hide="audio" producer="playlist37" />
    <track hide="audio" producer="playlist38" />
    <track hide="audio" producer="playlist39" />
    <track hide="audio" producer="playlist40" />
    <track hide="audio" producer="playlist41" />
    <track hide="audio" producer="playlist42" />
    <track hide="audio" producer="playlist43" />
    <track hide="audio" producer="playlist44" />
    <track hide="audio" producer="playlist45" />
    <track hide="audio" producer="playlist46" />
    <track hide="audio" producer="playlist47" />
    <track hide="audio" producer="playlist48" />
    <track hide="audio" producer="playlist49" />
    <track hide="audio" producer="playlist50" />
    <track hide="audio" producer="playlist51" />
    <transition id="transition0">
      <property name="a_track">0</property>
      <property name="b_track">1</property>
      <property name="mlt_service">mix</property>
      <property name="always_active">1</property>
      <property name="sum">1</property>
    </transition>
    <transition id="transition1">
      <property name="a_track">1</property>
      <property name="b_track">1</property>
      <property name="version">0.9</property>
      <property name="mlt_service">frei0r.cairoblend</property>
      <property name="disable">1</property>
    </transition>
    <transition id="transition2">
      <property name="a_track">1</property>
      <property name="b_track">2</property>
      <property name="version">0.9</property>
      <property name="mlt_service">frei0r.cairoblend</property>
    </transition>
    <transition id="transition3">
      <property name="a_track">1</property>
      <property name="b_track">3</property>
      <property name="version">0.9</property>
      <property name="mlt_service">frei0r.cairoblend</property>
    </transition>
    <transition id="transition4">
      <property name="a_track">0</property>
      <property name="b_track">4</property>
      <property name="mlt_service">mix</property>
      <property name="always_active">1</property>
      <property name="sum">1</property>
    </transition>
    <transition id="transition5">
      <property name="a_track">1</property>
      <property name="b_track">4</property>
      <property name="version">0.9</property>
      <property name="mlt_service">frei0r.cairoblend</property>
      <property name="disable">0</property>
    </transition>
    <transition id="transition6">
      <property name="a_track">0</property>
      <property name="b_track">5</property>
      <property name="mlt_service">mix</property>
      <property name="always_active">1</property>
      <property name="sum">1</property>
    </transition>
    <transition id="transition7">
      <property name="a_track">1</property>
      <property name="b_track">5</property>
      <property name="version">0.9</property>
      <property name="mlt_service">frei0r.cairoblend</property>
      <property name="disable">0</property>
    </transition>
    <transition id="transition8">
      <property name="a_track">0</property>
      <property name="b_track">6</property>
      <property name="mlt_service">mix</property>
      <property name="always_active">1</property>
      <property name="sum">1</property>
    </transition>
    <transition id="transition9">
      <property name="a_track">1</property>
      <property name="b_track">6</property>
      <property name="version">0.9</property>
      <property name="mlt_service">frei0r.cairoblend</property>
      <property name="disable">0</property>
    </transition>
    <transition id="transition10">
      <property name="a_track">0</property>
      <property name="b_track">2</property>
      <property name="mlt_service">mix</property>
      <property name="always_active">1</property>
      <property name="sum">1</property>
    </transition>
    <transition id="transition11">
      <property name="a_track">0</property>
      <property name="b_track">3</property>
      <property name="mlt_service">mix</property>
      <property name="always_active">1</property>
      <property name="sum">1</property>
    </transition>
    <transition id="transition12">
      <property name="a_track">0</property>
      <property name="b_track">7</property>
      <property name="mlt_service">mix</property>
      <property name="always_active">1</property>
      <property name="sum">1</property>
    </transition>
    <transition id="transition13">
      <property name="a_track">1</property>
      <property name="b_track">7</property>
      <property name="version">0.9</property>
      <property name="mlt_service">frei0r.cairoblend</property>
      <property name="disable">0</property>
    </transition>
    <transition id="transition14">
      <property name="a_track">0</property>
      <property name="b_track">8</property>
      <property name="mlt_service">mix</property>
      <property name="always_active">1</property>
      <property name="sum">1</property>
    </transition>
  <transition id="transition15">
      <property name="a_track">0</property>
      <property name="b_track">9</property>
      <property name="mlt_service">mix</property>
      <property name="always_active">1</property>
      <property name="sum">1</property>
    </transition>
    <transition id="transition16">
      <property name="a_track">1</property>
      <property name="b_track">9</property>
      <property name="version">0.9</property>
      <property name="mlt_service">frei0r.cairoblend</property>
      <property name="disable">0</property>
    </transition>
    <transition id="transition17">
      <property name="a_track">0</property>
      <property name="b_track">10</property>
      <property name="mlt_service">mix</property>
      <property name="always_active">1</property>
      <property name="sum">1</property>
    </transition>
    <transition id="transition18">
      <property name="a_track">1</property>
      <property name="b_track">10</property>
      <property name="version">0.9</property>
      <property name="mlt_service">frei0r.cairoblend</property>
      <property name="disable">0</property>
    </transition>
  <transition id="transition19">
      <property name="a_track">1</property>
      <property name="b_track">11</property>
      <property name="version">0.9</property>
      <property name="mlt_service">frei0r.cairoblend</property>
    </transition>
    <transition id="transition20">
      <property name="a_track">0</property>
      <property name="b_track">11</property>
      <property name="mlt_service">mix</property>
      <property name="always_active">1</property>
      <property name="sum">1</property>
    </transition>
    <transition id="transition21">
      <property name="a_track">1</property>
      <property name="b_track">12</property>
      <property name="version">0.9</property>
      <property name="mlt_service">frei0r.cairoblend</property>
    </transition>
    <transition id="transition22">
      <property name="a_track">0</property>
      <property name="b_track">12</property>
      <property name="mlt_service">mix</property>
      <property name="always_active">1</property>
      <property name="sum">1</property>
    </transition>
    <transition id="transition23">
      <property name="a_track">0</property>
      <property name="b_track">13</property>
      <property name="mlt_service">mix</property>
      <property name="always_active">1</property>
      <property name="sum">1</property>
    </transition>
    <transition id="transition24">
      <property name="a_track">1</property>
      <property name="b_track">13</property>
      <property name="version">0.9</property>
      <property name="mlt_service">frei0r.cairoblend</property>
      <property name="disable">0</property>
    </transition>
    <transition id="transition25">
      <property name="a_track">0</property>
      <property name="b_track">14</property>
      <property name="mlt_service">mix</property>
      <property name="always_active">1</property>
      <property name="sum">1</property>
    </transition>
    <transition id="transition26">
      <property name="a_track">1</property>
      <property name="b_track">14</property>
      <property name="version">0.9</property>
      <property name="mlt_service">frei0r.cairoblend</property>
      <property name="disable">0</property>
    </transition>
    <transition id="transition27">
      <property name="a_track">1</property>
      <property name="b_track">15</property>
      <property name="version">0.9</property>
      <property name="mlt_service">frei0r.cairoblend</property>
    </transition>
    <transition id="transition28">
      <property name="a_track">0</property>
      <property name="b_track">15</property>
      <property name="mlt_service">mix</property>
      <property name="always_active">1</property>
      <property name="sum">1</property>
    </transition>
    <transition id="transition29">
      <property name="a_track">1</property>
      <property name="b_track">16</property>
      <property name="version">0.9</property>
      <property name="mlt_service">frei0r.cairoblend</property>
    </transition>
    <transition id="transition30">
      <property name="a_track">0</property>
      <property name="b_track">16</property>
      <property name="mlt_service">mix</property>
      <property name="always_active">1</property>
      <property name="sum">1</property>
    </transition>
  <transition id="transition31">
      <property name="a_track">0</property>
      <property name="b_track">17</property>
      <property name="mlt_service">mix</property>
      <property name="always_active">1</property>
      <property name="sum">1</property>
    </transition>
    <transition id="transition32">
      <property name="a_track">1</property>
      <property name="b_track">17</property>
      <property name="version">0.9</property>
      <property name="mlt_service">frei0r.cairoblend</property>
      <property name="disable">0</property>
    </transition>
    <transition id="transition33">
      <property name="a_track">0</property>
      <property name="b_track">18</property>
      <property name="mlt_service">mix</property>
      <property name="always_active">1</property>
      <property name="sum">1</property>
    </transition>
    <transition id="transition34">
      <property name="a_track">1</property>
      <property name="b_track">18</property>
      <property name="version">0.9</property>
      <property name="mlt_service">frei0r.cairoblend</property>
      <property name="disable">0</property>
    </transition>
    <transition id="transition35">
      <property name="a_track">1</property>
      <property name="b_track">19</property>
      <property name="version">0.9</property>
      <property name="mlt_service">frei0r.cairoblend</property>
    </transition>
    <transition id="transition36">
      <property name="a_track">0</property>
      <property name="b_track">19</property>
      <property name="mlt_service">mix</property>
      <property name="always_active">1</property>
      <property name="sum">1</property>
    </transition>
    <transition id="transition37">
      <property name="a_track">0</property>
      <property name="b_track">20</property>
      <property name="mlt_service">mix</property>
      <property name="always_active">1</property>
      <property name="sum">1</property>
    </transition>
    <transition id="transition38">
      <property name="a_track">1</property>
      <property name="b_track">20</property>
      <property name="version">0.9</property>
      <property name="mlt_service">frei0r.cairoblend</property>
      <property name="disable">0</property>
    </transition>
    <transition id="transition39">
      <property name="a_track">0</property>
      <property name="b_track">21</property>
      <property name="mlt_service">mix</property>
      <property name="always_active">1</property>
      <property name="sum">1</property>
    </transition>
    <transition id="transition40">
      <property name="a_track">1</property>
      <property name="b_track">21</property>
      <property name="version">0.9</property>
      <property name="mlt_service">frei0r.cairoblend</property>
      <property name="disable">0</property>
    </transition>
    <transition id="transition41">
      <property name="a_track">0</property>
      <property name="b_track">22</property>
      <property name="mlt_service">mix</property>
      <property name="always_active">1</property>
      <property name="sum">1</property>
    </transition>
    <transition id="transition42">
      <property name="a_track">1</property>
      <property name="b_track">22</property>
      <property name="version">0.9</property>
      <property name="mlt_service">frei0r.cairoblend</property>
      <property name="disable">0</property>
    </transition>
  <transition id="transition43">
      <property name="a_track">0</property>
      <property name="b_track">23</property>
      <property name="mlt_service">mix</property>
      <property name="always_active">1</property>
      <property name="sum">1</property>
    </transition>
    <transition id="transition44">
      <property name="a_track">1</property>
      <property name="b_track">23</property>
      <property name="version">0.9</property>
      <property name="mlt_service">frei0r.cairoblend</property>
      <property name="disable">0</property>
    </transition>
    <transition id="transition45">
      <property name="a_track">1</property>
      <property name="b_track">24</property>
      <property name="version">0.9</property>
      <property name="mlt_service">frei0r.cairoblend</property>
    </transition>
    <transition id="transition46">
      <property name="a_track">0</property>
      <property name="b_track">24</property>
      <property name="mlt_service">mix</property>
      <property name="always_active">1</property>
      <property name="sum">1</property>
    </transition>
    <transition id="transition47">
      <property name="a_track">0</property>
      <property name="b_track">25</property>
      <property name="mlt_service">mix</property>
      <property name="always_active">1</property>
      <property name="sum">1</property>
    </transition>
    <transition id="transition48">
      <property name="a_track">1</property>
      <property name="b_track">25</property>
      <property name="version">0.9</property>
      <property name="mlt_service">frei0r.cairoblend</property>
      <property name="disable">0</property>
    </transition>
    <transition id="transition49">
      <property name="a_track">1</property>
      <property name="b_track">26</property>
      <property name="version">0.9</property>
      <property name="mlt_service">frei0r.cairoblend</property>
    </transition>
    <transition id="transition50">
      <property name="a_track">0</property>
      <property name="b_track">26</property>
      <property name="mlt_service">mix</property>
      <property name="always_active">1</property>
      <property name="sum">1</property>
    </transition>
  <transition id="transition51">
      <property name="a_track">1</property>
      <property name="b_track">27</property>
      <property name="version">0.9</property>
      <property name="mlt_service">frei0r.cairoblend</property>
    </transition>
    <transition id="transition52">
      <property name="a_track">0</property>
      <property name="b_track">27</property>
      <property name="mlt_service">mix</property>
      <property name="always_active">1</property>
      <property name="sum">1</property>
    </transition>
    <transition id="transition53">
      <property name="a_track">1</property>
      <property name="b_track">28</property>
      <property name="version">0.9</property>
      <property name="mlt_service">frei0r.cairoblend</property>
    </transition>
    <transition id="transition54">
      <property name="a_track">0</property>
      <property name="b_track">28</property>
      <property name="mlt_service">mix</property>
      <property name="always_active">1</property>
      <property name="sum">1</property>
    </transition>
    <transition id="transition55">
      <property name="a_track">0</property>
      <property name="b_track">29</property>
      <property name="mlt_service">mix</property>
      <property name="always_active">1</property>
      <property name="sum">1</property>
    </transition>
    <transition id="transition56">
      <property name="a_track">1</property>
      <property name="b_track">29</property>
      <property name="version">0.9</property>
      <property name="mlt_service">frei0r.cairoblend</property>
      <property name="disable">0</property>
    </transition>
    <transition id="transition57">
      <property name="a_track">0</property>
      <property name="b_track">30</property>
      <property name="mlt_service">mix</property>
      <property name="always_active">1</property>
      <property name="sum">1</property>
    </transition>
    <transition id="transition58">
      <property name="a_track">1</property>
      <property name="b_track">30</property>
      <property name="version">0.9</property>
      <property name="mlt_service">frei0r.cairoblend</property>
      <property name="disable">0</property>
    </transition>
    <transition id="transition59">
      <property name="a_track">1</property>
      <property name="b_track">31</property>
      <property name="version">0.9</property>
      <property name="mlt_service">frei0r.cairoblend</property>
    </transition>
    <transition id="transition60">
      <property name="a_track">0</property>
      <property name="b_track">31</property>
      <property name="mlt_service">mix</property>
      <property name="always_active">1</property>
      <property name="sum">1</property>
    </transition>
  <transition id="transition61">
      <property name="a_track">0</property>
      <property name="b_track">32</property>
      <property name="mlt_service">mix</property>
      <property name="always_active">1</property>
      <property name="sum">1</property>
    </transition>
    <transition id="transition62">
      <property name="a_track">1</property>
      <property name="b_track">32</property>
      <property name="version">0.9</property>
      <property name="mlt_service">frei0r.cairoblend</property>
      <property name="disable">0</property>
    </transition>
    <transition id="transition63">
      <property name="a_track">1</property>
      <property name="b_track">33</property>
      <property name="version">0.9</property>
      <property name="mlt_service">frei0r.cairoblend</property>
    </transition>
    <transition id="transition64">
      <property name="a_track">0</property>
      <property name="b_track">33</property>
      <property name="mlt_service">mix</property>
      <property name="always_active">1</property>
      <property name="sum">1</property>
    </transition>
    <transition id="transition65">
      <property name="a_track">1</property>
      <property name="b_track">34</property>
      <property name="version">0.9</property>
      <property name="mlt_service">frei0r.cairoblend</property>
    </transition>
    <transition id="transition66">
      <property name="a_track">0</property>
      <property name="b_track">34</property>
      <property name="mlt_service">mix</property>
      <property name="always_active">1</property>
      <property name="sum">1</property>
    </transition>
    <transition id="transition67">
      <property name="a_track">0</property>
      <property name="b_track">35</property>
      <property name="mlt_service">mix</property>
      <property name="always_active">1</property>
      <property name="sum">1</property>
    </transition>
    <transition id="transition68">
      <property name="a_track">1</property>
      <property name="b_track">35</property>
      <property name="version">0.9</property>
      <property name="mlt_service">frei0r.cairoblend</property>
      <property name="disable">0</property>
    </transition>
    <transition id="transition69">
      <property name="a_track">0</property>
      <property name="b_track">36</property>
      <property name="mlt_service">mix</property>
      <property name="always_active">1</property>
      <property name="sum">1</property>
    </transition>
    <transition id="transition70">
      <property name="a_track">1</property>
      <property name="b_track">36</property>
      <property name="version">0.9</property>
      <property name="mlt_service">frei0r.cairoblend</property>
      <property name="disable">0</property>
    </transition>
    <transition id="transition71">
      <property name="a_track">0</property>
      <property name="b_track">37</property>
      <property name="mlt_service">mix</property>
      <property name="always_active">1</property>
      <property name="sum">1</property>
    </transition>
    <transition id="transition72">
      <property name="a_track">1</property>
      <property name="b_track">37</property>
      <property name="version">0.9</property>
      <property name="mlt_service">frei0r.cairoblend</property>
      <property name="disable">0</property>
    </transition>
    <transition id="transition73">
      <property name="a_track">0</property>
      <property name="b_track">38</property>
      <property name="mlt_service">mix</property>
      <property name="always_active">1</property>
      <property name="sum">1</property>
    </transition>
    <transition id="transition74">
      <property name="a_track">1</property>
      <property name="b_track">38</property>
      <property name="version">0.9</property>
      <property name="mlt_service">frei0r.cairoblend</property>
      <property name="disable">0</property>
    </transition>
    <transition id="transition75">
      <property name="a_track">0</property>
      <property name="b_track">39</property>
      <property name="mlt_service">mix</property>
      <property name="always_active">1</property>
      <property name="sum">1</property>
    </transition>
    <transition id="transition76">
      <property name="a_track">1</property>
      <property name="b_track">39</property>
      <property name="version">0.9</property>
      <property name="mlt_service">frei0r.cairoblend</property>
      <property name="disable">0</property>
    </transition>
    <transition id="transition77">
      <property name="a_track">0</property>
      <property name="b_track">40</property>
      <property name="mlt_service">mix</property>
      <property name="always_active">1</property>
      <property name="sum">1</property>
    </transition>
    <transition id="transition78">
      <property name="a_track">1</property>
      <property name="b_track">40</property>
      <property name="version">0.9</property>
      <property name="mlt_service">frei0r.cairoblend</property>
      <property name="disable">0</property>
    </transition>
  <transition id="transition79">
      <property name="a_track">0</property>
      <property name="b_track">41</property>
      <property name="mlt_service">mix</property>
      <property name="always_active">1</property>
      <property name="sum">1</property>
    </transition>
    <transition id="transition80">
      <property name="a_track">1</property>
      <property name="b_track">41</property>
      <property name="version">0.9</property>
      <property name="mlt_service">frei0r.cairoblend</property>
      <property name="disable">0</property>
    </transition>
    <transition id="transition81">
      <property name="a_track">0</property>
      <property name="b_track">42</property>
      <property name="mlt_service">mix</property>
      <property name="always_active">1</property>
      <property name="sum">1</property>
    </transition>
    <transition id="transition82">
      <property name="a_track">1</property>
      <property name="b_track">42</property>
      <property name="version">0.9</property>
      <property name="mlt_service">frei0r.cairoblend</property>
      <property name="disable">0</property>
    </transition>
    <transition id="transition83">
      <property name="a_track">1</property>
      <property name="b_track">43</property>
      <property name="version">0.9</property>
      <property name="mlt_service">frei0r.cairoblend</property>
    </transition>
    <transition id="transition84">
      <property name="a_track">0</property>
      <property name="b_track">43</property>
      <property name="mlt_service">mix</property>
      <property name="always_active">1</property>
      <property name="sum">1</property>
    </transition>
  <transition id="transition85">
      <property name="a_track">0</property>
      <property name="b_track">44</property>
      <property name="mlt_service">mix</property>
      <property name="always_active">1</property>
      <property name="sum">1</property>
    </transition>
    <transition id="transition86">
      <property name="a_track">1</property>
      <property name="b_track">44</property>
      <property name="version">0.9</property>
      <property name="mlt_service">frei0r.cairoblend</property>
      <property name="disable">0</property>
    </transition>
    <transition id="transition87">
      <property name="a_track">0</property>
      <property name="b_track">45</property>
      <property name="mlt_service">mix</property>
      <property name="always_active">1</property>
      <property name="sum">1</property>
    </transition>
    <transition id="transition88">
      <property name="a_track">1</property>
      <property name="b_track">45</property>
      <property name="version">0.9</property>
      <property name="mlt_service">frei0r.cairoblend</property>
      <property name="disable">0</property>
    </transition>
    <transition id="transition89">
      <property name="a_track">1</property>
      <property name="b_track">46</property>
      <property name="version">0.9</property>
      <property name="mlt_service">frei0r.cairoblend</property>
    </transition>
    <transition id="transition90">
      <property name="a_track">0</property>
      <property name="b_track">46</property>
      <property name="mlt_service">mix</property>
      <property name="always_active">1</property>
      <property name="sum">1</property>
    </transition>
    <transition id="transition91">
      <property name="a_track">0</property>
      <property name="b_track">47</property>
      <property name="mlt_service">mix</property>
      <property name="always_active">1</property>
      <property name="sum">1</property>
    </transition>
    <transition id="transition92">
      <property name="a_track">1</property>
      <property name="b_track">47</property>
      <property name="version">0.9</property>
      <property name="mlt_service">frei0r.cairoblend</property>
      <property name="disable">0</property>
    </transition>
  <transition id="transition93">
      <property name="a_track">1</property>
      <property name="b_track">48</property>
      <property name="version">0.9</property>
      <property name="mlt_service">frei0r.cairoblend</property>
    </transition>
    <transition id="transition94">
      <property name="a_track">0</property>
      <property name="b_track">48</property>
      <property name="mlt_service">mix</property>
      <property name="always_active">1</property>
      <property name="sum">1</property>
    </transition>
    <transition id="transition95">
      <property name="a_track">1</property>
      <property name="b_track">49</property>
      <property name="version">0.9</property>
      <property name="mlt_service">frei0r.cairoblend</property>
    </transition>
    <transition id="transition96">
      <property name="a_track">0</property>
      <property name="b_track">49</property>
      <property name="mlt_service">mix</property>
      <property name="always_active">1</property>
      <property name="sum">1</property>
    </transition>
    <transition id="transition97">
      <property name="a_track">1</property>
      <property name="b_track">50</property>
      <property name="version">0.9</property>
      <property name="mlt_service">frei0r.cairoblend</property>
    </transition>
    <transition id="transition98">
      <property name="a_track">0</property>
      <property name="b_track">50</property>
      <property name="mlt_service">mix</property>
      <property name="always_active">1</property>
      <property name="sum">1</property>
    </transition>
    <transition id="transition99">
      <property name="a_track">1</property>
      <property name="b_track">51</property>
      <property name="version">0.9</property>
      <property name="mlt_service">frei0r.cairoblend</property>
    </transition>
    <transition id="transition100">
      <property name="a_track">0</property>
      <property name="b_track">51</property>
      <property name="mlt_service">mix</property>
      <property name="always_active">1</property>
      <property name="sum">1</property>
    </transition>
  <transition id="transition101">
      <property name="a_track">0</property>
      <property name="b_track">52</property>
      <property name="mlt_service">mix</property>
      <property name="always_active">1</property>
      <property name="sum">1</property>
    </transition>
    <transition id="transition102">
      <property name="a_track">1</property>
      <property name="b_track">52</property>
      <property name="version">0.9</property>
      <property name="mlt_service">frei0r.cairoblend</property>
      <property name="disable">0</property>
    </transition>
    </tractor>
</mlt>