<?xml version="1.0" encoding="utf-8"?>
<mlt LC_NUMERIC="C" version="6.17.0" title="Shotcut version 19.08.05" producer="main_bin">
  <profile description="HD 1080p 25 fps" width="1920" height="1080" progressive="1" sample_aspect_num="1" sample_aspect_den="1" display_aspect_num="16" display_aspect_den="9" frame_rate_num="25" frame_rate_den="1" colorspace="709"/>
  <playlist id="main_bin">
    <property name="xml_retain">1</property>
  </playlist>
  <producer id="black" in="00:00:00.000" out="00:03:25.720">
    <property name="length">5144</property>
    <property name="eof">pause</property>
    <property name="resource">0</property>
    <property name="aspect_ratio">1</property>
    <property name="mlt_service">color</property>
    <property name="mlt_image_format">rgb24a</property>
    <property name="set.test_audio">0</property>
  </producer>
  <playlist id="background">
    <entry producer="black" in="00:00:00.000" out="00:03:25.720"/>
  </playlist>
  <producer id="producer0" title="Anonymous Submission" in="00:00:00.000" out="00:02:58.320">
    <property name="length">00:02:58:09</property>
    <property name="eof">pause</property>
    <property name="resource">../../006 - Videos format youtube/Chef/Jean-Jacques_chef_totoro.mp4</property>
    <property name="audio_index">1</property>
    <property name="video_index">0</property>
    <property name="mute_on_pause">0</property>
    <property name="mlt_service">avformat-novalidate</property>
    <property name="seekable">1</property>
    <property name="aspect_ratio">1</property>
    <property name="creation_time">2020-04-05T13:55:58</property>
    <property name="shotcut:hash">54631fa1ec31562eee0a931256e35e96</property>
    <property name="ignore_points">0</property>
    <property name="shotcut:caption">Jean-Jacques_chef_totoro.mp4</property>
    <property name="shotcut:skipConvert">1</property>
    <property name="global_feed">1</property>
    <property name="xml">was here</property>
    <filter id="filter0" out="00:02:58.320">
      <property name="background">colour:0</property>
      <property name="mlt_service">affine</property>
      <property name="shotcut:filter">affineSizePosition</property>
      <property name="transition.fill">1</property>
      <property name="transition.distort">0</property>
      <property name="transition.rect">468 263 865 485 1</property>
      <property name="transition.valign">top</property>
      <property name="transition.halign">left</property>
      <property name="shotcut:animIn">00:00:00.000</property>
      <property name="shotcut:animOut">00:00:00.000</property>
      <property name="transition.threads">0</property>
    </filter>
  </producer>
  <playlist id="playlist0">
    <property name="shotcut:video">1</property>
    <property name="shotcut:name">Chef_JJS</property>
    <property name="shotcut:lock">1</property>
    <blank length="00:00:22.320"/>
    <entry producer="producer0" in="00:00:00.000" out="00:02:58.320"/>
  </playlist>
  <producer id="producer1" title="Anonymous Submission" in="00:00:00.000" out="03:59:59.960">
    <property name="length">04:00:00:00</property>
    <property name="eof">pause</property>
    <property name="resource">#00000000</property>
    <property name="aspect_ratio">1</property>
    <property name="mlt_service">color</property>
    <property name="mlt_image_format">rgb24a</property>
    <property name="shotcut:caption">transparent</property>
    <property name="ignore_points">0</property>
    <property name="global_feed">1</property>
    <property name="xml">was here</property>
    <property name="seekable">1</property>
    <filter id="filter1" out="00:00:04.960">
      <property name="argument">Logo EMGB</property>
      <property name="geometry">0 0 1920 1080 1</property>
      <property name="family">Verdana</property>
      <property name="size">1080</property>
      <property name="weight">500</property>
      <property name="style">normal</property>
      <property name="fgcolour">#ffffffff</property>
      <property name="bgcolour">#00000000</property>
      <property name="olcolour">#aa000000</property>
      <property name="pad">0</property>
      <property name="halign">center</property>
      <property name="valign">bottom</property>
      <property name="outline">3</property>
      <property name="mlt_service">dynamictext</property>
      <property name="shotcut:filter">dynamicText</property>
      <property name="shotcut:usePointSize">0</property>
      <property name="shotcut:animIn">00:00:00.000</property>
      <property name="shotcut:animOut">00:00:00.000</property>
    </filter>
  </producer>
  <producer id="producer2" title="Anonymous Submission" in="00:00:00.000" out="03:59:59.960">
    <property name="length">04:00:00:00</property>
    <property name="eof">pause</property>
    <property name="resource">#00000000</property>
    <property name="aspect_ratio">1</property>
    <property name="mlt_service">color</property>
    <property name="mlt_image_format">rgb24a</property>
    <property name="shotcut:caption">transparent</property>
    <property name="ignore_points">0</property>
    <property name="global_feed">1</property>
    <property name="xml">was here</property>
    <property name="seekable">1</property>
    <filter id="filter2" in="00:00:05.000" out="00:00:14.960">
      <property name="argument">Temps de marge pour faire apparaitre/entrer les musiciens</property>
      <property name="geometry">0 0 1920 1080 1</property>
      <property name="family">Verdana</property>
      <property name="size">1080</property>
      <property name="weight">500</property>
      <property name="style">normal</property>
      <property name="fgcolour">#ffffffff</property>
      <property name="bgcolour">#00000000</property>
      <property name="olcolour">#aa000000</property>
      <property name="pad">0</property>
      <property name="halign">center</property>
      <property name="valign">bottom</property>
      <property name="outline">3</property>
      <property name="mlt_service">dynamictext</property>
      <property name="shotcut:filter">dynamicText</property>
      <property name="shotcut:usePointSize">0</property>
      <property name="shotcut:animIn">00:00:00.000</property>
      <property name="shotcut:animOut">00:00:00.000</property>
    </filter>
  </producer>
  <playlist id="playlist1">
    <property name="shotcut:video">1</property>
    <property name="shotcut:name">Storyboard</property>
    <property name="shotcut:lock">1</property>
    <entry producer="producer1" in="00:00:00.000" out="00:00:04.960"/>
    <entry producer="producer2" in="00:00:05.000" out="00:00:14.960"/>
  </playlist>
  <producer id="producer3" title="Anonymous Submission" in="00:00:00.000" out="00:03:24.560">
    <property name="length">00:03:24:15</property>
    <property name="eof">pause</property>
    <property name="resource">../../003 - Bande son/Practice avec texte initial et son youtube.mp4</property>
    <property name="audio_index">1</property>
    <property name="video_index">0</property>
    <property name="mute_on_pause">0</property>
    <property name="mlt_service">avformat-novalidate</property>
    <property name="seekable">1</property>
    <property name="aspect_ratio">1</property>
    <property name="creation_time">2020-04-04T10:52:53</property>
    <property name="shotcut:hash">4799385e220417e9b67b0873b03fdf9a</property>
    <property name="ignore_points">0</property>
    <property name="shotcut:caption">Practice avec texte initial et son youtube.mp4</property>
    <property name="shotcut:skipConvert">1</property>
    <property name="global_feed">1</property>
    <property name="xml">was here</property>
  </producer>
  <playlist id="playlist2">
    <property name="shotcut:video">1</property>
    <property name="shotcut:name">Bande_son_practice</property>
    <property name="shotcut:lock">1</property>
    <blank length="00:00:15.000"/>
    <entry producer="producer3" in="00:00:18.960" out="00:03:24.560"/>
  </playlist>
  <producer id="producer4" title="Anonymous Submission" in="00:00:00.000" out="00:03:16.680">
    <property name="length">00:03:16:18</property>
    <property name="eof">pause</property>
    <property name="resource">../../006 - Videos format youtube/Trombone/Camille_trombone_totoro.mp4</property>
    <property name="audio_index">1</property>
    <property name="video_index">0</property>
    <property name="mute_on_pause">0</property>
    <property name="mlt_service">avformat-novalidate</property>
    <property name="seekable">1</property>
    <property name="aspect_ratio">1</property>
    <property name="creation_time">2020-04-09T17:56:38</property>
    <property name="shotcut:hash">6322ebba469dd48f4d62f48f0e58e722</property>
    <property name="ignore_points">0</property>
    <property name="shotcut:caption">Camille_trombone_totoro.mp4</property>
    <property name="shotcut:skipConvert">1</property>
    <property name="global_feed">1</property>
    <property name="xml">was here</property>
    <filter id="filter3" out="00:00:20.240">
      <property name="background">colour:0</property>
      <property name="mlt_service">affine</property>
      <property name="shotcut:filter">affineSizePosition</property>
      <property name="transition.fill">1</property>
      <property name="transition.distort">0</property>
      <property name="transition.rect">0 0 1920 1080 1</property>
      <property name="transition.valign">top</property>
      <property name="transition.halign">left</property>
      <property name="shotcut:animIn">00:00:00.000</property>
      <property name="shotcut:animOut">00:00:00.000</property>
      <property name="transition.threads">0</property>
    </filter>
    <filter id="filter4" out="00:00:20.240">
      <property name="window">75</property>
      <property name="max_gain">20dB</property>
      <property name="mlt_service">volume</property>
      <property name="shotcut:filter">muteVolume</property>
      <property name="gain">0</property>
    </filter>
  </producer>
  <producer id="producer5" title="Anonymous Submission" in="00:00:00.000" out="00:03:16.680">
    <property name="length">00:03:16:18</property>
    <property name="eof">pause</property>
    <property name="resource">../../006 - Videos format youtube/Trombone/Camille_trombone_totoro.mp4</property>
    <property name="audio_index">1</property>
    <property name="video_index">0</property>
    <property name="mute_on_pause">0</property>
    <property name="mlt_service">avformat-novalidate</property>
    <property name="seekable">1</property>
    <property name="aspect_ratio">1</property>
    <property name="creation_time">2020-04-09T17:56:38</property>
    <property name="shotcut:hash">6322ebba469dd48f4d62f48f0e58e722</property>
    <property name="ignore_points">0</property>
    <property name="shotcut:caption">Camille_trombone_totoro.mp4</property>
    <property name="shotcut:skipConvert">1</property>
    <property name="global_feed">1</property>
    <property name="xml">was here</property>
    <filter id="filter5" in="00:00:20.280" out="00:00:34.040">
      <property name="background">colour:0</property>
      <property name="mlt_service">affine</property>
      <property name="shotcut:filter">affineSizePosition</property>
      <property name="transition.fill">1</property>
      <property name="transition.distort">0</property>
      <property name="transition.rect">0 0 1920 1080 1</property>
      <property name="transition.valign">top</property>
      <property name="transition.halign">left</property>
      <property name="shotcut:animIn">00:00:00.000</property>
      <property name="shotcut:animOut">00:00:00.000</property>
      <property name="transition.threads">0</property>
    </filter>
  </producer>
  <producer id="producer6" title="Anonymous Submission" in="00:00:00.000" out="00:03:16.680">
    <property name="length">00:03:16:18</property>
    <property name="eof">pause</property>
    <property name="resource">../../006 - Videos format youtube/Trombone/Camille_trombone_totoro.mp4</property>
    <property name="audio_index">1</property>
    <property name="video_index">0</property>
    <property name="mute_on_pause">0</property>
    <property name="mlt_service">avformat-novalidate</property>
    <property name="seekable">1</property>
    <property name="aspect_ratio">1</property>
    <property name="creation_time">2020-04-09T17:56:38</property>
    <property name="shotcut:hash">6322ebba469dd48f4d62f48f0e58e722</property>
    <property name="ignore_points">0</property>
    <property name="shotcut:caption">Camille_trombone_totoro.mp4</property>
    <property name="shotcut:skipConvert">1</property>
    <property name="global_feed">1</property>
    <property name="xml">was here</property>
    <filter id="filter6" in="00:00:34.080" out="00:00:34.560">
      <property name="background">colour:0</property>
      <property name="mlt_service">affine</property>
      <property name="shotcut:filter">affineSizePosition</property>
      <property name="transition.fill">1</property>
      <property name="transition.distort">0</property>
      <property name="transition.rect">0 0 1920 1080 1</property>
      <property name="transition.valign">top</property>
      <property name="transition.halign">left</property>
      <property name="shotcut:animIn">00:00:00.000</property>
      <property name="shotcut:animOut">00:00:00.000</property>
      <property name="transition.threads">0</property>
    </filter>
    <filter id="filter7" in="00:00:34.080" out="00:00:34.560">
      <property name="window">75</property>
      <property name="max_gain">20dB</property>
      <property name="mlt_service">volume</property>
      <property name="shotcut:filter">muteVolume</property>
      <property name="gain">0</property>
    </filter>
  </producer>
  <producer id="producer7" title="Anonymous Submission" in="00:00:00.000" out="00:03:16.680">
    <property name="length">00:03:16:18</property>
    <property name="eof">pause</property>
    <property name="resource">../../006 - Videos format youtube/Trombone/Camille_trombone_totoro.mp4</property>
    <property name="audio_index">1</property>
    <property name="video_index">0</property>
    <property name="mute_on_pause">0</property>
    <property name="mlt_service">avformat-novalidate</property>
    <property name="seekable">1</property>
    <property name="aspect_ratio">1</property>
    <property name="creation_time">2020-04-09T17:56:38</property>
    <property name="shotcut:hash">6322ebba469dd48f4d62f48f0e58e722</property>
    <property name="ignore_points">0</property>
    <property name="shotcut:caption">Camille_trombone_totoro.mp4</property>
    <property name="shotcut:skipConvert">1</property>
    <property name="global_feed">1</property>
    <property name="xml">was here</property>
    <filter id="filter8" in="00:00:34.600" out="00:00:40.800">
      <property name="background">colour:0</property>
      <property name="mlt_service">affine</property>
      <property name="shotcut:filter">affineSizePosition</property>
      <property name="transition.fill">1</property>
      <property name="transition.distort">0</property>
      <property name="transition.rect">0 0 1920 1080 1</property>
      <property name="transition.valign">top</property>
      <property name="transition.halign">left</property>
      <property name="shotcut:animIn">00:00:00.000</property>
      <property name="shotcut:animOut">00:00:00.000</property>
      <property name="transition.threads">0</property>
    </filter>
  </producer>
  <producer id="producer8" title="Anonymous Submission" in="00:00:00.000" out="00:03:16.680">
    <property name="length">00:03:16:18</property>
    <property name="eof">pause</property>
    <property name="resource">../../006 - Videos format youtube/Trombone/Camille_trombone_totoro.mp4</property>
    <property name="audio_index">1</property>
    <property name="video_index">0</property>
    <property name="mute_on_pause">0</property>
    <property name="mlt_service">avformat-novalidate</property>
    <property name="seekable">1</property>
    <property name="aspect_ratio">1</property>
    <property name="creation_time">2020-04-09T17:56:38</property>
    <property name="shotcut:hash">6322ebba469dd48f4d62f48f0e58e722</property>
    <property name="ignore_points">0</property>
    <property name="shotcut:caption">Camille_trombone_totoro.mp4</property>
    <property name="shotcut:skipConvert">1</property>
    <property name="global_feed">1</property>
    <property name="xml">was here</property>
    <filter id="filter9" in="00:00:40.840" out="00:00:41.320">
      <property name="background">colour:0</property>
      <property name="mlt_service">affine</property>
      <property name="shotcut:filter">affineSizePosition</property>
      <property name="transition.fill">1</property>
      <property name="transition.distort">0</property>
      <property name="transition.rect">0 0 1920 1080 1</property>
      <property name="transition.valign">top</property>
      <property name="transition.halign">left</property>
      <property name="shotcut:animIn">00:00:00.000</property>
      <property name="shotcut:animOut">00:00:00.000</property>
      <property name="transition.threads">0</property>
    </filter>
    <filter id="filter10" in="00:00:40.840" out="00:00:41.320">
      <property name="window">75</property>
      <property name="max_gain">20dB</property>
      <property name="mlt_service">volume</property>
      <property name="shotcut:filter">muteVolume</property>
      <property name="gain">0</property>
    </filter>
  </producer>
  <producer id="producer9" title="Anonymous Submission" in="00:00:00.000" out="00:03:16.680">
    <property name="length">00:03:16:18</property>
    <property name="eof">pause</property>
    <property name="resource">../../006 - Videos format youtube/Trombone/Camille_trombone_totoro.mp4</property>
    <property name="audio_index">1</property>
    <property name="video_index">0</property>
    <property name="mute_on_pause">0</property>
    <property name="mlt_service">avformat-novalidate</property>
    <property name="seekable">1</property>
    <property name="aspect_ratio">1</property>
    <property name="creation_time">2020-04-09T17:56:38</property>
    <property name="shotcut:hash">6322ebba469dd48f4d62f48f0e58e722</property>
    <property name="ignore_points">0</property>
    <property name="shotcut:caption">Camille_trombone_totoro.mp4</property>
    <property name="shotcut:skipConvert">1</property>
    <property name="global_feed">1</property>
    <property name="xml">was here</property>
    <filter id="filter11" in="00:00:41.360" out="00:00:47.720">
      <property name="background">colour:0</property>
      <property name="mlt_service">affine</property>
      <property name="shotcut:filter">affineSizePosition</property>
      <property name="transition.fill">1</property>
      <property name="transition.distort">0</property>
      <property name="transition.rect">0 0 1920 1080 1</property>
      <property name="transition.valign">top</property>
      <property name="transition.halign">left</property>
      <property name="shotcut:animIn">00:00:00.000</property>
      <property name="shotcut:animOut">00:00:00.000</property>
      <property name="transition.threads">0</property>
    </filter>
  </producer>
  <producer id="producer10" title="Anonymous Submission" in="00:00:00.000" out="00:03:16.680">
    <property name="length">00:03:16:18</property>
    <property name="eof">pause</property>
    <property name="resource">../../006 - Videos format youtube/Trombone/Camille_trombone_totoro.mp4</property>
    <property name="audio_index">1</property>
    <property name="video_index">0</property>
    <property name="mute_on_pause">0</property>
    <property name="mlt_service">avformat-novalidate</property>
    <property name="seekable">1</property>
    <property name="aspect_ratio">1</property>
    <property name="creation_time">2020-04-09T17:56:38</property>
    <property name="shotcut:hash">6322ebba469dd48f4d62f48f0e58e722</property>
    <property name="ignore_points">0</property>
    <property name="shotcut:caption">Camille_trombone_totoro.mp4</property>
    <property name="shotcut:skipConvert">1</property>
    <property name="global_feed">1</property>
    <property name="xml">was here</property>
    <filter id="filter12" in="00:00:47.760" out="00:00:48.280">
      <property name="background">colour:0</property>
      <property name="mlt_service">affine</property>
      <property name="shotcut:filter">affineSizePosition</property>
      <property name="transition.fill">1</property>
      <property name="transition.distort">0</property>
      <property name="transition.rect">0 0 1920 1080 1</property>
      <property name="transition.valign">top</property>
      <property name="transition.halign">left</property>
      <property name="shotcut:animIn">00:00:00.000</property>
      <property name="shotcut:animOut">00:00:00.000</property>
      <property name="transition.threads">0</property>
    </filter>
    <filter id="filter13" in="00:00:47.760" out="00:00:48.280">
      <property name="window">75</property>
      <property name="max_gain">20dB</property>
      <property name="mlt_service">volume</property>
      <property name="shotcut:filter">muteVolume</property>
      <property name="gain">0</property>
    </filter>
  </producer>
  <producer id="producer11" title="Anonymous Submission" in="00:00:00.000" out="00:03:16.680">
    <property name="length">00:03:16:18</property>
    <property name="eof">pause</property>
    <property name="resource">../../006 - Videos format youtube/Trombone/Camille_trombone_totoro.mp4</property>
    <property name="audio_index">1</property>
    <property name="video_index">0</property>
    <property name="mute_on_pause">0</property>
    <property name="mlt_service">avformat-novalidate</property>
    <property name="seekable">1</property>
    <property name="aspect_ratio">1</property>
    <property name="creation_time">2020-04-09T17:56:38</property>
    <property name="shotcut:hash">6322ebba469dd48f4d62f48f0e58e722</property>
    <property name="ignore_points">0</property>
    <property name="shotcut:caption">Camille_trombone_totoro.mp4</property>
    <property name="shotcut:skipConvert">1</property>
    <property name="global_feed">1</property>
    <property name="xml">was here</property>
    <filter id="filter14" in="00:00:48.320" out="00:01:35.800">
      <property name="background">colour:0</property>
      <property name="mlt_service">affine</property>
      <property name="shotcut:filter">affineSizePosition</property>
      <property name="transition.fill">1</property>
      <property name="transition.distort">0</property>
      <property name="transition.rect">0 0 1920 1080 1</property>
      <property name="transition.valign">top</property>
      <property name="transition.halign">left</property>
      <property name="shotcut:animIn">00:00:00.000</property>
      <property name="shotcut:animOut">00:00:00.000</property>
      <property name="transition.threads">0</property>
    </filter>
  </producer>
  <producer id="producer12" title="Anonymous Submission" in="00:00:00.000" out="00:03:16.680">
    <property name="length">00:03:16:18</property>
    <property name="eof">pause</property>
    <property name="resource">../../006 - Videos format youtube/Trombone/Camille_trombone_totoro.mp4</property>
    <property name="audio_index">1</property>
    <property name="video_index">0</property>
    <property name="mute_on_pause">0</property>
    <property name="mlt_service">avformat-novalidate</property>
    <property name="seekable">1</property>
    <property name="aspect_ratio">1</property>
    <property name="creation_time">2020-04-09T17:56:38</property>
    <property name="shotcut:hash">6322ebba469dd48f4d62f48f0e58e722</property>
    <property name="ignore_points">0</property>
    <property name="shotcut:caption">Camille_trombone_totoro.mp4</property>
    <property name="shotcut:skipConvert">1</property>
    <property name="global_feed">1</property>
    <property name="xml">was here</property>
    <filter id="filter15" in="00:01:35.840" out="00:01:49.360">
      <property name="background">colour:0</property>
      <property name="mlt_service">affine</property>
      <property name="shotcut:filter">affineSizePosition</property>
      <property name="transition.fill">1</property>
      <property name="transition.distort">0</property>
      <property name="transition.rect">0 0 1920 1080 1</property>
      <property name="transition.valign">top</property>
      <property name="transition.halign">left</property>
      <property name="shotcut:animIn">00:00:00.000</property>
      <property name="shotcut:animOut">00:00:00.000</property>
      <property name="transition.threads">0</property>
    </filter>
    <filter id="filter16" in="00:01:35.840" out="00:01:49.360">
      <property name="window">75</property>
      <property name="max_gain">20dB</property>
      <property name="mlt_service">volume</property>
      <property name="shotcut:filter">muteVolume</property>
      <property name="gain">0</property>
    </filter>
  </producer>
  <producer id="producer13" title="Anonymous Submission" in="00:00:00.000" out="00:03:16.680">
    <property name="length">00:03:16:18</property>
    <property name="eof">pause</property>
    <property name="resource">../../006 - Videos format youtube/Trombone/Camille_trombone_totoro.mp4</property>
    <property name="audio_index">1</property>
    <property name="video_index">0</property>
    <property name="mute_on_pause">0</property>
    <property name="mlt_service">avformat-novalidate</property>
    <property name="seekable">1</property>
    <property name="aspect_ratio">1</property>
    <property name="creation_time">2020-04-09T17:56:38</property>
    <property name="shotcut:hash">6322ebba469dd48f4d62f48f0e58e722</property>
    <property name="ignore_points">0</property>
    <property name="shotcut:caption">Camille_trombone_totoro.mp4</property>
    <property name="shotcut:skipConvert">1</property>
    <property name="global_feed">1</property>
    <property name="xml">was here</property>
    <filter id="filter17" in="00:01:49.400" out="00:02:04.800">
      <property name="background">colour:0</property>
      <property name="mlt_service">affine</property>
      <property name="shotcut:filter">affineSizePosition</property>
      <property name="transition.fill">1</property>
      <property name="transition.distort">0</property>
      <property name="transition.rect">0 0 1920 1080 1</property>
      <property name="transition.valign">top</property>
      <property name="transition.halign">left</property>
      <property name="shotcut:animIn">00:00:00.000</property>
      <property name="shotcut:animOut">00:00:00.000</property>
      <property name="transition.threads">0</property>
    </filter>
  </producer>
  <producer id="producer14" title="Anonymous Submission" in="00:00:00.000" out="00:03:16.680">
    <property name="length">00:03:16:18</property>
    <property name="eof">pause</property>
    <property name="resource">../../006 - Videos format youtube/Trombone/Camille_trombone_totoro.mp4</property>
    <property name="audio_index">1</property>
    <property name="video_index">0</property>
    <property name="mute_on_pause">0</property>
    <property name="mlt_service">avformat-novalidate</property>
    <property name="seekable">1</property>
    <property name="aspect_ratio">1</property>
    <property name="creation_time">2020-04-09T17:56:38</property>
    <property name="shotcut:hash">6322ebba469dd48f4d62f48f0e58e722</property>
    <property name="ignore_points">0</property>
    <property name="shotcut:caption">Camille_trombone_totoro.mp4</property>
    <property name="shotcut:skipConvert">1</property>
    <property name="global_feed">1</property>
    <property name="xml">was here</property>
    <filter id="filter18" in="00:02:04.840" out="00:02:06.560">
      <property name="background">colour:0</property>
      <property name="mlt_service">affine</property>
      <property name="shotcut:filter">affineSizePosition</property>
      <property name="transition.fill">1</property>
      <property name="transition.distort">0</property>
      <property name="transition.rect">0 0 1920 1080 1</property>
      <property name="transition.valign">top</property>
      <property name="transition.halign">left</property>
      <property name="shotcut:animIn">00:00:00.000</property>
      <property name="shotcut:animOut">00:00:00.000</property>
      <property name="transition.threads">0</property>
    </filter>
    <filter id="filter19" in="00:02:04.840" out="00:02:06.560">
      <property name="window">75</property>
      <property name="max_gain">20dB</property>
      <property name="mlt_service">volume</property>
      <property name="shotcut:filter">muteVolume</property>
      <property name="gain">0</property>
    </filter>
  </producer>
  <producer id="producer15" title="Anonymous Submission" in="00:00:00.000" out="00:03:16.680">
    <property name="length">00:03:16:18</property>
    <property name="eof">pause</property>
    <property name="resource">../../006 - Videos format youtube/Trombone/Camille_trombone_totoro.mp4</property>
    <property name="audio_index">1</property>
    <property name="video_index">0</property>
    <property name="mute_on_pause">0</property>
    <property name="mlt_service">avformat-novalidate</property>
    <property name="seekable">1</property>
    <property name="aspect_ratio">1</property>
    <property name="creation_time">2020-04-09T17:56:38</property>
    <property name="shotcut:hash">6322ebba469dd48f4d62f48f0e58e722</property>
    <property name="ignore_points">0</property>
    <property name="shotcut:caption">Camille_trombone_totoro.mp4</property>
    <property name="shotcut:skipConvert">1</property>
    <property name="global_feed">1</property>
    <property name="xml">was here</property>
    <filter id="filter20" in="00:02:06.600" out="00:02:07.080">
      <property name="background">colour:0</property>
      <property name="mlt_service">affine</property>
      <property name="shotcut:filter">affineSizePosition</property>
      <property name="transition.fill">1</property>
      <property name="transition.distort">0</property>
      <property name="transition.rect">0 0 1920 1080 1</property>
      <property name="transition.valign">top</property>
      <property name="transition.halign">left</property>
      <property name="shotcut:animIn">00:00:00.000</property>
      <property name="shotcut:animOut">00:00:00.000</property>
      <property name="transition.threads">0</property>
    </filter>
    <filter id="filter21" in="00:02:06.600" out="00:02:07.080">
      <property name="window">75</property>
      <property name="max_gain">20dB</property>
      <property name="mlt_service">volume</property>
      <property name="shotcut:filter">muteVolume</property>
      <property name="gain">0</property>
    </filter>
  </producer>
  <producer id="producer16" title="Anonymous Submission" in="00:00:00.000" out="00:03:16.680">
    <property name="length">00:03:16:18</property>
    <property name="eof">pause</property>
    <property name="resource">../../006 - Videos format youtube/Trombone/Camille_trombone_totoro.mp4</property>
    <property name="audio_index">1</property>
    <property name="video_index">0</property>
    <property name="mute_on_pause">0</property>
    <property name="mlt_service">avformat-novalidate</property>
    <property name="seekable">1</property>
    <property name="aspect_ratio">1</property>
    <property name="creation_time">2020-04-09T17:56:38</property>
    <property name="shotcut:hash">6322ebba469dd48f4d62f48f0e58e722</property>
    <property name="ignore_points">0</property>
    <property name="shotcut:caption">Camille_trombone_totoro.mp4</property>
    <property name="shotcut:skipConvert">1</property>
    <property name="global_feed">1</property>
    <property name="xml">was here</property>
    <filter id="filter22" in="00:02:07.120" out="00:02:10.920">
      <property name="background">colour:0</property>
      <property name="mlt_service">affine</property>
      <property name="shotcut:filter">affineSizePosition</property>
      <property name="transition.fill">1</property>
      <property name="transition.distort">0</property>
      <property name="transition.rect">0 0 1920 1080 1</property>
      <property name="transition.valign">top</property>
      <property name="transition.halign">left</property>
      <property name="shotcut:animIn">00:00:00.000</property>
      <property name="shotcut:animOut">00:00:00.000</property>
      <property name="transition.threads">0</property>
    </filter>
    <filter id="filter23" in="00:02:07.120" out="00:02:10.920">
      <property name="window">75</property>
      <property name="max_gain">20dB</property>
      <property name="mlt_service">volume</property>
      <property name="shotcut:filter">muteVolume</property>
      <property name="gain">0</property>
    </filter>
  </producer>
  <producer id="producer17" title="Anonymous Submission" in="00:00:00.000" out="00:03:16.680">
    <property name="length">00:03:16:18</property>
    <property name="eof">pause</property>
    <property name="resource">../../006 - Videos format youtube/Trombone/Camille_trombone_totoro.mp4</property>
    <property name="audio_index">1</property>
    <property name="video_index">0</property>
    <property name="mute_on_pause">0</property>
    <property name="mlt_service">avformat-novalidate</property>
    <property name="seekable">1</property>
    <property name="aspect_ratio">1</property>
    <property name="creation_time">2020-04-09T17:56:38</property>
    <property name="shotcut:hash">6322ebba469dd48f4d62f48f0e58e722</property>
    <property name="ignore_points">0</property>
    <property name="shotcut:caption">Camille_trombone_totoro.mp4</property>
    <property name="shotcut:skipConvert">1</property>
    <property name="global_feed">1</property>
    <property name="xml">was here</property>
    <filter id="filter24" in="00:02:10.960" out="00:02:12.280">
      <property name="background">colour:0</property>
      <property name="mlt_service">affine</property>
      <property name="shotcut:filter">affineSizePosition</property>
      <property name="transition.fill">1</property>
      <property name="transition.distort">0</property>
      <property name="transition.rect">0 0 1920 1080 1</property>
      <property name="transition.valign">top</property>
      <property name="transition.halign">left</property>
      <property name="shotcut:animIn">00:00:00.000</property>
      <property name="shotcut:animOut">00:00:00.000</property>
      <property name="transition.threads">0</property>
    </filter>
  </producer>
  <producer id="producer18" title="Anonymous Submission" in="00:00:00.000" out="00:03:16.680">
    <property name="length">00:03:16:18</property>
    <property name="eof">pause</property>
    <property name="resource">../../006 - Videos format youtube/Trombone/Camille_trombone_totoro.mp4</property>
    <property name="audio_index">1</property>
    <property name="video_index">0</property>
    <property name="mute_on_pause">0</property>
    <property name="mlt_service">avformat-novalidate</property>
    <property name="seekable">1</property>
    <property name="aspect_ratio">1</property>
    <property name="creation_time">2020-04-09T17:56:38</property>
    <property name="shotcut:hash">6322ebba469dd48f4d62f48f0e58e722</property>
    <property name="ignore_points">0</property>
    <property name="shotcut:caption">Camille_trombone_totoro.mp4</property>
    <property name="shotcut:skipConvert">1</property>
    <property name="global_feed">1</property>
    <property name="xml">was here</property>
    <filter id="filter25" in="00:02:12.320" out="00:02:17.960">
      <property name="background">colour:0</property>
      <property name="mlt_service">affine</property>
      <property name="shotcut:filter">affineSizePosition</property>
      <property name="transition.fill">1</property>
      <property name="transition.distort">0</property>
      <property name="transition.rect">0 0 1920 1080 1</property>
      <property name="transition.valign">top</property>
      <property name="transition.halign">left</property>
      <property name="shotcut:animIn">00:00:00.000</property>
      <property name="shotcut:animOut">00:00:00.000</property>
      <property name="transition.threads">0</property>
    </filter>
    <filter id="filter26" in="00:02:12.320" out="00:02:17.960">
      <property name="window">75</property>
      <property name="max_gain">20dB</property>
      <property name="level">-8</property>
      <property name="mlt_service">volume</property>
    </filter>
  </producer>
  <producer id="producer19" title="Anonymous Submission" in="00:00:00.000" out="00:03:16.680">
    <property name="length">00:03:16:18</property>
    <property name="eof">pause</property>
    <property name="resource">../../006 - Videos format youtube/Trombone/Camille_trombone_totoro.mp4</property>
    <property name="audio_index">1</property>
    <property name="video_index">0</property>
    <property name="mute_on_pause">0</property>
    <property name="mlt_service">avformat-novalidate</property>
    <property name="seekable">1</property>
    <property name="aspect_ratio">1</property>
    <property name="creation_time">2020-04-09T17:56:38</property>
    <property name="shotcut:hash">6322ebba469dd48f4d62f48f0e58e722</property>
    <property name="ignore_points">0</property>
    <property name="shotcut:caption">Camille_trombone_totoro.mp4</property>
    <property name="shotcut:skipConvert">1</property>
    <property name="global_feed">1</property>
    <property name="xml">was here</property>
    <filter id="filter27" in="00:02:18.000" out="00:02:25.280">
      <property name="background">colour:0</property>
      <property name="mlt_service">affine</property>
      <property name="shotcut:filter">affineSizePosition</property>
      <property name="transition.fill">1</property>
      <property name="transition.distort">0</property>
      <property name="transition.rect">0 0 1920 1080 1</property>
      <property name="transition.valign">top</property>
      <property name="transition.halign">left</property>
      <property name="shotcut:animIn">00:00:00.000</property>
      <property name="shotcut:animOut">00:00:00.000</property>
      <property name="transition.threads">0</property>
    </filter>
  </producer>
  <producer id="producer20" title="Anonymous Submission" in="00:00:00.000" out="00:03:16.680">
    <property name="length">00:03:16:18</property>
    <property name="eof">pause</property>
    <property name="resource">../../006 - Videos format youtube/Trombone/Camille_trombone_totoro.mp4</property>
    <property name="audio_index">1</property>
    <property name="video_index">0</property>
    <property name="mute_on_pause">0</property>
    <property name="mlt_service">avformat-novalidate</property>
    <property name="seekable">1</property>
    <property name="aspect_ratio">1</property>
    <property name="creation_time">2020-04-09T17:56:38</property>
    <property name="shotcut:hash">6322ebba469dd48f4d62f48f0e58e722</property>
    <property name="ignore_points">0</property>
    <property name="shotcut:caption">Camille_trombone_totoro.mp4</property>
    <property name="shotcut:skipConvert">1</property>
    <property name="global_feed">1</property>
    <property name="xml">was here</property>
    <filter id="filter28" in="00:02:25.320" out="00:02:32.000">
      <property name="background">colour:0</property>
      <property name="mlt_service">affine</property>
      <property name="shotcut:filter">affineSizePosition</property>
      <property name="transition.fill">1</property>
      <property name="transition.distort">0</property>
      <property name="transition.rect">0 0 1920 1080 1</property>
      <property name="transition.valign">top</property>
      <property name="transition.halign">left</property>
      <property name="shotcut:animIn">00:00:00.000</property>
      <property name="shotcut:animOut">00:00:00.000</property>
      <property name="transition.threads">0</property>
    </filter>
    <filter id="filter29" in="00:02:25.320" out="00:02:32.000">
      <property name="window">75</property>
      <property name="max_gain">20dB</property>
      <property name="level">-8</property>
      <property name="mlt_service">volume</property>
    </filter>
  </producer>
  <producer id="producer21" title="Anonymous Submission" in="00:00:00.000" out="00:03:16.680">
    <property name="length">00:03:16:18</property>
    <property name="eof">pause</property>
    <property name="resource">../../006 - Videos format youtube/Trombone/Camille_trombone_totoro.mp4</property>
    <property name="audio_index">1</property>
    <property name="video_index">0</property>
    <property name="mute_on_pause">0</property>
    <property name="mlt_service">avformat-novalidate</property>
    <property name="seekable">1</property>
    <property name="aspect_ratio">1</property>
    <property name="creation_time">2020-04-09T17:56:38</property>
    <property name="shotcut:hash">6322ebba469dd48f4d62f48f0e58e722</property>
    <property name="ignore_points">0</property>
    <property name="shotcut:caption">Camille_trombone_totoro.mp4</property>
    <property name="shotcut:skipConvert">1</property>
    <property name="global_feed">1</property>
    <property name="xml">was here</property>
    <filter id="filter30" in="00:02:32.040" out="00:02:47.960">
      <property name="background">colour:0</property>
      <property name="mlt_service">affine</property>
      <property name="shotcut:filter">affineSizePosition</property>
      <property name="transition.fill">1</property>
      <property name="transition.distort">0</property>
      <property name="transition.rect">0 0 1920 1080 1</property>
      <property name="transition.valign">top</property>
      <property name="transition.halign">left</property>
      <property name="shotcut:animIn">00:00:00.000</property>
      <property name="shotcut:animOut">00:00:00.000</property>
      <property name="transition.threads">0</property>
    </filter>
  </producer>
  <producer id="producer22" title="Anonymous Submission" in="00:00:00.000" out="00:03:16.680">
    <property name="length">00:03:16:18</property>
    <property name="eof">pause</property>
    <property name="resource">../../006 - Videos format youtube/Trombone/Camille_trombone_totoro.mp4</property>
    <property name="audio_index">1</property>
    <property name="video_index">0</property>
    <property name="mute_on_pause">0</property>
    <property name="mlt_service">avformat-novalidate</property>
    <property name="seekable">1</property>
    <property name="aspect_ratio">1</property>
    <property name="creation_time">2020-04-09T17:56:38</property>
    <property name="shotcut:hash">6322ebba469dd48f4d62f48f0e58e722</property>
    <property name="ignore_points">0</property>
    <property name="shotcut:caption">Camille_trombone_totoro.mp4</property>
    <property name="shotcut:skipConvert">1</property>
    <property name="global_feed">1</property>
    <property name="xml">was here</property>
    <filter id="filter31" in="00:02:48.000" out="00:02:50.680">
      <property name="background">colour:0</property>
      <property name="mlt_service">affine</property>
      <property name="shotcut:filter">affineSizePosition</property>
      <property name="transition.fill">1</property>
      <property name="transition.distort">0</property>
      <property name="transition.rect">0 0 1920 1080 1</property>
      <property name="transition.valign">top</property>
      <property name="transition.halign">left</property>
      <property name="shotcut:animIn">00:00:00.000</property>
      <property name="shotcut:animOut">00:00:00.000</property>
      <property name="transition.threads">0</property>
    </filter>
    <filter id="filter32" in="00:02:48.000" out="00:02:50.680">
      <property name="window">75</property>
      <property name="max_gain">20dB</property>
      <property name="level">-5</property>
      <property name="mlt_service">volume</property>
    </filter>
  </producer>
  <producer id="producer23" title="Anonymous Submission" in="00:00:00.000" out="00:03:16.680">
    <property name="length">00:03:16:18</property>
    <property name="eof">pause</property>
    <property name="resource">../../006 - Videos format youtube/Trombone/Camille_trombone_totoro.mp4</property>
    <property name="audio_index">1</property>
    <property name="video_index">0</property>
    <property name="mute_on_pause">0</property>
    <property name="mlt_service">avformat-novalidate</property>
    <property name="seekable">1</property>
    <property name="aspect_ratio">1</property>
    <property name="creation_time">2020-04-09T17:56:38</property>
    <property name="shotcut:hash">6322ebba469dd48f4d62f48f0e58e722</property>
    <property name="ignore_points">0</property>
    <property name="shotcut:caption">Camille_trombone_totoro.mp4</property>
    <property name="shotcut:skipConvert">1</property>
    <property name="global_feed">1</property>
    <property name="xml">was here</property>
    <filter id="filter33" in="00:02:50.720" out="00:02:57.800">
      <property name="background">colour:0</property>
      <property name="mlt_service">affine</property>
      <property name="shotcut:filter">affineSizePosition</property>
      <property name="transition.fill">1</property>
      <property name="transition.distort">0</property>
      <property name="transition.rect">0 0 1920 1080 1</property>
      <property name="transition.valign">top</property>
      <property name="transition.halign">left</property>
      <property name="shotcut:animIn">00:00:00.000</property>
      <property name="shotcut:animOut">00:00:00.000</property>
      <property name="transition.threads">0</property>
    </filter>
  </producer>
  <producer id="producer24" title="Anonymous Submission" in="00:00:00.000" out="00:03:16.680">
    <property name="length">00:03:16:18</property>
    <property name="eof">pause</property>
    <property name="resource">../../006 - Videos format youtube/Trombone/Camille_trombone_totoro.mp4</property>
    <property name="audio_index">1</property>
    <property name="video_index">0</property>
    <property name="mute_on_pause">0</property>
    <property name="mlt_service">avformat-novalidate</property>
    <property name="seekable">1</property>
    <property name="aspect_ratio">1</property>
    <property name="creation_time">2020-04-09T17:56:38</property>
    <property name="shotcut:hash">6322ebba469dd48f4d62f48f0e58e722</property>
    <property name="ignore_points">0</property>
    <property name="shotcut:caption">Camille_trombone_totoro.mp4</property>
    <property name="shotcut:skipConvert">1</property>
    <property name="global_feed">1</property>
    <property name="xml">was here</property>
    <filter id="filter34" in="00:02:57.840" out="00:03:00.920">
      <property name="background">colour:0</property>
      <property name="mlt_service">affine</property>
      <property name="shotcut:filter">affineSizePosition</property>
      <property name="transition.fill">1</property>
      <property name="transition.distort">0</property>
      <property name="transition.rect">0 0 1920 1080 1</property>
      <property name="transition.valign">top</property>
      <property name="transition.halign">left</property>
      <property name="shotcut:animIn">00:00:00.000</property>
      <property name="shotcut:animOut">00:00:00.000</property>
      <property name="transition.threads">0</property>
    </filter>
    <filter id="filter35" in="00:02:57.840" out="00:03:00.920">
      <property name="window">75</property>
      <property name="max_gain">20dB</property>
      <property name="level">-8</property>
      <property name="mlt_service">volume</property>
    </filter>
  </producer>
  <producer id="producer25" title="Anonymous Submission" in="00:00:00.000" out="00:03:16.680">
    <property name="length">00:03:16:18</property>
    <property name="eof">pause</property>
    <property name="resource">../../006 - Videos format youtube/Trombone/Camille_trombone_totoro.mp4</property>
    <property name="audio_index">1</property>
    <property name="video_index">0</property>
    <property name="mute_on_pause">0</property>
    <property name="mlt_service">avformat-novalidate</property>
    <property name="seekable">1</property>
    <property name="aspect_ratio">1</property>
    <property name="creation_time">2020-04-09T17:56:38</property>
    <property name="shotcut:hash">6322ebba469dd48f4d62f48f0e58e722</property>
    <property name="ignore_points">0</property>
    <property name="shotcut:caption">Camille_trombone_totoro.mp4</property>
    <property name="shotcut:skipConvert">1</property>
    <property name="global_feed">1</property>
    <property name="xml">was here</property>
    <filter id="filter36" in="00:03:00.960" out="00:03:03.440">
      <property name="background">colour:0</property>
      <property name="mlt_service">affine</property>
      <property name="shotcut:filter">affineSizePosition</property>
      <property name="transition.fill">1</property>
      <property name="transition.distort">0</property>
      <property name="transition.rect">0 0 1920 1080 1</property>
      <property name="transition.valign">top</property>
      <property name="transition.halign">left</property>
      <property name="shotcut:animIn">00:00:00.000</property>
      <property name="shotcut:animOut">00:00:00.000</property>
      <property name="transition.threads">0</property>
    </filter>
  </producer>
  <producer id="producer26" title="Anonymous Submission" in="00:00:00.000" out="00:03:16.680">
    <property name="length">00:03:16:18</property>
    <property name="eof">pause</property>
    <property name="resource">../../006 - Videos format youtube/Trombone/Camille_trombone_totoro.mp4</property>
    <property name="audio_index">1</property>
    <property name="video_index">0</property>
    <property name="mute_on_pause">0</property>
    <property name="mlt_service">avformat-novalidate</property>
    <property name="seekable">1</property>
    <property name="aspect_ratio">1</property>
    <property name="creation_time">2020-04-09T17:56:38</property>
    <property name="shotcut:hash">6322ebba469dd48f4d62f48f0e58e722</property>
    <property name="ignore_points">0</property>
    <property name="shotcut:caption">Camille_trombone_totoro.mp4</property>
    <property name="shotcut:skipConvert">1</property>
    <property name="global_feed">1</property>
    <property name="xml">was here</property>
    <filter id="filter37" in="00:03:03.480" out="00:03:05.600">
      <property name="background">colour:0</property>
      <property name="mlt_service">affine</property>
      <property name="shotcut:filter">affineSizePosition</property>
      <property name="transition.fill">1</property>
      <property name="transition.distort">0</property>
      <property name="transition.rect">0 0 1920 1080 1</property>
      <property name="transition.valign">top</property>
      <property name="transition.halign">left</property>
      <property name="shotcut:animIn">00:00:00.000</property>
      <property name="shotcut:animOut">00:00:00.000</property>
      <property name="transition.threads">0</property>
    </filter>
    <filter id="filter38" in="00:03:03.480" out="00:03:05.600">
      <property name="window">75</property>
      <property name="max_gain">20dB</property>
      <property name="mlt_service">volume</property>
      <property name="shotcut:filter">muteVolume</property>
      <property name="gain">0</property>
    </filter>
  </producer>
  <producer id="producer27" title="Anonymous Submission" in="00:00:00.000" out="00:03:16.680">
    <property name="length">00:03:16:18</property>
    <property name="eof">pause</property>
    <property name="resource">../../006 - Videos format youtube/Trombone/Camille_trombone_totoro.mp4</property>
    <property name="audio_index">1</property>
    <property name="video_index">0</property>
    <property name="mute_on_pause">0</property>
    <property name="mlt_service">avformat-novalidate</property>
    <property name="seekable">1</property>
    <property name="aspect_ratio">1</property>
    <property name="creation_time">2020-04-09T17:56:38</property>
    <property name="shotcut:hash">6322ebba469dd48f4d62f48f0e58e722</property>
    <property name="ignore_points">0</property>
    <property name="shotcut:caption">Camille_trombone_totoro.mp4</property>
    <property name="shotcut:skipConvert">1</property>
    <property name="global_feed">1</property>
    <property name="xml">was here</property>
    <filter id="filter39" in="00:03:05.640" out="00:03:16.680">
      <property name="background">colour:0</property>
      <property name="mlt_service">affine</property>
      <property name="shotcut:filter">affineSizePosition</property>
      <property name="transition.fill">1</property>
      <property name="transition.distort">0</property>
      <property name="transition.rect">0 0 1920 1080 1</property>
      <property name="transition.valign">top</property>
      <property name="transition.halign">left</property>
      <property name="shotcut:animIn">00:00:00.000</property>
      <property name="shotcut:animOut">00:00:00.000</property>
      <property name="transition.threads">0</property>
    </filter>
    <filter id="filter40" in="00:03:05.640" out="00:03:16.680">
      <property name="window">75</property>
      <property name="max_gain">20dB</property>
      <property name="mlt_service">volume</property>
      <property name="shotcut:filter">muteVolume</property>
      <property name="gain">0</property>
    </filter>
  </producer>
  <playlist id="playlist3">
    <property name="shotcut:video">1</property>
    <property name="shotcut:name">Camille_trombone</property>
    <property name="shotcut:lock">1</property>
    <blank length="00:00:09.040"/>
    <entry producer="producer4" in="00:00:00.000" out="00:00:20.240"/>
    <entry producer="producer5" in="00:00:20.280" out="00:00:34.040"/>
    <entry producer="producer6" in="00:00:34.080" out="00:00:34.560"/>
    <entry producer="producer7" in="00:00:34.600" out="00:00:40.800"/>
    <entry producer="producer8" in="00:00:40.840" out="00:00:41.320"/>
    <entry producer="producer9" in="00:00:41.360" out="00:00:47.720"/>
    <entry producer="producer10" in="00:00:47.760" out="00:00:48.280"/>
    <entry producer="producer11" in="00:00:48.320" out="00:01:35.800"/>
    <entry producer="producer12" in="00:01:35.840" out="00:01:49.360"/>
    <entry producer="producer13" in="00:01:49.400" out="00:02:04.800"/>
    <entry producer="producer14" in="00:02:04.840" out="00:02:06.560"/>
    <entry producer="producer15" in="00:02:06.600" out="00:02:07.080"/>
    <entry producer="producer16" in="00:02:07.120" out="00:02:10.920"/>
    <entry producer="producer17" in="00:02:10.960" out="00:02:12.280"/>
    <entry producer="producer18" in="00:02:12.320" out="00:02:17.960"/>
    <entry producer="producer19" in="00:02:18.000" out="00:02:25.280"/>
    <entry producer="producer20" in="00:02:25.320" out="00:02:32.000"/>
    <entry producer="producer21" in="00:02:32.040" out="00:02:47.960"/>
    <entry producer="producer22" in="00:02:48.000" out="00:02:50.680"/>
    <entry producer="producer23" in="00:02:50.720" out="00:02:57.800"/>
    <entry producer="producer24" in="00:02:57.840" out="00:03:00.920"/>
    <entry producer="producer25" in="00:03:00.960" out="00:03:03.440"/>
    <entry producer="producer26" in="00:03:03.480" out="00:03:05.600"/>
    <entry producer="producer27" in="00:03:05.640" out="00:03:16.680"/>
    <filter id="filter41" out="00:03:25.720">
      <property name="window">75</property>
      <property name="max_gain">20dB</property>
      <property name="level">-10</property>
      <property name="mlt_service">volume</property>
    </filter>
  </playlist>
  <producer id="producer28" title="Anonymous Submission" in="00:00:00.000" out="00:03:39.200">
    <property name="length">00:03:39:06</property>
    <property name="eof">pause</property>
    <property name="resource">C:/Users/Camille/OneDrive/Camille/006 - Videos format youtube/Trombone/daniel_trombone_totoro.mp4</property>
    <property name="audio_index">1</property>
    <property name="video_index">0</property>
    <property name="mute_on_pause">0</property>
    <property name="mlt_service">avformat-novalidate</property>
    <property name="seekable">1</property>
    <property name="aspect_ratio">1</property>
    <property name="shotcut:hash">a1664e01b7aa5838d73b735214bc61f9</property>
    <property name="ignore_points">0</property>
    <property name="shotcut:caption">daniel_trombone_totoro.mp4</property>
    <property name="shotcut:skipConvert">1</property>
    <property name="global_feed">1</property>
    <property name="xml">was here</property>
    <filter id="filter42" in="00:00:26.360" out="00:00:47.880">
      <property name="background">colour:0</property>
      <property name="mlt_service">affine</property>
      <property name="shotcut:filter">affineRotate</property>
      <property name="transition.fix_rotate_x">0</property>
      <property name="transition.scale_x">0.416667</property>
      <property name="transition.ox">0</property>
      <property name="transition.oy">0</property>
      <property name="transition.threads">0</property>
      <property name="transition.scale_y">0.416667</property>
    </filter>
    <filter id="filter43" in="00:00:26.360" out="00:00:47.880">
      <property name="background">colour:0</property>
      <property name="mlt_service">affine</property>
      <property name="shotcut:filter">affineSizePosition</property>
      <property name="transition.fill">1</property>
      <property name="transition.distort">0</property>
      <property name="transition.rect">0 0 1920 1080 1</property>
      <property name="transition.valign">top</property>
      <property name="transition.halign">left</property>
      <property name="shotcut:animIn">00:00:00.000</property>
      <property name="shotcut:animOut">00:00:00.000</property>
      <property name="transition.threads">0</property>
    </filter>
    <filter id="filter44" in="00:00:26.360" out="00:00:47.880">
      <property name="window">75</property>
      <property name="max_gain">20dB</property>
      <property name="mlt_service">volume</property>
      <property name="shotcut:filter">muteVolume</property>
      <property name="gain">0</property>
    </filter>
  </producer>
  <producer id="producer29" title="Anonymous Submission" in="00:00:00.000" out="00:03:39.200">
    <property name="length">00:03:39:06</property>
    <property name="eof">pause</property>
    <property name="resource">C:/Users/Camille/OneDrive/Camille/006 - Videos format youtube/Trombone/daniel_trombone_totoro.mp4</property>
    <property name="audio_index">1</property>
    <property name="video_index">0</property>
    <property name="mute_on_pause">0</property>
    <property name="mlt_service">avformat-novalidate</property>
    <property name="seekable">1</property>
    <property name="aspect_ratio">1</property>
    <property name="shotcut:hash">a1664e01b7aa5838d73b735214bc61f9</property>
    <property name="ignore_points">0</property>
    <property name="shotcut:caption">daniel_trombone_totoro.mp4</property>
    <property name="shotcut:skipConvert">1</property>
    <property name="global_feed">1</property>
    <property name="xml">was here</property>
    <filter id="filter45" in="00:00:47.920" out="00:01:23.520">
      <property name="background">colour:0</property>
      <property name="mlt_service">affine</property>
      <property name="shotcut:filter">affineRotate</property>
      <property name="transition.fix_rotate_x">0</property>
      <property name="transition.scale_x">0.416667</property>
      <property name="transition.ox">0</property>
      <property name="transition.oy">0</property>
      <property name="transition.threads">0</property>
      <property name="transition.scale_y">0.416667</property>
    </filter>
    <filter id="filter46" in="00:00:47.920" out="00:01:23.520">
      <property name="background">colour:0</property>
      <property name="mlt_service">affine</property>
      <property name="shotcut:filter">affineSizePosition</property>
      <property name="transition.fill">1</property>
      <property name="transition.distort">0</property>
      <property name="transition.rect">0 0 1920 1080 1</property>
      <property name="transition.valign">top</property>
      <property name="transition.halign">left</property>
      <property name="shotcut:animIn">00:00:00.000</property>
      <property name="shotcut:animOut">00:00:00.000</property>
      <property name="transition.threads">0</property>
    </filter>
  </producer>
  <producer id="producer30" title="Anonymous Submission" in="00:00:00.000" out="00:03:39.200">
    <property name="length">00:03:39:06</property>
    <property name="eof">pause</property>
    <property name="resource">C:/Users/Camille/OneDrive/Camille/006 - Videos format youtube/Trombone/daniel_trombone_totoro.mp4</property>
    <property name="audio_index">1</property>
    <property name="video_index">0</property>
    <property name="mute_on_pause">0</property>
    <property name="mlt_service">avformat-novalidate</property>
    <property name="seekable">1</property>
    <property name="aspect_ratio">1</property>
    <property name="shotcut:hash">a1664e01b7aa5838d73b735214bc61f9</property>
    <property name="ignore_points">0</property>
    <property name="shotcut:caption">daniel_trombone_totoro.mp4</property>
    <property name="shotcut:skipConvert">1</property>
    <property name="global_feed">1</property>
    <property name="xml">was here</property>
    <filter id="filter47" in="00:01:23.480" out="00:01:30.480">
      <property name="background">colour:0</property>
      <property name="mlt_service">affine</property>
      <property name="shotcut:filter">affineRotate</property>
      <property name="transition.fix_rotate_x">0</property>
      <property name="transition.scale_x">0.416667</property>
      <property name="transition.ox">0</property>
      <property name="transition.oy">0</property>
      <property name="transition.threads">0</property>
      <property name="transition.scale_y">0.416667</property>
    </filter>
    <filter id="filter48" in="00:01:23.480" out="00:01:30.480">
      <property name="background">colour:0</property>
      <property name="mlt_service">affine</property>
      <property name="shotcut:filter">affineSizePosition</property>
      <property name="transition.fill">1</property>
      <property name="transition.distort">0</property>
      <property name="transition.rect">0 0 1920 1080 1</property>
      <property name="transition.valign">top</property>
      <property name="transition.halign">left</property>
      <property name="shotcut:animIn">00:00:00.000</property>
      <property name="shotcut:animOut">00:00:00.000</property>
      <property name="transition.threads">0</property>
    </filter>
    <filter id="filter49" in="00:01:23.480" out="00:01:30.480">
      <property name="window">75</property>
      <property name="max_gain">20dB</property>
      <property name="mlt_service">volume</property>
      <property name="shotcut:filter">muteVolume</property>
      <property name="gain">0</property>
    </filter>
  </producer>
  <producer id="producer31" title="Anonymous Submission" in="00:00:00.000" out="00:03:39.200">
    <property name="length">00:03:39:06</property>
    <property name="eof">pause</property>
    <property name="resource">C:/Users/Camille/OneDrive/Camille/006 - Videos format youtube/Trombone/daniel_trombone_totoro.mp4</property>
    <property name="audio_index">1</property>
    <property name="video_index">0</property>
    <property name="mute_on_pause">0</property>
    <property name="mlt_service">avformat-novalidate</property>
    <property name="seekable">1</property>
    <property name="aspect_ratio">1</property>
    <property name="shotcut:hash">a1664e01b7aa5838d73b735214bc61f9</property>
    <property name="ignore_points">0</property>
    <property name="shotcut:caption">daniel_trombone_totoro.mp4</property>
    <property name="shotcut:skipConvert">1</property>
    <property name="global_feed">1</property>
    <property name="xml">was here</property>
    <filter id="filter50" in="00:01:30.520" out="00:01:34.680">
      <property name="background">colour:0</property>
      <property name="mlt_service">affine</property>
      <property name="shotcut:filter">affineRotate</property>
      <property name="transition.fix_rotate_x">0</property>
      <property name="transition.scale_x">0.416667</property>
      <property name="transition.ox">0</property>
      <property name="transition.oy">0</property>
      <property name="transition.threads">0</property>
      <property name="transition.scale_y">0.416667</property>
    </filter>
    <filter id="filter51" in="00:01:30.520" out="00:01:34.680">
      <property name="background">colour:0</property>
      <property name="mlt_service">affine</property>
      <property name="shotcut:filter">affineSizePosition</property>
      <property name="transition.fill">1</property>
      <property name="transition.distort">0</property>
      <property name="transition.rect">0 0 1920 1080 1</property>
      <property name="transition.valign">top</property>
      <property name="transition.halign">left</property>
      <property name="shotcut:animIn">00:00:00.000</property>
      <property name="shotcut:animOut">00:00:00.000</property>
      <property name="transition.threads">0</property>
    </filter>
  </producer>
  <producer id="producer32" title="Anonymous Submission" in="00:00:00.000" out="00:03:39.200">
    <property name="length">00:03:39:06</property>
    <property name="eof">pause</property>
    <property name="resource">C:/Users/Camille/OneDrive/Camille/006 - Videos format youtube/Trombone/daniel_trombone_totoro.mp4</property>
    <property name="audio_index">1</property>
    <property name="video_index">0</property>
    <property name="mute_on_pause">0</property>
    <property name="mlt_service">avformat-novalidate</property>
    <property name="seekable">1</property>
    <property name="aspect_ratio">1</property>
    <property name="shotcut:hash">a1664e01b7aa5838d73b735214bc61f9</property>
    <property name="ignore_points">0</property>
    <property name="shotcut:caption">daniel_trombone_totoro.mp4</property>
    <property name="shotcut:skipConvert">1</property>
    <property name="global_feed">1</property>
    <property name="xml">was here</property>
    <filter id="filter52" in="00:01:34.720" out="00:01:35.120">
      <property name="background">colour:0</property>
      <property name="mlt_service">affine</property>
      <property name="shotcut:filter">affineRotate</property>
      <property name="transition.fix_rotate_x">0</property>
      <property name="transition.scale_x">0.416667</property>
      <property name="transition.ox">0</property>
      <property name="transition.oy">0</property>
      <property name="transition.threads">0</property>
      <property name="transition.scale_y">0.416667</property>
    </filter>
    <filter id="filter53" in="00:01:34.720" out="00:01:35.120">
      <property name="background">colour:0</property>
      <property name="mlt_service">affine</property>
      <property name="shotcut:filter">affineSizePosition</property>
      <property name="transition.fill">1</property>
      <property name="transition.distort">0</property>
      <property name="transition.rect">0 0 1920 1080 1</property>
      <property name="transition.valign">top</property>
      <property name="transition.halign">left</property>
      <property name="shotcut:animIn">00:00:00.000</property>
      <property name="shotcut:animOut">00:00:00.000</property>
      <property name="transition.threads">0</property>
    </filter>
    <filter id="filter54" in="00:01:34.720" out="00:01:35.120">
      <property name="window">75</property>
      <property name="max_gain">20dB</property>
      <property name="mlt_service">volume</property>
      <property name="shotcut:filter">muteVolume</property>
      <property name="gain">0</property>
    </filter>
  </producer>
  <producer id="producer33" title="Anonymous Submission" in="00:00:00.000" out="00:03:39.200">
    <property name="length">00:03:39:06</property>
    <property name="eof">pause</property>
    <property name="resource">C:/Users/Camille/OneDrive/Camille/006 - Videos format youtube/Trombone/daniel_trombone_totoro.mp4</property>
    <property name="audio_index">1</property>
    <property name="video_index">0</property>
    <property name="mute_on_pause">0</property>
    <property name="mlt_service">avformat-novalidate</property>
    <property name="seekable">1</property>
    <property name="aspect_ratio">1</property>
    <property name="shotcut:hash">a1664e01b7aa5838d73b735214bc61f9</property>
    <property name="ignore_points">0</property>
    <property name="shotcut:caption">daniel_trombone_totoro.mp4</property>
    <property name="shotcut:skipConvert">1</property>
    <property name="global_feed">1</property>
    <property name="xml">was here</property>
    <filter id="filter55" in="00:01:35.160" out="00:01:54.040">
      <property name="background">colour:0</property>
      <property name="mlt_service">affine</property>
      <property name="shotcut:filter">affineRotate</property>
      <property name="transition.fix_rotate_x">0</property>
      <property name="transition.scale_x">0.416667</property>
      <property name="transition.ox">0</property>
      <property name="transition.oy">0</property>
      <property name="transition.threads">0</property>
      <property name="transition.scale_y">0.416667</property>
    </filter>
    <filter id="filter56" in="00:01:35.160" out="00:01:54.040">
      <property name="background">colour:0</property>
      <property name="mlt_service">affine</property>
      <property name="shotcut:filter">affineSizePosition</property>
      <property name="transition.fill">1</property>
      <property name="transition.distort">0</property>
      <property name="transition.rect">0 0 1920 1080 1</property>
      <property name="transition.valign">top</property>
      <property name="transition.halign">left</property>
      <property name="shotcut:animIn">00:00:00.000</property>
      <property name="shotcut:animOut">00:00:00.000</property>
      <property name="transition.threads">0</property>
    </filter>
  </producer>
  <producer id="producer34" title="Anonymous Submission" in="00:00:00.000" out="00:03:39.200">
    <property name="length">00:03:39:06</property>
    <property name="eof">pause</property>
    <property name="resource">C:/Users/Camille/OneDrive/Camille/006 - Videos format youtube/Trombone/daniel_trombone_totoro.mp4</property>
    <property name="audio_index">1</property>
    <property name="video_index">0</property>
    <property name="mute_on_pause">0</property>
    <property name="mlt_service">avformat-novalidate</property>
    <property name="seekable">1</property>
    <property name="aspect_ratio">1</property>
    <property name="shotcut:hash">a1664e01b7aa5838d73b735214bc61f9</property>
    <property name="ignore_points">0</property>
    <property name="shotcut:caption">daniel_trombone_totoro.mp4</property>
    <property name="shotcut:skipConvert">1</property>
    <property name="global_feed">1</property>
    <property name="xml">was here</property>
    <filter id="filter57" in="00:01:54.080" out="00:01:54.440">
      <property name="background">colour:0</property>
      <property name="mlt_service">affine</property>
      <property name="shotcut:filter">affineRotate</property>
      <property name="transition.fix_rotate_x">0</property>
      <property name="transition.scale_x">0.416667</property>
      <property name="transition.ox">0</property>
      <property name="transition.oy">0</property>
      <property name="transition.threads">0</property>
      <property name="transition.scale_y">0.416667</property>
    </filter>
    <filter id="filter58" in="00:01:54.080" out="00:01:54.440">
      <property name="background">colour:0</property>
      <property name="mlt_service">affine</property>
      <property name="shotcut:filter">affineSizePosition</property>
      <property name="transition.fill">1</property>
      <property name="transition.distort">0</property>
      <property name="transition.rect">0 0 1920 1080 1</property>
      <property name="transition.valign">top</property>
      <property name="transition.halign">left</property>
      <property name="shotcut:animIn">00:00:00.000</property>
      <property name="shotcut:animOut">00:00:00.000</property>
      <property name="transition.threads">0</property>
    </filter>
    <filter id="filter59" in="00:01:54.080" out="00:01:54.440">
      <property name="window">75</property>
      <property name="max_gain">20dB</property>
      <property name="mlt_service">volume</property>
      <property name="shotcut:filter">muteVolume</property>
      <property name="gain">0</property>
    </filter>
  </producer>
  <producer id="producer35" title="Anonymous Submission" in="00:00:00.000" out="00:03:39.200">
    <property name="length">00:03:39:06</property>
    <property name="eof">pause</property>
    <property name="resource">C:/Users/Camille/OneDrive/Camille/006 - Videos format youtube/Trombone/daniel_trombone_totoro.mp4</property>
    <property name="audio_index">1</property>
    <property name="video_index">0</property>
    <property name="mute_on_pause">0</property>
    <property name="mlt_service">avformat-novalidate</property>
    <property name="seekable">1</property>
    <property name="aspect_ratio">1</property>
    <property name="shotcut:hash">a1664e01b7aa5838d73b735214bc61f9</property>
    <property name="ignore_points">0</property>
    <property name="shotcut:caption">daniel_trombone_totoro.mp4</property>
    <property name="shotcut:skipConvert">1</property>
    <property name="global_feed">1</property>
    <property name="xml">was here</property>
    <filter id="filter60" in="00:01:54.480" out="00:02:02.600">
      <property name="background">colour:0</property>
      <property name="mlt_service">affine</property>
      <property name="shotcut:filter">affineRotate</property>
      <property name="transition.fix_rotate_x">0</property>
      <property name="transition.scale_x">0.416667</property>
      <property name="transition.ox">0</property>
      <property name="transition.oy">0</property>
      <property name="transition.threads">0</property>
      <property name="transition.scale_y">0.416667</property>
    </filter>
    <filter id="filter61" in="00:01:54.480" out="00:02:02.600">
      <property name="background">colour:0</property>
      <property name="mlt_service">affine</property>
      <property name="shotcut:filter">affineSizePosition</property>
      <property name="transition.fill">1</property>
      <property name="transition.distort">0</property>
      <property name="transition.rect">0 0 1920 1080 1</property>
      <property name="transition.valign">top</property>
      <property name="transition.halign">left</property>
      <property name="shotcut:animIn">00:00:00.000</property>
      <property name="shotcut:animOut">00:00:00.000</property>
      <property name="transition.threads">0</property>
    </filter>
  </producer>
  <producer id="producer36" title="Anonymous Submission" in="00:00:00.000" out="00:03:39.200">
    <property name="length">00:03:39:06</property>
    <property name="eof">pause</property>
    <property name="resource">C:/Users/Camille/OneDrive/Camille/006 - Videos format youtube/Trombone/daniel_trombone_totoro.mp4</property>
    <property name="audio_index">1</property>
    <property name="video_index">0</property>
    <property name="mute_on_pause">0</property>
    <property name="mlt_service">avformat-novalidate</property>
    <property name="seekable">1</property>
    <property name="aspect_ratio">1</property>
    <property name="shotcut:hash">a1664e01b7aa5838d73b735214bc61f9</property>
    <property name="ignore_points">0</property>
    <property name="shotcut:caption">daniel_trombone_totoro.mp4</property>
    <property name="shotcut:skipConvert">1</property>
    <property name="global_feed">1</property>
    <property name="xml">was here</property>
    <filter id="filter62" in="00:02:02.640" out="00:02:03.400">
      <property name="background">colour:0</property>
      <property name="mlt_service">affine</property>
      <property name="shotcut:filter">affineRotate</property>
      <property name="transition.fix_rotate_x">0</property>
      <property name="transition.scale_x">0.416667</property>
      <property name="transition.ox">0</property>
      <property name="transition.oy">0</property>
      <property name="transition.threads">0</property>
      <property name="transition.scale_y">0.416667</property>
    </filter>
    <filter id="filter63" in="00:02:02.640" out="00:02:03.400">
      <property name="background">colour:0</property>
      <property name="mlt_service">affine</property>
      <property name="shotcut:filter">affineSizePosition</property>
      <property name="transition.fill">1</property>
      <property name="transition.distort">0</property>
      <property name="transition.rect">0 0 1920 1080 1</property>
      <property name="transition.valign">top</property>
      <property name="transition.halign">left</property>
      <property name="shotcut:animIn">00:00:00.000</property>
      <property name="shotcut:animOut">00:00:00.000</property>
      <property name="transition.threads">0</property>
    </filter>
    <filter id="filter64" in="00:02:02.640" out="00:02:03.400">
      <property name="window">75</property>
      <property name="max_gain">20dB</property>
      <property name="mlt_service">volume</property>
      <property name="shotcut:filter">muteVolume</property>
      <property name="gain">0</property>
    </filter>
  </producer>
  <producer id="producer37" title="Anonymous Submission" in="00:00:00.000" out="00:03:39.200">
    <property name="length">00:03:39:06</property>
    <property name="eof">pause</property>
    <property name="resource">C:/Users/Camille/OneDrive/Camille/006 - Videos format youtube/Trombone/daniel_trombone_totoro.mp4</property>
    <property name="audio_index">1</property>
    <property name="video_index">0</property>
    <property name="mute_on_pause">0</property>
    <property name="mlt_service">avformat-novalidate</property>
    <property name="seekable">1</property>
    <property name="aspect_ratio">1</property>
    <property name="shotcut:hash">a1664e01b7aa5838d73b735214bc61f9</property>
    <property name="ignore_points">0</property>
    <property name="shotcut:caption">daniel_trombone_totoro.mp4</property>
    <property name="shotcut:skipConvert">1</property>
    <property name="global_feed">1</property>
    <property name="xml">was here</property>
    <filter id="filter65" in="00:02:03.440" out="00:02:16.840">
      <property name="background">colour:0</property>
      <property name="mlt_service">affine</property>
      <property name="shotcut:filter">affineRotate</property>
      <property name="transition.fix_rotate_x">0</property>
      <property name="transition.scale_x">0.416667</property>
      <property name="transition.ox">0</property>
      <property name="transition.oy">0</property>
      <property name="transition.threads">0</property>
      <property name="transition.scale_y">0.416667</property>
    </filter>
    <filter id="filter66" in="00:02:03.440" out="00:02:16.840">
      <property name="background">colour:0</property>
      <property name="mlt_service">affine</property>
      <property name="shotcut:filter">affineSizePosition</property>
      <property name="transition.fill">1</property>
      <property name="transition.distort">0</property>
      <property name="transition.rect">0 0 1920 1080 1</property>
      <property name="transition.valign">top</property>
      <property name="transition.halign">left</property>
      <property name="shotcut:animIn">00:00:00.000</property>
      <property name="shotcut:animOut">00:00:00.000</property>
      <property name="transition.threads">0</property>
    </filter>
    <filter id="filter67" in="00:02:03.440" out="00:02:16.840">
      <property name="window">75</property>
      <property name="max_gain">20dB</property>
      <property name="mlt_service">volume</property>
      <property name="shotcut:filter">muteVolume</property>
      <property name="gain">0</property>
    </filter>
  </producer>
  <producer id="producer38" title="Anonymous Submission" in="00:00:00.000" out="00:03:39.200">
    <property name="length">00:03:39:06</property>
    <property name="eof">pause</property>
    <property name="resource">C:/Users/Camille/OneDrive/Camille/006 - Videos format youtube/Trombone/daniel_trombone_totoro.mp4</property>
    <property name="audio_index">1</property>
    <property name="video_index">0</property>
    <property name="mute_on_pause">0</property>
    <property name="mlt_service">avformat-novalidate</property>
    <property name="seekable">1</property>
    <property name="aspect_ratio">1</property>
    <property name="shotcut:hash">a1664e01b7aa5838d73b735214bc61f9</property>
    <property name="ignore_points">0</property>
    <property name="shotcut:caption">daniel_trombone_totoro.mp4</property>
    <property name="shotcut:skipConvert">1</property>
    <property name="global_feed">1</property>
    <property name="xml">was here</property>
    <filter id="filter68" in="00:02:16.880" out="00:02:32.520">
      <property name="background">colour:0</property>
      <property name="mlt_service">affine</property>
      <property name="shotcut:filter">affineRotate</property>
      <property name="transition.fix_rotate_x">0</property>
      <property name="transition.scale_x">0.416667</property>
      <property name="transition.ox">0</property>
      <property name="transition.oy">0</property>
      <property name="transition.threads">0</property>
      <property name="transition.scale_y">0.416667</property>
    </filter>
    <filter id="filter69" in="00:02:16.880" out="00:02:32.520">
      <property name="background">colour:0</property>
      <property name="mlt_service">affine</property>
      <property name="shotcut:filter">affineSizePosition</property>
      <property name="transition.fill">1</property>
      <property name="transition.distort">0</property>
      <property name="transition.rect">0 0 1920 1080 1</property>
      <property name="transition.valign">top</property>
      <property name="transition.halign">left</property>
      <property name="shotcut:animIn">00:00:00.000</property>
      <property name="shotcut:animOut">00:00:00.000</property>
      <property name="transition.threads">0</property>
    </filter>
  </producer>
  <producer id="producer39" title="Anonymous Submission" in="00:00:00.000" out="00:03:39.200">
    <property name="length">00:03:39:06</property>
    <property name="eof">pause</property>
    <property name="resource">C:/Users/Camille/OneDrive/Camille/006 - Videos format youtube/Trombone/daniel_trombone_totoro.mp4</property>
    <property name="audio_index">1</property>
    <property name="video_index">0</property>
    <property name="mute_on_pause">0</property>
    <property name="mlt_service">avformat-novalidate</property>
    <property name="seekable">1</property>
    <property name="aspect_ratio">1</property>
    <property name="shotcut:hash">a1664e01b7aa5838d73b735214bc61f9</property>
    <property name="ignore_points">0</property>
    <property name="shotcut:caption">daniel_trombone_totoro.mp4</property>
    <property name="shotcut:skipConvert">1</property>
    <property name="global_feed">1</property>
    <property name="xml">was here</property>
    <filter id="filter70" in="00:02:32.560" out="00:02:38.720">
      <property name="background">colour:0</property>
      <property name="mlt_service">affine</property>
      <property name="shotcut:filter">affineRotate</property>
      <property name="transition.fix_rotate_x">0</property>
      <property name="transition.scale_x">0.416667</property>
      <property name="transition.ox">0</property>
      <property name="transition.oy">0</property>
      <property name="transition.threads">0</property>
      <property name="transition.scale_y">0.416667</property>
    </filter>
    <filter id="filter71" in="00:02:32.560" out="00:02:38.720">
      <property name="background">colour:0</property>
      <property name="mlt_service">affine</property>
      <property name="shotcut:filter">affineSizePosition</property>
      <property name="transition.fill">1</property>
      <property name="transition.distort">0</property>
      <property name="transition.rect">0 0 1920 1080 1</property>
      <property name="transition.valign">top</property>
      <property name="transition.halign">left</property>
      <property name="shotcut:animIn">00:00:00.000</property>
      <property name="shotcut:animOut">00:00:00.000</property>
      <property name="transition.threads">0</property>
    </filter>
    <filter id="filter72" in="00:02:32.560" out="00:02:38.720">
      <property name="window">75</property>
      <property name="max_gain">20dB</property>
      <property name="mlt_service">volume</property>
      <property name="shotcut:filter">muteVolume</property>
      <property name="gain">0</property>
    </filter>
  </producer>
  <producer id="producer40" title="Anonymous Submission" in="00:00:00.000" out="00:03:39.200">
    <property name="length">00:03:39:06</property>
    <property name="eof">pause</property>
    <property name="resource">C:/Users/Camille/OneDrive/Camille/006 - Videos format youtube/Trombone/daniel_trombone_totoro.mp4</property>
    <property name="audio_index">1</property>
    <property name="video_index">0</property>
    <property name="mute_on_pause">0</property>
    <property name="mlt_service">avformat-novalidate</property>
    <property name="seekable">1</property>
    <property name="aspect_ratio">1</property>
    <property name="shotcut:hash">a1664e01b7aa5838d73b735214bc61f9</property>
    <property name="ignore_points">0</property>
    <property name="shotcut:caption">daniel_trombone_totoro.mp4</property>
    <property name="shotcut:skipConvert">1</property>
    <property name="global_feed">1</property>
    <property name="xml">was here</property>
    <filter id="filter73" in="00:02:38.760" out="00:02:45.480">
      <property name="background">colour:0</property>
      <property name="mlt_service">affine</property>
      <property name="shotcut:filter">affineRotate</property>
      <property name="transition.fix_rotate_x">0</property>
      <property name="transition.scale_x">0.416667</property>
      <property name="transition.ox">0</property>
      <property name="transition.oy">0</property>
      <property name="transition.threads">0</property>
      <property name="transition.scale_y">0.416667</property>
    </filter>
    <filter id="filter74" in="00:02:38.760" out="00:02:45.480">
      <property name="background">colour:0</property>
      <property name="mlt_service">affine</property>
      <property name="shotcut:filter">affineSizePosition</property>
      <property name="transition.fill">1</property>
      <property name="transition.distort">0</property>
      <property name="transition.rect">0 0 1920 1080 1</property>
      <property name="transition.valign">top</property>
      <property name="transition.halign">left</property>
      <property name="shotcut:animIn">00:00:00.000</property>
      <property name="shotcut:animOut">00:00:00.000</property>
      <property name="transition.threads">0</property>
    </filter>
  </producer>
  <producer id="producer41" title="Anonymous Submission" in="00:00:00.000" out="00:03:39.200">
    <property name="length">00:03:39:06</property>
    <property name="eof">pause</property>
    <property name="resource">C:/Users/Camille/OneDrive/Camille/006 - Videos format youtube/Trombone/daniel_trombone_totoro.mp4</property>
    <property name="audio_index">1</property>
    <property name="video_index">0</property>
    <property name="mute_on_pause">0</property>
    <property name="mlt_service">avformat-novalidate</property>
    <property name="seekable">1</property>
    <property name="aspect_ratio">1</property>
    <property name="shotcut:hash">a1664e01b7aa5838d73b735214bc61f9</property>
    <property name="ignore_points">0</property>
    <property name="shotcut:caption">daniel_trombone_totoro.mp4</property>
    <property name="shotcut:skipConvert">1</property>
    <property name="global_feed">1</property>
    <property name="xml">was here</property>
    <filter id="filter75" in="00:02:45.520" out="00:02:45.880">
      <property name="background">colour:0</property>
      <property name="mlt_service">affine</property>
      <property name="shotcut:filter">affineRotate</property>
      <property name="transition.fix_rotate_x">0</property>
      <property name="transition.scale_x">0.416667</property>
      <property name="transition.ox">0</property>
      <property name="transition.oy">0</property>
      <property name="transition.threads">0</property>
      <property name="transition.scale_y">0.416667</property>
    </filter>
    <filter id="filter76" in="00:02:45.520" out="00:02:45.880">
      <property name="background">colour:0</property>
      <property name="mlt_service">affine</property>
      <property name="shotcut:filter">affineSizePosition</property>
      <property name="transition.fill">1</property>
      <property name="transition.distort">0</property>
      <property name="transition.rect">0 0 1920 1080 1</property>
      <property name="transition.valign">top</property>
      <property name="transition.halign">left</property>
      <property name="shotcut:animIn">00:00:00.000</property>
      <property name="shotcut:animOut">00:00:00.000</property>
      <property name="transition.threads">0</property>
    </filter>
    <filter id="filter77" in="00:02:45.520" out="00:02:45.880">
      <property name="window">75</property>
      <property name="max_gain">20dB</property>
      <property name="mlt_service">volume</property>
      <property name="shotcut:filter">muteVolume</property>
      <property name="gain">0</property>
    </filter>
  </producer>
  <producer id="producer42" title="Anonymous Submission" in="00:00:00.000" out="00:03:39.200">
    <property name="length">00:03:39:06</property>
    <property name="eof">pause</property>
    <property name="resource">C:/Users/Camille/OneDrive/Camille/006 - Videos format youtube/Trombone/daniel_trombone_totoro.mp4</property>
    <property name="audio_index">1</property>
    <property name="video_index">0</property>
    <property name="mute_on_pause">0</property>
    <property name="mlt_service">avformat-novalidate</property>
    <property name="seekable">1</property>
    <property name="aspect_ratio">1</property>
    <property name="shotcut:hash">a1664e01b7aa5838d73b735214bc61f9</property>
    <property name="ignore_points">0</property>
    <property name="shotcut:caption">daniel_trombone_totoro.mp4</property>
    <property name="shotcut:skipConvert">1</property>
    <property name="global_feed">1</property>
    <property name="xml">was here</property>
    <filter id="filter78" in="00:02:45.920" out="00:02:51.880">
      <property name="background">colour:0</property>
      <property name="mlt_service">affine</property>
      <property name="shotcut:filter">affineRotate</property>
      <property name="transition.fix_rotate_x">0</property>
      <property name="transition.scale_x">0.416667</property>
      <property name="transition.ox">0</property>
      <property name="transition.oy">0</property>
      <property name="transition.threads">0</property>
      <property name="transition.scale_y">0.416667</property>
    </filter>
    <filter id="filter79" in="00:02:45.920" out="00:02:51.880">
      <property name="background">colour:0</property>
      <property name="mlt_service">affine</property>
      <property name="shotcut:filter">affineSizePosition</property>
      <property name="transition.fill">1</property>
      <property name="transition.distort">0</property>
      <property name="transition.rect">0 0 1920 1080 1</property>
      <property name="transition.valign">top</property>
      <property name="transition.halign">left</property>
      <property name="shotcut:animIn">00:00:00.000</property>
      <property name="shotcut:animOut">00:00:00.000</property>
      <property name="transition.threads">0</property>
    </filter>
  </producer>
  <producer id="producer43" title="Anonymous Submission" in="00:00:00.000" out="00:03:39.200">
    <property name="length">00:03:39:06</property>
    <property name="eof">pause</property>
    <property name="resource">C:/Users/Camille/OneDrive/Camille/006 - Videos format youtube/Trombone/daniel_trombone_totoro.mp4</property>
    <property name="audio_index">1</property>
    <property name="video_index">0</property>
    <property name="mute_on_pause">0</property>
    <property name="mlt_service">avformat-novalidate</property>
    <property name="seekable">1</property>
    <property name="aspect_ratio">1</property>
    <property name="shotcut:hash">a1664e01b7aa5838d73b735214bc61f9</property>
    <property name="ignore_points">0</property>
    <property name="shotcut:caption">daniel_trombone_totoro.mp4</property>
    <property name="shotcut:skipConvert">1</property>
    <property name="global_feed">1</property>
    <property name="xml">was here</property>
    <filter id="filter80" in="00:02:51.920" out="00:02:52.920">
      <property name="background">colour:0</property>
      <property name="mlt_service">affine</property>
      <property name="shotcut:filter">affineRotate</property>
      <property name="transition.fix_rotate_x">0</property>
      <property name="transition.scale_x">0.416667</property>
      <property name="transition.ox">0</property>
      <property name="transition.oy">0</property>
      <property name="transition.threads">0</property>
      <property name="transition.scale_y">0.416667</property>
    </filter>
    <filter id="filter81" in="00:02:51.920" out="00:02:52.920">
      <property name="background">colour:0</property>
      <property name="mlt_service">affine</property>
      <property name="shotcut:filter">affineSizePosition</property>
      <property name="transition.fill">1</property>
      <property name="transition.distort">0</property>
      <property name="transition.rect">0 0 1920 1080 1</property>
      <property name="transition.valign">top</property>
      <property name="transition.halign">left</property>
      <property name="shotcut:animIn">00:00:00.000</property>
      <property name="shotcut:animOut">00:00:00.000</property>
      <property name="transition.threads">0</property>
    </filter>
    <filter id="filter82" in="00:02:51.920" out="00:02:52.920">
      <property name="window">75</property>
      <property name="max_gain">20dB</property>
      <property name="mlt_service">volume</property>
      <property name="shotcut:filter">muteVolume</property>
      <property name="gain">0</property>
    </filter>
  </producer>
  <producer id="producer44" title="Anonymous Submission" in="00:00:00.000" out="00:03:39.200">
    <property name="length">00:03:39:06</property>
    <property name="eof">pause</property>
    <property name="resource">C:/Users/Camille/OneDrive/Camille/006 - Videos format youtube/Trombone/daniel_trombone_totoro.mp4</property>
    <property name="audio_index">1</property>
    <property name="video_index">0</property>
    <property name="mute_on_pause">0</property>
    <property name="mlt_service">avformat-novalidate</property>
    <property name="seekable">1</property>
    <property name="aspect_ratio">1</property>
    <property name="shotcut:hash">a1664e01b7aa5838d73b735214bc61f9</property>
    <property name="ignore_points">0</property>
    <property name="shotcut:caption">daniel_trombone_totoro.mp4</property>
    <property name="shotcut:skipConvert">1</property>
    <property name="global_feed">1</property>
    <property name="xml">was here</property>
    <filter id="filter83" in="00:02:52.960" out="00:03:10.680">
      <property name="background">colour:0</property>
      <property name="mlt_service">affine</property>
      <property name="shotcut:filter">affineRotate</property>
      <property name="transition.fix_rotate_x">0</property>
      <property name="transition.scale_x">0.416667</property>
      <property name="transition.ox">0</property>
      <property name="transition.oy">0</property>
      <property name="transition.threads">0</property>
      <property name="transition.scale_y">0.416667</property>
    </filter>
    <filter id="filter84" in="00:02:52.960" out="00:03:10.680">
      <property name="background">colour:0</property>
      <property name="mlt_service">affine</property>
      <property name="shotcut:filter">affineSizePosition</property>
      <property name="transition.fill">1</property>
      <property name="transition.distort">0</property>
      <property name="transition.rect">0 0 1920 1080 1</property>
      <property name="transition.valign">top</property>
      <property name="transition.halign">left</property>
      <property name="shotcut:animIn">00:00:00.000</property>
      <property name="shotcut:animOut">00:00:00.000</property>
      <property name="transition.threads">0</property>
    </filter>
  </producer>
  <producer id="producer45" title="Anonymous Submission" in="00:00:00.000" out="00:03:39.200">
    <property name="length">00:03:39:06</property>
    <property name="eof">pause</property>
    <property name="resource">C:/Users/Camille/OneDrive/Camille/006 - Videos format youtube/Trombone/daniel_trombone_totoro.mp4</property>
    <property name="audio_index">1</property>
    <property name="video_index">0</property>
    <property name="mute_on_pause">0</property>
    <property name="mlt_service">avformat-novalidate</property>
    <property name="seekable">1</property>
    <property name="aspect_ratio">1</property>
    <property name="shotcut:hash">a1664e01b7aa5838d73b735214bc61f9</property>
    <property name="ignore_points">0</property>
    <property name="shotcut:caption">daniel_trombone_totoro.mp4</property>
    <property name="shotcut:skipConvert">1</property>
    <property name="global_feed">1</property>
    <property name="xml">was here</property>
    <filter id="filter85" in="00:03:10.720" out="00:03:12.400">
      <property name="background">colour:0</property>
      <property name="mlt_service">affine</property>
      <property name="shotcut:filter">affineRotate</property>
      <property name="transition.fix_rotate_x">0</property>
      <property name="transition.scale_x">0.416667</property>
      <property name="transition.ox">0</property>
      <property name="transition.oy">0</property>
      <property name="transition.threads">0</property>
      <property name="transition.scale_y">0.416667</property>
    </filter>
    <filter id="filter86" in="00:03:10.720" out="00:03:12.400">
      <property name="background">colour:0</property>
      <property name="mlt_service">affine</property>
      <property name="shotcut:filter">affineSizePosition</property>
      <property name="transition.fill">1</property>
      <property name="transition.distort">0</property>
      <property name="transition.rect">0 0 1920 1080 1</property>
      <property name="transition.valign">top</property>
      <property name="transition.halign">left</property>
      <property name="shotcut:animIn">00:00:00.000</property>
      <property name="shotcut:animOut">00:00:00.000</property>
      <property name="transition.threads">0</property>
    </filter>
    <filter id="filter87" in="00:03:10.720" out="00:03:12.400">
      <property name="window">75</property>
      <property name="max_gain">20dB</property>
      <property name="mlt_service">volume</property>
      <property name="shotcut:filter">muteVolume</property>
      <property name="gain">0</property>
    </filter>
  </producer>
  <producer id="producer46" title="Anonymous Submission" in="00:00:00.000" out="00:03:39.200">
    <property name="length">00:03:39:06</property>
    <property name="eof">pause</property>
    <property name="resource">C:/Users/Camille/OneDrive/Camille/006 - Videos format youtube/Trombone/daniel_trombone_totoro.mp4</property>
    <property name="audio_index">1</property>
    <property name="video_index">0</property>
    <property name="mute_on_pause">0</property>
    <property name="mlt_service">avformat-novalidate</property>
    <property name="seekable">1</property>
    <property name="aspect_ratio">1</property>
    <property name="shotcut:hash">a1664e01b7aa5838d73b735214bc61f9</property>
    <property name="ignore_points">0</property>
    <property name="shotcut:caption">daniel_trombone_totoro.mp4</property>
    <property name="shotcut:skipConvert">1</property>
    <property name="global_feed">1</property>
    <property name="xml">was here</property>
    <filter id="filter88" in="00:03:12.440" out="00:03:13.920">
      <property name="background">colour:0</property>
      <property name="mlt_service">affine</property>
      <property name="shotcut:filter">affineRotate</property>
      <property name="transition.fix_rotate_x">0</property>
      <property name="transition.scale_x">0.416667</property>
      <property name="transition.ox">0</property>
      <property name="transition.oy">0</property>
      <property name="transition.threads">0</property>
      <property name="transition.scale_y">0.416667</property>
    </filter>
    <filter id="filter89" in="00:03:12.440" out="00:03:13.920">
      <property name="background">colour:0</property>
      <property name="mlt_service">affine</property>
      <property name="shotcut:filter">affineSizePosition</property>
      <property name="transition.fill">1</property>
      <property name="transition.distort">0</property>
      <property name="transition.rect">0 0 1920 1080 1</property>
      <property name="transition.valign">top</property>
      <property name="transition.halign">left</property>
      <property name="shotcut:animIn">00:00:00.000</property>
      <property name="shotcut:animOut">00:00:00.000</property>
      <property name="transition.threads">0</property>
    </filter>
    <filter id="filter90" in="00:03:12.440" out="00:03:13.920">
      <property name="window">75</property>
      <property name="max_gain">20dB</property>
      <property name="level">-10</property>
      <property name="mlt_service">volume</property>
    </filter>
  </producer>
  <producer id="producer47" title="Anonymous Submission" in="00:00:00.000" out="00:03:39.200">
    <property name="length">00:03:39:06</property>
    <property name="eof">pause</property>
    <property name="resource">C:/Users/Camille/OneDrive/Camille/006 - Videos format youtube/Trombone/daniel_trombone_totoro.mp4</property>
    <property name="audio_index">1</property>
    <property name="video_index">0</property>
    <property name="mute_on_pause">0</property>
    <property name="mlt_service">avformat-novalidate</property>
    <property name="seekable">1</property>
    <property name="aspect_ratio">1</property>
    <property name="shotcut:hash">a1664e01b7aa5838d73b735214bc61f9</property>
    <property name="ignore_points">0</property>
    <property name="shotcut:caption">daniel_trombone_totoro.mp4</property>
    <property name="shotcut:skipConvert">1</property>
    <property name="global_feed">1</property>
    <property name="xml">was here</property>
    <filter id="filter91" in="00:03:13.960" out="00:03:21.720">
      <property name="background">colour:0</property>
      <property name="mlt_service">affine</property>
      <property name="shotcut:filter">affineRotate</property>
      <property name="transition.fix_rotate_x">0</property>
      <property name="transition.scale_x">0.416667</property>
      <property name="transition.ox">0</property>
      <property name="transition.oy">0</property>
      <property name="transition.threads">0</property>
      <property name="transition.scale_y">0.416667</property>
    </filter>
    <filter id="filter92" in="00:03:13.960" out="00:03:21.720">
      <property name="background">colour:0</property>
      <property name="mlt_service">affine</property>
      <property name="shotcut:filter">affineSizePosition</property>
      <property name="transition.fill">1</property>
      <property name="transition.distort">0</property>
      <property name="transition.rect">0 0 1920 1080 1</property>
      <property name="transition.valign">top</property>
      <property name="transition.halign">left</property>
      <property name="shotcut:animIn">00:00:00.000</property>
      <property name="shotcut:animOut">00:00:00.000</property>
      <property name="transition.threads">0</property>
    </filter>
  </producer>
  <producer id="producer48" title="Anonymous Submission" in="00:00:00.000" out="00:03:39.200">
    <property name="length">00:03:39:06</property>
    <property name="eof">pause</property>
    <property name="resource">C:/Users/Camille/OneDrive/Camille/006 - Videos format youtube/Trombone/daniel_trombone_totoro.mp4</property>
    <property name="audio_index">1</property>
    <property name="video_index">0</property>
    <property name="mute_on_pause">0</property>
    <property name="mlt_service">avformat-novalidate</property>
    <property name="seekable">1</property>
    <property name="aspect_ratio">1</property>
    <property name="shotcut:hash">a1664e01b7aa5838d73b735214bc61f9</property>
    <property name="ignore_points">0</property>
    <property name="shotcut:caption">daniel_trombone_totoro.mp4</property>
    <property name="shotcut:skipConvert">1</property>
    <property name="global_feed">1</property>
    <property name="xml">was here</property>
    <filter id="filter93" in="00:03:21.760" out="00:03:22.000">
      <property name="background">colour:0</property>
      <property name="mlt_service">affine</property>
      <property name="shotcut:filter">affineRotate</property>
      <property name="transition.fix_rotate_x">0</property>
      <property name="transition.scale_x">0.416667</property>
      <property name="transition.ox">0</property>
      <property name="transition.oy">0</property>
      <property name="transition.threads">0</property>
      <property name="transition.scale_y">0.416667</property>
    </filter>
    <filter id="filter94" in="00:03:21.760" out="00:03:22.000">
      <property name="background">colour:0</property>
      <property name="mlt_service">affine</property>
      <property name="shotcut:filter">affineSizePosition</property>
      <property name="transition.fill">1</property>
      <property name="transition.distort">0</property>
      <property name="transition.rect">0 0 1920 1080 1</property>
      <property name="transition.valign">top</property>
      <property name="transition.halign">left</property>
      <property name="shotcut:animIn">00:00:00.000</property>
      <property name="shotcut:animOut">00:00:00.000</property>
      <property name="transition.threads">0</property>
    </filter>
    <filter id="filter95" in="00:03:21.760" out="00:03:22.000">
      <property name="window">75</property>
      <property name="max_gain">20dB</property>
      <property name="mlt_service">volume</property>
      <property name="shotcut:filter">muteVolume</property>
      <property name="gain">0</property>
    </filter>
  </producer>
  <producer id="producer49" title="Anonymous Submission" in="00:00:00.000" out="00:03:39.200">
    <property name="length">00:03:39:06</property>
    <property name="eof">pause</property>
    <property name="resource">C:/Users/Camille/OneDrive/Camille/006 - Videos format youtube/Trombone/daniel_trombone_totoro.mp4</property>
    <property name="audio_index">1</property>
    <property name="video_index">0</property>
    <property name="mute_on_pause">0</property>
    <property name="mlt_service">avformat-novalidate</property>
    <property name="seekable">1</property>
    <property name="aspect_ratio">1</property>
    <property name="shotcut:hash">a1664e01b7aa5838d73b735214bc61f9</property>
    <property name="ignore_points">0</property>
    <property name="shotcut:caption">daniel_trombone_totoro.mp4</property>
    <property name="shotcut:skipConvert">1</property>
    <property name="global_feed">1</property>
    <property name="xml">was here</property>
    <filter id="filter96" in="00:03:22.040" out="00:03:39.200">
      <property name="background">colour:0</property>
      <property name="mlt_service">affine</property>
      <property name="shotcut:filter">affineRotate</property>
      <property name="transition.fix_rotate_x">0</property>
      <property name="transition.scale_x">0.416667</property>
      <property name="transition.ox">0</property>
      <property name="transition.oy">0</property>
      <property name="transition.threads">0</property>
      <property name="transition.scale_y">0.416667</property>
    </filter>
    <filter id="filter97" in="00:03:22.040" out="00:03:39.200">
      <property name="background">colour:0</property>
      <property name="mlt_service">affine</property>
      <property name="shotcut:filter">affineSizePosition</property>
      <property name="transition.fill">1</property>
      <property name="transition.distort">0</property>
      <property name="transition.rect">0 0 1920 1080 1</property>
      <property name="transition.valign">top</property>
      <property name="transition.halign">left</property>
      <property name="shotcut:animIn">00:00:00.000</property>
      <property name="shotcut:animOut">00:00:00.000</property>
      <property name="transition.threads">0</property>
    </filter>
  </producer>
  <playlist id="playlist4">
    <property name="shotcut:video">1</property>
    <property name="shotcut:name">Daniel</property>
    <property name="shotcut:lock">1</property>
    <blank length="00:00:07.760"/>
    <entry producer="producer28" in="00:00:26.360" out="00:00:47.880"/>
    <entry producer="producer29" in="00:00:47.920" out="00:01:23.480"/>
    <entry producer="producer30" in="00:01:23.520" out="00:01:30.480"/>
    <entry producer="producer31" in="00:01:30.520" out="00:01:34.680"/>
    <entry producer="producer32" in="00:01:34.720" out="00:01:35.120"/>
    <entry producer="producer33" in="00:01:35.160" out="00:01:54.040"/>
    <entry producer="producer34" in="00:01:54.080" out="00:01:54.440"/>
    <entry producer="producer35" in="00:01:54.480" out="00:02:02.600"/>
    <entry producer="producer36" in="00:02:02.640" out="00:02:03.400"/>
    <entry producer="producer37" in="00:02:03.440" out="00:02:16.840"/>
    <entry producer="producer38" in="00:02:16.880" out="00:02:32.520"/>
    <entry producer="producer39" in="00:02:32.560" out="00:02:38.720"/>
    <entry producer="producer40" in="00:02:38.760" out="00:02:45.480"/>
    <entry producer="producer41" in="00:02:45.520" out="00:02:45.880"/>
    <entry producer="producer42" in="00:02:45.920" out="00:02:51.880"/>
    <entry producer="producer43" in="00:02:51.920" out="00:02:52.920"/>
    <entry producer="producer44" in="00:02:52.960" out="00:03:10.680"/>
    <entry producer="producer45" in="00:03:10.720" out="00:03:12.400"/>
    <entry producer="producer46" in="00:03:12.440" out="00:03:13.920"/>
    <entry producer="producer47" in="00:03:13.960" out="00:03:21.720"/>
    <entry producer="producer48" in="00:03:21.760" out="00:03:22.000"/>
    <entry producer="producer49" in="00:03:22.040" out="00:03:39.200"/>
    <filter id="filter98" out="00:03:25.720">
      <property name="window">75</property>
      <property name="max_gain">20dB</property>
      <property name="level">-12</property>
      <property name="mlt_service">volume</property>
    </filter>
  </playlist>
  <producer id="producer50" title="Anonymous Submission" in="00:00:00.000" out="00:03:18.320">
    <property name="length">00:03:18:09</property>
    <property name="eof">pause</property>
    <property name="resource">C:/Users/Camille/OneDrive/Camille/006 - Videos format youtube/Trombone/Cecile_trombone_totoro.mp4</property>
    <property name="audio_index">1</property>
    <property name="video_index">0</property>
    <property name="mute_on_pause">0</property>
    <property name="mlt_service">avformat-novalidate</property>
    <property name="seekable">1</property>
    <property name="aspect_ratio">1</property>
    <property name="creation_time">2020-04-19T16:42:14</property>
    <property name="shotcut:hash">c7c2345077b92c636ec8da26a84f18d5</property>
    <property name="ignore_points">0</property>
    <property name="shotcut:caption">Cecile_trombone_totoro.mp4</property>
    <property name="shotcut:skipConvert">1</property>
    <property name="global_feed">1</property>
    <property name="xml">was here</property>
    <filter id="filter99" out="00:00:29.040">
      <property name="background">colour:0</property>
      <property name="mlt_service">affine</property>
      <property name="shotcut:filter">affineSizePosition</property>
      <property name="transition.fill">1</property>
      <property name="transition.distort">0</property>
      <property name="transition.rect">0 0 1920 1080 1</property>
      <property name="transition.valign">top</property>
      <property name="transition.halign">left</property>
      <property name="shotcut:animIn">00:00:00.000</property>
      <property name="shotcut:animOut">00:00:00.000</property>
      <property name="transition.threads">0</property>
    </filter>
    <filter id="filter100" out="00:00:29.040">
      <property name="window">75</property>
      <property name="max_gain">20dB</property>
      <property name="mlt_service">volume</property>
      <property name="shotcut:filter">muteVolume</property>
      <property name="gain">0</property>
    </filter>
  </producer>
  <producer id="producer51" title="Anonymous Submission" in="00:00:00.000" out="00:03:18.320">
    <property name="length">00:03:18:09</property>
    <property name="eof">pause</property>
    <property name="resource">C:/Users/Camille/OneDrive/Camille/006 - Videos format youtube/Trombone/Cecile_trombone_totoro.mp4</property>
    <property name="audio_index">1</property>
    <property name="video_index">0</property>
    <property name="mute_on_pause">0</property>
    <property name="mlt_service">avformat-novalidate</property>
    <property name="seekable">1</property>
    <property name="aspect_ratio">1</property>
    <property name="creation_time">2020-04-19T16:42:14</property>
    <property name="shotcut:hash">c7c2345077b92c636ec8da26a84f18d5</property>
    <property name="ignore_points">0</property>
    <property name="shotcut:caption">Cecile_trombone_totoro.mp4</property>
    <property name="shotcut:skipConvert">1</property>
    <property name="global_feed">1</property>
    <property name="xml">was here</property>
    <filter id="filter101" in="00:00:29.080" out="00:00:59.640">
      <property name="background">colour:0</property>
      <property name="mlt_service">affine</property>
      <property name="shotcut:filter">affineSizePosition</property>
      <property name="transition.fill">1</property>
      <property name="transition.distort">0</property>
      <property name="transition.rect">0 0 1920 1080 1</property>
      <property name="transition.valign">top</property>
      <property name="transition.halign">left</property>
      <property name="shotcut:animIn">00:00:00.000</property>
      <property name="shotcut:animOut">00:00:00.000</property>
      <property name="transition.threads">0</property>
    </filter>
  </producer>
  <producer id="producer52" title="Anonymous Submission" in="00:00:00.000" out="00:03:18.320">
    <property name="length">00:03:18:09</property>
    <property name="eof">pause</property>
    <property name="resource">C:/Users/Camille/OneDrive/Camille/006 - Videos format youtube/Trombone/Cecile_trombone_totoro.mp4</property>
    <property name="audio_index">1</property>
    <property name="video_index">0</property>
    <property name="mute_on_pause">0</property>
    <property name="mlt_service">avformat-novalidate</property>
    <property name="seekable">1</property>
    <property name="aspect_ratio">1</property>
    <property name="creation_time">2020-04-19T16:42:14</property>
    <property name="shotcut:hash">c7c2345077b92c636ec8da26a84f18d5</property>
    <property name="ignore_points">0</property>
    <property name="shotcut:caption">Cecile_trombone_totoro.mp4</property>
    <property name="shotcut:skipConvert">1</property>
    <property name="global_feed">1</property>
    <property name="xml">was here</property>
    <filter id="filter102" in="00:00:59.680" out="00:01:12.240">
      <property name="background">colour:0</property>
      <property name="mlt_service">affine</property>
      <property name="shotcut:filter">affineSizePosition</property>
      <property name="transition.fill">1</property>
      <property name="transition.distort">0</property>
      <property name="transition.rect">0 0 1920 1080 1</property>
      <property name="transition.valign">top</property>
      <property name="transition.halign">left</property>
      <property name="shotcut:animIn">00:00:00.000</property>
      <property name="shotcut:animOut">00:00:00.000</property>
      <property name="transition.threads">0</property>
    </filter>
    <filter id="filter103" in="00:00:59.680" out="00:01:12.240">
      <property name="window">75</property>
      <property name="max_gain">20dB</property>
      <property name="mlt_service">volume</property>
      <property name="shotcut:filter">muteVolume</property>
      <property name="gain">0</property>
    </filter>
  </producer>
  <producer id="producer53" title="Anonymous Submission" in="00:00:00.000" out="00:03:18.320">
    <property name="length">00:03:18:09</property>
    <property name="eof">pause</property>
    <property name="resource">C:/Users/Camille/OneDrive/Camille/006 - Videos format youtube/Trombone/Cecile_trombone_totoro.mp4</property>
    <property name="audio_index">1</property>
    <property name="video_index">0</property>
    <property name="mute_on_pause">0</property>
    <property name="mlt_service">avformat-novalidate</property>
    <property name="seekable">1</property>
    <property name="aspect_ratio">1</property>
    <property name="creation_time">2020-04-19T16:42:14</property>
    <property name="shotcut:hash">c7c2345077b92c636ec8da26a84f18d5</property>
    <property name="ignore_points">0</property>
    <property name="shotcut:caption">Cecile_trombone_totoro.mp4</property>
    <property name="shotcut:skipConvert">1</property>
    <property name="global_feed">1</property>
    <property name="xml">was here</property>
    <filter id="filter104" in="00:01:12.280" out="00:01:15.560">
      <property name="background">colour:0</property>
      <property name="mlt_service">affine</property>
      <property name="shotcut:filter">affineSizePosition</property>
      <property name="transition.fill">1</property>
      <property name="transition.distort">0</property>
      <property name="transition.rect">0 0 1920 1080 1</property>
      <property name="transition.valign">top</property>
      <property name="transition.halign">left</property>
      <property name="shotcut:animIn">00:00:00.000</property>
      <property name="shotcut:animOut">00:00:00.000</property>
      <property name="transition.threads">0</property>
    </filter>
  </producer>
  <producer id="producer54" title="Anonymous Submission" in="00:00:00.000" out="00:03:18.320">
    <property name="length">00:03:18:09</property>
    <property name="eof">pause</property>
    <property name="resource">C:/Users/Camille/OneDrive/Camille/006 - Videos format youtube/Trombone/Cecile_trombone_totoro.mp4</property>
    <property name="audio_index">1</property>
    <property name="video_index">0</property>
    <property name="mute_on_pause">0</property>
    <property name="mlt_service">avformat-novalidate</property>
    <property name="seekable">1</property>
    <property name="aspect_ratio">1</property>
    <property name="creation_time">2020-04-19T16:42:14</property>
    <property name="shotcut:hash">c7c2345077b92c636ec8da26a84f18d5</property>
    <property name="ignore_points">0</property>
    <property name="shotcut:caption">Cecile_trombone_totoro.mp4</property>
    <property name="shotcut:skipConvert">1</property>
    <property name="global_feed">1</property>
    <property name="xml">was here</property>
    <filter id="filter105" in="00:01:15.600" out="00:01:16.040">
      <property name="background">colour:0</property>
      <property name="mlt_service">affine</property>
      <property name="shotcut:filter">affineSizePosition</property>
      <property name="transition.fill">1</property>
      <property name="transition.distort">0</property>
      <property name="transition.rect">0 0 1920 1080 1</property>
      <property name="transition.valign">top</property>
      <property name="transition.halign">left</property>
      <property name="shotcut:animIn">00:00:00.000</property>
      <property name="shotcut:animOut">00:00:00.000</property>
      <property name="transition.threads">0</property>
    </filter>
    <filter id="filter106" in="00:01:15.600" out="00:01:16.040">
      <property name="window">75</property>
      <property name="max_gain">20dB</property>
      <property name="mlt_service">volume</property>
      <property name="shotcut:filter">muteVolume</property>
      <property name="gain">0</property>
    </filter>
  </producer>
  <producer id="producer55" title="Anonymous Submission" in="00:00:00.000" out="00:03:18.320">
    <property name="length">00:03:18:09</property>
    <property name="eof">pause</property>
    <property name="resource">C:/Users/Camille/OneDrive/Camille/006 - Videos format youtube/Trombone/Cecile_trombone_totoro.mp4</property>
    <property name="audio_index">1</property>
    <property name="video_index">0</property>
    <property name="mute_on_pause">0</property>
    <property name="mlt_service">avformat-novalidate</property>
    <property name="seekable">1</property>
    <property name="aspect_ratio">1</property>
    <property name="creation_time">2020-04-19T16:42:14</property>
    <property name="shotcut:hash">c7c2345077b92c636ec8da26a84f18d5</property>
    <property name="ignore_points">0</property>
    <property name="shotcut:caption">Cecile_trombone_totoro.mp4</property>
    <property name="shotcut:skipConvert">1</property>
    <property name="global_feed">1</property>
    <property name="xml">was here</property>
    <filter id="filter107" in="00:01:16.080" out="00:01:43.480">
      <property name="background">colour:0</property>
      <property name="mlt_service">affine</property>
      <property name="shotcut:filter">affineSizePosition</property>
      <property name="transition.fill">1</property>
      <property name="transition.distort">0</property>
      <property name="transition.rect">0 0 1920 1080 1</property>
      <property name="transition.valign">top</property>
      <property name="transition.halign">left</property>
      <property name="shotcut:animIn">00:00:00.000</property>
      <property name="shotcut:animOut">00:00:00.000</property>
      <property name="transition.threads">0</property>
    </filter>
  </producer>
  <producer id="producer56" title="Anonymous Submission" in="00:00:00.000" out="00:03:18.320">
    <property name="length">00:03:18:09</property>
    <property name="eof">pause</property>
    <property name="resource">C:/Users/Camille/OneDrive/Camille/006 - Videos format youtube/Trombone/Cecile_trombone_totoro.mp4</property>
    <property name="audio_index">1</property>
    <property name="video_index">0</property>
    <property name="mute_on_pause">0</property>
    <property name="mlt_service">avformat-novalidate</property>
    <property name="seekable">1</property>
    <property name="aspect_ratio">1</property>
    <property name="creation_time">2020-04-19T16:42:14</property>
    <property name="shotcut:hash">c7c2345077b92c636ec8da26a84f18d5</property>
    <property name="ignore_points">0</property>
    <property name="shotcut:caption">Cecile_trombone_totoro.mp4</property>
    <property name="shotcut:skipConvert">1</property>
    <property name="global_feed">1</property>
    <property name="xml">was here</property>
    <filter id="filter108" in="00:01:43.520" out="00:01:57.880">
      <property name="background">colour:0</property>
      <property name="mlt_service">affine</property>
      <property name="shotcut:filter">affineSizePosition</property>
      <property name="transition.fill">1</property>
      <property name="transition.distort">0</property>
      <property name="transition.rect">0 0 1920 1080 1</property>
      <property name="transition.valign">top</property>
      <property name="transition.halign">left</property>
      <property name="shotcut:animIn">00:00:00.000</property>
      <property name="shotcut:animOut">00:00:00.000</property>
      <property name="transition.threads">0</property>
    </filter>
    <filter id="filter109" in="00:01:43.520" out="00:01:57.880">
      <property name="window">75</property>
      <property name="max_gain">20dB</property>
      <property name="mlt_service">volume</property>
      <property name="shotcut:filter">muteVolume</property>
      <property name="gain">0</property>
    </filter>
  </producer>
  <producer id="producer57" title="Anonymous Submission" in="00:00:00.000" out="00:03:18.320">
    <property name="length">00:03:18:09</property>
    <property name="eof">pause</property>
    <property name="resource">C:/Users/Camille/OneDrive/Camille/006 - Videos format youtube/Trombone/Cecile_trombone_totoro.mp4</property>
    <property name="audio_index">1</property>
    <property name="video_index">0</property>
    <property name="mute_on_pause">0</property>
    <property name="mlt_service">avformat-novalidate</property>
    <property name="seekable">1</property>
    <property name="aspect_ratio">1</property>
    <property name="creation_time">2020-04-19T16:42:14</property>
    <property name="shotcut:hash">c7c2345077b92c636ec8da26a84f18d5</property>
    <property name="ignore_points">0</property>
    <property name="shotcut:caption">Cecile_trombone_totoro.mp4</property>
    <property name="shotcut:skipConvert">1</property>
    <property name="global_feed">1</property>
    <property name="xml">was here</property>
    <filter id="filter110" in="00:01:57.920" out="00:02:18.680">
      <property name="background">colour:0</property>
      <property name="mlt_service">affine</property>
      <property name="shotcut:filter">affineSizePosition</property>
      <property name="transition.fill">1</property>
      <property name="transition.distort">0</property>
      <property name="transition.rect">0 0 1920 1080 1</property>
      <property name="transition.valign">top</property>
      <property name="transition.halign">left</property>
      <property name="shotcut:animIn">00:00:00.000</property>
      <property name="shotcut:animOut">00:00:00.000</property>
      <property name="transition.threads">0</property>
    </filter>
  </producer>
  <producer id="producer58" title="Anonymous Submission" in="00:00:00.000" out="00:03:18.320">
    <property name="length">00:03:18:09</property>
    <property name="eof">pause</property>
    <property name="resource">C:/Users/Camille/OneDrive/Camille/006 - Videos format youtube/Trombone/Cecile_trombone_totoro.mp4</property>
    <property name="audio_index">1</property>
    <property name="video_index">0</property>
    <property name="mute_on_pause">0</property>
    <property name="mlt_service">avformat-novalidate</property>
    <property name="seekable">1</property>
    <property name="aspect_ratio">1</property>
    <property name="creation_time">2020-04-19T16:42:14</property>
    <property name="shotcut:hash">c7c2345077b92c636ec8da26a84f18d5</property>
    <property name="ignore_points">0</property>
    <property name="shotcut:caption">Cecile_trombone_totoro.mp4</property>
    <property name="shotcut:skipConvert">1</property>
    <property name="global_feed">1</property>
    <property name="xml">was here</property>
    <filter id="filter111" in="00:02:18.720" out="00:02:20.400">
      <property name="background">colour:0</property>
      <property name="mlt_service">affine</property>
      <property name="shotcut:filter">affineSizePosition</property>
      <property name="transition.fill">1</property>
      <property name="transition.distort">0</property>
      <property name="transition.rect">0 0 1920 1080 1</property>
      <property name="transition.valign">top</property>
      <property name="transition.halign">left</property>
      <property name="shotcut:animIn">00:00:00.000</property>
      <property name="shotcut:animOut">00:00:00.000</property>
      <property name="transition.threads">0</property>
    </filter>
    <filter id="filter112" in="00:02:18.720" out="00:02:20.400">
      <property name="window">75</property>
      <property name="max_gain">20dB</property>
      <property name="mlt_service">volume</property>
      <property name="shotcut:filter">muteVolume</property>
      <property name="gain">0</property>
    </filter>
  </producer>
  <producer id="producer59" title="Anonymous Submission" in="00:00:00.000" out="00:03:18.320">
    <property name="length">00:03:18:09</property>
    <property name="eof">pause</property>
    <property name="resource">C:/Users/Camille/OneDrive/Camille/006 - Videos format youtube/Trombone/Cecile_trombone_totoro.mp4</property>
    <property name="audio_index">1</property>
    <property name="video_index">0</property>
    <property name="mute_on_pause">0</property>
    <property name="mlt_service">avformat-novalidate</property>
    <property name="seekable">1</property>
    <property name="aspect_ratio">1</property>
    <property name="creation_time">2020-04-19T16:42:14</property>
    <property name="shotcut:hash">c7c2345077b92c636ec8da26a84f18d5</property>
    <property name="ignore_points">0</property>
    <property name="shotcut:caption">Cecile_trombone_totoro.mp4</property>
    <property name="shotcut:skipConvert">1</property>
    <property name="global_feed">1</property>
    <property name="xml">was here</property>
    <filter id="filter113" in="00:02:20.440" out="00:02:26.480">
      <property name="background">colour:0</property>
      <property name="mlt_service">affine</property>
      <property name="shotcut:filter">affineSizePosition</property>
      <property name="transition.fill">1</property>
      <property name="transition.distort">0</property>
      <property name="transition.rect">0 0 1920 1080 1</property>
      <property name="transition.valign">top</property>
      <property name="transition.halign">left</property>
      <property name="shotcut:animIn">00:00:00.000</property>
      <property name="shotcut:animOut">00:00:00.000</property>
      <property name="transition.threads">0</property>
    </filter>
    <filter id="filter114" in="00:02:20.440" out="00:02:26.480">
      <property name="window">75</property>
      <property name="max_gain">20dB</property>
      <property name="mlt_service">volume</property>
      <property name="shotcut:filter">muteVolume</property>
      <property name="gain">0</property>
    </filter>
  </producer>
  <producer id="producer60" title="Anonymous Submission" in="00:00:00.000" out="00:03:18.320">
    <property name="length">00:03:18:09</property>
    <property name="eof">pause</property>
    <property name="resource">C:/Users/Camille/OneDrive/Camille/006 - Videos format youtube/Trombone/Cecile_trombone_totoro.mp4</property>
    <property name="audio_index">1</property>
    <property name="video_index">0</property>
    <property name="mute_on_pause">0</property>
    <property name="mlt_service">avformat-novalidate</property>
    <property name="seekable">1</property>
    <property name="aspect_ratio">1</property>
    <property name="creation_time">2020-04-19T16:42:14</property>
    <property name="shotcut:hash">c7c2345077b92c636ec8da26a84f18d5</property>
    <property name="ignore_points">0</property>
    <property name="shotcut:caption">Cecile_trombone_totoro.mp4</property>
    <property name="shotcut:skipConvert">1</property>
    <property name="global_feed">1</property>
    <property name="xml">was here</property>
    <filter id="filter115" in="00:02:26.520" out="00:02:26.800">
      <property name="background">colour:0</property>
      <property name="mlt_service">affine</property>
      <property name="shotcut:filter">affineSizePosition</property>
      <property name="transition.fill">1</property>
      <property name="transition.distort">0</property>
      <property name="transition.rect">0 0 1920 1080 1</property>
      <property name="transition.valign">top</property>
      <property name="transition.halign">left</property>
      <property name="shotcut:animIn">00:00:00.000</property>
      <property name="shotcut:animOut">00:00:00.000</property>
      <property name="transition.threads">0</property>
    </filter>
    <filter id="filter116" in="00:02:26.520" out="00:02:26.800">
      <property name="window">75</property>
      <property name="max_gain">20dB</property>
      <property name="level">-15</property>
      <property name="mlt_service">volume</property>
    </filter>
  </producer>
  <producer id="producer61" title="Anonymous Submission" in="00:00:00.000" out="00:03:18.320">
    <property name="length">00:03:18:09</property>
    <property name="eof">pause</property>
    <property name="resource">C:/Users/Camille/OneDrive/Camille/006 - Videos format youtube/Trombone/Cecile_trombone_totoro.mp4</property>
    <property name="audio_index">1</property>
    <property name="video_index">0</property>
    <property name="mute_on_pause">0</property>
    <property name="mlt_service">avformat-novalidate</property>
    <property name="seekable">1</property>
    <property name="aspect_ratio">1</property>
    <property name="creation_time">2020-04-19T16:42:14</property>
    <property name="shotcut:hash">c7c2345077b92c636ec8da26a84f18d5</property>
    <property name="ignore_points">0</property>
    <property name="shotcut:caption">Cecile_trombone_totoro.mp4</property>
    <property name="shotcut:skipConvert">1</property>
    <property name="global_feed">1</property>
    <property name="xml">was here</property>
    <filter id="filter117" in="00:02:26.840" out="00:02:31.920">
      <property name="background">colour:0</property>
      <property name="mlt_service">affine</property>
      <property name="shotcut:filter">affineSizePosition</property>
      <property name="transition.fill">1</property>
      <property name="transition.distort">0</property>
      <property name="transition.rect">0 0 1920 1080 1</property>
      <property name="transition.valign">top</property>
      <property name="transition.halign">left</property>
      <property name="shotcut:animIn">00:00:00.000</property>
      <property name="shotcut:animOut">00:00:00.000</property>
      <property name="transition.threads">0</property>
    </filter>
  </producer>
  <producer id="producer62" title="Anonymous Submission" in="00:00:00.000" out="00:03:18.320">
    <property name="length">00:03:18:09</property>
    <property name="eof">pause</property>
    <property name="resource">C:/Users/Camille/OneDrive/Camille/006 - Videos format youtube/Trombone/Cecile_trombone_totoro.mp4</property>
    <property name="audio_index">1</property>
    <property name="video_index">0</property>
    <property name="mute_on_pause">0</property>
    <property name="mlt_service">avformat-novalidate</property>
    <property name="seekable">1</property>
    <property name="aspect_ratio">1</property>
    <property name="creation_time">2020-04-19T16:42:14</property>
    <property name="shotcut:hash">c7c2345077b92c636ec8da26a84f18d5</property>
    <property name="ignore_points">0</property>
    <property name="shotcut:caption">Cecile_trombone_totoro.mp4</property>
    <property name="shotcut:skipConvert">1</property>
    <property name="global_feed">1</property>
    <property name="xml">was here</property>
    <filter id="filter118" in="00:02:31.960" out="00:02:32.880">
      <property name="background">colour:0</property>
      <property name="mlt_service">affine</property>
      <property name="shotcut:filter">affineSizePosition</property>
      <property name="transition.fill">1</property>
      <property name="transition.distort">0</property>
      <property name="transition.rect">0 0 1920 1080 1</property>
      <property name="transition.valign">top</property>
      <property name="transition.halign">left</property>
      <property name="shotcut:animIn">00:00:00.000</property>
      <property name="shotcut:animOut">00:00:00.000</property>
      <property name="transition.threads">0</property>
    </filter>
    <filter id="filter119" in="00:02:31.960" out="00:02:32.880">
      <property name="window">75</property>
      <property name="max_gain">20dB</property>
      <property name="mlt_service">volume</property>
      <property name="shotcut:filter">muteVolume</property>
      <property name="gain">0</property>
    </filter>
  </producer>
  <producer id="producer63" title="Anonymous Submission" in="00:00:00.000" out="00:03:18.320">
    <property name="length">00:03:18:09</property>
    <property name="eof">pause</property>
    <property name="resource">C:/Users/Camille/OneDrive/Camille/006 - Videos format youtube/Trombone/Cecile_trombone_totoro.mp4</property>
    <property name="audio_index">1</property>
    <property name="video_index">0</property>
    <property name="mute_on_pause">0</property>
    <property name="mlt_service">avformat-novalidate</property>
    <property name="seekable">1</property>
    <property name="aspect_ratio">1</property>
    <property name="creation_time">2020-04-19T16:42:14</property>
    <property name="shotcut:hash">c7c2345077b92c636ec8da26a84f18d5</property>
    <property name="ignore_points">0</property>
    <property name="shotcut:caption">Cecile_trombone_totoro.mp4</property>
    <property name="shotcut:skipConvert">1</property>
    <property name="global_feed">1</property>
    <property name="xml">was here</property>
    <filter id="filter120" in="00:02:32.920" out="00:02:35.160">
      <property name="background">colour:0</property>
      <property name="mlt_service">affine</property>
      <property name="shotcut:filter">affineSizePosition</property>
      <property name="transition.fill">1</property>
      <property name="transition.distort">0</property>
      <property name="transition.rect">0 0 1920 1080 1</property>
      <property name="transition.valign">top</property>
      <property name="transition.halign">left</property>
      <property name="shotcut:animIn">00:00:00.000</property>
      <property name="shotcut:animOut">00:00:00.000</property>
      <property name="transition.threads">0</property>
    </filter>
  </producer>
  <producer id="producer64" title="Anonymous Submission" in="00:00:00.000" out="00:03:18.320">
    <property name="length">00:03:18:09</property>
    <property name="eof">pause</property>
    <property name="resource">C:/Users/Camille/OneDrive/Camille/006 - Videos format youtube/Trombone/Cecile_trombone_totoro.mp4</property>
    <property name="audio_index">1</property>
    <property name="video_index">0</property>
    <property name="mute_on_pause">0</property>
    <property name="mlt_service">avformat-novalidate</property>
    <property name="seekable">1</property>
    <property name="aspect_ratio">1</property>
    <property name="creation_time">2020-04-19T16:42:14</property>
    <property name="shotcut:hash">c7c2345077b92c636ec8da26a84f18d5</property>
    <property name="ignore_points">0</property>
    <property name="shotcut:caption">Cecile_trombone_totoro.mp4</property>
    <property name="shotcut:skipConvert">1</property>
    <property name="global_feed">1</property>
    <property name="xml">was here</property>
    <filter id="filter121" in="00:02:35.200" out="00:02:56.720">
      <property name="background">colour:0</property>
      <property name="mlt_service">affine</property>
      <property name="shotcut:filter">affineSizePosition</property>
      <property name="transition.fill">1</property>
      <property name="transition.distort">0</property>
      <property name="transition.rect">0 0 1920 1080 1</property>
      <property name="transition.valign">top</property>
      <property name="transition.halign">left</property>
      <property name="shotcut:animIn">00:00:00.000</property>
      <property name="shotcut:animOut">00:00:00.000</property>
      <property name="transition.threads">0</property>
    </filter>
    <filter id="filter122" in="00:02:35.200" out="00:02:56.720">
      <property name="window">75</property>
      <property name="max_gain">20dB</property>
      <property name="mlt_service">volume</property>
      <property name="shotcut:filter">muteVolume</property>
      <property name="gain">0</property>
    </filter>
  </producer>
  <producer id="producer65" title="Anonymous Submission" in="00:00:00.000" out="00:03:18.320">
    <property name="length">00:03:18:09</property>
    <property name="eof">pause</property>
    <property name="resource">C:/Users/Camille/OneDrive/Camille/006 - Videos format youtube/Trombone/Cecile_trombone_totoro.mp4</property>
    <property name="audio_index">1</property>
    <property name="video_index">0</property>
    <property name="mute_on_pause">0</property>
    <property name="mlt_service">avformat-novalidate</property>
    <property name="seekable">1</property>
    <property name="aspect_ratio">1</property>
    <property name="creation_time">2020-04-19T16:42:14</property>
    <property name="shotcut:hash">c7c2345077b92c636ec8da26a84f18d5</property>
    <property name="ignore_points">0</property>
    <property name="shotcut:caption">Cecile_trombone_totoro.mp4</property>
    <property name="shotcut:skipConvert">1</property>
    <property name="global_feed">1</property>
    <property name="xml">was here</property>
    <filter id="filter123" in="00:02:56.760" out="00:03:01.360">
      <property name="background">colour:0</property>
      <property name="mlt_service">affine</property>
      <property name="shotcut:filter">affineSizePosition</property>
      <property name="transition.fill">1</property>
      <property name="transition.distort">0</property>
      <property name="transition.rect">0 0 1920 1080 1</property>
      <property name="transition.valign">top</property>
      <property name="transition.halign">left</property>
      <property name="shotcut:animIn">00:00:00.000</property>
      <property name="shotcut:animOut">00:00:00.000</property>
      <property name="transition.threads">0</property>
    </filter>
  </producer>
  <producer id="producer66" title="Anonymous Submission" in="00:00:00.000" out="00:03:18.320">
    <property name="length">00:03:18:09</property>
    <property name="eof">pause</property>
    <property name="resource">C:/Users/Camille/OneDrive/Camille/006 - Videos format youtube/Trombone/Cecile_trombone_totoro.mp4</property>
    <property name="audio_index">1</property>
    <property name="video_index">0</property>
    <property name="mute_on_pause">0</property>
    <property name="mlt_service">avformat-novalidate</property>
    <property name="seekable">1</property>
    <property name="aspect_ratio">1</property>
    <property name="creation_time">2020-04-19T16:42:14</property>
    <property name="shotcut:hash">c7c2345077b92c636ec8da26a84f18d5</property>
    <property name="ignore_points">0</property>
    <property name="shotcut:caption">Cecile_trombone_totoro.mp4</property>
    <property name="shotcut:skipConvert">1</property>
    <property name="global_feed">1</property>
    <property name="xml">was here</property>
    <filter id="filter124" in="00:03:01.400" out="00:03:03.400">
      <property name="background">colour:0</property>
      <property name="mlt_service">affine</property>
      <property name="shotcut:filter">affineSizePosition</property>
      <property name="transition.fill">1</property>
      <property name="transition.distort">0</property>
      <property name="transition.rect">0 0 1920 1080 1</property>
      <property name="transition.valign">top</property>
      <property name="transition.halign">left</property>
      <property name="shotcut:animIn">00:00:00.000</property>
      <property name="shotcut:animOut">00:00:00.000</property>
      <property name="transition.threads">0</property>
    </filter>
    <filter id="filter125" in="00:03:01.400" out="00:03:03.400">
      <property name="window">75</property>
      <property name="max_gain">20dB</property>
      <property name="mlt_service">volume</property>
      <property name="shotcut:filter">muteVolume</property>
      <property name="gain">0</property>
    </filter>
  </producer>
  <producer id="producer67" title="Anonymous Submission" in="00:00:00.000" out="00:03:18.320">
    <property name="length">00:03:18:09</property>
    <property name="eof">pause</property>
    <property name="resource">C:/Users/Camille/OneDrive/Camille/006 - Videos format youtube/Trombone/Cecile_trombone_totoro.mp4</property>
    <property name="audio_index">1</property>
    <property name="video_index">0</property>
    <property name="mute_on_pause">0</property>
    <property name="mlt_service">avformat-novalidate</property>
    <property name="seekable">1</property>
    <property name="aspect_ratio">1</property>
    <property name="creation_time">2020-04-19T16:42:14</property>
    <property name="shotcut:hash">c7c2345077b92c636ec8da26a84f18d5</property>
    <property name="ignore_points">0</property>
    <property name="shotcut:caption">Cecile_trombone_totoro.mp4</property>
    <property name="shotcut:skipConvert">1</property>
    <property name="global_feed">1</property>
    <property name="xml">was here</property>
    <filter id="filter126" in="00:03:03.440" out="00:03:04.680">
      <property name="background">colour:0</property>
      <property name="mlt_service">affine</property>
      <property name="shotcut:filter">affineSizePosition</property>
      <property name="transition.fill">1</property>
      <property name="transition.distort">0</property>
      <property name="transition.rect">0 0 1920 1080 1</property>
      <property name="transition.valign">top</property>
      <property name="transition.halign">left</property>
      <property name="shotcut:animIn">00:00:00.000</property>
      <property name="shotcut:animOut">00:00:00.000</property>
      <property name="transition.threads">0</property>
    </filter>
  </producer>
  <producer id="producer68" title="Anonymous Submission" in="00:00:00.000" out="00:03:18.320">
    <property name="length">00:03:18:09</property>
    <property name="eof">pause</property>
    <property name="resource">C:/Users/Camille/OneDrive/Camille/006 - Videos format youtube/Trombone/Cecile_trombone_totoro.mp4</property>
    <property name="audio_index">1</property>
    <property name="video_index">0</property>
    <property name="mute_on_pause">0</property>
    <property name="mlt_service">avformat-novalidate</property>
    <property name="seekable">1</property>
    <property name="aspect_ratio">1</property>
    <property name="creation_time">2020-04-19T16:42:14</property>
    <property name="shotcut:hash">c7c2345077b92c636ec8da26a84f18d5</property>
    <property name="ignore_points">0</property>
    <property name="shotcut:caption">Cecile_trombone_totoro.mp4</property>
    <property name="shotcut:skipConvert">1</property>
    <property name="global_feed">1</property>
    <property name="xml">was here</property>
    <filter id="filter127" in="00:03:04.720" out="00:03:06.920">
      <property name="background">colour:0</property>
      <property name="mlt_service">affine</property>
      <property name="shotcut:filter">affineSizePosition</property>
      <property name="transition.fill">1</property>
      <property name="transition.distort">0</property>
      <property name="transition.rect">0 0 1920 1080 1</property>
      <property name="transition.valign">top</property>
      <property name="transition.halign">left</property>
      <property name="shotcut:animIn">00:00:00.000</property>
      <property name="shotcut:animOut">00:00:00.000</property>
      <property name="transition.threads">0</property>
    </filter>
    <filter id="filter128" in="00:03:04.720" out="00:03:06.920">
      <property name="window">75</property>
      <property name="max_gain">20dB</property>
      <property name="mlt_service">volume</property>
      <property name="shotcut:filter">muteVolume</property>
      <property name="gain">0</property>
    </filter>
  </producer>
  <producer id="producer69" title="Anonymous Submission" in="00:00:00.000" out="00:03:18.320">
    <property name="length">00:03:18:09</property>
    <property name="eof">pause</property>
    <property name="resource">C:/Users/Camille/OneDrive/Camille/006 - Videos format youtube/Trombone/Cecile_trombone_totoro.mp4</property>
    <property name="audio_index">1</property>
    <property name="video_index">0</property>
    <property name="mute_on_pause">0</property>
    <property name="mlt_service">avformat-novalidate</property>
    <property name="seekable">1</property>
    <property name="aspect_ratio">1</property>
    <property name="creation_time">2020-04-19T16:42:14</property>
    <property name="shotcut:hash">c7c2345077b92c636ec8da26a84f18d5</property>
    <property name="ignore_points">0</property>
    <property name="shotcut:caption">Cecile_trombone_totoro.mp4</property>
    <property name="shotcut:skipConvert">1</property>
    <property name="global_feed">1</property>
    <property name="xml">was here</property>
    <filter id="filter129" in="00:03:06.960" out="00:03:10.800">
      <property name="background">colour:0</property>
      <property name="mlt_service">affine</property>
      <property name="shotcut:filter">affineSizePosition</property>
      <property name="transition.fill">1</property>
      <property name="transition.distort">0</property>
      <property name="transition.rect">0 0 1920 1080 1</property>
      <property name="transition.valign">top</property>
      <property name="transition.halign">left</property>
      <property name="shotcut:animIn">00:00:00.000</property>
      <property name="shotcut:animOut">00:00:00.000</property>
      <property name="transition.threads">0</property>
    </filter>
    <filter id="filter130" in="00:03:06.960" out="00:03:10.800">
      <property name="window">75</property>
      <property name="max_gain">20dB</property>
      <property name="mlt_service">volume</property>
      <property name="shotcut:filter">muteVolume</property>
      <property name="gain">0</property>
    </filter>
  </producer>
  <producer id="producer70" title="Anonymous Submission" in="00:00:00.000" out="00:03:18.320">
    <property name="length">00:03:18:09</property>
    <property name="eof">pause</property>
    <property name="resource">C:/Users/Camille/OneDrive/Camille/006 - Videos format youtube/Trombone/Cecile_trombone_totoro.mp4</property>
    <property name="audio_index">1</property>
    <property name="video_index">0</property>
    <property name="mute_on_pause">0</property>
    <property name="mlt_service">avformat-novalidate</property>
    <property name="seekable">1</property>
    <property name="aspect_ratio">1</property>
    <property name="creation_time">2020-04-19T16:42:14</property>
    <property name="shotcut:hash">c7c2345077b92c636ec8da26a84f18d5</property>
    <property name="ignore_points">0</property>
    <property name="shotcut:caption">Cecile_trombone_totoro.mp4</property>
    <property name="shotcut:skipConvert">1</property>
    <property name="global_feed">1</property>
    <property name="xml">was here</property>
    <filter id="filter131" in="00:03:10.840" out="00:03:18.320">
      <property name="background">colour:0</property>
      <property name="mlt_service">affine</property>
      <property name="shotcut:filter">affineSizePosition</property>
      <property name="transition.fill">1</property>
      <property name="transition.distort">0</property>
      <property name="transition.rect">0 0 1920 1080 1</property>
      <property name="transition.valign">top</property>
      <property name="transition.halign">left</property>
      <property name="shotcut:animIn">00:00:00.000</property>
      <property name="shotcut:animOut">00:00:00.000</property>
      <property name="transition.threads">0</property>
    </filter>
  </producer>
  <playlist id="playlist5">
    <property name="shotcut:video">1</property>
    <property name="shotcut:name">Cecile</property>
    <property name="shotcut:lock">1</property>
    <blank length="00:00:00.520"/>
    <entry producer="producer50" in="00:00:00.000" out="00:00:29.040"/>
    <entry producer="producer51" in="00:00:29.080" out="00:00:59.640"/>
    <entry producer="producer52" in="00:00:59.680" out="00:01:12.240"/>
    <entry producer="producer53" in="00:01:12.280" out="00:01:15.560"/>
    <entry producer="producer54" in="00:01:15.600" out="00:01:16.040"/>
    <entry producer="producer55" in="00:01:16.080" out="00:01:43.480"/>
    <entry producer="producer56" in="00:01:43.520" out="00:01:57.880"/>
    <entry producer="producer57" in="00:01:57.920" out="00:02:18.680"/>
    <entry producer="producer58" in="00:02:18.720" out="00:02:20.400"/>
    <entry producer="producer59" in="00:02:20.440" out="00:02:26.480"/>
    <entry producer="producer60" in="00:02:26.520" out="00:02:26.800"/>
    <entry producer="producer61" in="00:02:26.840" out="00:02:31.920"/>
    <entry producer="producer62" in="00:02:31.960" out="00:02:32.880"/>
    <entry producer="producer63" in="00:02:32.920" out="00:02:35.160"/>
    <entry producer="producer64" in="00:02:35.200" out="00:02:56.720"/>
    <entry producer="producer65" in="00:02:56.760" out="00:03:01.360"/>
    <entry producer="producer66" in="00:03:01.400" out="00:03:03.400"/>
    <entry producer="producer67" in="00:03:03.440" out="00:03:04.680"/>
    <entry producer="producer68" in="00:03:04.720" out="00:03:06.920"/>
    <entry producer="producer69" in="00:03:06.960" out="00:03:10.800"/>
    <entry producer="producer70" in="00:03:10.840" out="00:03:18.320"/>
    <filter id="filter132" out="00:03:25.720">
      <property name="window">75</property>
      <property name="max_gain">20dB</property>
      <property name="level">-10</property>
      <property name="mlt_service">volume</property>
    </filter>
  </playlist>
  <tractor id="tractor0" title="Shotcut version 19.08.05" global_feed="1" in="00:00:00.000" out="00:03:25.720">
    <property name="shotcut">1</property>
    <property name="shotcut:projectAudioChannels">2</property>
    <property name="shotcut:projectFolder">1</property>
    <property name="shotcut:scaleFactor">0.531825</property>
    <track producer="background"/>
    <track producer="playlist0" hide="audio"/>
    <track producer="playlist1" hide="audio"/>
    <track producer="playlist2" hide="both"/>
    <track producer="playlist3"/>
    <track producer="playlist4"/>
    <track producer="playlist5"/>
    <transition id="transition0">
      <property name="a_track">0</property>
      <property name="b_track">1</property>
      <property name="mlt_service">mix</property>
      <property name="always_active">1</property>
      <property name="sum">1</property>
    </transition>
    <transition id="transition1">
      <property name="a_track">0</property>
      <property name="b_track">1</property>
      <property name="version">0.9</property>
      <property name="mlt_service">frei0r.cairoblend</property>
      <property name="disable">1</property>
    </transition>
    <transition id="transition2">
      <property name="a_track">0</property>
      <property name="b_track">2</property>
      <property name="mlt_service">mix</property>
      <property name="always_active">1</property>
      <property name="sum">1</property>
    </transition>
    <transition id="transition3">
      <property name="a_track">1</property>
      <property name="b_track">2</property>
      <property name="version">0.9</property>
      <property name="mlt_service">frei0r.cairoblend</property>
      <property name="disable">0</property>
    </transition>
    <transition id="transition4">
      <property name="a_track">0</property>
      <property name="b_track">3</property>
      <property name="mlt_service">mix</property>
      <property name="always_active">1</property>
      <property name="sum">1</property>
    </transition>
    <transition id="transition5">
      <property name="a_track">1</property>
      <property name="b_track">3</property>
      <property name="version">0.9</property>
      <property name="mlt_service">frei0r.cairoblend</property>
      <property name="disable">0</property>
    </transition>
    <transition id="transition6">
      <property name="a_track">0</property>
      <property name="b_track">4</property>
      <property name="mlt_service">mix</property>
      <property name="always_active">1</property>
      <property name="sum">1</property>
    </transition>
    <transition id="transition7">
      <property name="a_track">1</property>
      <property name="b_track">4</property>
      <property name="version">0.9</property>
      <property name="mlt_service">frei0r.cairoblend</property>
      <property name="disable">0</property>
    </transition>
    <transition id="transition8">
      <property name="a_track">0</property>
      <property name="b_track">5</property>
      <property name="mlt_service">mix</property>
      <property name="always_active">1</property>
      <property name="sum">1</property>
    </transition>
    <transition id="transition9">
      <property name="a_track">1</property>
      <property name="b_track">5</property>
      <property name="version">0.9</property>
      <property name="mlt_service">frei0r.cairoblend</property>
      <property name="disable">0</property>
    </transition>
    <transition id="transition10">
      <property name="a_track">0</property>
      <property name="b_track">6</property>
      <property name="mlt_service">mix</property>
      <property name="always_active">1</property>
      <property name="sum">1</property>
    </transition>
    <transition id="transition11">
      <property name="a_track">1</property>
      <property name="b_track">6</property>
      <property name="version">0.9</property>
      <property name="mlt_service">frei0r.cairoblend</property>
      <property name="disable">0</property>
    </transition>
  </tractor>
</mlt>
