<?xml version="1.0" encoding="utf-8"?>
<mlt LC_NUMERIC="C" version="6.17.0" title="Shotcut version 19.08.05" producer="main_bin">
  <profile description="HD 1080p 25 fps" width="1920" height="1080" progressive="1" sample_aspect_num="1" sample_aspect_den="1" display_aspect_num="16" display_aspect_den="9" frame_rate_num="25" frame_rate_den="1" colorspace="709"/>
  <playlist id="main_bin">
    <property name="xml_retain">1</property>
  </playlist>
  <producer id="black" in="00:00:00.000" out="00:03:23.320">
    <property name="length">5084</property>
    <property name="eof">pause</property>
    <property name="resource">0</property>
    <property name="aspect_ratio">1</property>
    <property name="mlt_service">color</property>
    <property name="mlt_image_format">rgb24a</property>
    <property name="set.test_audio">0</property>
  </producer>
  <playlist id="background">
    <entry producer="black" in="00:00:00.000" out="00:03:23.320"/>
  </playlist>
  <producer id="producer1" title="Anonymous Submission" in="00:00:00.000" out="03:59:59.960">
    <property name="length">04:00:00:00</property>
    <property name="eof">pause</property>
    <property name="resource">#00000000</property>
    <property name="aspect_ratio">1</property>
    <property name="mlt_service">color</property>
    <property name="mlt_image_format">rgb24a</property>
    <property name="shotcut:caption">transparent</property>
    <property name="shotcut:detail">transparent</property>
    <property name="ignore_points">0</property>
    <property name="global_feed">1</property>
    <property name="xml">was here</property>
    <property name="seekable">1</property>
    <filter id="filter1" out="00:00:04.960">
      <property name="argument"></property>
      <property name="geometry">0 0 1920 1080 1</property>
      <property name="family">Verdana</property>
      <property name="size">1080</property>
      <property name="weight">500</property>
      <property name="style">normal</property>
      <property name="fgcolour">#ffffffff</property>
      <property name="bgcolour">#00000000</property>
      <property name="olcolour">#aa000000</property>
      <property name="pad">0</property>
      <property name="halign">center</property>
      <property name="valign">bottom</property>
      <property name="outline">3</property>
      <property name="mlt_service">dynamictext</property>
      <property name="shotcut:filter">dynamicText</property>
      <property name="shotcut:usePointSize">0</property>
      <property name="shotcut:animIn">00:00:00.000</property>
      <property name="shotcut:animOut">00:00:00.000</property>
    </filter>
  </producer>
  <producer id="producer2" title="Anonymous Submission" in="00:00:00.000" out="03:59:59.960">
    <property name="length">04:00:00:00</property>
    <property name="eof">pause</property>
    <property name="resource">#00000000</property>
    <property name="aspect_ratio">1</property>
    <property name="mlt_service">color</property>
    <property name="mlt_image_format">rgb24a</property>
    <property name="shotcut:caption">transparent</property>
    <property name="shotcut:detail">transparent</property>
    <property name="ignore_points">0</property>
    <property name="global_feed">1</property>
    <property name="xml">was here</property>
    <property name="seekable">1</property>
    <filter id="filter2" in="00:00:05.000" out="00:03:23.320">
      <property name="argument"></property>
      <property name="geometry">0 0 1920 1080 1</property>
      <property name="family">Verdana</property>
      <property name="size">1080</property>
      <property name="weight">500</property>
      <property name="style">normal</property>
      <property name="fgcolour">#ffffffff</property>
      <property name="bgcolour">#00000000</property>
      <property name="olcolour">#aa000000</property>
      <property name="pad">0</property>
      <property name="halign">center</property>
      <property name="valign">bottom</property>
      <property name="outline">3</property>
      <property name="mlt_service">dynamictext</property>
      <property name="shotcut:filter">dynamicText</property>
      <property name="shotcut:usePointSize">0</property>
      <property name="shotcut:animIn">00:00:00.000</property>
      <property name="shotcut:animOut">00:00:00.000</property>
    </filter>
  </producer>
  <playlist id="playlist1">
    <property name="shotcut:video">1</property>
    <property name="shotcut:name">Storyboard</property>
    <property name="shotcut:lock">1</property>
    <entry producer="producer1" in="00:00:00.000" out="00:00:04.960"/>
    <entry producer="producer2" in="00:00:05.000" out="00:03:23.320"/>
  </playlist>
  <producer id="producer3" title="Anonymous Submission" in="00:00:00.000" out="00:03:24.560">
    <property name="length">00:03:24:15</property>
    <property name="eof">pause</property>
    <property name="resource">C:/Users/Camille/OneDrive/Camille/003 - Bande son/Practice avec texte initial et son youtube.mp4</property>
    <property name="audio_index">1</property>
    <property name="video_index">0</property>
    <property name="mute_on_pause">0</property>
    <property name="mlt_service">avformat-novalidate</property>
    <property name="seekable">1</property>
    <property name="aspect_ratio">1</property>
    <property name="creation_time">2020-04-04T10:52:53</property>
    <property name="shotcut:hash">4799385e220417e9b67b0873b03fdf9a</property>
    <property name="ignore_points">0</property>
    <property name="shotcut:caption">Practice avec texte initial et son youtube.mp4</property>
    <property name="shotcut:skipConvert">1</property>
    <property name="global_feed">1</property>
    <property name="xml">was here</property>
  </producer>
  <playlist id="playlist2">
    <property name="shotcut:video">1</property>
    <property name="shotcut:name">Bande_son_practice</property>
    <property name="shotcut:lock">1</property>
    <blank length="00:00:15.000"/>
    <entry producer="producer3" in="00:00:18.960" out="00:03:24.560"/>
  </playlist>
  <producer id="producer4" title="Anonymous Submission" in="00:00:00.000" out="00:03:23.360">
    <property name="length">00:03:23:10</property>
    <property name="eof">pause</property>
    <property name="resource">C:/Users/Camille/OneDrive/Camille/006 - Videos format youtube/Clarinettes/Cecile_clarinette_totoro_recadre.mp4</property>
    <property name="audio_index">1</property>
    <property name="video_index">0</property>
    <property name="mute_on_pause">0</property>
    <property name="mlt_service">avformat-novalidate</property>
    <property name="seekable">1</property>
    <property name="aspect_ratio">1</property>
    <property name="creation_time">2020-04-20T12:31:07</property>
    <property name="shotcut:hash">fa0b3ca4ef9842045a4dd842a677be53</property>
    <property name="ignore_points">0</property>
    <property name="shotcut:caption">Cecile_clarinette_totoro_recadre.mp4</property>
    <property name="shotcut:skipConvert">1</property>
    <property name="global_feed">1</property>
    <property name="xml">was here</property>
    <filter id="filter3" in="00:00:04.720" out="00:00:29.720">
      <property name="background">colour:0</property>
      <property name="mlt_service">affine</property>
      <property name="shotcut:filter">affineSizePosition</property>
      <property name="transition.fill">1</property>
      <property name="transition.distort">0</property>
      <property name="transition.rect">0 0 1920 1080 1</property>
      <property name="transition.valign">top</property>
      <property name="transition.halign">left</property>
      <property name="shotcut:animIn">00:00:00.000</property>
      <property name="shotcut:animOut">00:00:00.000</property>
      <property name="transition.threads">0</property>
    </filter>
    <filter id="filter4" in="00:00:04.720" out="00:00:29.720">
      <property name="window">75</property>
      <property name="max_gain">20dB</property>
      <property name="mlt_service">volume</property>
      <property name="shotcut:filter">muteVolume</property>
      <property name="gain">0</property>
    </filter>
  </producer>
  <producer id="producer5" title="Anonymous Submission" in="00:00:00.000" out="00:03:23.360">
    <property name="length">00:03:23:10</property>
    <property name="eof">pause</property>
    <property name="resource">C:/Users/Camille/OneDrive/Camille/006 - Videos format youtube/Clarinettes/Cecile_clarinette_totoro_recadre.mp4</property>
    <property name="audio_index">1</property>
    <property name="video_index">0</property>
    <property name="mute_on_pause">0</property>
    <property name="mlt_service">avformat-novalidate</property>
    <property name="seekable">1</property>
    <property name="aspect_ratio">1</property>
    <property name="creation_time">2020-04-20T12:31:07</property>
    <property name="shotcut:hash">fa0b3ca4ef9842045a4dd842a677be53</property>
    <property name="ignore_points">0</property>
    <property name="shotcut:caption">Cecile_clarinette_totoro_recadre.mp4</property>
    <property name="shotcut:skipConvert">1</property>
    <property name="global_feed">1</property>
    <property name="xml">was here</property>
    <filter id="filter5" in="00:00:29.760" out="00:00:36.440">
      <property name="background">colour:0</property>
      <property name="mlt_service">affine</property>
      <property name="shotcut:filter">affineSizePosition</property>
      <property name="transition.fill">1</property>
      <property name="transition.distort">0</property>
      <property name="transition.rect">0 0 1920 1080 1</property>
      <property name="transition.valign">top</property>
      <property name="transition.halign">left</property>
      <property name="shotcut:animIn">00:00:00.000</property>
      <property name="shotcut:animOut">00:00:00.000</property>
      <property name="transition.threads">0</property>
    </filter>
    <filter id="filter6" in="00:00:29.760" out="00:00:36.440">
      <property name="window">75</property>
      <property name="max_gain">20dB</property>
      <property name="level">-11</property>
      <property name="mlt_service">volume</property>
    </filter>
  </producer>
  <producer id="producer6" title="Anonymous Submission" in="00:00:00.000" out="00:03:23.360">
    <property name="length">00:03:23:10</property>
    <property name="eof">pause</property>
    <property name="resource">C:/Users/Camille/OneDrive/Camille/006 - Videos format youtube/Clarinettes/Cecile_clarinette_totoro_recadre.mp4</property>
    <property name="audio_index">1</property>
    <property name="video_index">0</property>
    <property name="mute_on_pause">0</property>
    <property name="mlt_service">avformat-novalidate</property>
    <property name="seekable">1</property>
    <property name="aspect_ratio">1</property>
    <property name="creation_time">2020-04-20T12:31:07</property>
    <property name="shotcut:hash">fa0b3ca4ef9842045a4dd842a677be53</property>
    <property name="ignore_points">0</property>
    <property name="shotcut:caption">Cecile_clarinette_totoro_recadre.mp4</property>
    <property name="shotcut:skipConvert">1</property>
    <property name="global_feed">1</property>
    <property name="xml">was here</property>
    <filter id="filter7" in="00:00:36.480" out="00:00:40.320">
      <property name="background">colour:0</property>
      <property name="mlt_service">affine</property>
      <property name="shotcut:filter">affineSizePosition</property>
      <property name="transition.fill">1</property>
      <property name="transition.distort">0</property>
      <property name="transition.rect">0 0 1920 1080 1</property>
      <property name="transition.valign">top</property>
      <property name="transition.halign">left</property>
      <property name="shotcut:animIn">00:00:00.000</property>
      <property name="shotcut:animOut">00:00:00.000</property>
      <property name="transition.threads">0</property>
    </filter>
    <filter id="filter8" in="00:00:36.480" out="00:00:40.320">
      <property name="window">75</property>
      <property name="max_gain">20dB</property>
      <property name="mlt_service">volume</property>
      <property name="shotcut:filter">muteVolume</property>
      <property name="gain">0</property>
    </filter>
  </producer>
  <producer id="producer7" title="Anonymous Submission" in="00:00:00.000" out="00:03:23.360">
    <property name="length">00:03:23:10</property>
    <property name="eof">pause</property>
    <property name="resource">C:/Users/Camille/OneDrive/Camille/006 - Videos format youtube/Clarinettes/Cecile_clarinette_totoro_recadre.mp4</property>
    <property name="audio_index">1</property>
    <property name="video_index">0</property>
    <property name="mute_on_pause">0</property>
    <property name="mlt_service">avformat-novalidate</property>
    <property name="seekable">1</property>
    <property name="aspect_ratio">1</property>
    <property name="creation_time">2020-04-20T12:31:07</property>
    <property name="shotcut:hash">fa0b3ca4ef9842045a4dd842a677be53</property>
    <property name="ignore_points">0</property>
    <property name="shotcut:caption">Cecile_clarinette_totoro_recadre.mp4</property>
    <property name="shotcut:skipConvert">1</property>
    <property name="global_feed">1</property>
    <property name="xml">was here</property>
    <filter id="filter9" in="00:00:40.360" out="00:00:43.320">
      <property name="background">colour:0</property>
      <property name="mlt_service">affine</property>
      <property name="shotcut:filter">affineSizePosition</property>
      <property name="transition.fill">1</property>
      <property name="transition.distort">0</property>
      <property name="transition.rect">0 0 1920 1080 1</property>
      <property name="transition.valign">top</property>
      <property name="transition.halign">left</property>
      <property name="shotcut:animIn">00:00:00.000</property>
      <property name="shotcut:animOut">00:00:00.000</property>
      <property name="transition.threads">0</property>
    </filter>
    <filter id="filter10" in="00:00:40.360" out="00:00:43.320">
      <property name="window">75</property>
      <property name="max_gain">20dB</property>
      <property name="level">-8</property>
      <property name="mlt_service">volume</property>
    </filter>
  </producer>
  <producer id="producer8" title="Anonymous Submission" in="00:00:00.000" out="00:03:23.360">
    <property name="length">00:03:23:10</property>
    <property name="eof">pause</property>
    <property name="resource">C:/Users/Camille/OneDrive/Camille/006 - Videos format youtube/Clarinettes/Cecile_clarinette_totoro_recadre.mp4</property>
    <property name="audio_index">1</property>
    <property name="video_index">0</property>
    <property name="mute_on_pause">0</property>
    <property name="mlt_service">avformat-novalidate</property>
    <property name="seekable">1</property>
    <property name="aspect_ratio">1</property>
    <property name="creation_time">2020-04-20T12:31:07</property>
    <property name="shotcut:hash">fa0b3ca4ef9842045a4dd842a677be53</property>
    <property name="ignore_points">0</property>
    <property name="shotcut:caption">Cecile_clarinette_totoro_recadre.mp4</property>
    <property name="shotcut:skipConvert">1</property>
    <property name="global_feed">1</property>
    <property name="xml">was here</property>
    <filter id="filter11" in="00:00:43.360" out="00:00:47.120">
      <property name="background">colour:0</property>
      <property name="mlt_service">affine</property>
      <property name="shotcut:filter">affineSizePosition</property>
      <property name="transition.fill">1</property>
      <property name="transition.distort">0</property>
      <property name="transition.rect">0 0 1920 1080 1</property>
      <property name="transition.valign">top</property>
      <property name="transition.halign">left</property>
      <property name="shotcut:animIn">00:00:00.000</property>
      <property name="shotcut:animOut">00:00:00.000</property>
      <property name="transition.threads">0</property>
    </filter>
    <filter id="filter12" in="00:00:43.360" out="00:00:47.120">
      <property name="window">75</property>
      <property name="max_gain">20dB</property>
      <property name="mlt_service">volume</property>
      <property name="shotcut:filter">muteVolume</property>
      <property name="gain">0</property>
    </filter>
  </producer>
  <producer id="producer9" title="Anonymous Submission" in="00:00:00.000" out="00:03:23.360">
    <property name="length">00:03:23:10</property>
    <property name="eof">pause</property>
    <property name="resource">C:/Users/Camille/OneDrive/Camille/006 - Videos format youtube/Clarinettes/Cecile_clarinette_totoro_recadre.mp4</property>
    <property name="audio_index">1</property>
    <property name="video_index">0</property>
    <property name="mute_on_pause">0</property>
    <property name="mlt_service">avformat-novalidate</property>
    <property name="seekable">1</property>
    <property name="aspect_ratio">1</property>
    <property name="creation_time">2020-04-20T12:31:07</property>
    <property name="shotcut:hash">fa0b3ca4ef9842045a4dd842a677be53</property>
    <property name="ignore_points">0</property>
    <property name="shotcut:caption">Cecile_clarinette_totoro_recadre.mp4</property>
    <property name="shotcut:skipConvert">1</property>
    <property name="global_feed">1</property>
    <property name="xml">was here</property>
    <filter id="filter13" in="00:00:47.160" out="00:00:50.160">
      <property name="background">colour:0</property>
      <property name="mlt_service">affine</property>
      <property name="shotcut:filter">affineSizePosition</property>
      <property name="transition.fill">1</property>
      <property name="transition.distort">0</property>
      <property name="transition.rect">0 0 1920 1080 1</property>
      <property name="transition.valign">top</property>
      <property name="transition.halign">left</property>
      <property name="shotcut:animIn">00:00:00.000</property>
      <property name="shotcut:animOut">00:00:00.000</property>
      <property name="transition.threads">0</property>
    </filter>
    <filter id="filter14" in="00:00:47.160" out="00:00:50.160">
      <property name="window">75</property>
      <property name="max_gain">20dB</property>
      <property name="level">-8</property>
      <property name="mlt_service">volume</property>
    </filter>
  </producer>
  <producer id="producer10" title="Anonymous Submission" in="00:00:00.000" out="00:03:23.360">
    <property name="length">00:03:23:10</property>
    <property name="eof">pause</property>
    <property name="resource">C:/Users/Camille/OneDrive/Camille/006 - Videos format youtube/Clarinettes/Cecile_clarinette_totoro_recadre.mp4</property>
    <property name="audio_index">1</property>
    <property name="video_index">0</property>
    <property name="mute_on_pause">0</property>
    <property name="mlt_service">avformat-novalidate</property>
    <property name="seekable">1</property>
    <property name="aspect_ratio">1</property>
    <property name="creation_time">2020-04-20T12:31:07</property>
    <property name="shotcut:hash">fa0b3ca4ef9842045a4dd842a677be53</property>
    <property name="ignore_points">0</property>
    <property name="shotcut:caption">Cecile_clarinette_totoro_recadre.mp4</property>
    <property name="shotcut:skipConvert">1</property>
    <property name="global_feed">1</property>
    <property name="xml">was here</property>
    <filter id="filter15" in="00:00:50.200" out="00:00:54.080">
      <property name="background">colour:0</property>
      <property name="mlt_service">affine</property>
      <property name="shotcut:filter">affineSizePosition</property>
      <property name="transition.fill">1</property>
      <property name="transition.distort">0</property>
      <property name="transition.rect">0 0 1920 1080 1</property>
      <property name="transition.valign">top</property>
      <property name="transition.halign">left</property>
      <property name="shotcut:animIn">00:00:00.000</property>
      <property name="shotcut:animOut">00:00:00.000</property>
      <property name="transition.threads">0</property>
    </filter>
    <filter id="filter16" in="00:00:50.200" out="00:00:54.080">
      <property name="window">75</property>
      <property name="max_gain">20dB</property>
      <property name="mlt_service">volume</property>
      <property name="shotcut:filter">muteVolume</property>
      <property name="gain">0</property>
    </filter>
  </producer>
  <producer id="producer11" title="Anonymous Submission" in="00:00:00.000" out="00:03:23.360">
    <property name="length">00:03:23:10</property>
    <property name="eof">pause</property>
    <property name="resource">C:/Users/Camille/OneDrive/Camille/006 - Videos format youtube/Clarinettes/Cecile_clarinette_totoro_recadre.mp4</property>
    <property name="audio_index">1</property>
    <property name="video_index">0</property>
    <property name="mute_on_pause">0</property>
    <property name="mlt_service">avformat-novalidate</property>
    <property name="seekable">1</property>
    <property name="aspect_ratio">1</property>
    <property name="creation_time">2020-04-20T12:31:07</property>
    <property name="shotcut:hash">fa0b3ca4ef9842045a4dd842a677be53</property>
    <property name="ignore_points">0</property>
    <property name="shotcut:caption">Cecile_clarinette_totoro_recadre.mp4</property>
    <property name="shotcut:skipConvert">1</property>
    <property name="global_feed">1</property>
    <property name="xml">was here</property>
    <filter id="filter17" in="00:00:54.120" out="00:00:57.080">
      <property name="background">colour:0</property>
      <property name="mlt_service">affine</property>
      <property name="shotcut:filter">affineSizePosition</property>
      <property name="transition.fill">1</property>
      <property name="transition.distort">0</property>
      <property name="transition.rect">0 0 1920 1080 1</property>
      <property name="transition.valign">top</property>
      <property name="transition.halign">left</property>
      <property name="shotcut:animIn">00:00:00.000</property>
      <property name="shotcut:animOut">00:00:00.000</property>
      <property name="transition.threads">0</property>
    </filter>
  </producer>
  <producer id="producer12" title="Anonymous Submission" in="00:00:00.000" out="00:03:23.360">
    <property name="length">00:03:23:10</property>
    <property name="eof">pause</property>
    <property name="resource">C:/Users/Camille/OneDrive/Camille/006 - Videos format youtube/Clarinettes/Cecile_clarinette_totoro_recadre.mp4</property>
    <property name="audio_index">1</property>
    <property name="video_index">0</property>
    <property name="mute_on_pause">0</property>
    <property name="mlt_service">avformat-novalidate</property>
    <property name="seekable">1</property>
    <property name="aspect_ratio">1</property>
    <property name="creation_time">2020-04-20T12:31:07</property>
    <property name="shotcut:hash">fa0b3ca4ef9842045a4dd842a677be53</property>
    <property name="ignore_points">0</property>
    <property name="shotcut:caption">Cecile_clarinette_totoro_recadre.mp4</property>
    <property name="shotcut:skipConvert">1</property>
    <property name="global_feed">1</property>
    <property name="xml">was here</property>
    <filter id="filter18" in="00:00:57.120" out="00:01:00.920">
      <property name="background">colour:0</property>
      <property name="mlt_service">affine</property>
      <property name="shotcut:filter">affineSizePosition</property>
      <property name="transition.fill">1</property>
      <property name="transition.distort">0</property>
      <property name="transition.rect">0 0 1920 1080 1</property>
      <property name="transition.valign">top</property>
      <property name="transition.halign">left</property>
      <property name="shotcut:animIn">00:00:00.000</property>
      <property name="shotcut:animOut">00:00:00.000</property>
      <property name="transition.threads">0</property>
    </filter>
    <filter id="filter19" in="00:00:57.120" out="00:01:00.920">
      <property name="window">75</property>
      <property name="max_gain">20dB</property>
      <property name="mlt_service">volume</property>
      <property name="shotcut:filter">muteVolume</property>
      <property name="gain">0</property>
    </filter>
  </producer>
  <producer id="producer13" title="Anonymous Submission" in="00:00:00.000" out="00:03:23.360">
    <property name="length">00:03:23:10</property>
    <property name="eof">pause</property>
    <property name="resource">C:/Users/Camille/OneDrive/Camille/006 - Videos format youtube/Clarinettes/Cecile_clarinette_totoro_recadre.mp4</property>
    <property name="audio_index">1</property>
    <property name="video_index">0</property>
    <property name="mute_on_pause">0</property>
    <property name="mlt_service">avformat-novalidate</property>
    <property name="seekable">1</property>
    <property name="aspect_ratio">1</property>
    <property name="creation_time">2020-04-20T12:31:07</property>
    <property name="shotcut:hash">fa0b3ca4ef9842045a4dd842a677be53</property>
    <property name="ignore_points">0</property>
    <property name="shotcut:caption">Cecile_clarinette_totoro_recadre.mp4</property>
    <property name="shotcut:skipConvert">1</property>
    <property name="global_feed">1</property>
    <property name="xml">was here</property>
    <filter id="filter20" in="00:01:00.960" out="00:01:12.000">
      <property name="background">colour:0</property>
      <property name="mlt_service">affine</property>
      <property name="shotcut:filter">affineSizePosition</property>
      <property name="transition.fill">1</property>
      <property name="transition.distort">0</property>
      <property name="transition.rect">0 0 1920 1080 1</property>
      <property name="transition.valign">top</property>
      <property name="transition.halign">left</property>
      <property name="shotcut:animIn">00:00:00.000</property>
      <property name="shotcut:animOut">00:00:00.000</property>
      <property name="transition.threads">0</property>
    </filter>
    <filter id="filter21" in="00:01:00.960" out="00:01:12.000">
      <property name="window">75</property>
      <property name="max_gain">20dB</property>
      <property name="mlt_service">volume</property>
      <property name="shotcut:filter">muteVolume</property>
      <property name="gain">0</property>
    </filter>
  </producer>
  <producer id="producer14" title="Anonymous Submission" in="00:00:00.000" out="00:03:23.360">
    <property name="length">00:03:23:10</property>
    <property name="eof">pause</property>
    <property name="resource">C:/Users/Camille/OneDrive/Camille/006 - Videos format youtube/Clarinettes/Cecile_clarinette_totoro_recadre.mp4</property>
    <property name="audio_index">1</property>
    <property name="video_index">0</property>
    <property name="mute_on_pause">0</property>
    <property name="mlt_service">avformat-novalidate</property>
    <property name="seekable">1</property>
    <property name="aspect_ratio">1</property>
    <property name="creation_time">2020-04-20T12:31:07</property>
    <property name="shotcut:hash">fa0b3ca4ef9842045a4dd842a677be53</property>
    <property name="ignore_points">0</property>
    <property name="shotcut:caption">Cecile_clarinette_totoro_recadre.mp4</property>
    <property name="shotcut:skipConvert">1</property>
    <property name="global_feed">1</property>
    <property name="xml">was here</property>
    <filter id="filter22" in="00:01:12.040" out="00:01:18.120">
      <property name="background">colour:0</property>
      <property name="mlt_service">affine</property>
      <property name="shotcut:filter">affineSizePosition</property>
      <property name="transition.fill">1</property>
      <property name="transition.distort">0</property>
      <property name="transition.rect">0 0 1920 1080 1</property>
      <property name="transition.valign">top</property>
      <property name="transition.halign">left</property>
      <property name="shotcut:animIn">00:00:00.000</property>
      <property name="shotcut:animOut">00:00:00.000</property>
      <property name="transition.threads">0</property>
    </filter>
    <filter id="filter23" in="00:01:12.040" out="00:01:18.120">
      <property name="window">75</property>
      <property name="max_gain">20dB</property>
      <property name="level">-10</property>
      <property name="mlt_service">volume</property>
    </filter>
  </producer>
  <producer id="producer15" title="Anonymous Submission" in="00:00:00.000" out="00:03:23.360">
    <property name="length">00:03:23:10</property>
    <property name="eof">pause</property>
    <property name="resource">C:/Users/Camille/OneDrive/Camille/006 - Videos format youtube/Clarinettes/Cecile_clarinette_totoro_recadre.mp4</property>
    <property name="audio_index">1</property>
    <property name="video_index">0</property>
    <property name="mute_on_pause">0</property>
    <property name="mlt_service">avformat-novalidate</property>
    <property name="seekable">1</property>
    <property name="aspect_ratio">1</property>
    <property name="creation_time">2020-04-20T12:31:07</property>
    <property name="shotcut:hash">fa0b3ca4ef9842045a4dd842a677be53</property>
    <property name="ignore_points">0</property>
    <property name="shotcut:caption">Cecile_clarinette_totoro_recadre.mp4</property>
    <property name="shotcut:skipConvert">1</property>
    <property name="global_feed">1</property>
    <property name="xml">was here</property>
    <filter id="filter24" in="00:01:18.160" out="00:01:44.880">
      <property name="background">colour:0</property>
      <property name="mlt_service">affine</property>
      <property name="shotcut:filter">affineSizePosition</property>
      <property name="transition.fill">1</property>
      <property name="transition.distort">0</property>
      <property name="transition.rect">0 0 1920 1080 1</property>
      <property name="transition.valign">top</property>
      <property name="transition.halign">left</property>
      <property name="shotcut:animIn">00:00:00.000</property>
      <property name="shotcut:animOut">00:00:00.000</property>
      <property name="transition.threads">0</property>
    </filter>
  </producer>
  <producer id="producer16" title="Anonymous Submission" in="00:00:00.000" out="00:03:23.360">
    <property name="length">00:03:23:10</property>
    <property name="eof">pause</property>
    <property name="resource">C:/Users/Camille/OneDrive/Camille/006 - Videos format youtube/Clarinettes/Cecile_clarinette_totoro_recadre.mp4</property>
    <property name="audio_index">1</property>
    <property name="video_index">0</property>
    <property name="mute_on_pause">0</property>
    <property name="mlt_service">avformat-novalidate</property>
    <property name="seekable">1</property>
    <property name="aspect_ratio">1</property>
    <property name="creation_time">2020-04-20T12:31:07</property>
    <property name="shotcut:hash">fa0b3ca4ef9842045a4dd842a677be53</property>
    <property name="ignore_points">0</property>
    <property name="shotcut:caption">Cecile_clarinette_totoro_recadre.mp4</property>
    <property name="shotcut:skipConvert">1</property>
    <property name="global_feed">1</property>
    <property name="xml">was here</property>
    <filter id="filter25" in="00:01:44.920" out="00:01:54.920">
      <property name="background">colour:0</property>
      <property name="mlt_service">affine</property>
      <property name="shotcut:filter">affineSizePosition</property>
      <property name="transition.fill">1</property>
      <property name="transition.distort">0</property>
      <property name="transition.rect">0 0 1920 1080 1</property>
      <property name="transition.valign">top</property>
      <property name="transition.halign">left</property>
      <property name="shotcut:animIn">00:00:00.000</property>
      <property name="shotcut:animOut">00:00:00.000</property>
      <property name="transition.threads">0</property>
    </filter>
    <filter id="filter26" in="00:01:44.920" out="00:01:54.920">
      <property name="window">75</property>
      <property name="max_gain">20dB</property>
      <property name="mlt_service">volume</property>
      <property name="shotcut:filter">muteVolume</property>
      <property name="gain">0</property>
    </filter>
  </producer>
  <producer id="producer17" title="Anonymous Submission" in="00:00:00.000" out="00:03:23.360">
    <property name="length">00:03:23:10</property>
    <property name="eof">pause</property>
    <property name="resource">C:/Users/Camille/OneDrive/Camille/006 - Videos format youtube/Clarinettes/Cecile_clarinette_totoro_recadre.mp4</property>
    <property name="audio_index">1</property>
    <property name="video_index">0</property>
    <property name="mute_on_pause">0</property>
    <property name="mlt_service">avformat-novalidate</property>
    <property name="seekable">1</property>
    <property name="aspect_ratio">1</property>
    <property name="creation_time">2020-04-20T12:31:07</property>
    <property name="shotcut:hash">fa0b3ca4ef9842045a4dd842a677be53</property>
    <property name="ignore_points">0</property>
    <property name="shotcut:caption">Cecile_clarinette_totoro_recadre.mp4</property>
    <property name="shotcut:skipConvert">1</property>
    <property name="global_feed">1</property>
    <property name="xml">was here</property>
    <filter id="filter27" in="00:01:54.960" out="00:02:16.320">
      <property name="background">colour:0</property>
      <property name="mlt_service">affine</property>
      <property name="shotcut:filter">affineSizePosition</property>
      <property name="transition.fill">1</property>
      <property name="transition.distort">0</property>
      <property name="transition.rect">0 0 1920 1080 1</property>
      <property name="transition.valign">top</property>
      <property name="transition.halign">left</property>
      <property name="shotcut:animIn">00:00:00.000</property>
      <property name="shotcut:animOut">00:00:00.000</property>
      <property name="transition.threads">0</property>
    </filter>
  </producer>
  <producer id="producer18" title="Anonymous Submission" in="00:00:00.000" out="00:03:23.360">
    <property name="length">00:03:23:10</property>
    <property name="eof">pause</property>
    <property name="resource">C:/Users/Camille/OneDrive/Camille/006 - Videos format youtube/Clarinettes/Cecile_clarinette_totoro_recadre.mp4</property>
    <property name="audio_index">1</property>
    <property name="video_index">0</property>
    <property name="mute_on_pause">0</property>
    <property name="mlt_service">avformat-novalidate</property>
    <property name="seekable">1</property>
    <property name="aspect_ratio">1</property>
    <property name="creation_time">2020-04-20T12:31:07</property>
    <property name="shotcut:hash">fa0b3ca4ef9842045a4dd842a677be53</property>
    <property name="ignore_points">0</property>
    <property name="shotcut:caption">Cecile_clarinette_totoro_recadre.mp4</property>
    <property name="shotcut:skipConvert">1</property>
    <property name="global_feed">1</property>
    <property name="xml">was here</property>
    <filter id="filter28" in="00:02:16.360" out="00:02:33.640">
      <property name="background">colour:0</property>
      <property name="mlt_service">affine</property>
      <property name="shotcut:filter">affineSizePosition</property>
      <property name="transition.fill">1</property>
      <property name="transition.distort">0</property>
      <property name="transition.rect">0 0 1920 1080 1</property>
      <property name="transition.valign">top</property>
      <property name="transition.halign">left</property>
      <property name="shotcut:animIn">00:00:00.000</property>
      <property name="shotcut:animOut">00:00:00.000</property>
      <property name="transition.threads">0</property>
    </filter>
    <filter id="filter29" in="00:02:16.360" out="00:02:33.640">
      <property name="window">75</property>
      <property name="max_gain">20dB</property>
      <property name="level">-5</property>
      <property name="mlt_service">volume</property>
    </filter>
  </producer>
  <producer id="producer19" title="Anonymous Submission" in="00:00:00.000" out="00:03:23.360">
    <property name="length">00:03:23:10</property>
    <property name="eof">pause</property>
    <property name="resource">C:/Users/Camille/OneDrive/Camille/006 - Videos format youtube/Clarinettes/Cecile_clarinette_totoro_recadre.mp4</property>
    <property name="audio_index">1</property>
    <property name="video_index">0</property>
    <property name="mute_on_pause">0</property>
    <property name="mlt_service">avformat-novalidate</property>
    <property name="seekable">1</property>
    <property name="aspect_ratio">1</property>
    <property name="creation_time">2020-04-20T12:31:07</property>
    <property name="shotcut:hash">fa0b3ca4ef9842045a4dd842a677be53</property>
    <property name="ignore_points">0</property>
    <property name="shotcut:caption">Cecile_clarinette_totoro_recadre.mp4</property>
    <property name="shotcut:skipConvert">1</property>
    <property name="global_feed">1</property>
    <property name="xml">was here</property>
    <filter id="filter30" in="00:02:33.680" out="00:02:46.920">
      <property name="background">colour:0</property>
      <property name="mlt_service">affine</property>
      <property name="shotcut:filter">affineSizePosition</property>
      <property name="transition.fill">1</property>
      <property name="transition.distort">0</property>
      <property name="transition.rect">0 0 1920 1080 1</property>
      <property name="transition.valign">top</property>
      <property name="transition.halign">left</property>
      <property name="shotcut:animIn">00:00:00.000</property>
      <property name="shotcut:animOut">00:00:00.000</property>
      <property name="transition.threads">0</property>
    </filter>
    <filter id="filter31" in="00:02:33.680" out="00:02:46.920">
      <property name="window">75</property>
      <property name="max_gain">20dB</property>
      <property name="level">-5</property>
      <property name="mlt_service">volume</property>
    </filter>
  </producer>
  <producer id="producer20" title="Anonymous Submission" in="00:00:00.000" out="00:03:23.360">
    <property name="length">00:03:23:10</property>
    <property name="eof">pause</property>
    <property name="resource">C:/Users/Camille/OneDrive/Camille/006 - Videos format youtube/Clarinettes/Cecile_clarinette_totoro_recadre.mp4</property>
    <property name="audio_index">1</property>
    <property name="video_index">0</property>
    <property name="mute_on_pause">0</property>
    <property name="mlt_service">avformat-novalidate</property>
    <property name="seekable">1</property>
    <property name="aspect_ratio">1</property>
    <property name="creation_time">2020-04-20T12:31:07</property>
    <property name="shotcut:hash">fa0b3ca4ef9842045a4dd842a677be53</property>
    <property name="ignore_points">0</property>
    <property name="shotcut:caption">Cecile_clarinette_totoro_recadre.mp4</property>
    <property name="shotcut:skipConvert">1</property>
    <property name="global_feed">1</property>
    <property name="xml">was here</property>
    <filter id="filter32" in="00:02:46.960" out="00:02:49.600">
      <property name="background">colour:0</property>
      <property name="mlt_service">affine</property>
      <property name="shotcut:filter">affineSizePosition</property>
      <property name="transition.fill">1</property>
      <property name="transition.distort">0</property>
      <property name="transition.rect">0 0 1920 1080 1</property>
      <property name="transition.valign">top</property>
      <property name="transition.halign">left</property>
      <property name="shotcut:animIn">00:00:00.000</property>
      <property name="shotcut:animOut">00:00:00.000</property>
      <property name="transition.threads">0</property>
    </filter>
    <filter id="filter33" in="00:02:46.960" out="00:02:49.600">
      <property name="window">75</property>
      <property name="max_gain">20dB</property>
      <property name="mlt_service">volume</property>
      <property name="shotcut:filter">muteVolume</property>
      <property name="gain">0</property>
    </filter>
  </producer>
  <producer id="producer21" title="Anonymous Submission" in="00:00:00.000" out="00:03:23.360">
    <property name="length">00:03:23:10</property>
    <property name="eof">pause</property>
    <property name="resource">C:/Users/Camille/OneDrive/Camille/006 - Videos format youtube/Clarinettes/Cecile_clarinette_totoro_recadre.mp4</property>
    <property name="audio_index">1</property>
    <property name="video_index">0</property>
    <property name="mute_on_pause">0</property>
    <property name="mlt_service">avformat-novalidate</property>
    <property name="seekable">1</property>
    <property name="aspect_ratio">1</property>
    <property name="creation_time">2020-04-20T12:31:07</property>
    <property name="shotcut:hash">fa0b3ca4ef9842045a4dd842a677be53</property>
    <property name="ignore_points">0</property>
    <property name="shotcut:caption">Cecile_clarinette_totoro_recadre.mp4</property>
    <property name="shotcut:skipConvert">1</property>
    <property name="global_feed">1</property>
    <property name="xml">was here</property>
    <filter id="filter34" in="00:02:49.640" out="00:03:10.720">
      <property name="background">colour:0</property>
      <property name="mlt_service">affine</property>
      <property name="shotcut:filter">affineSizePosition</property>
      <property name="transition.fill">1</property>
      <property name="transition.distort">0</property>
      <property name="transition.rect">0 0 1920 1080 1</property>
      <property name="transition.valign">top</property>
      <property name="transition.halign">left</property>
      <property name="shotcut:animIn">00:00:00.000</property>
      <property name="shotcut:animOut">00:00:00.000</property>
      <property name="transition.threads">0</property>
    </filter>
  </producer>
  <producer id="producer22" title="Anonymous Submission" in="00:00:00.000" out="00:03:23.360">
    <property name="length">00:03:23:10</property>
    <property name="eof">pause</property>
    <property name="resource">C:/Users/Camille/OneDrive/Camille/006 - Videos format youtube/Clarinettes/Cecile_clarinette_totoro_recadre.mp4</property>
    <property name="audio_index">1</property>
    <property name="video_index">0</property>
    <property name="mute_on_pause">0</property>
    <property name="mlt_service">avformat-novalidate</property>
    <property name="seekable">1</property>
    <property name="aspect_ratio">1</property>
    <property name="creation_time">2020-04-20T12:31:07</property>
    <property name="shotcut:hash">fa0b3ca4ef9842045a4dd842a677be53</property>
    <property name="ignore_points">0</property>
    <property name="shotcut:caption">Cecile_clarinette_totoro_recadre.mp4</property>
    <property name="shotcut:skipConvert">1</property>
    <property name="global_feed">1</property>
    <property name="xml">was here</property>
    <filter id="filter35" in="00:03:10.760" out="00:03:13.240">
      <property name="background">colour:0</property>
      <property name="mlt_service">affine</property>
      <property name="shotcut:filter">affineSizePosition</property>
      <property name="transition.fill">1</property>
      <property name="transition.distort">0</property>
      <property name="transition.rect">0 0 1920 1080 1</property>
      <property name="transition.valign">top</property>
      <property name="transition.halign">left</property>
      <property name="shotcut:animIn">00:00:00.000</property>
      <property name="shotcut:animOut">00:00:00.000</property>
      <property name="transition.threads">0</property>
    </filter>
    <filter id="filter36" in="00:03:10.760" out="00:03:13.240">
      <property name="window">75</property>
      <property name="max_gain">20dB</property>
      <property name="mlt_service">volume</property>
      <property name="shotcut:filter">muteVolume</property>
      <property name="gain">0</property>
    </filter>
  </producer>
  <producer id="producer23" title="Anonymous Submission" in="00:00:00.000" out="00:03:23.360">
    <property name="length">00:03:23:10</property>
    <property name="eof">pause</property>
    <property name="resource">C:/Users/Camille/OneDrive/Camille/006 - Videos format youtube/Clarinettes/Cecile_clarinette_totoro_recadre.mp4</property>
    <property name="audio_index">1</property>
    <property name="video_index">0</property>
    <property name="mute_on_pause">0</property>
    <property name="mlt_service">avformat-novalidate</property>
    <property name="seekable">1</property>
    <property name="aspect_ratio">1</property>
    <property name="creation_time">2020-04-20T12:31:07</property>
    <property name="shotcut:hash">fa0b3ca4ef9842045a4dd842a677be53</property>
    <property name="ignore_points">0</property>
    <property name="shotcut:caption">Cecile_clarinette_totoro_recadre.mp4</property>
    <property name="shotcut:skipConvert">1</property>
    <property name="global_feed">1</property>
    <property name="xml">was here</property>
    <filter id="filter37" in="00:03:13.280" out="00:03:14.480">
      <property name="background">colour:0</property>
      <property name="mlt_service">affine</property>
      <property name="shotcut:filter">affineSizePosition</property>
      <property name="transition.fill">1</property>
      <property name="transition.distort">0</property>
      <property name="transition.rect">0 0 1920 1080 1</property>
      <property name="transition.valign">top</property>
      <property name="transition.halign">left</property>
      <property name="shotcut:animIn">00:00:00.000</property>
      <property name="shotcut:animOut">00:00:00.000</property>
      <property name="transition.threads">0</property>
    </filter>
  </producer>
  <producer id="producer24" title="Anonymous Submission" in="00:00:00.000" out="00:03:23.360">
    <property name="length">00:03:23:10</property>
    <property name="eof">pause</property>
    <property name="resource">C:/Users/Camille/OneDrive/Camille/006 - Videos format youtube/Clarinettes/Cecile_clarinette_totoro_recadre.mp4</property>
    <property name="audio_index">1</property>
    <property name="video_index">0</property>
    <property name="mute_on_pause">0</property>
    <property name="mlt_service">avformat-novalidate</property>
    <property name="seekable">1</property>
    <property name="aspect_ratio">1</property>
    <property name="creation_time">2020-04-20T12:31:07</property>
    <property name="shotcut:hash">fa0b3ca4ef9842045a4dd842a677be53</property>
    <property name="ignore_points">0</property>
    <property name="shotcut:caption">Cecile_clarinette_totoro_recadre.mp4</property>
    <property name="shotcut:skipConvert">1</property>
    <property name="global_feed">1</property>
    <property name="xml">was here</property>
    <filter id="filter38" in="00:03:14.520" out="00:03:23.360">
      <property name="background">colour:0</property>
      <property name="mlt_service">affine</property>
      <property name="shotcut:filter">affineSizePosition</property>
      <property name="transition.fill">1</property>
      <property name="transition.distort">0</property>
      <property name="transition.rect">0 0 1920 1080 1</property>
      <property name="transition.valign">top</property>
      <property name="transition.halign">left</property>
      <property name="shotcut:animIn">00:00:00.000</property>
      <property name="shotcut:animOut">00:00:00.000</property>
      <property name="transition.threads">0</property>
    </filter>
    <filter id="filter39" in="00:03:14.520" out="00:03:23.360">
      <property name="window">75</property>
      <property name="max_gain">20dB</property>
      <property name="mlt_service">volume</property>
      <property name="shotcut:filter">muteVolume</property>
      <property name="gain">0</property>
    </filter>
  </producer>
  <playlist id="playlist3">
    <property name="shotcut:video">1</property>
    <property name="shotcut:name">Cecile clar bass</property>
    <property name="shotcut:lock">1</property>
    <blank length="00:00:04.680"/>
    <entry producer="producer4" in="00:00:04.720" out="00:00:29.720"/>
    <entry producer="producer5" in="00:00:29.760" out="00:00:36.440"/>
    <entry producer="producer6" in="00:00:36.480" out="00:00:40.320"/>
    <entry producer="producer7" in="00:00:40.360" out="00:00:43.320"/>
    <entry producer="producer8" in="00:00:43.360" out="00:00:47.120"/>
    <entry producer="producer9" in="00:00:47.160" out="00:00:50.160"/>
    <entry producer="producer10" in="00:00:50.200" out="00:00:54.080"/>
    <entry producer="producer11" in="00:00:54.120" out="00:00:57.080"/>
    <entry producer="producer12" in="00:00:57.120" out="00:01:00.920"/>
    <entry producer="producer13" in="00:01:00.960" out="00:01:12.000"/>
    <entry producer="producer14" in="00:01:12.040" out="00:01:18.120"/>
    <entry producer="producer15" in="00:01:18.160" out="00:01:44.880"/>
    <entry producer="producer16" in="00:01:44.920" out="00:01:54.920"/>
    <entry producer="producer17" in="00:01:54.960" out="00:02:16.320"/>
    <entry producer="producer18" in="00:02:16.360" out="00:02:33.640"/>
    <entry producer="producer19" in="00:02:33.680" out="00:02:46.920"/>
    <entry producer="producer20" in="00:02:46.960" out="00:02:49.600"/>
    <entry producer="producer21" in="00:02:49.640" out="00:03:10.720"/>
    <entry producer="producer22" in="00:03:10.760" out="00:03:13.240"/>
    <entry producer="producer23" in="00:03:13.280" out="00:03:14.480"/>
    <entry producer="producer24" in="00:03:14.520" out="00:03:23.360"/>
    <filter id="filter40" out="00:03:23.320">
      <property name="window">75</property>
      <property name="max_gain">20dB</property>
      <property name="level">-8</property>
      <property name="mlt_service">volume</property>
    </filter>
  </playlist>
  <producer id="producer25" title="Anonymous Submission" in="00:00:00.000" out="00:03:22.160">
    <property name="length">00:03:22:05</property>
    <property name="eof">pause</property>
    <property name="resource">C:/Users/Camille/OneDrive/Camille/006 - Videos format youtube/Clarinettes/Amélie_clarinette_recadre.mp4</property>
    <property name="audio_index">1</property>
    <property name="video_index">0</property>
    <property name="mute_on_pause">0</property>
    <property name="mlt_service">avformat-novalidate</property>
    <property name="seekable">1</property>
    <property name="aspect_ratio">1</property>
    <property name="shotcut:hash">76dbe6d6a34f9982b0d3bc9056faad5e</property>
    <property name="ignore_points">0</property>
    <property name="shotcut:caption">Amélie_clarinette_recadre.mp4</property>
    <property name="shotcut:skipConvert">1</property>
    <property name="global_feed">1</property>
    <property name="xml">was here</property>
    <filter id="filter41" out="00:03:22.160">
      <property name="background">colour:0</property>
      <property name="mlt_service">affine</property>
      <property name="shotcut:filter">affineSizePosition</property>
      <property name="transition.fill">1</property>
      <property name="transition.distort">0</property>
      <property name="transition.rect">0 0 1920 1080 1</property>
      <property name="transition.valign">top</property>
      <property name="transition.halign">left</property>
      <property name="shotcut:animIn">00:00:00.000</property>
      <property name="shotcut:animOut">00:00:00.000</property>
      <property name="transition.threads">0</property>
    </filter>
  </producer>
  <playlist id="playlist4">
    <property name="shotcut:video">1</property>
    <property name="shotcut:name">Clarinette_amelie_recadree</property>
    <property name="shotcut:lock">1</property>
    <entry producer="producer25" in="00:00:00.000" out="00:03:22.160"/>
    <filter id="filter42" out="00:03:23.320">
      <property name="window">75</property>
      <property name="max_gain">20dB</property>
      <property name="level">-8</property>
      <property name="mlt_service">volume</property>
    </filter>
  </playlist>
  <producer id="producer32" title="Anonymous Submission" in="00:00:00.000" out="00:03:27.800">
    <property name="length">00:03:27:21</property>
    <property name="eof">pause</property>
    <property name="resource">C:/Users/Camille/OneDrive/Camille/006 - Videos format youtube/Clarinettes/Nelly_clarinette_totoro.mp4</property>
    <property name="audio_index">1</property>
    <property name="video_index">0</property>
    <property name="mute_on_pause">0</property>
    <property name="mlt_service">avformat-novalidate</property>
    <property name="seekable">1</property>
    <property name="aspect_ratio">1</property>
    <property name="creation_time">2020-04-05T13:37:57</property>
    <property name="shotcut:hash">ce64ff05cbaafa4ab64d61c9e57002dd</property>
    <property name="ignore_points">0</property>
    <property name="shotcut:caption">Nelly_clarinette_totoro.mp4</property>
    <property name="shotcut:skipConvert">1</property>
    <property name="global_feed">1</property>
    <property name="xml">was here</property>
    <filter id="filter46" in="00:00:15.440" out="00:01:49.560">
      <property name="background">colour:0</property>
      <property name="mlt_service">affine</property>
      <property name="shotcut:filter">affineSizePosition</property>
      <property name="transition.fill">1</property>
      <property name="transition.distort">0</property>
      <property name="transition.rect">0 0 524 294 1</property>
      <property name="transition.valign">top</property>
      <property name="transition.halign">left</property>
      <property name="shotcut:animIn">00:00:00.000</property>
      <property name="shotcut:animOut">00:00:00.000</property>
      <property name="transition.threads">0</property>
    </filter>
    <filter id="filter47" in="00:00:15.440" out="00:01:49.560">
      <property name="window">75</property>
      <property name="max_gain">20dB</property>
      <property name="level">0</property>
      <property name="mlt_service">volume</property>
      <property name="disable">1</property>
    </filter>
  </producer>
  <producer id="producer26" title="Anonymous Submission" in="00:00:00.000" out="00:03:27.800">
    <property name="length">00:03:27:21</property>
    <property name="eof">pause</property>
    <property name="resource">C:/Users/Camille/OneDrive/Camille/006 - Videos format youtube/Clarinettes/Nelly_clarinette_totoro.mp4</property>
    <property name="audio_index">1</property>
    <property name="video_index">0</property>
    <property name="mute_on_pause">0</property>
    <property name="mlt_service">avformat-novalidate</property>
    <property name="seekable">1</property>
    <property name="aspect_ratio">1</property>
    <property name="creation_time">2020-04-05T13:37:57</property>
    <property name="shotcut:hash">ce64ff05cbaafa4ab64d61c9e57002dd</property>
    <property name="ignore_points">0</property>
    <property name="shotcut:caption">Nelly_clarinette_totoro.mp4</property>
    <property name="shotcut:skipConvert">1</property>
    <property name="global_feed">1</property>
    <property name="xml">was here</property>
    <filter id="filter43" in="00:01:49.600" out="00:02:04.400">
      <property name="background">colour:0</property>
      <property name="mlt_service">affine</property>
      <property name="shotcut:filter">affineSizePosition</property>
      <property name="transition.fill">1</property>
      <property name="transition.distort">0</property>
      <property name="transition.rect">0 0 524 294 1</property>
      <property name="transition.valign">top</property>
      <property name="transition.halign">left</property>
      <property name="shotcut:animIn">00:00:00.000</property>
      <property name="shotcut:animOut">00:00:00.000</property>
      <property name="transition.threads">0</property>
    </filter>
    <filter id="filter44" in="00:01:49.600" out="00:02:04.400">
      <property name="window">75</property>
      <property name="max_gain">20dB</property>
      <property name="level">-12</property>
      <property name="mlt_service">volume</property>
    </filter>
    <filter id="filter45" in="00:01:49.600" out="00:02:04.400">
      <property name="window">75</property>
      <property name="max_gain">20dB</property>
      <property name="mlt_service">volume</property>
      <property name="shotcut:filter">muteVolume</property>
      <property name="gain">0</property>
    </filter>
  </producer>
  <producer id="producer27" title="Anonymous Submission" in="00:00:00.000" out="00:03:27.800">
    <property name="length">00:03:27:21</property>
    <property name="eof">pause</property>
    <property name="resource">C:/Users/Camille/OneDrive/Camille/006 - Videos format youtube/Clarinettes/Nelly_clarinette_totoro.mp4</property>
    <property name="audio_index">1</property>
    <property name="video_index">0</property>
    <property name="mute_on_pause">0</property>
    <property name="mlt_service">avformat-novalidate</property>
    <property name="seekable">1</property>
    <property name="aspect_ratio">1</property>
    <property name="creation_time">2020-04-05T13:37:57</property>
    <property name="shotcut:hash">ce64ff05cbaafa4ab64d61c9e57002dd</property>
    <property name="ignore_points">0</property>
    <property name="shotcut:caption">Nelly_clarinette_totoro.mp4</property>
    <property name="shotcut:skipConvert">1</property>
    <property name="global_feed">1</property>
    <property name="xml">was here</property>
    <filter id="filter48" in="00:02:04.440" out="00:03:12.560">
      <property name="background">colour:0</property>
      <property name="mlt_service">affine</property>
      <property name="shotcut:filter">affineSizePosition</property>
      <property name="transition.fill">1</property>
      <property name="transition.distort">0</property>
      <property name="transition.rect">0 0 524 294 1</property>
      <property name="transition.valign">top</property>
      <property name="transition.halign">left</property>
      <property name="shotcut:animIn">00:00:00.000</property>
      <property name="shotcut:animOut">00:00:00.000</property>
      <property name="transition.threads">0</property>
    </filter>
    <filter id="filter49" in="00:02:04.440" out="00:03:12.560">
      <property name="window">75</property>
      <property name="max_gain">20dB</property>
      <property name="level">0</property>
      <property name="mlt_service">volume</property>
      <property name="disable">1</property>
    </filter>
  </producer>
  <producer id="producer28" title="Anonymous Submission" in="00:00:00.000" out="00:03:27.800">
    <property name="length">00:03:27:21</property>
    <property name="eof">pause</property>
    <property name="resource">C:/Users/Camille/OneDrive/Camille/006 - Videos format youtube/Clarinettes/Nelly_clarinette_totoro.mp4</property>
    <property name="audio_index">1</property>
    <property name="video_index">0</property>
    <property name="mute_on_pause">0</property>
    <property name="mlt_service">avformat-novalidate</property>
    <property name="seekable">1</property>
    <property name="aspect_ratio">1</property>
    <property name="creation_time">2020-04-05T13:37:57</property>
    <property name="shotcut:hash">ce64ff05cbaafa4ab64d61c9e57002dd</property>
    <property name="ignore_points">0</property>
    <property name="shotcut:caption">Nelly_clarinette_totoro.mp4</property>
    <property name="shotcut:skipConvert">1</property>
    <property name="global_feed">1</property>
    <property name="xml">was here</property>
    <filter id="filter50" in="00:03:12.600" out="00:03:27.800">
      <property name="background">colour:0</property>
      <property name="mlt_service">affine</property>
      <property name="shotcut:filter">affineSizePosition</property>
      <property name="transition.fill">1</property>
      <property name="transition.distort">0</property>
      <property name="transition.rect">0 0 524 294 1</property>
      <property name="transition.valign">top</property>
      <property name="transition.halign">left</property>
      <property name="shotcut:animIn">00:00:00.000</property>
      <property name="shotcut:animOut">00:00:00.000</property>
      <property name="transition.threads">0</property>
    </filter>
    <filter id="filter51" in="00:03:12.600" out="00:03:27.800">
      <property name="window">75</property>
      <property name="max_gain">20dB</property>
      <property name="level">0</property>
      <property name="mlt_service">volume</property>
      <property name="disable">1</property>
    </filter>
    <filter id="filter52" in="00:03:12.600" out="00:03:27.800">
      <property name="mlt_service">ladspa.1913</property>
      <property name="0">0</property>
      <property name="1">-10</property>
      <property name="2">0.51</property>
      <property name="instances">1</property>
      <property name="3[0]">5.85285</property>
      <property name="8[0]">240</property>
    </filter>
  </producer>
  <playlist id="playlist11">
    <property name="shotcut:video">1</property>
    <property name="shotcut:name">Clarinette_Nelly</property>
    <property name="shotcut:lock">1</property>
    <blank length="00:00:08.520"/>
    <entry producer="producer32" in="00:00:15.440" out="00:01:49.560"/>
    <entry producer="producer26" in="00:01:49.600" out="00:02:04.400"/>
    <entry producer="producer27" in="00:02:04.440" out="00:03:12.560"/>
    <entry producer="producer28" in="00:03:12.600" out="00:03:27.800"/>
    <filter id="filter53" out="00:03:23.320">
      <property name="window">75</property>
      <property name="max_gain">20dB</property>
      <property name="level">-11</property>
      <property name="mlt_service">volume</property>
    </filter>
  </playlist>
  <producer id="producer29" title="Anonymous Submission" in="00:00:00.000" out="00:03:16.440">
    <property name="length">00:03:16:12</property>
    <property name="eof">pause</property>
    <property name="resource">C:/Users/Camille/OneDrive/Camille/006 - Videos format youtube/Clarinettes/Natacha_clarinette_totoro.mp4</property>
    <property name="audio_index">1</property>
    <property name="video_index">0</property>
    <property name="mute_on_pause">0</property>
    <property name="mlt_service">avformat-novalidate</property>
    <property name="seekable">1</property>
    <property name="aspect_ratio">1</property>
    <property name="creation_time">2020-04-09T18:24:43</property>
    <property name="shotcut:hash">ef0c345cac52960b965edf602ef26da9</property>
    <property name="ignore_points">0</property>
    <property name="shotcut:caption">Natacha_clarinette_totoro.mp4</property>
    <property name="shotcut:skipConvert">1</property>
    <property name="global_feed">1</property>
    <property name="xml">was here</property>
    <filter id="filter54" out="00:00:32.600">
      <property name="background">colour:0</property>
      <property name="mlt_service">affine</property>
      <property name="shotcut:filter">affineSizePosition</property>
      <property name="transition.fill">1</property>
      <property name="transition.distort">0</property>
      <property name="transition.rect">1247 306 657 369 1</property>
      <property name="transition.valign">top</property>
      <property name="transition.halign">left</property>
      <property name="shotcut:animIn">00:00:00.000</property>
      <property name="shotcut:animOut">00:00:00.000</property>
      <property name="transition.threads">0</property>
    </filter>
    <filter id="filter55" out="00:00:32.600">
      <property name="window">75</property>
      <property name="max_gain">20dB</property>
      <property name="mlt_service">volume</property>
      <property name="shotcut:filter">muteVolume</property>
      <property name="gain">0</property>
    </filter>
  </producer>
  <producer id="producer30" title="Anonymous Submission" in="00:00:00.000" out="00:03:16.440">
    <property name="length">00:03:16:12</property>
    <property name="eof">pause</property>
    <property name="resource">C:/Users/Camille/OneDrive/Camille/006 - Videos format youtube/Clarinettes/Natacha_clarinette_totoro.mp4</property>
    <property name="audio_index">1</property>
    <property name="video_index">0</property>
    <property name="mute_on_pause">0</property>
    <property name="mlt_service">avformat-novalidate</property>
    <property name="seekable">1</property>
    <property name="aspect_ratio">1</property>
    <property name="creation_time">2020-04-09T18:24:43</property>
    <property name="shotcut:hash">ef0c345cac52960b965edf602ef26da9</property>
    <property name="ignore_points">0</property>
    <property name="shotcut:caption">Natacha_clarinette_totoro.mp4</property>
    <property name="shotcut:skipConvert">1</property>
    <property name="global_feed">1</property>
    <property name="xml">was here</property>
    <filter id="filter56" in="00:00:32.640" out="00:01:39.560">
      <property name="background">colour:0</property>
      <property name="mlt_service">affine</property>
      <property name="shotcut:filter">affineSizePosition</property>
      <property name="transition.fill">1</property>
      <property name="transition.distort">0</property>
      <property name="transition.rect">1247 306 657 369 1</property>
      <property name="transition.valign">top</property>
      <property name="transition.halign">left</property>
      <property name="shotcut:animIn">00:00:00.000</property>
      <property name="shotcut:animOut">00:00:00.000</property>
      <property name="transition.threads">0</property>
    </filter>
    <filter id="filter57" in="00:00:32.640" out="00:01:39.560">
      <property name="window">75</property>
      <property name="max_gain">20dB</property>
      <property name="level">-5</property>
      <property name="mlt_service">volume</property>
      <property name="disable">1</property>
    </filter>
  </producer>
  <producer id="producer31" title="Anonymous Submission" in="00:00:00.000" out="00:03:16.440">
    <property name="length">00:03:16:12</property>
    <property name="eof">pause</property>
    <property name="resource">C:/Users/Camille/OneDrive/Camille/006 - Videos format youtube/Clarinettes/Natacha_clarinette_totoro.mp4</property>
    <property name="audio_index">1</property>
    <property name="video_index">0</property>
    <property name="mute_on_pause">0</property>
    <property name="mlt_service">avformat-novalidate</property>
    <property name="seekable">1</property>
    <property name="aspect_ratio">1</property>
    <property name="creation_time">2020-04-09T18:24:43</property>
    <property name="shotcut:hash">ef0c345cac52960b965edf602ef26da9</property>
    <property name="ignore_points">0</property>
    <property name="shotcut:caption">Natacha_clarinette_totoro.mp4</property>
    <property name="shotcut:skipConvert">1</property>
    <property name="global_feed">1</property>
    <property name="xml">was here</property>
    <filter id="filter58" in="00:01:39.600" out="00:01:54.400">
      <property name="background">colour:0</property>
      <property name="mlt_service">affine</property>
      <property name="shotcut:filter">affineSizePosition</property>
      <property name="transition.fill">1</property>
      <property name="transition.distort">0</property>
      <property name="transition.rect">1247 306 657 369 1</property>
      <property name="transition.valign">top</property>
      <property name="transition.halign">left</property>
      <property name="shotcut:animIn">00:00:00.000</property>
      <property name="shotcut:animOut">00:00:00.000</property>
      <property name="transition.threads">0</property>
    </filter>
    <filter id="filter59" in="00:01:39.600" out="00:01:54.400">
      <property name="window">75</property>
      <property name="max_gain">20dB</property>
      <property name="mlt_service">volume</property>
      <property name="shotcut:filter">muteVolume</property>
      <property name="gain">0</property>
    </filter>
  </producer>
  <producer id="producer33" title="Anonymous Submission" in="00:00:00.000" out="00:03:16.440">
    <property name="length">00:03:16:12</property>
    <property name="eof">pause</property>
    <property name="resource">C:/Users/Camille/OneDrive/Camille/006 - Videos format youtube/Clarinettes/Natacha_clarinette_totoro.mp4</property>
    <property name="audio_index">1</property>
    <property name="video_index">0</property>
    <property name="mute_on_pause">0</property>
    <property name="mlt_service">avformat-novalidate</property>
    <property name="seekable">1</property>
    <property name="aspect_ratio">1</property>
    <property name="creation_time">2020-04-09T18:24:43</property>
    <property name="shotcut:hash">ef0c345cac52960b965edf602ef26da9</property>
    <property name="ignore_points">0</property>
    <property name="shotcut:caption">Natacha_clarinette_totoro.mp4</property>
    <property name="shotcut:skipConvert">1</property>
    <property name="global_feed">1</property>
    <property name="xml">was here</property>
    <filter id="filter60" in="00:01:54.440" out="00:02:30.920">
      <property name="background">colour:0</property>
      <property name="mlt_service">affine</property>
      <property name="shotcut:filter">affineSizePosition</property>
      <property name="transition.fill">1</property>
      <property name="transition.distort">0</property>
      <property name="transition.rect">1247 306 657 369 1</property>
      <property name="transition.valign">top</property>
      <property name="transition.halign">left</property>
      <property name="shotcut:animIn">00:00:00.000</property>
      <property name="shotcut:animOut">00:00:00.000</property>
      <property name="transition.threads">0</property>
    </filter>
  </producer>
  <producer id="producer34" title="Anonymous Submission" in="00:00:00.000" out="00:03:16.440">
    <property name="length">00:03:16:12</property>
    <property name="eof">pause</property>
    <property name="resource">C:/Users/Camille/OneDrive/Camille/006 - Videos format youtube/Clarinettes/Natacha_clarinette_totoro.mp4</property>
    <property name="audio_index">1</property>
    <property name="video_index">0</property>
    <property name="mute_on_pause">0</property>
    <property name="mlt_service">avformat-novalidate</property>
    <property name="seekable">1</property>
    <property name="aspect_ratio">1</property>
    <property name="creation_time">2020-04-09T18:24:43</property>
    <property name="shotcut:hash">ef0c345cac52960b965edf602ef26da9</property>
    <property name="ignore_points">0</property>
    <property name="shotcut:caption">Natacha_clarinette_totoro.mp4</property>
    <property name="shotcut:skipConvert">1</property>
    <property name="global_feed">1</property>
    <property name="xml">was here</property>
    <filter id="filter61" in="00:02:30.960" out="00:02:32.440">
      <property name="background">colour:0</property>
      <property name="mlt_service">affine</property>
      <property name="shotcut:filter">affineSizePosition</property>
      <property name="transition.fill">1</property>
      <property name="transition.distort">0</property>
      <property name="transition.rect">0 0 724 407 1</property>
      <property name="transition.valign">top</property>
      <property name="transition.halign">left</property>
      <property name="shotcut:animIn">00:00:00.000</property>
      <property name="shotcut:animOut">00:00:00.000</property>
      <property name="transition.threads">0</property>
    </filter>
  </producer>
  <producer id="producer35" title="Anonymous Submission" in="00:00:00.000" out="00:03:16.440">
    <property name="length">00:03:16:12</property>
    <property name="eof">pause</property>
    <property name="resource">C:/Users/Camille/OneDrive/Camille/006 - Videos format youtube/Clarinettes/Natacha_clarinette_totoro.mp4</property>
    <property name="audio_index">1</property>
    <property name="video_index">0</property>
    <property name="mute_on_pause">0</property>
    <property name="mlt_service">avformat-novalidate</property>
    <property name="seekable">1</property>
    <property name="aspect_ratio">1</property>
    <property name="creation_time">2020-04-09T18:24:43</property>
    <property name="shotcut:hash">ef0c345cac52960b965edf602ef26da9</property>
    <property name="ignore_points">0</property>
    <property name="shotcut:caption">Natacha_clarinette_totoro.mp4</property>
    <property name="shotcut:skipConvert">1</property>
    <property name="global_feed">1</property>
    <property name="xml">was here</property>
    <filter id="filter62" in="00:02:32.480" out="00:02:54.840">
      <property name="background">colour:0</property>
      <property name="mlt_service">affine</property>
      <property name="shotcut:filter">affineSizePosition</property>
      <property name="transition.fill">1</property>
      <property name="transition.distort">0</property>
      <property name="transition.rect">0 661 744 418 1</property>
      <property name="transition.valign">top</property>
      <property name="transition.halign">left</property>
      <property name="shotcut:animIn">00:00:00.000</property>
      <property name="shotcut:animOut">00:00:00.000</property>
      <property name="transition.threads">0</property>
    </filter>
  </producer>
  <producer id="producer36" title="Anonymous Submission" in="00:00:00.000" out="00:03:16.440">
    <property name="length">00:03:16:12</property>
    <property name="eof">pause</property>
    <property name="resource">C:/Users/Camille/OneDrive/Camille/006 - Videos format youtube/Clarinettes/Natacha_clarinette_totoro.mp4</property>
    <property name="audio_index">1</property>
    <property name="video_index">0</property>
    <property name="mute_on_pause">0</property>
    <property name="mlt_service">avformat-novalidate</property>
    <property name="seekable">1</property>
    <property name="aspect_ratio">1</property>
    <property name="creation_time">2020-04-09T18:24:43</property>
    <property name="shotcut:hash">ef0c345cac52960b965edf602ef26da9</property>
    <property name="ignore_points">0</property>
    <property name="shotcut:caption">Natacha_clarinette_totoro.mp4</property>
    <property name="shotcut:skipConvert">1</property>
    <property name="global_feed">1</property>
    <property name="xml">was here</property>
    <filter id="filter63" in="00:02:54.880" out="00:03:00.040">
      <property name="background">colour:0</property>
      <property name="mlt_service">affine</property>
      <property name="shotcut:filter">affineSizePosition</property>
      <property name="transition.fill">1</property>
      <property name="transition.distort">0</property>
      <property name="transition.rect">0 661 744 418 1</property>
      <property name="transition.valign">top</property>
      <property name="transition.halign">left</property>
      <property name="shotcut:animIn">00:00:00.000</property>
      <property name="shotcut:animOut">00:00:00.000</property>
      <property name="transition.threads">0</property>
    </filter>
    <filter id="filter64" in="00:02:54.880" out="00:03:00.040">
      <property name="window">75</property>
      <property name="max_gain">20dB</property>
      <property name="mlt_service">volume</property>
      <property name="shotcut:filter">muteVolume</property>
      <property name="gain">0</property>
    </filter>
  </producer>
  <producer id="producer37" title="Anonymous Submission" in="00:00:00.000" out="00:03:16.440">
    <property name="length">00:03:16:12</property>
    <property name="eof">pause</property>
    <property name="resource">C:/Users/Camille/OneDrive/Camille/006 - Videos format youtube/Clarinettes/Natacha_clarinette_totoro.mp4</property>
    <property name="audio_index">1</property>
    <property name="video_index">0</property>
    <property name="mute_on_pause">0</property>
    <property name="mlt_service">avformat-novalidate</property>
    <property name="seekable">1</property>
    <property name="aspect_ratio">1</property>
    <property name="creation_time">2020-04-09T18:24:43</property>
    <property name="shotcut:hash">ef0c345cac52960b965edf602ef26da9</property>
    <property name="ignore_points">0</property>
    <property name="shotcut:caption">Natacha_clarinette_totoro.mp4</property>
    <property name="shotcut:skipConvert">1</property>
    <property name="global_feed">1</property>
    <property name="xml">was here</property>
    <filter id="filter65" in="00:03:00.080" out="00:03:02.560">
      <property name="background">colour:0</property>
      <property name="mlt_service">affine</property>
      <property name="shotcut:filter">affineSizePosition</property>
      <property name="transition.fill">1</property>
      <property name="transition.distort">0</property>
      <property name="transition.rect">0 661 744 418 1</property>
      <property name="transition.valign">top</property>
      <property name="transition.halign">left</property>
      <property name="shotcut:animIn">00:00:00.000</property>
      <property name="shotcut:animOut">00:00:00.000</property>
      <property name="transition.threads">0</property>
    </filter>
    <filter id="filter66" in="00:03:00.080" out="00:03:02.560">
      <property name="window">75</property>
      <property name="max_gain">20dB</property>
      <property name="mlt_service">volume</property>
      <property name="shotcut:filter">muteVolume</property>
      <property name="gain">0</property>
    </filter>
  </producer>
  <producer id="producer38" title="Anonymous Submission" in="00:00:00.000" out="00:03:16.440">
    <property name="length">00:03:16:12</property>
    <property name="eof">pause</property>
    <property name="resource">C:/Users/Camille/OneDrive/Camille/006 - Videos format youtube/Clarinettes/Natacha_clarinette_totoro.mp4</property>
    <property name="audio_index">1</property>
    <property name="video_index">0</property>
    <property name="mute_on_pause">0</property>
    <property name="mlt_service">avformat-novalidate</property>
    <property name="seekable">1</property>
    <property name="aspect_ratio">1</property>
    <property name="creation_time">2020-04-09T18:24:43</property>
    <property name="shotcut:hash">ef0c345cac52960b965edf602ef26da9</property>
    <property name="ignore_points">0</property>
    <property name="shotcut:caption">Natacha_clarinette_totoro.mp4</property>
    <property name="shotcut:skipConvert">1</property>
    <property name="global_feed">1</property>
    <property name="xml">was here</property>
    <filter id="filter67" in="00:03:02.600" out="00:03:07.800">
      <property name="background">colour:0</property>
      <property name="mlt_service">affine</property>
      <property name="shotcut:filter">affineSizePosition</property>
      <property name="transition.fill">1</property>
      <property name="transition.distort">0</property>
      <property name="transition.rect">0 661 744 418 1</property>
      <property name="transition.valign">top</property>
      <property name="transition.halign">left</property>
      <property name="shotcut:animIn">00:00:00.000</property>
      <property name="shotcut:animOut">00:00:00.000</property>
      <property name="transition.threads">0</property>
      <property name="disable">0</property>
    </filter>
    <filter id="filter68" in="00:03:02.600" out="00:03:07.800">
      <property name="mlt_service">ladspa.1913</property>
      <property name="0">0</property>
      <property name="1">-10</property>
      <property name="2">0.51</property>
      <property name="instances">1</property>
      <property name="3[0]">1.74527</property>
      <property name="8[0]">240</property>
      <property name="disable">0</property>
    </filter>
    <filter id="filter69" in="00:03:02.600" out="00:03:07.800">
      <property name="window">75</property>
      <property name="max_gain">20dB</property>
      <property name="mlt_service">volume</property>
      <property name="shotcut:filter">muteVolume</property>
      <property name="gain">0</property>
    </filter>
  </producer>
  <producer id="producer39" title="Anonymous Submission" in="00:00:00.000" out="00:03:16.440">
    <property name="length">00:03:16:12</property>
    <property name="eof">pause</property>
    <property name="resource">C:/Users/Camille/OneDrive/Camille/006 - Videos format youtube/Clarinettes/Natacha_clarinette_totoro.mp4</property>
    <property name="audio_index">1</property>
    <property name="video_index">0</property>
    <property name="mute_on_pause">0</property>
    <property name="mlt_service">avformat-novalidate</property>
    <property name="seekable">1</property>
    <property name="aspect_ratio">1</property>
    <property name="creation_time">2020-04-09T18:24:43</property>
    <property name="shotcut:hash">ef0c345cac52960b965edf602ef26da9</property>
    <property name="ignore_points">0</property>
    <property name="shotcut:caption">Natacha_clarinette_totoro.mp4</property>
    <property name="shotcut:skipConvert">1</property>
    <property name="global_feed">1</property>
    <property name="xml">was here</property>
    <filter id="filter70" in="00:03:07.840" out="00:03:16.440">
      <property name="background">colour:0</property>
      <property name="mlt_service">affine</property>
      <property name="shotcut:filter">affineSizePosition</property>
      <property name="transition.fill">1</property>
      <property name="transition.distort">0</property>
      <property name="transition.rect">0 661 744 418 1</property>
      <property name="transition.valign">top</property>
      <property name="transition.halign">left</property>
      <property name="shotcut:animIn">00:00:00.000</property>
      <property name="shotcut:animOut">00:00:00.000</property>
      <property name="transition.threads">0</property>
      <property name="disable">0</property>
    </filter>
    <filter id="filter71" in="00:03:07.840" out="00:03:16.440">
      <property name="mlt_service">ladspa.1913</property>
      <property name="0">0</property>
      <property name="1">-10</property>
      <property name="2">0.51</property>
      <property name="instances">1</property>
      <property name="3[0]">8.31908</property>
      <property name="8[0]">240</property>
      <property name="disable">0</property>
    </filter>
  </producer>
  <playlist id="playlist5">
    <property name="shotcut:video">1</property>
    <property name="shotcut:name">natacha</property>
    <property name="shotcut:lock">1</property>
    <blank length="00:00:03.080"/>
    <entry producer="producer29" in="00:00:00.000" out="00:00:32.600"/>
    <entry producer="producer30" in="00:00:32.640" out="00:01:39.560"/>
    <entry producer="producer31" in="00:01:39.600" out="00:01:54.400"/>
    <entry producer="producer33" in="00:01:54.440" out="00:02:30.920"/>
    <entry producer="producer34" in="00:02:30.960" out="00:02:32.440"/>
    <entry producer="producer35" in="00:02:32.480" out="00:02:54.840"/>
    <entry producer="producer36" in="00:02:54.880" out="00:03:00.040"/>
    <entry producer="producer37" in="00:03:00.080" out="00:03:02.560"/>
    <entry producer="producer38" in="00:03:02.600" out="00:03:07.800"/>
    <entry producer="producer39" in="00:03:07.840" out="00:03:16.440"/>
    <filter id="filter72" out="00:03:23.320">
      <property name="window">75</property>
      <property name="max_gain">20dB</property>
      <property name="level">-11</property>
      <property name="mlt_service">volume</property>
    </filter>
  </playlist>
  <producer id="producer40" title="Anonymous Submission" in="00:00:00.000" out="00:03:22.120">
    <property name="length">00:03:22:04</property>
    <property name="eof">pause</property>
    <property name="resource">C:/Users/Camille/OneDrive/Camille/006 - Videos format youtube/Clarinettes/Pierre_clarinette_totoro_recadre.mp4</property>
    <property name="audio_index">1</property>
    <property name="video_index">0</property>
    <property name="mute_on_pause">0</property>
    <property name="mlt_service">avformat-novalidate</property>
    <property name="seekable">1</property>
    <property name="aspect_ratio">1</property>
    <property name="creation_time">2020-04-12T15:55:36</property>
    <property name="shotcut:hash">e4c0c36f4b8e968ab780c99675fecd9b</property>
    <property name="ignore_points">0</property>
    <property name="shotcut:caption">Pierre_clarinette_totoro_recadre.mp4</property>
    <property name="shotcut:skipConvert">1</property>
    <property name="global_feed">1</property>
    <property name="xml">was here</property>
    <filter id="filter73" out="00:02:12.520">
      <property name="background">colour:0</property>
      <property name="mlt_service">affine</property>
      <property name="shotcut:filter">affineSizePosition</property>
      <property name="transition.fill">1</property>
      <property name="transition.distort">0</property>
      <property name="transition.rect">0 0 1920 1080 1</property>
      <property name="transition.valign">top</property>
      <property name="transition.halign">left</property>
      <property name="shotcut:animIn">00:00:00.000</property>
      <property name="shotcut:animOut">00:00:00.000</property>
      <property name="transition.threads">0</property>
    </filter>
  </producer>
  <producer id="producer41" title="Anonymous Submission" in="00:00:00.000" out="00:03:22.120">
    <property name="length">00:03:22:04</property>
    <property name="eof">pause</property>
    <property name="resource">C:/Users/Camille/OneDrive/Camille/006 - Videos format youtube/Clarinettes/Pierre_clarinette_totoro_recadre.mp4</property>
    <property name="audio_index">1</property>
    <property name="video_index">0</property>
    <property name="mute_on_pause">0</property>
    <property name="mlt_service">avformat-novalidate</property>
    <property name="seekable">1</property>
    <property name="aspect_ratio">1</property>
    <property name="creation_time">2020-04-12T15:55:36</property>
    <property name="shotcut:hash">e4c0c36f4b8e968ab780c99675fecd9b</property>
    <property name="ignore_points">0</property>
    <property name="shotcut:caption">Pierre_clarinette_totoro_recadre.mp4</property>
    <property name="shotcut:skipConvert">1</property>
    <property name="global_feed">1</property>
    <property name="xml">was here</property>
    <filter id="filter74" in="00:02:12.560" out="00:02:18.960">
      <property name="background">colour:0</property>
      <property name="mlt_service">affine</property>
      <property name="shotcut:filter">affineSizePosition</property>
      <property name="transition.fill">1</property>
      <property name="transition.distort">0</property>
      <property name="transition.rect">0 0 1920 1080 1</property>
      <property name="transition.valign">top</property>
      <property name="transition.halign">left</property>
      <property name="shotcut:animIn">00:00:00.000</property>
      <property name="shotcut:animOut">00:00:00.000</property>
      <property name="transition.threads">0</property>
    </filter>
    <filter id="filter75" in="00:02:12.560" out="00:02:18.960">
      <property name="window">75</property>
      <property name="max_gain">20dB</property>
      <property name="mlt_service">volume</property>
      <property name="shotcut:filter">muteVolume</property>
      <property name="gain">0</property>
    </filter>
  </producer>
  <producer id="producer42" title="Anonymous Submission" in="00:00:00.000" out="00:03:22.120">
    <property name="length">00:03:22:04</property>
    <property name="eof">pause</property>
    <property name="resource">C:/Users/Camille/OneDrive/Camille/006 - Videos format youtube/Clarinettes/Pierre_clarinette_totoro_recadre.mp4</property>
    <property name="audio_index">1</property>
    <property name="video_index">0</property>
    <property name="mute_on_pause">0</property>
    <property name="mlt_service">avformat-novalidate</property>
    <property name="seekable">1</property>
    <property name="aspect_ratio">1</property>
    <property name="creation_time">2020-04-12T15:55:36</property>
    <property name="shotcut:hash">e4c0c36f4b8e968ab780c99675fecd9b</property>
    <property name="ignore_points">0</property>
    <property name="shotcut:caption">Pierre_clarinette_totoro_recadre.mp4</property>
    <property name="shotcut:skipConvert">1</property>
    <property name="global_feed">1</property>
    <property name="xml">was here</property>
    <filter id="filter76" in="00:02:19.000" out="00:03:03.120">
      <property name="background">colour:0</property>
      <property name="mlt_service">affine</property>
      <property name="shotcut:filter">affineSizePosition</property>
      <property name="transition.fill">1</property>
      <property name="transition.distort">0</property>
      <property name="transition.rect">0 0 1920 1080 1</property>
      <property name="transition.valign">top</property>
      <property name="transition.halign">left</property>
      <property name="shotcut:animIn">00:00:00.000</property>
      <property name="shotcut:animOut">00:00:00.000</property>
      <property name="transition.threads">0</property>
    </filter>
  </producer>
  <producer id="producer43" title="Anonymous Submission" in="00:00:00.000" out="00:03:22.120">
    <property name="length">00:03:22:04</property>
    <property name="eof">pause</property>
    <property name="resource">C:/Users/Camille/OneDrive/Camille/006 - Videos format youtube/Clarinettes/Pierre_clarinette_totoro_recadre.mp4</property>
    <property name="audio_index">1</property>
    <property name="video_index">0</property>
    <property name="mute_on_pause">0</property>
    <property name="mlt_service">avformat-novalidate</property>
    <property name="seekable">1</property>
    <property name="aspect_ratio">1</property>
    <property name="creation_time">2020-04-12T15:55:36</property>
    <property name="shotcut:hash">e4c0c36f4b8e968ab780c99675fecd9b</property>
    <property name="ignore_points">0</property>
    <property name="shotcut:caption">Pierre_clarinette_totoro_recadre.mp4</property>
    <property name="shotcut:skipConvert">1</property>
    <property name="global_feed">1</property>
    <property name="xml">was here</property>
    <filter id="filter77" in="00:03:03.160" out="00:03:03.960">
      <property name="background">colour:0</property>
      <property name="mlt_service">affine</property>
      <property name="shotcut:filter">affineSizePosition</property>
      <property name="transition.fill">1</property>
      <property name="transition.distort">0</property>
      <property name="transition.rect">0 0 1920 1080 1</property>
      <property name="transition.valign">top</property>
      <property name="transition.halign">left</property>
      <property name="shotcut:animIn">00:00:00.000</property>
      <property name="shotcut:animOut">00:00:00.000</property>
      <property name="transition.threads">0</property>
    </filter>
    <filter id="filter78" in="00:03:03.160" out="00:03:03.960">
      <property name="window">75</property>
      <property name="max_gain">20dB</property>
      <property name="mlt_service">volume</property>
      <property name="shotcut:filter">muteVolume</property>
      <property name="gain">0</property>
    </filter>
  </producer>
  <producer id="producer44" title="Anonymous Submission" in="00:00:00.000" out="00:03:22.120">
    <property name="length">00:03:22:04</property>
    <property name="eof">pause</property>
    <property name="resource">C:/Users/Camille/OneDrive/Camille/006 - Videos format youtube/Clarinettes/Pierre_clarinette_totoro_recadre.mp4</property>
    <property name="audio_index">1</property>
    <property name="video_index">0</property>
    <property name="mute_on_pause">0</property>
    <property name="mlt_service">avformat-novalidate</property>
    <property name="seekable">1</property>
    <property name="aspect_ratio">1</property>
    <property name="creation_time">2020-04-12T15:55:36</property>
    <property name="shotcut:hash">e4c0c36f4b8e968ab780c99675fecd9b</property>
    <property name="ignore_points">0</property>
    <property name="shotcut:caption">Pierre_clarinette_totoro_recadre.mp4</property>
    <property name="shotcut:skipConvert">1</property>
    <property name="global_feed">1</property>
    <property name="xml">was here</property>
    <filter id="filter79" in="00:03:04.000" out="00:03:22.120">
      <property name="background">colour:0</property>
      <property name="mlt_service">affine</property>
      <property name="shotcut:filter">affineSizePosition</property>
      <property name="transition.fill">1</property>
      <property name="transition.distort">0</property>
      <property name="transition.rect">0 0 1920 1080 1</property>
      <property name="transition.valign">top</property>
      <property name="transition.halign">left</property>
      <property name="shotcut:animIn">00:00:00.000</property>
      <property name="shotcut:animOut">00:00:00.000</property>
      <property name="transition.threads">0</property>
    </filter>
  </producer>
  <playlist id="playlist6">
    <property name="shotcut:video">1</property>
    <property name="shotcut:name">Pierre_clarinette_recadré</property>
    <property name="shotcut:lock">1</property>
    <entry producer="producer40" in="00:00:00.000" out="00:02:12.520"/>
    <entry producer="producer41" in="00:02:12.560" out="00:02:18.960"/>
    <entry producer="producer42" in="00:02:19.000" out="00:03:03.120"/>
    <entry producer="producer43" in="00:03:03.160" out="00:03:03.960"/>
    <entry producer="producer44" in="00:03:04.000" out="00:03:22.120"/>
    <filter id="filter80" out="00:03:23.320">
      <property name="window">75</property>
      <property name="max_gain">20dB</property>
      <property name="level">-10</property>
      <property name="mlt_service">volume</property>
    </filter>
  </playlist>
  <producer id="producer45" title="Anonymous Submission" in="00:00:00.000" out="00:03:17.240">
    <property name="length">00:03:17:07</property>
    <property name="eof">pause</property>
    <property name="resource">C:/Users/Camille/OneDrive/Camille/006 - Videos format youtube/Clarinettes/Ineke_clarinette_totoro.mp4</property>
    <property name="audio_index">1</property>
    <property name="video_index">0</property>
    <property name="mute_on_pause">0</property>
    <property name="mlt_service">avformat-novalidate</property>
    <property name="seekable">1</property>
    <property name="aspect_ratio">1</property>
    <property name="creation_time">2020-04-20T19:10:56</property>
    <property name="shotcut:hash">44edbdde4a7730436d308ed2f8de3797</property>
    <property name="ignore_points">0</property>
    <property name="shotcut:caption">Ineke_clarinette_totoro.mp4</property>
    <property name="shotcut:skipConvert">1</property>
    <property name="global_feed">1</property>
    <property name="xml">was here</property>
    <filter id="filter81" out="00:00:35.720">
      <property name="background">colour:0</property>
      <property name="mlt_service">affine</property>
      <property name="shotcut:filter">affineSizePosition</property>
      <property name="transition.fill">1</property>
      <property name="transition.distort">0</property>
      <property name="transition.rect">0 0 1920 1080 1</property>
      <property name="transition.valign">top</property>
      <property name="transition.halign">left</property>
      <property name="shotcut:animIn">00:00:00.000</property>
      <property name="shotcut:animOut">00:00:00.000</property>
      <property name="transition.threads">0</property>
    </filter>
    <filter id="filter82" out="00:00:35.720">
      <property name="window">75</property>
      <property name="max_gain">20dB</property>
      <property name="mlt_service">volume</property>
      <property name="shotcut:filter">muteVolume</property>
      <property name="gain">0</property>
    </filter>
  </producer>
  <producer id="producer46" title="Anonymous Submission" in="00:00:00.000" out="00:03:17.240">
    <property name="length">00:03:17:07</property>
    <property name="eof">pause</property>
    <property name="resource">C:/Users/Camille/OneDrive/Camille/006 - Videos format youtube/Clarinettes/Ineke_clarinette_totoro.mp4</property>
    <property name="audio_index">1</property>
    <property name="video_index">0</property>
    <property name="mute_on_pause">0</property>
    <property name="mlt_service">avformat-novalidate</property>
    <property name="seekable">1</property>
    <property name="aspect_ratio">1</property>
    <property name="creation_time">2020-04-20T19:10:56</property>
    <property name="shotcut:hash">44edbdde4a7730436d308ed2f8de3797</property>
    <property name="ignore_points">0</property>
    <property name="shotcut:caption">Ineke_clarinette_totoro.mp4</property>
    <property name="shotcut:skipConvert">1</property>
    <property name="global_feed">1</property>
    <property name="xml">was here</property>
    <filter id="filter83" in="00:00:35.760" out="00:01:13.880">
      <property name="background">colour:0</property>
      <property name="mlt_service">affine</property>
      <property name="shotcut:filter">affineSizePosition</property>
      <property name="transition.fill">1</property>
      <property name="transition.distort">0</property>
      <property name="transition.rect">0 0 1920 1080 1</property>
      <property name="transition.valign">top</property>
      <property name="transition.halign">left</property>
      <property name="shotcut:animIn">00:00:00.000</property>
      <property name="shotcut:animOut">00:00:00.000</property>
      <property name="transition.threads">0</property>
    </filter>
  </producer>
  <producer id="producer47" title="Anonymous Submission" in="00:00:00.000" out="00:03:17.240">
    <property name="length">00:03:17:07</property>
    <property name="eof">pause</property>
    <property name="resource">C:/Users/Camille/OneDrive/Camille/006 - Videos format youtube/Clarinettes/Ineke_clarinette_totoro.mp4</property>
    <property name="audio_index">1</property>
    <property name="video_index">0</property>
    <property name="mute_on_pause">0</property>
    <property name="mlt_service">avformat-novalidate</property>
    <property name="seekable">1</property>
    <property name="aspect_ratio">1</property>
    <property name="creation_time">2020-04-20T19:10:56</property>
    <property name="shotcut:hash">44edbdde4a7730436d308ed2f8de3797</property>
    <property name="ignore_points">0</property>
    <property name="shotcut:caption">Ineke_clarinette_totoro.mp4</property>
    <property name="shotcut:skipConvert">1</property>
    <property name="global_feed">1</property>
    <property name="xml">was here</property>
    <filter id="filter84" in="00:01:13.920" out="00:01:16.440">
      <property name="background">colour:0</property>
      <property name="mlt_service">affine</property>
      <property name="shotcut:filter">affineSizePosition</property>
      <property name="transition.fill">1</property>
      <property name="transition.distort">0</property>
      <property name="transition.rect">0 0 1920 1080 1</property>
      <property name="transition.valign">top</property>
      <property name="transition.halign">left</property>
      <property name="shotcut:animIn">00:00:00.000</property>
      <property name="shotcut:animOut">00:00:00.000</property>
      <property name="transition.threads">0</property>
    </filter>
    <filter id="filter85" in="00:01:13.920" out="00:01:16.440">
      <property name="window">75</property>
      <property name="max_gain">20dB</property>
      <property name="mlt_service">volume</property>
      <property name="shotcut:filter">muteVolume</property>
      <property name="gain">0</property>
    </filter>
  </producer>
  <producer id="producer48" title="Anonymous Submission" in="00:00:00.000" out="00:03:17.240">
    <property name="length">00:03:17:07</property>
    <property name="eof">pause</property>
    <property name="resource">C:/Users/Camille/OneDrive/Camille/006 - Videos format youtube/Clarinettes/Ineke_clarinette_totoro.mp4</property>
    <property name="audio_index">1</property>
    <property name="video_index">0</property>
    <property name="mute_on_pause">0</property>
    <property name="mlt_service">avformat-novalidate</property>
    <property name="seekable">1</property>
    <property name="aspect_ratio">1</property>
    <property name="creation_time">2020-04-20T19:10:56</property>
    <property name="shotcut:hash">44edbdde4a7730436d308ed2f8de3797</property>
    <property name="ignore_points">0</property>
    <property name="shotcut:caption">Ineke_clarinette_totoro.mp4</property>
    <property name="shotcut:skipConvert">1</property>
    <property name="global_feed">1</property>
    <property name="xml">was here</property>
    <filter id="filter86" in="00:01:16.480" out="00:01:41.880">
      <property name="background">colour:0</property>
      <property name="mlt_service">affine</property>
      <property name="shotcut:filter">affineSizePosition</property>
      <property name="transition.fill">1</property>
      <property name="transition.distort">0</property>
      <property name="transition.rect">0 0 1920 1080 1</property>
      <property name="transition.valign">top</property>
      <property name="transition.halign">left</property>
      <property name="shotcut:animIn">00:00:00.000</property>
      <property name="shotcut:animOut">00:00:00.000</property>
      <property name="transition.threads">0</property>
    </filter>
  </producer>
  <producer id="producer49" title="Anonymous Submission" in="00:00:00.000" out="00:03:17.240">
    <property name="length">00:03:17:07</property>
    <property name="eof">pause</property>
    <property name="resource">C:/Users/Camille/OneDrive/Camille/006 - Videos format youtube/Clarinettes/Ineke_clarinette_totoro.mp4</property>
    <property name="audio_index">1</property>
    <property name="video_index">0</property>
    <property name="mute_on_pause">0</property>
    <property name="mlt_service">avformat-novalidate</property>
    <property name="seekable">1</property>
    <property name="aspect_ratio">1</property>
    <property name="creation_time">2020-04-20T19:10:56</property>
    <property name="shotcut:hash">44edbdde4a7730436d308ed2f8de3797</property>
    <property name="ignore_points">0</property>
    <property name="shotcut:caption">Ineke_clarinette_totoro.mp4</property>
    <property name="shotcut:skipConvert">1</property>
    <property name="global_feed">1</property>
    <property name="xml">was here</property>
    <filter id="filter87" in="00:01:41.920" out="00:01:58.240">
      <property name="background">colour:0</property>
      <property name="mlt_service">affine</property>
      <property name="shotcut:filter">affineSizePosition</property>
      <property name="transition.fill">1</property>
      <property name="transition.distort">0</property>
      <property name="transition.rect">0 0 1920 1080 1</property>
      <property name="transition.valign">top</property>
      <property name="transition.halign">left</property>
      <property name="shotcut:animIn">00:00:00.000</property>
      <property name="shotcut:animOut">00:00:00.000</property>
      <property name="transition.threads">0</property>
    </filter>
    <filter id="filter88" in="00:01:41.920" out="00:01:58.240">
      <property name="window">75</property>
      <property name="max_gain">20dB</property>
      <property name="mlt_service">volume</property>
      <property name="shotcut:filter">muteVolume</property>
      <property name="gain">0</property>
    </filter>
  </producer>
  <producer id="producer50" title="Anonymous Submission" in="00:00:00.000" out="00:03:17.240">
    <property name="length">00:03:17:07</property>
    <property name="eof">pause</property>
    <property name="resource">C:/Users/Camille/OneDrive/Camille/006 - Videos format youtube/Clarinettes/Ineke_clarinette_totoro.mp4</property>
    <property name="audio_index">1</property>
    <property name="video_index">0</property>
    <property name="mute_on_pause">0</property>
    <property name="mlt_service">avformat-novalidate</property>
    <property name="seekable">1</property>
    <property name="aspect_ratio">1</property>
    <property name="creation_time">2020-04-20T19:10:56</property>
    <property name="shotcut:hash">44edbdde4a7730436d308ed2f8de3797</property>
    <property name="ignore_points">0</property>
    <property name="shotcut:caption">Ineke_clarinette_totoro.mp4</property>
    <property name="shotcut:skipConvert">1</property>
    <property name="global_feed">1</property>
    <property name="xml">was here</property>
    <filter id="filter89" in="00:01:58.280" out="00:03:17.240">
      <property name="background">colour:0</property>
      <property name="mlt_service">affine</property>
      <property name="shotcut:filter">affineSizePosition</property>
      <property name="transition.fill">1</property>
      <property name="transition.distort">0</property>
      <property name="transition.rect">0 0 1920 1080 1</property>
      <property name="transition.valign">top</property>
      <property name="transition.halign">left</property>
      <property name="shotcut:animIn">00:00:00.000</property>
      <property name="shotcut:animOut">00:00:00.000</property>
      <property name="transition.threads">0</property>
    </filter>
  </producer>
  <playlist id="playlist7">
    <property name="shotcut:video">1</property>
    <property name="shotcut:name">Ineke</property>
    <property name="shotcut:lock">1</property>
    <blank length="00:00:00.560"/>
    <entry producer="producer45" in="00:00:00.000" out="00:00:35.720"/>
    <entry producer="producer46" in="00:00:35.760" out="00:01:13.880"/>
    <entry producer="producer47" in="00:01:13.920" out="00:01:16.440"/>
    <entry producer="producer48" in="00:01:16.480" out="00:01:41.880"/>
    <entry producer="producer49" in="00:01:41.920" out="00:01:58.240"/>
    <entry producer="producer50" in="00:01:58.280" out="00:03:17.240"/>
    <filter id="filter90" out="00:03:23.320">
      <property name="window">75</property>
      <property name="max_gain">20dB</property>
      <property name="level">-10</property>
      <property name="mlt_service">volume</property>
    </filter>
  </playlist>
  <producer id="producer51" title="Anonymous Submission" in="00:00:00.000" out="00:03:14.400">
    <property name="length">00:03:14:11</property>
    <property name="eof">pause</property>
    <property name="resource">C:/Users/Camille/OneDrive/Camille/006 - Videos format youtube/Clarinettes/Anne-sonia_clarinette_totoro.mp4</property>
    <property name="audio_index">1</property>
    <property name="video_index">0</property>
    <property name="mute_on_pause">0</property>
    <property name="mlt_service">avformat-novalidate</property>
    <property name="seekable">1</property>
    <property name="aspect_ratio">1</property>
    <property name="creation_time">2020-04-05T19:51:43</property>
    <property name="shotcut:hash">4571e04128d43e4e5e43a6e2575279f6</property>
    <property name="ignore_points">0</property>
    <property name="shotcut:caption">Anne-sonia_clarinette_totoro.mp4</property>
    <property name="shotcut:skipConvert">1</property>
    <property name="global_feed">1</property>
    <property name="xml">was here</property>
    <filter id="filter91" out="00:00:28.240">
      <property name="background">colour:0</property>
      <property name="mlt_service">affine</property>
      <property name="shotcut:filter">affineSizePosition</property>
      <property name="transition.fill">1</property>
      <property name="transition.distort">0</property>
      <property name="transition.rect">0 0 1920 1080 1</property>
      <property name="transition.valign">top</property>
      <property name="transition.halign">left</property>
      <property name="shotcut:animIn">00:00:00.000</property>
      <property name="shotcut:animOut">00:00:00.000</property>
      <property name="transition.threads">0</property>
    </filter>
    <filter id="filter92" out="00:00:28.240">
      <property name="window">75</property>
      <property name="max_gain">20dB</property>
      <property name="mlt_service">volume</property>
      <property name="shotcut:filter">muteVolume</property>
      <property name="gain">0</property>
    </filter>
  </producer>
  <producer id="producer52" title="Anonymous Submission" in="00:00:00.000" out="00:03:14.400">
    <property name="length">00:03:14:11</property>
    <property name="eof">pause</property>
    <property name="resource">C:/Users/Camille/OneDrive/Camille/006 - Videos format youtube/Clarinettes/Anne-sonia_clarinette_totoro.mp4</property>
    <property name="audio_index">1</property>
    <property name="video_index">0</property>
    <property name="mute_on_pause">0</property>
    <property name="mlt_service">avformat-novalidate</property>
    <property name="seekable">1</property>
    <property name="aspect_ratio">1</property>
    <property name="creation_time">2020-04-05T19:51:43</property>
    <property name="shotcut:hash">4571e04128d43e4e5e43a6e2575279f6</property>
    <property name="ignore_points">0</property>
    <property name="shotcut:caption">Anne-sonia_clarinette_totoro.mp4</property>
    <property name="shotcut:skipConvert">1</property>
    <property name="global_feed">1</property>
    <property name="xml">was here</property>
    <filter id="filter93" in="00:00:28.280" out="00:02:19.280">
      <property name="background">colour:0</property>
      <property name="mlt_service">affine</property>
      <property name="shotcut:filter">affineSizePosition</property>
      <property name="transition.fill">1</property>
      <property name="transition.distort">0</property>
      <property name="transition.rect">0 0 1920 1080 1</property>
      <property name="transition.valign">top</property>
      <property name="transition.halign">left</property>
      <property name="shotcut:animIn">00:00:00.000</property>
      <property name="shotcut:animOut">00:00:00.000</property>
      <property name="transition.threads">0</property>
    </filter>
  </producer>
  <producer id="producer53" title="Anonymous Submission" in="00:00:00.000" out="00:03:14.400">
    <property name="length">00:03:14:11</property>
    <property name="eof">pause</property>
    <property name="resource">C:/Users/Camille/OneDrive/Camille/006 - Videos format youtube/Clarinettes/Anne-sonia_clarinette_totoro.mp4</property>
    <property name="audio_index">1</property>
    <property name="video_index">0</property>
    <property name="mute_on_pause">0</property>
    <property name="mlt_service">avformat-novalidate</property>
    <property name="seekable">1</property>
    <property name="aspect_ratio">1</property>
    <property name="creation_time">2020-04-05T19:51:43</property>
    <property name="shotcut:hash">4571e04128d43e4e5e43a6e2575279f6</property>
    <property name="ignore_points">0</property>
    <property name="shotcut:caption">Anne-sonia_clarinette_totoro.mp4</property>
    <property name="shotcut:skipConvert">1</property>
    <property name="global_feed">1</property>
    <property name="xml">was here</property>
    <filter id="filter94" in="00:02:19.320" out="00:02:22.480">
      <property name="background">colour:0</property>
      <property name="mlt_service">affine</property>
      <property name="shotcut:filter">affineSizePosition</property>
      <property name="transition.fill">1</property>
      <property name="transition.distort">0</property>
      <property name="transition.rect">0 0 1920 1080 1</property>
      <property name="transition.valign">top</property>
      <property name="transition.halign">left</property>
      <property name="shotcut:animIn">00:00:00.000</property>
      <property name="shotcut:animOut">00:00:00.000</property>
      <property name="transition.threads">0</property>
    </filter>
    <filter id="filter95" in="00:02:19.320" out="00:02:22.480">
      <property name="window">75</property>
      <property name="max_gain">20dB</property>
      <property name="mlt_service">volume</property>
      <property name="shotcut:filter">muteVolume</property>
      <property name="gain">0</property>
    </filter>
  </producer>
  <producer id="producer54" title="Anonymous Submission" in="00:00:00.000" out="00:03:14.400">
    <property name="length">00:03:14:11</property>
    <property name="eof">pause</property>
    <property name="resource">C:/Users/Camille/OneDrive/Camille/006 - Videos format youtube/Clarinettes/Anne-sonia_clarinette_totoro.mp4</property>
    <property name="audio_index">1</property>
    <property name="video_index">0</property>
    <property name="mute_on_pause">0</property>
    <property name="mlt_service">avformat-novalidate</property>
    <property name="seekable">1</property>
    <property name="aspect_ratio">1</property>
    <property name="creation_time">2020-04-05T19:51:43</property>
    <property name="shotcut:hash">4571e04128d43e4e5e43a6e2575279f6</property>
    <property name="ignore_points">0</property>
    <property name="shotcut:caption">Anne-sonia_clarinette_totoro.mp4</property>
    <property name="shotcut:skipConvert">1</property>
    <property name="global_feed">1</property>
    <property name="xml">was here</property>
    <filter id="filter96" in="00:02:22.520" out="00:03:04.360">
      <property name="background">colour:0</property>
      <property name="mlt_service">affine</property>
      <property name="shotcut:filter">affineSizePosition</property>
      <property name="transition.fill">1</property>
      <property name="transition.distort">0</property>
      <property name="transition.rect">0 0 1920 1080 1</property>
      <property name="transition.valign">top</property>
      <property name="transition.halign">left</property>
      <property name="shotcut:animIn">00:00:00.000</property>
      <property name="shotcut:animOut">00:00:00.000</property>
      <property name="transition.threads">0</property>
    </filter>
  </producer>
  <producer id="producer55" title="Anonymous Submission" in="00:00:00.000" out="00:03:14.400">
    <property name="length">00:03:14:11</property>
    <property name="eof">pause</property>
    <property name="resource">C:/Users/Camille/OneDrive/Camille/006 - Videos format youtube/Clarinettes/Anne-sonia_clarinette_totoro.mp4</property>
    <property name="audio_index">1</property>
    <property name="video_index">0</property>
    <property name="mute_on_pause">0</property>
    <property name="mlt_service">avformat-novalidate</property>
    <property name="seekable">1</property>
    <property name="aspect_ratio">1</property>
    <property name="creation_time">2020-04-05T19:51:43</property>
    <property name="shotcut:hash">4571e04128d43e4e5e43a6e2575279f6</property>
    <property name="ignore_points">0</property>
    <property name="shotcut:caption">Anne-sonia_clarinette_totoro.mp4</property>
    <property name="shotcut:skipConvert">1</property>
    <property name="global_feed">1</property>
    <property name="xml">was here</property>
    <filter id="filter97" in="00:03:04.400" out="00:03:06.840">
      <property name="background">colour:0</property>
      <property name="mlt_service">affine</property>
      <property name="shotcut:filter">affineSizePosition</property>
      <property name="transition.fill">1</property>
      <property name="transition.distort">0</property>
      <property name="transition.rect">0 0 1920 1080 1</property>
      <property name="transition.valign">top</property>
      <property name="transition.halign">left</property>
      <property name="shotcut:animIn">00:00:00.000</property>
      <property name="shotcut:animOut">00:00:00.000</property>
      <property name="transition.threads">0</property>
    </filter>
    <filter id="filter98" in="00:03:04.400" out="00:03:06.840">
      <property name="window">75</property>
      <property name="max_gain">20dB</property>
      <property name="level">-10</property>
      <property name="mlt_service">volume</property>
    </filter>
  </producer>
  <producer id="producer56" title="Anonymous Submission" in="00:00:00.000" out="00:03:14.400">
    <property name="length">00:03:14:11</property>
    <property name="eof">pause</property>
    <property name="resource">C:/Users/Camille/OneDrive/Camille/006 - Videos format youtube/Clarinettes/Anne-sonia_clarinette_totoro.mp4</property>
    <property name="audio_index">1</property>
    <property name="video_index">0</property>
    <property name="mute_on_pause">0</property>
    <property name="mlt_service">avformat-novalidate</property>
    <property name="seekable">1</property>
    <property name="aspect_ratio">1</property>
    <property name="creation_time">2020-04-05T19:51:43</property>
    <property name="shotcut:hash">4571e04128d43e4e5e43a6e2575279f6</property>
    <property name="ignore_points">0</property>
    <property name="shotcut:caption">Anne-sonia_clarinette_totoro.mp4</property>
    <property name="shotcut:skipConvert">1</property>
    <property name="global_feed">1</property>
    <property name="xml">was here</property>
    <filter id="filter99" in="00:03:06.880" out="00:03:14.400">
      <property name="background">colour:0</property>
      <property name="mlt_service">affine</property>
      <property name="shotcut:filter">affineSizePosition</property>
      <property name="transition.fill">1</property>
      <property name="transition.distort">0</property>
      <property name="transition.rect">0 0 1920 1080 1</property>
      <property name="transition.valign">top</property>
      <property name="transition.halign">left</property>
      <property name="shotcut:animIn">00:00:00.000</property>
      <property name="shotcut:animOut">00:00:00.000</property>
      <property name="transition.threads">0</property>
    </filter>
  </producer>
  <playlist id="playlist8">
    <property name="shotcut:video">1</property>
    <property name="shotcut:name">Anne-Sonia_clar 2?</property>
    <property name="shotcut:lock">1</property>
    <blank length="00:00:07.680"/>
    <entry producer="producer51" in="00:00:00.000" out="00:00:28.240"/>
    <entry producer="producer52" in="00:00:28.280" out="00:02:19.280"/>
    <entry producer="producer53" in="00:02:19.320" out="00:02:22.480"/>
    <entry producer="producer54" in="00:02:22.520" out="00:03:04.360"/>
    <entry producer="producer55" in="00:03:04.400" out="00:03:06.840"/>
    <entry producer="producer56" in="00:03:06.880" out="00:03:14.400"/>
    <filter id="filter100" out="00:03:23.320">
      <property name="window">75</property>
      <property name="max_gain">20dB</property>
      <property name="level">-11</property>
      <property name="mlt_service">volume</property>
    </filter>
  </playlist>
  <producer id="producer57" title="Anonymous Submission" in="00:00:00.000" out="00:03:09.640">
    <property name="length">00:03:09:17</property>
    <property name="eof">pause</property>
    <property name="resource">C:/Users/Camille/OneDrive/Camille/006 - Videos format youtube/Clarinettes/Stephane_clarinette_totoro.mp4</property>
    <property name="audio_index">1</property>
    <property name="video_index">0</property>
    <property name="mute_on_pause">0</property>
    <property name="mlt_service">avformat-novalidate</property>
    <property name="seekable">1</property>
    <property name="aspect_ratio">1</property>
    <property name="creation_time">2020-04-13T11:40:34</property>
    <property name="shotcut:hash">9a40f89235cfd4458835cfec463e07c8</property>
    <property name="ignore_points">0</property>
    <property name="shotcut:caption">Stephane_clarinette_totoro.mp4</property>
    <property name="shotcut:skipConvert">1</property>
    <property name="global_feed">1</property>
    <property name="xml">was here</property>
    <filter id="filter101" out="00:00:26.400">
      <property name="background">colour:0</property>
      <property name="mlt_service">affine</property>
      <property name="shotcut:filter">affineSizePosition</property>
      <property name="transition.fill">1</property>
      <property name="transition.distort">0</property>
      <property name="transition.rect">0 0 1920 1080 1</property>
      <property name="transition.valign">top</property>
      <property name="transition.halign">left</property>
      <property name="shotcut:animIn">00:00:00.000</property>
      <property name="shotcut:animOut">00:00:00.000</property>
      <property name="transition.threads">0</property>
    </filter>
    <filter id="filter102" out="00:00:26.400">
      <property name="window">75</property>
      <property name="max_gain">20dB</property>
      <property name="mlt_service">volume</property>
      <property name="shotcut:filter">muteVolume</property>
      <property name="gain">0</property>
    </filter>
  </producer>
  <producer id="producer58" title="Anonymous Submission" in="00:00:00.000" out="00:03:09.640">
    <property name="length">00:03:09:17</property>
    <property name="eof">pause</property>
    <property name="resource">C:/Users/Camille/OneDrive/Camille/006 - Videos format youtube/Clarinettes/Stephane_clarinette_totoro.mp4</property>
    <property name="audio_index">1</property>
    <property name="video_index">0</property>
    <property name="mute_on_pause">0</property>
    <property name="mlt_service">avformat-novalidate</property>
    <property name="seekable">1</property>
    <property name="aspect_ratio">1</property>
    <property name="creation_time">2020-04-13T11:40:34</property>
    <property name="shotcut:hash">9a40f89235cfd4458835cfec463e07c8</property>
    <property name="ignore_points">0</property>
    <property name="shotcut:caption">Stephane_clarinette_totoro.mp4</property>
    <property name="shotcut:skipConvert">1</property>
    <property name="global_feed">1</property>
    <property name="xml">was here</property>
    <filter id="filter103" in="00:00:26.440" out="00:01:32.440">
      <property name="background">colour:0</property>
      <property name="mlt_service">affine</property>
      <property name="shotcut:filter">affineSizePosition</property>
      <property name="transition.fill">1</property>
      <property name="transition.distort">0</property>
      <property name="transition.rect">0 0 1920 1080 1</property>
      <property name="transition.valign">top</property>
      <property name="transition.halign">left</property>
      <property name="shotcut:animIn">00:00:00.000</property>
      <property name="shotcut:animOut">00:00:00.000</property>
      <property name="transition.threads">0</property>
    </filter>
  </producer>
  <producer id="producer59" title="Anonymous Submission" in="00:00:00.000" out="00:03:09.640">
    <property name="length">00:03:09:17</property>
    <property name="eof">pause</property>
    <property name="resource">C:/Users/Camille/OneDrive/Camille/006 - Videos format youtube/Clarinettes/Stephane_clarinette_totoro.mp4</property>
    <property name="audio_index">1</property>
    <property name="video_index">0</property>
    <property name="mute_on_pause">0</property>
    <property name="mlt_service">avformat-novalidate</property>
    <property name="seekable">1</property>
    <property name="aspect_ratio">1</property>
    <property name="creation_time">2020-04-13T11:40:34</property>
    <property name="shotcut:hash">9a40f89235cfd4458835cfec463e07c8</property>
    <property name="ignore_points">0</property>
    <property name="shotcut:caption">Stephane_clarinette_totoro.mp4</property>
    <property name="shotcut:skipConvert">1</property>
    <property name="global_feed">1</property>
    <property name="xml">was here</property>
    <filter id="filter104" in="00:01:32.480" out="00:01:48.680">
      <property name="background">colour:0</property>
      <property name="mlt_service">affine</property>
      <property name="shotcut:filter">affineSizePosition</property>
      <property name="transition.fill">1</property>
      <property name="transition.distort">0</property>
      <property name="transition.rect">0 0 1920 1080 1</property>
      <property name="transition.valign">top</property>
      <property name="transition.halign">left</property>
      <property name="shotcut:animIn">00:00:00.000</property>
      <property name="shotcut:animOut">00:00:00.000</property>
      <property name="transition.threads">0</property>
    </filter>
    <filter id="filter105" in="00:01:32.480" out="00:01:48.680">
      <property name="window">75</property>
      <property name="max_gain">20dB</property>
      <property name="mlt_service">volume</property>
      <property name="shotcut:filter">muteVolume</property>
      <property name="gain">0</property>
    </filter>
  </producer>
  <producer id="producer60" title="Anonymous Submission" in="00:00:00.000" out="00:03:09.640">
    <property name="length">00:03:09:17</property>
    <property name="eof">pause</property>
    <property name="resource">C:/Users/Camille/OneDrive/Camille/006 - Videos format youtube/Clarinettes/Stephane_clarinette_totoro.mp4</property>
    <property name="audio_index">1</property>
    <property name="video_index">0</property>
    <property name="mute_on_pause">0</property>
    <property name="mlt_service">avformat-novalidate</property>
    <property name="seekable">1</property>
    <property name="aspect_ratio">1</property>
    <property name="creation_time">2020-04-13T11:40:34</property>
    <property name="shotcut:hash">9a40f89235cfd4458835cfec463e07c8</property>
    <property name="ignore_points">0</property>
    <property name="shotcut:caption">Stephane_clarinette_totoro.mp4</property>
    <property name="shotcut:skipConvert">1</property>
    <property name="global_feed">1</property>
    <property name="xml">was here</property>
    <filter id="filter106" in="00:01:48.720" out="00:03:04.440">
      <property name="background">colour:0</property>
      <property name="mlt_service">affine</property>
      <property name="shotcut:filter">affineSizePosition</property>
      <property name="transition.fill">1</property>
      <property name="transition.distort">0</property>
      <property name="transition.rect">0 0 1920 1080 1</property>
      <property name="transition.valign">top</property>
      <property name="transition.halign">left</property>
      <property name="shotcut:animIn">00:00:00.000</property>
      <property name="shotcut:animOut">00:00:00.000</property>
      <property name="transition.threads">0</property>
    </filter>
  </producer>
  <producer id="producer61" title="Anonymous Submission" in="00:00:00.000" out="00:03:09.640">
    <property name="length">00:03:09:17</property>
    <property name="eof">pause</property>
    <property name="resource">C:/Users/Camille/OneDrive/Camille/006 - Videos format youtube/Clarinettes/Stephane_clarinette_totoro.mp4</property>
    <property name="audio_index">1</property>
    <property name="video_index">0</property>
    <property name="mute_on_pause">0</property>
    <property name="mlt_service">avformat-novalidate</property>
    <property name="seekable">1</property>
    <property name="aspect_ratio">1</property>
    <property name="creation_time">2020-04-13T11:40:34</property>
    <property name="shotcut:hash">9a40f89235cfd4458835cfec463e07c8</property>
    <property name="ignore_points">0</property>
    <property name="shotcut:caption">Stephane_clarinette_totoro.mp4</property>
    <property name="shotcut:skipConvert">1</property>
    <property name="global_feed">1</property>
    <property name="xml">was here</property>
    <filter id="filter107" in="00:03:04.480" out="00:03:09.640">
      <property name="background">colour:0</property>
      <property name="mlt_service">affine</property>
      <property name="shotcut:filter">affineSizePosition</property>
      <property name="transition.fill">1</property>
      <property name="transition.distort">0</property>
      <property name="transition.rect">0 0 1920 1080 1</property>
      <property name="transition.valign">top</property>
      <property name="transition.halign">left</property>
      <property name="shotcut:animIn">00:00:00.000</property>
      <property name="shotcut:animOut">00:00:00.000</property>
      <property name="transition.threads">0</property>
    </filter>
    <filter id="filter108" in="00:03:04.480" out="00:03:09.640">
      <property name="window">75</property>
      <property name="max_gain">20dB</property>
      <property name="mlt_service">volume</property>
      <property name="shotcut:filter">muteVolume</property>
      <property name="gain">0</property>
    </filter>
  </producer>
  <playlist id="playlist9">
    <property name="shotcut:video">1</property>
    <property name="shotcut:name">Stephane</property>
    <property name="shotcut:lock">1</property>
    <blank length="00:00:10.200"/>
    <entry producer="producer57" in="00:00:00.000" out="00:00:26.400"/>
    <entry producer="producer58" in="00:00:26.440" out="00:01:32.440"/>
    <entry producer="producer59" in="00:01:32.480" out="00:01:48.680"/>
    <entry producer="producer60" in="00:01:48.720" out="00:03:04.440"/>
    <entry producer="producer61" in="00:03:04.480" out="00:03:09.640"/>
    <filter id="filter109" out="00:03:23.320">
      <property name="window">75</property>
      <property name="max_gain">20dB</property>
      <property name="level">-11</property>
      <property name="mlt_service">volume</property>
    </filter>
  </playlist>
  <producer id="producer62" title="Anonymous Submission" in="00:00:00.000" out="00:03:32.360">
    <property name="length">00:03:32:10</property>
    <property name="eof">pause</property>
    <property name="resource">C:/Users/Camille/OneDrive/Camille/006 - Videos format youtube/Clarinettes/PierreG_clarinette_totoro.mp4</property>
    <property name="audio_index">1</property>
    <property name="video_index">0</property>
    <property name="mute_on_pause">0</property>
    <property name="mlt_service">avformat-novalidate</property>
    <property name="seekable">1</property>
    <property name="aspect_ratio">1</property>
    <property name="creation_time">2020-04-17T16:52:31</property>
    <property name="shotcut:hash">6b94f299793e62fd39584d2bc1ca99a4</property>
    <property name="ignore_points">0</property>
    <property name="shotcut:caption">PierreG_clarinette_totoro.mp4</property>
    <property name="shotcut:skipConvert">1</property>
    <property name="global_feed">1</property>
    <property name="xml">was here</property>
    <filter id="filter110" in="00:00:15.680" out="00:00:45.760">
      <property name="background">colour:0</property>
      <property name="mlt_service">affine</property>
      <property name="shotcut:filter">affineSizePosition</property>
      <property name="transition.fill">1</property>
      <property name="transition.distort">0</property>
      <property name="transition.rect">0 0 1920 1080 1</property>
      <property name="transition.valign">top</property>
      <property name="transition.halign">left</property>
      <property name="shotcut:animIn">00:00:00.000</property>
      <property name="shotcut:animOut">00:00:00.000</property>
      <property name="transition.threads">0</property>
    </filter>
    <filter id="filter111" in="00:00:15.680" out="00:00:45.760">
      <property name="window">75</property>
      <property name="max_gain">20dB</property>
      <property name="mlt_service">volume</property>
      <property name="shotcut:filter">muteVolume</property>
      <property name="gain">0</property>
    </filter>
  </producer>
  <producer id="producer63" title="Anonymous Submission" in="00:00:00.000" out="00:03:32.360">
    <property name="length">00:03:32:10</property>
    <property name="eof">pause</property>
    <property name="resource">C:/Users/Camille/OneDrive/Camille/006 - Videos format youtube/Clarinettes/PierreG_clarinette_totoro.mp4</property>
    <property name="audio_index">1</property>
    <property name="video_index">0</property>
    <property name="mute_on_pause">0</property>
    <property name="mlt_service">avformat-novalidate</property>
    <property name="seekable">1</property>
    <property name="aspect_ratio">1</property>
    <property name="creation_time">2020-04-17T16:52:31</property>
    <property name="shotcut:hash">6b94f299793e62fd39584d2bc1ca99a4</property>
    <property name="ignore_points">0</property>
    <property name="shotcut:caption">PierreG_clarinette_totoro.mp4</property>
    <property name="shotcut:skipConvert">1</property>
    <property name="global_feed">1</property>
    <property name="xml">was here</property>
    <filter id="filter112" in="00:00:45.800" out="00:00:49.680">
      <property name="background">colour:0</property>
      <property name="mlt_service">affine</property>
      <property name="shotcut:filter">affineSizePosition</property>
      <property name="transition.fill">1</property>
      <property name="transition.distort">0</property>
      <property name="transition.rect">0 0 1920 1080 1</property>
      <property name="transition.valign">top</property>
      <property name="transition.halign">left</property>
      <property name="shotcut:animIn">00:00:00.000</property>
      <property name="shotcut:animOut">00:00:00.000</property>
      <property name="transition.threads">0</property>
    </filter>
  </producer>
  <producer id="producer64" title="Anonymous Submission" in="00:00:00.000" out="00:03:32.360">
    <property name="length">00:03:32:10</property>
    <property name="eof">pause</property>
    <property name="resource">C:/Users/Camille/OneDrive/Camille/006 - Videos format youtube/Clarinettes/PierreG_clarinette_totoro.mp4</property>
    <property name="audio_index">1</property>
    <property name="video_index">0</property>
    <property name="mute_on_pause">0</property>
    <property name="mlt_service">avformat-novalidate</property>
    <property name="seekable">1</property>
    <property name="aspect_ratio">1</property>
    <property name="creation_time">2020-04-17T16:52:31</property>
    <property name="shotcut:hash">6b94f299793e62fd39584d2bc1ca99a4</property>
    <property name="ignore_points">0</property>
    <property name="shotcut:caption">PierreG_clarinette_totoro.mp4</property>
    <property name="shotcut:skipConvert">1</property>
    <property name="global_feed">1</property>
    <property name="xml">was here</property>
    <filter id="filter113" in="00:00:49.720" out="00:00:53.480">
      <property name="background">colour:0</property>
      <property name="mlt_service">affine</property>
      <property name="shotcut:filter">affineSizePosition</property>
      <property name="transition.fill">1</property>
      <property name="transition.distort">0</property>
      <property name="transition.rect">0 0 1920 1080 1</property>
      <property name="transition.valign">top</property>
      <property name="transition.halign">left</property>
      <property name="shotcut:animIn">00:00:00.000</property>
      <property name="shotcut:animOut">00:00:00.000</property>
      <property name="transition.threads">0</property>
    </filter>
    <filter id="filter114" in="00:00:49.720" out="00:00:53.480">
      <property name="window">75</property>
      <property name="max_gain">20dB</property>
      <property name="mlt_service">volume</property>
      <property name="shotcut:filter">muteVolume</property>
      <property name="gain">0</property>
    </filter>
  </producer>
  <producer id="producer65" title="Anonymous Submission" in="00:00:00.000" out="00:03:32.360">
    <property name="length">00:03:32:10</property>
    <property name="eof">pause</property>
    <property name="resource">C:/Users/Camille/OneDrive/Camille/006 - Videos format youtube/Clarinettes/PierreG_clarinette_totoro.mp4</property>
    <property name="audio_index">1</property>
    <property name="video_index">0</property>
    <property name="mute_on_pause">0</property>
    <property name="mlt_service">avformat-novalidate</property>
    <property name="seekable">1</property>
    <property name="aspect_ratio">1</property>
    <property name="creation_time">2020-04-17T16:52:31</property>
    <property name="shotcut:hash">6b94f299793e62fd39584d2bc1ca99a4</property>
    <property name="ignore_points">0</property>
    <property name="shotcut:caption">PierreG_clarinette_totoro.mp4</property>
    <property name="shotcut:skipConvert">1</property>
    <property name="global_feed">1</property>
    <property name="xml">was here</property>
    <filter id="filter115" in="00:00:53.520" out="00:00:56.320">
      <property name="background">colour:0</property>
      <property name="mlt_service">affine</property>
      <property name="shotcut:filter">affineSizePosition</property>
      <property name="transition.fill">1</property>
      <property name="transition.distort">0</property>
      <property name="transition.rect">0 0 1920 1080 1</property>
      <property name="transition.valign">top</property>
      <property name="transition.halign">left</property>
      <property name="shotcut:animIn">00:00:00.000</property>
      <property name="shotcut:animOut">00:00:00.000</property>
      <property name="transition.threads">0</property>
    </filter>
    <filter id="filter116" in="00:00:53.520" out="00:00:56.320">
      <property name="window">75</property>
      <property name="max_gain">20dB</property>
      <property name="level">-8</property>
      <property name="mlt_service">volume</property>
    </filter>
  </producer>
  <producer id="producer66" title="Anonymous Submission" in="00:00:00.000" out="00:03:32.360">
    <property name="length">00:03:32:10</property>
    <property name="eof">pause</property>
    <property name="resource">C:/Users/Camille/OneDrive/Camille/006 - Videos format youtube/Clarinettes/PierreG_clarinette_totoro.mp4</property>
    <property name="audio_index">1</property>
    <property name="video_index">0</property>
    <property name="mute_on_pause">0</property>
    <property name="mlt_service">avformat-novalidate</property>
    <property name="seekable">1</property>
    <property name="aspect_ratio">1</property>
    <property name="creation_time">2020-04-17T16:52:31</property>
    <property name="shotcut:hash">6b94f299793e62fd39584d2bc1ca99a4</property>
    <property name="ignore_points">0</property>
    <property name="shotcut:caption">PierreG_clarinette_totoro.mp4</property>
    <property name="shotcut:skipConvert">1</property>
    <property name="global_feed">1</property>
    <property name="xml">was here</property>
    <filter id="filter117" in="00:00:56.360" out="00:01:12.680">
      <property name="background">colour:0</property>
      <property name="mlt_service">affine</property>
      <property name="shotcut:filter">affineSizePosition</property>
      <property name="transition.fill">1</property>
      <property name="transition.distort">0</property>
      <property name="transition.rect">0 0 1920 1080 1</property>
      <property name="transition.valign">top</property>
      <property name="transition.halign">left</property>
      <property name="shotcut:animIn">00:00:00.000</property>
      <property name="shotcut:animOut">00:00:00.000</property>
      <property name="transition.threads">0</property>
    </filter>
  </producer>
  <producer id="producer67" title="Anonymous Submission" in="00:00:00.000" out="00:03:32.360">
    <property name="length">00:03:32:10</property>
    <property name="eof">pause</property>
    <property name="resource">C:/Users/Camille/OneDrive/Camille/006 - Videos format youtube/Clarinettes/PierreG_clarinette_totoro.mp4</property>
    <property name="audio_index">1</property>
    <property name="video_index">0</property>
    <property name="mute_on_pause">0</property>
    <property name="mlt_service">avformat-novalidate</property>
    <property name="seekable">1</property>
    <property name="aspect_ratio">1</property>
    <property name="creation_time">2020-04-17T16:52:31</property>
    <property name="shotcut:hash">6b94f299793e62fd39584d2bc1ca99a4</property>
    <property name="ignore_points">0</property>
    <property name="shotcut:caption">PierreG_clarinette_totoro.mp4</property>
    <property name="shotcut:skipConvert">1</property>
    <property name="global_feed">1</property>
    <property name="xml">was here</property>
    <filter id="filter118" in="00:01:12.720" out="00:01:20.040">
      <property name="background">colour:0</property>
      <property name="mlt_service">affine</property>
      <property name="shotcut:filter">affineSizePosition</property>
      <property name="transition.fill">1</property>
      <property name="transition.distort">0</property>
      <property name="transition.rect">0 0 1920 1080 1</property>
      <property name="transition.valign">top</property>
      <property name="transition.halign">left</property>
      <property name="shotcut:animIn">00:00:00.000</property>
      <property name="shotcut:animOut">00:00:00.000</property>
      <property name="transition.threads">0</property>
    </filter>
    <filter id="filter119" in="00:01:12.720" out="00:01:20.040">
      <property name="window">75</property>
      <property name="max_gain">20dB</property>
      <property name="mlt_service">volume</property>
      <property name="shotcut:filter">muteVolume</property>
      <property name="gain">0</property>
    </filter>
  </producer>
  <producer id="producer68" title="Anonymous Submission" in="00:00:00.000" out="00:03:32.360">
    <property name="length">00:03:32:10</property>
    <property name="eof">pause</property>
    <property name="resource">C:/Users/Camille/OneDrive/Camille/006 - Videos format youtube/Clarinettes/PierreG_clarinette_totoro.mp4</property>
    <property name="audio_index">1</property>
    <property name="video_index">0</property>
    <property name="mute_on_pause">0</property>
    <property name="mlt_service">avformat-novalidate</property>
    <property name="seekable">1</property>
    <property name="aspect_ratio">1</property>
    <property name="creation_time">2020-04-17T16:52:31</property>
    <property name="shotcut:hash">6b94f299793e62fd39584d2bc1ca99a4</property>
    <property name="ignore_points">0</property>
    <property name="shotcut:caption">PierreG_clarinette_totoro.mp4</property>
    <property name="shotcut:skipConvert">1</property>
    <property name="global_feed">1</property>
    <property name="xml">was here</property>
    <filter id="filter120" in="00:01:20.080" out="00:01:26.200">
      <property name="background">colour:0</property>
      <property name="mlt_service">affine</property>
      <property name="shotcut:filter">affineSizePosition</property>
      <property name="transition.fill">1</property>
      <property name="transition.distort">0</property>
      <property name="transition.rect">0 0 1920 1080 1</property>
      <property name="transition.valign">top</property>
      <property name="transition.halign">left</property>
      <property name="shotcut:animIn">00:00:00.000</property>
      <property name="shotcut:animOut">00:00:00.000</property>
      <property name="transition.threads">0</property>
    </filter>
  </producer>
  <producer id="producer69" title="Anonymous Submission" in="00:00:00.000" out="00:03:32.360">
    <property name="length">00:03:32:10</property>
    <property name="eof">pause</property>
    <property name="resource">C:/Users/Camille/OneDrive/Camille/006 - Videos format youtube/Clarinettes/PierreG_clarinette_totoro.mp4</property>
    <property name="audio_index">1</property>
    <property name="video_index">0</property>
    <property name="mute_on_pause">0</property>
    <property name="mlt_service">avformat-novalidate</property>
    <property name="seekable">1</property>
    <property name="aspect_ratio">1</property>
    <property name="creation_time">2020-04-17T16:52:31</property>
    <property name="shotcut:hash">6b94f299793e62fd39584d2bc1ca99a4</property>
    <property name="ignore_points">0</property>
    <property name="shotcut:caption">PierreG_clarinette_totoro.mp4</property>
    <property name="shotcut:skipConvert">1</property>
    <property name="global_feed">1</property>
    <property name="xml">was here</property>
    <filter id="filter121" in="00:01:26.240" out="00:01:30.600">
      <property name="background">colour:0</property>
      <property name="mlt_service">affine</property>
      <property name="shotcut:filter">affineSizePosition</property>
      <property name="transition.fill">1</property>
      <property name="transition.distort">0</property>
      <property name="transition.rect">0 0 1920 1080 1</property>
      <property name="transition.valign">top</property>
      <property name="transition.halign">left</property>
      <property name="shotcut:animIn">00:00:00.000</property>
      <property name="shotcut:animOut">00:00:00.000</property>
      <property name="transition.threads">0</property>
    </filter>
    <filter id="filter122" in="00:01:26.240" out="00:01:30.600">
      <property name="window">75</property>
      <property name="max_gain">20dB</property>
      <property name="mlt_service">volume</property>
      <property name="shotcut:filter">muteVolume</property>
      <property name="gain">0</property>
    </filter>
  </producer>
  <producer id="producer70" title="Anonymous Submission" in="00:00:00.000" out="00:03:32.360">
    <property name="length">00:03:32:10</property>
    <property name="eof">pause</property>
    <property name="resource">C:/Users/Camille/OneDrive/Camille/006 - Videos format youtube/Clarinettes/PierreG_clarinette_totoro.mp4</property>
    <property name="audio_index">1</property>
    <property name="video_index">0</property>
    <property name="mute_on_pause">0</property>
    <property name="mlt_service">avformat-novalidate</property>
    <property name="seekable">1</property>
    <property name="aspect_ratio">1</property>
    <property name="creation_time">2020-04-17T16:52:31</property>
    <property name="shotcut:hash">6b94f299793e62fd39584d2bc1ca99a4</property>
    <property name="ignore_points">0</property>
    <property name="shotcut:caption">PierreG_clarinette_totoro.mp4</property>
    <property name="shotcut:skipConvert">1</property>
    <property name="global_feed">1</property>
    <property name="xml">was here</property>
    <filter id="filter123" in="00:01:30.640" out="00:01:46.680">
      <property name="background">colour:0</property>
      <property name="mlt_service">affine</property>
      <property name="shotcut:filter">affineSizePosition</property>
      <property name="transition.fill">1</property>
      <property name="transition.distort">0</property>
      <property name="transition.rect">0 0 1920 1080 1</property>
      <property name="transition.valign">top</property>
      <property name="transition.halign">left</property>
      <property name="shotcut:animIn">00:00:00.000</property>
      <property name="shotcut:animOut">00:00:00.000</property>
      <property name="transition.threads">0</property>
    </filter>
  </producer>
  <producer id="producer71" title="Anonymous Submission" in="00:00:00.000" out="00:03:32.360">
    <property name="length">00:03:32:10</property>
    <property name="eof">pause</property>
    <property name="resource">C:/Users/Camille/OneDrive/Camille/006 - Videos format youtube/Clarinettes/PierreG_clarinette_totoro.mp4</property>
    <property name="audio_index">1</property>
    <property name="video_index">0</property>
    <property name="mute_on_pause">0</property>
    <property name="mlt_service">avformat-novalidate</property>
    <property name="seekable">1</property>
    <property name="aspect_ratio">1</property>
    <property name="creation_time">2020-04-17T16:52:31</property>
    <property name="shotcut:hash">6b94f299793e62fd39584d2bc1ca99a4</property>
    <property name="ignore_points">0</property>
    <property name="shotcut:caption">PierreG_clarinette_totoro.mp4</property>
    <property name="shotcut:skipConvert">1</property>
    <property name="global_feed">1</property>
    <property name="xml">was here</property>
    <filter id="filter124" in="00:01:46.720" out="00:02:07.800">
      <property name="background">colour:0</property>
      <property name="mlt_service">affine</property>
      <property name="shotcut:filter">affineSizePosition</property>
      <property name="transition.fill">1</property>
      <property name="transition.distort">0</property>
      <property name="transition.rect">0 0 1920 1080 1</property>
      <property name="transition.valign">top</property>
      <property name="transition.halign">left</property>
      <property name="shotcut:animIn">00:00:00.000</property>
      <property name="shotcut:animOut">00:00:00.000</property>
      <property name="transition.threads">0</property>
    </filter>
    <filter id="filter125" in="00:01:46.720" out="00:02:07.800">
      <property name="window">75</property>
      <property name="max_gain">20dB</property>
      <property name="mlt_service">volume</property>
      <property name="shotcut:filter">muteVolume</property>
      <property name="gain">0</property>
    </filter>
  </producer>
  <producer id="producer72" title="Anonymous Submission" in="00:00:00.000" out="00:03:32.360">
    <property name="length">00:03:32:10</property>
    <property name="eof">pause</property>
    <property name="resource">C:/Users/Camille/OneDrive/Camille/006 - Videos format youtube/Clarinettes/PierreG_clarinette_totoro.mp4</property>
    <property name="audio_index">1</property>
    <property name="video_index">0</property>
    <property name="mute_on_pause">0</property>
    <property name="mlt_service">avformat-novalidate</property>
    <property name="seekable">1</property>
    <property name="aspect_ratio">1</property>
    <property name="creation_time">2020-04-17T16:52:31</property>
    <property name="shotcut:hash">6b94f299793e62fd39584d2bc1ca99a4</property>
    <property name="ignore_points">0</property>
    <property name="shotcut:caption">PierreG_clarinette_totoro.mp4</property>
    <property name="shotcut:skipConvert">1</property>
    <property name="global_feed">1</property>
    <property name="xml">was here</property>
    <filter id="filter126" in="00:02:07.840" out="00:02:22.160">
      <property name="background">colour:0</property>
      <property name="mlt_service">affine</property>
      <property name="shotcut:filter">affineSizePosition</property>
      <property name="transition.fill">1</property>
      <property name="transition.distort">0</property>
      <property name="transition.rect">0 0 1920 1080 1</property>
      <property name="transition.valign">top</property>
      <property name="transition.halign">left</property>
      <property name="shotcut:animIn">00:00:00.000</property>
      <property name="shotcut:animOut">00:00:00.000</property>
      <property name="transition.threads">0</property>
    </filter>
  </producer>
  <producer id="producer73" title="Anonymous Submission" in="00:00:00.000" out="00:03:32.360">
    <property name="length">00:03:32:10</property>
    <property name="eof">pause</property>
    <property name="resource">C:/Users/Camille/OneDrive/Camille/006 - Videos format youtube/Clarinettes/PierreG_clarinette_totoro.mp4</property>
    <property name="audio_index">1</property>
    <property name="video_index">0</property>
    <property name="mute_on_pause">0</property>
    <property name="mlt_service">avformat-novalidate</property>
    <property name="seekable">1</property>
    <property name="aspect_ratio">1</property>
    <property name="creation_time">2020-04-17T16:52:31</property>
    <property name="shotcut:hash">6b94f299793e62fd39584d2bc1ca99a4</property>
    <property name="ignore_points">0</property>
    <property name="shotcut:caption">PierreG_clarinette_totoro.mp4</property>
    <property name="shotcut:skipConvert">1</property>
    <property name="global_feed">1</property>
    <property name="xml">was here</property>
    <filter id="filter127" in="00:02:22.200" out="00:02:28.120">
      <property name="background">colour:0</property>
      <property name="mlt_service">affine</property>
      <property name="shotcut:filter">affineSizePosition</property>
      <property name="transition.fill">1</property>
      <property name="transition.distort">0</property>
      <property name="transition.rect">0 0 1920 1080 1</property>
      <property name="transition.valign">top</property>
      <property name="transition.halign">left</property>
      <property name="shotcut:animIn">00:00:00.000</property>
      <property name="shotcut:animOut">00:00:00.000</property>
      <property name="transition.threads">0</property>
    </filter>
    <filter id="filter128" in="00:02:22.200" out="00:02:28.120">
      <property name="window">75</property>
      <property name="max_gain">20dB</property>
      <property name="mlt_service">volume</property>
      <property name="shotcut:filter">muteVolume</property>
      <property name="gain">0</property>
    </filter>
  </producer>
  <producer id="producer74" title="Anonymous Submission" in="00:00:00.000" out="00:03:32.360">
    <property name="length">00:03:32:10</property>
    <property name="eof">pause</property>
    <property name="resource">C:/Users/Camille/OneDrive/Camille/006 - Videos format youtube/Clarinettes/PierreG_clarinette_totoro.mp4</property>
    <property name="audio_index">1</property>
    <property name="video_index">0</property>
    <property name="mute_on_pause">0</property>
    <property name="mlt_service">avformat-novalidate</property>
    <property name="seekable">1</property>
    <property name="aspect_ratio">1</property>
    <property name="creation_time">2020-04-17T16:52:31</property>
    <property name="shotcut:hash">6b94f299793e62fd39584d2bc1ca99a4</property>
    <property name="ignore_points">0</property>
    <property name="shotcut:caption">PierreG_clarinette_totoro.mp4</property>
    <property name="shotcut:skipConvert">1</property>
    <property name="global_feed">1</property>
    <property name="xml">was here</property>
    <filter id="filter129" in="00:02:28.160" out="00:03:02.720">
      <property name="background">colour:0</property>
      <property name="mlt_service">affine</property>
      <property name="shotcut:filter">affineSizePosition</property>
      <property name="transition.fill">1</property>
      <property name="transition.distort">0</property>
      <property name="transition.rect">0 0 1920 1080 1</property>
      <property name="transition.valign">top</property>
      <property name="transition.halign">left</property>
      <property name="shotcut:animIn">00:00:00.000</property>
      <property name="shotcut:animOut">00:00:00.000</property>
      <property name="transition.threads">0</property>
    </filter>
  </producer>
  <producer id="producer75" title="Anonymous Submission" in="00:00:00.000" out="00:03:32.360">
    <property name="length">00:03:32:10</property>
    <property name="eof">pause</property>
    <property name="resource">C:/Users/Camille/OneDrive/Camille/006 - Videos format youtube/Clarinettes/PierreG_clarinette_totoro.mp4</property>
    <property name="audio_index">1</property>
    <property name="video_index">0</property>
    <property name="mute_on_pause">0</property>
    <property name="mlt_service">avformat-novalidate</property>
    <property name="seekable">1</property>
    <property name="aspect_ratio">1</property>
    <property name="creation_time">2020-04-17T16:52:31</property>
    <property name="shotcut:hash">6b94f299793e62fd39584d2bc1ca99a4</property>
    <property name="ignore_points">0</property>
    <property name="shotcut:caption">PierreG_clarinette_totoro.mp4</property>
    <property name="shotcut:skipConvert">1</property>
    <property name="global_feed">1</property>
    <property name="xml">was here</property>
    <filter id="filter130" in="00:03:02.760" out="00:03:06.880">
      <property name="background">colour:0</property>
      <property name="mlt_service">affine</property>
      <property name="shotcut:filter">affineSizePosition</property>
      <property name="transition.fill">1</property>
      <property name="transition.distort">0</property>
      <property name="transition.rect">0 0 1920 1080 1</property>
      <property name="transition.valign">top</property>
      <property name="transition.halign">left</property>
      <property name="shotcut:animIn">00:00:00.000</property>
      <property name="shotcut:animOut">00:00:00.000</property>
      <property name="transition.threads">0</property>
    </filter>
    <filter id="filter131" in="00:03:02.760" out="00:03:06.880">
      <property name="window">75</property>
      <property name="max_gain">20dB</property>
      <property name="mlt_service">volume</property>
      <property name="shotcut:filter">muteVolume</property>
      <property name="gain">0</property>
    </filter>
  </producer>
  <producer id="producer76" title="Anonymous Submission" in="00:00:00.000" out="00:03:32.360">
    <property name="length">00:03:32:10</property>
    <property name="eof">pause</property>
    <property name="resource">C:/Users/Camille/OneDrive/Camille/006 - Videos format youtube/Clarinettes/PierreG_clarinette_totoro.mp4</property>
    <property name="audio_index">1</property>
    <property name="video_index">0</property>
    <property name="mute_on_pause">0</property>
    <property name="mlt_service">avformat-novalidate</property>
    <property name="seekable">1</property>
    <property name="aspect_ratio">1</property>
    <property name="creation_time">2020-04-17T16:52:31</property>
    <property name="shotcut:hash">6b94f299793e62fd39584d2bc1ca99a4</property>
    <property name="ignore_points">0</property>
    <property name="shotcut:caption">PierreG_clarinette_totoro.mp4</property>
    <property name="shotcut:skipConvert">1</property>
    <property name="global_feed">1</property>
    <property name="xml">was here</property>
    <filter id="filter132" in="00:03:06.920" out="00:03:12.080">
      <property name="background">colour:0</property>
      <property name="mlt_service">affine</property>
      <property name="shotcut:filter">affineSizePosition</property>
      <property name="transition.fill">1</property>
      <property name="transition.distort">0</property>
      <property name="transition.rect">0 0 1920 1080 1</property>
      <property name="transition.valign">top</property>
      <property name="transition.halign">left</property>
      <property name="shotcut:animIn">00:00:00.000</property>
      <property name="shotcut:animOut">00:00:00.000</property>
      <property name="transition.threads">0</property>
    </filter>
    <filter id="filter133" in="00:03:06.920" out="00:03:12.080">
      <property name="window">75</property>
      <property name="max_gain">20dB</property>
      <property name="mlt_service">volume</property>
      <property name="shotcut:filter">muteVolume</property>
      <property name="gain">0</property>
    </filter>
  </producer>
  <producer id="producer77" title="Anonymous Submission" in="00:00:00.000" out="00:03:32.360">
    <property name="length">00:03:32:10</property>
    <property name="eof">pause</property>
    <property name="resource">C:/Users/Camille/OneDrive/Camille/006 - Videos format youtube/Clarinettes/PierreG_clarinette_totoro.mp4</property>
    <property name="audio_index">1</property>
    <property name="video_index">0</property>
    <property name="mute_on_pause">0</property>
    <property name="mlt_service">avformat-novalidate</property>
    <property name="seekable">1</property>
    <property name="aspect_ratio">1</property>
    <property name="creation_time">2020-04-17T16:52:31</property>
    <property name="shotcut:hash">6b94f299793e62fd39584d2bc1ca99a4</property>
    <property name="ignore_points">0</property>
    <property name="shotcut:caption">PierreG_clarinette_totoro.mp4</property>
    <property name="shotcut:skipConvert">1</property>
    <property name="global_feed">1</property>
    <property name="xml">was here</property>
    <filter id="filter134" in="00:03:12.120" out="00:03:28.160">
      <property name="background">colour:0</property>
      <property name="mlt_service">affine</property>
      <property name="shotcut:filter">affineSizePosition</property>
      <property name="transition.fill">1</property>
      <property name="transition.distort">0</property>
      <property name="transition.rect">0 0 1920 1080 1</property>
      <property name="transition.valign">top</property>
      <property name="transition.halign">left</property>
      <property name="shotcut:animIn">00:00:00.000</property>
      <property name="shotcut:animOut">00:00:00.000</property>
      <property name="transition.threads">0</property>
    </filter>
    <filter id="filter135" in="00:03:12.120" out="00:03:28.160">
      <property name="window">75</property>
      <property name="max_gain">20dB</property>
      <property name="mlt_service">volume</property>
      <property name="shotcut:filter">muteVolume</property>
      <property name="gain">0</property>
    </filter>
  </producer>
  <producer id="producer78" title="Anonymous Submission" in="00:00:00.000" out="00:03:32.360">
    <property name="length">00:03:32:10</property>
    <property name="eof">pause</property>
    <property name="resource">C:/Users/Camille/OneDrive/Camille/006 - Videos format youtube/Clarinettes/PierreG_clarinette_totoro.mp4</property>
    <property name="audio_index">1</property>
    <property name="video_index">0</property>
    <property name="mute_on_pause">0</property>
    <property name="mlt_service">avformat-novalidate</property>
    <property name="seekable">1</property>
    <property name="aspect_ratio">1</property>
    <property name="creation_time">2020-04-17T16:52:31</property>
    <property name="shotcut:hash">6b94f299793e62fd39584d2bc1ca99a4</property>
    <property name="ignore_points">0</property>
    <property name="shotcut:caption">PierreG_clarinette_totoro.mp4</property>
    <property name="shotcut:skipConvert">1</property>
    <property name="global_feed">1</property>
    <property name="xml">was here</property>
    <filter id="filter136" in="00:03:28.200" out="00:03:32.360">
      <property name="background">colour:0</property>
      <property name="mlt_service">affine</property>
      <property name="shotcut:filter">affineSizePosition</property>
      <property name="transition.fill">1</property>
      <property name="transition.distort">0</property>
      <property name="transition.rect">0 0 1920 1080 1</property>
      <property name="transition.valign">top</property>
      <property name="transition.halign">left</property>
      <property name="shotcut:animIn">00:00:00.000</property>
      <property name="shotcut:animOut">00:00:00.000</property>
      <property name="transition.threads">0</property>
    </filter>
  </producer>
  <playlist id="playlist10">
    <property name="shotcut:video">1</property>
    <property name="shotcut:name">Pierre_G</property>
    <property name="shotcut:lock">1</property>
    <blank length="00:00:06.640"/>
    <entry producer="producer62" in="00:00:15.680" out="00:00:45.760"/>
    <entry producer="producer63" in="00:00:45.800" out="00:00:49.680"/>
    <entry producer="producer64" in="00:00:49.720" out="00:00:53.480"/>
    <entry producer="producer65" in="00:00:53.520" out="00:00:56.320"/>
    <entry producer="producer66" in="00:00:56.360" out="00:01:12.680"/>
    <entry producer="producer67" in="00:01:12.720" out="00:01:20.040"/>
    <entry producer="producer68" in="00:01:20.080" out="00:01:26.200"/>
    <entry producer="producer69" in="00:01:26.240" out="00:01:30.600"/>
    <entry producer="producer70" in="00:01:30.640" out="00:01:46.680"/>
    <entry producer="producer71" in="00:01:46.720" out="00:02:07.800"/>
    <entry producer="producer72" in="00:02:07.840" out="00:02:22.160"/>
    <entry producer="producer73" in="00:02:22.200" out="00:02:28.120"/>
    <entry producer="producer74" in="00:02:28.160" out="00:03:02.720"/>
    <entry producer="producer75" in="00:03:02.760" out="00:03:06.880"/>
    <entry producer="producer76" in="00:03:06.920" out="00:03:12.080"/>
    <entry producer="producer77" in="00:03:12.120" out="00:03:28.160"/>
    <entry producer="producer78" in="00:03:28.200" out="00:03:32.360"/>
    <filter id="filter137" out="00:03:23.320">
      <property name="window">75</property>
      <property name="max_gain">20dB</property>
      <property name="level">-11</property>
      <property name="mlt_service">volume</property>
    </filter>
  </playlist>
  <producer id="producer79" title="Anonymous Submission" in="00:00:00.000" out="00:03:04.400">
    <property name="length">00:03:04:11</property>
    <property name="eof">pause</property>
    <property name="resource">C:/Users/Camille/OneDrive/Camille/006 - Videos format youtube/Clarinettes/Violette_clarinette_totoro.mp4</property>
    <property name="audio_index">1</property>
    <property name="video_index">0</property>
    <property name="mute_on_pause">0</property>
    <property name="mlt_service">avformat-novalidate</property>
    <property name="seekable">1</property>
    <property name="aspect_ratio">1</property>
    <property name="creation_time">2020-04-13T15:00:56</property>
    <property name="shotcut:hash">be5d154cb44417d0faf36686c0a4cbbc</property>
    <property name="ignore_points">0</property>
    <property name="shotcut:caption">Violette_clarinette_totoro.mp4</property>
    <property name="shotcut:skipConvert">1</property>
    <property name="global_feed">1</property>
    <property name="xml">was here</property>
    <filter id="filter138" out="00:00:22.640">
      <property name="background">colour:0</property>
      <property name="mlt_service">affine</property>
      <property name="shotcut:filter">affineSizePosition</property>
      <property name="transition.fill">1</property>
      <property name="transition.distort">0</property>
      <property name="transition.rect">0 0 1920 1080 1</property>
      <property name="transition.valign">top</property>
      <property name="transition.halign">left</property>
      <property name="shotcut:animIn">00:00:00.000</property>
      <property name="shotcut:animOut">00:00:00.000</property>
      <property name="transition.threads">0</property>
    </filter>
    <filter id="filter139" out="00:00:22.640">
      <property name="window">75</property>
      <property name="max_gain">20dB</property>
      <property name="mlt_service">volume</property>
      <property name="shotcut:filter">muteVolume</property>
      <property name="gain">0</property>
    </filter>
  </producer>
  <producer id="producer80" title="Anonymous Submission" in="00:00:00.000" out="00:03:04.400">
    <property name="length">00:03:04:11</property>
    <property name="eof">pause</property>
    <property name="resource">C:/Users/Camille/OneDrive/Camille/006 - Videos format youtube/Clarinettes/Violette_clarinette_totoro.mp4</property>
    <property name="audio_index">1</property>
    <property name="video_index">0</property>
    <property name="mute_on_pause">0</property>
    <property name="mlt_service">avformat-novalidate</property>
    <property name="seekable">1</property>
    <property name="aspect_ratio">1</property>
    <property name="creation_time">2020-04-13T15:00:56</property>
    <property name="shotcut:hash">be5d154cb44417d0faf36686c0a4cbbc</property>
    <property name="ignore_points">0</property>
    <property name="shotcut:caption">Violette_clarinette_totoro.mp4</property>
    <property name="shotcut:skipConvert">1</property>
    <property name="global_feed">1</property>
    <property name="xml">was here</property>
    <filter id="filter140" in="00:00:22.680" out="00:01:28.640">
      <property name="background">colour:0</property>
      <property name="mlt_service">affine</property>
      <property name="shotcut:filter">affineSizePosition</property>
      <property name="transition.fill">1</property>
      <property name="transition.distort">0</property>
      <property name="transition.rect">0 0 1920 1080 1</property>
      <property name="transition.valign">top</property>
      <property name="transition.halign">left</property>
      <property name="shotcut:animIn">00:00:00.000</property>
      <property name="shotcut:animOut">00:00:00.000</property>
      <property name="transition.threads">0</property>
    </filter>
  </producer>
  <producer id="producer81" title="Anonymous Submission" in="00:00:00.000" out="00:03:04.400">
    <property name="length">00:03:04:11</property>
    <property name="eof">pause</property>
    <property name="resource">C:/Users/Camille/OneDrive/Camille/006 - Videos format youtube/Clarinettes/Violette_clarinette_totoro.mp4</property>
    <property name="audio_index">1</property>
    <property name="video_index">0</property>
    <property name="mute_on_pause">0</property>
    <property name="mlt_service">avformat-novalidate</property>
    <property name="seekable">1</property>
    <property name="aspect_ratio">1</property>
    <property name="creation_time">2020-04-13T15:00:56</property>
    <property name="shotcut:hash">be5d154cb44417d0faf36686c0a4cbbc</property>
    <property name="ignore_points">0</property>
    <property name="shotcut:caption">Violette_clarinette_totoro.mp4</property>
    <property name="shotcut:skipConvert">1</property>
    <property name="global_feed">1</property>
    <property name="xml">was here</property>
    <filter id="filter141" in="00:01:28.680" out="00:01:44.960">
      <property name="background">colour:0</property>
      <property name="mlt_service">affine</property>
      <property name="shotcut:filter">affineSizePosition</property>
      <property name="transition.fill">1</property>
      <property name="transition.distort">0</property>
      <property name="transition.rect">0 0 1920 1080 1</property>
      <property name="transition.valign">top</property>
      <property name="transition.halign">left</property>
      <property name="shotcut:animIn">00:00:00.000</property>
      <property name="shotcut:animOut">00:00:00.000</property>
      <property name="transition.threads">0</property>
    </filter>
    <filter id="filter142" in="00:01:28.680" out="00:01:44.960">
      <property name="window">75</property>
      <property name="max_gain">20dB</property>
      <property name="mlt_service">volume</property>
      <property name="shotcut:filter">muteVolume</property>
      <property name="gain">0</property>
    </filter>
  </producer>
  <producer id="producer82" title="Anonymous Submission" in="00:00:00.000" out="00:03:04.400">
    <property name="length">00:03:04:11</property>
    <property name="eof">pause</property>
    <property name="resource">C:/Users/Camille/OneDrive/Camille/006 - Videos format youtube/Clarinettes/Violette_clarinette_totoro.mp4</property>
    <property name="audio_index">1</property>
    <property name="video_index">0</property>
    <property name="mute_on_pause">0</property>
    <property name="mlt_service">avformat-novalidate</property>
    <property name="seekable">1</property>
    <property name="aspect_ratio">1</property>
    <property name="creation_time">2020-04-13T15:00:56</property>
    <property name="shotcut:hash">be5d154cb44417d0faf36686c0a4cbbc</property>
    <property name="ignore_points">0</property>
    <property name="shotcut:caption">Violette_clarinette_totoro.mp4</property>
    <property name="shotcut:skipConvert">1</property>
    <property name="global_feed">1</property>
    <property name="xml">was here</property>
    <filter id="filter143" in="00:01:45.000" out="00:02:39.720">
      <property name="background">colour:0</property>
      <property name="mlt_service">affine</property>
      <property name="shotcut:filter">affineSizePosition</property>
      <property name="transition.fill">1</property>
      <property name="transition.distort">0</property>
      <property name="transition.rect">0 0 1920 1080 1</property>
      <property name="transition.valign">top</property>
      <property name="transition.halign">left</property>
      <property name="shotcut:animIn">00:00:00.000</property>
      <property name="shotcut:animOut">00:00:00.000</property>
      <property name="transition.threads">0</property>
    </filter>
  </producer>
  <producer id="producer83" title="Anonymous Submission" in="00:00:00.000" out="00:03:04.400">
    <property name="length">00:03:04:11</property>
    <property name="eof">pause</property>
    <property name="resource">C:/Users/Camille/OneDrive/Camille/006 - Videos format youtube/Clarinettes/Violette_clarinette_totoro.mp4</property>
    <property name="audio_index">1</property>
    <property name="video_index">0</property>
    <property name="mute_on_pause">0</property>
    <property name="mlt_service">avformat-novalidate</property>
    <property name="seekable">1</property>
    <property name="aspect_ratio">1</property>
    <property name="creation_time">2020-04-13T15:00:56</property>
    <property name="shotcut:hash">be5d154cb44417d0faf36686c0a4cbbc</property>
    <property name="ignore_points">0</property>
    <property name="shotcut:caption">Violette_clarinette_totoro.mp4</property>
    <property name="shotcut:skipConvert">1</property>
    <property name="global_feed">1</property>
    <property name="xml">was here</property>
    <filter id="filter144" in="00:02:39.760" out="00:03:04.400">
      <property name="background">colour:0</property>
      <property name="mlt_service">affine</property>
      <property name="shotcut:filter">affineSizePosition</property>
      <property name="transition.fill">1</property>
      <property name="transition.distort">0</property>
      <property name="transition.rect">0 0 1920 1080 1</property>
      <property name="transition.valign">top</property>
      <property name="transition.halign">left</property>
      <property name="shotcut:animIn">00:00:00.000</property>
      <property name="shotcut:animOut">00:00:00.000</property>
      <property name="transition.threads">0</property>
    </filter>
    <filter id="filter145" in="00:02:39.760" out="00:03:04.400">
      <property name="window">75</property>
      <property name="max_gain">20dB</property>
      <property name="mlt_service">volume</property>
      <property name="shotcut:filter">muteVolume</property>
      <property name="gain">0</property>
    </filter>
  </producer>
  <playlist id="playlist12">
    <property name="shotcut:video">1</property>
    <property name="shotcut:name">Violette</property>
    <property name="shotcut:lock">1</property>
    <blank length="00:00:13.960"/>
    <entry producer="producer79" in="00:00:00.000" out="00:00:22.640"/>
    <entry producer="producer80" in="00:00:22.680" out="00:01:28.640"/>
    <entry producer="producer81" in="00:01:28.680" out="00:01:44.960"/>
    <entry producer="producer82" in="00:01:45.000" out="00:02:39.720"/>
    <entry producer="producer83" in="00:02:39.760" out="00:03:04.400"/>
    <filter id="filter146" out="00:03:23.320">
      <property name="window">75</property>
      <property name="max_gain">20dB</property>
      <property name="level">-10</property>
      <property name="mlt_service">volume</property>
    </filter>
  </playlist>
  <tractor id="tractor0" title="Shotcut version 19.08.05" global_feed="1" in="00:00:00.000" out="00:03:23.320">
    <property name="shotcut">1</property>
    <property name="shotcut:projectAudioChannels">2</property>
    <property name="shotcut:projectFolder">1</property>
    <property name="shotcut:scaleFactor">2.74405</property>
    <track producer="background"/>
    <track producer="playlist1" hide="audio"/>
    <track producer="playlist2" hide="both"/>
    <track producer="playlist3"/>
    <track producer="playlist4"/>
    <track producer="playlist11"/>
    <track producer="playlist5"/>
    <track producer="playlist6"/>
    <track producer="playlist7"/>
    <track producer="playlist8"/>
    <track producer="playlist9"/>
    <track producer="playlist10" hide="video"/>
    <track producer="playlist12" hide="video"/>
    <transition id="transition2">
      <property name="a_track">0</property>
      <property name="b_track">1</property>
      <property name="mlt_service">mix</property>
      <property name="always_active">1</property>
      <property name="sum">1</property>
    </transition>
    <transition id="transition3">
      <property name="a_track">1</property>
      <property name="b_track">1</property>
      <property name="version">0.9</property>
      <property name="mlt_service">frei0r.cairoblend</property>
      <property name="disable">1</property>
    </transition>
    <transition id="transition4">
      <property name="a_track">0</property>
      <property name="b_track">2</property>
      <property name="mlt_service">mix</property>
      <property name="always_active">1</property>
      <property name="sum">1</property>
    </transition>
    <transition id="transition5">
      <property name="a_track">1</property>
      <property name="b_track">2</property>
      <property name="version">0.9</property>
      <property name="mlt_service">frei0r.cairoblend</property>
      <property name="disable">0</property>
    </transition>
    <transition id="transition6">
      <property name="a_track">1</property>
      <property name="b_track">3</property>
      <property name="version">0.9</property>
      <property name="mlt_service">frei0r.cairoblend</property>
    </transition>
    <transition id="transition7">
      <property name="a_track">1</property>
      <property name="b_track">4</property>
      <property name="version">0.9</property>
      <property name="mlt_service">frei0r.cairoblend</property>
    </transition>
    <transition id="transition14">
      <property name="a_track">0</property>
      <property name="b_track">5</property>
      <property name="mlt_service">mix</property>
      <property name="always_active">1</property>
      <property name="sum">1</property>
    </transition>
    <transition id="transition15">
      <property name="a_track">1</property>
      <property name="b_track">5</property>
      <property name="version">0.9</property>
      <property name="mlt_service">frei0r.cairoblend</property>
      <property name="disable">0</property>
    </transition>
    <transition id="transition8">
      <property name="a_track">0</property>
      <property name="b_track">6</property>
      <property name="mlt_service">mix</property>
      <property name="always_active">1</property>
      <property name="sum">1</property>
    </transition>
    <transition id="transition9">
      <property name="a_track">1</property>
      <property name="b_track">6</property>
      <property name="version">0.9</property>
      <property name="mlt_service">frei0r.cairoblend</property>
      <property name="disable">0</property>
    </transition>
    <transition id="transition10">
      <property name="a_track">1</property>
      <property name="b_track">7</property>
      <property name="version">0.9</property>
      <property name="mlt_service">frei0r.cairoblend</property>
    </transition>
    <transition id="transition11">
      <property name="a_track">1</property>
      <property name="b_track">8</property>
      <property name="version">0.9</property>
      <property name="mlt_service">frei0r.cairoblend</property>
    </transition>
    <transition id="transition12">
      <property name="a_track">0</property>
      <property name="b_track">9</property>
      <property name="mlt_service">mix</property>
      <property name="always_active">1</property>
      <property name="sum">1</property>
    </transition>
    <transition id="transition13">
      <property name="a_track">1</property>
      <property name="b_track">9</property>
      <property name="version">0.9</property>
      <property name="mlt_service">frei0r.cairoblend</property>
      <property name="disable">0</property>
    </transition>
    <transition id="transition16">
      <property name="a_track">0</property>
      <property name="b_track">7</property>
      <property name="mlt_service">mix</property>
      <property name="always_active">1</property>
      <property name="sum">1</property>
    </transition>
    <transition id="transition17">
      <property name="a_track">0</property>
      <property name="b_track">4</property>
      <property name="mlt_service">mix</property>
      <property name="always_active">1</property>
      <property name="sum">1</property>
    </transition>
    <transition id="transition18">
      <property name="a_track">0</property>
      <property name="b_track">10</property>
      <property name="mlt_service">mix</property>
      <property name="always_active">1</property>
      <property name="sum">1</property>
    </transition>
    <transition id="transition19">
      <property name="a_track">1</property>
      <property name="b_track">10</property>
      <property name="version">0.9</property>
      <property name="mlt_service">frei0r.cairoblend</property>
      <property name="disable">0</property>
    </transition>
    <transition id="transition20">
      <property name="a_track">1</property>
      <property name="b_track">11</property>
      <property name="version">0.9</property>
      <property name="mlt_service">frei0r.cairoblend</property>
    </transition>
    <transition id="transition21">
      <property name="a_track">0</property>
      <property name="b_track">12</property>
      <property name="mlt_service">mix</property>
      <property name="always_active">1</property>
      <property name="sum">1</property>
    </transition>
    <transition id="transition22">
      <property name="a_track">1</property>
      <property name="b_track">12</property>
      <property name="version">0.9</property>
      <property name="mlt_service">frei0r.cairoblend</property>
      <property name="disable">0</property>
    </transition>
    <transition id="transition23">
      <property name="a_track">0</property>
      <property name="b_track">11</property>
      <property name="mlt_service">mix</property>
      <property name="always_active">1</property>
      <property name="sum">1</property>
    </transition>
    <transition id="transition24">
      <property name="a_track">0</property>
      <property name="b_track">3</property>
      <property name="mlt_service">mix</property>
      <property name="always_active">1</property>
      <property name="sum">1</property>
    </transition>
    <transition id="transition25">
      <property name="a_track">0</property>
      <property name="b_track">8</property>
      <property name="mlt_service">mix</property>
      <property name="always_active">1</property>
      <property name="sum">1</property>
    </transition>
  </tractor>
</mlt>
