<?xml version='1.0' encoding='us-ascii'?>
<mlt LC_NUMERIC="C" producer="main_bin" title="Shotcut version 19.08.05" version="6.17.0">
  <profile colorspace="709" description="HD 1080p 25 fps" display_aspect_den="9" display_aspect_num="16" frame_rate_den="1" frame_rate_num="25" height="1080" progressive="1" sample_aspect_den="1" sample_aspect_num="1" width="1920" />
  <playlist id="main_bin">
    <property name="xml_retain">1</property>
  </playlist>
  <producer id="black" in="00:00:00.000" out="00:03:24.320">
    <property name="length">5109</property>
    <property name="eof">pause</property>
    <property name="resource">0</property>
    <property name="aspect_ratio">1</property>
    <property name="mlt_service">color</property>
    <property name="mlt_image_format">rgb24a</property>
    <property name="set.test_audio">0</property>
  </producer>
  <playlist id="background">
    <entry in="00:00:00.000" out="00:03:24.320" producer="black" />
  </playlist>
  <producer id="producer0" in="00:00:00.000" out="00:02:58.320" title="Anonymous Submission">
    <property name="length">00:02:58:09</property>
    <property name="eof">pause</property>
    <property name="resource">../../006 - Videos format youtube/Chef/Jean-Jacques_chef_totoro.mp4</property>
    <property name="audio_index">1</property>
    <property name="video_index">0</property>
    <property name="mute_on_pause">0</property>
    <property name="mlt_service">avformat-novalidate</property>
    <property name="seekable">1</property>
    <property name="aspect_ratio">1</property>
    <property name="creation_time">2020-04-05T13:55:58</property>
    <property name="shotcut:hash">54631fa1ec31562eee0a931256e35e96</property>
    <property name="ignore_points">0</property>
    <property name="shotcut:caption">Jean-Jacques_chef_totoro.mp4</property>
    <property name="shotcut:skipConvert">1</property>
    <property name="global_feed">1</property>
    <property name="xml">was here</property>
    <filter id="filter0" out="00:02:58.320">
      <property name="background">colour:0</property>
      <property name="mlt_service">affine</property>
      <property name="shotcut:filter">affineSizePosition</property>
      <property name="transition.fill">1</property>
      <property name="transition.distort">0</property>
      <property name="transition.rect">468 263 865 485 1</property>
      <property name="transition.valign">top</property>
      <property name="transition.halign">left</property>
      <property name="shotcut:animIn">00:00:00.000</property>
      <property name="shotcut:animOut">00:00:00.000</property>
      <property name="transition.threads">0</property>
    </filter>
  </producer>
  <playlist id="playlist0">
    <property name="shotcut:video">1</property>
    <property name="shotcut:name">Chef_JJS</property>
    <property name="shotcut:lock">1</property>
    <blank length="00:00:22.320" />
    <entry in="00:00:00.000" out="00:02:58.320" producer="producer0" />
  </playlist>
  <producer id="producer1" in="00:00:00.000" out="03:59:59.960" title="Anonymous Submission">
    <property name="length">04:00:00:00</property>
    <property name="eof">pause</property>
    <property name="resource">#00000000</property>
    <property name="aspect_ratio">1</property>
    <property name="mlt_service">color</property>
    <property name="mlt_image_format">rgb24a</property>
    <property name="shotcut:caption">transparent</property>
    <property name="shotcut:detail">transparent</property>
    <property name="ignore_points">0</property>
    <property name="global_feed">1</property>
    <property name="xml">was here</property>
    <property name="seekable">1</property>
    <filter id="filter1" out="00:00:04.960">
      <property name="argument">Logo EMGB</property>
      <property name="geometry">0 0 1920 1080 1</property>
      <property name="family">Verdana</property>
      <property name="size">1080</property>
      <property name="weight">500</property>
      <property name="style">normal</property>
      <property name="fgcolour">#ffffffff</property>
      <property name="bgcolour">#00000000</property>
      <property name="olcolour">#aa000000</property>
      <property name="pad">0</property>
      <property name="halign">center</property>
      <property name="valign">bottom</property>
      <property name="outline">3</property>
      <property name="mlt_service">dynamictext</property>
      <property name="shotcut:filter">dynamicText</property>
      <property name="shotcut:usePointSize">0</property>
      <property name="shotcut:animIn">00:00:00.000</property>
      <property name="shotcut:animOut">00:00:00.000</property>
    </filter>
  </producer>
  <producer id="producer2" in="00:00:00.000" out="03:59:59.960" title="Anonymous Submission">
    <property name="length">04:00:00:00</property>
    <property name="eof">pause</property>
    <property name="resource">#00000000</property>
    <property name="aspect_ratio">1</property>
    <property name="mlt_service">color</property>
    <property name="mlt_image_format">rgb24a</property>
    <property name="shotcut:caption">transparent</property>
    <property name="shotcut:detail">transparent</property>
    <property name="ignore_points">0</property>
    <property name="global_feed">1</property>
    <property name="xml">was here</property>
    <property name="seekable">1</property>
    <filter id="filter2" in="00:00:05.000" out="00:00:22.400">
      <property name="argument">Temps de marge pour faire apparaitre/entrer les musiciens</property>
      <property name="geometry">0 0 1920 1080 1</property>
      <property name="family">Verdana</property>
      <property name="size">1080</property>
      <property name="weight">500</property>
      <property name="style">normal</property>
      <property name="fgcolour">#ffffffff</property>
      <property name="bgcolour">#00000000</property>
      <property name="olcolour">#aa000000</property>
      <property name="pad">0</property>
      <property name="halign">center</property>
      <property name="valign">bottom</property>
      <property name="outline">3</property>
      <property name="mlt_service">dynamictext</property>
      <property name="shotcut:filter">dynamicText</property>
      <property name="shotcut:usePointSize">0</property>
      <property name="shotcut:animIn">00:00:00.000</property>
      <property name="shotcut:animOut">00:00:00.000</property>
    </filter>
  </producer>
  <playlist id="playlist1">
    <property name="shotcut:video">1</property>
    <property name="shotcut:name">Storyboard</property>
    <property name="shotcut:lock">1</property>
    <entry in="00:00:00.000" out="00:00:04.960" producer="producer1" />
    <entry in="00:00:05.000" out="00:00:22.400" producer="producer2" />
  </playlist>
  <producer id="producer3" in="00:00:00.000" out="00:03:24.560" title="Anonymous Submission">
    <property name="length">00:03:24:15</property>
    <property name="eof">pause</property>
    <property name="resource">../../003 - Bande son/Practice avec texte initial et son youtube.mp4</property>
    <property name="audio_index">1</property>
    <property name="video_index">0</property>
    <property name="mute_on_pause">0</property>
    <property name="mlt_service">avformat-novalidate</property>
    <property name="seekable">1</property>
    <property name="aspect_ratio">1</property>
    <property name="creation_time">2020-04-04T10:52:53</property>
    <property name="shotcut:hash">4799385e220417e9b67b0873b03fdf9a</property>
    <property name="ignore_points">0</property>
    <property name="shotcut:caption">Practice avec texte initial et son youtube.mp4</property>
    <property name="shotcut:skipConvert">1</property>
    <property name="global_feed">1</property>
    <property name="xml">was here</property>
  </producer>
  <playlist id="playlist2">
    <property name="shotcut:video">1</property>
    <property name="shotcut:name">Bande_son_practice</property>
    <property name="shotcut:lock">1</property>
    <blank length="00:00:15.000" />
    <entry in="00:00:18.960" out="00:03:24.560" producer="producer3" />
  </playlist>
  <producer id="producer4" in="00:00:00.000" out="00:03:41.040" title="Anonymous Submission">
    <property name="length">00:03:41:02</property>
    <property name="eof">pause</property>
    <property name="resource">../../006 - Videos format youtube/Trompettes et cornets/Bidou_cornet_totoro.mp4</property>
    <property name="audio_index">1</property>
    <property name="video_index">0</property>
    <property name="mute_on_pause">0</property>
    <property name="mlt_service">avformat-novalidate</property>
    <property name="seekable">1</property>
    <property name="aspect_ratio">1</property>
    <property name="creation_time">2020-04-05T19:25:31</property>
    <property name="shotcut:hash">df47beb18305e9051d91b2aae87978a4</property>
    <property name="ignore_points">0</property>
    <property name="shotcut:caption">Bidou_cornet_totoro.mp4</property>
    <property name="shotcut:skipConvert">1</property>
    <property name="global_feed">1</property>
    <property name="xml">was here</property>
    <filter id="filter3" in="00:00:22.360" out="00:00:49.960">
      <property name="background">colour:0</property>
      <property name="mlt_service">affine</property>
      <property name="shotcut:filter">affineSizePosition</property>
      <property name="transition.fill">1</property>
      <property name="transition.distort">0</property>
      <property name="transition.rect">1211 693 668 375 1</property>
      <property name="transition.valign">top</property>
      <property name="transition.halign">left</property>
      <property name="shotcut:animIn">00:00:00.000</property>
      <property name="shotcut:animOut">00:00:00.000</property>
      <property name="transition.threads">0</property>
    </filter>
    <filter id="filter4" in="00:00:22.360" out="00:00:49.960">
      <property name="window">75</property>
      <property name="max_gain">20dB</property>
      <property name="mlt_service">volume</property>
      <property name="shotcut:filter">muteVolume</property>
      <property name="gain">0</property>
    </filter>
  </producer>
  <producer id="producer5" in="00:00:00.000" out="00:03:41.040" title="Anonymous Submission">
    <property name="length">00:03:41:02</property>
    <property name="eof">pause</property>
    <property name="resource">../../006 - Videos format youtube/Trompettes et cornets/Bidou_cornet_totoro.mp4</property>
    <property name="audio_index">1</property>
    <property name="video_index">0</property>
    <property name="mute_on_pause">0</property>
    <property name="mlt_service">avformat-novalidate</property>
    <property name="seekable">1</property>
    <property name="aspect_ratio">1</property>
    <property name="creation_time">2020-04-05T19:25:31</property>
    <property name="shotcut:hash">df47beb18305e9051d91b2aae87978a4</property>
    <property name="ignore_points">0</property>
    <property name="shotcut:caption">Bidou_cornet_totoro.mp4</property>
    <property name="shotcut:skipConvert">1</property>
    <property name="global_feed">1</property>
    <property name="xml">was here</property>
    <filter id="filter5" in="00:00:50.000" out="00:00:57.280">
      <property name="background">colour:0</property>
      <property name="mlt_service">affine</property>
      <property name="shotcut:filter">affineSizePosition</property>
      <property name="transition.fill">1</property>
      <property name="transition.distort">0</property>
      <property name="transition.rect">1060 631 836 469 1</property>
      <property name="transition.valign">top</property>
      <property name="transition.halign">left</property>
      <property name="shotcut:animIn">00:00:00.000</property>
      <property name="shotcut:animOut">00:00:00.000</property>
      <property name="transition.threads">0</property>
    </filter>
  </producer>
  <producer id="producer6" in="00:00:00.000" out="00:03:41.040" title="Anonymous Submission">
    <property name="length">00:03:41:02</property>
    <property name="eof">pause</property>
    <property name="resource">../../006 - Videos format youtube/Trompettes et cornets/Bidou_cornet_totoro.mp4</property>
    <property name="audio_index">1</property>
    <property name="video_index">0</property>
    <property name="mute_on_pause">0</property>
    <property name="mlt_service">avformat-novalidate</property>
    <property name="seekable">1</property>
    <property name="aspect_ratio">1</property>
    <property name="creation_time">2020-04-05T19:25:31</property>
    <property name="shotcut:hash">df47beb18305e9051d91b2aae87978a4</property>
    <property name="ignore_points">0</property>
    <property name="shotcut:caption">Bidou_cornet_totoro.mp4</property>
    <property name="shotcut:skipConvert">1</property>
    <property name="global_feed">1</property>
    <property name="xml">was here</property>
    <filter id="filter6" in="00:00:57.320" out="00:01:10.160">
      <property name="background">colour:0</property>
      <property name="mlt_service">affine</property>
      <property name="shotcut:filter">affineSizePosition</property>
      <property name="transition.fill">1</property>
      <property name="transition.distort">0</property>
      <property name="transition.rect">1089 640 836 469 1</property>
      <property name="transition.valign">top</property>
      <property name="transition.halign">left</property>
      <property name="shotcut:animIn">00:00:00.000</property>
      <property name="shotcut:animOut">00:00:00.000</property>
      <property name="transition.threads">0</property>
    </filter>
    <filter id="filter7" in="00:00:57.320" out="00:01:10.160">
      <property name="window">75</property>
      <property name="max_gain">20dB</property>
      <property name="mlt_service">volume</property>
      <property name="shotcut:filter">muteVolume</property>
      <property name="gain">0</property>
    </filter>
  </producer>
  <producer id="producer7" in="00:00:00.000" out="00:03:41.040" title="Anonymous Submission">
    <property name="length">00:03:41:02</property>
    <property name="eof">pause</property>
    <property name="resource">../../006 - Videos format youtube/Trompettes et cornets/Bidou_cornet_totoro.mp4</property>
    <property name="audio_index">1</property>
    <property name="video_index">0</property>
    <property name="mute_on_pause">0</property>
    <property name="mlt_service">avformat-novalidate</property>
    <property name="seekable">1</property>
    <property name="aspect_ratio">1</property>
    <property name="creation_time">2020-04-05T19:25:31</property>
    <property name="shotcut:hash">df47beb18305e9051d91b2aae87978a4</property>
    <property name="ignore_points">0</property>
    <property name="shotcut:caption">Bidou_cornet_totoro.mp4</property>
    <property name="shotcut:skipConvert">1</property>
    <property name="global_feed">1</property>
    <property name="xml">was here</property>
    <filter id="filter8" in="00:01:10.200" out="00:01:23.200">
      <property name="background">colour:0</property>
      <property name="mlt_service">affine</property>
      <property name="shotcut:filter">affineSizePosition</property>
      <property name="transition.fill">1</property>
      <property name="transition.distort">0</property>
      <property name="transition.rect">1103 616 836 469 1</property>
      <property name="transition.valign">top</property>
      <property name="transition.halign">left</property>
      <property name="shotcut:animIn">00:00:00.000</property>
      <property name="shotcut:animOut">00:00:00.000</property>
      <property name="transition.threads">0</property>
    </filter>
  </producer>
  <producer id="producer8" in="00:00:00.000" out="00:03:41.040" title="Anonymous Submission">
    <property name="length">00:03:41:02</property>
    <property name="eof">pause</property>
    <property name="resource">../../006 - Videos format youtube/Trompettes et cornets/Bidou_cornet_totoro.mp4</property>
    <property name="audio_index">1</property>
    <property name="video_index">0</property>
    <property name="mute_on_pause">0</property>
    <property name="mlt_service">avformat-novalidate</property>
    <property name="seekable">1</property>
    <property name="aspect_ratio">1</property>
    <property name="creation_time">2020-04-05T19:25:31</property>
    <property name="shotcut:hash">df47beb18305e9051d91b2aae87978a4</property>
    <property name="ignore_points">0</property>
    <property name="shotcut:caption">Bidou_cornet_totoro.mp4</property>
    <property name="shotcut:skipConvert">1</property>
    <property name="global_feed">1</property>
    <property name="xml">was here</property>
    <filter id="filter9" in="00:01:23.240" out="00:01:30.760">
      <property name="background">colour:0</property>
      <property name="mlt_service">affine</property>
      <property name="shotcut:filter">affineSizePosition</property>
      <property name="transition.fill">1</property>
      <property name="transition.distort">0</property>
      <property name="transition.rect">1089 578 836 469 1</property>
      <property name="transition.valign">top</property>
      <property name="transition.halign">left</property>
      <property name="shotcut:animIn">00:00:00.000</property>
      <property name="shotcut:animOut">00:00:00.000</property>
      <property name="transition.threads">0</property>
    </filter>
    <filter id="filter10" in="00:01:23.240" out="00:01:30.760">
      <property name="window">75</property>
      <property name="max_gain">20dB</property>
      <property name="mlt_service">volume</property>
      <property name="shotcut:filter">muteVolume</property>
      <property name="gain">0</property>
    </filter>
  </producer>
  <producer id="producer9" in="00:00:00.000" out="00:03:41.040" title="Anonymous Submission">
    <property name="length">00:03:41:02</property>
    <property name="eof">pause</property>
    <property name="resource">../../006 - Videos format youtube/Trompettes et cornets/Bidou_cornet_totoro.mp4</property>
    <property name="audio_index">1</property>
    <property name="video_index">0</property>
    <property name="mute_on_pause">0</property>
    <property name="mlt_service">avformat-novalidate</property>
    <property name="seekable">1</property>
    <property name="aspect_ratio">1</property>
    <property name="creation_time">2020-04-05T19:25:31</property>
    <property name="shotcut:hash">df47beb18305e9051d91b2aae87978a4</property>
    <property name="ignore_points">0</property>
    <property name="shotcut:caption">Bidou_cornet_totoro.mp4</property>
    <property name="shotcut:skipConvert">1</property>
    <property name="global_feed">1</property>
    <property name="xml">was here</property>
    <filter id="filter11" in="00:01:30.800" out="00:01:51.840">
      <property name="background">colour:0</property>
      <property name="mlt_service">affine</property>
      <property name="shotcut:filter">affineSizePosition</property>
      <property name="transition.fill">1</property>
      <property name="transition.distort">0</property>
      <property name="transition.rect">1070 583 836 469 1</property>
      <property name="transition.valign">top</property>
      <property name="transition.halign">left</property>
      <property name="shotcut:animIn">00:00:00.000</property>
      <property name="shotcut:animOut">00:00:00.000</property>
      <property name="transition.threads">0</property>
    </filter>
  </producer>
  <producer id="producer10" in="00:00:00.000" out="00:03:41.040" title="Anonymous Submission">
    <property name="length">00:03:41:02</property>
    <property name="eof">pause</property>
    <property name="resource">../../006 - Videos format youtube/Trompettes et cornets/Bidou_cornet_totoro.mp4</property>
    <property name="audio_index">1</property>
    <property name="video_index">0</property>
    <property name="mute_on_pause">0</property>
    <property name="mlt_service">avformat-novalidate</property>
    <property name="seekable">1</property>
    <property name="aspect_ratio">1</property>
    <property name="creation_time">2020-04-05T19:25:31</property>
    <property name="shotcut:hash">df47beb18305e9051d91b2aae87978a4</property>
    <property name="ignore_points">0</property>
    <property name="shotcut:caption">Bidou_cornet_totoro.mp4</property>
    <property name="shotcut:skipConvert">1</property>
    <property name="global_feed">1</property>
    <property name="xml">was here</property>
    <filter id="filter12" in="00:01:51.880" out="00:01:55.200">
      <property name="background">colour:0</property>
      <property name="mlt_service">affine</property>
      <property name="shotcut:filter">affineSizePosition</property>
      <property name="transition.fill">1</property>
      <property name="transition.distort">0</property>
      <property name="transition.rect">1094 583 836 469 1</property>
      <property name="transition.valign">top</property>
      <property name="transition.halign">left</property>
      <property name="shotcut:animIn">00:00:00.000</property>
      <property name="shotcut:animOut">00:00:00.000</property>
      <property name="transition.threads">0</property>
    </filter>
    <filter id="filter13" in="00:01:51.880" out="00:01:55.200">
      <property name="window">75</property>
      <property name="max_gain">20dB</property>
      <property name="mlt_service">volume</property>
      <property name="shotcut:filter">muteVolume</property>
      <property name="gain">0</property>
    </filter>
  </producer>
  <producer id="producer11" in="00:00:00.000" out="00:03:41.040" title="Anonymous Submission">
    <property name="length">00:03:41:02</property>
    <property name="eof">pause</property>
    <property name="resource">../../006 - Videos format youtube/Trompettes et cornets/Bidou_cornet_totoro.mp4</property>
    <property name="audio_index">1</property>
    <property name="video_index">0</property>
    <property name="mute_on_pause">0</property>
    <property name="mlt_service">avformat-novalidate</property>
    <property name="seekable">1</property>
    <property name="aspect_ratio">1</property>
    <property name="creation_time">2020-04-05T19:25:31</property>
    <property name="shotcut:hash">df47beb18305e9051d91b2aae87978a4</property>
    <property name="ignore_points">0</property>
    <property name="shotcut:caption">Bidou_cornet_totoro.mp4</property>
    <property name="shotcut:skipConvert">1</property>
    <property name="global_feed">1</property>
    <property name="xml">was here</property>
    <filter id="filter14" in="00:01:55.240" out="00:01:57.680">
      <property name="background">colour:0</property>
      <property name="mlt_service">affine</property>
      <property name="shotcut:filter">affineSizePosition</property>
      <property name="transition.fill">1</property>
      <property name="transition.distort">0</property>
      <property name="transition.rect">1074 559 836 469 1</property>
      <property name="transition.valign">top</property>
      <property name="transition.halign">left</property>
      <property name="shotcut:animIn">00:00:00.000</property>
      <property name="shotcut:animOut">00:00:00.000</property>
      <property name="transition.threads">0</property>
    </filter>
  </producer>
  <producer id="producer12" in="00:00:00.000" out="00:03:41.040" title="Anonymous Submission">
    <property name="length">00:03:41:02</property>
    <property name="eof">pause</property>
    <property name="resource">../../006 - Videos format youtube/Trompettes et cornets/Bidou_cornet_totoro.mp4</property>
    <property name="audio_index">1</property>
    <property name="video_index">0</property>
    <property name="mute_on_pause">0</property>
    <property name="mlt_service">avformat-novalidate</property>
    <property name="seekable">1</property>
    <property name="aspect_ratio">1</property>
    <property name="creation_time">2020-04-05T19:25:31</property>
    <property name="shotcut:hash">df47beb18305e9051d91b2aae87978a4</property>
    <property name="ignore_points">0</property>
    <property name="shotcut:caption">Bidou_cornet_totoro.mp4</property>
    <property name="shotcut:skipConvert">1</property>
    <property name="global_feed">1</property>
    <property name="xml">was here</property>
    <filter id="filter15" in="00:01:57.720" out="00:02:18.680">
      <property name="background">colour:0</property>
      <property name="mlt_service">affine</property>
      <property name="shotcut:filter">affineSizePosition</property>
      <property name="transition.fill">1</property>
      <property name="transition.distort">0</property>
      <property name="transition.rect">1084 573 836 469 1</property>
      <property name="transition.valign">top</property>
      <property name="transition.halign">left</property>
      <property name="shotcut:animIn">00:00:00.000</property>
      <property name="shotcut:animOut">00:00:00.000</property>
      <property name="transition.threads">0</property>
    </filter>
    <filter id="filter16" in="00:01:57.720" out="00:02:18.680">
      <property name="window">75</property>
      <property name="max_gain">20dB</property>
      <property name="mlt_service">volume</property>
      <property name="shotcut:filter">muteVolume</property>
      <property name="gain">0</property>
    </filter>
  </producer>
  <producer id="producer13" in="00:00:00.000" out="00:03:41.040" title="Anonymous Submission">
    <property name="length">00:03:41:02</property>
    <property name="eof">pause</property>
    <property name="resource">../../006 - Videos format youtube/Trompettes et cornets/Bidou_cornet_totoro.mp4</property>
    <property name="audio_index">1</property>
    <property name="video_index">0</property>
    <property name="mute_on_pause">0</property>
    <property name="mlt_service">avformat-novalidate</property>
    <property name="seekable">1</property>
    <property name="aspect_ratio">1</property>
    <property name="creation_time">2020-04-05T19:25:31</property>
    <property name="shotcut:hash">df47beb18305e9051d91b2aae87978a4</property>
    <property name="ignore_points">0</property>
    <property name="shotcut:caption">Bidou_cornet_totoro.mp4</property>
    <property name="shotcut:skipConvert">1</property>
    <property name="global_feed">1</property>
    <property name="xml">was here</property>
    <filter id="filter17" in="00:02:18.720" out="00:03:34.840">
      <property name="background">colour:0</property>
      <property name="mlt_service">affine</property>
      <property name="shotcut:filter">affineSizePosition</property>
      <property name="transition.fill">1</property>
      <property name="transition.distort">0</property>
      <property name="transition.rect">1084 559 836 469 1</property>
      <property name="transition.valign">top</property>
      <property name="transition.halign">left</property>
      <property name="shotcut:animIn">00:00:00.000</property>
      <property name="shotcut:animOut">00:00:00.000</property>
      <property name="transition.threads">0</property>
    </filter>
  </producer>
  <producer id="producer14" in="00:00:00.000" out="00:03:41.040" title="Anonymous Submission">
    <property name="length">00:03:41:02</property>
    <property name="eof">pause</property>
    <property name="resource">../../006 - Videos format youtube/Trompettes et cornets/Bidou_cornet_totoro.mp4</property>
    <property name="audio_index">1</property>
    <property name="video_index">0</property>
    <property name="mute_on_pause">0</property>
    <property name="mlt_service">avformat-novalidate</property>
    <property name="seekable">1</property>
    <property name="aspect_ratio">1</property>
    <property name="creation_time">2020-04-05T19:25:31</property>
    <property name="shotcut:hash">df47beb18305e9051d91b2aae87978a4</property>
    <property name="ignore_points">0</property>
    <property name="shotcut:caption">Bidou_cornet_totoro.mp4</property>
    <property name="shotcut:skipConvert">1</property>
    <property name="global_feed">1</property>
    <property name="xml">was here</property>
    <filter id="filter18" in="00:03:34.880" out="00:03:41.040">
      <property name="background">colour:0</property>
      <property name="mlt_service">affine</property>
      <property name="shotcut:filter">affineSizePosition</property>
      <property name="transition.fill">1</property>
      <property name="transition.distort">0</property>
      <property name="transition.rect">1098 573 836 469 1</property>
      <property name="transition.valign">top</property>
      <property name="transition.halign">left</property>
      <property name="shotcut:animIn">00:00:00.000</property>
      <property name="shotcut:animOut">00:00:00.000</property>
      <property name="transition.threads">0</property>
    </filter>
    <filter id="filter19" in="00:03:34.880" out="00:03:41.040">
      <property name="window">75</property>
      <property name="max_gain">20dB</property>
      <property name="mlt_service">volume</property>
      <property name="shotcut:filter">muteVolume</property>
      <property name="gain">0</property>
    </filter>
  </producer>
  <playlist id="playlist3">
    <property name="shotcut:video">1</property>
    <property name="shotcut:name">Bidou_cornet</property>
    <property name="shotcut:lock">1</property>
    <blank length="00:00:02.240" />
    <entry in="00:00:22.360" out="00:00:49.960" producer="producer4" />
    <entry in="00:00:50.000" out="00:00:57.280" producer="producer5" />
    <entry in="00:00:57.320" out="00:01:10.160" producer="producer6" />
    <entry in="00:01:10.200" out="00:01:23.200" producer="producer7" />
    <entry in="00:01:23.240" out="00:01:30.760" producer="producer8" />
    <entry in="00:01:30.800" out="00:01:51.840" producer="producer9" />
    <entry in="00:01:51.880" out="00:01:55.200" producer="producer10" />
    <entry in="00:01:55.240" out="00:01:57.680" producer="producer11" />
    <entry in="00:01:57.720" out="00:02:18.680" producer="producer12" />
    <entry in="00:02:18.720" out="00:03:34.840" producer="producer13" />
    <entry in="00:03:34.880" out="00:03:41.040" producer="producer14" />
    <filter id="filter20" out="00:03:24.320">
      <property name="window">75</property>
      <property name="max_gain">20dB</property>
      <property name="level">-11</property>
      <property name="mlt_service">volume</property>
    </filter>
  </playlist>
  <producer id="producer15" in="00:00:00.000" out="00:03:02.520" title="Anonymous Submission">
    <property name="length">00:03:02:14</property>
    <property name="eof">pause</property>
    <property name="resource">../../006 - Videos format youtube/Trompettes et cornets/Serge_trompette_totoro.mp4</property>
    <property name="audio_index">1</property>
    <property name="video_index">0</property>
    <property name="mute_on_pause">0</property>
    <property name="mlt_service">avformat-novalidate</property>
    <property name="seekable">1</property>
    <property name="aspect_ratio">1</property>
    <property name="creation_time">2020-04-12T19:40:43</property>
    <property name="shotcut:hash">8ef8fab703d506ba08497a54257ebc1e</property>
    <property name="ignore_points">0</property>
    <property name="shotcut:caption">Serge_trompette_totoro.mp4</property>
    <property name="shotcut:skipConvert">1</property>
    <property name="global_feed">1</property>
    <property name="xml">was here</property>
    <filter id="filter21" out="00:00:18.360">
      <property name="background">colour:0</property>
      <property name="mlt_service">affine</property>
      <property name="shotcut:filter">affineSizePosition</property>
      <property name="transition.fill">1</property>
      <property name="transition.distort">0</property>
      <property name="transition.rect">0 550 941 528 1</property>
      <property name="transition.valign">top</property>
      <property name="transition.halign">left</property>
      <property name="shotcut:animIn">00:00:00.000</property>
      <property name="shotcut:animOut">00:00:00.000</property>
      <property name="transition.threads">0</property>
    </filter>
    <filter id="filter22" out="00:00:18.360">
      <property name="window">75</property>
      <property name="max_gain">20dB</property>
      <property name="level">-8</property>
      <property name="mlt_service">volume</property>
    </filter>
    <filter id="filter23" out="00:00:18.360">
      <property name="window">75</property>
      <property name="max_gain">20dB</property>
      <property name="mlt_service">volume</property>
      <property name="shotcut:filter">muteVolume</property>
      <property name="gain">0</property>
    </filter>
  </producer>
  <producer id="producer16" in="00:00:00.000" out="00:03:02.520" title="Anonymous Submission">
    <property name="length">00:03:02:14</property>
    <property name="eof">pause</property>
    <property name="resource">../../006 - Videos format youtube/Trompettes et cornets/Serge_trompette_totoro.mp4</property>
    <property name="audio_index">1</property>
    <property name="video_index">0</property>
    <property name="mute_on_pause">0</property>
    <property name="mlt_service">avformat-novalidate</property>
    <property name="seekable">1</property>
    <property name="aspect_ratio">1</property>
    <property name="creation_time">2020-04-12T19:40:43</property>
    <property name="shotcut:hash">8ef8fab703d506ba08497a54257ebc1e</property>
    <property name="ignore_points">0</property>
    <property name="shotcut:caption">Serge_trompette_totoro.mp4</property>
    <property name="shotcut:skipConvert">1</property>
    <property name="global_feed">1</property>
    <property name="xml">was here</property>
    <filter id="filter24" in="00:00:18.400" out="00:01:17.280">
      <property name="background">colour:0</property>
      <property name="mlt_service">affine</property>
      <property name="shotcut:filter">affineSizePosition</property>
      <property name="transition.fill">1</property>
      <property name="transition.distort">0</property>
      <property name="transition.rect">0 621 813 457 1</property>
      <property name="transition.valign">top</property>
      <property name="transition.halign">left</property>
      <property name="shotcut:animIn">00:00:00.000</property>
      <property name="shotcut:animOut">00:00:00.000</property>
      <property name="transition.threads">0</property>
    </filter>
    <filter id="filter25" in="00:00:18.400" out="00:01:17.280">
      <property name="window">75</property>
      <property name="max_gain">20dB</property>
      <property name="level">-9</property>
      <property name="mlt_service">volume</property>
    </filter>
  </producer>
  <producer id="producer17" in="00:00:00.000" out="00:03:02.520" title="Anonymous Submission">
    <property name="length">00:03:02:14</property>
    <property name="eof">pause</property>
    <property name="resource">../../006 - Videos format youtube/Trompettes et cornets/Serge_trompette_totoro.mp4</property>
    <property name="audio_index">1</property>
    <property name="video_index">0</property>
    <property name="mute_on_pause">0</property>
    <property name="mlt_service">avformat-novalidate</property>
    <property name="seekable">1</property>
    <property name="aspect_ratio">1</property>
    <property name="creation_time">2020-04-12T19:40:43</property>
    <property name="shotcut:hash">8ef8fab703d506ba08497a54257ebc1e</property>
    <property name="ignore_points">0</property>
    <property name="shotcut:caption">Serge_trompette_totoro.mp4</property>
    <property name="shotcut:skipConvert">1</property>
    <property name="global_feed">1</property>
    <property name="xml">was here</property>
    <filter id="filter26" in="00:01:17.320" out="00:01:18.920">
      <property name="background">colour:0</property>
      <property name="mlt_service">affine</property>
      <property name="shotcut:filter">affineSizePosition</property>
      <property name="transition.fill">1</property>
      <property name="transition.distort">0</property>
      <property name="transition.rect">0 593 865 485 1</property>
      <property name="transition.valign">top</property>
      <property name="transition.halign">left</property>
      <property name="shotcut:animIn">00:00:00.000</property>
      <property name="shotcut:animOut">00:00:00.000</property>
      <property name="transition.threads">0</property>
    </filter>
    <filter id="filter27" in="00:01:17.320" out="00:01:18.920">
      <property name="window">75</property>
      <property name="max_gain">20dB</property>
      <property name="level">-8</property>
      <property name="mlt_service">volume</property>
    </filter>
    <filter id="filter28" in="00:01:17.320" out="00:01:18.920">
      <property name="window">75</property>
      <property name="max_gain">20dB</property>
      <property name="mlt_service">volume</property>
      <property name="shotcut:filter">muteVolume</property>
      <property name="gain">0</property>
    </filter>
  </producer>
  <producer id="producer18" in="00:00:00.000" out="00:03:02.520" title="Anonymous Submission">
    <property name="length">00:03:02:14</property>
    <property name="eof">pause</property>
    <property name="resource">../../006 - Videos format youtube/Trompettes et cornets/Serge_trompette_totoro.mp4</property>
    <property name="audio_index">1</property>
    <property name="video_index">0</property>
    <property name="mute_on_pause">0</property>
    <property name="mlt_service">avformat-novalidate</property>
    <property name="seekable">1</property>
    <property name="aspect_ratio">1</property>
    <property name="creation_time">2020-04-12T19:40:43</property>
    <property name="shotcut:hash">8ef8fab703d506ba08497a54257ebc1e</property>
    <property name="ignore_points">0</property>
    <property name="shotcut:caption">Serge_trompette_totoro.mp4</property>
    <property name="shotcut:skipConvert">1</property>
    <property name="global_feed">1</property>
    <property name="xml">was here</property>
    <filter id="filter29" in="00:01:18.960" out="00:01:22.920">
      <property name="background">colour:0</property>
      <property name="mlt_service">affine</property>
      <property name="shotcut:filter">affineSizePosition</property>
      <property name="transition.fill">1</property>
      <property name="transition.distort">0</property>
      <property name="transition.rect">0 545 950 533 1</property>
      <property name="transition.valign">top</property>
      <property name="transition.halign">left</property>
      <property name="shotcut:animIn">00:00:00.000</property>
      <property name="shotcut:animOut">00:00:00.000</property>
      <property name="transition.threads">0</property>
    </filter>
    <filter id="filter30" in="00:01:18.960" out="00:01:22.920">
      <property name="window">75</property>
      <property name="max_gain">20dB</property>
      <property name="level">-9</property>
      <property name="mlt_service">volume</property>
    </filter>
  </producer>
  <producer id="producer19" in="00:00:00.000" out="00:03:02.520" title="Anonymous Submission">
    <property name="length">00:03:02:14</property>
    <property name="eof">pause</property>
    <property name="resource">../../006 - Videos format youtube/Trompettes et cornets/Serge_trompette_totoro.mp4</property>
    <property name="audio_index">1</property>
    <property name="video_index">0</property>
    <property name="mute_on_pause">0</property>
    <property name="mlt_service">avformat-novalidate</property>
    <property name="seekable">1</property>
    <property name="aspect_ratio">1</property>
    <property name="creation_time">2020-04-12T19:40:43</property>
    <property name="shotcut:hash">8ef8fab703d506ba08497a54257ebc1e</property>
    <property name="ignore_points">0</property>
    <property name="shotcut:caption">Serge_trompette_totoro.mp4</property>
    <property name="shotcut:skipConvert">1</property>
    <property name="global_feed">1</property>
    <property name="xml">was here</property>
    <filter id="filter31" in="00:01:22.960" out="00:01:44.120">
      <property name="background">colour:0</property>
      <property name="mlt_service">affine</property>
      <property name="shotcut:filter">affineSizePosition</property>
      <property name="transition.fill">1</property>
      <property name="transition.distort">0</property>
      <property name="transition.rect">0 554 933 524 1</property>
      <property name="transition.valign">top</property>
      <property name="transition.halign">left</property>
      <property name="shotcut:animIn">00:00:00.000</property>
      <property name="shotcut:animOut">00:00:00.000</property>
      <property name="transition.threads">0</property>
    </filter>
    <filter id="filter32" in="00:01:22.960" out="00:01:44.120">
      <property name="window">75</property>
      <property name="max_gain">20dB</property>
      <property name="level">-8</property>
      <property name="mlt_service">volume</property>
    </filter>
    <filter id="filter33" in="00:01:22.960" out="00:01:44.120">
      <property name="window">75</property>
      <property name="max_gain">20dB</property>
      <property name="mlt_service">volume</property>
      <property name="shotcut:filter">muteVolume</property>
      <property name="gain">0</property>
    </filter>
  </producer>
  <producer id="producer20" in="00:00:00.000" out="00:03:02.520" title="Anonymous Submission">
    <property name="length">00:03:02:14</property>
    <property name="eof">pause</property>
    <property name="resource">../../006 - Videos format youtube/Trompettes et cornets/Serge_trompette_totoro.mp4</property>
    <property name="audio_index">1</property>
    <property name="video_index">0</property>
    <property name="mute_on_pause">0</property>
    <property name="mlt_service">avformat-novalidate</property>
    <property name="seekable">1</property>
    <property name="aspect_ratio">1</property>
    <property name="creation_time">2020-04-12T19:40:43</property>
    <property name="shotcut:hash">8ef8fab703d506ba08497a54257ebc1e</property>
    <property name="ignore_points">0</property>
    <property name="shotcut:caption">Serge_trompette_totoro.mp4</property>
    <property name="shotcut:skipConvert">1</property>
    <property name="global_feed">1</property>
    <property name="xml">was here</property>
    <filter id="filter34" in="00:01:44.160" out="00:02:59.640">
      <property name="background">colour:0</property>
      <property name="mlt_service">affine</property>
      <property name="shotcut:filter">affineSizePosition</property>
      <property name="transition.fill">1</property>
      <property name="transition.distort">0</property>
      <property name="transition.rect">0 526 984 552 1</property>
      <property name="transition.valign">top</property>
      <property name="transition.halign">left</property>
      <property name="shotcut:animIn">00:00:00.000</property>
      <property name="shotcut:animOut">00:00:00.000</property>
      <property name="transition.threads">0</property>
    </filter>
    <filter id="filter35" in="00:01:44.160" out="00:02:59.640">
      <property name="window">75</property>
      <property name="max_gain">20dB</property>
      <property name="level">-9</property>
      <property name="mlt_service">volume</property>
    </filter>
  </producer>
  <producer id="producer21" in="00:00:00.000" out="00:03:02.520" title="Anonymous Submission">
    <property name="length">00:03:02:14</property>
    <property name="eof">pause</property>
    <property name="resource">../../006 - Videos format youtube/Trompettes et cornets/Serge_trompette_totoro.mp4</property>
    <property name="audio_index">1</property>
    <property name="video_index">0</property>
    <property name="mute_on_pause">0</property>
    <property name="mlt_service">avformat-novalidate</property>
    <property name="seekable">1</property>
    <property name="aspect_ratio">1</property>
    <property name="creation_time">2020-04-12T19:40:43</property>
    <property name="shotcut:hash">8ef8fab703d506ba08497a54257ebc1e</property>
    <property name="ignore_points">0</property>
    <property name="shotcut:caption">Serge_trompette_totoro.mp4</property>
    <property name="shotcut:skipConvert">1</property>
    <property name="global_feed">1</property>
    <property name="xml">was here</property>
    <filter id="filter36" in="00:02:59.680" out="00:03:02.520">
      <property name="background">colour:0</property>
      <property name="mlt_service">affine</property>
      <property name="shotcut:filter">affineSizePosition</property>
      <property name="transition.fill">1</property>
      <property name="transition.distort">0</property>
      <property name="transition.rect">0 478 1069 600 1</property>
      <property name="transition.valign">top</property>
      <property name="transition.halign">left</property>
      <property name="shotcut:animIn">00:00:00.000</property>
      <property name="shotcut:animOut">00:00:00.000</property>
      <property name="transition.threads">0</property>
    </filter>
    <filter id="filter37" in="00:02:59.680" out="00:03:02.520">
      <property name="window">75</property>
      <property name="max_gain">20dB</property>
      <property name="level">-8</property>
      <property name="mlt_service">volume</property>
    </filter>
    <filter id="filter38" in="00:02:59.680" out="00:03:02.520">
      <property name="window">75</property>
      <property name="max_gain">20dB</property>
      <property name="mlt_service">volume</property>
      <property name="shotcut:filter">muteVolume</property>
      <property name="gain">0</property>
    </filter>
  </producer>
  <playlist id="playlist4">
    <property name="shotcut:video">1</property>
    <property name="shotcut:name">Serge_arrive</property>
    <property name="shotcut:lock">1</property>
    <blank length="00:00:14.680" />
    <entry in="00:00:00.000" out="00:00:18.360" producer="producer15" />
    <entry in="00:00:18.400" out="00:01:17.280" producer="producer16" />
    <entry in="00:01:17.320" out="00:01:18.920" producer="producer17" />
    <entry in="00:01:18.960" out="00:01:22.920" producer="producer18" />
    <entry in="00:01:22.960" out="00:01:44.120" producer="producer19" />
    <entry in="00:01:44.160" out="00:02:59.640" producer="producer20" />
    <entry in="00:02:59.680" out="00:03:02.520" producer="producer21" />
  </playlist>
  <producer id="producer22" in="00:00:00.000" out="00:03:14.040" title="Anonymous Submission">
    <property name="length">00:03:14:02</property>
    <property name="eof">pause</property>
    <property name="resource">../../006 - Videos format youtube/Trompettes et cornets/Patrick_trompette_totoro.mp4</property>
    <property name="audio_index">1</property>
    <property name="video_index">0</property>
    <property name="mute_on_pause">0</property>
    <property name="mlt_service">avformat-novalidate</property>
    <property name="seekable">1</property>
    <property name="aspect_ratio">1</property>
    <property name="creation_time">2020-04-18T08:28:18</property>
    <property name="shotcut:hash">d27ce9def695a820a31c307fda0c41f7</property>
    <property name="ignore_points">0</property>
    <property name="shotcut:caption">Patrick_trompette_totoro.mp4</property>
    <property name="shotcut:skipConvert">1</property>
    <property name="global_feed">1</property>
    <property name="xml">was here</property>
    <filter id="filter39" out="00:00:43.680">
      <property name="background">colour:0</property>
      <property name="mlt_service">affine</property>
      <property name="shotcut:filter">affineSizePosition</property>
      <property name="transition.fill">1</property>
      <property name="transition.distort">0</property>
      <property name="transition.rect">1038 0 882 495 1</property>
      <property name="transition.valign">top</property>
      <property name="transition.halign">left</property>
      <property name="shotcut:animIn">00:00:00.000</property>
      <property name="shotcut:animOut">00:00:00.000</property>
      <property name="transition.threads">0</property>
    </filter>
    <filter id="filter40" out="00:00:43.680">
      <property name="window">75</property>
      <property name="max_gain">20dB</property>
      <property name="mlt_service">volume</property>
      <property name="shotcut:filter">muteVolume</property>
      <property name="gain">0</property>
    </filter>
  </producer>
  <producer id="producer23" in="00:00:00.000" out="00:03:14.040" title="Anonymous Submission">
    <property name="length">00:03:14:02</property>
    <property name="eof">pause</property>
    <property name="resource">../../006 - Videos format youtube/Trompettes et cornets/Patrick_trompette_totoro.mp4</property>
    <property name="audio_index">1</property>
    <property name="video_index">0</property>
    <property name="mute_on_pause">0</property>
    <property name="mlt_service">avformat-novalidate</property>
    <property name="seekable">1</property>
    <property name="aspect_ratio">1</property>
    <property name="creation_time">2020-04-18T08:28:18</property>
    <property name="shotcut:hash">d27ce9def695a820a31c307fda0c41f7</property>
    <property name="ignore_points">0</property>
    <property name="shotcut:caption">Patrick_trompette_totoro.mp4</property>
    <property name="shotcut:skipConvert">1</property>
    <property name="global_feed">1</property>
    <property name="xml">was here</property>
    <filter id="filter41" in="00:00:43.720" out="00:00:50.600">
      <property name="background">colour:0</property>
      <property name="mlt_service">affine</property>
      <property name="shotcut:filter">affineSizePosition</property>
      <property name="transition.fill">1</property>
      <property name="transition.distort">0</property>
      <property name="transition.rect">1047 0 873 490 1</property>
      <property name="transition.valign">top</property>
      <property name="transition.halign">left</property>
      <property name="shotcut:animIn">00:00:00.000</property>
      <property name="shotcut:animOut">00:00:00.000</property>
      <property name="transition.threads">0</property>
    </filter>
  </producer>
  <producer id="producer24" in="00:00:00.000" out="00:03:14.040" title="Anonymous Submission">
    <property name="length">00:03:14:02</property>
    <property name="eof">pause</property>
    <property name="resource">../../006 - Videos format youtube/Trompettes et cornets/Patrick_trompette_totoro.mp4</property>
    <property name="audio_index">1</property>
    <property name="video_index">0</property>
    <property name="mute_on_pause">0</property>
    <property name="mlt_service">avformat-novalidate</property>
    <property name="seekable">1</property>
    <property name="aspect_ratio">1</property>
    <property name="creation_time">2020-04-18T08:28:18</property>
    <property name="shotcut:hash">d27ce9def695a820a31c307fda0c41f7</property>
    <property name="ignore_points">0</property>
    <property name="shotcut:caption">Patrick_trompette_totoro.mp4</property>
    <property name="shotcut:skipConvert">1</property>
    <property name="global_feed">1</property>
    <property name="xml">was here</property>
    <filter id="filter42" in="00:00:50.640" out="00:00:56.400">
      <property name="background">colour:0</property>
      <property name="mlt_service">affine</property>
      <property name="shotcut:filter">affineSizePosition</property>
      <property name="transition.fill">1</property>
      <property name="transition.distort">0</property>
      <property name="transition.rect">1004 0 916 514 1</property>
      <property name="transition.valign">top</property>
      <property name="transition.halign">left</property>
      <property name="shotcut:animIn">00:00:00.000</property>
      <property name="shotcut:animOut">00:00:00.000</property>
      <property name="transition.threads">0</property>
    </filter>
    <filter id="filter43" in="00:00:50.640" out="00:00:56.400">
      <property name="window">75</property>
      <property name="max_gain">20dB</property>
      <property name="level">-5</property>
      <property name="mlt_service">volume</property>
    </filter>
  </producer>
  <producer id="producer25" in="00:00:00.000" out="00:03:14.040" title="Anonymous Submission">
    <property name="length">00:03:14:02</property>
    <property name="eof">pause</property>
    <property name="resource">../../006 - Videos format youtube/Trompettes et cornets/Patrick_trompette_totoro.mp4</property>
    <property name="audio_index">1</property>
    <property name="video_index">0</property>
    <property name="mute_on_pause">0</property>
    <property name="mlt_service">avformat-novalidate</property>
    <property name="seekable">1</property>
    <property name="aspect_ratio">1</property>
    <property name="creation_time">2020-04-18T08:28:18</property>
    <property name="shotcut:hash">d27ce9def695a820a31c307fda0c41f7</property>
    <property name="ignore_points">0</property>
    <property name="shotcut:caption">Patrick_trompette_totoro.mp4</property>
    <property name="shotcut:skipConvert">1</property>
    <property name="global_feed">1</property>
    <property name="xml">was here</property>
    <filter id="filter44" in="00:00:56.440" out="00:01:04.440">
      <property name="background">colour:0</property>
      <property name="mlt_service">affine</property>
      <property name="shotcut:filter">affineSizePosition</property>
      <property name="transition.fill">1</property>
      <property name="transition.distort">0</property>
      <property name="transition.rect">1081 0 839 471 1</property>
      <property name="transition.valign">top</property>
      <property name="transition.halign">left</property>
      <property name="shotcut:animIn">00:00:00.000</property>
      <property name="shotcut:animOut">00:00:00.000</property>
      <property name="transition.threads">0</property>
    </filter>
    <filter id="filter45" in="00:00:56.440" out="00:01:04.440">
      <property name="window">75</property>
      <property name="max_gain">20dB</property>
      <property name="mlt_service">volume</property>
      <property name="shotcut:filter">muteVolume</property>
      <property name="gain">0</property>
    </filter>
  </producer>
  <producer id="producer26" in="00:00:00.000" out="00:03:14.040" title="Anonymous Submission">
    <property name="length">00:03:14:02</property>
    <property name="eof">pause</property>
    <property name="resource">../../006 - Videos format youtube/Trompettes et cornets/Patrick_trompette_totoro.mp4</property>
    <property name="audio_index">1</property>
    <property name="video_index">0</property>
    <property name="mute_on_pause">0</property>
    <property name="mlt_service">avformat-novalidate</property>
    <property name="seekable">1</property>
    <property name="aspect_ratio">1</property>
    <property name="creation_time">2020-04-18T08:28:18</property>
    <property name="shotcut:hash">d27ce9def695a820a31c307fda0c41f7</property>
    <property name="ignore_points">0</property>
    <property name="shotcut:caption">Patrick_trompette_totoro.mp4</property>
    <property name="shotcut:skipConvert">1</property>
    <property name="global_feed">1</property>
    <property name="xml">was here</property>
    <filter id="filter46" in="00:01:04.480" out="00:01:10.800">
      <property name="background">colour:0</property>
      <property name="mlt_service">affine</property>
      <property name="shotcut:filter">affineSizePosition</property>
      <property name="transition.fill">1</property>
      <property name="transition.distort">0</property>
      <property name="transition.rect">1038 0 882 495 1</property>
      <property name="transition.valign">top</property>
      <property name="transition.halign">left</property>
      <property name="shotcut:animIn">00:00:00.000</property>
      <property name="shotcut:animOut">00:00:00.000</property>
      <property name="transition.threads">0</property>
    </filter>
  </producer>
  <producer id="producer27" in="00:00:00.000" out="00:03:14.040" title="Anonymous Submission">
    <property name="length">00:03:14:02</property>
    <property name="eof">pause</property>
    <property name="resource">../../006 - Videos format youtube/Trompettes et cornets/Patrick_trompette_totoro.mp4</property>
    <property name="audio_index">1</property>
    <property name="video_index">0</property>
    <property name="mute_on_pause">0</property>
    <property name="mlt_service">avformat-novalidate</property>
    <property name="seekable">1</property>
    <property name="aspect_ratio">1</property>
    <property name="creation_time">2020-04-18T08:28:18</property>
    <property name="shotcut:hash">d27ce9def695a820a31c307fda0c41f7</property>
    <property name="ignore_points">0</property>
    <property name="shotcut:caption">Patrick_trompette_totoro.mp4</property>
    <property name="shotcut:skipConvert">1</property>
    <property name="global_feed">1</property>
    <property name="xml">was here</property>
    <filter id="filter47" in="00:01:10.840" out="00:01:11.000">
      <property name="background">colour:0</property>
      <property name="mlt_service">affine</property>
      <property name="shotcut:filter">affineSizePosition</property>
      <property name="transition.fill">1</property>
      <property name="transition.distort">0</property>
      <property name="transition.rect">0 0 1920 1080 1</property>
      <property name="transition.valign">top</property>
      <property name="transition.halign">left</property>
      <property name="shotcut:animIn">00:00:00.000</property>
      <property name="shotcut:animOut">00:00:00.000</property>
      <property name="transition.threads">0</property>
    </filter>
    <filter id="filter48" in="00:01:10.840" out="00:01:11.000">
      <property name="window">75</property>
      <property name="max_gain">20dB</property>
      <property name="level">-10</property>
      <property name="mlt_service">volume</property>
    </filter>
  </producer>
  <producer id="producer28" in="00:00:00.000" out="00:03:14.040" title="Anonymous Submission">
    <property name="length">00:03:14:02</property>
    <property name="eof">pause</property>
    <property name="resource">../../006 - Videos format youtube/Trompettes et cornets/Patrick_trompette_totoro.mp4</property>
    <property name="audio_index">1</property>
    <property name="video_index">0</property>
    <property name="mute_on_pause">0</property>
    <property name="mlt_service">avformat-novalidate</property>
    <property name="seekable">1</property>
    <property name="aspect_ratio">1</property>
    <property name="creation_time">2020-04-18T08:28:18</property>
    <property name="shotcut:hash">d27ce9def695a820a31c307fda0c41f7</property>
    <property name="ignore_points">0</property>
    <property name="shotcut:caption">Patrick_trompette_totoro.mp4</property>
    <property name="shotcut:skipConvert">1</property>
    <property name="global_feed">1</property>
    <property name="xml">was here</property>
    <filter id="filter49" in="00:01:11.040" out="00:01:28.320">
      <property name="background">colour:0</property>
      <property name="mlt_service">affine</property>
      <property name="shotcut:filter">affineSizePosition</property>
      <property name="transition.fill">1</property>
      <property name="transition.distort">0</property>
      <property name="transition.rect">1200 0 720 404 1</property>
      <property name="transition.valign">top</property>
      <property name="transition.halign">left</property>
      <property name="shotcut:animIn">00:00:00.000</property>
      <property name="shotcut:animOut">00:00:00.000</property>
      <property name="transition.threads">0</property>
    </filter>
  </producer>
  <producer id="producer29" in="00:00:00.000" out="00:03:14.040" title="Anonymous Submission">
    <property name="length">00:03:14:02</property>
    <property name="eof">pause</property>
    <property name="resource">../../006 - Videos format youtube/Trompettes et cornets/Patrick_trompette_totoro.mp4</property>
    <property name="audio_index">1</property>
    <property name="video_index">0</property>
    <property name="mute_on_pause">0</property>
    <property name="mlt_service">avformat-novalidate</property>
    <property name="seekable">1</property>
    <property name="aspect_ratio">1</property>
    <property name="creation_time">2020-04-18T08:28:18</property>
    <property name="shotcut:hash">d27ce9def695a820a31c307fda0c41f7</property>
    <property name="ignore_points">0</property>
    <property name="shotcut:caption">Patrick_trompette_totoro.mp4</property>
    <property name="shotcut:skipConvert">1</property>
    <property name="global_feed">1</property>
    <property name="xml">was here</property>
    <filter id="filter50" in="00:01:28.360" out="00:02:06.280">
      <property name="background">colour:0</property>
      <property name="mlt_service">affine</property>
      <property name="shotcut:filter">affineSizePosition</property>
      <property name="transition.fill">1</property>
      <property name="transition.distort">0</property>
      <property name="transition.rect">1166 0 754 423 1</property>
      <property name="transition.valign">top</property>
      <property name="transition.halign">left</property>
      <property name="shotcut:animIn">00:00:00.000</property>
      <property name="shotcut:animOut">00:00:00.000</property>
      <property name="transition.threads">0</property>
    </filter>
    <filter id="filter51" in="00:01:28.360" out="00:02:06.280">
      <property name="window">75</property>
      <property name="max_gain">20dB</property>
      <property name="mlt_service">volume</property>
      <property name="shotcut:filter">muteVolume</property>
      <property name="gain">0</property>
    </filter>
  </producer>
  <producer id="producer30" in="00:00:00.000" out="00:03:14.040" title="Anonymous Submission">
    <property name="length">00:03:14:02</property>
    <property name="eof">pause</property>
    <property name="resource">../../006 - Videos format youtube/Trompettes et cornets/Patrick_trompette_totoro.mp4</property>
    <property name="audio_index">1</property>
    <property name="video_index">0</property>
    <property name="mute_on_pause">0</property>
    <property name="mlt_service">avformat-novalidate</property>
    <property name="seekable">1</property>
    <property name="aspect_ratio">1</property>
    <property name="creation_time">2020-04-18T08:28:18</property>
    <property name="shotcut:hash">d27ce9def695a820a31c307fda0c41f7</property>
    <property name="ignore_points">0</property>
    <property name="shotcut:caption">Patrick_trompette_totoro.mp4</property>
    <property name="shotcut:skipConvert">1</property>
    <property name="global_feed">1</property>
    <property name="xml">was here</property>
    <filter id="filter52" in="00:02:06.320" out="00:02:06.680">
      <property name="background">colour:0</property>
      <property name="mlt_service">affine</property>
      <property name="shotcut:filter">affineSizePosition</property>
      <property name="transition.fill">1</property>
      <property name="transition.distort">0</property>
      <property name="transition.rect">0 0 1920 1080 1</property>
      <property name="transition.valign">top</property>
      <property name="transition.halign">left</property>
      <property name="shotcut:animIn">00:00:00.000</property>
      <property name="shotcut:animOut">00:00:00.000</property>
      <property name="transition.threads">0</property>
    </filter>
    <filter id="filter53" in="00:02:06.320" out="00:02:06.680">
      <property name="window">75</property>
      <property name="max_gain">20dB</property>
      <property name="level">-8</property>
      <property name="mlt_service">volume</property>
    </filter>
    <filter id="filter54" in="00:02:06.320" out="00:02:06.680">
      <property name="window">75</property>
      <property name="max_gain">20dB</property>
      <property name="mlt_service">volume</property>
      <property name="shotcut:filter">muteVolume</property>
      <property name="gain">0</property>
    </filter>
  </producer>
  <producer id="producer31" in="00:00:00.000" out="00:03:14.040" title="Anonymous Submission">
    <property name="length">00:03:14:02</property>
    <property name="eof">pause</property>
    <property name="resource">../../006 - Videos format youtube/Trompettes et cornets/Patrick_trompette_totoro.mp4</property>
    <property name="audio_index">1</property>
    <property name="video_index">0</property>
    <property name="mute_on_pause">0</property>
    <property name="mlt_service">avformat-novalidate</property>
    <property name="seekable">1</property>
    <property name="aspect_ratio">1</property>
    <property name="creation_time">2020-04-18T08:28:18</property>
    <property name="shotcut:hash">d27ce9def695a820a31c307fda0c41f7</property>
    <property name="ignore_points">0</property>
    <property name="shotcut:caption">Patrick_trompette_totoro.mp4</property>
    <property name="shotcut:skipConvert">1</property>
    <property name="global_feed">1</property>
    <property name="xml">was here</property>
    <filter id="filter55" in="00:02:06.720" out="00:02:09.800">
      <property name="background">colour:0</property>
      <property name="mlt_service">affine</property>
      <property name="shotcut:filter">affineSizePosition</property>
      <property name="transition.fill">1</property>
      <property name="transition.distort">0</property>
      <property name="transition.rect">1158 0 762 428 1</property>
      <property name="transition.valign">top</property>
      <property name="transition.halign">left</property>
      <property name="shotcut:animIn">00:00:00.000</property>
      <property name="shotcut:animOut">00:00:00.000</property>
      <property name="transition.threads">0</property>
    </filter>
    <filter id="filter56" in="00:02:06.720" out="00:02:09.800">
      <property name="window">75</property>
      <property name="max_gain">20dB</property>
      <property name="level">-11</property>
      <property name="mlt_service">volume</property>
    </filter>
  </producer>
  <producer id="producer32" in="00:00:00.000" out="00:03:14.040" title="Anonymous Submission">
    <property name="length">00:03:14:02</property>
    <property name="eof">pause</property>
    <property name="resource">../../006 - Videos format youtube/Trompettes et cornets/Patrick_trompette_totoro.mp4</property>
    <property name="audio_index">1</property>
    <property name="video_index">0</property>
    <property name="mute_on_pause">0</property>
    <property name="mlt_service">avformat-novalidate</property>
    <property name="seekable">1</property>
    <property name="aspect_ratio">1</property>
    <property name="creation_time">2020-04-18T08:28:18</property>
    <property name="shotcut:hash">d27ce9def695a820a31c307fda0c41f7</property>
    <property name="ignore_points">0</property>
    <property name="shotcut:caption">Patrick_trompette_totoro.mp4</property>
    <property name="shotcut:skipConvert">1</property>
    <property name="global_feed">1</property>
    <property name="xml">was here</property>
    <filter id="filter57" in="00:02:09.840" out="00:02:10.200">
      <property name="background">colour:0</property>
      <property name="mlt_service">affine</property>
      <property name="shotcut:filter">affineSizePosition</property>
      <property name="transition.fill">1</property>
      <property name="transition.distort">0</property>
      <property name="transition.rect">0 0 1920 1080 1</property>
      <property name="transition.valign">top</property>
      <property name="transition.halign">left</property>
      <property name="shotcut:animIn">00:00:00.000</property>
      <property name="shotcut:animOut">00:00:00.000</property>
      <property name="transition.threads">0</property>
    </filter>
    <filter id="filter58" in="00:02:09.840" out="00:02:10.200">
      <property name="window">75</property>
      <property name="max_gain">20dB</property>
      <property name="mlt_service">volume</property>
      <property name="shotcut:filter">muteVolume</property>
      <property name="gain">0</property>
    </filter>
  </producer>
  <producer id="producer33" in="00:00:00.000" out="00:03:14.040" title="Anonymous Submission">
    <property name="length">00:03:14:02</property>
    <property name="eof">pause</property>
    <property name="resource">../../006 - Videos format youtube/Trompettes et cornets/Patrick_trompette_totoro.mp4</property>
    <property name="audio_index">1</property>
    <property name="video_index">0</property>
    <property name="mute_on_pause">0</property>
    <property name="mlt_service">avformat-novalidate</property>
    <property name="seekable">1</property>
    <property name="aspect_ratio">1</property>
    <property name="creation_time">2020-04-18T08:28:18</property>
    <property name="shotcut:hash">d27ce9def695a820a31c307fda0c41f7</property>
    <property name="ignore_points">0</property>
    <property name="shotcut:caption">Patrick_trompette_totoro.mp4</property>
    <property name="shotcut:skipConvert">1</property>
    <property name="global_feed">1</property>
    <property name="xml">was here</property>
    <filter id="filter59" in="00:02:10.240" out="00:02:11.640">
      <property name="background">colour:0</property>
      <property name="mlt_service">affine</property>
      <property name="shotcut:filter">affineSizePosition</property>
      <property name="transition.fill">1</property>
      <property name="transition.distort">0</property>
      <property name="transition.rect">1064 0 856 481 1</property>
      <property name="transition.valign">top</property>
      <property name="transition.halign">left</property>
      <property name="shotcut:animIn">00:00:00.000</property>
      <property name="shotcut:animOut">00:00:00.000</property>
      <property name="transition.threads">0</property>
    </filter>
    <filter id="filter60" in="00:02:10.240" out="00:02:11.640">
      <property name="window">75</property>
      <property name="max_gain">20dB</property>
      <property name="level">-11</property>
      <property name="mlt_service">volume</property>
    </filter>
  </producer>
  <producer id="producer34" in="00:00:00.000" out="00:03:14.040" title="Anonymous Submission">
    <property name="length">00:03:14:02</property>
    <property name="eof">pause</property>
    <property name="resource">../../006 - Videos format youtube/Trompettes et cornets/Patrick_trompette_totoro.mp4</property>
    <property name="audio_index">1</property>
    <property name="video_index">0</property>
    <property name="mute_on_pause">0</property>
    <property name="mlt_service">avformat-novalidate</property>
    <property name="seekable">1</property>
    <property name="aspect_ratio">1</property>
    <property name="creation_time">2020-04-18T08:28:18</property>
    <property name="shotcut:hash">d27ce9def695a820a31c307fda0c41f7</property>
    <property name="ignore_points">0</property>
    <property name="shotcut:caption">Patrick_trompette_totoro.mp4</property>
    <property name="shotcut:skipConvert">1</property>
    <property name="global_feed">1</property>
    <property name="xml">was here</property>
    <filter id="filter61" in="00:02:11.680" out="00:02:12.360">
      <property name="background">colour:0</property>
      <property name="mlt_service">affine</property>
      <property name="shotcut:filter">affineSizePosition</property>
      <property name="transition.fill">1</property>
      <property name="transition.distort">0</property>
      <property name="transition.rect">0 0 1920 1080 1</property>
      <property name="transition.valign">top</property>
      <property name="transition.halign">left</property>
      <property name="shotcut:animIn">00:00:00.000</property>
      <property name="shotcut:animOut">00:00:00.000</property>
      <property name="transition.threads">0</property>
    </filter>
    <filter id="filter62" in="00:02:11.680" out="00:02:12.360">
      <property name="window">75</property>
      <property name="max_gain">20dB</property>
      <property name="level">-11</property>
      <property name="mlt_service">volume</property>
    </filter>
  </producer>
  <producer id="producer35" in="00:00:00.000" out="00:03:14.040" title="Anonymous Submission">
    <property name="length">00:03:14:02</property>
    <property name="eof">pause</property>
    <property name="resource">../../006 - Videos format youtube/Trompettes et cornets/Patrick_trompette_totoro.mp4</property>
    <property name="audio_index">1</property>
    <property name="video_index">0</property>
    <property name="mute_on_pause">0</property>
    <property name="mlt_service">avformat-novalidate</property>
    <property name="seekable">1</property>
    <property name="aspect_ratio">1</property>
    <property name="creation_time">2020-04-18T08:28:18</property>
    <property name="shotcut:hash">d27ce9def695a820a31c307fda0c41f7</property>
    <property name="ignore_points">0</property>
    <property name="shotcut:caption">Patrick_trompette_totoro.mp4</property>
    <property name="shotcut:skipConvert">1</property>
    <property name="global_feed">1</property>
    <property name="xml">was here</property>
    <filter id="filter63" in="00:02:12.400" out="00:02:47.760">
      <property name="background">colour:0</property>
      <property name="mlt_service">affine</property>
      <property name="shotcut:filter">affineSizePosition</property>
      <property name="transition.fill">1</property>
      <property name="transition.distort">0</property>
      <property name="transition.rect">1141 0 779 438 1</property>
      <property name="transition.valign">top</property>
      <property name="transition.halign">left</property>
      <property name="shotcut:animIn">00:00:00.000</property>
      <property name="shotcut:animOut">00:00:00.000</property>
      <property name="transition.threads">0</property>
    </filter>
  </producer>
  <producer id="producer36" in="00:00:00.000" out="00:03:14.040" title="Anonymous Submission">
    <property name="length">00:03:14:02</property>
    <property name="eof">pause</property>
    <property name="resource">../../006 - Videos format youtube/Trompettes et cornets/Patrick_trompette_totoro.mp4</property>
    <property name="audio_index">1</property>
    <property name="video_index">0</property>
    <property name="mute_on_pause">0</property>
    <property name="mlt_service">avformat-novalidate</property>
    <property name="seekable">1</property>
    <property name="aspect_ratio">1</property>
    <property name="creation_time">2020-04-18T08:28:18</property>
    <property name="shotcut:hash">d27ce9def695a820a31c307fda0c41f7</property>
    <property name="ignore_points">0</property>
    <property name="shotcut:caption">Patrick_trompette_totoro.mp4</property>
    <property name="shotcut:skipConvert">1</property>
    <property name="global_feed">1</property>
    <property name="xml">was here</property>
    <filter id="filter64" in="00:02:47.800" out="00:02:50.160">
      <property name="background">colour:0</property>
      <property name="mlt_service">affine</property>
      <property name="shotcut:filter">affineSizePosition</property>
      <property name="transition.fill">1</property>
      <property name="transition.distort">0</property>
      <property name="transition.rect">1132 0 788 442 1</property>
      <property name="transition.valign">top</property>
      <property name="transition.halign">left</property>
      <property name="shotcut:animIn">00:00:00.000</property>
      <property name="shotcut:animOut">00:00:00.000</property>
      <property name="transition.threads">0</property>
    </filter>
    <filter id="filter65" in="00:02:47.800" out="00:02:50.160">
      <property name="window">75</property>
      <property name="max_gain">20dB</property>
      <property name="level">-5</property>
      <property name="mlt_service">volume</property>
    </filter>
  </producer>
  <producer id="producer37" in="00:00:00.000" out="00:03:14.040" title="Anonymous Submission">
    <property name="length">00:03:14:02</property>
    <property name="eof">pause</property>
    <property name="resource">../../006 - Videos format youtube/Trompettes et cornets/Patrick_trompette_totoro.mp4</property>
    <property name="audio_index">1</property>
    <property name="video_index">0</property>
    <property name="mute_on_pause">0</property>
    <property name="mlt_service">avformat-novalidate</property>
    <property name="seekable">1</property>
    <property name="aspect_ratio">1</property>
    <property name="creation_time">2020-04-18T08:28:18</property>
    <property name="shotcut:hash">d27ce9def695a820a31c307fda0c41f7</property>
    <property name="ignore_points">0</property>
    <property name="shotcut:caption">Patrick_trompette_totoro.mp4</property>
    <property name="shotcut:skipConvert">1</property>
    <property name="global_feed">1</property>
    <property name="xml">was here</property>
    <filter id="filter66" in="00:02:50.200" out="00:02:57.160">
      <property name="background">colour:0</property>
      <property name="mlt_service">affine</property>
      <property name="shotcut:filter">affineSizePosition</property>
      <property name="transition.fill">1</property>
      <property name="transition.distort">0</property>
      <property name="transition.rect">1132 0 788 442 1</property>
      <property name="transition.valign">top</property>
      <property name="transition.halign">left</property>
      <property name="shotcut:animIn">00:00:00.000</property>
      <property name="shotcut:animOut">00:00:00.000</property>
      <property name="transition.threads">0</property>
    </filter>
    <filter id="filter67" in="00:02:50.200" out="00:02:57.160">
      <property name="window">75</property>
      <property name="max_gain">20dB</property>
      <property name="level">-5</property>
      <property name="mlt_service">volume</property>
    </filter>
  </producer>
  <producer id="producer38" in="00:00:00.000" out="00:03:14.040" title="Anonymous Submission">
    <property name="length">00:03:14:02</property>
    <property name="eof">pause</property>
    <property name="resource">../../006 - Videos format youtube/Trompettes et cornets/Patrick_trompette_totoro.mp4</property>
    <property name="audio_index">1</property>
    <property name="video_index">0</property>
    <property name="mute_on_pause">0</property>
    <property name="mlt_service">avformat-novalidate</property>
    <property name="seekable">1</property>
    <property name="aspect_ratio">1</property>
    <property name="creation_time">2020-04-18T08:28:18</property>
    <property name="shotcut:hash">d27ce9def695a820a31c307fda0c41f7</property>
    <property name="ignore_points">0</property>
    <property name="shotcut:caption">Patrick_trompette_totoro.mp4</property>
    <property name="shotcut:skipConvert">1</property>
    <property name="global_feed">1</property>
    <property name="xml">was here</property>
    <filter id="filter68" in="00:02:57.200" out="00:03:07.760">
      <property name="background">colour:0</property>
      <property name="mlt_service">affine</property>
      <property name="shotcut:filter">affineSizePosition</property>
      <property name="transition.fill">1</property>
      <property name="transition.distort">0</property>
      <property name="transition.rect">1090 0 830 466 1</property>
      <property name="transition.valign">top</property>
      <property name="transition.halign">left</property>
      <property name="shotcut:animIn">00:00:00.000</property>
      <property name="shotcut:animOut">00:00:00.000</property>
      <property name="transition.threads">0</property>
    </filter>
  </producer>
  <producer id="producer39" in="00:00:00.000" out="00:03:14.040" title="Anonymous Submission">
    <property name="length">00:03:14:02</property>
    <property name="eof">pause</property>
    <property name="resource">../../006 - Videos format youtube/Trompettes et cornets/Patrick_trompette_totoro.mp4</property>
    <property name="audio_index">1</property>
    <property name="video_index">0</property>
    <property name="mute_on_pause">0</property>
    <property name="mlt_service">avformat-novalidate</property>
    <property name="seekable">1</property>
    <property name="aspect_ratio">1</property>
    <property name="creation_time">2020-04-18T08:28:18</property>
    <property name="shotcut:hash">d27ce9def695a820a31c307fda0c41f7</property>
    <property name="ignore_points">0</property>
    <property name="shotcut:caption">Patrick_trompette_totoro.mp4</property>
    <property name="shotcut:skipConvert">1</property>
    <property name="global_feed">1</property>
    <property name="xml">was here</property>
    <filter id="filter69" in="00:03:07.800" out="00:03:14.040">
      <property name="background">colour:0</property>
      <property name="mlt_service">affine</property>
      <property name="shotcut:filter">affineSizePosition</property>
      <property name="transition.fill">1</property>
      <property name="transition.distort">0</property>
      <property name="transition.rect">1141 0 779 438 1</property>
      <property name="transition.valign">top</property>
      <property name="transition.halign">left</property>
      <property name="shotcut:animIn">00:00:00.000</property>
      <property name="shotcut:animOut">00:00:00.000</property>
      <property name="transition.threads">0</property>
    </filter>
    <filter id="filter70" in="00:03:07.800" out="00:03:14.040">
      <property name="window">75</property>
      <property name="max_gain">20dB</property>
      <property name="mlt_service">volume</property>
      <property name="shotcut:filter">muteVolume</property>
      <property name="gain">0</property>
    </filter>
  </producer>
  <playlist id="playlist5">
    <property name="shotcut:video">1</property>
    <property name="shotcut:name">Patrick_trompette2</property>
    <property name="shotcut:lock">1</property>
    <blank length="00:00:06.680" />
    <entry in="00:00:00.000" out="00:00:43.680" producer="producer22" />
    <entry in="00:00:43.720" out="00:00:50.600" producer="producer23" />
    <entry in="00:00:50.640" out="00:00:56.400" producer="producer24" />
    <entry in="00:00:56.440" out="00:01:04.440" producer="producer25" />
    <entry in="00:01:04.480" out="00:01:10.800" producer="producer26" />
    <entry in="00:01:10.840" out="00:01:11.000" producer="producer27" />
    <entry in="00:01:11.040" out="00:01:28.320" producer="producer28" />
    <entry in="00:01:28.360" out="00:02:06.280" producer="producer29" />
    <entry in="00:02:06.320" out="00:02:06.680" producer="producer30" />
    <entry in="00:02:06.720" out="00:02:09.800" producer="producer31" />
    <entry in="00:02:09.840" out="00:02:10.200" producer="producer32" />
    <entry in="00:02:10.240" out="00:02:11.640" producer="producer33" />
    <entry in="00:02:11.680" out="00:02:12.360" producer="producer34" />
    <entry in="00:02:12.400" out="00:02:47.760" producer="producer35" />
    <entry in="00:02:47.800" out="00:02:50.160" producer="producer36" />
    <entry in="00:02:50.200" out="00:02:57.160" producer="producer37" />
    <entry in="00:02:57.200" out="00:03:07.760" producer="producer38" />
    <entry in="00:03:07.800" out="00:03:14.040" producer="producer39" />
    <filter id="filter71" out="00:03:24.320">
      <property name="window">75</property>
      <property name="max_gain">20dB</property>
      <property name="level">-6</property>
      <property name="mlt_service">volume</property>
    </filter>
  </playlist>
  <producer id="producer40" in="00:00:00.000" out="00:03:23.200" title="Anonymous Submission">
    <property name="length">00:03:23:06</property>
    <property name="eof">pause</property>
    <property name="resource">../../006 - Videos format youtube/Trompettes et cornets/Marianne_trompette_totoro.mp4</property>
    <property name="audio_index">1</property>
    <property name="video_index">0</property>
    <property name="mute_on_pause">0</property>
    <property name="mlt_service">avformat-novalidate</property>
    <property name="seekable">1</property>
    <property name="aspect_ratio">1</property>
    <property name="creation_time">2020-04-17T16:46:13</property>
    <property name="shotcut:hash">028a5d33b6622364c3abee360843bcb6</property>
    <property name="ignore_points">0</property>
    <property name="shotcut:caption">Marianne_trompette_totoro.mp4</property>
    <property name="shotcut:skipConvert">1</property>
    <property name="global_feed">1</property>
    <property name="xml">was here</property>
    <filter id="filter72" out="00:00:36.400">
      <property name="background">colour:0</property>
      <property name="mlt_service">affine</property>
      <property name="shotcut:filter">affineSizePosition</property>
      <property name="transition.fill">1</property>
      <property name="transition.distort">0</property>
      <property name="transition.rect">0 0 728 409 1</property>
      <property name="transition.valign">top</property>
      <property name="transition.halign">left</property>
      <property name="shotcut:animIn">00:00:00.000</property>
      <property name="shotcut:animOut">00:00:00.000</property>
      <property name="transition.threads">0</property>
    </filter>
  </producer>
  <producer id="producer41" in="00:00:00.000" out="00:03:23.200" title="Anonymous Submission">
    <property name="length">00:03:23:06</property>
    <property name="eof">pause</property>
    <property name="resource">../../006 - Videos format youtube/Trompettes et cornets/Marianne_trompette_totoro.mp4</property>
    <property name="audio_index">1</property>
    <property name="video_index">0</property>
    <property name="mute_on_pause">0</property>
    <property name="mlt_service">avformat-novalidate</property>
    <property name="seekable">1</property>
    <property name="aspect_ratio">1</property>
    <property name="creation_time">2020-04-17T16:46:13</property>
    <property name="shotcut:hash">028a5d33b6622364c3abee360843bcb6</property>
    <property name="ignore_points">0</property>
    <property name="shotcut:caption">Marianne_trompette_totoro.mp4</property>
    <property name="shotcut:skipConvert">1</property>
    <property name="global_feed">1</property>
    <property name="xml">was here</property>
    <filter id="filter73" in="00:00:36.440" out="00:00:49.280">
      <property name="background">colour:0</property>
      <property name="mlt_service">affine</property>
      <property name="shotcut:filter">affineSizePosition</property>
      <property name="transition.fill">1</property>
      <property name="transition.distort">0</property>
      <property name="transition.rect">0 0 703 395 1</property>
      <property name="transition.valign">top</property>
      <property name="transition.halign">left</property>
      <property name="shotcut:animIn">00:00:00.000</property>
      <property name="shotcut:animOut">00:00:00.000</property>
      <property name="transition.threads">0</property>
    </filter>
    <filter id="filter74" in="00:00:36.440" out="00:00:49.280">
      <property name="window">75</property>
      <property name="max_gain">20dB</property>
      <property name="mlt_service">volume</property>
      <property name="shotcut:filter">muteVolume</property>
      <property name="gain">0</property>
    </filter>
  </producer>
  <producer id="producer42" in="00:00:00.000" out="00:03:23.200" title="Anonymous Submission">
    <property name="length">00:03:23:06</property>
    <property name="eof">pause</property>
    <property name="resource">../../006 - Videos format youtube/Trompettes et cornets/Marianne_trompette_totoro.mp4</property>
    <property name="audio_index">1</property>
    <property name="video_index">0</property>
    <property name="mute_on_pause">0</property>
    <property name="mlt_service">avformat-novalidate</property>
    <property name="seekable">1</property>
    <property name="aspect_ratio">1</property>
    <property name="creation_time">2020-04-17T16:46:13</property>
    <property name="shotcut:hash">028a5d33b6622364c3abee360843bcb6</property>
    <property name="ignore_points">0</property>
    <property name="shotcut:caption">Marianne_trompette_totoro.mp4</property>
    <property name="shotcut:skipConvert">1</property>
    <property name="global_feed">1</property>
    <property name="xml">was here</property>
    <filter id="filter75" in="00:00:49.320" out="00:01:36.480">
      <property name="background">colour:0</property>
      <property name="mlt_service">affine</property>
      <property name="shotcut:filter">affineSizePosition</property>
      <property name="transition.fill">1</property>
      <property name="transition.distort">0</property>
      <property name="transition.rect">0 0 643 361 1</property>
      <property name="transition.valign">top</property>
      <property name="transition.halign">left</property>
      <property name="shotcut:animIn">00:00:00.000</property>
      <property name="shotcut:animOut">00:00:00.000</property>
      <property name="transition.threads">0</property>
    </filter>
  </producer>
  <producer id="producer43" in="00:00:00.000" out="00:03:23.200" title="Anonymous Submission">
    <property name="length">00:03:23:06</property>
    <property name="eof">pause</property>
    <property name="resource">../../006 - Videos format youtube/Trompettes et cornets/Marianne_trompette_totoro.mp4</property>
    <property name="audio_index">1</property>
    <property name="video_index">0</property>
    <property name="mute_on_pause">0</property>
    <property name="mlt_service">avformat-novalidate</property>
    <property name="seekable">1</property>
    <property name="aspect_ratio">1</property>
    <property name="creation_time">2020-04-17T16:46:13</property>
    <property name="shotcut:hash">028a5d33b6622364c3abee360843bcb6</property>
    <property name="ignore_points">0</property>
    <property name="shotcut:caption">Marianne_trompette_totoro.mp4</property>
    <property name="shotcut:skipConvert">1</property>
    <property name="global_feed">1</property>
    <property name="xml">was here</property>
    <filter id="filter76" in="00:01:36.520" out="00:01:57.760">
      <property name="background">colour:0</property>
      <property name="mlt_service">affine</property>
      <property name="shotcut:filter">affineSizePosition</property>
      <property name="transition.fill">1</property>
      <property name="transition.distort">0</property>
      <property name="transition.rect">0 0 856 481 1</property>
      <property name="transition.valign">top</property>
      <property name="transition.halign">left</property>
      <property name="shotcut:animIn">00:00:00.000</property>
      <property name="shotcut:animOut">00:00:00.000</property>
      <property name="transition.threads">0</property>
    </filter>
    <filter id="filter77" in="00:01:36.520" out="00:01:57.760">
      <property name="window">75</property>
      <property name="max_gain">20dB</property>
      <property name="mlt_service">volume</property>
      <property name="shotcut:filter">muteVolume</property>
      <property name="gain">0</property>
    </filter>
  </producer>
  <producer id="producer44" in="00:00:00.000" out="00:03:23.200" title="Anonymous Submission">
    <property name="length">00:03:23:06</property>
    <property name="eof">pause</property>
    <property name="resource">../../006 - Videos format youtube/Trompettes et cornets/Marianne_trompette_totoro.mp4</property>
    <property name="audio_index">1</property>
    <property name="video_index">0</property>
    <property name="mute_on_pause">0</property>
    <property name="mlt_service">avformat-novalidate</property>
    <property name="seekable">1</property>
    <property name="aspect_ratio">1</property>
    <property name="creation_time">2020-04-17T16:46:13</property>
    <property name="shotcut:hash">028a5d33b6622364c3abee360843bcb6</property>
    <property name="ignore_points">0</property>
    <property name="shotcut:caption">Marianne_trompette_totoro.mp4</property>
    <property name="shotcut:skipConvert">1</property>
    <property name="global_feed">1</property>
    <property name="xml">was here</property>
    <filter id="filter78" in="00:01:57.800" out="00:03:13.560">
      <property name="background">colour:0</property>
      <property name="mlt_service">affine</property>
      <property name="shotcut:filter">affineSizePosition</property>
      <property name="transition.fill">1</property>
      <property name="transition.distort">0</property>
      <property name="transition.rect">0 0 788 442 1</property>
      <property name="transition.valign">top</property>
      <property name="transition.halign">left</property>
      <property name="shotcut:animIn">00:00:00.000</property>
      <property name="shotcut:animOut">00:00:00.000</property>
      <property name="transition.threads">0</property>
    </filter>
  </producer>
  <producer id="producer45" in="00:00:00.000" out="00:03:23.200" title="Anonymous Submission">
    <property name="length">00:03:23:06</property>
    <property name="eof">pause</property>
    <property name="resource">../../006 - Videos format youtube/Trompettes et cornets/Marianne_trompette_totoro.mp4</property>
    <property name="audio_index">1</property>
    <property name="video_index">0</property>
    <property name="mute_on_pause">0</property>
    <property name="mlt_service">avformat-novalidate</property>
    <property name="seekable">1</property>
    <property name="aspect_ratio">1</property>
    <property name="creation_time">2020-04-17T16:46:13</property>
    <property name="shotcut:hash">028a5d33b6622364c3abee360843bcb6</property>
    <property name="ignore_points">0</property>
    <property name="shotcut:caption">Marianne_trompette_totoro.mp4</property>
    <property name="shotcut:skipConvert">1</property>
    <property name="global_feed">1</property>
    <property name="xml">was here</property>
    <filter id="filter79" in="00:03:13.600" out="00:03:23.200">
      <property name="background">colour:0</property>
      <property name="mlt_service">affine</property>
      <property name="shotcut:filter">affineSizePosition</property>
      <property name="transition.fill">1</property>
      <property name="transition.distort">0</property>
      <property name="transition.rect">0 0 703 395 1</property>
      <property name="transition.valign">top</property>
      <property name="transition.halign">left</property>
      <property name="shotcut:animIn">00:00:00.000</property>
      <property name="shotcut:animOut">00:00:00.000</property>
      <property name="transition.threads">0</property>
    </filter>
    <filter id="filter80" in="00:03:13.600" out="00:03:23.200">
      <property name="window">75</property>
      <property name="max_gain">20dB</property>
      <property name="mlt_service">volume</property>
      <property name="shotcut:filter">muteVolume</property>
      <property name="gain">0</property>
    </filter>
  </producer>
  <playlist id="playlist6">
    <property name="shotcut:video">1</property>
    <property name="shotcut:name">Marianne</property>
    <property name="shotcut:lock">1</property>
    <blank length="00:00:01.120" />
    <entry in="00:00:00.000" out="00:00:36.400" producer="producer40" />
    <entry in="00:00:36.440" out="00:00:49.280" producer="producer41" />
    <entry in="00:00:49.320" out="00:01:36.480" producer="producer42" />
    <entry in="00:01:36.520" out="00:01:57.760" producer="producer43" />
    <entry in="00:01:57.800" out="00:03:13.560" producer="producer44" />
    <entry in="00:03:13.600" out="00:03:23.200" producer="producer45" />
    <filter id="filter81" out="00:03:24.320">
      <property name="window">75</property>
      <property name="max_gain">20dB</property>
      <property name="level">-5</property>
      <property name="mlt_service">volume</property>
    </filter>
  </playlist>
  <tractor global_feed="1" id="tractor0" in="00:00:00.000" out="00:03:24.320" title="Shotcut version 19.08.05">
    <property name="shotcut">1</property>
    <property name="shotcut:projectAudioChannels">2</property>
    <property name="shotcut:projectFolder">1</property>
    <property name="shotcut:scaleFactor">1.03564</property>
    <track producer="background" />
    <track hide="audio" producer="playlist0" />
    <track hide="audio" producer="playlist1" />
    <track hide="both" producer="playlist2" />
    <track producer="playlist3" />
    <track producer="playlist4" />
    <track producer="playlist5" />
    <track producer="playlist6" />
    <transition id="transition0">
      <property name="a_track">0</property>
      <property name="b_track">1</property>
      <property name="mlt_service">mix</property>
      <property name="always_active">1</property>
      <property name="sum">1</property>
    </transition>
    <transition id="transition1">
      <property name="a_track">0</property>
      <property name="b_track">1</property>
      <property name="version">0.9</property>
      <property name="mlt_service">frei0r.cairoblend</property>
      <property name="disable">1</property>
    </transition>
    <transition id="transition2">
      <property name="a_track">0</property>
      <property name="b_track">2</property>
      <property name="mlt_service">mix</property>
      <property name="always_active">1</property>
      <property name="sum">1</property>
    </transition>
    <transition id="transition3">
      <property name="a_track">1</property>
      <property name="b_track">2</property>
      <property name="version">0.9</property>
      <property name="mlt_service">frei0r.cairoblend</property>
      <property name="disable">0</property>
    </transition>
    <transition id="transition4">
      <property name="a_track">0</property>
      <property name="b_track">3</property>
      <property name="mlt_service">mix</property>
      <property name="always_active">1</property>
      <property name="sum">1</property>
    </transition>
    <transition id="transition5">
      <property name="a_track">1</property>
      <property name="b_track">3</property>
      <property name="version">0.9</property>
      <property name="mlt_service">frei0r.cairoblend</property>
      <property name="disable">0</property>
    </transition>
    <transition id="transition6">
      <property name="a_track">0</property>
      <property name="b_track">4</property>
      <property name="mlt_service">mix</property>
      <property name="always_active">1</property>
      <property name="sum">1</property>
    </transition>
    <transition id="transition7">
      <property name="a_track">1</property>
      <property name="b_track">4</property>
      <property name="version">0.9</property>
      <property name="mlt_service">frei0r.cairoblend</property>
      <property name="disable">0</property>
    </transition>
    <transition id="transition8">
      <property name="a_track">0</property>
      <property name="b_track">5</property>
      <property name="mlt_service">mix</property>
      <property name="always_active">1</property>
      <property name="sum">1</property>
    </transition>
    <transition id="transition9">
      <property name="a_track">1</property>
      <property name="b_track">5</property>
      <property name="version">0.9</property>
      <property name="mlt_service">frei0r.cairoblend</property>
      <property name="disable">0</property>
    </transition>
    <transition id="transition10">
      <property name="a_track">1</property>
      <property name="b_track">6</property>
      <property name="version">0.9</property>
      <property name="mlt_service">frei0r.cairoblend</property>
    </transition>
    <transition id="transition11">
      <property name="a_track">0</property>
      <property name="b_track">7</property>
      <property name="mlt_service">mix</property>
      <property name="always_active">1</property>
      <property name="sum">1</property>
    </transition>
    <transition id="transition12">
      <property name="a_track">1</property>
      <property name="b_track">7</property>
      <property name="version">0.9</property>
      <property name="mlt_service">frei0r.cairoblend</property>
      <property name="disable">0</property>
    </transition>
    <transition id="transition13">
      <property name="a_track">0</property>
      <property name="b_track">6</property>
      <property name="mlt_service">mix</property>
      <property name="always_active">1</property>
      <property name="sum">1</property>
    </transition>
  </tractor>
</mlt>