<?xml version='1.0' encoding='us-ascii'?>
<mlt LC_NUMERIC="C" producer="main_bin" title="Shotcut version 19.08.05" version="6.17.0">
  <profile colorspace="709" description="HD 1080p 25 fps" display_aspect_den="9" display_aspect_num="16" frame_rate_den="1" frame_rate_num="25" height="1080" progressive="1" sample_aspect_den="1" sample_aspect_num="1" width="1920" />
  <playlist id="main_bin">
    <property name="xml_retain">1</property>
  </playlist>
  <producer id="black" in="00:00:00.000" out="00:03:20.880">
    <property name="length">5023</property>
    <property name="eof">pause</property>
    <property name="resource">0</property>
    <property name="aspect_ratio">1</property>
    <property name="mlt_service">color</property>
    <property name="mlt_image_format">rgb24a</property>
    <property name="set.test_audio">0</property>
  </producer>
  <playlist id="background">
    <entry in="00:00:00.000" out="00:03:20.880" producer="black" />
  </playlist>
  <producer id="producer0" in="00:00:00.000" out="00:02:58.320" title="Anonymous Submission">
    <property name="length">00:02:58:09</property>
    <property name="eof">pause</property>
    <property name="resource">../../006 - Videos format youtube/Chef/Jean-Jacques_chef_totoro.mp4</property>
    <property name="audio_index">1</property>
    <property name="video_index">0</property>
    <property name="mute_on_pause">0</property>
    <property name="mlt_service">avformat-novalidate</property>
    <property name="seekable">1</property>
    <property name="aspect_ratio">1</property>
    <property name="creation_time">2020-04-05T13:55:58</property>
    <property name="shotcut:hash">54631fa1ec31562eee0a931256e35e96</property>
    <property name="ignore_points">0</property>
    <property name="shotcut:caption">Jean-Jacques_chef_totoro.mp4</property>
    <property name="shotcut:skipConvert">1</property>
    <property name="global_feed">1</property>
    <property name="xml">was here</property>
    <filter id="filter0" out="00:02:58.320">
      <property name="background">colour:0</property>
      <property name="mlt_service">affine</property>
      <property name="shotcut:filter">affineSizePosition</property>
      <property name="transition.fill">1</property>
      <property name="transition.distort">0</property>
      <property name="transition.rect">0 0 480 270 1</property>
      <property name="transition.valign">top</property>
      <property name="transition.halign">left</property>
      <property name="shotcut:animIn">00:00:00.000</property>
      <property name="shotcut:animOut">00:00:00.000</property>
      <property name="transition.threads">0</property>
    </filter>
  </producer>
  <playlist id="playlist0">
    <property name="shotcut:video">1</property>
    <property name="shotcut:name">Chef_JJS</property>
    <property name="shotcut:lock">1</property>
    <blank length="00:00:22.320" />
    <entry in="00:00:00.000" out="00:02:58.320" producer="producer0" />
  </playlist>
  <producer id="producer1" in="00:00:00.000" out="03:59:59.960" title="Anonymous Submission">
    <property name="length">04:00:00:00</property>
    <property name="eof">pause</property>
    <property name="resource">#00000000</property>
    <property name="aspect_ratio">1</property>
    <property name="mlt_service">color</property>
    <property name="mlt_image_format">rgb24a</property>
    <property name="shotcut:caption">transparent</property>
    <property name="shotcut:detail">transparent</property>
    <property name="ignore_points">0</property>
    <property name="global_feed">1</property>
    <property name="xml">was here</property>
    <property name="seekable">1</property>
    <filter id="filter1" out="00:00:04.960">
      <property name="argument">Logo EMGB</property>
      <property name="geometry">0 0 1920 1080 1</property>
      <property name="family">Verdana</property>
      <property name="size">1080</property>
      <property name="weight">500</property>
      <property name="style">normal</property>
      <property name="fgcolour">#ffffffff</property>
      <property name="bgcolour">#00000000</property>
      <property name="olcolour">#aa000000</property>
      <property name="pad">0</property>
      <property name="halign">center</property>
      <property name="valign">bottom</property>
      <property name="outline">3</property>
      <property name="mlt_service">dynamictext</property>
      <property name="shotcut:filter">dynamicText</property>
      <property name="shotcut:usePointSize">0</property>
      <property name="shotcut:animIn">00:00:00.000</property>
      <property name="shotcut:animOut">00:00:00.000</property>
    </filter>
  </producer>
  <producer id="producer2" in="00:00:00.000" out="03:59:59.960" title="Anonymous Submission">
    <property name="length">04:00:00:00</property>
    <property name="eof">pause</property>
    <property name="resource">#00000000</property>
    <property name="aspect_ratio">1</property>
    <property name="mlt_service">color</property>
    <property name="mlt_image_format">rgb24a</property>
    <property name="shotcut:caption">transparent</property>
    <property name="shotcut:detail">transparent</property>
    <property name="ignore_points">0</property>
    <property name="global_feed">1</property>
    <property name="xml">was here</property>
    <property name="seekable">1</property>
    <filter id="filter2" in="00:00:05.000" out="00:00:14.960">
      <property name="argument">Temps de marge pour faire apparaitre/entrer les musiciens</property>
      <property name="geometry">0 0 1920 1080 1</property>
      <property name="family">Verdana</property>
      <property name="size">1080</property>
      <property name="weight">500</property>
      <property name="style">normal</property>
      <property name="fgcolour">#ffffffff</property>
      <property name="bgcolour">#00000000</property>
      <property name="olcolour">#aa000000</property>
      <property name="pad">0</property>
      <property name="halign">center</property>
      <property name="valign">bottom</property>
      <property name="outline">3</property>
      <property name="mlt_service">dynamictext</property>
      <property name="shotcut:filter">dynamicText</property>
      <property name="shotcut:usePointSize">0</property>
      <property name="shotcut:animIn">00:00:00.000</property>
      <property name="shotcut:animOut">00:00:00.000</property>
    </filter>
  </producer>
  <playlist id="playlist1">
    <property name="shotcut:video">1</property>
    <property name="shotcut:name">Storyboard</property>
    <property name="shotcut:lock">1</property>
    <entry in="00:00:00.000" out="00:00:04.960" producer="producer1" />
    <entry in="00:00:05.000" out="00:00:14.960" producer="producer2" />
  </playlist>
  <producer id="producer3" in="00:00:00.000" out="00:03:24.560" title="Anonymous Submission">
    <property name="length">00:03:24:15</property>
    <property name="eof">pause</property>
    <property name="resource">../../003 - Bande son/Practice avec texte initial et son youtube.mp4</property>
    <property name="audio_index">1</property>
    <property name="video_index">0</property>
    <property name="mute_on_pause">0</property>
    <property name="mlt_service">avformat-novalidate</property>
    <property name="seekable">1</property>
    <property name="aspect_ratio">1</property>
    <property name="creation_time">2020-04-04T10:52:53</property>
    <property name="shotcut:hash">4799385e220417e9b67b0873b03fdf9a</property>
    <property name="ignore_points">0</property>
    <property name="shotcut:caption">Practice avec texte initial et son youtube.mp4</property>
    <property name="shotcut:skipConvert">1</property>
    <property name="global_feed">1</property>
    <property name="xml">was here</property>
  </producer>
  <playlist id="playlist2">
    <property name="shotcut:video">1</property>
    <property name="shotcut:name">Bande_son_practice</property>
    <property name="shotcut:lock">1</property>
    <blank length="00:00:15.000" />
    <entry in="00:00:18.960" out="00:03:24.560" producer="producer3" />
  </playlist>
  <producer id="producer13" in="00:00:00.000" out="00:02:59.280" title="Anonymous Submission">
    <property name="length">00:02:59:08</property>
    <property name="eof">pause</property>
    <property name="resource">../../006 - Videos format youtube/Clarinettes/Am&#233;lie_clarinette_V1 (pb cadrage).mp4</property>
    <property name="audio_index">1</property>
    <property name="video_index">0</property>
    <property name="mute_on_pause">0</property>
    <property name="mlt_service">avformat-novalidate</property>
    <property name="seekable">1</property>
    <property name="aspect_ratio">1</property>
    <property name="shotcut:hash">727d6e2fdb99c724c73db1ddfafedd0c</property>
    <property name="ignore_points">0</property>
    <property name="shotcut:caption">Am&#233;lie_clarinette_V1 (pb cadrage).mp4</property>
    <property name="shotcut:skipConvert">1</property>
    <property name="global_feed">1</property>
    <property name="xml">was here</property>
    <filter id="filter20" out="00:00:16.440">
      <property name="background">colour:0</property>
      <property name="mlt_service">affine</property>
      <property name="shotcut:filter">affineSizePosition</property>
      <property name="transition.fill">1</property>
      <property name="transition.distort">0</property>
      <property name="transition.rect">0 270 480 270 1</property>
      <property name="transition.valign">top</property>
      <property name="transition.halign">left</property>
      <property name="shotcut:animIn">00:00:00.000</property>
      <property name="shotcut:animOut">00:00:00.000</property>
      <property name="transition.threads">0</property>
    </filter>
    <filter id="filter21" out="00:00:16.440">
      <property name="window">75</property>
      <property name="max_gain">20dB</property>
      <property name="level">-10</property>
      <property name="mlt_service">volume</property>
    </filter>
  </producer>
  <producer id="producer4" in="00:00:00.000" out="00:02:59.280" title="Anonymous Submission">
    <property name="length">00:02:59:08</property>
    <property name="eof">pause</property>
    <property name="resource">../../006 - Videos format youtube/Clarinettes/Am&#233;lie_clarinette_V1 (pb cadrage).mp4</property>
    <property name="audio_index">1</property>
    <property name="video_index">0</property>
    <property name="mute_on_pause">0</property>
    <property name="mlt_service">avformat-novalidate</property>
    <property name="seekable">1</property>
    <property name="aspect_ratio">1</property>
    <property name="shotcut:hash">727d6e2fdb99c724c73db1ddfafedd0c</property>
    <property name="ignore_points">0</property>
    <property name="shotcut:caption">Am&#233;lie_clarinette_V1 (pb cadrage).mp4</property>
    <property name="shotcut:skipConvert">1</property>
    <property name="global_feed">1</property>
    <property name="xml">was here</property>
    <filter id="filter3" in="00:00:16.880" out="00:00:54.520">
      <property name="background">colour:0</property>
      <property name="mlt_service">affine</property>
      <property name="shotcut:filter">affineSizePosition</property>
      <property name="transition.fill">1</property>
      <property name="transition.distort">0</property>
      <property name="transition.rect">0 270 480 270 1</property>
      <property name="transition.valign">top</property>
      <property name="transition.halign">left</property>
      <property name="shotcut:animIn">00:00:00.000</property>
      <property name="shotcut:animOut">00:00:00.000</property>
      <property name="transition.threads">0</property>
    </filter>
    <filter id="filter4" in="00:00:16.880" out="00:00:54.520">
      <property name="window">75</property>
      <property name="max_gain">20dB</property>
      <property name="level">-5</property>
      <property name="mlt_service">volume</property>
    </filter>
  </producer>
  <producer id="producer5" in="00:00:00.000" out="00:02:59.280" title="Anonymous Submission">
    <property name="length">00:02:59:08</property>
    <property name="eof">pause</property>
    <property name="resource">../../006 - Videos format youtube/Clarinettes/Am&#233;lie_clarinette_V1 (pb cadrage).mp4</property>
    <property name="audio_index">1</property>
    <property name="video_index">0</property>
    <property name="mute_on_pause">0</property>
    <property name="mlt_service">avformat-novalidate</property>
    <property name="seekable">1</property>
    <property name="aspect_ratio">1</property>
    <property name="shotcut:hash">727d6e2fdb99c724c73db1ddfafedd0c</property>
    <property name="ignore_points">0</property>
    <property name="shotcut:caption">Am&#233;lie_clarinette_V1 (pb cadrage).mp4</property>
    <property name="shotcut:skipConvert">1</property>
    <property name="global_feed">1</property>
    <property name="xml">was here</property>
    <filter id="filter5" in="00:00:54.560" out="00:01:05.320">
      <property name="background">colour:0</property>
      <property name="mlt_service">affine</property>
      <property name="shotcut:filter">affineSizePosition</property>
      <property name="transition.fill">1</property>
      <property name="transition.distort">0</property>
      <property name="transition.rect">0 270 480 270 1</property>
      <property name="transition.valign">top</property>
      <property name="transition.halign">left</property>
      <property name="shotcut:animIn">00:00:00.000</property>
      <property name="shotcut:animOut">00:00:00.000</property>
      <property name="transition.threads">0</property>
    </filter>
    <filter id="filter6" in="00:00:54.560" out="00:01:05.320">
      <property name="window">75</property>
      <property name="max_gain">20dB</property>
      <property name="level">-20</property>
      <property name="mlt_service">volume</property>
    </filter>
  </producer>
  <producer id="producer6" in="00:00:00.000" out="00:02:59.280" title="Anonymous Submission">
    <property name="length">00:02:59:08</property>
    <property name="eof">pause</property>
    <property name="resource">../../006 - Videos format youtube/Clarinettes/Am&#233;lie_clarinette_V1 (pb cadrage).mp4</property>
    <property name="audio_index">1</property>
    <property name="video_index">0</property>
    <property name="mute_on_pause">0</property>
    <property name="mlt_service">avformat-novalidate</property>
    <property name="seekable">1</property>
    <property name="aspect_ratio">1</property>
    <property name="shotcut:hash">727d6e2fdb99c724c73db1ddfafedd0c</property>
    <property name="ignore_points">0</property>
    <property name="shotcut:caption">Am&#233;lie_clarinette_V1 (pb cadrage).mp4</property>
    <property name="shotcut:skipConvert">1</property>
    <property name="global_feed">1</property>
    <property name="xml">was here</property>
    <filter id="filter7" in="00:01:05.360" out="00:01:23.160">
      <property name="background">colour:0</property>
      <property name="mlt_service">affine</property>
      <property name="shotcut:filter">affineSizePosition</property>
      <property name="transition.fill">1</property>
      <property name="transition.distort">0</property>
      <property name="transition.rect">0 270 480 270 1</property>
      <property name="transition.valign">top</property>
      <property name="transition.halign">left</property>
      <property name="shotcut:animIn">00:00:00.000</property>
      <property name="shotcut:animOut">00:00:00.000</property>
      <property name="transition.threads">0</property>
    </filter>
    <filter id="filter8" in="00:01:05.360" out="00:01:23.160">
      <property name="window">75</property>
      <property name="max_gain">20dB</property>
      <property name="level">-5</property>
      <property name="mlt_service">volume</property>
    </filter>
  </producer>
  <producer id="producer7" in="00:00:00.000" out="00:02:59.280" title="Anonymous Submission">
    <property name="length">00:02:59:08</property>
    <property name="eof">pause</property>
    <property name="resource">../../006 - Videos format youtube/Clarinettes/Am&#233;lie_clarinette_V1 (pb cadrage).mp4</property>
    <property name="audio_index">1</property>
    <property name="video_index">0</property>
    <property name="mute_on_pause">0</property>
    <property name="mlt_service">avformat-novalidate</property>
    <property name="seekable">1</property>
    <property name="aspect_ratio">1</property>
    <property name="shotcut:hash">727d6e2fdb99c724c73db1ddfafedd0c</property>
    <property name="ignore_points">0</property>
    <property name="shotcut:caption">Am&#233;lie_clarinette_V1 (pb cadrage).mp4</property>
    <property name="shotcut:skipConvert">1</property>
    <property name="global_feed">1</property>
    <property name="xml">was here</property>
    <filter id="filter9" in="00:01:23.200" out="00:01:38.000">
      <property name="background">colour:0</property>
      <property name="mlt_service">affine</property>
      <property name="shotcut:filter">affineSizePosition</property>
      <property name="transition.fill">1</property>
      <property name="transition.distort">0</property>
      <property name="transition.rect">0 270 480 270 1</property>
      <property name="transition.valign">top</property>
      <property name="transition.halign">left</property>
      <property name="shotcut:animIn">00:00:00.000</property>
      <property name="shotcut:animOut">00:00:00.000</property>
      <property name="transition.threads">0</property>
    </filter>
    <filter id="filter10" in="00:01:23.200" out="00:01:38.000">
      <property name="window">75</property>
      <property name="max_gain">20dB</property>
      <property name="level">-10</property>
      <property name="mlt_service">volume</property>
    </filter>
    <filter id="filter11" in="00:01:23.200" out="00:01:38.000">
      <property name="window">75</property>
      <property name="max_gain">20dB</property>
      <property name="mlt_service">volume</property>
      <property name="shotcut:filter">muteVolume</property>
      <property name="gain">0</property>
    </filter>
  </producer>
  <producer id="producer8" in="00:00:00.000" out="00:02:59.280" title="Anonymous Submission">
    <property name="length">00:02:59:08</property>
    <property name="eof">pause</property>
    <property name="resource">../../006 - Videos format youtube/Clarinettes/Am&#233;lie_clarinette_V1 (pb cadrage).mp4</property>
    <property name="audio_index">1</property>
    <property name="video_index">0</property>
    <property name="mute_on_pause">0</property>
    <property name="mlt_service">avformat-novalidate</property>
    <property name="seekable">1</property>
    <property name="aspect_ratio">1</property>
    <property name="shotcut:hash">727d6e2fdb99c724c73db1ddfafedd0c</property>
    <property name="ignore_points">0</property>
    <property name="shotcut:caption">Am&#233;lie_clarinette_V1 (pb cadrage).mp4</property>
    <property name="shotcut:skipConvert">1</property>
    <property name="global_feed">1</property>
    <property name="xml">was here</property>
    <filter id="filter12" in="00:01:38.040" out="00:02:14.800">
      <property name="background">colour:0</property>
      <property name="mlt_service">affine</property>
      <property name="shotcut:filter">affineSizePosition</property>
      <property name="transition.fill">1</property>
      <property name="transition.distort">0</property>
      <property name="transition.rect">0 270 480 270 1</property>
      <property name="transition.valign">top</property>
      <property name="transition.halign">left</property>
      <property name="shotcut:animIn">00:00:00.000</property>
      <property name="shotcut:animOut">00:00:00.000</property>
      <property name="transition.threads">0</property>
    </filter>
    <filter id="filter13" in="00:01:38.040" out="00:02:14.800">
      <property name="window">75</property>
      <property name="max_gain">20dB</property>
      <property name="level">-5</property>
      <property name="mlt_service">volume</property>
    </filter>
  </producer>
  <producer id="producer9" in="00:00:00.000" out="00:02:59.280" title="Anonymous Submission">
    <property name="length">00:02:59:08</property>
    <property name="eof">pause</property>
    <property name="resource">../../006 - Videos format youtube/Clarinettes/Am&#233;lie_clarinette_V1 (pb cadrage).mp4</property>
    <property name="audio_index">1</property>
    <property name="video_index">0</property>
    <property name="mute_on_pause">0</property>
    <property name="mlt_service">avformat-novalidate</property>
    <property name="seekable">1</property>
    <property name="aspect_ratio">1</property>
    <property name="shotcut:hash">727d6e2fdb99c724c73db1ddfafedd0c</property>
    <property name="ignore_points">0</property>
    <property name="shotcut:caption">Am&#233;lie_clarinette_V1 (pb cadrage).mp4</property>
    <property name="shotcut:skipConvert">1</property>
    <property name="global_feed">1</property>
    <property name="xml">was here</property>
    <filter id="filter14" in="00:02:14.840" out="00:02:16.320">
      <property name="background">colour:0</property>
      <property name="mlt_service">affine</property>
      <property name="shotcut:filter">affineSizePosition</property>
      <property name="transition.fill">1</property>
      <property name="transition.distort">0</property>
      <property name="transition.rect">0 270 480 270 1</property>
      <property name="transition.valign">top</property>
      <property name="transition.halign">left</property>
      <property name="shotcut:animIn">00:00:00.000</property>
      <property name="shotcut:animOut">00:00:00.000</property>
      <property name="transition.threads">0</property>
    </filter>
    <filter id="filter15" in="00:02:14.840" out="00:02:16.320">
      <property name="window">75</property>
      <property name="max_gain">20dB</property>
      <property name="level">-10</property>
      <property name="mlt_service">volume</property>
    </filter>
  </producer>
  <producer id="producer10" in="00:00:00.000" out="00:02:59.280" title="Anonymous Submission">
    <property name="length">00:02:59:08</property>
    <property name="eof">pause</property>
    <property name="resource">../../006 - Videos format youtube/Clarinettes/Am&#233;lie_clarinette_V1 (pb cadrage).mp4</property>
    <property name="audio_index">1</property>
    <property name="video_index">0</property>
    <property name="mute_on_pause">0</property>
    <property name="mlt_service">avformat-novalidate</property>
    <property name="seekable">1</property>
    <property name="aspect_ratio">1</property>
    <property name="shotcut:hash">727d6e2fdb99c724c73db1ddfafedd0c</property>
    <property name="ignore_points">0</property>
    <property name="shotcut:caption">Am&#233;lie_clarinette_V1 (pb cadrage).mp4</property>
    <property name="shotcut:skipConvert">1</property>
    <property name="global_feed">1</property>
    <property name="xml">was here</property>
    <filter id="filter16" in="00:02:16.360" out="00:02:18.760">
      <property name="background">colour:0</property>
      <property name="mlt_service">affine</property>
      <property name="shotcut:filter">affineSizePosition</property>
      <property name="transition.fill">1</property>
      <property name="transition.distort">0</property>
      <property name="transition.rect">0 270 480 270 1</property>
      <property name="transition.valign">top</property>
      <property name="transition.halign">left</property>
      <property name="shotcut:animIn">00:00:00.000</property>
      <property name="shotcut:animOut">00:00:00.000</property>
      <property name="transition.threads">0</property>
    </filter>
    <filter id="filter17" in="00:02:16.360" out="00:02:18.760">
      <property name="window">75</property>
      <property name="max_gain">20dB</property>
      <property name="level">-10</property>
      <property name="mlt_service">volume</property>
    </filter>
  </producer>
  <producer id="producer11" in="00:00:00.000" out="00:02:59.280" title="Anonymous Submission">
    <property name="length">00:02:59:08</property>
    <property name="eof">pause</property>
    <property name="resource">../../006 - Videos format youtube/Clarinettes/Am&#233;lie_clarinette_V1 (pb cadrage).mp4</property>
    <property name="audio_index">1</property>
    <property name="video_index">0</property>
    <property name="mute_on_pause">0</property>
    <property name="mlt_service">avformat-novalidate</property>
    <property name="seekable">1</property>
    <property name="aspect_ratio">1</property>
    <property name="shotcut:hash">727d6e2fdb99c724c73db1ddfafedd0c</property>
    <property name="ignore_points">0</property>
    <property name="shotcut:caption">Am&#233;lie_clarinette_V1 (pb cadrage).mp4</property>
    <property name="shotcut:skipConvert">1</property>
    <property name="global_feed">1</property>
    <property name="xml">was here</property>
    <filter id="filter18" in="00:02:19.560" out="00:02:24.960">
      <property name="background">colour:0</property>
      <property name="mlt_service">affine</property>
      <property name="shotcut:filter">affineSizePosition</property>
      <property name="transition.fill">1</property>
      <property name="transition.distort">0</property>
      <property name="transition.rect">0 270 480 270 1</property>
      <property name="transition.valign">top</property>
      <property name="transition.halign">left</property>
      <property name="shotcut:animIn">00:00:00.000</property>
      <property name="shotcut:animOut">00:00:00.000</property>
      <property name="transition.threads">0</property>
    </filter>
    <filter id="filter19" in="00:02:19.560" out="00:02:24.960">
      <property name="window">75</property>
      <property name="max_gain">20dB</property>
      <property name="level">-20</property>
      <property name="mlt_service">volume</property>
    </filter>
    <filter id="filter22" in="00:02:19.560" out="00:02:24.960">
      <property name="window">75</property>
      <property name="max_gain">20dB</property>
      <property name="mlt_service">volume</property>
      <property name="shotcut:filter">muteVolume</property>
      <property name="gain">0</property>
    </filter>
  </producer>
  <producer id="producer12" in="00:00:00.000" out="00:02:59.280" title="Anonymous Submission">
    <property name="length">00:02:59:08</property>
    <property name="eof">pause</property>
    <property name="resource">../../006 - Videos format youtube/Clarinettes/Am&#233;lie_clarinette_V1 (pb cadrage).mp4</property>
    <property name="audio_index">1</property>
    <property name="video_index">0</property>
    <property name="mute_on_pause">0</property>
    <property name="mlt_service">avformat-novalidate</property>
    <property name="seekable">1</property>
    <property name="aspect_ratio">1</property>
    <property name="shotcut:hash">727d6e2fdb99c724c73db1ddfafedd0c</property>
    <property name="ignore_points">0</property>
    <property name="shotcut:caption">Am&#233;lie_clarinette_V1 (pb cadrage).mp4</property>
    <property name="shotcut:skipConvert">1</property>
    <property name="global_feed">1</property>
    <property name="xml">was here</property>
    <filter id="filter23" in="00:02:25.000" out="00:02:43.640">
      <property name="background">colour:0</property>
      <property name="mlt_service">affine</property>
      <property name="shotcut:filter">affineSizePosition</property>
      <property name="transition.fill">1</property>
      <property name="transition.distort">0</property>
      <property name="transition.rect">0 270 480 270 1</property>
      <property name="transition.valign">top</property>
      <property name="transition.halign">left</property>
      <property name="shotcut:animIn">00:00:00.000</property>
      <property name="shotcut:animOut">00:00:00.000</property>
      <property name="transition.threads">0</property>
    </filter>
    <filter id="filter24" in="00:02:25.000" out="00:02:43.640">
      <property name="window">75</property>
      <property name="max_gain">20dB</property>
      <property name="level">-5</property>
      <property name="mlt_service">volume</property>
    </filter>
  </producer>
  <producer id="producer14" in="00:00:00.000" out="00:02:59.280" title="Anonymous Submission">
    <property name="length">00:02:59:08</property>
    <property name="eof">pause</property>
    <property name="resource">../../006 - Videos format youtube/Clarinettes/Am&#233;lie_clarinette_V1 (pb cadrage).mp4</property>
    <property name="audio_index">1</property>
    <property name="video_index">0</property>
    <property name="mute_on_pause">0</property>
    <property name="mlt_service">avformat-novalidate</property>
    <property name="seekable">1</property>
    <property name="aspect_ratio">1</property>
    <property name="shotcut:hash">727d6e2fdb99c724c73db1ddfafedd0c</property>
    <property name="ignore_points">0</property>
    <property name="shotcut:caption">Am&#233;lie_clarinette_V1 (pb cadrage).mp4</property>
    <property name="shotcut:skipConvert">1</property>
    <property name="global_feed">1</property>
    <property name="xml">was here</property>
    <filter id="filter25" in="00:02:43.680" out="00:02:46.160">
      <property name="background">colour:0</property>
      <property name="mlt_service">affine</property>
      <property name="shotcut:filter">affineSizePosition</property>
      <property name="transition.fill">1</property>
      <property name="transition.distort">0</property>
      <property name="transition.rect">0 270 480 270 1</property>
      <property name="transition.valign">top</property>
      <property name="transition.halign">left</property>
      <property name="shotcut:animIn">00:00:00.000</property>
      <property name="shotcut:animOut">00:00:00.000</property>
      <property name="transition.threads">0</property>
    </filter>
    <filter id="filter26" in="00:02:43.680" out="00:02:46.160">
      <property name="window">75</property>
      <property name="max_gain">20dB</property>
      <property name="level">-20</property>
      <property name="mlt_service">volume</property>
    </filter>
  </producer>
  <producer id="producer15" in="00:00:00.000" out="00:02:59.280" title="Anonymous Submission">
    <property name="length">00:02:59:08</property>
    <property name="eof">pause</property>
    <property name="resource">../../006 - Videos format youtube/Clarinettes/Am&#233;lie_clarinette_V1 (pb cadrage).mp4</property>
    <property name="audio_index">1</property>
    <property name="video_index">0</property>
    <property name="mute_on_pause">0</property>
    <property name="mlt_service">avformat-novalidate</property>
    <property name="seekable">1</property>
    <property name="aspect_ratio">1</property>
    <property name="shotcut:hash">727d6e2fdb99c724c73db1ddfafedd0c</property>
    <property name="ignore_points">0</property>
    <property name="shotcut:caption">Am&#233;lie_clarinette_V1 (pb cadrage).mp4</property>
    <property name="shotcut:skipConvert">1</property>
    <property name="global_feed">1</property>
    <property name="xml">was here</property>
    <filter id="filter27" in="00:02:46.200" out="00:02:59.280">
      <property name="background">colour:0</property>
      <property name="mlt_service">affine</property>
      <property name="shotcut:filter">affineSizePosition</property>
      <property name="transition.fill">1</property>
      <property name="transition.distort">0</property>
      <property name="transition.rect">0 270 480 270 1</property>
      <property name="transition.valign">top</property>
      <property name="transition.halign">left</property>
      <property name="shotcut:animIn">00:00:00.000</property>
      <property name="shotcut:animOut">00:00:00.000</property>
      <property name="transition.threads">0</property>
    </filter>
    <filter id="filter28" in="00:02:46.200" out="00:02:59.280">
      <property name="window">75</property>
      <property name="max_gain">20dB</property>
      <property name="level">-5</property>
      <property name="mlt_service">volume</property>
    </filter>
    <filter id="filter29" in="00:02:46.200" out="00:02:59.280">
      <property name="mlt_service">ladspa.1913</property>
      <property name="0">0</property>
      <property name="1">-10</property>
      <property name="2">0.51</property>
      <property name="instances">1</property>
      <property name="3[0]">0.503372</property>
      <property name="8[0]">240</property>
    </filter>
  </producer>
  <playlist id="playlist6">
    <property name="shotcut:video">1</property>
    <property name="shotcut:name">Clarinette_am&#233;lie</property>
    <property name="shotcut:lock">0</property>
    <blank length="00:00:19.520" />
    <entry in="00:00:00.000" out="00:00:16.440" producer="producer13" />
    <blank length="00:00:00.360" />
    <entry in="00:00:16.880" out="00:00:54.520" producer="producer4" />
    <entry in="00:00:54.560" out="00:01:05.320" producer="producer5" />
    <entry in="00:01:05.360" out="00:01:23.160" producer="producer6" />
    <entry in="00:01:23.200" out="00:01:38.000" producer="producer7" />
    <entry in="00:01:38.040" out="00:02:14.800" producer="producer8" />
    <entry in="00:02:14.840" out="00:02:16.320" producer="producer9" />
    <blank length="00:00:00.240" />
    <entry in="00:02:16.360" out="00:02:18.760" producer="producer10" />
    <blank length="00:00:00.520" />
    <entry in="00:02:19.560" out="00:02:24.960" producer="producer11" />
    <entry in="00:02:25.000" out="00:02:43.640" producer="producer12" />
    <entry in="00:02:43.680" out="00:02:46.160" producer="producer14" />
    <entry in="00:02:46.200" out="00:02:59.280" producer="producer15" />
  </playlist>
  <producer id="producer32" in="00:00:00.000" out="00:03:27.800" title="Anonymous Submission">
    <property name="length">00:03:27:21</property>
    <property name="eof">pause</property>
    <property name="resource">../../006 - Videos format youtube/Clarinettes/Nelly_clarinette_totoro.mp4</property>
    <property name="audio_index">1</property>
    <property name="video_index">0</property>
    <property name="mute_on_pause">0</property>
    <property name="mlt_service">avformat-novalidate</property>
    <property name="seekable">1</property>
    <property name="aspect_ratio">1</property>
    <property name="creation_time">2020-04-05T13:37:57</property>
    <property name="shotcut:hash">ce64ff05cbaafa4ab64d61c9e57002dd</property>
    <property name="ignore_points">0</property>
    <property name="shotcut:caption">Nelly_clarinette_totoro.mp4</property>
    <property name="shotcut:skipConvert">1</property>
    <property name="global_feed">1</property>
    <property name="xml">was here</property>
    <filter id="filter46" in="00:00:15.440" out="00:01:49.560">
      <property name="background">colour:0</property>
      <property name="mlt_service">affine</property>
      <property name="shotcut:filter">affineSizePosition</property>
      <property name="transition.fill">1</property>
      <property name="transition.distort">0</property>
      <property name="transition.rect">0 540 480 270 1</property>
      <property name="transition.valign">top</property>
      <property name="transition.halign">left</property>
      <property name="shotcut:animIn">00:00:00.000</property>
      <property name="shotcut:animOut">00:00:00.000</property>
      <property name="transition.threads">0</property>
    </filter>
    <filter id="filter47" in="00:00:15.440" out="00:01:49.560">
      <property name="window">75</property>
      <property name="max_gain">20dB</property>
      <property name="level">0</property>
      <property name="mlt_service">volume</property>
    </filter>
  </producer>
  <producer id="producer16" in="00:00:00.000" out="00:03:27.800" title="Anonymous Submission">
    <property name="length">00:03:27:21</property>
    <property name="eof">pause</property>
    <property name="resource">../../006 - Videos format youtube/Clarinettes/Nelly_clarinette_totoro.mp4</property>
    <property name="audio_index">1</property>
    <property name="video_index">0</property>
    <property name="mute_on_pause">0</property>
    <property name="mlt_service">avformat-novalidate</property>
    <property name="seekable">1</property>
    <property name="aspect_ratio">1</property>
    <property name="creation_time">2020-04-05T13:37:57</property>
    <property name="shotcut:hash">ce64ff05cbaafa4ab64d61c9e57002dd</property>
    <property name="ignore_points">0</property>
    <property name="shotcut:caption">Nelly_clarinette_totoro.mp4</property>
    <property name="shotcut:skipConvert">1</property>
    <property name="global_feed">1</property>
    <property name="xml">was here</property>
    <filter id="filter30" in="00:01:49.600" out="00:02:04.400">
      <property name="background">colour:0</property>
      <property name="mlt_service">affine</property>
      <property name="shotcut:filter">affineSizePosition</property>
      <property name="transition.fill">1</property>
      <property name="transition.distort">0</property>
      <property name="transition.rect">0 540 480 270 1</property>
      <property name="transition.valign">top</property>
      <property name="transition.halign">left</property>
      <property name="shotcut:animIn">00:00:00.000</property>
      <property name="shotcut:animOut">00:00:00.000</property>
      <property name="transition.threads">0</property>
    </filter>
    <filter id="filter31" in="00:01:49.600" out="00:02:04.400">
      <property name="window">75</property>
      <property name="max_gain">20dB</property>
      <property name="level">-12</property>
      <property name="mlt_service">volume</property>
    </filter>
    <filter id="filter32" in="00:01:49.600" out="00:02:04.400">
      <property name="window">75</property>
      <property name="max_gain">20dB</property>
      <property name="mlt_service">volume</property>
      <property name="shotcut:filter">muteVolume</property>
      <property name="gain">0</property>
    </filter>
  </producer>
  <producer id="producer17" in="00:00:00.000" out="00:03:27.800" title="Anonymous Submission">
    <property name="length">00:03:27:21</property>
    <property name="eof">pause</property>
    <property name="resource">../../006 - Videos format youtube/Clarinettes/Nelly_clarinette_totoro.mp4</property>
    <property name="audio_index">1</property>
    <property name="video_index">0</property>
    <property name="mute_on_pause">0</property>
    <property name="mlt_service">avformat-novalidate</property>
    <property name="seekable">1</property>
    <property name="aspect_ratio">1</property>
    <property name="creation_time">2020-04-05T13:37:57</property>
    <property name="shotcut:hash">ce64ff05cbaafa4ab64d61c9e57002dd</property>
    <property name="ignore_points">0</property>
    <property name="shotcut:caption">Nelly_clarinette_totoro.mp4</property>
    <property name="shotcut:skipConvert">1</property>
    <property name="global_feed">1</property>
    <property name="xml">was here</property>
    <filter id="filter33" in="00:02:04.440" out="00:03:12.560">
      <property name="background">colour:0</property>
      <property name="mlt_service">affine</property>
      <property name="shotcut:filter">affineSizePosition</property>
      <property name="transition.fill">1</property>
      <property name="transition.distort">0</property>
      <property name="transition.rect">0 540 480 270 1</property>
      <property name="transition.valign">top</property>
      <property name="transition.halign">left</property>
      <property name="shotcut:animIn">00:00:00.000</property>
      <property name="shotcut:animOut">00:00:00.000</property>
      <property name="transition.threads">0</property>
    </filter>
    <filter id="filter34" in="00:02:04.440" out="00:03:12.560">
      <property name="window">75</property>
      <property name="max_gain">20dB</property>
      <property name="level">0</property>
      <property name="mlt_service">volume</property>
    </filter>
  </producer>
  <producer id="producer18" in="00:00:00.000" out="00:03:27.800" title="Anonymous Submission">
    <property name="length">00:03:27:21</property>
    <property name="eof">pause</property>
    <property name="resource">../../006 - Videos format youtube/Clarinettes/Nelly_clarinette_totoro.mp4</property>
    <property name="audio_index">1</property>
    <property name="video_index">0</property>
    <property name="mute_on_pause">0</property>
    <property name="mlt_service">avformat-novalidate</property>
    <property name="seekable">1</property>
    <property name="aspect_ratio">1</property>
    <property name="creation_time">2020-04-05T13:37:57</property>
    <property name="shotcut:hash">ce64ff05cbaafa4ab64d61c9e57002dd</property>
    <property name="ignore_points">0</property>
    <property name="shotcut:caption">Nelly_clarinette_totoro.mp4</property>
    <property name="shotcut:skipConvert">1</property>
    <property name="global_feed">1</property>
    <property name="xml">was here</property>
    <filter id="filter35" in="00:03:12.600" out="00:03:27.800">
      <property name="background">colour:0</property>
      <property name="mlt_service">affine</property>
      <property name="shotcut:filter">affineSizePosition</property>
      <property name="transition.fill">1</property>
      <property name="transition.distort">0</property>
      <property name="transition.rect">0 540 480 270 1</property>
      <property name="transition.valign">top</property>
      <property name="transition.halign">left</property>
      <property name="shotcut:animIn">00:00:00.000</property>
      <property name="shotcut:animOut">00:00:00.000</property>
      <property name="transition.threads">0</property>
    </filter>
    <filter id="filter36" in="00:03:12.600" out="00:03:27.800">
      <property name="window">75</property>
      <property name="max_gain">20dB</property>
      <property name="level">0</property>
      <property name="mlt_service">volume</property>
    </filter>
    <filter id="filter37" in="00:03:12.600" out="00:03:27.800">
      <property name="mlt_service">ladspa.1913</property>
      <property name="0">0</property>
      <property name="1">-10</property>
      <property name="2">0.51</property>
      <property name="instances">1</property>
      <property name="3[0]">0.860004</property>
      <property name="8[0]">240</property>
    </filter>
  </producer>
  <playlist id="playlist11">
    <property name="shotcut:video">1</property>
    <property name="shotcut:name">Clarinette_Nelly</property>
    <property name="shotcut:lock">1</property>
    <blank length="00:00:08.520" />
    <entry in="00:00:15.440" out="00:01:49.560" producer="producer32" />
    <entry in="00:01:49.600" out="00:02:04.400" producer="producer16" />
    <entry in="00:02:04.440" out="00:03:12.560" producer="producer17" />
    <entry in="00:03:12.600" out="00:03:27.800" producer="producer18" />
  </playlist>
  <producer id="producer19" in="00:00:00.000" out="00:03:16.440" title="Anonymous Submission">
    <property name="length">00:03:16:12</property>
    <property name="eof">pause</property>
    <property name="resource">../../006 - Videos format youtube/Clarinettes/Natacha_clarinette_totoro.mp4</property>
    <property name="audio_index">1</property>
    <property name="video_index">0</property>
    <property name="mute_on_pause">0</property>
    <property name="mlt_service">avformat-novalidate</property>
    <property name="seekable">1</property>
    <property name="aspect_ratio">1</property>
    <property name="creation_time">2020-04-09T18:24:43</property>
    <property name="shotcut:hash">ef0c345cac52960b965edf602ef26da9</property>
    <property name="ignore_points">0</property>
    <property name="shotcut:caption">Natacha_clarinette_totoro.mp4</property>
    <property name="shotcut:skipConvert">1</property>
    <property name="global_feed">1</property>
    <property name="xml">was here</property>
    <filter id="filter38" out="00:00:32.600">
      <property name="background">colour:0</property>
      <property name="mlt_service">affine</property>
      <property name="shotcut:filter">affineSizePosition</property>
      <property name="transition.fill">1</property>
      <property name="transition.distort">0</property>
      <property name="transition.rect">0 810 480 270 1</property>
      <property name="transition.valign">top</property>
      <property name="transition.halign">left</property>
      <property name="shotcut:animIn">00:00:00.000</property>
      <property name="shotcut:animOut">00:00:00.000</property>
      <property name="transition.threads">0</property>
    </filter>
    <filter id="filter39" out="00:00:32.600">
      <property name="window">75</property>
      <property name="max_gain">20dB</property>
      <property name="mlt_service">volume</property>
      <property name="shotcut:filter">muteVolume</property>
      <property name="gain">0</property>
    </filter>
  </producer>
  <producer id="producer20" in="00:00:00.000" out="00:03:16.440" title="Anonymous Submission">
    <property name="length">00:03:16:12</property>
    <property name="eof">pause</property>
    <property name="resource">../../006 - Videos format youtube/Clarinettes/Natacha_clarinette_totoro.mp4</property>
    <property name="audio_index">1</property>
    <property name="video_index">0</property>
    <property name="mute_on_pause">0</property>
    <property name="mlt_service">avformat-novalidate</property>
    <property name="seekable">1</property>
    <property name="aspect_ratio">1</property>
    <property name="creation_time">2020-04-09T18:24:43</property>
    <property name="shotcut:hash">ef0c345cac52960b965edf602ef26da9</property>
    <property name="ignore_points">0</property>
    <property name="shotcut:caption">Natacha_clarinette_totoro.mp4</property>
    <property name="shotcut:skipConvert">1</property>
    <property name="global_feed">1</property>
    <property name="xml">was here</property>
    <filter id="filter40" in="00:00:32.640" out="00:01:39.560">
      <property name="background">colour:0</property>
      <property name="mlt_service">affine</property>
      <property name="shotcut:filter">affineSizePosition</property>
      <property name="transition.fill">1</property>
      <property name="transition.distort">0</property>
      <property name="transition.rect">0 810 480 270 1</property>
      <property name="transition.valign">top</property>
      <property name="transition.halign">left</property>
      <property name="shotcut:animIn">00:00:00.000</property>
      <property name="shotcut:animOut">00:00:00.000</property>
      <property name="transition.threads">0</property>
    </filter>
    <filter id="filter41" in="00:00:32.640" out="00:01:39.560">
      <property name="window">75</property>
      <property name="max_gain">20dB</property>
      <property name="level">-5</property>
      <property name="mlt_service">volume</property>
    </filter>
  </producer>
  <producer id="producer21" in="00:00:00.000" out="00:03:16.440" title="Anonymous Submission">
    <property name="length">00:03:16:12</property>
    <property name="eof">pause</property>
    <property name="resource">../../006 - Videos format youtube/Clarinettes/Natacha_clarinette_totoro.mp4</property>
    <property name="audio_index">1</property>
    <property name="video_index">0</property>
    <property name="mute_on_pause">0</property>
    <property name="mlt_service">avformat-novalidate</property>
    <property name="seekable">1</property>
    <property name="aspect_ratio">1</property>
    <property name="creation_time">2020-04-09T18:24:43</property>
    <property name="shotcut:hash">ef0c345cac52960b965edf602ef26da9</property>
    <property name="ignore_points">0</property>
    <property name="shotcut:caption">Natacha_clarinette_totoro.mp4</property>
    <property name="shotcut:skipConvert">1</property>
    <property name="global_feed">1</property>
    <property name="xml">was here</property>
    <filter id="filter42" in="00:01:39.600" out="00:01:54.400">
      <property name="background">colour:0</property>
      <property name="mlt_service">affine</property>
      <property name="shotcut:filter">affineSizePosition</property>
      <property name="transition.fill">1</property>
      <property name="transition.distort">0</property>
      <property name="transition.rect">0 810 480 270 1</property>
      <property name="transition.valign">top</property>
      <property name="transition.halign">left</property>
      <property name="shotcut:animIn">00:00:00.000</property>
      <property name="shotcut:animOut">00:00:00.000</property>
      <property name="transition.threads">0</property>
    </filter>
    <filter id="filter43" in="00:01:39.600" out="00:01:54.400">
      <property name="window">75</property>
      <property name="max_gain">20dB</property>
      <property name="mlt_service">volume</property>
      <property name="shotcut:filter">muteVolume</property>
      <property name="gain">0</property>
    </filter>
  </producer>
  <producer id="producer22" in="00:00:00.000" out="00:03:16.440" title="Anonymous Submission">
    <property name="length">00:03:16:12</property>
    <property name="eof">pause</property>
    <property name="resource">../../006 - Videos format youtube/Clarinettes/Natacha_clarinette_totoro.mp4</property>
    <property name="audio_index">1</property>
    <property name="video_index">0</property>
    <property name="mute_on_pause">0</property>
    <property name="mlt_service">avformat-novalidate</property>
    <property name="seekable">1</property>
    <property name="aspect_ratio">1</property>
    <property name="creation_time">2020-04-09T18:24:43</property>
    <property name="shotcut:hash">ef0c345cac52960b965edf602ef26da9</property>
    <property name="ignore_points">0</property>
    <property name="shotcut:caption">Natacha_clarinette_totoro.mp4</property>
    <property name="shotcut:skipConvert">1</property>
    <property name="global_feed">1</property>
    <property name="xml">was here</property>
    <filter id="filter44" in="00:01:54.440" out="00:02:30.920">
      <property name="background">colour:0</property>
      <property name="mlt_service">affine</property>
      <property name="shotcut:filter">affineSizePosition</property>
      <property name="transition.fill">1</property>
      <property name="transition.distort">0</property>
      <property name="transition.rect">0 810 480 270 1</property>
      <property name="transition.valign">top</property>
      <property name="transition.halign">left</property>
      <property name="shotcut:animIn">00:00:00.000</property>
      <property name="shotcut:animOut">00:00:00.000</property>
      <property name="transition.threads">0</property>
    </filter>
  </producer>
  <producer id="producer23" in="00:00:00.000" out="00:03:16.440" title="Anonymous Submission">
    <property name="length">00:03:16:12</property>
    <property name="eof">pause</property>
    <property name="resource">../../006 - Videos format youtube/Clarinettes/Natacha_clarinette_totoro.mp4</property>
    <property name="audio_index">1</property>
    <property name="video_index">0</property>
    <property name="mute_on_pause">0</property>
    <property name="mlt_service">avformat-novalidate</property>
    <property name="seekable">1</property>
    <property name="aspect_ratio">1</property>
    <property name="creation_time">2020-04-09T18:24:43</property>
    <property name="shotcut:hash">ef0c345cac52960b965edf602ef26da9</property>
    <property name="ignore_points">0</property>
    <property name="shotcut:caption">Natacha_clarinette_totoro.mp4</property>
    <property name="shotcut:skipConvert">1</property>
    <property name="global_feed">1</property>
    <property name="xml">was here</property>
    <filter id="filter45" in="00:02:30.960" out="00:02:32.440">
      <property name="background">colour:0</property>
      <property name="mlt_service">affine</property>
      <property name="shotcut:filter">affineSizePosition</property>
      <property name="transition.fill">1</property>
      <property name="transition.distort">0</property>
      <property name="transition.rect">0 810 480 270 1</property>
      <property name="transition.valign">top</property>
      <property name="transition.halign">left</property>
      <property name="shotcut:animIn">00:00:00.000</property>
      <property name="shotcut:animOut">00:00:00.000</property>
      <property name="transition.threads">0</property>
    </filter>
  </producer>
  <producer id="producer24" in="00:00:00.000" out="00:03:16.440" title="Anonymous Submission">
    <property name="length">00:03:16:12</property>
    <property name="eof">pause</property>
    <property name="resource">../../006 - Videos format youtube/Clarinettes/Natacha_clarinette_totoro.mp4</property>
    <property name="audio_index">1</property>
    <property name="video_index">0</property>
    <property name="mute_on_pause">0</property>
    <property name="mlt_service">avformat-novalidate</property>
    <property name="seekable">1</property>
    <property name="aspect_ratio">1</property>
    <property name="creation_time">2020-04-09T18:24:43</property>
    <property name="shotcut:hash">ef0c345cac52960b965edf602ef26da9</property>
    <property name="ignore_points">0</property>
    <property name="shotcut:caption">Natacha_clarinette_totoro.mp4</property>
    <property name="shotcut:skipConvert">1</property>
    <property name="global_feed">1</property>
    <property name="xml">was here</property>
    <filter id="filter48" in="00:02:32.480" out="00:02:54.840">
      <property name="background">colour:0</property>
      <property name="mlt_service">affine</property>
      <property name="shotcut:filter">affineSizePosition</property>
      <property name="transition.fill">1</property>
      <property name="transition.distort">0</property>
      <property name="transition.rect">0 810 480 270 1</property>
      <property name="transition.valign">top</property>
      <property name="transition.halign">left</property>
      <property name="shotcut:animIn">00:00:00.000</property>
      <property name="shotcut:animOut">00:00:00.000</property>
      <property name="transition.threads">0</property>
    </filter>
  </producer>
  <producer id="producer25" in="00:00:00.000" out="00:03:16.440" title="Anonymous Submission">
    <property name="length">00:03:16:12</property>
    <property name="eof">pause</property>
    <property name="resource">../../006 - Videos format youtube/Clarinettes/Natacha_clarinette_totoro.mp4</property>
    <property name="audio_index">1</property>
    <property name="video_index">0</property>
    <property name="mute_on_pause">0</property>
    <property name="mlt_service">avformat-novalidate</property>
    <property name="seekable">1</property>
    <property name="aspect_ratio">1</property>
    <property name="creation_time">2020-04-09T18:24:43</property>
    <property name="shotcut:hash">ef0c345cac52960b965edf602ef26da9</property>
    <property name="ignore_points">0</property>
    <property name="shotcut:caption">Natacha_clarinette_totoro.mp4</property>
    <property name="shotcut:skipConvert">1</property>
    <property name="global_feed">1</property>
    <property name="xml">was here</property>
    <filter id="filter49" in="00:02:54.880" out="00:03:00.040">
      <property name="background">colour:0</property>
      <property name="mlt_service">affine</property>
      <property name="shotcut:filter">affineSizePosition</property>
      <property name="transition.fill">1</property>
      <property name="transition.distort">0</property>
      <property name="transition.rect">0 810 480 270 1</property>
      <property name="transition.valign">top</property>
      <property name="transition.halign">left</property>
      <property name="shotcut:animIn">00:00:00.000</property>
      <property name="shotcut:animOut">00:00:00.000</property>
      <property name="transition.threads">0</property>
    </filter>
    <filter id="filter50" in="00:02:54.880" out="00:03:00.040">
      <property name="window">75</property>
      <property name="max_gain">20dB</property>
      <property name="mlt_service">volume</property>
      <property name="shotcut:filter">muteVolume</property>
      <property name="gain">0</property>
    </filter>
  </producer>
  <producer id="producer26" in="00:00:00.000" out="00:03:16.440" title="Anonymous Submission">
    <property name="length">00:03:16:12</property>
    <property name="eof">pause</property>
    <property name="resource">../../006 - Videos format youtube/Clarinettes/Natacha_clarinette_totoro.mp4</property>
    <property name="audio_index">1</property>
    <property name="video_index">0</property>
    <property name="mute_on_pause">0</property>
    <property name="mlt_service">avformat-novalidate</property>
    <property name="seekable">1</property>
    <property name="aspect_ratio">1</property>
    <property name="creation_time">2020-04-09T18:24:43</property>
    <property name="shotcut:hash">ef0c345cac52960b965edf602ef26da9</property>
    <property name="ignore_points">0</property>
    <property name="shotcut:caption">Natacha_clarinette_totoro.mp4</property>
    <property name="shotcut:skipConvert">1</property>
    <property name="global_feed">1</property>
    <property name="xml">was here</property>
    <filter id="filter51" in="00:03:00.080" out="00:03:02.560">
      <property name="background">colour:0</property>
      <property name="mlt_service">affine</property>
      <property name="shotcut:filter">affineSizePosition</property>
      <property name="transition.fill">1</property>
      <property name="transition.distort">0</property>
      <property name="transition.rect">0 810 480 270 1</property>
      <property name="transition.valign">top</property>
      <property name="transition.halign">left</property>
      <property name="shotcut:animIn">00:00:00.000</property>
      <property name="shotcut:animOut">00:00:00.000</property>
      <property name="transition.threads">0</property>
    </filter>
    <filter id="filter52" in="00:03:00.080" out="00:03:02.560">
      <property name="window">75</property>
      <property name="max_gain">20dB</property>
      <property name="mlt_service">volume</property>
      <property name="shotcut:filter">muteVolume</property>
      <property name="gain">0</property>
    </filter>
  </producer>
  <producer id="producer27" in="00:00:00.000" out="00:03:16.440" title="Anonymous Submission">
    <property name="length">00:03:16:12</property>
    <property name="eof">pause</property>
    <property name="resource">../../006 - Videos format youtube/Clarinettes/Natacha_clarinette_totoro.mp4</property>
    <property name="audio_index">1</property>
    <property name="video_index">0</property>
    <property name="mute_on_pause">0</property>
    <property name="mlt_service">avformat-novalidate</property>
    <property name="seekable">1</property>
    <property name="aspect_ratio">1</property>
    <property name="creation_time">2020-04-09T18:24:43</property>
    <property name="shotcut:hash">ef0c345cac52960b965edf602ef26da9</property>
    <property name="ignore_points">0</property>
    <property name="shotcut:caption">Natacha_clarinette_totoro.mp4</property>
    <property name="shotcut:skipConvert">1</property>
    <property name="global_feed">1</property>
    <property name="xml">was here</property>
    <filter id="filter53" in="00:03:02.600" out="00:03:16.440">
      <property name="background">colour:0</property>
      <property name="mlt_service">affine</property>
      <property name="shotcut:filter">affineSizePosition</property>
      <property name="transition.fill">1</property>
      <property name="transition.distort">0</property>
      <property name="transition.rect">0 810 480 270 1</property>
      <property name="transition.valign">top</property>
      <property name="transition.halign">left</property>
      <property name="shotcut:animIn">00:00:00.000</property>
      <property name="shotcut:animOut">00:00:00.000</property>
      <property name="transition.threads">0</property>
      <property name="disable">0</property>
    </filter>
    <filter id="filter54" in="00:03:02.600" out="00:03:16.440">
      <property name="mlt_service">ladspa.1913</property>
      <property name="0">0</property>
      <property name="1">-10</property>
      <property name="2">0.51</property>
      <property name="instances">1</property>
      <property name="3[0]">0.904624</property>
      <property name="8[0]">240</property>
      <property name="disable">0</property>
    </filter>
  </producer>
  <playlist id="playlist3">
    <property name="shotcut:video">1</property>
    <property name="shotcut:name">V6</property>
    <property name="shotcut:lock">0</property>
    <blank length="00:00:03.080" />
    <entry in="00:00:00.000" out="00:00:32.600" producer="producer19" />
    <entry in="00:00:32.640" out="00:01:39.560" producer="producer20" />
    <entry in="00:01:39.600" out="00:01:54.400" producer="producer21" />
    <entry in="00:01:54.440" out="00:02:30.920" producer="producer22" />
    <entry in="00:02:30.960" out="00:02:32.440" producer="producer23" />
    <entry in="00:02:32.480" out="00:02:54.840" producer="producer24" />
    <entry in="00:02:54.880" out="00:03:00.040" producer="producer25" />
    <entry in="00:03:00.080" out="00:03:02.560" producer="producer26" />
    <entry in="00:03:02.600" out="00:03:16.440" producer="producer27" />
  </playlist>
  <producer id="Camille_trombone_totoroproducer4" in="00:00:00.000" out="00:03:16.680" title="Anonymous Submission">
    <property name="length">00:03:16:18</property>
    <property name="eof">pause</property>
    <property name="resource">../../006 - Videos format youtube/Trombone/Camille_trombone_totoro.mp4</property>
    <property name="audio_index">1</property>
    <property name="video_index">0</property>
    <property name="mute_on_pause">0</property>
    <property name="mlt_service">avformat-novalidate</property>
    <property name="seekable">1</property>
    <property name="aspect_ratio">1</property>
    <property name="creation_time">2020-04-09T17:56:38</property>
    <property name="shotcut:hash">6322ebba469dd48f4d62f48f0e58e722</property>
    <property name="ignore_points">0</property>
    <property name="shotcut:caption">Camille_trombone_totoro.mp4</property>
    <property name="shotcut:skipConvert">1</property>
    <property name="global_feed">1</property>
    <property name="xml">was here</property>
    <filter id="Camille_trombone_totoroproducer4_filter3" out="00:00:20.240">
      <property name="background">colour:0</property>
      <property name="mlt_service">affine</property>
      <property name="shotcut:filter">affineSizePosition</property>
      <property name="transition.fill">1</property>
      <property name="transition.distort">0</property>
      <property name="transition.rect">480 0 480 270 1</property>
      <property name="transition.valign">top</property>
      <property name="transition.halign">left</property>
      <property name="shotcut:animIn">00:00:00.000</property>
      <property name="shotcut:animOut">00:00:00.000</property>
      <property name="transition.threads">0</property>
    </filter>
    <filter id="Camille_trombone_totoroproducer4_filter4" out="00:00:20.240">
      <property name="window">75</property>
      <property name="max_gain">20dB</property>
      <property name="mlt_service">volume</property>
      <property name="shotcut:filter">muteVolume</property>
      <property name="gain">0</property>
    </filter>
  </producer>
  <producer id="Camille_trombone_totoroproducer5" in="00:00:00.000" out="00:03:16.680" title="Anonymous Submission">
    <property name="length">00:03:16:18</property>
    <property name="eof">pause</property>
    <property name="resource">../../006 - Videos format youtube/Trombone/Camille_trombone_totoro.mp4</property>
    <property name="audio_index">1</property>
    <property name="video_index">0</property>
    <property name="mute_on_pause">0</property>
    <property name="mlt_service">avformat-novalidate</property>
    <property name="seekable">1</property>
    <property name="aspect_ratio">1</property>
    <property name="creation_time">2020-04-09T17:56:38</property>
    <property name="shotcut:hash">6322ebba469dd48f4d62f48f0e58e722</property>
    <property name="ignore_points">0</property>
    <property name="shotcut:caption">Camille_trombone_totoro.mp4</property>
    <property name="shotcut:skipConvert">1</property>
    <property name="global_feed">1</property>
    <property name="xml">was here</property>
    <filter id="Camille_trombone_totoroproducer5_filter5" in="00:00:20.280" out="00:01:35.800">
      <property name="background">colour:0</property>
      <property name="mlt_service">affine</property>
      <property name="shotcut:filter">affineSizePosition</property>
      <property name="transition.fill">1</property>
      <property name="transition.distort">0</property>
      <property name="transition.rect">480 0 480 270 1</property>
      <property name="transition.valign">top</property>
      <property name="transition.halign">left</property>
      <property name="shotcut:animIn">00:00:00.000</property>
      <property name="shotcut:animOut">00:00:00.000</property>
      <property name="transition.threads">0</property>
    </filter>
  </producer>
  <producer id="Camille_trombone_totoroproducer6" in="00:00:00.000" out="00:03:16.680" title="Anonymous Submission">
    <property name="length">00:03:16:18</property>
    <property name="eof">pause</property>
    <property name="resource">../../006 - Videos format youtube/Trombone/Camille_trombone_totoro.mp4</property>
    <property name="audio_index">1</property>
    <property name="video_index">0</property>
    <property name="mute_on_pause">0</property>
    <property name="mlt_service">avformat-novalidate</property>
    <property name="seekable">1</property>
    <property name="aspect_ratio">1</property>
    <property name="creation_time">2020-04-09T17:56:38</property>
    <property name="shotcut:hash">6322ebba469dd48f4d62f48f0e58e722</property>
    <property name="ignore_points">0</property>
    <property name="shotcut:caption">Camille_trombone_totoro.mp4</property>
    <property name="shotcut:skipConvert">1</property>
    <property name="global_feed">1</property>
    <property name="xml">was here</property>
    <filter id="Camille_trombone_totoroproducer6_filter6" in="00:01:35.840" out="00:01:49.360">
      <property name="background">colour:0</property>
      <property name="mlt_service">affine</property>
      <property name="shotcut:filter">affineSizePosition</property>
      <property name="transition.fill">1</property>
      <property name="transition.distort">0</property>
      <property name="transition.rect">480 0 480 270 1</property>
      <property name="transition.valign">top</property>
      <property name="transition.halign">left</property>
      <property name="shotcut:animIn">00:00:00.000</property>
      <property name="shotcut:animOut">00:00:00.000</property>
      <property name="transition.threads">0</property>
    </filter>
    <filter id="Camille_trombone_totoroproducer6_filter7" in="00:01:35.840" out="00:01:49.360">
      <property name="window">75</property>
      <property name="max_gain">20dB</property>
      <property name="mlt_service">volume</property>
      <property name="shotcut:filter">muteVolume</property>
      <property name="gain">0</property>
    </filter>
  </producer>
  <producer id="Camille_trombone_totoroproducer7" in="00:00:00.000" out="00:03:16.680" title="Anonymous Submission">
    <property name="length">00:03:16:18</property>
    <property name="eof">pause</property>
    <property name="resource">../../006 - Videos format youtube/Trombone/Camille_trombone_totoro.mp4</property>
    <property name="audio_index">1</property>
    <property name="video_index">0</property>
    <property name="mute_on_pause">0</property>
    <property name="mlt_service">avformat-novalidate</property>
    <property name="seekable">1</property>
    <property name="aspect_ratio">1</property>
    <property name="creation_time">2020-04-09T17:56:38</property>
    <property name="shotcut:hash">6322ebba469dd48f4d62f48f0e58e722</property>
    <property name="ignore_points">0</property>
    <property name="shotcut:caption">Camille_trombone_totoro.mp4</property>
    <property name="shotcut:skipConvert">1</property>
    <property name="global_feed">1</property>
    <property name="xml">was here</property>
    <filter id="Camille_trombone_totoroproducer7_filter8" in="00:01:49.400" out="00:02:47.960">
      <property name="background">colour:0</property>
      <property name="mlt_service">affine</property>
      <property name="shotcut:filter">affineSizePosition</property>
      <property name="transition.fill">1</property>
      <property name="transition.distort">0</property>
      <property name="transition.rect">480 0 480 270 1</property>
      <property name="transition.valign">top</property>
      <property name="transition.halign">left</property>
      <property name="shotcut:animIn">00:00:00.000</property>
      <property name="shotcut:animOut">00:00:00.000</property>
      <property name="transition.threads">0</property>
    </filter>
  </producer>
  <producer id="Camille_trombone_totoroproducer8" in="00:00:00.000" out="00:03:16.680" title="Anonymous Submission">
    <property name="length">00:03:16:18</property>
    <property name="eof">pause</property>
    <property name="resource">../../006 - Videos format youtube/Trombone/Camille_trombone_totoro.mp4</property>
    <property name="audio_index">1</property>
    <property name="video_index">0</property>
    <property name="mute_on_pause">0</property>
    <property name="mlt_service">avformat-novalidate</property>
    <property name="seekable">1</property>
    <property name="aspect_ratio">1</property>
    <property name="creation_time">2020-04-09T17:56:38</property>
    <property name="shotcut:hash">6322ebba469dd48f4d62f48f0e58e722</property>
    <property name="ignore_points">0</property>
    <property name="shotcut:caption">Camille_trombone_totoro.mp4</property>
    <property name="shotcut:skipConvert">1</property>
    <property name="global_feed">1</property>
    <property name="xml">was here</property>
    <filter id="Camille_trombone_totoroproducer8_filter9" in="00:02:48.000" out="00:02:50.680">
      <property name="background">colour:0</property>
      <property name="mlt_service">affine</property>
      <property name="shotcut:filter">affineSizePosition</property>
      <property name="transition.fill">1</property>
      <property name="transition.distort">0</property>
      <property name="transition.rect">480 0 480 270 1</property>
      <property name="transition.valign">top</property>
      <property name="transition.halign">left</property>
      <property name="shotcut:animIn">00:00:00.000</property>
      <property name="shotcut:animOut">00:00:00.000</property>
      <property name="transition.threads">0</property>
    </filter>
    <filter id="Camille_trombone_totoroproducer8_filter10" in="00:02:48.000" out="00:02:50.680">
      <property name="window">75</property>
      <property name="max_gain">20dB</property>
      <property name="level">-5</property>
      <property name="mlt_service">volume</property>
    </filter>
  </producer>
  <producer id="Camille_trombone_totoroproducer9" in="00:00:00.000" out="00:03:16.680" title="Anonymous Submission">
    <property name="length">00:03:16:18</property>
    <property name="eof">pause</property>
    <property name="resource">../../006 - Videos format youtube/Trombone/Camille_trombone_totoro.mp4</property>
    <property name="audio_index">1</property>
    <property name="video_index">0</property>
    <property name="mute_on_pause">0</property>
    <property name="mlt_service">avformat-novalidate</property>
    <property name="seekable">1</property>
    <property name="aspect_ratio">1</property>
    <property name="creation_time">2020-04-09T17:56:38</property>
    <property name="shotcut:hash">6322ebba469dd48f4d62f48f0e58e722</property>
    <property name="ignore_points">0</property>
    <property name="shotcut:caption">Camille_trombone_totoro.mp4</property>
    <property name="shotcut:skipConvert">1</property>
    <property name="global_feed">1</property>
    <property name="xml">was here</property>
    <filter id="Camille_trombone_totoroproducer9_filter11" in="00:02:50.720" out="00:03:03.440">
      <property name="background">colour:0</property>
      <property name="mlt_service">affine</property>
      <property name="shotcut:filter">affineSizePosition</property>
      <property name="transition.fill">1</property>
      <property name="transition.distort">0</property>
      <property name="transition.rect">480 0 480 270 1</property>
      <property name="transition.valign">top</property>
      <property name="transition.halign">left</property>
      <property name="shotcut:animIn">00:00:00.000</property>
      <property name="shotcut:animOut">00:00:00.000</property>
      <property name="transition.threads">0</property>
    </filter>
  </producer>
  <producer id="Camille_trombone_totoroproducer10" in="00:00:00.000" out="00:03:16.680" title="Anonymous Submission">
    <property name="length">00:03:16:18</property>
    <property name="eof">pause</property>
    <property name="resource">../../006 - Videos format youtube/Trombone/Camille_trombone_totoro.mp4</property>
    <property name="audio_index">1</property>
    <property name="video_index">0</property>
    <property name="mute_on_pause">0</property>
    <property name="mlt_service">avformat-novalidate</property>
    <property name="seekable">1</property>
    <property name="aspect_ratio">1</property>
    <property name="creation_time">2020-04-09T17:56:38</property>
    <property name="shotcut:hash">6322ebba469dd48f4d62f48f0e58e722</property>
    <property name="ignore_points">0</property>
    <property name="shotcut:caption">Camille_trombone_totoro.mp4</property>
    <property name="shotcut:skipConvert">1</property>
    <property name="global_feed">1</property>
    <property name="xml">was here</property>
    <filter id="Camille_trombone_totoroproducer10_filter12" in="00:03:03.480" out="00:03:05.600">
      <property name="background">colour:0</property>
      <property name="mlt_service">affine</property>
      <property name="shotcut:filter">affineSizePosition</property>
      <property name="transition.fill">1</property>
      <property name="transition.distort">0</property>
      <property name="transition.rect">480 0 480 270 1</property>
      <property name="transition.valign">top</property>
      <property name="transition.halign">left</property>
      <property name="shotcut:animIn">00:00:00.000</property>
      <property name="shotcut:animOut">00:00:00.000</property>
      <property name="transition.threads">0</property>
    </filter>
    <filter id="Camille_trombone_totoroproducer10_filter13" in="00:03:03.480" out="00:03:05.600">
      <property name="window">75</property>
      <property name="max_gain">20dB</property>
      <property name="mlt_service">volume</property>
      <property name="shotcut:filter">muteVolume</property>
      <property name="gain">0</property>
    </filter>
  </producer>
  <producer id="Camille_trombone_totoroproducer11" in="00:00:00.000" out="00:03:16.680" title="Anonymous Submission">
    <property name="length">00:03:16:18</property>
    <property name="eof">pause</property>
    <property name="resource">../../006 - Videos format youtube/Trombone/Camille_trombone_totoro.mp4</property>
    <property name="audio_index">1</property>
    <property name="video_index">0</property>
    <property name="mute_on_pause">0</property>
    <property name="mlt_service">avformat-novalidate</property>
    <property name="seekable">1</property>
    <property name="aspect_ratio">1</property>
    <property name="creation_time">2020-04-09T17:56:38</property>
    <property name="shotcut:hash">6322ebba469dd48f4d62f48f0e58e722</property>
    <property name="ignore_points">0</property>
    <property name="shotcut:caption">Camille_trombone_totoro.mp4</property>
    <property name="shotcut:skipConvert">1</property>
    <property name="global_feed">1</property>
    <property name="xml">was here</property>
    <filter id="Camille_trombone_totoroproducer11_filter14" in="00:03:05.640" out="00:03:16.680">
      <property name="background">colour:0</property>
      <property name="mlt_service">affine</property>
      <property name="shotcut:filter">affineSizePosition</property>
      <property name="transition.fill">1</property>
      <property name="transition.distort">0</property>
      <property name="transition.rect">480 0 480 270 1</property>
      <property name="transition.valign">top</property>
      <property name="transition.halign">left</property>
      <property name="shotcut:animIn">00:00:00.000</property>
      <property name="shotcut:animOut">00:00:00.000</property>
      <property name="transition.threads">0</property>
    </filter>
    <filter id="Camille_trombone_totoroproducer11_filter15" in="00:03:05.640" out="00:03:16.680">
      <property name="window">75</property>
      <property name="max_gain">20dB</property>
      <property name="mlt_service">volume</property>
      <property name="shotcut:filter">muteVolume</property>
      <property name="gain">0</property>
    </filter>
  </producer>
  <playlist id="Camille_trombone_totoroplaylist3">
    <property name="shotcut:video">1</property>
    <property name="shotcut:name">Camille_trombone</property>
    <property name="shotcut:lock">1</property>
    <blank length="00:00:09.040" />
    <entry in="00:00:00.000" out="00:00:20.240" producer="Camille_trombone_totoroproducer4" />
    <entry in="00:00:20.280" out="00:01:35.800" producer="Camille_trombone_totoroproducer5" />
    <entry in="00:01:35.840" out="00:01:49.360" producer="Camille_trombone_totoroproducer6" />
    <entry in="00:01:49.400" out="00:02:47.960" producer="Camille_trombone_totoroproducer7" />
    <entry in="00:02:48.000" out="00:02:50.680" producer="Camille_trombone_totoroproducer8" />
    <entry in="00:02:50.720" out="00:03:03.440" producer="Camille_trombone_totoroproducer9" />
    <entry in="00:03:03.480" out="00:03:05.600" producer="Camille_trombone_totoroproducer10" />
    <entry in="00:03:05.640" out="00:03:16.680" producer="Camille_trombone_totoroproducer11" />
  </playlist>
  <producer id="Bidou_cornet_totoroproducer4" in="00:00:00.000" out="00:03:41.040" title="Anonymous Submission">
    <property name="length">00:03:41:02</property>
    <property name="eof">pause</property>
    <property name="resource">../../006 - Videos format youtube/Trompettes et cornets/Bidou_cornet_totoro.mp4</property>
    <property name="audio_index">1</property>
    <property name="video_index">0</property>
    <property name="mute_on_pause">0</property>
    <property name="mlt_service">avformat-novalidate</property>
    <property name="seekable">1</property>
    <property name="aspect_ratio">1</property>
    <property name="creation_time">2020-04-05T19:25:31</property>
    <property name="shotcut:hash">df47beb18305e9051d91b2aae87978a4</property>
    <property name="ignore_points">0</property>
    <property name="shotcut:caption">Bidou_cornet_totoro.mp4</property>
    <property name="shotcut:skipConvert">1</property>
    <property name="global_feed">1</property>
    <property name="xml">was here</property>
    <filter id="Bidou_cornet_totoroproducer4_filter3" in="00:00:22.360" out="00:00:49.960">
      <property name="background">colour:0</property>
      <property name="mlt_service">affine</property>
      <property name="shotcut:filter">affineSizePosition</property>
      <property name="transition.fill">1</property>
      <property name="transition.distort">0</property>
      <property name="transition.rect">480 270 480 270 1</property>
      <property name="transition.valign">top</property>
      <property name="transition.halign">left</property>
      <property name="shotcut:animIn">00:00:00.000</property>
      <property name="shotcut:animOut">00:00:00.000</property>
      <property name="transition.threads">0</property>
    </filter>
    <filter id="Bidou_cornet_totoroproducer4_filter4" in="00:00:22.360" out="00:00:49.960">
      <property name="window">75</property>
      <property name="max_gain">20dB</property>
      <property name="mlt_service">volume</property>
      <property name="shotcut:filter">muteVolume</property>
      <property name="gain">0</property>
    </filter>
  </producer>
  <producer id="Bidou_cornet_totoroproducer5" in="00:00:00.000" out="00:03:41.040" title="Anonymous Submission">
    <property name="length">00:03:41:02</property>
    <property name="eof">pause</property>
    <property name="resource">../../006 - Videos format youtube/Trompettes et cornets/Bidou_cornet_totoro.mp4</property>
    <property name="audio_index">1</property>
    <property name="video_index">0</property>
    <property name="mute_on_pause">0</property>
    <property name="mlt_service">avformat-novalidate</property>
    <property name="seekable">1</property>
    <property name="aspect_ratio">1</property>
    <property name="creation_time">2020-04-05T19:25:31</property>
    <property name="shotcut:hash">df47beb18305e9051d91b2aae87978a4</property>
    <property name="ignore_points">0</property>
    <property name="shotcut:caption">Bidou_cornet_totoro.mp4</property>
    <property name="shotcut:skipConvert">1</property>
    <property name="global_feed">1</property>
    <property name="xml">was here</property>
    <filter id="Bidou_cornet_totoroproducer5_filter5" in="00:00:50.000" out="00:00:57.280">
      <property name="background">colour:0</property>
      <property name="mlt_service">affine</property>
      <property name="shotcut:filter">affineSizePosition</property>
      <property name="transition.fill">1</property>
      <property name="transition.distort">0</property>
      <property name="transition.rect">480 270 480 270 1</property>
      <property name="transition.valign">top</property>
      <property name="transition.halign">left</property>
      <property name="shotcut:animIn">00:00:00.000</property>
      <property name="shotcut:animOut">00:00:00.000</property>
      <property name="transition.threads">0</property>
    </filter>
  </producer>
  <producer id="Bidou_cornet_totoroproducer6" in="00:00:00.000" out="00:03:41.040" title="Anonymous Submission">
    <property name="length">00:03:41:02</property>
    <property name="eof">pause</property>
    <property name="resource">../../006 - Videos format youtube/Trompettes et cornets/Bidou_cornet_totoro.mp4</property>
    <property name="audio_index">1</property>
    <property name="video_index">0</property>
    <property name="mute_on_pause">0</property>
    <property name="mlt_service">avformat-novalidate</property>
    <property name="seekable">1</property>
    <property name="aspect_ratio">1</property>
    <property name="creation_time">2020-04-05T19:25:31</property>
    <property name="shotcut:hash">df47beb18305e9051d91b2aae87978a4</property>
    <property name="ignore_points">0</property>
    <property name="shotcut:caption">Bidou_cornet_totoro.mp4</property>
    <property name="shotcut:skipConvert">1</property>
    <property name="global_feed">1</property>
    <property name="xml">was here</property>
    <filter id="Bidou_cornet_totoroproducer6_filter6" in="00:00:57.320" out="00:01:10.160">
      <property name="background">colour:0</property>
      <property name="mlt_service">affine</property>
      <property name="shotcut:filter">affineSizePosition</property>
      <property name="transition.fill">1</property>
      <property name="transition.distort">0</property>
      <property name="transition.rect">480 270 480 270 1</property>
      <property name="transition.valign">top</property>
      <property name="transition.halign">left</property>
      <property name="shotcut:animIn">00:00:00.000</property>
      <property name="shotcut:animOut">00:00:00.000</property>
      <property name="transition.threads">0</property>
    </filter>
    <filter id="Bidou_cornet_totoroproducer6_filter7" in="00:00:57.320" out="00:01:10.160">
      <property name="window">75</property>
      <property name="max_gain">20dB</property>
      <property name="mlt_service">volume</property>
      <property name="shotcut:filter">muteVolume</property>
      <property name="gain">0</property>
    </filter>
  </producer>
  <producer id="Bidou_cornet_totoroproducer7" in="00:00:00.000" out="00:03:41.040" title="Anonymous Submission">
    <property name="length">00:03:41:02</property>
    <property name="eof">pause</property>
    <property name="resource">../../006 - Videos format youtube/Trompettes et cornets/Bidou_cornet_totoro.mp4</property>
    <property name="audio_index">1</property>
    <property name="video_index">0</property>
    <property name="mute_on_pause">0</property>
    <property name="mlt_service">avformat-novalidate</property>
    <property name="seekable">1</property>
    <property name="aspect_ratio">1</property>
    <property name="creation_time">2020-04-05T19:25:31</property>
    <property name="shotcut:hash">df47beb18305e9051d91b2aae87978a4</property>
    <property name="ignore_points">0</property>
    <property name="shotcut:caption">Bidou_cornet_totoro.mp4</property>
    <property name="shotcut:skipConvert">1</property>
    <property name="global_feed">1</property>
    <property name="xml">was here</property>
    <filter id="Bidou_cornet_totoroproducer7_filter8" in="00:01:10.200" out="00:01:23.200">
      <property name="background">colour:0</property>
      <property name="mlt_service">affine</property>
      <property name="shotcut:filter">affineSizePosition</property>
      <property name="transition.fill">1</property>
      <property name="transition.distort">0</property>
      <property name="transition.rect">480 270 480 270 1</property>
      <property name="transition.valign">top</property>
      <property name="transition.halign">left</property>
      <property name="shotcut:animIn">00:00:00.000</property>
      <property name="shotcut:animOut">00:00:00.000</property>
      <property name="transition.threads">0</property>
    </filter>
  </producer>
  <producer id="Bidou_cornet_totoroproducer8" in="00:00:00.000" out="00:03:41.040" title="Anonymous Submission">
    <property name="length">00:03:41:02</property>
    <property name="eof">pause</property>
    <property name="resource">../../006 - Videos format youtube/Trompettes et cornets/Bidou_cornet_totoro.mp4</property>
    <property name="audio_index">1</property>
    <property name="video_index">0</property>
    <property name="mute_on_pause">0</property>
    <property name="mlt_service">avformat-novalidate</property>
    <property name="seekable">1</property>
    <property name="aspect_ratio">1</property>
    <property name="creation_time">2020-04-05T19:25:31</property>
    <property name="shotcut:hash">df47beb18305e9051d91b2aae87978a4</property>
    <property name="ignore_points">0</property>
    <property name="shotcut:caption">Bidou_cornet_totoro.mp4</property>
    <property name="shotcut:skipConvert">1</property>
    <property name="global_feed">1</property>
    <property name="xml">was here</property>
    <filter id="Bidou_cornet_totoroproducer8_filter9" in="00:01:23.240" out="00:01:30.760">
      <property name="background">colour:0</property>
      <property name="mlt_service">affine</property>
      <property name="shotcut:filter">affineSizePosition</property>
      <property name="transition.fill">1</property>
      <property name="transition.distort">0</property>
      <property name="transition.rect">480 270 480 270 1</property>
      <property name="transition.valign">top</property>
      <property name="transition.halign">left</property>
      <property name="shotcut:animIn">00:00:00.000</property>
      <property name="shotcut:animOut">00:00:00.000</property>
      <property name="transition.threads">0</property>
    </filter>
    <filter id="Bidou_cornet_totoroproducer8_filter10" in="00:01:23.240" out="00:01:30.760">
      <property name="window">75</property>
      <property name="max_gain">20dB</property>
      <property name="mlt_service">volume</property>
      <property name="shotcut:filter">muteVolume</property>
      <property name="gain">0</property>
    </filter>
  </producer>
  <producer id="Bidou_cornet_totoroproducer9" in="00:00:00.000" out="00:03:41.040" title="Anonymous Submission">
    <property name="length">00:03:41:02</property>
    <property name="eof">pause</property>
    <property name="resource">../../006 - Videos format youtube/Trompettes et cornets/Bidou_cornet_totoro.mp4</property>
    <property name="audio_index">1</property>
    <property name="video_index">0</property>
    <property name="mute_on_pause">0</property>
    <property name="mlt_service">avformat-novalidate</property>
    <property name="seekable">1</property>
    <property name="aspect_ratio">1</property>
    <property name="creation_time">2020-04-05T19:25:31</property>
    <property name="shotcut:hash">df47beb18305e9051d91b2aae87978a4</property>
    <property name="ignore_points">0</property>
    <property name="shotcut:caption">Bidou_cornet_totoro.mp4</property>
    <property name="shotcut:skipConvert">1</property>
    <property name="global_feed">1</property>
    <property name="xml">was here</property>
    <filter id="Bidou_cornet_totoroproducer9_filter11" in="00:01:30.800" out="00:01:51.840">
      <property name="background">colour:0</property>
      <property name="mlt_service">affine</property>
      <property name="shotcut:filter">affineSizePosition</property>
      <property name="transition.fill">1</property>
      <property name="transition.distort">0</property>
      <property name="transition.rect">480 270 480 270 1</property>
      <property name="transition.valign">top</property>
      <property name="transition.halign">left</property>
      <property name="shotcut:animIn">00:00:00.000</property>
      <property name="shotcut:animOut">00:00:00.000</property>
      <property name="transition.threads">0</property>
    </filter>
  </producer>
  <producer id="Bidou_cornet_totoroproducer10" in="00:00:00.000" out="00:03:41.040" title="Anonymous Submission">
    <property name="length">00:03:41:02</property>
    <property name="eof">pause</property>
    <property name="resource">../../006 - Videos format youtube/Trompettes et cornets/Bidou_cornet_totoro.mp4</property>
    <property name="audio_index">1</property>
    <property name="video_index">0</property>
    <property name="mute_on_pause">0</property>
    <property name="mlt_service">avformat-novalidate</property>
    <property name="seekable">1</property>
    <property name="aspect_ratio">1</property>
    <property name="creation_time">2020-04-05T19:25:31</property>
    <property name="shotcut:hash">df47beb18305e9051d91b2aae87978a4</property>
    <property name="ignore_points">0</property>
    <property name="shotcut:caption">Bidou_cornet_totoro.mp4</property>
    <property name="shotcut:skipConvert">1</property>
    <property name="global_feed">1</property>
    <property name="xml">was here</property>
    <filter id="Bidou_cornet_totoroproducer10_filter12" in="00:01:51.880" out="00:01:55.200">
      <property name="background">colour:0</property>
      <property name="mlt_service">affine</property>
      <property name="shotcut:filter">affineSizePosition</property>
      <property name="transition.fill">1</property>
      <property name="transition.distort">0</property>
      <property name="transition.rect">480 270 480 270 1</property>
      <property name="transition.valign">top</property>
      <property name="transition.halign">left</property>
      <property name="shotcut:animIn">00:00:00.000</property>
      <property name="shotcut:animOut">00:00:00.000</property>
      <property name="transition.threads">0</property>
    </filter>
    <filter id="Bidou_cornet_totoroproducer10_filter13" in="00:01:51.880" out="00:01:55.200">
      <property name="window">75</property>
      <property name="max_gain">20dB</property>
      <property name="mlt_service">volume</property>
      <property name="shotcut:filter">muteVolume</property>
      <property name="gain">0</property>
    </filter>
  </producer>
  <producer id="Bidou_cornet_totoroproducer11" in="00:00:00.000" out="00:03:41.040" title="Anonymous Submission">
    <property name="length">00:03:41:02</property>
    <property name="eof">pause</property>
    <property name="resource">../../006 - Videos format youtube/Trompettes et cornets/Bidou_cornet_totoro.mp4</property>
    <property name="audio_index">1</property>
    <property name="video_index">0</property>
    <property name="mute_on_pause">0</property>
    <property name="mlt_service">avformat-novalidate</property>
    <property name="seekable">1</property>
    <property name="aspect_ratio">1</property>
    <property name="creation_time">2020-04-05T19:25:31</property>
    <property name="shotcut:hash">df47beb18305e9051d91b2aae87978a4</property>
    <property name="ignore_points">0</property>
    <property name="shotcut:caption">Bidou_cornet_totoro.mp4</property>
    <property name="shotcut:skipConvert">1</property>
    <property name="global_feed">1</property>
    <property name="xml">was here</property>
    <filter id="Bidou_cornet_totoroproducer11_filter14" in="00:01:55.240" out="00:01:57.680">
      <property name="background">colour:0</property>
      <property name="mlt_service">affine</property>
      <property name="shotcut:filter">affineSizePosition</property>
      <property name="transition.fill">1</property>
      <property name="transition.distort">0</property>
      <property name="transition.rect">480 270 480 270 1</property>
      <property name="transition.valign">top</property>
      <property name="transition.halign">left</property>
      <property name="shotcut:animIn">00:00:00.000</property>
      <property name="shotcut:animOut">00:00:00.000</property>
      <property name="transition.threads">0</property>
    </filter>
  </producer>
  <producer id="Bidou_cornet_totoroproducer12" in="00:00:00.000" out="00:03:41.040" title="Anonymous Submission">
    <property name="length">00:03:41:02</property>
    <property name="eof">pause</property>
    <property name="resource">../../006 - Videos format youtube/Trompettes et cornets/Bidou_cornet_totoro.mp4</property>
    <property name="audio_index">1</property>
    <property name="video_index">0</property>
    <property name="mute_on_pause">0</property>
    <property name="mlt_service">avformat-novalidate</property>
    <property name="seekable">1</property>
    <property name="aspect_ratio">1</property>
    <property name="creation_time">2020-04-05T19:25:31</property>
    <property name="shotcut:hash">df47beb18305e9051d91b2aae87978a4</property>
    <property name="ignore_points">0</property>
    <property name="shotcut:caption">Bidou_cornet_totoro.mp4</property>
    <property name="shotcut:skipConvert">1</property>
    <property name="global_feed">1</property>
    <property name="xml">was here</property>
    <filter id="Bidou_cornet_totoroproducer12_filter15" in="00:01:57.720" out="00:02:18.680">
      <property name="background">colour:0</property>
      <property name="mlt_service">affine</property>
      <property name="shotcut:filter">affineSizePosition</property>
      <property name="transition.fill">1</property>
      <property name="transition.distort">0</property>
      <property name="transition.rect">480 270 480 270 1</property>
      <property name="transition.valign">top</property>
      <property name="transition.halign">left</property>
      <property name="shotcut:animIn">00:00:00.000</property>
      <property name="shotcut:animOut">00:00:00.000</property>
      <property name="transition.threads">0</property>
    </filter>
    <filter id="Bidou_cornet_totoroproducer12_filter16" in="00:01:57.720" out="00:02:18.680">
      <property name="window">75</property>
      <property name="max_gain">20dB</property>
      <property name="mlt_service">volume</property>
      <property name="shotcut:filter">muteVolume</property>
      <property name="gain">0</property>
    </filter>
  </producer>
  <producer id="Bidou_cornet_totoroproducer13" in="00:00:00.000" out="00:03:41.040" title="Anonymous Submission">
    <property name="length">00:03:41:02</property>
    <property name="eof">pause</property>
    <property name="resource">../../006 - Videos format youtube/Trompettes et cornets/Bidou_cornet_totoro.mp4</property>
    <property name="audio_index">1</property>
    <property name="video_index">0</property>
    <property name="mute_on_pause">0</property>
    <property name="mlt_service">avformat-novalidate</property>
    <property name="seekable">1</property>
    <property name="aspect_ratio">1</property>
    <property name="creation_time">2020-04-05T19:25:31</property>
    <property name="shotcut:hash">df47beb18305e9051d91b2aae87978a4</property>
    <property name="ignore_points">0</property>
    <property name="shotcut:caption">Bidou_cornet_totoro.mp4</property>
    <property name="shotcut:skipConvert">1</property>
    <property name="global_feed">1</property>
    <property name="xml">was here</property>
    <filter id="Bidou_cornet_totoroproducer13_filter17" in="00:02:18.720" out="00:03:34.840">
      <property name="background">colour:0</property>
      <property name="mlt_service">affine</property>
      <property name="shotcut:filter">affineSizePosition</property>
      <property name="transition.fill">1</property>
      <property name="transition.distort">0</property>
      <property name="transition.rect">480 270 480 270 1</property>
      <property name="transition.valign">top</property>
      <property name="transition.halign">left</property>
      <property name="shotcut:animIn">00:00:00.000</property>
      <property name="shotcut:animOut">00:00:00.000</property>
      <property name="transition.threads">0</property>
    </filter>
  </producer>
  <producer id="Bidou_cornet_totoroproducer14" in="00:00:00.000" out="00:03:41.040" title="Anonymous Submission">
    <property name="length">00:03:41:02</property>
    <property name="eof">pause</property>
    <property name="resource">../../006 - Videos format youtube/Trompettes et cornets/Bidou_cornet_totoro.mp4</property>
    <property name="audio_index">1</property>
    <property name="video_index">0</property>
    <property name="mute_on_pause">0</property>
    <property name="mlt_service">avformat-novalidate</property>
    <property name="seekable">1</property>
    <property name="aspect_ratio">1</property>
    <property name="creation_time">2020-04-05T19:25:31</property>
    <property name="shotcut:hash">df47beb18305e9051d91b2aae87978a4</property>
    <property name="ignore_points">0</property>
    <property name="shotcut:caption">Bidou_cornet_totoro.mp4</property>
    <property name="shotcut:skipConvert">1</property>
    <property name="global_feed">1</property>
    <property name="xml">was here</property>
    <filter id="Bidou_cornet_totoroproducer14_filter18" in="00:03:34.880" out="00:03:41.040">
      <property name="background">colour:0</property>
      <property name="mlt_service">affine</property>
      <property name="shotcut:filter">affineSizePosition</property>
      <property name="transition.fill">1</property>
      <property name="transition.distort">0</property>
      <property name="transition.rect">480 270 480 270 1</property>
      <property name="transition.valign">top</property>
      <property name="transition.halign">left</property>
      <property name="shotcut:animIn">00:00:00.000</property>
      <property name="shotcut:animOut">00:00:00.000</property>
      <property name="transition.threads">0</property>
    </filter>
    <filter id="Bidou_cornet_totoroproducer14_filter19" in="00:03:34.880" out="00:03:41.040">
      <property name="window">75</property>
      <property name="max_gain">20dB</property>
      <property name="mlt_service">volume</property>
      <property name="shotcut:filter">muteVolume</property>
      <property name="gain">0</property>
    </filter>
  </producer>
  <playlist id="Bidou_cornet_totoroplaylist3">
    <property name="shotcut:video">1</property>
    <property name="shotcut:name">Bidou_cornet</property>
    <property name="shotcut:lock">1</property>
    <blank length="00:00:02.240" />
    <entry in="00:00:22.360" out="00:00:49.960" producer="Bidou_cornet_totoroproducer4" />
    <entry in="00:00:50.000" out="00:00:57.280" producer="Bidou_cornet_totoroproducer5" />
    <entry in="00:00:57.320" out="00:01:10.160" producer="Bidou_cornet_totoroproducer6" />
    <entry in="00:01:10.200" out="00:01:23.200" producer="Bidou_cornet_totoroproducer7" />
    <entry in="00:01:23.240" out="00:01:30.760" producer="Bidou_cornet_totoroproducer8" />
    <entry in="00:01:30.800" out="00:01:51.840" producer="Bidou_cornet_totoroproducer9" />
    <entry in="00:01:51.880" out="00:01:55.200" producer="Bidou_cornet_totoroproducer10" />
    <entry in="00:01:55.240" out="00:01:57.680" producer="Bidou_cornet_totoroproducer11" />
    <entry in="00:01:57.720" out="00:02:18.680" producer="Bidou_cornet_totoroproducer12" />
    <entry in="00:02:18.720" out="00:03:34.840" producer="Bidou_cornet_totoroproducer13" />
    <entry in="00:03:34.880" out="00:03:41.040" producer="Bidou_cornet_totoroproducer14" />
  </playlist>
  <producer id="Alain_flute_totoroproducer4" in="00:00:00.000" out="00:03:19.240" title="Anonymous Submission">
    <property name="length">00:03:19:07</property>
    <property name="eof">pause</property>
    <property name="resource">../../006 - Videos format youtube/Flutes/Alain_flute_totoro.mp4</property>
    <property name="audio_index">1</property>
    <property name="video_index">0</property>
    <property name="mute_on_pause">0</property>
    <property name="mlt_service">avformat-novalidate</property>
    <property name="seekable">1</property>
    <property name="aspect_ratio">1</property>
    <property name="creation_time">2020-04-08T16:32:02</property>
    <property name="shotcut:hash">e4470a14bf088b76cf4b34d8127e4e51</property>
    <property name="ignore_points">0</property>
    <property name="shotcut:caption">Alain_flute_totoro.mp4</property>
    <property name="shotcut:skipConvert">1</property>
    <property name="global_feed">1</property>
    <property name="xml">was here</property>
    <filter id="Alain_flute_totoroproducer4_filter3" out="00:00:33.760">
      <property name="background">colour:0</property>
      <property name="mlt_service">affine</property>
      <property name="shotcut:filter">affineSizePosition</property>
      <property name="transition.fill">1</property>
      <property name="transition.distort">0</property>
      <property name="transition.rect">480 540 480 270 1</property>
      <property name="transition.valign">top</property>
      <property name="transition.halign">left</property>
      <property name="shotcut:animIn">00:00:00.000</property>
      <property name="shotcut:animOut">00:00:00.000</property>
      <property name="transition.threads">0</property>
    </filter>
    <filter id="Alain_flute_totoroproducer4_filter4" out="00:00:33.760">
      <property name="window">75</property>
      <property name="max_gain">20dB</property>
      <property name="mlt_service">volume</property>
      <property name="shotcut:filter">muteVolume</property>
      <property name="gain">0</property>
    </filter>
  </producer>
  <producer id="Alain_flute_totoroproducer5" in="00:00:00.000" out="00:03:19.240" title="Anonymous Submission">
    <property name="length">00:03:19:07</property>
    <property name="eof">pause</property>
    <property name="resource">../../006 - Videos format youtube/Flutes/Alain_flute_totoro.mp4</property>
    <property name="audio_index">1</property>
    <property name="video_index">0</property>
    <property name="mute_on_pause">0</property>
    <property name="mlt_service">avformat-novalidate</property>
    <property name="seekable">1</property>
    <property name="aspect_ratio">1</property>
    <property name="creation_time">2020-04-08T16:32:02</property>
    <property name="shotcut:hash">e4470a14bf088b76cf4b34d8127e4e51</property>
    <property name="ignore_points">0</property>
    <property name="shotcut:caption">Alain_flute_totoro.mp4</property>
    <property name="shotcut:skipConvert">1</property>
    <property name="global_feed">1</property>
    <property name="xml">was here</property>
    <filter id="Alain_flute_totoroproducer5_filter5" in="00:00:33.800" out="00:03:19.240">
      <property name="background">colour:0</property>
      <property name="mlt_service">affine</property>
      <property name="shotcut:filter">affineSizePosition</property>
      <property name="transition.fill">1</property>
      <property name="transition.distort">0</property>
      <property name="transition.rect">480 540 480 270 1</property>
      <property name="transition.valign">top</property>
      <property name="transition.halign">left</property>
      <property name="shotcut:animIn">00:00:00.000</property>
      <property name="shotcut:animOut">00:00:00.000</property>
      <property name="transition.threads">0</property>
    </filter>
  </producer>
  <playlist id="Alain_flute_totoroplaylist3">
    <property name="shotcut:video">1</property>
    <property name="shotcut:name">Alain_flute2</property>
    <property name="shotcut:lock">1</property>
    <blank length="00:00:02.080" />
    <entry in="00:00:00.000" out="00:00:33.760" producer="Alain_flute_totoroproducer4" />
    <entry in="00:00:33.800" out="00:03:19.240" producer="Alain_flute_totoroproducer5" />
    <filter id="filter6" out="00:03:21.320">
      <property name="window">75</property>
      <property name="max_gain">20dB</property>
      <property name="level">-10</property>
      <property name="mlt_service">volume</property>
    </filter>
  </playlist>
  <producer id="Laurence_flute_totoroproducer6" in="00:00:00.000" out="00:02:58.120" title="Anonymous Submission">
    <property name="length">00:02:58:04</property>
    <property name="eof">pause</property>
    <property name="resource">../../006 - Videos format youtube/Flutes/Laurence_flute_totoro.mp4</property>
    <property name="audio_index">1</property>
    <property name="video_index">0</property>
    <property name="mute_on_pause">0</property>
    <property name="mlt_service">avformat-novalidate</property>
    <property name="seekable">1</property>
    <property name="aspect_ratio">1</property>
    <property name="creation_time">2020-04-10T18:00:41</property>
    <property name="shotcut:hash">60bcdee113b1401df52909414ee98b5b</property>
    <property name="ignore_points">0</property>
    <property name="shotcut:caption">Laurence_flute_totoro.mp4</property>
    <property name="shotcut:skipConvert">1</property>
    <property name="global_feed">1</property>
    <property name="xml">was here</property>
    <filter id="Laurence_flute_totoroproducer6_filter7" out="00:01:19.520">
      <property name="background">colour:0</property>
      <property name="mlt_service">affine</property>
      <property name="shotcut:filter">affineSizePosition</property>
      <property name="transition.fill">1</property>
      <property name="transition.distort">0</property>
      <property name="transition.rect">480 810 480 270 1</property>
      <property name="transition.valign">top</property>
      <property name="transition.halign">left</property>
      <property name="shotcut:animIn">00:00:00.000</property>
      <property name="shotcut:animOut">00:00:00.000</property>
      <property name="transition.threads">0</property>
    </filter>
  </producer>
  <producer id="Laurence_flute_totoroproducer7" in="00:00:00.000" out="00:02:58.120" title="Anonymous Submission">
    <property name="length">00:02:58:04</property>
    <property name="eof">pause</property>
    <property name="resource">../../006 - Videos format youtube/Flutes/Laurence_flute_totoro.mp4</property>
    <property name="audio_index">1</property>
    <property name="video_index">0</property>
    <property name="mute_on_pause">0</property>
    <property name="mlt_service">avformat-novalidate</property>
    <property name="seekable">1</property>
    <property name="aspect_ratio">1</property>
    <property name="creation_time">2020-04-10T18:00:41</property>
    <property name="shotcut:hash">60bcdee113b1401df52909414ee98b5b</property>
    <property name="ignore_points">0</property>
    <property name="shotcut:caption">Laurence_flute_totoro.mp4</property>
    <property name="shotcut:skipConvert">1</property>
    <property name="global_feed">1</property>
    <property name="xml">was here</property>
    <filter id="Laurence_flute_totoroproducer7_filter8" in="00:01:19.560" out="00:01:22.320">
      <property name="background">colour:0</property>
      <property name="mlt_service">affine</property>
      <property name="shotcut:filter">affineSizePosition</property>
      <property name="transition.fill">1</property>
      <property name="transition.distort">0</property>
      <property name="transition.rect">480 810 480 270 1</property>
      <property name="transition.valign">top</property>
      <property name="transition.halign">left</property>
      <property name="shotcut:animIn">00:00:00.000</property>
      <property name="shotcut:animOut">00:00:00.000</property>
      <property name="transition.threads">0</property>
    </filter>
    <filter id="Laurence_flute_totoroproducer7_filter9" in="00:01:19.560" out="00:01:22.320">
      <property name="window">75</property>
      <property name="max_gain">20dB</property>
      <property name="mlt_service">volume</property>
      <property name="shotcut:filter">muteVolume</property>
      <property name="gain">0</property>
    </filter>
  </producer>
  <producer id="Laurence_flute_totoroproducer8" in="00:00:00.000" out="00:02:58.120" title="Anonymous Submission">
    <property name="length">00:02:58:04</property>
    <property name="eof">pause</property>
    <property name="resource">../../006 - Videos format youtube/Flutes/Laurence_flute_totoro.mp4</property>
    <property name="audio_index">1</property>
    <property name="video_index">0</property>
    <property name="mute_on_pause">0</property>
    <property name="mlt_service">avformat-novalidate</property>
    <property name="seekable">1</property>
    <property name="aspect_ratio">1</property>
    <property name="creation_time">2020-04-10T18:00:41</property>
    <property name="shotcut:hash">60bcdee113b1401df52909414ee98b5b</property>
    <property name="ignore_points">0</property>
    <property name="shotcut:caption">Laurence_flute_totoro.mp4</property>
    <property name="shotcut:skipConvert">1</property>
    <property name="global_feed">1</property>
    <property name="xml">was here</property>
    <filter id="Laurence_flute_totoroproducer8_filter10" in="00:01:22.360" out="00:01:48.560">
      <property name="background">colour:0</property>
      <property name="mlt_service">affine</property>
      <property name="shotcut:filter">affineSizePosition</property>
      <property name="transition.fill">1</property>
      <property name="transition.distort">0</property>
      <property name="transition.rect">480 810 480 270 1</property>
      <property name="transition.valign">top</property>
      <property name="transition.halign">left</property>
      <property name="shotcut:animIn">00:00:00.000</property>
      <property name="shotcut:animOut">00:00:00.000</property>
      <property name="transition.threads">0</property>
    </filter>
  </producer>
  <producer id="Laurence_flute_totoroproducer9" in="00:00:00.000" out="00:02:58.120" title="Anonymous Submission">
    <property name="length">00:02:58:04</property>
    <property name="eof">pause</property>
    <property name="resource">../../006 - Videos format youtube/Flutes/Laurence_flute_totoro.mp4</property>
    <property name="audio_index">1</property>
    <property name="video_index">0</property>
    <property name="mute_on_pause">0</property>
    <property name="mlt_service">avformat-novalidate</property>
    <property name="seekable">1</property>
    <property name="aspect_ratio">1</property>
    <property name="creation_time">2020-04-10T18:00:41</property>
    <property name="shotcut:hash">60bcdee113b1401df52909414ee98b5b</property>
    <property name="ignore_points">0</property>
    <property name="shotcut:caption">Laurence_flute_totoro.mp4</property>
    <property name="shotcut:skipConvert">1</property>
    <property name="global_feed">1</property>
    <property name="xml">was here</property>
    <filter id="Laurence_flute_totoroproducer9_filter11" in="00:01:48.600" out="00:01:52.120">
      <property name="background">colour:0</property>
      <property name="mlt_service">affine</property>
      <property name="shotcut:filter">affineSizePosition</property>
      <property name="transition.fill">1</property>
      <property name="transition.distort">0</property>
      <property name="transition.rect">480 810 480 270 1</property>
      <property name="transition.valign">top</property>
      <property name="transition.halign">left</property>
      <property name="shotcut:animIn">00:00:00.000</property>
      <property name="shotcut:animOut">00:00:00.000</property>
      <property name="transition.threads">0</property>
    </filter>
    <filter id="Laurence_flute_totoroproducer9_filter12" in="00:01:48.600" out="00:01:52.120">
      <property name="window">75</property>
      <property name="max_gain">20dB</property>
      <property name="mlt_service">volume</property>
      <property name="shotcut:filter">muteVolume</property>
      <property name="gain">0</property>
    </filter>
  </producer>
  <producer id="Laurence_flute_totoroproducer10" in="00:00:00.000" out="00:02:58.120" title="Anonymous Submission">
    <property name="length">00:02:58:04</property>
    <property name="eof">pause</property>
    <property name="resource">../../006 - Videos format youtube/Flutes/Laurence_flute_totoro.mp4</property>
    <property name="audio_index">1</property>
    <property name="video_index">0</property>
    <property name="mute_on_pause">0</property>
    <property name="mlt_service">avformat-novalidate</property>
    <property name="seekable">1</property>
    <property name="aspect_ratio">1</property>
    <property name="creation_time">2020-04-10T18:00:41</property>
    <property name="shotcut:hash">60bcdee113b1401df52909414ee98b5b</property>
    <property name="ignore_points">0</property>
    <property name="shotcut:caption">Laurence_flute_totoro.mp4</property>
    <property name="shotcut:skipConvert">1</property>
    <property name="global_feed">1</property>
    <property name="xml">was here</property>
    <filter id="Laurence_flute_totoroproducer10_filter13" in="00:01:52.160" out="00:02:02.240">
      <property name="background">colour:0</property>
      <property name="mlt_service">affine</property>
      <property name="shotcut:filter">affineSizePosition</property>
      <property name="transition.fill">1</property>
      <property name="transition.distort">0</property>
      <property name="transition.rect">480 810 480 270 1</property>
      <property name="transition.valign">top</property>
      <property name="transition.halign">left</property>
      <property name="shotcut:animIn">00:00:00.000</property>
      <property name="shotcut:animOut">00:00:00.000</property>
      <property name="transition.threads">0</property>
    </filter>
  </producer>
  <producer id="Laurence_flute_totoroproducer11" in="00:00:00.000" out="00:02:58.120" title="Anonymous Submission">
    <property name="length">00:02:58:04</property>
    <property name="eof">pause</property>
    <property name="resource">../../006 - Videos format youtube/Flutes/Laurence_flute_totoro.mp4</property>
    <property name="audio_index">1</property>
    <property name="video_index">0</property>
    <property name="mute_on_pause">0</property>
    <property name="mlt_service">avformat-novalidate</property>
    <property name="seekable">1</property>
    <property name="aspect_ratio">1</property>
    <property name="creation_time">2020-04-10T18:00:41</property>
    <property name="shotcut:hash">60bcdee113b1401df52909414ee98b5b</property>
    <property name="ignore_points">0</property>
    <property name="shotcut:caption">Laurence_flute_totoro.mp4</property>
    <property name="shotcut:skipConvert">1</property>
    <property name="global_feed">1</property>
    <property name="xml">was here</property>
    <filter id="Laurence_flute_totoroproducer11_filter14" in="00:02:02.280" out="00:02:05.120">
      <property name="background">colour:0</property>
      <property name="mlt_service">affine</property>
      <property name="shotcut:filter">affineSizePosition</property>
      <property name="transition.fill">1</property>
      <property name="transition.distort">0</property>
      <property name="transition.rect">480 810 480 270 1</property>
      <property name="transition.valign">top</property>
      <property name="transition.halign">left</property>
      <property name="shotcut:animIn">00:00:00.000</property>
      <property name="shotcut:animOut">00:00:00.000</property>
      <property name="transition.threads">0</property>
    </filter>
    <filter id="Laurence_flute_totoroproducer11_filter15" in="00:02:02.280" out="00:02:05.120">
      <property name="window">75</property>
      <property name="max_gain">20dB</property>
      <property name="mlt_service">volume</property>
      <property name="shotcut:filter">muteVolume</property>
      <property name="gain">0</property>
    </filter>
  </producer>
  <producer id="Laurence_flute_totoroproducer12" in="00:00:00.000" out="00:02:58.120" title="Anonymous Submission">
    <property name="length">00:02:58:04</property>
    <property name="eof">pause</property>
    <property name="resource">../../006 - Videos format youtube/Flutes/Laurence_flute_totoro.mp4</property>
    <property name="audio_index">1</property>
    <property name="video_index">0</property>
    <property name="mute_on_pause">0</property>
    <property name="mlt_service">avformat-novalidate</property>
    <property name="seekable">1</property>
    <property name="aspect_ratio">1</property>
    <property name="creation_time">2020-04-10T18:00:41</property>
    <property name="shotcut:hash">60bcdee113b1401df52909414ee98b5b</property>
    <property name="ignore_points">0</property>
    <property name="shotcut:caption">Laurence_flute_totoro.mp4</property>
    <property name="shotcut:skipConvert">1</property>
    <property name="global_feed">1</property>
    <property name="xml">was here</property>
    <filter id="Laurence_flute_totoroproducer12_filter16" in="00:02:05.160" out="00:02:44.000">
      <property name="background">colour:0</property>
      <property name="mlt_service">affine</property>
      <property name="shotcut:filter">affineSizePosition</property>
      <property name="transition.fill">1</property>
      <property name="transition.distort">0</property>
      <property name="transition.rect">480 810 480 270 1</property>
      <property name="transition.valign">top</property>
      <property name="transition.halign">left</property>
      <property name="shotcut:animIn">00:00:00.000</property>
      <property name="shotcut:animOut">00:00:00.000</property>
      <property name="transition.threads">0</property>
    </filter>
  </producer>
  <producer id="Laurence_flute_totoroproducer13" in="00:00:00.000" out="00:02:58.120" title="Anonymous Submission">
    <property name="length">00:02:58:04</property>
    <property name="eof">pause</property>
    <property name="resource">../../006 - Videos format youtube/Flutes/Laurence_flute_totoro.mp4</property>
    <property name="audio_index">1</property>
    <property name="video_index">0</property>
    <property name="mute_on_pause">0</property>
    <property name="mlt_service">avformat-novalidate</property>
    <property name="seekable">1</property>
    <property name="aspect_ratio">1</property>
    <property name="creation_time">2020-04-10T18:00:41</property>
    <property name="shotcut:hash">60bcdee113b1401df52909414ee98b5b</property>
    <property name="ignore_points">0</property>
    <property name="shotcut:caption">Laurence_flute_totoro.mp4</property>
    <property name="shotcut:skipConvert">1</property>
    <property name="global_feed">1</property>
    <property name="xml">was here</property>
    <filter id="Laurence_flute_totoroproducer13_filter17" in="00:02:44.040" out="00:02:51.720">
      <property name="background">colour:0</property>
      <property name="mlt_service">affine</property>
      <property name="shotcut:filter">affineSizePosition</property>
      <property name="transition.fill">1</property>
      <property name="transition.distort">0</property>
      <property name="transition.rect">480 810 480 270 1</property>
      <property name="transition.valign">top</property>
      <property name="transition.halign">left</property>
      <property name="shotcut:animIn">00:00:00.000</property>
      <property name="shotcut:animOut">00:00:00.000</property>
      <property name="transition.threads">0</property>
    </filter>
    <filter id="Laurence_flute_totoroproducer13_filter18" in="00:02:44.040" out="00:02:51.720">
      <property name="window">75</property>
      <property name="max_gain">20dB</property>
      <property name="mlt_service">volume</property>
      <property name="shotcut:filter">muteVolume</property>
      <property name="gain">0</property>
    </filter>
  </producer>
  <producer id="Laurence_flute_totoroproducer14" in="00:00:00.000" out="00:02:58.120" title="Anonymous Submission">
    <property name="length">00:02:58:04</property>
    <property name="eof">pause</property>
    <property name="resource">../../006 - Videos format youtube/Flutes/Laurence_flute_totoro.mp4</property>
    <property name="audio_index">1</property>
    <property name="video_index">0</property>
    <property name="mute_on_pause">0</property>
    <property name="mlt_service">avformat-novalidate</property>
    <property name="seekable">1</property>
    <property name="aspect_ratio">1</property>
    <property name="creation_time">2020-04-10T18:00:41</property>
    <property name="shotcut:hash">60bcdee113b1401df52909414ee98b5b</property>
    <property name="ignore_points">0</property>
    <property name="shotcut:caption">Laurence_flute_totoro.mp4</property>
    <property name="shotcut:skipConvert">1</property>
    <property name="global_feed">1</property>
    <property name="xml">was here</property>
    <filter id="Laurence_flute_totoroproducer14_filter19" in="00:02:51.760" out="00:02:55.320">
      <property name="background">colour:0</property>
      <property name="mlt_service">affine</property>
      <property name="shotcut:filter">affineSizePosition</property>
      <property name="transition.fill">1</property>
      <property name="transition.distort">0</property>
      <property name="transition.rect">480 810 480 270 1</property>
      <property name="transition.valign">top</property>
      <property name="transition.halign">left</property>
      <property name="shotcut:animIn">00:00:00.000</property>
      <property name="shotcut:animOut">00:00:00.000</property>
      <property name="transition.threads">0</property>
    </filter>
  </producer>
  <producer id="Laurence_flute_totoroproducer15" in="00:00:00.000" out="00:02:58.120" title="Anonymous Submission">
    <property name="length">00:02:58:04</property>
    <property name="eof">pause</property>
    <property name="resource">../../006 - Videos format youtube/Flutes/Laurence_flute_totoro.mp4</property>
    <property name="audio_index">1</property>
    <property name="video_index">0</property>
    <property name="mute_on_pause">0</property>
    <property name="mlt_service">avformat-novalidate</property>
    <property name="seekable">1</property>
    <property name="aspect_ratio">1</property>
    <property name="creation_time">2020-04-10T18:00:41</property>
    <property name="shotcut:hash">60bcdee113b1401df52909414ee98b5b</property>
    <property name="ignore_points">0</property>
    <property name="shotcut:caption">Laurence_flute_totoro.mp4</property>
    <property name="shotcut:skipConvert">1</property>
    <property name="global_feed">1</property>
    <property name="xml">was here</property>
    <filter id="Laurence_flute_totoroproducer15_filter20" in="00:02:55.360" out="00:02:58.120">
      <property name="background">colour:0</property>
      <property name="mlt_service">affine</property>
      <property name="shotcut:filter">affineSizePosition</property>
      <property name="transition.fill">1</property>
      <property name="transition.distort">0</property>
      <property name="transition.rect">480 810 480 270 1</property>
      <property name="transition.valign">top</property>
      <property name="transition.halign">left</property>
      <property name="shotcut:animIn">00:00:00.000</property>
      <property name="shotcut:animOut">00:00:00.000</property>
      <property name="transition.threads">0</property>
    </filter>
    <filter id="Laurence_flute_totoroproducer15_filter21" in="00:02:55.360" out="00:02:58.120">
      <property name="window">75</property>
      <property name="max_gain">20dB</property>
      <property name="mlt_service">volume</property>
      <property name="shotcut:filter">muteVolume</property>
      <property name="gain">0</property>
    </filter>
  </producer>
  <playlist id="Laurence_flute_totoroplaylist4">
    <property name="shotcut:video">1</property>
    <property name="shotcut:name"> Laurence_flute 2</property>
    <property name="shotcut:lock">1</property>
    <blank length="00:00:19.560" />
    <entry in="00:00:00.000" out="00:01:19.520" producer="Laurence_flute_totoroproducer6" />
    <entry in="00:01:19.560" out="00:01:22.320" producer="Laurence_flute_totoroproducer7" />
    <entry in="00:01:22.360" out="00:01:48.560" producer="Laurence_flute_totoroproducer8" />
    <entry in="00:01:48.600" out="00:01:52.120" producer="Laurence_flute_totoroproducer9" />
    <entry in="00:01:52.160" out="00:02:02.240" producer="Laurence_flute_totoroproducer10" />
    <entry in="00:02:02.280" out="00:02:05.120" producer="Laurence_flute_totoroproducer11" />
    <entry in="00:02:05.160" out="00:02:44.000" producer="Laurence_flute_totoroproducer12" />
    <entry in="00:02:44.040" out="00:02:51.720" producer="Laurence_flute_totoroproducer13" />
    <entry in="00:02:51.760" out="00:02:55.320" producer="Laurence_flute_totoroproducer14" />
    <entry in="00:02:55.360" out="00:02:58.120" producer="Laurence_flute_totoroproducer15" />
    <filter id="filter22" out="00:03:21.320">
      <property name="window">75</property>
      <property name="max_gain">20dB</property>
      <property name="level">-10</property>
      <property name="mlt_service">volume</property>
    </filter>
  </playlist>
  <producer id="Antoine_flute_totoroproducer16" in="00:00:00.000" out="00:02:59.720" title="Anonymous Submission">
    <property name="length">00:02:59:19</property>
    <property name="eof">pause</property>
    <property name="resource">../../006 - Videos format youtube/Flutes/Antoine_flute_totoro.mp4</property>
    <property name="audio_index">1</property>
    <property name="video_index">0</property>
    <property name="mute_on_pause">0</property>
    <property name="mlt_service">avformat-novalidate</property>
    <property name="seekable">1</property>
    <property name="aspect_ratio">1</property>
    <property name="creation_time">2020-04-09T18:43:14</property>
    <property name="shotcut:hash">4b5c310c51f982bf236c6a3fad1fff39</property>
    <property name="ignore_points">0</property>
    <property name="shotcut:caption">Antoine_flute_totoro.mp4</property>
    <property name="shotcut:skipConvert">1</property>
    <property name="global_feed">1</property>
    <property name="xml">was here</property>
    <filter id="Antoine_flute_totoroproducer16_filter23" out="00:00:19.960">
      <property name="background">colour:0</property>
      <property name="mlt_service">affine</property>
      <property name="shotcut:filter">affineSizePosition</property>
      <property name="transition.fill">1</property>
      <property name="transition.distort">0</property>
      <property name="transition.rect">960 0 480 270 1</property>
      <property name="transition.valign">top</property>
      <property name="transition.halign">left</property>
      <property name="shotcut:animIn">00:00:00.000</property>
      <property name="shotcut:animOut">00:00:00.000</property>
      <property name="transition.threads">0</property>
    </filter>
    <filter id="Antoine_flute_totoroproducer16_filter24" out="00:00:19.960">
      <property name="window">75</property>
      <property name="max_gain">20dB</property>
      <property name="mlt_service">volume</property>
      <property name="shotcut:filter">muteVolume</property>
      <property name="gain">0</property>
    </filter>
  </producer>
  <producer id="Antoine_flute_totoroproducer17" in="00:00:00.000" out="00:02:59.720" title="Anonymous Submission">
    <property name="length">00:02:59:19</property>
    <property name="eof">pause</property>
    <property name="resource">../../006 - Videos format youtube/Flutes/Antoine_flute_totoro.mp4</property>
    <property name="audio_index">1</property>
    <property name="video_index">0</property>
    <property name="mute_on_pause">0</property>
    <property name="mlt_service">avformat-novalidate</property>
    <property name="seekable">1</property>
    <property name="aspect_ratio">1</property>
    <property name="creation_time">2020-04-09T18:43:14</property>
    <property name="shotcut:hash">4b5c310c51f982bf236c6a3fad1fff39</property>
    <property name="ignore_points">0</property>
    <property name="shotcut:caption">Antoine_flute_totoro.mp4</property>
    <property name="shotcut:skipConvert">1</property>
    <property name="global_feed">1</property>
    <property name="xml">was here</property>
    <filter id="Antoine_flute_totoroproducer17_filter25" in="00:00:20.000" out="00:01:27.440">
      <property name="background">colour:0</property>
      <property name="mlt_service">affine</property>
      <property name="shotcut:filter">affineSizePosition</property>
      <property name="transition.fill">1</property>
      <property name="transition.distort">0</property>
      <property name="transition.rect">960 0 480 270 1</property>
      <property name="transition.valign">top</property>
      <property name="transition.halign">left</property>
      <property name="shotcut:animIn">00:00:00.000</property>
      <property name="shotcut:animOut">00:00:00.000</property>
      <property name="transition.threads">0</property>
    </filter>
  </producer>
  <producer id="Antoine_flute_totoroproducer18" in="00:00:00.000" out="00:02:59.720" title="Anonymous Submission">
    <property name="length">00:02:59:19</property>
    <property name="eof">pause</property>
    <property name="resource">../../006 - Videos format youtube/Flutes/Antoine_flute_totoro.mp4</property>
    <property name="audio_index">1</property>
    <property name="video_index">0</property>
    <property name="mute_on_pause">0</property>
    <property name="mlt_service">avformat-novalidate</property>
    <property name="seekable">1</property>
    <property name="aspect_ratio">1</property>
    <property name="creation_time">2020-04-09T18:43:14</property>
    <property name="shotcut:hash">4b5c310c51f982bf236c6a3fad1fff39</property>
    <property name="ignore_points">0</property>
    <property name="shotcut:caption">Antoine_flute_totoro.mp4</property>
    <property name="shotcut:skipConvert">1</property>
    <property name="global_feed">1</property>
    <property name="xml">was here</property>
    <filter id="Antoine_flute_totoroproducer18_filter26" in="00:01:27.480" out="00:01:41.960">
      <property name="background">colour:0</property>
      <property name="mlt_service">affine</property>
      <property name="shotcut:filter">affineSizePosition</property>
      <property name="transition.fill">1</property>
      <property name="transition.distort">0</property>
      <property name="transition.rect">960 0 480 270 1</property>
      <property name="transition.valign">top</property>
      <property name="transition.halign">left</property>
      <property name="shotcut:animIn">00:00:00.000</property>
      <property name="shotcut:animOut">00:00:00.000</property>
      <property name="transition.threads">0</property>
    </filter>
    <filter id="Antoine_flute_totoroproducer18_filter27" in="00:01:27.480" out="00:01:41.960">
      <property name="window">75</property>
      <property name="max_gain">20dB</property>
      <property name="mlt_service">volume</property>
      <property name="shotcut:filter">muteVolume</property>
      <property name="gain">0</property>
    </filter>
  </producer>
  <producer id="Antoine_flute_totoroproducer19" in="00:00:00.000" out="00:02:59.720" title="Anonymous Submission">
    <property name="length">00:02:59:19</property>
    <property name="eof">pause</property>
    <property name="resource">../../006 - Videos format youtube/Flutes/Antoine_flute_totoro.mp4</property>
    <property name="audio_index">1</property>
    <property name="video_index">0</property>
    <property name="mute_on_pause">0</property>
    <property name="mlt_service">avformat-novalidate</property>
    <property name="seekable">1</property>
    <property name="aspect_ratio">1</property>
    <property name="creation_time">2020-04-09T18:43:14</property>
    <property name="shotcut:hash">4b5c310c51f982bf236c6a3fad1fff39</property>
    <property name="ignore_points">0</property>
    <property name="shotcut:caption">Antoine_flute_totoro.mp4</property>
    <property name="shotcut:skipConvert">1</property>
    <property name="global_feed">1</property>
    <property name="xml">was here</property>
    <filter id="Antoine_flute_totoroproducer19_filter28" in="00:01:42.000" out="00:02:19.200">
      <property name="background">colour:0</property>
      <property name="mlt_service">affine</property>
      <property name="shotcut:filter">affineSizePosition</property>
      <property name="transition.fill">1</property>
      <property name="transition.distort">0</property>
      <property name="transition.rect">960 0 480 270 1</property>
      <property name="transition.valign">top</property>
      <property name="transition.halign">left</property>
      <property name="shotcut:animIn">00:00:00.000</property>
      <property name="shotcut:animOut">00:00:00.000</property>
      <property name="transition.threads">0</property>
    </filter>
  </producer>
  <producer id="Antoine_flute_totoroproducer20" in="00:00:00.000" out="00:02:59.720" title="Anonymous Submission">
    <property name="length">00:02:59:19</property>
    <property name="eof">pause</property>
    <property name="resource">../../006 - Videos format youtube/Flutes/Antoine_flute_totoro.mp4</property>
    <property name="audio_index">1</property>
    <property name="video_index">0</property>
    <property name="mute_on_pause">0</property>
    <property name="mlt_service">avformat-novalidate</property>
    <property name="seekable">1</property>
    <property name="aspect_ratio">1</property>
    <property name="creation_time">2020-04-09T18:43:14</property>
    <property name="shotcut:hash">4b5c310c51f982bf236c6a3fad1fff39</property>
    <property name="ignore_points">0</property>
    <property name="shotcut:caption">Antoine_flute_totoro.mp4</property>
    <property name="shotcut:skipConvert">1</property>
    <property name="global_feed">1</property>
    <property name="xml">was here</property>
    <filter id="Antoine_flute_totoroproducer20_filter29" in="00:02:19.240" out="00:02:32.120">
      <property name="background">colour:0</property>
      <property name="mlt_service">affine</property>
      <property name="shotcut:filter">affineSizePosition</property>
      <property name="transition.fill">1</property>
      <property name="transition.distort">0</property>
      <property name="transition.rect">960 0 480 270 1</property>
      <property name="transition.valign">top</property>
      <property name="transition.halign">left</property>
      <property name="shotcut:animIn">00:00:00.000</property>
      <property name="shotcut:animOut">00:00:00.000</property>
      <property name="transition.threads">0</property>
    </filter>
    <filter id="Antoine_flute_totoroproducer20_filter30" in="00:02:19.240" out="00:02:32.120">
      <property name="window">75</property>
      <property name="max_gain">20dB</property>
      <property name="mlt_service">volume</property>
      <property name="shotcut:filter">muteVolume</property>
      <property name="gain">0</property>
    </filter>
  </producer>
  <producer id="Antoine_flute_totoroproducer21" in="00:00:00.000" out="00:02:59.720" title="Anonymous Submission">
    <property name="length">00:02:59:19</property>
    <property name="eof">pause</property>
    <property name="resource">../../006 - Videos format youtube/Flutes/Antoine_flute_totoro.mp4</property>
    <property name="audio_index">1</property>
    <property name="video_index">0</property>
    <property name="mute_on_pause">0</property>
    <property name="mlt_service">avformat-novalidate</property>
    <property name="seekable">1</property>
    <property name="aspect_ratio">1</property>
    <property name="creation_time">2020-04-09T18:43:14</property>
    <property name="shotcut:hash">4b5c310c51f982bf236c6a3fad1fff39</property>
    <property name="ignore_points">0</property>
    <property name="shotcut:caption">Antoine_flute_totoro.mp4</property>
    <property name="shotcut:skipConvert">1</property>
    <property name="global_feed">1</property>
    <property name="xml">was here</property>
    <filter id="Antoine_flute_totoroproducer21_filter31" in="00:02:32.160" out="00:02:36.040">
      <property name="background">colour:0</property>
      <property name="mlt_service">affine</property>
      <property name="shotcut:filter">affineSizePosition</property>
      <property name="transition.fill">1</property>
      <property name="transition.distort">0</property>
      <property name="transition.rect">960 0 480 270 1</property>
      <property name="transition.valign">top</property>
      <property name="transition.halign">left</property>
      <property name="shotcut:animIn">00:00:00.000</property>
      <property name="shotcut:animOut">00:00:00.000</property>
      <property name="transition.threads">0</property>
    </filter>
    <filter id="Antoine_flute_totoroproducer21_filter32" in="00:02:32.160" out="00:02:36.040">
      <property name="window">75</property>
      <property name="max_gain">20dB</property>
      <property name="mlt_service">volume</property>
      <property name="shotcut:filter">muteVolume</property>
      <property name="gain">0</property>
    </filter>
  </producer>
  <producer id="Antoine_flute_totoroproducer22" in="00:00:00.000" out="00:02:59.720" title="Anonymous Submission">
    <property name="length">00:02:59:19</property>
    <property name="eof">pause</property>
    <property name="resource">../../006 - Videos format youtube/Flutes/Antoine_flute_totoro.mp4</property>
    <property name="audio_index">1</property>
    <property name="video_index">0</property>
    <property name="mute_on_pause">0</property>
    <property name="mlt_service">avformat-novalidate</property>
    <property name="seekable">1</property>
    <property name="aspect_ratio">1</property>
    <property name="creation_time">2020-04-09T18:43:14</property>
    <property name="shotcut:hash">4b5c310c51f982bf236c6a3fad1fff39</property>
    <property name="ignore_points">0</property>
    <property name="shotcut:caption">Antoine_flute_totoro.mp4</property>
    <property name="shotcut:skipConvert">1</property>
    <property name="global_feed">1</property>
    <property name="xml">was here</property>
    <filter id="Antoine_flute_totoroproducer22_filter33" in="00:02:36.080" out="00:02:46.840">
      <property name="background">colour:0</property>
      <property name="mlt_service">affine</property>
      <property name="shotcut:filter">affineSizePosition</property>
      <property name="transition.fill">1</property>
      <property name="transition.distort">0</property>
      <property name="transition.rect">960 0 480 270 1</property>
      <property name="transition.valign">top</property>
      <property name="transition.halign">left</property>
      <property name="shotcut:animIn">00:00:00.000</property>
      <property name="shotcut:animOut">00:00:00.000</property>
      <property name="transition.threads">0</property>
    </filter>
  </producer>
  <producer id="Antoine_flute_totoroproducer23" in="00:00:00.000" out="00:02:59.720" title="Anonymous Submission">
    <property name="length">00:02:59:19</property>
    <property name="eof">pause</property>
    <property name="resource">../../006 - Videos format youtube/Flutes/Antoine_flute_totoro.mp4</property>
    <property name="audio_index">1</property>
    <property name="video_index">0</property>
    <property name="mute_on_pause">0</property>
    <property name="mlt_service">avformat-novalidate</property>
    <property name="seekable">1</property>
    <property name="aspect_ratio">1</property>
    <property name="creation_time">2020-04-09T18:43:14</property>
    <property name="shotcut:hash">4b5c310c51f982bf236c6a3fad1fff39</property>
    <property name="ignore_points">0</property>
    <property name="shotcut:caption">Antoine_flute_totoro.mp4</property>
    <property name="shotcut:skipConvert">1</property>
    <property name="global_feed">1</property>
    <property name="xml">was here</property>
    <filter id="Antoine_flute_totoroproducer23_filter34" in="00:02:46.880" out="00:02:58.160">
      <property name="background">colour:0</property>
      <property name="mlt_service">affine</property>
      <property name="shotcut:filter">affineSizePosition</property>
      <property name="transition.fill">1</property>
      <property name="transition.distort">0</property>
      <property name="transition.rect">960 0 480 270 1</property>
      <property name="transition.valign">top</property>
      <property name="transition.halign">left</property>
      <property name="shotcut:animIn">00:00:00.000</property>
      <property name="shotcut:animOut">00:00:00.000</property>
      <property name="transition.threads">0</property>
    </filter>
    <filter id="Antoine_flute_totoroproducer23_filter35" in="00:02:46.880" out="00:02:58.160">
      <property name="window">75</property>
      <property name="max_gain">20dB</property>
      <property name="mlt_service">volume</property>
      <property name="shotcut:filter">muteVolume</property>
      <property name="gain">0</property>
    </filter>
  </producer>
  <producer id="Antoine_flute_totoroproducer24" in="00:00:00.000" out="00:02:59.720" title="Anonymous Submission">
    <property name="length">00:02:59:19</property>
    <property name="eof">pause</property>
    <property name="resource">../../006 - Videos format youtube/Flutes/Antoine_flute_totoro.mp4</property>
    <property name="audio_index">1</property>
    <property name="video_index">0</property>
    <property name="mute_on_pause">0</property>
    <property name="mlt_service">avformat-novalidate</property>
    <property name="seekable">1</property>
    <property name="aspect_ratio">1</property>
    <property name="creation_time">2020-04-09T18:43:14</property>
    <property name="shotcut:hash">4b5c310c51f982bf236c6a3fad1fff39</property>
    <property name="ignore_points">0</property>
    <property name="shotcut:caption">Antoine_flute_totoro.mp4</property>
    <property name="shotcut:skipConvert">1</property>
    <property name="global_feed">1</property>
    <property name="xml">was here</property>
    <filter id="Antoine_flute_totoroproducer24_filter36" in="00:02:58.200" out="00:02:59.720">
      <property name="background">colour:0</property>
      <property name="mlt_service">affine</property>
      <property name="shotcut:filter">affineSizePosition</property>
      <property name="transition.fill">1</property>
      <property name="transition.distort">0</property>
      <property name="transition.rect">960 0 480 270 1</property>
      <property name="transition.valign">top</property>
      <property name="transition.halign">left</property>
      <property name="shotcut:animIn">00:00:00.000</property>
      <property name="shotcut:animOut">00:00:00.000</property>
      <property name="transition.threads">0</property>
    </filter>
    <filter id="Antoine_flute_totoroproducer24_filter37" in="00:02:58.200" out="00:02:59.720">
      <property name="window">75</property>
      <property name="max_gain">20dB</property>
      <property name="mlt_service">volume</property>
      <property name="shotcut:filter">muteVolume</property>
      <property name="gain">0</property>
    </filter>
  </producer>
  <playlist id="Antoine_flute_totoroplaylist5">
    <property name="shotcut:video">1</property>
    <property name="shotcut:name">Antoine_flute1</property>
    <property name="shotcut:lock">1</property>
    <blank length="00:00:16.720" />
    <entry in="00:00:00.000" out="00:00:19.960" producer="Antoine_flute_totoroproducer16" />
    <entry in="00:00:20.000" out="00:01:27.440" producer="Antoine_flute_totoroproducer17" />
    <entry in="00:01:27.480" out="00:01:41.960" producer="Antoine_flute_totoroproducer18" />
    <entry in="00:01:42.000" out="00:02:19.200" producer="Antoine_flute_totoroproducer19" />
    <entry in="00:02:19.240" out="00:02:32.120" producer="Antoine_flute_totoroproducer20" />
    <entry in="00:02:32.160" out="00:02:36.040" producer="Antoine_flute_totoroproducer21" />
    <entry in="00:02:36.080" out="00:02:46.840" producer="Antoine_flute_totoroproducer22" />
    <entry in="00:02:46.880" out="00:02:58.160" producer="Antoine_flute_totoroproducer23" />
    <entry in="00:02:58.200" out="00:02:59.720" producer="Antoine_flute_totoroproducer24" />
    <filter id="filter38" out="00:03:21.320">
      <property name="window">75</property>
      <property name="max_gain">20dB</property>
      <property name="level">-10</property>
      <property name="mlt_service">volume</property>
    </filter>
  </playlist>
  <producer id="Aur&#233;lie_hautbois_totoroproducer29" in="00:00:00.000" out="00:03:11.560" title="Anonymous Submission">
    <property name="length">00:03:11:15</property>
    <property name="eof">pause</property>
    <property name="resource">../../006 - Videos format youtube/Hautbois/Aur&#233;lie_hautbois_totoro.mp4</property>
    <property name="audio_index">1</property>
    <property name="video_index">0</property>
    <property name="mute_on_pause">0</property>
    <property name="mlt_service">avformat-novalidate</property>
    <property name="seekable">1</property>
    <property name="aspect_ratio">1</property>
    <property name="shotcut:hash">eef028a0ef9d0a891fcda437adec93c6</property>
    <property name="ignore_points">0</property>
    <property name="shotcut:caption">Aur&#233;lie_hautbois_totoro.mp4</property>
    <property name="shotcut:skipConvert">1</property>
    <property name="global_feed">1</property>
    <property name="xml">was here</property>
    <filter id="Aur&#233;lie_hautbois_totoroproducer29_filter46" out="00:01:30.880">
      <property name="background">colour:0</property>
      <property name="mlt_service">affine</property>
      <property name="shotcut:filter">affineSizePosition</property>
      <property name="transition.fill">1</property>
      <property name="transition.distort">0</property>
      <property name="transition.rect">960 270 480 270 1</property>
      <property name="transition.valign">top</property>
      <property name="transition.halign">left</property>
      <property name="shotcut:animIn">00:00:00.000</property>
      <property name="shotcut:animOut">00:00:00.000</property>
      <property name="transition.threads">0</property>
    </filter>
  </producer>
  <producer id="Aur&#233;lie_hautbois_totoroproducer30" in="00:00:00.000" out="00:03:11.560" title="Anonymous Submission">
    <property name="length">00:03:11:15</property>
    <property name="eof">pause</property>
    <property name="resource">../../006 - Videos format youtube/Hautbois/Aur&#233;lie_hautbois_totoro.mp4</property>
    <property name="audio_index">1</property>
    <property name="video_index">0</property>
    <property name="mute_on_pause">0</property>
    <property name="mlt_service">avformat-novalidate</property>
    <property name="seekable">1</property>
    <property name="aspect_ratio">1</property>
    <property name="shotcut:hash">eef028a0ef9d0a891fcda437adec93c6</property>
    <property name="ignore_points">0</property>
    <property name="shotcut:caption">Aur&#233;lie_hautbois_totoro.mp4</property>
    <property name="shotcut:skipConvert">1</property>
    <property name="global_feed">1</property>
    <property name="xml">was here</property>
    <filter id="Aur&#233;lie_hautbois_totoroproducer30_filter47" in="00:01:30.920" out="00:01:36.080">
      <property name="background">colour:0</property>
      <property name="mlt_service">affine</property>
      <property name="shotcut:filter">affineSizePosition</property>
      <property name="transition.fill">1</property>
      <property name="transition.distort">0</property>
      <property name="transition.rect">960 270 480 270 1</property>
      <property name="transition.valign">top</property>
      <property name="transition.halign">left</property>
      <property name="shotcut:animIn">00:00:00.000</property>
      <property name="shotcut:animOut">00:00:00.000</property>
      <property name="transition.threads">0</property>
    </filter>
    <filter id="Aur&#233;lie_hautbois_totoroproducer30_filter48" in="00:01:30.920" out="00:01:36.080">
      <property name="window">75</property>
      <property name="max_gain">20dB</property>
      <property name="mlt_service">volume</property>
      <property name="shotcut:filter">muteVolume</property>
      <property name="gain">0</property>
    </filter>
  </producer>
  <producer id="Aur&#233;lie_hautbois_totoroproducer31" in="00:00:00.000" out="00:03:11.560" title="Anonymous Submission">
    <property name="length">00:03:11:15</property>
    <property name="eof">pause</property>
    <property name="resource">../../006 - Videos format youtube/Hautbois/Aur&#233;lie_hautbois_totoro.mp4</property>
    <property name="audio_index">1</property>
    <property name="video_index">0</property>
    <property name="mute_on_pause">0</property>
    <property name="mlt_service">avformat-novalidate</property>
    <property name="seekable">1</property>
    <property name="aspect_ratio">1</property>
    <property name="shotcut:hash">eef028a0ef9d0a891fcda437adec93c6</property>
    <property name="ignore_points">0</property>
    <property name="shotcut:caption">Aur&#233;lie_hautbois_totoro.mp4</property>
    <property name="shotcut:skipConvert">1</property>
    <property name="global_feed">1</property>
    <property name="xml">was here</property>
    <filter id="Aur&#233;lie_hautbois_totoroproducer31_filter49" in="00:01:36.120" out="00:02:55.200">
      <property name="background">colour:0</property>
      <property name="mlt_service">affine</property>
      <property name="shotcut:filter">affineSizePosition</property>
      <property name="transition.fill">1</property>
      <property name="transition.distort">0</property>
      <property name="transition.rect">960 270 480 270 1</property>
      <property name="transition.valign">top</property>
      <property name="transition.halign">left</property>
      <property name="shotcut:animIn">00:00:00.000</property>
      <property name="shotcut:animOut">00:00:00.000</property>
      <property name="transition.threads">0</property>
    </filter>
  </producer>
  <producer id="Aur&#233;lie_hautbois_totoroproducer32" in="00:00:00.000" out="00:03:11.560" title="Anonymous Submission">
    <property name="length">00:03:11:15</property>
    <property name="eof">pause</property>
    <property name="resource">../../006 - Videos format youtube/Hautbois/Aur&#233;lie_hautbois_totoro.mp4</property>
    <property name="audio_index">1</property>
    <property name="video_index">0</property>
    <property name="mute_on_pause">0</property>
    <property name="mlt_service">avformat-novalidate</property>
    <property name="seekable">1</property>
    <property name="aspect_ratio">1</property>
    <property name="shotcut:hash">eef028a0ef9d0a891fcda437adec93c6</property>
    <property name="ignore_points">0</property>
    <property name="shotcut:caption">Aur&#233;lie_hautbois_totoro.mp4</property>
    <property name="shotcut:skipConvert">1</property>
    <property name="global_feed">1</property>
    <property name="xml">was here</property>
    <filter id="Aur&#233;lie_hautbois_totoroproducer32_filter50" in="00:02:55.240" out="00:02:55.880">
      <property name="background">colour:0</property>
      <property name="mlt_service">affine</property>
      <property name="shotcut:filter">affineSizePosition</property>
      <property name="transition.fill">1</property>
      <property name="transition.distort">0</property>
      <property name="transition.rect">960 270 480 270 1</property>
      <property name="transition.valign">top</property>
      <property name="transition.halign">left</property>
      <property name="shotcut:animIn">00:00:00.000</property>
      <property name="shotcut:animOut">00:00:00.000</property>
      <property name="transition.threads">0</property>
    </filter>
    <filter id="Aur&#233;lie_hautbois_totoroproducer32_filter51" in="00:02:55.240" out="00:02:55.880">
      <property name="window">75</property>
      <property name="max_gain">20dB</property>
      <property name="mlt_service">volume</property>
      <property name="shotcut:filter">muteVolume</property>
      <property name="gain">0</property>
    </filter>
  </producer>
  <producer id="Aur&#233;lie_hautbois_totoroproducer33" in="00:00:00.000" out="00:03:11.560" title="Anonymous Submission">
    <property name="length">00:03:11:15</property>
    <property name="eof">pause</property>
    <property name="resource">../../006 - Videos format youtube/Hautbois/Aur&#233;lie_hautbois_totoro.mp4</property>
    <property name="audio_index">1</property>
    <property name="video_index">0</property>
    <property name="mute_on_pause">0</property>
    <property name="mlt_service">avformat-novalidate</property>
    <property name="seekable">1</property>
    <property name="aspect_ratio">1</property>
    <property name="shotcut:hash">eef028a0ef9d0a891fcda437adec93c6</property>
    <property name="ignore_points">0</property>
    <property name="shotcut:caption">Aur&#233;lie_hautbois_totoro.mp4</property>
    <property name="shotcut:skipConvert">1</property>
    <property name="global_feed">1</property>
    <property name="xml">was here</property>
    <filter id="Aur&#233;lie_hautbois_totoroproducer33_filter52" in="00:02:55.920" out="00:03:11.560">
      <property name="background">colour:0</property>
      <property name="mlt_service">affine</property>
      <property name="shotcut:filter">affineSizePosition</property>
      <property name="transition.fill">1</property>
      <property name="transition.distort">0</property>
      <property name="transition.rect">960 270 480 270 1</property>
      <property name="transition.valign">top</property>
      <property name="transition.halign">left</property>
      <property name="shotcut:animIn">00:00:00.000</property>
      <property name="shotcut:animOut">00:00:00.000</property>
      <property name="transition.threads">0</property>
    </filter>
  </producer>
  <playlist id="Aur&#233;lie_hautbois_totoroplaylist7">
    <property name="shotcut:video">1</property>
    <property name="shotcut:name">Aur&#233;lie_hautbois</property>
    <property name="shotcut:lock">1</property>
    <blank length="00:00:07.960" />
    <entry in="00:00:00.000" out="00:01:30.880" producer="Aur&#233;lie_hautbois_totoroproducer29" />
    <entry in="00:01:30.920" out="00:01:36.080" producer="Aur&#233;lie_hautbois_totoroproducer30" />
    <entry in="00:01:36.120" out="00:02:55.200" producer="Aur&#233;lie_hautbois_totoroproducer31" />
    <entry in="00:02:55.240" out="00:02:55.880" producer="Aur&#233;lie_hautbois_totoroproducer32" />
    <entry in="00:02:55.920" out="00:03:11.560" producer="Aur&#233;lie_hautbois_totoroproducer33" />
  </playlist>
  <producer id="Bidou_euphonium_totoroproducer4" in="00:00:00.000" out="00:03:21.840" title="Anonymous Submission">
    <property name="length">00:03:21:22</property>
    <property name="eof">pause</property>
    <property name="resource">../../006 - Videos format youtube/Euphonium/Bidou_euphonium_totoro.mp4</property>
    <property name="audio_index">1</property>
    <property name="video_index">0</property>
    <property name="mute_on_pause">0</property>
    <property name="mlt_service">avformat-novalidate</property>
    <property name="seekable">1</property>
    <property name="aspect_ratio">1</property>
    <property name="creation_time">2020-04-05T19:40:16</property>
    <property name="shotcut:hash">c61ed928d3936826431ae6103cd9bcfd</property>
    <property name="ignore_points">0</property>
    <property name="shotcut:caption">Bidou_euphonium_totoro.mp4</property>
    <property name="shotcut:skipConvert">1</property>
    <property name="global_feed">1</property>
    <property name="xml">was here</property>
    <filter id="Bidou_euphonium_totoroproducer4_filter3" out="00:00:30.040">
      <property name="background">colour:0</property>
      <property name="mlt_service">affine</property>
      <property name="shotcut:filter">affineSizePosition</property>
      <property name="transition.fill">1</property>
      <property name="transition.distort">0</property>
      <property name="transition.rect">960 540 480 270 1</property>
      <property name="transition.valign">top</property>
      <property name="transition.halign">left</property>
      <property name="shotcut:animIn">00:00:00.000</property>
      <property name="shotcut:animOut">00:00:00.000</property>
      <property name="transition.threads">0</property>
    </filter>
    <filter id="Bidou_euphonium_totoroproducer4_filter4" out="00:00:30.040">
      <property name="window">75</property>
      <property name="max_gain">20dB</property>
      <property name="mlt_service">volume</property>
      <property name="shotcut:filter">muteVolume</property>
      <property name="gain">0</property>
    </filter>
  </producer>
  <producer id="Bidou_euphonium_totoroproducer5" in="00:00:00.000" out="00:03:21.840" title="Anonymous Submission">
    <property name="length">00:03:21:22</property>
    <property name="eof">pause</property>
    <property name="resource">../../006 - Videos format youtube/Euphonium/Bidou_euphonium_totoro.mp4</property>
    <property name="audio_index">1</property>
    <property name="video_index">0</property>
    <property name="mute_on_pause">0</property>
    <property name="mlt_service">avformat-novalidate</property>
    <property name="seekable">1</property>
    <property name="aspect_ratio">1</property>
    <property name="creation_time">2020-04-05T19:40:16</property>
    <property name="shotcut:hash">c61ed928d3936826431ae6103cd9bcfd</property>
    <property name="ignore_points">0</property>
    <property name="shotcut:caption">Bidou_euphonium_totoro.mp4</property>
    <property name="shotcut:skipConvert">1</property>
    <property name="global_feed">1</property>
    <property name="xml">was here</property>
    <filter id="Bidou_euphonium_totoroproducer5_filter5" in="00:00:30.080" out="00:00:44.200">
      <property name="background">colour:0</property>
      <property name="mlt_service">affine</property>
      <property name="shotcut:filter">affineSizePosition</property>
      <property name="transition.fill">1</property>
      <property name="transition.distort">0</property>
      <property name="transition.rect">960 540 480 270 1</property>
      <property name="transition.valign">top</property>
      <property name="transition.halign">left</property>
      <property name="shotcut:animIn">00:00:00.000</property>
      <property name="shotcut:animOut">00:00:00.000</property>
      <property name="transition.threads">0</property>
    </filter>
  </producer>
  <producer id="Bidou_euphonium_totoroproducer6" in="00:00:00.000" out="00:03:21.840" title="Anonymous Submission">
    <property name="length">00:03:21:22</property>
    <property name="eof">pause</property>
    <property name="resource">../../006 - Videos format youtube/Euphonium/Bidou_euphonium_totoro.mp4</property>
    <property name="audio_index">1</property>
    <property name="video_index">0</property>
    <property name="mute_on_pause">0</property>
    <property name="mlt_service">avformat-novalidate</property>
    <property name="seekable">1</property>
    <property name="aspect_ratio">1</property>
    <property name="creation_time">2020-04-05T19:40:16</property>
    <property name="shotcut:hash">c61ed928d3936826431ae6103cd9bcfd</property>
    <property name="ignore_points">0</property>
    <property name="shotcut:caption">Bidou_euphonium_totoro.mp4</property>
    <property name="shotcut:skipConvert">1</property>
    <property name="global_feed">1</property>
    <property name="xml">was here</property>
    <filter id="Bidou_euphonium_totoroproducer6_filter6" in="00:00:44.240" out="00:00:46.920">
      <property name="background">colour:0</property>
      <property name="mlt_service">affine</property>
      <property name="shotcut:filter">affineSizePosition</property>
      <property name="transition.fill">1</property>
      <property name="transition.distort">0</property>
      <property name="transition.rect">960 540 480 270 1</property>
      <property name="transition.valign">top</property>
      <property name="transition.halign">left</property>
      <property name="shotcut:animIn">00:00:00.000</property>
      <property name="shotcut:animOut">00:00:00.000</property>
      <property name="transition.threads">0</property>
    </filter>
    <filter id="Bidou_euphonium_totoroproducer6_filter7" in="00:00:44.240" out="00:00:46.920">
      <property name="window">75</property>
      <property name="max_gain">20dB</property>
      <property name="mlt_service">volume</property>
      <property name="shotcut:filter">muteVolume</property>
      <property name="gain">0</property>
    </filter>
  </producer>
  <producer id="Bidou_euphonium_totoroproducer7" in="00:00:00.000" out="00:03:21.840" title="Anonymous Submission">
    <property name="length">00:03:21:22</property>
    <property name="eof">pause</property>
    <property name="resource">../../006 - Videos format youtube/Euphonium/Bidou_euphonium_totoro.mp4</property>
    <property name="audio_index">1</property>
    <property name="video_index">0</property>
    <property name="mute_on_pause">0</property>
    <property name="mlt_service">avformat-novalidate</property>
    <property name="seekable">1</property>
    <property name="aspect_ratio">1</property>
    <property name="creation_time">2020-04-05T19:40:16</property>
    <property name="shotcut:hash">c61ed928d3936826431ae6103cd9bcfd</property>
    <property name="ignore_points">0</property>
    <property name="shotcut:caption">Bidou_euphonium_totoro.mp4</property>
    <property name="shotcut:skipConvert">1</property>
    <property name="global_feed">1</property>
    <property name="xml">was here</property>
    <filter id="Bidou_euphonium_totoroproducer7_filter8" in="00:00:46.960" out="00:00:50.600">
      <property name="background">colour:0</property>
      <property name="mlt_service">affine</property>
      <property name="shotcut:filter">affineSizePosition</property>
      <property name="transition.fill">1</property>
      <property name="transition.distort">0</property>
      <property name="transition.rect">960 540 480 270 1</property>
      <property name="transition.valign">top</property>
      <property name="transition.halign">left</property>
      <property name="shotcut:animIn">00:00:00.000</property>
      <property name="shotcut:animOut">00:00:00.000</property>
      <property name="transition.threads">0</property>
    </filter>
  </producer>
  <producer id="Bidou_euphonium_totoroproducer8" in="00:00:00.000" out="00:03:21.840" title="Anonymous Submission">
    <property name="length">00:03:21:22</property>
    <property name="eof">pause</property>
    <property name="resource">../../006 - Videos format youtube/Euphonium/Bidou_euphonium_totoro.mp4</property>
    <property name="audio_index">1</property>
    <property name="video_index">0</property>
    <property name="mute_on_pause">0</property>
    <property name="mlt_service">avformat-novalidate</property>
    <property name="seekable">1</property>
    <property name="aspect_ratio">1</property>
    <property name="creation_time">2020-04-05T19:40:16</property>
    <property name="shotcut:hash">c61ed928d3936826431ae6103cd9bcfd</property>
    <property name="ignore_points">0</property>
    <property name="shotcut:caption">Bidou_euphonium_totoro.mp4</property>
    <property name="shotcut:skipConvert">1</property>
    <property name="global_feed">1</property>
    <property name="xml">was here</property>
    <filter id="Bidou_euphonium_totoroproducer8_filter9" in="00:00:50.640" out="00:00:53.760">
      <property name="background">colour:0</property>
      <property name="mlt_service">affine</property>
      <property name="shotcut:filter">affineSizePosition</property>
      <property name="transition.fill">1</property>
      <property name="transition.distort">0</property>
      <property name="transition.rect">960 540 480 270 1</property>
      <property name="transition.valign">top</property>
      <property name="transition.halign">left</property>
      <property name="shotcut:animIn">00:00:00.000</property>
      <property name="shotcut:animOut">00:00:00.000</property>
      <property name="transition.threads">0</property>
    </filter>
    <filter id="Bidou_euphonium_totoroproducer8_filter10" in="00:00:50.640" out="00:00:53.760">
      <property name="window">75</property>
      <property name="max_gain">20dB</property>
      <property name="mlt_service">volume</property>
      <property name="shotcut:filter">muteVolume</property>
      <property name="gain">0</property>
    </filter>
  </producer>
  <producer id="Bidou_euphonium_totoroproducer9" in="00:00:00.000" out="00:03:21.840" title="Anonymous Submission">
    <property name="length">00:03:21:22</property>
    <property name="eof">pause</property>
    <property name="resource">../../006 - Videos format youtube/Euphonium/Bidou_euphonium_totoro.mp4</property>
    <property name="audio_index">1</property>
    <property name="video_index">0</property>
    <property name="mute_on_pause">0</property>
    <property name="mlt_service">avformat-novalidate</property>
    <property name="seekable">1</property>
    <property name="aspect_ratio">1</property>
    <property name="creation_time">2020-04-05T19:40:16</property>
    <property name="shotcut:hash">c61ed928d3936826431ae6103cd9bcfd</property>
    <property name="ignore_points">0</property>
    <property name="shotcut:caption">Bidou_euphonium_totoro.mp4</property>
    <property name="shotcut:skipConvert">1</property>
    <property name="global_feed">1</property>
    <property name="xml">was here</property>
    <filter id="Bidou_euphonium_totoroproducer9_filter11" in="00:00:53.800" out="00:01:04.680">
      <property name="background">colour:0</property>
      <property name="mlt_service">affine</property>
      <property name="shotcut:filter">affineSizePosition</property>
      <property name="transition.fill">1</property>
      <property name="transition.distort">0</property>
      <property name="transition.rect">960 540 480 270 1</property>
      <property name="transition.valign">top</property>
      <property name="transition.halign">left</property>
      <property name="shotcut:animIn">00:00:00.000</property>
      <property name="shotcut:animOut">00:00:00.000</property>
      <property name="transition.threads">0</property>
    </filter>
  </producer>
  <producer id="Bidou_euphonium_totoroproducer10" in="00:00:00.000" out="00:03:21.840" title="Anonymous Submission">
    <property name="length">00:03:21:22</property>
    <property name="eof">pause</property>
    <property name="resource">../../006 - Videos format youtube/Euphonium/Bidou_euphonium_totoro.mp4</property>
    <property name="audio_index">1</property>
    <property name="video_index">0</property>
    <property name="mute_on_pause">0</property>
    <property name="mlt_service">avformat-novalidate</property>
    <property name="seekable">1</property>
    <property name="aspect_ratio">1</property>
    <property name="creation_time">2020-04-05T19:40:16</property>
    <property name="shotcut:hash">c61ed928d3936826431ae6103cd9bcfd</property>
    <property name="ignore_points">0</property>
    <property name="shotcut:caption">Bidou_euphonium_totoro.mp4</property>
    <property name="shotcut:skipConvert">1</property>
    <property name="global_feed">1</property>
    <property name="xml">was here</property>
    <filter id="Bidou_euphonium_totoroproducer10_filter12" in="00:01:04.720" out="00:01:13.400">
      <property name="background">colour:0</property>
      <property name="mlt_service">affine</property>
      <property name="shotcut:filter">affineSizePosition</property>
      <property name="transition.fill">1</property>
      <property name="transition.distort">0</property>
      <property name="transition.rect">960 540 480 270 1</property>
      <property name="transition.valign">top</property>
      <property name="transition.halign">left</property>
      <property name="shotcut:animIn">00:00:00.000</property>
      <property name="shotcut:animOut">00:00:00.000</property>
      <property name="transition.threads">0</property>
    </filter>
    <filter id="Bidou_euphonium_totoroproducer10_filter13" in="00:01:04.720" out="00:01:13.400">
      <property name="window">75</property>
      <property name="max_gain">20dB</property>
      <property name="mlt_service">volume</property>
      <property name="shotcut:filter">muteVolume</property>
      <property name="gain">0</property>
    </filter>
  </producer>
  <producer id="Bidou_euphonium_totoroproducer11" in="00:00:00.000" out="00:03:21.840" title="Anonymous Submission">
    <property name="length">00:03:21:22</property>
    <property name="eof">pause</property>
    <property name="resource">../../006 - Videos format youtube/Euphonium/Bidou_euphonium_totoro.mp4</property>
    <property name="audio_index">1</property>
    <property name="video_index">0</property>
    <property name="mute_on_pause">0</property>
    <property name="mlt_service">avformat-novalidate</property>
    <property name="seekable">1</property>
    <property name="aspect_ratio">1</property>
    <property name="creation_time">2020-04-05T19:40:16</property>
    <property name="shotcut:hash">c61ed928d3936826431ae6103cd9bcfd</property>
    <property name="ignore_points">0</property>
    <property name="shotcut:caption">Bidou_euphonium_totoro.mp4</property>
    <property name="shotcut:skipConvert">1</property>
    <property name="global_feed">1</property>
    <property name="xml">was here</property>
    <filter id="Bidou_euphonium_totoroproducer11_filter14" in="00:01:13.440" out="00:01:38.000">
      <property name="background">colour:0</property>
      <property name="mlt_service">affine</property>
      <property name="shotcut:filter">affineSizePosition</property>
      <property name="transition.fill">1</property>
      <property name="transition.distort">0</property>
      <property name="transition.rect">960 540 480 270 1</property>
      <property name="transition.valign">top</property>
      <property name="transition.halign">left</property>
      <property name="shotcut:animIn">00:00:00.000</property>
      <property name="shotcut:animOut">00:00:00.000</property>
      <property name="transition.threads">0</property>
    </filter>
  </producer>
  <producer id="Bidou_euphonium_totoroproducer12" in="00:00:00.000" out="00:03:21.840" title="Anonymous Submission">
    <property name="length">00:03:21:22</property>
    <property name="eof">pause</property>
    <property name="resource">../../006 - Videos format youtube/Euphonium/Bidou_euphonium_totoro.mp4</property>
    <property name="audio_index">1</property>
    <property name="video_index">0</property>
    <property name="mute_on_pause">0</property>
    <property name="mlt_service">avformat-novalidate</property>
    <property name="seekable">1</property>
    <property name="aspect_ratio">1</property>
    <property name="creation_time">2020-04-05T19:40:16</property>
    <property name="shotcut:hash">c61ed928d3936826431ae6103cd9bcfd</property>
    <property name="ignore_points">0</property>
    <property name="shotcut:caption">Bidou_euphonium_totoro.mp4</property>
    <property name="shotcut:skipConvert">1</property>
    <property name="global_feed">1</property>
    <property name="xml">was here</property>
    <filter id="Bidou_euphonium_totoroproducer12_filter15" in="00:01:38.040" out="00:01:44.040">
      <property name="background">colour:0</property>
      <property name="mlt_service">affine</property>
      <property name="shotcut:filter">affineSizePosition</property>
      <property name="transition.fill">1</property>
      <property name="transition.distort">0</property>
      <property name="transition.rect">960 540 480 270 1</property>
      <property name="transition.valign">top</property>
      <property name="transition.halign">left</property>
      <property name="shotcut:animIn">00:00:00.000</property>
      <property name="shotcut:animOut">00:00:00.000</property>
      <property name="transition.threads">0</property>
    </filter>
    <filter id="Bidou_euphonium_totoroproducer12_filter16" in="00:01:38.040" out="00:01:44.040">
      <property name="window">75</property>
      <property name="max_gain">20dB</property>
      <property name="mlt_service">volume</property>
      <property name="shotcut:filter">muteVolume</property>
      <property name="gain">0</property>
    </filter>
  </producer>
  <producer id="Bidou_euphonium_totoroproducer13" in="00:00:00.000" out="00:03:21.840" title="Anonymous Submission">
    <property name="length">00:03:21:22</property>
    <property name="eof">pause</property>
    <property name="resource">../../006 - Videos format youtube/Euphonium/Bidou_euphonium_totoro.mp4</property>
    <property name="audio_index">1</property>
    <property name="video_index">0</property>
    <property name="mute_on_pause">0</property>
    <property name="mlt_service">avformat-novalidate</property>
    <property name="seekable">1</property>
    <property name="aspect_ratio">1</property>
    <property name="creation_time">2020-04-05T19:40:16</property>
    <property name="shotcut:hash">c61ed928d3936826431ae6103cd9bcfd</property>
    <property name="ignore_points">0</property>
    <property name="shotcut:caption">Bidou_euphonium_totoro.mp4</property>
    <property name="shotcut:skipConvert">1</property>
    <property name="global_feed">1</property>
    <property name="xml">was here</property>
    <filter id="Bidou_euphonium_totoroproducer13_filter17" in="00:01:44.080" out="00:03:14.200">
      <property name="background">colour:0</property>
      <property name="mlt_service">affine</property>
      <property name="shotcut:filter">affineSizePosition</property>
      <property name="transition.fill">1</property>
      <property name="transition.distort">0</property>
      <property name="transition.rect">960 540 480 270 1</property>
      <property name="transition.valign">top</property>
      <property name="transition.halign">left</property>
      <property name="shotcut:animIn">00:00:00.000</property>
      <property name="shotcut:animOut">00:00:00.000</property>
      <property name="transition.threads">0</property>
    </filter>
  </producer>
  <producer id="Bidou_euphonium_totoroproducer14" in="00:00:00.000" out="00:03:21.840" title="Anonymous Submission">
    <property name="length">00:03:21:22</property>
    <property name="eof">pause</property>
    <property name="resource">../../006 - Videos format youtube/Euphonium/Bidou_euphonium_totoro.mp4</property>
    <property name="audio_index">1</property>
    <property name="video_index">0</property>
    <property name="mute_on_pause">0</property>
    <property name="mlt_service">avformat-novalidate</property>
    <property name="seekable">1</property>
    <property name="aspect_ratio">1</property>
    <property name="creation_time">2020-04-05T19:40:16</property>
    <property name="shotcut:hash">c61ed928d3936826431ae6103cd9bcfd</property>
    <property name="ignore_points">0</property>
    <property name="shotcut:caption">Bidou_euphonium_totoro.mp4</property>
    <property name="shotcut:skipConvert">1</property>
    <property name="global_feed">1</property>
    <property name="xml">was here</property>
    <filter id="Bidou_euphonium_totoroproducer14_filter18" in="00:03:14.240" out="00:03:21.840">
      <property name="background">colour:0</property>
      <property name="mlt_service">affine</property>
      <property name="shotcut:filter">affineSizePosition</property>
      <property name="transition.fill">1</property>
      <property name="transition.distort">0</property>
      <property name="transition.rect">960 540 480 270 1</property>
      <property name="transition.valign">top</property>
      <property name="transition.halign">left</property>
      <property name="shotcut:animIn">00:00:00.000</property>
      <property name="shotcut:animOut">00:00:00.000</property>
      <property name="transition.threads">0</property>
    </filter>
    <filter id="Bidou_euphonium_totoroproducer14_filter19" in="00:03:14.240" out="00:03:21.840">
      <property name="window">75</property>
      <property name="max_gain">20dB</property>
      <property name="mlt_service">volume</property>
      <property name="shotcut:filter">muteVolume</property>
      <property name="gain">0</property>
    </filter>
  </producer>
  <playlist id="Bidou_euphonium_totoroplaylist3">
    <property name="shotcut:video">1</property>
    <property name="shotcut:name">Bidou_euphonium</property>
    <property name="shotcut:lock">1</property>
    <blank length="00:00:00.040" />
    <entry in="00:00:00.000" out="00:00:30.040" producer="Bidou_euphonium_totoroproducer4" />
    <entry in="00:00:30.080" out="00:00:44.200" producer="Bidou_euphonium_totoroproducer5" />
    <entry in="00:00:44.240" out="00:00:46.920" producer="Bidou_euphonium_totoroproducer6" />
    <entry in="00:00:46.960" out="00:00:50.600" producer="Bidou_euphonium_totoroproducer7" />
    <entry in="00:00:50.640" out="00:00:53.760" producer="Bidou_euphonium_totoroproducer8" />
    <entry in="00:00:53.800" out="00:01:04.680" producer="Bidou_euphonium_totoroproducer9" />
    <entry in="00:01:04.720" out="00:01:13.400" producer="Bidou_euphonium_totoroproducer10" />
    <entry in="00:01:13.440" out="00:01:38.000" producer="Bidou_euphonium_totoroproducer11" />
    <entry in="00:01:38.040" out="00:01:44.040" producer="Bidou_euphonium_totoroproducer12" />
    <entry in="00:01:44.080" out="00:03:14.200" producer="Bidou_euphonium_totoroproducer13" />
    <entry in="00:03:14.240" out="00:03:21.840" producer="Bidou_euphonium_totoroproducer14" />
  </playlist>
  <producer id="Serge_euphonium_totoroproducer15" in="00:00:00.000" out="00:03:39.760" title="Anonymous Submission">
    <property name="length">00:03:39:20</property>
    <property name="eof">pause</property>
    <property name="resource">../../006 - Videos format youtube/Euphonium/Serge_euphonium_totoro.mp4</property>
    <property name="audio_index">1</property>
    <property name="video_index">0</property>
    <property name="mute_on_pause">0</property>
    <property name="mlt_service">avformat-novalidate</property>
    <property name="seekable">1</property>
    <property name="aspect_ratio">1</property>
    <property name="creation_time">2020-04-09T18:38:52</property>
    <property name="shotcut:hash">febfb730e69b265c8667487f9874d68f</property>
    <property name="ignore_points">0</property>
    <property name="shotcut:caption">Serge_euphonium_totoro.mp4</property>
    <property name="shotcut:skipConvert">1</property>
    <property name="global_feed">1</property>
    <property name="xml">was here</property>
    <filter id="Serge_euphonium_totoroproducer15_filter20" in="00:00:01.760" out="00:00:20.000">
      <property name="background">colour:0</property>
      <property name="mlt_service">affine</property>
      <property name="shotcut:filter">affineSizePosition</property>
      <property name="transition.fill">1</property>
      <property name="transition.distort">0</property>
      <property name="transition.rect">960 810 480 270 1</property>
      <property name="transition.valign">top</property>
      <property name="transition.halign">left</property>
      <property name="shotcut:animIn">00:00:00.000</property>
      <property name="shotcut:animOut">00:00:00.000</property>
      <property name="transition.threads">0</property>
    </filter>
  </producer>
  <producer id="Serge_euphonium_totoroproducer16" in="00:00:00.000" out="00:03:39.760" title="Anonymous Submission">
    <property name="length">00:03:39:20</property>
    <property name="eof">pause</property>
    <property name="resource">../../006 - Videos format youtube/Euphonium/Serge_euphonium_totoro.mp4</property>
    <property name="audio_index">1</property>
    <property name="video_index">0</property>
    <property name="mute_on_pause">0</property>
    <property name="mlt_service">avformat-novalidate</property>
    <property name="seekable">1</property>
    <property name="aspect_ratio">1</property>
    <property name="creation_time">2020-04-09T18:38:52</property>
    <property name="shotcut:hash">febfb730e69b265c8667487f9874d68f</property>
    <property name="ignore_points">0</property>
    <property name="shotcut:caption">Serge_euphonium_totoro.mp4</property>
    <property name="shotcut:skipConvert">1</property>
    <property name="global_feed">1</property>
    <property name="xml">was here</property>
    <filter id="Serge_euphonium_totoroproducer16_filter21" in="00:00:33.720" out="00:00:45.520">
      <property name="background">colour:0</property>
      <property name="mlt_service">affine</property>
      <property name="shotcut:filter">affineSizePosition</property>
      <property name="transition.fill">1</property>
      <property name="transition.distort">0</property>
      <property name="transition.rect">960 810 480 270 1</property>
      <property name="transition.valign">top</property>
      <property name="transition.halign">left</property>
      <property name="shotcut:animIn">00:00:00.000</property>
      <property name="shotcut:animOut">00:00:00.000</property>
      <property name="transition.threads">0</property>
    </filter>
    <filter id="Serge_euphonium_totoroproducer16_filter22" in="00:00:33.720" out="00:00:45.520">
      <property name="window">75</property>
      <property name="max_gain">20dB</property>
      <property name="mlt_service">volume</property>
      <property name="shotcut:filter">muteVolume</property>
      <property name="gain">0</property>
    </filter>
  </producer>
  <producer id="Serge_euphonium_totoroproducer17" in="00:00:00.000" out="00:03:39.760" title="Anonymous Submission">
    <property name="length">00:03:39:20</property>
    <property name="eof">pause</property>
    <property name="resource">../../006 - Videos format youtube/Euphonium/Serge_euphonium_totoro.mp4</property>
    <property name="audio_index">1</property>
    <property name="video_index">0</property>
    <property name="mute_on_pause">0</property>
    <property name="mlt_service">avformat-novalidate</property>
    <property name="seekable">1</property>
    <property name="aspect_ratio">1</property>
    <property name="creation_time">2020-04-09T18:38:52</property>
    <property name="shotcut:hash">febfb730e69b265c8667487f9874d68f</property>
    <property name="ignore_points">0</property>
    <property name="shotcut:caption">Serge_euphonium_totoro.mp4</property>
    <property name="shotcut:skipConvert">1</property>
    <property name="global_feed">1</property>
    <property name="xml">was here</property>
    <filter id="Serge_euphonium_totoroproducer17_filter23" in="00:00:45.560" out="00:00:59.680">
      <property name="background">colour:0</property>
      <property name="mlt_service">affine</property>
      <property name="shotcut:filter">affineSizePosition</property>
      <property name="transition.fill">1</property>
      <property name="transition.distort">0</property>
      <property name="transition.rect">960 810 480 270 1</property>
      <property name="transition.valign">top</property>
      <property name="transition.halign">left</property>
      <property name="shotcut:animIn">00:00:00.000</property>
      <property name="shotcut:animOut">00:00:00.000</property>
      <property name="transition.threads">0</property>
    </filter>
  </producer>
  <producer id="Serge_euphonium_totoroproducer18" in="00:00:00.000" out="00:03:39.760" title="Anonymous Submission">
    <property name="length">00:03:39:20</property>
    <property name="eof">pause</property>
    <property name="resource">../../006 - Videos format youtube/Euphonium/Serge_euphonium_totoro.mp4</property>
    <property name="audio_index">1</property>
    <property name="video_index">0</property>
    <property name="mute_on_pause">0</property>
    <property name="mlt_service">avformat-novalidate</property>
    <property name="seekable">1</property>
    <property name="aspect_ratio">1</property>
    <property name="creation_time">2020-04-09T18:38:52</property>
    <property name="shotcut:hash">febfb730e69b265c8667487f9874d68f</property>
    <property name="ignore_points">0</property>
    <property name="shotcut:caption">Serge_euphonium_totoro.mp4</property>
    <property name="shotcut:skipConvert">1</property>
    <property name="global_feed">1</property>
    <property name="xml">was here</property>
    <filter id="Serge_euphonium_totoroproducer18_filter24" in="00:00:59.720" out="00:01:02.360">
      <property name="background">colour:0</property>
      <property name="mlt_service">affine</property>
      <property name="shotcut:filter">affineSizePosition</property>
      <property name="transition.fill">1</property>
      <property name="transition.distort">0</property>
      <property name="transition.rect">960 810 480 270 1</property>
      <property name="transition.valign">top</property>
      <property name="transition.halign">left</property>
      <property name="shotcut:animIn">00:00:00.000</property>
      <property name="shotcut:animOut">00:00:00.000</property>
      <property name="transition.threads">0</property>
    </filter>
    <filter id="Serge_euphonium_totoroproducer18_filter25" in="00:00:59.720" out="00:01:02.360">
      <property name="window">75</property>
      <property name="max_gain">20dB</property>
      <property name="mlt_service">volume</property>
      <property name="shotcut:filter">muteVolume</property>
      <property name="gain">0</property>
    </filter>
  </producer>
  <producer id="Serge_euphonium_totoroproducer19" in="00:00:00.000" out="00:03:39.760" title="Anonymous Submission">
    <property name="length">00:03:39:20</property>
    <property name="eof">pause</property>
    <property name="resource">../../006 - Videos format youtube/Euphonium/Serge_euphonium_totoro.mp4</property>
    <property name="audio_index">1</property>
    <property name="video_index">0</property>
    <property name="mute_on_pause">0</property>
    <property name="mlt_service">avformat-novalidate</property>
    <property name="seekable">1</property>
    <property name="aspect_ratio">1</property>
    <property name="creation_time">2020-04-09T18:38:52</property>
    <property name="shotcut:hash">febfb730e69b265c8667487f9874d68f</property>
    <property name="ignore_points">0</property>
    <property name="shotcut:caption">Serge_euphonium_totoro.mp4</property>
    <property name="shotcut:skipConvert">1</property>
    <property name="global_feed">1</property>
    <property name="xml">was here</property>
    <filter id="Serge_euphonium_totoroproducer19_filter26" in="00:01:02.400" out="00:01:06.080">
      <property name="background">colour:0</property>
      <property name="mlt_service">affine</property>
      <property name="shotcut:filter">affineSizePosition</property>
      <property name="transition.fill">1</property>
      <property name="transition.distort">0</property>
      <property name="transition.rect">960 810 480 270 1</property>
      <property name="transition.valign">top</property>
      <property name="transition.halign">left</property>
      <property name="shotcut:animIn">00:00:00.000</property>
      <property name="shotcut:animOut">00:00:00.000</property>
      <property name="transition.threads">0</property>
    </filter>
  </producer>
  <producer id="Serge_euphonium_totoroproducer20" in="00:00:00.000" out="00:03:39.760" title="Anonymous Submission">
    <property name="length">00:03:39:20</property>
    <property name="eof">pause</property>
    <property name="resource">../../006 - Videos format youtube/Euphonium/Serge_euphonium_totoro.mp4</property>
    <property name="audio_index">1</property>
    <property name="video_index">0</property>
    <property name="mute_on_pause">0</property>
    <property name="mlt_service">avformat-novalidate</property>
    <property name="seekable">1</property>
    <property name="aspect_ratio">1</property>
    <property name="creation_time">2020-04-09T18:38:52</property>
    <property name="shotcut:hash">febfb730e69b265c8667487f9874d68f</property>
    <property name="ignore_points">0</property>
    <property name="shotcut:caption">Serge_euphonium_totoro.mp4</property>
    <property name="shotcut:skipConvert">1</property>
    <property name="global_feed">1</property>
    <property name="xml">was here</property>
    <filter id="Serge_euphonium_totoroproducer20_filter27" in="00:01:06.120" out="00:01:09.240">
      <property name="background">colour:0</property>
      <property name="mlt_service">affine</property>
      <property name="shotcut:filter">affineSizePosition</property>
      <property name="transition.fill">1</property>
      <property name="transition.distort">0</property>
      <property name="transition.rect">960 810 480 270 1</property>
      <property name="transition.valign">top</property>
      <property name="transition.halign">left</property>
      <property name="shotcut:animIn">00:00:00.000</property>
      <property name="shotcut:animOut">00:00:00.000</property>
      <property name="transition.threads">0</property>
    </filter>
    <filter id="Serge_euphonium_totoroproducer20_filter28" in="00:01:06.120" out="00:01:09.240">
      <property name="window">75</property>
      <property name="max_gain">20dB</property>
      <property name="mlt_service">volume</property>
      <property name="shotcut:filter">muteVolume</property>
      <property name="gain">0</property>
    </filter>
  </producer>
  <producer id="Serge_euphonium_totoroproducer21" in="00:00:00.000" out="00:03:39.760" title="Anonymous Submission">
    <property name="length">00:03:39:20</property>
    <property name="eof">pause</property>
    <property name="resource">../../006 - Videos format youtube/Euphonium/Serge_euphonium_totoro.mp4</property>
    <property name="audio_index">1</property>
    <property name="video_index">0</property>
    <property name="mute_on_pause">0</property>
    <property name="mlt_service">avformat-novalidate</property>
    <property name="seekable">1</property>
    <property name="aspect_ratio">1</property>
    <property name="creation_time">2020-04-09T18:38:52</property>
    <property name="shotcut:hash">febfb730e69b265c8667487f9874d68f</property>
    <property name="ignore_points">0</property>
    <property name="shotcut:caption">Serge_euphonium_totoro.mp4</property>
    <property name="shotcut:skipConvert">1</property>
    <property name="global_feed">1</property>
    <property name="xml">was here</property>
    <filter id="Serge_euphonium_totoroproducer21_filter29" in="00:01:09.280" out="00:01:20.200">
      <property name="background">colour:0</property>
      <property name="mlt_service">affine</property>
      <property name="shotcut:filter">affineSizePosition</property>
      <property name="transition.fill">1</property>
      <property name="transition.distort">0</property>
      <property name="transition.rect">960 810 480 270 1</property>
      <property name="transition.valign">top</property>
      <property name="transition.halign">left</property>
      <property name="shotcut:animIn">00:00:00.000</property>
      <property name="shotcut:animOut">00:00:00.000</property>
      <property name="transition.threads">0</property>
    </filter>
  </producer>
  <producer id="Serge_euphonium_totoroproducer22" in="00:00:00.000" out="00:03:39.760" title="Anonymous Submission">
    <property name="length">00:03:39:20</property>
    <property name="eof">pause</property>
    <property name="resource">../../006 - Videos format youtube/Euphonium/Serge_euphonium_totoro.mp4</property>
    <property name="audio_index">1</property>
    <property name="video_index">0</property>
    <property name="mute_on_pause">0</property>
    <property name="mlt_service">avformat-novalidate</property>
    <property name="seekable">1</property>
    <property name="aspect_ratio">1</property>
    <property name="creation_time">2020-04-09T18:38:52</property>
    <property name="shotcut:hash">febfb730e69b265c8667487f9874d68f</property>
    <property name="ignore_points">0</property>
    <property name="shotcut:caption">Serge_euphonium_totoro.mp4</property>
    <property name="shotcut:skipConvert">1</property>
    <property name="global_feed">1</property>
    <property name="xml">was here</property>
    <filter id="Serge_euphonium_totoroproducer22_filter30" in="00:01:20.240" out="00:01:28.840">
      <property name="background">colour:0</property>
      <property name="mlt_service">affine</property>
      <property name="shotcut:filter">affineSizePosition</property>
      <property name="transition.fill">1</property>
      <property name="transition.distort">0</property>
      <property name="transition.rect">960 810 480 270 1</property>
      <property name="transition.valign">top</property>
      <property name="transition.halign">left</property>
      <property name="shotcut:animIn">00:00:00.000</property>
      <property name="shotcut:animOut">00:00:00.000</property>
      <property name="transition.threads">0</property>
    </filter>
    <filter id="Serge_euphonium_totoroproducer22_filter31" in="00:01:20.240" out="00:01:28.840">
      <property name="window">75</property>
      <property name="max_gain">20dB</property>
      <property name="mlt_service">volume</property>
      <property name="shotcut:filter">muteVolume</property>
      <property name="gain">0</property>
    </filter>
  </producer>
  <producer id="Serge_euphonium_totoroproducer23" in="00:00:00.000" out="00:03:39.760" title="Anonymous Submission">
    <property name="length">00:03:39:20</property>
    <property name="eof">pause</property>
    <property name="resource">../../006 - Videos format youtube/Euphonium/Serge_euphonium_totoro.mp4</property>
    <property name="audio_index">1</property>
    <property name="video_index">0</property>
    <property name="mute_on_pause">0</property>
    <property name="mlt_service">avformat-novalidate</property>
    <property name="seekable">1</property>
    <property name="aspect_ratio">1</property>
    <property name="creation_time">2020-04-09T18:38:52</property>
    <property name="shotcut:hash">febfb730e69b265c8667487f9874d68f</property>
    <property name="ignore_points">0</property>
    <property name="shotcut:caption">Serge_euphonium_totoro.mp4</property>
    <property name="shotcut:skipConvert">1</property>
    <property name="global_feed">1</property>
    <property name="xml">was here</property>
    <filter id="Serge_euphonium_totoroproducer23_filter32" in="00:01:28.880" out="00:01:53.440">
      <property name="background">colour:0</property>
      <property name="mlt_service">affine</property>
      <property name="shotcut:filter">affineSizePosition</property>
      <property name="transition.fill">1</property>
      <property name="transition.distort">0</property>
      <property name="transition.rect">960 810 480 270 1</property>
      <property name="transition.valign">top</property>
      <property name="transition.halign">left</property>
      <property name="shotcut:animIn">00:00:00.000</property>
      <property name="shotcut:animOut">00:00:00.000</property>
      <property name="transition.threads">0</property>
    </filter>
  </producer>
  <producer id="Serge_euphonium_totoroproducer24" in="00:00:00.000" out="00:03:39.760" title="Anonymous Submission">
    <property name="length">00:03:39:20</property>
    <property name="eof">pause</property>
    <property name="resource">../../006 - Videos format youtube/Euphonium/Serge_euphonium_totoro.mp4</property>
    <property name="audio_index">1</property>
    <property name="video_index">0</property>
    <property name="mute_on_pause">0</property>
    <property name="mlt_service">avformat-novalidate</property>
    <property name="seekable">1</property>
    <property name="aspect_ratio">1</property>
    <property name="creation_time">2020-04-09T18:38:52</property>
    <property name="shotcut:hash">febfb730e69b265c8667487f9874d68f</property>
    <property name="ignore_points">0</property>
    <property name="shotcut:caption">Serge_euphonium_totoro.mp4</property>
    <property name="shotcut:skipConvert">1</property>
    <property name="global_feed">1</property>
    <property name="xml">was here</property>
    <filter id="Serge_euphonium_totoroproducer24_filter33" in="00:01:53.480" out="00:01:59.480">
      <property name="background">colour:0</property>
      <property name="mlt_service">affine</property>
      <property name="shotcut:filter">affineSizePosition</property>
      <property name="transition.fill">1</property>
      <property name="transition.distort">0</property>
      <property name="transition.rect">960 810 480 270 1</property>
      <property name="transition.valign">top</property>
      <property name="transition.halign">left</property>
      <property name="shotcut:animIn">00:00:00.000</property>
      <property name="shotcut:animOut">00:00:00.000</property>
      <property name="transition.threads">0</property>
    </filter>
    <filter id="Serge_euphonium_totoroproducer24_filter34" in="00:01:53.480" out="00:01:59.480">
      <property name="window">75</property>
      <property name="max_gain">20dB</property>
      <property name="mlt_service">volume</property>
      <property name="shotcut:filter">muteVolume</property>
      <property name="gain">0</property>
    </filter>
  </producer>
  <producer id="Serge_euphonium_totoroproducer25" in="00:00:00.000" out="00:03:39.760" title="Anonymous Submission">
    <property name="length">00:03:39:20</property>
    <property name="eof">pause</property>
    <property name="resource">../../006 - Videos format youtube/Euphonium/Serge_euphonium_totoro.mp4</property>
    <property name="audio_index">1</property>
    <property name="video_index">0</property>
    <property name="mute_on_pause">0</property>
    <property name="mlt_service">avformat-novalidate</property>
    <property name="seekable">1</property>
    <property name="aspect_ratio">1</property>
    <property name="creation_time">2020-04-09T18:38:52</property>
    <property name="shotcut:hash">febfb730e69b265c8667487f9874d68f</property>
    <property name="ignore_points">0</property>
    <property name="shotcut:caption">Serge_euphonium_totoro.mp4</property>
    <property name="shotcut:skipConvert">1</property>
    <property name="global_feed">1</property>
    <property name="xml">was here</property>
    <filter id="Serge_euphonium_totoroproducer25_filter35" in="00:01:59.520" out="00:03:39.760">
      <property name="background">colour:0</property>
      <property name="mlt_service">affine</property>
      <property name="shotcut:filter">affineSizePosition</property>
      <property name="transition.fill">1</property>
      <property name="transition.distort">0</property>
      <property name="transition.rect">960 810 480 270 1</property>
      <property name="transition.valign">top</property>
      <property name="transition.halign">left</property>
      <property name="shotcut:animIn">00:00:00.000</property>
      <property name="shotcut:animOut">00:00:00.000</property>
      <property name="transition.threads">0</property>
    </filter>
  </producer>
  <playlist id="Serge_euphonium_totoroplaylist4">
    <property name="shotcut:video">1</property>
    <property name="shotcut:name">Serge_euphonium</property>
    <property name="shotcut:lock">1</property>
    <entry in="00:00:01.760" out="00:00:20.000" producer="Serge_euphonium_totoroproducer15" />
    <entry in="00:00:33.720" out="00:00:45.520" producer="Serge_euphonium_totoroproducer16" />
    <entry in="00:00:45.560" out="00:00:59.680" producer="Serge_euphonium_totoroproducer17" />
    <entry in="00:00:59.720" out="00:01:02.360" producer="Serge_euphonium_totoroproducer18" />
    <entry in="00:01:02.400" out="00:01:06.080" producer="Serge_euphonium_totoroproducer19" />
    <entry in="00:01:06.120" out="00:01:09.240" producer="Serge_euphonium_totoroproducer20" />
    <entry in="00:01:09.280" out="00:01:20.200" producer="Serge_euphonium_totoroproducer21" />
    <entry in="00:01:20.240" out="00:01:28.840" producer="Serge_euphonium_totoroproducer22" />
    <entry in="00:01:28.880" out="00:01:53.440" producer="Serge_euphonium_totoroproducer23" />
    <entry in="00:01:53.480" out="00:01:59.480" producer="Serge_euphonium_totoroproducer24" />
    <entry in="00:01:59.520" out="00:03:39.760" producer="Serge_euphonium_totoroproducer25" />
  </playlist>
  <producer id="Svoisine_tubaproducer4" in="00:00:00.000" out="00:03:26.280" title="Anonymous Submission">
    <property name="length">00:03:26:08</property>
    <property name="eof">pause</property>
    <property name="resource">../../006 - Videos format youtube/Tuba/Svoisine_tuba.mp4</property>
    <property name="audio_index">1</property>
    <property name="video_index">0</property>
    <property name="mute_on_pause">0</property>
    <property name="mlt_service">avformat-novalidate</property>
    <property name="seekable">1</property>
    <property name="aspect_ratio">1</property>
    <property name="creation_time">2020-04-11T08:39:47</property>
    <property name="shotcut:hash">8494f33c31e06cf5728dcdd20ff8db58</property>
    <property name="ignore_points">0</property>
    <property name="shotcut:caption">Svoisine_tuba.mp4</property>
    <property name="shotcut:skipConvert">1</property>
    <property name="global_feed">1</property>
    <property name="xml">was here</property>
    <filter id="Svoisine_tubaproducer4_filter3" in="00:00:09.680" out="00:00:34.160">
      <property name="background">colour:0</property>
      <property name="mlt_service">affine</property>
      <property name="shotcut:filter">affineSizePosition</property>
      <property name="transition.fill">1</property>
      <property name="transition.distort">0</property>
      <property name="transition.rect">1440 0 480 270 1</property>
      <property name="transition.valign">top</property>
      <property name="transition.halign">left</property>
      <property name="shotcut:animIn">00:00:00.000</property>
      <property name="shotcut:animOut">00:00:00.000</property>
      <property name="transition.threads">0</property>
    </filter>
    <filter id="Svoisine_tubaproducer4_filter4" in="00:00:09.680" out="00:00:34.160">
      <property name="window">75</property>
      <property name="max_gain">20dB</property>
      <property name="mlt_service">volume</property>
      <property name="shotcut:filter">muteVolume</property>
      <property name="gain">0</property>
    </filter>
  </producer>
  <producer id="Svoisine_tubaproducer5" in="00:00:00.000" out="00:03:26.280" title="Anonymous Submission">
    <property name="length">00:03:26:08</property>
    <property name="eof">pause</property>
    <property name="resource">../../006 - Videos format youtube/Tuba/Svoisine_tuba.mp4</property>
    <property name="audio_index">1</property>
    <property name="video_index">0</property>
    <property name="mute_on_pause">0</property>
    <property name="mlt_service">avformat-novalidate</property>
    <property name="seekable">1</property>
    <property name="aspect_ratio">1</property>
    <property name="creation_time">2020-04-11T08:39:47</property>
    <property name="shotcut:hash">8494f33c31e06cf5728dcdd20ff8db58</property>
    <property name="ignore_points">0</property>
    <property name="shotcut:caption">Svoisine_tuba.mp4</property>
    <property name="shotcut:skipConvert">1</property>
    <property name="global_feed">1</property>
    <property name="xml">was here</property>
    <filter id="Svoisine_tubaproducer5_filter5" in="00:00:34.200" out="00:01:42.360">
      <property name="background">colour:0</property>
      <property name="mlt_service">affine</property>
      <property name="shotcut:filter">affineSizePosition</property>
      <property name="transition.fill">1</property>
      <property name="transition.distort">0</property>
      <property name="transition.rect">1440 0 480 270 1</property>
      <property name="transition.valign">top</property>
      <property name="transition.halign">left</property>
      <property name="shotcut:animIn">00:00:00.000</property>
      <property name="shotcut:animOut">00:00:00.000</property>
      <property name="transition.threads">0</property>
    </filter>
  </producer>
  <producer id="Svoisine_tubaproducer6" in="00:00:00.000" out="00:03:26.280" title="Anonymous Submission">
    <property name="length">00:03:26:08</property>
    <property name="eof">pause</property>
    <property name="resource">../../006 - Videos format youtube/Tuba/Svoisine_tuba.mp4</property>
    <property name="audio_index">1</property>
    <property name="video_index">0</property>
    <property name="mute_on_pause">0</property>
    <property name="mlt_service">avformat-novalidate</property>
    <property name="seekable">1</property>
    <property name="aspect_ratio">1</property>
    <property name="creation_time">2020-04-11T08:39:47</property>
    <property name="shotcut:hash">8494f33c31e06cf5728dcdd20ff8db58</property>
    <property name="ignore_points">0</property>
    <property name="shotcut:caption">Svoisine_tuba.mp4</property>
    <property name="shotcut:skipConvert">1</property>
    <property name="global_feed">1</property>
    <property name="xml">was here</property>
    <filter id="Svoisine_tubaproducer6_filter6" in="00:01:42.400" out="00:01:59.280">
      <property name="background">colour:0</property>
      <property name="mlt_service">affine</property>
      <property name="shotcut:filter">affineSizePosition</property>
      <property name="transition.fill">1</property>
      <property name="transition.distort">0</property>
      <property name="transition.rect">1440 0 480 270 1</property>
      <property name="transition.valign">top</property>
      <property name="transition.halign">left</property>
      <property name="shotcut:animIn">00:00:00.000</property>
      <property name="shotcut:animOut">00:00:00.000</property>
      <property name="transition.threads">0</property>
    </filter>
    <filter id="Svoisine_tubaproducer6_filter7" in="00:01:42.400" out="00:01:59.280">
      <property name="window">75</property>
      <property name="max_gain">20dB</property>
      <property name="mlt_service">volume</property>
      <property name="shotcut:filter">muteVolume</property>
      <property name="gain">0</property>
    </filter>
  </producer>
  <producer id="Svoisine_tubaproducer7" in="00:00:00.000" out="00:03:26.280" title="Anonymous Submission">
    <property name="length">00:03:26:08</property>
    <property name="eof">pause</property>
    <property name="resource">../../006 - Videos format youtube/Tuba/Svoisine_tuba.mp4</property>
    <property name="audio_index">1</property>
    <property name="video_index">0</property>
    <property name="mute_on_pause">0</property>
    <property name="mlt_service">avformat-novalidate</property>
    <property name="seekable">1</property>
    <property name="aspect_ratio">1</property>
    <property name="creation_time">2020-04-11T08:39:47</property>
    <property name="shotcut:hash">8494f33c31e06cf5728dcdd20ff8db58</property>
    <property name="ignore_points">0</property>
    <property name="shotcut:caption">Svoisine_tuba.mp4</property>
    <property name="shotcut:skipConvert">1</property>
    <property name="global_feed">1</property>
    <property name="xml">was here</property>
    <filter id="Svoisine_tubaproducer7_filter8" in="00:01:59.320" out="00:03:19.320">
      <property name="background">colour:0</property>
      <property name="mlt_service">affine</property>
      <property name="shotcut:filter">affineSizePosition</property>
      <property name="transition.fill">1</property>
      <property name="transition.distort">0</property>
      <property name="transition.rect">1440 0 480 270 1</property>
      <property name="transition.valign">top</property>
      <property name="transition.halign">left</property>
      <property name="shotcut:animIn">00:00:00.000</property>
      <property name="shotcut:animOut">00:00:00.000</property>
      <property name="transition.threads">0</property>
    </filter>
  </producer>
  <producer id="Svoisine_tubaproducer8" in="00:00:00.000" out="00:03:26.280" title="Anonymous Submission">
    <property name="length">00:03:26:08</property>
    <property name="eof">pause</property>
    <property name="resource">../../006 - Videos format youtube/Tuba/Svoisine_tuba.mp4</property>
    <property name="audio_index">1</property>
    <property name="video_index">0</property>
    <property name="mute_on_pause">0</property>
    <property name="mlt_service">avformat-novalidate</property>
    <property name="seekable">1</property>
    <property name="aspect_ratio">1</property>
    <property name="creation_time">2020-04-11T08:39:47</property>
    <property name="shotcut:hash">8494f33c31e06cf5728dcdd20ff8db58</property>
    <property name="ignore_points">0</property>
    <property name="shotcut:caption">Svoisine_tuba.mp4</property>
    <property name="shotcut:skipConvert">1</property>
    <property name="global_feed">1</property>
    <property name="xml">was here</property>
    <filter id="Svoisine_tubaproducer8_filter9" in="00:03:19.360" out="00:03:26.280">
      <property name="background">colour:0</property>
      <property name="mlt_service">affine</property>
      <property name="shotcut:filter">affineSizePosition</property>
      <property name="transition.fill">1</property>
      <property name="transition.distort">0</property>
      <property name="transition.rect">1440 0 480 270 1</property>
      <property name="transition.valign">top</property>
      <property name="transition.halign">left</property>
      <property name="shotcut:animIn">00:00:00.000</property>
      <property name="shotcut:animOut">00:00:00.000</property>
      <property name="transition.threads">0</property>
    </filter>
    <filter id="Svoisine_tubaproducer8_filter10" in="00:03:19.360" out="00:03:26.280">
      <property name="window">75</property>
      <property name="max_gain">20dB</property>
      <property name="mlt_service">volume</property>
      <property name="shotcut:filter">muteVolume</property>
      <property name="gain">0</property>
    </filter>
  </producer>
  <playlist id="Svoisine_tubaplaylist3">
    <property name="shotcut:video">1</property>
    <property name="shotcut:name">V4</property>
    <property name="shotcut:lock">1</property>
    <blank length="00:00:05.280" />
    <entry in="00:00:09.680" out="00:00:34.160" producer="Svoisine_tubaproducer4" />
    <entry in="00:00:34.200" out="00:01:42.360" producer="Svoisine_tubaproducer5" />
    <entry in="00:01:42.400" out="00:01:59.280" producer="Svoisine_tubaproducer6" />
    <entry in="00:01:59.320" out="00:03:19.320" producer="Svoisine_tubaproducer7" />
    <entry in="00:03:19.360" out="00:03:26.280" producer="Svoisine_tubaproducer8" />
  </playlist>
  <tractor global_feed="1" id="tractor0" in="00:00:00.000" out="00:03:20.880" title="Shotcut version 19.08.05">
    <property name="shotcut">1</property>
    <property name="shotcut:projectAudioChannels">2</property>
    <property name="shotcut:projectFolder">1</property>
    <property name="shotcut:scaleFactor">4.66321</property>
    <track producer="background" />
    <track hide="audio" producer="playlist0" />
    <track hide="audio" producer="playlist1" />
    <track hide="both" producer="playlist2" />
    <track producer="playlist6" />
    <track producer="playlist11" />
    <track producer="playlist3" />
    <track hide="video" producer="Camille_trombone_totoroplaylist3" />
    <track producer="Bidou_cornet_totoroplaylist3" />
    <track producer="Alain_flute_totoroplaylist3" />
    <track producer="Laurence_flute_totoroplaylist4" />
    <track producer="Antoine_flute_totoroplaylist5" />
    <track producer="Aur&#233;lie_hautbois_totoroplaylist7" />
    <track hide="both" producer="Bidou_euphonium_totoroplaylist3" />
    <track producer="Serge_euphonium_totoroplaylist4" />
    <track producer="Svoisine_tubaplaylist3" />
    <transition id="transition0">
      <property name="a_track">0</property>
      <property name="b_track">1</property>
      <property name="mlt_service">mix</property>
      <property name="always_active">1</property>
      <property name="sum">1</property>
    </transition>
    <transition id="transition1">
      <property name="a_track">0</property>
      <property name="b_track">1</property>
      <property name="version">0.9</property>
      <property name="mlt_service">frei0r.cairoblend</property>
      <property name="disable">1</property>
    </transition>
    <transition id="transition2">
      <property name="a_track">0</property>
      <property name="b_track">2</property>
      <property name="mlt_service">mix</property>
      <property name="always_active">1</property>
      <property name="sum">1</property>
    </transition>
    <transition id="transition3">
      <property name="a_track">1</property>
      <property name="b_track">2</property>
      <property name="version">0.9</property>
      <property name="mlt_service">frei0r.cairoblend</property>
      <property name="disable">0</property>
    </transition>
    <transition id="transition4">
      <property name="a_track">0</property>
      <property name="b_track">3</property>
      <property name="mlt_service">mix</property>
      <property name="always_active">1</property>
      <property name="sum">1</property>
    </transition>
    <transition id="transition5">
      <property name="a_track">1</property>
      <property name="b_track">3</property>
      <property name="version">0.9</property>
      <property name="mlt_service">frei0r.cairoblend</property>
      <property name="disable">0</property>
    </transition>
    <transition id="transition9">
      <property name="a_track">1</property>
      <property name="b_track">4</property>
      <property name="version">0.9</property>
      <property name="mlt_service">frei0r.cairoblend</property>
    </transition>
    <transition id="transition14">
      <property name="a_track">0</property>
      <property name="b_track">5</property>
      <property name="mlt_service">mix</property>
      <property name="always_active">1</property>
      <property name="sum">1</property>
    </transition>
    <transition id="transition15">
      <property name="a_track">1</property>
      <property name="b_track">5</property>
      <property name="version">0.9</property>
      <property name="mlt_service">frei0r.cairoblend</property>
      <property name="disable">0</property>
    </transition>
    <transition id="transition19">
      <property name="a_track">0</property>
      <property name="b_track">4</property>
      <property name="mlt_service">mix</property>
      <property name="always_active">1</property>
      <property name="sum">1</property>
    </transition>
    <transition id="transition6">
      <property name="a_track">0</property>
      <property name="b_track">6</property>
      <property name="mlt_service">mix</property>
      <property name="always_active">1</property>
      <property name="sum">1</property>
    </transition>
    <transition id="transition7">
      <property name="a_track">1</property>
      <property name="b_track">6</property>
      <property name="version">0.9</property>
      <property name="mlt_service">frei0r.cairoblend</property>
      <property name="disable">0</property>
    </transition>
  <transition id="transition6_imported_0">
      <property name="a_track">0</property>
      <property name="b_track">7</property>
      <property name="mlt_service">mix</property>
      <property name="always_active">1</property>
      <property name="sum">1</property>
    </transition>
    <transition id="transition7_imported_0">
      <property name="a_track">1</property>
      <property name="b_track">7</property>
      <property name="version">0.9</property>
      <property name="mlt_service">frei0r.cairoblend</property>
      <property name="disable">0</property>
    </transition>
    <transition id="transition6_imported_1">
      <property name="a_track">0</property>
      <property name="b_track">8</property>
      <property name="mlt_service">mix</property>
      <property name="always_active">1</property>
      <property name="sum">1</property>
    </transition>
    <transition id="transition7_imported_1">
      <property name="a_track">1</property>
      <property name="b_track">8</property>
      <property name="version">0.9</property>
      <property name="mlt_service">frei0r.cairoblend</property>
      <property name="disable">0</property>
    </transition>
  <transition id="transition6_imported_2">
      <property name="a_track">0</property>
      <property name="b_track">9</property>
      <property name="mlt_service">mix</property>
      <property name="always_active">1</property>
      <property name="sum">1</property>
    </transition>
    <transition id="transition7_imported_2">
      <property name="a_track">1</property>
      <property name="b_track">9</property>
      <property name="version">0.9</property>
      <property name="mlt_service">frei0r.cairoblend</property>
      <property name="disable">0</property>
    </transition>
    <transition id="transition8_imported_2">
      <property name="a_track">1</property>
      <property name="b_track">10</property>
      <property name="version">0.9</property>
      <property name="mlt_service">frei0r.cairoblend</property>
    </transition>
    <transition id="transition11_imported_2">
      <property name="a_track">0</property>
      <property name="b_track">10</property>
      <property name="mlt_service">mix</property>
      <property name="always_active">1</property>
      <property name="sum">1</property>
    </transition>
    <transition id="transition9_imported_2">
      <property name="a_track">0</property>
      <property name="b_track">11</property>
      <property name="mlt_service">mix</property>
      <property name="always_active">1</property>
      <property name="sum">1</property>
    </transition>
    <transition id="transition10_imported_2">
      <property name="a_track">1</property>
      <property name="b_track">11</property>
      <property name="version">0.9</property>
      <property name="mlt_service">frei0r.cairoblend</property>
      <property name="disable">0</property>
    </transition>
    <transition id="transition14_imported_2">
      <property name="a_track">0</property>
      <property name="b_track">12</property>
      <property name="mlt_service">mix</property>
      <property name="always_active">1</property>
      <property name="sum">1</property>
    </transition>
    <transition id="transition15_imported_2">
      <property name="a_track">1</property>
      <property name="b_track">12</property>
      <property name="version">0.9</property>
      <property name="mlt_service">frei0r.cairoblend</property>
      <property name="disable">0</property>
    </transition>
  <transition id="transition6_imported_3">
      <property name="a_track">0</property>
      <property name="b_track">13</property>
      <property name="mlt_service">mix</property>
      <property name="always_active">1</property>
      <property name="sum">1</property>
    </transition>
    <transition id="transition7_imported_3">
      <property name="a_track">1</property>
      <property name="b_track">13</property>
      <property name="version">0.9</property>
      <property name="mlt_service">frei0r.cairoblend</property>
      <property name="disable">0</property>
    </transition>
    <transition id="transition8_imported_3">
      <property name="a_track">0</property>
      <property name="b_track">14</property>
      <property name="mlt_service">mix</property>
      <property name="always_active">1</property>
      <property name="sum">1</property>
    </transition>
    <transition id="transition9_imported_3">
      <property name="a_track">1</property>
      <property name="b_track">14</property>
      <property name="version">0.9</property>
      <property name="mlt_service">frei0r.cairoblend</property>
      <property name="disable">0</property>
    </transition>
  <transition id="transition6_imported_4">
      <property name="a_track">0</property>
      <property name="b_track">15</property>
      <property name="mlt_service">mix</property>
      <property name="always_active">1</property>
      <property name="sum">1</property>
    </transition>
    <transition id="transition7_imported_4">
      <property name="a_track">1</property>
      <property name="b_track">15</property>
      <property name="version">0.9</property>
      <property name="mlt_service">frei0r.cairoblend</property>
      <property name="disable">0</property>
    </transition>
  </tractor>
</mlt>