<?xml version="1.0" encoding="utf-8"?>
<mlt LC_NUMERIC="C" version="6.17.0" title="Shotcut version 19.08.05" producer="main_bin">
  <profile description="HD 1080p 25 fps" width="1920" height="1080" progressive="1" sample_aspect_num="1" sample_aspect_den="1" display_aspect_num="16" display_aspect_den="9" frame_rate_num="25" frame_rate_den="1" colorspace="709"/>
  <playlist id="main_bin">
    <property name="xml_retain">1</property>
  </playlist>
  <producer id="black" in="00:00:00.000" out="00:03:35.600">
    <property name="length">5391</property>
    <property name="eof">pause</property>
    <property name="resource">0</property>
    <property name="aspect_ratio">1</property>
    <property name="mlt_service">color</property>
    <property name="mlt_image_format">rgb24a</property>
    <property name="set.test_audio">0</property>
  </producer>
  <playlist id="background">
    <entry producer="black" in="00:00:00.000" out="00:03:35.600"/>
  </playlist>
  <producer id="producer0" title="Anonymous Submission" in="00:00:00.000" out="00:02:58.320">
    <property name="length">00:02:58:09</property>
    <property name="eof">pause</property>
    <property name="resource">C:/Users/Camille/OneDrive/Camille/006 - Videos format youtube/Chef/Jean-Jacques_chef_totoro.mp4</property>
    <property name="audio_index">1</property>
    <property name="video_index">0</property>
    <property name="mute_on_pause">0</property>
    <property name="mlt_service">avformat-novalidate</property>
    <property name="seekable">1</property>
    <property name="aspect_ratio">1</property>
    <property name="creation_time">2020-04-05T13:55:58</property>
    <property name="shotcut:hash">54631fa1ec31562eee0a931256e35e96</property>
    <property name="ignore_points">0</property>
    <property name="shotcut:caption">Jean-Jacques_chef_totoro.mp4</property>
    <property name="shotcut:skipConvert">1</property>
    <property name="global_feed">1</property>
    <property name="xml">was here</property>
    <filter id="filter0" out="00:02:58.320">
      <property name="background">colour:0</property>
      <property name="mlt_service">affine</property>
      <property name="shotcut:filter">affineSizePosition</property>
      <property name="transition.fill">1</property>
      <property name="transition.distort">0</property>
      <property name="transition.rect">468 263 865 485 1</property>
      <property name="transition.valign">top</property>
      <property name="transition.halign">left</property>
      <property name="shotcut:animIn">00:00:00.000</property>
      <property name="shotcut:animOut">00:00:00.000</property>
      <property name="transition.threads">0</property>
    </filter>
  </producer>
  <playlist id="playlist0">
    <property name="shotcut:video">1</property>
    <property name="shotcut:name">Chef_JJS</property>
    <property name="shotcut:lock">1</property>
    <blank length="00:00:22.320"/>
    <entry producer="producer0" in="00:00:00.000" out="00:02:58.320"/>
  </playlist>
  <producer id="producer1" title="Anonymous Submission" in="00:00:00.000" out="03:59:59.960">
    <property name="length">04:00:00:00</property>
    <property name="eof">pause</property>
    <property name="resource">#00000000</property>
    <property name="aspect_ratio">1</property>
    <property name="mlt_service">color</property>
    <property name="mlt_image_format">rgb24a</property>
    <property name="shotcut:caption">transparent</property>
    <property name="shotcut:detail">transparent</property>
    <property name="ignore_points">0</property>
    <property name="global_feed">1</property>
    <property name="xml">was here</property>
    <property name="seekable">1</property>
    <filter id="filter1" out="00:00:04.960">
      <property name="argument">Logo EMGB</property>
      <property name="geometry">0 0 1920 1080 1</property>
      <property name="family">Verdana</property>
      <property name="size">1080</property>
      <property name="weight">500</property>
      <property name="style">normal</property>
      <property name="fgcolour">#ffffffff</property>
      <property name="bgcolour">#00000000</property>
      <property name="olcolour">#aa000000</property>
      <property name="pad">0</property>
      <property name="halign">center</property>
      <property name="valign">bottom</property>
      <property name="outline">3</property>
      <property name="mlt_service">dynamictext</property>
      <property name="shotcut:filter">dynamicText</property>
      <property name="shotcut:usePointSize">0</property>
      <property name="shotcut:animIn">00:00:00.000</property>
      <property name="shotcut:animOut">00:00:00.000</property>
    </filter>
  </producer>
  <producer id="producer2" title="Anonymous Submission" in="00:00:00.000" out="03:59:59.960">
    <property name="length">04:00:00:00</property>
    <property name="eof">pause</property>
    <property name="resource">#00000000</property>
    <property name="aspect_ratio">1</property>
    <property name="mlt_service">color</property>
    <property name="mlt_image_format">rgb24a</property>
    <property name="shotcut:caption">transparent</property>
    <property name="shotcut:detail">transparent</property>
    <property name="ignore_points">0</property>
    <property name="global_feed">1</property>
    <property name="xml">was here</property>
    <property name="seekable">1</property>
    <filter id="filter2" in="00:00:05.000" out="00:00:14.960">
      <property name="argument">Temps de marge pour faire apparaitre/entrer les musiciens</property>
      <property name="geometry">0 0 1920 1080 1</property>
      <property name="family">Verdana</property>
      <property name="size">1080</property>
      <property name="weight">500</property>
      <property name="style">normal</property>
      <property name="fgcolour">#ffffffff</property>
      <property name="bgcolour">#00000000</property>
      <property name="olcolour">#aa000000</property>
      <property name="pad">0</property>
      <property name="halign">center</property>
      <property name="valign">bottom</property>
      <property name="outline">3</property>
      <property name="mlt_service">dynamictext</property>
      <property name="shotcut:filter">dynamicText</property>
      <property name="shotcut:usePointSize">0</property>
      <property name="shotcut:animIn">00:00:00.000</property>
      <property name="shotcut:animOut">00:00:00.000</property>
    </filter>
  </producer>
  <playlist id="playlist1">
    <property name="shotcut:video">1</property>
    <property name="shotcut:name">Storyboard</property>
    <property name="shotcut:lock">1</property>
    <entry producer="producer1" in="00:00:00.000" out="00:00:04.960"/>
    <entry producer="producer2" in="00:00:05.000" out="00:00:14.960"/>
  </playlist>
  <producer id="producer3" title="Anonymous Submission" in="00:00:00.000" out="00:03:24.560">
    <property name="length">00:03:24:15</property>
    <property name="eof">pause</property>
    <property name="resource">C:/Users/Camille/OneDrive/Camille/003 - Bande son/Practice avec texte initial et son youtube.mp4</property>
    <property name="audio_index">1</property>
    <property name="video_index">0</property>
    <property name="mute_on_pause">0</property>
    <property name="mlt_service">avformat-novalidate</property>
    <property name="seekable">1</property>
    <property name="aspect_ratio">1</property>
    <property name="creation_time">2020-04-04T10:52:53</property>
    <property name="shotcut:hash">4799385e220417e9b67b0873b03fdf9a</property>
    <property name="ignore_points">0</property>
    <property name="shotcut:caption">Practice avec texte initial et son youtube.mp4</property>
    <property name="shotcut:skipConvert">1</property>
    <property name="global_feed">1</property>
    <property name="xml">was here</property>
  </producer>
  <playlist id="playlist2">
    <property name="shotcut:video">1</property>
    <property name="shotcut:name">Bande_son_practice</property>
    <property name="shotcut:lock">1</property>
    <blank length="00:00:15.000"/>
    <entry producer="producer3" in="00:00:18.960" out="00:03:24.560"/>
  </playlist>
  <producer id="producer4" title="Anonymous Submission" in="00:00:00.000" out="00:03:19.240">
    <property name="length">00:03:19:07</property>
    <property name="eof">pause</property>
    <property name="resource">C:/Users/Camille/OneDrive/Camille/006 - Videos format youtube/Flutes/Alain_flute_totoro.mp4</property>
    <property name="audio_index">1</property>
    <property name="video_index">0</property>
    <property name="mute_on_pause">0</property>
    <property name="mlt_service">avformat-novalidate</property>
    <property name="seekable">1</property>
    <property name="aspect_ratio">1</property>
    <property name="creation_time">2020-04-08T16:32:02</property>
    <property name="shotcut:hash">e4470a14bf088b76cf4b34d8127e4e51</property>
    <property name="ignore_points">0</property>
    <property name="shotcut:caption">Alain_flute_totoro.mp4</property>
    <property name="shotcut:skipConvert">1</property>
    <property name="global_feed">1</property>
    <property name="xml">was here</property>
    <filter id="filter3" out="00:00:33.760">
      <property name="background">colour:0</property>
      <property name="mlt_service">affine</property>
      <property name="shotcut:filter">affineSizePosition</property>
      <property name="transition.fill">1</property>
      <property name="transition.distort">0</property>
      <property name="transition.rect">0 0 1920 1080 1</property>
      <property name="transition.valign">top</property>
      <property name="transition.halign">left</property>
      <property name="shotcut:animIn">00:00:00.000</property>
      <property name="shotcut:animOut">00:00:00.000</property>
      <property name="transition.threads">0</property>
    </filter>
    <filter id="filter4" out="00:00:33.760">
      <property name="window">75</property>
      <property name="max_gain">20dB</property>
      <property name="mlt_service">volume</property>
      <property name="shotcut:filter">muteVolume</property>
      <property name="gain">0</property>
    </filter>
  </producer>
  <producer id="producer5" title="Anonymous Submission" in="00:00:00.000" out="00:03:19.240">
    <property name="length">00:03:19:07</property>
    <property name="eof">pause</property>
    <property name="resource">C:/Users/Camille/OneDrive/Camille/006 - Videos format youtube/Flutes/Alain_flute_totoro.mp4</property>
    <property name="audio_index">1</property>
    <property name="video_index">0</property>
    <property name="mute_on_pause">0</property>
    <property name="mlt_service">avformat-novalidate</property>
    <property name="seekable">1</property>
    <property name="aspect_ratio">1</property>
    <property name="creation_time">2020-04-08T16:32:02</property>
    <property name="shotcut:hash">e4470a14bf088b76cf4b34d8127e4e51</property>
    <property name="ignore_points">0</property>
    <property name="shotcut:caption">Alain_flute_totoro.mp4</property>
    <property name="shotcut:skipConvert">1</property>
    <property name="global_feed">1</property>
    <property name="xml">was here</property>
    <filter id="filter5" in="00:00:33.800" out="00:03:19.240">
      <property name="background">colour:0</property>
      <property name="mlt_service">affine</property>
      <property name="shotcut:filter">affineSizePosition</property>
      <property name="transition.fill">1</property>
      <property name="transition.distort">0</property>
      <property name="transition.rect">0 0 1920 1080 1</property>
      <property name="transition.valign">top</property>
      <property name="transition.halign">left</property>
      <property name="shotcut:animIn">00:00:00.000</property>
      <property name="shotcut:animOut">00:00:00.000</property>
      <property name="transition.threads">0</property>
    </filter>
  </producer>
  <playlist id="playlist3">
    <property name="shotcut:video">1</property>
    <property name="shotcut:name">Alain_flute2</property>
    <property name="shotcut:lock">1</property>
    <blank length="00:00:02.080"/>
    <entry producer="producer4" in="00:00:00.000" out="00:00:33.760"/>
    <entry producer="producer5" in="00:00:33.800" out="00:03:19.240"/>
    <filter id="filter6" out="00:03:35.600">
      <property name="window">75</property>
      <property name="max_gain">20dB</property>
      <property name="level">-10</property>
      <property name="mlt_service">volume</property>
    </filter>
  </playlist>
  <producer id="producer6" title="Anonymous Submission" in="00:00:00.000" out="00:02:58.120">
    <property name="length">00:02:58:04</property>
    <property name="eof">pause</property>
    <property name="resource">C:/Users/Camille/OneDrive/Camille/006 - Videos format youtube/Flutes/Laurence_flute_totoro.mp4</property>
    <property name="audio_index">1</property>
    <property name="video_index">0</property>
    <property name="mute_on_pause">0</property>
    <property name="mlt_service">avformat-novalidate</property>
    <property name="seekable">1</property>
    <property name="aspect_ratio">1</property>
    <property name="creation_time">2020-04-10T18:00:41</property>
    <property name="shotcut:hash">60bcdee113b1401df52909414ee98b5b</property>
    <property name="ignore_points">0</property>
    <property name="shotcut:caption">Laurence_flute_totoro.mp4</property>
    <property name="shotcut:skipConvert">1</property>
    <property name="global_feed">1</property>
    <property name="xml">was here</property>
    <filter id="filter7" out="00:00:27.120">
      <property name="background">colour:0</property>
      <property name="mlt_service">affine</property>
      <property name="shotcut:filter">affineSizePosition</property>
      <property name="transition.fill">1</property>
      <property name="transition.distort">0</property>
      <property name="transition.rect">0 0 1920 1080 1</property>
      <property name="transition.valign">top</property>
      <property name="transition.halign">left</property>
      <property name="shotcut:animIn">00:00:00.000</property>
      <property name="shotcut:animOut">00:00:00.000</property>
      <property name="transition.threads">0</property>
    </filter>
  </producer>
  <producer id="producer7" title="Anonymous Submission" in="00:00:00.000" out="00:02:58.120">
    <property name="length">00:02:58:04</property>
    <property name="eof">pause</property>
    <property name="resource">C:/Users/Camille/OneDrive/Camille/006 - Videos format youtube/Flutes/Laurence_flute_totoro.mp4</property>
    <property name="audio_index">1</property>
    <property name="video_index">0</property>
    <property name="mute_on_pause">0</property>
    <property name="mlt_service">avformat-novalidate</property>
    <property name="seekable">1</property>
    <property name="aspect_ratio">1</property>
    <property name="creation_time">2020-04-10T18:00:41</property>
    <property name="shotcut:hash">60bcdee113b1401df52909414ee98b5b</property>
    <property name="ignore_points">0</property>
    <property name="shotcut:caption">Laurence_flute_totoro.mp4</property>
    <property name="shotcut:skipConvert">1</property>
    <property name="global_feed">1</property>
    <property name="xml">was here</property>
    <filter id="filter8" in="00:00:27.160" out="00:00:28.120">
      <property name="background">colour:0</property>
      <property name="mlt_service">affine</property>
      <property name="shotcut:filter">affineSizePosition</property>
      <property name="transition.fill">1</property>
      <property name="transition.distort">0</property>
      <property name="transition.rect">0 0 1920 1080 1</property>
      <property name="transition.valign">top</property>
      <property name="transition.halign">left</property>
      <property name="shotcut:animIn">00:00:00.000</property>
      <property name="shotcut:animOut">00:00:00.000</property>
      <property name="transition.threads">0</property>
    </filter>
    <filter id="filter9" in="00:00:27.160" out="00:00:28.120">
      <property name="window">75</property>
      <property name="max_gain">20dB</property>
      <property name="mlt_service">volume</property>
      <property name="shotcut:filter">muteVolume</property>
      <property name="gain">0</property>
    </filter>
  </producer>
  <producer id="producer8" title="Anonymous Submission" in="00:00:00.000" out="00:02:58.120">
    <property name="length">00:02:58:04</property>
    <property name="eof">pause</property>
    <property name="resource">C:/Users/Camille/OneDrive/Camille/006 - Videos format youtube/Flutes/Laurence_flute_totoro.mp4</property>
    <property name="audio_index">1</property>
    <property name="video_index">0</property>
    <property name="mute_on_pause">0</property>
    <property name="mlt_service">avformat-novalidate</property>
    <property name="seekable">1</property>
    <property name="aspect_ratio">1</property>
    <property name="creation_time">2020-04-10T18:00:41</property>
    <property name="shotcut:hash">60bcdee113b1401df52909414ee98b5b</property>
    <property name="ignore_points">0</property>
    <property name="shotcut:caption">Laurence_flute_totoro.mp4</property>
    <property name="shotcut:skipConvert">1</property>
    <property name="global_feed">1</property>
    <property name="xml">was here</property>
    <filter id="filter10" in="00:00:28.160" out="00:00:30.840">
      <property name="background">colour:0</property>
      <property name="mlt_service">affine</property>
      <property name="shotcut:filter">affineSizePosition</property>
      <property name="transition.fill">1</property>
      <property name="transition.distort">0</property>
      <property name="transition.rect">0 0 1920 1080 1</property>
      <property name="transition.valign">top</property>
      <property name="transition.halign">left</property>
      <property name="shotcut:animIn">00:00:00.000</property>
      <property name="shotcut:animOut">00:00:00.000</property>
      <property name="transition.threads">0</property>
    </filter>
    <filter id="filter11" in="00:00:28.160" out="00:00:30.840">
      <property name="window">75</property>
      <property name="max_gain">20dB</property>
      <property name="mlt_service">volume</property>
      <property name="shotcut:filter">muteVolume</property>
      <property name="gain">0</property>
    </filter>
  </producer>
  <producer id="producer9" title="Anonymous Submission" in="00:00:00.000" out="00:02:58.120">
    <property name="length">00:02:58:04</property>
    <property name="eof">pause</property>
    <property name="resource">C:/Users/Camille/OneDrive/Camille/006 - Videos format youtube/Flutes/Laurence_flute_totoro.mp4</property>
    <property name="audio_index">1</property>
    <property name="video_index">0</property>
    <property name="mute_on_pause">0</property>
    <property name="mlt_service">avformat-novalidate</property>
    <property name="seekable">1</property>
    <property name="aspect_ratio">1</property>
    <property name="creation_time">2020-04-10T18:00:41</property>
    <property name="shotcut:hash">60bcdee113b1401df52909414ee98b5b</property>
    <property name="ignore_points">0</property>
    <property name="shotcut:caption">Laurence_flute_totoro.mp4</property>
    <property name="shotcut:skipConvert">1</property>
    <property name="global_feed">1</property>
    <property name="xml">was here</property>
    <filter id="filter12" in="00:00:30.880" out="00:00:40.720">
      <property name="background">colour:0</property>
      <property name="mlt_service">affine</property>
      <property name="shotcut:filter">affineSizePosition</property>
      <property name="transition.fill">1</property>
      <property name="transition.distort">0</property>
      <property name="transition.rect">0 0 1920 1080 1</property>
      <property name="transition.valign">top</property>
      <property name="transition.halign">left</property>
      <property name="shotcut:animIn">00:00:00.000</property>
      <property name="shotcut:animOut">00:00:00.000</property>
      <property name="transition.threads">0</property>
    </filter>
  </producer>
  <producer id="producer10" title="Anonymous Submission" in="00:00:00.000" out="00:02:58.120">
    <property name="length">00:02:58:04</property>
    <property name="eof">pause</property>
    <property name="resource">C:/Users/Camille/OneDrive/Camille/006 - Videos format youtube/Flutes/Laurence_flute_totoro.mp4</property>
    <property name="audio_index">1</property>
    <property name="video_index">0</property>
    <property name="mute_on_pause">0</property>
    <property name="mlt_service">avformat-novalidate</property>
    <property name="seekable">1</property>
    <property name="aspect_ratio">1</property>
    <property name="creation_time">2020-04-10T18:00:41</property>
    <property name="shotcut:hash">60bcdee113b1401df52909414ee98b5b</property>
    <property name="ignore_points">0</property>
    <property name="shotcut:caption">Laurence_flute_totoro.mp4</property>
    <property name="shotcut:skipConvert">1</property>
    <property name="global_feed">1</property>
    <property name="xml">was here</property>
    <filter id="filter13" in="00:00:40.760" out="00:00:43.520">
      <property name="background">colour:0</property>
      <property name="mlt_service">affine</property>
      <property name="shotcut:filter">affineSizePosition</property>
      <property name="transition.fill">1</property>
      <property name="transition.distort">0</property>
      <property name="transition.rect">0 0 1920 1080 1</property>
      <property name="transition.valign">top</property>
      <property name="transition.halign">left</property>
      <property name="shotcut:animIn">00:00:00.000</property>
      <property name="shotcut:animOut">00:00:00.000</property>
      <property name="transition.threads">0</property>
    </filter>
    <filter id="filter14" in="00:00:40.760" out="00:00:43.520">
      <property name="window">75</property>
      <property name="max_gain">20dB</property>
      <property name="mlt_service">volume</property>
      <property name="shotcut:filter">muteVolume</property>
      <property name="gain">0</property>
    </filter>
  </producer>
  <producer id="producer11" title="Anonymous Submission" in="00:00:00.000" out="00:02:58.120">
    <property name="length">00:02:58:04</property>
    <property name="eof">pause</property>
    <property name="resource">C:/Users/Camille/OneDrive/Camille/006 - Videos format youtube/Flutes/Laurence_flute_totoro.mp4</property>
    <property name="audio_index">1</property>
    <property name="video_index">0</property>
    <property name="mute_on_pause">0</property>
    <property name="mlt_service">avformat-novalidate</property>
    <property name="seekable">1</property>
    <property name="aspect_ratio">1</property>
    <property name="creation_time">2020-04-10T18:00:41</property>
    <property name="shotcut:hash">60bcdee113b1401df52909414ee98b5b</property>
    <property name="ignore_points">0</property>
    <property name="shotcut:caption">Laurence_flute_totoro.mp4</property>
    <property name="shotcut:skipConvert">1</property>
    <property name="global_feed">1</property>
    <property name="xml">was here</property>
    <filter id="filter15" in="00:00:43.560" out="00:01:19.520">
      <property name="background">colour:0</property>
      <property name="mlt_service">affine</property>
      <property name="shotcut:filter">affineSizePosition</property>
      <property name="transition.fill">1</property>
      <property name="transition.distort">0</property>
      <property name="transition.rect">0 0 1920 1080 1</property>
      <property name="transition.valign">top</property>
      <property name="transition.halign">left</property>
      <property name="shotcut:animIn">00:00:00.000</property>
      <property name="shotcut:animOut">00:00:00.000</property>
      <property name="transition.threads">0</property>
    </filter>
  </producer>
  <producer id="producer12" title="Anonymous Submission" in="00:00:00.000" out="00:02:58.120">
    <property name="length">00:02:58:04</property>
    <property name="eof">pause</property>
    <property name="resource">C:/Users/Camille/OneDrive/Camille/006 - Videos format youtube/Flutes/Laurence_flute_totoro.mp4</property>
    <property name="audio_index">1</property>
    <property name="video_index">0</property>
    <property name="mute_on_pause">0</property>
    <property name="mlt_service">avformat-novalidate</property>
    <property name="seekable">1</property>
    <property name="aspect_ratio">1</property>
    <property name="creation_time">2020-04-10T18:00:41</property>
    <property name="shotcut:hash">60bcdee113b1401df52909414ee98b5b</property>
    <property name="ignore_points">0</property>
    <property name="shotcut:caption">Laurence_flute_totoro.mp4</property>
    <property name="shotcut:skipConvert">1</property>
    <property name="global_feed">1</property>
    <property name="xml">was here</property>
    <filter id="filter16" in="00:01:19.560" out="00:01:22.320">
      <property name="background">colour:0</property>
      <property name="mlt_service">affine</property>
      <property name="shotcut:filter">affineSizePosition</property>
      <property name="transition.fill">1</property>
      <property name="transition.distort">0</property>
      <property name="transition.rect">0 0 1920 1080 1</property>
      <property name="transition.valign">top</property>
      <property name="transition.halign">left</property>
      <property name="shotcut:animIn">00:00:00.000</property>
      <property name="shotcut:animOut">00:00:00.000</property>
      <property name="transition.threads">0</property>
    </filter>
    <filter id="filter17" in="00:01:19.560" out="00:01:22.320">
      <property name="window">75</property>
      <property name="max_gain">20dB</property>
      <property name="mlt_service">volume</property>
      <property name="shotcut:filter">muteVolume</property>
      <property name="gain">0</property>
    </filter>
  </producer>
  <producer id="producer13" title="Anonymous Submission" in="00:00:00.000" out="00:02:58.120">
    <property name="length">00:02:58:04</property>
    <property name="eof">pause</property>
    <property name="resource">C:/Users/Camille/OneDrive/Camille/006 - Videos format youtube/Flutes/Laurence_flute_totoro.mp4</property>
    <property name="audio_index">1</property>
    <property name="video_index">0</property>
    <property name="mute_on_pause">0</property>
    <property name="mlt_service">avformat-novalidate</property>
    <property name="seekable">1</property>
    <property name="aspect_ratio">1</property>
    <property name="creation_time">2020-04-10T18:00:41</property>
    <property name="shotcut:hash">60bcdee113b1401df52909414ee98b5b</property>
    <property name="ignore_points">0</property>
    <property name="shotcut:caption">Laurence_flute_totoro.mp4</property>
    <property name="shotcut:skipConvert">1</property>
    <property name="global_feed">1</property>
    <property name="xml">was here</property>
    <filter id="filter18" in="00:01:22.360" out="00:01:48.560">
      <property name="background">colour:0</property>
      <property name="mlt_service">affine</property>
      <property name="shotcut:filter">affineSizePosition</property>
      <property name="transition.fill">1</property>
      <property name="transition.distort">0</property>
      <property name="transition.rect">0 0 1920 1080 1</property>
      <property name="transition.valign">top</property>
      <property name="transition.halign">left</property>
      <property name="shotcut:animIn">00:00:00.000</property>
      <property name="shotcut:animOut">00:00:00.000</property>
      <property name="transition.threads">0</property>
    </filter>
  </producer>
  <producer id="producer14" title="Anonymous Submission" in="00:00:00.000" out="00:02:58.120">
    <property name="length">00:02:58:04</property>
    <property name="eof">pause</property>
    <property name="resource">C:/Users/Camille/OneDrive/Camille/006 - Videos format youtube/Flutes/Laurence_flute_totoro.mp4</property>
    <property name="audio_index">1</property>
    <property name="video_index">0</property>
    <property name="mute_on_pause">0</property>
    <property name="mlt_service">avformat-novalidate</property>
    <property name="seekable">1</property>
    <property name="aspect_ratio">1</property>
    <property name="creation_time">2020-04-10T18:00:41</property>
    <property name="shotcut:hash">60bcdee113b1401df52909414ee98b5b</property>
    <property name="ignore_points">0</property>
    <property name="shotcut:caption">Laurence_flute_totoro.mp4</property>
    <property name="shotcut:skipConvert">1</property>
    <property name="global_feed">1</property>
    <property name="xml">was here</property>
    <filter id="filter19" in="00:01:48.600" out="00:01:52.120">
      <property name="background">colour:0</property>
      <property name="mlt_service">affine</property>
      <property name="shotcut:filter">affineSizePosition</property>
      <property name="transition.fill">1</property>
      <property name="transition.distort">0</property>
      <property name="transition.rect">0 0 1920 1080 1</property>
      <property name="transition.valign">top</property>
      <property name="transition.halign">left</property>
      <property name="shotcut:animIn">00:00:00.000</property>
      <property name="shotcut:animOut">00:00:00.000</property>
      <property name="transition.threads">0</property>
    </filter>
    <filter id="filter20" in="00:01:48.600" out="00:01:52.120">
      <property name="window">75</property>
      <property name="max_gain">20dB</property>
      <property name="mlt_service">volume</property>
      <property name="shotcut:filter">muteVolume</property>
      <property name="gain">0</property>
    </filter>
  </producer>
  <producer id="producer15" title="Anonymous Submission" in="00:00:00.000" out="00:02:58.120">
    <property name="length">00:02:58:04</property>
    <property name="eof">pause</property>
    <property name="resource">C:/Users/Camille/OneDrive/Camille/006 - Videos format youtube/Flutes/Laurence_flute_totoro.mp4</property>
    <property name="audio_index">1</property>
    <property name="video_index">0</property>
    <property name="mute_on_pause">0</property>
    <property name="mlt_service">avformat-novalidate</property>
    <property name="seekable">1</property>
    <property name="aspect_ratio">1</property>
    <property name="creation_time">2020-04-10T18:00:41</property>
    <property name="shotcut:hash">60bcdee113b1401df52909414ee98b5b</property>
    <property name="ignore_points">0</property>
    <property name="shotcut:caption">Laurence_flute_totoro.mp4</property>
    <property name="shotcut:skipConvert">1</property>
    <property name="global_feed">1</property>
    <property name="xml">was here</property>
    <filter id="filter21" in="00:01:52.160" out="00:02:02.240">
      <property name="background">colour:0</property>
      <property name="mlt_service">affine</property>
      <property name="shotcut:filter">affineSizePosition</property>
      <property name="transition.fill">1</property>
      <property name="transition.distort">0</property>
      <property name="transition.rect">0 0 1920 1080 1</property>
      <property name="transition.valign">top</property>
      <property name="transition.halign">left</property>
      <property name="shotcut:animIn">00:00:00.000</property>
      <property name="shotcut:animOut">00:00:00.000</property>
      <property name="transition.threads">0</property>
    </filter>
  </producer>
  <producer id="producer16" title="Anonymous Submission" in="00:00:00.000" out="00:02:58.120">
    <property name="length">00:02:58:04</property>
    <property name="eof">pause</property>
    <property name="resource">C:/Users/Camille/OneDrive/Camille/006 - Videos format youtube/Flutes/Laurence_flute_totoro.mp4</property>
    <property name="audio_index">1</property>
    <property name="video_index">0</property>
    <property name="mute_on_pause">0</property>
    <property name="mlt_service">avformat-novalidate</property>
    <property name="seekable">1</property>
    <property name="aspect_ratio">1</property>
    <property name="creation_time">2020-04-10T18:00:41</property>
    <property name="shotcut:hash">60bcdee113b1401df52909414ee98b5b</property>
    <property name="ignore_points">0</property>
    <property name="shotcut:caption">Laurence_flute_totoro.mp4</property>
    <property name="shotcut:skipConvert">1</property>
    <property name="global_feed">1</property>
    <property name="xml">was here</property>
    <filter id="filter22" in="00:02:02.280" out="00:02:05.120">
      <property name="background">colour:0</property>
      <property name="mlt_service">affine</property>
      <property name="shotcut:filter">affineSizePosition</property>
      <property name="transition.fill">1</property>
      <property name="transition.distort">0</property>
      <property name="transition.rect">0 0 1920 1080 1</property>
      <property name="transition.valign">top</property>
      <property name="transition.halign">left</property>
      <property name="shotcut:animIn">00:00:00.000</property>
      <property name="shotcut:animOut">00:00:00.000</property>
      <property name="transition.threads">0</property>
    </filter>
    <filter id="filter23" in="00:02:02.280" out="00:02:05.120">
      <property name="window">75</property>
      <property name="max_gain">20dB</property>
      <property name="mlt_service">volume</property>
      <property name="shotcut:filter">muteVolume</property>
      <property name="gain">0</property>
    </filter>
  </producer>
  <producer id="producer17" title="Anonymous Submission" in="00:00:00.000" out="00:02:58.120">
    <property name="length">00:02:58:04</property>
    <property name="eof">pause</property>
    <property name="resource">C:/Users/Camille/OneDrive/Camille/006 - Videos format youtube/Flutes/Laurence_flute_totoro.mp4</property>
    <property name="audio_index">1</property>
    <property name="video_index">0</property>
    <property name="mute_on_pause">0</property>
    <property name="mlt_service">avformat-novalidate</property>
    <property name="seekable">1</property>
    <property name="aspect_ratio">1</property>
    <property name="creation_time">2020-04-10T18:00:41</property>
    <property name="shotcut:hash">60bcdee113b1401df52909414ee98b5b</property>
    <property name="ignore_points">0</property>
    <property name="shotcut:caption">Laurence_flute_totoro.mp4</property>
    <property name="shotcut:skipConvert">1</property>
    <property name="global_feed">1</property>
    <property name="xml">was here</property>
    <filter id="filter24" in="00:02:05.160" out="00:02:44.000">
      <property name="background">colour:0</property>
      <property name="mlt_service">affine</property>
      <property name="shotcut:filter">affineSizePosition</property>
      <property name="transition.fill">1</property>
      <property name="transition.distort">0</property>
      <property name="transition.rect">0 0 1920 1080 1</property>
      <property name="transition.valign">top</property>
      <property name="transition.halign">left</property>
      <property name="shotcut:animIn">00:00:00.000</property>
      <property name="shotcut:animOut">00:00:00.000</property>
      <property name="transition.threads">0</property>
    </filter>
  </producer>
  <producer id="producer18" title="Anonymous Submission" in="00:00:00.000" out="00:02:58.120">
    <property name="length">00:02:58:04</property>
    <property name="eof">pause</property>
    <property name="resource">C:/Users/Camille/OneDrive/Camille/006 - Videos format youtube/Flutes/Laurence_flute_totoro.mp4</property>
    <property name="audio_index">1</property>
    <property name="video_index">0</property>
    <property name="mute_on_pause">0</property>
    <property name="mlt_service">avformat-novalidate</property>
    <property name="seekable">1</property>
    <property name="aspect_ratio">1</property>
    <property name="creation_time">2020-04-10T18:00:41</property>
    <property name="shotcut:hash">60bcdee113b1401df52909414ee98b5b</property>
    <property name="ignore_points">0</property>
    <property name="shotcut:caption">Laurence_flute_totoro.mp4</property>
    <property name="shotcut:skipConvert">1</property>
    <property name="global_feed">1</property>
    <property name="xml">was here</property>
    <filter id="filter25" in="00:02:44.040" out="00:02:51.720">
      <property name="background">colour:0</property>
      <property name="mlt_service">affine</property>
      <property name="shotcut:filter">affineSizePosition</property>
      <property name="transition.fill">1</property>
      <property name="transition.distort">0</property>
      <property name="transition.rect">0 0 1920 1080 1</property>
      <property name="transition.valign">top</property>
      <property name="transition.halign">left</property>
      <property name="shotcut:animIn">00:00:00.000</property>
      <property name="shotcut:animOut">00:00:00.000</property>
      <property name="transition.threads">0</property>
    </filter>
    <filter id="filter26" in="00:02:44.040" out="00:02:51.720">
      <property name="window">75</property>
      <property name="max_gain">20dB</property>
      <property name="mlt_service">volume</property>
      <property name="shotcut:filter">muteVolume</property>
      <property name="gain">0</property>
    </filter>
  </producer>
  <producer id="producer19" title="Anonymous Submission" in="00:00:00.000" out="00:02:58.120">
    <property name="length">00:02:58:04</property>
    <property name="eof">pause</property>
    <property name="resource">C:/Users/Camille/OneDrive/Camille/006 - Videos format youtube/Flutes/Laurence_flute_totoro.mp4</property>
    <property name="audio_index">1</property>
    <property name="video_index">0</property>
    <property name="mute_on_pause">0</property>
    <property name="mlt_service">avformat-novalidate</property>
    <property name="seekable">1</property>
    <property name="aspect_ratio">1</property>
    <property name="creation_time">2020-04-10T18:00:41</property>
    <property name="shotcut:hash">60bcdee113b1401df52909414ee98b5b</property>
    <property name="ignore_points">0</property>
    <property name="shotcut:caption">Laurence_flute_totoro.mp4</property>
    <property name="shotcut:skipConvert">1</property>
    <property name="global_feed">1</property>
    <property name="xml">was here</property>
    <filter id="filter27" in="00:02:51.760" out="00:02:55.320">
      <property name="background">colour:0</property>
      <property name="mlt_service">affine</property>
      <property name="shotcut:filter">affineSizePosition</property>
      <property name="transition.fill">1</property>
      <property name="transition.distort">0</property>
      <property name="transition.rect">0 0 1920 1080 1</property>
      <property name="transition.valign">top</property>
      <property name="transition.halign">left</property>
      <property name="shotcut:animIn">00:00:00.000</property>
      <property name="shotcut:animOut">00:00:00.000</property>
      <property name="transition.threads">0</property>
    </filter>
  </producer>
  <producer id="producer20" title="Anonymous Submission" in="00:00:00.000" out="00:02:58.120">
    <property name="length">00:02:58:04</property>
    <property name="eof">pause</property>
    <property name="resource">C:/Users/Camille/OneDrive/Camille/006 - Videos format youtube/Flutes/Laurence_flute_totoro.mp4</property>
    <property name="audio_index">1</property>
    <property name="video_index">0</property>
    <property name="mute_on_pause">0</property>
    <property name="mlt_service">avformat-novalidate</property>
    <property name="seekable">1</property>
    <property name="aspect_ratio">1</property>
    <property name="creation_time">2020-04-10T18:00:41</property>
    <property name="shotcut:hash">60bcdee113b1401df52909414ee98b5b</property>
    <property name="ignore_points">0</property>
    <property name="shotcut:caption">Laurence_flute_totoro.mp4</property>
    <property name="shotcut:skipConvert">1</property>
    <property name="global_feed">1</property>
    <property name="xml">was here</property>
    <filter id="filter28" in="00:02:55.360" out="00:02:58.120">
      <property name="background">colour:0</property>
      <property name="mlt_service">affine</property>
      <property name="shotcut:filter">affineSizePosition</property>
      <property name="transition.fill">1</property>
      <property name="transition.distort">0</property>
      <property name="transition.rect">0 0 1920 1080 1</property>
      <property name="transition.valign">top</property>
      <property name="transition.halign">left</property>
      <property name="shotcut:animIn">00:00:00.000</property>
      <property name="shotcut:animOut">00:00:00.000</property>
      <property name="transition.threads">0</property>
    </filter>
    <filter id="filter29" in="00:02:55.360" out="00:02:58.120">
      <property name="window">75</property>
      <property name="max_gain">20dB</property>
      <property name="mlt_service">volume</property>
      <property name="shotcut:filter">muteVolume</property>
      <property name="gain">0</property>
    </filter>
  </producer>
  <playlist id="playlist4">
    <property name="shotcut:video">1</property>
    <property name="shotcut:name"> Laurence_flute 2</property>
    <property name="shotcut:lock">1</property>
    <blank length="00:00:19.560"/>
    <entry producer="producer6" in="00:00:00.000" out="00:00:27.120"/>
    <entry producer="producer7" in="00:00:27.160" out="00:00:28.120"/>
    <entry producer="producer8" in="00:00:28.160" out="00:00:30.840"/>
    <entry producer="producer9" in="00:00:30.880" out="00:00:40.720"/>
    <entry producer="producer10" in="00:00:40.760" out="00:00:43.520"/>
    <entry producer="producer11" in="00:00:43.560" out="00:01:19.520"/>
    <entry producer="producer12" in="00:01:19.560" out="00:01:22.320"/>
    <entry producer="producer13" in="00:01:22.360" out="00:01:48.560"/>
    <entry producer="producer14" in="00:01:48.600" out="00:01:52.120"/>
    <entry producer="producer15" in="00:01:52.160" out="00:02:02.240"/>
    <entry producer="producer16" in="00:02:02.280" out="00:02:05.120"/>
    <entry producer="producer17" in="00:02:05.160" out="00:02:44.000"/>
    <entry producer="producer18" in="00:02:44.040" out="00:02:51.720"/>
    <entry producer="producer19" in="00:02:51.760" out="00:02:55.320"/>
    <entry producer="producer20" in="00:02:55.360" out="00:02:58.120"/>
    <filter id="filter30" out="00:03:35.600">
      <property name="window">75</property>
      <property name="max_gain">20dB</property>
      <property name="level">-10</property>
      <property name="mlt_service">volume</property>
    </filter>
  </playlist>
  <producer id="producer21" title="Anonymous Submission" in="00:00:00.000" out="00:02:59.720">
    <property name="length">00:02:59:19</property>
    <property name="eof">pause</property>
    <property name="resource">C:/Users/Camille/OneDrive/Camille/006 - Videos format youtube/Flutes/Antoine_flute_totoro.mp4</property>
    <property name="audio_index">1</property>
    <property name="video_index">0</property>
    <property name="mute_on_pause">0</property>
    <property name="mlt_service">avformat-novalidate</property>
    <property name="seekable">1</property>
    <property name="aspect_ratio">1</property>
    <property name="creation_time">2020-04-09T18:43:14</property>
    <property name="shotcut:hash">4b5c310c51f982bf236c6a3fad1fff39</property>
    <property name="ignore_points">0</property>
    <property name="shotcut:caption">Antoine_flute_totoro.mp4</property>
    <property name="shotcut:skipConvert">1</property>
    <property name="global_feed">1</property>
    <property name="xml">was here</property>
    <filter id="filter31" out="00:00:19.960">
      <property name="background">colour:0</property>
      <property name="mlt_service">affine</property>
      <property name="shotcut:filter">affineSizePosition</property>
      <property name="transition.fill">1</property>
      <property name="transition.distort">0</property>
      <property name="transition.rect">0 0 1920 1080 1</property>
      <property name="transition.valign">top</property>
      <property name="transition.halign">left</property>
      <property name="shotcut:animIn">00:00:00.000</property>
      <property name="shotcut:animOut">00:00:00.000</property>
      <property name="transition.threads">0</property>
    </filter>
    <filter id="filter32" out="00:00:19.960">
      <property name="window">75</property>
      <property name="max_gain">20dB</property>
      <property name="mlt_service">volume</property>
      <property name="shotcut:filter">muteVolume</property>
      <property name="gain">0</property>
    </filter>
  </producer>
  <producer id="producer22" title="Anonymous Submission" in="00:00:00.000" out="00:02:59.720">
    <property name="length">00:02:59:19</property>
    <property name="eof">pause</property>
    <property name="resource">C:/Users/Camille/OneDrive/Camille/006 - Videos format youtube/Flutes/Antoine_flute_totoro.mp4</property>
    <property name="audio_index">1</property>
    <property name="video_index">0</property>
    <property name="mute_on_pause">0</property>
    <property name="mlt_service">avformat-novalidate</property>
    <property name="seekable">1</property>
    <property name="aspect_ratio">1</property>
    <property name="creation_time">2020-04-09T18:43:14</property>
    <property name="shotcut:hash">4b5c310c51f982bf236c6a3fad1fff39</property>
    <property name="ignore_points">0</property>
    <property name="shotcut:caption">Antoine_flute_totoro.mp4</property>
    <property name="shotcut:skipConvert">1</property>
    <property name="global_feed">1</property>
    <property name="xml">was here</property>
    <filter id="filter33" in="00:00:20.000" out="00:01:27.440">
      <property name="background">colour:0</property>
      <property name="mlt_service">affine</property>
      <property name="shotcut:filter">affineSizePosition</property>
      <property name="transition.fill">1</property>
      <property name="transition.distort">0</property>
      <property name="transition.rect">0 0 1920 1080 1</property>
      <property name="transition.valign">top</property>
      <property name="transition.halign">left</property>
      <property name="shotcut:animIn">00:00:00.000</property>
      <property name="shotcut:animOut">00:00:00.000</property>
      <property name="transition.threads">0</property>
    </filter>
  </producer>
  <producer id="producer23" title="Anonymous Submission" in="00:00:00.000" out="00:02:59.720">
    <property name="length">00:02:59:19</property>
    <property name="eof">pause</property>
    <property name="resource">C:/Users/Camille/OneDrive/Camille/006 - Videos format youtube/Flutes/Antoine_flute_totoro.mp4</property>
    <property name="audio_index">1</property>
    <property name="video_index">0</property>
    <property name="mute_on_pause">0</property>
    <property name="mlt_service">avformat-novalidate</property>
    <property name="seekable">1</property>
    <property name="aspect_ratio">1</property>
    <property name="creation_time">2020-04-09T18:43:14</property>
    <property name="shotcut:hash">4b5c310c51f982bf236c6a3fad1fff39</property>
    <property name="ignore_points">0</property>
    <property name="shotcut:caption">Antoine_flute_totoro.mp4</property>
    <property name="shotcut:skipConvert">1</property>
    <property name="global_feed">1</property>
    <property name="xml">was here</property>
    <filter id="filter34" in="00:01:27.480" out="00:01:41.960">
      <property name="background">colour:0</property>
      <property name="mlt_service">affine</property>
      <property name="shotcut:filter">affineSizePosition</property>
      <property name="transition.fill">1</property>
      <property name="transition.distort">0</property>
      <property name="transition.rect">0 0 1920 1080 1</property>
      <property name="transition.valign">top</property>
      <property name="transition.halign">left</property>
      <property name="shotcut:animIn">00:00:00.000</property>
      <property name="shotcut:animOut">00:00:00.000</property>
      <property name="transition.threads">0</property>
    </filter>
    <filter id="filter35" in="00:01:27.480" out="00:01:41.960">
      <property name="window">75</property>
      <property name="max_gain">20dB</property>
      <property name="mlt_service">volume</property>
      <property name="shotcut:filter">muteVolume</property>
      <property name="gain">0</property>
    </filter>
  </producer>
  <producer id="producer24" title="Anonymous Submission" in="00:00:00.000" out="00:02:59.720">
    <property name="length">00:02:59:19</property>
    <property name="eof">pause</property>
    <property name="resource">C:/Users/Camille/OneDrive/Camille/006 - Videos format youtube/Flutes/Antoine_flute_totoro.mp4</property>
    <property name="audio_index">1</property>
    <property name="video_index">0</property>
    <property name="mute_on_pause">0</property>
    <property name="mlt_service">avformat-novalidate</property>
    <property name="seekable">1</property>
    <property name="aspect_ratio">1</property>
    <property name="creation_time">2020-04-09T18:43:14</property>
    <property name="shotcut:hash">4b5c310c51f982bf236c6a3fad1fff39</property>
    <property name="ignore_points">0</property>
    <property name="shotcut:caption">Antoine_flute_totoro.mp4</property>
    <property name="shotcut:skipConvert">1</property>
    <property name="global_feed">1</property>
    <property name="xml">was here</property>
    <filter id="filter36" in="00:01:42.000" out="00:02:19.200">
      <property name="background">colour:0</property>
      <property name="mlt_service">affine</property>
      <property name="shotcut:filter">affineSizePosition</property>
      <property name="transition.fill">1</property>
      <property name="transition.distort">0</property>
      <property name="transition.rect">0 0 1920 1080 1</property>
      <property name="transition.valign">top</property>
      <property name="transition.halign">left</property>
      <property name="shotcut:animIn">00:00:00.000</property>
      <property name="shotcut:animOut">00:00:00.000</property>
      <property name="transition.threads">0</property>
    </filter>
  </producer>
  <producer id="producer25" title="Anonymous Submission" in="00:00:00.000" out="00:02:59.720">
    <property name="length">00:02:59:19</property>
    <property name="eof">pause</property>
    <property name="resource">C:/Users/Camille/OneDrive/Camille/006 - Videos format youtube/Flutes/Antoine_flute_totoro.mp4</property>
    <property name="audio_index">1</property>
    <property name="video_index">0</property>
    <property name="mute_on_pause">0</property>
    <property name="mlt_service">avformat-novalidate</property>
    <property name="seekable">1</property>
    <property name="aspect_ratio">1</property>
    <property name="creation_time">2020-04-09T18:43:14</property>
    <property name="shotcut:hash">4b5c310c51f982bf236c6a3fad1fff39</property>
    <property name="ignore_points">0</property>
    <property name="shotcut:caption">Antoine_flute_totoro.mp4</property>
    <property name="shotcut:skipConvert">1</property>
    <property name="global_feed">1</property>
    <property name="xml">was here</property>
    <filter id="filter37" in="00:02:19.240" out="00:02:32.120">
      <property name="background">colour:0</property>
      <property name="mlt_service">affine</property>
      <property name="shotcut:filter">affineSizePosition</property>
      <property name="transition.fill">1</property>
      <property name="transition.distort">0</property>
      <property name="transition.rect">0 0 1920 1080 1</property>
      <property name="transition.valign">top</property>
      <property name="transition.halign">left</property>
      <property name="shotcut:animIn">00:00:00.000</property>
      <property name="shotcut:animOut">00:00:00.000</property>
      <property name="transition.threads">0</property>
    </filter>
    <filter id="filter38" in="00:02:19.240" out="00:02:32.120">
      <property name="window">75</property>
      <property name="max_gain">20dB</property>
      <property name="mlt_service">volume</property>
      <property name="shotcut:filter">muteVolume</property>
      <property name="gain">0</property>
    </filter>
  </producer>
  <producer id="producer26" title="Anonymous Submission" in="00:00:00.000" out="00:02:59.720">
    <property name="length">00:02:59:19</property>
    <property name="eof">pause</property>
    <property name="resource">C:/Users/Camille/OneDrive/Camille/006 - Videos format youtube/Flutes/Antoine_flute_totoro.mp4</property>
    <property name="audio_index">1</property>
    <property name="video_index">0</property>
    <property name="mute_on_pause">0</property>
    <property name="mlt_service">avformat-novalidate</property>
    <property name="seekable">1</property>
    <property name="aspect_ratio">1</property>
    <property name="creation_time">2020-04-09T18:43:14</property>
    <property name="shotcut:hash">4b5c310c51f982bf236c6a3fad1fff39</property>
    <property name="ignore_points">0</property>
    <property name="shotcut:caption">Antoine_flute_totoro.mp4</property>
    <property name="shotcut:skipConvert">1</property>
    <property name="global_feed">1</property>
    <property name="xml">was here</property>
    <filter id="filter39" in="00:02:32.160" out="00:02:36.040">
      <property name="background">colour:0</property>
      <property name="mlt_service">affine</property>
      <property name="shotcut:filter">affineSizePosition</property>
      <property name="transition.fill">1</property>
      <property name="transition.distort">0</property>
      <property name="transition.rect">0 0 1920 1080 1</property>
      <property name="transition.valign">top</property>
      <property name="transition.halign">left</property>
      <property name="shotcut:animIn">00:00:00.000</property>
      <property name="shotcut:animOut">00:00:00.000</property>
      <property name="transition.threads">0</property>
    </filter>
    <filter id="filter40" in="00:02:32.160" out="00:02:36.040">
      <property name="window">75</property>
      <property name="max_gain">20dB</property>
      <property name="mlt_service">volume</property>
      <property name="shotcut:filter">muteVolume</property>
      <property name="gain">0</property>
    </filter>
  </producer>
  <producer id="producer27" title="Anonymous Submission" in="00:00:00.000" out="00:02:59.720">
    <property name="length">00:02:59:19</property>
    <property name="eof">pause</property>
    <property name="resource">C:/Users/Camille/OneDrive/Camille/006 - Videos format youtube/Flutes/Antoine_flute_totoro.mp4</property>
    <property name="audio_index">1</property>
    <property name="video_index">0</property>
    <property name="mute_on_pause">0</property>
    <property name="mlt_service">avformat-novalidate</property>
    <property name="seekable">1</property>
    <property name="aspect_ratio">1</property>
    <property name="creation_time">2020-04-09T18:43:14</property>
    <property name="shotcut:hash">4b5c310c51f982bf236c6a3fad1fff39</property>
    <property name="ignore_points">0</property>
    <property name="shotcut:caption">Antoine_flute_totoro.mp4</property>
    <property name="shotcut:skipConvert">1</property>
    <property name="global_feed">1</property>
    <property name="xml">was here</property>
    <filter id="filter41" in="00:02:36.080" out="00:02:46.840">
      <property name="background">colour:0</property>
      <property name="mlt_service">affine</property>
      <property name="shotcut:filter">affineSizePosition</property>
      <property name="transition.fill">1</property>
      <property name="transition.distort">0</property>
      <property name="transition.rect">0 0 1920 1080 1</property>
      <property name="transition.valign">top</property>
      <property name="transition.halign">left</property>
      <property name="shotcut:animIn">00:00:00.000</property>
      <property name="shotcut:animOut">00:00:00.000</property>
      <property name="transition.threads">0</property>
    </filter>
  </producer>
  <producer id="producer28" title="Anonymous Submission" in="00:00:00.000" out="00:02:59.720">
    <property name="length">00:02:59:19</property>
    <property name="eof">pause</property>
    <property name="resource">C:/Users/Camille/OneDrive/Camille/006 - Videos format youtube/Flutes/Antoine_flute_totoro.mp4</property>
    <property name="audio_index">1</property>
    <property name="video_index">0</property>
    <property name="mute_on_pause">0</property>
    <property name="mlt_service">avformat-novalidate</property>
    <property name="seekable">1</property>
    <property name="aspect_ratio">1</property>
    <property name="creation_time">2020-04-09T18:43:14</property>
    <property name="shotcut:hash">4b5c310c51f982bf236c6a3fad1fff39</property>
    <property name="ignore_points">0</property>
    <property name="shotcut:caption">Antoine_flute_totoro.mp4</property>
    <property name="shotcut:skipConvert">1</property>
    <property name="global_feed">1</property>
    <property name="xml">was here</property>
    <filter id="filter42" in="00:02:46.880" out="00:02:58.160">
      <property name="background">colour:0</property>
      <property name="mlt_service">affine</property>
      <property name="shotcut:filter">affineSizePosition</property>
      <property name="transition.fill">1</property>
      <property name="transition.distort">0</property>
      <property name="transition.rect">0 0 1920 1080 1</property>
      <property name="transition.valign">top</property>
      <property name="transition.halign">left</property>
      <property name="shotcut:animIn">00:00:00.000</property>
      <property name="shotcut:animOut">00:00:00.000</property>
      <property name="transition.threads">0</property>
    </filter>
    <filter id="filter43" in="00:02:46.880" out="00:02:58.160">
      <property name="window">75</property>
      <property name="max_gain">20dB</property>
      <property name="mlt_service">volume</property>
      <property name="shotcut:filter">muteVolume</property>
      <property name="gain">0</property>
    </filter>
  </producer>
  <producer id="producer29" title="Anonymous Submission" in="00:00:00.000" out="00:02:59.720">
    <property name="length">00:02:59:19</property>
    <property name="eof">pause</property>
    <property name="resource">C:/Users/Camille/OneDrive/Camille/006 - Videos format youtube/Flutes/Antoine_flute_totoro.mp4</property>
    <property name="audio_index">1</property>
    <property name="video_index">0</property>
    <property name="mute_on_pause">0</property>
    <property name="mlt_service">avformat-novalidate</property>
    <property name="seekable">1</property>
    <property name="aspect_ratio">1</property>
    <property name="creation_time">2020-04-09T18:43:14</property>
    <property name="shotcut:hash">4b5c310c51f982bf236c6a3fad1fff39</property>
    <property name="ignore_points">0</property>
    <property name="shotcut:caption">Antoine_flute_totoro.mp4</property>
    <property name="shotcut:skipConvert">1</property>
    <property name="global_feed">1</property>
    <property name="xml">was here</property>
    <filter id="filter44" in="00:02:58.200" out="00:02:59.720">
      <property name="background">colour:0</property>
      <property name="mlt_service">affine</property>
      <property name="shotcut:filter">affineSizePosition</property>
      <property name="transition.fill">1</property>
      <property name="transition.distort">0</property>
      <property name="transition.rect">0 0 1920 1080 1</property>
      <property name="transition.valign">top</property>
      <property name="transition.halign">left</property>
      <property name="shotcut:animIn">00:00:00.000</property>
      <property name="shotcut:animOut">00:00:00.000</property>
      <property name="transition.threads">0</property>
    </filter>
    <filter id="filter45" in="00:02:58.200" out="00:02:59.720">
      <property name="window">75</property>
      <property name="max_gain">20dB</property>
      <property name="mlt_service">volume</property>
      <property name="shotcut:filter">muteVolume</property>
      <property name="gain">0</property>
    </filter>
  </producer>
  <playlist id="playlist5">
    <property name="shotcut:video">1</property>
    <property name="shotcut:name">Antoine_flute1</property>
    <property name="shotcut:lock">1</property>
    <blank length="00:00:16.720"/>
    <entry producer="producer21" in="00:00:00.000" out="00:00:19.960"/>
    <entry producer="producer22" in="00:00:20.000" out="00:01:27.440"/>
    <entry producer="producer23" in="00:01:27.480" out="00:01:41.960"/>
    <entry producer="producer24" in="00:01:42.000" out="00:02:19.200"/>
    <entry producer="producer25" in="00:02:19.240" out="00:02:32.120"/>
    <entry producer="producer26" in="00:02:32.160" out="00:02:36.040"/>
    <entry producer="producer27" in="00:02:36.080" out="00:02:46.840"/>
    <entry producer="producer28" in="00:02:46.880" out="00:02:58.160"/>
    <entry producer="producer29" in="00:02:58.200" out="00:02:59.720"/>
    <filter id="filter46" out="00:03:35.600">
      <property name="window">75</property>
      <property name="max_gain">20dB</property>
      <property name="level">-10</property>
      <property name="mlt_service">volume</property>
    </filter>
  </playlist>
  <producer id="producer30" title="Anonymous Submission" in="00:00:00.000" out="00:03:19.160">
    <property name="length">00:03:19:05</property>
    <property name="eof">pause</property>
    <property name="resource">C:/Users/Camille/OneDrive/Camille/006 - Videos format youtube/Flutes/Gwenn_flute_totoro.mp4</property>
    <property name="audio_index">1</property>
    <property name="video_index">0</property>
    <property name="mute_on_pause">0</property>
    <property name="mlt_service">avformat-novalidate</property>
    <property name="seekable">1</property>
    <property name="aspect_ratio">1</property>
    <property name="creation_time">2020-04-11T17:50:01</property>
    <property name="shotcut:hash">8e44bc0af10c21b7b752adfacfb58e7e</property>
    <property name="ignore_points">0</property>
    <property name="shotcut:caption">Gwenn_flute_totoro.mp4</property>
    <property name="shotcut:skipConvert">1</property>
    <property name="global_feed">1</property>
    <property name="xml">was here</property>
    <filter id="filter47" out="00:00:34.920">
      <property name="background">colour:0</property>
      <property name="mlt_service">affine</property>
      <property name="shotcut:filter">affineSizePosition</property>
      <property name="transition.fill">1</property>
      <property name="transition.distort">0</property>
      <property name="transition.rect">0 0 1920 1080 1</property>
      <property name="transition.valign">top</property>
      <property name="transition.halign">left</property>
      <property name="shotcut:animIn">00:00:00.000</property>
      <property name="shotcut:animOut">00:00:00.000</property>
      <property name="transition.threads">0</property>
    </filter>
    <filter id="filter48" out="00:00:34.920">
      <property name="window">75</property>
      <property name="max_gain">20dB</property>
      <property name="mlt_service">volume</property>
      <property name="shotcut:filter">muteVolume</property>
      <property name="gain">0</property>
    </filter>
  </producer>
  <producer id="producer31" title="Anonymous Submission" in="00:00:00.000" out="00:03:19.160">
    <property name="length">00:03:19:05</property>
    <property name="eof">pause</property>
    <property name="resource">C:/Users/Camille/OneDrive/Camille/006 - Videos format youtube/Flutes/Gwenn_flute_totoro.mp4</property>
    <property name="audio_index">1</property>
    <property name="video_index">0</property>
    <property name="mute_on_pause">0</property>
    <property name="mlt_service">avformat-novalidate</property>
    <property name="seekable">1</property>
    <property name="aspect_ratio">1</property>
    <property name="creation_time">2020-04-11T17:50:01</property>
    <property name="shotcut:hash">8e44bc0af10c21b7b752adfacfb58e7e</property>
    <property name="ignore_points">0</property>
    <property name="shotcut:caption">Gwenn_flute_totoro.mp4</property>
    <property name="shotcut:skipConvert">1</property>
    <property name="global_feed">1</property>
    <property name="xml">was here</property>
    <filter id="filter49" in="00:00:34.960" out="00:01:37.720">
      <property name="background">colour:0</property>
      <property name="mlt_service">affine</property>
      <property name="shotcut:filter">affineSizePosition</property>
      <property name="transition.fill">1</property>
      <property name="transition.distort">0</property>
      <property name="transition.rect">0 0 1920 1080 1</property>
      <property name="transition.valign">top</property>
      <property name="transition.halign">left</property>
      <property name="shotcut:animIn">00:00:00.000</property>
      <property name="shotcut:animOut">00:00:00.000</property>
      <property name="transition.threads">0</property>
    </filter>
  </producer>
  <producer id="producer32" title="Anonymous Submission" in="00:00:00.000" out="00:03:19.160">
    <property name="length">00:03:19:05</property>
    <property name="eof">pause</property>
    <property name="resource">C:/Users/Camille/OneDrive/Camille/006 - Videos format youtube/Flutes/Gwenn_flute_totoro.mp4</property>
    <property name="audio_index">1</property>
    <property name="video_index">0</property>
    <property name="mute_on_pause">0</property>
    <property name="mlt_service">avformat-novalidate</property>
    <property name="seekable">1</property>
    <property name="aspect_ratio">1</property>
    <property name="creation_time">2020-04-11T17:50:01</property>
    <property name="shotcut:hash">8e44bc0af10c21b7b752adfacfb58e7e</property>
    <property name="ignore_points">0</property>
    <property name="shotcut:caption">Gwenn_flute_totoro.mp4</property>
    <property name="shotcut:skipConvert">1</property>
    <property name="global_feed">1</property>
    <property name="xml">was here</property>
    <filter id="filter50" in="00:01:37.760" out="00:01:43.000">
      <property name="background">colour:0</property>
      <property name="mlt_service">affine</property>
      <property name="shotcut:filter">affineSizePosition</property>
      <property name="transition.fill">1</property>
      <property name="transition.distort">0</property>
      <property name="transition.rect">0 0 1920 1080 1</property>
      <property name="transition.valign">top</property>
      <property name="transition.halign">left</property>
      <property name="shotcut:animIn">00:00:00.000</property>
      <property name="shotcut:animOut">00:00:00.000</property>
      <property name="transition.threads">0</property>
    </filter>
    <filter id="filter51" in="00:01:37.760" out="00:01:43.000">
      <property name="window">75</property>
      <property name="max_gain">20dB</property>
      <property name="mlt_service">volume</property>
      <property name="shotcut:filter">muteVolume</property>
      <property name="gain">0</property>
    </filter>
  </producer>
  <producer id="producer33" title="Anonymous Submission" in="00:00:00.000" out="00:03:19.160">
    <property name="length">00:03:19:05</property>
    <property name="eof">pause</property>
    <property name="resource">C:/Users/Camille/OneDrive/Camille/006 - Videos format youtube/Flutes/Gwenn_flute_totoro.mp4</property>
    <property name="audio_index">1</property>
    <property name="video_index">0</property>
    <property name="mute_on_pause">0</property>
    <property name="mlt_service">avformat-novalidate</property>
    <property name="seekable">1</property>
    <property name="aspect_ratio">1</property>
    <property name="creation_time">2020-04-11T17:50:01</property>
    <property name="shotcut:hash">8e44bc0af10c21b7b752adfacfb58e7e</property>
    <property name="ignore_points">0</property>
    <property name="shotcut:caption">Gwenn_flute_totoro.mp4</property>
    <property name="shotcut:skipConvert">1</property>
    <property name="global_feed">1</property>
    <property name="xml">was here</property>
    <filter id="filter52" in="00:01:43.040" out="00:03:17.200">
      <property name="background">colour:0</property>
      <property name="mlt_service">affine</property>
      <property name="shotcut:filter">affineSizePosition</property>
      <property name="transition.fill">1</property>
      <property name="transition.distort">0</property>
      <property name="transition.rect">0 0 1920 1080 1</property>
      <property name="transition.valign">top</property>
      <property name="transition.halign">left</property>
      <property name="shotcut:animIn">00:00:00.000</property>
      <property name="shotcut:animOut">00:00:00.000</property>
      <property name="transition.threads">0</property>
    </filter>
  </producer>
  <playlist id="playlist6">
    <property name="shotcut:video">1</property>
    <property name="shotcut:name">Gwenn_flute1</property>
    <property name="shotcut:lock">1</property>
    <blank length="00:00:01.080"/>
    <entry producer="producer30" in="00:00:00.000" out="00:00:34.920"/>
    <entry producer="producer31" in="00:00:34.960" out="00:01:37.720"/>
    <entry producer="producer32" in="00:01:37.760" out="00:01:43.000"/>
    <entry producer="producer33" in="00:01:43.040" out="00:03:17.200"/>
    <filter id="filter53" out="00:03:35.600">
      <property name="window">75</property>
      <property name="max_gain">20dB</property>
      <property name="level">-10</property>
      <property name="mlt_service">volume</property>
    </filter>
  </playlist>
  <producer id="producer34" title="Anonymous Submission" in="00:00:00.000" out="00:03:20.520">
    <property name="length">00:03:20:14</property>
    <property name="eof">pause</property>
    <property name="resource">C:/Users/Camille/OneDrive/Camille/006 - Videos format youtube/Flutes/Benoit_flute_totoro.mp4</property>
    <property name="audio_index">1</property>
    <property name="video_index">0</property>
    <property name="mute_on_pause">0</property>
    <property name="mlt_service">avformat-novalidate</property>
    <property name="seekable">1</property>
    <property name="aspect_ratio">1</property>
    <property name="creation_time">2020-04-15T16:13:20</property>
    <property name="shotcut:hash">eba44988daaf1db8ef17b8395100e364</property>
    <property name="ignore_points">0</property>
    <property name="shotcut:caption">Benoit_flute_totoro.mp4</property>
    <property name="shotcut:skipConvert">1</property>
    <property name="global_feed">1</property>
    <property name="xml">was here</property>
    <filter id="filter54" out="00:00:20.640">
      <property name="background">colour:0</property>
      <property name="mlt_service">affine</property>
      <property name="shotcut:filter">affineSizePosition</property>
      <property name="transition.fill">1</property>
      <property name="transition.distort">0</property>
      <property name="transition.rect">0 0 1920 1080 1</property>
      <property name="transition.valign">top</property>
      <property name="transition.halign">left</property>
      <property name="shotcut:animIn">00:00:00.000</property>
      <property name="shotcut:animOut">00:00:00.000</property>
      <property name="transition.threads">0</property>
    </filter>
    <filter id="filter55" out="00:00:20.640">
      <property name="window">75</property>
      <property name="max_gain">20dB</property>
      <property name="mlt_service">volume</property>
      <property name="shotcut:filter">muteVolume</property>
      <property name="gain">0</property>
    </filter>
  </producer>
  <producer id="producer35" title="Anonymous Submission" in="00:00:00.000" out="00:03:20.520">
    <property name="length">00:03:20:14</property>
    <property name="eof">pause</property>
    <property name="resource">C:/Users/Camille/OneDrive/Camille/006 - Videos format youtube/Flutes/Benoit_flute_totoro.mp4</property>
    <property name="audio_index">1</property>
    <property name="video_index">0</property>
    <property name="mute_on_pause">0</property>
    <property name="mlt_service">avformat-novalidate</property>
    <property name="seekable">1</property>
    <property name="aspect_ratio">1</property>
    <property name="creation_time">2020-04-15T16:13:20</property>
    <property name="shotcut:hash">eba44988daaf1db8ef17b8395100e364</property>
    <property name="ignore_points">0</property>
    <property name="shotcut:caption">Benoit_flute_totoro.mp4</property>
    <property name="shotcut:skipConvert">1</property>
    <property name="global_feed">1</property>
    <property name="xml">was here</property>
    <filter id="filter56" in="00:00:20.680" out="00:00:27.440">
      <property name="background">colour:0</property>
      <property name="mlt_service">affine</property>
      <property name="shotcut:filter">affineSizePosition</property>
      <property name="transition.fill">1</property>
      <property name="transition.distort">0</property>
      <property name="transition.rect">0 0 1920 1080 1</property>
      <property name="transition.valign">top</property>
      <property name="transition.halign">left</property>
      <property name="shotcut:animIn">00:00:00.000</property>
      <property name="shotcut:animOut">00:00:00.000</property>
      <property name="transition.threads">0</property>
    </filter>
  </producer>
  <producer id="producer36" title="Anonymous Submission" in="00:00:00.000" out="00:03:20.520">
    <property name="length">00:03:20:14</property>
    <property name="eof">pause</property>
    <property name="resource">C:/Users/Camille/OneDrive/Camille/006 - Videos format youtube/Flutes/Benoit_flute_totoro.mp4</property>
    <property name="audio_index">1</property>
    <property name="video_index">0</property>
    <property name="mute_on_pause">0</property>
    <property name="mlt_service">avformat-novalidate</property>
    <property name="seekable">1</property>
    <property name="aspect_ratio">1</property>
    <property name="creation_time">2020-04-15T16:13:20</property>
    <property name="shotcut:hash">eba44988daaf1db8ef17b8395100e364</property>
    <property name="ignore_points">0</property>
    <property name="shotcut:caption">Benoit_flute_totoro.mp4</property>
    <property name="shotcut:skipConvert">1</property>
    <property name="global_feed">1</property>
    <property name="xml">was here</property>
    <filter id="filter57" in="00:00:27.480" out="00:00:29.240">
      <property name="background">colour:0</property>
      <property name="mlt_service">affine</property>
      <property name="shotcut:filter">affineSizePosition</property>
      <property name="transition.fill">1</property>
      <property name="transition.distort">0</property>
      <property name="transition.rect">0 0 1920 1080 1</property>
      <property name="transition.valign">top</property>
      <property name="transition.halign">left</property>
      <property name="shotcut:animIn">00:00:00.000</property>
      <property name="shotcut:animOut">00:00:00.000</property>
      <property name="transition.threads">0</property>
    </filter>
    <filter id="filter58" in="00:00:27.480" out="00:00:29.240">
      <property name="window">75</property>
      <property name="max_gain">20dB</property>
      <property name="mlt_service">volume</property>
      <property name="shotcut:filter">muteVolume</property>
      <property name="gain">0</property>
    </filter>
  </producer>
  <producer id="producer37" title="Anonymous Submission" in="00:00:00.000" out="00:03:20.520">
    <property name="length">00:03:20:14</property>
    <property name="eof">pause</property>
    <property name="resource">C:/Users/Camille/OneDrive/Camille/006 - Videos format youtube/Flutes/Benoit_flute_totoro.mp4</property>
    <property name="audio_index">1</property>
    <property name="video_index">0</property>
    <property name="mute_on_pause">0</property>
    <property name="mlt_service">avformat-novalidate</property>
    <property name="seekable">1</property>
    <property name="aspect_ratio">1</property>
    <property name="creation_time">2020-04-15T16:13:20</property>
    <property name="shotcut:hash">eba44988daaf1db8ef17b8395100e364</property>
    <property name="ignore_points">0</property>
    <property name="shotcut:caption">Benoit_flute_totoro.mp4</property>
    <property name="shotcut:skipConvert">1</property>
    <property name="global_feed">1</property>
    <property name="xml">was here</property>
    <filter id="filter59" in="00:00:29.280" out="00:00:57.360">
      <property name="background">colour:0</property>
      <property name="mlt_service">affine</property>
      <property name="shotcut:filter">affineSizePosition</property>
      <property name="transition.fill">1</property>
      <property name="transition.distort">0</property>
      <property name="transition.rect">0 0 1920 1080 1</property>
      <property name="transition.valign">top</property>
      <property name="transition.halign">left</property>
      <property name="shotcut:animIn">00:00:00.000</property>
      <property name="shotcut:animOut">00:00:00.000</property>
      <property name="transition.threads">0</property>
    </filter>
  </producer>
  <producer id="producer38" title="Anonymous Submission" in="00:00:00.000" out="00:03:20.520">
    <property name="length">00:03:20:14</property>
    <property name="eof">pause</property>
    <property name="resource">C:/Users/Camille/OneDrive/Camille/006 - Videos format youtube/Flutes/Benoit_flute_totoro.mp4</property>
    <property name="audio_index">1</property>
    <property name="video_index">0</property>
    <property name="mute_on_pause">0</property>
    <property name="mlt_service">avformat-novalidate</property>
    <property name="seekable">1</property>
    <property name="aspect_ratio">1</property>
    <property name="creation_time">2020-04-15T16:13:20</property>
    <property name="shotcut:hash">eba44988daaf1db8ef17b8395100e364</property>
    <property name="ignore_points">0</property>
    <property name="shotcut:caption">Benoit_flute_totoro.mp4</property>
    <property name="shotcut:skipConvert">1</property>
    <property name="global_feed">1</property>
    <property name="xml">was here</property>
    <filter id="filter60" in="00:00:57.400" out="00:00:58.640">
      <property name="background">colour:0</property>
      <property name="mlt_service">affine</property>
      <property name="shotcut:filter">affineSizePosition</property>
      <property name="transition.fill">1</property>
      <property name="transition.distort">0</property>
      <property name="transition.rect">0 0 1920 1080 1</property>
      <property name="transition.valign">top</property>
      <property name="transition.halign">left</property>
      <property name="shotcut:animIn">00:00:00.000</property>
      <property name="shotcut:animOut">00:00:00.000</property>
      <property name="transition.threads">0</property>
    </filter>
    <filter id="filter61" in="00:00:57.400" out="00:00:58.640">
      <property name="window">75</property>
      <property name="max_gain">20dB</property>
      <property name="mlt_service">volume</property>
      <property name="shotcut:filter">muteVolume</property>
      <property name="gain">0</property>
    </filter>
  </producer>
  <producer id="producer39" title="Anonymous Submission" in="00:00:00.000" out="00:03:20.520">
    <property name="length">00:03:20:14</property>
    <property name="eof">pause</property>
    <property name="resource">C:/Users/Camille/OneDrive/Camille/006 - Videos format youtube/Flutes/Benoit_flute_totoro.mp4</property>
    <property name="audio_index">1</property>
    <property name="video_index">0</property>
    <property name="mute_on_pause">0</property>
    <property name="mlt_service">avformat-novalidate</property>
    <property name="seekable">1</property>
    <property name="aspect_ratio">1</property>
    <property name="creation_time">2020-04-15T16:13:20</property>
    <property name="shotcut:hash">eba44988daaf1db8ef17b8395100e364</property>
    <property name="ignore_points">0</property>
    <property name="shotcut:caption">Benoit_flute_totoro.mp4</property>
    <property name="shotcut:skipConvert">1</property>
    <property name="global_feed">1</property>
    <property name="xml">was here</property>
    <filter id="filter62" in="00:00:58.680" out="00:01:22.880">
      <property name="background">colour:0</property>
      <property name="mlt_service">affine</property>
      <property name="shotcut:filter">affineSizePosition</property>
      <property name="transition.fill">1</property>
      <property name="transition.distort">0</property>
      <property name="transition.rect">0 0 1920 1080 1</property>
      <property name="transition.valign">top</property>
      <property name="transition.halign">left</property>
      <property name="shotcut:animIn">00:00:00.000</property>
      <property name="shotcut:animOut">00:00:00.000</property>
      <property name="transition.threads">0</property>
    </filter>
  </producer>
  <producer id="producer40" title="Anonymous Submission" in="00:00:00.000" out="00:03:20.520">
    <property name="length">00:03:20:14</property>
    <property name="eof">pause</property>
    <property name="resource">C:/Users/Camille/OneDrive/Camille/006 - Videos format youtube/Flutes/Benoit_flute_totoro.mp4</property>
    <property name="audio_index">1</property>
    <property name="video_index">0</property>
    <property name="mute_on_pause">0</property>
    <property name="mlt_service">avformat-novalidate</property>
    <property name="seekable">1</property>
    <property name="aspect_ratio">1</property>
    <property name="creation_time">2020-04-15T16:13:20</property>
    <property name="shotcut:hash">eba44988daaf1db8ef17b8395100e364</property>
    <property name="ignore_points">0</property>
    <property name="shotcut:caption">Benoit_flute_totoro.mp4</property>
    <property name="shotcut:skipConvert">1</property>
    <property name="global_feed">1</property>
    <property name="xml">was here</property>
    <filter id="filter63" in="00:01:22.920" out="00:01:28.280">
      <property name="background">colour:0</property>
      <property name="mlt_service">affine</property>
      <property name="shotcut:filter">affineSizePosition</property>
      <property name="transition.fill">1</property>
      <property name="transition.distort">0</property>
      <property name="transition.rect">0 0 1920 1080 1</property>
      <property name="transition.valign">top</property>
      <property name="transition.halign">left</property>
      <property name="shotcut:animIn">00:00:00.000</property>
      <property name="shotcut:animOut">00:00:00.000</property>
      <property name="transition.threads">0</property>
    </filter>
    <filter id="filter64" in="00:01:22.920" out="00:01:28.280">
      <property name="window">75</property>
      <property name="max_gain">20dB</property>
      <property name="mlt_service">volume</property>
      <property name="shotcut:filter">muteVolume</property>
      <property name="gain">0</property>
    </filter>
  </producer>
  <producer id="producer41" title="Anonymous Submission" in="00:00:00.000" out="00:03:20.520">
    <property name="length">00:03:20:14</property>
    <property name="eof">pause</property>
    <property name="resource">C:/Users/Camille/OneDrive/Camille/006 - Videos format youtube/Flutes/Benoit_flute_totoro.mp4</property>
    <property name="audio_index">1</property>
    <property name="video_index">0</property>
    <property name="mute_on_pause">0</property>
    <property name="mlt_service">avformat-novalidate</property>
    <property name="seekable">1</property>
    <property name="aspect_ratio">1</property>
    <property name="creation_time">2020-04-15T16:13:20</property>
    <property name="shotcut:hash">eba44988daaf1db8ef17b8395100e364</property>
    <property name="ignore_points">0</property>
    <property name="shotcut:caption">Benoit_flute_totoro.mp4</property>
    <property name="shotcut:skipConvert">1</property>
    <property name="global_feed">1</property>
    <property name="xml">was here</property>
    <filter id="filter65" in="00:01:28.320" out="00:02:55.080">
      <property name="background">colour:0</property>
      <property name="mlt_service">affine</property>
      <property name="shotcut:filter">affineSizePosition</property>
      <property name="transition.fill">1</property>
      <property name="transition.distort">0</property>
      <property name="transition.rect">0 0 1920 1080 1</property>
      <property name="transition.valign">top</property>
      <property name="transition.halign">left</property>
      <property name="shotcut:animIn">00:00:00.000</property>
      <property name="shotcut:animOut">00:00:00.000</property>
      <property name="transition.threads">0</property>
    </filter>
  </producer>
  <producer id="producer42" title="Anonymous Submission" in="00:00:00.000" out="00:03:20.520">
    <property name="length">00:03:20:14</property>
    <property name="eof">pause</property>
    <property name="resource">C:/Users/Camille/OneDrive/Camille/006 - Videos format youtube/Flutes/Benoit_flute_totoro.mp4</property>
    <property name="audio_index">1</property>
    <property name="video_index">0</property>
    <property name="mute_on_pause">0</property>
    <property name="mlt_service">avformat-novalidate</property>
    <property name="seekable">1</property>
    <property name="aspect_ratio">1</property>
    <property name="creation_time">2020-04-15T16:13:20</property>
    <property name="shotcut:hash">eba44988daaf1db8ef17b8395100e364</property>
    <property name="ignore_points">0</property>
    <property name="shotcut:caption">Benoit_flute_totoro.mp4</property>
    <property name="shotcut:skipConvert">1</property>
    <property name="global_feed">1</property>
    <property name="xml">was here</property>
    <filter id="filter66" in="00:02:55.120" out="00:02:55.880">
      <property name="background">colour:0</property>
      <property name="mlt_service">affine</property>
      <property name="shotcut:filter">affineSizePosition</property>
      <property name="transition.fill">1</property>
      <property name="transition.distort">0</property>
      <property name="transition.rect">0 0 1920 1080 1</property>
      <property name="transition.valign">top</property>
      <property name="transition.halign">left</property>
      <property name="shotcut:animIn">00:00:00.000</property>
      <property name="shotcut:animOut">00:00:00.000</property>
      <property name="transition.threads">0</property>
    </filter>
    <filter id="filter67" in="00:02:55.120" out="00:02:55.880">
      <property name="window">75</property>
      <property name="max_gain">20dB</property>
      <property name="mlt_service">volume</property>
      <property name="shotcut:filter">muteVolume</property>
      <property name="gain">0</property>
    </filter>
  </producer>
  <producer id="producer43" title="Anonymous Submission" in="00:00:00.000" out="00:03:20.520">
    <property name="length">00:03:20:14</property>
    <property name="eof">pause</property>
    <property name="resource">C:/Users/Camille/OneDrive/Camille/006 - Videos format youtube/Flutes/Benoit_flute_totoro.mp4</property>
    <property name="audio_index">1</property>
    <property name="video_index">0</property>
    <property name="mute_on_pause">0</property>
    <property name="mlt_service">avformat-novalidate</property>
    <property name="seekable">1</property>
    <property name="aspect_ratio">1</property>
    <property name="creation_time">2020-04-15T16:13:20</property>
    <property name="shotcut:hash">eba44988daaf1db8ef17b8395100e364</property>
    <property name="ignore_points">0</property>
    <property name="shotcut:caption">Benoit_flute_totoro.mp4</property>
    <property name="shotcut:skipConvert">1</property>
    <property name="global_feed">1</property>
    <property name="xml">was here</property>
    <filter id="filter68" in="00:02:55.920" out="00:02:59.000">
      <property name="background">colour:0</property>
      <property name="mlt_service">affine</property>
      <property name="shotcut:filter">affineSizePosition</property>
      <property name="transition.fill">1</property>
      <property name="transition.distort">0</property>
      <property name="transition.rect">0 0 1920 1080 1</property>
      <property name="transition.valign">top</property>
      <property name="transition.halign">left</property>
      <property name="shotcut:animIn">00:00:00.000</property>
      <property name="shotcut:animOut">00:00:00.000</property>
      <property name="transition.threads">0</property>
    </filter>
  </producer>
  <producer id="producer44" title="Anonymous Submission" in="00:00:00.000" out="00:03:20.520">
    <property name="length">00:03:20:14</property>
    <property name="eof">pause</property>
    <property name="resource">C:/Users/Camille/OneDrive/Camille/006 - Videos format youtube/Flutes/Benoit_flute_totoro.mp4</property>
    <property name="audio_index">1</property>
    <property name="video_index">0</property>
    <property name="mute_on_pause">0</property>
    <property name="mlt_service">avformat-novalidate</property>
    <property name="seekable">1</property>
    <property name="aspect_ratio">1</property>
    <property name="creation_time">2020-04-15T16:13:20</property>
    <property name="shotcut:hash">eba44988daaf1db8ef17b8395100e364</property>
    <property name="ignore_points">0</property>
    <property name="shotcut:caption">Benoit_flute_totoro.mp4</property>
    <property name="shotcut:skipConvert">1</property>
    <property name="global_feed">1</property>
    <property name="xml">was here</property>
    <filter id="filter69" in="00:02:59.040" out="00:03:05.600">
      <property name="background">colour:0</property>
      <property name="mlt_service">affine</property>
      <property name="shotcut:filter">affineSizePosition</property>
      <property name="transition.fill">1</property>
      <property name="transition.distort">0</property>
      <property name="transition.rect">0 0 1920 1080 1</property>
      <property name="transition.valign">top</property>
      <property name="transition.halign">left</property>
      <property name="shotcut:animIn">00:00:00.000</property>
      <property name="shotcut:animOut">00:00:00.000</property>
      <property name="transition.threads">0</property>
    </filter>
    <filter id="filter70" in="00:02:59.040" out="00:03:05.600">
      <property name="window">75</property>
      <property name="max_gain">20dB</property>
      <property name="mlt_service">volume</property>
      <property name="shotcut:filter">muteVolume</property>
      <property name="gain">0</property>
    </filter>
  </producer>
  <playlist id="playlist7">
    <property name="shotcut:video">1</property>
    <property name="shotcut:name">Benoit</property>
    <property name="shotcut:lock">1</property>
    <blank length="00:00:15.840"/>
    <entry producer="producer34" in="00:00:00.000" out="00:00:20.640"/>
    <entry producer="producer35" in="00:00:20.680" out="00:00:27.440"/>
    <entry producer="producer36" in="00:00:27.480" out="00:00:29.240"/>
    <entry producer="producer37" in="00:00:29.280" out="00:00:57.360"/>
    <entry producer="producer38" in="00:00:57.400" out="00:00:58.640"/>
    <entry producer="producer39" in="00:00:58.680" out="00:01:22.880"/>
    <entry producer="producer40" in="00:01:22.920" out="00:01:28.280"/>
    <entry producer="producer41" in="00:01:28.320" out="00:02:55.080"/>
    <entry producer="producer42" in="00:02:55.120" out="00:02:55.880"/>
    <entry producer="producer43" in="00:02:55.920" out="00:02:59.000"/>
    <entry producer="producer44" in="00:02:59.040" out="00:03:05.600"/>
  </playlist>
  <producer id="producer45" title="Anonymous Submission" in="00:00:00.000" out="00:03:11.560">
    <property name="length">00:03:11:15</property>
    <property name="eof">pause</property>
    <property name="resource">C:/Users/Camille/OneDrive/Camille/006 - Videos format youtube/Hautbois/Aurélie_hautbois_totoro.mp4</property>
    <property name="audio_index">1</property>
    <property name="video_index">0</property>
    <property name="mute_on_pause">0</property>
    <property name="mlt_service">avformat-novalidate</property>
    <property name="seekable">1</property>
    <property name="aspect_ratio">1</property>
    <property name="shotcut:hash">eef028a0ef9d0a891fcda437adec93c6</property>
    <property name="ignore_points">0</property>
    <property name="shotcut:caption">Aurélie_hautbois_totoro.mp4</property>
    <property name="shotcut:skipConvert">1</property>
    <property name="global_feed">1</property>
    <property name="xml">was here</property>
    <filter id="filter71" out="00:01:30.880">
      <property name="background">colour:0</property>
      <property name="mlt_service">affine</property>
      <property name="shotcut:filter">affineSizePosition</property>
      <property name="transition.fill">1</property>
      <property name="transition.distort">0</property>
      <property name="transition.rect">0 0 1920 1080 1</property>
      <property name="transition.valign">top</property>
      <property name="transition.halign">left</property>
      <property name="shotcut:animIn">00:00:00.000</property>
      <property name="shotcut:animOut">00:00:00.000</property>
      <property name="transition.threads">0</property>
    </filter>
  </producer>
  <producer id="producer46" title="Anonymous Submission" in="00:00:00.000" out="00:03:11.560">
    <property name="length">00:03:11:15</property>
    <property name="eof">pause</property>
    <property name="resource">C:/Users/Camille/OneDrive/Camille/006 - Videos format youtube/Hautbois/Aurélie_hautbois_totoro.mp4</property>
    <property name="audio_index">1</property>
    <property name="video_index">0</property>
    <property name="mute_on_pause">0</property>
    <property name="mlt_service">avformat-novalidate</property>
    <property name="seekable">1</property>
    <property name="aspect_ratio">1</property>
    <property name="shotcut:hash">eef028a0ef9d0a891fcda437adec93c6</property>
    <property name="ignore_points">0</property>
    <property name="shotcut:caption">Aurélie_hautbois_totoro.mp4</property>
    <property name="shotcut:skipConvert">1</property>
    <property name="global_feed">1</property>
    <property name="xml">was here</property>
    <filter id="filter72" in="00:01:30.920" out="00:01:36.080">
      <property name="background">colour:0</property>
      <property name="mlt_service">affine</property>
      <property name="shotcut:filter">affineSizePosition</property>
      <property name="transition.fill">1</property>
      <property name="transition.distort">0</property>
      <property name="transition.rect">0 0 1920 1080 1</property>
      <property name="transition.valign">top</property>
      <property name="transition.halign">left</property>
      <property name="shotcut:animIn">00:00:00.000</property>
      <property name="shotcut:animOut">00:00:00.000</property>
      <property name="transition.threads">0</property>
    </filter>
    <filter id="filter73" in="00:01:30.920" out="00:01:36.080">
      <property name="window">75</property>
      <property name="max_gain">20dB</property>
      <property name="mlt_service">volume</property>
      <property name="shotcut:filter">muteVolume</property>
      <property name="gain">0</property>
    </filter>
  </producer>
  <producer id="producer47" title="Anonymous Submission" in="00:00:00.000" out="00:03:11.560">
    <property name="length">00:03:11:15</property>
    <property name="eof">pause</property>
    <property name="resource">C:/Users/Camille/OneDrive/Camille/006 - Videos format youtube/Hautbois/Aurélie_hautbois_totoro.mp4</property>
    <property name="audio_index">1</property>
    <property name="video_index">0</property>
    <property name="mute_on_pause">0</property>
    <property name="mlt_service">avformat-novalidate</property>
    <property name="seekable">1</property>
    <property name="aspect_ratio">1</property>
    <property name="shotcut:hash">eef028a0ef9d0a891fcda437adec93c6</property>
    <property name="ignore_points">0</property>
    <property name="shotcut:caption">Aurélie_hautbois_totoro.mp4</property>
    <property name="shotcut:skipConvert">1</property>
    <property name="global_feed">1</property>
    <property name="xml">was here</property>
    <filter id="filter74" in="00:01:36.120" out="00:02:55.200">
      <property name="background">colour:0</property>
      <property name="mlt_service">affine</property>
      <property name="shotcut:filter">affineSizePosition</property>
      <property name="transition.fill">1</property>
      <property name="transition.distort">0</property>
      <property name="transition.rect">0 0 1920 1080 1</property>
      <property name="transition.valign">top</property>
      <property name="transition.halign">left</property>
      <property name="shotcut:animIn">00:00:00.000</property>
      <property name="shotcut:animOut">00:00:00.000</property>
      <property name="transition.threads">0</property>
    </filter>
  </producer>
  <producer id="producer48" title="Anonymous Submission" in="00:00:00.000" out="00:03:11.560">
    <property name="length">00:03:11:15</property>
    <property name="eof">pause</property>
    <property name="resource">C:/Users/Camille/OneDrive/Camille/006 - Videos format youtube/Hautbois/Aurélie_hautbois_totoro.mp4</property>
    <property name="audio_index">1</property>
    <property name="video_index">0</property>
    <property name="mute_on_pause">0</property>
    <property name="mlt_service">avformat-novalidate</property>
    <property name="seekable">1</property>
    <property name="aspect_ratio">1</property>
    <property name="shotcut:hash">eef028a0ef9d0a891fcda437adec93c6</property>
    <property name="ignore_points">0</property>
    <property name="shotcut:caption">Aurélie_hautbois_totoro.mp4</property>
    <property name="shotcut:skipConvert">1</property>
    <property name="global_feed">1</property>
    <property name="xml">was here</property>
    <filter id="filter75" in="00:02:55.240" out="00:02:55.880">
      <property name="background">colour:0</property>
      <property name="mlt_service">affine</property>
      <property name="shotcut:filter">affineSizePosition</property>
      <property name="transition.fill">1</property>
      <property name="transition.distort">0</property>
      <property name="transition.rect">0 0 1920 1080 1</property>
      <property name="transition.valign">top</property>
      <property name="transition.halign">left</property>
      <property name="shotcut:animIn">00:00:00.000</property>
      <property name="shotcut:animOut">00:00:00.000</property>
      <property name="transition.threads">0</property>
    </filter>
    <filter id="filter76" in="00:02:55.240" out="00:02:55.880">
      <property name="window">75</property>
      <property name="max_gain">20dB</property>
      <property name="mlt_service">volume</property>
      <property name="shotcut:filter">muteVolume</property>
      <property name="gain">0</property>
    </filter>
  </producer>
  <producer id="producer49" title="Anonymous Submission" in="00:00:00.000" out="00:03:11.560">
    <property name="length">00:03:11:15</property>
    <property name="eof">pause</property>
    <property name="resource">C:/Users/Camille/OneDrive/Camille/006 - Videos format youtube/Hautbois/Aurélie_hautbois_totoro.mp4</property>
    <property name="audio_index">1</property>
    <property name="video_index">0</property>
    <property name="mute_on_pause">0</property>
    <property name="mlt_service">avformat-novalidate</property>
    <property name="seekable">1</property>
    <property name="aspect_ratio">1</property>
    <property name="shotcut:hash">eef028a0ef9d0a891fcda437adec93c6</property>
    <property name="ignore_points">0</property>
    <property name="shotcut:caption">Aurélie_hautbois_totoro.mp4</property>
    <property name="shotcut:skipConvert">1</property>
    <property name="global_feed">1</property>
    <property name="xml">was here</property>
    <filter id="filter77" in="00:02:55.920" out="00:03:11.560">
      <property name="background">colour:0</property>
      <property name="mlt_service">affine</property>
      <property name="shotcut:filter">affineSizePosition</property>
      <property name="transition.fill">1</property>
      <property name="transition.distort">0</property>
      <property name="transition.rect">0 0 1920 1080 1</property>
      <property name="transition.valign">top</property>
      <property name="transition.halign">left</property>
      <property name="shotcut:animIn">00:00:00.000</property>
      <property name="shotcut:animOut">00:00:00.000</property>
      <property name="transition.threads">0</property>
    </filter>
  </producer>
  <playlist id="playlist8">
    <property name="shotcut:video">1</property>
    <property name="shotcut:name">Aurélie_hautbois</property>
    <property name="shotcut:lock">1</property>
    <blank length="00:00:07.960"/>
    <entry producer="producer45" in="00:00:00.000" out="00:01:30.880"/>
    <entry producer="producer46" in="00:01:30.920" out="00:01:36.080"/>
    <entry producer="producer47" in="00:01:36.120" out="00:02:55.200"/>
    <entry producer="producer48" in="00:02:55.240" out="00:02:55.880"/>
    <entry producer="producer49" in="00:02:55.920" out="00:03:11.560"/>
  </playlist>
  <producer id="producer50" title="Anonymous Submission" in="00:00:00.000" out="00:03:26.320">
    <property name="length">00:03:26:09</property>
    <property name="eof">pause</property>
    <property name="resource">C:/Users/Camille/OneDrive/Camille/006 - Videos format youtube/Hautbois/Veronique_hautbois_totoro.mp4</property>
    <property name="audio_index">1</property>
    <property name="video_index">0</property>
    <property name="mute_on_pause">0</property>
    <property name="mlt_service">avformat-novalidate</property>
    <property name="seekable">1</property>
    <property name="aspect_ratio">1</property>
    <property name="creation_time">2020-04-17T16:41:56</property>
    <property name="shotcut:hash">506874eb3b33a62e78b559d4ce6a6bec</property>
    <property name="ignore_points">0</property>
    <property name="shotcut:caption">Veronique_hautbois_totoro.mp4</property>
    <property name="shotcut:skipConvert">1</property>
    <property name="global_feed">1</property>
    <property name="xml">was here</property>
    <filter id="filter78" out="00:01:29.560">
      <property name="background">colour:0</property>
      <property name="mlt_service">affine</property>
      <property name="shotcut:filter">affineSizePosition</property>
      <property name="transition.fill">1</property>
      <property name="transition.distort">0</property>
      <property name="transition.rect">0 0 1920 1080 1</property>
      <property name="transition.valign">top</property>
      <property name="transition.halign">left</property>
      <property name="shotcut:animIn">00:00:00.000</property>
      <property name="shotcut:animOut">00:00:00.000</property>
      <property name="transition.threads">0</property>
    </filter>
  </producer>
  <producer id="producer51" title="Anonymous Submission" in="00:00:00.000" out="00:03:26.320">
    <property name="length">00:03:26:09</property>
    <property name="eof">pause</property>
    <property name="resource">C:/Users/Camille/OneDrive/Camille/006 - Videos format youtube/Hautbois/Veronique_hautbois_totoro.mp4</property>
    <property name="audio_index">1</property>
    <property name="video_index">0</property>
    <property name="mute_on_pause">0</property>
    <property name="mlt_service">avformat-novalidate</property>
    <property name="seekable">1</property>
    <property name="aspect_ratio">1</property>
    <property name="creation_time">2020-04-17T16:41:56</property>
    <property name="shotcut:hash">506874eb3b33a62e78b559d4ce6a6bec</property>
    <property name="ignore_points">0</property>
    <property name="shotcut:caption">Veronique_hautbois_totoro.mp4</property>
    <property name="shotcut:skipConvert">1</property>
    <property name="global_feed">1</property>
    <property name="xml">was here</property>
    <filter id="filter79" in="00:01:29.600" out="00:01:36.440">
      <property name="background">colour:0</property>
      <property name="mlt_service">affine</property>
      <property name="shotcut:filter">affineSizePosition</property>
      <property name="transition.fill">1</property>
      <property name="transition.distort">0</property>
      <property name="transition.rect">0 0 1920 1080 1</property>
      <property name="transition.valign">top</property>
      <property name="transition.halign">left</property>
      <property name="shotcut:animIn">00:00:00.000</property>
      <property name="shotcut:animOut">00:00:00.000</property>
      <property name="transition.threads">0</property>
    </filter>
    <filter id="filter80" in="00:01:29.600" out="00:01:36.440">
      <property name="window">75</property>
      <property name="max_gain">20dB</property>
      <property name="mlt_service">volume</property>
      <property name="shotcut:filter">muteVolume</property>
      <property name="gain">0</property>
    </filter>
  </producer>
  <producer id="producer52" title="Anonymous Submission" in="00:00:00.000" out="00:03:26.320">
    <property name="length">00:03:26:09</property>
    <property name="eof">pause</property>
    <property name="resource">C:/Users/Camille/OneDrive/Camille/006 - Videos format youtube/Hautbois/Veronique_hautbois_totoro.mp4</property>
    <property name="audio_index">1</property>
    <property name="video_index">0</property>
    <property name="mute_on_pause">0</property>
    <property name="mlt_service">avformat-novalidate</property>
    <property name="seekable">1</property>
    <property name="aspect_ratio">1</property>
    <property name="creation_time">2020-04-17T16:41:56</property>
    <property name="shotcut:hash">506874eb3b33a62e78b559d4ce6a6bec</property>
    <property name="ignore_points">0</property>
    <property name="shotcut:caption">Veronique_hautbois_totoro.mp4</property>
    <property name="shotcut:skipConvert">1</property>
    <property name="global_feed">1</property>
    <property name="xml">was here</property>
    <filter id="filter81" in="00:01:36.480" out="00:01:47.760">
      <property name="background">colour:0</property>
      <property name="mlt_service">affine</property>
      <property name="shotcut:filter">affineSizePosition</property>
      <property name="transition.fill">1</property>
      <property name="transition.distort">0</property>
      <property name="transition.rect">0 0 1920 1080 1</property>
      <property name="transition.valign">top</property>
      <property name="transition.halign">left</property>
      <property name="shotcut:animIn">00:00:00.000</property>
      <property name="shotcut:animOut">00:00:00.000</property>
      <property name="transition.threads">0</property>
    </filter>
  </producer>
  <producer id="producer53" title="Anonymous Submission" in="00:00:00.000" out="00:03:26.320">
    <property name="length">00:03:26:09</property>
    <property name="eof">pause</property>
    <property name="resource">C:/Users/Camille/OneDrive/Camille/006 - Videos format youtube/Hautbois/Veronique_hautbois_totoro.mp4</property>
    <property name="audio_index">1</property>
    <property name="video_index">0</property>
    <property name="mute_on_pause">0</property>
    <property name="mlt_service">avformat-novalidate</property>
    <property name="seekable">1</property>
    <property name="aspect_ratio">1</property>
    <property name="creation_time">2020-04-17T16:41:56</property>
    <property name="shotcut:hash">506874eb3b33a62e78b559d4ce6a6bec</property>
    <property name="ignore_points">0</property>
    <property name="shotcut:caption">Veronique_hautbois_totoro.mp4</property>
    <property name="shotcut:skipConvert">1</property>
    <property name="global_feed">1</property>
    <property name="xml">was here</property>
    <filter id="filter82" in="00:01:47.800" out="00:01:50.720">
      <property name="background">colour:0</property>
      <property name="mlt_service">affine</property>
      <property name="shotcut:filter">affineSizePosition</property>
      <property name="transition.fill">1</property>
      <property name="transition.distort">0</property>
      <property name="transition.rect">0 0 1920 1080 1</property>
      <property name="transition.valign">top</property>
      <property name="transition.halign">left</property>
      <property name="shotcut:animIn">00:00:00.000</property>
      <property name="shotcut:animOut">00:00:00.000</property>
      <property name="transition.threads">0</property>
    </filter>
    <filter id="filter83" in="00:01:47.800" out="00:01:50.720">
      <property name="window">75</property>
      <property name="max_gain">20dB</property>
      <property name="mlt_service">volume</property>
      <property name="shotcut:filter">muteVolume</property>
      <property name="gain">0</property>
    </filter>
  </producer>
  <producer id="producer54" title="Anonymous Submission" in="00:00:00.000" out="00:03:26.320">
    <property name="length">00:03:26:09</property>
    <property name="eof">pause</property>
    <property name="resource">C:/Users/Camille/OneDrive/Camille/006 - Videos format youtube/Hautbois/Veronique_hautbois_totoro.mp4</property>
    <property name="audio_index">1</property>
    <property name="video_index">0</property>
    <property name="mute_on_pause">0</property>
    <property name="mlt_service">avformat-novalidate</property>
    <property name="seekable">1</property>
    <property name="aspect_ratio">1</property>
    <property name="creation_time">2020-04-17T16:41:56</property>
    <property name="shotcut:hash">506874eb3b33a62e78b559d4ce6a6bec</property>
    <property name="ignore_points">0</property>
    <property name="shotcut:caption">Veronique_hautbois_totoro.mp4</property>
    <property name="shotcut:skipConvert">1</property>
    <property name="global_feed">1</property>
    <property name="xml">was here</property>
    <filter id="filter84" in="00:01:50.760" out="00:02:44.520">
      <property name="background">colour:0</property>
      <property name="mlt_service">affine</property>
      <property name="shotcut:filter">affineSizePosition</property>
      <property name="transition.fill">1</property>
      <property name="transition.distort">0</property>
      <property name="transition.rect">0 0 1920 1080 1</property>
      <property name="transition.valign">top</property>
      <property name="transition.halign">left</property>
      <property name="shotcut:animIn">00:00:00.000</property>
      <property name="shotcut:animOut">00:00:00.000</property>
      <property name="transition.threads">0</property>
    </filter>
  </producer>
  <producer id="producer55" title="Anonymous Submission" in="00:00:00.000" out="00:03:26.320">
    <property name="length">00:03:26:09</property>
    <property name="eof">pause</property>
    <property name="resource">C:/Users/Camille/OneDrive/Camille/006 - Videos format youtube/Hautbois/Veronique_hautbois_totoro.mp4</property>
    <property name="audio_index">1</property>
    <property name="video_index">0</property>
    <property name="mute_on_pause">0</property>
    <property name="mlt_service">avformat-novalidate</property>
    <property name="seekable">1</property>
    <property name="aspect_ratio">1</property>
    <property name="creation_time">2020-04-17T16:41:56</property>
    <property name="shotcut:hash">506874eb3b33a62e78b559d4ce6a6bec</property>
    <property name="ignore_points">0</property>
    <property name="shotcut:caption">Veronique_hautbois_totoro.mp4</property>
    <property name="shotcut:skipConvert">1</property>
    <property name="global_feed">1</property>
    <property name="xml">was here</property>
    <filter id="filter85" in="00:02:44.560" out="00:02:53.880">
      <property name="background">colour:0</property>
      <property name="mlt_service">affine</property>
      <property name="shotcut:filter">affineSizePosition</property>
      <property name="transition.fill">1</property>
      <property name="transition.distort">0</property>
      <property name="transition.rect">0 0 1920 1080 1</property>
      <property name="transition.valign">top</property>
      <property name="transition.halign">left</property>
      <property name="shotcut:animIn">00:00:00.000</property>
      <property name="shotcut:animOut">00:00:00.000</property>
      <property name="transition.threads">0</property>
    </filter>
    <filter id="filter86" in="00:02:44.560" out="00:02:53.880">
      <property name="window">75</property>
      <property name="max_gain">20dB</property>
      <property name="mlt_service">volume</property>
      <property name="shotcut:filter">muteVolume</property>
      <property name="gain">0</property>
    </filter>
  </producer>
  <producer id="producer56" title="Anonymous Submission" in="00:00:00.000" out="00:03:26.320">
    <property name="length">00:03:26:09</property>
    <property name="eof">pause</property>
    <property name="resource">C:/Users/Camille/OneDrive/Camille/006 - Videos format youtube/Hautbois/Veronique_hautbois_totoro.mp4</property>
    <property name="audio_index">1</property>
    <property name="video_index">0</property>
    <property name="mute_on_pause">0</property>
    <property name="mlt_service">avformat-novalidate</property>
    <property name="seekable">1</property>
    <property name="aspect_ratio">1</property>
    <property name="creation_time">2020-04-17T16:41:56</property>
    <property name="shotcut:hash">506874eb3b33a62e78b559d4ce6a6bec</property>
    <property name="ignore_points">0</property>
    <property name="shotcut:caption">Veronique_hautbois_totoro.mp4</property>
    <property name="shotcut:skipConvert">1</property>
    <property name="global_feed">1</property>
    <property name="xml">was here</property>
    <filter id="filter87" in="00:02:53.920" out="00:03:05.240">
      <property name="background">colour:0</property>
      <property name="mlt_service">affine</property>
      <property name="shotcut:filter">affineSizePosition</property>
      <property name="transition.fill">1</property>
      <property name="transition.distort">0</property>
      <property name="transition.rect">0 0 1920 1080 1</property>
      <property name="transition.valign">top</property>
      <property name="transition.halign">left</property>
      <property name="shotcut:animIn">00:00:00.000</property>
      <property name="shotcut:animOut">00:00:00.000</property>
      <property name="transition.threads">0</property>
    </filter>
  </producer>
  <producer id="producer57" title="Anonymous Submission" in="00:00:00.000" out="00:03:26.320">
    <property name="length">00:03:26:09</property>
    <property name="eof">pause</property>
    <property name="resource">C:/Users/Camille/OneDrive/Camille/006 - Videos format youtube/Hautbois/Veronique_hautbois_totoro.mp4</property>
    <property name="audio_index">1</property>
    <property name="video_index">0</property>
    <property name="mute_on_pause">0</property>
    <property name="mlt_service">avformat-novalidate</property>
    <property name="seekable">1</property>
    <property name="aspect_ratio">1</property>
    <property name="creation_time">2020-04-17T16:41:56</property>
    <property name="shotcut:hash">506874eb3b33a62e78b559d4ce6a6bec</property>
    <property name="ignore_points">0</property>
    <property name="shotcut:caption">Veronique_hautbois_totoro.mp4</property>
    <property name="shotcut:skipConvert">1</property>
    <property name="global_feed">1</property>
    <property name="xml">was here</property>
    <filter id="filter88" in="00:03:05.280" out="00:03:26.320">
      <property name="background">colour:0</property>
      <property name="mlt_service">affine</property>
      <property name="shotcut:filter">affineSizePosition</property>
      <property name="transition.fill">1</property>
      <property name="transition.distort">0</property>
      <property name="transition.rect">0 0 1920 1080 1</property>
      <property name="transition.valign">top</property>
      <property name="transition.halign">left</property>
      <property name="shotcut:animIn">00:00:00.000</property>
      <property name="shotcut:animOut">00:00:00.000</property>
      <property name="transition.threads">0</property>
    </filter>
    <filter id="filter89" in="00:03:05.280" out="00:03:26.320">
      <property name="window">75</property>
      <property name="max_gain">20dB</property>
      <property name="mlt_service">volume</property>
      <property name="shotcut:filter">muteVolume</property>
      <property name="gain">0</property>
    </filter>
  </producer>
  <playlist id="playlist9">
    <property name="shotcut:video">1</property>
    <property name="shotcut:name">Veronique_cor-anglais</property>
    <property name="shotcut:lock">1</property>
    <blank length="00:00:09.280"/>
    <entry producer="producer50" in="00:00:00.000" out="00:01:29.560"/>
    <entry producer="producer51" in="00:01:29.600" out="00:01:36.440"/>
    <entry producer="producer52" in="00:01:36.480" out="00:01:47.760"/>
    <entry producer="producer53" in="00:01:47.800" out="00:01:50.720"/>
    <entry producer="producer54" in="00:01:50.760" out="00:02:44.520"/>
    <entry producer="producer55" in="00:02:44.560" out="00:02:53.880"/>
    <entry producer="producer56" in="00:02:53.920" out="00:03:05.240"/>
    <entry producer="producer57" in="00:03:05.280" out="00:03:26.320"/>
    <filter id="filter90" out="00:03:35.600">
      <property name="window">75</property>
      <property name="max_gain">20dB</property>
      <property name="level">-5</property>
      <property name="mlt_service">volume</property>
    </filter>
  </playlist>
  <tractor id="tractor0" title="Shotcut version 19.08.05" global_feed="1" in="00:00:00.000" out="00:03:35.600">
    <property name="shotcut">1</property>
    <property name="shotcut:projectAudioChannels">2</property>
    <property name="shotcut:projectFolder">1</property>
    <property name="shotcut:scaleFactor">1.44189</property>
    <track producer="background"/>
    <track producer="playlist0" hide="audio"/>
    <track producer="playlist1" hide="audio"/>
    <track producer="playlist2" hide="audio"/>
    <track producer="playlist3" hide="audio"/>
    <track producer="playlist4" hide="both"/>
    <track producer="playlist5" hide="both"/>
    <track producer="playlist6" hide="audio"/>
    <track producer="playlist7" hide="audio"/>
    <track producer="playlist8" hide="video"/>
    <track producer="playlist9"/>
    <transition id="transition0">
      <property name="a_track">0</property>
      <property name="b_track">1</property>
      <property name="mlt_service">mix</property>
      <property name="always_active">1</property>
      <property name="sum">1</property>
    </transition>
    <transition id="transition1">
      <property name="a_track">0</property>
      <property name="b_track">1</property>
      <property name="version">0.9</property>
      <property name="mlt_service">frei0r.cairoblend</property>
      <property name="disable">1</property>
    </transition>
    <transition id="transition2">
      <property name="a_track">0</property>
      <property name="b_track">2</property>
      <property name="mlt_service">mix</property>
      <property name="always_active">1</property>
      <property name="sum">1</property>
    </transition>
    <transition id="transition3">
      <property name="a_track">1</property>
      <property name="b_track">2</property>
      <property name="version">0.9</property>
      <property name="mlt_service">frei0r.cairoblend</property>
      <property name="disable">0</property>
    </transition>
    <transition id="transition4">
      <property name="a_track">0</property>
      <property name="b_track">3</property>
      <property name="mlt_service">mix</property>
      <property name="always_active">1</property>
      <property name="sum">1</property>
    </transition>
    <transition id="transition5">
      <property name="a_track">1</property>
      <property name="b_track">3</property>
      <property name="version">0.9</property>
      <property name="mlt_service">frei0r.cairoblend</property>
      <property name="disable">0</property>
    </transition>
    <transition id="transition6">
      <property name="a_track">0</property>
      <property name="b_track">4</property>
      <property name="mlt_service">mix</property>
      <property name="always_active">1</property>
      <property name="sum">1</property>
    </transition>
    <transition id="transition7">
      <property name="a_track">1</property>
      <property name="b_track">4</property>
      <property name="version">0.9</property>
      <property name="mlt_service">frei0r.cairoblend</property>
      <property name="disable">0</property>
    </transition>
    <transition id="transition8">
      <property name="a_track">1</property>
      <property name="b_track">5</property>
      <property name="version">0.9</property>
      <property name="mlt_service">frei0r.cairoblend</property>
    </transition>
    <transition id="transition9">
      <property name="a_track">0</property>
      <property name="b_track">6</property>
      <property name="mlt_service">mix</property>
      <property name="always_active">1</property>
      <property name="sum">1</property>
    </transition>
    <transition id="transition10">
      <property name="a_track">1</property>
      <property name="b_track">6</property>
      <property name="version">0.9</property>
      <property name="mlt_service">frei0r.cairoblend</property>
      <property name="disable">0</property>
    </transition>
    <transition id="transition11">
      <property name="a_track">0</property>
      <property name="b_track">5</property>
      <property name="mlt_service">mix</property>
      <property name="always_active">1</property>
      <property name="sum">1</property>
    </transition>
    <transition id="transition12">
      <property name="a_track">0</property>
      <property name="b_track">7</property>
      <property name="mlt_service">mix</property>
      <property name="always_active">1</property>
      <property name="sum">1</property>
    </transition>
    <transition id="transition13">
      <property name="a_track">1</property>
      <property name="b_track">7</property>
      <property name="version">0.9</property>
      <property name="mlt_service">frei0r.cairoblend</property>
      <property name="disable">0</property>
    </transition>
    <transition id="transition14">
      <property name="a_track">1</property>
      <property name="b_track">8</property>
      <property name="version">0.9</property>
      <property name="mlt_service">frei0r.cairoblend</property>
    </transition>
    <transition id="transition15">
      <property name="a_track">0</property>
      <property name="b_track">9</property>
      <property name="mlt_service">mix</property>
      <property name="always_active">1</property>
      <property name="sum">1</property>
    </transition>
    <transition id="transition16">
      <property name="a_track">1</property>
      <property name="b_track">9</property>
      <property name="version">0.9</property>
      <property name="mlt_service">frei0r.cairoblend</property>
      <property name="disable">0</property>
    </transition>
    <transition id="transition17">
      <property name="a_track">0</property>
      <property name="b_track">8</property>
      <property name="mlt_service">mix</property>
      <property name="always_active">1</property>
      <property name="sum">1</property>
    </transition>
    <transition id="transition18">
      <property name="a_track">0</property>
      <property name="b_track">10</property>
      <property name="mlt_service">mix</property>
      <property name="always_active">1</property>
      <property name="sum">1</property>
    </transition>
    <transition id="transition19">
      <property name="a_track">1</property>
      <property name="b_track">10</property>
      <property name="version">0.9</property>
      <property name="mlt_service">frei0r.cairoblend</property>
      <property name="disable">0</property>
    </transition>
  </tractor>
</mlt>
