<?xml version='1.0' encoding='us-ascii'?>
<mlt LC_NUMERIC="C" version="6.17.0" title="Shotcut version 19.08.05" producer="main_bin">
  <profile description="HD 1080p 25 fps" width="1920" height="1080" progressive="1" sample_aspect_num="1" sample_aspect_den="1" display_aspect_num="16" display_aspect_den="9" frame_rate_num="25" frame_rate_den="1" colorspace="709" />
  <playlist id="main_bin">
    <property name="xml_retain">1</property>
  </playlist>
  <producer id="black" in="00:00:00.000" out="00:03:41.520">
    <property name="length">5539</property>
    <property name="eof">pause</property>
    <property name="resource">0</property>
    <property name="aspect_ratio">1</property>
    <property name="mlt_service">color</property>
    <property name="mlt_image_format">rgb24a</property>
    <property name="set.test_audio">0</property>
  </producer>
  <playlist id="background">
    <entry producer="black" in="00:00:00.000" out="00:03:41.520" />
  </playlist>
  <producer id="producer0" title="Anonymous Submission" in="00:00:00.000" out="03:59:59.960">
    <property name="length">04:00:00:00</property>
    <property name="eof">pause</property>
    <property name="resource">#00000000</property>
    <property name="aspect_ratio">1</property>
    <property name="mlt_service">color</property>
    <property name="mlt_image_format">rgb24a</property>
    <property name="shotcut:caption">transparent</property>
    <property name="shotcut:detail">transparent</property>
    <property name="ignore_points">0</property>
    <property name="global_feed">1</property>
    <property name="xml">was here</property>
    <property name="seekable">1</property>
    <filter id="filter0" out="00:00:04.960">
      <property name="argument" />
      <property name="geometry">0 0 1920 1080 1</property>
      <property name="family">Verdana</property>
      <property name="size">1080</property>
      <property name="weight">500</property>
      <property name="style">normal</property>
      <property name="fgcolour">#ffffffff</property>
      <property name="bgcolour">#00000000</property>
      <property name="olcolour">#aa000000</property>
      <property name="pad">0</property>
      <property name="halign">center</property>
      <property name="valign">bottom</property>
      <property name="outline">3</property>
      <property name="mlt_service">dynamictext</property>
      <property name="shotcut:filter">dynamicText</property>
      <property name="shotcut:usePointSize">0</property>
      <property name="shotcut:animIn">00:00:00.000</property>
      <property name="shotcut:animOut">00:00:00.000</property>
    </filter>
  </producer>
  <producer id="producer1" title="Anonymous Submission" in="00:00:00.000" out="03:59:59.960">
    <property name="length">04:00:00:00</property>
    <property name="eof">pause</property>
    <property name="resource">#00000000</property>
    <property name="aspect_ratio">1</property>
    <property name="mlt_service">color</property>
    <property name="mlt_image_format">rgb24a</property>
    <property name="shotcut:caption">transparent</property>
    <property name="shotcut:detail">transparent</property>
    <property name="ignore_points">0</property>
    <property name="global_feed">1</property>
    <property name="xml">was here</property>
    <property name="seekable">1</property>
    <filter id="filter1" in="00:00:05.000" out="00:03:41.520">
      <property name="argument" />
      <property name="geometry">0 0 1920 1080 1</property>
      <property name="family">Verdana</property>
      <property name="size">1080</property>
      <property name="weight">500</property>
      <property name="style">normal</property>
      <property name="fgcolour">#ffffffff</property>
      <property name="bgcolour">#00000000</property>
      <property name="olcolour">#aa000000</property>
      <property name="pad">0</property>
      <property name="halign">center</property>
      <property name="valign">bottom</property>
      <property name="outline">3</property>
      <property name="mlt_service">dynamictext</property>
      <property name="shotcut:filter">dynamicText</property>
      <property name="shotcut:usePointSize">0</property>
      <property name="shotcut:animIn">00:00:00.000</property>
      <property name="shotcut:animOut">00:00:00.000</property>
    </filter>
  </producer>
  <playlist id="playlist0">
    <property name="shotcut:video">1</property>
    <property name="shotcut:name">Storyboard</property>
    <property name="shotcut:lock">1</property>
    <entry producer="producer0" in="00:00:00.000" out="00:00:04.960" />
    <entry producer="producer1" in="00:00:05.000" out="00:03:41.520" />
  </playlist>
  <producer id="producer2" title="Anonymous Submission" in="00:00:00.000" out="00:04:05.560">
    <property name="length">00:04:05:15</property>
    <property name="eof">pause</property>
    <property name="resource">../../006 - Videos format youtube/Percussions/Jean-Seb_percu_totoro.mp4</property>
    <property name="audio_index">1</property>
    <property name="video_index">0</property>
    <property name="mute_on_pause">0</property>
    <property name="mlt_service">avformat-novalidate</property>
    <property name="seekable">1</property>
    <property name="aspect_ratio">1</property>
    <property name="creation_time">2020-05-01T20:32:43</property>
    <property name="shotcut:hash">a2e950dced0df93b86cbf01dbc5519c9</property>
    <property name="ignore_points">0</property>
    <property name="shotcut:caption">Jean-Seb_percu_totoro.mp4</property>
    <property name="shotcut:skipConvert">1</property>
    <property name="global_feed">1</property>
    <property name="xml">was here</property>
    <filter id="filter2" in="00:00:24.520" out="00:00:43.400000">
      <property name="background">colour:0</property>
      <property name="mlt_service">affine</property>
      <property name="shotcut:filter">affineSizePosition</property>
      <property name="transition.fill">1</property>
      <property name="transition.distort">0</property>
      <property name="transition.rect">1371.0 308.0 275.0 155.0 1</property>
      <property name="transition.valign">top</property>
      <property name="transition.halign">left</property>
      <property name="shotcut:animIn">00:00:00.000</property>
      <property name="shotcut:animOut">00:00:00.000</property>
      <property name="transition.threads">0</property>
    </filter>
    <filter id="filter3" in="00:00:24.520" out="00:00:43.400000">
      <property name="window">75</property>
      <property name="max_gain">20dB</property>
      <property name="mlt_service">volume</property>
      <property name="shotcut:filter">muteVolume</property>
      <property name="gain">0</property>
    </filter>
  </producer>
  <producer id="producer3" title="Anonymous Submission" in="00:00:00.000" out="00:04:05.560">
    <property name="length">00:04:05:15</property>
    <property name="eof">pause</property>
    <property name="resource">../../006 - Videos format youtube/Percussions/Jean-Seb_percu_totoro.mp4</property>
    <property name="audio_index">1</property>
    <property name="video_index">0</property>
    <property name="mute_on_pause">0</property>
    <property name="mlt_service">avformat-novalidate</property>
    <property name="seekable">1</property>
    <property name="aspect_ratio">1</property>
    <property name="creation_time">2020-05-01T20:32:43</property>
    <property name="shotcut:hash">a2e950dced0df93b86cbf01dbc5519c9</property>
    <property name="ignore_points">0</property>
    <property name="shotcut:caption">Jean-Seb_percu_totoro.mp4</property>
    <property name="shotcut:skipConvert">1</property>
    <property name="global_feed">1</property>
    <property name="xml">was here</property>
    <filter id="filter4" in="00:00:43.440000" out="00:00:50.400000">
      <property name="background">colour:0</property>
      <property name="mlt_service">affine</property>
      <property name="shotcut:filter">affineSizePosition</property>
      <property name="transition.fill">1</property>
      <property name="transition.distort">0</property>
      <property name="transition.rect">00:00:00.000000=1371.0 308.0 276.0 155.0 1;00:00:00.440000=548.0 0.0 275.0 155.0 1</property>
      <property name="transition.valign">top</property>
      <property name="transition.halign">left</property>
      <property name="shotcut:animIn">00:00:00.480000</property>
      <property name="shotcut:animOut">00:00:00.000</property>
      <property name="transition.threads">0</property>
    </filter>
    <filter id="filter5" in="00:00:43.440000" out="00:00:50.400000">
      <property name="window">75</property>
      <property name="max_gain">20dB</property>
      <property name="mlt_service">volume</property>
      <property name="shotcut:filter">muteVolume</property>
      <property name="gain">0</property>
    </filter>
  </producer>
  <producer id="producer4" title="Anonymous Submission" in="00:00:00.000" out="00:04:05.560">
    <property name="length">00:04:05:15</property>
    <property name="eof">pause</property>
    <property name="resource">../../006 - Videos format youtube/Percussions/Jean-Seb_percu_totoro.mp4</property>
    <property name="audio_index">1</property>
    <property name="video_index">0</property>
    <property name="mute_on_pause">0</property>
    <property name="mlt_service">avformat-novalidate</property>
    <property name="seekable">1</property>
    <property name="aspect_ratio">1</property>
    <property name="creation_time">2020-05-01T20:32:43</property>
    <property name="shotcut:hash">a2e950dced0df93b86cbf01dbc5519c9</property>
    <property name="ignore_points">0</property>
    <property name="shotcut:caption">Jean-Seb_percu_totoro.mp4</property>
    <property name="shotcut:skipConvert">1</property>
    <property name="global_feed">1</property>
    <property name="xml">was here</property>
    <filter id="filter6" in="00:00:50.440000" out="00:01:24.400000">
      <property name="background">colour:0</property>
      <property name="mlt_service">affine</property>
      <property name="shotcut:filter">affineSizePosition</property>
      <property name="transition.fill">1</property>
      <property name="transition.distort">0</property>
      <property name="transition.rect">-480.0 -270.0 241.0 136.0 1</property>
      <property name="transition.valign">top</property>
      <property name="transition.halign">left</property>
      <property name="shotcut:animIn">00:00:00.480000</property>
      <property name="shotcut:animOut">00:00:00.000</property>
      <property name="transition.threads">0</property>
    </filter>
    <filter id="filter7" in="00:00:50.440000" out="00:01:24.400000">
      <property name="window">75</property>
      <property name="max_gain">20dB</property>
      <property name="mlt_service">volume</property>
      <property name="shotcut:filter">muteVolume</property>
      <property name="gain">0</property>
    </filter>
  </producer>
  <producer id="producer5" title="Anonymous Submission" in="00:00:00.000" out="00:04:05.560">
    <property name="length">00:04:05:15</property>
    <property name="eof">pause</property>
    <property name="resource">../../006 - Videos format youtube/Percussions/Jean-Seb_percu_totoro.mp4</property>
    <property name="audio_index">1</property>
    <property name="video_index">0</property>
    <property name="mute_on_pause">0</property>
    <property name="mlt_service">avformat-novalidate</property>
    <property name="seekable">1</property>
    <property name="aspect_ratio">1</property>
    <property name="creation_time">2020-05-01T20:32:43</property>
    <property name="shotcut:hash">a2e950dced0df93b86cbf01dbc5519c9</property>
    <property name="ignore_points">0</property>
    <property name="shotcut:caption">Jean-Seb_percu_totoro.mp4</property>
    <property name="shotcut:skipConvert">1</property>
    <property name="global_feed">1</property>
    <property name="xml">was here</property>
    <filter id="filter8" in="00:01:24.440000" out="00:01:40.400000">
      <property name="background">colour:0</property>
      <property name="mlt_service">affine</property>
      <property name="shotcut:filter">affineSizePosition</property>
      <property name="transition.fill">1</property>
      <property name="transition.distort">0</property>
      <property name="transition.rect">-1097.0 -462.0 275.0 155.0 1</property>
      <property name="transition.valign">top</property>
      <property name="transition.halign">left</property>
      <property name="shotcut:animIn">00:00:00.480000</property>
      <property name="shotcut:animOut">00:00:00.000</property>
      <property name="transition.threads">0</property>
    </filter>
    <filter id="filter9" in="00:01:24.440000" out="00:01:40.400000">
      <property name="window">75</property>
      <property name="max_gain">20dB</property>
      <property name="mlt_service">volume</property>
      <property name="shotcut:filter">muteVolume</property>
      <property name="gain">0</property>
    </filter>
  </producer>
  <producer id="producer6" title="Anonymous Submission" in="00:00:00.000" out="00:04:05.560">
    <property name="length">00:04:05:15</property>
    <property name="eof">pause</property>
    <property name="resource">../../006 - Videos format youtube/Percussions/Jean-Seb_percu_totoro.mp4</property>
    <property name="audio_index">1</property>
    <property name="video_index">0</property>
    <property name="mute_on_pause">0</property>
    <property name="mlt_service">avformat-novalidate</property>
    <property name="seekable">1</property>
    <property name="aspect_ratio">1</property>
    <property name="creation_time">2020-05-01T20:32:43</property>
    <property name="shotcut:hash">a2e950dced0df93b86cbf01dbc5519c9</property>
    <property name="ignore_points">0</property>
    <property name="shotcut:caption">Jean-Seb_percu_totoro.mp4</property>
    <property name="shotcut:skipConvert">1</property>
    <property name="global_feed">1</property>
    <property name="xml">was here</property>
    <filter id="filter10" in="00:01:40.440000" out="00:01:47.400000">
      <property name="background">colour:0</property>
      <property name="mlt_service">affine</property>
      <property name="shotcut:filter">affineSizePosition</property>
      <property name="transition.fill">1</property>
      <property name="transition.distort">0</property>
      <property name="transition.rect">3679.0 0.0 321.0 181.0 1</property>
      <property name="transition.valign">top</property>
      <property name="transition.halign">left</property>
      <property name="shotcut:animIn">00:00:00.480000</property>
      <property name="shotcut:animOut">00:00:00.000</property>
      <property name="transition.threads">0</property>
    </filter>
    <filter id="filter11" in="00:01:40.440000" out="00:01:47.400000">
      <property name="window">75</property>
      <property name="max_gain">20dB</property>
      <property name="mlt_service">volume</property>
      <property name="shotcut:filter">muteVolume</property>
      <property name="gain">0</property>
    </filter>
  </producer>
  <producer id="producer7" title="Anonymous Submission" in="00:00:00.000" out="00:04:05.560">
    <property name="length">00:04:05:15</property>
    <property name="eof">pause</property>
    <property name="resource">../../006 - Videos format youtube/Percussions/Jean-Seb_percu_totoro.mp4</property>
    <property name="audio_index">1</property>
    <property name="video_index">0</property>
    <property name="mute_on_pause">0</property>
    <property name="mlt_service">avformat-novalidate</property>
    <property name="seekable">1</property>
    <property name="aspect_ratio">1</property>
    <property name="creation_time">2020-05-01T20:32:43</property>
    <property name="shotcut:hash">a2e950dced0df93b86cbf01dbc5519c9</property>
    <property name="ignore_points">0</property>
    <property name="shotcut:caption">Jean-Seb_percu_totoro.mp4</property>
    <property name="shotcut:skipConvert">1</property>
    <property name="global_feed">1</property>
    <property name="xml">was here</property>
    <filter id="filter12" in="00:01:47.440000" out="00:01:55.400000">
      <property name="background">colour:0</property>
      <property name="mlt_service">affine</property>
      <property name="shotcut:filter">affineSizePosition</property>
      <property name="transition.fill">1</property>
      <property name="transition.distort">0</property>
      <property name="transition.rect">1280.0 -720.0 321.0 181.0 1</property>
      <property name="transition.valign">top</property>
      <property name="transition.halign">left</property>
      <property name="shotcut:animIn">00:00:00.480000</property>
      <property name="shotcut:animOut">00:00:00.000</property>
      <property name="transition.threads">0</property>
    </filter>
    <filter id="filter13" in="00:01:47.440000" out="00:01:55.400000">
      <property name="window">75</property>
      <property name="max_gain">20dB</property>
      <property name="mlt_service">volume</property>
      <property name="shotcut:filter">muteVolume</property>
      <property name="gain">0</property>
    </filter>
  </producer>
  <producer id="producer8" title="Anonymous Submission" in="00:00:00.000" out="00:04:05.560">
    <property name="length">00:04:05:15</property>
    <property name="eof">pause</property>
    <property name="resource">../../006 - Videos format youtube/Percussions/Jean-Seb_percu_totoro.mp4</property>
    <property name="audio_index">1</property>
    <property name="video_index">0</property>
    <property name="mute_on_pause">0</property>
    <property name="mlt_service">avformat-novalidate</property>
    <property name="seekable">1</property>
    <property name="aspect_ratio">1</property>
    <property name="creation_time">2020-05-01T20:32:43</property>
    <property name="shotcut:hash">a2e950dced0df93b86cbf01dbc5519c9</property>
    <property name="ignore_points">0</property>
    <property name="shotcut:caption">Jean-Seb_percu_totoro.mp4</property>
    <property name="shotcut:skipConvert">1</property>
    <property name="global_feed">1</property>
    <property name="xml">was here</property>
    <filter id="filter14" in="00:01:55.440000" out="00:02:04.400000">
      <property name="background">colour:0</property>
      <property name="mlt_service">affine</property>
      <property name="shotcut:filter">affineSizePosition</property>
      <property name="transition.fill">1</property>
      <property name="transition.distort">0</property>
      <property name="transition.rect">548.0 925.0 275.0 155.0 1</property>
      <property name="transition.valign">top</property>
      <property name="transition.halign">left</property>
      <property name="shotcut:animIn">00:00:00.480000</property>
      <property name="shotcut:animOut">00:00:00.000</property>
      <property name="transition.threads">0</property>
    </filter>
    <filter id="filter15" in="00:01:55.440000" out="00:02:04.400000">
      <property name="window">75</property>
      <property name="max_gain">20dB</property>
      <property name="mlt_service">volume</property>
      <property name="shotcut:filter">muteVolume</property>
      <property name="gain">0</property>
    </filter>
  </producer>
  <producer id="producer9" title="Anonymous Submission" in="00:00:00.000" out="00:04:05.560">
    <property name="length">00:04:05:15</property>
    <property name="eof">pause</property>
    <property name="resource">../../006 - Videos format youtube/Percussions/Jean-Seb_percu_totoro.mp4</property>
    <property name="audio_index">1</property>
    <property name="video_index">0</property>
    <property name="mute_on_pause">0</property>
    <property name="mlt_service">avformat-novalidate</property>
    <property name="seekable">1</property>
    <property name="aspect_ratio">1</property>
    <property name="creation_time">2020-05-01T20:32:43</property>
    <property name="shotcut:hash">a2e950dced0df93b86cbf01dbc5519c9</property>
    <property name="ignore_points">0</property>
    <property name="shotcut:caption">Jean-Seb_percu_totoro.mp4</property>
    <property name="shotcut:skipConvert">1</property>
    <property name="global_feed">1</property>
    <property name="xml">was here</property>
    <filter id="filter16" in="00:02:04.440000" out="00:02:11.400000">
      <property name="background">colour:0</property>
      <property name="mlt_service">affine</property>
      <property name="shotcut:filter">affineSizePosition</property>
      <property name="transition.fill">1</property>
      <property name="transition.distort">0</property>
      <property name="transition.rect">-548.0 -308.0 275.0 155.0 1</property>
      <property name="transition.valign">top</property>
      <property name="transition.halign">left</property>
      <property name="shotcut:animIn">00:00:00.480000</property>
      <property name="shotcut:animOut">00:00:00.000</property>
      <property name="transition.threads">0</property>
    </filter>
    <filter id="filter17" in="00:02:04.440000" out="00:02:11.400000">
      <property name="window">75</property>
      <property name="max_gain">20dB</property>
      <property name="mlt_service">volume</property>
      <property name="shotcut:filter">muteVolume</property>
      <property name="gain">0</property>
    </filter>
  </producer>
  <producer id="producer10" title="Anonymous Submission" in="00:00:00.000" out="00:04:05.560">
    <property name="length">00:04:05:15</property>
    <property name="eof">pause</property>
    <property name="resource">../../006 - Videos format youtube/Percussions/Jean-Seb_percu_totoro.mp4</property>
    <property name="audio_index">1</property>
    <property name="video_index">0</property>
    <property name="mute_on_pause">0</property>
    <property name="mlt_service">avformat-novalidate</property>
    <property name="seekable">1</property>
    <property name="aspect_ratio">1</property>
    <property name="creation_time">2020-05-01T20:32:43</property>
    <property name="shotcut:hash">a2e950dced0df93b86cbf01dbc5519c9</property>
    <property name="ignore_points">0</property>
    <property name="shotcut:caption">Jean-Seb_percu_totoro.mp4</property>
    <property name="shotcut:skipConvert">1</property>
    <property name="global_feed">1</property>
    <property name="xml">was here</property>
    <filter id="filter18" in="00:02:11.440000" out="00:03:53.080000">
      <property name="background">colour:0</property>
      <property name="mlt_service">affine</property>
      <property name="shotcut:filter">affineSizePosition</property>
      <property name="transition.fill">1</property>
      <property name="transition.distort">0</property>
      <property name="transition.rect">3679.0 0.0 321.0 181.0 1</property>
      <property name="transition.valign">top</property>
      <property name="transition.halign">left</property>
      <property name="shotcut:animIn">00:00:00.480000</property>
      <property name="shotcut:animOut">00:00:00.000</property>
      <property name="transition.threads">0</property>
    </filter>
    <filter id="filter19" in="00:02:11.440000" out="00:03:53.080000">
      <property name="window">75</property>
      <property name="max_gain">20dB</property>
      <property name="mlt_service">volume</property>
      <property name="shotcut:filter">muteVolume</property>
      <property name="gain">0</property>
    </filter>
  </producer>
  <playlist id="playlist1">
    <property name="shotcut:video">1</property>
    <property name="shotcut:name">Jean-Seb percu</property>
    <property name="shotcut:lock">1</property>
    <blank length="00:00:04.080" />
    <entry producer="producer2" in="00:00:24.520" out="00:00:43.400000" />
    <entry producer="producer3" in="00:00:43.440000" out="00:00:50.400000" />
    <entry producer="producer4" in="00:00:50.440000" out="00:01:24.400000" />
    <entry producer="producer5" in="00:01:24.440000" out="00:01:40.400000" />
    <entry producer="producer6" in="00:01:40.440000" out="00:01:47.400000" />
    <entry producer="producer7" in="00:01:47.440000" out="00:01:55.400000" />
    <entry producer="producer8" in="00:01:55.440000" out="00:02:04.400000" />
    <entry producer="producer9" in="00:02:04.440000" out="00:02:11.400000" />
    <entry producer="producer10" in="00:02:11.440000" out="00:03:53.080000" />
    <filter id="filter20" out="00:03:41.520">
      <property name="window">75</property>
      <property name="max_gain">20dB</property>
      <property name="level">-15</property>
      <property name="mlt_service">volume</property>
    </filter>
  </playlist>
  <producer id="producer11" title="Anonymous Submission" in="00:00:00.000" out="00:02:58.320">
    <property name="length">00:02:58:09</property>
    <property name="eof">pause</property>
    <property name="resource">../../006 - Videos format youtube/Chef/Jean-Jacques_chef_totoro.mp4</property>
    <property name="audio_index">1</property>
    <property name="video_index">0</property>
    <property name="mute_on_pause">0</property>
    <property name="mlt_service">avformat-novalidate</property>
    <property name="seekable">1</property>
    <property name="aspect_ratio">1</property>
    <property name="creation_time">2020-04-05T13:55:58</property>
    <property name="shotcut:hash">54631fa1ec31562eee0a931256e35e96</property>
    <property name="ignore_points">0</property>
    <property name="shotcut:caption">Jean-Jacques_chef_totoro.mp4</property>
    <property name="shotcut:skipConvert">1</property>
    <property name="global_feed">1</property>
    <property name="xml">was here</property>
    <filter id="filter21" out="00:00:00.640000">
      <property name="background">colour:0</property>
      <property name="mlt_service">affine</property>
      <property name="shotcut:filter">affineSizePosition</property>
      <property name="transition.fill">1</property>
      <property name="transition.distort">0</property>
      <property name="transition.rect">-2194.0 -462.0 275.0 155.0 1</property>
      <property name="transition.valign">top</property>
      <property name="transition.halign">left</property>
      <property name="shotcut:animIn">00:00:00.000</property>
      <property name="shotcut:animOut">00:00:00.000</property>
      <property name="transition.threads">0</property>
    </filter>
    <filter id="filter22" out="00:00:00.640000">
      <property name="window">75</property>
      <property name="max_gain">20dB</property>
      <property name="mlt_service">volume</property>
      <property name="shotcut:filter">muteVolume</property>
      <property name="gain">0</property>
    </filter>
  </producer>
  <producer id="producer12" title="Anonymous Submission" in="00:00:00.000" out="00:02:58.320">
    <property name="length">00:02:58:09</property>
    <property name="eof">pause</property>
    <property name="resource">../../006 - Videos format youtube/Chef/Jean-Jacques_chef_totoro.mp4</property>
    <property name="audio_index">1</property>
    <property name="video_index">0</property>
    <property name="mute_on_pause">0</property>
    <property name="mlt_service">avformat-novalidate</property>
    <property name="seekable">1</property>
    <property name="aspect_ratio">1</property>
    <property name="creation_time">2020-04-05T13:55:58</property>
    <property name="shotcut:hash">54631fa1ec31562eee0a931256e35e96</property>
    <property name="ignore_points">0</property>
    <property name="shotcut:caption">Jean-Jacques_chef_totoro.mp4</property>
    <property name="shotcut:skipConvert">1</property>
    <property name="global_feed">1</property>
    <property name="xml">was here</property>
    <filter id="filter23" out="00:00:07.640000" in="00:00:00.680000">
      <property name="background">colour:0</property>
      <property name="mlt_service">affine</property>
      <property name="shotcut:filter">affineSizePosition</property>
      <property name="transition.fill">1</property>
      <property name="transition.distort">0</property>
      <property name="transition.rect">548.0 308.0 823.0 463.0 1</property>
      <property name="transition.valign">top</property>
      <property name="transition.halign">left</property>
      <property name="shotcut:animIn">00:00:00.000</property>
      <property name="shotcut:animOut">00:00:00.000</property>
      <property name="transition.threads">0</property>
    </filter>
    <filter id="filter24" out="00:00:07.640000" in="00:00:00.680000">
      <property name="window">75</property>
      <property name="max_gain">20dB</property>
      <property name="mlt_service">volume</property>
      <property name="shotcut:filter">muteVolume</property>
      <property name="gain">0</property>
    </filter>
  </producer>
  <producer id="producer13" title="Anonymous Submission" in="00:00:00.000" out="00:02:58.320">
    <property name="length">00:02:58:09</property>
    <property name="eof">pause</property>
    <property name="resource">../../006 - Videos format youtube/Chef/Jean-Jacques_chef_totoro.mp4</property>
    <property name="audio_index">1</property>
    <property name="video_index">0</property>
    <property name="mute_on_pause">0</property>
    <property name="mlt_service">avformat-novalidate</property>
    <property name="seekable">1</property>
    <property name="aspect_ratio">1</property>
    <property name="creation_time">2020-04-05T13:55:58</property>
    <property name="shotcut:hash">54631fa1ec31562eee0a931256e35e96</property>
    <property name="ignore_points">0</property>
    <property name="shotcut:caption">Jean-Jacques_chef_totoro.mp4</property>
    <property name="shotcut:skipConvert">1</property>
    <property name="global_feed">1</property>
    <property name="xml">was here</property>
    <filter id="filter25" out="00:00:27.640000" in="00:00:07.680000">
      <property name="background">colour:0</property>
      <property name="mlt_service">affine</property>
      <property name="shotcut:filter">affineSizePosition</property>
      <property name="transition.fill">1</property>
      <property name="transition.distort">0</property>
      <property name="transition.rect">240.0 135.0 1441.0 811.0 1</property>
      <property name="transition.valign">top</property>
      <property name="transition.halign">left</property>
      <property name="shotcut:animIn">00:00:00.000</property>
      <property name="shotcut:animOut">00:00:00.000</property>
      <property name="transition.threads">0</property>
    </filter>
    <filter id="filter26" out="00:00:27.640000" in="00:00:07.680000">
      <property name="window">75</property>
      <property name="max_gain">20dB</property>
      <property name="mlt_service">volume</property>
      <property name="shotcut:filter">muteVolume</property>
      <property name="gain">0</property>
    </filter>
  </producer>
  <producer id="producer14" title="Anonymous Submission" in="00:00:00.000" out="00:02:58.320">
    <property name="length">00:02:58:09</property>
    <property name="eof">pause</property>
    <property name="resource">../../006 - Videos format youtube/Chef/Jean-Jacques_chef_totoro.mp4</property>
    <property name="audio_index">1</property>
    <property name="video_index">0</property>
    <property name="mute_on_pause">0</property>
    <property name="mlt_service">avformat-novalidate</property>
    <property name="seekable">1</property>
    <property name="aspect_ratio">1</property>
    <property name="creation_time">2020-04-05T13:55:58</property>
    <property name="shotcut:hash">54631fa1ec31562eee0a931256e35e96</property>
    <property name="ignore_points">0</property>
    <property name="shotcut:caption">Jean-Jacques_chef_totoro.mp4</property>
    <property name="shotcut:skipConvert">1</property>
    <property name="global_feed">1</property>
    <property name="xml">was here</property>
    <filter id="filter27" out="00:00:30.640000" in="00:00:27.680000">
      <property name="background">colour:0</property>
      <property name="mlt_service">affine</property>
      <property name="shotcut:filter">affineSizePosition</property>
      <property name="transition.fill">1</property>
      <property name="transition.distort">0</property>
      <property name="transition.rect">2160.0 1215.0 1441.0 811.0 1</property>
      <property name="transition.valign">top</property>
      <property name="transition.halign">left</property>
      <property name="shotcut:animIn">00:00:00.000</property>
      <property name="shotcut:animOut">00:00:00.000</property>
      <property name="transition.threads">0</property>
    </filter>
    <filter id="filter28" out="00:00:30.640000" in="00:00:27.680000">
      <property name="window">75</property>
      <property name="max_gain">20dB</property>
      <property name="mlt_service">volume</property>
      <property name="shotcut:filter">muteVolume</property>
      <property name="gain">0</property>
    </filter>
  </producer>
  <producer id="producer15" title="Anonymous Submission" in="00:00:00.000" out="00:02:58.320">
    <property name="length">00:02:58:09</property>
    <property name="eof">pause</property>
    <property name="resource">../../006 - Videos format youtube/Chef/Jean-Jacques_chef_totoro.mp4</property>
    <property name="audio_index">1</property>
    <property name="video_index">0</property>
    <property name="mute_on_pause">0</property>
    <property name="mlt_service">avformat-novalidate</property>
    <property name="seekable">1</property>
    <property name="aspect_ratio">1</property>
    <property name="creation_time">2020-04-05T13:55:58</property>
    <property name="shotcut:hash">54631fa1ec31562eee0a931256e35e96</property>
    <property name="ignore_points">0</property>
    <property name="shotcut:caption">Jean-Jacques_chef_totoro.mp4</property>
    <property name="shotcut:skipConvert">1</property>
    <property name="global_feed">1</property>
    <property name="xml">was here</property>
    <filter id="filter29" out="00:00:34.640000" in="00:00:30.680000">
      <property name="background">colour:0</property>
      <property name="mlt_service">affine</property>
      <property name="shotcut:filter">affineSizePosition</property>
      <property name="transition.fill">1</property>
      <property name="transition.distort">0</property>
      <property name="transition.rect">240.0 135.0 1441.0 811.0 1</property>
      <property name="transition.valign">top</property>
      <property name="transition.halign">left</property>
      <property name="shotcut:animIn">00:00:00.000</property>
      <property name="shotcut:animOut">00:00:00.000</property>
      <property name="transition.threads">0</property>
    </filter>
    <filter id="filter30" out="00:00:34.640000" in="00:00:30.680000">
      <property name="window">75</property>
      <property name="max_gain">20dB</property>
      <property name="mlt_service">volume</property>
      <property name="shotcut:filter">muteVolume</property>
      <property name="gain">0</property>
    </filter>
  </producer>
  <producer id="producer16" title="Anonymous Submission" in="00:00:00.000" out="00:02:58.320">
    <property name="length">00:02:58:09</property>
    <property name="eof">pause</property>
    <property name="resource">../../006 - Videos format youtube/Chef/Jean-Jacques_chef_totoro.mp4</property>
    <property name="audio_index">1</property>
    <property name="video_index">0</property>
    <property name="mute_on_pause">0</property>
    <property name="mlt_service">avformat-novalidate</property>
    <property name="seekable">1</property>
    <property name="aspect_ratio">1</property>
    <property name="creation_time">2020-04-05T13:55:58</property>
    <property name="shotcut:hash">54631fa1ec31562eee0a931256e35e96</property>
    <property name="ignore_points">0</property>
    <property name="shotcut:caption">Jean-Jacques_chef_totoro.mp4</property>
    <property name="shotcut:skipConvert">1</property>
    <property name="global_feed">1</property>
    <property name="xml">was here</property>
    <filter id="filter31" out="00:00:41.640000" in="00:00:34.680000">
      <property name="background">colour:0</property>
      <property name="mlt_service">affine</property>
      <property name="shotcut:filter">affineSizePosition</property>
      <property name="transition.fill">1</property>
      <property name="transition.distort">0</property>
      <property name="transition.rect">2160.0 1215.0 1441.0 811.0 1</property>
      <property name="transition.valign">top</property>
      <property name="transition.halign">left</property>
      <property name="shotcut:animIn">00:00:00.000</property>
      <property name="shotcut:animOut">00:00:00.000</property>
      <property name="transition.threads">0</property>
    </filter>
    <filter id="filter32" out="00:00:41.640000" in="00:00:34.680000">
      <property name="window">75</property>
      <property name="max_gain">20dB</property>
      <property name="mlt_service">volume</property>
      <property name="shotcut:filter">muteVolume</property>
      <property name="gain">0</property>
    </filter>
  </producer>
  <producer id="producer17" title="Anonymous Submission" in="00:00:00.000" out="00:02:58.320">
    <property name="length">00:02:58:09</property>
    <property name="eof">pause</property>
    <property name="resource">../../006 - Videos format youtube/Chef/Jean-Jacques_chef_totoro.mp4</property>
    <property name="audio_index">1</property>
    <property name="video_index">0</property>
    <property name="mute_on_pause">0</property>
    <property name="mlt_service">avformat-novalidate</property>
    <property name="seekable">1</property>
    <property name="aspect_ratio">1</property>
    <property name="creation_time">2020-04-05T13:55:58</property>
    <property name="shotcut:hash">54631fa1ec31562eee0a931256e35e96</property>
    <property name="ignore_points">0</property>
    <property name="shotcut:caption">Jean-Jacques_chef_totoro.mp4</property>
    <property name="shotcut:skipConvert">1</property>
    <property name="global_feed">1</property>
    <property name="xml">was here</property>
    <filter id="filter33" out="00:00:57.640000" in="00:00:41.680000">
      <property name="background">colour:0</property>
      <property name="mlt_service">affine</property>
      <property name="shotcut:filter">affineSizePosition</property>
      <property name="transition.fill">1</property>
      <property name="transition.distort">0</property>
      <property name="transition.rect">-2194.0 -462.0 275.0 155.0 1</property>
      <property name="transition.valign">top</property>
      <property name="transition.halign">left</property>
      <property name="shotcut:animIn">00:00:00.000</property>
      <property name="shotcut:animOut">00:00:00.000</property>
      <property name="transition.threads">0</property>
    </filter>
    <filter id="filter34" out="00:00:57.640000" in="00:00:41.680000">
      <property name="window">75</property>
      <property name="max_gain">20dB</property>
      <property name="mlt_service">volume</property>
      <property name="shotcut:filter">muteVolume</property>
      <property name="gain">0</property>
    </filter>
  </producer>
  <producer id="producer18" title="Anonymous Submission" in="00:00:00.000" out="00:02:58.320">
    <property name="length">00:02:58:09</property>
    <property name="eof">pause</property>
    <property name="resource">../../006 - Videos format youtube/Chef/Jean-Jacques_chef_totoro.mp4</property>
    <property name="audio_index">1</property>
    <property name="video_index">0</property>
    <property name="mute_on_pause">0</property>
    <property name="mlt_service">avformat-novalidate</property>
    <property name="seekable">1</property>
    <property name="aspect_ratio">1</property>
    <property name="creation_time">2020-04-05T13:55:58</property>
    <property name="shotcut:hash">54631fa1ec31562eee0a931256e35e96</property>
    <property name="ignore_points">0</property>
    <property name="shotcut:caption">Jean-Jacques_chef_totoro.mp4</property>
    <property name="shotcut:skipConvert">1</property>
    <property name="global_feed">1</property>
    <property name="xml">was here</property>
    <filter id="filter35" out="00:01:12.640000" in="00:00:57.680000">
      <property name="background">colour:0</property>
      <property name="mlt_service">affine</property>
      <property name="shotcut:filter">affineSizePosition</property>
      <property name="transition.fill">1</property>
      <property name="transition.distort">0</property>
      <property name="transition.rect">1760.0 0.0 321.0 181.0 1</property>
      <property name="transition.valign">top</property>
      <property name="transition.halign">left</property>
      <property name="shotcut:animIn">00:00:00.000</property>
      <property name="shotcut:animOut">00:00:00.000</property>
      <property name="transition.threads">0</property>
    </filter>
    <filter id="filter36" out="00:01:12.640000" in="00:00:57.680000">
      <property name="window">75</property>
      <property name="max_gain">20dB</property>
      <property name="mlt_service">volume</property>
      <property name="shotcut:filter">muteVolume</property>
      <property name="gain">0</property>
    </filter>
  </producer>
  <producer id="producer19" title="Anonymous Submission" in="00:00:00.000" out="00:02:58.320">
    <property name="length">00:02:58:09</property>
    <property name="eof">pause</property>
    <property name="resource">../../006 - Videos format youtube/Chef/Jean-Jacques_chef_totoro.mp4</property>
    <property name="audio_index">1</property>
    <property name="video_index">0</property>
    <property name="mute_on_pause">0</property>
    <property name="mlt_service">avformat-novalidate</property>
    <property name="seekable">1</property>
    <property name="aspect_ratio">1</property>
    <property name="creation_time">2020-04-05T13:55:58</property>
    <property name="shotcut:hash">54631fa1ec31562eee0a931256e35e96</property>
    <property name="ignore_points">0</property>
    <property name="shotcut:caption">Jean-Jacques_chef_totoro.mp4</property>
    <property name="shotcut:skipConvert">1</property>
    <property name="global_feed">1</property>
    <property name="xml">was here</property>
    <filter id="filter37" out="00:01:21.640000" in="00:01:12.680000">
      <property name="background">colour:0</property>
      <property name="mlt_service">affine</property>
      <property name="shotcut:filter">affineSizePosition</property>
      <property name="transition.fill">1</property>
      <property name="transition.distort">0</property>
      <property name="transition.rect">-548.0 -308.0 275.0 155.0 1</property>
      <property name="transition.valign">top</property>
      <property name="transition.halign">left</property>
      <property name="shotcut:animIn">00:00:00.000</property>
      <property name="shotcut:animOut">00:00:00.000</property>
      <property name="transition.threads">0</property>
    </filter>
    <filter id="filter38" out="00:01:21.640000" in="00:01:12.680000">
      <property name="window">75</property>
      <property name="max_gain">20dB</property>
      <property name="mlt_service">volume</property>
      <property name="shotcut:filter">muteVolume</property>
      <property name="gain">0</property>
    </filter>
  </producer>
  <producer id="producer20" title="Anonymous Submission" in="00:00:00.000" out="00:02:58.320">
    <property name="length">00:02:58:09</property>
    <property name="eof">pause</property>
    <property name="resource">../../006 - Videos format youtube/Chef/Jean-Jacques_chef_totoro.mp4</property>
    <property name="audio_index">1</property>
    <property name="video_index">0</property>
    <property name="mute_on_pause">0</property>
    <property name="mlt_service">avformat-novalidate</property>
    <property name="seekable">1</property>
    <property name="aspect_ratio">1</property>
    <property name="creation_time">2020-04-05T13:55:58</property>
    <property name="shotcut:hash">54631fa1ec31562eee0a931256e35e96</property>
    <property name="ignore_points">0</property>
    <property name="shotcut:caption">Jean-Jacques_chef_totoro.mp4</property>
    <property name="shotcut:skipConvert">1</property>
    <property name="global_feed">1</property>
    <property name="xml">was here</property>
    <filter id="filter39" out="00:01:28.640000" in="00:01:21.680000">
      <property name="background">colour:0</property>
      <property name="mlt_service">affine</property>
      <property name="shotcut:filter">affineSizePosition</property>
      <property name="transition.fill">1</property>
      <property name="transition.distort">0</property>
      <property name="transition.rect">-2194.0 -462.0 275.0 155.0 1</property>
      <property name="transition.valign">top</property>
      <property name="transition.halign">left</property>
      <property name="shotcut:animIn">00:00:00.000</property>
      <property name="shotcut:animOut">00:00:00.000</property>
      <property name="transition.threads">0</property>
    </filter>
    <filter id="filter40" out="00:01:28.640000" in="00:01:21.680000">
      <property name="window">75</property>
      <property name="max_gain">20dB</property>
      <property name="mlt_service">volume</property>
      <property name="shotcut:filter">muteVolume</property>
      <property name="gain">0</property>
    </filter>
  </producer>
  <producer id="producer21" title="Anonymous Submission" in="00:00:00.000" out="00:02:58.320">
    <property name="length">00:02:58:09</property>
    <property name="eof">pause</property>
    <property name="resource">../../006 - Videos format youtube/Chef/Jean-Jacques_chef_totoro.mp4</property>
    <property name="audio_index">1</property>
    <property name="video_index">0</property>
    <property name="mute_on_pause">0</property>
    <property name="mlt_service">avformat-novalidate</property>
    <property name="seekable">1</property>
    <property name="aspect_ratio">1</property>
    <property name="creation_time">2020-04-05T13:55:58</property>
    <property name="shotcut:hash">54631fa1ec31562eee0a931256e35e96</property>
    <property name="ignore_points">0</property>
    <property name="shotcut:caption">Jean-Jacques_chef_totoro.mp4</property>
    <property name="shotcut:skipConvert">1</property>
    <property name="global_feed">1</property>
    <property name="xml">was here</property>
    <filter id="filter41" out="00:02:58.320" in="00:01:28.680000">
      <property name="background">colour:0</property>
      <property name="mlt_service">affine</property>
      <property name="shotcut:filter">affineSizePosition</property>
      <property name="transition.fill">1</property>
      <property name="transition.distort">0</property>
      <property name="transition.rect">640.0 360.0 641.0 361.0 1</property>
      <property name="transition.valign">top</property>
      <property name="transition.halign">left</property>
      <property name="shotcut:animIn">00:00:00.000</property>
      <property name="shotcut:animOut">00:00:00.000</property>
      <property name="transition.threads">0</property>
    </filter>
    <filter id="filter42" out="00:02:58.320" in="00:01:28.680000">
      <property name="window">75</property>
      <property name="max_gain">20dB</property>
      <property name="mlt_service">volume</property>
      <property name="shotcut:filter">muteVolume</property>
      <property name="gain">0</property>
    </filter>
  </producer>
  <playlist id="playlist2">
    <property name="shotcut:video">1</property>
    <property name="shotcut:name">JJS_chef</property>
    <property name="shotcut:lock">1</property>
    <blank length="00:00:22.320" />
    <entry producer="producer11" in="00:00:00.000" out="00:00:00.640000" />
  <entry producer="producer12" in="00:00:00.680000" out="00:00:07.640000" />
  <entry producer="producer13" in="00:00:07.680000" out="00:00:27.640000" />
  <entry producer="producer14" in="00:00:27.680000" out="00:00:30.640000" />
  <entry producer="producer15" in="00:00:30.680000" out="00:00:34.640000" />
  <entry producer="producer16" in="00:00:34.680000" out="00:00:41.640000" />
  <entry producer="producer17" in="00:00:41.680000" out="00:00:57.640000" />
  <entry producer="producer18" in="00:00:57.680000" out="00:01:12.640000" />
  <entry producer="producer19" in="00:01:12.680000" out="00:01:21.640000" />
  <entry producer="producer20" in="00:01:21.680000" out="00:01:28.640000" />
  <entry producer="producer21" in="00:01:28.680000" out="00:02:58.320" />
  </playlist>
  <producer id="producer22" title="Anonymous Submission" in="00:00:00.000" out="00:02:58.600">
    <property name="length">00:02:58:16</property>
    <property name="eof">pause</property>
    <property name="resource">../../006 - Videos format youtube/Percussions/Jean-Jacques_percu_totoro.mp4</property>
    <property name="audio_index">1</property>
    <property name="video_index">0</property>
    <property name="mute_on_pause">0</property>
    <property name="mlt_service">avformat-novalidate</property>
    <property name="seekable">1</property>
    <property name="aspect_ratio">1</property>
    <property name="creation_time">2020-04-05T13:32:56</property>
    <property name="shotcut:hash">a1cdbff80b90b0e15755cba1300f6075</property>
    <property name="ignore_points">0</property>
    <property name="shotcut:caption">Jean-Jacques_percu_totoro.mp4</property>
    <property name="shotcut:skipConvert">1</property>
    <property name="global_feed">1</property>
    <property name="xml">was here</property>
    <filter id="filter43" out="00:00:02.240000">
      <property name="background">colour:0</property>
      <property name="mlt_service">affine</property>
      <property name="shotcut:filter">affineSizePosition</property>
      <property name="transition.fill">1</property>
      <property name="transition.distort">0</property>
      <property name="transition.rect">548.0 0.0 275.0 155.0 1</property>
      <property name="transition.valign">top</property>
      <property name="transition.halign">left</property>
      <property name="shotcut:animIn">00:00:00.000</property>
      <property name="shotcut:animOut">00:00:00.000</property>
      <property name="transition.threads">0</property>
    </filter>
    <filter id="filter44" out="00:00:02.240000">
      <property name="window">75</property>
      <property name="max_gain">20dB</property>
      <property name="level">-2</property>
      <property name="mlt_service">volume</property>
    </filter>
    <filter id="filter45" out="00:00:02.240000">
      <property name="window">75</property>
      <property name="max_gain">20dB</property>
      <property name="mlt_service">volume</property>
      <property name="shotcut:filter">muteVolume</property>
      <property name="gain">0</property>
    </filter>
  </producer>
  <producer id="producer23" title="Anonymous Submission" in="00:00:00.000" out="00:02:58.600">
    <property name="length">00:02:58:16</property>
    <property name="eof">pause</property>
    <property name="resource">../../006 - Videos format youtube/Percussions/Jean-Jacques_percu_totoro.mp4</property>
    <property name="audio_index">1</property>
    <property name="video_index">0</property>
    <property name="mute_on_pause">0</property>
    <property name="mlt_service">avformat-novalidate</property>
    <property name="seekable">1</property>
    <property name="aspect_ratio">1</property>
    <property name="creation_time">2020-04-05T13:32:56</property>
    <property name="shotcut:hash">a1cdbff80b90b0e15755cba1300f6075</property>
    <property name="ignore_points">0</property>
    <property name="shotcut:caption">Jean-Jacques_percu_totoro.mp4</property>
    <property name="shotcut:skipConvert">1</property>
    <property name="global_feed">1</property>
    <property name="xml">was here</property>
    <filter id="filter46" out="00:00:43.240000" in="00:00:02.280000">
      <property name="background">colour:0</property>
      <property name="mlt_service">affine</property>
      <property name="shotcut:filter">affineSizePosition</property>
      <property name="transition.fill">1</property>
      <property name="transition.distort">0</property>
      <property name="transition.rect">-822.0 -925.0 275.0 155.0 1</property>
      <property name="transition.valign">top</property>
      <property name="transition.halign">left</property>
      <property name="shotcut:animIn">00:00:00.000</property>
      <property name="shotcut:animOut">00:00:00.000</property>
      <property name="transition.threads">0</property>
    </filter>
    <filter id="filter47" out="00:00:43.240000" in="00:00:02.280000">
      <property name="window">75</property>
      <property name="max_gain">20dB</property>
      <property name="level">-2</property>
      <property name="mlt_service">volume</property>
    </filter>
    <filter id="filter48" out="00:00:43.240000" in="00:00:02.280000">
      <property name="window">75</property>
      <property name="max_gain">20dB</property>
      <property name="mlt_service">volume</property>
      <property name="shotcut:filter">muteVolume</property>
      <property name="gain">0</property>
    </filter>
  </producer>
  <producer id="producer24" title="Anonymous Submission" in="00:00:00.000" out="00:02:58.600">
    <property name="length">00:02:58:16</property>
    <property name="eof">pause</property>
    <property name="resource">../../006 - Videos format youtube/Percussions/Jean-Jacques_percu_totoro.mp4</property>
    <property name="audio_index">1</property>
    <property name="video_index">0</property>
    <property name="mute_on_pause">0</property>
    <property name="mlt_service">avformat-novalidate</property>
    <property name="seekable">1</property>
    <property name="aspect_ratio">1</property>
    <property name="creation_time">2020-04-05T13:32:56</property>
    <property name="shotcut:hash">a1cdbff80b90b0e15755cba1300f6075</property>
    <property name="ignore_points">0</property>
    <property name="shotcut:caption">Jean-Jacques_percu_totoro.mp4</property>
    <property name="shotcut:skipConvert">1</property>
    <property name="global_feed">1</property>
    <property name="xml">was here</property>
    <filter id="filter49" out="00:00:51.240000" in="00:00:43.280000">
      <property name="background">colour:0</property>
      <property name="mlt_service">affine</property>
      <property name="shotcut:filter">affineSizePosition</property>
      <property name="transition.fill">1</property>
      <property name="transition.distort">0</property>
      <property name="transition.rect">-822.0 -308.0 275.0 155.0 1</property>
      <property name="transition.valign">top</property>
      <property name="transition.halign">left</property>
      <property name="shotcut:animIn">00:00:00.000</property>
      <property name="shotcut:animOut">00:00:00.000</property>
      <property name="transition.threads">0</property>
    </filter>
    <filter id="filter50" out="00:00:51.240000" in="00:00:43.280000">
      <property name="window">75</property>
      <property name="max_gain">20dB</property>
      <property name="level">-2</property>
      <property name="mlt_service">volume</property>
    </filter>
    <filter id="filter51" out="00:00:51.240000" in="00:00:43.280000">
      <property name="window">75</property>
      <property name="max_gain">20dB</property>
      <property name="mlt_service">volume</property>
      <property name="shotcut:filter">muteVolume</property>
      <property name="gain">0</property>
    </filter>
  </producer>
  <producer id="producer25" title="Anonymous Submission" in="00:00:00.000" out="00:02:58.600">
    <property name="length">00:02:58:16</property>
    <property name="eof">pause</property>
    <property name="resource">../../006 - Videos format youtube/Percussions/Jean-Jacques_percu_totoro.mp4</property>
    <property name="audio_index">1</property>
    <property name="video_index">0</property>
    <property name="mute_on_pause">0</property>
    <property name="mlt_service">avformat-novalidate</property>
    <property name="seekable">1</property>
    <property name="aspect_ratio">1</property>
    <property name="creation_time">2020-04-05T13:32:56</property>
    <property name="shotcut:hash">a1cdbff80b90b0e15755cba1300f6075</property>
    <property name="ignore_points">0</property>
    <property name="shotcut:caption">Jean-Jacques_percu_totoro.mp4</property>
    <property name="shotcut:skipConvert">1</property>
    <property name="global_feed">1</property>
    <property name="xml">was here</property>
    <filter id="filter52" out="00:00:59.240000" in="00:00:51.280000">
      <property name="background">colour:0</property>
      <property name="mlt_service">affine</property>
      <property name="shotcut:filter">affineSizePosition</property>
      <property name="transition.fill">1</property>
      <property name="transition.distort">0</property>
      <property name="transition.rect">548.0 771.0 275.0 155.0 1</property>
      <property name="transition.valign">top</property>
      <property name="transition.halign">left</property>
      <property name="shotcut:animIn">00:00:00.000</property>
      <property name="shotcut:animOut">00:00:00.000</property>
      <property name="transition.threads">0</property>
    </filter>
    <filter id="filter53" out="00:00:59.240000" in="00:00:51.280000">
      <property name="window">75</property>
      <property name="max_gain">20dB</property>
      <property name="level">-2</property>
      <property name="mlt_service">volume</property>
    </filter>
    <filter id="filter54" out="00:00:59.240000" in="00:00:51.280000">
      <property name="window">75</property>
      <property name="max_gain">20dB</property>
      <property name="mlt_service">volume</property>
      <property name="shotcut:filter">muteVolume</property>
      <property name="gain">0</property>
    </filter>
  </producer>
  <producer id="producer26" title="Anonymous Submission" in="00:00:00.000" out="00:02:58.600">
    <property name="length">00:02:58:16</property>
    <property name="eof">pause</property>
    <property name="resource">../../006 - Videos format youtube/Percussions/Jean-Jacques_percu_totoro.mp4</property>
    <property name="audio_index">1</property>
    <property name="video_index">0</property>
    <property name="mute_on_pause">0</property>
    <property name="mlt_service">avformat-novalidate</property>
    <property name="seekable">1</property>
    <property name="aspect_ratio">1</property>
    <property name="creation_time">2020-04-05T13:32:56</property>
    <property name="shotcut:hash">a1cdbff80b90b0e15755cba1300f6075</property>
    <property name="ignore_points">0</property>
    <property name="shotcut:caption">Jean-Jacques_percu_totoro.mp4</property>
    <property name="shotcut:skipConvert">1</property>
    <property name="global_feed">1</property>
    <property name="xml">was here</property>
    <filter id="filter55" out="00:01:06.240000" in="00:00:59.280000">
      <property name="background">colour:0</property>
      <property name="mlt_service">affine</property>
      <property name="shotcut:filter">affineSizePosition</property>
      <property name="transition.fill">1</property>
      <property name="transition.distort">0</property>
      <property name="transition.rect">-1119.0 0.0 321.0 181.0 1</property>
      <property name="transition.valign">top</property>
      <property name="transition.halign">left</property>
      <property name="shotcut:animIn">00:00:00.000</property>
      <property name="shotcut:animOut">00:00:00.000</property>
      <property name="transition.threads">0</property>
    </filter>
    <filter id="filter56" out="00:01:06.240000" in="00:00:59.280000">
      <property name="window">75</property>
      <property name="max_gain">20dB</property>
      <property name="level">-2</property>
      <property name="mlt_service">volume</property>
    </filter>
    <filter id="filter57" out="00:01:06.240000" in="00:00:59.280000">
      <property name="window">75</property>
      <property name="max_gain">20dB</property>
      <property name="mlt_service">volume</property>
      <property name="shotcut:filter">muteVolume</property>
      <property name="gain">0</property>
    </filter>
  </producer>
  <producer id="producer27" title="Anonymous Submission" in="00:00:00.000" out="00:02:58.600">
    <property name="length">00:02:58:16</property>
    <property name="eof">pause</property>
    <property name="resource">../../006 - Videos format youtube/Percussions/Jean-Jacques_percu_totoro.mp4</property>
    <property name="audio_index">1</property>
    <property name="video_index">0</property>
    <property name="mute_on_pause">0</property>
    <property name="mlt_service">avformat-novalidate</property>
    <property name="seekable">1</property>
    <property name="aspect_ratio">1</property>
    <property name="creation_time">2020-04-05T13:32:56</property>
    <property name="shotcut:hash">a1cdbff80b90b0e15755cba1300f6075</property>
    <property name="ignore_points">0</property>
    <property name="shotcut:caption">Jean-Jacques_percu_totoro.mp4</property>
    <property name="shotcut:skipConvert">1</property>
    <property name="global_feed">1</property>
    <property name="xml">was here</property>
    <filter id="filter58" out="00:01:14.240000" in="00:01:06.280000">
      <property name="background">colour:0</property>
      <property name="mlt_service">affine</property>
      <property name="shotcut:filter">affineSizePosition</property>
      <property name="transition.fill">1</property>
      <property name="transition.distort">0</property>
      <property name="transition.rect">640.0 360.0 321.0 181.0 1</property>
      <property name="transition.valign">top</property>
      <property name="transition.halign">left</property>
      <property name="shotcut:animIn">00:00:00.000</property>
      <property name="shotcut:animOut">00:00:00.000</property>
      <property name="transition.threads">0</property>
    </filter>
    <filter id="filter59" out="00:01:14.240000" in="00:01:06.280000">
      <property name="window">75</property>
      <property name="max_gain">20dB</property>
      <property name="level">-2</property>
      <property name="mlt_service">volume</property>
    </filter>
    <filter id="filter60" out="00:01:14.240000" in="00:01:06.280000">
      <property name="window">75</property>
      <property name="max_gain">20dB</property>
      <property name="mlt_service">volume</property>
      <property name="shotcut:filter">muteVolume</property>
      <property name="gain">0</property>
    </filter>
  </producer>
  <producer id="producer28" title="Anonymous Submission" in="00:00:00.000" out="00:02:58.600">
    <property name="length">00:02:58:16</property>
    <property name="eof">pause</property>
    <property name="resource">../../006 - Videos format youtube/Percussions/Jean-Jacques_percu_totoro.mp4</property>
    <property name="audio_index">1</property>
    <property name="video_index">0</property>
    <property name="mute_on_pause">0</property>
    <property name="mlt_service">avformat-novalidate</property>
    <property name="seekable">1</property>
    <property name="aspect_ratio">1</property>
    <property name="creation_time">2020-04-05T13:32:56</property>
    <property name="shotcut:hash">a1cdbff80b90b0e15755cba1300f6075</property>
    <property name="ignore_points">0</property>
    <property name="shotcut:caption">Jean-Jacques_percu_totoro.mp4</property>
    <property name="shotcut:skipConvert">1</property>
    <property name="global_feed">1</property>
    <property name="xml">was here</property>
    <filter id="filter61" out="00:01:23.240000" in="00:01:14.280000">
      <property name="background">colour:0</property>
      <property name="mlt_service">affine</property>
      <property name="shotcut:filter">affineSizePosition</property>
      <property name="transition.fill">1</property>
      <property name="transition.distort">0</property>
      <property name="transition.rect">-822.0 -925.0 275.0 155.0 1</property>
      <property name="transition.valign">top</property>
      <property name="transition.halign">left</property>
      <property name="shotcut:animIn">00:00:00.000</property>
      <property name="shotcut:animOut">00:00:00.000</property>
      <property name="transition.threads">0</property>
    </filter>
    <filter id="filter62" out="00:01:23.240000" in="00:01:14.280000">
      <property name="window">75</property>
      <property name="max_gain">20dB</property>
      <property name="level">-2</property>
      <property name="mlt_service">volume</property>
    </filter>
    <filter id="filter63" out="00:01:23.240000" in="00:01:14.280000">
      <property name="window">75</property>
      <property name="max_gain">20dB</property>
      <property name="mlt_service">volume</property>
      <property name="shotcut:filter">muteVolume</property>
      <property name="gain">0</property>
    </filter>
  </producer>
  <producer id="producer29" title="Anonymous Submission" in="00:00:00.000" out="00:02:58.600">
    <property name="length">00:02:58:16</property>
    <property name="eof">pause</property>
    <property name="resource">../../006 - Videos format youtube/Percussions/Jean-Jacques_percu_totoro.mp4</property>
    <property name="audio_index">1</property>
    <property name="video_index">0</property>
    <property name="mute_on_pause">0</property>
    <property name="mlt_service">avformat-novalidate</property>
    <property name="seekable">1</property>
    <property name="aspect_ratio">1</property>
    <property name="creation_time">2020-04-05T13:32:56</property>
    <property name="shotcut:hash">a1cdbff80b90b0e15755cba1300f6075</property>
    <property name="ignore_points">0</property>
    <property name="shotcut:caption">Jean-Jacques_percu_totoro.mp4</property>
    <property name="shotcut:skipConvert">1</property>
    <property name="global_feed">1</property>
    <property name="xml">was here</property>
    <filter id="filter64" out="00:01:30.240000" in="00:01:23.280000">
      <property name="background">colour:0</property>
      <property name="mlt_service">affine</property>
      <property name="shotcut:filter">affineSizePosition</property>
      <property name="transition.fill">1</property>
      <property name="transition.distort">0</property>
      <property name="transition.rect">822.0 462.0 275.0 155.0 1</property>
      <property name="transition.valign">top</property>
      <property name="transition.halign">left</property>
      <property name="shotcut:animIn">00:00:00.000</property>
      <property name="shotcut:animOut">00:00:00.000</property>
      <property name="transition.threads">0</property>
    </filter>
    <filter id="filter65" out="00:01:30.240000" in="00:01:23.280000">
      <property name="window">75</property>
      <property name="max_gain">20dB</property>
      <property name="level">-2</property>
      <property name="mlt_service">volume</property>
    </filter>
    <filter id="filter66" out="00:01:30.240000" in="00:01:23.280000">
      <property name="window">75</property>
      <property name="max_gain">20dB</property>
      <property name="mlt_service">volume</property>
      <property name="shotcut:filter">muteVolume</property>
      <property name="gain">0</property>
    </filter>
  </producer>
  <producer id="producer30" title="Anonymous Submission" in="00:00:00.000" out="00:02:58.600">
    <property name="length">00:02:58:16</property>
    <property name="eof">pause</property>
    <property name="resource">../../006 - Videos format youtube/Percussions/Jean-Jacques_percu_totoro.mp4</property>
    <property name="audio_index">1</property>
    <property name="video_index">0</property>
    <property name="mute_on_pause">0</property>
    <property name="mlt_service">avformat-novalidate</property>
    <property name="seekable">1</property>
    <property name="aspect_ratio">1</property>
    <property name="creation_time">2020-04-05T13:32:56</property>
    <property name="shotcut:hash">a1cdbff80b90b0e15755cba1300f6075</property>
    <property name="ignore_points">0</property>
    <property name="shotcut:caption">Jean-Jacques_percu_totoro.mp4</property>
    <property name="shotcut:skipConvert">1</property>
    <property name="global_feed">1</property>
    <property name="xml">was here</property>
    <filter id="filter67" out="00:02:58.600000" in="00:01:30.280000">
      <property name="background">colour:0</property>
      <property name="mlt_service">affine</property>
      <property name="shotcut:filter">affineSizePosition</property>
      <property name="transition.fill">1</property>
      <property name="transition.distort">0</property>
      <property name="transition.rect">-1119.0 0.0 321.0 181.0 1</property>
      <property name="transition.valign">top</property>
      <property name="transition.halign">left</property>
      <property name="shotcut:animIn">00:00:00.000</property>
      <property name="shotcut:animOut">00:00:00.000</property>
      <property name="transition.threads">0</property>
    </filter>
    <filter id="filter68" out="00:02:58.600000" in="00:01:30.280000">
      <property name="window">75</property>
      <property name="max_gain">20dB</property>
      <property name="level">-2</property>
      <property name="mlt_service">volume</property>
    </filter>
    <filter id="filter69" out="00:02:58.600000" in="00:01:30.280000">
      <property name="window">75</property>
      <property name="max_gain">20dB</property>
      <property name="mlt_service">volume</property>
      <property name="shotcut:filter">muteVolume</property>
      <property name="gain">0</property>
    </filter>
  </producer>
  <playlist id="playlist3">
    <property name="shotcut:video">1</property>
    <property name="shotcut:name">JJS Percu</property>
    <property name="shotcut:lock">1</property>
    <blank length="00:00:20.720" />
    <entry producer="producer22" in="00:00:00.000" out="00:00:02.240000" />
    <entry producer="producer23" in="00:00:02.280000" out="00:00:43.240000" />
    <entry producer="producer24" in="00:00:43.280000" out="00:00:51.240000" />
    <entry producer="producer25" in="00:00:51.280000" out="00:00:59.240000" />
    <entry producer="producer26" in="00:00:59.280000" out="00:01:06.240000" />
    <entry producer="producer27" in="00:01:06.280000" out="00:01:14.240000" />
    <entry producer="producer28" in="00:01:14.280000" out="00:01:23.240000" />
    <entry producer="producer29" in="00:01:23.280000" out="00:01:30.240000" />
    <entry producer="producer30" in="00:01:30.280000" out="00:02:58.600000" />
    <filter id="filter70" out="00:03:41.520">
      <property name="window">75</property>
      <property name="max_gain">20dB</property>
      <property name="level">-8</property>
      <property name="mlt_service">volume</property>
    </filter>
  </playlist>
  <producer id="producer31" title="Anonymous Submission" in="00:00:00.000" out="00:02:57.280">
    <property name="length">00:02:57:08</property>
    <property name="eof">pause</property>
    <property name="resource">../../006 - Videos format youtube/Chef/Jean-Jacques_chef_lach&#233; prise.mp4</property>
    <property name="audio_index">1</property>
    <property name="video_index">0</property>
    <property name="mute_on_pause">0</property>
    <property name="mlt_service">avformat-novalidate</property>
    <property name="seekable">1</property>
    <property name="aspect_ratio">1</property>
    <property name="shotcut:hash">4af0ab01efd3cc0f2a28e1cc1318c9c1</property>
    <property name="ignore_points">0</property>
    <property name="shotcut:caption">Jean-Jacques_chef_lach&#233; prise.mp4</property>
    <property name="shotcut:skipConvert">1</property>
    <property name="global_feed">1</property>
    <property name="xml">was here</property>
    <filter id="filter71" out="00:00:28.560000">
      <property name="background">colour:0</property>
      <property name="mlt_service">affine</property>
      <property name="shotcut:filter">affineSizePosition</property>
      <property name="transition.fill">1</property>
      <property name="transition.distort">0</property>
      <property name="transition.rect">-274.0 -154.0 275.0 155.0 1</property>
      <property name="transition.valign">top</property>
      <property name="transition.halign">left</property>
      <property name="shotcut:animIn">00:00:00.000</property>
      <property name="shotcut:animOut">00:00:00.000</property>
      <property name="transition.threads">0</property>
    </filter>
    <filter id="filter72" out="00:00:28.560000">
      <property name="window">75</property>
      <property name="max_gain">20dB</property>
      <property name="mlt_service">volume</property>
      <property name="shotcut:filter">muteVolume</property>
      <property name="gain">0</property>
    </filter>
  </producer>
  <producer id="producer32" title="Anonymous Submission" in="00:00:00.000" out="00:02:57.280">
    <property name="length">00:02:57:08</property>
    <property name="eof">pause</property>
    <property name="resource">../../006 - Videos format youtube/Chef/Jean-Jacques_chef_lach&#233; prise.mp4</property>
    <property name="audio_index">1</property>
    <property name="video_index">0</property>
    <property name="mute_on_pause">0</property>
    <property name="mlt_service">avformat-novalidate</property>
    <property name="seekable">1</property>
    <property name="aspect_ratio">1</property>
    <property name="shotcut:hash">4af0ab01efd3cc0f2a28e1cc1318c9c1</property>
    <property name="ignore_points">0</property>
    <property name="shotcut:caption">Jean-Jacques_chef_lach&#233; prise.mp4</property>
    <property name="shotcut:skipConvert">1</property>
    <property name="global_feed">1</property>
    <property name="xml">was here</property>
    <filter id="filter73" out="00:00:31.560000" in="00:00:28.600000">
      <property name="background">colour:0</property>
      <property name="mlt_service">affine</property>
      <property name="shotcut:filter">affineSizePosition</property>
      <property name="transition.fill">1</property>
      <property name="transition.distort">0</property>
      <property name="transition.rect">240.0 135.0 1441.0 811.0 1</property>
      <property name="transition.valign">top</property>
      <property name="transition.halign">left</property>
      <property name="shotcut:animIn">00:00:00.000</property>
      <property name="shotcut:animOut">00:00:00.000</property>
      <property name="transition.threads">0</property>
    </filter>
    <filter id="filter74" out="00:00:31.560000" in="00:00:28.600000">
      <property name="window">75</property>
      <property name="max_gain">20dB</property>
      <property name="mlt_service">volume</property>
      <property name="shotcut:filter">muteVolume</property>
      <property name="gain">0</property>
    </filter>
  </producer>
  <producer id="producer33" title="Anonymous Submission" in="00:00:00.000" out="00:02:57.280">
    <property name="length">00:02:57:08</property>
    <property name="eof">pause</property>
    <property name="resource">../../006 - Videos format youtube/Chef/Jean-Jacques_chef_lach&#233; prise.mp4</property>
    <property name="audio_index">1</property>
    <property name="video_index">0</property>
    <property name="mute_on_pause">0</property>
    <property name="mlt_service">avformat-novalidate</property>
    <property name="seekable">1</property>
    <property name="aspect_ratio">1</property>
    <property name="shotcut:hash">4af0ab01efd3cc0f2a28e1cc1318c9c1</property>
    <property name="ignore_points">0</property>
    <property name="shotcut:caption">Jean-Jacques_chef_lach&#233; prise.mp4</property>
    <property name="shotcut:skipConvert">1</property>
    <property name="global_feed">1</property>
    <property name="xml">was here</property>
    <filter id="filter75" out="00:00:35.560000" in="00:00:31.600000">
      <property name="background">colour:0</property>
      <property name="mlt_service">affine</property>
      <property name="shotcut:filter">affineSizePosition</property>
      <property name="transition.fill">1</property>
      <property name="transition.distort">0</property>
      <property name="transition.rect">2160.0 1215.0 1441.0 811.0 1</property>
      <property name="transition.valign">top</property>
      <property name="transition.halign">left</property>
      <property name="shotcut:animIn">00:00:00.000</property>
      <property name="shotcut:animOut">00:00:00.000</property>
      <property name="transition.threads">0</property>
    </filter>
    <filter id="filter76" out="00:00:35.560000" in="00:00:31.600000">
      <property name="window">75</property>
      <property name="max_gain">20dB</property>
      <property name="mlt_service">volume</property>
      <property name="shotcut:filter">muteVolume</property>
      <property name="gain">0</property>
    </filter>
  </producer>
  <producer id="producer34" title="Anonymous Submission" in="00:00:00.000" out="00:02:57.280">
    <property name="length">00:02:57:08</property>
    <property name="eof">pause</property>
    <property name="resource">../../006 - Videos format youtube/Chef/Jean-Jacques_chef_lach&#233; prise.mp4</property>
    <property name="audio_index">1</property>
    <property name="video_index">0</property>
    <property name="mute_on_pause">0</property>
    <property name="mlt_service">avformat-novalidate</property>
    <property name="seekable">1</property>
    <property name="aspect_ratio">1</property>
    <property name="shotcut:hash">4af0ab01efd3cc0f2a28e1cc1318c9c1</property>
    <property name="ignore_points">0</property>
    <property name="shotcut:caption">Jean-Jacques_chef_lach&#233; prise.mp4</property>
    <property name="shotcut:skipConvert">1</property>
    <property name="global_feed">1</property>
    <property name="xml">was here</property>
    <filter id="filter77" out="00:00:42.560000" in="00:00:35.600000">
      <property name="background">colour:0</property>
      <property name="mlt_service">affine</property>
      <property name="shotcut:filter">affineSizePosition</property>
      <property name="transition.fill">1</property>
      <property name="transition.distort">0</property>
      <property name="transition.rect">240.0 135.0 1441.0 811.0 1</property>
      <property name="transition.valign">top</property>
      <property name="transition.halign">left</property>
      <property name="shotcut:animIn">00:00:00.000</property>
      <property name="shotcut:animOut">00:00:00.000</property>
      <property name="transition.threads">0</property>
    </filter>
    <filter id="filter78" out="00:00:42.560000" in="00:00:35.600000">
      <property name="window">75</property>
      <property name="max_gain">20dB</property>
      <property name="mlt_service">volume</property>
      <property name="shotcut:filter">muteVolume</property>
      <property name="gain">0</property>
    </filter>
  </producer>
  <producer id="producer35" title="Anonymous Submission" in="00:00:00.000" out="00:02:57.280">
    <property name="length">00:02:57:08</property>
    <property name="eof">pause</property>
    <property name="resource">../../006 - Videos format youtube/Chef/Jean-Jacques_chef_lach&#233; prise.mp4</property>
    <property name="audio_index">1</property>
    <property name="video_index">0</property>
    <property name="mute_on_pause">0</property>
    <property name="mlt_service">avformat-novalidate</property>
    <property name="seekable">1</property>
    <property name="aspect_ratio">1</property>
    <property name="shotcut:hash">4af0ab01efd3cc0f2a28e1cc1318c9c1</property>
    <property name="ignore_points">0</property>
    <property name="shotcut:caption">Jean-Jacques_chef_lach&#233; prise.mp4</property>
    <property name="shotcut:skipConvert">1</property>
    <property name="global_feed">1</property>
    <property name="xml">was here</property>
    <filter id="filter79" out="00:00:58.560000" in="00:00:42.600000">
      <property name="background">colour:0</property>
      <property name="mlt_service">affine</property>
      <property name="shotcut:filter">affineSizePosition</property>
      <property name="transition.fill">1</property>
      <property name="transition.distort">0</property>
      <property name="transition.rect">-274.0 -154.0 275.0 155.0 1</property>
      <property name="transition.valign">top</property>
      <property name="transition.halign">left</property>
      <property name="shotcut:animIn">00:00:00.000</property>
      <property name="shotcut:animOut">00:00:00.000</property>
      <property name="transition.threads">0</property>
    </filter>
    <filter id="filter80" out="00:00:58.560000" in="00:00:42.600000">
      <property name="window">75</property>
      <property name="max_gain">20dB</property>
      <property name="mlt_service">volume</property>
      <property name="shotcut:filter">muteVolume</property>
      <property name="gain">0</property>
    </filter>
  </producer>
  <producer id="producer36" title="Anonymous Submission" in="00:00:00.000" out="00:02:57.280">
    <property name="length">00:02:57:08</property>
    <property name="eof">pause</property>
    <property name="resource">../../006 - Videos format youtube/Chef/Jean-Jacques_chef_lach&#233; prise.mp4</property>
    <property name="audio_index">1</property>
    <property name="video_index">0</property>
    <property name="mute_on_pause">0</property>
    <property name="mlt_service">avformat-novalidate</property>
    <property name="seekable">1</property>
    <property name="aspect_ratio">1</property>
    <property name="shotcut:hash">4af0ab01efd3cc0f2a28e1cc1318c9c1</property>
    <property name="ignore_points">0</property>
    <property name="shotcut:caption">Jean-Jacques_chef_lach&#233; prise.mp4</property>
    <property name="shotcut:skipConvert">1</property>
    <property name="global_feed">1</property>
    <property name="xml">was here</property>
    <filter id="filter81" out="00:01:05.560000" in="00:00:58.600000">
      <property name="background">colour:0</property>
      <property name="mlt_service">affine</property>
      <property name="shotcut:filter">affineSizePosition</property>
      <property name="transition.fill">1</property>
      <property name="transition.distort">0</property>
      <property name="transition.rect">-3359.0 0.0 321.0 181.0 1</property>
      <property name="transition.valign">top</property>
      <property name="transition.halign">left</property>
      <property name="shotcut:animIn">00:00:00.000</property>
      <property name="shotcut:animOut">00:00:00.000</property>
      <property name="transition.threads">0</property>
    </filter>
    <filter id="filter82" out="00:01:05.560000" in="00:00:58.600000">
      <property name="window">75</property>
      <property name="max_gain">20dB</property>
      <property name="mlt_service">volume</property>
      <property name="shotcut:filter">muteVolume</property>
      <property name="gain">0</property>
    </filter>
  </producer>
  <producer id="producer37" title="Anonymous Submission" in="00:00:00.000" out="00:02:57.280">
    <property name="length">00:02:57:08</property>
    <property name="eof">pause</property>
    <property name="resource">../../006 - Videos format youtube/Chef/Jean-Jacques_chef_lach&#233; prise.mp4</property>
    <property name="audio_index">1</property>
    <property name="video_index">0</property>
    <property name="mute_on_pause">0</property>
    <property name="mlt_service">avformat-novalidate</property>
    <property name="seekable">1</property>
    <property name="aspect_ratio">1</property>
    <property name="shotcut:hash">4af0ab01efd3cc0f2a28e1cc1318c9c1</property>
    <property name="ignore_points">0</property>
    <property name="shotcut:caption">Jean-Jacques_chef_lach&#233; prise.mp4</property>
    <property name="shotcut:skipConvert">1</property>
    <property name="global_feed">1</property>
    <property name="xml">was here</property>
    <filter id="filter83" out="00:01:13.560000" in="00:01:05.600000">
      <property name="background">colour:0</property>
      <property name="mlt_service">affine</property>
      <property name="shotcut:filter">affineSizePosition</property>
      <property name="transition.fill">1</property>
      <property name="transition.distort">0</property>
      <property name="transition.rect">1280.0 720.0 321.0 181.0 1</property>
      <property name="transition.valign">top</property>
      <property name="transition.halign">left</property>
      <property name="shotcut:animIn">00:00:00.000</property>
      <property name="shotcut:animOut">00:00:00.000</property>
      <property name="transition.threads">0</property>
    </filter>
    <filter id="filter84" out="00:01:13.560000" in="00:01:05.600000">
      <property name="window">75</property>
      <property name="max_gain">20dB</property>
      <property name="mlt_service">volume</property>
      <property name="shotcut:filter">muteVolume</property>
      <property name="gain">0</property>
    </filter>
  </producer>
  <producer id="producer38" title="Anonymous Submission" in="00:00:00.000" out="00:02:57.280">
    <property name="length">00:02:57:08</property>
    <property name="eof">pause</property>
    <property name="resource">../../006 - Videos format youtube/Chef/Jean-Jacques_chef_lach&#233; prise.mp4</property>
    <property name="audio_index">1</property>
    <property name="video_index">0</property>
    <property name="mute_on_pause">0</property>
    <property name="mlt_service">avformat-novalidate</property>
    <property name="seekable">1</property>
    <property name="aspect_ratio">1</property>
    <property name="shotcut:hash">4af0ab01efd3cc0f2a28e1cc1318c9c1</property>
    <property name="ignore_points">0</property>
    <property name="shotcut:caption">Jean-Jacques_chef_lach&#233; prise.mp4</property>
    <property name="shotcut:skipConvert">1</property>
    <property name="global_feed">1</property>
    <property name="xml">was here</property>
    <filter id="filter85" out="00:01:22.560000" in="00:01:13.600000">
      <property name="background">colour:0</property>
      <property name="mlt_service">affine</property>
      <property name="shotcut:filter">affineSizePosition</property>
      <property name="transition.fill">1</property>
      <property name="transition.distort">0</property>
      <property name="transition.rect">-274.0 -154.0 275.0 155.0 1</property>
      <property name="transition.valign">top</property>
      <property name="transition.halign">left</property>
      <property name="shotcut:animIn">00:00:00.000</property>
      <property name="shotcut:animOut">00:00:00.000</property>
      <property name="transition.threads">0</property>
    </filter>
    <filter id="filter86" out="00:01:22.560000" in="00:01:13.600000">
      <property name="window">75</property>
      <property name="max_gain">20dB</property>
      <property name="mlt_service">volume</property>
      <property name="shotcut:filter">muteVolume</property>
      <property name="gain">0</property>
    </filter>
  </producer>
  <producer id="producer39" title="Anonymous Submission" in="00:00:00.000" out="00:02:57.280">
    <property name="length">00:02:57:08</property>
    <property name="eof">pause</property>
    <property name="resource">../../006 - Videos format youtube/Chef/Jean-Jacques_chef_lach&#233; prise.mp4</property>
    <property name="audio_index">1</property>
    <property name="video_index">0</property>
    <property name="mute_on_pause">0</property>
    <property name="mlt_service">avformat-novalidate</property>
    <property name="seekable">1</property>
    <property name="aspect_ratio">1</property>
    <property name="shotcut:hash">4af0ab01efd3cc0f2a28e1cc1318c9c1</property>
    <property name="ignore_points">0</property>
    <property name="shotcut:caption">Jean-Jacques_chef_lach&#233; prise.mp4</property>
    <property name="shotcut:skipConvert">1</property>
    <property name="global_feed">1</property>
    <property name="xml">was here</property>
    <filter id="filter87" out="00:01:29.560000" in="00:01:22.600000">
      <property name="background">colour:0</property>
      <property name="mlt_service">affine</property>
      <property name="shotcut:filter">affineSizePosition</property>
      <property name="transition.fill">1</property>
      <property name="transition.distort">0</property>
      <property name="transition.rect">-274.0 -154.0 275.0 155.0 1</property>
      <property name="transition.valign">top</property>
      <property name="transition.halign">left</property>
      <property name="shotcut:animIn">00:00:00.000</property>
      <property name="shotcut:animOut">00:00:00.000</property>
      <property name="transition.threads">0</property>
    </filter>
    <filter id="filter88" out="00:01:29.560000" in="00:01:22.600000">
      <property name="window">75</property>
      <property name="max_gain">20dB</property>
      <property name="mlt_service">volume</property>
      <property name="shotcut:filter">muteVolume</property>
      <property name="gain">0</property>
    </filter>
  </producer>
  <producer id="producer40" title="Anonymous Submission" in="00:00:00.000" out="00:02:57.280">
    <property name="length">00:02:57:08</property>
    <property name="eof">pause</property>
    <property name="resource">../../006 - Videos format youtube/Chef/Jean-Jacques_chef_lach&#233; prise.mp4</property>
    <property name="audio_index">1</property>
    <property name="video_index">0</property>
    <property name="mute_on_pause">0</property>
    <property name="mlt_service">avformat-novalidate</property>
    <property name="seekable">1</property>
    <property name="aspect_ratio">1</property>
    <property name="shotcut:hash">4af0ab01efd3cc0f2a28e1cc1318c9c1</property>
    <property name="ignore_points">0</property>
    <property name="shotcut:caption">Jean-Jacques_chef_lach&#233; prise.mp4</property>
    <property name="shotcut:skipConvert">1</property>
    <property name="global_feed">1</property>
    <property name="xml">was here</property>
    <filter id="filter89" out="00:02:57.280" in="00:01:29.600000">
      <property name="background">colour:0</property>
      <property name="mlt_service">affine</property>
      <property name="shotcut:filter">affineSizePosition</property>
      <property name="transition.fill">1</property>
      <property name="transition.distort">0</property>
      <property name="transition.rect">-3359.0 0.0 321.0 181.0 1</property>
      <property name="transition.valign">top</property>
      <property name="transition.halign">left</property>
      <property name="shotcut:animIn">00:00:00.000</property>
      <property name="shotcut:animOut">00:00:00.000</property>
      <property name="transition.threads">0</property>
    </filter>
    <filter id="filter90" out="00:02:57.280" in="00:01:29.600000">
      <property name="window">75</property>
      <property name="max_gain">20dB</property>
      <property name="mlt_service">volume</property>
      <property name="shotcut:filter">muteVolume</property>
      <property name="gain">0</property>
    </filter>
  </producer>
  <playlist id="playlist4">
    <property name="shotcut:video">1</property>
    <property name="shotcut:name">JJS lach&#233; prise</property>
    <property name="shotcut:lock">1</property>
    <blank length="00:00:21.400" />
    <entry producer="producer31" in="00:00:00.000" out="00:00:28.560000" />
  <entry producer="producer32" in="00:00:28.600000" out="00:00:31.560000" />
  <entry producer="producer33" in="00:00:31.600000" out="00:00:35.560000" />
  <entry producer="producer34" in="00:00:35.600000" out="00:00:42.560000" />
  <entry producer="producer35" in="00:00:42.600000" out="00:00:58.560000" />
  <entry producer="producer36" in="00:00:58.600000" out="00:01:05.560000" />
  <entry producer="producer37" in="00:01:05.600000" out="00:01:13.560000" />
  <entry producer="producer38" in="00:01:13.600000" out="00:01:22.560000" />
  <entry producer="producer39" in="00:01:22.600000" out="00:01:29.560000" />
  <entry producer="producer40" in="00:01:29.600000" out="00:02:57.280" />
  </playlist>
  <producer id="producer41" title="Anonymous Submission" in="00:00:00.000" out="00:03:16.800">
    <property name="length">00:03:16:21</property>
    <property name="eof">pause</property>
    <property name="resource">../../006 - Videos format youtube/Percussions/Alizee_piano_totoro.mp4</property>
    <property name="audio_index">1</property>
    <property name="video_index">0</property>
    <property name="mute_on_pause">0</property>
    <property name="mlt_service">avformat-novalidate</property>
    <property name="seekable">1</property>
    <property name="aspect_ratio">1</property>
    <property name="creation_time">2020-04-18T16:05:16</property>
    <property name="shotcut:hash">a1e6a8a71a5f1a2680d6075bfdc34382</property>
    <property name="ignore_points">0</property>
    <property name="shotcut:caption">Alizee_piano_totoro.mp4</property>
    <property name="shotcut:skipConvert">1</property>
    <property name="global_feed">1</property>
    <property name="xml">was here</property>
    <filter id="filter91" out="00:00:17.960000">
      <property name="background">colour:0</property>
      <property name="mlt_service">affine</property>
      <property name="shotcut:filter">affineSizePosition</property>
      <property name="transition.fill">1</property>
      <property name="transition.distort">0</property>
      <property name="transition.rect">1097.0 771.0 275.0 155.0 1</property>
      <property name="transition.valign">top</property>
      <property name="transition.halign">left</property>
      <property name="shotcut:animIn">00:00:00.000</property>
      <property name="shotcut:animOut">00:00:00.000</property>
      <property name="transition.threads">0</property>
    </filter>
  </producer>
  <producer id="producer42" title="Anonymous Submission" in="00:00:00.000" out="00:03:16.800">
    <property name="length">00:03:16:21</property>
    <property name="eof">pause</property>
    <property name="resource">../../006 - Videos format youtube/Percussions/Alizee_piano_totoro.mp4</property>
    <property name="audio_index">1</property>
    <property name="video_index">0</property>
    <property name="mute_on_pause">0</property>
    <property name="mlt_service">avformat-novalidate</property>
    <property name="seekable">1</property>
    <property name="aspect_ratio">1</property>
    <property name="creation_time">2020-04-18T16:05:16</property>
    <property name="shotcut:hash">a1e6a8a71a5f1a2680d6075bfdc34382</property>
    <property name="ignore_points">0</property>
    <property name="shotcut:caption">Alizee_piano_totoro.mp4</property>
    <property name="shotcut:skipConvert">1</property>
    <property name="global_feed">1</property>
    <property name="xml">was here</property>
    <filter id="filter92" out="00:00:24.960000" in="00:00:18.000000">
      <property name="background">colour:0</property>
      <property name="mlt_service">affine</property>
      <property name="shotcut:filter">affineSizePosition</property>
      <property name="transition.fill">1</property>
      <property name="transition.distort">0</property>
      <property name="transition.rect">00:00:00.000000=1097.0 771.0 276.0 155.0 1;00:00:00.440000=1371.0 925.0 275.0 155.0 1</property>
      <property name="transition.valign">top</property>
      <property name="transition.halign">left</property>
      <property name="shotcut:animIn">00:00:00.480000</property>
      <property name="shotcut:animOut">00:00:00.000</property>
      <property name="transition.threads">0</property>
    </filter>
  </producer>
  <producer id="producer43" title="Anonymous Submission" in="00:00:00.000" out="00:03:16.800">
    <property name="length">00:03:16:21</property>
    <property name="eof">pause</property>
    <property name="resource">../../006 - Videos format youtube/Percussions/Alizee_piano_totoro.mp4</property>
    <property name="audio_index">1</property>
    <property name="video_index">0</property>
    <property name="mute_on_pause">0</property>
    <property name="mlt_service">avformat-novalidate</property>
    <property name="seekable">1</property>
    <property name="aspect_ratio">1</property>
    <property name="creation_time">2020-04-18T16:05:16</property>
    <property name="shotcut:hash">a1e6a8a71a5f1a2680d6075bfdc34382</property>
    <property name="ignore_points">0</property>
    <property name="shotcut:caption">Alizee_piano_totoro.mp4</property>
    <property name="shotcut:skipConvert">1</property>
    <property name="global_feed">1</property>
    <property name="xml">was here</property>
    <filter id="filter93" out="00:00:58.960000" in="00:00:25.000000">
      <property name="background">colour:0</property>
      <property name="mlt_service">affine</property>
      <property name="shotcut:filter">affineSizePosition</property>
      <property name="transition.fill">1</property>
      <property name="transition.distort">0</property>
      <property name="transition.rect">-480.0 -270.0 241.0 136.0 1</property>
      <property name="transition.valign">top</property>
      <property name="transition.halign">left</property>
      <property name="shotcut:animIn">00:00:00.480000</property>
      <property name="shotcut:animOut">00:00:00.000</property>
      <property name="transition.threads">0</property>
    </filter>
  </producer>
  <producer id="producer44" title="Anonymous Submission" in="00:00:00.000" out="00:03:16.800">
    <property name="length">00:03:16:21</property>
    <property name="eof">pause</property>
    <property name="resource">../../006 - Videos format youtube/Percussions/Alizee_piano_totoro.mp4</property>
    <property name="audio_index">1</property>
    <property name="video_index">0</property>
    <property name="mute_on_pause">0</property>
    <property name="mlt_service">avformat-novalidate</property>
    <property name="seekable">1</property>
    <property name="aspect_ratio">1</property>
    <property name="creation_time">2020-04-18T16:05:16</property>
    <property name="shotcut:hash">a1e6a8a71a5f1a2680d6075bfdc34382</property>
    <property name="ignore_points">0</property>
    <property name="shotcut:caption">Alizee_piano_totoro.mp4</property>
    <property name="shotcut:skipConvert">1</property>
    <property name="global_feed">1</property>
    <property name="xml">was here</property>
    <filter id="filter94" out="00:01:14.960000" in="00:00:59.000000">
      <property name="background">colour:0</property>
      <property name="mlt_service">affine</property>
      <property name="shotcut:filter">affineSizePosition</property>
      <property name="transition.fill">1</property>
      <property name="transition.distort">0</property>
      <property name="transition.rect">-1097.0 -617.0 275.0 155.0 1</property>
      <property name="transition.valign">top</property>
      <property name="transition.halign">left</property>
      <property name="shotcut:animIn">00:00:00.480000</property>
      <property name="shotcut:animOut">00:00:00.000</property>
      <property name="transition.threads">0</property>
    </filter>
  </producer>
  <producer id="producer45" title="Anonymous Submission" in="00:00:00.000" out="00:03:16.800">
    <property name="length">00:03:16:21</property>
    <property name="eof">pause</property>
    <property name="resource">../../006 - Videos format youtube/Percussions/Alizee_piano_totoro.mp4</property>
    <property name="audio_index">1</property>
    <property name="video_index">0</property>
    <property name="mute_on_pause">0</property>
    <property name="mlt_service">avformat-novalidate</property>
    <property name="seekable">1</property>
    <property name="aspect_ratio">1</property>
    <property name="creation_time">2020-04-18T16:05:16</property>
    <property name="shotcut:hash">a1e6a8a71a5f1a2680d6075bfdc34382</property>
    <property name="ignore_points">0</property>
    <property name="shotcut:caption">Alizee_piano_totoro.mp4</property>
    <property name="shotcut:skipConvert">1</property>
    <property name="global_feed">1</property>
    <property name="xml">was here</property>
    <filter id="filter95" out="00:01:21.960000" in="00:01:15.000000">
      <property name="background">colour:0</property>
      <property name="mlt_service">affine</property>
      <property name="shotcut:filter">affineSizePosition</property>
      <property name="transition.fill">1</property>
      <property name="transition.distort">0</property>
      <property name="transition.rect">640.0 360.0 321.0 181.0 1</property>
      <property name="transition.valign">top</property>
      <property name="transition.halign">left</property>
      <property name="shotcut:animIn">00:00:00.480000</property>
      <property name="shotcut:animOut">00:00:00.000</property>
      <property name="transition.threads">0</property>
    </filter>
  </producer>
  <producer id="producer46" title="Anonymous Submission" in="00:00:00.000" out="00:03:16.800">
    <property name="length">00:03:16:21</property>
    <property name="eof">pause</property>
    <property name="resource">../../006 - Videos format youtube/Percussions/Alizee_piano_totoro.mp4</property>
    <property name="audio_index">1</property>
    <property name="video_index">0</property>
    <property name="mute_on_pause">0</property>
    <property name="mlt_service">avformat-novalidate</property>
    <property name="seekable">1</property>
    <property name="aspect_ratio">1</property>
    <property name="creation_time">2020-04-18T16:05:16</property>
    <property name="shotcut:hash">a1e6a8a71a5f1a2680d6075bfdc34382</property>
    <property name="ignore_points">0</property>
    <property name="shotcut:caption">Alizee_piano_totoro.mp4</property>
    <property name="shotcut:skipConvert">1</property>
    <property name="global_feed">1</property>
    <property name="xml">was here</property>
    <filter id="filter96" out="00:01:29.960000" in="00:01:22.000000">
      <property name="background">colour:0</property>
      <property name="mlt_service">affine</property>
      <property name="shotcut:filter">affineSizePosition</property>
      <property name="transition.fill">1</property>
      <property name="transition.distort">0</property>
      <property name="transition.rect">320.0 360.0 321.0 181.0 1</property>
      <property name="transition.valign">top</property>
      <property name="transition.halign">left</property>
      <property name="shotcut:animIn">00:00:00.480000</property>
      <property name="shotcut:animOut">00:00:00.000</property>
      <property name="transition.threads">0</property>
    </filter>
  </producer>
  <producer id="producer47" title="Anonymous Submission" in="00:00:00.000" out="00:03:16.800">
    <property name="length">00:03:16:21</property>
    <property name="eof">pause</property>
    <property name="resource">../../006 - Videos format youtube/Percussions/Alizee_piano_totoro.mp4</property>
    <property name="audio_index">1</property>
    <property name="video_index">0</property>
    <property name="mute_on_pause">0</property>
    <property name="mlt_service">avformat-novalidate</property>
    <property name="seekable">1</property>
    <property name="aspect_ratio">1</property>
    <property name="creation_time">2020-04-18T16:05:16</property>
    <property name="shotcut:hash">a1e6a8a71a5f1a2680d6075bfdc34382</property>
    <property name="ignore_points">0</property>
    <property name="shotcut:caption">Alizee_piano_totoro.mp4</property>
    <property name="shotcut:skipConvert">1</property>
    <property name="global_feed">1</property>
    <property name="xml">was here</property>
    <filter id="filter97" out="00:01:38.960000" in="00:01:30.000000">
      <property name="background">colour:0</property>
      <property name="mlt_service">affine</property>
      <property name="shotcut:filter">affineSizePosition</property>
      <property name="transition.fill">1</property>
      <property name="transition.distort">0</property>
      <property name="transition.rect">-548.0 -308.0 275.0 155.0 1</property>
      <property name="transition.valign">top</property>
      <property name="transition.halign">left</property>
      <property name="shotcut:animIn">00:00:00.480000</property>
      <property name="shotcut:animOut">00:00:00.000</property>
      <property name="transition.threads">0</property>
    </filter>
  </producer>
  <producer id="producer48" title="Anonymous Submission" in="00:00:00.000" out="00:03:16.800">
    <property name="length">00:03:16:21</property>
    <property name="eof">pause</property>
    <property name="resource">../../006 - Videos format youtube/Percussions/Alizee_piano_totoro.mp4</property>
    <property name="audio_index">1</property>
    <property name="video_index">0</property>
    <property name="mute_on_pause">0</property>
    <property name="mlt_service">avformat-novalidate</property>
    <property name="seekable">1</property>
    <property name="aspect_ratio">1</property>
    <property name="creation_time">2020-04-18T16:05:16</property>
    <property name="shotcut:hash">a1e6a8a71a5f1a2680d6075bfdc34382</property>
    <property name="ignore_points">0</property>
    <property name="shotcut:caption">Alizee_piano_totoro.mp4</property>
    <property name="shotcut:skipConvert">1</property>
    <property name="global_feed">1</property>
    <property name="xml">was here</property>
    <filter id="filter98" out="00:01:45.960000" in="00:01:39.000000">
      <property name="background">colour:0</property>
      <property name="mlt_service">affine</property>
      <property name="shotcut:filter">affineSizePosition</property>
      <property name="transition.fill">1</property>
      <property name="transition.distort">0</property>
      <property name="transition.rect">-548.0 -308.0 275.0 155.0 1</property>
      <property name="transition.valign">top</property>
      <property name="transition.halign">left</property>
      <property name="shotcut:animIn">00:00:00.480000</property>
      <property name="shotcut:animOut">00:00:00.000</property>
      <property name="transition.threads">0</property>
    </filter>
  </producer>
  <producer id="producer49" title="Anonymous Submission" in="00:00:00.000" out="00:03:16.800">
    <property name="length">00:03:16:21</property>
    <property name="eof">pause</property>
    <property name="resource">../../006 - Videos format youtube/Percussions/Alizee_piano_totoro.mp4</property>
    <property name="audio_index">1</property>
    <property name="video_index">0</property>
    <property name="mute_on_pause">0</property>
    <property name="mlt_service">avformat-novalidate</property>
    <property name="seekable">1</property>
    <property name="aspect_ratio">1</property>
    <property name="creation_time">2020-04-18T16:05:16</property>
    <property name="shotcut:hash">a1e6a8a71a5f1a2680d6075bfdc34382</property>
    <property name="ignore_points">0</property>
    <property name="shotcut:caption">Alizee_piano_totoro.mp4</property>
    <property name="shotcut:skipConvert">1</property>
    <property name="global_feed">1</property>
    <property name="xml">was here</property>
    <filter id="filter99" out="00:03:16.800000" in="00:01:46.000000">
      <property name="background">colour:0</property>
      <property name="mlt_service">affine</property>
      <property name="shotcut:filter">affineSizePosition</property>
      <property name="transition.fill">1</property>
      <property name="transition.distort">0</property>
      <property name="transition.rect">0.0 0.0 641.0 361.0 1</property>
      <property name="transition.valign">top</property>
      <property name="transition.halign">left</property>
      <property name="shotcut:animIn">00:00:00.480000</property>
      <property name="shotcut:animOut">00:00:00.000</property>
      <property name="transition.threads">0</property>
    </filter>
  </producer>
  <playlist id="playlist5">
    <property name="shotcut:video">1</property>
    <property name="shotcut:name">Alizee</property>
    <property name="shotcut:lock">1</property>
    <blank length="00:00:05.000" />
    <entry producer="producer41" in="00:00:00.000" out="00:00:17.960000" />
    <entry producer="producer42" in="00:00:18.000000" out="00:00:24.960000" />
    <entry producer="producer43" in="00:00:25.000000" out="00:00:58.960000" />
    <entry producer="producer44" in="00:00:59.000000" out="00:01:14.960000" />
    <entry producer="producer45" in="00:01:15.000000" out="00:01:21.960000" />
    <entry producer="producer46" in="00:01:22.000000" out="00:01:29.960000" />
    <entry producer="producer47" in="00:01:30.000000" out="00:01:38.960000" />
    <entry producer="producer48" in="00:01:39.000000" out="00:01:45.960000" />
    <entry producer="producer49" in="00:01:46.000000" out="00:03:16.800000" />
    <filter id="filter100" out="00:03:41.520">
      <property name="window">75</property>
      <property name="max_gain">20dB</property>
      <property name="level">-6</property>
      <property name="mlt_service">volume</property>
    </filter>
  </playlist>
  <producer id="producer50" title="Anonymous Submission" in="00:00:00.000" out="00:03:21.840">
    <property name="length">00:03:21:22</property>
    <property name="eof">pause</property>
    <property name="resource">../../006 - Videos format youtube/Euphonium/Bidou_euphonium_totoro.mp4</property>
    <property name="audio_index">1</property>
    <property name="video_index">0</property>
    <property name="mute_on_pause">0</property>
    <property name="mlt_service">avformat-novalidate</property>
    <property name="seekable">1</property>
    <property name="aspect_ratio">1</property>
    <property name="creation_time">2020-04-05T19:40:16</property>
    <property name="shotcut:hash">c61ed928d3936826431ae6103cd9bcfd</property>
    <property name="ignore_points">0</property>
    <property name="shotcut:caption">Bidou_euphonium_totoro.mp4</property>
    <property name="shotcut:skipConvert">1</property>
    <property name="global_feed">1</property>
    <property name="xml">was here</property>
    <filter id="filter101" out="00:00:22.920000">
      <property name="background">colour:0</property>
      <property name="mlt_service">affine</property>
      <property name="shotcut:filter">affineSizePosition</property>
      <property name="transition.fill">1</property>
      <property name="transition.distort">0</property>
      <property name="transition.rect">-1645.0 -925.0 275.0 155.0 1</property>
      <property name="transition.valign">top</property>
      <property name="transition.halign">left</property>
      <property name="shotcut:animIn">00:00:00.000</property>
      <property name="shotcut:animOut">00:00:00.000</property>
      <property name="transition.threads">0</property>
    </filter>
    <filter id="filter102" out="00:00:22.920000">
      <property name="window">75</property>
      <property name="max_gain">20dB</property>
      <property name="mlt_service">volume</property>
      <property name="shotcut:filter">muteVolume</property>
      <property name="gain">0</property>
    </filter>
  </producer>
  <producer id="producer51" title="Anonymous Submission" in="00:00:00.000" out="00:03:21.840">
    <property name="length">00:03:21:22</property>
    <property name="eof">pause</property>
    <property name="resource">../../006 - Videos format youtube/Euphonium/Bidou_euphonium_totoro.mp4</property>
    <property name="audio_index">1</property>
    <property name="video_index">0</property>
    <property name="mute_on_pause">0</property>
    <property name="mlt_service">avformat-novalidate</property>
    <property name="seekable">1</property>
    <property name="aspect_ratio">1</property>
    <property name="creation_time">2020-04-05T19:40:16</property>
    <property name="shotcut:hash">c61ed928d3936826431ae6103cd9bcfd</property>
    <property name="ignore_points">0</property>
    <property name="shotcut:caption">Bidou_euphonium_totoro.mp4</property>
    <property name="shotcut:skipConvert">1</property>
    <property name="global_feed">1</property>
    <property name="xml">was here</property>
    <filter id="filter103" out="00:00:29.920000" in="00:00:22.960000">
      <property name="background">colour:0</property>
      <property name="mlt_service">affine</property>
      <property name="shotcut:filter">affineSizePosition</property>
      <property name="transition.fill">1</property>
      <property name="transition.distort">0</property>
      <property name="transition.rect">00:00:00.000000=-1645.0 -925.0 276.0 155.0 1;00:00:00.440000=822.0 771.0 275.0 155.0 1</property>
      <property name="transition.valign">top</property>
      <property name="transition.halign">left</property>
      <property name="shotcut:animIn">00:00:00.480000</property>
      <property name="shotcut:animOut">00:00:00.000</property>
      <property name="transition.threads">0</property>
    </filter>
    <filter id="filter104" out="00:00:29.920000" in="00:00:22.960000">
      <property name="window">75</property>
      <property name="max_gain">20dB</property>
      <property name="mlt_service">volume</property>
      <property name="shotcut:filter">muteVolume</property>
      <property name="gain">0</property>
    </filter>
  </producer>
  <producer id="producer52" title="Anonymous Submission" in="00:00:00.000" out="00:03:21.840">
    <property name="length">00:03:21:22</property>
    <property name="eof">pause</property>
    <property name="resource">../../006 - Videos format youtube/Euphonium/Bidou_euphonium_totoro.mp4</property>
    <property name="audio_index">1</property>
    <property name="video_index">0</property>
    <property name="mute_on_pause">0</property>
    <property name="mlt_service">avformat-novalidate</property>
    <property name="seekable">1</property>
    <property name="aspect_ratio">1</property>
    <property name="creation_time">2020-04-05T19:40:16</property>
    <property name="shotcut:hash">c61ed928d3936826431ae6103cd9bcfd</property>
    <property name="ignore_points">0</property>
    <property name="shotcut:caption">Bidou_euphonium_totoro.mp4</property>
    <property name="shotcut:skipConvert">1</property>
    <property name="global_feed">1</property>
    <property name="xml">was here</property>
    <filter id="filter105" out="00:01:03.920000" in="00:00:29.960000">
      <property name="background">colour:0</property>
      <property name="mlt_service">affine</property>
      <property name="shotcut:filter">affineSizePosition</property>
      <property name="transition.fill">1</property>
      <property name="transition.distort">0</property>
      <property name="transition.rect">-480.0 -270.0 241.0 136.0 1</property>
      <property name="transition.valign">top</property>
      <property name="transition.halign">left</property>
      <property name="shotcut:animIn">00:00:00.480000</property>
      <property name="shotcut:animOut">00:00:00.000</property>
      <property name="transition.threads">0</property>
    </filter>
    <filter id="filter106" out="00:01:03.920000" in="00:00:29.960000">
      <property name="window">75</property>
      <property name="max_gain">20dB</property>
      <property name="mlt_service">volume</property>
      <property name="shotcut:filter">muteVolume</property>
      <property name="gain">0</property>
    </filter>
  </producer>
  <producer id="producer53" title="Anonymous Submission" in="00:00:00.000" out="00:03:21.840">
    <property name="length">00:03:21:22</property>
    <property name="eof">pause</property>
    <property name="resource">../../006 - Videos format youtube/Euphonium/Bidou_euphonium_totoro.mp4</property>
    <property name="audio_index">1</property>
    <property name="video_index">0</property>
    <property name="mute_on_pause">0</property>
    <property name="mlt_service">avformat-novalidate</property>
    <property name="seekable">1</property>
    <property name="aspect_ratio">1</property>
    <property name="creation_time">2020-04-05T19:40:16</property>
    <property name="shotcut:hash">c61ed928d3936826431ae6103cd9bcfd</property>
    <property name="ignore_points">0</property>
    <property name="shotcut:caption">Bidou_euphonium_totoro.mp4</property>
    <property name="shotcut:skipConvert">1</property>
    <property name="global_feed">1</property>
    <property name="xml">was here</property>
    <filter id="filter107" out="00:01:19.920000" in="00:01:03.960000">
      <property name="background">colour:0</property>
      <property name="mlt_service">affine</property>
      <property name="shotcut:filter">affineSizePosition</property>
      <property name="transition.fill">1</property>
      <property name="transition.distort">0</property>
      <property name="transition.rect">-1645.0 -925.0 275.0 155.0 1</property>
      <property name="transition.valign">top</property>
      <property name="transition.halign">left</property>
      <property name="shotcut:animIn">00:00:00.480000</property>
      <property name="shotcut:animOut">00:00:00.000</property>
      <property name="transition.threads">0</property>
    </filter>
    <filter id="filter108" out="00:01:19.920000" in="00:01:03.960000">
      <property name="window">75</property>
      <property name="max_gain">20dB</property>
      <property name="mlt_service">volume</property>
      <property name="shotcut:filter">muteVolume</property>
      <property name="gain">0</property>
    </filter>
  </producer>
  <producer id="producer54" title="Anonymous Submission" in="00:00:00.000" out="00:03:21.840">
    <property name="length">00:03:21:22</property>
    <property name="eof">pause</property>
    <property name="resource">../../006 - Videos format youtube/Euphonium/Bidou_euphonium_totoro.mp4</property>
    <property name="audio_index">1</property>
    <property name="video_index">0</property>
    <property name="mute_on_pause">0</property>
    <property name="mlt_service">avformat-novalidate</property>
    <property name="seekable">1</property>
    <property name="aspect_ratio">1</property>
    <property name="creation_time">2020-04-05T19:40:16</property>
    <property name="shotcut:hash">c61ed928d3936826431ae6103cd9bcfd</property>
    <property name="ignore_points">0</property>
    <property name="shotcut:caption">Bidou_euphonium_totoro.mp4</property>
    <property name="shotcut:skipConvert">1</property>
    <property name="global_feed">1</property>
    <property name="xml">was here</property>
    <filter id="filter109" out="00:01:26.920000" in="00:01:19.960000">
      <property name="background">colour:0</property>
      <property name="mlt_service">affine</property>
      <property name="shotcut:filter">affineSizePosition</property>
      <property name="transition.fill">1</property>
      <property name="transition.distort">0</property>
      <property name="transition.rect">960.0 180.0 321.0 181.0 1</property>
      <property name="transition.valign">top</property>
      <property name="transition.halign">left</property>
      <property name="shotcut:animIn">00:00:00.480000</property>
      <property name="shotcut:animOut">00:00:00.000</property>
      <property name="transition.threads">0</property>
    </filter>
    <filter id="filter110" out="00:01:26.920000" in="00:01:19.960000">
      <property name="window">75</property>
      <property name="max_gain">20dB</property>
      <property name="mlt_service">volume</property>
      <property name="shotcut:filter">muteVolume</property>
      <property name="gain">0</property>
    </filter>
  </producer>
  <producer id="producer55" title="Anonymous Submission" in="00:00:00.000" out="00:03:21.840">
    <property name="length">00:03:21:22</property>
    <property name="eof">pause</property>
    <property name="resource">../../006 - Videos format youtube/Euphonium/Bidou_euphonium_totoro.mp4</property>
    <property name="audio_index">1</property>
    <property name="video_index">0</property>
    <property name="mute_on_pause">0</property>
    <property name="mlt_service">avformat-novalidate</property>
    <property name="seekable">1</property>
    <property name="aspect_ratio">1</property>
    <property name="creation_time">2020-04-05T19:40:16</property>
    <property name="shotcut:hash">c61ed928d3936826431ae6103cd9bcfd</property>
    <property name="ignore_points">0</property>
    <property name="shotcut:caption">Bidou_euphonium_totoro.mp4</property>
    <property name="shotcut:skipConvert">1</property>
    <property name="global_feed">1</property>
    <property name="xml">was here</property>
    <filter id="filter111" out="00:01:34.920000" in="00:01:26.960000">
      <property name="background">colour:0</property>
      <property name="mlt_service">affine</property>
      <property name="shotcut:filter">affineSizePosition</property>
      <property name="transition.fill">1</property>
      <property name="transition.distort">0</property>
      <property name="transition.rect">1600.0 720.0 321.0 181.0 1</property>
      <property name="transition.valign">top</property>
      <property name="transition.halign">left</property>
      <property name="shotcut:animIn">00:00:00.480000</property>
      <property name="shotcut:animOut">00:00:00.000</property>
      <property name="transition.threads">0</property>
    </filter>
    <filter id="filter112" out="00:01:34.920000" in="00:01:26.960000">
      <property name="window">75</property>
      <property name="max_gain">20dB</property>
      <property name="mlt_service">volume</property>
      <property name="shotcut:filter">muteVolume</property>
      <property name="gain">0</property>
    </filter>
  </producer>
  <producer id="producer56" title="Anonymous Submission" in="00:00:00.000" out="00:03:21.840">
    <property name="length">00:03:21:22</property>
    <property name="eof">pause</property>
    <property name="resource">../../006 - Videos format youtube/Euphonium/Bidou_euphonium_totoro.mp4</property>
    <property name="audio_index">1</property>
    <property name="video_index">0</property>
    <property name="mute_on_pause">0</property>
    <property name="mlt_service">avformat-novalidate</property>
    <property name="seekable">1</property>
    <property name="aspect_ratio">1</property>
    <property name="creation_time">2020-04-05T19:40:16</property>
    <property name="shotcut:hash">c61ed928d3936826431ae6103cd9bcfd</property>
    <property name="ignore_points">0</property>
    <property name="shotcut:caption">Bidou_euphonium_totoro.mp4</property>
    <property name="shotcut:skipConvert">1</property>
    <property name="global_feed">1</property>
    <property name="xml">was here</property>
    <filter id="filter113" out="00:01:43.920000" in="00:01:34.960000">
      <property name="background">colour:0</property>
      <property name="mlt_service">affine</property>
      <property name="shotcut:filter">affineSizePosition</property>
      <property name="transition.fill">1</property>
      <property name="transition.distort">0</property>
      <property name="transition.rect">822.0 0.0 823.0 463.0 1</property>
      <property name="transition.valign">top</property>
      <property name="transition.halign">left</property>
      <property name="shotcut:animIn">00:00:00.480000</property>
      <property name="shotcut:animOut">00:00:00.000</property>
      <property name="transition.threads">0</property>
    </filter>
    <filter id="filter114" out="00:01:43.920000" in="00:01:34.960000">
      <property name="window">75</property>
      <property name="max_gain">20dB</property>
      <property name="mlt_service">volume</property>
      <property name="shotcut:filter">muteVolume</property>
      <property name="gain">0</property>
    </filter>
  </producer>
  <producer id="producer57" title="Anonymous Submission" in="00:00:00.000" out="00:03:21.840">
    <property name="length">00:03:21:22</property>
    <property name="eof">pause</property>
    <property name="resource">../../006 - Videos format youtube/Euphonium/Bidou_euphonium_totoro.mp4</property>
    <property name="audio_index">1</property>
    <property name="video_index">0</property>
    <property name="mute_on_pause">0</property>
    <property name="mlt_service">avformat-novalidate</property>
    <property name="seekable">1</property>
    <property name="aspect_ratio">1</property>
    <property name="creation_time">2020-04-05T19:40:16</property>
    <property name="shotcut:hash">c61ed928d3936826431ae6103cd9bcfd</property>
    <property name="ignore_points">0</property>
    <property name="shotcut:caption">Bidou_euphonium_totoro.mp4</property>
    <property name="shotcut:skipConvert">1</property>
    <property name="global_feed">1</property>
    <property name="xml">was here</property>
    <filter id="filter115" out="00:01:50.920000" in="00:01:43.960000">
      <property name="background">colour:0</property>
      <property name="mlt_service">affine</property>
      <property name="shotcut:filter">affineSizePosition</property>
      <property name="transition.fill">1</property>
      <property name="transition.distort">0</property>
      <property name="transition.rect">-548.0 -308.0 275.0 155.0 1</property>
      <property name="transition.valign">top</property>
      <property name="transition.halign">left</property>
      <property name="shotcut:animIn">00:00:00.480000</property>
      <property name="shotcut:animOut">00:00:00.000</property>
      <property name="transition.threads">0</property>
    </filter>
    <filter id="filter116" out="00:01:50.920000" in="00:01:43.960000">
      <property name="window">75</property>
      <property name="max_gain">20dB</property>
      <property name="mlt_service">volume</property>
      <property name="shotcut:filter">muteVolume</property>
      <property name="gain">0</property>
    </filter>
  </producer>
  <producer id="producer58" title="Anonymous Submission" in="00:00:00.000" out="00:03:21.840">
    <property name="length">00:03:21:22</property>
    <property name="eof">pause</property>
    <property name="resource">../../006 - Videos format youtube/Euphonium/Bidou_euphonium_totoro.mp4</property>
    <property name="audio_index">1</property>
    <property name="video_index">0</property>
    <property name="mute_on_pause">0</property>
    <property name="mlt_service">avformat-novalidate</property>
    <property name="seekable">1</property>
    <property name="aspect_ratio">1</property>
    <property name="creation_time">2020-04-05T19:40:16</property>
    <property name="shotcut:hash">c61ed928d3936826431ae6103cd9bcfd</property>
    <property name="ignore_points">0</property>
    <property name="shotcut:caption">Bidou_euphonium_totoro.mp4</property>
    <property name="shotcut:skipConvert">1</property>
    <property name="global_feed">1</property>
    <property name="xml">was here</property>
    <filter id="filter117" out="00:03:21.840000" in="00:01:50.960000">
      <property name="background">colour:0</property>
      <property name="mlt_service">affine</property>
      <property name="shotcut:filter">affineSizePosition</property>
      <property name="transition.fill">1</property>
      <property name="transition.distort">0</property>
      <property name="transition.rect">-640.0 -360.0 321.0 181.0 1</property>
      <property name="transition.valign">top</property>
      <property name="transition.halign">left</property>
      <property name="shotcut:animIn">00:00:00.480000</property>
      <property name="shotcut:animOut">00:00:00.000</property>
      <property name="transition.threads">0</property>
    </filter>
    <filter id="filter118" out="00:03:21.840000" in="00:01:50.960000">
      <property name="window">75</property>
      <property name="max_gain">20dB</property>
      <property name="mlt_service">volume</property>
      <property name="shotcut:filter">muteVolume</property>
      <property name="gain">0</property>
    </filter>
  </producer>
  <playlist id="playlist6">
    <property name="shotcut:video">1</property>
    <property name="shotcut:name">Bidou_euphonium</property>
    <property name="shotcut:lock">1</property>
    <blank length="00:00:00.040" />
    <entry producer="producer50" in="00:00:00.000" out="00:00:22.920000" />
    <entry producer="producer51" in="00:00:22.960000" out="00:00:29.920000" />
    <entry producer="producer52" in="00:00:29.960000" out="00:01:03.920000" />
    <entry producer="producer53" in="00:01:03.960000" out="00:01:19.920000" />
    <entry producer="producer54" in="00:01:19.960000" out="00:01:26.920000" />
    <entry producer="producer55" in="00:01:26.960000" out="00:01:34.920000" />
    <entry producer="producer56" in="00:01:34.960000" out="00:01:43.920000" />
    <entry producer="producer57" in="00:01:43.960000" out="00:01:50.920000" />
    <entry producer="producer58" in="00:01:50.960000" out="00:03:21.840000" />
    <filter id="filter119" out="00:03:24.320">
      <property name="window">75</property>
      <property name="max_gain">20dB</property>
      <property name="level">-8</property>
      <property name="mlt_service">volume</property>
    </filter>
  </playlist>
  <producer id="producer59" title="Anonymous Submission" in="00:00:00.000" out="00:03:39.760">
    <property name="length">00:03:39:20</property>
    <property name="eof">pause</property>
    <property name="resource">../../006 - Videos format youtube/Euphonium/Serge_euphonium_totoro.mp4</property>
    <property name="audio_index">1</property>
    <property name="video_index">0</property>
    <property name="mute_on_pause">0</property>
    <property name="mlt_service">avformat-novalidate</property>
    <property name="seekable">1</property>
    <property name="aspect_ratio">1</property>
    <property name="creation_time">2020-04-09T18:38:52</property>
    <property name="shotcut:hash">febfb730e69b265c8667487f9874d68f</property>
    <property name="ignore_points">0</property>
    <property name="shotcut:caption">Serge_euphonium_totoro.mp4</property>
    <property name="shotcut:skipConvert">1</property>
    <property name="global_feed">1</property>
    <property name="xml">was here</property>
    <filter id="filter120" in="00:00:01.760" out="00:00:24.720000">
      <property name="background">colour:0</property>
      <property name="mlt_service">affine</property>
      <property name="shotcut:filter">affineSizePosition</property>
      <property name="transition.fill">1</property>
      <property name="transition.distort">0</property>
      <property name="transition.rect">548.0 308.0 823.0 463.0 1</property>
      <property name="transition.valign">top</property>
      <property name="transition.halign">left</property>
      <property name="shotcut:animIn">00:00:00.000</property>
      <property name="shotcut:animOut">00:00:00.000</property>
      <property name="transition.threads">0</property>
    </filter>
  </producer>
  <producer id="producer60" title="Anonymous Submission" in="00:00:00.000" out="00:03:39.760">
    <property name="length">00:03:39:20</property>
    <property name="eof">pause</property>
    <property name="resource">../../006 - Videos format youtube/Euphonium/Serge_euphonium_totoro.mp4</property>
    <property name="audio_index">1</property>
    <property name="video_index">0</property>
    <property name="mute_on_pause">0</property>
    <property name="mlt_service">avformat-novalidate</property>
    <property name="seekable">1</property>
    <property name="aspect_ratio">1</property>
    <property name="creation_time">2020-04-09T18:38:52</property>
    <property name="shotcut:hash">febfb730e69b265c8667487f9874d68f</property>
    <property name="ignore_points">0</property>
    <property name="shotcut:caption">Serge_euphonium_totoro.mp4</property>
    <property name="shotcut:skipConvert">1</property>
    <property name="global_feed">1</property>
    <property name="xml">was here</property>
    <filter id="filter121" in="00:00:24.760000" out="00:00:31.720000">
      <property name="background">colour:0</property>
      <property name="mlt_service">affine</property>
      <property name="shotcut:filter">affineSizePosition</property>
      <property name="transition.fill">1</property>
      <property name="transition.distort">0</property>
      <property name="transition.rect">00:00:00.000000=548.0 308.0 824.0 463.0 1;00:00:00.440000=274.0 925.0 275.0 155.0 1</property>
      <property name="transition.valign">top</property>
      <property name="transition.halign">left</property>
      <property name="shotcut:animIn">00:00:00.480000</property>
      <property name="shotcut:animOut">00:00:00.000</property>
      <property name="transition.threads">0</property>
    </filter>
  </producer>
  <producer id="producer61" title="Anonymous Submission" in="00:00:00.000" out="00:03:39.760">
    <property name="length">00:03:39:20</property>
    <property name="eof">pause</property>
    <property name="resource">../../006 - Videos format youtube/Euphonium/Serge_euphonium_totoro.mp4</property>
    <property name="audio_index">1</property>
    <property name="video_index">0</property>
    <property name="mute_on_pause">0</property>
    <property name="mlt_service">avformat-novalidate</property>
    <property name="seekable">1</property>
    <property name="aspect_ratio">1</property>
    <property name="creation_time">2020-04-09T18:38:52</property>
    <property name="shotcut:hash">febfb730e69b265c8667487f9874d68f</property>
    <property name="ignore_points">0</property>
    <property name="shotcut:caption">Serge_euphonium_totoro.mp4</property>
    <property name="shotcut:skipConvert">1</property>
    <property name="global_feed">1</property>
    <property name="xml">was here</property>
    <filter id="filter122" in="00:00:31.760000" out="00:01:05.720000">
      <property name="background">colour:0</property>
      <property name="mlt_service">affine</property>
      <property name="shotcut:filter">affineSizePosition</property>
      <property name="transition.fill">1</property>
      <property name="transition.distort">0</property>
      <property name="transition.rect">-480.0 -270.0 241.0 136.0 1</property>
      <property name="transition.valign">top</property>
      <property name="transition.halign">left</property>
      <property name="shotcut:animIn">00:00:00.480000</property>
      <property name="shotcut:animOut">00:00:00.000</property>
      <property name="transition.threads">0</property>
    </filter>
  </producer>
  <producer id="producer62" title="Anonymous Submission" in="00:00:00.000" out="00:03:39.760">
    <property name="length">00:03:39:20</property>
    <property name="eof">pause</property>
    <property name="resource">../../006 - Videos format youtube/Euphonium/Serge_euphonium_totoro.mp4</property>
    <property name="audio_index">1</property>
    <property name="video_index">0</property>
    <property name="mute_on_pause">0</property>
    <property name="mlt_service">avformat-novalidate</property>
    <property name="seekable">1</property>
    <property name="aspect_ratio">1</property>
    <property name="creation_time">2020-04-09T18:38:52</property>
    <property name="shotcut:hash">febfb730e69b265c8667487f9874d68f</property>
    <property name="ignore_points">0</property>
    <property name="shotcut:caption">Serge_euphonium_totoro.mp4</property>
    <property name="shotcut:skipConvert">1</property>
    <property name="global_feed">1</property>
    <property name="xml">was here</property>
    <filter id="filter123" in="00:01:05.760000" out="00:01:21.720000">
      <property name="background">colour:0</property>
      <property name="mlt_service">affine</property>
      <property name="shotcut:filter">affineSizePosition</property>
      <property name="transition.fill">1</property>
      <property name="transition.distort">0</property>
      <property name="transition.rect">-2468.0 -308.0 275.0 155.0 1</property>
      <property name="transition.valign">top</property>
      <property name="transition.halign">left</property>
      <property name="shotcut:animIn">00:00:00.480000</property>
      <property name="shotcut:animOut">00:00:00.000</property>
      <property name="transition.threads">0</property>
    </filter>
  </producer>
  <producer id="producer63" title="Anonymous Submission" in="00:00:00.000" out="00:03:39.760">
    <property name="length">00:03:39:20</property>
    <property name="eof">pause</property>
    <property name="resource">../../006 - Videos format youtube/Euphonium/Serge_euphonium_totoro.mp4</property>
    <property name="audio_index">1</property>
    <property name="video_index">0</property>
    <property name="mute_on_pause">0</property>
    <property name="mlt_service">avformat-novalidate</property>
    <property name="seekable">1</property>
    <property name="aspect_ratio">1</property>
    <property name="creation_time">2020-04-09T18:38:52</property>
    <property name="shotcut:hash">febfb730e69b265c8667487f9874d68f</property>
    <property name="ignore_points">0</property>
    <property name="shotcut:caption">Serge_euphonium_totoro.mp4</property>
    <property name="shotcut:skipConvert">1</property>
    <property name="global_feed">1</property>
    <property name="xml">was here</property>
    <filter id="filter124" in="00:01:21.760000" out="00:01:28.720000">
      <property name="background">colour:0</property>
      <property name="mlt_service">affine</property>
      <property name="shotcut:filter">affineSizePosition</property>
      <property name="transition.fill">1</property>
      <property name="transition.distort">0</property>
      <property name="transition.rect">5279.0 0.0 321.0 181.0 1</property>
      <property name="transition.valign">top</property>
      <property name="transition.halign">left</property>
      <property name="shotcut:animIn">00:00:00.480000</property>
      <property name="shotcut:animOut">00:00:00.000</property>
      <property name="transition.threads">0</property>
    </filter>
  </producer>
  <producer id="producer64" title="Anonymous Submission" in="00:00:00.000" out="00:03:39.760">
    <property name="length">00:03:39:20</property>
    <property name="eof">pause</property>
    <property name="resource">../../006 - Videos format youtube/Euphonium/Serge_euphonium_totoro.mp4</property>
    <property name="audio_index">1</property>
    <property name="video_index">0</property>
    <property name="mute_on_pause">0</property>
    <property name="mlt_service">avformat-novalidate</property>
    <property name="seekable">1</property>
    <property name="aspect_ratio">1</property>
    <property name="creation_time">2020-04-09T18:38:52</property>
    <property name="shotcut:hash">febfb730e69b265c8667487f9874d68f</property>
    <property name="ignore_points">0</property>
    <property name="shotcut:caption">Serge_euphonium_totoro.mp4</property>
    <property name="shotcut:skipConvert">1</property>
    <property name="global_feed">1</property>
    <property name="xml">was here</property>
    <filter id="filter125" in="00:01:28.760000" out="00:01:36.720000">
      <property name="background">colour:0</property>
      <property name="mlt_service">affine</property>
      <property name="shotcut:filter">affineSizePosition</property>
      <property name="transition.fill">1</property>
      <property name="transition.distort">0</property>
      <property name="transition.rect">960.0 720.0 321.0 181.0 1</property>
      <property name="transition.valign">top</property>
      <property name="transition.halign">left</property>
      <property name="shotcut:animIn">00:00:00.480000</property>
      <property name="shotcut:animOut">00:00:00.000</property>
      <property name="transition.threads">0</property>
    </filter>
  </producer>
  <producer id="producer65" title="Anonymous Submission" in="00:00:00.000" out="00:03:39.760">
    <property name="length">00:03:39:20</property>
    <property name="eof">pause</property>
    <property name="resource">../../006 - Videos format youtube/Euphonium/Serge_euphonium_totoro.mp4</property>
    <property name="audio_index">1</property>
    <property name="video_index">0</property>
    <property name="mute_on_pause">0</property>
    <property name="mlt_service">avformat-novalidate</property>
    <property name="seekable">1</property>
    <property name="aspect_ratio">1</property>
    <property name="creation_time">2020-04-09T18:38:52</property>
    <property name="shotcut:hash">febfb730e69b265c8667487f9874d68f</property>
    <property name="ignore_points">0</property>
    <property name="shotcut:caption">Serge_euphonium_totoro.mp4</property>
    <property name="shotcut:skipConvert">1</property>
    <property name="global_feed">1</property>
    <property name="xml">was here</property>
    <filter id="filter126" in="00:01:36.760000" out="00:01:45.720000">
      <property name="background">colour:0</property>
      <property name="mlt_service">affine</property>
      <property name="shotcut:filter">affineSizePosition</property>
      <property name="transition.fill">1</property>
      <property name="transition.distort">0</property>
      <property name="transition.rect">-548.0 -308.0 275.0 155.0 1</property>
      <property name="transition.valign">top</property>
      <property name="transition.halign">left</property>
      <property name="shotcut:animIn">00:00:00.480000</property>
      <property name="shotcut:animOut">00:00:00.000</property>
      <property name="transition.threads">0</property>
    </filter>
  </producer>
  <producer id="producer66" title="Anonymous Submission" in="00:00:00.000" out="00:03:39.760">
    <property name="length">00:03:39:20</property>
    <property name="eof">pause</property>
    <property name="resource">../../006 - Videos format youtube/Euphonium/Serge_euphonium_totoro.mp4</property>
    <property name="audio_index">1</property>
    <property name="video_index">0</property>
    <property name="mute_on_pause">0</property>
    <property name="mlt_service">avformat-novalidate</property>
    <property name="seekable">1</property>
    <property name="aspect_ratio">1</property>
    <property name="creation_time">2020-04-09T18:38:52</property>
    <property name="shotcut:hash">febfb730e69b265c8667487f9874d68f</property>
    <property name="ignore_points">0</property>
    <property name="shotcut:caption">Serge_euphonium_totoro.mp4</property>
    <property name="shotcut:skipConvert">1</property>
    <property name="global_feed">1</property>
    <property name="xml">was here</property>
    <filter id="filter127" in="00:01:45.760000" out="00:01:52.720000">
      <property name="background">colour:0</property>
      <property name="mlt_service">affine</property>
      <property name="shotcut:filter">affineSizePosition</property>
      <property name="transition.fill">1</property>
      <property name="transition.distort">0</property>
      <property name="transition.rect">-548.0 -308.0 275.0 155.0 1</property>
      <property name="transition.valign">top</property>
      <property name="transition.halign">left</property>
      <property name="shotcut:animIn">00:00:00.480000</property>
      <property name="shotcut:animOut">00:00:00.000</property>
      <property name="transition.threads">0</property>
    </filter>
  </producer>
  <producer id="producer67" title="Anonymous Submission" in="00:00:00.000" out="00:03:39.760">
    <property name="length">00:03:39:20</property>
    <property name="eof">pause</property>
    <property name="resource">../../006 - Videos format youtube/Euphonium/Serge_euphonium_totoro.mp4</property>
    <property name="audio_index">1</property>
    <property name="video_index">0</property>
    <property name="mute_on_pause">0</property>
    <property name="mlt_service">avformat-novalidate</property>
    <property name="seekable">1</property>
    <property name="aspect_ratio">1</property>
    <property name="creation_time">2020-04-09T18:38:52</property>
    <property name="shotcut:hash">febfb730e69b265c8667487f9874d68f</property>
    <property name="ignore_points">0</property>
    <property name="shotcut:caption">Serge_euphonium_totoro.mp4</property>
    <property name="shotcut:skipConvert">1</property>
    <property name="global_feed">1</property>
    <property name="xml">was here</property>
    <filter id="filter128" in="00:01:52.760000" out="00:03:39.760000">
      <property name="background">colour:0</property>
      <property name="mlt_service">affine</property>
      <property name="shotcut:filter">affineSizePosition</property>
      <property name="transition.fill">1</property>
      <property name="transition.distort">0</property>
      <property name="transition.rect">5279.0 0.0 321.0 181.0 1</property>
      <property name="transition.valign">top</property>
      <property name="transition.halign">left</property>
      <property name="shotcut:animIn">00:00:00.480000</property>
      <property name="shotcut:animOut">00:00:00.000</property>
      <property name="transition.threads">0</property>
    </filter>
  </producer>
  <playlist id="playlist7">
    <property name="shotcut:video">1</property>
    <property name="shotcut:name">Serge_euphonium</property>
    <property name="shotcut:lock">1</property>
    <entry producer="producer59" in="00:00:01.760" out="00:00:24.720000" />
    <entry producer="producer60" in="00:00:24.760000" out="00:00:31.720000" />
    <entry producer="producer61" in="00:00:31.760000" out="00:01:05.720000" />
    <entry producer="producer62" in="00:01:05.760000" out="00:01:21.720000" />
    <entry producer="producer63" in="00:01:21.760000" out="00:01:28.720000" />
    <entry producer="producer64" in="00:01:28.760000" out="00:01:36.720000" />
    <entry producer="producer65" in="00:01:36.760000" out="00:01:45.720000" />
    <entry producer="producer66" in="00:01:45.760000" out="00:01:52.720000" />
    <entry producer="producer67" in="00:01:52.760000" out="00:03:39.760000" />
    </playlist>
  <producer id="producer68" title="Anonymous Submission" in="00:00:00.000" out="00:03:23.360">
    <property name="length">00:03:23:10</property>
    <property name="eof">pause</property>
    <property name="resource">../../006 - Videos format youtube/Clarinettes/Cecile_clarinette_totoro_recadre.mp4</property>
    <property name="audio_index">1</property>
    <property name="video_index">0</property>
    <property name="mute_on_pause">0</property>
    <property name="mlt_service">avformat-novalidate</property>
    <property name="seekable">1</property>
    <property name="aspect_ratio">1</property>
    <property name="creation_time">2020-04-20T12:31:07</property>
    <property name="shotcut:hash">fa0b3ca4ef9842045a4dd842a677be53</property>
    <property name="ignore_points">0</property>
    <property name="shotcut:caption">Cecile_clarinette_totoro_recadre.mp4</property>
    <property name="shotcut:skipConvert">1</property>
    <property name="global_feed">1</property>
    <property name="xml">was here</property>
    <filter id="filter129" in="00:00:04.720" out="00:00:23.000000">
      <property name="background">colour:0</property>
      <property name="mlt_service">affine</property>
      <property name="shotcut:filter">affineSizePosition</property>
      <property name="transition.fill">1</property>
      <property name="transition.distort">0</property>
      <property name="transition.rect">1645.0 925.0 275.0 155.0 1</property>
      <property name="transition.valign">top</property>
      <property name="transition.halign">left</property>
      <property name="shotcut:animIn">00:00:00.000</property>
      <property name="shotcut:animOut">00:00:00.000</property>
      <property name="transition.threads">0</property>
    </filter>
    <filter id="filter130" in="00:00:04.720" out="00:00:23.000000">
      <property name="window">75</property>
      <property name="max_gain">20dB</property>
      <property name="mlt_service">volume</property>
      <property name="shotcut:filter">muteVolume</property>
      <property name="gain">0</property>
    </filter>
  </producer>
  <producer id="producer69" title="Anonymous Submission" in="00:00:00.000" out="00:03:23.360">
    <property name="length">00:03:23:10</property>
    <property name="eof">pause</property>
    <property name="resource">../../006 - Videos format youtube/Clarinettes/Cecile_clarinette_totoro_recadre.mp4</property>
    <property name="audio_index">1</property>
    <property name="video_index">0</property>
    <property name="mute_on_pause">0</property>
    <property name="mlt_service">avformat-novalidate</property>
    <property name="seekable">1</property>
    <property name="aspect_ratio">1</property>
    <property name="creation_time">2020-04-20T12:31:07</property>
    <property name="shotcut:hash">fa0b3ca4ef9842045a4dd842a677be53</property>
    <property name="ignore_points">0</property>
    <property name="shotcut:caption">Cecile_clarinette_totoro_recadre.mp4</property>
    <property name="shotcut:skipConvert">1</property>
    <property name="global_feed">1</property>
    <property name="xml">was here</property>
    <filter id="filter131" in="00:00:23.040000" out="00:00:30.000000">
      <property name="background">colour:0</property>
      <property name="mlt_service">affine</property>
      <property name="shotcut:filter">affineSizePosition</property>
      <property name="transition.fill">1</property>
      <property name="transition.distort">0</property>
      <property name="transition.rect">00:00:00.000000=1645.0 925.0 276.0 155.0 1;00:00:00.440000=0.0 154.0 275.0 155.0 1</property>
      <property name="transition.valign">top</property>
      <property name="transition.halign">left</property>
      <property name="shotcut:animIn">00:00:00.480000</property>
      <property name="shotcut:animOut">00:00:00.000</property>
      <property name="transition.threads">0</property>
    </filter>
    <filter id="filter132" in="00:00:23.040000" out="00:00:30.000000">
      <property name="window">75</property>
      <property name="max_gain">20dB</property>
      <property name="mlt_service">volume</property>
      <property name="shotcut:filter">muteVolume</property>
      <property name="gain">0</property>
    </filter>
  </producer>
  <producer id="producer70" title="Anonymous Submission" in="00:00:00.000" out="00:03:23.360">
    <property name="length">00:03:23:10</property>
    <property name="eof">pause</property>
    <property name="resource">../../006 - Videos format youtube/Clarinettes/Cecile_clarinette_totoro_recadre.mp4</property>
    <property name="audio_index">1</property>
    <property name="video_index">0</property>
    <property name="mute_on_pause">0</property>
    <property name="mlt_service">avformat-novalidate</property>
    <property name="seekable">1</property>
    <property name="aspect_ratio">1</property>
    <property name="creation_time">2020-04-20T12:31:07</property>
    <property name="shotcut:hash">fa0b3ca4ef9842045a4dd842a677be53</property>
    <property name="ignore_points">0</property>
    <property name="shotcut:caption">Cecile_clarinette_totoro_recadre.mp4</property>
    <property name="shotcut:skipConvert">1</property>
    <property name="global_feed">1</property>
    <property name="xml">was here</property>
    <filter id="filter133" in="00:00:30.040000" out="00:00:31.240000">
      <property name="background">colour:0</property>
      <property name="mlt_service">affine</property>
      <property name="shotcut:filter">affineSizePosition</property>
      <property name="transition.fill">1</property>
      <property name="transition.distort">0</property>
      <property name="transition.rect">00:00:00.000000=480.0 0.0 242.0 136.0 1;00:00:01.200000=720.0 0.0 241.0 136.0 1</property>
      <property name="transition.valign">top</property>
      <property name="transition.halign">left</property>
      <property name="shotcut:animIn">00:00:01.240000</property>
      <property name="shotcut:animOut">00:00:00.000</property>
      <property name="transition.threads">0</property>
    </filter>
    <filter id="filter134" in="00:00:30.040000" out="00:00:31.240000">
      <property name="window">75</property>
      <property name="max_gain">20dB</property>
      <property name="mlt_service">volume</property>
      <property name="shotcut:filter">muteVolume</property>
      <property name="gain">0</property>
    </filter>
  </producer>
  <producer id="producer71" title="Anonymous Submission" in="00:00:00.000" out="00:03:23.360">
    <property name="length">00:03:23:10</property>
    <property name="eof">pause</property>
    <property name="resource">../../006 - Videos format youtube/Clarinettes/Cecile_clarinette_totoro_recadre.mp4</property>
    <property name="audio_index">1</property>
    <property name="video_index">0</property>
    <property name="mute_on_pause">0</property>
    <property name="mlt_service">avformat-novalidate</property>
    <property name="seekable">1</property>
    <property name="aspect_ratio">1</property>
    <property name="creation_time">2020-04-20T12:31:07</property>
    <property name="shotcut:hash">fa0b3ca4ef9842045a4dd842a677be53</property>
    <property name="ignore_points">0</property>
    <property name="shotcut:caption">Cecile_clarinette_totoro_recadre.mp4</property>
    <property name="shotcut:skipConvert">1</property>
    <property name="global_feed">1</property>
    <property name="xml">was here</property>
    <filter id="filter135" in="00:00:31.280000" out="00:00:32.480000">
      <property name="background">colour:0</property>
      <property name="mlt_service">affine</property>
      <property name="shotcut:filter">affineSizePosition</property>
      <property name="transition.fill">1</property>
      <property name="transition.distort">0</property>
      <property name="transition.rect">00:00:00.000000=720.0 0.0 242.0 136.0 1;00:00:01.200000=960.0 0.0 241.0 136.0 1</property>
      <property name="transition.valign">top</property>
      <property name="transition.halign">left</property>
      <property name="shotcut:animIn">00:00:01.240000</property>
      <property name="shotcut:animOut">00:00:00.000</property>
      <property name="transition.threads">0</property>
    </filter>
    <filter id="filter136" in="00:00:31.280000" out="00:00:32.480000">
      <property name="window">75</property>
      <property name="max_gain">20dB</property>
      <property name="mlt_service">volume</property>
      <property name="shotcut:filter">muteVolume</property>
      <property name="gain">0</property>
    </filter>
  </producer>
  <producer id="producer72" title="Anonymous Submission" in="00:00:00.000" out="00:03:23.360">
    <property name="length">00:03:23:10</property>
    <property name="eof">pause</property>
    <property name="resource">../../006 - Videos format youtube/Clarinettes/Cecile_clarinette_totoro_recadre.mp4</property>
    <property name="audio_index">1</property>
    <property name="video_index">0</property>
    <property name="mute_on_pause">0</property>
    <property name="mlt_service">avformat-novalidate</property>
    <property name="seekable">1</property>
    <property name="aspect_ratio">1</property>
    <property name="creation_time">2020-04-20T12:31:07</property>
    <property name="shotcut:hash">fa0b3ca4ef9842045a4dd842a677be53</property>
    <property name="ignore_points">0</property>
    <property name="shotcut:caption">Cecile_clarinette_totoro_recadre.mp4</property>
    <property name="shotcut:skipConvert">1</property>
    <property name="global_feed">1</property>
    <property name="xml">was here</property>
    <filter id="filter137" in="00:00:32.520000" out="00:00:33.720000">
      <property name="background">colour:0</property>
      <property name="mlt_service">affine</property>
      <property name="shotcut:filter">affineSizePosition</property>
      <property name="transition.fill">1</property>
      <property name="transition.distort">0</property>
      <property name="transition.rect">00:00:00.000000=960.0 0.0 242.0 136.0 1;00:00:01.200000=1200.0 0.0 241.0 136.0 1</property>
      <property name="transition.valign">top</property>
      <property name="transition.halign">left</property>
      <property name="shotcut:animIn">00:00:01.240000</property>
      <property name="shotcut:animOut">00:00:00.000</property>
      <property name="transition.threads">0</property>
    </filter>
    <filter id="filter138" in="00:00:32.520000" out="00:00:33.720000">
      <property name="window">75</property>
      <property name="max_gain">20dB</property>
      <property name="mlt_service">volume</property>
      <property name="shotcut:filter">muteVolume</property>
      <property name="gain">0</property>
    </filter>
  </producer>
  <producer id="producer73" title="Anonymous Submission" in="00:00:00.000" out="00:03:23.360">
    <property name="length">00:03:23:10</property>
    <property name="eof">pause</property>
    <property name="resource">../../006 - Videos format youtube/Clarinettes/Cecile_clarinette_totoro_recadre.mp4</property>
    <property name="audio_index">1</property>
    <property name="video_index">0</property>
    <property name="mute_on_pause">0</property>
    <property name="mlt_service">avformat-novalidate</property>
    <property name="seekable">1</property>
    <property name="aspect_ratio">1</property>
    <property name="creation_time">2020-04-20T12:31:07</property>
    <property name="shotcut:hash">fa0b3ca4ef9842045a4dd842a677be53</property>
    <property name="ignore_points">0</property>
    <property name="shotcut:caption">Cecile_clarinette_totoro_recadre.mp4</property>
    <property name="shotcut:skipConvert">1</property>
    <property name="global_feed">1</property>
    <property name="xml">was here</property>
    <filter id="filter139" in="00:00:33.760000" out="00:00:35.000000">
      <property name="background">colour:0</property>
      <property name="mlt_service">affine</property>
      <property name="shotcut:filter">affineSizePosition</property>
      <property name="transition.fill">1</property>
      <property name="transition.distort">0</property>
      <property name="transition.rect">00:00:00.000000=1200.0 0.0 242.0 136.0 1;00:00:01.200000=1440.0 0.0 241.0 136.0 1</property>
      <property name="transition.valign">top</property>
      <property name="transition.halign">left</property>
      <property name="shotcut:animIn">00:00:01.240000</property>
      <property name="shotcut:animOut">00:00:00.000</property>
      <property name="transition.threads">0</property>
    </filter>
    <filter id="filter140" in="00:00:33.760000" out="00:00:35.000000">
      <property name="window">75</property>
      <property name="max_gain">20dB</property>
      <property name="mlt_service">volume</property>
      <property name="shotcut:filter">muteVolume</property>
      <property name="gain">0</property>
    </filter>
  </producer>
  <producer id="producer74" title="Anonymous Submission" in="00:00:00.000" out="00:03:23.360">
    <property name="length">00:03:23:10</property>
    <property name="eof">pause</property>
    <property name="resource">../../006 - Videos format youtube/Clarinettes/Cecile_clarinette_totoro_recadre.mp4</property>
    <property name="audio_index">1</property>
    <property name="video_index">0</property>
    <property name="mute_on_pause">0</property>
    <property name="mlt_service">avformat-novalidate</property>
    <property name="seekable">1</property>
    <property name="aspect_ratio">1</property>
    <property name="creation_time">2020-04-20T12:31:07</property>
    <property name="shotcut:hash">fa0b3ca4ef9842045a4dd842a677be53</property>
    <property name="ignore_points">0</property>
    <property name="shotcut:caption">Cecile_clarinette_totoro_recadre.mp4</property>
    <property name="shotcut:skipConvert">1</property>
    <property name="global_feed">1</property>
    <property name="xml">was here</property>
    <filter id="filter141" in="00:00:35.040000" out="00:00:36.240000">
      <property name="background">colour:0</property>
      <property name="mlt_service">affine</property>
      <property name="shotcut:filter">affineSizePosition</property>
      <property name="transition.fill">1</property>
      <property name="transition.distort">0</property>
      <property name="transition.rect">00:00:00.000000=1440.0 0.0 242.0 136.0 1;00:00:01.200000=1680.0 0.0 241.0 136.0 1</property>
      <property name="transition.valign">top</property>
      <property name="transition.halign">left</property>
      <property name="shotcut:animIn">00:00:01.240000</property>
      <property name="shotcut:animOut">00:00:00.000</property>
      <property name="transition.threads">0</property>
    </filter>
    <filter id="filter142" in="00:00:35.040000" out="00:00:36.240000">
      <property name="window">75</property>
      <property name="max_gain">20dB</property>
      <property name="mlt_service">volume</property>
      <property name="shotcut:filter">muteVolume</property>
      <property name="gain">0</property>
    </filter>
  </producer>
  <producer id="producer75" title="Anonymous Submission" in="00:00:00.000" out="00:03:23.360">
    <property name="length">00:03:23:10</property>
    <property name="eof">pause</property>
    <property name="resource">../../006 - Videos format youtube/Clarinettes/Cecile_clarinette_totoro_recadre.mp4</property>
    <property name="audio_index">1</property>
    <property name="video_index">0</property>
    <property name="mute_on_pause">0</property>
    <property name="mlt_service">avformat-novalidate</property>
    <property name="seekable">1</property>
    <property name="aspect_ratio">1</property>
    <property name="creation_time">2020-04-20T12:31:07</property>
    <property name="shotcut:hash">fa0b3ca4ef9842045a4dd842a677be53</property>
    <property name="ignore_points">0</property>
    <property name="shotcut:caption">Cecile_clarinette_totoro_recadre.mp4</property>
    <property name="shotcut:skipConvert">1</property>
    <property name="global_feed">1</property>
    <property name="xml">was here</property>
    <filter id="filter143" in="00:00:36.280000" out="00:00:37.480000">
      <property name="background">colour:0</property>
      <property name="mlt_service">affine</property>
      <property name="shotcut:filter">affineSizePosition</property>
      <property name="transition.fill">1</property>
      <property name="transition.distort">0</property>
      <property name="transition.rect">00:00:00.000000=1680.0 0.0 242.0 136.0 1;00:00:01.200000=1920.0 0.0 241.0 136.0 1</property>
      <property name="transition.valign">top</property>
      <property name="transition.halign">left</property>
      <property name="shotcut:animIn">00:00:01.240000</property>
      <property name="shotcut:animOut">00:00:00.000</property>
      <property name="transition.threads">0</property>
    </filter>
    <filter id="filter144" in="00:00:36.280000" out="00:00:37.480000">
      <property name="window">75</property>
      <property name="max_gain">20dB</property>
      <property name="mlt_service">volume</property>
      <property name="shotcut:filter">muteVolume</property>
      <property name="gain">0</property>
    </filter>
  </producer>
  <producer id="producer76" title="Anonymous Submission" in="00:00:00.000" out="00:03:23.360">
    <property name="length">00:03:23:10</property>
    <property name="eof">pause</property>
    <property name="resource">../../006 - Videos format youtube/Clarinettes/Cecile_clarinette_totoro_recadre.mp4</property>
    <property name="audio_index">1</property>
    <property name="video_index">0</property>
    <property name="mute_on_pause">0</property>
    <property name="mlt_service">avformat-novalidate</property>
    <property name="seekable">1</property>
    <property name="aspect_ratio">1</property>
    <property name="creation_time">2020-04-20T12:31:07</property>
    <property name="shotcut:hash">fa0b3ca4ef9842045a4dd842a677be53</property>
    <property name="ignore_points">0</property>
    <property name="shotcut:caption">Cecile_clarinette_totoro_recadre.mp4</property>
    <property name="shotcut:skipConvert">1</property>
    <property name="global_feed">1</property>
    <property name="xml">was here</property>
    <filter id="filter145" in="00:00:37.520000" out="00:00:38.720000">
      <property name="background">colour:0</property>
      <property name="mlt_service">affine</property>
      <property name="shotcut:filter">affineSizePosition</property>
      <property name="transition.fill">1</property>
      <property name="transition.distort">0</property>
      <property name="transition.rect">00:00:00.000000=1920.0 0.0 242.0 136.0 1;00:00:01.200000=2160.0 0.0 241.0 136.0 1</property>
      <property name="transition.valign">top</property>
      <property name="transition.halign">left</property>
      <property name="shotcut:animIn">00:00:01.240000</property>
      <property name="shotcut:animOut">00:00:00.000</property>
      <property name="transition.threads">0</property>
    </filter>
    <filter id="filter146" in="00:00:37.520000" out="00:00:38.720000">
      <property name="window">75</property>
      <property name="max_gain">20dB</property>
      <property name="mlt_service">volume</property>
      <property name="shotcut:filter">muteVolume</property>
      <property name="gain">0</property>
    </filter>
  </producer>
  <producer id="producer77" title="Anonymous Submission" in="00:00:00.000" out="00:03:23.360">
    <property name="length">00:03:23:10</property>
    <property name="eof">pause</property>
    <property name="resource">../../006 - Videos format youtube/Clarinettes/Cecile_clarinette_totoro_recadre.mp4</property>
    <property name="audio_index">1</property>
    <property name="video_index">0</property>
    <property name="mute_on_pause">0</property>
    <property name="mlt_service">avformat-novalidate</property>
    <property name="seekable">1</property>
    <property name="aspect_ratio">1</property>
    <property name="creation_time">2020-04-20T12:31:07</property>
    <property name="shotcut:hash">fa0b3ca4ef9842045a4dd842a677be53</property>
    <property name="ignore_points">0</property>
    <property name="shotcut:caption">Cecile_clarinette_totoro_recadre.mp4</property>
    <property name="shotcut:skipConvert">1</property>
    <property name="global_feed">1</property>
    <property name="xml">was here</property>
    <filter id="filter147" in="00:00:38.760000" out="00:00:40.000000">
      <property name="background">colour:0</property>
      <property name="mlt_service">affine</property>
      <property name="shotcut:filter">affineSizePosition</property>
      <property name="transition.fill">1</property>
      <property name="transition.distort">0</property>
      <property name="transition.rect">00:00:00.000000=2160.0 0.0 242.0 136.0 1;00:00:01.200000=2400.0 0.0 241.0 136.0 1</property>
      <property name="transition.valign">top</property>
      <property name="transition.halign">left</property>
      <property name="shotcut:animIn">00:00:01.240000</property>
      <property name="shotcut:animOut">00:00:00.000</property>
      <property name="transition.threads">0</property>
    </filter>
    <filter id="filter148" in="00:00:38.760000" out="00:00:40.000000">
      <property name="window">75</property>
      <property name="max_gain">20dB</property>
      <property name="mlt_service">volume</property>
      <property name="shotcut:filter">muteVolume</property>
      <property name="gain">0</property>
    </filter>
  </producer>
  <producer id="producer78" title="Anonymous Submission" in="00:00:00.000" out="00:03:23.360">
    <property name="length">00:03:23:10</property>
    <property name="eof">pause</property>
    <property name="resource">../../006 - Videos format youtube/Clarinettes/Cecile_clarinette_totoro_recadre.mp4</property>
    <property name="audio_index">1</property>
    <property name="video_index">0</property>
    <property name="mute_on_pause">0</property>
    <property name="mlt_service">avformat-novalidate</property>
    <property name="seekable">1</property>
    <property name="aspect_ratio">1</property>
    <property name="creation_time">2020-04-20T12:31:07</property>
    <property name="shotcut:hash">fa0b3ca4ef9842045a4dd842a677be53</property>
    <property name="ignore_points">0</property>
    <property name="shotcut:caption">Cecile_clarinette_totoro_recadre.mp4</property>
    <property name="shotcut:skipConvert">1</property>
    <property name="global_feed">1</property>
    <property name="xml">was here</property>
    <filter id="filter149" in="00:00:40.040000" out="00:00:41.240000">
      <property name="background">colour:0</property>
      <property name="mlt_service">affine</property>
      <property name="shotcut:filter">affineSizePosition</property>
      <property name="transition.fill">1</property>
      <property name="transition.distort">0</property>
      <property name="transition.rect">00:00:00.000000=0.0 0.0 242.0 136.0 1;00:00:01.200000=240.0 0.0 241.0 136.0 1</property>
      <property name="transition.valign">top</property>
      <property name="transition.halign">left</property>
      <property name="shotcut:animIn">00:00:01.240000</property>
      <property name="shotcut:animOut">00:00:00.000</property>
      <property name="transition.threads">0</property>
    </filter>
    <filter id="filter150" in="00:00:40.040000" out="00:00:41.240000">
      <property name="window">75</property>
      <property name="max_gain">20dB</property>
      <property name="mlt_service">volume</property>
      <property name="shotcut:filter">muteVolume</property>
      <property name="gain">0</property>
    </filter>
  </producer>
  <producer id="producer79" title="Anonymous Submission" in="00:00:00.000" out="00:03:23.360">
    <property name="length">00:03:23:10</property>
    <property name="eof">pause</property>
    <property name="resource">../../006 - Videos format youtube/Clarinettes/Cecile_clarinette_totoro_recadre.mp4</property>
    <property name="audio_index">1</property>
    <property name="video_index">0</property>
    <property name="mute_on_pause">0</property>
    <property name="mlt_service">avformat-novalidate</property>
    <property name="seekable">1</property>
    <property name="aspect_ratio">1</property>
    <property name="creation_time">2020-04-20T12:31:07</property>
    <property name="shotcut:hash">fa0b3ca4ef9842045a4dd842a677be53</property>
    <property name="ignore_points">0</property>
    <property name="shotcut:caption">Cecile_clarinette_totoro_recadre.mp4</property>
    <property name="shotcut:skipConvert">1</property>
    <property name="global_feed">1</property>
    <property name="xml">was here</property>
    <filter id="filter151" in="00:00:41.280000" out="00:00:42.480000">
      <property name="background">colour:0</property>
      <property name="mlt_service">affine</property>
      <property name="shotcut:filter">affineSizePosition</property>
      <property name="transition.fill">1</property>
      <property name="transition.distort">0</property>
      <property name="transition.rect">00:00:00.000000=240.0 0.0 242.0 136.0 1;00:00:01.200000=480.0 0.0 241.0 136.0 1</property>
      <property name="transition.valign">top</property>
      <property name="transition.halign">left</property>
      <property name="shotcut:animIn">00:00:01.240000</property>
      <property name="shotcut:animOut">00:00:00.000</property>
      <property name="transition.threads">0</property>
    </filter>
    <filter id="filter152" in="00:00:41.280000" out="00:00:42.480000">
      <property name="window">75</property>
      <property name="max_gain">20dB</property>
      <property name="mlt_service">volume</property>
      <property name="shotcut:filter">muteVolume</property>
      <property name="gain">0</property>
    </filter>
  </producer>
  <producer id="producer80" title="Anonymous Submission" in="00:00:00.000" out="00:03:23.360">
    <property name="length">00:03:23:10</property>
    <property name="eof">pause</property>
    <property name="resource">../../006 - Videos format youtube/Clarinettes/Cecile_clarinette_totoro_recadre.mp4</property>
    <property name="audio_index">1</property>
    <property name="video_index">0</property>
    <property name="mute_on_pause">0</property>
    <property name="mlt_service">avformat-novalidate</property>
    <property name="seekable">1</property>
    <property name="aspect_ratio">1</property>
    <property name="creation_time">2020-04-20T12:31:07</property>
    <property name="shotcut:hash">fa0b3ca4ef9842045a4dd842a677be53</property>
    <property name="ignore_points">0</property>
    <property name="shotcut:caption">Cecile_clarinette_totoro_recadre.mp4</property>
    <property name="shotcut:skipConvert">1</property>
    <property name="global_feed">1</property>
    <property name="xml">was here</property>
    <filter id="filter153" in="00:00:42.520000" out="00:00:43.720000">
      <property name="background">colour:0</property>
      <property name="mlt_service">affine</property>
      <property name="shotcut:filter">affineSizePosition</property>
      <property name="transition.fill">1</property>
      <property name="transition.distort">0</property>
      <property name="transition.rect">00:00:00.000000=480.0 0.0 242.0 136.0 1;00:00:01.200000=720.0 0.0 241.0 136.0 1</property>
      <property name="transition.valign">top</property>
      <property name="transition.halign">left</property>
      <property name="shotcut:animIn">00:00:01.240000</property>
      <property name="shotcut:animOut">00:00:00.000</property>
      <property name="transition.threads">0</property>
    </filter>
    <filter id="filter154" in="00:00:42.520000" out="00:00:43.720000">
      <property name="window">75</property>
      <property name="max_gain">20dB</property>
      <property name="mlt_service">volume</property>
      <property name="shotcut:filter">muteVolume</property>
      <property name="gain">0</property>
    </filter>
  </producer>
  <producer id="producer81" title="Anonymous Submission" in="00:00:00.000" out="00:03:23.360">
    <property name="length">00:03:23:10</property>
    <property name="eof">pause</property>
    <property name="resource">../../006 - Videos format youtube/Clarinettes/Cecile_clarinette_totoro_recadre.mp4</property>
    <property name="audio_index">1</property>
    <property name="video_index">0</property>
    <property name="mute_on_pause">0</property>
    <property name="mlt_service">avformat-novalidate</property>
    <property name="seekable">1</property>
    <property name="aspect_ratio">1</property>
    <property name="creation_time">2020-04-20T12:31:07</property>
    <property name="shotcut:hash">fa0b3ca4ef9842045a4dd842a677be53</property>
    <property name="ignore_points">0</property>
    <property name="shotcut:caption">Cecile_clarinette_totoro_recadre.mp4</property>
    <property name="shotcut:skipConvert">1</property>
    <property name="global_feed">1</property>
    <property name="xml">was here</property>
    <filter id="filter155" in="00:00:43.760000" out="00:00:45.000000">
      <property name="background">colour:0</property>
      <property name="mlt_service">affine</property>
      <property name="shotcut:filter">affineSizePosition</property>
      <property name="transition.fill">1</property>
      <property name="transition.distort">0</property>
      <property name="transition.rect">00:00:00.000000=720.0 0.0 242.0 136.0 1;00:00:01.200000=960.0 0.0 241.0 136.0 1</property>
      <property name="transition.valign">top</property>
      <property name="transition.halign">left</property>
      <property name="shotcut:animIn">00:00:01.240000</property>
      <property name="shotcut:animOut">00:00:00.000</property>
      <property name="transition.threads">0</property>
    </filter>
    <filter id="filter156" in="00:00:43.760000" out="00:00:45.000000">
      <property name="window">75</property>
      <property name="max_gain">20dB</property>
      <property name="mlt_service">volume</property>
      <property name="shotcut:filter">muteVolume</property>
      <property name="gain">0</property>
    </filter>
  </producer>
  <producer id="producer82" title="Anonymous Submission" in="00:00:00.000" out="00:03:23.360">
    <property name="length">00:03:23:10</property>
    <property name="eof">pause</property>
    <property name="resource">../../006 - Videos format youtube/Clarinettes/Cecile_clarinette_totoro_recadre.mp4</property>
    <property name="audio_index">1</property>
    <property name="video_index">0</property>
    <property name="mute_on_pause">0</property>
    <property name="mlt_service">avformat-novalidate</property>
    <property name="seekable">1</property>
    <property name="aspect_ratio">1</property>
    <property name="creation_time">2020-04-20T12:31:07</property>
    <property name="shotcut:hash">fa0b3ca4ef9842045a4dd842a677be53</property>
    <property name="ignore_points">0</property>
    <property name="shotcut:caption">Cecile_clarinette_totoro_recadre.mp4</property>
    <property name="shotcut:skipConvert">1</property>
    <property name="global_feed">1</property>
    <property name="xml">was here</property>
    <filter id="filter157" in="00:00:45.040000" out="00:00:46.240000">
      <property name="background">colour:0</property>
      <property name="mlt_service">affine</property>
      <property name="shotcut:filter">affineSizePosition</property>
      <property name="transition.fill">1</property>
      <property name="transition.distort">0</property>
      <property name="transition.rect">00:00:00.000000=960.0 0.0 242.0 136.0 1;00:00:01.200000=1200.0 0.0 241.0 136.0 1</property>
      <property name="transition.valign">top</property>
      <property name="transition.halign">left</property>
      <property name="shotcut:animIn">00:00:01.240000</property>
      <property name="shotcut:animOut">00:00:00.000</property>
      <property name="transition.threads">0</property>
    </filter>
    <filter id="filter158" in="00:00:45.040000" out="00:00:46.240000">
      <property name="window">75</property>
      <property name="max_gain">20dB</property>
      <property name="mlt_service">volume</property>
      <property name="shotcut:filter">muteVolume</property>
      <property name="gain">0</property>
    </filter>
  </producer>
  <producer id="producer83" title="Anonymous Submission" in="00:00:00.000" out="00:03:23.360">
    <property name="length">00:03:23:10</property>
    <property name="eof">pause</property>
    <property name="resource">../../006 - Videos format youtube/Clarinettes/Cecile_clarinette_totoro_recadre.mp4</property>
    <property name="audio_index">1</property>
    <property name="video_index">0</property>
    <property name="mute_on_pause">0</property>
    <property name="mlt_service">avformat-novalidate</property>
    <property name="seekable">1</property>
    <property name="aspect_ratio">1</property>
    <property name="creation_time">2020-04-20T12:31:07</property>
    <property name="shotcut:hash">fa0b3ca4ef9842045a4dd842a677be53</property>
    <property name="ignore_points">0</property>
    <property name="shotcut:caption">Cecile_clarinette_totoro_recadre.mp4</property>
    <property name="shotcut:skipConvert">1</property>
    <property name="global_feed">1</property>
    <property name="xml">was here</property>
    <filter id="filter159" in="00:00:46.280000" out="00:00:47.480000">
      <property name="background">colour:0</property>
      <property name="mlt_service">affine</property>
      <property name="shotcut:filter">affineSizePosition</property>
      <property name="transition.fill">1</property>
      <property name="transition.distort">0</property>
      <property name="transition.rect">00:00:00.000000=1200.0 0.0 242.0 136.0 1;00:00:01.200000=1440.0 0.0 241.0 136.0 1</property>
      <property name="transition.valign">top</property>
      <property name="transition.halign">left</property>
      <property name="shotcut:animIn">00:00:01.240000</property>
      <property name="shotcut:animOut">00:00:00.000</property>
      <property name="transition.threads">0</property>
    </filter>
    <filter id="filter160" in="00:00:46.280000" out="00:00:47.480000">
      <property name="window">75</property>
      <property name="max_gain">20dB</property>
      <property name="mlt_service">volume</property>
      <property name="shotcut:filter">muteVolume</property>
      <property name="gain">0</property>
    </filter>
  </producer>
  <producer id="producer84" title="Anonymous Submission" in="00:00:00.000" out="00:03:23.360">
    <property name="length">00:03:23:10</property>
    <property name="eof">pause</property>
    <property name="resource">../../006 - Videos format youtube/Clarinettes/Cecile_clarinette_totoro_recadre.mp4</property>
    <property name="audio_index">1</property>
    <property name="video_index">0</property>
    <property name="mute_on_pause">0</property>
    <property name="mlt_service">avformat-novalidate</property>
    <property name="seekable">1</property>
    <property name="aspect_ratio">1</property>
    <property name="creation_time">2020-04-20T12:31:07</property>
    <property name="shotcut:hash">fa0b3ca4ef9842045a4dd842a677be53</property>
    <property name="ignore_points">0</property>
    <property name="shotcut:caption">Cecile_clarinette_totoro_recadre.mp4</property>
    <property name="shotcut:skipConvert">1</property>
    <property name="global_feed">1</property>
    <property name="xml">was here</property>
    <filter id="filter161" in="00:00:47.520000" out="00:00:48.720000">
      <property name="background">colour:0</property>
      <property name="mlt_service">affine</property>
      <property name="shotcut:filter">affineSizePosition</property>
      <property name="transition.fill">1</property>
      <property name="transition.distort">0</property>
      <property name="transition.rect">00:00:00.000000=1440.0 0.0 242.0 136.0 1;00:00:01.200000=1680.0 0.0 241.0 136.0 1</property>
      <property name="transition.valign">top</property>
      <property name="transition.halign">left</property>
      <property name="shotcut:animIn">00:00:01.240000</property>
      <property name="shotcut:animOut">00:00:00.000</property>
      <property name="transition.threads">0</property>
    </filter>
    <filter id="filter162" in="00:00:47.520000" out="00:00:48.720000">
      <property name="window">75</property>
      <property name="max_gain">20dB</property>
      <property name="mlt_service">volume</property>
      <property name="shotcut:filter">muteVolume</property>
      <property name="gain">0</property>
    </filter>
  </producer>
  <producer id="producer85" title="Anonymous Submission" in="00:00:00.000" out="00:03:23.360">
    <property name="length">00:03:23:10</property>
    <property name="eof">pause</property>
    <property name="resource">../../006 - Videos format youtube/Clarinettes/Cecile_clarinette_totoro_recadre.mp4</property>
    <property name="audio_index">1</property>
    <property name="video_index">0</property>
    <property name="mute_on_pause">0</property>
    <property name="mlt_service">avformat-novalidate</property>
    <property name="seekable">1</property>
    <property name="aspect_ratio">1</property>
    <property name="creation_time">2020-04-20T12:31:07</property>
    <property name="shotcut:hash">fa0b3ca4ef9842045a4dd842a677be53</property>
    <property name="ignore_points">0</property>
    <property name="shotcut:caption">Cecile_clarinette_totoro_recadre.mp4</property>
    <property name="shotcut:skipConvert">1</property>
    <property name="global_feed">1</property>
    <property name="xml">was here</property>
    <filter id="filter163" in="00:00:48.760000" out="00:01:04.000000">
      <property name="background">colour:0</property>
      <property name="mlt_service">affine</property>
      <property name="shotcut:filter">affineSizePosition</property>
      <property name="transition.fill">1</property>
      <property name="transition.distort">0</property>
      <property name="transition.rect">00:00:00.000000=1680.0 0.0 242.0 136.0 1;00:00:01.200000=1920.0 0.0 241.0 136.0 1</property>
      <property name="transition.valign">top</property>
      <property name="transition.halign">left</property>
      <property name="shotcut:animIn">00:00:01.240000</property>
      <property name="shotcut:animOut">00:00:00.000</property>
      <property name="transition.threads">0</property>
    </filter>
    <filter id="filter164" in="00:00:48.760000" out="00:01:04.000000">
      <property name="window">75</property>
      <property name="max_gain">20dB</property>
      <property name="mlt_service">volume</property>
      <property name="shotcut:filter">muteVolume</property>
      <property name="gain">0</property>
    </filter>
  </producer>
  <producer id="producer86" title="Anonymous Submission" in="00:00:00.000" out="00:03:23.360">
    <property name="length">00:03:23:10</property>
    <property name="eof">pause</property>
    <property name="resource">../../006 - Videos format youtube/Clarinettes/Cecile_clarinette_totoro_recadre.mp4</property>
    <property name="audio_index">1</property>
    <property name="video_index">0</property>
    <property name="mute_on_pause">0</property>
    <property name="mlt_service">avformat-novalidate</property>
    <property name="seekable">1</property>
    <property name="aspect_ratio">1</property>
    <property name="creation_time">2020-04-20T12:31:07</property>
    <property name="shotcut:hash">fa0b3ca4ef9842045a4dd842a677be53</property>
    <property name="ignore_points">0</property>
    <property name="shotcut:caption">Cecile_clarinette_totoro_recadre.mp4</property>
    <property name="shotcut:skipConvert">1</property>
    <property name="global_feed">1</property>
    <property name="xml">was here</property>
    <filter id="filter165" in="00:01:04.040000" out="00:01:20.000000">
      <property name="background">colour:0</property>
      <property name="mlt_service">affine</property>
      <property name="shotcut:filter">affineSizePosition</property>
      <property name="transition.fill">1</property>
      <property name="transition.distort">0</property>
      <property name="transition.rect">-1371.0 -617.0 275.0 155.0 1</property>
      <property name="transition.valign">top</property>
      <property name="transition.halign">left</property>
      <property name="shotcut:animIn">00:00:01.240000</property>
      <property name="shotcut:animOut">00:00:00.000</property>
      <property name="transition.threads">0</property>
    </filter>
    <filter id="filter166" in="00:01:04.040000" out="00:01:20.000000">
      <property name="window">75</property>
      <property name="max_gain">20dB</property>
      <property name="mlt_service">volume</property>
      <property name="shotcut:filter">muteVolume</property>
      <property name="gain">0</property>
    </filter>
  </producer>
  <producer id="producer87" title="Anonymous Submission" in="00:00:00.000" out="00:03:23.360">
    <property name="length">00:03:23:10</property>
    <property name="eof">pause</property>
    <property name="resource">../../006 - Videos format youtube/Clarinettes/Cecile_clarinette_totoro_recadre.mp4</property>
    <property name="audio_index">1</property>
    <property name="video_index">0</property>
    <property name="mute_on_pause">0</property>
    <property name="mlt_service">avformat-novalidate</property>
    <property name="seekable">1</property>
    <property name="aspect_ratio">1</property>
    <property name="creation_time">2020-04-20T12:31:07</property>
    <property name="shotcut:hash">fa0b3ca4ef9842045a4dd842a677be53</property>
    <property name="ignore_points">0</property>
    <property name="shotcut:caption">Cecile_clarinette_totoro_recadre.mp4</property>
    <property name="shotcut:skipConvert">1</property>
    <property name="global_feed">1</property>
    <property name="xml">was here</property>
    <filter id="filter167" in="00:01:20.040000" out="00:01:35.000000">
      <property name="background">colour:0</property>
      <property name="mlt_service">affine</property>
      <property name="shotcut:filter">affineSizePosition</property>
      <property name="transition.fill">1</property>
      <property name="transition.distort">0</property>
      <property name="transition.rect">7199.0 0.0 321.0 181.0 1</property>
      <property name="transition.valign">top</property>
      <property name="transition.halign">left</property>
      <property name="shotcut:animIn">00:00:01.240000</property>
      <property name="shotcut:animOut">00:00:00.000</property>
      <property name="transition.threads">0</property>
    </filter>
    <filter id="filter168" in="00:01:20.040000" out="00:01:35.000000">
      <property name="window">75</property>
      <property name="max_gain">20dB</property>
      <property name="mlt_service">volume</property>
      <property name="shotcut:filter">muteVolume</property>
      <property name="gain">0</property>
    </filter>
  </producer>
  <producer id="producer88" title="Anonymous Submission" in="00:00:00.000" out="00:03:23.360">
    <property name="length">00:03:23:10</property>
    <property name="eof">pause</property>
    <property name="resource">../../006 - Videos format youtube/Clarinettes/Cecile_clarinette_totoro_recadre.mp4</property>
    <property name="audio_index">1</property>
    <property name="video_index">0</property>
    <property name="mute_on_pause">0</property>
    <property name="mlt_service">avformat-novalidate</property>
    <property name="seekable">1</property>
    <property name="aspect_ratio">1</property>
    <property name="creation_time">2020-04-20T12:31:07</property>
    <property name="shotcut:hash">fa0b3ca4ef9842045a4dd842a677be53</property>
    <property name="ignore_points">0</property>
    <property name="shotcut:caption">Cecile_clarinette_totoro_recadre.mp4</property>
    <property name="shotcut:skipConvert">1</property>
    <property name="global_feed">1</property>
    <property name="xml">was here</property>
    <filter id="filter169" in="00:01:35.040000" out="00:01:44.000000">
      <property name="background">colour:0</property>
      <property name="mlt_service">affine</property>
      <property name="shotcut:filter">affineSizePosition</property>
      <property name="transition.fill">1</property>
      <property name="transition.distort">0</property>
      <property name="transition.rect">0.0 154.0 275.0 155.0 1</property>
      <property name="transition.valign">top</property>
      <property name="transition.halign">left</property>
      <property name="shotcut:animIn">00:00:01.240000</property>
      <property name="shotcut:animOut">00:00:00.000</property>
      <property name="transition.threads">0</property>
    </filter>
    <filter id="filter170" in="00:01:35.040000" out="00:01:44.000000">
      <property name="window">75</property>
      <property name="max_gain">20dB</property>
      <property name="mlt_service">volume</property>
      <property name="shotcut:filter">muteVolume</property>
      <property name="gain">0</property>
    </filter>
  </producer>
  <producer id="producer89" title="Anonymous Submission" in="00:00:00.000" out="00:03:23.360">
    <property name="length">00:03:23:10</property>
    <property name="eof">pause</property>
    <property name="resource">../../006 - Videos format youtube/Clarinettes/Cecile_clarinette_totoro_recadre.mp4</property>
    <property name="audio_index">1</property>
    <property name="video_index">0</property>
    <property name="mute_on_pause">0</property>
    <property name="mlt_service">avformat-novalidate</property>
    <property name="seekable">1</property>
    <property name="aspect_ratio">1</property>
    <property name="creation_time">2020-04-20T12:31:07</property>
    <property name="shotcut:hash">fa0b3ca4ef9842045a4dd842a677be53</property>
    <property name="ignore_points">0</property>
    <property name="shotcut:caption">Cecile_clarinette_totoro_recadre.mp4</property>
    <property name="shotcut:skipConvert">1</property>
    <property name="global_feed">1</property>
    <property name="xml">was here</property>
    <filter id="filter171" in="00:01:44.040000" out="00:01:51.000000">
      <property name="background">colour:0</property>
      <property name="mlt_service">affine</property>
      <property name="shotcut:filter">affineSizePosition</property>
      <property name="transition.fill">1</property>
      <property name="transition.distort">0</property>
      <property name="transition.rect">1645.0 925.0 275.0 155.0 1</property>
      <property name="transition.valign">top</property>
      <property name="transition.halign">left</property>
      <property name="shotcut:animIn">00:00:01.240000</property>
      <property name="shotcut:animOut">00:00:00.000</property>
      <property name="transition.threads">0</property>
    </filter>
    <filter id="filter172" in="00:01:44.040000" out="00:01:51.000000">
      <property name="window">75</property>
      <property name="max_gain">20dB</property>
      <property name="mlt_service">volume</property>
      <property name="shotcut:filter">muteVolume</property>
      <property name="gain">0</property>
    </filter>
  </producer>
  <producer id="producer90" title="Anonymous Submission" in="00:00:00.000" out="00:03:23.360">
    <property name="length">00:03:23:10</property>
    <property name="eof">pause</property>
    <property name="resource">../../006 - Videos format youtube/Clarinettes/Cecile_clarinette_totoro_recadre.mp4</property>
    <property name="audio_index">1</property>
    <property name="video_index">0</property>
    <property name="mute_on_pause">0</property>
    <property name="mlt_service">avformat-novalidate</property>
    <property name="seekable">1</property>
    <property name="aspect_ratio">1</property>
    <property name="creation_time">2020-04-20T12:31:07</property>
    <property name="shotcut:hash">fa0b3ca4ef9842045a4dd842a677be53</property>
    <property name="ignore_points">0</property>
    <property name="shotcut:caption">Cecile_clarinette_totoro_recadre.mp4</property>
    <property name="shotcut:skipConvert">1</property>
    <property name="global_feed">1</property>
    <property name="xml">was here</property>
    <filter id="filter173" in="00:01:51.040000" out="00:03:23.360000">
      <property name="background">colour:0</property>
      <property name="mlt_service">affine</property>
      <property name="shotcut:filter">affineSizePosition</property>
      <property name="transition.fill">1</property>
      <property name="transition.distort">0</property>
      <property name="transition.rect">0.0 720.0 641.0 361.0 1</property>
      <property name="transition.valign">top</property>
      <property name="transition.halign">left</property>
      <property name="shotcut:animIn">00:00:01.240000</property>
      <property name="shotcut:animOut">00:00:00.000</property>
      <property name="transition.threads">0</property>
    </filter>
    <filter id="filter174" in="00:01:51.040000" out="00:03:23.360000">
      <property name="window">75</property>
      <property name="max_gain">20dB</property>
      <property name="mlt_service">volume</property>
      <property name="shotcut:filter">muteVolume</property>
      <property name="gain">0</property>
    </filter>
  </producer>
  <playlist id="playlist8">
    <property name="shotcut:video">1</property>
    <property name="shotcut:name">Cecile clar bass</property>
    <property name="shotcut:lock">1</property>
    <blank length="00:00:04.680" />
    <entry producer="producer68" in="00:00:04.720" out="00:00:23.000000" />
    <entry producer="producer69" in="00:00:23.040000" out="00:00:30.000000" />
    <entry producer="producer70" in="00:00:30.040000" out="00:00:31.240000" />
    <entry producer="producer71" in="00:00:31.280000" out="00:00:32.480000" />
    <entry producer="producer72" in="00:00:32.520000" out="00:00:33.720000" />
    <entry producer="producer73" in="00:00:33.760000" out="00:00:35.000000" />
    <entry producer="producer74" in="00:00:35.040000" out="00:00:36.240000" />
    <entry producer="producer75" in="00:00:36.280000" out="00:00:37.480000" />
    <entry producer="producer76" in="00:00:37.520000" out="00:00:38.720000" />
    <entry producer="producer77" in="00:00:38.760000" out="00:00:40.000000" />
    <entry producer="producer78" in="00:00:40.040000" out="00:00:41.240000" />
    <entry producer="producer79" in="00:00:41.280000" out="00:00:42.480000" />
    <entry producer="producer80" in="00:00:42.520000" out="00:00:43.720000" />
    <entry producer="producer81" in="00:00:43.760000" out="00:00:45.000000" />
    <entry producer="producer82" in="00:00:45.040000" out="00:00:46.240000" />
    <entry producer="producer83" in="00:00:46.280000" out="00:00:47.480000" />
    <entry producer="producer84" in="00:00:47.520000" out="00:00:48.720000" />
    <entry producer="producer85" in="00:00:48.760000" out="00:01:04.000000" />
    <entry producer="producer86" in="00:01:04.040000" out="00:01:20.000000" />
    <entry producer="producer87" in="00:01:20.040000" out="00:01:35.000000" />
    <entry producer="producer88" in="00:01:35.040000" out="00:01:44.000000" />
    <entry producer="producer89" in="00:01:44.040000" out="00:01:51.000000" />
    <entry producer="producer90" in="00:01:51.040000" out="00:03:23.360000" />
    <filter id="filter175" out="00:03:23.320">
      <property name="window">75</property>
      <property name="max_gain">20dB</property>
      <property name="level">-8</property>
      <property name="mlt_service">volume</property>
    </filter>
  </playlist>
  <producer id="producer91" title="Anonymous Submission" in="00:00:00.000" out="00:03:22.160">
    <property name="length">00:03:22:05</property>
    <property name="eof">pause</property>
    <property name="resource">../../006 - Videos format youtube/Clarinettes/Am&#233;lie_clarinette_recadre.mp4</property>
    <property name="audio_index">1</property>
    <property name="video_index">0</property>
    <property name="mute_on_pause">0</property>
    <property name="mlt_service">avformat-novalidate</property>
    <property name="seekable">1</property>
    <property name="aspect_ratio">1</property>
    <property name="shotcut:hash">76dbe6d6a34f9982b0d3bc9056faad5e</property>
    <property name="ignore_points">0</property>
    <property name="shotcut:caption">Am&#233;lie_clarinette_recadre.mp4</property>
    <property name="shotcut:skipConvert">1</property>
    <property name="global_feed">1</property>
    <property name="xml">was here</property>
    <filter id="filter176" out="00:00:22.960000">
      <property name="background">colour:0</property>
      <property name="mlt_service">affine</property>
      <property name="shotcut:filter">affineSizePosition</property>
      <property name="transition.fill">1</property>
      <property name="transition.distort">0</property>
      <property name="transition.rect">822.0 0.0 275.0 155.0 1</property>
      <property name="transition.valign">top</property>
      <property name="transition.halign">left</property>
      <property name="shotcut:animIn">00:00:00.000</property>
      <property name="shotcut:animOut">00:00:00.000</property>
      <property name="transition.threads">0</property>
    </filter>
  </producer>
  <producer id="producer92" title="Anonymous Submission" in="00:00:00.000" out="00:03:22.160">
    <property name="length">00:03:22:05</property>
    <property name="eof">pause</property>
    <property name="resource">../../006 - Videos format youtube/Clarinettes/Am&#233;lie_clarinette_recadre.mp4</property>
    <property name="audio_index">1</property>
    <property name="video_index">0</property>
    <property name="mute_on_pause">0</property>
    <property name="mlt_service">avformat-novalidate</property>
    <property name="seekable">1</property>
    <property name="aspect_ratio">1</property>
    <property name="shotcut:hash">76dbe6d6a34f9982b0d3bc9056faad5e</property>
    <property name="ignore_points">0</property>
    <property name="shotcut:caption">Am&#233;lie_clarinette_recadre.mp4</property>
    <property name="shotcut:skipConvert">1</property>
    <property name="global_feed">1</property>
    <property name="xml">was here</property>
    <filter id="filter177" out="00:00:29.960000" in="00:00:23.000000">
      <property name="background">colour:0</property>
      <property name="mlt_service">affine</property>
      <property name="shotcut:filter">affineSizePosition</property>
      <property name="transition.fill">1</property>
      <property name="transition.distort">0</property>
      <property name="transition.rect">00:00:00.000000=822.0 0.0 276.0 155.0 1;00:00:00.440000=1371.0 617.0 275.0 155.0 1</property>
      <property name="transition.valign">top</property>
      <property name="transition.halign">left</property>
      <property name="shotcut:animIn">00:00:00.480000</property>
      <property name="shotcut:animOut">00:00:00.000</property>
      <property name="transition.threads">0</property>
    </filter>
  </producer>
  <producer id="producer93" title="Anonymous Submission" in="00:00:00.000" out="00:03:22.160">
    <property name="length">00:03:22:05</property>
    <property name="eof">pause</property>
    <property name="resource">../../006 - Videos format youtube/Clarinettes/Am&#233;lie_clarinette_recadre.mp4</property>
    <property name="audio_index">1</property>
    <property name="video_index">0</property>
    <property name="mute_on_pause">0</property>
    <property name="mlt_service">avformat-novalidate</property>
    <property name="seekable">1</property>
    <property name="aspect_ratio">1</property>
    <property name="shotcut:hash">76dbe6d6a34f9982b0d3bc9056faad5e</property>
    <property name="ignore_points">0</property>
    <property name="shotcut:caption">Am&#233;lie_clarinette_recadre.mp4</property>
    <property name="shotcut:skipConvert">1</property>
    <property name="global_feed">1</property>
    <property name="xml">was here</property>
    <filter id="filter178" out="00:00:31.200000" in="00:00:30.000000">
      <property name="background">colour:0</property>
      <property name="mlt_service">affine</property>
      <property name="shotcut:filter">affineSizePosition</property>
      <property name="transition.fill">1</property>
      <property name="transition.distort">0</property>
      <property name="transition.rect">00:00:00.000000=0.0 0.0 242.0 136.0 1;00:00:01.200000=240.0 0.0 241.0 136.0 1</property>
      <property name="transition.valign">top</property>
      <property name="transition.halign">left</property>
      <property name="shotcut:animIn">00:00:01.240000</property>
      <property name="shotcut:animOut">00:00:00.000</property>
      <property name="transition.threads">0</property>
    </filter>
  </producer>
  <producer id="producer94" title="Anonymous Submission" in="00:00:00.000" out="00:03:22.160">
    <property name="length">00:03:22:05</property>
    <property name="eof">pause</property>
    <property name="resource">../../006 - Videos format youtube/Clarinettes/Am&#233;lie_clarinette_recadre.mp4</property>
    <property name="audio_index">1</property>
    <property name="video_index">0</property>
    <property name="mute_on_pause">0</property>
    <property name="mlt_service">avformat-novalidate</property>
    <property name="seekable">1</property>
    <property name="aspect_ratio">1</property>
    <property name="shotcut:hash">76dbe6d6a34f9982b0d3bc9056faad5e</property>
    <property name="ignore_points">0</property>
    <property name="shotcut:caption">Am&#233;lie_clarinette_recadre.mp4</property>
    <property name="shotcut:skipConvert">1</property>
    <property name="global_feed">1</property>
    <property name="xml">was here</property>
    <filter id="filter179" out="00:00:32.440000" in="00:00:31.240000">
      <property name="background">colour:0</property>
      <property name="mlt_service">affine</property>
      <property name="shotcut:filter">affineSizePosition</property>
      <property name="transition.fill">1</property>
      <property name="transition.distort">0</property>
      <property name="transition.rect">00:00:00.000000=240.0 0.0 242.0 136.0 1;00:00:01.200000=480.0 0.0 241.0 136.0 1</property>
      <property name="transition.valign">top</property>
      <property name="transition.halign">left</property>
      <property name="shotcut:animIn">00:00:01.240000</property>
      <property name="shotcut:animOut">00:00:00.000</property>
      <property name="transition.threads">0</property>
    </filter>
  </producer>
  <producer id="producer95" title="Anonymous Submission" in="00:00:00.000" out="00:03:22.160">
    <property name="length">00:03:22:05</property>
    <property name="eof">pause</property>
    <property name="resource">../../006 - Videos format youtube/Clarinettes/Am&#233;lie_clarinette_recadre.mp4</property>
    <property name="audio_index">1</property>
    <property name="video_index">0</property>
    <property name="mute_on_pause">0</property>
    <property name="mlt_service">avformat-novalidate</property>
    <property name="seekable">1</property>
    <property name="aspect_ratio">1</property>
    <property name="shotcut:hash">76dbe6d6a34f9982b0d3bc9056faad5e</property>
    <property name="ignore_points">0</property>
    <property name="shotcut:caption">Am&#233;lie_clarinette_recadre.mp4</property>
    <property name="shotcut:skipConvert">1</property>
    <property name="global_feed">1</property>
    <property name="xml">was here</property>
    <filter id="filter180" out="00:00:33.680000" in="00:00:32.480000">
      <property name="background">colour:0</property>
      <property name="mlt_service">affine</property>
      <property name="shotcut:filter">affineSizePosition</property>
      <property name="transition.fill">1</property>
      <property name="transition.distort">0</property>
      <property name="transition.rect">00:00:00.000000=480.0 0.0 242.0 136.0 1;00:00:01.200000=720.0 0.0 241.0 136.0 1</property>
      <property name="transition.valign">top</property>
      <property name="transition.halign">left</property>
      <property name="shotcut:animIn">00:00:01.240000</property>
      <property name="shotcut:animOut">00:00:00.000</property>
      <property name="transition.threads">0</property>
    </filter>
  </producer>
  <producer id="producer96" title="Anonymous Submission" in="00:00:00.000" out="00:03:22.160">
    <property name="length">00:03:22:05</property>
    <property name="eof">pause</property>
    <property name="resource">../../006 - Videos format youtube/Clarinettes/Am&#233;lie_clarinette_recadre.mp4</property>
    <property name="audio_index">1</property>
    <property name="video_index">0</property>
    <property name="mute_on_pause">0</property>
    <property name="mlt_service">avformat-novalidate</property>
    <property name="seekable">1</property>
    <property name="aspect_ratio">1</property>
    <property name="shotcut:hash">76dbe6d6a34f9982b0d3bc9056faad5e</property>
    <property name="ignore_points">0</property>
    <property name="shotcut:caption">Am&#233;lie_clarinette_recadre.mp4</property>
    <property name="shotcut:skipConvert">1</property>
    <property name="global_feed">1</property>
    <property name="xml">was here</property>
    <filter id="filter181" out="00:00:34.960000" in="00:00:33.720000">
      <property name="background">colour:0</property>
      <property name="mlt_service">affine</property>
      <property name="shotcut:filter">affineSizePosition</property>
      <property name="transition.fill">1</property>
      <property name="transition.distort">0</property>
      <property name="transition.rect">00:00:00.000000=720.0 0.0 242.0 136.0 1;00:00:01.200000=960.0 0.0 241.0 136.0 1</property>
      <property name="transition.valign">top</property>
      <property name="transition.halign">left</property>
      <property name="shotcut:animIn">00:00:01.240000</property>
      <property name="shotcut:animOut">00:00:00.000</property>
      <property name="transition.threads">0</property>
    </filter>
  </producer>
  <producer id="producer97" title="Anonymous Submission" in="00:00:00.000" out="00:03:22.160">
    <property name="length">00:03:22:05</property>
    <property name="eof">pause</property>
    <property name="resource">../../006 - Videos format youtube/Clarinettes/Am&#233;lie_clarinette_recadre.mp4</property>
    <property name="audio_index">1</property>
    <property name="video_index">0</property>
    <property name="mute_on_pause">0</property>
    <property name="mlt_service">avformat-novalidate</property>
    <property name="seekable">1</property>
    <property name="aspect_ratio">1</property>
    <property name="shotcut:hash">76dbe6d6a34f9982b0d3bc9056faad5e</property>
    <property name="ignore_points">0</property>
    <property name="shotcut:caption">Am&#233;lie_clarinette_recadre.mp4</property>
    <property name="shotcut:skipConvert">1</property>
    <property name="global_feed">1</property>
    <property name="xml">was here</property>
    <filter id="filter182" out="00:00:36.200000" in="00:00:35.000000">
      <property name="background">colour:0</property>
      <property name="mlt_service">affine</property>
      <property name="shotcut:filter">affineSizePosition</property>
      <property name="transition.fill">1</property>
      <property name="transition.distort">0</property>
      <property name="transition.rect">00:00:00.000000=960.0 0.0 242.0 136.0 1;00:00:01.200000=1200.0 0.0 241.0 136.0 1</property>
      <property name="transition.valign">top</property>
      <property name="transition.halign">left</property>
      <property name="shotcut:animIn">00:00:01.240000</property>
      <property name="shotcut:animOut">00:00:00.000</property>
      <property name="transition.threads">0</property>
    </filter>
  </producer>
  <producer id="producer98" title="Anonymous Submission" in="00:00:00.000" out="00:03:22.160">
    <property name="length">00:03:22:05</property>
    <property name="eof">pause</property>
    <property name="resource">../../006 - Videos format youtube/Clarinettes/Am&#233;lie_clarinette_recadre.mp4</property>
    <property name="audio_index">1</property>
    <property name="video_index">0</property>
    <property name="mute_on_pause">0</property>
    <property name="mlt_service">avformat-novalidate</property>
    <property name="seekable">1</property>
    <property name="aspect_ratio">1</property>
    <property name="shotcut:hash">76dbe6d6a34f9982b0d3bc9056faad5e</property>
    <property name="ignore_points">0</property>
    <property name="shotcut:caption">Am&#233;lie_clarinette_recadre.mp4</property>
    <property name="shotcut:skipConvert">1</property>
    <property name="global_feed">1</property>
    <property name="xml">was here</property>
    <filter id="filter183" out="00:00:37.440000" in="00:00:36.240000">
      <property name="background">colour:0</property>
      <property name="mlt_service">affine</property>
      <property name="shotcut:filter">affineSizePosition</property>
      <property name="transition.fill">1</property>
      <property name="transition.distort">0</property>
      <property name="transition.rect">00:00:00.000000=1200.0 0.0 242.0 136.0 1;00:00:01.200000=1440.0 0.0 241.0 136.0 1</property>
      <property name="transition.valign">top</property>
      <property name="transition.halign">left</property>
      <property name="shotcut:animIn">00:00:01.240000</property>
      <property name="shotcut:animOut">00:00:00.000</property>
      <property name="transition.threads">0</property>
    </filter>
  </producer>
  <producer id="producer99" title="Anonymous Submission" in="00:00:00.000" out="00:03:22.160">
    <property name="length">00:03:22:05</property>
    <property name="eof">pause</property>
    <property name="resource">../../006 - Videos format youtube/Clarinettes/Am&#233;lie_clarinette_recadre.mp4</property>
    <property name="audio_index">1</property>
    <property name="video_index">0</property>
    <property name="mute_on_pause">0</property>
    <property name="mlt_service">avformat-novalidate</property>
    <property name="seekable">1</property>
    <property name="aspect_ratio">1</property>
    <property name="shotcut:hash">76dbe6d6a34f9982b0d3bc9056faad5e</property>
    <property name="ignore_points">0</property>
    <property name="shotcut:caption">Am&#233;lie_clarinette_recadre.mp4</property>
    <property name="shotcut:skipConvert">1</property>
    <property name="global_feed">1</property>
    <property name="xml">was here</property>
    <filter id="filter184" out="00:00:38.680000" in="00:00:37.480000">
      <property name="background">colour:0</property>
      <property name="mlt_service">affine</property>
      <property name="shotcut:filter">affineSizePosition</property>
      <property name="transition.fill">1</property>
      <property name="transition.distort">0</property>
      <property name="transition.rect">00:00:00.000000=1440.0 0.0 242.0 136.0 1;00:00:01.200000=1680.0 0.0 241.0 136.0 1</property>
      <property name="transition.valign">top</property>
      <property name="transition.halign">left</property>
      <property name="shotcut:animIn">00:00:01.240000</property>
      <property name="shotcut:animOut">00:00:00.000</property>
      <property name="transition.threads">0</property>
    </filter>
  </producer>
  <producer id="producer100" title="Anonymous Submission" in="00:00:00.000" out="00:03:22.160">
    <property name="length">00:03:22:05</property>
    <property name="eof">pause</property>
    <property name="resource">../../006 - Videos format youtube/Clarinettes/Am&#233;lie_clarinette_recadre.mp4</property>
    <property name="audio_index">1</property>
    <property name="video_index">0</property>
    <property name="mute_on_pause">0</property>
    <property name="mlt_service">avformat-novalidate</property>
    <property name="seekable">1</property>
    <property name="aspect_ratio">1</property>
    <property name="shotcut:hash">76dbe6d6a34f9982b0d3bc9056faad5e</property>
    <property name="ignore_points">0</property>
    <property name="shotcut:caption">Am&#233;lie_clarinette_recadre.mp4</property>
    <property name="shotcut:skipConvert">1</property>
    <property name="global_feed">1</property>
    <property name="xml">was here</property>
    <filter id="filter185" out="00:00:39.960000" in="00:00:38.720000">
      <property name="background">colour:0</property>
      <property name="mlt_service">affine</property>
      <property name="shotcut:filter">affineSizePosition</property>
      <property name="transition.fill">1</property>
      <property name="transition.distort">0</property>
      <property name="transition.rect">00:00:00.000000=1680.0 0.0 242.0 136.0 1;00:00:01.200000=1920.0 0.0 241.0 136.0 1</property>
      <property name="transition.valign">top</property>
      <property name="transition.halign">left</property>
      <property name="shotcut:animIn">00:00:01.240000</property>
      <property name="shotcut:animOut">00:00:00.000</property>
      <property name="transition.threads">0</property>
    </filter>
  </producer>
  <producer id="producer101" title="Anonymous Submission" in="00:00:00.000" out="00:03:22.160">
    <property name="length">00:03:22:05</property>
    <property name="eof">pause</property>
    <property name="resource">../../006 - Videos format youtube/Clarinettes/Am&#233;lie_clarinette_recadre.mp4</property>
    <property name="audio_index">1</property>
    <property name="video_index">0</property>
    <property name="mute_on_pause">0</property>
    <property name="mlt_service">avformat-novalidate</property>
    <property name="seekable">1</property>
    <property name="aspect_ratio">1</property>
    <property name="shotcut:hash">76dbe6d6a34f9982b0d3bc9056faad5e</property>
    <property name="ignore_points">0</property>
    <property name="shotcut:caption">Am&#233;lie_clarinette_recadre.mp4</property>
    <property name="shotcut:skipConvert">1</property>
    <property name="global_feed">1</property>
    <property name="xml">was here</property>
    <filter id="filter186" out="00:00:41.200000" in="00:00:40.000000">
      <property name="background">colour:0</property>
      <property name="mlt_service">affine</property>
      <property name="shotcut:filter">affineSizePosition</property>
      <property name="transition.fill">1</property>
      <property name="transition.distort">0</property>
      <property name="transition.rect">00:00:00.000000=1920.0 0.0 242.0 136.0 1;00:00:01.200000=2160.0 0.0 241.0 136.0 1</property>
      <property name="transition.valign">top</property>
      <property name="transition.halign">left</property>
      <property name="shotcut:animIn">00:00:01.240000</property>
      <property name="shotcut:animOut">00:00:00.000</property>
      <property name="transition.threads">0</property>
    </filter>
  </producer>
  <producer id="producer102" title="Anonymous Submission" in="00:00:00.000" out="00:03:22.160">
    <property name="length">00:03:22:05</property>
    <property name="eof">pause</property>
    <property name="resource">../../006 - Videos format youtube/Clarinettes/Am&#233;lie_clarinette_recadre.mp4</property>
    <property name="audio_index">1</property>
    <property name="video_index">0</property>
    <property name="mute_on_pause">0</property>
    <property name="mlt_service">avformat-novalidate</property>
    <property name="seekable">1</property>
    <property name="aspect_ratio">1</property>
    <property name="shotcut:hash">76dbe6d6a34f9982b0d3bc9056faad5e</property>
    <property name="ignore_points">0</property>
    <property name="shotcut:caption">Am&#233;lie_clarinette_recadre.mp4</property>
    <property name="shotcut:skipConvert">1</property>
    <property name="global_feed">1</property>
    <property name="xml">was here</property>
    <filter id="filter187" out="00:00:42.440000" in="00:00:41.240000">
      <property name="background">colour:0</property>
      <property name="mlt_service">affine</property>
      <property name="shotcut:filter">affineSizePosition</property>
      <property name="transition.fill">1</property>
      <property name="transition.distort">0</property>
      <property name="transition.rect">00:00:00.000000=2160.0 0.0 242.0 136.0 1;00:00:01.200000=2400.0 0.0 241.0 136.0 1</property>
      <property name="transition.valign">top</property>
      <property name="transition.halign">left</property>
      <property name="shotcut:animIn">00:00:01.240000</property>
      <property name="shotcut:animOut">00:00:00.000</property>
      <property name="transition.threads">0</property>
    </filter>
  </producer>
  <producer id="producer103" title="Anonymous Submission" in="00:00:00.000" out="00:03:22.160">
    <property name="length">00:03:22:05</property>
    <property name="eof">pause</property>
    <property name="resource">../../006 - Videos format youtube/Clarinettes/Am&#233;lie_clarinette_recadre.mp4</property>
    <property name="audio_index">1</property>
    <property name="video_index">0</property>
    <property name="mute_on_pause">0</property>
    <property name="mlt_service">avformat-novalidate</property>
    <property name="seekable">1</property>
    <property name="aspect_ratio">1</property>
    <property name="shotcut:hash">76dbe6d6a34f9982b0d3bc9056faad5e</property>
    <property name="ignore_points">0</property>
    <property name="shotcut:caption">Am&#233;lie_clarinette_recadre.mp4</property>
    <property name="shotcut:skipConvert">1</property>
    <property name="global_feed">1</property>
    <property name="xml">was here</property>
    <filter id="filter188" out="00:00:43.680000" in="00:00:42.480000">
      <property name="background">colour:0</property>
      <property name="mlt_service">affine</property>
      <property name="shotcut:filter">affineSizePosition</property>
      <property name="transition.fill">1</property>
      <property name="transition.distort">0</property>
      <property name="transition.rect">00:00:00.000000=0.0 0.0 242.0 136.0 1;00:00:01.200000=240.0 0.0 241.0 136.0 1</property>
      <property name="transition.valign">top</property>
      <property name="transition.halign">left</property>
      <property name="shotcut:animIn">00:00:01.240000</property>
      <property name="shotcut:animOut">00:00:00.000</property>
      <property name="transition.threads">0</property>
    </filter>
  </producer>
  <producer id="producer104" title="Anonymous Submission" in="00:00:00.000" out="00:03:22.160">
    <property name="length">00:03:22:05</property>
    <property name="eof">pause</property>
    <property name="resource">../../006 - Videos format youtube/Clarinettes/Am&#233;lie_clarinette_recadre.mp4</property>
    <property name="audio_index">1</property>
    <property name="video_index">0</property>
    <property name="mute_on_pause">0</property>
    <property name="mlt_service">avformat-novalidate</property>
    <property name="seekable">1</property>
    <property name="aspect_ratio">1</property>
    <property name="shotcut:hash">76dbe6d6a34f9982b0d3bc9056faad5e</property>
    <property name="ignore_points">0</property>
    <property name="shotcut:caption">Am&#233;lie_clarinette_recadre.mp4</property>
    <property name="shotcut:skipConvert">1</property>
    <property name="global_feed">1</property>
    <property name="xml">was here</property>
    <filter id="filter189" out="00:00:44.960000" in="00:00:43.720000">
      <property name="background">colour:0</property>
      <property name="mlt_service">affine</property>
      <property name="shotcut:filter">affineSizePosition</property>
      <property name="transition.fill">1</property>
      <property name="transition.distort">0</property>
      <property name="transition.rect">00:00:00.000000=240.0 0.0 242.0 136.0 1;00:00:01.200000=480.0 0.0 241.0 136.0 1</property>
      <property name="transition.valign">top</property>
      <property name="transition.halign">left</property>
      <property name="shotcut:animIn">00:00:01.240000</property>
      <property name="shotcut:animOut">00:00:00.000</property>
      <property name="transition.threads">0</property>
    </filter>
  </producer>
  <producer id="producer105" title="Anonymous Submission" in="00:00:00.000" out="00:03:22.160">
    <property name="length">00:03:22:05</property>
    <property name="eof">pause</property>
    <property name="resource">../../006 - Videos format youtube/Clarinettes/Am&#233;lie_clarinette_recadre.mp4</property>
    <property name="audio_index">1</property>
    <property name="video_index">0</property>
    <property name="mute_on_pause">0</property>
    <property name="mlt_service">avformat-novalidate</property>
    <property name="seekable">1</property>
    <property name="aspect_ratio">1</property>
    <property name="shotcut:hash">76dbe6d6a34f9982b0d3bc9056faad5e</property>
    <property name="ignore_points">0</property>
    <property name="shotcut:caption">Am&#233;lie_clarinette_recadre.mp4</property>
    <property name="shotcut:skipConvert">1</property>
    <property name="global_feed">1</property>
    <property name="xml">was here</property>
    <filter id="filter190" out="00:00:46.200000" in="00:00:45.000000">
      <property name="background">colour:0</property>
      <property name="mlt_service">affine</property>
      <property name="shotcut:filter">affineSizePosition</property>
      <property name="transition.fill">1</property>
      <property name="transition.distort">0</property>
      <property name="transition.rect">00:00:00.000000=480.0 0.0 242.0 136.0 1;00:00:01.200000=720.0 0.0 241.0 136.0 1</property>
      <property name="transition.valign">top</property>
      <property name="transition.halign">left</property>
      <property name="shotcut:animIn">00:00:01.240000</property>
      <property name="shotcut:animOut">00:00:00.000</property>
      <property name="transition.threads">0</property>
    </filter>
  </producer>
  <producer id="producer106" title="Anonymous Submission" in="00:00:00.000" out="00:03:22.160">
    <property name="length">00:03:22:05</property>
    <property name="eof">pause</property>
    <property name="resource">../../006 - Videos format youtube/Clarinettes/Am&#233;lie_clarinette_recadre.mp4</property>
    <property name="audio_index">1</property>
    <property name="video_index">0</property>
    <property name="mute_on_pause">0</property>
    <property name="mlt_service">avformat-novalidate</property>
    <property name="seekable">1</property>
    <property name="aspect_ratio">1</property>
    <property name="shotcut:hash">76dbe6d6a34f9982b0d3bc9056faad5e</property>
    <property name="ignore_points">0</property>
    <property name="shotcut:caption">Am&#233;lie_clarinette_recadre.mp4</property>
    <property name="shotcut:skipConvert">1</property>
    <property name="global_feed">1</property>
    <property name="xml">was here</property>
    <filter id="filter191" out="00:00:47.440000" in="00:00:46.240000">
      <property name="background">colour:0</property>
      <property name="mlt_service">affine</property>
      <property name="shotcut:filter">affineSizePosition</property>
      <property name="transition.fill">1</property>
      <property name="transition.distort">0</property>
      <property name="transition.rect">00:00:00.000000=720.0 0.0 242.0 136.0 1;00:00:01.200000=960.0 0.0 241.0 136.0 1</property>
      <property name="transition.valign">top</property>
      <property name="transition.halign">left</property>
      <property name="shotcut:animIn">00:00:01.240000</property>
      <property name="shotcut:animOut">00:00:00.000</property>
      <property name="transition.threads">0</property>
    </filter>
  </producer>
  <producer id="producer107" title="Anonymous Submission" in="00:00:00.000" out="00:03:22.160">
    <property name="length">00:03:22:05</property>
    <property name="eof">pause</property>
    <property name="resource">../../006 - Videos format youtube/Clarinettes/Am&#233;lie_clarinette_recadre.mp4</property>
    <property name="audio_index">1</property>
    <property name="video_index">0</property>
    <property name="mute_on_pause">0</property>
    <property name="mlt_service">avformat-novalidate</property>
    <property name="seekable">1</property>
    <property name="aspect_ratio">1</property>
    <property name="shotcut:hash">76dbe6d6a34f9982b0d3bc9056faad5e</property>
    <property name="ignore_points">0</property>
    <property name="shotcut:caption">Am&#233;lie_clarinette_recadre.mp4</property>
    <property name="shotcut:skipConvert">1</property>
    <property name="global_feed">1</property>
    <property name="xml">was here</property>
    <filter id="filter192" out="00:00:48.680000" in="00:00:47.480000">
      <property name="background">colour:0</property>
      <property name="mlt_service">affine</property>
      <property name="shotcut:filter">affineSizePosition</property>
      <property name="transition.fill">1</property>
      <property name="transition.distort">0</property>
      <property name="transition.rect">00:00:00.000000=960.0 0.0 242.0 136.0 1;00:00:01.200000=1200.0 0.0 241.0 136.0 1</property>
      <property name="transition.valign">top</property>
      <property name="transition.halign">left</property>
      <property name="shotcut:animIn">00:00:01.240000</property>
      <property name="shotcut:animOut">00:00:00.000</property>
      <property name="transition.threads">0</property>
    </filter>
  </producer>
  <producer id="producer108" title="Anonymous Submission" in="00:00:00.000" out="00:03:22.160">
    <property name="length">00:03:22:05</property>
    <property name="eof">pause</property>
    <property name="resource">../../006 - Videos format youtube/Clarinettes/Am&#233;lie_clarinette_recadre.mp4</property>
    <property name="audio_index">1</property>
    <property name="video_index">0</property>
    <property name="mute_on_pause">0</property>
    <property name="mlt_service">avformat-novalidate</property>
    <property name="seekable">1</property>
    <property name="aspect_ratio">1</property>
    <property name="shotcut:hash">76dbe6d6a34f9982b0d3bc9056faad5e</property>
    <property name="ignore_points">0</property>
    <property name="shotcut:caption">Am&#233;lie_clarinette_recadre.mp4</property>
    <property name="shotcut:skipConvert">1</property>
    <property name="global_feed">1</property>
    <property name="xml">was here</property>
    <filter id="filter193" out="00:01:03.960000" in="00:00:48.720000">
      <property name="background">colour:0</property>
      <property name="mlt_service">affine</property>
      <property name="shotcut:filter">affineSizePosition</property>
      <property name="transition.fill">1</property>
      <property name="transition.distort">0</property>
      <property name="transition.rect">00:00:00.000000=1200.0 0.0 242.0 136.0 1;00:00:01.200000=1440.0 0.0 241.0 136.0 1</property>
      <property name="transition.valign">top</property>
      <property name="transition.halign">left</property>
      <property name="shotcut:animIn">00:00:01.240000</property>
      <property name="shotcut:animOut">00:00:00.000</property>
      <property name="transition.threads">0</property>
    </filter>
  </producer>
  <producer id="producer109" title="Anonymous Submission" in="00:00:00.000" out="00:03:22.160">
    <property name="length">00:03:22:05</property>
    <property name="eof">pause</property>
    <property name="resource">../../006 - Videos format youtube/Clarinettes/Am&#233;lie_clarinette_recadre.mp4</property>
    <property name="audio_index">1</property>
    <property name="video_index">0</property>
    <property name="mute_on_pause">0</property>
    <property name="mlt_service">avformat-novalidate</property>
    <property name="seekable">1</property>
    <property name="aspect_ratio">1</property>
    <property name="shotcut:hash">76dbe6d6a34f9982b0d3bc9056faad5e</property>
    <property name="ignore_points">0</property>
    <property name="shotcut:caption">Am&#233;lie_clarinette_recadre.mp4</property>
    <property name="shotcut:skipConvert">1</property>
    <property name="global_feed">1</property>
    <property name="xml">was here</property>
    <filter id="filter194" out="00:01:11.960000" in="00:01:04.000000">
      <property name="background">colour:0</property>
      <property name="mlt_service">affine</property>
      <property name="shotcut:filter">affineSizePosition</property>
      <property name="transition.fill">1</property>
      <property name="transition.distort">0</property>
      <property name="transition.rect">822.0 0.0 275.0 155.0 1</property>
      <property name="transition.valign">top</property>
      <property name="transition.halign">left</property>
      <property name="shotcut:animIn">00:00:01.240000</property>
      <property name="shotcut:animOut">00:00:00.000</property>
      <property name="transition.threads">0</property>
    </filter>
  </producer>
  <producer id="producer110" title="Anonymous Submission" in="00:00:00.000" out="00:03:22.160">
    <property name="length">00:03:22:05</property>
    <property name="eof">pause</property>
    <property name="resource">../../006 - Videos format youtube/Clarinettes/Am&#233;lie_clarinette_recadre.mp4</property>
    <property name="audio_index">1</property>
    <property name="video_index">0</property>
    <property name="mute_on_pause">0</property>
    <property name="mlt_service">avformat-novalidate</property>
    <property name="seekable">1</property>
    <property name="aspect_ratio">1</property>
    <property name="shotcut:hash">76dbe6d6a34f9982b0d3bc9056faad5e</property>
    <property name="ignore_points">0</property>
    <property name="shotcut:caption">Am&#233;lie_clarinette_recadre.mp4</property>
    <property name="shotcut:skipConvert">1</property>
    <property name="global_feed">1</property>
    <property name="xml">was here</property>
    <filter id="filter195" out="00:01:19.960000" in="00:01:12.000000">
      <property name="background">colour:0</property>
      <property name="mlt_service">affine</property>
      <property name="shotcut:filter">affineSizePosition</property>
      <property name="transition.fill">1</property>
      <property name="transition.distort">0</property>
      <property name="transition.rect">1371.0 462.0 275.0 155.0 1</property>
      <property name="transition.valign">top</property>
      <property name="transition.halign">left</property>
      <property name="shotcut:animIn">00:00:01.240000</property>
      <property name="shotcut:animOut">00:00:00.000</property>
      <property name="transition.threads">0</property>
    </filter>
  </producer>
  <producer id="producer111" title="Anonymous Submission" in="00:00:00.000" out="00:03:22.160">
    <property name="length">00:03:22:05</property>
    <property name="eof">pause</property>
    <property name="resource">../../006 - Videos format youtube/Clarinettes/Am&#233;lie_clarinette_recadre.mp4</property>
    <property name="audio_index">1</property>
    <property name="video_index">0</property>
    <property name="mute_on_pause">0</property>
    <property name="mlt_service">avformat-novalidate</property>
    <property name="seekable">1</property>
    <property name="aspect_ratio">1</property>
    <property name="shotcut:hash">76dbe6d6a34f9982b0d3bc9056faad5e</property>
    <property name="ignore_points">0</property>
    <property name="shotcut:caption">Am&#233;lie_clarinette_recadre.mp4</property>
    <property name="shotcut:skipConvert">1</property>
    <property name="global_feed">1</property>
    <property name="xml">was here</property>
    <filter id="filter196" out="00:01:26.960000" in="00:01:20.000000">
      <property name="background">colour:0</property>
      <property name="mlt_service">affine</property>
      <property name="shotcut:filter">affineSizePosition</property>
      <property name="transition.fill">1</property>
      <property name="transition.distort">0</property>
      <property name="transition.rect">0.0 540.0 321.0 181.0 1</property>
      <property name="transition.valign">top</property>
      <property name="transition.halign">left</property>
      <property name="shotcut:animIn">00:00:01.240000</property>
      <property name="shotcut:animOut">00:00:00.000</property>
      <property name="transition.threads">0</property>
    </filter>
  </producer>
  <producer id="producer112" title="Anonymous Submission" in="00:00:00.000" out="00:03:22.160">
    <property name="length">00:03:22:05</property>
    <property name="eof">pause</property>
    <property name="resource">../../006 - Videos format youtube/Clarinettes/Am&#233;lie_clarinette_recadre.mp4</property>
    <property name="audio_index">1</property>
    <property name="video_index">0</property>
    <property name="mute_on_pause">0</property>
    <property name="mlt_service">avformat-novalidate</property>
    <property name="seekable">1</property>
    <property name="aspect_ratio">1</property>
    <property name="shotcut:hash">76dbe6d6a34f9982b0d3bc9056faad5e</property>
    <property name="ignore_points">0</property>
    <property name="shotcut:caption">Am&#233;lie_clarinette_recadre.mp4</property>
    <property name="shotcut:skipConvert">1</property>
    <property name="global_feed">1</property>
    <property name="xml">was here</property>
    <filter id="filter197" out="00:01:34.960000" in="00:01:27.000000">
      <property name="background">colour:0</property>
      <property name="mlt_service">affine</property>
      <property name="shotcut:filter">affineSizePosition</property>
      <property name="transition.fill">1</property>
      <property name="transition.distort">0</property>
      <property name="transition.rect">0.0 -900.0 321.0 181.0 1</property>
      <property name="transition.valign">top</property>
      <property name="transition.halign">left</property>
      <property name="shotcut:animIn">00:00:01.240000</property>
      <property name="shotcut:animOut">00:00:00.000</property>
      <property name="transition.threads">0</property>
    </filter>
  </producer>
  <producer id="producer113" title="Anonymous Submission" in="00:00:00.000" out="00:03:22.160">
    <property name="length">00:03:22:05</property>
    <property name="eof">pause</property>
    <property name="resource">../../006 - Videos format youtube/Clarinettes/Am&#233;lie_clarinette_recadre.mp4</property>
    <property name="audio_index">1</property>
    <property name="video_index">0</property>
    <property name="mute_on_pause">0</property>
    <property name="mlt_service">avformat-novalidate</property>
    <property name="seekable">1</property>
    <property name="aspect_ratio">1</property>
    <property name="shotcut:hash">76dbe6d6a34f9982b0d3bc9056faad5e</property>
    <property name="ignore_points">0</property>
    <property name="shotcut:caption">Am&#233;lie_clarinette_recadre.mp4</property>
    <property name="shotcut:skipConvert">1</property>
    <property name="global_feed">1</property>
    <property name="xml">was here</property>
    <filter id="filter198" out="00:01:43.960000" in="00:01:35.000000">
      <property name="background">colour:0</property>
      <property name="mlt_service">affine</property>
      <property name="shotcut:filter">affineSizePosition</property>
      <property name="transition.fill">1</property>
      <property name="transition.distort">0</property>
      <property name="transition.rect">1097.0 462.0 275.0 155.0 1</property>
      <property name="transition.valign">top</property>
      <property name="transition.halign">left</property>
      <property name="shotcut:animIn">00:00:01.240000</property>
      <property name="shotcut:animOut">00:00:00.000</property>
      <property name="transition.threads">0</property>
    </filter>
  </producer>
  <producer id="producer114" title="Anonymous Submission" in="00:00:00.000" out="00:03:22.160">
    <property name="length">00:03:22:05</property>
    <property name="eof">pause</property>
    <property name="resource">../../006 - Videos format youtube/Clarinettes/Am&#233;lie_clarinette_recadre.mp4</property>
    <property name="audio_index">1</property>
    <property name="video_index">0</property>
    <property name="mute_on_pause">0</property>
    <property name="mlt_service">avformat-novalidate</property>
    <property name="seekable">1</property>
    <property name="aspect_ratio">1</property>
    <property name="shotcut:hash">76dbe6d6a34f9982b0d3bc9056faad5e</property>
    <property name="ignore_points">0</property>
    <property name="shotcut:caption">Am&#233;lie_clarinette_recadre.mp4</property>
    <property name="shotcut:skipConvert">1</property>
    <property name="global_feed">1</property>
    <property name="xml">was here</property>
    <filter id="filter199" out="00:01:50.960000" in="00:01:44.000000">
      <property name="background">colour:0</property>
      <property name="mlt_service">affine</property>
      <property name="shotcut:filter">affineSizePosition</property>
      <property name="transition.fill">1</property>
      <property name="transition.distort">0</property>
      <property name="transition.rect">-548.0 -308.0 275.0 155.0 1</property>
      <property name="transition.valign">top</property>
      <property name="transition.halign">left</property>
      <property name="shotcut:animIn">00:00:01.240000</property>
      <property name="shotcut:animOut">00:00:00.000</property>
      <property name="transition.threads">0</property>
    </filter>
  </producer>
  <producer id="producer115" title="Anonymous Submission" in="00:00:00.000" out="00:03:22.160">
    <property name="length">00:03:22:05</property>
    <property name="eof">pause</property>
    <property name="resource">../../006 - Videos format youtube/Clarinettes/Am&#233;lie_clarinette_recadre.mp4</property>
    <property name="audio_index">1</property>
    <property name="video_index">0</property>
    <property name="mute_on_pause">0</property>
    <property name="mlt_service">avformat-novalidate</property>
    <property name="seekable">1</property>
    <property name="aspect_ratio">1</property>
    <property name="shotcut:hash">76dbe6d6a34f9982b0d3bc9056faad5e</property>
    <property name="ignore_points">0</property>
    <property name="shotcut:caption">Am&#233;lie_clarinette_recadre.mp4</property>
    <property name="shotcut:skipConvert">1</property>
    <property name="global_feed">1</property>
    <property name="xml">was here</property>
    <filter id="filter200" out="00:03:22.160" in="00:01:51.000000">
      <property name="background">colour:0</property>
      <property name="mlt_service">affine</property>
      <property name="shotcut:filter">affineSizePosition</property>
      <property name="transition.fill">1</property>
      <property name="transition.distort">0</property>
      <property name="transition.rect">1280.0 0.0 641.0 361.0 1</property>
      <property name="transition.valign">top</property>
      <property name="transition.halign">left</property>
      <property name="shotcut:animIn">00:00:01.240000</property>
      <property name="shotcut:animOut">00:00:00.000</property>
      <property name="transition.threads">0</property>
    </filter>
  </producer>
  <playlist id="playlist9">
    <property name="shotcut:video">1</property>
    <property name="shotcut:name">Clarinette_amelie_recadree</property>
    <property name="shotcut:lock">1</property>
    <entry producer="producer91" in="00:00:00.000" out="00:00:22.960000" />
    <entry producer="producer92" in="00:00:23.000000" out="00:00:29.960000" />
    <entry producer="producer93" in="00:00:30.000000" out="00:00:31.200000" />
    <entry producer="producer94" in="00:00:31.240000" out="00:00:32.440000" />
    <entry producer="producer95" in="00:00:32.480000" out="00:00:33.680000" />
    <entry producer="producer96" in="00:00:33.720000" out="00:00:34.960000" />
    <entry producer="producer97" in="00:00:35.000000" out="00:00:36.200000" />
    <entry producer="producer98" in="00:00:36.240000" out="00:00:37.440000" />
    <entry producer="producer99" in="00:00:37.480000" out="00:00:38.680000" />
    <entry producer="producer100" in="00:00:38.720000" out="00:00:39.960000" />
    <entry producer="producer101" in="00:00:40.000000" out="00:00:41.200000" />
    <entry producer="producer102" in="00:00:41.240000" out="00:00:42.440000" />
    <entry producer="producer103" in="00:00:42.480000" out="00:00:43.680000" />
    <entry producer="producer104" in="00:00:43.720000" out="00:00:44.960000" />
    <entry producer="producer105" in="00:00:45.000000" out="00:00:46.200000" />
    <entry producer="producer106" in="00:00:46.240000" out="00:00:47.440000" />
    <entry producer="producer107" in="00:00:47.480000" out="00:00:48.680000" />
    <entry producer="producer108" in="00:00:48.720000" out="00:01:03.960000" />
    <entry producer="producer109" in="00:01:04.000000" out="00:01:11.960000" />
    <entry producer="producer110" in="00:01:12.000000" out="00:01:19.960000" />
    <entry producer="producer111" in="00:01:20.000000" out="00:01:26.960000" />
    <entry producer="producer112" in="00:01:27.000000" out="00:01:34.960000" />
    <entry producer="producer113" in="00:01:35.000000" out="00:01:43.960000" />
    <entry producer="producer114" in="00:01:44.000000" out="00:01:50.960000" />
    <entry producer="producer115" in="00:01:51.000000" out="00:03:22.160" />
    <filter id="filter201" out="00:03:23.320">
      <property name="window">75</property>
      <property name="max_gain">20dB</property>
      <property name="level">-8</property>
      <property name="mlt_service">volume</property>
    </filter>
  </playlist>
  <producer id="producer116" title="Anonymous Submission" in="00:00:00.000" out="00:03:27.800">
    <property name="length">00:03:27:21</property>
    <property name="eof">pause</property>
    <property name="resource">../../006 - Videos format youtube/Clarinettes/Nelly_clarinette_totoro.mp4</property>
    <property name="audio_index">1</property>
    <property name="video_index">0</property>
    <property name="mute_on_pause">0</property>
    <property name="mlt_service">avformat-novalidate</property>
    <property name="seekable">1</property>
    <property name="aspect_ratio">1</property>
    <property name="creation_time">2020-04-05T13:37:57</property>
    <property name="shotcut:hash">ce64ff05cbaafa4ab64d61c9e57002dd</property>
    <property name="ignore_points">0</property>
    <property name="shotcut:caption">Nelly_clarinette_totoro.mp4</property>
    <property name="shotcut:skipConvert">1</property>
    <property name="global_feed">1</property>
    <property name="xml">was here</property>
    <filter id="filter202" in="00:00:15.440" out="00:00:29.880000">
      <property name="background">colour:0</property>
      <property name="mlt_service">affine</property>
      <property name="shotcut:filter">affineSizePosition</property>
      <property name="transition.fill">1</property>
      <property name="transition.distort">0</property>
      <property name="transition.rect">1371.0 617.0 275.0 155.0 1</property>
      <property name="transition.valign">top</property>
      <property name="transition.halign">left</property>
      <property name="shotcut:animIn">00:00:00.000</property>
      <property name="shotcut:animOut">00:00:00.000</property>
      <property name="transition.threads">0</property>
    </filter>
    <filter id="filter203" in="00:00:15.440" out="00:00:29.880000">
      <property name="window">75</property>
      <property name="max_gain">20dB</property>
      <property name="level">0</property>
      <property name="mlt_service">volume</property>
      <property name="disable">1</property>
    </filter>
  </producer>
  <producer id="producer117" title="Anonymous Submission" in="00:00:00.000" out="00:03:27.800">
    <property name="length">00:03:27:21</property>
    <property name="eof">pause</property>
    <property name="resource">../../006 - Videos format youtube/Clarinettes/Nelly_clarinette_totoro.mp4</property>
    <property name="audio_index">1</property>
    <property name="video_index">0</property>
    <property name="mute_on_pause">0</property>
    <property name="mlt_service">avformat-novalidate</property>
    <property name="seekable">1</property>
    <property name="aspect_ratio">1</property>
    <property name="creation_time">2020-04-05T13:37:57</property>
    <property name="shotcut:hash">ce64ff05cbaafa4ab64d61c9e57002dd</property>
    <property name="ignore_points">0</property>
    <property name="shotcut:caption">Nelly_clarinette_totoro.mp4</property>
    <property name="shotcut:skipConvert">1</property>
    <property name="global_feed">1</property>
    <property name="xml">was here</property>
    <filter id="filter204" in="00:00:29.920000" out="00:00:36.880000">
      <property name="background">colour:0</property>
      <property name="mlt_service">affine</property>
      <property name="shotcut:filter">affineSizePosition</property>
      <property name="transition.fill">1</property>
      <property name="transition.distort">0</property>
      <property name="transition.rect">00:00:00.000000=1371.0 617.0 276.0 155.0 1;00:00:00.440000=822.0 0.0 275.0 155.0 1</property>
      <property name="transition.valign">top</property>
      <property name="transition.halign">left</property>
      <property name="shotcut:animIn">00:00:00.480000</property>
      <property name="shotcut:animOut">00:00:00.000</property>
      <property name="transition.threads">0</property>
    </filter>
    <filter id="filter205" in="00:00:29.920000" out="00:00:36.880000">
      <property name="window">75</property>
      <property name="max_gain">20dB</property>
      <property name="level">0</property>
      <property name="mlt_service">volume</property>
      <property name="disable">1</property>
    </filter>
  </producer>
  <producer id="producer118" title="Anonymous Submission" in="00:00:00.000" out="00:03:27.800">
    <property name="length">00:03:27:21</property>
    <property name="eof">pause</property>
    <property name="resource">../../006 - Videos format youtube/Clarinettes/Nelly_clarinette_totoro.mp4</property>
    <property name="audio_index">1</property>
    <property name="video_index">0</property>
    <property name="mute_on_pause">0</property>
    <property name="mlt_service">avformat-novalidate</property>
    <property name="seekable">1</property>
    <property name="aspect_ratio">1</property>
    <property name="creation_time">2020-04-05T13:37:57</property>
    <property name="shotcut:hash">ce64ff05cbaafa4ab64d61c9e57002dd</property>
    <property name="ignore_points">0</property>
    <property name="shotcut:caption">Nelly_clarinette_totoro.mp4</property>
    <property name="shotcut:skipConvert">1</property>
    <property name="global_feed">1</property>
    <property name="xml">was here</property>
    <filter id="filter206" in="00:00:36.920000" out="00:00:38.120000">
      <property name="background">colour:0</property>
      <property name="mlt_service">affine</property>
      <property name="shotcut:filter">affineSizePosition</property>
      <property name="transition.fill">1</property>
      <property name="transition.distort">0</property>
      <property name="transition.rect">00:00:00.000000=1200.0 0.0 242.0 136.0 1;00:00:01.200000=1440.0 0.0 241.0 136.0 1</property>
      <property name="transition.valign">top</property>
      <property name="transition.halign">left</property>
      <property name="shotcut:animIn">00:00:01.240000</property>
      <property name="shotcut:animOut">00:00:00.000</property>
      <property name="transition.threads">0</property>
    </filter>
    <filter id="filter207" in="00:00:36.920000" out="00:00:38.120000">
      <property name="window">75</property>
      <property name="max_gain">20dB</property>
      <property name="level">0</property>
      <property name="mlt_service">volume</property>
      <property name="disable">1</property>
    </filter>
  </producer>
  <producer id="producer119" title="Anonymous Submission" in="00:00:00.000" out="00:03:27.800">
    <property name="length">00:03:27:21</property>
    <property name="eof">pause</property>
    <property name="resource">../../006 - Videos format youtube/Clarinettes/Nelly_clarinette_totoro.mp4</property>
    <property name="audio_index">1</property>
    <property name="video_index">0</property>
    <property name="mute_on_pause">0</property>
    <property name="mlt_service">avformat-novalidate</property>
    <property name="seekable">1</property>
    <property name="aspect_ratio">1</property>
    <property name="creation_time">2020-04-05T13:37:57</property>
    <property name="shotcut:hash">ce64ff05cbaafa4ab64d61c9e57002dd</property>
    <property name="ignore_points">0</property>
    <property name="shotcut:caption">Nelly_clarinette_totoro.mp4</property>
    <property name="shotcut:skipConvert">1</property>
    <property name="global_feed">1</property>
    <property name="xml">was here</property>
    <filter id="filter208" in="00:00:38.160000" out="00:00:39.360000">
      <property name="background">colour:0</property>
      <property name="mlt_service">affine</property>
      <property name="shotcut:filter">affineSizePosition</property>
      <property name="transition.fill">1</property>
      <property name="transition.distort">0</property>
      <property name="transition.rect">00:00:00.000000=1440.0 0.0 242.0 136.0 1;00:00:01.200000=1680.0 0.0 241.0 136.0 1</property>
      <property name="transition.valign">top</property>
      <property name="transition.halign">left</property>
      <property name="shotcut:animIn">00:00:01.240000</property>
      <property name="shotcut:animOut">00:00:00.000</property>
      <property name="transition.threads">0</property>
    </filter>
    <filter id="filter209" in="00:00:38.160000" out="00:00:39.360000">
      <property name="window">75</property>
      <property name="max_gain">20dB</property>
      <property name="level">0</property>
      <property name="mlt_service">volume</property>
      <property name="disable">1</property>
    </filter>
  </producer>
  <producer id="producer120" title="Anonymous Submission" in="00:00:00.000" out="00:03:27.800">
    <property name="length">00:03:27:21</property>
    <property name="eof">pause</property>
    <property name="resource">../../006 - Videos format youtube/Clarinettes/Nelly_clarinette_totoro.mp4</property>
    <property name="audio_index">1</property>
    <property name="video_index">0</property>
    <property name="mute_on_pause">0</property>
    <property name="mlt_service">avformat-novalidate</property>
    <property name="seekable">1</property>
    <property name="aspect_ratio">1</property>
    <property name="creation_time">2020-04-05T13:37:57</property>
    <property name="shotcut:hash">ce64ff05cbaafa4ab64d61c9e57002dd</property>
    <property name="ignore_points">0</property>
    <property name="shotcut:caption">Nelly_clarinette_totoro.mp4</property>
    <property name="shotcut:skipConvert">1</property>
    <property name="global_feed">1</property>
    <property name="xml">was here</property>
    <filter id="filter210" in="00:00:39.400000" out="00:00:40.600000">
      <property name="background">colour:0</property>
      <property name="mlt_service">affine</property>
      <property name="shotcut:filter">affineSizePosition</property>
      <property name="transition.fill">1</property>
      <property name="transition.distort">0</property>
      <property name="transition.rect">00:00:00.000000=1680.0 0.0 242.0 136.0 1;00:00:01.200000=1920.0 0.0 241.0 136.0 1</property>
      <property name="transition.valign">top</property>
      <property name="transition.halign">left</property>
      <property name="shotcut:animIn">00:00:01.240000</property>
      <property name="shotcut:animOut">00:00:00.000</property>
      <property name="transition.threads">0</property>
    </filter>
    <filter id="filter211" in="00:00:39.400000" out="00:00:40.600000">
      <property name="window">75</property>
      <property name="max_gain">20dB</property>
      <property name="level">0</property>
      <property name="mlt_service">volume</property>
      <property name="disable">1</property>
    </filter>
  </producer>
  <producer id="producer121" title="Anonymous Submission" in="00:00:00.000" out="00:03:27.800">
    <property name="length">00:03:27:21</property>
    <property name="eof">pause</property>
    <property name="resource">../../006 - Videos format youtube/Clarinettes/Nelly_clarinette_totoro.mp4</property>
    <property name="audio_index">1</property>
    <property name="video_index">0</property>
    <property name="mute_on_pause">0</property>
    <property name="mlt_service">avformat-novalidate</property>
    <property name="seekable">1</property>
    <property name="aspect_ratio">1</property>
    <property name="creation_time">2020-04-05T13:37:57</property>
    <property name="shotcut:hash">ce64ff05cbaafa4ab64d61c9e57002dd</property>
    <property name="ignore_points">0</property>
    <property name="shotcut:caption">Nelly_clarinette_totoro.mp4</property>
    <property name="shotcut:skipConvert">1</property>
    <property name="global_feed">1</property>
    <property name="xml">was here</property>
    <filter id="filter212" in="00:00:40.640000" out="00:00:41.880000">
      <property name="background">colour:0</property>
      <property name="mlt_service">affine</property>
      <property name="shotcut:filter">affineSizePosition</property>
      <property name="transition.fill">1</property>
      <property name="transition.distort">0</property>
      <property name="transition.rect">00:00:00.000000=1920.0 0.0 242.0 136.0 1;00:00:01.200000=2160.0 0.0 241.0 136.0 1</property>
      <property name="transition.valign">top</property>
      <property name="transition.halign">left</property>
      <property name="shotcut:animIn">00:00:01.240000</property>
      <property name="shotcut:animOut">00:00:00.000</property>
      <property name="transition.threads">0</property>
    </filter>
    <filter id="filter213" in="00:00:40.640000" out="00:00:41.880000">
      <property name="window">75</property>
      <property name="max_gain">20dB</property>
      <property name="level">0</property>
      <property name="mlt_service">volume</property>
      <property name="disable">1</property>
    </filter>
  </producer>
  <producer id="producer122" title="Anonymous Submission" in="00:00:00.000" out="00:03:27.800">
    <property name="length">00:03:27:21</property>
    <property name="eof">pause</property>
    <property name="resource">../../006 - Videos format youtube/Clarinettes/Nelly_clarinette_totoro.mp4</property>
    <property name="audio_index">1</property>
    <property name="video_index">0</property>
    <property name="mute_on_pause">0</property>
    <property name="mlt_service">avformat-novalidate</property>
    <property name="seekable">1</property>
    <property name="aspect_ratio">1</property>
    <property name="creation_time">2020-04-05T13:37:57</property>
    <property name="shotcut:hash">ce64ff05cbaafa4ab64d61c9e57002dd</property>
    <property name="ignore_points">0</property>
    <property name="shotcut:caption">Nelly_clarinette_totoro.mp4</property>
    <property name="shotcut:skipConvert">1</property>
    <property name="global_feed">1</property>
    <property name="xml">was here</property>
    <filter id="filter214" in="00:00:41.920000" out="00:00:43.120000">
      <property name="background">colour:0</property>
      <property name="mlt_service">affine</property>
      <property name="shotcut:filter">affineSizePosition</property>
      <property name="transition.fill">1</property>
      <property name="transition.distort">0</property>
      <property name="transition.rect">00:00:00.000000=2160.0 0.0 242.0 136.0 1;00:00:01.200000=2400.0 0.0 241.0 136.0 1</property>
      <property name="transition.valign">top</property>
      <property name="transition.halign">left</property>
      <property name="shotcut:animIn">00:00:01.240000</property>
      <property name="shotcut:animOut">00:00:00.000</property>
      <property name="transition.threads">0</property>
    </filter>
    <filter id="filter215" in="00:00:41.920000" out="00:00:43.120000">
      <property name="window">75</property>
      <property name="max_gain">20dB</property>
      <property name="level">0</property>
      <property name="mlt_service">volume</property>
      <property name="disable">1</property>
    </filter>
  </producer>
  <producer id="producer123" title="Anonymous Submission" in="00:00:00.000" out="00:03:27.800">
    <property name="length">00:03:27:21</property>
    <property name="eof">pause</property>
    <property name="resource">../../006 - Videos format youtube/Clarinettes/Nelly_clarinette_totoro.mp4</property>
    <property name="audio_index">1</property>
    <property name="video_index">0</property>
    <property name="mute_on_pause">0</property>
    <property name="mlt_service">avformat-novalidate</property>
    <property name="seekable">1</property>
    <property name="aspect_ratio">1</property>
    <property name="creation_time">2020-04-05T13:37:57</property>
    <property name="shotcut:hash">ce64ff05cbaafa4ab64d61c9e57002dd</property>
    <property name="ignore_points">0</property>
    <property name="shotcut:caption">Nelly_clarinette_totoro.mp4</property>
    <property name="shotcut:skipConvert">1</property>
    <property name="global_feed">1</property>
    <property name="xml">was here</property>
    <filter id="filter216" in="00:00:43.160000" out="00:00:44.360000">
      <property name="background">colour:0</property>
      <property name="mlt_service">affine</property>
      <property name="shotcut:filter">affineSizePosition</property>
      <property name="transition.fill">1</property>
      <property name="transition.distort">0</property>
      <property name="transition.rect">00:00:00.000000=0.0 0.0 242.0 136.0 1;00:00:01.200000=240.0 0.0 241.0 136.0 1</property>
      <property name="transition.valign">top</property>
      <property name="transition.halign">left</property>
      <property name="shotcut:animIn">00:00:01.240000</property>
      <property name="shotcut:animOut">00:00:00.000</property>
      <property name="transition.threads">0</property>
    </filter>
    <filter id="filter217" in="00:00:43.160000" out="00:00:44.360000">
      <property name="window">75</property>
      <property name="max_gain">20dB</property>
      <property name="level">0</property>
      <property name="mlt_service">volume</property>
      <property name="disable">1</property>
    </filter>
  </producer>
  <producer id="producer124" title="Anonymous Submission" in="00:00:00.000" out="00:03:27.800">
    <property name="length">00:03:27:21</property>
    <property name="eof">pause</property>
    <property name="resource">../../006 - Videos format youtube/Clarinettes/Nelly_clarinette_totoro.mp4</property>
    <property name="audio_index">1</property>
    <property name="video_index">0</property>
    <property name="mute_on_pause">0</property>
    <property name="mlt_service">avformat-novalidate</property>
    <property name="seekable">1</property>
    <property name="aspect_ratio">1</property>
    <property name="creation_time">2020-04-05T13:37:57</property>
    <property name="shotcut:hash">ce64ff05cbaafa4ab64d61c9e57002dd</property>
    <property name="ignore_points">0</property>
    <property name="shotcut:caption">Nelly_clarinette_totoro.mp4</property>
    <property name="shotcut:skipConvert">1</property>
    <property name="global_feed">1</property>
    <property name="xml">was here</property>
    <filter id="filter218" in="00:00:44.400000" out="00:00:45.600000">
      <property name="background">colour:0</property>
      <property name="mlt_service">affine</property>
      <property name="shotcut:filter">affineSizePosition</property>
      <property name="transition.fill">1</property>
      <property name="transition.distort">0</property>
      <property name="transition.rect">00:00:00.000000=240.0 0.0 242.0 136.0 1;00:00:01.200000=480.0 0.0 241.0 136.0 1</property>
      <property name="transition.valign">top</property>
      <property name="transition.halign">left</property>
      <property name="shotcut:animIn">00:00:01.240000</property>
      <property name="shotcut:animOut">00:00:00.000</property>
      <property name="transition.threads">0</property>
    </filter>
    <filter id="filter219" in="00:00:44.400000" out="00:00:45.600000">
      <property name="window">75</property>
      <property name="max_gain">20dB</property>
      <property name="level">0</property>
      <property name="mlt_service">volume</property>
      <property name="disable">1</property>
    </filter>
  </producer>
  <producer id="producer125" title="Anonymous Submission" in="00:00:00.000" out="00:03:27.800">
    <property name="length">00:03:27:21</property>
    <property name="eof">pause</property>
    <property name="resource">../../006 - Videos format youtube/Clarinettes/Nelly_clarinette_totoro.mp4</property>
    <property name="audio_index">1</property>
    <property name="video_index">0</property>
    <property name="mute_on_pause">0</property>
    <property name="mlt_service">avformat-novalidate</property>
    <property name="seekable">1</property>
    <property name="aspect_ratio">1</property>
    <property name="creation_time">2020-04-05T13:37:57</property>
    <property name="shotcut:hash">ce64ff05cbaafa4ab64d61c9e57002dd</property>
    <property name="ignore_points">0</property>
    <property name="shotcut:caption">Nelly_clarinette_totoro.mp4</property>
    <property name="shotcut:skipConvert">1</property>
    <property name="global_feed">1</property>
    <property name="xml">was here</property>
    <filter id="filter220" in="00:00:45.640000" out="00:00:46.880000">
      <property name="background">colour:0</property>
      <property name="mlt_service">affine</property>
      <property name="shotcut:filter">affineSizePosition</property>
      <property name="transition.fill">1</property>
      <property name="transition.distort">0</property>
      <property name="transition.rect">00:00:00.000000=480.0 0.0 242.0 136.0 1;00:00:01.200000=720.0 0.0 241.0 136.0 1</property>
      <property name="transition.valign">top</property>
      <property name="transition.halign">left</property>
      <property name="shotcut:animIn">00:00:01.240000</property>
      <property name="shotcut:animOut">00:00:00.000</property>
      <property name="transition.threads">0</property>
    </filter>
    <filter id="filter221" in="00:00:45.640000" out="00:00:46.880000">
      <property name="window">75</property>
      <property name="max_gain">20dB</property>
      <property name="level">0</property>
      <property name="mlt_service">volume</property>
      <property name="disable">1</property>
    </filter>
  </producer>
  <producer id="producer126" title="Anonymous Submission" in="00:00:00.000" out="00:03:27.800">
    <property name="length">00:03:27:21</property>
    <property name="eof">pause</property>
    <property name="resource">../../006 - Videos format youtube/Clarinettes/Nelly_clarinette_totoro.mp4</property>
    <property name="audio_index">1</property>
    <property name="video_index">0</property>
    <property name="mute_on_pause">0</property>
    <property name="mlt_service">avformat-novalidate</property>
    <property name="seekable">1</property>
    <property name="aspect_ratio">1</property>
    <property name="creation_time">2020-04-05T13:37:57</property>
    <property name="shotcut:hash">ce64ff05cbaafa4ab64d61c9e57002dd</property>
    <property name="ignore_points">0</property>
    <property name="shotcut:caption">Nelly_clarinette_totoro.mp4</property>
    <property name="shotcut:skipConvert">1</property>
    <property name="global_feed">1</property>
    <property name="xml">was here</property>
    <filter id="filter222" in="00:00:46.920000" out="00:00:48.120000">
      <property name="background">colour:0</property>
      <property name="mlt_service">affine</property>
      <property name="shotcut:filter">affineSizePosition</property>
      <property name="transition.fill">1</property>
      <property name="transition.distort">0</property>
      <property name="transition.rect">00:00:00.000000=720.0 0.0 242.0 136.0 1;00:00:01.200000=960.0 0.0 241.0 136.0 1</property>
      <property name="transition.valign">top</property>
      <property name="transition.halign">left</property>
      <property name="shotcut:animIn">00:00:01.240000</property>
      <property name="shotcut:animOut">00:00:00.000</property>
      <property name="transition.threads">0</property>
    </filter>
    <filter id="filter223" in="00:00:46.920000" out="00:00:48.120000">
      <property name="window">75</property>
      <property name="max_gain">20dB</property>
      <property name="level">0</property>
      <property name="mlt_service">volume</property>
      <property name="disable">1</property>
    </filter>
  </producer>
  <producer id="producer127" title="Anonymous Submission" in="00:00:00.000" out="00:03:27.800">
    <property name="length">00:03:27:21</property>
    <property name="eof">pause</property>
    <property name="resource">../../006 - Videos format youtube/Clarinettes/Nelly_clarinette_totoro.mp4</property>
    <property name="audio_index">1</property>
    <property name="video_index">0</property>
    <property name="mute_on_pause">0</property>
    <property name="mlt_service">avformat-novalidate</property>
    <property name="seekable">1</property>
    <property name="aspect_ratio">1</property>
    <property name="creation_time">2020-04-05T13:37:57</property>
    <property name="shotcut:hash">ce64ff05cbaafa4ab64d61c9e57002dd</property>
    <property name="ignore_points">0</property>
    <property name="shotcut:caption">Nelly_clarinette_totoro.mp4</property>
    <property name="shotcut:skipConvert">1</property>
    <property name="global_feed">1</property>
    <property name="xml">was here</property>
    <filter id="filter224" in="00:00:48.160000" out="00:00:49.360000">
      <property name="background">colour:0</property>
      <property name="mlt_service">affine</property>
      <property name="shotcut:filter">affineSizePosition</property>
      <property name="transition.fill">1</property>
      <property name="transition.distort">0</property>
      <property name="transition.rect">00:00:00.000000=960.0 0.0 242.0 136.0 1;00:00:01.200000=1200.0 0.0 241.0 136.0 1</property>
      <property name="transition.valign">top</property>
      <property name="transition.halign">left</property>
      <property name="shotcut:animIn">00:00:01.240000</property>
      <property name="shotcut:animOut">00:00:00.000</property>
      <property name="transition.threads">0</property>
    </filter>
    <filter id="filter225" in="00:00:48.160000" out="00:00:49.360000">
      <property name="window">75</property>
      <property name="max_gain">20dB</property>
      <property name="level">0</property>
      <property name="mlt_service">volume</property>
      <property name="disable">1</property>
    </filter>
  </producer>
  <producer id="producer128" title="Anonymous Submission" in="00:00:00.000" out="00:03:27.800">
    <property name="length">00:03:27:21</property>
    <property name="eof">pause</property>
    <property name="resource">../../006 - Videos format youtube/Clarinettes/Nelly_clarinette_totoro.mp4</property>
    <property name="audio_index">1</property>
    <property name="video_index">0</property>
    <property name="mute_on_pause">0</property>
    <property name="mlt_service">avformat-novalidate</property>
    <property name="seekable">1</property>
    <property name="aspect_ratio">1</property>
    <property name="creation_time">2020-04-05T13:37:57</property>
    <property name="shotcut:hash">ce64ff05cbaafa4ab64d61c9e57002dd</property>
    <property name="ignore_points">0</property>
    <property name="shotcut:caption">Nelly_clarinette_totoro.mp4</property>
    <property name="shotcut:skipConvert">1</property>
    <property name="global_feed">1</property>
    <property name="xml">was here</property>
    <filter id="filter226" in="00:00:49.400000" out="00:00:50.600000">
      <property name="background">colour:0</property>
      <property name="mlt_service">affine</property>
      <property name="shotcut:filter">affineSizePosition</property>
      <property name="transition.fill">1</property>
      <property name="transition.distort">0</property>
      <property name="transition.rect">00:00:00.000000=1200.0 0.0 242.0 136.0 1;00:00:01.200000=1440.0 0.0 241.0 136.0 1</property>
      <property name="transition.valign">top</property>
      <property name="transition.halign">left</property>
      <property name="shotcut:animIn">00:00:01.240000</property>
      <property name="shotcut:animOut">00:00:00.000</property>
      <property name="transition.threads">0</property>
    </filter>
    <filter id="filter227" in="00:00:49.400000" out="00:00:50.600000">
      <property name="window">75</property>
      <property name="max_gain">20dB</property>
      <property name="level">0</property>
      <property name="mlt_service">volume</property>
      <property name="disable">1</property>
    </filter>
  </producer>
  <producer id="producer129" title="Anonymous Submission" in="00:00:00.000" out="00:03:27.800">
    <property name="length">00:03:27:21</property>
    <property name="eof">pause</property>
    <property name="resource">../../006 - Videos format youtube/Clarinettes/Nelly_clarinette_totoro.mp4</property>
    <property name="audio_index">1</property>
    <property name="video_index">0</property>
    <property name="mute_on_pause">0</property>
    <property name="mlt_service">avformat-novalidate</property>
    <property name="seekable">1</property>
    <property name="aspect_ratio">1</property>
    <property name="creation_time">2020-04-05T13:37:57</property>
    <property name="shotcut:hash">ce64ff05cbaafa4ab64d61c9e57002dd</property>
    <property name="ignore_points">0</property>
    <property name="shotcut:caption">Nelly_clarinette_totoro.mp4</property>
    <property name="shotcut:skipConvert">1</property>
    <property name="global_feed">1</property>
    <property name="xml">was here</property>
    <filter id="filter228" in="00:00:50.640000" out="00:00:51.880000">
      <property name="background">colour:0</property>
      <property name="mlt_service">affine</property>
      <property name="shotcut:filter">affineSizePosition</property>
      <property name="transition.fill">1</property>
      <property name="transition.distort">0</property>
      <property name="transition.rect">00:00:00.000000=1440.0 0.0 242.0 136.0 1;00:00:01.200000=1680.0 0.0 241.0 136.0 1</property>
      <property name="transition.valign">top</property>
      <property name="transition.halign">left</property>
      <property name="shotcut:animIn">00:00:01.240000</property>
      <property name="shotcut:animOut">00:00:00.000</property>
      <property name="transition.threads">0</property>
    </filter>
    <filter id="filter229" in="00:00:50.640000" out="00:00:51.880000">
      <property name="window">75</property>
      <property name="max_gain">20dB</property>
      <property name="level">0</property>
      <property name="mlt_service">volume</property>
      <property name="disable">1</property>
    </filter>
  </producer>
  <producer id="producer130" title="Anonymous Submission" in="00:00:00.000" out="00:03:27.800">
    <property name="length">00:03:27:21</property>
    <property name="eof">pause</property>
    <property name="resource">../../006 - Videos format youtube/Clarinettes/Nelly_clarinette_totoro.mp4</property>
    <property name="audio_index">1</property>
    <property name="video_index">0</property>
    <property name="mute_on_pause">0</property>
    <property name="mlt_service">avformat-novalidate</property>
    <property name="seekable">1</property>
    <property name="aspect_ratio">1</property>
    <property name="creation_time">2020-04-05T13:37:57</property>
    <property name="shotcut:hash">ce64ff05cbaafa4ab64d61c9e57002dd</property>
    <property name="ignore_points">0</property>
    <property name="shotcut:caption">Nelly_clarinette_totoro.mp4</property>
    <property name="shotcut:skipConvert">1</property>
    <property name="global_feed">1</property>
    <property name="xml">was here</property>
    <filter id="filter230" in="00:00:51.920000" out="00:00:53.120000">
      <property name="background">colour:0</property>
      <property name="mlt_service">affine</property>
      <property name="shotcut:filter">affineSizePosition</property>
      <property name="transition.fill">1</property>
      <property name="transition.distort">0</property>
      <property name="transition.rect">00:00:00.000000=1680.0 0.0 242.0 136.0 1;00:00:01.200000=1920.0 0.0 241.0 136.0 1</property>
      <property name="transition.valign">top</property>
      <property name="transition.halign">left</property>
      <property name="shotcut:animIn">00:00:01.240000</property>
      <property name="shotcut:animOut">00:00:00.000</property>
      <property name="transition.threads">0</property>
    </filter>
    <filter id="filter231" in="00:00:51.920000" out="00:00:53.120000">
      <property name="window">75</property>
      <property name="max_gain">20dB</property>
      <property name="level">0</property>
      <property name="mlt_service">volume</property>
      <property name="disable">1</property>
    </filter>
  </producer>
  <producer id="producer131" title="Anonymous Submission" in="00:00:00.000" out="00:03:27.800">
    <property name="length">00:03:27:21</property>
    <property name="eof">pause</property>
    <property name="resource">../../006 - Videos format youtube/Clarinettes/Nelly_clarinette_totoro.mp4</property>
    <property name="audio_index">1</property>
    <property name="video_index">0</property>
    <property name="mute_on_pause">0</property>
    <property name="mlt_service">avformat-novalidate</property>
    <property name="seekable">1</property>
    <property name="aspect_ratio">1</property>
    <property name="creation_time">2020-04-05T13:37:57</property>
    <property name="shotcut:hash">ce64ff05cbaafa4ab64d61c9e57002dd</property>
    <property name="ignore_points">0</property>
    <property name="shotcut:caption">Nelly_clarinette_totoro.mp4</property>
    <property name="shotcut:skipConvert">1</property>
    <property name="global_feed">1</property>
    <property name="xml">was here</property>
    <filter id="filter232" in="00:00:53.160000" out="00:00:54.360000">
      <property name="background">colour:0</property>
      <property name="mlt_service">affine</property>
      <property name="shotcut:filter">affineSizePosition</property>
      <property name="transition.fill">1</property>
      <property name="transition.distort">0</property>
      <property name="transition.rect">00:00:00.000000=1920.0 0.0 242.0 136.0 1;00:00:01.200000=2160.0 0.0 241.0 136.0 1</property>
      <property name="transition.valign">top</property>
      <property name="transition.halign">left</property>
      <property name="shotcut:animIn">00:00:01.240000</property>
      <property name="shotcut:animOut">00:00:00.000</property>
      <property name="transition.threads">0</property>
    </filter>
    <filter id="filter233" in="00:00:53.160000" out="00:00:54.360000">
      <property name="window">75</property>
      <property name="max_gain">20dB</property>
      <property name="level">0</property>
      <property name="mlt_service">volume</property>
      <property name="disable">1</property>
    </filter>
  </producer>
  <producer id="producer132" title="Anonymous Submission" in="00:00:00.000" out="00:03:27.800">
    <property name="length">00:03:27:21</property>
    <property name="eof">pause</property>
    <property name="resource">../../006 - Videos format youtube/Clarinettes/Nelly_clarinette_totoro.mp4</property>
    <property name="audio_index">1</property>
    <property name="video_index">0</property>
    <property name="mute_on_pause">0</property>
    <property name="mlt_service">avformat-novalidate</property>
    <property name="seekable">1</property>
    <property name="aspect_ratio">1</property>
    <property name="creation_time">2020-04-05T13:37:57</property>
    <property name="shotcut:hash">ce64ff05cbaafa4ab64d61c9e57002dd</property>
    <property name="ignore_points">0</property>
    <property name="shotcut:caption">Nelly_clarinette_totoro.mp4</property>
    <property name="shotcut:skipConvert">1</property>
    <property name="global_feed">1</property>
    <property name="xml">was here</property>
    <filter id="filter234" in="00:00:54.400000" out="00:00:55.600000">
      <property name="background">colour:0</property>
      <property name="mlt_service">affine</property>
      <property name="shotcut:filter">affineSizePosition</property>
      <property name="transition.fill">1</property>
      <property name="transition.distort">0</property>
      <property name="transition.rect">00:00:00.000000=2160.0 0.0 242.0 136.0 1;00:00:01.200000=2400.0 0.0 241.0 136.0 1</property>
      <property name="transition.valign">top</property>
      <property name="transition.halign">left</property>
      <property name="shotcut:animIn">00:00:01.240000</property>
      <property name="shotcut:animOut">00:00:00.000</property>
      <property name="transition.threads">0</property>
    </filter>
    <filter id="filter235" in="00:00:54.400000" out="00:00:55.600000">
      <property name="window">75</property>
      <property name="max_gain">20dB</property>
      <property name="level">0</property>
      <property name="mlt_service">volume</property>
      <property name="disable">1</property>
    </filter>
  </producer>
  <producer id="producer133" title="Anonymous Submission" in="00:00:00.000" out="00:03:27.800">
    <property name="length">00:03:27:21</property>
    <property name="eof">pause</property>
    <property name="resource">../../006 - Videos format youtube/Clarinettes/Nelly_clarinette_totoro.mp4</property>
    <property name="audio_index">1</property>
    <property name="video_index">0</property>
    <property name="mute_on_pause">0</property>
    <property name="mlt_service">avformat-novalidate</property>
    <property name="seekable">1</property>
    <property name="aspect_ratio">1</property>
    <property name="creation_time">2020-04-05T13:37:57</property>
    <property name="shotcut:hash">ce64ff05cbaafa4ab64d61c9e57002dd</property>
    <property name="ignore_points">0</property>
    <property name="shotcut:caption">Nelly_clarinette_totoro.mp4</property>
    <property name="shotcut:skipConvert">1</property>
    <property name="global_feed">1</property>
    <property name="xml">was here</property>
    <filter id="filter236" in="00:00:55.640000" out="00:01:10.880000">
      <property name="background">colour:0</property>
      <property name="mlt_service">affine</property>
      <property name="shotcut:filter">affineSizePosition</property>
      <property name="transition.fill">1</property>
      <property name="transition.distort">0</property>
      <property name="transition.rect">00:00:00.000000=0.0 0.0 242.0 136.0 1;00:00:01.200000=240.0 0.0 241.0 136.0 1</property>
      <property name="transition.valign">top</property>
      <property name="transition.halign">left</property>
      <property name="shotcut:animIn">00:00:01.240000</property>
      <property name="shotcut:animOut">00:00:00.000</property>
      <property name="transition.threads">0</property>
    </filter>
    <filter id="filter237" in="00:00:55.640000" out="00:01:10.880000">
      <property name="window">75</property>
      <property name="max_gain">20dB</property>
      <property name="level">0</property>
      <property name="mlt_service">volume</property>
      <property name="disable">1</property>
    </filter>
  </producer>
  <producer id="producer134" title="Anonymous Submission" in="00:00:00.000" out="00:03:27.800">
    <property name="length">00:03:27:21</property>
    <property name="eof">pause</property>
    <property name="resource">../../006 - Videos format youtube/Clarinettes/Nelly_clarinette_totoro.mp4</property>
    <property name="audio_index">1</property>
    <property name="video_index">0</property>
    <property name="mute_on_pause">0</property>
    <property name="mlt_service">avformat-novalidate</property>
    <property name="seekable">1</property>
    <property name="aspect_ratio">1</property>
    <property name="creation_time">2020-04-05T13:37:57</property>
    <property name="shotcut:hash">ce64ff05cbaafa4ab64d61c9e57002dd</property>
    <property name="ignore_points">0</property>
    <property name="shotcut:caption">Nelly_clarinette_totoro.mp4</property>
    <property name="shotcut:skipConvert">1</property>
    <property name="global_feed">1</property>
    <property name="xml">was here</property>
    <filter id="filter238" in="00:01:10.920000" out="00:01:18.880000">
      <property name="background">colour:0</property>
      <property name="mlt_service">affine</property>
      <property name="shotcut:filter">affineSizePosition</property>
      <property name="transition.fill">1</property>
      <property name="transition.distort">0</property>
      <property name="transition.rect">548.0 617.0 823.0 463.0 1</property>
      <property name="transition.valign">top</property>
      <property name="transition.halign">left</property>
      <property name="shotcut:animIn">00:00:01.240000</property>
      <property name="shotcut:animOut">00:00:00.000</property>
      <property name="transition.threads">0</property>
    </filter>
    <filter id="filter239" in="00:01:10.920000" out="00:01:18.880000">
      <property name="window">75</property>
      <property name="max_gain">20dB</property>
      <property name="level">0</property>
      <property name="mlt_service">volume</property>
      <property name="disable">1</property>
    </filter>
  </producer>
  <producer id="producer135" title="Anonymous Submission" in="00:00:00.000" out="00:03:27.800">
    <property name="length">00:03:27:21</property>
    <property name="eof">pause</property>
    <property name="resource">../../006 - Videos format youtube/Clarinettes/Nelly_clarinette_totoro.mp4</property>
    <property name="audio_index">1</property>
    <property name="video_index">0</property>
    <property name="mute_on_pause">0</property>
    <property name="mlt_service">avformat-novalidate</property>
    <property name="seekable">1</property>
    <property name="aspect_ratio">1</property>
    <property name="creation_time">2020-04-05T13:37:57</property>
    <property name="shotcut:hash">ce64ff05cbaafa4ab64d61c9e57002dd</property>
    <property name="ignore_points">0</property>
    <property name="shotcut:caption">Nelly_clarinette_totoro.mp4</property>
    <property name="shotcut:skipConvert">1</property>
    <property name="global_feed">1</property>
    <property name="xml">was here</property>
    <filter id="filter240" in="00:01:18.920000" out="00:01:26.880000">
      <property name="background">colour:0</property>
      <property name="mlt_service">affine</property>
      <property name="shotcut:filter">affineSizePosition</property>
      <property name="transition.fill">1</property>
      <property name="transition.distort">0</property>
      <property name="transition.rect">-548.0 -617.0 -273.0 -153.0 1</property>
      <property name="transition.valign">top</property>
      <property name="transition.halign">left</property>
      <property name="shotcut:animIn">00:00:01.240000</property>
      <property name="shotcut:animOut">00:00:00.000</property>
      <property name="transition.threads">0</property>
    </filter>
    <filter id="filter241" in="00:01:18.920000" out="00:01:26.880000">
      <property name="window">75</property>
      <property name="max_gain">20dB</property>
      <property name="level">0</property>
      <property name="mlt_service">volume</property>
      <property name="disable">1</property>
    </filter>
  </producer>
  <producer id="producer136" title="Anonymous Submission" in="00:00:00.000" out="00:03:27.800">
    <property name="length">00:03:27:21</property>
    <property name="eof">pause</property>
    <property name="resource">../../006 - Videos format youtube/Clarinettes/Nelly_clarinette_totoro.mp4</property>
    <property name="audio_index">1</property>
    <property name="video_index">0</property>
    <property name="mute_on_pause">0</property>
    <property name="mlt_service">avformat-novalidate</property>
    <property name="seekable">1</property>
    <property name="aspect_ratio">1</property>
    <property name="creation_time">2020-04-05T13:37:57</property>
    <property name="shotcut:hash">ce64ff05cbaafa4ab64d61c9e57002dd</property>
    <property name="ignore_points">0</property>
    <property name="shotcut:caption">Nelly_clarinette_totoro.mp4</property>
    <property name="shotcut:skipConvert">1</property>
    <property name="global_feed">1</property>
    <property name="xml">was here</property>
    <filter id="filter242" in="00:01:26.920000" out="00:01:33.880000">
      <property name="background">colour:0</property>
      <property name="mlt_service">affine</property>
      <property name="shotcut:filter">affineSizePosition</property>
      <property name="transition.fill">1</property>
      <property name="transition.distort">0</property>
      <property name="transition.rect">320.0 540.0 321.0 181.0 1</property>
      <property name="transition.valign">top</property>
      <property name="transition.halign">left</property>
      <property name="shotcut:animIn">00:00:01.240000</property>
      <property name="shotcut:animOut">00:00:00.000</property>
      <property name="transition.threads">0</property>
    </filter>
    <filter id="filter243" in="00:01:26.920000" out="00:01:33.880000">
      <property name="window">75</property>
      <property name="max_gain">20dB</property>
      <property name="level">0</property>
      <property name="mlt_service">volume</property>
      <property name="disable">1</property>
    </filter>
  </producer>
  <producer id="producer137" title="Anonymous Submission" in="00:00:00.000" out="00:03:27.800">
    <property name="length">00:03:27:21</property>
    <property name="eof">pause</property>
    <property name="resource">../../006 - Videos format youtube/Clarinettes/Nelly_clarinette_totoro.mp4</property>
    <property name="audio_index">1</property>
    <property name="video_index">0</property>
    <property name="mute_on_pause">0</property>
    <property name="mlt_service">avformat-novalidate</property>
    <property name="seekable">1</property>
    <property name="aspect_ratio">1</property>
    <property name="creation_time">2020-04-05T13:37:57</property>
    <property name="shotcut:hash">ce64ff05cbaafa4ab64d61c9e57002dd</property>
    <property name="ignore_points">0</property>
    <property name="shotcut:caption">Nelly_clarinette_totoro.mp4</property>
    <property name="shotcut:skipConvert">1</property>
    <property name="global_feed">1</property>
    <property name="xml">was here</property>
    <filter id="filter244" in="00:01:33.920000" out="00:01:41.880000">
      <property name="background">colour:0</property>
      <property name="mlt_service">affine</property>
      <property name="shotcut:filter">affineSizePosition</property>
      <property name="transition.fill">1</property>
      <property name="transition.distort">0</property>
      <property name="transition.rect">320.0 -900.0 321.0 181.0 1</property>
      <property name="transition.valign">top</property>
      <property name="transition.halign">left</property>
      <property name="shotcut:animIn">00:00:01.240000</property>
      <property name="shotcut:animOut">00:00:00.000</property>
      <property name="transition.threads">0</property>
    </filter>
    <filter id="filter245" in="00:01:33.920000" out="00:01:41.880000">
      <property name="window">75</property>
      <property name="max_gain">20dB</property>
      <property name="level">0</property>
      <property name="mlt_service">volume</property>
      <property name="disable">1</property>
    </filter>
  </producer>
  <producer id="producer138" title="Anonymous Submission" in="00:00:00.000" out="00:03:27.800">
    <property name="length">00:03:27:21</property>
    <property name="eof">pause</property>
    <property name="resource">../../006 - Videos format youtube/Clarinettes/Nelly_clarinette_totoro.mp4</property>
    <property name="audio_index">1</property>
    <property name="video_index">0</property>
    <property name="mute_on_pause">0</property>
    <property name="mlt_service">avformat-novalidate</property>
    <property name="seekable">1</property>
    <property name="aspect_ratio">1</property>
    <property name="creation_time">2020-04-05T13:37:57</property>
    <property name="shotcut:hash">ce64ff05cbaafa4ab64d61c9e57002dd</property>
    <property name="ignore_points">0</property>
    <property name="shotcut:caption">Nelly_clarinette_totoro.mp4</property>
    <property name="shotcut:skipConvert">1</property>
    <property name="global_feed">1</property>
    <property name="xml">was here</property>
    <filter id="filter246" in="00:01:41.920000" out="00:01:50.880000">
      <property name="background">colour:0</property>
      <property name="mlt_service">affine</property>
      <property name="shotcut:filter">affineSizePosition</property>
      <property name="transition.fill">1</property>
      <property name="transition.distort">0</property>
      <property name="transition.rect">-548.0 -308.0 275.0 155.0 1</property>
      <property name="transition.valign">top</property>
      <property name="transition.halign">left</property>
      <property name="shotcut:animIn">00:00:01.240000</property>
      <property name="shotcut:animOut">00:00:00.000</property>
      <property name="transition.threads">0</property>
    </filter>
    <filter id="filter247" in="00:01:41.920000" out="00:01:50.880000">
      <property name="window">75</property>
      <property name="max_gain">20dB</property>
      <property name="level">0</property>
      <property name="mlt_service">volume</property>
      <property name="disable">1</property>
    </filter>
  </producer>
  <producer id="producer139" title="Anonymous Submission" in="00:00:00.000" out="00:03:27.800">
    <property name="length">00:03:27:21</property>
    <property name="eof">pause</property>
    <property name="resource">../../006 - Videos format youtube/Clarinettes/Nelly_clarinette_totoro.mp4</property>
    <property name="audio_index">1</property>
    <property name="video_index">0</property>
    <property name="mute_on_pause">0</property>
    <property name="mlt_service">avformat-novalidate</property>
    <property name="seekable">1</property>
    <property name="aspect_ratio">1</property>
    <property name="creation_time">2020-04-05T13:37:57</property>
    <property name="shotcut:hash">ce64ff05cbaafa4ab64d61c9e57002dd</property>
    <property name="ignore_points">0</property>
    <property name="shotcut:caption">Nelly_clarinette_totoro.mp4</property>
    <property name="shotcut:skipConvert">1</property>
    <property name="global_feed">1</property>
    <property name="xml">was here</property>
    <filter id="filter248" in="00:01:50.920000" out="00:01:57.880000">
      <property name="background">colour:0</property>
      <property name="mlt_service">affine</property>
      <property name="shotcut:filter">affineSizePosition</property>
      <property name="transition.fill">1</property>
      <property name="transition.distort">0</property>
      <property name="transition.rect">1371.0 617.0 275.0 155.0 1</property>
      <property name="transition.valign">top</property>
      <property name="transition.halign">left</property>
      <property name="shotcut:animIn">00:00:01.240000</property>
      <property name="shotcut:animOut">00:00:00.000</property>
      <property name="transition.threads">0</property>
    </filter>
    <filter id="filter249" in="00:01:50.920000" out="00:01:57.880000">
      <property name="window">75</property>
      <property name="max_gain">20dB</property>
      <property name="level">0</property>
      <property name="mlt_service">volume</property>
      <property name="disable">1</property>
    </filter>
  </producer>
  <producer id="producer140" title="Anonymous Submission" in="00:00:00.000" out="00:03:27.800">
    <property name="length">00:03:27:21</property>
    <property name="eof">pause</property>
    <property name="resource">../../006 - Videos format youtube/Clarinettes/Nelly_clarinette_totoro.mp4</property>
    <property name="audio_index">1</property>
    <property name="video_index">0</property>
    <property name="mute_on_pause">0</property>
    <property name="mlt_service">avformat-novalidate</property>
    <property name="seekable">1</property>
    <property name="aspect_ratio">1</property>
    <property name="creation_time">2020-04-05T13:37:57</property>
    <property name="shotcut:hash">ce64ff05cbaafa4ab64d61c9e57002dd</property>
    <property name="ignore_points">0</property>
    <property name="shotcut:caption">Nelly_clarinette_totoro.mp4</property>
    <property name="shotcut:skipConvert">1</property>
    <property name="global_feed">1</property>
    <property name="xml">was here</property>
    <filter id="filter250" in="00:01:57.920000" out="00:03:27.800000">
      <property name="background">colour:0</property>
      <property name="mlt_service">affine</property>
      <property name="shotcut:filter">affineSizePosition</property>
      <property name="transition.fill">1</property>
      <property name="transition.distort">0</property>
      <property name="transition.rect">-640.0 -360.0 321.0 181.0 1</property>
      <property name="transition.valign">top</property>
      <property name="transition.halign">left</property>
      <property name="shotcut:animIn">00:00:01.240000</property>
      <property name="shotcut:animOut">00:00:00.000</property>
      <property name="transition.threads">0</property>
    </filter>
    <filter id="filter251" in="00:01:57.920000" out="00:03:27.800000">
      <property name="window">75</property>
      <property name="max_gain">20dB</property>
      <property name="level">0</property>
      <property name="mlt_service">volume</property>
      <property name="disable">1</property>
    </filter>
  </producer>
  <playlist id="playlist10">
    <property name="shotcut:video">1</property>
    <property name="shotcut:name">Clarinette_Nelly</property>
    <property name="shotcut:lock">1</property>
    <blank length="00:00:08.520" />
    <entry producer="producer116" in="00:00:15.440" out="00:00:29.880000" />
    <entry producer="producer117" in="00:00:29.920000" out="00:00:36.880000" />
    <entry producer="producer118" in="00:00:36.920000" out="00:00:38.120000" />
    <entry producer="producer119" in="00:00:38.160000" out="00:00:39.360000" />
    <entry producer="producer120" in="00:00:39.400000" out="00:00:40.600000" />
    <entry producer="producer121" in="00:00:40.640000" out="00:00:41.880000" />
    <entry producer="producer122" in="00:00:41.920000" out="00:00:43.120000" />
    <entry producer="producer123" in="00:00:43.160000" out="00:00:44.360000" />
    <entry producer="producer124" in="00:00:44.400000" out="00:00:45.600000" />
    <entry producer="producer125" in="00:00:45.640000" out="00:00:46.880000" />
    <entry producer="producer126" in="00:00:46.920000" out="00:00:48.120000" />
    <entry producer="producer127" in="00:00:48.160000" out="00:00:49.360000" />
    <entry producer="producer128" in="00:00:49.400000" out="00:00:50.600000" />
    <entry producer="producer129" in="00:00:50.640000" out="00:00:51.880000" />
    <entry producer="producer130" in="00:00:51.920000" out="00:00:53.120000" />
    <entry producer="producer131" in="00:00:53.160000" out="00:00:54.360000" />
    <entry producer="producer132" in="00:00:54.400000" out="00:00:55.600000" />
    <entry producer="producer133" in="00:00:55.640000" out="00:01:10.880000" />
    <entry producer="producer134" in="00:01:10.920000" out="00:01:18.880000" />
    <entry producer="producer135" in="00:01:18.920000" out="00:01:26.880000" />
    <entry producer="producer136" in="00:01:26.920000" out="00:01:33.880000" />
    <entry producer="producer137" in="00:01:33.920000" out="00:01:41.880000" />
    <entry producer="producer138" in="00:01:41.920000" out="00:01:50.880000" />
    <entry producer="producer139" in="00:01:50.920000" out="00:01:57.880000" />
    <entry producer="producer140" in="00:01:57.920000" out="00:03:27.800000" />
    <filter id="filter252" out="00:03:23.320">
      <property name="window">75</property>
      <property name="max_gain">20dB</property>
      <property name="level">-11</property>
      <property name="mlt_service">volume</property>
    </filter>
  </playlist>
  <producer id="producer141" title="Anonymous Submission" in="00:00:00.000" out="00:03:16.440">
    <property name="length">00:03:16:12</property>
    <property name="eof">pause</property>
    <property name="resource">../../006 - Videos format youtube/Clarinettes/Natacha_clarinette_totoro.mp4</property>
    <property name="audio_index">1</property>
    <property name="video_index">0</property>
    <property name="mute_on_pause">0</property>
    <property name="mlt_service">avformat-novalidate</property>
    <property name="seekable">1</property>
    <property name="aspect_ratio">1</property>
    <property name="creation_time">2020-04-09T18:24:43</property>
    <property name="shotcut:hash">ef0c345cac52960b965edf602ef26da9</property>
    <property name="ignore_points">0</property>
    <property name="shotcut:caption">Natacha_clarinette_totoro.mp4</property>
    <property name="shotcut:skipConvert">1</property>
    <property name="global_feed">1</property>
    <property name="xml">was here</property>
    <filter id="filter253" out="00:00:19.880000">
      <property name="background">colour:0</property>
      <property name="mlt_service">affine</property>
      <property name="shotcut:filter">affineSizePosition</property>
      <property name="transition.fill">1</property>
      <property name="transition.distort">0</property>
      <property name="transition.rect">0.0 0.0 275.0 155.0 1</property>
      <property name="transition.valign">top</property>
      <property name="transition.halign">left</property>
      <property name="shotcut:animIn">00:00:00.000</property>
      <property name="shotcut:animOut">00:00:00.000</property>
      <property name="transition.threads">0</property>
    </filter>
    <filter id="filter254" out="00:00:19.880000">
      <property name="window">75</property>
      <property name="max_gain">20dB</property>
      <property name="mlt_service">volume</property>
      <property name="shotcut:filter">muteVolume</property>
      <property name="gain">0</property>
    </filter>
  </producer>
  <producer id="producer142" title="Anonymous Submission" in="00:00:00.000" out="00:03:16.440">
    <property name="length">00:03:16:12</property>
    <property name="eof">pause</property>
    <property name="resource">../../006 - Videos format youtube/Clarinettes/Natacha_clarinette_totoro.mp4</property>
    <property name="audio_index">1</property>
    <property name="video_index">0</property>
    <property name="mute_on_pause">0</property>
    <property name="mlt_service">avformat-novalidate</property>
    <property name="seekable">1</property>
    <property name="aspect_ratio">1</property>
    <property name="creation_time">2020-04-09T18:24:43</property>
    <property name="shotcut:hash">ef0c345cac52960b965edf602ef26da9</property>
    <property name="ignore_points">0</property>
    <property name="shotcut:caption">Natacha_clarinette_totoro.mp4</property>
    <property name="shotcut:skipConvert">1</property>
    <property name="global_feed">1</property>
    <property name="xml">was here</property>
    <filter id="filter255" out="00:00:26.880000" in="00:00:19.920000">
      <property name="background">colour:0</property>
      <property name="mlt_service">affine</property>
      <property name="shotcut:filter">affineSizePosition</property>
      <property name="transition.fill">1</property>
      <property name="transition.distort">0</property>
      <property name="transition.rect">00:00:00.000000=0.0 0.0 276.0 155.0 1;00:00:00.440000=1645.0 617.0 275.0 155.0 1</property>
      <property name="transition.valign">top</property>
      <property name="transition.halign">left</property>
      <property name="shotcut:animIn">00:00:00.480000</property>
      <property name="shotcut:animOut">00:00:00.000</property>
      <property name="transition.threads">0</property>
    </filter>
    <filter id="filter256" out="00:00:26.880000" in="00:00:19.920000">
      <property name="window">75</property>
      <property name="max_gain">20dB</property>
      <property name="mlt_service">volume</property>
      <property name="shotcut:filter">muteVolume</property>
      <property name="gain">0</property>
    </filter>
  </producer>
  <producer id="producer143" title="Anonymous Submission" in="00:00:00.000" out="00:03:16.440">
    <property name="length">00:03:16:12</property>
    <property name="eof">pause</property>
    <property name="resource">../../006 - Videos format youtube/Clarinettes/Natacha_clarinette_totoro.mp4</property>
    <property name="audio_index">1</property>
    <property name="video_index">0</property>
    <property name="mute_on_pause">0</property>
    <property name="mlt_service">avformat-novalidate</property>
    <property name="seekable">1</property>
    <property name="aspect_ratio">1</property>
    <property name="creation_time">2020-04-09T18:24:43</property>
    <property name="shotcut:hash">ef0c345cac52960b965edf602ef26da9</property>
    <property name="ignore_points">0</property>
    <property name="shotcut:caption">Natacha_clarinette_totoro.mp4</property>
    <property name="shotcut:skipConvert">1</property>
    <property name="global_feed">1</property>
    <property name="xml">was here</property>
    <filter id="filter257" out="00:00:28.120000" in="00:00:26.920000">
      <property name="background">colour:0</property>
      <property name="mlt_service">affine</property>
      <property name="shotcut:filter">affineSizePosition</property>
      <property name="transition.fill">1</property>
      <property name="transition.distort">0</property>
      <property name="transition.rect">00:00:00.000000=960.0 0.0 242.0 136.0 1;00:00:01.200000=1200.0 0.0 241.0 136.0 1</property>
      <property name="transition.valign">top</property>
      <property name="transition.halign">left</property>
      <property name="shotcut:animIn">00:00:01.240000</property>
      <property name="shotcut:animOut">00:00:00.000</property>
      <property name="transition.threads">0</property>
    </filter>
    <filter id="filter258" out="00:00:28.120000" in="00:00:26.920000">
      <property name="window">75</property>
      <property name="max_gain">20dB</property>
      <property name="mlt_service">volume</property>
      <property name="shotcut:filter">muteVolume</property>
      <property name="gain">0</property>
    </filter>
  </producer>
  <producer id="producer144" title="Anonymous Submission" in="00:00:00.000" out="00:03:16.440">
    <property name="length">00:03:16:12</property>
    <property name="eof">pause</property>
    <property name="resource">../../006 - Videos format youtube/Clarinettes/Natacha_clarinette_totoro.mp4</property>
    <property name="audio_index">1</property>
    <property name="video_index">0</property>
    <property name="mute_on_pause">0</property>
    <property name="mlt_service">avformat-novalidate</property>
    <property name="seekable">1</property>
    <property name="aspect_ratio">1</property>
    <property name="creation_time">2020-04-09T18:24:43</property>
    <property name="shotcut:hash">ef0c345cac52960b965edf602ef26da9</property>
    <property name="ignore_points">0</property>
    <property name="shotcut:caption">Natacha_clarinette_totoro.mp4</property>
    <property name="shotcut:skipConvert">1</property>
    <property name="global_feed">1</property>
    <property name="xml">was here</property>
    <filter id="filter259" out="00:00:29.360000" in="00:00:28.160000">
      <property name="background">colour:0</property>
      <property name="mlt_service">affine</property>
      <property name="shotcut:filter">affineSizePosition</property>
      <property name="transition.fill">1</property>
      <property name="transition.distort">0</property>
      <property name="transition.rect">00:00:00.000000=1200.0 0.0 242.0 136.0 1;00:00:01.200000=1440.0 0.0 241.0 136.0 1</property>
      <property name="transition.valign">top</property>
      <property name="transition.halign">left</property>
      <property name="shotcut:animIn">00:00:01.240000</property>
      <property name="shotcut:animOut">00:00:00.000</property>
      <property name="transition.threads">0</property>
    </filter>
    <filter id="filter260" out="00:00:29.360000" in="00:00:28.160000">
      <property name="window">75</property>
      <property name="max_gain">20dB</property>
      <property name="mlt_service">volume</property>
      <property name="shotcut:filter">muteVolume</property>
      <property name="gain">0</property>
    </filter>
  </producer>
  <producer id="producer145" title="Anonymous Submission" in="00:00:00.000" out="00:03:16.440">
    <property name="length">00:03:16:12</property>
    <property name="eof">pause</property>
    <property name="resource">../../006 - Videos format youtube/Clarinettes/Natacha_clarinette_totoro.mp4</property>
    <property name="audio_index">1</property>
    <property name="video_index">0</property>
    <property name="mute_on_pause">0</property>
    <property name="mlt_service">avformat-novalidate</property>
    <property name="seekable">1</property>
    <property name="aspect_ratio">1</property>
    <property name="creation_time">2020-04-09T18:24:43</property>
    <property name="shotcut:hash">ef0c345cac52960b965edf602ef26da9</property>
    <property name="ignore_points">0</property>
    <property name="shotcut:caption">Natacha_clarinette_totoro.mp4</property>
    <property name="shotcut:skipConvert">1</property>
    <property name="global_feed">1</property>
    <property name="xml">was here</property>
    <filter id="filter261" out="00:00:30.600000" in="00:00:29.400000">
      <property name="background">colour:0</property>
      <property name="mlt_service">affine</property>
      <property name="shotcut:filter">affineSizePosition</property>
      <property name="transition.fill">1</property>
      <property name="transition.distort">0</property>
      <property name="transition.rect">00:00:00.000000=1440.0 0.0 242.0 136.0 1;00:00:01.200000=1680.0 0.0 241.0 136.0 1</property>
      <property name="transition.valign">top</property>
      <property name="transition.halign">left</property>
      <property name="shotcut:animIn">00:00:01.240000</property>
      <property name="shotcut:animOut">00:00:00.000</property>
      <property name="transition.threads">0</property>
    </filter>
    <filter id="filter262" out="00:00:30.600000" in="00:00:29.400000">
      <property name="window">75</property>
      <property name="max_gain">20dB</property>
      <property name="mlt_service">volume</property>
      <property name="shotcut:filter">muteVolume</property>
      <property name="gain">0</property>
    </filter>
  </producer>
  <producer id="producer146" title="Anonymous Submission" in="00:00:00.000" out="00:03:16.440">
    <property name="length">00:03:16:12</property>
    <property name="eof">pause</property>
    <property name="resource">../../006 - Videos format youtube/Clarinettes/Natacha_clarinette_totoro.mp4</property>
    <property name="audio_index">1</property>
    <property name="video_index">0</property>
    <property name="mute_on_pause">0</property>
    <property name="mlt_service">avformat-novalidate</property>
    <property name="seekable">1</property>
    <property name="aspect_ratio">1</property>
    <property name="creation_time">2020-04-09T18:24:43</property>
    <property name="shotcut:hash">ef0c345cac52960b965edf602ef26da9</property>
    <property name="ignore_points">0</property>
    <property name="shotcut:caption">Natacha_clarinette_totoro.mp4</property>
    <property name="shotcut:skipConvert">1</property>
    <property name="global_feed">1</property>
    <property name="xml">was here</property>
    <filter id="filter263" out="00:00:31.880000" in="00:00:30.640000">
      <property name="background">colour:0</property>
      <property name="mlt_service">affine</property>
      <property name="shotcut:filter">affineSizePosition</property>
      <property name="transition.fill">1</property>
      <property name="transition.distort">0</property>
      <property name="transition.rect">00:00:00.000000=1680.0 0.0 242.0 136.0 1;00:00:01.200000=1920.0 0.0 241.0 136.0 1</property>
      <property name="transition.valign">top</property>
      <property name="transition.halign">left</property>
      <property name="shotcut:animIn">00:00:01.240000</property>
      <property name="shotcut:animOut">00:00:00.000</property>
      <property name="transition.threads">0</property>
    </filter>
    <filter id="filter264" out="00:00:31.880000" in="00:00:30.640000">
      <property name="window">75</property>
      <property name="max_gain">20dB</property>
      <property name="mlt_service">volume</property>
      <property name="shotcut:filter">muteVolume</property>
      <property name="gain">0</property>
    </filter>
  </producer>
  <producer id="producer147" title="Anonymous Submission" in="00:00:00.000" out="00:03:16.440">
    <property name="length">00:03:16:12</property>
    <property name="eof">pause</property>
    <property name="resource">../../006 - Videos format youtube/Clarinettes/Natacha_clarinette_totoro.mp4</property>
    <property name="audio_index">1</property>
    <property name="video_index">0</property>
    <property name="mute_on_pause">0</property>
    <property name="mlt_service">avformat-novalidate</property>
    <property name="seekable">1</property>
    <property name="aspect_ratio">1</property>
    <property name="creation_time">2020-04-09T18:24:43</property>
    <property name="shotcut:hash">ef0c345cac52960b965edf602ef26da9</property>
    <property name="ignore_points">0</property>
    <property name="shotcut:caption">Natacha_clarinette_totoro.mp4</property>
    <property name="shotcut:skipConvert">1</property>
    <property name="global_feed">1</property>
    <property name="xml">was here</property>
    <filter id="filter265" out="00:00:33.120000" in="00:00:31.920000">
      <property name="background">colour:0</property>
      <property name="mlt_service">affine</property>
      <property name="shotcut:filter">affineSizePosition</property>
      <property name="transition.fill">1</property>
      <property name="transition.distort">0</property>
      <property name="transition.rect">00:00:00.000000=1920.0 0.0 242.0 136.0 1;00:00:01.200000=2160.0 0.0 241.0 136.0 1</property>
      <property name="transition.valign">top</property>
      <property name="transition.halign">left</property>
      <property name="shotcut:animIn">00:00:01.240000</property>
      <property name="shotcut:animOut">00:00:00.000</property>
      <property name="transition.threads">0</property>
    </filter>
    <filter id="filter266" out="00:00:33.120000" in="00:00:31.920000">
      <property name="window">75</property>
      <property name="max_gain">20dB</property>
      <property name="mlt_service">volume</property>
      <property name="shotcut:filter">muteVolume</property>
      <property name="gain">0</property>
    </filter>
  </producer>
  <producer id="producer148" title="Anonymous Submission" in="00:00:00.000" out="00:03:16.440">
    <property name="length">00:03:16:12</property>
    <property name="eof">pause</property>
    <property name="resource">../../006 - Videos format youtube/Clarinettes/Natacha_clarinette_totoro.mp4</property>
    <property name="audio_index">1</property>
    <property name="video_index">0</property>
    <property name="mute_on_pause">0</property>
    <property name="mlt_service">avformat-novalidate</property>
    <property name="seekable">1</property>
    <property name="aspect_ratio">1</property>
    <property name="creation_time">2020-04-09T18:24:43</property>
    <property name="shotcut:hash">ef0c345cac52960b965edf602ef26da9</property>
    <property name="ignore_points">0</property>
    <property name="shotcut:caption">Natacha_clarinette_totoro.mp4</property>
    <property name="shotcut:skipConvert">1</property>
    <property name="global_feed">1</property>
    <property name="xml">was here</property>
    <filter id="filter267" out="00:00:34.360000" in="00:00:33.160000">
      <property name="background">colour:0</property>
      <property name="mlt_service">affine</property>
      <property name="shotcut:filter">affineSizePosition</property>
      <property name="transition.fill">1</property>
      <property name="transition.distort">0</property>
      <property name="transition.rect">00:00:00.000000=2160.0 0.0 242.0 136.0 1;00:00:01.200000=2400.0 0.0 241.0 136.0 1</property>
      <property name="transition.valign">top</property>
      <property name="transition.halign">left</property>
      <property name="shotcut:animIn">00:00:01.240000</property>
      <property name="shotcut:animOut">00:00:00.000</property>
      <property name="transition.threads">0</property>
    </filter>
    <filter id="filter268" out="00:00:34.360000" in="00:00:33.160000">
      <property name="window">75</property>
      <property name="max_gain">20dB</property>
      <property name="mlt_service">volume</property>
      <property name="shotcut:filter">muteVolume</property>
      <property name="gain">0</property>
    </filter>
  </producer>
  <producer id="producer149" title="Anonymous Submission" in="00:00:00.000" out="00:03:16.440">
    <property name="length">00:03:16:12</property>
    <property name="eof">pause</property>
    <property name="resource">../../006 - Videos format youtube/Clarinettes/Natacha_clarinette_totoro.mp4</property>
    <property name="audio_index">1</property>
    <property name="video_index">0</property>
    <property name="mute_on_pause">0</property>
    <property name="mlt_service">avformat-novalidate</property>
    <property name="seekable">1</property>
    <property name="aspect_ratio">1</property>
    <property name="creation_time">2020-04-09T18:24:43</property>
    <property name="shotcut:hash">ef0c345cac52960b965edf602ef26da9</property>
    <property name="ignore_points">0</property>
    <property name="shotcut:caption">Natacha_clarinette_totoro.mp4</property>
    <property name="shotcut:skipConvert">1</property>
    <property name="global_feed">1</property>
    <property name="xml">was here</property>
    <filter id="filter269" out="00:00:35.600000" in="00:00:34.400000">
      <property name="background">colour:0</property>
      <property name="mlt_service">affine</property>
      <property name="shotcut:filter">affineSizePosition</property>
      <property name="transition.fill">1</property>
      <property name="transition.distort">0</property>
      <property name="transition.rect">00:00:00.000000=0.0 0.0 242.0 136.0 1;00:00:01.200000=240.0 0.0 241.0 136.0 1</property>
      <property name="transition.valign">top</property>
      <property name="transition.halign">left</property>
      <property name="shotcut:animIn">00:00:01.240000</property>
      <property name="shotcut:animOut">00:00:00.000</property>
      <property name="transition.threads">0</property>
    </filter>
    <filter id="filter270" out="00:00:35.600000" in="00:00:34.400000">
      <property name="window">75</property>
      <property name="max_gain">20dB</property>
      <property name="mlt_service">volume</property>
      <property name="shotcut:filter">muteVolume</property>
      <property name="gain">0</property>
    </filter>
  </producer>
  <producer id="producer150" title="Anonymous Submission" in="00:00:00.000" out="00:03:16.440">
    <property name="length">00:03:16:12</property>
    <property name="eof">pause</property>
    <property name="resource">../../006 - Videos format youtube/Clarinettes/Natacha_clarinette_totoro.mp4</property>
    <property name="audio_index">1</property>
    <property name="video_index">0</property>
    <property name="mute_on_pause">0</property>
    <property name="mlt_service">avformat-novalidate</property>
    <property name="seekable">1</property>
    <property name="aspect_ratio">1</property>
    <property name="creation_time">2020-04-09T18:24:43</property>
    <property name="shotcut:hash">ef0c345cac52960b965edf602ef26da9</property>
    <property name="ignore_points">0</property>
    <property name="shotcut:caption">Natacha_clarinette_totoro.mp4</property>
    <property name="shotcut:skipConvert">1</property>
    <property name="global_feed">1</property>
    <property name="xml">was here</property>
    <filter id="filter271" out="00:00:36.880000" in="00:00:35.640000">
      <property name="background">colour:0</property>
      <property name="mlt_service">affine</property>
      <property name="shotcut:filter">affineSizePosition</property>
      <property name="transition.fill">1</property>
      <property name="transition.distort">0</property>
      <property name="transition.rect">00:00:00.000000=240.0 0.0 242.0 136.0 1;00:00:01.200000=480.0 0.0 241.0 136.0 1</property>
      <property name="transition.valign">top</property>
      <property name="transition.halign">left</property>
      <property name="shotcut:animIn">00:00:01.240000</property>
      <property name="shotcut:animOut">00:00:00.000</property>
      <property name="transition.threads">0</property>
    </filter>
    <filter id="filter272" out="00:00:36.880000" in="00:00:35.640000">
      <property name="window">75</property>
      <property name="max_gain">20dB</property>
      <property name="mlt_service">volume</property>
      <property name="shotcut:filter">muteVolume</property>
      <property name="gain">0</property>
    </filter>
  </producer>
  <producer id="producer151" title="Anonymous Submission" in="00:00:00.000" out="00:03:16.440">
    <property name="length">00:03:16:12</property>
    <property name="eof">pause</property>
    <property name="resource">../../006 - Videos format youtube/Clarinettes/Natacha_clarinette_totoro.mp4</property>
    <property name="audio_index">1</property>
    <property name="video_index">0</property>
    <property name="mute_on_pause">0</property>
    <property name="mlt_service">avformat-novalidate</property>
    <property name="seekable">1</property>
    <property name="aspect_ratio">1</property>
    <property name="creation_time">2020-04-09T18:24:43</property>
    <property name="shotcut:hash">ef0c345cac52960b965edf602ef26da9</property>
    <property name="ignore_points">0</property>
    <property name="shotcut:caption">Natacha_clarinette_totoro.mp4</property>
    <property name="shotcut:skipConvert">1</property>
    <property name="global_feed">1</property>
    <property name="xml">was here</property>
    <filter id="filter273" out="00:00:38.120000" in="00:00:36.920000">
      <property name="background">colour:0</property>
      <property name="mlt_service">affine</property>
      <property name="shotcut:filter">affineSizePosition</property>
      <property name="transition.fill">1</property>
      <property name="transition.distort">0</property>
      <property name="transition.rect">00:00:00.000000=480.0 0.0 242.0 136.0 1;00:00:01.200000=720.0 0.0 241.0 136.0 1</property>
      <property name="transition.valign">top</property>
      <property name="transition.halign">left</property>
      <property name="shotcut:animIn">00:00:01.240000</property>
      <property name="shotcut:animOut">00:00:00.000</property>
      <property name="transition.threads">0</property>
    </filter>
    <filter id="filter274" out="00:00:38.120000" in="00:00:36.920000">
      <property name="window">75</property>
      <property name="max_gain">20dB</property>
      <property name="mlt_service">volume</property>
      <property name="shotcut:filter">muteVolume</property>
      <property name="gain">0</property>
    </filter>
  </producer>
  <producer id="producer152" title="Anonymous Submission" in="00:00:00.000" out="00:03:16.440">
    <property name="length">00:03:16:12</property>
    <property name="eof">pause</property>
    <property name="resource">../../006 - Videos format youtube/Clarinettes/Natacha_clarinette_totoro.mp4</property>
    <property name="audio_index">1</property>
    <property name="video_index">0</property>
    <property name="mute_on_pause">0</property>
    <property name="mlt_service">avformat-novalidate</property>
    <property name="seekable">1</property>
    <property name="aspect_ratio">1</property>
    <property name="creation_time">2020-04-09T18:24:43</property>
    <property name="shotcut:hash">ef0c345cac52960b965edf602ef26da9</property>
    <property name="ignore_points">0</property>
    <property name="shotcut:caption">Natacha_clarinette_totoro.mp4</property>
    <property name="shotcut:skipConvert">1</property>
    <property name="global_feed">1</property>
    <property name="xml">was here</property>
    <filter id="filter275" out="00:00:39.360000" in="00:00:38.160000">
      <property name="background">colour:0</property>
      <property name="mlt_service">affine</property>
      <property name="shotcut:filter">affineSizePosition</property>
      <property name="transition.fill">1</property>
      <property name="transition.distort">0</property>
      <property name="transition.rect">00:00:00.000000=720.0 0.0 242.0 136.0 1;00:00:01.200000=960.0 0.0 241.0 136.0 1</property>
      <property name="transition.valign">top</property>
      <property name="transition.halign">left</property>
      <property name="shotcut:animIn">00:00:01.240000</property>
      <property name="shotcut:animOut">00:00:00.000</property>
      <property name="transition.threads">0</property>
    </filter>
    <filter id="filter276" out="00:00:39.360000" in="00:00:38.160000">
      <property name="window">75</property>
      <property name="max_gain">20dB</property>
      <property name="mlt_service">volume</property>
      <property name="shotcut:filter">muteVolume</property>
      <property name="gain">0</property>
    </filter>
  </producer>
  <producer id="producer153" title="Anonymous Submission" in="00:00:00.000" out="00:03:16.440">
    <property name="length">00:03:16:12</property>
    <property name="eof">pause</property>
    <property name="resource">../../006 - Videos format youtube/Clarinettes/Natacha_clarinette_totoro.mp4</property>
    <property name="audio_index">1</property>
    <property name="video_index">0</property>
    <property name="mute_on_pause">0</property>
    <property name="mlt_service">avformat-novalidate</property>
    <property name="seekable">1</property>
    <property name="aspect_ratio">1</property>
    <property name="creation_time">2020-04-09T18:24:43</property>
    <property name="shotcut:hash">ef0c345cac52960b965edf602ef26da9</property>
    <property name="ignore_points">0</property>
    <property name="shotcut:caption">Natacha_clarinette_totoro.mp4</property>
    <property name="shotcut:skipConvert">1</property>
    <property name="global_feed">1</property>
    <property name="xml">was here</property>
    <filter id="filter277" out="00:00:40.600000" in="00:00:39.400000">
      <property name="background">colour:0</property>
      <property name="mlt_service">affine</property>
      <property name="shotcut:filter">affineSizePosition</property>
      <property name="transition.fill">1</property>
      <property name="transition.distort">0</property>
      <property name="transition.rect">00:00:00.000000=960.0 0.0 242.0 136.0 1;00:00:01.200000=1200.0 0.0 241.0 136.0 1</property>
      <property name="transition.valign">top</property>
      <property name="transition.halign">left</property>
      <property name="shotcut:animIn">00:00:01.240000</property>
      <property name="shotcut:animOut">00:00:00.000</property>
      <property name="transition.threads">0</property>
    </filter>
    <filter id="filter278" out="00:00:40.600000" in="00:00:39.400000">
      <property name="window">75</property>
      <property name="max_gain">20dB</property>
      <property name="mlt_service">volume</property>
      <property name="shotcut:filter">muteVolume</property>
      <property name="gain">0</property>
    </filter>
  </producer>
  <producer id="producer154" title="Anonymous Submission" in="00:00:00.000" out="00:03:16.440">
    <property name="length">00:03:16:12</property>
    <property name="eof">pause</property>
    <property name="resource">../../006 - Videos format youtube/Clarinettes/Natacha_clarinette_totoro.mp4</property>
    <property name="audio_index">1</property>
    <property name="video_index">0</property>
    <property name="mute_on_pause">0</property>
    <property name="mlt_service">avformat-novalidate</property>
    <property name="seekable">1</property>
    <property name="aspect_ratio">1</property>
    <property name="creation_time">2020-04-09T18:24:43</property>
    <property name="shotcut:hash">ef0c345cac52960b965edf602ef26da9</property>
    <property name="ignore_points">0</property>
    <property name="shotcut:caption">Natacha_clarinette_totoro.mp4</property>
    <property name="shotcut:skipConvert">1</property>
    <property name="global_feed">1</property>
    <property name="xml">was here</property>
    <filter id="filter279" out="00:00:41.880000" in="00:00:40.640000">
      <property name="background">colour:0</property>
      <property name="mlt_service">affine</property>
      <property name="shotcut:filter">affineSizePosition</property>
      <property name="transition.fill">1</property>
      <property name="transition.distort">0</property>
      <property name="transition.rect">00:00:00.000000=1200.0 0.0 242.0 136.0 1;00:00:01.200000=1440.0 0.0 241.0 136.0 1</property>
      <property name="transition.valign">top</property>
      <property name="transition.halign">left</property>
      <property name="shotcut:animIn">00:00:01.240000</property>
      <property name="shotcut:animOut">00:00:00.000</property>
      <property name="transition.threads">0</property>
    </filter>
    <filter id="filter280" out="00:00:41.880000" in="00:00:40.640000">
      <property name="window">75</property>
      <property name="max_gain">20dB</property>
      <property name="mlt_service">volume</property>
      <property name="shotcut:filter">muteVolume</property>
      <property name="gain">0</property>
    </filter>
  </producer>
  <producer id="producer155" title="Anonymous Submission" in="00:00:00.000" out="00:03:16.440">
    <property name="length">00:03:16:12</property>
    <property name="eof">pause</property>
    <property name="resource">../../006 - Videos format youtube/Clarinettes/Natacha_clarinette_totoro.mp4</property>
    <property name="audio_index">1</property>
    <property name="video_index">0</property>
    <property name="mute_on_pause">0</property>
    <property name="mlt_service">avformat-novalidate</property>
    <property name="seekable">1</property>
    <property name="aspect_ratio">1</property>
    <property name="creation_time">2020-04-09T18:24:43</property>
    <property name="shotcut:hash">ef0c345cac52960b965edf602ef26da9</property>
    <property name="ignore_points">0</property>
    <property name="shotcut:caption">Natacha_clarinette_totoro.mp4</property>
    <property name="shotcut:skipConvert">1</property>
    <property name="global_feed">1</property>
    <property name="xml">was here</property>
    <filter id="filter281" out="00:00:43.120000" in="00:00:41.920000">
      <property name="background">colour:0</property>
      <property name="mlt_service">affine</property>
      <property name="shotcut:filter">affineSizePosition</property>
      <property name="transition.fill">1</property>
      <property name="transition.distort">0</property>
      <property name="transition.rect">00:00:00.000000=1440.0 0.0 242.0 136.0 1;00:00:01.200000=1680.0 0.0 241.0 136.0 1</property>
      <property name="transition.valign">top</property>
      <property name="transition.halign">left</property>
      <property name="shotcut:animIn">00:00:01.240000</property>
      <property name="shotcut:animOut">00:00:00.000</property>
      <property name="transition.threads">0</property>
    </filter>
    <filter id="filter282" out="00:00:43.120000" in="00:00:41.920000">
      <property name="window">75</property>
      <property name="max_gain">20dB</property>
      <property name="mlt_service">volume</property>
      <property name="shotcut:filter">muteVolume</property>
      <property name="gain">0</property>
    </filter>
  </producer>
  <producer id="producer156" title="Anonymous Submission" in="00:00:00.000" out="00:03:16.440">
    <property name="length">00:03:16:12</property>
    <property name="eof">pause</property>
    <property name="resource">../../006 - Videos format youtube/Clarinettes/Natacha_clarinette_totoro.mp4</property>
    <property name="audio_index">1</property>
    <property name="video_index">0</property>
    <property name="mute_on_pause">0</property>
    <property name="mlt_service">avformat-novalidate</property>
    <property name="seekable">1</property>
    <property name="aspect_ratio">1</property>
    <property name="creation_time">2020-04-09T18:24:43</property>
    <property name="shotcut:hash">ef0c345cac52960b965edf602ef26da9</property>
    <property name="ignore_points">0</property>
    <property name="shotcut:caption">Natacha_clarinette_totoro.mp4</property>
    <property name="shotcut:skipConvert">1</property>
    <property name="global_feed">1</property>
    <property name="xml">was here</property>
    <filter id="filter283" out="00:00:44.360000" in="00:00:43.160000">
      <property name="background">colour:0</property>
      <property name="mlt_service">affine</property>
      <property name="shotcut:filter">affineSizePosition</property>
      <property name="transition.fill">1</property>
      <property name="transition.distort">0</property>
      <property name="transition.rect">00:00:00.000000=1680.0 0.0 242.0 136.0 1;00:00:01.200000=1920.0 0.0 241.0 136.0 1</property>
      <property name="transition.valign">top</property>
      <property name="transition.halign">left</property>
      <property name="shotcut:animIn">00:00:01.240000</property>
      <property name="shotcut:animOut">00:00:00.000</property>
      <property name="transition.threads">0</property>
    </filter>
    <filter id="filter284" out="00:00:44.360000" in="00:00:43.160000">
      <property name="window">75</property>
      <property name="max_gain">20dB</property>
      <property name="mlt_service">volume</property>
      <property name="shotcut:filter">muteVolume</property>
      <property name="gain">0</property>
    </filter>
  </producer>
  <producer id="producer157" title="Anonymous Submission" in="00:00:00.000" out="00:03:16.440">
    <property name="length">00:03:16:12</property>
    <property name="eof">pause</property>
    <property name="resource">../../006 - Videos format youtube/Clarinettes/Natacha_clarinette_totoro.mp4</property>
    <property name="audio_index">1</property>
    <property name="video_index">0</property>
    <property name="mute_on_pause">0</property>
    <property name="mlt_service">avformat-novalidate</property>
    <property name="seekable">1</property>
    <property name="aspect_ratio">1</property>
    <property name="creation_time">2020-04-09T18:24:43</property>
    <property name="shotcut:hash">ef0c345cac52960b965edf602ef26da9</property>
    <property name="ignore_points">0</property>
    <property name="shotcut:caption">Natacha_clarinette_totoro.mp4</property>
    <property name="shotcut:skipConvert">1</property>
    <property name="global_feed">1</property>
    <property name="xml">was here</property>
    <filter id="filter285" out="00:00:45.600000" in="00:00:44.400000">
      <property name="background">colour:0</property>
      <property name="mlt_service">affine</property>
      <property name="shotcut:filter">affineSizePosition</property>
      <property name="transition.fill">1</property>
      <property name="transition.distort">0</property>
      <property name="transition.rect">00:00:00.000000=1920.0 0.0 242.0 136.0 1;00:00:01.200000=2160.0 0.0 241.0 136.0 1</property>
      <property name="transition.valign">top</property>
      <property name="transition.halign">left</property>
      <property name="shotcut:animIn">00:00:01.240000</property>
      <property name="shotcut:animOut">00:00:00.000</property>
      <property name="transition.threads">0</property>
    </filter>
    <filter id="filter286" out="00:00:45.600000" in="00:00:44.400000">
      <property name="window">75</property>
      <property name="max_gain">20dB</property>
      <property name="mlt_service">volume</property>
      <property name="shotcut:filter">muteVolume</property>
      <property name="gain">0</property>
    </filter>
  </producer>
  <producer id="producer158" title="Anonymous Submission" in="00:00:00.000" out="00:03:16.440">
    <property name="length">00:03:16:12</property>
    <property name="eof">pause</property>
    <property name="resource">../../006 - Videos format youtube/Clarinettes/Natacha_clarinette_totoro.mp4</property>
    <property name="audio_index">1</property>
    <property name="video_index">0</property>
    <property name="mute_on_pause">0</property>
    <property name="mlt_service">avformat-novalidate</property>
    <property name="seekable">1</property>
    <property name="aspect_ratio">1</property>
    <property name="creation_time">2020-04-09T18:24:43</property>
    <property name="shotcut:hash">ef0c345cac52960b965edf602ef26da9</property>
    <property name="ignore_points">0</property>
    <property name="shotcut:caption">Natacha_clarinette_totoro.mp4</property>
    <property name="shotcut:skipConvert">1</property>
    <property name="global_feed">1</property>
    <property name="xml">was here</property>
    <filter id="filter287" out="00:00:46.880000" in="00:00:45.640000">
      <property name="background">colour:0</property>
      <property name="mlt_service">affine</property>
      <property name="shotcut:filter">affineSizePosition</property>
      <property name="transition.fill">1</property>
      <property name="transition.distort">0</property>
      <property name="transition.rect">00:00:00.000000=2160.0 0.0 242.0 136.0 1;00:00:01.200000=2400.0 0.0 241.0 136.0 1</property>
      <property name="transition.valign">top</property>
      <property name="transition.halign">left</property>
      <property name="shotcut:animIn">00:00:01.240000</property>
      <property name="shotcut:animOut">00:00:00.000</property>
      <property name="transition.threads">0</property>
    </filter>
    <filter id="filter288" out="00:00:46.880000" in="00:00:45.640000">
      <property name="window">75</property>
      <property name="max_gain">20dB</property>
      <property name="mlt_service">volume</property>
      <property name="shotcut:filter">muteVolume</property>
      <property name="gain">0</property>
    </filter>
  </producer>
  <producer id="producer159" title="Anonymous Submission" in="00:00:00.000" out="00:03:16.440">
    <property name="length">00:03:16:12</property>
    <property name="eof">pause</property>
    <property name="resource">../../006 - Videos format youtube/Clarinettes/Natacha_clarinette_totoro.mp4</property>
    <property name="audio_index">1</property>
    <property name="video_index">0</property>
    <property name="mute_on_pause">0</property>
    <property name="mlt_service">avformat-novalidate</property>
    <property name="seekable">1</property>
    <property name="aspect_ratio">1</property>
    <property name="creation_time">2020-04-09T18:24:43</property>
    <property name="shotcut:hash">ef0c345cac52960b965edf602ef26da9</property>
    <property name="ignore_points">0</property>
    <property name="shotcut:caption">Natacha_clarinette_totoro.mp4</property>
    <property name="shotcut:skipConvert">1</property>
    <property name="global_feed">1</property>
    <property name="xml">was here</property>
    <filter id="filter289" out="00:01:00.880000" in="00:00:46.920000">
      <property name="background">colour:0</property>
      <property name="mlt_service">affine</property>
      <property name="shotcut:filter">affineSizePosition</property>
      <property name="transition.fill">1</property>
      <property name="transition.distort">0</property>
      <property name="transition.rect">0.0 0.0 241.0 136.0 1</property>
      <property name="transition.valign">top</property>
      <property name="transition.halign">left</property>
      <property name="shotcut:animIn">00:00:01.240000</property>
      <property name="shotcut:animOut">00:00:00.000</property>
      <property name="transition.threads">0</property>
    </filter>
    <filter id="filter290" out="00:01:00.880000" in="00:00:46.920000">
      <property name="window">75</property>
      <property name="max_gain">20dB</property>
      <property name="mlt_service">volume</property>
      <property name="shotcut:filter">muteVolume</property>
      <property name="gain">0</property>
    </filter>
  </producer>
  <producer id="producer160" title="Anonymous Submission" in="00:00:00.000" out="00:03:16.440">
    <property name="length">00:03:16:12</property>
    <property name="eof">pause</property>
    <property name="resource">../../006 - Videos format youtube/Clarinettes/Natacha_clarinette_totoro.mp4</property>
    <property name="audio_index">1</property>
    <property name="video_index">0</property>
    <property name="mute_on_pause">0</property>
    <property name="mlt_service">avformat-novalidate</property>
    <property name="seekable">1</property>
    <property name="aspect_ratio">1</property>
    <property name="creation_time">2020-04-09T18:24:43</property>
    <property name="shotcut:hash">ef0c345cac52960b965edf602ef26da9</property>
    <property name="ignore_points">0</property>
    <property name="shotcut:caption">Natacha_clarinette_totoro.mp4</property>
    <property name="shotcut:skipConvert">1</property>
    <property name="global_feed">1</property>
    <property name="xml">was here</property>
    <filter id="filter291" out="00:01:08.880000" in="00:01:00.920000">
      <property name="background">colour:0</property>
      <property name="mlt_service">affine</property>
      <property name="shotcut:filter">affineSizePosition</property>
      <property name="transition.fill">1</property>
      <property name="transition.distort">0</property>
      <property name="transition.rect">548.0 462.0 275.0 155.0 1</property>
      <property name="transition.valign">top</property>
      <property name="transition.halign">left</property>
      <property name="shotcut:animIn">00:00:01.240000</property>
      <property name="shotcut:animOut">00:00:00.000</property>
      <property name="transition.threads">0</property>
    </filter>
    <filter id="filter292" out="00:01:08.880000" in="00:01:00.920000">
      <property name="window">75</property>
      <property name="max_gain">20dB</property>
      <property name="mlt_service">volume</property>
      <property name="shotcut:filter">muteVolume</property>
      <property name="gain">0</property>
    </filter>
  </producer>
  <producer id="producer161" title="Anonymous Submission" in="00:00:00.000" out="00:03:16.440">
    <property name="length">00:03:16:12</property>
    <property name="eof">pause</property>
    <property name="resource">../../006 - Videos format youtube/Clarinettes/Natacha_clarinette_totoro.mp4</property>
    <property name="audio_index">1</property>
    <property name="video_index">0</property>
    <property name="mute_on_pause">0</property>
    <property name="mlt_service">avformat-novalidate</property>
    <property name="seekable">1</property>
    <property name="aspect_ratio">1</property>
    <property name="creation_time">2020-04-09T18:24:43</property>
    <property name="shotcut:hash">ef0c345cac52960b965edf602ef26da9</property>
    <property name="ignore_points">0</property>
    <property name="shotcut:caption">Natacha_clarinette_totoro.mp4</property>
    <property name="shotcut:skipConvert">1</property>
    <property name="global_feed">1</property>
    <property name="xml">was here</property>
    <filter id="filter293" out="00:01:16.880000" in="00:01:08.920000">
      <property name="background">colour:0</property>
      <property name="mlt_service">affine</property>
      <property name="shotcut:filter">affineSizePosition</property>
      <property name="transition.fill">1</property>
      <property name="transition.distort">0</property>
      <property name="transition.rect">822.0 308.0 275.0 155.0 1</property>
      <property name="transition.valign">top</property>
      <property name="transition.halign">left</property>
      <property name="shotcut:animIn">00:00:01.240000</property>
      <property name="shotcut:animOut">00:00:00.000</property>
      <property name="transition.threads">0</property>
    </filter>
    <filter id="filter294" out="00:01:16.880000" in="00:01:08.920000">
      <property name="window">75</property>
      <property name="max_gain">20dB</property>
      <property name="mlt_service">volume</property>
      <property name="shotcut:filter">muteVolume</property>
      <property name="gain">0</property>
    </filter>
  </producer>
  <producer id="producer162" title="Anonymous Submission" in="00:00:00.000" out="00:03:16.440">
    <property name="length">00:03:16:12</property>
    <property name="eof">pause</property>
    <property name="resource">../../006 - Videos format youtube/Clarinettes/Natacha_clarinette_totoro.mp4</property>
    <property name="audio_index">1</property>
    <property name="video_index">0</property>
    <property name="mute_on_pause">0</property>
    <property name="mlt_service">avformat-novalidate</property>
    <property name="seekable">1</property>
    <property name="aspect_ratio">1</property>
    <property name="creation_time">2020-04-09T18:24:43</property>
    <property name="shotcut:hash">ef0c345cac52960b965edf602ef26da9</property>
    <property name="ignore_points">0</property>
    <property name="shotcut:caption">Natacha_clarinette_totoro.mp4</property>
    <property name="shotcut:skipConvert">1</property>
    <property name="global_feed">1</property>
    <property name="xml">was here</property>
    <filter id="filter295" out="00:01:23.880000" in="00:01:16.920000">
      <property name="background">colour:0</property>
      <property name="mlt_service">affine</property>
      <property name="shotcut:filter">affineSizePosition</property>
      <property name="transition.fill">1</property>
      <property name="transition.distort">0</property>
      <property name="transition.rect">640.0 540.0 321.0 181.0 1</property>
      <property name="transition.valign">top</property>
      <property name="transition.halign">left</property>
      <property name="shotcut:animIn">00:00:01.240000</property>
      <property name="shotcut:animOut">00:00:00.000</property>
      <property name="transition.threads">0</property>
    </filter>
    <filter id="filter296" out="00:01:23.880000" in="00:01:16.920000">
      <property name="window">75</property>
      <property name="max_gain">20dB</property>
      <property name="mlt_service">volume</property>
      <property name="shotcut:filter">muteVolume</property>
      <property name="gain">0</property>
    </filter>
  </producer>
  <producer id="producer163" title="Anonymous Submission" in="00:00:00.000" out="00:03:16.440">
    <property name="length">00:03:16:12</property>
    <property name="eof">pause</property>
    <property name="resource">../../006 - Videos format youtube/Clarinettes/Natacha_clarinette_totoro.mp4</property>
    <property name="audio_index">1</property>
    <property name="video_index">0</property>
    <property name="mute_on_pause">0</property>
    <property name="mlt_service">avformat-novalidate</property>
    <property name="seekable">1</property>
    <property name="aspect_ratio">1</property>
    <property name="creation_time">2020-04-09T18:24:43</property>
    <property name="shotcut:hash">ef0c345cac52960b965edf602ef26da9</property>
    <property name="ignore_points">0</property>
    <property name="shotcut:caption">Natacha_clarinette_totoro.mp4</property>
    <property name="shotcut:skipConvert">1</property>
    <property name="global_feed">1</property>
    <property name="xml">was here</property>
    <filter id="filter297" out="00:01:31.880000" in="00:01:23.920000">
      <property name="background">colour:0</property>
      <property name="mlt_service">affine</property>
      <property name="shotcut:filter">affineSizePosition</property>
      <property name="transition.fill">1</property>
      <property name="transition.distort">0</property>
      <property name="transition.rect">640.0 -900.0 321.0 181.0 1</property>
      <property name="transition.valign">top</property>
      <property name="transition.halign">left</property>
      <property name="shotcut:animIn">00:00:01.240000</property>
      <property name="shotcut:animOut">00:00:00.000</property>
      <property name="transition.threads">0</property>
    </filter>
    <filter id="filter298" out="00:01:31.880000" in="00:01:23.920000">
      <property name="window">75</property>
      <property name="max_gain">20dB</property>
      <property name="mlt_service">volume</property>
      <property name="shotcut:filter">muteVolume</property>
      <property name="gain">0</property>
    </filter>
  </producer>
  <producer id="producer164" title="Anonymous Submission" in="00:00:00.000" out="00:03:16.440">
    <property name="length">00:03:16:12</property>
    <property name="eof">pause</property>
    <property name="resource">../../006 - Videos format youtube/Clarinettes/Natacha_clarinette_totoro.mp4</property>
    <property name="audio_index">1</property>
    <property name="video_index">0</property>
    <property name="mute_on_pause">0</property>
    <property name="mlt_service">avformat-novalidate</property>
    <property name="seekable">1</property>
    <property name="aspect_ratio">1</property>
    <property name="creation_time">2020-04-09T18:24:43</property>
    <property name="shotcut:hash">ef0c345cac52960b965edf602ef26da9</property>
    <property name="ignore_points">0</property>
    <property name="shotcut:caption">Natacha_clarinette_totoro.mp4</property>
    <property name="shotcut:skipConvert">1</property>
    <property name="global_feed">1</property>
    <property name="xml">was here</property>
    <filter id="filter299" out="00:01:40.880000" in="00:01:31.920000">
      <property name="background">colour:0</property>
      <property name="mlt_service">affine</property>
      <property name="shotcut:filter">affineSizePosition</property>
      <property name="transition.fill">1</property>
      <property name="transition.distort">0</property>
      <property name="transition.rect">1645.0 617.0 275.0 155.0 1</property>
      <property name="transition.valign">top</property>
      <property name="transition.halign">left</property>
      <property name="shotcut:animIn">00:00:01.240000</property>
      <property name="shotcut:animOut">00:00:00.000</property>
      <property name="transition.threads">0</property>
    </filter>
    <filter id="filter300" out="00:01:40.880000" in="00:01:31.920000">
      <property name="window">75</property>
      <property name="max_gain">20dB</property>
      <property name="mlt_service">volume</property>
      <property name="shotcut:filter">muteVolume</property>
      <property name="gain">0</property>
    </filter>
  </producer>
  <producer id="producer165" title="Anonymous Submission" in="00:00:00.000" out="00:03:16.440">
    <property name="length">00:03:16:12</property>
    <property name="eof">pause</property>
    <property name="resource">../../006 - Videos format youtube/Clarinettes/Natacha_clarinette_totoro.mp4</property>
    <property name="audio_index">1</property>
    <property name="video_index">0</property>
    <property name="mute_on_pause">0</property>
    <property name="mlt_service">avformat-novalidate</property>
    <property name="seekable">1</property>
    <property name="aspect_ratio">1</property>
    <property name="creation_time">2020-04-09T18:24:43</property>
    <property name="shotcut:hash">ef0c345cac52960b965edf602ef26da9</property>
    <property name="ignore_points">0</property>
    <property name="shotcut:caption">Natacha_clarinette_totoro.mp4</property>
    <property name="shotcut:skipConvert">1</property>
    <property name="global_feed">1</property>
    <property name="xml">was here</property>
    <filter id="filter301" out="00:01:47.880000" in="00:01:40.920000">
      <property name="background">colour:0</property>
      <property name="mlt_service">affine</property>
      <property name="shotcut:filter">affineSizePosition</property>
      <property name="transition.fill">1</property>
      <property name="transition.distort">0</property>
      <property name="transition.rect">0.0 0.0 275.0 155.0 1</property>
      <property name="transition.valign">top</property>
      <property name="transition.halign">left</property>
      <property name="shotcut:animIn">00:00:01.240000</property>
      <property name="shotcut:animOut">00:00:00.000</property>
      <property name="transition.threads">0</property>
    </filter>
    <filter id="filter302" out="00:01:47.880000" in="00:01:40.920000">
      <property name="window">75</property>
      <property name="max_gain">20dB</property>
      <property name="mlt_service">volume</property>
      <property name="shotcut:filter">muteVolume</property>
      <property name="gain">0</property>
    </filter>
  </producer>
  <producer id="producer166" title="Anonymous Submission" in="00:00:00.000" out="00:03:16.440">
    <property name="length">00:03:16:12</property>
    <property name="eof">pause</property>
    <property name="resource">../../006 - Videos format youtube/Clarinettes/Natacha_clarinette_totoro.mp4</property>
    <property name="audio_index">1</property>
    <property name="video_index">0</property>
    <property name="mute_on_pause">0</property>
    <property name="mlt_service">avformat-novalidate</property>
    <property name="seekable">1</property>
    <property name="aspect_ratio">1</property>
    <property name="creation_time">2020-04-09T18:24:43</property>
    <property name="shotcut:hash">ef0c345cac52960b965edf602ef26da9</property>
    <property name="ignore_points">0</property>
    <property name="shotcut:caption">Natacha_clarinette_totoro.mp4</property>
    <property name="shotcut:skipConvert">1</property>
    <property name="global_feed">1</property>
    <property name="xml">was here</property>
    <filter id="filter303" out="00:03:16.440000" in="00:01:47.920000">
      <property name="background">colour:0</property>
      <property name="mlt_service">affine</property>
      <property name="shotcut:filter">affineSizePosition</property>
      <property name="transition.fill">1</property>
      <property name="transition.distort">0</property>
      <property name="transition.rect">1280.0 360.0 641.0 361.0 1</property>
      <property name="transition.valign">top</property>
      <property name="transition.halign">left</property>
      <property name="shotcut:animIn">00:00:01.240000</property>
      <property name="shotcut:animOut">00:00:00.000</property>
      <property name="transition.threads">0</property>
    </filter>
    <filter id="filter304" out="00:03:16.440000" in="00:01:47.920000">
      <property name="window">75</property>
      <property name="max_gain">20dB</property>
      <property name="mlt_service">volume</property>
      <property name="shotcut:filter">muteVolume</property>
      <property name="gain">0</property>
    </filter>
  </producer>
  <playlist id="playlist11">
    <property name="shotcut:video">1</property>
    <property name="shotcut:name">natacha</property>
    <property name="shotcut:lock">1</property>
    <blank length="00:00:03.080" />
    <entry producer="producer141" in="00:00:00.000" out="00:00:19.880000" />
    <entry producer="producer142" in="00:00:19.920000" out="00:00:26.880000" />
    <entry producer="producer143" in="00:00:26.920000" out="00:00:28.120000" />
    <entry producer="producer144" in="00:00:28.160000" out="00:00:29.360000" />
    <entry producer="producer145" in="00:00:29.400000" out="00:00:30.600000" />
    <entry producer="producer146" in="00:00:30.640000" out="00:00:31.880000" />
    <entry producer="producer147" in="00:00:31.920000" out="00:00:33.120000" />
    <entry producer="producer148" in="00:00:33.160000" out="00:00:34.360000" />
    <entry producer="producer149" in="00:00:34.400000" out="00:00:35.600000" />
    <entry producer="producer150" in="00:00:35.640000" out="00:00:36.880000" />
    <entry producer="producer151" in="00:00:36.920000" out="00:00:38.120000" />
    <entry producer="producer152" in="00:00:38.160000" out="00:00:39.360000" />
    <entry producer="producer153" in="00:00:39.400000" out="00:00:40.600000" />
    <entry producer="producer154" in="00:00:40.640000" out="00:00:41.880000" />
    <entry producer="producer155" in="00:00:41.920000" out="00:00:43.120000" />
    <entry producer="producer156" in="00:00:43.160000" out="00:00:44.360000" />
    <entry producer="producer157" in="00:00:44.400000" out="00:00:45.600000" />
    <entry producer="producer158" in="00:00:45.640000" out="00:00:46.880000" />
    <entry producer="producer159" in="00:00:46.920000" out="00:01:00.880000" />
    <entry producer="producer160" in="00:01:00.920000" out="00:01:08.880000" />
    <entry producer="producer161" in="00:01:08.920000" out="00:01:16.880000" />
    <entry producer="producer162" in="00:01:16.920000" out="00:01:23.880000" />
    <entry producer="producer163" in="00:01:23.920000" out="00:01:31.880000" />
    <entry producer="producer164" in="00:01:31.920000" out="00:01:40.880000" />
    <entry producer="producer165" in="00:01:40.920000" out="00:01:47.880000" />
    <entry producer="producer166" in="00:01:47.920000" out="00:03:16.440000" />
    <filter id="filter305" out="00:03:23.320">
      <property name="window">75</property>
      <property name="max_gain">20dB</property>
      <property name="level">-11</property>
      <property name="mlt_service">volume</property>
    </filter>
  </playlist>
  <producer id="producer167" title="Anonymous Submission" in="00:00:00.000" out="00:03:22.120">
    <property name="length">00:03:22:04</property>
    <property name="eof">pause</property>
    <property name="resource">../../006 - Videos format youtube/Clarinettes/Pierre_clarinette_totoro_recadre.mp4</property>
    <property name="audio_index">1</property>
    <property name="video_index">0</property>
    <property name="mute_on_pause">0</property>
    <property name="mlt_service">avformat-novalidate</property>
    <property name="seekable">1</property>
    <property name="aspect_ratio">1</property>
    <property name="creation_time">2020-04-12T15:55:36</property>
    <property name="shotcut:hash">e4c0c36f4b8e968ab780c99675fecd9b</property>
    <property name="ignore_points">0</property>
    <property name="shotcut:caption">Pierre_clarinette_totoro_recadre.mp4</property>
    <property name="shotcut:skipConvert">1</property>
    <property name="global_feed">1</property>
    <property name="xml">was here</property>
    <filter id="filter306" out="00:00:22.960000">
      <property name="background">colour:0</property>
      <property name="mlt_service">affine</property>
      <property name="shotcut:filter">affineSizePosition</property>
      <property name="transition.fill">1</property>
      <property name="transition.distort">0</property>
      <property name="transition.rect">1371.0 154.0 275.0 155.0 1</property>
      <property name="transition.valign">top</property>
      <property name="transition.halign">left</property>
      <property name="shotcut:animIn">00:00:00.000</property>
      <property name="shotcut:animOut">00:00:00.000</property>
      <property name="transition.threads">0</property>
    </filter>
  </producer>
  <producer id="producer168" title="Anonymous Submission" in="00:00:00.000" out="00:03:22.120">
    <property name="length">00:03:22:04</property>
    <property name="eof">pause</property>
    <property name="resource">../../006 - Videos format youtube/Clarinettes/Pierre_clarinette_totoro_recadre.mp4</property>
    <property name="audio_index">1</property>
    <property name="video_index">0</property>
    <property name="mute_on_pause">0</property>
    <property name="mlt_service">avformat-novalidate</property>
    <property name="seekable">1</property>
    <property name="aspect_ratio">1</property>
    <property name="creation_time">2020-04-12T15:55:36</property>
    <property name="shotcut:hash">e4c0c36f4b8e968ab780c99675fecd9b</property>
    <property name="ignore_points">0</property>
    <property name="shotcut:caption">Pierre_clarinette_totoro_recadre.mp4</property>
    <property name="shotcut:skipConvert">1</property>
    <property name="global_feed">1</property>
    <property name="xml">was here</property>
    <filter id="filter307" out="00:00:29.960000" in="00:00:23.000000">
      <property name="background">colour:0</property>
      <property name="mlt_service">affine</property>
      <property name="shotcut:filter">affineSizePosition</property>
      <property name="transition.fill">1</property>
      <property name="transition.distort">0</property>
      <property name="transition.rect">00:00:00.000000=1371.0 154.0 276.0 155.0 1;00:00:00.440000=1097.0 925.0 275.0 155.0 1</property>
      <property name="transition.valign">top</property>
      <property name="transition.halign">left</property>
      <property name="shotcut:animIn">00:00:00.480000</property>
      <property name="shotcut:animOut">00:00:00.000</property>
      <property name="transition.threads">0</property>
    </filter>
  </producer>
  <producer id="producer169" title="Anonymous Submission" in="00:00:00.000" out="00:03:22.120">
    <property name="length">00:03:22:04</property>
    <property name="eof">pause</property>
    <property name="resource">../../006 - Videos format youtube/Clarinettes/Pierre_clarinette_totoro_recadre.mp4</property>
    <property name="audio_index">1</property>
    <property name="video_index">0</property>
    <property name="mute_on_pause">0</property>
    <property name="mlt_service">avformat-novalidate</property>
    <property name="seekable">1</property>
    <property name="aspect_ratio">1</property>
    <property name="creation_time">2020-04-12T15:55:36</property>
    <property name="shotcut:hash">e4c0c36f4b8e968ab780c99675fecd9b</property>
    <property name="ignore_points">0</property>
    <property name="shotcut:caption">Pierre_clarinette_totoro_recadre.mp4</property>
    <property name="shotcut:skipConvert">1</property>
    <property name="global_feed">1</property>
    <property name="xml">was here</property>
    <filter id="filter308" out="00:00:31.200000" in="00:00:30.000000">
      <property name="background">colour:0</property>
      <property name="mlt_service">affine</property>
      <property name="shotcut:filter">affineSizePosition</property>
      <property name="transition.fill">1</property>
      <property name="transition.distort">0</property>
      <property name="transition.rect">00:00:00.000000=1680.0 0.0 242.0 136.0 1;00:00:01.200000=1920.0 0.0 241.0 136.0 1</property>
      <property name="transition.valign">top</property>
      <property name="transition.halign">left</property>
      <property name="shotcut:animIn">00:00:01.240000</property>
      <property name="shotcut:animOut">00:00:00.000</property>
      <property name="transition.threads">0</property>
    </filter>
  </producer>
  <producer id="producer170" title="Anonymous Submission" in="00:00:00.000" out="00:03:22.120">
    <property name="length">00:03:22:04</property>
    <property name="eof">pause</property>
    <property name="resource">../../006 - Videos format youtube/Clarinettes/Pierre_clarinette_totoro_recadre.mp4</property>
    <property name="audio_index">1</property>
    <property name="video_index">0</property>
    <property name="mute_on_pause">0</property>
    <property name="mlt_service">avformat-novalidate</property>
    <property name="seekable">1</property>
    <property name="aspect_ratio">1</property>
    <property name="creation_time">2020-04-12T15:55:36</property>
    <property name="shotcut:hash">e4c0c36f4b8e968ab780c99675fecd9b</property>
    <property name="ignore_points">0</property>
    <property name="shotcut:caption">Pierre_clarinette_totoro_recadre.mp4</property>
    <property name="shotcut:skipConvert">1</property>
    <property name="global_feed">1</property>
    <property name="xml">was here</property>
    <filter id="filter309" out="00:00:32.440000" in="00:00:31.240000">
      <property name="background">colour:0</property>
      <property name="mlt_service">affine</property>
      <property name="shotcut:filter">affineSizePosition</property>
      <property name="transition.fill">1</property>
      <property name="transition.distort">0</property>
      <property name="transition.rect">00:00:00.000000=1920.0 0.0 242.0 136.0 1;00:00:01.200000=2160.0 0.0 241.0 136.0 1</property>
      <property name="transition.valign">top</property>
      <property name="transition.halign">left</property>
      <property name="shotcut:animIn">00:00:01.240000</property>
      <property name="shotcut:animOut">00:00:00.000</property>
      <property name="transition.threads">0</property>
    </filter>
  </producer>
  <producer id="producer171" title="Anonymous Submission" in="00:00:00.000" out="00:03:22.120">
    <property name="length">00:03:22:04</property>
    <property name="eof">pause</property>
    <property name="resource">../../006 - Videos format youtube/Clarinettes/Pierre_clarinette_totoro_recadre.mp4</property>
    <property name="audio_index">1</property>
    <property name="video_index">0</property>
    <property name="mute_on_pause">0</property>
    <property name="mlt_service">avformat-novalidate</property>
    <property name="seekable">1</property>
    <property name="aspect_ratio">1</property>
    <property name="creation_time">2020-04-12T15:55:36</property>
    <property name="shotcut:hash">e4c0c36f4b8e968ab780c99675fecd9b</property>
    <property name="ignore_points">0</property>
    <property name="shotcut:caption">Pierre_clarinette_totoro_recadre.mp4</property>
    <property name="shotcut:skipConvert">1</property>
    <property name="global_feed">1</property>
    <property name="xml">was here</property>
    <filter id="filter310" out="00:00:33.680000" in="00:00:32.480000">
      <property name="background">colour:0</property>
      <property name="mlt_service">affine</property>
      <property name="shotcut:filter">affineSizePosition</property>
      <property name="transition.fill">1</property>
      <property name="transition.distort">0</property>
      <property name="transition.rect">00:00:00.000000=2160.0 0.0 242.0 136.0 1;00:00:01.200000=2400.0 0.0 241.0 136.0 1</property>
      <property name="transition.valign">top</property>
      <property name="transition.halign">left</property>
      <property name="shotcut:animIn">00:00:01.240000</property>
      <property name="shotcut:animOut">00:00:00.000</property>
      <property name="transition.threads">0</property>
    </filter>
  </producer>
  <producer id="producer172" title="Anonymous Submission" in="00:00:00.000" out="00:03:22.120">
    <property name="length">00:03:22:04</property>
    <property name="eof">pause</property>
    <property name="resource">../../006 - Videos format youtube/Clarinettes/Pierre_clarinette_totoro_recadre.mp4</property>
    <property name="audio_index">1</property>
    <property name="video_index">0</property>
    <property name="mute_on_pause">0</property>
    <property name="mlt_service">avformat-novalidate</property>
    <property name="seekable">1</property>
    <property name="aspect_ratio">1</property>
    <property name="creation_time">2020-04-12T15:55:36</property>
    <property name="shotcut:hash">e4c0c36f4b8e968ab780c99675fecd9b</property>
    <property name="ignore_points">0</property>
    <property name="shotcut:caption">Pierre_clarinette_totoro_recadre.mp4</property>
    <property name="shotcut:skipConvert">1</property>
    <property name="global_feed">1</property>
    <property name="xml">was here</property>
    <filter id="filter311" out="00:00:34.960000" in="00:00:33.720000">
      <property name="background">colour:0</property>
      <property name="mlt_service">affine</property>
      <property name="shotcut:filter">affineSizePosition</property>
      <property name="transition.fill">1</property>
      <property name="transition.distort">0</property>
      <property name="transition.rect">00:00:00.000000=0.0 0.0 242.0 136.0 1;00:00:01.200000=240.0 0.0 241.0 136.0 1</property>
      <property name="transition.valign">top</property>
      <property name="transition.halign">left</property>
      <property name="shotcut:animIn">00:00:01.240000</property>
      <property name="shotcut:animOut">00:00:00.000</property>
      <property name="transition.threads">0</property>
    </filter>
  </producer>
  <producer id="producer173" title="Anonymous Submission" in="00:00:00.000" out="00:03:22.120">
    <property name="length">00:03:22:04</property>
    <property name="eof">pause</property>
    <property name="resource">../../006 - Videos format youtube/Clarinettes/Pierre_clarinette_totoro_recadre.mp4</property>
    <property name="audio_index">1</property>
    <property name="video_index">0</property>
    <property name="mute_on_pause">0</property>
    <property name="mlt_service">avformat-novalidate</property>
    <property name="seekable">1</property>
    <property name="aspect_ratio">1</property>
    <property name="creation_time">2020-04-12T15:55:36</property>
    <property name="shotcut:hash">e4c0c36f4b8e968ab780c99675fecd9b</property>
    <property name="ignore_points">0</property>
    <property name="shotcut:caption">Pierre_clarinette_totoro_recadre.mp4</property>
    <property name="shotcut:skipConvert">1</property>
    <property name="global_feed">1</property>
    <property name="xml">was here</property>
    <filter id="filter312" out="00:00:36.200000" in="00:00:35.000000">
      <property name="background">colour:0</property>
      <property name="mlt_service">affine</property>
      <property name="shotcut:filter">affineSizePosition</property>
      <property name="transition.fill">1</property>
      <property name="transition.distort">0</property>
      <property name="transition.rect">00:00:00.000000=240.0 0.0 242.0 136.0 1;00:00:01.200000=480.0 0.0 241.0 136.0 1</property>
      <property name="transition.valign">top</property>
      <property name="transition.halign">left</property>
      <property name="shotcut:animIn">00:00:01.240000</property>
      <property name="shotcut:animOut">00:00:00.000</property>
      <property name="transition.threads">0</property>
    </filter>
  </producer>
  <producer id="producer174" title="Anonymous Submission" in="00:00:00.000" out="00:03:22.120">
    <property name="length">00:03:22:04</property>
    <property name="eof">pause</property>
    <property name="resource">../../006 - Videos format youtube/Clarinettes/Pierre_clarinette_totoro_recadre.mp4</property>
    <property name="audio_index">1</property>
    <property name="video_index">0</property>
    <property name="mute_on_pause">0</property>
    <property name="mlt_service">avformat-novalidate</property>
    <property name="seekable">1</property>
    <property name="aspect_ratio">1</property>
    <property name="creation_time">2020-04-12T15:55:36</property>
    <property name="shotcut:hash">e4c0c36f4b8e968ab780c99675fecd9b</property>
    <property name="ignore_points">0</property>
    <property name="shotcut:caption">Pierre_clarinette_totoro_recadre.mp4</property>
    <property name="shotcut:skipConvert">1</property>
    <property name="global_feed">1</property>
    <property name="xml">was here</property>
    <filter id="filter313" out="00:00:37.440000" in="00:00:36.240000">
      <property name="background">colour:0</property>
      <property name="mlt_service">affine</property>
      <property name="shotcut:filter">affineSizePosition</property>
      <property name="transition.fill">1</property>
      <property name="transition.distort">0</property>
      <property name="transition.rect">00:00:00.000000=480.0 0.0 242.0 136.0 1;00:00:01.200000=720.0 0.0 241.0 136.0 1</property>
      <property name="transition.valign">top</property>
      <property name="transition.halign">left</property>
      <property name="shotcut:animIn">00:00:01.240000</property>
      <property name="shotcut:animOut">00:00:00.000</property>
      <property name="transition.threads">0</property>
    </filter>
  </producer>
  <producer id="producer175" title="Anonymous Submission" in="00:00:00.000" out="00:03:22.120">
    <property name="length">00:03:22:04</property>
    <property name="eof">pause</property>
    <property name="resource">../../006 - Videos format youtube/Clarinettes/Pierre_clarinette_totoro_recadre.mp4</property>
    <property name="audio_index">1</property>
    <property name="video_index">0</property>
    <property name="mute_on_pause">0</property>
    <property name="mlt_service">avformat-novalidate</property>
    <property name="seekable">1</property>
    <property name="aspect_ratio">1</property>
    <property name="creation_time">2020-04-12T15:55:36</property>
    <property name="shotcut:hash">e4c0c36f4b8e968ab780c99675fecd9b</property>
    <property name="ignore_points">0</property>
    <property name="shotcut:caption">Pierre_clarinette_totoro_recadre.mp4</property>
    <property name="shotcut:skipConvert">1</property>
    <property name="global_feed">1</property>
    <property name="xml">was here</property>
    <filter id="filter314" out="00:00:38.680000" in="00:00:37.480000">
      <property name="background">colour:0</property>
      <property name="mlt_service">affine</property>
      <property name="shotcut:filter">affineSizePosition</property>
      <property name="transition.fill">1</property>
      <property name="transition.distort">0</property>
      <property name="transition.rect">00:00:00.000000=720.0 0.0 242.0 136.0 1;00:00:01.200000=960.0 0.0 241.0 136.0 1</property>
      <property name="transition.valign">top</property>
      <property name="transition.halign">left</property>
      <property name="shotcut:animIn">00:00:01.240000</property>
      <property name="shotcut:animOut">00:00:00.000</property>
      <property name="transition.threads">0</property>
    </filter>
  </producer>
  <producer id="producer176" title="Anonymous Submission" in="00:00:00.000" out="00:03:22.120">
    <property name="length">00:03:22:04</property>
    <property name="eof">pause</property>
    <property name="resource">../../006 - Videos format youtube/Clarinettes/Pierre_clarinette_totoro_recadre.mp4</property>
    <property name="audio_index">1</property>
    <property name="video_index">0</property>
    <property name="mute_on_pause">0</property>
    <property name="mlt_service">avformat-novalidate</property>
    <property name="seekable">1</property>
    <property name="aspect_ratio">1</property>
    <property name="creation_time">2020-04-12T15:55:36</property>
    <property name="shotcut:hash">e4c0c36f4b8e968ab780c99675fecd9b</property>
    <property name="ignore_points">0</property>
    <property name="shotcut:caption">Pierre_clarinette_totoro_recadre.mp4</property>
    <property name="shotcut:skipConvert">1</property>
    <property name="global_feed">1</property>
    <property name="xml">was here</property>
    <filter id="filter315" out="00:00:39.960000" in="00:00:38.720000">
      <property name="background">colour:0</property>
      <property name="mlt_service">affine</property>
      <property name="shotcut:filter">affineSizePosition</property>
      <property name="transition.fill">1</property>
      <property name="transition.distort">0</property>
      <property name="transition.rect">00:00:00.000000=960.0 0.0 242.0 136.0 1;00:00:01.200000=1200.0 0.0 241.0 136.0 1</property>
      <property name="transition.valign">top</property>
      <property name="transition.halign">left</property>
      <property name="shotcut:animIn">00:00:01.240000</property>
      <property name="shotcut:animOut">00:00:00.000</property>
      <property name="transition.threads">0</property>
    </filter>
  </producer>
  <producer id="producer177" title="Anonymous Submission" in="00:00:00.000" out="00:03:22.120">
    <property name="length">00:03:22:04</property>
    <property name="eof">pause</property>
    <property name="resource">../../006 - Videos format youtube/Clarinettes/Pierre_clarinette_totoro_recadre.mp4</property>
    <property name="audio_index">1</property>
    <property name="video_index">0</property>
    <property name="mute_on_pause">0</property>
    <property name="mlt_service">avformat-novalidate</property>
    <property name="seekable">1</property>
    <property name="aspect_ratio">1</property>
    <property name="creation_time">2020-04-12T15:55:36</property>
    <property name="shotcut:hash">e4c0c36f4b8e968ab780c99675fecd9b</property>
    <property name="ignore_points">0</property>
    <property name="shotcut:caption">Pierre_clarinette_totoro_recadre.mp4</property>
    <property name="shotcut:skipConvert">1</property>
    <property name="global_feed">1</property>
    <property name="xml">was here</property>
    <filter id="filter316" out="00:00:41.200000" in="00:00:40.000000">
      <property name="background">colour:0</property>
      <property name="mlt_service">affine</property>
      <property name="shotcut:filter">affineSizePosition</property>
      <property name="transition.fill">1</property>
      <property name="transition.distort">0</property>
      <property name="transition.rect">00:00:00.000000=1200.0 0.0 242.0 136.0 1;00:00:01.200000=1440.0 0.0 241.0 136.0 1</property>
      <property name="transition.valign">top</property>
      <property name="transition.halign">left</property>
      <property name="shotcut:animIn">00:00:01.240000</property>
      <property name="shotcut:animOut">00:00:00.000</property>
      <property name="transition.threads">0</property>
    </filter>
  </producer>
  <producer id="producer178" title="Anonymous Submission" in="00:00:00.000" out="00:03:22.120">
    <property name="length">00:03:22:04</property>
    <property name="eof">pause</property>
    <property name="resource">../../006 - Videos format youtube/Clarinettes/Pierre_clarinette_totoro_recadre.mp4</property>
    <property name="audio_index">1</property>
    <property name="video_index">0</property>
    <property name="mute_on_pause">0</property>
    <property name="mlt_service">avformat-novalidate</property>
    <property name="seekable">1</property>
    <property name="aspect_ratio">1</property>
    <property name="creation_time">2020-04-12T15:55:36</property>
    <property name="shotcut:hash">e4c0c36f4b8e968ab780c99675fecd9b</property>
    <property name="ignore_points">0</property>
    <property name="shotcut:caption">Pierre_clarinette_totoro_recadre.mp4</property>
    <property name="shotcut:skipConvert">1</property>
    <property name="global_feed">1</property>
    <property name="xml">was here</property>
    <filter id="filter317" out="00:00:42.440000" in="00:00:41.240000">
      <property name="background">colour:0</property>
      <property name="mlt_service">affine</property>
      <property name="shotcut:filter">affineSizePosition</property>
      <property name="transition.fill">1</property>
      <property name="transition.distort">0</property>
      <property name="transition.rect">00:00:00.000000=1440.0 0.0 242.0 136.0 1;00:00:01.200000=1680.0 0.0 241.0 136.0 1</property>
      <property name="transition.valign">top</property>
      <property name="transition.halign">left</property>
      <property name="shotcut:animIn">00:00:01.240000</property>
      <property name="shotcut:animOut">00:00:00.000</property>
      <property name="transition.threads">0</property>
    </filter>
  </producer>
  <producer id="producer179" title="Anonymous Submission" in="00:00:00.000" out="00:03:22.120">
    <property name="length">00:03:22:04</property>
    <property name="eof">pause</property>
    <property name="resource">../../006 - Videos format youtube/Clarinettes/Pierre_clarinette_totoro_recadre.mp4</property>
    <property name="audio_index">1</property>
    <property name="video_index">0</property>
    <property name="mute_on_pause">0</property>
    <property name="mlt_service">avformat-novalidate</property>
    <property name="seekable">1</property>
    <property name="aspect_ratio">1</property>
    <property name="creation_time">2020-04-12T15:55:36</property>
    <property name="shotcut:hash">e4c0c36f4b8e968ab780c99675fecd9b</property>
    <property name="ignore_points">0</property>
    <property name="shotcut:caption">Pierre_clarinette_totoro_recadre.mp4</property>
    <property name="shotcut:skipConvert">1</property>
    <property name="global_feed">1</property>
    <property name="xml">was here</property>
    <filter id="filter318" out="00:00:43.680000" in="00:00:42.480000">
      <property name="background">colour:0</property>
      <property name="mlt_service">affine</property>
      <property name="shotcut:filter">affineSizePosition</property>
      <property name="transition.fill">1</property>
      <property name="transition.distort">0</property>
      <property name="transition.rect">00:00:00.000000=1680.0 0.0 242.0 136.0 1;00:00:01.200000=1920.0 0.0 241.0 136.0 1</property>
      <property name="transition.valign">top</property>
      <property name="transition.halign">left</property>
      <property name="shotcut:animIn">00:00:01.240000</property>
      <property name="shotcut:animOut">00:00:00.000</property>
      <property name="transition.threads">0</property>
    </filter>
  </producer>
  <producer id="producer180" title="Anonymous Submission" in="00:00:00.000" out="00:03:22.120">
    <property name="length">00:03:22:04</property>
    <property name="eof">pause</property>
    <property name="resource">../../006 - Videos format youtube/Clarinettes/Pierre_clarinette_totoro_recadre.mp4</property>
    <property name="audio_index">1</property>
    <property name="video_index">0</property>
    <property name="mute_on_pause">0</property>
    <property name="mlt_service">avformat-novalidate</property>
    <property name="seekable">1</property>
    <property name="aspect_ratio">1</property>
    <property name="creation_time">2020-04-12T15:55:36</property>
    <property name="shotcut:hash">e4c0c36f4b8e968ab780c99675fecd9b</property>
    <property name="ignore_points">0</property>
    <property name="shotcut:caption">Pierre_clarinette_totoro_recadre.mp4</property>
    <property name="shotcut:skipConvert">1</property>
    <property name="global_feed">1</property>
    <property name="xml">was here</property>
    <filter id="filter319" out="00:00:44.960000" in="00:00:43.720000">
      <property name="background">colour:0</property>
      <property name="mlt_service">affine</property>
      <property name="shotcut:filter">affineSizePosition</property>
      <property name="transition.fill">1</property>
      <property name="transition.distort">0</property>
      <property name="transition.rect">00:00:00.000000=1920.0 0.0 242.0 136.0 1;00:00:01.200000=2160.0 0.0 241.0 136.0 1</property>
      <property name="transition.valign">top</property>
      <property name="transition.halign">left</property>
      <property name="shotcut:animIn">00:00:01.240000</property>
      <property name="shotcut:animOut">00:00:00.000</property>
      <property name="transition.threads">0</property>
    </filter>
  </producer>
  <producer id="producer181" title="Anonymous Submission" in="00:00:00.000" out="00:03:22.120">
    <property name="length">00:03:22:04</property>
    <property name="eof">pause</property>
    <property name="resource">../../006 - Videos format youtube/Clarinettes/Pierre_clarinette_totoro_recadre.mp4</property>
    <property name="audio_index">1</property>
    <property name="video_index">0</property>
    <property name="mute_on_pause">0</property>
    <property name="mlt_service">avformat-novalidate</property>
    <property name="seekable">1</property>
    <property name="aspect_ratio">1</property>
    <property name="creation_time">2020-04-12T15:55:36</property>
    <property name="shotcut:hash">e4c0c36f4b8e968ab780c99675fecd9b</property>
    <property name="ignore_points">0</property>
    <property name="shotcut:caption">Pierre_clarinette_totoro_recadre.mp4</property>
    <property name="shotcut:skipConvert">1</property>
    <property name="global_feed">1</property>
    <property name="xml">was here</property>
    <filter id="filter320" out="00:00:46.200000" in="00:00:45.000000">
      <property name="background">colour:0</property>
      <property name="mlt_service">affine</property>
      <property name="shotcut:filter">affineSizePosition</property>
      <property name="transition.fill">1</property>
      <property name="transition.distort">0</property>
      <property name="transition.rect">00:00:00.000000=2160.0 0.0 242.0 136.0 1;00:00:01.200000=2400.0 0.0 241.0 136.0 1</property>
      <property name="transition.valign">top</property>
      <property name="transition.halign">left</property>
      <property name="shotcut:animIn">00:00:01.240000</property>
      <property name="shotcut:animOut">00:00:00.000</property>
      <property name="transition.threads">0</property>
    </filter>
  </producer>
  <producer id="producer182" title="Anonymous Submission" in="00:00:00.000" out="00:03:22.120">
    <property name="length">00:03:22:04</property>
    <property name="eof">pause</property>
    <property name="resource">../../006 - Videos format youtube/Clarinettes/Pierre_clarinette_totoro_recadre.mp4</property>
    <property name="audio_index">1</property>
    <property name="video_index">0</property>
    <property name="mute_on_pause">0</property>
    <property name="mlt_service">avformat-novalidate</property>
    <property name="seekable">1</property>
    <property name="aspect_ratio">1</property>
    <property name="creation_time">2020-04-12T15:55:36</property>
    <property name="shotcut:hash">e4c0c36f4b8e968ab780c99675fecd9b</property>
    <property name="ignore_points">0</property>
    <property name="shotcut:caption">Pierre_clarinette_totoro_recadre.mp4</property>
    <property name="shotcut:skipConvert">1</property>
    <property name="global_feed">1</property>
    <property name="xml">was here</property>
    <filter id="filter321" out="00:00:47.440000" in="00:00:46.240000">
      <property name="background">colour:0</property>
      <property name="mlt_service">affine</property>
      <property name="shotcut:filter">affineSizePosition</property>
      <property name="transition.fill">1</property>
      <property name="transition.distort">0</property>
      <property name="transition.rect">00:00:00.000000=0.0 0.0 242.0 136.0 1;00:00:01.200000=240.0 0.0 241.0 136.0 1</property>
      <property name="transition.valign">top</property>
      <property name="transition.halign">left</property>
      <property name="shotcut:animIn">00:00:01.240000</property>
      <property name="shotcut:animOut">00:00:00.000</property>
      <property name="transition.threads">0</property>
    </filter>
  </producer>
  <producer id="producer183" title="Anonymous Submission" in="00:00:00.000" out="00:03:22.120">
    <property name="length">00:03:22:04</property>
    <property name="eof">pause</property>
    <property name="resource">../../006 - Videos format youtube/Clarinettes/Pierre_clarinette_totoro_recadre.mp4</property>
    <property name="audio_index">1</property>
    <property name="video_index">0</property>
    <property name="mute_on_pause">0</property>
    <property name="mlt_service">avformat-novalidate</property>
    <property name="seekable">1</property>
    <property name="aspect_ratio">1</property>
    <property name="creation_time">2020-04-12T15:55:36</property>
    <property name="shotcut:hash">e4c0c36f4b8e968ab780c99675fecd9b</property>
    <property name="ignore_points">0</property>
    <property name="shotcut:caption">Pierre_clarinette_totoro_recadre.mp4</property>
    <property name="shotcut:skipConvert">1</property>
    <property name="global_feed">1</property>
    <property name="xml">was here</property>
    <filter id="filter322" out="00:00:48.680000" in="00:00:47.480000">
      <property name="background">colour:0</property>
      <property name="mlt_service">affine</property>
      <property name="shotcut:filter">affineSizePosition</property>
      <property name="transition.fill">1</property>
      <property name="transition.distort">0</property>
      <property name="transition.rect">00:00:00.000000=240.0 0.0 242.0 136.0 1;00:00:01.200000=480.0 0.0 241.0 136.0 1</property>
      <property name="transition.valign">top</property>
      <property name="transition.halign">left</property>
      <property name="shotcut:animIn">00:00:01.240000</property>
      <property name="shotcut:animOut">00:00:00.000</property>
      <property name="transition.threads">0</property>
    </filter>
  </producer>
  <producer id="producer184" title="Anonymous Submission" in="00:00:00.000" out="00:03:22.120">
    <property name="length">00:03:22:04</property>
    <property name="eof">pause</property>
    <property name="resource">../../006 - Videos format youtube/Clarinettes/Pierre_clarinette_totoro_recadre.mp4</property>
    <property name="audio_index">1</property>
    <property name="video_index">0</property>
    <property name="mute_on_pause">0</property>
    <property name="mlt_service">avformat-novalidate</property>
    <property name="seekable">1</property>
    <property name="aspect_ratio">1</property>
    <property name="creation_time">2020-04-12T15:55:36</property>
    <property name="shotcut:hash">e4c0c36f4b8e968ab780c99675fecd9b</property>
    <property name="ignore_points">0</property>
    <property name="shotcut:caption">Pierre_clarinette_totoro_recadre.mp4</property>
    <property name="shotcut:skipConvert">1</property>
    <property name="global_feed">1</property>
    <property name="xml">was here</property>
    <filter id="filter323" out="00:01:03.960000" in="00:00:48.720000">
      <property name="background">colour:0</property>
      <property name="mlt_service">affine</property>
      <property name="shotcut:filter">affineSizePosition</property>
      <property name="transition.fill">1</property>
      <property name="transition.distort">0</property>
      <property name="transition.rect">00:00:00.000000=480.0 0.0 242.0 136.0 1;00:00:01.200000=720.0 0.0 241.0 136.0 1</property>
      <property name="transition.valign">top</property>
      <property name="transition.halign">left</property>
      <property name="shotcut:animIn">00:00:01.240000</property>
      <property name="shotcut:animOut">00:00:00.000</property>
      <property name="transition.threads">0</property>
    </filter>
  </producer>
  <producer id="producer185" title="Anonymous Submission" in="00:00:00.000" out="00:03:22.120">
    <property name="length">00:03:22:04</property>
    <property name="eof">pause</property>
    <property name="resource">../../006 - Videos format youtube/Clarinettes/Pierre_clarinette_totoro_recadre.mp4</property>
    <property name="audio_index">1</property>
    <property name="video_index">0</property>
    <property name="mute_on_pause">0</property>
    <property name="mlt_service">avformat-novalidate</property>
    <property name="seekable">1</property>
    <property name="aspect_ratio">1</property>
    <property name="creation_time">2020-04-12T15:55:36</property>
    <property name="shotcut:hash">e4c0c36f4b8e968ab780c99675fecd9b</property>
    <property name="ignore_points">0</property>
    <property name="shotcut:caption">Pierre_clarinette_totoro_recadre.mp4</property>
    <property name="shotcut:skipConvert">1</property>
    <property name="global_feed">1</property>
    <property name="xml">was here</property>
    <filter id="filter324" out="00:01:19.960000" in="00:01:04.000000">
      <property name="background">colour:0</property>
      <property name="mlt_service">affine</property>
      <property name="shotcut:filter">affineSizePosition</property>
      <property name="transition.fill">1</property>
      <property name="transition.distort">0</property>
      <property name="transition.rect">-822.0 -462.0 275.0 155.0 1</property>
      <property name="transition.valign">top</property>
      <property name="transition.halign">left</property>
      <property name="shotcut:animIn">00:00:01.240000</property>
      <property name="shotcut:animOut">00:00:00.000</property>
      <property name="transition.threads">0</property>
    </filter>
  </producer>
  <producer id="producer186" title="Anonymous Submission" in="00:00:00.000" out="00:03:22.120">
    <property name="length">00:03:22:04</property>
    <property name="eof">pause</property>
    <property name="resource">../../006 - Videos format youtube/Clarinettes/Pierre_clarinette_totoro_recadre.mp4</property>
    <property name="audio_index">1</property>
    <property name="video_index">0</property>
    <property name="mute_on_pause">0</property>
    <property name="mlt_service">avformat-novalidate</property>
    <property name="seekable">1</property>
    <property name="aspect_ratio">1</property>
    <property name="creation_time">2020-04-12T15:55:36</property>
    <property name="shotcut:hash">e4c0c36f4b8e968ab780c99675fecd9b</property>
    <property name="ignore_points">0</property>
    <property name="shotcut:caption">Pierre_clarinette_totoro_recadre.mp4</property>
    <property name="shotcut:skipConvert">1</property>
    <property name="global_feed">1</property>
    <property name="xml">was here</property>
    <filter id="filter325" out="00:01:26.960000" in="00:01:20.000000">
      <property name="background">colour:0</property>
      <property name="mlt_service">affine</property>
      <property name="shotcut:filter">affineSizePosition</property>
      <property name="transition.fill">1</property>
      <property name="transition.distort">0</property>
      <property name="transition.rect">0.0 720.0 321.0 181.0 1</property>
      <property name="transition.valign">top</property>
      <property name="transition.halign">left</property>
      <property name="shotcut:animIn">00:00:01.240000</property>
      <property name="shotcut:animOut">00:00:00.000</property>
      <property name="transition.threads">0</property>
    </filter>
  </producer>
  <producer id="producer187" title="Anonymous Submission" in="00:00:00.000" out="00:03:22.120">
    <property name="length">00:03:22:04</property>
    <property name="eof">pause</property>
    <property name="resource">../../006 - Videos format youtube/Clarinettes/Pierre_clarinette_totoro_recadre.mp4</property>
    <property name="audio_index">1</property>
    <property name="video_index">0</property>
    <property name="mute_on_pause">0</property>
    <property name="mlt_service">avformat-novalidate</property>
    <property name="seekable">1</property>
    <property name="aspect_ratio">1</property>
    <property name="creation_time">2020-04-12T15:55:36</property>
    <property name="shotcut:hash">e4c0c36f4b8e968ab780c99675fecd9b</property>
    <property name="ignore_points">0</property>
    <property name="shotcut:caption">Pierre_clarinette_totoro_recadre.mp4</property>
    <property name="shotcut:skipConvert">1</property>
    <property name="global_feed">1</property>
    <property name="xml">was here</property>
    <filter id="filter326" out="00:01:34.960000" in="00:01:27.000000">
      <property name="background">colour:0</property>
      <property name="mlt_service">affine</property>
      <property name="shotcut:filter">affineSizePosition</property>
      <property name="transition.fill">1</property>
      <property name="transition.distort">0</property>
      <property name="transition.rect">0.0 -1080.0 321.0 181.0 1</property>
      <property name="transition.valign">top</property>
      <property name="transition.halign">left</property>
      <property name="shotcut:animIn">00:00:01.240000</property>
      <property name="shotcut:animOut">00:00:00.000</property>
      <property name="transition.threads">0</property>
    </filter>
  </producer>
  <producer id="producer188" title="Anonymous Submission" in="00:00:00.000" out="00:03:22.120">
    <property name="length">00:03:22:04</property>
    <property name="eof">pause</property>
    <property name="resource">../../006 - Videos format youtube/Clarinettes/Pierre_clarinette_totoro_recadre.mp4</property>
    <property name="audio_index">1</property>
    <property name="video_index">0</property>
    <property name="mute_on_pause">0</property>
    <property name="mlt_service">avformat-novalidate</property>
    <property name="seekable">1</property>
    <property name="aspect_ratio">1</property>
    <property name="creation_time">2020-04-12T15:55:36</property>
    <property name="shotcut:hash">e4c0c36f4b8e968ab780c99675fecd9b</property>
    <property name="ignore_points">0</property>
    <property name="shotcut:caption">Pierre_clarinette_totoro_recadre.mp4</property>
    <property name="shotcut:skipConvert">1</property>
    <property name="global_feed">1</property>
    <property name="xml">was here</property>
    <filter id="filter327" out="00:01:43.960000" in="00:01:35.000000">
      <property name="background">colour:0</property>
      <property name="mlt_service">affine</property>
      <property name="shotcut:filter">affineSizePosition</property>
      <property name="transition.fill">1</property>
      <property name="transition.distort">0</property>
      <property name="transition.rect">-548.0 -308.0 275.0 155.0 1</property>
      <property name="transition.valign">top</property>
      <property name="transition.halign">left</property>
      <property name="shotcut:animIn">00:00:01.240000</property>
      <property name="shotcut:animOut">00:00:00.000</property>
      <property name="transition.threads">0</property>
    </filter>
  </producer>
  <producer id="producer189" title="Anonymous Submission" in="00:00:00.000" out="00:03:22.120">
    <property name="length">00:03:22:04</property>
    <property name="eof">pause</property>
    <property name="resource">../../006 - Videos format youtube/Clarinettes/Pierre_clarinette_totoro_recadre.mp4</property>
    <property name="audio_index">1</property>
    <property name="video_index">0</property>
    <property name="mute_on_pause">0</property>
    <property name="mlt_service">avformat-novalidate</property>
    <property name="seekable">1</property>
    <property name="aspect_ratio">1</property>
    <property name="creation_time">2020-04-12T15:55:36</property>
    <property name="shotcut:hash">e4c0c36f4b8e968ab780c99675fecd9b</property>
    <property name="ignore_points">0</property>
    <property name="shotcut:caption">Pierre_clarinette_totoro_recadre.mp4</property>
    <property name="shotcut:skipConvert">1</property>
    <property name="global_feed">1</property>
    <property name="xml">was here</property>
    <filter id="filter328" out="00:01:50.960000" in="00:01:44.000000">
      <property name="background">colour:0</property>
      <property name="mlt_service">affine</property>
      <property name="shotcut:filter">affineSizePosition</property>
      <property name="transition.fill">1</property>
      <property name="transition.distort">0</property>
      <property name="transition.rect">548.0 617.0 823.0 463.0 1</property>
      <property name="transition.valign">top</property>
      <property name="transition.halign">left</property>
      <property name="shotcut:animIn">00:00:01.240000</property>
      <property name="shotcut:animOut">00:00:00.000</property>
      <property name="transition.threads">0</property>
    </filter>
  </producer>
  <producer id="producer190" title="Anonymous Submission" in="00:00:00.000" out="00:03:22.120">
    <property name="length">00:03:22:04</property>
    <property name="eof">pause</property>
    <property name="resource">../../006 - Videos format youtube/Clarinettes/Pierre_clarinette_totoro_recadre.mp4</property>
    <property name="audio_index">1</property>
    <property name="video_index">0</property>
    <property name="mute_on_pause">0</property>
    <property name="mlt_service">avformat-novalidate</property>
    <property name="seekable">1</property>
    <property name="aspect_ratio">1</property>
    <property name="creation_time">2020-04-12T15:55:36</property>
    <property name="shotcut:hash">e4c0c36f4b8e968ab780c99675fecd9b</property>
    <property name="ignore_points">0</property>
    <property name="shotcut:caption">Pierre_clarinette_totoro_recadre.mp4</property>
    <property name="shotcut:skipConvert">1</property>
    <property name="global_feed">1</property>
    <property name="xml">was here</property>
    <filter id="filter329" out="00:03:22.120000" in="00:01:51.000000">
      <property name="background">colour:0</property>
      <property name="mlt_service">affine</property>
      <property name="shotcut:filter">affineSizePosition</property>
      <property name="transition.fill">1</property>
      <property name="transition.distort">0</property>
      <property name="transition.rect">-640.0 -360.0 321.0 181.0 1</property>
      <property name="transition.valign">top</property>
      <property name="transition.halign">left</property>
      <property name="shotcut:animIn">00:00:01.240000</property>
      <property name="shotcut:animOut">00:00:00.000</property>
      <property name="transition.threads">0</property>
    </filter>
  </producer>
  <playlist id="playlist12">
    <property name="shotcut:video">1</property>
    <property name="shotcut:name">Pierre_clarinette_recadr&#233;</property>
    <property name="shotcut:lock">1</property>
    <entry producer="producer167" in="00:00:00.000" out="00:00:22.960000" />
    <entry producer="producer168" in="00:00:23.000000" out="00:00:29.960000" />
    <entry producer="producer169" in="00:00:30.000000" out="00:00:31.200000" />
    <entry producer="producer170" in="00:00:31.240000" out="00:00:32.440000" />
    <entry producer="producer171" in="00:00:32.480000" out="00:00:33.680000" />
    <entry producer="producer172" in="00:00:33.720000" out="00:00:34.960000" />
    <entry producer="producer173" in="00:00:35.000000" out="00:00:36.200000" />
    <entry producer="producer174" in="00:00:36.240000" out="00:00:37.440000" />
    <entry producer="producer175" in="00:00:37.480000" out="00:00:38.680000" />
    <entry producer="producer176" in="00:00:38.720000" out="00:00:39.960000" />
    <entry producer="producer177" in="00:00:40.000000" out="00:00:41.200000" />
    <entry producer="producer178" in="00:00:41.240000" out="00:00:42.440000" />
    <entry producer="producer179" in="00:00:42.480000" out="00:00:43.680000" />
    <entry producer="producer180" in="00:00:43.720000" out="00:00:44.960000" />
    <entry producer="producer181" in="00:00:45.000000" out="00:00:46.200000" />
    <entry producer="producer182" in="00:00:46.240000" out="00:00:47.440000" />
    <entry producer="producer183" in="00:00:47.480000" out="00:00:48.680000" />
    <entry producer="producer184" in="00:00:48.720000" out="00:01:03.960000" />
    <entry producer="producer185" in="00:01:04.000000" out="00:01:19.960000" />
    <entry producer="producer186" in="00:01:20.000000" out="00:01:26.960000" />
    <entry producer="producer187" in="00:01:27.000000" out="00:01:34.960000" />
    <entry producer="producer188" in="00:01:35.000000" out="00:01:43.960000" />
    <entry producer="producer189" in="00:01:44.000000" out="00:01:50.960000" />
    <entry producer="producer190" in="00:01:51.000000" out="00:03:22.120000" />
    <filter id="filter330" out="00:03:23.320">
      <property name="window">75</property>
      <property name="max_gain">20dB</property>
      <property name="level">-10</property>
      <property name="mlt_service">volume</property>
    </filter>
  </playlist>
  <producer id="producer191" title="Anonymous Submission" in="00:00:00.000" out="00:03:17.240">
    <property name="length">00:03:17:07</property>
    <property name="eof">pause</property>
    <property name="resource">../../006 - Videos format youtube/Clarinettes/Ineke_clarinette_totoro.mp4</property>
    <property name="audio_index">1</property>
    <property name="video_index">0</property>
    <property name="mute_on_pause">0</property>
    <property name="mlt_service">avformat-novalidate</property>
    <property name="seekable">1</property>
    <property name="aspect_ratio">1</property>
    <property name="creation_time">2020-04-20T19:10:56</property>
    <property name="shotcut:hash">44edbdde4a7730436d308ed2f8de3797</property>
    <property name="ignore_points">0</property>
    <property name="shotcut:caption">Ineke_clarinette_totoro.mp4</property>
    <property name="shotcut:skipConvert">1</property>
    <property name="global_feed">1</property>
    <property name="xml">was here</property>
    <filter id="filter331" out="00:00:22.400000">
      <property name="background">colour:0</property>
      <property name="mlt_service">affine</property>
      <property name="shotcut:filter">affineSizePosition</property>
      <property name="transition.fill">1</property>
      <property name="transition.distort">0</property>
      <property name="transition.rect">1371.0 771.0 275.0 155.0 1</property>
      <property name="transition.valign">top</property>
      <property name="transition.halign">left</property>
      <property name="shotcut:animIn">00:00:00.000</property>
      <property name="shotcut:animOut">00:00:00.000</property>
      <property name="transition.threads">0</property>
    </filter>
    <filter id="filter332" out="00:00:22.400000">
      <property name="window">75</property>
      <property name="max_gain">20dB</property>
      <property name="mlt_service">volume</property>
      <property name="shotcut:filter">muteVolume</property>
      <property name="gain">0</property>
    </filter>
  </producer>
  <producer id="producer192" title="Anonymous Submission" in="00:00:00.000" out="00:03:17.240">
    <property name="length">00:03:17:07</property>
    <property name="eof">pause</property>
    <property name="resource">../../006 - Videos format youtube/Clarinettes/Ineke_clarinette_totoro.mp4</property>
    <property name="audio_index">1</property>
    <property name="video_index">0</property>
    <property name="mute_on_pause">0</property>
    <property name="mlt_service">avformat-novalidate</property>
    <property name="seekable">1</property>
    <property name="aspect_ratio">1</property>
    <property name="creation_time">2020-04-20T19:10:56</property>
    <property name="shotcut:hash">44edbdde4a7730436d308ed2f8de3797</property>
    <property name="ignore_points">0</property>
    <property name="shotcut:caption">Ineke_clarinette_totoro.mp4</property>
    <property name="shotcut:skipConvert">1</property>
    <property name="global_feed">1</property>
    <property name="xml">was here</property>
    <filter id="filter333" out="00:00:29.400000" in="00:00:22.440000">
      <property name="background">colour:0</property>
      <property name="mlt_service">affine</property>
      <property name="shotcut:filter">affineSizePosition</property>
      <property name="transition.fill">1</property>
      <property name="transition.distort">0</property>
      <property name="transition.rect">00:00:00.000000=1371.0 771.0 276.0 155.0 1;00:00:00.440000=274.0 462.0 275.0 155.0 1</property>
      <property name="transition.valign">top</property>
      <property name="transition.halign">left</property>
      <property name="shotcut:animIn">00:00:00.480000</property>
      <property name="shotcut:animOut">00:00:00.000</property>
      <property name="transition.threads">0</property>
    </filter>
    <filter id="filter334" out="00:00:29.400000" in="00:00:22.440000">
      <property name="window">75</property>
      <property name="max_gain">20dB</property>
      <property name="mlt_service">volume</property>
      <property name="shotcut:filter">muteVolume</property>
      <property name="gain">0</property>
    </filter>
  </producer>
  <producer id="producer193" title="Anonymous Submission" in="00:00:00.000" out="00:03:17.240">
    <property name="length">00:03:17:07</property>
    <property name="eof">pause</property>
    <property name="resource">../../006 - Videos format youtube/Clarinettes/Ineke_clarinette_totoro.mp4</property>
    <property name="audio_index">1</property>
    <property name="video_index">0</property>
    <property name="mute_on_pause">0</property>
    <property name="mlt_service">avformat-novalidate</property>
    <property name="seekable">1</property>
    <property name="aspect_ratio">1</property>
    <property name="creation_time">2020-04-20T19:10:56</property>
    <property name="shotcut:hash">44edbdde4a7730436d308ed2f8de3797</property>
    <property name="ignore_points">0</property>
    <property name="shotcut:caption">Ineke_clarinette_totoro.mp4</property>
    <property name="shotcut:skipConvert">1</property>
    <property name="global_feed">1</property>
    <property name="xml">was here</property>
    <filter id="filter335" out="00:00:30.640000" in="00:00:29.440000">
      <property name="background">colour:0</property>
      <property name="mlt_service">affine</property>
      <property name="shotcut:filter">affineSizePosition</property>
      <property name="transition.fill">1</property>
      <property name="transition.distort">0</property>
      <property name="transition.rect">00:00:00.000000=720.0 0.0 242.0 136.0 1;00:00:01.200000=960.0 0.0 241.0 136.0 1</property>
      <property name="transition.valign">top</property>
      <property name="transition.halign">left</property>
      <property name="shotcut:animIn">00:00:01.240000</property>
      <property name="shotcut:animOut">00:00:00.000</property>
      <property name="transition.threads">0</property>
    </filter>
    <filter id="filter336" out="00:00:30.640000" in="00:00:29.440000">
      <property name="window">75</property>
      <property name="max_gain">20dB</property>
      <property name="mlt_service">volume</property>
      <property name="shotcut:filter">muteVolume</property>
      <property name="gain">0</property>
    </filter>
  </producer>
  <producer id="producer194" title="Anonymous Submission" in="00:00:00.000" out="00:03:17.240">
    <property name="length">00:03:17:07</property>
    <property name="eof">pause</property>
    <property name="resource">../../006 - Videos format youtube/Clarinettes/Ineke_clarinette_totoro.mp4</property>
    <property name="audio_index">1</property>
    <property name="video_index">0</property>
    <property name="mute_on_pause">0</property>
    <property name="mlt_service">avformat-novalidate</property>
    <property name="seekable">1</property>
    <property name="aspect_ratio">1</property>
    <property name="creation_time">2020-04-20T19:10:56</property>
    <property name="shotcut:hash">44edbdde4a7730436d308ed2f8de3797</property>
    <property name="ignore_points">0</property>
    <property name="shotcut:caption">Ineke_clarinette_totoro.mp4</property>
    <property name="shotcut:skipConvert">1</property>
    <property name="global_feed">1</property>
    <property name="xml">was here</property>
    <filter id="filter337" out="00:00:31.880000" in="00:00:30.680000">
      <property name="background">colour:0</property>
      <property name="mlt_service">affine</property>
      <property name="shotcut:filter">affineSizePosition</property>
      <property name="transition.fill">1</property>
      <property name="transition.distort">0</property>
      <property name="transition.rect">00:00:00.000000=960.0 0.0 242.0 136.0 1;00:00:01.200000=1200.0 0.0 241.0 136.0 1</property>
      <property name="transition.valign">top</property>
      <property name="transition.halign">left</property>
      <property name="shotcut:animIn">00:00:01.240000</property>
      <property name="shotcut:animOut">00:00:00.000</property>
      <property name="transition.threads">0</property>
    </filter>
    <filter id="filter338" out="00:00:31.880000" in="00:00:30.680000">
      <property name="window">75</property>
      <property name="max_gain">20dB</property>
      <property name="mlt_service">volume</property>
      <property name="shotcut:filter">muteVolume</property>
      <property name="gain">0</property>
    </filter>
  </producer>
  <producer id="producer195" title="Anonymous Submission" in="00:00:00.000" out="00:03:17.240">
    <property name="length">00:03:17:07</property>
    <property name="eof">pause</property>
    <property name="resource">../../006 - Videos format youtube/Clarinettes/Ineke_clarinette_totoro.mp4</property>
    <property name="audio_index">1</property>
    <property name="video_index">0</property>
    <property name="mute_on_pause">0</property>
    <property name="mlt_service">avformat-novalidate</property>
    <property name="seekable">1</property>
    <property name="aspect_ratio">1</property>
    <property name="creation_time">2020-04-20T19:10:56</property>
    <property name="shotcut:hash">44edbdde4a7730436d308ed2f8de3797</property>
    <property name="ignore_points">0</property>
    <property name="shotcut:caption">Ineke_clarinette_totoro.mp4</property>
    <property name="shotcut:skipConvert">1</property>
    <property name="global_feed">1</property>
    <property name="xml">was here</property>
    <filter id="filter339" out="00:00:33.120000" in="00:00:31.920000">
      <property name="background">colour:0</property>
      <property name="mlt_service">affine</property>
      <property name="shotcut:filter">affineSizePosition</property>
      <property name="transition.fill">1</property>
      <property name="transition.distort">0</property>
      <property name="transition.rect">00:00:00.000000=1200.0 0.0 242.0 136.0 1;00:00:01.200000=1440.0 0.0 241.0 136.0 1</property>
      <property name="transition.valign">top</property>
      <property name="transition.halign">left</property>
      <property name="shotcut:animIn">00:00:01.240000</property>
      <property name="shotcut:animOut">00:00:00.000</property>
      <property name="transition.threads">0</property>
    </filter>
    <filter id="filter340" out="00:00:33.120000" in="00:00:31.920000">
      <property name="window">75</property>
      <property name="max_gain">20dB</property>
      <property name="mlt_service">volume</property>
      <property name="shotcut:filter">muteVolume</property>
      <property name="gain">0</property>
    </filter>
  </producer>
  <producer id="producer196" title="Anonymous Submission" in="00:00:00.000" out="00:03:17.240">
    <property name="length">00:03:17:07</property>
    <property name="eof">pause</property>
    <property name="resource">../../006 - Videos format youtube/Clarinettes/Ineke_clarinette_totoro.mp4</property>
    <property name="audio_index">1</property>
    <property name="video_index">0</property>
    <property name="mute_on_pause">0</property>
    <property name="mlt_service">avformat-novalidate</property>
    <property name="seekable">1</property>
    <property name="aspect_ratio">1</property>
    <property name="creation_time">2020-04-20T19:10:56</property>
    <property name="shotcut:hash">44edbdde4a7730436d308ed2f8de3797</property>
    <property name="ignore_points">0</property>
    <property name="shotcut:caption">Ineke_clarinette_totoro.mp4</property>
    <property name="shotcut:skipConvert">1</property>
    <property name="global_feed">1</property>
    <property name="xml">was here</property>
    <filter id="filter341" out="00:00:34.400000" in="00:00:33.160000">
      <property name="background">colour:0</property>
      <property name="mlt_service">affine</property>
      <property name="shotcut:filter">affineSizePosition</property>
      <property name="transition.fill">1</property>
      <property name="transition.distort">0</property>
      <property name="transition.rect">00:00:00.000000=1440.0 0.0 242.0 136.0 1;00:00:01.200000=1680.0 0.0 241.0 136.0 1</property>
      <property name="transition.valign">top</property>
      <property name="transition.halign">left</property>
      <property name="shotcut:animIn">00:00:01.240000</property>
      <property name="shotcut:animOut">00:00:00.000</property>
      <property name="transition.threads">0</property>
    </filter>
    <filter id="filter342" out="00:00:34.400000" in="00:00:33.160000">
      <property name="window">75</property>
      <property name="max_gain">20dB</property>
      <property name="mlt_service">volume</property>
      <property name="shotcut:filter">muteVolume</property>
      <property name="gain">0</property>
    </filter>
  </producer>
  <producer id="producer197" title="Anonymous Submission" in="00:00:00.000" out="00:03:17.240">
    <property name="length">00:03:17:07</property>
    <property name="eof">pause</property>
    <property name="resource">../../006 - Videos format youtube/Clarinettes/Ineke_clarinette_totoro.mp4</property>
    <property name="audio_index">1</property>
    <property name="video_index">0</property>
    <property name="mute_on_pause">0</property>
    <property name="mlt_service">avformat-novalidate</property>
    <property name="seekable">1</property>
    <property name="aspect_ratio">1</property>
    <property name="creation_time">2020-04-20T19:10:56</property>
    <property name="shotcut:hash">44edbdde4a7730436d308ed2f8de3797</property>
    <property name="ignore_points">0</property>
    <property name="shotcut:caption">Ineke_clarinette_totoro.mp4</property>
    <property name="shotcut:skipConvert">1</property>
    <property name="global_feed">1</property>
    <property name="xml">was here</property>
    <filter id="filter343" out="00:00:35.640000" in="00:00:34.440000">
      <property name="background">colour:0</property>
      <property name="mlt_service">affine</property>
      <property name="shotcut:filter">affineSizePosition</property>
      <property name="transition.fill">1</property>
      <property name="transition.distort">0</property>
      <property name="transition.rect">00:00:00.000000=1680.0 0.0 242.0 136.0 1;00:00:01.200000=1920.0 0.0 241.0 136.0 1</property>
      <property name="transition.valign">top</property>
      <property name="transition.halign">left</property>
      <property name="shotcut:animIn">00:00:01.240000</property>
      <property name="shotcut:animOut">00:00:00.000</property>
      <property name="transition.threads">0</property>
    </filter>
    <filter id="filter344" out="00:00:35.640000" in="00:00:34.440000">
      <property name="window">75</property>
      <property name="max_gain">20dB</property>
      <property name="mlt_service">volume</property>
      <property name="shotcut:filter">muteVolume</property>
      <property name="gain">0</property>
    </filter>
  </producer>
  <producer id="producer198" title="Anonymous Submission" in="00:00:00.000" out="00:03:17.240">
    <property name="length">00:03:17:07</property>
    <property name="eof">pause</property>
    <property name="resource">../../006 - Videos format youtube/Clarinettes/Ineke_clarinette_totoro.mp4</property>
    <property name="audio_index">1</property>
    <property name="video_index">0</property>
    <property name="mute_on_pause">0</property>
    <property name="mlt_service">avformat-novalidate</property>
    <property name="seekable">1</property>
    <property name="aspect_ratio">1</property>
    <property name="creation_time">2020-04-20T19:10:56</property>
    <property name="shotcut:hash">44edbdde4a7730436d308ed2f8de3797</property>
    <property name="ignore_points">0</property>
    <property name="shotcut:caption">Ineke_clarinette_totoro.mp4</property>
    <property name="shotcut:skipConvert">1</property>
    <property name="global_feed">1</property>
    <property name="xml">was here</property>
    <filter id="filter345" out="00:00:36.880000" in="00:00:35.680000">
      <property name="background">colour:0</property>
      <property name="mlt_service">affine</property>
      <property name="shotcut:filter">affineSizePosition</property>
      <property name="transition.fill">1</property>
      <property name="transition.distort">0</property>
      <property name="transition.rect">00:00:00.000000=1920.0 0.0 242.0 136.0 1;00:00:01.200000=2160.0 0.0 241.0 136.0 1</property>
      <property name="transition.valign">top</property>
      <property name="transition.halign">left</property>
      <property name="shotcut:animIn">00:00:01.240000</property>
      <property name="shotcut:animOut">00:00:00.000</property>
      <property name="transition.threads">0</property>
    </filter>
    <filter id="filter346" out="00:00:36.880000" in="00:00:35.680000">
      <property name="window">75</property>
      <property name="max_gain">20dB</property>
      <property name="mlt_service">volume</property>
      <property name="shotcut:filter">muteVolume</property>
      <property name="gain">0</property>
    </filter>
  </producer>
  <producer id="producer199" title="Anonymous Submission" in="00:00:00.000" out="00:03:17.240">
    <property name="length">00:03:17:07</property>
    <property name="eof">pause</property>
    <property name="resource">../../006 - Videos format youtube/Clarinettes/Ineke_clarinette_totoro.mp4</property>
    <property name="audio_index">1</property>
    <property name="video_index">0</property>
    <property name="mute_on_pause">0</property>
    <property name="mlt_service">avformat-novalidate</property>
    <property name="seekable">1</property>
    <property name="aspect_ratio">1</property>
    <property name="creation_time">2020-04-20T19:10:56</property>
    <property name="shotcut:hash">44edbdde4a7730436d308ed2f8de3797</property>
    <property name="ignore_points">0</property>
    <property name="shotcut:caption">Ineke_clarinette_totoro.mp4</property>
    <property name="shotcut:skipConvert">1</property>
    <property name="global_feed">1</property>
    <property name="xml">was here</property>
    <filter id="filter347" out="00:00:38.120000" in="00:00:36.920000">
      <property name="background">colour:0</property>
      <property name="mlt_service">affine</property>
      <property name="shotcut:filter">affineSizePosition</property>
      <property name="transition.fill">1</property>
      <property name="transition.distort">0</property>
      <property name="transition.rect">00:00:00.000000=2160.0 0.0 242.0 136.0 1;00:00:01.200000=2400.0 0.0 241.0 136.0 1</property>
      <property name="transition.valign">top</property>
      <property name="transition.halign">left</property>
      <property name="shotcut:animIn">00:00:01.240000</property>
      <property name="shotcut:animOut">00:00:00.000</property>
      <property name="transition.threads">0</property>
    </filter>
    <filter id="filter348" out="00:00:38.120000" in="00:00:36.920000">
      <property name="window">75</property>
      <property name="max_gain">20dB</property>
      <property name="mlt_service">volume</property>
      <property name="shotcut:filter">muteVolume</property>
      <property name="gain">0</property>
    </filter>
  </producer>
  <producer id="producer200" title="Anonymous Submission" in="00:00:00.000" out="00:03:17.240">
    <property name="length">00:03:17:07</property>
    <property name="eof">pause</property>
    <property name="resource">../../006 - Videos format youtube/Clarinettes/Ineke_clarinette_totoro.mp4</property>
    <property name="audio_index">1</property>
    <property name="video_index">0</property>
    <property name="mute_on_pause">0</property>
    <property name="mlt_service">avformat-novalidate</property>
    <property name="seekable">1</property>
    <property name="aspect_ratio">1</property>
    <property name="creation_time">2020-04-20T19:10:56</property>
    <property name="shotcut:hash">44edbdde4a7730436d308ed2f8de3797</property>
    <property name="ignore_points">0</property>
    <property name="shotcut:caption">Ineke_clarinette_totoro.mp4</property>
    <property name="shotcut:skipConvert">1</property>
    <property name="global_feed">1</property>
    <property name="xml">was here</property>
    <filter id="filter349" out="00:00:39.400000" in="00:00:38.160000">
      <property name="background">colour:0</property>
      <property name="mlt_service">affine</property>
      <property name="shotcut:filter">affineSizePosition</property>
      <property name="transition.fill">1</property>
      <property name="transition.distort">0</property>
      <property name="transition.rect">00:00:00.000000=0.0 0.0 242.0 136.0 1;00:00:01.200000=240.0 0.0 241.0 136.0 1</property>
      <property name="transition.valign">top</property>
      <property name="transition.halign">left</property>
      <property name="shotcut:animIn">00:00:01.240000</property>
      <property name="shotcut:animOut">00:00:00.000</property>
      <property name="transition.threads">0</property>
    </filter>
    <filter id="filter350" out="00:00:39.400000" in="00:00:38.160000">
      <property name="window">75</property>
      <property name="max_gain">20dB</property>
      <property name="mlt_service">volume</property>
      <property name="shotcut:filter">muteVolume</property>
      <property name="gain">0</property>
    </filter>
  </producer>
  <producer id="producer201" title="Anonymous Submission" in="00:00:00.000" out="00:03:17.240">
    <property name="length">00:03:17:07</property>
    <property name="eof">pause</property>
    <property name="resource">../../006 - Videos format youtube/Clarinettes/Ineke_clarinette_totoro.mp4</property>
    <property name="audio_index">1</property>
    <property name="video_index">0</property>
    <property name="mute_on_pause">0</property>
    <property name="mlt_service">avformat-novalidate</property>
    <property name="seekable">1</property>
    <property name="aspect_ratio">1</property>
    <property name="creation_time">2020-04-20T19:10:56</property>
    <property name="shotcut:hash">44edbdde4a7730436d308ed2f8de3797</property>
    <property name="ignore_points">0</property>
    <property name="shotcut:caption">Ineke_clarinette_totoro.mp4</property>
    <property name="shotcut:skipConvert">1</property>
    <property name="global_feed">1</property>
    <property name="xml">was here</property>
    <filter id="filter351" out="00:00:40.640000" in="00:00:39.440000">
      <property name="background">colour:0</property>
      <property name="mlt_service">affine</property>
      <property name="shotcut:filter">affineSizePosition</property>
      <property name="transition.fill">1</property>
      <property name="transition.distort">0</property>
      <property name="transition.rect">00:00:00.000000=240.0 0.0 242.0 136.0 1;00:00:01.200000=480.0 0.0 241.0 136.0 1</property>
      <property name="transition.valign">top</property>
      <property name="transition.halign">left</property>
      <property name="shotcut:animIn">00:00:01.240000</property>
      <property name="shotcut:animOut">00:00:00.000</property>
      <property name="transition.threads">0</property>
    </filter>
    <filter id="filter352" out="00:00:40.640000" in="00:00:39.440000">
      <property name="window">75</property>
      <property name="max_gain">20dB</property>
      <property name="mlt_service">volume</property>
      <property name="shotcut:filter">muteVolume</property>
      <property name="gain">0</property>
    </filter>
  </producer>
  <producer id="producer202" title="Anonymous Submission" in="00:00:00.000" out="00:03:17.240">
    <property name="length">00:03:17:07</property>
    <property name="eof">pause</property>
    <property name="resource">../../006 - Videos format youtube/Clarinettes/Ineke_clarinette_totoro.mp4</property>
    <property name="audio_index">1</property>
    <property name="video_index">0</property>
    <property name="mute_on_pause">0</property>
    <property name="mlt_service">avformat-novalidate</property>
    <property name="seekable">1</property>
    <property name="aspect_ratio">1</property>
    <property name="creation_time">2020-04-20T19:10:56</property>
    <property name="shotcut:hash">44edbdde4a7730436d308ed2f8de3797</property>
    <property name="ignore_points">0</property>
    <property name="shotcut:caption">Ineke_clarinette_totoro.mp4</property>
    <property name="shotcut:skipConvert">1</property>
    <property name="global_feed">1</property>
    <property name="xml">was here</property>
    <filter id="filter353" out="00:00:41.880000" in="00:00:40.680000">
      <property name="background">colour:0</property>
      <property name="mlt_service">affine</property>
      <property name="shotcut:filter">affineSizePosition</property>
      <property name="transition.fill">1</property>
      <property name="transition.distort">0</property>
      <property name="transition.rect">00:00:00.000000=480.0 0.0 242.0 136.0 1;00:00:01.200000=720.0 0.0 241.0 136.0 1</property>
      <property name="transition.valign">top</property>
      <property name="transition.halign">left</property>
      <property name="shotcut:animIn">00:00:01.240000</property>
      <property name="shotcut:animOut">00:00:00.000</property>
      <property name="transition.threads">0</property>
    </filter>
    <filter id="filter354" out="00:00:41.880000" in="00:00:40.680000">
      <property name="window">75</property>
      <property name="max_gain">20dB</property>
      <property name="mlt_service">volume</property>
      <property name="shotcut:filter">muteVolume</property>
      <property name="gain">0</property>
    </filter>
  </producer>
  <producer id="producer203" title="Anonymous Submission" in="00:00:00.000" out="00:03:17.240">
    <property name="length">00:03:17:07</property>
    <property name="eof">pause</property>
    <property name="resource">../../006 - Videos format youtube/Clarinettes/Ineke_clarinette_totoro.mp4</property>
    <property name="audio_index">1</property>
    <property name="video_index">0</property>
    <property name="mute_on_pause">0</property>
    <property name="mlt_service">avformat-novalidate</property>
    <property name="seekable">1</property>
    <property name="aspect_ratio">1</property>
    <property name="creation_time">2020-04-20T19:10:56</property>
    <property name="shotcut:hash">44edbdde4a7730436d308ed2f8de3797</property>
    <property name="ignore_points">0</property>
    <property name="shotcut:caption">Ineke_clarinette_totoro.mp4</property>
    <property name="shotcut:skipConvert">1</property>
    <property name="global_feed">1</property>
    <property name="xml">was here</property>
    <filter id="filter355" out="00:00:43.120000" in="00:00:41.920000">
      <property name="background">colour:0</property>
      <property name="mlt_service">affine</property>
      <property name="shotcut:filter">affineSizePosition</property>
      <property name="transition.fill">1</property>
      <property name="transition.distort">0</property>
      <property name="transition.rect">00:00:00.000000=720.0 0.0 242.0 136.0 1;00:00:01.200000=960.0 0.0 241.0 136.0 1</property>
      <property name="transition.valign">top</property>
      <property name="transition.halign">left</property>
      <property name="shotcut:animIn">00:00:01.240000</property>
      <property name="shotcut:animOut">00:00:00.000</property>
      <property name="transition.threads">0</property>
    </filter>
    <filter id="filter356" out="00:00:43.120000" in="00:00:41.920000">
      <property name="window">75</property>
      <property name="max_gain">20dB</property>
      <property name="mlt_service">volume</property>
      <property name="shotcut:filter">muteVolume</property>
      <property name="gain">0</property>
    </filter>
  </producer>
  <producer id="producer204" title="Anonymous Submission" in="00:00:00.000" out="00:03:17.240">
    <property name="length">00:03:17:07</property>
    <property name="eof">pause</property>
    <property name="resource">../../006 - Videos format youtube/Clarinettes/Ineke_clarinette_totoro.mp4</property>
    <property name="audio_index">1</property>
    <property name="video_index">0</property>
    <property name="mute_on_pause">0</property>
    <property name="mlt_service">avformat-novalidate</property>
    <property name="seekable">1</property>
    <property name="aspect_ratio">1</property>
    <property name="creation_time">2020-04-20T19:10:56</property>
    <property name="shotcut:hash">44edbdde4a7730436d308ed2f8de3797</property>
    <property name="ignore_points">0</property>
    <property name="shotcut:caption">Ineke_clarinette_totoro.mp4</property>
    <property name="shotcut:skipConvert">1</property>
    <property name="global_feed">1</property>
    <property name="xml">was here</property>
    <filter id="filter357" out="00:00:44.400000" in="00:00:43.160000">
      <property name="background">colour:0</property>
      <property name="mlt_service">affine</property>
      <property name="shotcut:filter">affineSizePosition</property>
      <property name="transition.fill">1</property>
      <property name="transition.distort">0</property>
      <property name="transition.rect">00:00:00.000000=960.0 0.0 242.0 136.0 1;00:00:01.200000=1200.0 0.0 241.0 136.0 1</property>
      <property name="transition.valign">top</property>
      <property name="transition.halign">left</property>
      <property name="shotcut:animIn">00:00:01.240000</property>
      <property name="shotcut:animOut">00:00:00.000</property>
      <property name="transition.threads">0</property>
    </filter>
    <filter id="filter358" out="00:00:44.400000" in="00:00:43.160000">
      <property name="window">75</property>
      <property name="max_gain">20dB</property>
      <property name="mlt_service">volume</property>
      <property name="shotcut:filter">muteVolume</property>
      <property name="gain">0</property>
    </filter>
  </producer>
  <producer id="producer205" title="Anonymous Submission" in="00:00:00.000" out="00:03:17.240">
    <property name="length">00:03:17:07</property>
    <property name="eof">pause</property>
    <property name="resource">../../006 - Videos format youtube/Clarinettes/Ineke_clarinette_totoro.mp4</property>
    <property name="audio_index">1</property>
    <property name="video_index">0</property>
    <property name="mute_on_pause">0</property>
    <property name="mlt_service">avformat-novalidate</property>
    <property name="seekable">1</property>
    <property name="aspect_ratio">1</property>
    <property name="creation_time">2020-04-20T19:10:56</property>
    <property name="shotcut:hash">44edbdde4a7730436d308ed2f8de3797</property>
    <property name="ignore_points">0</property>
    <property name="shotcut:caption">Ineke_clarinette_totoro.mp4</property>
    <property name="shotcut:skipConvert">1</property>
    <property name="global_feed">1</property>
    <property name="xml">was here</property>
    <filter id="filter359" out="00:00:45.640000" in="00:00:44.440000">
      <property name="background">colour:0</property>
      <property name="mlt_service">affine</property>
      <property name="shotcut:filter">affineSizePosition</property>
      <property name="transition.fill">1</property>
      <property name="transition.distort">0</property>
      <property name="transition.rect">00:00:00.000000=1200.0 0.0 242.0 136.0 1;00:00:01.200000=1440.0 0.0 241.0 136.0 1</property>
      <property name="transition.valign">top</property>
      <property name="transition.halign">left</property>
      <property name="shotcut:animIn">00:00:01.240000</property>
      <property name="shotcut:animOut">00:00:00.000</property>
      <property name="transition.threads">0</property>
    </filter>
    <filter id="filter360" out="00:00:45.640000" in="00:00:44.440000">
      <property name="window">75</property>
      <property name="max_gain">20dB</property>
      <property name="mlt_service">volume</property>
      <property name="shotcut:filter">muteVolume</property>
      <property name="gain">0</property>
    </filter>
  </producer>
  <producer id="producer206" title="Anonymous Submission" in="00:00:00.000" out="00:03:17.240">
    <property name="length">00:03:17:07</property>
    <property name="eof">pause</property>
    <property name="resource">../../006 - Videos format youtube/Clarinettes/Ineke_clarinette_totoro.mp4</property>
    <property name="audio_index">1</property>
    <property name="video_index">0</property>
    <property name="mute_on_pause">0</property>
    <property name="mlt_service">avformat-novalidate</property>
    <property name="seekable">1</property>
    <property name="aspect_ratio">1</property>
    <property name="creation_time">2020-04-20T19:10:56</property>
    <property name="shotcut:hash">44edbdde4a7730436d308ed2f8de3797</property>
    <property name="ignore_points">0</property>
    <property name="shotcut:caption">Ineke_clarinette_totoro.mp4</property>
    <property name="shotcut:skipConvert">1</property>
    <property name="global_feed">1</property>
    <property name="xml">was here</property>
    <filter id="filter361" out="00:00:46.880000" in="00:00:45.680000">
      <property name="background">colour:0</property>
      <property name="mlt_service">affine</property>
      <property name="shotcut:filter">affineSizePosition</property>
      <property name="transition.fill">1</property>
      <property name="transition.distort">0</property>
      <property name="transition.rect">00:00:00.000000=1440.0 0.0 242.0 136.0 1;00:00:01.200000=1680.0 0.0 241.0 136.0 1</property>
      <property name="transition.valign">top</property>
      <property name="transition.halign">left</property>
      <property name="shotcut:animIn">00:00:01.240000</property>
      <property name="shotcut:animOut">00:00:00.000</property>
      <property name="transition.threads">0</property>
    </filter>
    <filter id="filter362" out="00:00:46.880000" in="00:00:45.680000">
      <property name="window">75</property>
      <property name="max_gain">20dB</property>
      <property name="mlt_service">volume</property>
      <property name="shotcut:filter">muteVolume</property>
      <property name="gain">0</property>
    </filter>
  </producer>
  <producer id="producer207" title="Anonymous Submission" in="00:00:00.000" out="00:03:17.240">
    <property name="length">00:03:17:07</property>
    <property name="eof">pause</property>
    <property name="resource">../../006 - Videos format youtube/Clarinettes/Ineke_clarinette_totoro.mp4</property>
    <property name="audio_index">1</property>
    <property name="video_index">0</property>
    <property name="mute_on_pause">0</property>
    <property name="mlt_service">avformat-novalidate</property>
    <property name="seekable">1</property>
    <property name="aspect_ratio">1</property>
    <property name="creation_time">2020-04-20T19:10:56</property>
    <property name="shotcut:hash">44edbdde4a7730436d308ed2f8de3797</property>
    <property name="ignore_points">0</property>
    <property name="shotcut:caption">Ineke_clarinette_totoro.mp4</property>
    <property name="shotcut:skipConvert">1</property>
    <property name="global_feed">1</property>
    <property name="xml">was here</property>
    <filter id="filter363" out="00:00:48.120000" in="00:00:46.920000">
      <property name="background">colour:0</property>
      <property name="mlt_service">affine</property>
      <property name="shotcut:filter">affineSizePosition</property>
      <property name="transition.fill">1</property>
      <property name="transition.distort">0</property>
      <property name="transition.rect">00:00:00.000000=1680.0 0.0 242.0 136.0 1;00:00:01.200000=1920.0 0.0 241.0 136.0 1</property>
      <property name="transition.valign">top</property>
      <property name="transition.halign">left</property>
      <property name="shotcut:animIn">00:00:01.240000</property>
      <property name="shotcut:animOut">00:00:00.000</property>
      <property name="transition.threads">0</property>
    </filter>
    <filter id="filter364" out="00:00:48.120000" in="00:00:46.920000">
      <property name="window">75</property>
      <property name="max_gain">20dB</property>
      <property name="mlt_service">volume</property>
      <property name="shotcut:filter">muteVolume</property>
      <property name="gain">0</property>
    </filter>
  </producer>
  <producer id="producer208" title="Anonymous Submission" in="00:00:00.000" out="00:03:17.240">
    <property name="length">00:03:17:07</property>
    <property name="eof">pause</property>
    <property name="resource">../../006 - Videos format youtube/Clarinettes/Ineke_clarinette_totoro.mp4</property>
    <property name="audio_index">1</property>
    <property name="video_index">0</property>
    <property name="mute_on_pause">0</property>
    <property name="mlt_service">avformat-novalidate</property>
    <property name="seekable">1</property>
    <property name="aspect_ratio">1</property>
    <property name="creation_time">2020-04-20T19:10:56</property>
    <property name="shotcut:hash">44edbdde4a7730436d308ed2f8de3797</property>
    <property name="ignore_points">0</property>
    <property name="shotcut:caption">Ineke_clarinette_totoro.mp4</property>
    <property name="shotcut:skipConvert">1</property>
    <property name="global_feed">1</property>
    <property name="xml">was here</property>
    <filter id="filter365" out="00:01:03.400000" in="00:00:48.160000">
      <property name="background">colour:0</property>
      <property name="mlt_service">affine</property>
      <property name="shotcut:filter">affineSizePosition</property>
      <property name="transition.fill">1</property>
      <property name="transition.distort">0</property>
      <property name="transition.rect">00:00:00.000000=1920.0 0.0 242.0 136.0 1;00:00:01.200000=2160.0 0.0 241.0 136.0 1</property>
      <property name="transition.valign">top</property>
      <property name="transition.halign">left</property>
      <property name="shotcut:animIn">00:00:01.240000</property>
      <property name="shotcut:animOut">00:00:00.000</property>
      <property name="transition.threads">0</property>
    </filter>
    <filter id="filter366" out="00:01:03.400000" in="00:00:48.160000">
      <property name="window">75</property>
      <property name="max_gain">20dB</property>
      <property name="mlt_service">volume</property>
      <property name="shotcut:filter">muteVolume</property>
      <property name="gain">0</property>
    </filter>
  </producer>
  <producer id="producer209" title="Anonymous Submission" in="00:00:00.000" out="00:03:17.240">
    <property name="length">00:03:17:07</property>
    <property name="eof">pause</property>
    <property name="resource">../../006 - Videos format youtube/Clarinettes/Ineke_clarinette_totoro.mp4</property>
    <property name="audio_index">1</property>
    <property name="video_index">0</property>
    <property name="mute_on_pause">0</property>
    <property name="mlt_service">avformat-novalidate</property>
    <property name="seekable">1</property>
    <property name="aspect_ratio">1</property>
    <property name="creation_time">2020-04-20T19:10:56</property>
    <property name="shotcut:hash">44edbdde4a7730436d308ed2f8de3797</property>
    <property name="ignore_points">0</property>
    <property name="shotcut:caption">Ineke_clarinette_totoro.mp4</property>
    <property name="shotcut:skipConvert">1</property>
    <property name="global_feed">1</property>
    <property name="xml">was here</property>
    <filter id="filter367" out="00:01:11.400000" in="00:01:03.440000">
      <property name="background">colour:0</property>
      <property name="mlt_service">affine</property>
      <property name="shotcut:filter">affineSizePosition</property>
      <property name="transition.fill">1</property>
      <property name="transition.distort">0</property>
      <property name="transition.rect">1371.0 771.0 275.0 155.0 1</property>
      <property name="transition.valign">top</property>
      <property name="transition.halign">left</property>
      <property name="shotcut:animIn">00:00:01.240000</property>
      <property name="shotcut:animOut">00:00:00.000</property>
      <property name="transition.threads">0</property>
    </filter>
    <filter id="filter368" out="00:01:11.400000" in="00:01:03.440000">
      <property name="window">75</property>
      <property name="max_gain">20dB</property>
      <property name="mlt_service">volume</property>
      <property name="shotcut:filter">muteVolume</property>
      <property name="gain">0</property>
    </filter>
  </producer>
  <producer id="producer210" title="Anonymous Submission" in="00:00:00.000" out="00:03:17.240">
    <property name="length">00:03:17:07</property>
    <property name="eof">pause</property>
    <property name="resource">../../006 - Videos format youtube/Clarinettes/Ineke_clarinette_totoro.mp4</property>
    <property name="audio_index">1</property>
    <property name="video_index">0</property>
    <property name="mute_on_pause">0</property>
    <property name="mlt_service">avformat-novalidate</property>
    <property name="seekable">1</property>
    <property name="aspect_ratio">1</property>
    <property name="creation_time">2020-04-20T19:10:56</property>
    <property name="shotcut:hash">44edbdde4a7730436d308ed2f8de3797</property>
    <property name="ignore_points">0</property>
    <property name="shotcut:caption">Ineke_clarinette_totoro.mp4</property>
    <property name="shotcut:skipConvert">1</property>
    <property name="global_feed">1</property>
    <property name="xml">was here</property>
    <filter id="filter369" out="00:01:19.400000" in="00:01:11.440000">
      <property name="background">colour:0</property>
      <property name="mlt_service">affine</property>
      <property name="shotcut:filter">affineSizePosition</property>
      <property name="transition.fill">1</property>
      <property name="transition.distort">0</property>
      <property name="transition.rect">1097.0 462.0 275.0 155.0 1</property>
      <property name="transition.valign">top</property>
      <property name="transition.halign">left</property>
      <property name="shotcut:animIn">00:00:01.240000</property>
      <property name="shotcut:animOut">00:00:00.000</property>
      <property name="transition.threads">0</property>
    </filter>
    <filter id="filter370" out="00:01:19.400000" in="00:01:11.440000">
      <property name="window">75</property>
      <property name="max_gain">20dB</property>
      <property name="mlt_service">volume</property>
      <property name="shotcut:filter">muteVolume</property>
      <property name="gain">0</property>
    </filter>
  </producer>
  <producer id="producer211" title="Anonymous Submission" in="00:00:00.000" out="00:03:17.240">
    <property name="length">00:03:17:07</property>
    <property name="eof">pause</property>
    <property name="resource">../../006 - Videos format youtube/Clarinettes/Ineke_clarinette_totoro.mp4</property>
    <property name="audio_index">1</property>
    <property name="video_index">0</property>
    <property name="mute_on_pause">0</property>
    <property name="mlt_service">avformat-novalidate</property>
    <property name="seekable">1</property>
    <property name="aspect_ratio">1</property>
    <property name="creation_time">2020-04-20T19:10:56</property>
    <property name="shotcut:hash">44edbdde4a7730436d308ed2f8de3797</property>
    <property name="ignore_points">0</property>
    <property name="shotcut:caption">Ineke_clarinette_totoro.mp4</property>
    <property name="shotcut:skipConvert">1</property>
    <property name="global_feed">1</property>
    <property name="xml">was here</property>
    <filter id="filter371" out="00:01:26.400000" in="00:01:19.440000">
      <property name="background">colour:0</property>
      <property name="mlt_service">affine</property>
      <property name="shotcut:filter">affineSizePosition</property>
      <property name="transition.fill">1</property>
      <property name="transition.distort">0</property>
      <property name="transition.rect">640.0 720.0 321.0 181.0 1</property>
      <property name="transition.valign">top</property>
      <property name="transition.halign">left</property>
      <property name="shotcut:animIn">00:00:01.240000</property>
      <property name="shotcut:animOut">00:00:00.000</property>
      <property name="transition.threads">0</property>
    </filter>
    <filter id="filter372" out="00:01:26.400000" in="00:01:19.440000">
      <property name="window">75</property>
      <property name="max_gain">20dB</property>
      <property name="mlt_service">volume</property>
      <property name="shotcut:filter">muteVolume</property>
      <property name="gain">0</property>
    </filter>
  </producer>
  <producer id="producer212" title="Anonymous Submission" in="00:00:00.000" out="00:03:17.240">
    <property name="length">00:03:17:07</property>
    <property name="eof">pause</property>
    <property name="resource">../../006 - Videos format youtube/Clarinettes/Ineke_clarinette_totoro.mp4</property>
    <property name="audio_index">1</property>
    <property name="video_index">0</property>
    <property name="mute_on_pause">0</property>
    <property name="mlt_service">avformat-novalidate</property>
    <property name="seekable">1</property>
    <property name="aspect_ratio">1</property>
    <property name="creation_time">2020-04-20T19:10:56</property>
    <property name="shotcut:hash">44edbdde4a7730436d308ed2f8de3797</property>
    <property name="ignore_points">0</property>
    <property name="shotcut:caption">Ineke_clarinette_totoro.mp4</property>
    <property name="shotcut:skipConvert">1</property>
    <property name="global_feed">1</property>
    <property name="xml">was here</property>
    <filter id="filter373" out="00:01:34.400000" in="00:01:26.440000">
      <property name="background">colour:0</property>
      <property name="mlt_service">affine</property>
      <property name="shotcut:filter">affineSizePosition</property>
      <property name="transition.fill">1</property>
      <property name="transition.distort">0</property>
      <property name="transition.rect">640.0 -1080.0 321.0 181.0 1</property>
      <property name="transition.valign">top</property>
      <property name="transition.halign">left</property>
      <property name="shotcut:animIn">00:00:01.240000</property>
      <property name="shotcut:animOut">00:00:00.000</property>
      <property name="transition.threads">0</property>
    </filter>
    <filter id="filter374" out="00:01:34.400000" in="00:01:26.440000">
      <property name="window">75</property>
      <property name="max_gain">20dB</property>
      <property name="mlt_service">volume</property>
      <property name="shotcut:filter">muteVolume</property>
      <property name="gain">0</property>
    </filter>
  </producer>
  <producer id="producer213" title="Anonymous Submission" in="00:00:00.000" out="00:03:17.240">
    <property name="length">00:03:17:07</property>
    <property name="eof">pause</property>
    <property name="resource">../../006 - Videos format youtube/Clarinettes/Ineke_clarinette_totoro.mp4</property>
    <property name="audio_index">1</property>
    <property name="video_index">0</property>
    <property name="mute_on_pause">0</property>
    <property name="mlt_service">avformat-novalidate</property>
    <property name="seekable">1</property>
    <property name="aspect_ratio">1</property>
    <property name="creation_time">2020-04-20T19:10:56</property>
    <property name="shotcut:hash">44edbdde4a7730436d308ed2f8de3797</property>
    <property name="ignore_points">0</property>
    <property name="shotcut:caption">Ineke_clarinette_totoro.mp4</property>
    <property name="shotcut:skipConvert">1</property>
    <property name="global_feed">1</property>
    <property name="xml">was here</property>
    <filter id="filter375" out="00:01:43.400000" in="00:01:34.440000">
      <property name="background">colour:0</property>
      <property name="mlt_service">affine</property>
      <property name="shotcut:filter">affineSizePosition</property>
      <property name="transition.fill">1</property>
      <property name="transition.distort">0</property>
      <property name="transition.rect">274.0 925.0 275.0 155.0 1</property>
      <property name="transition.valign">top</property>
      <property name="transition.halign">left</property>
      <property name="shotcut:animIn">00:00:01.240000</property>
      <property name="shotcut:animOut">00:00:00.000</property>
      <property name="transition.threads">0</property>
    </filter>
    <filter id="filter376" out="00:01:43.400000" in="00:01:34.440000">
      <property name="window">75</property>
      <property name="max_gain">20dB</property>
      <property name="mlt_service">volume</property>
      <property name="shotcut:filter">muteVolume</property>
      <property name="gain">0</property>
    </filter>
  </producer>
  <producer id="producer214" title="Anonymous Submission" in="00:00:00.000" out="00:03:17.240">
    <property name="length">00:03:17:07</property>
    <property name="eof">pause</property>
    <property name="resource">../../006 - Videos format youtube/Clarinettes/Ineke_clarinette_totoro.mp4</property>
    <property name="audio_index">1</property>
    <property name="video_index">0</property>
    <property name="mute_on_pause">0</property>
    <property name="mlt_service">avformat-novalidate</property>
    <property name="seekable">1</property>
    <property name="aspect_ratio">1</property>
    <property name="creation_time">2020-04-20T19:10:56</property>
    <property name="shotcut:hash">44edbdde4a7730436d308ed2f8de3797</property>
    <property name="ignore_points">0</property>
    <property name="shotcut:caption">Ineke_clarinette_totoro.mp4</property>
    <property name="shotcut:skipConvert">1</property>
    <property name="global_feed">1</property>
    <property name="xml">was here</property>
    <filter id="filter377" out="00:01:50.400000" in="00:01:43.440000">
      <property name="background">colour:0</property>
      <property name="mlt_service">affine</property>
      <property name="shotcut:filter">affineSizePosition</property>
      <property name="transition.fill">1</property>
      <property name="transition.distort">0</property>
      <property name="transition.rect">1371.0 771.0 275.0 155.0 1</property>
      <property name="transition.valign">top</property>
      <property name="transition.halign">left</property>
      <property name="shotcut:animIn">00:00:01.240000</property>
      <property name="shotcut:animOut">00:00:00.000</property>
      <property name="transition.threads">0</property>
    </filter>
    <filter id="filter378" out="00:01:50.400000" in="00:01:43.440000">
      <property name="window">75</property>
      <property name="max_gain">20dB</property>
      <property name="mlt_service">volume</property>
      <property name="shotcut:filter">muteVolume</property>
      <property name="gain">0</property>
    </filter>
  </producer>
  <producer id="producer215" title="Anonymous Submission" in="00:00:00.000" out="00:03:17.240">
    <property name="length">00:03:17:07</property>
    <property name="eof">pause</property>
    <property name="resource">../../006 - Videos format youtube/Clarinettes/Ineke_clarinette_totoro.mp4</property>
    <property name="audio_index">1</property>
    <property name="video_index">0</property>
    <property name="mute_on_pause">0</property>
    <property name="mlt_service">avformat-novalidate</property>
    <property name="seekable">1</property>
    <property name="aspect_ratio">1</property>
    <property name="creation_time">2020-04-20T19:10:56</property>
    <property name="shotcut:hash">44edbdde4a7730436d308ed2f8de3797</property>
    <property name="ignore_points">0</property>
    <property name="shotcut:caption">Ineke_clarinette_totoro.mp4</property>
    <property name="shotcut:skipConvert">1</property>
    <property name="global_feed">1</property>
    <property name="xml">was here</property>
    <filter id="filter379" out="00:03:17.240000" in="00:01:50.440000">
      <property name="background">colour:0</property>
      <property name="mlt_service">affine</property>
      <property name="shotcut:filter">affineSizePosition</property>
      <property name="transition.fill">1</property>
      <property name="transition.distort">0</property>
      <property name="transition.rect">-640.0 -360.0 321.0 181.0 1</property>
      <property name="transition.valign">top</property>
      <property name="transition.halign">left</property>
      <property name="shotcut:animIn">00:00:01.240000</property>
      <property name="shotcut:animOut">00:00:00.000</property>
      <property name="transition.threads">0</property>
    </filter>
    <filter id="filter380" out="00:03:17.240000" in="00:01:50.440000">
      <property name="window">75</property>
      <property name="max_gain">20dB</property>
      <property name="mlt_service">volume</property>
      <property name="shotcut:filter">muteVolume</property>
      <property name="gain">0</property>
    </filter>
  </producer>
  <playlist id="playlist13">
    <property name="shotcut:video">1</property>
    <property name="shotcut:name">Ineke</property>
    <property name="shotcut:lock">1</property>
    <blank length="00:00:00.560" />
    <entry producer="producer191" in="00:00:00.000" out="00:00:22.400000" />
    <entry producer="producer192" in="00:00:22.440000" out="00:00:29.400000" />
    <entry producer="producer193" in="00:00:29.440000" out="00:00:30.640000" />
    <entry producer="producer194" in="00:00:30.680000" out="00:00:31.880000" />
    <entry producer="producer195" in="00:00:31.920000" out="00:00:33.120000" />
    <entry producer="producer196" in="00:00:33.160000" out="00:00:34.400000" />
    <entry producer="producer197" in="00:00:34.440000" out="00:00:35.640000" />
    <entry producer="producer198" in="00:00:35.680000" out="00:00:36.880000" />
    <entry producer="producer199" in="00:00:36.920000" out="00:00:38.120000" />
    <entry producer="producer200" in="00:00:38.160000" out="00:00:39.400000" />
    <entry producer="producer201" in="00:00:39.440000" out="00:00:40.640000" />
    <entry producer="producer202" in="00:00:40.680000" out="00:00:41.880000" />
    <entry producer="producer203" in="00:00:41.920000" out="00:00:43.120000" />
    <entry producer="producer204" in="00:00:43.160000" out="00:00:44.400000" />
    <entry producer="producer205" in="00:00:44.440000" out="00:00:45.640000" />
    <entry producer="producer206" in="00:00:45.680000" out="00:00:46.880000" />
    <entry producer="producer207" in="00:00:46.920000" out="00:00:48.120000" />
    <entry producer="producer208" in="00:00:48.160000" out="00:01:03.400000" />
    <entry producer="producer209" in="00:01:03.440000" out="00:01:11.400000" />
    <entry producer="producer210" in="00:01:11.440000" out="00:01:19.400000" />
    <entry producer="producer211" in="00:01:19.440000" out="00:01:26.400000" />
    <entry producer="producer212" in="00:01:26.440000" out="00:01:34.400000" />
    <entry producer="producer213" in="00:01:34.440000" out="00:01:43.400000" />
    <entry producer="producer214" in="00:01:43.440000" out="00:01:50.400000" />
    <entry producer="producer215" in="00:01:50.440000" out="00:03:17.240000" />
    <filter id="filter381" out="00:03:23.320">
      <property name="window">75</property>
      <property name="max_gain">20dB</property>
      <property name="level">-10</property>
      <property name="mlt_service">volume</property>
    </filter>
  </playlist>
  <producer id="producer216" title="Anonymous Submission" in="00:00:00.000" out="00:03:14.400">
    <property name="length">00:03:14:11</property>
    <property name="eof">pause</property>
    <property name="resource">../../006 - Videos format youtube/Clarinettes/Anne-sonia_clarinette_totoro.mp4</property>
    <property name="audio_index">1</property>
    <property name="video_index">0</property>
    <property name="mute_on_pause">0</property>
    <property name="mlt_service">avformat-novalidate</property>
    <property name="seekable">1</property>
    <property name="aspect_ratio">1</property>
    <property name="creation_time">2020-04-05T19:51:43</property>
    <property name="shotcut:hash">4571e04128d43e4e5e43a6e2575279f6</property>
    <property name="ignore_points">0</property>
    <property name="shotcut:caption">Anne-sonia_clarinette_totoro.mp4</property>
    <property name="shotcut:skipConvert">1</property>
    <property name="global_feed">1</property>
    <property name="xml">was here</property>
    <filter id="filter382" out="00:00:15.280000">
      <property name="background">colour:0</property>
      <property name="mlt_service">affine</property>
      <property name="shotcut:filter">affineSizePosition</property>
      <property name="transition.fill">1</property>
      <property name="transition.distort">0</property>
      <property name="transition.rect">1645.0 308.0 275.0 155.0 1</property>
      <property name="transition.valign">top</property>
      <property name="transition.halign">left</property>
      <property name="shotcut:animIn">00:00:00.000</property>
      <property name="shotcut:animOut">00:00:00.000</property>
      <property name="transition.threads">0</property>
    </filter>
    <filter id="filter383" out="00:00:15.280000">
      <property name="window">75</property>
      <property name="max_gain">20dB</property>
      <property name="mlt_service">volume</property>
      <property name="shotcut:filter">muteVolume</property>
      <property name="gain">0</property>
    </filter>
  </producer>
  <producer id="producer217" title="Anonymous Submission" in="00:00:00.000" out="00:03:14.400">
    <property name="length">00:03:14:11</property>
    <property name="eof">pause</property>
    <property name="resource">../../006 - Videos format youtube/Clarinettes/Anne-sonia_clarinette_totoro.mp4</property>
    <property name="audio_index">1</property>
    <property name="video_index">0</property>
    <property name="mute_on_pause">0</property>
    <property name="mlt_service">avformat-novalidate</property>
    <property name="seekable">1</property>
    <property name="aspect_ratio">1</property>
    <property name="creation_time">2020-04-05T19:51:43</property>
    <property name="shotcut:hash">4571e04128d43e4e5e43a6e2575279f6</property>
    <property name="ignore_points">0</property>
    <property name="shotcut:caption">Anne-sonia_clarinette_totoro.mp4</property>
    <property name="shotcut:skipConvert">1</property>
    <property name="global_feed">1</property>
    <property name="xml">was here</property>
    <filter id="filter384" out="00:00:22.280000" in="00:00:15.320000">
      <property name="background">colour:0</property>
      <property name="mlt_service">affine</property>
      <property name="shotcut:filter">affineSizePosition</property>
      <property name="transition.fill">1</property>
      <property name="transition.distort">0</property>
      <property name="transition.rect">00:00:00.000000=1645.0 308.0 276.0 155.0 1;00:00:00.440000=0.0 0.0 275.0 155.0 1</property>
      <property name="transition.valign">top</property>
      <property name="transition.halign">left</property>
      <property name="shotcut:animIn">00:00:00.480000</property>
      <property name="shotcut:animOut">00:00:00.000</property>
      <property name="transition.threads">0</property>
    </filter>
    <filter id="filter385" out="00:00:22.280000" in="00:00:15.320000">
      <property name="window">75</property>
      <property name="max_gain">20dB</property>
      <property name="mlt_service">volume</property>
      <property name="shotcut:filter">muteVolume</property>
      <property name="gain">0</property>
    </filter>
  </producer>
  <producer id="producer218" title="Anonymous Submission" in="00:00:00.000" out="00:03:14.400">
    <property name="length">00:03:14:11</property>
    <property name="eof">pause</property>
    <property name="resource">../../006 - Videos format youtube/Clarinettes/Anne-sonia_clarinette_totoro.mp4</property>
    <property name="audio_index">1</property>
    <property name="video_index">0</property>
    <property name="mute_on_pause">0</property>
    <property name="mlt_service">avformat-novalidate</property>
    <property name="seekable">1</property>
    <property name="aspect_ratio">1</property>
    <property name="creation_time">2020-04-05T19:51:43</property>
    <property name="shotcut:hash">4571e04128d43e4e5e43a6e2575279f6</property>
    <property name="ignore_points">0</property>
    <property name="shotcut:caption">Anne-sonia_clarinette_totoro.mp4</property>
    <property name="shotcut:skipConvert">1</property>
    <property name="global_feed">1</property>
    <property name="xml">was here</property>
    <filter id="filter386" out="00:00:23.520000" in="00:00:22.320000">
      <property name="background">colour:0</property>
      <property name="mlt_service">affine</property>
      <property name="shotcut:filter">affineSizePosition</property>
      <property name="transition.fill">1</property>
      <property name="transition.distort">0</property>
      <property name="transition.rect">00:00:00.000000=240.0 0.0 242.0 136.0 1;00:00:01.200000=480.0 0.0 241.0 136.0 1</property>
      <property name="transition.valign">top</property>
      <property name="transition.halign">left</property>
      <property name="shotcut:animIn">00:00:01.240000</property>
      <property name="shotcut:animOut">00:00:00.000</property>
      <property name="transition.threads">0</property>
    </filter>
    <filter id="filter387" out="00:00:23.520000" in="00:00:22.320000">
      <property name="window">75</property>
      <property name="max_gain">20dB</property>
      <property name="mlt_service">volume</property>
      <property name="shotcut:filter">muteVolume</property>
      <property name="gain">0</property>
    </filter>
  </producer>
  <producer id="producer219" title="Anonymous Submission" in="00:00:00.000" out="00:03:14.400">
    <property name="length">00:03:14:11</property>
    <property name="eof">pause</property>
    <property name="resource">../../006 - Videos format youtube/Clarinettes/Anne-sonia_clarinette_totoro.mp4</property>
    <property name="audio_index">1</property>
    <property name="video_index">0</property>
    <property name="mute_on_pause">0</property>
    <property name="mlt_service">avformat-novalidate</property>
    <property name="seekable">1</property>
    <property name="aspect_ratio">1</property>
    <property name="creation_time">2020-04-05T19:51:43</property>
    <property name="shotcut:hash">4571e04128d43e4e5e43a6e2575279f6</property>
    <property name="ignore_points">0</property>
    <property name="shotcut:caption">Anne-sonia_clarinette_totoro.mp4</property>
    <property name="shotcut:skipConvert">1</property>
    <property name="global_feed">1</property>
    <property name="xml">was here</property>
    <filter id="filter388" out="00:00:24.760000" in="00:00:23.560000">
      <property name="background">colour:0</property>
      <property name="mlt_service">affine</property>
      <property name="shotcut:filter">affineSizePosition</property>
      <property name="transition.fill">1</property>
      <property name="transition.distort">0</property>
      <property name="transition.rect">00:00:00.000000=480.0 0.0 242.0 136.0 1;00:00:01.200000=720.0 0.0 241.0 136.0 1</property>
      <property name="transition.valign">top</property>
      <property name="transition.halign">left</property>
      <property name="shotcut:animIn">00:00:01.240000</property>
      <property name="shotcut:animOut">00:00:00.000</property>
      <property name="transition.threads">0</property>
    </filter>
    <filter id="filter389" out="00:00:24.760000" in="00:00:23.560000">
      <property name="window">75</property>
      <property name="max_gain">20dB</property>
      <property name="mlt_service">volume</property>
      <property name="shotcut:filter">muteVolume</property>
      <property name="gain">0</property>
    </filter>
  </producer>
  <producer id="producer220" title="Anonymous Submission" in="00:00:00.000" out="00:03:14.400">
    <property name="length">00:03:14:11</property>
    <property name="eof">pause</property>
    <property name="resource">../../006 - Videos format youtube/Clarinettes/Anne-sonia_clarinette_totoro.mp4</property>
    <property name="audio_index">1</property>
    <property name="video_index">0</property>
    <property name="mute_on_pause">0</property>
    <property name="mlt_service">avformat-novalidate</property>
    <property name="seekable">1</property>
    <property name="aspect_ratio">1</property>
    <property name="creation_time">2020-04-05T19:51:43</property>
    <property name="shotcut:hash">4571e04128d43e4e5e43a6e2575279f6</property>
    <property name="ignore_points">0</property>
    <property name="shotcut:caption">Anne-sonia_clarinette_totoro.mp4</property>
    <property name="shotcut:skipConvert">1</property>
    <property name="global_feed">1</property>
    <property name="xml">was here</property>
    <filter id="filter390" out="00:00:26.000000" in="00:00:24.800000">
      <property name="background">colour:0</property>
      <property name="mlt_service">affine</property>
      <property name="shotcut:filter">affineSizePosition</property>
      <property name="transition.fill">1</property>
      <property name="transition.distort">0</property>
      <property name="transition.rect">00:00:00.000000=720.0 0.0 242.0 136.0 1;00:00:01.200000=960.0 0.0 241.0 136.0 1</property>
      <property name="transition.valign">top</property>
      <property name="transition.halign">left</property>
      <property name="shotcut:animIn">00:00:01.240000</property>
      <property name="shotcut:animOut">00:00:00.000</property>
      <property name="transition.threads">0</property>
    </filter>
    <filter id="filter391" out="00:00:26.000000" in="00:00:24.800000">
      <property name="window">75</property>
      <property name="max_gain">20dB</property>
      <property name="mlt_service">volume</property>
      <property name="shotcut:filter">muteVolume</property>
      <property name="gain">0</property>
    </filter>
  </producer>
  <producer id="producer221" title="Anonymous Submission" in="00:00:00.000" out="00:03:14.400">
    <property name="length">00:03:14:11</property>
    <property name="eof">pause</property>
    <property name="resource">../../006 - Videos format youtube/Clarinettes/Anne-sonia_clarinette_totoro.mp4</property>
    <property name="audio_index">1</property>
    <property name="video_index">0</property>
    <property name="mute_on_pause">0</property>
    <property name="mlt_service">avformat-novalidate</property>
    <property name="seekable">1</property>
    <property name="aspect_ratio">1</property>
    <property name="creation_time">2020-04-05T19:51:43</property>
    <property name="shotcut:hash">4571e04128d43e4e5e43a6e2575279f6</property>
    <property name="ignore_points">0</property>
    <property name="shotcut:caption">Anne-sonia_clarinette_totoro.mp4</property>
    <property name="shotcut:skipConvert">1</property>
    <property name="global_feed">1</property>
    <property name="xml">was here</property>
    <filter id="filter392" out="00:00:27.280000" in="00:00:26.040000">
      <property name="background">colour:0</property>
      <property name="mlt_service">affine</property>
      <property name="shotcut:filter">affineSizePosition</property>
      <property name="transition.fill">1</property>
      <property name="transition.distort">0</property>
      <property name="transition.rect">00:00:00.000000=960.0 0.0 242.0 136.0 1;00:00:01.200000=1200.0 0.0 241.0 136.0 1</property>
      <property name="transition.valign">top</property>
      <property name="transition.halign">left</property>
      <property name="shotcut:animIn">00:00:01.240000</property>
      <property name="shotcut:animOut">00:00:00.000</property>
      <property name="transition.threads">0</property>
    </filter>
    <filter id="filter393" out="00:00:27.280000" in="00:00:26.040000">
      <property name="window">75</property>
      <property name="max_gain">20dB</property>
      <property name="mlt_service">volume</property>
      <property name="shotcut:filter">muteVolume</property>
      <property name="gain">0</property>
    </filter>
  </producer>
  <producer id="producer222" title="Anonymous Submission" in="00:00:00.000" out="00:03:14.400">
    <property name="length">00:03:14:11</property>
    <property name="eof">pause</property>
    <property name="resource">../../006 - Videos format youtube/Clarinettes/Anne-sonia_clarinette_totoro.mp4</property>
    <property name="audio_index">1</property>
    <property name="video_index">0</property>
    <property name="mute_on_pause">0</property>
    <property name="mlt_service">avformat-novalidate</property>
    <property name="seekable">1</property>
    <property name="aspect_ratio">1</property>
    <property name="creation_time">2020-04-05T19:51:43</property>
    <property name="shotcut:hash">4571e04128d43e4e5e43a6e2575279f6</property>
    <property name="ignore_points">0</property>
    <property name="shotcut:caption">Anne-sonia_clarinette_totoro.mp4</property>
    <property name="shotcut:skipConvert">1</property>
    <property name="global_feed">1</property>
    <property name="xml">was here</property>
    <filter id="filter394" out="00:00:28.520000" in="00:00:27.320000">
      <property name="background">colour:0</property>
      <property name="mlt_service">affine</property>
      <property name="shotcut:filter">affineSizePosition</property>
      <property name="transition.fill">1</property>
      <property name="transition.distort">0</property>
      <property name="transition.rect">00:00:00.000000=1200.0 0.0 242.0 136.0 1;00:00:01.200000=1440.0 0.0 241.0 136.0 1</property>
      <property name="transition.valign">top</property>
      <property name="transition.halign">left</property>
      <property name="shotcut:animIn">00:00:01.240000</property>
      <property name="shotcut:animOut">00:00:00.000</property>
      <property name="transition.threads">0</property>
    </filter>
    <filter id="filter395" out="00:00:28.520000" in="00:00:27.320000">
      <property name="window">75</property>
      <property name="max_gain">20dB</property>
      <property name="mlt_service">volume</property>
      <property name="shotcut:filter">muteVolume</property>
      <property name="gain">0</property>
    </filter>
  </producer>
  <producer id="producer223" title="Anonymous Submission" in="00:00:00.000" out="00:03:14.400">
    <property name="length">00:03:14:11</property>
    <property name="eof">pause</property>
    <property name="resource">../../006 - Videos format youtube/Clarinettes/Anne-sonia_clarinette_totoro.mp4</property>
    <property name="audio_index">1</property>
    <property name="video_index">0</property>
    <property name="mute_on_pause">0</property>
    <property name="mlt_service">avformat-novalidate</property>
    <property name="seekable">1</property>
    <property name="aspect_ratio">1</property>
    <property name="creation_time">2020-04-05T19:51:43</property>
    <property name="shotcut:hash">4571e04128d43e4e5e43a6e2575279f6</property>
    <property name="ignore_points">0</property>
    <property name="shotcut:caption">Anne-sonia_clarinette_totoro.mp4</property>
    <property name="shotcut:skipConvert">1</property>
    <property name="global_feed">1</property>
    <property name="xml">was here</property>
    <filter id="filter396" out="00:00:29.760000" in="00:00:28.560000">
      <property name="background">colour:0</property>
      <property name="mlt_service">affine</property>
      <property name="shotcut:filter">affineSizePosition</property>
      <property name="transition.fill">1</property>
      <property name="transition.distort">0</property>
      <property name="transition.rect">00:00:00.000000=1440.0 0.0 242.0 136.0 1;00:00:01.200000=1680.0 0.0 241.0 136.0 1</property>
      <property name="transition.valign">top</property>
      <property name="transition.halign">left</property>
      <property name="shotcut:animIn">00:00:01.240000</property>
      <property name="shotcut:animOut">00:00:00.000</property>
      <property name="transition.threads">0</property>
    </filter>
    <filter id="filter397" out="00:00:29.760000" in="00:00:28.560000">
      <property name="window">75</property>
      <property name="max_gain">20dB</property>
      <property name="mlt_service">volume</property>
      <property name="shotcut:filter">muteVolume</property>
      <property name="gain">0</property>
    </filter>
  </producer>
  <producer id="producer224" title="Anonymous Submission" in="00:00:00.000" out="00:03:14.400">
    <property name="length">00:03:14:11</property>
    <property name="eof">pause</property>
    <property name="resource">../../006 - Videos format youtube/Clarinettes/Anne-sonia_clarinette_totoro.mp4</property>
    <property name="audio_index">1</property>
    <property name="video_index">0</property>
    <property name="mute_on_pause">0</property>
    <property name="mlt_service">avformat-novalidate</property>
    <property name="seekable">1</property>
    <property name="aspect_ratio">1</property>
    <property name="creation_time">2020-04-05T19:51:43</property>
    <property name="shotcut:hash">4571e04128d43e4e5e43a6e2575279f6</property>
    <property name="ignore_points">0</property>
    <property name="shotcut:caption">Anne-sonia_clarinette_totoro.mp4</property>
    <property name="shotcut:skipConvert">1</property>
    <property name="global_feed">1</property>
    <property name="xml">was here</property>
    <filter id="filter398" out="00:00:31.000000" in="00:00:29.800000">
      <property name="background">colour:0</property>
      <property name="mlt_service">affine</property>
      <property name="shotcut:filter">affineSizePosition</property>
      <property name="transition.fill">1</property>
      <property name="transition.distort">0</property>
      <property name="transition.rect">00:00:00.000000=1680.0 0.0 242.0 136.0 1;00:00:01.200000=1920.0 0.0 241.0 136.0 1</property>
      <property name="transition.valign">top</property>
      <property name="transition.halign">left</property>
      <property name="shotcut:animIn">00:00:01.240000</property>
      <property name="shotcut:animOut">00:00:00.000</property>
      <property name="transition.threads">0</property>
    </filter>
    <filter id="filter399" out="00:00:31.000000" in="00:00:29.800000">
      <property name="window">75</property>
      <property name="max_gain">20dB</property>
      <property name="mlt_service">volume</property>
      <property name="shotcut:filter">muteVolume</property>
      <property name="gain">0</property>
    </filter>
  </producer>
  <producer id="producer225" title="Anonymous Submission" in="00:00:00.000" out="00:03:14.400">
    <property name="length">00:03:14:11</property>
    <property name="eof">pause</property>
    <property name="resource">../../006 - Videos format youtube/Clarinettes/Anne-sonia_clarinette_totoro.mp4</property>
    <property name="audio_index">1</property>
    <property name="video_index">0</property>
    <property name="mute_on_pause">0</property>
    <property name="mlt_service">avformat-novalidate</property>
    <property name="seekable">1</property>
    <property name="aspect_ratio">1</property>
    <property name="creation_time">2020-04-05T19:51:43</property>
    <property name="shotcut:hash">4571e04128d43e4e5e43a6e2575279f6</property>
    <property name="ignore_points">0</property>
    <property name="shotcut:caption">Anne-sonia_clarinette_totoro.mp4</property>
    <property name="shotcut:skipConvert">1</property>
    <property name="global_feed">1</property>
    <property name="xml">was here</property>
    <filter id="filter400" out="00:00:32.280000" in="00:00:31.040000">
      <property name="background">colour:0</property>
      <property name="mlt_service">affine</property>
      <property name="shotcut:filter">affineSizePosition</property>
      <property name="transition.fill">1</property>
      <property name="transition.distort">0</property>
      <property name="transition.rect">00:00:00.000000=1920.0 0.0 242.0 136.0 1;00:00:01.200000=2160.0 0.0 241.0 136.0 1</property>
      <property name="transition.valign">top</property>
      <property name="transition.halign">left</property>
      <property name="shotcut:animIn">00:00:01.240000</property>
      <property name="shotcut:animOut">00:00:00.000</property>
      <property name="transition.threads">0</property>
    </filter>
    <filter id="filter401" out="00:00:32.280000" in="00:00:31.040000">
      <property name="window">75</property>
      <property name="max_gain">20dB</property>
      <property name="mlt_service">volume</property>
      <property name="shotcut:filter">muteVolume</property>
      <property name="gain">0</property>
    </filter>
  </producer>
  <producer id="producer226" title="Anonymous Submission" in="00:00:00.000" out="00:03:14.400">
    <property name="length">00:03:14:11</property>
    <property name="eof">pause</property>
    <property name="resource">../../006 - Videos format youtube/Clarinettes/Anne-sonia_clarinette_totoro.mp4</property>
    <property name="audio_index">1</property>
    <property name="video_index">0</property>
    <property name="mute_on_pause">0</property>
    <property name="mlt_service">avformat-novalidate</property>
    <property name="seekable">1</property>
    <property name="aspect_ratio">1</property>
    <property name="creation_time">2020-04-05T19:51:43</property>
    <property name="shotcut:hash">4571e04128d43e4e5e43a6e2575279f6</property>
    <property name="ignore_points">0</property>
    <property name="shotcut:caption">Anne-sonia_clarinette_totoro.mp4</property>
    <property name="shotcut:skipConvert">1</property>
    <property name="global_feed">1</property>
    <property name="xml">was here</property>
    <filter id="filter402" out="00:00:33.520000" in="00:00:32.320000">
      <property name="background">colour:0</property>
      <property name="mlt_service">affine</property>
      <property name="shotcut:filter">affineSizePosition</property>
      <property name="transition.fill">1</property>
      <property name="transition.distort">0</property>
      <property name="transition.rect">00:00:00.000000=2160.0 0.0 242.0 136.0 1;00:00:01.200000=2400.0 0.0 241.0 136.0 1</property>
      <property name="transition.valign">top</property>
      <property name="transition.halign">left</property>
      <property name="shotcut:animIn">00:00:01.240000</property>
      <property name="shotcut:animOut">00:00:00.000</property>
      <property name="transition.threads">0</property>
    </filter>
    <filter id="filter403" out="00:00:33.520000" in="00:00:32.320000">
      <property name="window">75</property>
      <property name="max_gain">20dB</property>
      <property name="mlt_service">volume</property>
      <property name="shotcut:filter">muteVolume</property>
      <property name="gain">0</property>
    </filter>
  </producer>
  <producer id="producer227" title="Anonymous Submission" in="00:00:00.000" out="00:03:14.400">
    <property name="length">00:03:14:11</property>
    <property name="eof">pause</property>
    <property name="resource">../../006 - Videos format youtube/Clarinettes/Anne-sonia_clarinette_totoro.mp4</property>
    <property name="audio_index">1</property>
    <property name="video_index">0</property>
    <property name="mute_on_pause">0</property>
    <property name="mlt_service">avformat-novalidate</property>
    <property name="seekable">1</property>
    <property name="aspect_ratio">1</property>
    <property name="creation_time">2020-04-05T19:51:43</property>
    <property name="shotcut:hash">4571e04128d43e4e5e43a6e2575279f6</property>
    <property name="ignore_points">0</property>
    <property name="shotcut:caption">Anne-sonia_clarinette_totoro.mp4</property>
    <property name="shotcut:skipConvert">1</property>
    <property name="global_feed">1</property>
    <property name="xml">was here</property>
    <filter id="filter404" out="00:00:34.760000" in="00:00:33.560000">
      <property name="background">colour:0</property>
      <property name="mlt_service">affine</property>
      <property name="shotcut:filter">affineSizePosition</property>
      <property name="transition.fill">1</property>
      <property name="transition.distort">0</property>
      <property name="transition.rect">00:00:00.000000=0.0 0.0 242.0 136.0 1;00:00:01.200000=240.0 0.0 241.0 136.0 1</property>
      <property name="transition.valign">top</property>
      <property name="transition.halign">left</property>
      <property name="shotcut:animIn">00:00:01.240000</property>
      <property name="shotcut:animOut">00:00:00.000</property>
      <property name="transition.threads">0</property>
    </filter>
    <filter id="filter405" out="00:00:34.760000" in="00:00:33.560000">
      <property name="window">75</property>
      <property name="max_gain">20dB</property>
      <property name="mlt_service">volume</property>
      <property name="shotcut:filter">muteVolume</property>
      <property name="gain">0</property>
    </filter>
  </producer>
  <producer id="producer228" title="Anonymous Submission" in="00:00:00.000" out="00:03:14.400">
    <property name="length">00:03:14:11</property>
    <property name="eof">pause</property>
    <property name="resource">../../006 - Videos format youtube/Clarinettes/Anne-sonia_clarinette_totoro.mp4</property>
    <property name="audio_index">1</property>
    <property name="video_index">0</property>
    <property name="mute_on_pause">0</property>
    <property name="mlt_service">avformat-novalidate</property>
    <property name="seekable">1</property>
    <property name="aspect_ratio">1</property>
    <property name="creation_time">2020-04-05T19:51:43</property>
    <property name="shotcut:hash">4571e04128d43e4e5e43a6e2575279f6</property>
    <property name="ignore_points">0</property>
    <property name="shotcut:caption">Anne-sonia_clarinette_totoro.mp4</property>
    <property name="shotcut:skipConvert">1</property>
    <property name="global_feed">1</property>
    <property name="xml">was here</property>
    <filter id="filter406" out="00:00:36.000000" in="00:00:34.800000">
      <property name="background">colour:0</property>
      <property name="mlt_service">affine</property>
      <property name="shotcut:filter">affineSizePosition</property>
      <property name="transition.fill">1</property>
      <property name="transition.distort">0</property>
      <property name="transition.rect">00:00:00.000000=240.0 0.0 242.0 136.0 1;00:00:01.200000=480.0 0.0 241.0 136.0 1</property>
      <property name="transition.valign">top</property>
      <property name="transition.halign">left</property>
      <property name="shotcut:animIn">00:00:01.240000</property>
      <property name="shotcut:animOut">00:00:00.000</property>
      <property name="transition.threads">0</property>
    </filter>
    <filter id="filter407" out="00:00:36.000000" in="00:00:34.800000">
      <property name="window">75</property>
      <property name="max_gain">20dB</property>
      <property name="mlt_service">volume</property>
      <property name="shotcut:filter">muteVolume</property>
      <property name="gain">0</property>
    </filter>
  </producer>
  <producer id="producer229" title="Anonymous Submission" in="00:00:00.000" out="00:03:14.400">
    <property name="length">00:03:14:11</property>
    <property name="eof">pause</property>
    <property name="resource">../../006 - Videos format youtube/Clarinettes/Anne-sonia_clarinette_totoro.mp4</property>
    <property name="audio_index">1</property>
    <property name="video_index">0</property>
    <property name="mute_on_pause">0</property>
    <property name="mlt_service">avformat-novalidate</property>
    <property name="seekable">1</property>
    <property name="aspect_ratio">1</property>
    <property name="creation_time">2020-04-05T19:51:43</property>
    <property name="shotcut:hash">4571e04128d43e4e5e43a6e2575279f6</property>
    <property name="ignore_points">0</property>
    <property name="shotcut:caption">Anne-sonia_clarinette_totoro.mp4</property>
    <property name="shotcut:skipConvert">1</property>
    <property name="global_feed">1</property>
    <property name="xml">was here</property>
    <filter id="filter408" out="00:00:37.280000" in="00:00:36.040000">
      <property name="background">colour:0</property>
      <property name="mlt_service">affine</property>
      <property name="shotcut:filter">affineSizePosition</property>
      <property name="transition.fill">1</property>
      <property name="transition.distort">0</property>
      <property name="transition.rect">00:00:00.000000=480.0 0.0 242.0 136.0 1;00:00:01.200000=720.0 0.0 241.0 136.0 1</property>
      <property name="transition.valign">top</property>
      <property name="transition.halign">left</property>
      <property name="shotcut:animIn">00:00:01.240000</property>
      <property name="shotcut:animOut">00:00:00.000</property>
      <property name="transition.threads">0</property>
    </filter>
    <filter id="filter409" out="00:00:37.280000" in="00:00:36.040000">
      <property name="window">75</property>
      <property name="max_gain">20dB</property>
      <property name="mlt_service">volume</property>
      <property name="shotcut:filter">muteVolume</property>
      <property name="gain">0</property>
    </filter>
  </producer>
  <producer id="producer230" title="Anonymous Submission" in="00:00:00.000" out="00:03:14.400">
    <property name="length">00:03:14:11</property>
    <property name="eof">pause</property>
    <property name="resource">../../006 - Videos format youtube/Clarinettes/Anne-sonia_clarinette_totoro.mp4</property>
    <property name="audio_index">1</property>
    <property name="video_index">0</property>
    <property name="mute_on_pause">0</property>
    <property name="mlt_service">avformat-novalidate</property>
    <property name="seekable">1</property>
    <property name="aspect_ratio">1</property>
    <property name="creation_time">2020-04-05T19:51:43</property>
    <property name="shotcut:hash">4571e04128d43e4e5e43a6e2575279f6</property>
    <property name="ignore_points">0</property>
    <property name="shotcut:caption">Anne-sonia_clarinette_totoro.mp4</property>
    <property name="shotcut:skipConvert">1</property>
    <property name="global_feed">1</property>
    <property name="xml">was here</property>
    <filter id="filter410" out="00:00:38.520000" in="00:00:37.320000">
      <property name="background">colour:0</property>
      <property name="mlt_service">affine</property>
      <property name="shotcut:filter">affineSizePosition</property>
      <property name="transition.fill">1</property>
      <property name="transition.distort">0</property>
      <property name="transition.rect">00:00:00.000000=720.0 0.0 242.0 136.0 1;00:00:01.200000=960.0 0.0 241.0 136.0 1</property>
      <property name="transition.valign">top</property>
      <property name="transition.halign">left</property>
      <property name="shotcut:animIn">00:00:01.240000</property>
      <property name="shotcut:animOut">00:00:00.000</property>
      <property name="transition.threads">0</property>
    </filter>
    <filter id="filter411" out="00:00:38.520000" in="00:00:37.320000">
      <property name="window">75</property>
      <property name="max_gain">20dB</property>
      <property name="mlt_service">volume</property>
      <property name="shotcut:filter">muteVolume</property>
      <property name="gain">0</property>
    </filter>
  </producer>
  <producer id="producer231" title="Anonymous Submission" in="00:00:00.000" out="00:03:14.400">
    <property name="length">00:03:14:11</property>
    <property name="eof">pause</property>
    <property name="resource">../../006 - Videos format youtube/Clarinettes/Anne-sonia_clarinette_totoro.mp4</property>
    <property name="audio_index">1</property>
    <property name="video_index">0</property>
    <property name="mute_on_pause">0</property>
    <property name="mlt_service">avformat-novalidate</property>
    <property name="seekable">1</property>
    <property name="aspect_ratio">1</property>
    <property name="creation_time">2020-04-05T19:51:43</property>
    <property name="shotcut:hash">4571e04128d43e4e5e43a6e2575279f6</property>
    <property name="ignore_points">0</property>
    <property name="shotcut:caption">Anne-sonia_clarinette_totoro.mp4</property>
    <property name="shotcut:skipConvert">1</property>
    <property name="global_feed">1</property>
    <property name="xml">was here</property>
    <filter id="filter412" out="00:00:39.760000" in="00:00:38.560000">
      <property name="background">colour:0</property>
      <property name="mlt_service">affine</property>
      <property name="shotcut:filter">affineSizePosition</property>
      <property name="transition.fill">1</property>
      <property name="transition.distort">0</property>
      <property name="transition.rect">00:00:00.000000=960.0 0.0 242.0 136.0 1;00:00:01.200000=1200.0 0.0 241.0 136.0 1</property>
      <property name="transition.valign">top</property>
      <property name="transition.halign">left</property>
      <property name="shotcut:animIn">00:00:01.240000</property>
      <property name="shotcut:animOut">00:00:00.000</property>
      <property name="transition.threads">0</property>
    </filter>
    <filter id="filter413" out="00:00:39.760000" in="00:00:38.560000">
      <property name="window">75</property>
      <property name="max_gain">20dB</property>
      <property name="mlt_service">volume</property>
      <property name="shotcut:filter">muteVolume</property>
      <property name="gain">0</property>
    </filter>
  </producer>
  <producer id="producer232" title="Anonymous Submission" in="00:00:00.000" out="00:03:14.400">
    <property name="length">00:03:14:11</property>
    <property name="eof">pause</property>
    <property name="resource">../../006 - Videos format youtube/Clarinettes/Anne-sonia_clarinette_totoro.mp4</property>
    <property name="audio_index">1</property>
    <property name="video_index">0</property>
    <property name="mute_on_pause">0</property>
    <property name="mlt_service">avformat-novalidate</property>
    <property name="seekable">1</property>
    <property name="aspect_ratio">1</property>
    <property name="creation_time">2020-04-05T19:51:43</property>
    <property name="shotcut:hash">4571e04128d43e4e5e43a6e2575279f6</property>
    <property name="ignore_points">0</property>
    <property name="shotcut:caption">Anne-sonia_clarinette_totoro.mp4</property>
    <property name="shotcut:skipConvert">1</property>
    <property name="global_feed">1</property>
    <property name="xml">was here</property>
    <filter id="filter414" out="00:00:41.000000" in="00:00:39.800000">
      <property name="background">colour:0</property>
      <property name="mlt_service">affine</property>
      <property name="shotcut:filter">affineSizePosition</property>
      <property name="transition.fill">1</property>
      <property name="transition.distort">0</property>
      <property name="transition.rect">00:00:00.000000=1200.0 0.0 242.0 136.0 1;00:00:01.200000=1440.0 0.0 241.0 136.0 1</property>
      <property name="transition.valign">top</property>
      <property name="transition.halign">left</property>
      <property name="shotcut:animIn">00:00:01.240000</property>
      <property name="shotcut:animOut">00:00:00.000</property>
      <property name="transition.threads">0</property>
    </filter>
    <filter id="filter415" out="00:00:41.000000" in="00:00:39.800000">
      <property name="window">75</property>
      <property name="max_gain">20dB</property>
      <property name="mlt_service">volume</property>
      <property name="shotcut:filter">muteVolume</property>
      <property name="gain">0</property>
    </filter>
  </producer>
  <producer id="producer233" title="Anonymous Submission" in="00:00:00.000" out="00:03:14.400">
    <property name="length">00:03:14:11</property>
    <property name="eof">pause</property>
    <property name="resource">../../006 - Videos format youtube/Clarinettes/Anne-sonia_clarinette_totoro.mp4</property>
    <property name="audio_index">1</property>
    <property name="video_index">0</property>
    <property name="mute_on_pause">0</property>
    <property name="mlt_service">avformat-novalidate</property>
    <property name="seekable">1</property>
    <property name="aspect_ratio">1</property>
    <property name="creation_time">2020-04-05T19:51:43</property>
    <property name="shotcut:hash">4571e04128d43e4e5e43a6e2575279f6</property>
    <property name="ignore_points">0</property>
    <property name="shotcut:caption">Anne-sonia_clarinette_totoro.mp4</property>
    <property name="shotcut:skipConvert">1</property>
    <property name="global_feed">1</property>
    <property name="xml">was here</property>
    <filter id="filter416" out="00:00:56.280000" in="00:00:41.040000">
      <property name="background">colour:0</property>
      <property name="mlt_service">affine</property>
      <property name="shotcut:filter">affineSizePosition</property>
      <property name="transition.fill">1</property>
      <property name="transition.distort">0</property>
      <property name="transition.rect">00:00:00.000000=1440.0 0.0 242.0 136.0 1;00:00:01.200000=1680.0 0.0 241.0 136.0 1</property>
      <property name="transition.valign">top</property>
      <property name="transition.halign">left</property>
      <property name="shotcut:animIn">00:00:01.240000</property>
      <property name="shotcut:animOut">00:00:00.000</property>
      <property name="transition.threads">0</property>
    </filter>
    <filter id="filter417" out="00:00:56.280000" in="00:00:41.040000">
      <property name="window">75</property>
      <property name="max_gain">20dB</property>
      <property name="mlt_service">volume</property>
      <property name="shotcut:filter">muteVolume</property>
      <property name="gain">0</property>
    </filter>
  </producer>
  <producer id="producer234" title="Anonymous Submission" in="00:00:00.000" out="00:03:14.400">
    <property name="length">00:03:14:11</property>
    <property name="eof">pause</property>
    <property name="resource">../../006 - Videos format youtube/Clarinettes/Anne-sonia_clarinette_totoro.mp4</property>
    <property name="audio_index">1</property>
    <property name="video_index">0</property>
    <property name="mute_on_pause">0</property>
    <property name="mlt_service">avformat-novalidate</property>
    <property name="seekable">1</property>
    <property name="aspect_ratio">1</property>
    <property name="creation_time">2020-04-05T19:51:43</property>
    <property name="shotcut:hash">4571e04128d43e4e5e43a6e2575279f6</property>
    <property name="ignore_points">0</property>
    <property name="shotcut:caption">Anne-sonia_clarinette_totoro.mp4</property>
    <property name="shotcut:skipConvert">1</property>
    <property name="global_feed">1</property>
    <property name="xml">was here</property>
    <filter id="filter418" out="00:01:04.280000" in="00:00:56.320000">
      <property name="background">colour:0</property>
      <property name="mlt_service">affine</property>
      <property name="shotcut:filter">affineSizePosition</property>
      <property name="transition.fill">1</property>
      <property name="transition.distort">0</property>
      <property name="transition.rect">-1371.0 -462.0 275.0 155.0 1</property>
      <property name="transition.valign">top</property>
      <property name="transition.halign">left</property>
      <property name="shotcut:animIn">00:00:01.240000</property>
      <property name="shotcut:animOut">00:00:00.000</property>
      <property name="transition.threads">0</property>
    </filter>
    <filter id="filter419" out="00:01:04.280000" in="00:00:56.320000">
      <property name="window">75</property>
      <property name="max_gain">20dB</property>
      <property name="mlt_service">volume</property>
      <property name="shotcut:filter">muteVolume</property>
      <property name="gain">0</property>
    </filter>
  </producer>
  <producer id="producer235" title="Anonymous Submission" in="00:00:00.000" out="00:03:14.400">
    <property name="length">00:03:14:11</property>
    <property name="eof">pause</property>
    <property name="resource">../../006 - Videos format youtube/Clarinettes/Anne-sonia_clarinette_totoro.mp4</property>
    <property name="audio_index">1</property>
    <property name="video_index">0</property>
    <property name="mute_on_pause">0</property>
    <property name="mlt_service">avformat-novalidate</property>
    <property name="seekable">1</property>
    <property name="aspect_ratio">1</property>
    <property name="creation_time">2020-04-05T19:51:43</property>
    <property name="shotcut:hash">4571e04128d43e4e5e43a6e2575279f6</property>
    <property name="ignore_points">0</property>
    <property name="shotcut:caption">Anne-sonia_clarinette_totoro.mp4</property>
    <property name="shotcut:skipConvert">1</property>
    <property name="global_feed">1</property>
    <property name="xml">was here</property>
    <filter id="filter420" out="00:01:12.280000" in="00:01:04.320000">
      <property name="background">colour:0</property>
      <property name="mlt_service">affine</property>
      <property name="shotcut:filter">affineSizePosition</property>
      <property name="transition.fill">1</property>
      <property name="transition.distort">0</property>
      <property name="transition.rect">822.0 0.0 275.0 155.0 1</property>
      <property name="transition.valign">top</property>
      <property name="transition.halign">left</property>
      <property name="shotcut:animIn">00:00:01.240000</property>
      <property name="shotcut:animOut">00:00:00.000</property>
      <property name="transition.threads">0</property>
    </filter>
    <filter id="filter421" out="00:01:12.280000" in="00:01:04.320000">
      <property name="window">75</property>
      <property name="max_gain">20dB</property>
      <property name="mlt_service">volume</property>
      <property name="shotcut:filter">muteVolume</property>
      <property name="gain">0</property>
    </filter>
  </producer>
  <producer id="producer236" title="Anonymous Submission" in="00:00:00.000" out="00:03:14.400">
    <property name="length">00:03:14:11</property>
    <property name="eof">pause</property>
    <property name="resource">../../006 - Videos format youtube/Clarinettes/Anne-sonia_clarinette_totoro.mp4</property>
    <property name="audio_index">1</property>
    <property name="video_index">0</property>
    <property name="mute_on_pause">0</property>
    <property name="mlt_service">avformat-novalidate</property>
    <property name="seekable">1</property>
    <property name="aspect_ratio">1</property>
    <property name="creation_time">2020-04-05T19:51:43</property>
    <property name="shotcut:hash">4571e04128d43e4e5e43a6e2575279f6</property>
    <property name="ignore_points">0</property>
    <property name="shotcut:caption">Anne-sonia_clarinette_totoro.mp4</property>
    <property name="shotcut:skipConvert">1</property>
    <property name="global_feed">1</property>
    <property name="xml">was here</property>
    <filter id="filter422" out="00:01:19.280000" in="00:01:12.320000">
      <property name="background">colour:0</property>
      <property name="mlt_service">affine</property>
      <property name="shotcut:filter">affineSizePosition</property>
      <property name="transition.fill">1</property>
      <property name="transition.distort">0</property>
      <property name="transition.rect">0.0 900.0 321.0 181.0 1</property>
      <property name="transition.valign">top</property>
      <property name="transition.halign">left</property>
      <property name="shotcut:animIn">00:00:01.240000</property>
      <property name="shotcut:animOut">00:00:00.000</property>
      <property name="transition.threads">0</property>
    </filter>
    <filter id="filter423" out="00:01:19.280000" in="00:01:12.320000">
      <property name="window">75</property>
      <property name="max_gain">20dB</property>
      <property name="mlt_service">volume</property>
      <property name="shotcut:filter">muteVolume</property>
      <property name="gain">0</property>
    </filter>
  </producer>
  <producer id="producer237" title="Anonymous Submission" in="00:00:00.000" out="00:03:14.400">
    <property name="length">00:03:14:11</property>
    <property name="eof">pause</property>
    <property name="resource">../../006 - Videos format youtube/Clarinettes/Anne-sonia_clarinette_totoro.mp4</property>
    <property name="audio_index">1</property>
    <property name="video_index">0</property>
    <property name="mute_on_pause">0</property>
    <property name="mlt_service">avformat-novalidate</property>
    <property name="seekable">1</property>
    <property name="aspect_ratio">1</property>
    <property name="creation_time">2020-04-05T19:51:43</property>
    <property name="shotcut:hash">4571e04128d43e4e5e43a6e2575279f6</property>
    <property name="ignore_points">0</property>
    <property name="shotcut:caption">Anne-sonia_clarinette_totoro.mp4</property>
    <property name="shotcut:skipConvert">1</property>
    <property name="global_feed">1</property>
    <property name="xml">was here</property>
    <filter id="filter424" out="00:01:27.280000" in="00:01:19.320000">
      <property name="background">colour:0</property>
      <property name="mlt_service">affine</property>
      <property name="shotcut:filter">affineSizePosition</property>
      <property name="transition.fill">1</property>
      <property name="transition.distort">0</property>
      <property name="transition.rect">0.0 -1260.0 321.0 181.0 1</property>
      <property name="transition.valign">top</property>
      <property name="transition.halign">left</property>
      <property name="shotcut:animIn">00:00:01.240000</property>
      <property name="shotcut:animOut">00:00:00.000</property>
      <property name="transition.threads">0</property>
    </filter>
    <filter id="filter425" out="00:01:27.280000" in="00:01:19.320000">
      <property name="window">75</property>
      <property name="max_gain">20dB</property>
      <property name="mlt_service">volume</property>
      <property name="shotcut:filter">muteVolume</property>
      <property name="gain">0</property>
    </filter>
  </producer>
  <producer id="producer238" title="Anonymous Submission" in="00:00:00.000" out="00:03:14.400">
    <property name="length">00:03:14:11</property>
    <property name="eof">pause</property>
    <property name="resource">../../006 - Videos format youtube/Clarinettes/Anne-sonia_clarinette_totoro.mp4</property>
    <property name="audio_index">1</property>
    <property name="video_index">0</property>
    <property name="mute_on_pause">0</property>
    <property name="mlt_service">avformat-novalidate</property>
    <property name="seekable">1</property>
    <property name="aspect_ratio">1</property>
    <property name="creation_time">2020-04-05T19:51:43</property>
    <property name="shotcut:hash">4571e04128d43e4e5e43a6e2575279f6</property>
    <property name="ignore_points">0</property>
    <property name="shotcut:caption">Anne-sonia_clarinette_totoro.mp4</property>
    <property name="shotcut:skipConvert">1</property>
    <property name="global_feed">1</property>
    <property name="xml">was here</property>
    <filter id="filter426" out="00:01:36.280000" in="00:01:27.320000">
      <property name="background">colour:0</property>
      <property name="mlt_service">affine</property>
      <property name="shotcut:filter">affineSizePosition</property>
      <property name="transition.fill">1</property>
      <property name="transition.distort">0</property>
      <property name="transition.rect">0.0 0.0 275.0 155.0 1</property>
      <property name="transition.valign">top</property>
      <property name="transition.halign">left</property>
      <property name="shotcut:animIn">00:00:01.240000</property>
      <property name="shotcut:animOut">00:00:00.000</property>
      <property name="transition.threads">0</property>
    </filter>
    <filter id="filter427" out="00:01:36.280000" in="00:01:27.320000">
      <property name="window">75</property>
      <property name="max_gain">20dB</property>
      <property name="mlt_service">volume</property>
      <property name="shotcut:filter">muteVolume</property>
      <property name="gain">0</property>
    </filter>
  </producer>
  <producer id="producer239" title="Anonymous Submission" in="00:00:00.000" out="00:03:14.400">
    <property name="length">00:03:14:11</property>
    <property name="eof">pause</property>
    <property name="resource">../../006 - Videos format youtube/Clarinettes/Anne-sonia_clarinette_totoro.mp4</property>
    <property name="audio_index">1</property>
    <property name="video_index">0</property>
    <property name="mute_on_pause">0</property>
    <property name="mlt_service">avformat-novalidate</property>
    <property name="seekable">1</property>
    <property name="aspect_ratio">1</property>
    <property name="creation_time">2020-04-05T19:51:43</property>
    <property name="shotcut:hash">4571e04128d43e4e5e43a6e2575279f6</property>
    <property name="ignore_points">0</property>
    <property name="shotcut:caption">Anne-sonia_clarinette_totoro.mp4</property>
    <property name="shotcut:skipConvert">1</property>
    <property name="global_feed">1</property>
    <property name="xml">was here</property>
    <filter id="filter428" out="00:01:43.280000" in="00:01:36.320000">
      <property name="background">colour:0</property>
      <property name="mlt_service">affine</property>
      <property name="shotcut:filter">affineSizePosition</property>
      <property name="transition.fill">1</property>
      <property name="transition.distort">0</property>
      <property name="transition.rect">-548.0 -308.0 275.0 155.0 1</property>
      <property name="transition.valign">top</property>
      <property name="transition.halign">left</property>
      <property name="shotcut:animIn">00:00:01.240000</property>
      <property name="shotcut:animOut">00:00:00.000</property>
      <property name="transition.threads">0</property>
    </filter>
    <filter id="filter429" out="00:01:43.280000" in="00:01:36.320000">
      <property name="window">75</property>
      <property name="max_gain">20dB</property>
      <property name="mlt_service">volume</property>
      <property name="shotcut:filter">muteVolume</property>
      <property name="gain">0</property>
    </filter>
  </producer>
  <producer id="producer240" title="Anonymous Submission" in="00:00:00.000" out="00:03:14.400">
    <property name="length">00:03:14:11</property>
    <property name="eof">pause</property>
    <property name="resource">../../006 - Videos format youtube/Clarinettes/Anne-sonia_clarinette_totoro.mp4</property>
    <property name="audio_index">1</property>
    <property name="video_index">0</property>
    <property name="mute_on_pause">0</property>
    <property name="mlt_service">avformat-novalidate</property>
    <property name="seekable">1</property>
    <property name="aspect_ratio">1</property>
    <property name="creation_time">2020-04-05T19:51:43</property>
    <property name="shotcut:hash">4571e04128d43e4e5e43a6e2575279f6</property>
    <property name="ignore_points">0</property>
    <property name="shotcut:caption">Anne-sonia_clarinette_totoro.mp4</property>
    <property name="shotcut:skipConvert">1</property>
    <property name="global_feed">1</property>
    <property name="xml">was here</property>
    <filter id="filter430" out="00:03:14.400000" in="00:01:43.320000">
      <property name="background">colour:0</property>
      <property name="mlt_service">affine</property>
      <property name="shotcut:filter">affineSizePosition</property>
      <property name="transition.fill">1</property>
      <property name="transition.distort">0</property>
      <property name="transition.rect">4000.0 0.0 321.0 181.0 1</property>
      <property name="transition.valign">top</property>
      <property name="transition.halign">left</property>
      <property name="shotcut:animIn">00:00:01.240000</property>
      <property name="shotcut:animOut">00:00:00.000</property>
      <property name="transition.threads">0</property>
    </filter>
    <filter id="filter431" out="00:03:14.400000" in="00:01:43.320000">
      <property name="window">75</property>
      <property name="max_gain">20dB</property>
      <property name="mlt_service">volume</property>
      <property name="shotcut:filter">muteVolume</property>
      <property name="gain">0</property>
    </filter>
  </producer>
  <playlist id="playlist14">
    <property name="shotcut:video">1</property>
    <property name="shotcut:name">Anne-Sonia_clar 2?</property>
    <property name="shotcut:lock">1</property>
    <blank length="00:00:07.680" />
    <entry producer="producer216" in="00:00:00.000" out="00:00:15.280000" />
    <entry producer="producer217" in="00:00:15.320000" out="00:00:22.280000" />
    <entry producer="producer218" in="00:00:22.320000" out="00:00:23.520000" />
    <entry producer="producer219" in="00:00:23.560000" out="00:00:24.760000" />
    <entry producer="producer220" in="00:00:24.800000" out="00:00:26.000000" />
    <entry producer="producer221" in="00:00:26.040000" out="00:00:27.280000" />
    <entry producer="producer222" in="00:00:27.320000" out="00:00:28.520000" />
    <entry producer="producer223" in="00:00:28.560000" out="00:00:29.760000" />
    <entry producer="producer224" in="00:00:29.800000" out="00:00:31.000000" />
    <entry producer="producer225" in="00:00:31.040000" out="00:00:32.280000" />
    <entry producer="producer226" in="00:00:32.320000" out="00:00:33.520000" />
    <entry producer="producer227" in="00:00:33.560000" out="00:00:34.760000" />
    <entry producer="producer228" in="00:00:34.800000" out="00:00:36.000000" />
    <entry producer="producer229" in="00:00:36.040000" out="00:00:37.280000" />
    <entry producer="producer230" in="00:00:37.320000" out="00:00:38.520000" />
    <entry producer="producer231" in="00:00:38.560000" out="00:00:39.760000" />
    <entry producer="producer232" in="00:00:39.800000" out="00:00:41.000000" />
    <entry producer="producer233" in="00:00:41.040000" out="00:00:56.280000" />
    <entry producer="producer234" in="00:00:56.320000" out="00:01:04.280000" />
    <entry producer="producer235" in="00:01:04.320000" out="00:01:12.280000" />
    <entry producer="producer236" in="00:01:12.320000" out="00:01:19.280000" />
    <entry producer="producer237" in="00:01:19.320000" out="00:01:27.280000" />
    <entry producer="producer238" in="00:01:27.320000" out="00:01:36.280000" />
    <entry producer="producer239" in="00:01:36.320000" out="00:01:43.280000" />
    <entry producer="producer240" in="00:01:43.320000" out="00:03:14.400000" />
    <filter id="filter432" out="00:03:23.320">
      <property name="window">75</property>
      <property name="max_gain">20dB</property>
      <property name="level">-11</property>
      <property name="mlt_service">volume</property>
    </filter>
  </playlist>
  <producer id="producer241" title="Anonymous Submission" in="00:00:00.000" out="00:03:09.640">
    <property name="length">00:03:09:17</property>
    <property name="eof">pause</property>
    <property name="resource">../../006 - Videos format youtube/Clarinettes/Stephane_clarinette_totoro.mp4</property>
    <property name="audio_index">1</property>
    <property name="video_index">0</property>
    <property name="mute_on_pause">0</property>
    <property name="mlt_service">avformat-novalidate</property>
    <property name="seekable">1</property>
    <property name="aspect_ratio">1</property>
    <property name="creation_time">2020-04-13T11:40:34</property>
    <property name="shotcut:hash">9a40f89235cfd4458835cfec463e07c8</property>
    <property name="ignore_points">0</property>
    <property name="shotcut:caption">Stephane_clarinette_totoro.mp4</property>
    <property name="shotcut:skipConvert">1</property>
    <property name="global_feed">1</property>
    <property name="xml">was here</property>
    <filter id="filter433" out="00:00:12.760000">
      <property name="background">colour:0</property>
      <property name="mlt_service">affine</property>
      <property name="shotcut:filter">affineSizePosition</property>
      <property name="transition.fill">1</property>
      <property name="transition.distort">0</property>
      <property name="transition.rect">0.0 154.0 275.0 155.0 1</property>
      <property name="transition.valign">top</property>
      <property name="transition.halign">left</property>
      <property name="shotcut:animIn">00:00:00.000</property>
      <property name="shotcut:animOut">00:00:00.000</property>
      <property name="transition.threads">0</property>
    </filter>
    <filter id="filter434" out="00:00:12.760000">
      <property name="window">75</property>
      <property name="max_gain">20dB</property>
      <property name="mlt_service">volume</property>
      <property name="shotcut:filter">muteVolume</property>
      <property name="gain">0</property>
    </filter>
  </producer>
  <producer id="producer242" title="Anonymous Submission" in="00:00:00.000" out="00:03:09.640">
    <property name="length">00:03:09:17</property>
    <property name="eof">pause</property>
    <property name="resource">../../006 - Videos format youtube/Clarinettes/Stephane_clarinette_totoro.mp4</property>
    <property name="audio_index">1</property>
    <property name="video_index">0</property>
    <property name="mute_on_pause">0</property>
    <property name="mlt_service">avformat-novalidate</property>
    <property name="seekable">1</property>
    <property name="aspect_ratio">1</property>
    <property name="creation_time">2020-04-13T11:40:34</property>
    <property name="shotcut:hash">9a40f89235cfd4458835cfec463e07c8</property>
    <property name="ignore_points">0</property>
    <property name="shotcut:caption">Stephane_clarinette_totoro.mp4</property>
    <property name="shotcut:skipConvert">1</property>
    <property name="global_feed">1</property>
    <property name="xml">was here</property>
    <filter id="filter435" out="00:00:19.760000" in="00:00:12.800000">
      <property name="background">colour:0</property>
      <property name="mlt_service">affine</property>
      <property name="shotcut:filter">affineSizePosition</property>
      <property name="transition.fill">1</property>
      <property name="transition.distort">0</property>
      <property name="transition.rect">00:00:00.000000=0.0 154.0 276.0 155.0 1;00:00:00.440000=1645.0 925.0 275.0 155.0 1</property>
      <property name="transition.valign">top</property>
      <property name="transition.halign">left</property>
      <property name="shotcut:animIn">00:00:00.480000</property>
      <property name="shotcut:animOut">00:00:00.000</property>
      <property name="transition.threads">0</property>
    </filter>
    <filter id="filter436" out="00:00:19.760000" in="00:00:12.800000">
      <property name="window">75</property>
      <property name="max_gain">20dB</property>
      <property name="mlt_service">volume</property>
      <property name="shotcut:filter">muteVolume</property>
      <property name="gain">0</property>
    </filter>
  </producer>
  <producer id="producer243" title="Anonymous Submission" in="00:00:00.000" out="00:03:09.640">
    <property name="length">00:03:09:17</property>
    <property name="eof">pause</property>
    <property name="resource">../../006 - Videos format youtube/Clarinettes/Stephane_clarinette_totoro.mp4</property>
    <property name="audio_index">1</property>
    <property name="video_index">0</property>
    <property name="mute_on_pause">0</property>
    <property name="mlt_service">avformat-novalidate</property>
    <property name="seekable">1</property>
    <property name="aspect_ratio">1</property>
    <property name="creation_time">2020-04-13T11:40:34</property>
    <property name="shotcut:hash">9a40f89235cfd4458835cfec463e07c8</property>
    <property name="ignore_points">0</property>
    <property name="shotcut:caption">Stephane_clarinette_totoro.mp4</property>
    <property name="shotcut:skipConvert">1</property>
    <property name="global_feed">1</property>
    <property name="xml">was here</property>
    <filter id="filter437" out="00:00:21.000000" in="00:00:19.800000">
      <property name="background">colour:0</property>
      <property name="mlt_service">affine</property>
      <property name="shotcut:filter">affineSizePosition</property>
      <property name="transition.fill">1</property>
      <property name="transition.distort">0</property>
      <property name="transition.rect">00:00:00.000000=1920.0 0.0 242.0 136.0 1;00:00:01.200000=2160.0 0.0 241.0 136.0 1</property>
      <property name="transition.valign">top</property>
      <property name="transition.halign">left</property>
      <property name="shotcut:animIn">00:00:01.240000</property>
      <property name="shotcut:animOut">00:00:00.000</property>
      <property name="transition.threads">0</property>
    </filter>
    <filter id="filter438" out="00:00:21.000000" in="00:00:19.800000">
      <property name="window">75</property>
      <property name="max_gain">20dB</property>
      <property name="mlt_service">volume</property>
      <property name="shotcut:filter">muteVolume</property>
      <property name="gain">0</property>
    </filter>
  </producer>
  <producer id="producer244" title="Anonymous Submission" in="00:00:00.000" out="00:03:09.640">
    <property name="length">00:03:09:17</property>
    <property name="eof">pause</property>
    <property name="resource">../../006 - Videos format youtube/Clarinettes/Stephane_clarinette_totoro.mp4</property>
    <property name="audio_index">1</property>
    <property name="video_index">0</property>
    <property name="mute_on_pause">0</property>
    <property name="mlt_service">avformat-novalidate</property>
    <property name="seekable">1</property>
    <property name="aspect_ratio">1</property>
    <property name="creation_time">2020-04-13T11:40:34</property>
    <property name="shotcut:hash">9a40f89235cfd4458835cfec463e07c8</property>
    <property name="ignore_points">0</property>
    <property name="shotcut:caption">Stephane_clarinette_totoro.mp4</property>
    <property name="shotcut:skipConvert">1</property>
    <property name="global_feed">1</property>
    <property name="xml">was here</property>
    <filter id="filter439" out="00:00:22.240000" in="00:00:21.040000">
      <property name="background">colour:0</property>
      <property name="mlt_service">affine</property>
      <property name="shotcut:filter">affineSizePosition</property>
      <property name="transition.fill">1</property>
      <property name="transition.distort">0</property>
      <property name="transition.rect">00:00:00.000000=2160.0 0.0 242.0 136.0 1;00:00:01.200000=2400.0 0.0 241.0 136.0 1</property>
      <property name="transition.valign">top</property>
      <property name="transition.halign">left</property>
      <property name="shotcut:animIn">00:00:01.240000</property>
      <property name="shotcut:animOut">00:00:00.000</property>
      <property name="transition.threads">0</property>
    </filter>
    <filter id="filter440" out="00:00:22.240000" in="00:00:21.040000">
      <property name="window">75</property>
      <property name="max_gain">20dB</property>
      <property name="mlt_service">volume</property>
      <property name="shotcut:filter">muteVolume</property>
      <property name="gain">0</property>
    </filter>
  </producer>
  <producer id="producer245" title="Anonymous Submission" in="00:00:00.000" out="00:03:09.640">
    <property name="length">00:03:09:17</property>
    <property name="eof">pause</property>
    <property name="resource">../../006 - Videos format youtube/Clarinettes/Stephane_clarinette_totoro.mp4</property>
    <property name="audio_index">1</property>
    <property name="video_index">0</property>
    <property name="mute_on_pause">0</property>
    <property name="mlt_service">avformat-novalidate</property>
    <property name="seekable">1</property>
    <property name="aspect_ratio">1</property>
    <property name="creation_time">2020-04-13T11:40:34</property>
    <property name="shotcut:hash">9a40f89235cfd4458835cfec463e07c8</property>
    <property name="ignore_points">0</property>
    <property name="shotcut:caption">Stephane_clarinette_totoro.mp4</property>
    <property name="shotcut:skipConvert">1</property>
    <property name="global_feed">1</property>
    <property name="xml">was here</property>
    <filter id="filter441" out="00:00:23.480000" in="00:00:22.280000">
      <property name="background">colour:0</property>
      <property name="mlt_service">affine</property>
      <property name="shotcut:filter">affineSizePosition</property>
      <property name="transition.fill">1</property>
      <property name="transition.distort">0</property>
      <property name="transition.rect">00:00:00.000000=0.0 0.0 242.0 136.0 1;00:00:01.200000=240.0 0.0 241.0 136.0 1</property>
      <property name="transition.valign">top</property>
      <property name="transition.halign">left</property>
      <property name="shotcut:animIn">00:00:01.240000</property>
      <property name="shotcut:animOut">00:00:00.000</property>
      <property name="transition.threads">0</property>
    </filter>
    <filter id="filter442" out="00:00:23.480000" in="00:00:22.280000">
      <property name="window">75</property>
      <property name="max_gain">20dB</property>
      <property name="mlt_service">volume</property>
      <property name="shotcut:filter">muteVolume</property>
      <property name="gain">0</property>
    </filter>
  </producer>
  <producer id="producer246" title="Anonymous Submission" in="00:00:00.000" out="00:03:09.640">
    <property name="length">00:03:09:17</property>
    <property name="eof">pause</property>
    <property name="resource">../../006 - Videos format youtube/Clarinettes/Stephane_clarinette_totoro.mp4</property>
    <property name="audio_index">1</property>
    <property name="video_index">0</property>
    <property name="mute_on_pause">0</property>
    <property name="mlt_service">avformat-novalidate</property>
    <property name="seekable">1</property>
    <property name="aspect_ratio">1</property>
    <property name="creation_time">2020-04-13T11:40:34</property>
    <property name="shotcut:hash">9a40f89235cfd4458835cfec463e07c8</property>
    <property name="ignore_points">0</property>
    <property name="shotcut:caption">Stephane_clarinette_totoro.mp4</property>
    <property name="shotcut:skipConvert">1</property>
    <property name="global_feed">1</property>
    <property name="xml">was here</property>
    <filter id="filter443" out="00:00:24.760000" in="00:00:23.520000">
      <property name="background">colour:0</property>
      <property name="mlt_service">affine</property>
      <property name="shotcut:filter">affineSizePosition</property>
      <property name="transition.fill">1</property>
      <property name="transition.distort">0</property>
      <property name="transition.rect">00:00:00.000000=240.0 0.0 242.0 136.0 1;00:00:01.200000=480.0 0.0 241.0 136.0 1</property>
      <property name="transition.valign">top</property>
      <property name="transition.halign">left</property>
      <property name="shotcut:animIn">00:00:01.240000</property>
      <property name="shotcut:animOut">00:00:00.000</property>
      <property name="transition.threads">0</property>
    </filter>
    <filter id="filter444" out="00:00:24.760000" in="00:00:23.520000">
      <property name="window">75</property>
      <property name="max_gain">20dB</property>
      <property name="mlt_service">volume</property>
      <property name="shotcut:filter">muteVolume</property>
      <property name="gain">0</property>
    </filter>
  </producer>
  <producer id="producer247" title="Anonymous Submission" in="00:00:00.000" out="00:03:09.640">
    <property name="length">00:03:09:17</property>
    <property name="eof">pause</property>
    <property name="resource">../../006 - Videos format youtube/Clarinettes/Stephane_clarinette_totoro.mp4</property>
    <property name="audio_index">1</property>
    <property name="video_index">0</property>
    <property name="mute_on_pause">0</property>
    <property name="mlt_service">avformat-novalidate</property>
    <property name="seekable">1</property>
    <property name="aspect_ratio">1</property>
    <property name="creation_time">2020-04-13T11:40:34</property>
    <property name="shotcut:hash">9a40f89235cfd4458835cfec463e07c8</property>
    <property name="ignore_points">0</property>
    <property name="shotcut:caption">Stephane_clarinette_totoro.mp4</property>
    <property name="shotcut:skipConvert">1</property>
    <property name="global_feed">1</property>
    <property name="xml">was here</property>
    <filter id="filter445" out="00:00:26.000000" in="00:00:24.800000">
      <property name="background">colour:0</property>
      <property name="mlt_service">affine</property>
      <property name="shotcut:filter">affineSizePosition</property>
      <property name="transition.fill">1</property>
      <property name="transition.distort">0</property>
      <property name="transition.rect">00:00:00.000000=480.0 0.0 242.0 136.0 1;00:00:01.200000=720.0 0.0 241.0 136.0 1</property>
      <property name="transition.valign">top</property>
      <property name="transition.halign">left</property>
      <property name="shotcut:animIn">00:00:01.240000</property>
      <property name="shotcut:animOut">00:00:00.000</property>
      <property name="transition.threads">0</property>
    </filter>
    <filter id="filter446" out="00:00:26.000000" in="00:00:24.800000">
      <property name="window">75</property>
      <property name="max_gain">20dB</property>
      <property name="mlt_service">volume</property>
      <property name="shotcut:filter">muteVolume</property>
      <property name="gain">0</property>
    </filter>
  </producer>
  <producer id="producer248" title="Anonymous Submission" in="00:00:00.000" out="00:03:09.640">
    <property name="length">00:03:09:17</property>
    <property name="eof">pause</property>
    <property name="resource">../../006 - Videos format youtube/Clarinettes/Stephane_clarinette_totoro.mp4</property>
    <property name="audio_index">1</property>
    <property name="video_index">0</property>
    <property name="mute_on_pause">0</property>
    <property name="mlt_service">avformat-novalidate</property>
    <property name="seekable">1</property>
    <property name="aspect_ratio">1</property>
    <property name="creation_time">2020-04-13T11:40:34</property>
    <property name="shotcut:hash">9a40f89235cfd4458835cfec463e07c8</property>
    <property name="ignore_points">0</property>
    <property name="shotcut:caption">Stephane_clarinette_totoro.mp4</property>
    <property name="shotcut:skipConvert">1</property>
    <property name="global_feed">1</property>
    <property name="xml">was here</property>
    <filter id="filter447" out="00:00:27.240000" in="00:00:26.040000">
      <property name="background">colour:0</property>
      <property name="mlt_service">affine</property>
      <property name="shotcut:filter">affineSizePosition</property>
      <property name="transition.fill">1</property>
      <property name="transition.distort">0</property>
      <property name="transition.rect">00:00:00.000000=720.0 0.0 242.0 136.0 1;00:00:01.200000=960.0 0.0 241.0 136.0 1</property>
      <property name="transition.valign">top</property>
      <property name="transition.halign">left</property>
      <property name="shotcut:animIn">00:00:01.240000</property>
      <property name="shotcut:animOut">00:00:00.000</property>
      <property name="transition.threads">0</property>
    </filter>
    <filter id="filter448" out="00:00:27.240000" in="00:00:26.040000">
      <property name="window">75</property>
      <property name="max_gain">20dB</property>
      <property name="mlt_service">volume</property>
      <property name="shotcut:filter">muteVolume</property>
      <property name="gain">0</property>
    </filter>
  </producer>
  <producer id="producer249" title="Anonymous Submission" in="00:00:00.000" out="00:03:09.640">
    <property name="length">00:03:09:17</property>
    <property name="eof">pause</property>
    <property name="resource">../../006 - Videos format youtube/Clarinettes/Stephane_clarinette_totoro.mp4</property>
    <property name="audio_index">1</property>
    <property name="video_index">0</property>
    <property name="mute_on_pause">0</property>
    <property name="mlt_service">avformat-novalidate</property>
    <property name="seekable">1</property>
    <property name="aspect_ratio">1</property>
    <property name="creation_time">2020-04-13T11:40:34</property>
    <property name="shotcut:hash">9a40f89235cfd4458835cfec463e07c8</property>
    <property name="ignore_points">0</property>
    <property name="shotcut:caption">Stephane_clarinette_totoro.mp4</property>
    <property name="shotcut:skipConvert">1</property>
    <property name="global_feed">1</property>
    <property name="xml">was here</property>
    <filter id="filter449" out="00:00:28.480000" in="00:00:27.280000">
      <property name="background">colour:0</property>
      <property name="mlt_service">affine</property>
      <property name="shotcut:filter">affineSizePosition</property>
      <property name="transition.fill">1</property>
      <property name="transition.distort">0</property>
      <property name="transition.rect">00:00:00.000000=960.0 0.0 242.0 136.0 1;00:00:01.200000=1200.0 0.0 241.0 136.0 1</property>
      <property name="transition.valign">top</property>
      <property name="transition.halign">left</property>
      <property name="shotcut:animIn">00:00:01.240000</property>
      <property name="shotcut:animOut">00:00:00.000</property>
      <property name="transition.threads">0</property>
    </filter>
    <filter id="filter450" out="00:00:28.480000" in="00:00:27.280000">
      <property name="window">75</property>
      <property name="max_gain">20dB</property>
      <property name="mlt_service">volume</property>
      <property name="shotcut:filter">muteVolume</property>
      <property name="gain">0</property>
    </filter>
  </producer>
  <producer id="producer250" title="Anonymous Submission" in="00:00:00.000" out="00:03:09.640">
    <property name="length">00:03:09:17</property>
    <property name="eof">pause</property>
    <property name="resource">../../006 - Videos format youtube/Clarinettes/Stephane_clarinette_totoro.mp4</property>
    <property name="audio_index">1</property>
    <property name="video_index">0</property>
    <property name="mute_on_pause">0</property>
    <property name="mlt_service">avformat-novalidate</property>
    <property name="seekable">1</property>
    <property name="aspect_ratio">1</property>
    <property name="creation_time">2020-04-13T11:40:34</property>
    <property name="shotcut:hash">9a40f89235cfd4458835cfec463e07c8</property>
    <property name="ignore_points">0</property>
    <property name="shotcut:caption">Stephane_clarinette_totoro.mp4</property>
    <property name="shotcut:skipConvert">1</property>
    <property name="global_feed">1</property>
    <property name="xml">was here</property>
    <filter id="filter451" out="00:00:29.760000" in="00:00:28.520000">
      <property name="background">colour:0</property>
      <property name="mlt_service">affine</property>
      <property name="shotcut:filter">affineSizePosition</property>
      <property name="transition.fill">1</property>
      <property name="transition.distort">0</property>
      <property name="transition.rect">00:00:00.000000=1200.0 0.0 242.0 136.0 1;00:00:01.200000=1440.0 0.0 241.0 136.0 1</property>
      <property name="transition.valign">top</property>
      <property name="transition.halign">left</property>
      <property name="shotcut:animIn">00:00:01.240000</property>
      <property name="shotcut:animOut">00:00:00.000</property>
      <property name="transition.threads">0</property>
    </filter>
    <filter id="filter452" out="00:00:29.760000" in="00:00:28.520000">
      <property name="window">75</property>
      <property name="max_gain">20dB</property>
      <property name="mlt_service">volume</property>
      <property name="shotcut:filter">muteVolume</property>
      <property name="gain">0</property>
    </filter>
  </producer>
  <producer id="producer251" title="Anonymous Submission" in="00:00:00.000" out="00:03:09.640">
    <property name="length">00:03:09:17</property>
    <property name="eof">pause</property>
    <property name="resource">../../006 - Videos format youtube/Clarinettes/Stephane_clarinette_totoro.mp4</property>
    <property name="audio_index">1</property>
    <property name="video_index">0</property>
    <property name="mute_on_pause">0</property>
    <property name="mlt_service">avformat-novalidate</property>
    <property name="seekable">1</property>
    <property name="aspect_ratio">1</property>
    <property name="creation_time">2020-04-13T11:40:34</property>
    <property name="shotcut:hash">9a40f89235cfd4458835cfec463e07c8</property>
    <property name="ignore_points">0</property>
    <property name="shotcut:caption">Stephane_clarinette_totoro.mp4</property>
    <property name="shotcut:skipConvert">1</property>
    <property name="global_feed">1</property>
    <property name="xml">was here</property>
    <filter id="filter453" out="00:00:31.000000" in="00:00:29.800000">
      <property name="background">colour:0</property>
      <property name="mlt_service">affine</property>
      <property name="shotcut:filter">affineSizePosition</property>
      <property name="transition.fill">1</property>
      <property name="transition.distort">0</property>
      <property name="transition.rect">00:00:00.000000=1440.0 0.0 242.0 136.0 1;00:00:01.200000=1680.0 0.0 241.0 136.0 1</property>
      <property name="transition.valign">top</property>
      <property name="transition.halign">left</property>
      <property name="shotcut:animIn">00:00:01.240000</property>
      <property name="shotcut:animOut">00:00:00.000</property>
      <property name="transition.threads">0</property>
    </filter>
    <filter id="filter454" out="00:00:31.000000" in="00:00:29.800000">
      <property name="window">75</property>
      <property name="max_gain">20dB</property>
      <property name="mlt_service">volume</property>
      <property name="shotcut:filter">muteVolume</property>
      <property name="gain">0</property>
    </filter>
  </producer>
  <producer id="producer252" title="Anonymous Submission" in="00:00:00.000" out="00:03:09.640">
    <property name="length">00:03:09:17</property>
    <property name="eof">pause</property>
    <property name="resource">../../006 - Videos format youtube/Clarinettes/Stephane_clarinette_totoro.mp4</property>
    <property name="audio_index">1</property>
    <property name="video_index">0</property>
    <property name="mute_on_pause">0</property>
    <property name="mlt_service">avformat-novalidate</property>
    <property name="seekable">1</property>
    <property name="aspect_ratio">1</property>
    <property name="creation_time">2020-04-13T11:40:34</property>
    <property name="shotcut:hash">9a40f89235cfd4458835cfec463e07c8</property>
    <property name="ignore_points">0</property>
    <property name="shotcut:caption">Stephane_clarinette_totoro.mp4</property>
    <property name="shotcut:skipConvert">1</property>
    <property name="global_feed">1</property>
    <property name="xml">was here</property>
    <filter id="filter455" out="00:00:32.240000" in="00:00:31.040000">
      <property name="background">colour:0</property>
      <property name="mlt_service">affine</property>
      <property name="shotcut:filter">affineSizePosition</property>
      <property name="transition.fill">1</property>
      <property name="transition.distort">0</property>
      <property name="transition.rect">00:00:00.000000=1680.0 0.0 242.0 136.0 1;00:00:01.200000=1920.0 0.0 241.0 136.0 1</property>
      <property name="transition.valign">top</property>
      <property name="transition.halign">left</property>
      <property name="shotcut:animIn">00:00:01.240000</property>
      <property name="shotcut:animOut">00:00:00.000</property>
      <property name="transition.threads">0</property>
    </filter>
    <filter id="filter456" out="00:00:32.240000" in="00:00:31.040000">
      <property name="window">75</property>
      <property name="max_gain">20dB</property>
      <property name="mlt_service">volume</property>
      <property name="shotcut:filter">muteVolume</property>
      <property name="gain">0</property>
    </filter>
  </producer>
  <producer id="producer253" title="Anonymous Submission" in="00:00:00.000" out="00:03:09.640">
    <property name="length">00:03:09:17</property>
    <property name="eof">pause</property>
    <property name="resource">../../006 - Videos format youtube/Clarinettes/Stephane_clarinette_totoro.mp4</property>
    <property name="audio_index">1</property>
    <property name="video_index">0</property>
    <property name="mute_on_pause">0</property>
    <property name="mlt_service">avformat-novalidate</property>
    <property name="seekable">1</property>
    <property name="aspect_ratio">1</property>
    <property name="creation_time">2020-04-13T11:40:34</property>
    <property name="shotcut:hash">9a40f89235cfd4458835cfec463e07c8</property>
    <property name="ignore_points">0</property>
    <property name="shotcut:caption">Stephane_clarinette_totoro.mp4</property>
    <property name="shotcut:skipConvert">1</property>
    <property name="global_feed">1</property>
    <property name="xml">was here</property>
    <filter id="filter457" out="00:00:33.480000" in="00:00:32.280000">
      <property name="background">colour:0</property>
      <property name="mlt_service">affine</property>
      <property name="shotcut:filter">affineSizePosition</property>
      <property name="transition.fill">1</property>
      <property name="transition.distort">0</property>
      <property name="transition.rect">00:00:00.000000=1920.0 0.0 242.0 136.0 1;00:00:01.200000=2160.0 0.0 241.0 136.0 1</property>
      <property name="transition.valign">top</property>
      <property name="transition.halign">left</property>
      <property name="shotcut:animIn">00:00:01.240000</property>
      <property name="shotcut:animOut">00:00:00.000</property>
      <property name="transition.threads">0</property>
    </filter>
    <filter id="filter458" out="00:00:33.480000" in="00:00:32.280000">
      <property name="window">75</property>
      <property name="max_gain">20dB</property>
      <property name="mlt_service">volume</property>
      <property name="shotcut:filter">muteVolume</property>
      <property name="gain">0</property>
    </filter>
  </producer>
  <producer id="producer254" title="Anonymous Submission" in="00:00:00.000" out="00:03:09.640">
    <property name="length">00:03:09:17</property>
    <property name="eof">pause</property>
    <property name="resource">../../006 - Videos format youtube/Clarinettes/Stephane_clarinette_totoro.mp4</property>
    <property name="audio_index">1</property>
    <property name="video_index">0</property>
    <property name="mute_on_pause">0</property>
    <property name="mlt_service">avformat-novalidate</property>
    <property name="seekable">1</property>
    <property name="aspect_ratio">1</property>
    <property name="creation_time">2020-04-13T11:40:34</property>
    <property name="shotcut:hash">9a40f89235cfd4458835cfec463e07c8</property>
    <property name="ignore_points">0</property>
    <property name="shotcut:caption">Stephane_clarinette_totoro.mp4</property>
    <property name="shotcut:skipConvert">1</property>
    <property name="global_feed">1</property>
    <property name="xml">was here</property>
    <filter id="filter459" out="00:00:34.760000" in="00:00:33.520000">
      <property name="background">colour:0</property>
      <property name="mlt_service">affine</property>
      <property name="shotcut:filter">affineSizePosition</property>
      <property name="transition.fill">1</property>
      <property name="transition.distort">0</property>
      <property name="transition.rect">00:00:00.000000=2160.0 0.0 242.0 136.0 1;00:00:01.200000=2400.0 0.0 241.0 136.0 1</property>
      <property name="transition.valign">top</property>
      <property name="transition.halign">left</property>
      <property name="shotcut:animIn">00:00:01.240000</property>
      <property name="shotcut:animOut">00:00:00.000</property>
      <property name="transition.threads">0</property>
    </filter>
    <filter id="filter460" out="00:00:34.760000" in="00:00:33.520000">
      <property name="window">75</property>
      <property name="max_gain">20dB</property>
      <property name="mlt_service">volume</property>
      <property name="shotcut:filter">muteVolume</property>
      <property name="gain">0</property>
    </filter>
  </producer>
  <producer id="producer255" title="Anonymous Submission" in="00:00:00.000" out="00:03:09.640">
    <property name="length">00:03:09:17</property>
    <property name="eof">pause</property>
    <property name="resource">../../006 - Videos format youtube/Clarinettes/Stephane_clarinette_totoro.mp4</property>
    <property name="audio_index">1</property>
    <property name="video_index">0</property>
    <property name="mute_on_pause">0</property>
    <property name="mlt_service">avformat-novalidate</property>
    <property name="seekable">1</property>
    <property name="aspect_ratio">1</property>
    <property name="creation_time">2020-04-13T11:40:34</property>
    <property name="shotcut:hash">9a40f89235cfd4458835cfec463e07c8</property>
    <property name="ignore_points">0</property>
    <property name="shotcut:caption">Stephane_clarinette_totoro.mp4</property>
    <property name="shotcut:skipConvert">1</property>
    <property name="global_feed">1</property>
    <property name="xml">was here</property>
    <filter id="filter461" out="00:00:36.000000" in="00:00:34.800000">
      <property name="background">colour:0</property>
      <property name="mlt_service">affine</property>
      <property name="shotcut:filter">affineSizePosition</property>
      <property name="transition.fill">1</property>
      <property name="transition.distort">0</property>
      <property name="transition.rect">00:00:00.000000=0.0 0.0 242.0 136.0 1;00:00:01.200000=240.0 0.0 241.0 136.0 1</property>
      <property name="transition.valign">top</property>
      <property name="transition.halign">left</property>
      <property name="shotcut:animIn">00:00:01.240000</property>
      <property name="shotcut:animOut">00:00:00.000</property>
      <property name="transition.threads">0</property>
    </filter>
    <filter id="filter462" out="00:00:36.000000" in="00:00:34.800000">
      <property name="window">75</property>
      <property name="max_gain">20dB</property>
      <property name="mlt_service">volume</property>
      <property name="shotcut:filter">muteVolume</property>
      <property name="gain">0</property>
    </filter>
  </producer>
  <producer id="producer256" title="Anonymous Submission" in="00:00:00.000" out="00:03:09.640">
    <property name="length">00:03:09:17</property>
    <property name="eof">pause</property>
    <property name="resource">../../006 - Videos format youtube/Clarinettes/Stephane_clarinette_totoro.mp4</property>
    <property name="audio_index">1</property>
    <property name="video_index">0</property>
    <property name="mute_on_pause">0</property>
    <property name="mlt_service">avformat-novalidate</property>
    <property name="seekable">1</property>
    <property name="aspect_ratio">1</property>
    <property name="creation_time">2020-04-13T11:40:34</property>
    <property name="shotcut:hash">9a40f89235cfd4458835cfec463e07c8</property>
    <property name="ignore_points">0</property>
    <property name="shotcut:caption">Stephane_clarinette_totoro.mp4</property>
    <property name="shotcut:skipConvert">1</property>
    <property name="global_feed">1</property>
    <property name="xml">was here</property>
    <filter id="filter463" out="00:00:37.240000" in="00:00:36.040000">
      <property name="background">colour:0</property>
      <property name="mlt_service">affine</property>
      <property name="shotcut:filter">affineSizePosition</property>
      <property name="transition.fill">1</property>
      <property name="transition.distort">0</property>
      <property name="transition.rect">00:00:00.000000=240.0 0.0 242.0 136.0 1;00:00:01.200000=480.0 0.0 241.0 136.0 1</property>
      <property name="transition.valign">top</property>
      <property name="transition.halign">left</property>
      <property name="shotcut:animIn">00:00:01.240000</property>
      <property name="shotcut:animOut">00:00:00.000</property>
      <property name="transition.threads">0</property>
    </filter>
    <filter id="filter464" out="00:00:37.240000" in="00:00:36.040000">
      <property name="window">75</property>
      <property name="max_gain">20dB</property>
      <property name="mlt_service">volume</property>
      <property name="shotcut:filter">muteVolume</property>
      <property name="gain">0</property>
    </filter>
  </producer>
  <producer id="producer257" title="Anonymous Submission" in="00:00:00.000" out="00:03:09.640">
    <property name="length">00:03:09:17</property>
    <property name="eof">pause</property>
    <property name="resource">../../006 - Videos format youtube/Clarinettes/Stephane_clarinette_totoro.mp4</property>
    <property name="audio_index">1</property>
    <property name="video_index">0</property>
    <property name="mute_on_pause">0</property>
    <property name="mlt_service">avformat-novalidate</property>
    <property name="seekable">1</property>
    <property name="aspect_ratio">1</property>
    <property name="creation_time">2020-04-13T11:40:34</property>
    <property name="shotcut:hash">9a40f89235cfd4458835cfec463e07c8</property>
    <property name="ignore_points">0</property>
    <property name="shotcut:caption">Stephane_clarinette_totoro.mp4</property>
    <property name="shotcut:skipConvert">1</property>
    <property name="global_feed">1</property>
    <property name="xml">was here</property>
    <filter id="filter465" out="00:00:38.480000" in="00:00:37.280000">
      <property name="background">colour:0</property>
      <property name="mlt_service">affine</property>
      <property name="shotcut:filter">affineSizePosition</property>
      <property name="transition.fill">1</property>
      <property name="transition.distort">0</property>
      <property name="transition.rect">00:00:00.000000=480.0 0.0 242.0 136.0 1;00:00:01.200000=720.0 0.0 241.0 136.0 1</property>
      <property name="transition.valign">top</property>
      <property name="transition.halign">left</property>
      <property name="shotcut:animIn">00:00:01.240000</property>
      <property name="shotcut:animOut">00:00:00.000</property>
      <property name="transition.threads">0</property>
    </filter>
    <filter id="filter466" out="00:00:38.480000" in="00:00:37.280000">
      <property name="window">75</property>
      <property name="max_gain">20dB</property>
      <property name="mlt_service">volume</property>
      <property name="shotcut:filter">muteVolume</property>
      <property name="gain">0</property>
    </filter>
  </producer>
  <producer id="producer258" title="Anonymous Submission" in="00:00:00.000" out="00:03:09.640">
    <property name="length">00:03:09:17</property>
    <property name="eof">pause</property>
    <property name="resource">../../006 - Videos format youtube/Clarinettes/Stephane_clarinette_totoro.mp4</property>
    <property name="audio_index">1</property>
    <property name="video_index">0</property>
    <property name="mute_on_pause">0</property>
    <property name="mlt_service">avformat-novalidate</property>
    <property name="seekable">1</property>
    <property name="aspect_ratio">1</property>
    <property name="creation_time">2020-04-13T11:40:34</property>
    <property name="shotcut:hash">9a40f89235cfd4458835cfec463e07c8</property>
    <property name="ignore_points">0</property>
    <property name="shotcut:caption">Stephane_clarinette_totoro.mp4</property>
    <property name="shotcut:skipConvert">1</property>
    <property name="global_feed">1</property>
    <property name="xml">was here</property>
    <filter id="filter467" out="00:00:53.760000" in="00:00:38.520000">
      <property name="background">colour:0</property>
      <property name="mlt_service">affine</property>
      <property name="shotcut:filter">affineSizePosition</property>
      <property name="transition.fill">1</property>
      <property name="transition.distort">0</property>
      <property name="transition.rect">00:00:00.000000=720.0 0.0 242.0 136.0 1;00:00:01.200000=960.0 0.0 241.0 136.0 1</property>
      <property name="transition.valign">top</property>
      <property name="transition.halign">left</property>
      <property name="shotcut:animIn">00:00:01.240000</property>
      <property name="shotcut:animOut">00:00:00.000</property>
      <property name="transition.threads">0</property>
    </filter>
    <filter id="filter468" out="00:00:53.760000" in="00:00:38.520000">
      <property name="window">75</property>
      <property name="max_gain">20dB</property>
      <property name="mlt_service">volume</property>
      <property name="shotcut:filter">muteVolume</property>
      <property name="gain">0</property>
    </filter>
  </producer>
  <producer id="producer259" title="Anonymous Submission" in="00:00:00.000" out="00:03:09.640">
    <property name="length">00:03:09:17</property>
    <property name="eof">pause</property>
    <property name="resource">../../006 - Videos format youtube/Clarinettes/Stephane_clarinette_totoro.mp4</property>
    <property name="audio_index">1</property>
    <property name="video_index">0</property>
    <property name="mute_on_pause">0</property>
    <property name="mlt_service">avformat-novalidate</property>
    <property name="seekable">1</property>
    <property name="aspect_ratio">1</property>
    <property name="creation_time">2020-04-13T11:40:34</property>
    <property name="shotcut:hash">9a40f89235cfd4458835cfec463e07c8</property>
    <property name="ignore_points">0</property>
    <property name="shotcut:caption">Stephane_clarinette_totoro.mp4</property>
    <property name="shotcut:skipConvert">1</property>
    <property name="global_feed">1</property>
    <property name="xml">was here</property>
    <filter id="filter469" out="00:01:01.760000" in="00:00:53.800000">
      <property name="background">colour:0</property>
      <property name="mlt_service">affine</property>
      <property name="shotcut:filter">affineSizePosition</property>
      <property name="transition.fill">1</property>
      <property name="transition.distort">0</property>
      <property name="transition.rect">-1097.0 -308.0 275.0 155.0 1</property>
      <property name="transition.valign">top</property>
      <property name="transition.halign">left</property>
      <property name="shotcut:animIn">00:00:01.240000</property>
      <property name="shotcut:animOut">00:00:00.000</property>
      <property name="transition.threads">0</property>
    </filter>
    <filter id="filter470" out="00:01:01.760000" in="00:00:53.800000">
      <property name="window">75</property>
      <property name="max_gain">20dB</property>
      <property name="mlt_service">volume</property>
      <property name="shotcut:filter">muteVolume</property>
      <property name="gain">0</property>
    </filter>
  </producer>
  <producer id="producer260" title="Anonymous Submission" in="00:00:00.000" out="00:03:09.640">
    <property name="length">00:03:09:17</property>
    <property name="eof">pause</property>
    <property name="resource">../../006 - Videos format youtube/Clarinettes/Stephane_clarinette_totoro.mp4</property>
    <property name="audio_index">1</property>
    <property name="video_index">0</property>
    <property name="mute_on_pause">0</property>
    <property name="mlt_service">avformat-novalidate</property>
    <property name="seekable">1</property>
    <property name="aspect_ratio">1</property>
    <property name="creation_time">2020-04-13T11:40:34</property>
    <property name="shotcut:hash">9a40f89235cfd4458835cfec463e07c8</property>
    <property name="ignore_points">0</property>
    <property name="shotcut:caption">Stephane_clarinette_totoro.mp4</property>
    <property name="shotcut:skipConvert">1</property>
    <property name="global_feed">1</property>
    <property name="xml">was here</property>
    <filter id="filter471" out="00:01:09.760000" in="00:01:01.800000">
      <property name="background">colour:0</property>
      <property name="mlt_service">affine</property>
      <property name="shotcut:filter">affineSizePosition</property>
      <property name="transition.fill">1</property>
      <property name="transition.distort">0</property>
      <property name="transition.rect">0.0 771.0 275.0 155.0 1</property>
      <property name="transition.valign">top</property>
      <property name="transition.halign">left</property>
      <property name="shotcut:animIn">00:00:01.240000</property>
      <property name="shotcut:animOut">00:00:00.000</property>
      <property name="transition.threads">0</property>
    </filter>
    <filter id="filter472" out="00:01:09.760000" in="00:01:01.800000">
      <property name="window">75</property>
      <property name="max_gain">20dB</property>
      <property name="mlt_service">volume</property>
      <property name="shotcut:filter">muteVolume</property>
      <property name="gain">0</property>
    </filter>
  </producer>
  <producer id="producer261" title="Anonymous Submission" in="00:00:00.000" out="00:03:09.640">
    <property name="length">00:03:09:17</property>
    <property name="eof">pause</property>
    <property name="resource">../../006 - Videos format youtube/Clarinettes/Stephane_clarinette_totoro.mp4</property>
    <property name="audio_index">1</property>
    <property name="video_index">0</property>
    <property name="mute_on_pause">0</property>
    <property name="mlt_service">avformat-novalidate</property>
    <property name="seekable">1</property>
    <property name="aspect_ratio">1</property>
    <property name="creation_time">2020-04-13T11:40:34</property>
    <property name="shotcut:hash">9a40f89235cfd4458835cfec463e07c8</property>
    <property name="ignore_points">0</property>
    <property name="shotcut:caption">Stephane_clarinette_totoro.mp4</property>
    <property name="shotcut:skipConvert">1</property>
    <property name="global_feed">1</property>
    <property name="xml">was here</property>
    <filter id="filter473" out="00:01:16.760000" in="00:01:09.800000">
      <property name="background">colour:0</property>
      <property name="mlt_service">affine</property>
      <property name="shotcut:filter">affineSizePosition</property>
      <property name="transition.fill">1</property>
      <property name="transition.distort">0</property>
      <property name="transition.rect">320.0 900.0 321.0 181.0 1</property>
      <property name="transition.valign">top</property>
      <property name="transition.halign">left</property>
      <property name="shotcut:animIn">00:00:01.240000</property>
      <property name="shotcut:animOut">00:00:00.000</property>
      <property name="transition.threads">0</property>
    </filter>
    <filter id="filter474" out="00:01:16.760000" in="00:01:09.800000">
      <property name="window">75</property>
      <property name="max_gain">20dB</property>
      <property name="mlt_service">volume</property>
      <property name="shotcut:filter">muteVolume</property>
      <property name="gain">0</property>
    </filter>
  </producer>
  <producer id="producer262" title="Anonymous Submission" in="00:00:00.000" out="00:03:09.640">
    <property name="length">00:03:09:17</property>
    <property name="eof">pause</property>
    <property name="resource">../../006 - Videos format youtube/Clarinettes/Stephane_clarinette_totoro.mp4</property>
    <property name="audio_index">1</property>
    <property name="video_index">0</property>
    <property name="mute_on_pause">0</property>
    <property name="mlt_service">avformat-novalidate</property>
    <property name="seekable">1</property>
    <property name="aspect_ratio">1</property>
    <property name="creation_time">2020-04-13T11:40:34</property>
    <property name="shotcut:hash">9a40f89235cfd4458835cfec463e07c8</property>
    <property name="ignore_points">0</property>
    <property name="shotcut:caption">Stephane_clarinette_totoro.mp4</property>
    <property name="shotcut:skipConvert">1</property>
    <property name="global_feed">1</property>
    <property name="xml">was here</property>
    <filter id="filter475" out="00:01:24.760000" in="00:01:16.800000">
      <property name="background">colour:0</property>
      <property name="mlt_service">affine</property>
      <property name="shotcut:filter">affineSizePosition</property>
      <property name="transition.fill">1</property>
      <property name="transition.distort">0</property>
      <property name="transition.rect">320.0 -1260.0 321.0 181.0 1</property>
      <property name="transition.valign">top</property>
      <property name="transition.halign">left</property>
      <property name="shotcut:animIn">00:00:01.240000</property>
      <property name="shotcut:animOut">00:00:00.000</property>
      <property name="transition.threads">0</property>
    </filter>
    <filter id="filter476" out="00:01:24.760000" in="00:01:16.800000">
      <property name="window">75</property>
      <property name="max_gain">20dB</property>
      <property name="mlt_service">volume</property>
      <property name="shotcut:filter">muteVolume</property>
      <property name="gain">0</property>
    </filter>
  </producer>
  <producer id="producer263" title="Anonymous Submission" in="00:00:00.000" out="00:03:09.640">
    <property name="length">00:03:09:17</property>
    <property name="eof">pause</property>
    <property name="resource">../../006 - Videos format youtube/Clarinettes/Stephane_clarinette_totoro.mp4</property>
    <property name="audio_index">1</property>
    <property name="video_index">0</property>
    <property name="mute_on_pause">0</property>
    <property name="mlt_service">avformat-novalidate</property>
    <property name="seekable">1</property>
    <property name="aspect_ratio">1</property>
    <property name="creation_time">2020-04-13T11:40:34</property>
    <property name="shotcut:hash">9a40f89235cfd4458835cfec463e07c8</property>
    <property name="ignore_points">0</property>
    <property name="shotcut:caption">Stephane_clarinette_totoro.mp4</property>
    <property name="shotcut:skipConvert">1</property>
    <property name="global_feed">1</property>
    <property name="xml">was here</property>
    <filter id="filter477" out="00:01:33.760000" in="00:01:24.800000">
      <property name="background">colour:0</property>
      <property name="mlt_service">affine</property>
      <property name="shotcut:filter">affineSizePosition</property>
      <property name="transition.fill">1</property>
      <property name="transition.distort">0</property>
      <property name="transition.rect">1645.0 925.0 275.0 155.0 1</property>
      <property name="transition.valign">top</property>
      <property name="transition.halign">left</property>
      <property name="shotcut:animIn">00:00:01.240000</property>
      <property name="shotcut:animOut">00:00:00.000</property>
      <property name="transition.threads">0</property>
    </filter>
    <filter id="filter478" out="00:01:33.760000" in="00:01:24.800000">
      <property name="window">75</property>
      <property name="max_gain">20dB</property>
      <property name="mlt_service">volume</property>
      <property name="shotcut:filter">muteVolume</property>
      <property name="gain">0</property>
    </filter>
  </producer>
  <producer id="producer264" title="Anonymous Submission" in="00:00:00.000" out="00:03:09.640">
    <property name="length">00:03:09:17</property>
    <property name="eof">pause</property>
    <property name="resource">../../006 - Videos format youtube/Clarinettes/Stephane_clarinette_totoro.mp4</property>
    <property name="audio_index">1</property>
    <property name="video_index">0</property>
    <property name="mute_on_pause">0</property>
    <property name="mlt_service">avformat-novalidate</property>
    <property name="seekable">1</property>
    <property name="aspect_ratio">1</property>
    <property name="creation_time">2020-04-13T11:40:34</property>
    <property name="shotcut:hash">9a40f89235cfd4458835cfec463e07c8</property>
    <property name="ignore_points">0</property>
    <property name="shotcut:caption">Stephane_clarinette_totoro.mp4</property>
    <property name="shotcut:skipConvert">1</property>
    <property name="global_feed">1</property>
    <property name="xml">was here</property>
    <filter id="filter479" out="00:01:40.760000" in="00:01:33.800000">
      <property name="background">colour:0</property>
      <property name="mlt_service">affine</property>
      <property name="shotcut:filter">affineSizePosition</property>
      <property name="transition.fill">1</property>
      <property name="transition.distort">0</property>
      <property name="transition.rect">0.0 154.0 275.0 155.0 1</property>
      <property name="transition.valign">top</property>
      <property name="transition.halign">left</property>
      <property name="shotcut:animIn">00:00:01.240000</property>
      <property name="shotcut:animOut">00:00:00.000</property>
      <property name="transition.threads">0</property>
    </filter>
    <filter id="filter480" out="00:01:40.760000" in="00:01:33.800000">
      <property name="window">75</property>
      <property name="max_gain">20dB</property>
      <property name="mlt_service">volume</property>
      <property name="shotcut:filter">muteVolume</property>
      <property name="gain">0</property>
    </filter>
  </producer>
  <producer id="producer265" title="Anonymous Submission" in="00:00:00.000" out="00:03:09.640">
    <property name="length">00:03:09:17</property>
    <property name="eof">pause</property>
    <property name="resource">../../006 - Videos format youtube/Clarinettes/Stephane_clarinette_totoro.mp4</property>
    <property name="audio_index">1</property>
    <property name="video_index">0</property>
    <property name="mute_on_pause">0</property>
    <property name="mlt_service">avformat-novalidate</property>
    <property name="seekable">1</property>
    <property name="aspect_ratio">1</property>
    <property name="creation_time">2020-04-13T11:40:34</property>
    <property name="shotcut:hash">9a40f89235cfd4458835cfec463e07c8</property>
    <property name="ignore_points">0</property>
    <property name="shotcut:caption">Stephane_clarinette_totoro.mp4</property>
    <property name="shotcut:skipConvert">1</property>
    <property name="global_feed">1</property>
    <property name="xml">was here</property>
    <filter id="filter481" out="00:03:09.640000" in="00:01:40.800000">
      <property name="background">colour:0</property>
      <property name="mlt_service">affine</property>
      <property name="shotcut:filter">affineSizePosition</property>
      <property name="transition.fill">1</property>
      <property name="transition.distort">0</property>
      <property name="transition.rect">0.0 360.0 641.0 361.0 1</property>
      <property name="transition.valign">top</property>
      <property name="transition.halign">left</property>
      <property name="shotcut:animIn">00:00:01.240000</property>
      <property name="shotcut:animOut">00:00:00.000</property>
      <property name="transition.threads">0</property>
    </filter>
    <filter id="filter482" out="00:03:09.640000" in="00:01:40.800000">
      <property name="window">75</property>
      <property name="max_gain">20dB</property>
      <property name="mlt_service">volume</property>
      <property name="shotcut:filter">muteVolume</property>
      <property name="gain">0</property>
    </filter>
  </producer>
  <playlist id="playlist15">
    <property name="shotcut:video">1</property>
    <property name="shotcut:name">Stephane</property>
    <property name="shotcut:lock">1</property>
    <blank length="00:00:10.200" />
    <entry producer="producer241" in="00:00:00.000" out="00:00:12.760000" />
    <entry producer="producer242" in="00:00:12.800000" out="00:00:19.760000" />
    <entry producer="producer243" in="00:00:19.800000" out="00:00:21.000000" />
    <entry producer="producer244" in="00:00:21.040000" out="00:00:22.240000" />
    <entry producer="producer245" in="00:00:22.280000" out="00:00:23.480000" />
    <entry producer="producer246" in="00:00:23.520000" out="00:00:24.760000" />
    <entry producer="producer247" in="00:00:24.800000" out="00:00:26.000000" />
    <entry producer="producer248" in="00:00:26.040000" out="00:00:27.240000" />
    <entry producer="producer249" in="00:00:27.280000" out="00:00:28.480000" />
    <entry producer="producer250" in="00:00:28.520000" out="00:00:29.760000" />
    <entry producer="producer251" in="00:00:29.800000" out="00:00:31.000000" />
    <entry producer="producer252" in="00:00:31.040000" out="00:00:32.240000" />
    <entry producer="producer253" in="00:00:32.280000" out="00:00:33.480000" />
    <entry producer="producer254" in="00:00:33.520000" out="00:00:34.760000" />
    <entry producer="producer255" in="00:00:34.800000" out="00:00:36.000000" />
    <entry producer="producer256" in="00:00:36.040000" out="00:00:37.240000" />
    <entry producer="producer257" in="00:00:37.280000" out="00:00:38.480000" />
    <entry producer="producer258" in="00:00:38.520000" out="00:00:53.760000" />
    <entry producer="producer259" in="00:00:53.800000" out="00:01:01.760000" />
    <entry producer="producer260" in="00:01:01.800000" out="00:01:09.760000" />
    <entry producer="producer261" in="00:01:09.800000" out="00:01:16.760000" />
    <entry producer="producer262" in="00:01:16.800000" out="00:01:24.760000" />
    <entry producer="producer263" in="00:01:24.800000" out="00:01:33.760000" />
    <entry producer="producer264" in="00:01:33.800000" out="00:01:40.760000" />
    <entry producer="producer265" in="00:01:40.800000" out="00:03:09.640000" />
    <filter id="filter483" out="00:03:23.320">
      <property name="window">75</property>
      <property name="max_gain">20dB</property>
      <property name="level">-11</property>
      <property name="mlt_service">volume</property>
    </filter>
  </playlist>
  <producer id="producer266" title="Anonymous Submission" in="00:00:00.000" out="00:03:32.360">
    <property name="length">00:03:32:10</property>
    <property name="eof">pause</property>
    <property name="resource">../../006 - Videos format youtube/Clarinettes/PierreG_clarinette_totoro.mp4</property>
    <property name="audio_index">1</property>
    <property name="video_index">0</property>
    <property name="mute_on_pause">0</property>
    <property name="mlt_service">avformat-novalidate</property>
    <property name="seekable">1</property>
    <property name="aspect_ratio">1</property>
    <property name="creation_time">2020-04-17T16:52:31</property>
    <property name="shotcut:hash">6b94f299793e62fd39584d2bc1ca99a4</property>
    <property name="ignore_points">0</property>
    <property name="shotcut:caption">PierreG_clarinette_totoro.mp4</property>
    <property name="shotcut:skipConvert">1</property>
    <property name="global_feed">1</property>
    <property name="xml">was here</property>
    <filter id="filter484" in="00:00:15.680" out="00:00:32.000000">
      <property name="background">colour:0</property>
      <property name="mlt_service">affine</property>
      <property name="shotcut:filter">affineSizePosition</property>
      <property name="transition.fill">1</property>
      <property name="transition.distort">0</property>
      <property name="transition.rect">1097.0 925.0 275.0 155.0 1</property>
      <property name="transition.valign">top</property>
      <property name="transition.halign">left</property>
      <property name="shotcut:animIn">00:00:00.000</property>
      <property name="shotcut:animOut">00:00:00.000</property>
      <property name="transition.threads">0</property>
    </filter>
    <filter id="filter485" in="00:00:15.680" out="00:00:32.000000">
      <property name="window">75</property>
      <property name="max_gain">20dB</property>
      <property name="mlt_service">volume</property>
      <property name="shotcut:filter">muteVolume</property>
      <property name="gain">0</property>
    </filter>
  </producer>
  <producer id="producer267" title="Anonymous Submission" in="00:00:00.000" out="00:03:32.360">
    <property name="length">00:03:32:10</property>
    <property name="eof">pause</property>
    <property name="resource">../../006 - Videos format youtube/Clarinettes/PierreG_clarinette_totoro.mp4</property>
    <property name="audio_index">1</property>
    <property name="video_index">0</property>
    <property name="mute_on_pause">0</property>
    <property name="mlt_service">avformat-novalidate</property>
    <property name="seekable">1</property>
    <property name="aspect_ratio">1</property>
    <property name="creation_time">2020-04-17T16:52:31</property>
    <property name="shotcut:hash">6b94f299793e62fd39584d2bc1ca99a4</property>
    <property name="ignore_points">0</property>
    <property name="shotcut:caption">PierreG_clarinette_totoro.mp4</property>
    <property name="shotcut:skipConvert">1</property>
    <property name="global_feed">1</property>
    <property name="xml">was here</property>
    <filter id="filter486" in="00:00:32.040000" out="00:00:39.000000">
      <property name="background">colour:0</property>
      <property name="mlt_service">affine</property>
      <property name="shotcut:filter">affineSizePosition</property>
      <property name="transition.fill">1</property>
      <property name="transition.distort">0</property>
      <property name="transition.rect">00:00:00.000000=1097.0 925.0 276.0 155.0 1;00:00:00.440000=1371.0 154.0 275.0 155.0 1</property>
      <property name="transition.valign">top</property>
      <property name="transition.halign">left</property>
      <property name="shotcut:animIn">00:00:00.480000</property>
      <property name="shotcut:animOut">00:00:00.000</property>
      <property name="transition.threads">0</property>
    </filter>
    <filter id="filter487" in="00:00:32.040000" out="00:00:39.000000">
      <property name="window">75</property>
      <property name="max_gain">20dB</property>
      <property name="mlt_service">volume</property>
      <property name="shotcut:filter">muteVolume</property>
      <property name="gain">0</property>
    </filter>
  </producer>
  <producer id="producer268" title="Anonymous Submission" in="00:00:00.000" out="00:03:32.360">
    <property name="length">00:03:32:10</property>
    <property name="eof">pause</property>
    <property name="resource">../../006 - Videos format youtube/Clarinettes/PierreG_clarinette_totoro.mp4</property>
    <property name="audio_index">1</property>
    <property name="video_index">0</property>
    <property name="mute_on_pause">0</property>
    <property name="mlt_service">avformat-novalidate</property>
    <property name="seekable">1</property>
    <property name="aspect_ratio">1</property>
    <property name="creation_time">2020-04-17T16:52:31</property>
    <property name="shotcut:hash">6b94f299793e62fd39584d2bc1ca99a4</property>
    <property name="ignore_points">0</property>
    <property name="shotcut:caption">PierreG_clarinette_totoro.mp4</property>
    <property name="shotcut:skipConvert">1</property>
    <property name="global_feed">1</property>
    <property name="xml">was here</property>
    <filter id="filter488" in="00:00:39.040000" out="00:00:40.240000">
      <property name="background">colour:0</property>
      <property name="mlt_service">affine</property>
      <property name="shotcut:filter">affineSizePosition</property>
      <property name="transition.fill">1</property>
      <property name="transition.distort">0</property>
      <property name="transition.rect">00:00:00.000000=1440.0 0.0 242.0 136.0 1;00:00:01.200000=1680.0 0.0 241.0 136.0 1</property>
      <property name="transition.valign">top</property>
      <property name="transition.halign">left</property>
      <property name="shotcut:animIn">00:00:01.240000</property>
      <property name="shotcut:animOut">00:00:00.000</property>
      <property name="transition.threads">0</property>
    </filter>
    <filter id="filter489" in="00:00:39.040000" out="00:00:40.240000">
      <property name="window">75</property>
      <property name="max_gain">20dB</property>
      <property name="mlt_service">volume</property>
      <property name="shotcut:filter">muteVolume</property>
      <property name="gain">0</property>
    </filter>
  </producer>
  <producer id="producer269" title="Anonymous Submission" in="00:00:00.000" out="00:03:32.360">
    <property name="length">00:03:32:10</property>
    <property name="eof">pause</property>
    <property name="resource">../../006 - Videos format youtube/Clarinettes/PierreG_clarinette_totoro.mp4</property>
    <property name="audio_index">1</property>
    <property name="video_index">0</property>
    <property name="mute_on_pause">0</property>
    <property name="mlt_service">avformat-novalidate</property>
    <property name="seekable">1</property>
    <property name="aspect_ratio">1</property>
    <property name="creation_time">2020-04-17T16:52:31</property>
    <property name="shotcut:hash">6b94f299793e62fd39584d2bc1ca99a4</property>
    <property name="ignore_points">0</property>
    <property name="shotcut:caption">PierreG_clarinette_totoro.mp4</property>
    <property name="shotcut:skipConvert">1</property>
    <property name="global_feed">1</property>
    <property name="xml">was here</property>
    <filter id="filter490" in="00:00:40.280000" out="00:00:41.480000">
      <property name="background">colour:0</property>
      <property name="mlt_service">affine</property>
      <property name="shotcut:filter">affineSizePosition</property>
      <property name="transition.fill">1</property>
      <property name="transition.distort">0</property>
      <property name="transition.rect">00:00:00.000000=1680.0 0.0 242.0 136.0 1;00:00:01.200000=1920.0 0.0 241.0 136.0 1</property>
      <property name="transition.valign">top</property>
      <property name="transition.halign">left</property>
      <property name="shotcut:animIn">00:00:01.240000</property>
      <property name="shotcut:animOut">00:00:00.000</property>
      <property name="transition.threads">0</property>
    </filter>
    <filter id="filter491" in="00:00:40.280000" out="00:00:41.480000">
      <property name="window">75</property>
      <property name="max_gain">20dB</property>
      <property name="mlt_service">volume</property>
      <property name="shotcut:filter">muteVolume</property>
      <property name="gain">0</property>
    </filter>
  </producer>
  <producer id="producer270" title="Anonymous Submission" in="00:00:00.000" out="00:03:32.360">
    <property name="length">00:03:32:10</property>
    <property name="eof">pause</property>
    <property name="resource">../../006 - Videos format youtube/Clarinettes/PierreG_clarinette_totoro.mp4</property>
    <property name="audio_index">1</property>
    <property name="video_index">0</property>
    <property name="mute_on_pause">0</property>
    <property name="mlt_service">avformat-novalidate</property>
    <property name="seekable">1</property>
    <property name="aspect_ratio">1</property>
    <property name="creation_time">2020-04-17T16:52:31</property>
    <property name="shotcut:hash">6b94f299793e62fd39584d2bc1ca99a4</property>
    <property name="ignore_points">0</property>
    <property name="shotcut:caption">PierreG_clarinette_totoro.mp4</property>
    <property name="shotcut:skipConvert">1</property>
    <property name="global_feed">1</property>
    <property name="xml">was here</property>
    <filter id="filter492" in="00:00:41.520000" out="00:00:42.720000">
      <property name="background">colour:0</property>
      <property name="mlt_service">affine</property>
      <property name="shotcut:filter">affineSizePosition</property>
      <property name="transition.fill">1</property>
      <property name="transition.distort">0</property>
      <property name="transition.rect">00:00:00.000000=1920.0 0.0 242.0 136.0 1;00:00:01.200000=2160.0 0.0 241.0 136.0 1</property>
      <property name="transition.valign">top</property>
      <property name="transition.halign">left</property>
      <property name="shotcut:animIn">00:00:01.240000</property>
      <property name="shotcut:animOut">00:00:00.000</property>
      <property name="transition.threads">0</property>
    </filter>
    <filter id="filter493" in="00:00:41.520000" out="00:00:42.720000">
      <property name="window">75</property>
      <property name="max_gain">20dB</property>
      <property name="mlt_service">volume</property>
      <property name="shotcut:filter">muteVolume</property>
      <property name="gain">0</property>
    </filter>
  </producer>
  <producer id="producer271" title="Anonymous Submission" in="00:00:00.000" out="00:03:32.360">
    <property name="length">00:03:32:10</property>
    <property name="eof">pause</property>
    <property name="resource">../../006 - Videos format youtube/Clarinettes/PierreG_clarinette_totoro.mp4</property>
    <property name="audio_index">1</property>
    <property name="video_index">0</property>
    <property name="mute_on_pause">0</property>
    <property name="mlt_service">avformat-novalidate</property>
    <property name="seekable">1</property>
    <property name="aspect_ratio">1</property>
    <property name="creation_time">2020-04-17T16:52:31</property>
    <property name="shotcut:hash">6b94f299793e62fd39584d2bc1ca99a4</property>
    <property name="ignore_points">0</property>
    <property name="shotcut:caption">PierreG_clarinette_totoro.mp4</property>
    <property name="shotcut:skipConvert">1</property>
    <property name="global_feed">1</property>
    <property name="xml">was here</property>
    <filter id="filter494" in="00:00:42.760000" out="00:00:44.000000">
      <property name="background">colour:0</property>
      <property name="mlt_service">affine</property>
      <property name="shotcut:filter">affineSizePosition</property>
      <property name="transition.fill">1</property>
      <property name="transition.distort">0</property>
      <property name="transition.rect">00:00:00.000000=2160.0 0.0 242.0 136.0 1;00:00:01.200000=2400.0 0.0 241.0 136.0 1</property>
      <property name="transition.valign">top</property>
      <property name="transition.halign">left</property>
      <property name="shotcut:animIn">00:00:01.240000</property>
      <property name="shotcut:animOut">00:00:00.000</property>
      <property name="transition.threads">0</property>
    </filter>
    <filter id="filter495" in="00:00:42.760000" out="00:00:44.000000">
      <property name="window">75</property>
      <property name="max_gain">20dB</property>
      <property name="mlt_service">volume</property>
      <property name="shotcut:filter">muteVolume</property>
      <property name="gain">0</property>
    </filter>
  </producer>
  <producer id="producer272" title="Anonymous Submission" in="00:00:00.000" out="00:03:32.360">
    <property name="length">00:03:32:10</property>
    <property name="eof">pause</property>
    <property name="resource">../../006 - Videos format youtube/Clarinettes/PierreG_clarinette_totoro.mp4</property>
    <property name="audio_index">1</property>
    <property name="video_index">0</property>
    <property name="mute_on_pause">0</property>
    <property name="mlt_service">avformat-novalidate</property>
    <property name="seekable">1</property>
    <property name="aspect_ratio">1</property>
    <property name="creation_time">2020-04-17T16:52:31</property>
    <property name="shotcut:hash">6b94f299793e62fd39584d2bc1ca99a4</property>
    <property name="ignore_points">0</property>
    <property name="shotcut:caption">PierreG_clarinette_totoro.mp4</property>
    <property name="shotcut:skipConvert">1</property>
    <property name="global_feed">1</property>
    <property name="xml">was here</property>
    <filter id="filter496" in="00:00:44.040000" out="00:00:45.240000">
      <property name="background">colour:0</property>
      <property name="mlt_service">affine</property>
      <property name="shotcut:filter">affineSizePosition</property>
      <property name="transition.fill">1</property>
      <property name="transition.distort">0</property>
      <property name="transition.rect">00:00:00.000000=0.0 0.0 242.0 136.0 1;00:00:01.200000=240.0 0.0 241.0 136.0 1</property>
      <property name="transition.valign">top</property>
      <property name="transition.halign">left</property>
      <property name="shotcut:animIn">00:00:01.240000</property>
      <property name="shotcut:animOut">00:00:00.000</property>
      <property name="transition.threads">0</property>
    </filter>
    <filter id="filter497" in="00:00:44.040000" out="00:00:45.240000">
      <property name="window">75</property>
      <property name="max_gain">20dB</property>
      <property name="mlt_service">volume</property>
      <property name="shotcut:filter">muteVolume</property>
      <property name="gain">0</property>
    </filter>
  </producer>
  <producer id="producer273" title="Anonymous Submission" in="00:00:00.000" out="00:03:32.360">
    <property name="length">00:03:32:10</property>
    <property name="eof">pause</property>
    <property name="resource">../../006 - Videos format youtube/Clarinettes/PierreG_clarinette_totoro.mp4</property>
    <property name="audio_index">1</property>
    <property name="video_index">0</property>
    <property name="mute_on_pause">0</property>
    <property name="mlt_service">avformat-novalidate</property>
    <property name="seekable">1</property>
    <property name="aspect_ratio">1</property>
    <property name="creation_time">2020-04-17T16:52:31</property>
    <property name="shotcut:hash">6b94f299793e62fd39584d2bc1ca99a4</property>
    <property name="ignore_points">0</property>
    <property name="shotcut:caption">PierreG_clarinette_totoro.mp4</property>
    <property name="shotcut:skipConvert">1</property>
    <property name="global_feed">1</property>
    <property name="xml">was here</property>
    <filter id="filter498" in="00:00:45.280000" out="00:00:46.480000">
      <property name="background">colour:0</property>
      <property name="mlt_service">affine</property>
      <property name="shotcut:filter">affineSizePosition</property>
      <property name="transition.fill">1</property>
      <property name="transition.distort">0</property>
      <property name="transition.rect">00:00:00.000000=240.0 0.0 242.0 136.0 1;00:00:01.200000=480.0 0.0 241.0 136.0 1</property>
      <property name="transition.valign">top</property>
      <property name="transition.halign">left</property>
      <property name="shotcut:animIn">00:00:01.240000</property>
      <property name="shotcut:animOut">00:00:00.000</property>
      <property name="transition.threads">0</property>
    </filter>
    <filter id="filter499" in="00:00:45.280000" out="00:00:46.480000">
      <property name="window">75</property>
      <property name="max_gain">20dB</property>
      <property name="mlt_service">volume</property>
      <property name="shotcut:filter">muteVolume</property>
      <property name="gain">0</property>
    </filter>
  </producer>
  <producer id="producer274" title="Anonymous Submission" in="00:00:00.000" out="00:03:32.360">
    <property name="length">00:03:32:10</property>
    <property name="eof">pause</property>
    <property name="resource">../../006 - Videos format youtube/Clarinettes/PierreG_clarinette_totoro.mp4</property>
    <property name="audio_index">1</property>
    <property name="video_index">0</property>
    <property name="mute_on_pause">0</property>
    <property name="mlt_service">avformat-novalidate</property>
    <property name="seekable">1</property>
    <property name="aspect_ratio">1</property>
    <property name="creation_time">2020-04-17T16:52:31</property>
    <property name="shotcut:hash">6b94f299793e62fd39584d2bc1ca99a4</property>
    <property name="ignore_points">0</property>
    <property name="shotcut:caption">PierreG_clarinette_totoro.mp4</property>
    <property name="shotcut:skipConvert">1</property>
    <property name="global_feed">1</property>
    <property name="xml">was here</property>
    <filter id="filter500" in="00:00:46.520000" out="00:00:47.720000">
      <property name="background">colour:0</property>
      <property name="mlt_service">affine</property>
      <property name="shotcut:filter">affineSizePosition</property>
      <property name="transition.fill">1</property>
      <property name="transition.distort">0</property>
      <property name="transition.rect">00:00:00.000000=480.0 0.0 242.0 136.0 1;00:00:01.200000=720.0 0.0 241.0 136.0 1</property>
      <property name="transition.valign">top</property>
      <property name="transition.halign">left</property>
      <property name="shotcut:animIn">00:00:01.240000</property>
      <property name="shotcut:animOut">00:00:00.000</property>
      <property name="transition.threads">0</property>
    </filter>
    <filter id="filter501" in="00:00:46.520000" out="00:00:47.720000">
      <property name="window">75</property>
      <property name="max_gain">20dB</property>
      <property name="mlt_service">volume</property>
      <property name="shotcut:filter">muteVolume</property>
      <property name="gain">0</property>
    </filter>
  </producer>
  <producer id="producer275" title="Anonymous Submission" in="00:00:00.000" out="00:03:32.360">
    <property name="length">00:03:32:10</property>
    <property name="eof">pause</property>
    <property name="resource">../../006 - Videos format youtube/Clarinettes/PierreG_clarinette_totoro.mp4</property>
    <property name="audio_index">1</property>
    <property name="video_index">0</property>
    <property name="mute_on_pause">0</property>
    <property name="mlt_service">avformat-novalidate</property>
    <property name="seekable">1</property>
    <property name="aspect_ratio">1</property>
    <property name="creation_time">2020-04-17T16:52:31</property>
    <property name="shotcut:hash">6b94f299793e62fd39584d2bc1ca99a4</property>
    <property name="ignore_points">0</property>
    <property name="shotcut:caption">PierreG_clarinette_totoro.mp4</property>
    <property name="shotcut:skipConvert">1</property>
    <property name="global_feed">1</property>
    <property name="xml">was here</property>
    <filter id="filter502" in="00:00:47.760000" out="00:00:49.000000">
      <property name="background">colour:0</property>
      <property name="mlt_service">affine</property>
      <property name="shotcut:filter">affineSizePosition</property>
      <property name="transition.fill">1</property>
      <property name="transition.distort">0</property>
      <property name="transition.rect">00:00:00.000000=720.0 0.0 242.0 136.0 1;00:00:01.200000=960.0 0.0 241.0 136.0 1</property>
      <property name="transition.valign">top</property>
      <property name="transition.halign">left</property>
      <property name="shotcut:animIn">00:00:01.240000</property>
      <property name="shotcut:animOut">00:00:00.000</property>
      <property name="transition.threads">0</property>
    </filter>
    <filter id="filter503" in="00:00:47.760000" out="00:00:49.000000">
      <property name="window">75</property>
      <property name="max_gain">20dB</property>
      <property name="mlt_service">volume</property>
      <property name="shotcut:filter">muteVolume</property>
      <property name="gain">0</property>
    </filter>
  </producer>
  <producer id="producer276" title="Anonymous Submission" in="00:00:00.000" out="00:03:32.360">
    <property name="length">00:03:32:10</property>
    <property name="eof">pause</property>
    <property name="resource">../../006 - Videos format youtube/Clarinettes/PierreG_clarinette_totoro.mp4</property>
    <property name="audio_index">1</property>
    <property name="video_index">0</property>
    <property name="mute_on_pause">0</property>
    <property name="mlt_service">avformat-novalidate</property>
    <property name="seekable">1</property>
    <property name="aspect_ratio">1</property>
    <property name="creation_time">2020-04-17T16:52:31</property>
    <property name="shotcut:hash">6b94f299793e62fd39584d2bc1ca99a4</property>
    <property name="ignore_points">0</property>
    <property name="shotcut:caption">PierreG_clarinette_totoro.mp4</property>
    <property name="shotcut:skipConvert">1</property>
    <property name="global_feed">1</property>
    <property name="xml">was here</property>
    <filter id="filter504" in="00:00:49.040000" out="00:00:50.240000">
      <property name="background">colour:0</property>
      <property name="mlt_service">affine</property>
      <property name="shotcut:filter">affineSizePosition</property>
      <property name="transition.fill">1</property>
      <property name="transition.distort">0</property>
      <property name="transition.rect">00:00:00.000000=960.0 0.0 242.0 136.0 1;00:00:01.200000=1200.0 0.0 241.0 136.0 1</property>
      <property name="transition.valign">top</property>
      <property name="transition.halign">left</property>
      <property name="shotcut:animIn">00:00:01.240000</property>
      <property name="shotcut:animOut">00:00:00.000</property>
      <property name="transition.threads">0</property>
    </filter>
    <filter id="filter505" in="00:00:49.040000" out="00:00:50.240000">
      <property name="window">75</property>
      <property name="max_gain">20dB</property>
      <property name="mlt_service">volume</property>
      <property name="shotcut:filter">muteVolume</property>
      <property name="gain">0</property>
    </filter>
  </producer>
  <producer id="producer277" title="Anonymous Submission" in="00:00:00.000" out="00:03:32.360">
    <property name="length">00:03:32:10</property>
    <property name="eof">pause</property>
    <property name="resource">../../006 - Videos format youtube/Clarinettes/PierreG_clarinette_totoro.mp4</property>
    <property name="audio_index">1</property>
    <property name="video_index">0</property>
    <property name="mute_on_pause">0</property>
    <property name="mlt_service">avformat-novalidate</property>
    <property name="seekable">1</property>
    <property name="aspect_ratio">1</property>
    <property name="creation_time">2020-04-17T16:52:31</property>
    <property name="shotcut:hash">6b94f299793e62fd39584d2bc1ca99a4</property>
    <property name="ignore_points">0</property>
    <property name="shotcut:caption">PierreG_clarinette_totoro.mp4</property>
    <property name="shotcut:skipConvert">1</property>
    <property name="global_feed">1</property>
    <property name="xml">was here</property>
    <filter id="filter506" in="00:00:50.280000" out="00:00:51.480000">
      <property name="background">colour:0</property>
      <property name="mlt_service">affine</property>
      <property name="shotcut:filter">affineSizePosition</property>
      <property name="transition.fill">1</property>
      <property name="transition.distort">0</property>
      <property name="transition.rect">00:00:00.000000=1200.0 0.0 242.0 136.0 1;00:00:01.200000=1440.0 0.0 241.0 136.0 1</property>
      <property name="transition.valign">top</property>
      <property name="transition.halign">left</property>
      <property name="shotcut:animIn">00:00:01.240000</property>
      <property name="shotcut:animOut">00:00:00.000</property>
      <property name="transition.threads">0</property>
    </filter>
    <filter id="filter507" in="00:00:50.280000" out="00:00:51.480000">
      <property name="window">75</property>
      <property name="max_gain">20dB</property>
      <property name="mlt_service">volume</property>
      <property name="shotcut:filter">muteVolume</property>
      <property name="gain">0</property>
    </filter>
  </producer>
  <producer id="producer278" title="Anonymous Submission" in="00:00:00.000" out="00:03:32.360">
    <property name="length">00:03:32:10</property>
    <property name="eof">pause</property>
    <property name="resource">../../006 - Videos format youtube/Clarinettes/PierreG_clarinette_totoro.mp4</property>
    <property name="audio_index">1</property>
    <property name="video_index">0</property>
    <property name="mute_on_pause">0</property>
    <property name="mlt_service">avformat-novalidate</property>
    <property name="seekable">1</property>
    <property name="aspect_ratio">1</property>
    <property name="creation_time">2020-04-17T16:52:31</property>
    <property name="shotcut:hash">6b94f299793e62fd39584d2bc1ca99a4</property>
    <property name="ignore_points">0</property>
    <property name="shotcut:caption">PierreG_clarinette_totoro.mp4</property>
    <property name="shotcut:skipConvert">1</property>
    <property name="global_feed">1</property>
    <property name="xml">was here</property>
    <filter id="filter508" in="00:00:51.520000" out="00:00:52.720000">
      <property name="background">colour:0</property>
      <property name="mlt_service">affine</property>
      <property name="shotcut:filter">affineSizePosition</property>
      <property name="transition.fill">1</property>
      <property name="transition.distort">0</property>
      <property name="transition.rect">00:00:00.000000=1440.0 0.0 242.0 136.0 1;00:00:01.200000=1680.0 0.0 241.0 136.0 1</property>
      <property name="transition.valign">top</property>
      <property name="transition.halign">left</property>
      <property name="shotcut:animIn">00:00:01.240000</property>
      <property name="shotcut:animOut">00:00:00.000</property>
      <property name="transition.threads">0</property>
    </filter>
    <filter id="filter509" in="00:00:51.520000" out="00:00:52.720000">
      <property name="window">75</property>
      <property name="max_gain">20dB</property>
      <property name="mlt_service">volume</property>
      <property name="shotcut:filter">muteVolume</property>
      <property name="gain">0</property>
    </filter>
  </producer>
  <producer id="producer279" title="Anonymous Submission" in="00:00:00.000" out="00:03:32.360">
    <property name="length">00:03:32:10</property>
    <property name="eof">pause</property>
    <property name="resource">../../006 - Videos format youtube/Clarinettes/PierreG_clarinette_totoro.mp4</property>
    <property name="audio_index">1</property>
    <property name="video_index">0</property>
    <property name="mute_on_pause">0</property>
    <property name="mlt_service">avformat-novalidate</property>
    <property name="seekable">1</property>
    <property name="aspect_ratio">1</property>
    <property name="creation_time">2020-04-17T16:52:31</property>
    <property name="shotcut:hash">6b94f299793e62fd39584d2bc1ca99a4</property>
    <property name="ignore_points">0</property>
    <property name="shotcut:caption">PierreG_clarinette_totoro.mp4</property>
    <property name="shotcut:skipConvert">1</property>
    <property name="global_feed">1</property>
    <property name="xml">was here</property>
    <filter id="filter510" in="00:00:52.760000" out="00:00:54.000000">
      <property name="background">colour:0</property>
      <property name="mlt_service">affine</property>
      <property name="shotcut:filter">affineSizePosition</property>
      <property name="transition.fill">1</property>
      <property name="transition.distort">0</property>
      <property name="transition.rect">00:00:00.000000=1680.0 0.0 242.0 136.0 1;00:00:01.200000=1920.0 0.0 241.0 136.0 1</property>
      <property name="transition.valign">top</property>
      <property name="transition.halign">left</property>
      <property name="shotcut:animIn">00:00:01.240000</property>
      <property name="shotcut:animOut">00:00:00.000</property>
      <property name="transition.threads">0</property>
    </filter>
    <filter id="filter511" in="00:00:52.760000" out="00:00:54.000000">
      <property name="window">75</property>
      <property name="max_gain">20dB</property>
      <property name="mlt_service">volume</property>
      <property name="shotcut:filter">muteVolume</property>
      <property name="gain">0</property>
    </filter>
  </producer>
  <producer id="producer280" title="Anonymous Submission" in="00:00:00.000" out="00:03:32.360">
    <property name="length">00:03:32:10</property>
    <property name="eof">pause</property>
    <property name="resource">../../006 - Videos format youtube/Clarinettes/PierreG_clarinette_totoro.mp4</property>
    <property name="audio_index">1</property>
    <property name="video_index">0</property>
    <property name="mute_on_pause">0</property>
    <property name="mlt_service">avformat-novalidate</property>
    <property name="seekable">1</property>
    <property name="aspect_ratio">1</property>
    <property name="creation_time">2020-04-17T16:52:31</property>
    <property name="shotcut:hash">6b94f299793e62fd39584d2bc1ca99a4</property>
    <property name="ignore_points">0</property>
    <property name="shotcut:caption">PierreG_clarinette_totoro.mp4</property>
    <property name="shotcut:skipConvert">1</property>
    <property name="global_feed">1</property>
    <property name="xml">was here</property>
    <filter id="filter512" in="00:00:54.040000" out="00:00:55.240000">
      <property name="background">colour:0</property>
      <property name="mlt_service">affine</property>
      <property name="shotcut:filter">affineSizePosition</property>
      <property name="transition.fill">1</property>
      <property name="transition.distort">0</property>
      <property name="transition.rect">00:00:00.000000=1920.0 0.0 242.0 136.0 1;00:00:01.200000=2160.0 0.0 241.0 136.0 1</property>
      <property name="transition.valign">top</property>
      <property name="transition.halign">left</property>
      <property name="shotcut:animIn">00:00:01.240000</property>
      <property name="shotcut:animOut">00:00:00.000</property>
      <property name="transition.threads">0</property>
    </filter>
    <filter id="filter513" in="00:00:54.040000" out="00:00:55.240000">
      <property name="window">75</property>
      <property name="max_gain">20dB</property>
      <property name="mlt_service">volume</property>
      <property name="shotcut:filter">muteVolume</property>
      <property name="gain">0</property>
    </filter>
  </producer>
  <producer id="producer281" title="Anonymous Submission" in="00:00:00.000" out="00:03:32.360">
    <property name="length">00:03:32:10</property>
    <property name="eof">pause</property>
    <property name="resource">../../006 - Videos format youtube/Clarinettes/PierreG_clarinette_totoro.mp4</property>
    <property name="audio_index">1</property>
    <property name="video_index">0</property>
    <property name="mute_on_pause">0</property>
    <property name="mlt_service">avformat-novalidate</property>
    <property name="seekable">1</property>
    <property name="aspect_ratio">1</property>
    <property name="creation_time">2020-04-17T16:52:31</property>
    <property name="shotcut:hash">6b94f299793e62fd39584d2bc1ca99a4</property>
    <property name="ignore_points">0</property>
    <property name="shotcut:caption">PierreG_clarinette_totoro.mp4</property>
    <property name="shotcut:skipConvert">1</property>
    <property name="global_feed">1</property>
    <property name="xml">was here</property>
    <filter id="filter514" in="00:00:55.280000" out="00:00:56.480000">
      <property name="background">colour:0</property>
      <property name="mlt_service">affine</property>
      <property name="shotcut:filter">affineSizePosition</property>
      <property name="transition.fill">1</property>
      <property name="transition.distort">0</property>
      <property name="transition.rect">00:00:00.000000=2160.0 0.0 242.0 136.0 1;00:00:01.200000=2400.0 0.0 241.0 136.0 1</property>
      <property name="transition.valign">top</property>
      <property name="transition.halign">left</property>
      <property name="shotcut:animIn">00:00:01.240000</property>
      <property name="shotcut:animOut">00:00:00.000</property>
      <property name="transition.threads">0</property>
    </filter>
    <filter id="filter515" in="00:00:55.280000" out="00:00:56.480000">
      <property name="window">75</property>
      <property name="max_gain">20dB</property>
      <property name="mlt_service">volume</property>
      <property name="shotcut:filter">muteVolume</property>
      <property name="gain">0</property>
    </filter>
  </producer>
  <producer id="producer282" title="Anonymous Submission" in="00:00:00.000" out="00:03:32.360">
    <property name="length">00:03:32:10</property>
    <property name="eof">pause</property>
    <property name="resource">../../006 - Videos format youtube/Clarinettes/PierreG_clarinette_totoro.mp4</property>
    <property name="audio_index">1</property>
    <property name="video_index">0</property>
    <property name="mute_on_pause">0</property>
    <property name="mlt_service">avformat-novalidate</property>
    <property name="seekable">1</property>
    <property name="aspect_ratio">1</property>
    <property name="creation_time">2020-04-17T16:52:31</property>
    <property name="shotcut:hash">6b94f299793e62fd39584d2bc1ca99a4</property>
    <property name="ignore_points">0</property>
    <property name="shotcut:caption">PierreG_clarinette_totoro.mp4</property>
    <property name="shotcut:skipConvert">1</property>
    <property name="global_feed">1</property>
    <property name="xml">was here</property>
    <filter id="filter516" in="00:00:56.520000" out="00:00:57.720000">
      <property name="background">colour:0</property>
      <property name="mlt_service">affine</property>
      <property name="shotcut:filter">affineSizePosition</property>
      <property name="transition.fill">1</property>
      <property name="transition.distort">0</property>
      <property name="transition.rect">00:00:00.000000=0.0 0.0 242.0 136.0 1;00:00:01.200000=240.0 0.0 241.0 136.0 1</property>
      <property name="transition.valign">top</property>
      <property name="transition.halign">left</property>
      <property name="shotcut:animIn">00:00:01.240000</property>
      <property name="shotcut:animOut">00:00:00.000</property>
      <property name="transition.threads">0</property>
    </filter>
    <filter id="filter517" in="00:00:56.520000" out="00:00:57.720000">
      <property name="window">75</property>
      <property name="max_gain">20dB</property>
      <property name="mlt_service">volume</property>
      <property name="shotcut:filter">muteVolume</property>
      <property name="gain">0</property>
    </filter>
  </producer>
  <producer id="producer283" title="Anonymous Submission" in="00:00:00.000" out="00:03:32.360">
    <property name="length">00:03:32:10</property>
    <property name="eof">pause</property>
    <property name="resource">../../006 - Videos format youtube/Clarinettes/PierreG_clarinette_totoro.mp4</property>
    <property name="audio_index">1</property>
    <property name="video_index">0</property>
    <property name="mute_on_pause">0</property>
    <property name="mlt_service">avformat-novalidate</property>
    <property name="seekable">1</property>
    <property name="aspect_ratio">1</property>
    <property name="creation_time">2020-04-17T16:52:31</property>
    <property name="shotcut:hash">6b94f299793e62fd39584d2bc1ca99a4</property>
    <property name="ignore_points">0</property>
    <property name="shotcut:caption">PierreG_clarinette_totoro.mp4</property>
    <property name="shotcut:skipConvert">1</property>
    <property name="global_feed">1</property>
    <property name="xml">was here</property>
    <filter id="filter518" in="00:00:57.760000" out="00:01:13.000000">
      <property name="background">colour:0</property>
      <property name="mlt_service">affine</property>
      <property name="shotcut:filter">affineSizePosition</property>
      <property name="transition.fill">1</property>
      <property name="transition.distort">0</property>
      <property name="transition.rect">00:00:00.000000=240.0 0.0 242.0 136.0 1;00:00:01.200000=480.0 0.0 241.0 136.0 1</property>
      <property name="transition.valign">top</property>
      <property name="transition.halign">left</property>
      <property name="shotcut:animIn">00:00:01.240000</property>
      <property name="shotcut:animOut">00:00:00.000</property>
      <property name="transition.threads">0</property>
    </filter>
    <filter id="filter519" in="00:00:57.760000" out="00:01:13.000000">
      <property name="window">75</property>
      <property name="max_gain">20dB</property>
      <property name="mlt_service">volume</property>
      <property name="shotcut:filter">muteVolume</property>
      <property name="gain">0</property>
    </filter>
  </producer>
  <producer id="producer284" title="Anonymous Submission" in="00:00:00.000" out="00:03:32.360">
    <property name="length">00:03:32:10</property>
    <property name="eof">pause</property>
    <property name="resource">../../006 - Videos format youtube/Clarinettes/PierreG_clarinette_totoro.mp4</property>
    <property name="audio_index">1</property>
    <property name="video_index">0</property>
    <property name="mute_on_pause">0</property>
    <property name="mlt_service">avformat-novalidate</property>
    <property name="seekable">1</property>
    <property name="aspect_ratio">1</property>
    <property name="creation_time">2020-04-17T16:52:31</property>
    <property name="shotcut:hash">6b94f299793e62fd39584d2bc1ca99a4</property>
    <property name="ignore_points">0</property>
    <property name="shotcut:caption">PierreG_clarinette_totoro.mp4</property>
    <property name="shotcut:skipConvert">1</property>
    <property name="global_feed">1</property>
    <property name="xml">was here</property>
    <filter id="filter520" in="00:01:13.040000" out="00:01:21.000000">
      <property name="background">colour:0</property>
      <property name="mlt_service">affine</property>
      <property name="shotcut:filter">affineSizePosition</property>
      <property name="transition.fill">1</property>
      <property name="transition.distort">0</property>
      <property name="transition.rect">1645.0 925.0 275.0 155.0 1</property>
      <property name="transition.valign">top</property>
      <property name="transition.halign">left</property>
      <property name="shotcut:animIn">00:00:01.240000</property>
      <property name="shotcut:animOut">00:00:00.000</property>
      <property name="transition.threads">0</property>
    </filter>
    <filter id="filter521" in="00:01:13.040000" out="00:01:21.000000">
      <property name="window">75</property>
      <property name="max_gain">20dB</property>
      <property name="mlt_service">volume</property>
      <property name="shotcut:filter">muteVolume</property>
      <property name="gain">0</property>
    </filter>
  </producer>
  <producer id="producer285" title="Anonymous Submission" in="00:00:00.000" out="00:03:32.360">
    <property name="length">00:03:32:10</property>
    <property name="eof">pause</property>
    <property name="resource">../../006 - Videos format youtube/Clarinettes/PierreG_clarinette_totoro.mp4</property>
    <property name="audio_index">1</property>
    <property name="video_index">0</property>
    <property name="mute_on_pause">0</property>
    <property name="mlt_service">avformat-novalidate</property>
    <property name="seekable">1</property>
    <property name="aspect_ratio">1</property>
    <property name="creation_time">2020-04-17T16:52:31</property>
    <property name="shotcut:hash">6b94f299793e62fd39584d2bc1ca99a4</property>
    <property name="ignore_points">0</property>
    <property name="shotcut:caption">PierreG_clarinette_totoro.mp4</property>
    <property name="shotcut:skipConvert">1</property>
    <property name="global_feed">1</property>
    <property name="xml">was here</property>
    <filter id="filter522" in="00:01:21.040000" out="00:01:29.000000">
      <property name="background">colour:0</property>
      <property name="mlt_service">affine</property>
      <property name="shotcut:filter">affineSizePosition</property>
      <property name="transition.fill">1</property>
      <property name="transition.distort">0</property>
      <property name="transition.rect">274.0 0.0 275.0 155.0 1</property>
      <property name="transition.valign">top</property>
      <property name="transition.halign">left</property>
      <property name="shotcut:animIn">00:00:01.240000</property>
      <property name="shotcut:animOut">00:00:00.000</property>
      <property name="transition.threads">0</property>
    </filter>
    <filter id="filter523" in="00:01:21.040000" out="00:01:29.000000">
      <property name="window">75</property>
      <property name="max_gain">20dB</property>
      <property name="mlt_service">volume</property>
      <property name="shotcut:filter">muteVolume</property>
      <property name="gain">0</property>
    </filter>
  </producer>
  <producer id="producer286" title="Anonymous Submission" in="00:00:00.000" out="00:03:32.360">
    <property name="length">00:03:32:10</property>
    <property name="eof">pause</property>
    <property name="resource">../../006 - Videos format youtube/Clarinettes/PierreG_clarinette_totoro.mp4</property>
    <property name="audio_index">1</property>
    <property name="video_index">0</property>
    <property name="mute_on_pause">0</property>
    <property name="mlt_service">avformat-novalidate</property>
    <property name="seekable">1</property>
    <property name="aspect_ratio">1</property>
    <property name="creation_time">2020-04-17T16:52:31</property>
    <property name="shotcut:hash">6b94f299793e62fd39584d2bc1ca99a4</property>
    <property name="ignore_points">0</property>
    <property name="shotcut:caption">PierreG_clarinette_totoro.mp4</property>
    <property name="shotcut:skipConvert">1</property>
    <property name="global_feed">1</property>
    <property name="xml">was here</property>
    <filter id="filter524" in="00:01:29.040000" out="00:01:36.000000">
      <property name="background">colour:0</property>
      <property name="mlt_service">affine</property>
      <property name="shotcut:filter">affineSizePosition</property>
      <property name="transition.fill">1</property>
      <property name="transition.distort">0</property>
      <property name="transition.rect">320.0 720.0 321.0 181.0 1</property>
      <property name="transition.valign">top</property>
      <property name="transition.halign">left</property>
      <property name="shotcut:animIn">00:00:01.240000</property>
      <property name="shotcut:animOut">00:00:00.000</property>
      <property name="transition.threads">0</property>
    </filter>
    <filter id="filter525" in="00:01:29.040000" out="00:01:36.000000">
      <property name="window">75</property>
      <property name="max_gain">20dB</property>
      <property name="mlt_service">volume</property>
      <property name="shotcut:filter">muteVolume</property>
      <property name="gain">0</property>
    </filter>
  </producer>
  <producer id="producer287" title="Anonymous Submission" in="00:00:00.000" out="00:03:32.360">
    <property name="length">00:03:32:10</property>
    <property name="eof">pause</property>
    <property name="resource">../../006 - Videos format youtube/Clarinettes/PierreG_clarinette_totoro.mp4</property>
    <property name="audio_index">1</property>
    <property name="video_index">0</property>
    <property name="mute_on_pause">0</property>
    <property name="mlt_service">avformat-novalidate</property>
    <property name="seekable">1</property>
    <property name="aspect_ratio">1</property>
    <property name="creation_time">2020-04-17T16:52:31</property>
    <property name="shotcut:hash">6b94f299793e62fd39584d2bc1ca99a4</property>
    <property name="ignore_points">0</property>
    <property name="shotcut:caption">PierreG_clarinette_totoro.mp4</property>
    <property name="shotcut:skipConvert">1</property>
    <property name="global_feed">1</property>
    <property name="xml">was here</property>
    <filter id="filter526" in="00:01:36.040000" out="00:01:44.000000">
      <property name="background">colour:0</property>
      <property name="mlt_service">affine</property>
      <property name="shotcut:filter">affineSizePosition</property>
      <property name="transition.fill">1</property>
      <property name="transition.distort">0</property>
      <property name="transition.rect">320.0 -1080.0 321.0 181.0 1</property>
      <property name="transition.valign">top</property>
      <property name="transition.halign">left</property>
      <property name="shotcut:animIn">00:00:01.240000</property>
      <property name="shotcut:animOut">00:00:00.000</property>
      <property name="transition.threads">0</property>
    </filter>
    <filter id="filter527" in="00:01:36.040000" out="00:01:44.000000">
      <property name="window">75</property>
      <property name="max_gain">20dB</property>
      <property name="mlt_service">volume</property>
      <property name="shotcut:filter">muteVolume</property>
      <property name="gain">0</property>
    </filter>
  </producer>
  <producer id="producer288" title="Anonymous Submission" in="00:00:00.000" out="00:03:32.360">
    <property name="length">00:03:32:10</property>
    <property name="eof">pause</property>
    <property name="resource">../../006 - Videos format youtube/Clarinettes/PierreG_clarinette_totoro.mp4</property>
    <property name="audio_index">1</property>
    <property name="video_index">0</property>
    <property name="mute_on_pause">0</property>
    <property name="mlt_service">avformat-novalidate</property>
    <property name="seekable">1</property>
    <property name="aspect_ratio">1</property>
    <property name="creation_time">2020-04-17T16:52:31</property>
    <property name="shotcut:hash">6b94f299793e62fd39584d2bc1ca99a4</property>
    <property name="ignore_points">0</property>
    <property name="shotcut:caption">PierreG_clarinette_totoro.mp4</property>
    <property name="shotcut:skipConvert">1</property>
    <property name="global_feed">1</property>
    <property name="xml">was here</property>
    <filter id="filter528" in="00:01:44.040000" out="00:01:53.000000">
      <property name="background">colour:0</property>
      <property name="mlt_service">affine</property>
      <property name="shotcut:filter">affineSizePosition</property>
      <property name="transition.fill">1</property>
      <property name="transition.distort">0</property>
      <property name="transition.rect">548.0 154.0 275.0 155.0 1</property>
      <property name="transition.valign">top</property>
      <property name="transition.halign">left</property>
      <property name="shotcut:animIn">00:00:01.240000</property>
      <property name="shotcut:animOut">00:00:00.000</property>
      <property name="transition.threads">0</property>
    </filter>
    <filter id="filter529" in="00:01:44.040000" out="00:01:53.000000">
      <property name="window">75</property>
      <property name="max_gain">20dB</property>
      <property name="mlt_service">volume</property>
      <property name="shotcut:filter">muteVolume</property>
      <property name="gain">0</property>
    </filter>
  </producer>
  <producer id="producer289" title="Anonymous Submission" in="00:00:00.000" out="00:03:32.360">
    <property name="length">00:03:32:10</property>
    <property name="eof">pause</property>
    <property name="resource">../../006 - Videos format youtube/Clarinettes/PierreG_clarinette_totoro.mp4</property>
    <property name="audio_index">1</property>
    <property name="video_index">0</property>
    <property name="mute_on_pause">0</property>
    <property name="mlt_service">avformat-novalidate</property>
    <property name="seekable">1</property>
    <property name="aspect_ratio">1</property>
    <property name="creation_time">2020-04-17T16:52:31</property>
    <property name="shotcut:hash">6b94f299793e62fd39584d2bc1ca99a4</property>
    <property name="ignore_points">0</property>
    <property name="shotcut:caption">PierreG_clarinette_totoro.mp4</property>
    <property name="shotcut:skipConvert">1</property>
    <property name="global_feed">1</property>
    <property name="xml">was here</property>
    <filter id="filter530" in="00:01:53.040000" out="00:02:00.000000">
      <property name="background">colour:0</property>
      <property name="mlt_service">affine</property>
      <property name="shotcut:filter">affineSizePosition</property>
      <property name="transition.fill">1</property>
      <property name="transition.distort">0</property>
      <property name="transition.rect">1097.0 462.0 275.0 155.0 1</property>
      <property name="transition.valign">top</property>
      <property name="transition.halign">left</property>
      <property name="shotcut:animIn">00:00:01.240000</property>
      <property name="shotcut:animOut">00:00:00.000</property>
      <property name="transition.threads">0</property>
    </filter>
    <filter id="filter531" in="00:01:53.040000" out="00:02:00.000000">
      <property name="window">75</property>
      <property name="max_gain">20dB</property>
      <property name="mlt_service">volume</property>
      <property name="shotcut:filter">muteVolume</property>
      <property name="gain">0</property>
    </filter>
  </producer>
  <producer id="producer290" title="Anonymous Submission" in="00:00:00.000" out="00:03:32.360">
    <property name="length">00:03:32:10</property>
    <property name="eof">pause</property>
    <property name="resource">../../006 - Videos format youtube/Clarinettes/PierreG_clarinette_totoro.mp4</property>
    <property name="audio_index">1</property>
    <property name="video_index">0</property>
    <property name="mute_on_pause">0</property>
    <property name="mlt_service">avformat-novalidate</property>
    <property name="seekable">1</property>
    <property name="aspect_ratio">1</property>
    <property name="creation_time">2020-04-17T16:52:31</property>
    <property name="shotcut:hash">6b94f299793e62fd39584d2bc1ca99a4</property>
    <property name="ignore_points">0</property>
    <property name="shotcut:caption">PierreG_clarinette_totoro.mp4</property>
    <property name="shotcut:skipConvert">1</property>
    <property name="global_feed">1</property>
    <property name="xml">was here</property>
    <filter id="filter532" in="00:02:00.040000" out="00:03:32.360000">
      <property name="background">colour:0</property>
      <property name="mlt_service">affine</property>
      <property name="shotcut:filter">affineSizePosition</property>
      <property name="transition.fill">1</property>
      <property name="transition.distort">0</property>
      <property name="transition.rect">-640.0 -360.0 321.0 181.0 1</property>
      <property name="transition.valign">top</property>
      <property name="transition.halign">left</property>
      <property name="shotcut:animIn">00:00:01.240000</property>
      <property name="shotcut:animOut">00:00:00.000</property>
      <property name="transition.threads">0</property>
    </filter>
    <filter id="filter533" in="00:02:00.040000" out="00:03:32.360000">
      <property name="window">75</property>
      <property name="max_gain">20dB</property>
      <property name="mlt_service">volume</property>
      <property name="shotcut:filter">muteVolume</property>
      <property name="gain">0</property>
    </filter>
  </producer>
  <playlist id="playlist16">
    <property name="shotcut:video">1</property>
    <property name="shotcut:name">Pierre_G</property>
    <property name="shotcut:lock">1</property>
    <blank length="00:00:06.640" />
    <entry producer="producer266" in="00:00:15.680" out="00:00:32.000000" />
    <entry producer="producer267" in="00:00:32.040000" out="00:00:39.000000" />
    <entry producer="producer268" in="00:00:39.040000" out="00:00:40.240000" />
    <entry producer="producer269" in="00:00:40.280000" out="00:00:41.480000" />
    <entry producer="producer270" in="00:00:41.520000" out="00:00:42.720000" />
    <entry producer="producer271" in="00:00:42.760000" out="00:00:44.000000" />
    <entry producer="producer272" in="00:00:44.040000" out="00:00:45.240000" />
    <entry producer="producer273" in="00:00:45.280000" out="00:00:46.480000" />
    <entry producer="producer274" in="00:00:46.520000" out="00:00:47.720000" />
    <entry producer="producer275" in="00:00:47.760000" out="00:00:49.000000" />
    <entry producer="producer276" in="00:00:49.040000" out="00:00:50.240000" />
    <entry producer="producer277" in="00:00:50.280000" out="00:00:51.480000" />
    <entry producer="producer278" in="00:00:51.520000" out="00:00:52.720000" />
    <entry producer="producer279" in="00:00:52.760000" out="00:00:54.000000" />
    <entry producer="producer280" in="00:00:54.040000" out="00:00:55.240000" />
    <entry producer="producer281" in="00:00:55.280000" out="00:00:56.480000" />
    <entry producer="producer282" in="00:00:56.520000" out="00:00:57.720000" />
    <entry producer="producer283" in="00:00:57.760000" out="00:01:13.000000" />
    <entry producer="producer284" in="00:01:13.040000" out="00:01:21.000000" />
    <entry producer="producer285" in="00:01:21.040000" out="00:01:29.000000" />
    <entry producer="producer286" in="00:01:29.040000" out="00:01:36.000000" />
    <entry producer="producer287" in="00:01:36.040000" out="00:01:44.000000" />
    <entry producer="producer288" in="00:01:44.040000" out="00:01:53.000000" />
    <entry producer="producer289" in="00:01:53.040000" out="00:02:00.000000" />
    <entry producer="producer290" in="00:02:00.040000" out="00:03:32.360000" />
    <filter id="filter534" out="00:03:23.320">
      <property name="window">75</property>
      <property name="max_gain">20dB</property>
      <property name="level">-11</property>
      <property name="mlt_service">volume</property>
    </filter>
  </playlist>
  <producer id="producer291" title="Anonymous Submission" in="00:00:00.000" out="00:03:04.400">
    <property name="length">00:03:04:11</property>
    <property name="eof">pause</property>
    <property name="resource">../../006 - Videos format youtube/Clarinettes/Violette_clarinette_totoro.mp4</property>
    <property name="audio_index">1</property>
    <property name="video_index">0</property>
    <property name="mute_on_pause">0</property>
    <property name="mlt_service">avformat-novalidate</property>
    <property name="seekable">1</property>
    <property name="aspect_ratio">1</property>
    <property name="creation_time">2020-04-13T15:00:56</property>
    <property name="shotcut:hash">be5d154cb44417d0faf36686c0a4cbbc</property>
    <property name="ignore_points">0</property>
    <property name="shotcut:caption">Violette_clarinette_totoro.mp4</property>
    <property name="shotcut:skipConvert">1</property>
    <property name="global_feed">1</property>
    <property name="xml">was here</property>
    <filter id="filter535" out="00:00:09.000000">
      <property name="background">colour:0</property>
      <property name="mlt_service">affine</property>
      <property name="shotcut:filter">affineSizePosition</property>
      <property name="transition.fill">1</property>
      <property name="transition.distort">0</property>
      <property name="transition.rect">0.0 771.0 275.0 155.0 1</property>
      <property name="transition.valign">top</property>
      <property name="transition.halign">left</property>
      <property name="shotcut:animIn">00:00:00.000</property>
      <property name="shotcut:animOut">00:00:00.000</property>
      <property name="transition.threads">0</property>
    </filter>
    <filter id="filter536" out="00:00:09.000000">
      <property name="window">75</property>
      <property name="max_gain">20dB</property>
      <property name="mlt_service">volume</property>
      <property name="shotcut:filter">muteVolume</property>
      <property name="gain">0</property>
    </filter>
  </producer>
  <producer id="producer292" title="Anonymous Submission" in="00:00:00.000" out="00:03:04.400">
    <property name="length">00:03:04:11</property>
    <property name="eof">pause</property>
    <property name="resource">../../006 - Videos format youtube/Clarinettes/Violette_clarinette_totoro.mp4</property>
    <property name="audio_index">1</property>
    <property name="video_index">0</property>
    <property name="mute_on_pause">0</property>
    <property name="mlt_service">avformat-novalidate</property>
    <property name="seekable">1</property>
    <property name="aspect_ratio">1</property>
    <property name="creation_time">2020-04-13T15:00:56</property>
    <property name="shotcut:hash">be5d154cb44417d0faf36686c0a4cbbc</property>
    <property name="ignore_points">0</property>
    <property name="shotcut:caption">Violette_clarinette_totoro.mp4</property>
    <property name="shotcut:skipConvert">1</property>
    <property name="global_feed">1</property>
    <property name="xml">was here</property>
    <filter id="filter537" out="00:00:16.000000" in="00:00:09.040000">
      <property name="background">colour:0</property>
      <property name="mlt_service">affine</property>
      <property name="shotcut:filter">affineSizePosition</property>
      <property name="transition.fill">1</property>
      <property name="transition.distort">0</property>
      <property name="transition.rect">00:00:00.000000=0.0 771.0 276.0 155.0 1;00:00:00.440000=1371.0 771.0 275.0 155.0 1</property>
      <property name="transition.valign">top</property>
      <property name="transition.halign">left</property>
      <property name="shotcut:animIn">00:00:00.480000</property>
      <property name="shotcut:animOut">00:00:00.000</property>
      <property name="transition.threads">0</property>
    </filter>
    <filter id="filter538" out="00:00:16.000000" in="00:00:09.040000">
      <property name="window">75</property>
      <property name="max_gain">20dB</property>
      <property name="mlt_service">volume</property>
      <property name="shotcut:filter">muteVolume</property>
      <property name="gain">0</property>
    </filter>
  </producer>
  <producer id="producer293" title="Anonymous Submission" in="00:00:00.000" out="00:03:04.400">
    <property name="length">00:03:04:11</property>
    <property name="eof">pause</property>
    <property name="resource">../../006 - Videos format youtube/Clarinettes/Violette_clarinette_totoro.mp4</property>
    <property name="audio_index">1</property>
    <property name="video_index">0</property>
    <property name="mute_on_pause">0</property>
    <property name="mlt_service">avformat-novalidate</property>
    <property name="seekable">1</property>
    <property name="aspect_ratio">1</property>
    <property name="creation_time">2020-04-13T15:00:56</property>
    <property name="shotcut:hash">be5d154cb44417d0faf36686c0a4cbbc</property>
    <property name="ignore_points">0</property>
    <property name="shotcut:caption">Violette_clarinette_totoro.mp4</property>
    <property name="shotcut:skipConvert">1</property>
    <property name="global_feed">1</property>
    <property name="xml">was here</property>
    <filter id="filter539" out="00:00:17.240000" in="00:00:16.040000">
      <property name="background">colour:0</property>
      <property name="mlt_service">affine</property>
      <property name="shotcut:filter">affineSizePosition</property>
      <property name="transition.fill">1</property>
      <property name="transition.distort">0</property>
      <property name="transition.rect">00:00:00.000000=2160.0 0.0 242.0 136.0 1;00:00:01.200000=2400.0 0.0 241.0 136.0 1</property>
      <property name="transition.valign">top</property>
      <property name="transition.halign">left</property>
      <property name="shotcut:animIn">00:00:01.240000</property>
      <property name="shotcut:animOut">00:00:00.000</property>
      <property name="transition.threads">0</property>
    </filter>
    <filter id="filter540" out="00:00:17.240000" in="00:00:16.040000">
      <property name="window">75</property>
      <property name="max_gain">20dB</property>
      <property name="mlt_service">volume</property>
      <property name="shotcut:filter">muteVolume</property>
      <property name="gain">0</property>
    </filter>
  </producer>
  <producer id="producer294" title="Anonymous Submission" in="00:00:00.000" out="00:03:04.400">
    <property name="length">00:03:04:11</property>
    <property name="eof">pause</property>
    <property name="resource">../../006 - Videos format youtube/Clarinettes/Violette_clarinette_totoro.mp4</property>
    <property name="audio_index">1</property>
    <property name="video_index">0</property>
    <property name="mute_on_pause">0</property>
    <property name="mlt_service">avformat-novalidate</property>
    <property name="seekable">1</property>
    <property name="aspect_ratio">1</property>
    <property name="creation_time">2020-04-13T15:00:56</property>
    <property name="shotcut:hash">be5d154cb44417d0faf36686c0a4cbbc</property>
    <property name="ignore_points">0</property>
    <property name="shotcut:caption">Violette_clarinette_totoro.mp4</property>
    <property name="shotcut:skipConvert">1</property>
    <property name="global_feed">1</property>
    <property name="xml">was here</property>
    <filter id="filter541" out="00:00:18.480000" in="00:00:17.280000">
      <property name="background">colour:0</property>
      <property name="mlt_service">affine</property>
      <property name="shotcut:filter">affineSizePosition</property>
      <property name="transition.fill">1</property>
      <property name="transition.distort">0</property>
      <property name="transition.rect">00:00:00.000000=0.0 0.0 242.0 136.0 1;00:00:01.200000=240.0 0.0 241.0 136.0 1</property>
      <property name="transition.valign">top</property>
      <property name="transition.halign">left</property>
      <property name="shotcut:animIn">00:00:01.240000</property>
      <property name="shotcut:animOut">00:00:00.000</property>
      <property name="transition.threads">0</property>
    </filter>
    <filter id="filter542" out="00:00:18.480000" in="00:00:17.280000">
      <property name="window">75</property>
      <property name="max_gain">20dB</property>
      <property name="mlt_service">volume</property>
      <property name="shotcut:filter">muteVolume</property>
      <property name="gain">0</property>
    </filter>
  </producer>
  <producer id="producer295" title="Anonymous Submission" in="00:00:00.000" out="00:03:04.400">
    <property name="length">00:03:04:11</property>
    <property name="eof">pause</property>
    <property name="resource">../../006 - Videos format youtube/Clarinettes/Violette_clarinette_totoro.mp4</property>
    <property name="audio_index">1</property>
    <property name="video_index">0</property>
    <property name="mute_on_pause">0</property>
    <property name="mlt_service">avformat-novalidate</property>
    <property name="seekable">1</property>
    <property name="aspect_ratio">1</property>
    <property name="creation_time">2020-04-13T15:00:56</property>
    <property name="shotcut:hash">be5d154cb44417d0faf36686c0a4cbbc</property>
    <property name="ignore_points">0</property>
    <property name="shotcut:caption">Violette_clarinette_totoro.mp4</property>
    <property name="shotcut:skipConvert">1</property>
    <property name="global_feed">1</property>
    <property name="xml">was here</property>
    <filter id="filter543" out="00:00:19.720000" in="00:00:18.520000">
      <property name="background">colour:0</property>
      <property name="mlt_service">affine</property>
      <property name="shotcut:filter">affineSizePosition</property>
      <property name="transition.fill">1</property>
      <property name="transition.distort">0</property>
      <property name="transition.rect">00:00:00.000000=240.0 0.0 242.0 136.0 1;00:00:01.200000=480.0 0.0 241.0 136.0 1</property>
      <property name="transition.valign">top</property>
      <property name="transition.halign">left</property>
      <property name="shotcut:animIn">00:00:01.240000</property>
      <property name="shotcut:animOut">00:00:00.000</property>
      <property name="transition.threads">0</property>
    </filter>
    <filter id="filter544" out="00:00:19.720000" in="00:00:18.520000">
      <property name="window">75</property>
      <property name="max_gain">20dB</property>
      <property name="mlt_service">volume</property>
      <property name="shotcut:filter">muteVolume</property>
      <property name="gain">0</property>
    </filter>
  </producer>
  <producer id="producer296" title="Anonymous Submission" in="00:00:00.000" out="00:03:04.400">
    <property name="length">00:03:04:11</property>
    <property name="eof">pause</property>
    <property name="resource">../../006 - Videos format youtube/Clarinettes/Violette_clarinette_totoro.mp4</property>
    <property name="audio_index">1</property>
    <property name="video_index">0</property>
    <property name="mute_on_pause">0</property>
    <property name="mlt_service">avformat-novalidate</property>
    <property name="seekable">1</property>
    <property name="aspect_ratio">1</property>
    <property name="creation_time">2020-04-13T15:00:56</property>
    <property name="shotcut:hash">be5d154cb44417d0faf36686c0a4cbbc</property>
    <property name="ignore_points">0</property>
    <property name="shotcut:caption">Violette_clarinette_totoro.mp4</property>
    <property name="shotcut:skipConvert">1</property>
    <property name="global_feed">1</property>
    <property name="xml">was here</property>
    <filter id="filter545" out="00:00:21.000000" in="00:00:19.760000">
      <property name="background">colour:0</property>
      <property name="mlt_service">affine</property>
      <property name="shotcut:filter">affineSizePosition</property>
      <property name="transition.fill">1</property>
      <property name="transition.distort">0</property>
      <property name="transition.rect">00:00:00.000000=480.0 0.0 242.0 136.0 1;00:00:01.200000=720.0 0.0 241.0 136.0 1</property>
      <property name="transition.valign">top</property>
      <property name="transition.halign">left</property>
      <property name="shotcut:animIn">00:00:01.240000</property>
      <property name="shotcut:animOut">00:00:00.000</property>
      <property name="transition.threads">0</property>
    </filter>
    <filter id="filter546" out="00:00:21.000000" in="00:00:19.760000">
      <property name="window">75</property>
      <property name="max_gain">20dB</property>
      <property name="mlt_service">volume</property>
      <property name="shotcut:filter">muteVolume</property>
      <property name="gain">0</property>
    </filter>
  </producer>
  <producer id="producer297" title="Anonymous Submission" in="00:00:00.000" out="00:03:04.400">
    <property name="length">00:03:04:11</property>
    <property name="eof">pause</property>
    <property name="resource">../../006 - Videos format youtube/Clarinettes/Violette_clarinette_totoro.mp4</property>
    <property name="audio_index">1</property>
    <property name="video_index">0</property>
    <property name="mute_on_pause">0</property>
    <property name="mlt_service">avformat-novalidate</property>
    <property name="seekable">1</property>
    <property name="aspect_ratio">1</property>
    <property name="creation_time">2020-04-13T15:00:56</property>
    <property name="shotcut:hash">be5d154cb44417d0faf36686c0a4cbbc</property>
    <property name="ignore_points">0</property>
    <property name="shotcut:caption">Violette_clarinette_totoro.mp4</property>
    <property name="shotcut:skipConvert">1</property>
    <property name="global_feed">1</property>
    <property name="xml">was here</property>
    <filter id="filter547" out="00:00:22.240000" in="00:00:21.040000">
      <property name="background">colour:0</property>
      <property name="mlt_service">affine</property>
      <property name="shotcut:filter">affineSizePosition</property>
      <property name="transition.fill">1</property>
      <property name="transition.distort">0</property>
      <property name="transition.rect">00:00:00.000000=720.0 0.0 242.0 136.0 1;00:00:01.200000=960.0 0.0 241.0 136.0 1</property>
      <property name="transition.valign">top</property>
      <property name="transition.halign">left</property>
      <property name="shotcut:animIn">00:00:01.240000</property>
      <property name="shotcut:animOut">00:00:00.000</property>
      <property name="transition.threads">0</property>
    </filter>
    <filter id="filter548" out="00:00:22.240000" in="00:00:21.040000">
      <property name="window">75</property>
      <property name="max_gain">20dB</property>
      <property name="mlt_service">volume</property>
      <property name="shotcut:filter">muteVolume</property>
      <property name="gain">0</property>
    </filter>
  </producer>
  <producer id="producer298" title="Anonymous Submission" in="00:00:00.000" out="00:03:04.400">
    <property name="length">00:03:04:11</property>
    <property name="eof">pause</property>
    <property name="resource">../../006 - Videos format youtube/Clarinettes/Violette_clarinette_totoro.mp4</property>
    <property name="audio_index">1</property>
    <property name="video_index">0</property>
    <property name="mute_on_pause">0</property>
    <property name="mlt_service">avformat-novalidate</property>
    <property name="seekable">1</property>
    <property name="aspect_ratio">1</property>
    <property name="creation_time">2020-04-13T15:00:56</property>
    <property name="shotcut:hash">be5d154cb44417d0faf36686c0a4cbbc</property>
    <property name="ignore_points">0</property>
    <property name="shotcut:caption">Violette_clarinette_totoro.mp4</property>
    <property name="shotcut:skipConvert">1</property>
    <property name="global_feed">1</property>
    <property name="xml">was here</property>
    <filter id="filter549" out="00:00:23.480000" in="00:00:22.280000">
      <property name="background">colour:0</property>
      <property name="mlt_service">affine</property>
      <property name="shotcut:filter">affineSizePosition</property>
      <property name="transition.fill">1</property>
      <property name="transition.distort">0</property>
      <property name="transition.rect">00:00:00.000000=960.0 0.0 242.0 136.0 1;00:00:01.200000=1200.0 0.0 241.0 136.0 1</property>
      <property name="transition.valign">top</property>
      <property name="transition.halign">left</property>
      <property name="shotcut:animIn">00:00:01.240000</property>
      <property name="shotcut:animOut">00:00:00.000</property>
      <property name="transition.threads">0</property>
    </filter>
    <filter id="filter550" out="00:00:23.480000" in="00:00:22.280000">
      <property name="window">75</property>
      <property name="max_gain">20dB</property>
      <property name="mlt_service">volume</property>
      <property name="shotcut:filter">muteVolume</property>
      <property name="gain">0</property>
    </filter>
  </producer>
  <producer id="producer299" title="Anonymous Submission" in="00:00:00.000" out="00:03:04.400">
    <property name="length">00:03:04:11</property>
    <property name="eof">pause</property>
    <property name="resource">../../006 - Videos format youtube/Clarinettes/Violette_clarinette_totoro.mp4</property>
    <property name="audio_index">1</property>
    <property name="video_index">0</property>
    <property name="mute_on_pause">0</property>
    <property name="mlt_service">avformat-novalidate</property>
    <property name="seekable">1</property>
    <property name="aspect_ratio">1</property>
    <property name="creation_time">2020-04-13T15:00:56</property>
    <property name="shotcut:hash">be5d154cb44417d0faf36686c0a4cbbc</property>
    <property name="ignore_points">0</property>
    <property name="shotcut:caption">Violette_clarinette_totoro.mp4</property>
    <property name="shotcut:skipConvert">1</property>
    <property name="global_feed">1</property>
    <property name="xml">was here</property>
    <filter id="filter551" out="00:00:24.720000" in="00:00:23.520000">
      <property name="background">colour:0</property>
      <property name="mlt_service">affine</property>
      <property name="shotcut:filter">affineSizePosition</property>
      <property name="transition.fill">1</property>
      <property name="transition.distort">0</property>
      <property name="transition.rect">00:00:00.000000=1200.0 0.0 242.0 136.0 1;00:00:01.200000=1440.0 0.0 241.0 136.0 1</property>
      <property name="transition.valign">top</property>
      <property name="transition.halign">left</property>
      <property name="shotcut:animIn">00:00:01.240000</property>
      <property name="shotcut:animOut">00:00:00.000</property>
      <property name="transition.threads">0</property>
    </filter>
    <filter id="filter552" out="00:00:24.720000" in="00:00:23.520000">
      <property name="window">75</property>
      <property name="max_gain">20dB</property>
      <property name="mlt_service">volume</property>
      <property name="shotcut:filter">muteVolume</property>
      <property name="gain">0</property>
    </filter>
  </producer>
  <producer id="producer300" title="Anonymous Submission" in="00:00:00.000" out="00:03:04.400">
    <property name="length">00:03:04:11</property>
    <property name="eof">pause</property>
    <property name="resource">../../006 - Videos format youtube/Clarinettes/Violette_clarinette_totoro.mp4</property>
    <property name="audio_index">1</property>
    <property name="video_index">0</property>
    <property name="mute_on_pause">0</property>
    <property name="mlt_service">avformat-novalidate</property>
    <property name="seekable">1</property>
    <property name="aspect_ratio">1</property>
    <property name="creation_time">2020-04-13T15:00:56</property>
    <property name="shotcut:hash">be5d154cb44417d0faf36686c0a4cbbc</property>
    <property name="ignore_points">0</property>
    <property name="shotcut:caption">Violette_clarinette_totoro.mp4</property>
    <property name="shotcut:skipConvert">1</property>
    <property name="global_feed">1</property>
    <property name="xml">was here</property>
    <filter id="filter553" out="00:00:26.000000" in="00:00:24.760000">
      <property name="background">colour:0</property>
      <property name="mlt_service">affine</property>
      <property name="shotcut:filter">affineSizePosition</property>
      <property name="transition.fill">1</property>
      <property name="transition.distort">0</property>
      <property name="transition.rect">00:00:00.000000=1440.0 0.0 242.0 136.0 1;00:00:01.200000=1680.0 0.0 241.0 136.0 1</property>
      <property name="transition.valign">top</property>
      <property name="transition.halign">left</property>
      <property name="shotcut:animIn">00:00:01.240000</property>
      <property name="shotcut:animOut">00:00:00.000</property>
      <property name="transition.threads">0</property>
    </filter>
    <filter id="filter554" out="00:00:26.000000" in="00:00:24.760000">
      <property name="window">75</property>
      <property name="max_gain">20dB</property>
      <property name="mlt_service">volume</property>
      <property name="shotcut:filter">muteVolume</property>
      <property name="gain">0</property>
    </filter>
  </producer>
  <producer id="producer301" title="Anonymous Submission" in="00:00:00.000" out="00:03:04.400">
    <property name="length">00:03:04:11</property>
    <property name="eof">pause</property>
    <property name="resource">../../006 - Videos format youtube/Clarinettes/Violette_clarinette_totoro.mp4</property>
    <property name="audio_index">1</property>
    <property name="video_index">0</property>
    <property name="mute_on_pause">0</property>
    <property name="mlt_service">avformat-novalidate</property>
    <property name="seekable">1</property>
    <property name="aspect_ratio">1</property>
    <property name="creation_time">2020-04-13T15:00:56</property>
    <property name="shotcut:hash">be5d154cb44417d0faf36686c0a4cbbc</property>
    <property name="ignore_points">0</property>
    <property name="shotcut:caption">Violette_clarinette_totoro.mp4</property>
    <property name="shotcut:skipConvert">1</property>
    <property name="global_feed">1</property>
    <property name="xml">was here</property>
    <filter id="filter555" out="00:00:27.240000" in="00:00:26.040000">
      <property name="background">colour:0</property>
      <property name="mlt_service">affine</property>
      <property name="shotcut:filter">affineSizePosition</property>
      <property name="transition.fill">1</property>
      <property name="transition.distort">0</property>
      <property name="transition.rect">00:00:00.000000=1680.0 0.0 242.0 136.0 1;00:00:01.200000=1920.0 0.0 241.0 136.0 1</property>
      <property name="transition.valign">top</property>
      <property name="transition.halign">left</property>
      <property name="shotcut:animIn">00:00:01.240000</property>
      <property name="shotcut:animOut">00:00:00.000</property>
      <property name="transition.threads">0</property>
    </filter>
    <filter id="filter556" out="00:00:27.240000" in="00:00:26.040000">
      <property name="window">75</property>
      <property name="max_gain">20dB</property>
      <property name="mlt_service">volume</property>
      <property name="shotcut:filter">muteVolume</property>
      <property name="gain">0</property>
    </filter>
  </producer>
  <producer id="producer302" title="Anonymous Submission" in="00:00:00.000" out="00:03:04.400">
    <property name="length">00:03:04:11</property>
    <property name="eof">pause</property>
    <property name="resource">../../006 - Videos format youtube/Clarinettes/Violette_clarinette_totoro.mp4</property>
    <property name="audio_index">1</property>
    <property name="video_index">0</property>
    <property name="mute_on_pause">0</property>
    <property name="mlt_service">avformat-novalidate</property>
    <property name="seekable">1</property>
    <property name="aspect_ratio">1</property>
    <property name="creation_time">2020-04-13T15:00:56</property>
    <property name="shotcut:hash">be5d154cb44417d0faf36686c0a4cbbc</property>
    <property name="ignore_points">0</property>
    <property name="shotcut:caption">Violette_clarinette_totoro.mp4</property>
    <property name="shotcut:skipConvert">1</property>
    <property name="global_feed">1</property>
    <property name="xml">was here</property>
    <filter id="filter557" out="00:00:28.480000" in="00:00:27.280000">
      <property name="background">colour:0</property>
      <property name="mlt_service">affine</property>
      <property name="shotcut:filter">affineSizePosition</property>
      <property name="transition.fill">1</property>
      <property name="transition.distort">0</property>
      <property name="transition.rect">00:00:00.000000=1920.0 0.0 242.0 136.0 1;00:00:01.200000=2160.0 0.0 241.0 136.0 1</property>
      <property name="transition.valign">top</property>
      <property name="transition.halign">left</property>
      <property name="shotcut:animIn">00:00:01.240000</property>
      <property name="shotcut:animOut">00:00:00.000</property>
      <property name="transition.threads">0</property>
    </filter>
    <filter id="filter558" out="00:00:28.480000" in="00:00:27.280000">
      <property name="window">75</property>
      <property name="max_gain">20dB</property>
      <property name="mlt_service">volume</property>
      <property name="shotcut:filter">muteVolume</property>
      <property name="gain">0</property>
    </filter>
  </producer>
  <producer id="producer303" title="Anonymous Submission" in="00:00:00.000" out="00:03:04.400">
    <property name="length">00:03:04:11</property>
    <property name="eof">pause</property>
    <property name="resource">../../006 - Videos format youtube/Clarinettes/Violette_clarinette_totoro.mp4</property>
    <property name="audio_index">1</property>
    <property name="video_index">0</property>
    <property name="mute_on_pause">0</property>
    <property name="mlt_service">avformat-novalidate</property>
    <property name="seekable">1</property>
    <property name="aspect_ratio">1</property>
    <property name="creation_time">2020-04-13T15:00:56</property>
    <property name="shotcut:hash">be5d154cb44417d0faf36686c0a4cbbc</property>
    <property name="ignore_points">0</property>
    <property name="shotcut:caption">Violette_clarinette_totoro.mp4</property>
    <property name="shotcut:skipConvert">1</property>
    <property name="global_feed">1</property>
    <property name="xml">was here</property>
    <filter id="filter559" out="00:00:29.720000" in="00:00:28.520000">
      <property name="background">colour:0</property>
      <property name="mlt_service">affine</property>
      <property name="shotcut:filter">affineSizePosition</property>
      <property name="transition.fill">1</property>
      <property name="transition.distort">0</property>
      <property name="transition.rect">00:00:00.000000=2160.0 0.0 242.0 136.0 1;00:00:01.200000=2400.0 0.0 241.0 136.0 1</property>
      <property name="transition.valign">top</property>
      <property name="transition.halign">left</property>
      <property name="shotcut:animIn">00:00:01.240000</property>
      <property name="shotcut:animOut">00:00:00.000</property>
      <property name="transition.threads">0</property>
    </filter>
    <filter id="filter560" out="00:00:29.720000" in="00:00:28.520000">
      <property name="window">75</property>
      <property name="max_gain">20dB</property>
      <property name="mlt_service">volume</property>
      <property name="shotcut:filter">muteVolume</property>
      <property name="gain">0</property>
    </filter>
  </producer>
  <producer id="producer304" title="Anonymous Submission" in="00:00:00.000" out="00:03:04.400">
    <property name="length">00:03:04:11</property>
    <property name="eof">pause</property>
    <property name="resource">../../006 - Videos format youtube/Clarinettes/Violette_clarinette_totoro.mp4</property>
    <property name="audio_index">1</property>
    <property name="video_index">0</property>
    <property name="mute_on_pause">0</property>
    <property name="mlt_service">avformat-novalidate</property>
    <property name="seekable">1</property>
    <property name="aspect_ratio">1</property>
    <property name="creation_time">2020-04-13T15:00:56</property>
    <property name="shotcut:hash">be5d154cb44417d0faf36686c0a4cbbc</property>
    <property name="ignore_points">0</property>
    <property name="shotcut:caption">Violette_clarinette_totoro.mp4</property>
    <property name="shotcut:skipConvert">1</property>
    <property name="global_feed">1</property>
    <property name="xml">was here</property>
    <filter id="filter561" out="00:00:31.000000" in="00:00:29.760000">
      <property name="background">colour:0</property>
      <property name="mlt_service">affine</property>
      <property name="shotcut:filter">affineSizePosition</property>
      <property name="transition.fill">1</property>
      <property name="transition.distort">0</property>
      <property name="transition.rect">00:00:00.000000=0.0 0.0 242.0 136.0 1;00:00:01.200000=240.0 0.0 241.0 136.0 1</property>
      <property name="transition.valign">top</property>
      <property name="transition.halign">left</property>
      <property name="shotcut:animIn">00:00:01.240000</property>
      <property name="shotcut:animOut">00:00:00.000</property>
      <property name="transition.threads">0</property>
    </filter>
    <filter id="filter562" out="00:00:31.000000" in="00:00:29.760000">
      <property name="window">75</property>
      <property name="max_gain">20dB</property>
      <property name="mlt_service">volume</property>
      <property name="shotcut:filter">muteVolume</property>
      <property name="gain">0</property>
    </filter>
  </producer>
  <producer id="producer305" title="Anonymous Submission" in="00:00:00.000" out="00:03:04.400">
    <property name="length">00:03:04:11</property>
    <property name="eof">pause</property>
    <property name="resource">../../006 - Videos format youtube/Clarinettes/Violette_clarinette_totoro.mp4</property>
    <property name="audio_index">1</property>
    <property name="video_index">0</property>
    <property name="mute_on_pause">0</property>
    <property name="mlt_service">avformat-novalidate</property>
    <property name="seekable">1</property>
    <property name="aspect_ratio">1</property>
    <property name="creation_time">2020-04-13T15:00:56</property>
    <property name="shotcut:hash">be5d154cb44417d0faf36686c0a4cbbc</property>
    <property name="ignore_points">0</property>
    <property name="shotcut:caption">Violette_clarinette_totoro.mp4</property>
    <property name="shotcut:skipConvert">1</property>
    <property name="global_feed">1</property>
    <property name="xml">was here</property>
    <filter id="filter563" out="00:00:32.240000" in="00:00:31.040000">
      <property name="background">colour:0</property>
      <property name="mlt_service">affine</property>
      <property name="shotcut:filter">affineSizePosition</property>
      <property name="transition.fill">1</property>
      <property name="transition.distort">0</property>
      <property name="transition.rect">00:00:00.000000=240.0 0.0 242.0 136.0 1;00:00:01.200000=480.0 0.0 241.0 136.0 1</property>
      <property name="transition.valign">top</property>
      <property name="transition.halign">left</property>
      <property name="shotcut:animIn">00:00:01.240000</property>
      <property name="shotcut:animOut">00:00:00.000</property>
      <property name="transition.threads">0</property>
    </filter>
    <filter id="filter564" out="00:00:32.240000" in="00:00:31.040000">
      <property name="window">75</property>
      <property name="max_gain">20dB</property>
      <property name="mlt_service">volume</property>
      <property name="shotcut:filter">muteVolume</property>
      <property name="gain">0</property>
    </filter>
  </producer>
  <producer id="producer306" title="Anonymous Submission" in="00:00:00.000" out="00:03:04.400">
    <property name="length">00:03:04:11</property>
    <property name="eof">pause</property>
    <property name="resource">../../006 - Videos format youtube/Clarinettes/Violette_clarinette_totoro.mp4</property>
    <property name="audio_index">1</property>
    <property name="video_index">0</property>
    <property name="mute_on_pause">0</property>
    <property name="mlt_service">avformat-novalidate</property>
    <property name="seekable">1</property>
    <property name="aspect_ratio">1</property>
    <property name="creation_time">2020-04-13T15:00:56</property>
    <property name="shotcut:hash">be5d154cb44417d0faf36686c0a4cbbc</property>
    <property name="ignore_points">0</property>
    <property name="shotcut:caption">Violette_clarinette_totoro.mp4</property>
    <property name="shotcut:skipConvert">1</property>
    <property name="global_feed">1</property>
    <property name="xml">was here</property>
    <filter id="filter565" out="00:00:33.480000" in="00:00:32.280000">
      <property name="background">colour:0</property>
      <property name="mlt_service">affine</property>
      <property name="shotcut:filter">affineSizePosition</property>
      <property name="transition.fill">1</property>
      <property name="transition.distort">0</property>
      <property name="transition.rect">00:00:00.000000=480.0 0.0 242.0 136.0 1;00:00:01.200000=720.0 0.0 241.0 136.0 1</property>
      <property name="transition.valign">top</property>
      <property name="transition.halign">left</property>
      <property name="shotcut:animIn">00:00:01.240000</property>
      <property name="shotcut:animOut">00:00:00.000</property>
      <property name="transition.threads">0</property>
    </filter>
    <filter id="filter566" out="00:00:33.480000" in="00:00:32.280000">
      <property name="window">75</property>
      <property name="max_gain">20dB</property>
      <property name="mlt_service">volume</property>
      <property name="shotcut:filter">muteVolume</property>
      <property name="gain">0</property>
    </filter>
  </producer>
  <producer id="producer307" title="Anonymous Submission" in="00:00:00.000" out="00:03:04.400">
    <property name="length">00:03:04:11</property>
    <property name="eof">pause</property>
    <property name="resource">../../006 - Videos format youtube/Clarinettes/Violette_clarinette_totoro.mp4</property>
    <property name="audio_index">1</property>
    <property name="video_index">0</property>
    <property name="mute_on_pause">0</property>
    <property name="mlt_service">avformat-novalidate</property>
    <property name="seekable">1</property>
    <property name="aspect_ratio">1</property>
    <property name="creation_time">2020-04-13T15:00:56</property>
    <property name="shotcut:hash">be5d154cb44417d0faf36686c0a4cbbc</property>
    <property name="ignore_points">0</property>
    <property name="shotcut:caption">Violette_clarinette_totoro.mp4</property>
    <property name="shotcut:skipConvert">1</property>
    <property name="global_feed">1</property>
    <property name="xml">was here</property>
    <filter id="filter567" out="00:00:34.720000" in="00:00:33.520000">
      <property name="background">colour:0</property>
      <property name="mlt_service">affine</property>
      <property name="shotcut:filter">affineSizePosition</property>
      <property name="transition.fill">1</property>
      <property name="transition.distort">0</property>
      <property name="transition.rect">00:00:00.000000=720.0 0.0 242.0 136.0 1;00:00:01.200000=960.0 0.0 241.0 136.0 1</property>
      <property name="transition.valign">top</property>
      <property name="transition.halign">left</property>
      <property name="shotcut:animIn">00:00:01.240000</property>
      <property name="shotcut:animOut">00:00:00.000</property>
      <property name="transition.threads">0</property>
    </filter>
    <filter id="filter568" out="00:00:34.720000" in="00:00:33.520000">
      <property name="window">75</property>
      <property name="max_gain">20dB</property>
      <property name="mlt_service">volume</property>
      <property name="shotcut:filter">muteVolume</property>
      <property name="gain">0</property>
    </filter>
  </producer>
  <producer id="producer308" title="Anonymous Submission" in="00:00:00.000" out="00:03:04.400">
    <property name="length">00:03:04:11</property>
    <property name="eof">pause</property>
    <property name="resource">../../006 - Videos format youtube/Clarinettes/Violette_clarinette_totoro.mp4</property>
    <property name="audio_index">1</property>
    <property name="video_index">0</property>
    <property name="mute_on_pause">0</property>
    <property name="mlt_service">avformat-novalidate</property>
    <property name="seekable">1</property>
    <property name="aspect_ratio">1</property>
    <property name="creation_time">2020-04-13T15:00:56</property>
    <property name="shotcut:hash">be5d154cb44417d0faf36686c0a4cbbc</property>
    <property name="ignore_points">0</property>
    <property name="shotcut:caption">Violette_clarinette_totoro.mp4</property>
    <property name="shotcut:skipConvert">1</property>
    <property name="global_feed">1</property>
    <property name="xml">was here</property>
    <filter id="filter569" out="00:00:50.000000" in="00:00:34.760000">
      <property name="background">colour:0</property>
      <property name="mlt_service">affine</property>
      <property name="shotcut:filter">affineSizePosition</property>
      <property name="transition.fill">1</property>
      <property name="transition.distort">0</property>
      <property name="transition.rect">00:00:00.000000=960.0 0.0 242.0 136.0 1;00:00:01.200000=1200.0 0.0 241.0 136.0 1</property>
      <property name="transition.valign">top</property>
      <property name="transition.halign">left</property>
      <property name="shotcut:animIn">00:00:01.240000</property>
      <property name="shotcut:animOut">00:00:00.000</property>
      <property name="transition.threads">0</property>
    </filter>
    <filter id="filter570" out="00:00:50.000000" in="00:00:34.760000">
      <property name="window">75</property>
      <property name="max_gain">20dB</property>
      <property name="mlt_service">volume</property>
      <property name="shotcut:filter">muteVolume</property>
      <property name="gain">0</property>
    </filter>
  </producer>
  <producer id="producer309" title="Anonymous Submission" in="00:00:00.000" out="00:03:04.400">
    <property name="length">00:03:04:11</property>
    <property name="eof">pause</property>
    <property name="resource">../../006 - Videos format youtube/Clarinettes/Violette_clarinette_totoro.mp4</property>
    <property name="audio_index">1</property>
    <property name="video_index">0</property>
    <property name="mute_on_pause">0</property>
    <property name="mlt_service">avformat-novalidate</property>
    <property name="seekable">1</property>
    <property name="aspect_ratio">1</property>
    <property name="creation_time">2020-04-13T15:00:56</property>
    <property name="shotcut:hash">be5d154cb44417d0faf36686c0a4cbbc</property>
    <property name="ignore_points">0</property>
    <property name="shotcut:caption">Violette_clarinette_totoro.mp4</property>
    <property name="shotcut:skipConvert">1</property>
    <property name="global_feed">1</property>
    <property name="xml">was here</property>
    <filter id="filter571" out="00:00:58.000000" in="00:00:50.040000">
      <property name="background">colour:0</property>
      <property name="mlt_service">affine</property>
      <property name="shotcut:filter">affineSizePosition</property>
      <property name="transition.fill">1</property>
      <property name="transition.distort">0</property>
      <property name="transition.rect">0.0 771.0 275.0 155.0 1</property>
      <property name="transition.valign">top</property>
      <property name="transition.halign">left</property>
      <property name="shotcut:animIn">00:00:01.240000</property>
      <property name="shotcut:animOut">00:00:00.000</property>
      <property name="transition.threads">0</property>
    </filter>
    <filter id="filter572" out="00:00:58.000000" in="00:00:50.040000">
      <property name="window">75</property>
      <property name="max_gain">20dB</property>
      <property name="mlt_service">volume</property>
      <property name="shotcut:filter">muteVolume</property>
      <property name="gain">0</property>
    </filter>
  </producer>
  <producer id="producer310" title="Anonymous Submission" in="00:00:00.000" out="00:03:04.400">
    <property name="length">00:03:04:11</property>
    <property name="eof">pause</property>
    <property name="resource">../../006 - Videos format youtube/Clarinettes/Violette_clarinette_totoro.mp4</property>
    <property name="audio_index">1</property>
    <property name="video_index">0</property>
    <property name="mute_on_pause">0</property>
    <property name="mlt_service">avformat-novalidate</property>
    <property name="seekable">1</property>
    <property name="aspect_ratio">1</property>
    <property name="creation_time">2020-04-13T15:00:56</property>
    <property name="shotcut:hash">be5d154cb44417d0faf36686c0a4cbbc</property>
    <property name="ignore_points">0</property>
    <property name="shotcut:caption">Violette_clarinette_totoro.mp4</property>
    <property name="shotcut:skipConvert">1</property>
    <property name="global_feed">1</property>
    <property name="xml">was here</property>
    <filter id="filter573" out="00:01:06.000000" in="00:00:58.040000">
      <property name="background">colour:0</property>
      <property name="mlt_service">affine</property>
      <property name="shotcut:filter">affineSizePosition</property>
      <property name="transition.fill">1</property>
      <property name="transition.distort">0</property>
      <property name="transition.rect">-1097.0 -308.0 275.0 155.0 1</property>
      <property name="transition.valign">top</property>
      <property name="transition.halign">left</property>
      <property name="shotcut:animIn">00:00:01.240000</property>
      <property name="shotcut:animOut">00:00:00.000</property>
      <property name="transition.threads">0</property>
    </filter>
    <filter id="filter574" out="00:01:06.000000" in="00:00:58.040000">
      <property name="window">75</property>
      <property name="max_gain">20dB</property>
      <property name="mlt_service">volume</property>
      <property name="shotcut:filter">muteVolume</property>
      <property name="gain">0</property>
    </filter>
  </producer>
  <producer id="producer311" title="Anonymous Submission" in="00:00:00.000" out="00:03:04.400">
    <property name="length">00:03:04:11</property>
    <property name="eof">pause</property>
    <property name="resource">../../006 - Videos format youtube/Clarinettes/Violette_clarinette_totoro.mp4</property>
    <property name="audio_index">1</property>
    <property name="video_index">0</property>
    <property name="mute_on_pause">0</property>
    <property name="mlt_service">avformat-novalidate</property>
    <property name="seekable">1</property>
    <property name="aspect_ratio">1</property>
    <property name="creation_time">2020-04-13T15:00:56</property>
    <property name="shotcut:hash">be5d154cb44417d0faf36686c0a4cbbc</property>
    <property name="ignore_points">0</property>
    <property name="shotcut:caption">Violette_clarinette_totoro.mp4</property>
    <property name="shotcut:skipConvert">1</property>
    <property name="global_feed">1</property>
    <property name="xml">was here</property>
    <filter id="filter575" out="00:01:13.000000" in="00:01:06.040000">
      <property name="background">colour:0</property>
      <property name="mlt_service">affine</property>
      <property name="shotcut:filter">affineSizePosition</property>
      <property name="transition.fill">1</property>
      <property name="transition.distort">0</property>
      <property name="transition.rect">640.0 900.0 321.0 181.0 1</property>
      <property name="transition.valign">top</property>
      <property name="transition.halign">left</property>
      <property name="shotcut:animIn">00:00:01.240000</property>
      <property name="shotcut:animOut">00:00:00.000</property>
      <property name="transition.threads">0</property>
    </filter>
    <filter id="filter576" out="00:01:13.000000" in="00:01:06.040000">
      <property name="window">75</property>
      <property name="max_gain">20dB</property>
      <property name="mlt_service">volume</property>
      <property name="shotcut:filter">muteVolume</property>
      <property name="gain">0</property>
    </filter>
  </producer>
  <producer id="producer312" title="Anonymous Submission" in="00:00:00.000" out="00:03:04.400">
    <property name="length">00:03:04:11</property>
    <property name="eof">pause</property>
    <property name="resource">../../006 - Videos format youtube/Clarinettes/Violette_clarinette_totoro.mp4</property>
    <property name="audio_index">1</property>
    <property name="video_index">0</property>
    <property name="mute_on_pause">0</property>
    <property name="mlt_service">avformat-novalidate</property>
    <property name="seekable">1</property>
    <property name="aspect_ratio">1</property>
    <property name="creation_time">2020-04-13T15:00:56</property>
    <property name="shotcut:hash">be5d154cb44417d0faf36686c0a4cbbc</property>
    <property name="ignore_points">0</property>
    <property name="shotcut:caption">Violette_clarinette_totoro.mp4</property>
    <property name="shotcut:skipConvert">1</property>
    <property name="global_feed">1</property>
    <property name="xml">was here</property>
    <filter id="filter577" out="00:01:21.000000" in="00:01:13.040000">
      <property name="background">colour:0</property>
      <property name="mlt_service">affine</property>
      <property name="shotcut:filter">affineSizePosition</property>
      <property name="transition.fill">1</property>
      <property name="transition.distort">0</property>
      <property name="transition.rect">640.0 -1260.0 321.0 181.0 1</property>
      <property name="transition.valign">top</property>
      <property name="transition.halign">left</property>
      <property name="shotcut:animIn">00:00:01.240000</property>
      <property name="shotcut:animOut">00:00:00.000</property>
      <property name="transition.threads">0</property>
    </filter>
    <filter id="filter578" out="00:01:21.000000" in="00:01:13.040000">
      <property name="window">75</property>
      <property name="max_gain">20dB</property>
      <property name="mlt_service">volume</property>
      <property name="shotcut:filter">muteVolume</property>
      <property name="gain">0</property>
    </filter>
  </producer>
  <producer id="producer313" title="Anonymous Submission" in="00:00:00.000" out="00:03:04.400">
    <property name="length">00:03:04:11</property>
    <property name="eof">pause</property>
    <property name="resource">../../006 - Videos format youtube/Clarinettes/Violette_clarinette_totoro.mp4</property>
    <property name="audio_index">1</property>
    <property name="video_index">0</property>
    <property name="mute_on_pause">0</property>
    <property name="mlt_service">avformat-novalidate</property>
    <property name="seekable">1</property>
    <property name="aspect_ratio">1</property>
    <property name="creation_time">2020-04-13T15:00:56</property>
    <property name="shotcut:hash">be5d154cb44417d0faf36686c0a4cbbc</property>
    <property name="ignore_points">0</property>
    <property name="shotcut:caption">Violette_clarinette_totoro.mp4</property>
    <property name="shotcut:skipConvert">1</property>
    <property name="global_feed">1</property>
    <property name="xml">was here</property>
    <filter id="filter579" out="00:01:30.000000" in="00:01:21.040000">
      <property name="background">colour:0</property>
      <property name="mlt_service">affine</property>
      <property name="shotcut:filter">affineSizePosition</property>
      <property name="transition.fill">1</property>
      <property name="transition.distort">0</property>
      <property name="transition.rect">-548.0 -308.0 275.0 155.0 1</property>
      <property name="transition.valign">top</property>
      <property name="transition.halign">left</property>
      <property name="shotcut:animIn">00:00:01.240000</property>
      <property name="shotcut:animOut">00:00:00.000</property>
      <property name="transition.threads">0</property>
    </filter>
    <filter id="filter580" out="00:01:30.000000" in="00:01:21.040000">
      <property name="window">75</property>
      <property name="max_gain">20dB</property>
      <property name="mlt_service">volume</property>
      <property name="shotcut:filter">muteVolume</property>
      <property name="gain">0</property>
    </filter>
  </producer>
  <producer id="producer314" title="Anonymous Submission" in="00:00:00.000" out="00:03:04.400">
    <property name="length">00:03:04:11</property>
    <property name="eof">pause</property>
    <property name="resource">../../006 - Videos format youtube/Clarinettes/Violette_clarinette_totoro.mp4</property>
    <property name="audio_index">1</property>
    <property name="video_index">0</property>
    <property name="mute_on_pause">0</property>
    <property name="mlt_service">avformat-novalidate</property>
    <property name="seekable">1</property>
    <property name="aspect_ratio">1</property>
    <property name="creation_time">2020-04-13T15:00:56</property>
    <property name="shotcut:hash">be5d154cb44417d0faf36686c0a4cbbc</property>
    <property name="ignore_points">0</property>
    <property name="shotcut:caption">Violette_clarinette_totoro.mp4</property>
    <property name="shotcut:skipConvert">1</property>
    <property name="global_feed">1</property>
    <property name="xml">was here</property>
    <filter id="filter581" out="00:01:37.000000" in="00:01:30.040000">
      <property name="background">colour:0</property>
      <property name="mlt_service">affine</property>
      <property name="shotcut:filter">affineSizePosition</property>
      <property name="transition.fill">1</property>
      <property name="transition.distort">0</property>
      <property name="transition.rect">0.0 771.0 275.0 155.0 1</property>
      <property name="transition.valign">top</property>
      <property name="transition.halign">left</property>
      <property name="shotcut:animIn">00:00:01.240000</property>
      <property name="shotcut:animOut">00:00:00.000</property>
      <property name="transition.threads">0</property>
    </filter>
    <filter id="filter582" out="00:01:37.000000" in="00:01:30.040000">
      <property name="window">75</property>
      <property name="max_gain">20dB</property>
      <property name="mlt_service">volume</property>
      <property name="shotcut:filter">muteVolume</property>
      <property name="gain">0</property>
    </filter>
  </producer>
  <producer id="producer315" title="Anonymous Submission" in="00:00:00.000" out="00:03:04.400">
    <property name="length">00:03:04:11</property>
    <property name="eof">pause</property>
    <property name="resource">../../006 - Videos format youtube/Clarinettes/Violette_clarinette_totoro.mp4</property>
    <property name="audio_index">1</property>
    <property name="video_index">0</property>
    <property name="mute_on_pause">0</property>
    <property name="mlt_service">avformat-novalidate</property>
    <property name="seekable">1</property>
    <property name="aspect_ratio">1</property>
    <property name="creation_time">2020-04-13T15:00:56</property>
    <property name="shotcut:hash">be5d154cb44417d0faf36686c0a4cbbc</property>
    <property name="ignore_points">0</property>
    <property name="shotcut:caption">Violette_clarinette_totoro.mp4</property>
    <property name="shotcut:skipConvert">1</property>
    <property name="global_feed">1</property>
    <property name="xml">was here</property>
    <filter id="filter583" out="00:03:04.400000" in="00:01:37.040000">
      <property name="background">colour:0</property>
      <property name="mlt_service">affine</property>
      <property name="shotcut:filter">affineSizePosition</property>
      <property name="transition.fill">1</property>
      <property name="transition.distort">0</property>
      <property name="transition.rect">-640.0 -360.0 321.0 181.0 1</property>
      <property name="transition.valign">top</property>
      <property name="transition.halign">left</property>
      <property name="shotcut:animIn">00:00:01.240000</property>
      <property name="shotcut:animOut">00:00:00.000</property>
      <property name="transition.threads">0</property>
    </filter>
    <filter id="filter584" out="00:03:04.400000" in="00:01:37.040000">
      <property name="window">75</property>
      <property name="max_gain">20dB</property>
      <property name="mlt_service">volume</property>
      <property name="shotcut:filter">muteVolume</property>
      <property name="gain">0</property>
    </filter>
  </producer>
  <playlist id="playlist17">
    <property name="shotcut:video">1</property>
    <property name="shotcut:name">Violette</property>
    <property name="shotcut:lock">1</property>
    <blank length="00:00:13.960" />
    <entry producer="producer291" in="00:00:00.000" out="00:00:09.000000" />
    <entry producer="producer292" in="00:00:09.040000" out="00:00:16.000000" />
    <entry producer="producer293" in="00:00:16.040000" out="00:00:17.240000" />
    <entry producer="producer294" in="00:00:17.280000" out="00:00:18.480000" />
    <entry producer="producer295" in="00:00:18.520000" out="00:00:19.720000" />
    <entry producer="producer296" in="00:00:19.760000" out="00:00:21.000000" />
    <entry producer="producer297" in="00:00:21.040000" out="00:00:22.240000" />
    <entry producer="producer298" in="00:00:22.280000" out="00:00:23.480000" />
    <entry producer="producer299" in="00:00:23.520000" out="00:00:24.720000" />
    <entry producer="producer300" in="00:00:24.760000" out="00:00:26.000000" />
    <entry producer="producer301" in="00:00:26.040000" out="00:00:27.240000" />
    <entry producer="producer302" in="00:00:27.280000" out="00:00:28.480000" />
    <entry producer="producer303" in="00:00:28.520000" out="00:00:29.720000" />
    <entry producer="producer304" in="00:00:29.760000" out="00:00:31.000000" />
    <entry producer="producer305" in="00:00:31.040000" out="00:00:32.240000" />
    <entry producer="producer306" in="00:00:32.280000" out="00:00:33.480000" />
    <entry producer="producer307" in="00:00:33.520000" out="00:00:34.720000" />
    <entry producer="producer308" in="00:00:34.760000" out="00:00:50.000000" />
    <entry producer="producer309" in="00:00:50.040000" out="00:00:58.000000" />
    <entry producer="producer310" in="00:00:58.040000" out="00:01:06.000000" />
    <entry producer="producer311" in="00:01:06.040000" out="00:01:13.000000" />
    <entry producer="producer312" in="00:01:13.040000" out="00:01:21.000000" />
    <entry producer="producer313" in="00:01:21.040000" out="00:01:30.000000" />
    <entry producer="producer314" in="00:01:30.040000" out="00:01:37.000000" />
    <entry producer="producer315" in="00:01:37.040000" out="00:03:04.400000" />
    <filter id="filter585" out="00:03:23.320">
      <property name="window">75</property>
      <property name="max_gain">20dB</property>
      <property name="level">-10</property>
      <property name="mlt_service">volume</property>
    </filter>
  </playlist>
  <producer id="producer316" title="Anonymous Submission" in="00:00:00.000" out="00:03:41.120">
    <property name="length">00:03:41:04</property>
    <property name="eof">pause</property>
    <property name="resource">../../006 - Videos format youtube/Cor/Andr&#233;_cor_totoro.mp4</property>
    <property name="audio_index">1</property>
    <property name="video_index">0</property>
    <property name="mute_on_pause">0</property>
    <property name="mlt_service">avformat-novalidate</property>
    <property name="seekable">1</property>
    <property name="aspect_ratio">1</property>
    <property name="shotcut:hash">8728c09feae42f34c50f8e6c186504c9</property>
    <property name="ignore_points">0</property>
    <property name="shotcut:caption">Andr&#233;_cor_totoro.mp4</property>
    <property name="shotcut:skipConvert">1</property>
    <property name="global_feed">1</property>
    <property name="xml">was here</property>
    <filter id="filter586" in="00:00:20.080" out="00:00:40.920000">
      <property name="background">colour:0</property>
      <property name="mlt_service">affine</property>
      <property name="shotcut:filter">affineSizePosition</property>
      <property name="transition.fill">1</property>
      <property name="transition.distort">0</property>
      <property name="transition.rect">548.0 154.0 275.0 155.0 1</property>
      <property name="transition.valign">top</property>
      <property name="transition.halign">left</property>
      <property name="shotcut:animIn">00:00:00.000</property>
      <property name="shotcut:animOut">00:00:00.000</property>
      <property name="transition.threads">0</property>
    </filter>
    <filter id="filter587" in="00:00:20.080" out="00:00:40.920000">
      <property name="window">75</property>
      <property name="max_gain">20dB</property>
      <property name="mlt_service">volume</property>
      <property name="shotcut:filter">muteVolume</property>
      <property name="gain">0</property>
    </filter>
  </producer>
  <producer id="producer317" title="Anonymous Submission" in="00:00:00.000" out="00:03:41.120">
    <property name="length">00:03:41:04</property>
    <property name="eof">pause</property>
    <property name="resource">../../006 - Videos format youtube/Cor/Andr&#233;_cor_totoro.mp4</property>
    <property name="audio_index">1</property>
    <property name="video_index">0</property>
    <property name="mute_on_pause">0</property>
    <property name="mlt_service">avformat-novalidate</property>
    <property name="seekable">1</property>
    <property name="aspect_ratio">1</property>
    <property name="shotcut:hash">8728c09feae42f34c50f8e6c186504c9</property>
    <property name="ignore_points">0</property>
    <property name="shotcut:caption">Andr&#233;_cor_totoro.mp4</property>
    <property name="shotcut:skipConvert">1</property>
    <property name="global_feed">1</property>
    <property name="xml">was here</property>
    <filter id="filter588" in="00:00:40.960000" out="00:00:47.920000">
      <property name="background">colour:0</property>
      <property name="mlt_service">affine</property>
      <property name="shotcut:filter">affineSizePosition</property>
      <property name="transition.fill">1</property>
      <property name="transition.distort">0</property>
      <property name="transition.rect">00:00:00.000000=548.0 154.0 276.0 155.0 1;00:00:00.440000=1645.0 0.0 275.0 155.0 1</property>
      <property name="transition.valign">top</property>
      <property name="transition.halign">left</property>
      <property name="shotcut:animIn">00:00:00.480000</property>
      <property name="shotcut:animOut">00:00:00.000</property>
      <property name="transition.threads">0</property>
    </filter>
    <filter id="filter589" in="00:00:40.960000" out="00:00:47.920000">
      <property name="window">75</property>
      <property name="max_gain">20dB</property>
      <property name="mlt_service">volume</property>
      <property name="shotcut:filter">muteVolume</property>
      <property name="gain">0</property>
    </filter>
  </producer>
  <producer id="producer318" title="Anonymous Submission" in="00:00:00.000" out="00:03:41.120">
    <property name="length">00:03:41:04</property>
    <property name="eof">pause</property>
    <property name="resource">../../006 - Videos format youtube/Cor/Andr&#233;_cor_totoro.mp4</property>
    <property name="audio_index">1</property>
    <property name="video_index">0</property>
    <property name="mute_on_pause">0</property>
    <property name="mlt_service">avformat-novalidate</property>
    <property name="seekable">1</property>
    <property name="aspect_ratio">1</property>
    <property name="shotcut:hash">8728c09feae42f34c50f8e6c186504c9</property>
    <property name="ignore_points">0</property>
    <property name="shotcut:caption">Andr&#233;_cor_totoro.mp4</property>
    <property name="shotcut:skipConvert">1</property>
    <property name="global_feed">1</property>
    <property name="xml">was here</property>
    <filter id="filter590" in="00:00:47.960000" out="00:01:21.920000">
      <property name="background">colour:0</property>
      <property name="mlt_service">affine</property>
      <property name="shotcut:filter">affineSizePosition</property>
      <property name="transition.fill">1</property>
      <property name="transition.distort">0</property>
      <property name="transition.rect">-480.0 -270.0 241.0 136.0 1</property>
      <property name="transition.valign">top</property>
      <property name="transition.halign">left</property>
      <property name="shotcut:animIn">00:00:00.480000</property>
      <property name="shotcut:animOut">00:00:00.000</property>
      <property name="transition.threads">0</property>
    </filter>
    <filter id="filter591" in="00:00:47.960000" out="00:01:21.920000">
      <property name="window">75</property>
      <property name="max_gain">20dB</property>
      <property name="mlt_service">volume</property>
      <property name="shotcut:filter">muteVolume</property>
      <property name="gain">0</property>
    </filter>
  </producer>
  <producer id="producer319" title="Anonymous Submission" in="00:00:00.000" out="00:03:41.120">
    <property name="length">00:03:41:04</property>
    <property name="eof">pause</property>
    <property name="resource">../../006 - Videos format youtube/Cor/Andr&#233;_cor_totoro.mp4</property>
    <property name="audio_index">1</property>
    <property name="video_index">0</property>
    <property name="mute_on_pause">0</property>
    <property name="mlt_service">avformat-novalidate</property>
    <property name="seekable">1</property>
    <property name="aspect_ratio">1</property>
    <property name="shotcut:hash">8728c09feae42f34c50f8e6c186504c9</property>
    <property name="ignore_points">0</property>
    <property name="shotcut:caption">Andr&#233;_cor_totoro.mp4</property>
    <property name="shotcut:skipConvert">1</property>
    <property name="global_feed">1</property>
    <property name="xml">was here</property>
    <filter id="filter592" in="00:01:21.960000" out="00:01:29.920000">
      <property name="background">colour:0</property>
      <property name="mlt_service">affine</property>
      <property name="shotcut:filter">affineSizePosition</property>
      <property name="transition.fill">1</property>
      <property name="transition.distort">0</property>
      <property name="transition.rect">1371.0 617.0 275.0 155.0 1</property>
      <property name="transition.valign">top</property>
      <property name="transition.halign">left</property>
      <property name="shotcut:animIn">00:00:00.480000</property>
      <property name="shotcut:animOut">00:00:00.000</property>
      <property name="transition.threads">0</property>
    </filter>
    <filter id="filter593" in="00:01:21.960000" out="00:01:29.920000">
      <property name="window">75</property>
      <property name="max_gain">20dB</property>
      <property name="mlt_service">volume</property>
      <property name="shotcut:filter">muteVolume</property>
      <property name="gain">0</property>
    </filter>
  </producer>
  <producer id="producer320" title="Anonymous Submission" in="00:00:00.000" out="00:03:41.120">
    <property name="length">00:03:41:04</property>
    <property name="eof">pause</property>
    <property name="resource">../../006 - Videos format youtube/Cor/Andr&#233;_cor_totoro.mp4</property>
    <property name="audio_index">1</property>
    <property name="video_index">0</property>
    <property name="mute_on_pause">0</property>
    <property name="mlt_service">avformat-novalidate</property>
    <property name="seekable">1</property>
    <property name="aspect_ratio">1</property>
    <property name="shotcut:hash">8728c09feae42f34c50f8e6c186504c9</property>
    <property name="ignore_points">0</property>
    <property name="shotcut:caption">Andr&#233;_cor_totoro.mp4</property>
    <property name="shotcut:skipConvert">1</property>
    <property name="global_feed">1</property>
    <property name="xml">was here</property>
    <filter id="filter594" in="00:01:29.960000" out="00:01:37.920000">
      <property name="background">colour:0</property>
      <property name="mlt_service">affine</property>
      <property name="shotcut:filter">affineSizePosition</property>
      <property name="transition.fill">1</property>
      <property name="transition.distort">0</property>
      <property name="transition.rect">0.0 0.0 275.0 155.0 1</property>
      <property name="transition.valign">top</property>
      <property name="transition.halign">left</property>
      <property name="shotcut:animIn">00:00:00.480000</property>
      <property name="shotcut:animOut">00:00:00.000</property>
      <property name="transition.threads">0</property>
    </filter>
    <filter id="filter595" in="00:01:29.960000" out="00:01:37.920000">
      <property name="window">75</property>
      <property name="max_gain">20dB</property>
      <property name="mlt_service">volume</property>
      <property name="shotcut:filter">muteVolume</property>
      <property name="gain">0</property>
    </filter>
  </producer>
  <producer id="producer321" title="Anonymous Submission" in="00:00:00.000" out="00:03:41.120">
    <property name="length">00:03:41:04</property>
    <property name="eof">pause</property>
    <property name="resource">../../006 - Videos format youtube/Cor/Andr&#233;_cor_totoro.mp4</property>
    <property name="audio_index">1</property>
    <property name="video_index">0</property>
    <property name="mute_on_pause">0</property>
    <property name="mlt_service">avformat-novalidate</property>
    <property name="seekable">1</property>
    <property name="aspect_ratio">1</property>
    <property name="shotcut:hash">8728c09feae42f34c50f8e6c186504c9</property>
    <property name="ignore_points">0</property>
    <property name="shotcut:caption">Andr&#233;_cor_totoro.mp4</property>
    <property name="shotcut:skipConvert">1</property>
    <property name="global_feed">1</property>
    <property name="xml">was here</property>
    <filter id="filter596" in="00:01:37.960000" out="00:01:44.920000">
      <property name="background">colour:0</property>
      <property name="mlt_service">affine</property>
      <property name="shotcut:filter">affineSizePosition</property>
      <property name="transition.fill">1</property>
      <property name="transition.distort">0</property>
      <property name="transition.rect">1280.0 180.0 321.0 181.0 1</property>
      <property name="transition.valign">top</property>
      <property name="transition.halign">left</property>
      <property name="shotcut:animIn">00:00:00.480000</property>
      <property name="shotcut:animOut">00:00:00.000</property>
      <property name="transition.threads">0</property>
    </filter>
    <filter id="filter597" in="00:01:37.960000" out="00:01:44.920000">
      <property name="window">75</property>
      <property name="max_gain">20dB</property>
      <property name="mlt_service">volume</property>
      <property name="shotcut:filter">muteVolume</property>
      <property name="gain">0</property>
    </filter>
  </producer>
  <producer id="producer322" title="Anonymous Submission" in="00:00:00.000" out="00:03:41.120">
    <property name="length">00:03:41:04</property>
    <property name="eof">pause</property>
    <property name="resource">../../006 - Videos format youtube/Cor/Andr&#233;_cor_totoro.mp4</property>
    <property name="audio_index">1</property>
    <property name="video_index">0</property>
    <property name="mute_on_pause">0</property>
    <property name="mlt_service">avformat-novalidate</property>
    <property name="seekable">1</property>
    <property name="aspect_ratio">1</property>
    <property name="shotcut:hash">8728c09feae42f34c50f8e6c186504c9</property>
    <property name="ignore_points">0</property>
    <property name="shotcut:caption">Andr&#233;_cor_totoro.mp4</property>
    <property name="shotcut:skipConvert">1</property>
    <property name="global_feed">1</property>
    <property name="xml">was here</property>
    <filter id="filter598" in="00:01:44.960000" out="00:01:52.920000">
      <property name="background">colour:0</property>
      <property name="mlt_service">affine</property>
      <property name="shotcut:filter">affineSizePosition</property>
      <property name="transition.fill">1</property>
      <property name="transition.distort">0</property>
      <property name="transition.rect">640.0 180.0 321.0 181.0 1</property>
      <property name="transition.valign">top</property>
      <property name="transition.halign">left</property>
      <property name="shotcut:animIn">00:00:00.480000</property>
      <property name="shotcut:animOut">00:00:00.000</property>
      <property name="transition.threads">0</property>
    </filter>
    <filter id="filter599" in="00:01:44.960000" out="00:01:52.920000">
      <property name="window">75</property>
      <property name="max_gain">20dB</property>
      <property name="mlt_service">volume</property>
      <property name="shotcut:filter">muteVolume</property>
      <property name="gain">0</property>
    </filter>
  </producer>
  <producer id="producer323" title="Anonymous Submission" in="00:00:00.000" out="00:03:41.120">
    <property name="length">00:03:41:04</property>
    <property name="eof">pause</property>
    <property name="resource">../../006 - Videos format youtube/Cor/Andr&#233;_cor_totoro.mp4</property>
    <property name="audio_index">1</property>
    <property name="video_index">0</property>
    <property name="mute_on_pause">0</property>
    <property name="mlt_service">avformat-novalidate</property>
    <property name="seekable">1</property>
    <property name="aspect_ratio">1</property>
    <property name="shotcut:hash">8728c09feae42f34c50f8e6c186504c9</property>
    <property name="ignore_points">0</property>
    <property name="shotcut:caption">Andr&#233;_cor_totoro.mp4</property>
    <property name="shotcut:skipConvert">1</property>
    <property name="global_feed">1</property>
    <property name="xml">was here</property>
    <filter id="filter600" in="00:01:52.960000" out="00:02:01.920000">
      <property name="background">colour:0</property>
      <property name="mlt_service">affine</property>
      <property name="shotcut:filter">affineSizePosition</property>
      <property name="transition.fill">1</property>
      <property name="transition.distort">0</property>
      <property name="transition.rect">1645.0 0.0 275.0 155.0 1</property>
      <property name="transition.valign">top</property>
      <property name="transition.halign">left</property>
      <property name="shotcut:animIn">00:00:00.480000</property>
      <property name="shotcut:animOut">00:00:00.000</property>
      <property name="transition.threads">0</property>
    </filter>
    <filter id="filter601" in="00:01:52.960000" out="00:02:01.920000">
      <property name="window">75</property>
      <property name="max_gain">20dB</property>
      <property name="mlt_service">volume</property>
      <property name="shotcut:filter">muteVolume</property>
      <property name="gain">0</property>
    </filter>
  </producer>
  <producer id="producer324" title="Anonymous Submission" in="00:00:00.000" out="00:03:41.120">
    <property name="length">00:03:41:04</property>
    <property name="eof">pause</property>
    <property name="resource">../../006 - Videos format youtube/Cor/Andr&#233;_cor_totoro.mp4</property>
    <property name="audio_index">1</property>
    <property name="video_index">0</property>
    <property name="mute_on_pause">0</property>
    <property name="mlt_service">avformat-novalidate</property>
    <property name="seekable">1</property>
    <property name="aspect_ratio">1</property>
    <property name="shotcut:hash">8728c09feae42f34c50f8e6c186504c9</property>
    <property name="ignore_points">0</property>
    <property name="shotcut:caption">Andr&#233;_cor_totoro.mp4</property>
    <property name="shotcut:skipConvert">1</property>
    <property name="global_feed">1</property>
    <property name="xml">was here</property>
    <filter id="filter602" in="00:02:01.960000" out="00:02:08.920000">
      <property name="background">colour:0</property>
      <property name="mlt_service">affine</property>
      <property name="shotcut:filter">affineSizePosition</property>
      <property name="transition.fill">1</property>
      <property name="transition.distort">0</property>
      <property name="transition.rect">-548.0 -308.0 275.0 155.0 1</property>
      <property name="transition.valign">top</property>
      <property name="transition.halign">left</property>
      <property name="shotcut:animIn">00:00:00.480000</property>
      <property name="shotcut:animOut">00:00:00.000</property>
      <property name="transition.threads">0</property>
    </filter>
    <filter id="filter603" in="00:02:01.960000" out="00:02:08.920000">
      <property name="window">75</property>
      <property name="max_gain">20dB</property>
      <property name="mlt_service">volume</property>
      <property name="shotcut:filter">muteVolume</property>
      <property name="gain">0</property>
    </filter>
  </producer>
  <producer id="producer325" title="Anonymous Submission" in="00:00:00.000" out="00:03:41.120">
    <property name="length">00:03:41:04</property>
    <property name="eof">pause</property>
    <property name="resource">../../006 - Videos format youtube/Cor/Andr&#233;_cor_totoro.mp4</property>
    <property name="audio_index">1</property>
    <property name="video_index">0</property>
    <property name="mute_on_pause">0</property>
    <property name="mlt_service">avformat-novalidate</property>
    <property name="seekable">1</property>
    <property name="aspect_ratio">1</property>
    <property name="shotcut:hash">8728c09feae42f34c50f8e6c186504c9</property>
    <property name="ignore_points">0</property>
    <property name="shotcut:caption">Andr&#233;_cor_totoro.mp4</property>
    <property name="shotcut:skipConvert">1</property>
    <property name="global_feed">1</property>
    <property name="xml">was here</property>
    <filter id="filter604" in="00:02:08.960000" out="00:03:41.120000">
      <property name="background">colour:0</property>
      <property name="mlt_service">affine</property>
      <property name="shotcut:filter">affineSizePosition</property>
      <property name="transition.fill">1</property>
      <property name="transition.distort">0</property>
      <property name="transition.rect">480.0 0.0 321.0 181.0 1</property>
      <property name="transition.valign">top</property>
      <property name="transition.halign">left</property>
      <property name="shotcut:animIn">00:00:00.480000</property>
      <property name="shotcut:animOut">00:00:00.000</property>
      <property name="transition.threads">0</property>
    </filter>
    <filter id="filter605" in="00:02:08.960000" out="00:03:41.120000">
      <property name="window">75</property>
      <property name="max_gain">20dB</property>
      <property name="mlt_service">volume</property>
      <property name="shotcut:filter">muteVolume</property>
      <property name="gain">0</property>
    </filter>
  </producer>
  <playlist id="playlist18">
    <property name="shotcut:video">1</property>
    <property name="shotcut:name">Andr&#233; cor</property>
    <property name="shotcut:lock">1</property>
    <blank length="00:00:02.120" />
    <entry producer="producer316" in="00:00:20.080" out="00:00:40.920000" />
    <entry producer="producer317" in="00:00:40.960000" out="00:00:47.920000" />
    <entry producer="producer318" in="00:00:47.960000" out="00:01:21.920000" />
    <entry producer="producer319" in="00:01:21.960000" out="00:01:29.920000" />
    <entry producer="producer320" in="00:01:29.960000" out="00:01:37.920000" />
    <entry producer="producer321" in="00:01:37.960000" out="00:01:44.920000" />
    <entry producer="producer322" in="00:01:44.960000" out="00:01:52.920000" />
    <entry producer="producer323" in="00:01:52.960000" out="00:02:01.920000" />
    <entry producer="producer324" in="00:02:01.960000" out="00:02:08.920000" />
    <entry producer="producer325" in="00:02:08.960000" out="00:03:41.120000" />
    <filter id="filter606" out="00:03:23.160">
      <property name="window">75</property>
      <property name="max_gain">20dB</property>
      <property name="level">-8</property>
      <property name="mlt_service">volume</property>
    </filter>
  </playlist>
  <producer id="producer326" title="Anonymous Submission" in="00:00:00.000" out="00:03:09.320">
    <property name="length">00:03:09:09</property>
    <property name="eof">pause</property>
    <property name="resource">../../006 - Videos format youtube/Cor/Myrtille_cor_totoro.mp4</property>
    <property name="audio_index">1</property>
    <property name="video_index">0</property>
    <property name="mute_on_pause">0</property>
    <property name="mlt_service">avformat-novalidate</property>
    <property name="seekable">1</property>
    <property name="aspect_ratio">1</property>
    <property name="creation_time">2020-04-21T06:33:53</property>
    <property name="shotcut:hash">010e5be869f07125ac95af97a3278e87</property>
    <property name="ignore_points">0</property>
    <property name="shotcut:caption">Myrtille_cor_totoro.mp4</property>
    <property name="shotcut:skipConvert">1</property>
    <property name="global_feed">1</property>
    <property name="xml">was here</property>
    <filter id="filter607" out="00:00:16.360000">
      <property name="background">colour:0</property>
      <property name="mlt_service">affine</property>
      <property name="shotcut:filter">affineSizePosition</property>
      <property name="transition.fill">1</property>
      <property name="transition.distort">0</property>
      <property name="transition.rect">1645.0 0.0 275.0 155.0 1</property>
      <property name="transition.valign">top</property>
      <property name="transition.halign">left</property>
      <property name="shotcut:animIn">00:00:00.000</property>
      <property name="shotcut:animOut">00:00:00.000</property>
      <property name="transition.threads">0</property>
    </filter>
    <filter id="filter608" out="00:00:16.360000">
      <property name="window">75</property>
      <property name="max_gain">20dB</property>
      <property name="mlt_service">volume</property>
      <property name="shotcut:filter">muteVolume</property>
      <property name="gain">0</property>
    </filter>
  </producer>
  <producer id="producer327" title="Anonymous Submission" in="00:00:00.000" out="00:03:09.320">
    <property name="length">00:03:09:09</property>
    <property name="eof">pause</property>
    <property name="resource">../../006 - Videos format youtube/Cor/Myrtille_cor_totoro.mp4</property>
    <property name="audio_index">1</property>
    <property name="video_index">0</property>
    <property name="mute_on_pause">0</property>
    <property name="mlt_service">avformat-novalidate</property>
    <property name="seekable">1</property>
    <property name="aspect_ratio">1</property>
    <property name="creation_time">2020-04-21T06:33:53</property>
    <property name="shotcut:hash">010e5be869f07125ac95af97a3278e87</property>
    <property name="ignore_points">0</property>
    <property name="shotcut:caption">Myrtille_cor_totoro.mp4</property>
    <property name="shotcut:skipConvert">1</property>
    <property name="global_feed">1</property>
    <property name="xml">was here</property>
    <filter id="filter609" out="00:00:23.360000" in="00:00:16.400000">
      <property name="background">colour:0</property>
      <property name="mlt_service">affine</property>
      <property name="shotcut:filter">affineSizePosition</property>
      <property name="transition.fill">1</property>
      <property name="transition.distort">0</property>
      <property name="transition.rect">00:00:00.000000=1645.0 0.0 276.0 155.0 1;00:00:00.440000=548.0 154.0 275.0 155.0 1</property>
      <property name="transition.valign">top</property>
      <property name="transition.halign">left</property>
      <property name="shotcut:animIn">00:00:00.480000</property>
      <property name="shotcut:animOut">00:00:00.000</property>
      <property name="transition.threads">0</property>
    </filter>
    <filter id="filter610" out="00:00:23.360000" in="00:00:16.400000">
      <property name="window">75</property>
      <property name="max_gain">20dB</property>
      <property name="mlt_service">volume</property>
      <property name="shotcut:filter">muteVolume</property>
      <property name="gain">0</property>
    </filter>
  </producer>
  <producer id="producer328" title="Anonymous Submission" in="00:00:00.000" out="00:03:09.320">
    <property name="length">00:03:09:09</property>
    <property name="eof">pause</property>
    <property name="resource">../../006 - Videos format youtube/Cor/Myrtille_cor_totoro.mp4</property>
    <property name="audio_index">1</property>
    <property name="video_index">0</property>
    <property name="mute_on_pause">0</property>
    <property name="mlt_service">avformat-novalidate</property>
    <property name="seekable">1</property>
    <property name="aspect_ratio">1</property>
    <property name="creation_time">2020-04-21T06:33:53</property>
    <property name="shotcut:hash">010e5be869f07125ac95af97a3278e87</property>
    <property name="ignore_points">0</property>
    <property name="shotcut:caption">Myrtille_cor_totoro.mp4</property>
    <property name="shotcut:skipConvert">1</property>
    <property name="global_feed">1</property>
    <property name="xml">was here</property>
    <filter id="filter611" out="00:00:57.360000" in="00:00:23.400000">
      <property name="background">colour:0</property>
      <property name="mlt_service">affine</property>
      <property name="shotcut:filter">affineSizePosition</property>
      <property name="transition.fill">1</property>
      <property name="transition.distort">0</property>
      <property name="transition.rect">-480.0 -270.0 241.0 136.0 1</property>
      <property name="transition.valign">top</property>
      <property name="transition.halign">left</property>
      <property name="shotcut:animIn">00:00:00.480000</property>
      <property name="shotcut:animOut">00:00:00.000</property>
      <property name="transition.threads">0</property>
    </filter>
    <filter id="filter612" out="00:00:57.360000" in="00:00:23.400000">
      <property name="window">75</property>
      <property name="max_gain">20dB</property>
      <property name="mlt_service">volume</property>
      <property name="shotcut:filter">muteVolume</property>
      <property name="gain">0</property>
    </filter>
  </producer>
  <producer id="producer329" title="Anonymous Submission" in="00:00:00.000" out="00:03:09.320">
    <property name="length">00:03:09:09</property>
    <property name="eof">pause</property>
    <property name="resource">../../006 - Videos format youtube/Cor/Myrtille_cor_totoro.mp4</property>
    <property name="audio_index">1</property>
    <property name="video_index">0</property>
    <property name="mute_on_pause">0</property>
    <property name="mlt_service">avformat-novalidate</property>
    <property name="seekable">1</property>
    <property name="aspect_ratio">1</property>
    <property name="creation_time">2020-04-21T06:33:53</property>
    <property name="shotcut:hash">010e5be869f07125ac95af97a3278e87</property>
    <property name="ignore_points">0</property>
    <property name="shotcut:caption">Myrtille_cor_totoro.mp4</property>
    <property name="shotcut:skipConvert">1</property>
    <property name="global_feed">1</property>
    <property name="xml">was here</property>
    <filter id="filter613" out="00:01:05.360000" in="00:00:57.400000">
      <property name="background">colour:0</property>
      <property name="mlt_service">affine</property>
      <property name="shotcut:filter">affineSizePosition</property>
      <property name="transition.fill">1</property>
      <property name="transition.distort">0</property>
      <property name="transition.rect">1645.0 0.0 275.0 155.0 1</property>
      <property name="transition.valign">top</property>
      <property name="transition.halign">left</property>
      <property name="shotcut:animIn">00:00:00.480000</property>
      <property name="shotcut:animOut">00:00:00.000</property>
      <property name="transition.threads">0</property>
    </filter>
    <filter id="filter614" out="00:01:05.360000" in="00:00:57.400000">
      <property name="window">75</property>
      <property name="max_gain">20dB</property>
      <property name="mlt_service">volume</property>
      <property name="shotcut:filter">muteVolume</property>
      <property name="gain">0</property>
    </filter>
  </producer>
  <producer id="producer330" title="Anonymous Submission" in="00:00:00.000" out="00:03:09.320">
    <property name="length">00:03:09:09</property>
    <property name="eof">pause</property>
    <property name="resource">../../006 - Videos format youtube/Cor/Myrtille_cor_totoro.mp4</property>
    <property name="audio_index">1</property>
    <property name="video_index">0</property>
    <property name="mute_on_pause">0</property>
    <property name="mlt_service">avformat-novalidate</property>
    <property name="seekable">1</property>
    <property name="aspect_ratio">1</property>
    <property name="creation_time">2020-04-21T06:33:53</property>
    <property name="shotcut:hash">010e5be869f07125ac95af97a3278e87</property>
    <property name="ignore_points">0</property>
    <property name="shotcut:caption">Myrtille_cor_totoro.mp4</property>
    <property name="shotcut:skipConvert">1</property>
    <property name="global_feed">1</property>
    <property name="xml">was here</property>
    <filter id="filter615" out="00:01:13.360000" in="00:01:05.400000">
      <property name="background">colour:0</property>
      <property name="mlt_service">affine</property>
      <property name="shotcut:filter">affineSizePosition</property>
      <property name="transition.fill">1</property>
      <property name="transition.distort">0</property>
      <property name="transition.rect">548.0 617.0 275.0 155.0 1</property>
      <property name="transition.valign">top</property>
      <property name="transition.halign">left</property>
      <property name="shotcut:animIn">00:00:00.480000</property>
      <property name="shotcut:animOut">00:00:00.000</property>
      <property name="transition.threads">0</property>
    </filter>
    <filter id="filter616" out="00:01:13.360000" in="00:01:05.400000">
      <property name="window">75</property>
      <property name="max_gain">20dB</property>
      <property name="mlt_service">volume</property>
      <property name="shotcut:filter">muteVolume</property>
      <property name="gain">0</property>
    </filter>
  </producer>
  <producer id="producer331" title="Anonymous Submission" in="00:00:00.000" out="00:03:09.320">
    <property name="length">00:03:09:09</property>
    <property name="eof">pause</property>
    <property name="resource">../../006 - Videos format youtube/Cor/Myrtille_cor_totoro.mp4</property>
    <property name="audio_index">1</property>
    <property name="video_index">0</property>
    <property name="mute_on_pause">0</property>
    <property name="mlt_service">avformat-novalidate</property>
    <property name="seekable">1</property>
    <property name="aspect_ratio">1</property>
    <property name="creation_time">2020-04-21T06:33:53</property>
    <property name="shotcut:hash">010e5be869f07125ac95af97a3278e87</property>
    <property name="ignore_points">0</property>
    <property name="shotcut:caption">Myrtille_cor_totoro.mp4</property>
    <property name="shotcut:skipConvert">1</property>
    <property name="global_feed">1</property>
    <property name="xml">was here</property>
    <filter id="filter617" out="00:01:20.360000" in="00:01:13.400000">
      <property name="background">colour:0</property>
      <property name="mlt_service">affine</property>
      <property name="shotcut:filter">affineSizePosition</property>
      <property name="transition.fill">1</property>
      <property name="transition.distort">0</property>
      <property name="transition.rect">1600.0 180.0 321.0 181.0 1</property>
      <property name="transition.valign">top</property>
      <property name="transition.halign">left</property>
      <property name="shotcut:animIn">00:00:00.480000</property>
      <property name="shotcut:animOut">00:00:00.000</property>
      <property name="transition.threads">0</property>
    </filter>
    <filter id="filter618" out="00:01:20.360000" in="00:01:13.400000">
      <property name="window">75</property>
      <property name="max_gain">20dB</property>
      <property name="mlt_service">volume</property>
      <property name="shotcut:filter">muteVolume</property>
      <property name="gain">0</property>
    </filter>
  </producer>
  <producer id="producer332" title="Anonymous Submission" in="00:00:00.000" out="00:03:09.320">
    <property name="length">00:03:09:09</property>
    <property name="eof">pause</property>
    <property name="resource">../../006 - Videos format youtube/Cor/Myrtille_cor_totoro.mp4</property>
    <property name="audio_index">1</property>
    <property name="video_index">0</property>
    <property name="mute_on_pause">0</property>
    <property name="mlt_service">avformat-novalidate</property>
    <property name="seekable">1</property>
    <property name="aspect_ratio">1</property>
    <property name="creation_time">2020-04-21T06:33:53</property>
    <property name="shotcut:hash">010e5be869f07125ac95af97a3278e87</property>
    <property name="ignore_points">0</property>
    <property name="shotcut:caption">Myrtille_cor_totoro.mp4</property>
    <property name="shotcut:skipConvert">1</property>
    <property name="global_feed">1</property>
    <property name="xml">was here</property>
    <filter id="filter619" out="00:01:28.360000" in="00:01:20.400000">
      <property name="background">colour:0</property>
      <property name="mlt_service">affine</property>
      <property name="shotcut:filter">affineSizePosition</property>
      <property name="transition.fill">1</property>
      <property name="transition.distort">0</property>
      <property name="transition.rect">320.0 180.0 321.0 181.0 1</property>
      <property name="transition.valign">top</property>
      <property name="transition.halign">left</property>
      <property name="shotcut:animIn">00:00:00.480000</property>
      <property name="shotcut:animOut">00:00:00.000</property>
      <property name="transition.threads">0</property>
    </filter>
    <filter id="filter620" out="00:01:28.360000" in="00:01:20.400000">
      <property name="window">75</property>
      <property name="max_gain">20dB</property>
      <property name="mlt_service">volume</property>
      <property name="shotcut:filter">muteVolume</property>
      <property name="gain">0</property>
    </filter>
  </producer>
  <producer id="producer333" title="Anonymous Submission" in="00:00:00.000" out="00:03:09.320">
    <property name="length">00:03:09:09</property>
    <property name="eof">pause</property>
    <property name="resource">../../006 - Videos format youtube/Cor/Myrtille_cor_totoro.mp4</property>
    <property name="audio_index">1</property>
    <property name="video_index">0</property>
    <property name="mute_on_pause">0</property>
    <property name="mlt_service">avformat-novalidate</property>
    <property name="seekable">1</property>
    <property name="aspect_ratio">1</property>
    <property name="creation_time">2020-04-21T06:33:53</property>
    <property name="shotcut:hash">010e5be869f07125ac95af97a3278e87</property>
    <property name="ignore_points">0</property>
    <property name="shotcut:caption">Myrtille_cor_totoro.mp4</property>
    <property name="shotcut:skipConvert">1</property>
    <property name="global_feed">1</property>
    <property name="xml">was here</property>
    <filter id="filter621" out="00:01:37.360000" in="00:01:28.400000">
      <property name="background">colour:0</property>
      <property name="mlt_service">affine</property>
      <property name="shotcut:filter">affineSizePosition</property>
      <property name="transition.fill">1</property>
      <property name="transition.distort">0</property>
      <property name="transition.rect">274.0 154.0 275.0 155.0 1</property>
      <property name="transition.valign">top</property>
      <property name="transition.halign">left</property>
      <property name="shotcut:animIn">00:00:00.480000</property>
      <property name="shotcut:animOut">00:00:00.000</property>
      <property name="transition.threads">0</property>
    </filter>
    <filter id="filter622" out="00:01:37.360000" in="00:01:28.400000">
      <property name="window">75</property>
      <property name="max_gain">20dB</property>
      <property name="mlt_service">volume</property>
      <property name="shotcut:filter">muteVolume</property>
      <property name="gain">0</property>
    </filter>
  </producer>
  <producer id="producer334" title="Anonymous Submission" in="00:00:00.000" out="00:03:09.320">
    <property name="length">00:03:09:09</property>
    <property name="eof">pause</property>
    <property name="resource">../../006 - Videos format youtube/Cor/Myrtille_cor_totoro.mp4</property>
    <property name="audio_index">1</property>
    <property name="video_index">0</property>
    <property name="mute_on_pause">0</property>
    <property name="mlt_service">avformat-novalidate</property>
    <property name="seekable">1</property>
    <property name="aspect_ratio">1</property>
    <property name="creation_time">2020-04-21T06:33:53</property>
    <property name="shotcut:hash">010e5be869f07125ac95af97a3278e87</property>
    <property name="ignore_points">0</property>
    <property name="shotcut:caption">Myrtille_cor_totoro.mp4</property>
    <property name="shotcut:skipConvert">1</property>
    <property name="global_feed">1</property>
    <property name="xml">was here</property>
    <filter id="filter623" out="00:01:44.360000" in="00:01:37.400000">
      <property name="background">colour:0</property>
      <property name="mlt_service">affine</property>
      <property name="shotcut:filter">affineSizePosition</property>
      <property name="transition.fill">1</property>
      <property name="transition.distort">0</property>
      <property name="transition.rect">-548.0 -308.0 275.0 155.0 1</property>
      <property name="transition.valign">top</property>
      <property name="transition.halign">left</property>
      <property name="shotcut:animIn">00:00:00.480000</property>
      <property name="shotcut:animOut">00:00:00.000</property>
      <property name="transition.threads">0</property>
    </filter>
    <filter id="filter624" out="00:01:44.360000" in="00:01:37.400000">
      <property name="window">75</property>
      <property name="max_gain">20dB</property>
      <property name="mlt_service">volume</property>
      <property name="shotcut:filter">muteVolume</property>
      <property name="gain">0</property>
    </filter>
  </producer>
  <producer id="producer335" title="Anonymous Submission" in="00:00:00.000" out="00:03:09.320">
    <property name="length">00:03:09:09</property>
    <property name="eof">pause</property>
    <property name="resource">../../006 - Videos format youtube/Cor/Myrtille_cor_totoro.mp4</property>
    <property name="audio_index">1</property>
    <property name="video_index">0</property>
    <property name="mute_on_pause">0</property>
    <property name="mlt_service">avformat-novalidate</property>
    <property name="seekable">1</property>
    <property name="aspect_ratio">1</property>
    <property name="creation_time">2020-04-21T06:33:53</property>
    <property name="shotcut:hash">010e5be869f07125ac95af97a3278e87</property>
    <property name="ignore_points">0</property>
    <property name="shotcut:caption">Myrtille_cor_totoro.mp4</property>
    <property name="shotcut:skipConvert">1</property>
    <property name="global_feed">1</property>
    <property name="xml">was here</property>
    <filter id="filter625" out="00:03:09.320000" in="00:01:44.400000">
      <property name="background">colour:0</property>
      <property name="mlt_service">affine</property>
      <property name="shotcut:filter">affineSizePosition</property>
      <property name="transition.fill">1</property>
      <property name="transition.distort">0</property>
      <property name="transition.rect">3040.0 0.0 321.0 181.0 1</property>
      <property name="transition.valign">top</property>
      <property name="transition.halign">left</property>
      <property name="shotcut:animIn">00:00:00.480000</property>
      <property name="shotcut:animOut">00:00:00.000</property>
      <property name="transition.threads">0</property>
    </filter>
    <filter id="filter626" out="00:03:09.320000" in="00:01:44.400000">
      <property name="window">75</property>
      <property name="max_gain">20dB</property>
      <property name="mlt_service">volume</property>
      <property name="shotcut:filter">muteVolume</property>
      <property name="gain">0</property>
    </filter>
  </producer>
  <playlist id="playlist19">
    <property name="shotcut:video">1</property>
    <property name="shotcut:name">V4</property>
    <property name="shotcut:lock">1</property>
    <blank length="00:00:06.600" />
    <entry producer="producer326" in="00:00:00.000" out="00:00:16.360000" />
    <entry producer="producer327" in="00:00:16.400000" out="00:00:23.360000" />
    <entry producer="producer328" in="00:00:23.400000" out="00:00:57.360000" />
    <entry producer="producer329" in="00:00:57.400000" out="00:01:05.360000" />
    <entry producer="producer330" in="00:01:05.400000" out="00:01:13.360000" />
    <entry producer="producer331" in="00:01:13.400000" out="00:01:20.360000" />
    <entry producer="producer332" in="00:01:20.400000" out="00:01:28.360000" />
    <entry producer="producer333" in="00:01:28.400000" out="00:01:37.360000" />
    <entry producer="producer334" in="00:01:37.400000" out="00:01:44.360000" />
    <entry producer="producer335" in="00:01:44.400000" out="00:03:09.320000" />
    <filter id="filter627" out="00:03:23.160">
      <property name="window">75</property>
      <property name="max_gain">20dB</property>
      <property name="level">-11</property>
      <property name="mlt_service">volume</property>
    </filter>
  </playlist>
  <producer id="producer336" title="Anonymous Submission" in="00:00:00.000" out="00:03:19.240">
    <property name="length">00:03:19:07</property>
    <property name="eof">pause</property>
    <property name="resource">../../006 - Videos format youtube/Flutes/Alain_flute_totoro.mp4</property>
    <property name="audio_index">1</property>
    <property name="video_index">0</property>
    <property name="mute_on_pause">0</property>
    <property name="mlt_service">avformat-novalidate</property>
    <property name="seekable">1</property>
    <property name="aspect_ratio">1</property>
    <property name="creation_time">2020-04-08T16:32:02</property>
    <property name="shotcut:hash">e4470a14bf088b76cf4b34d8127e4e51</property>
    <property name="ignore_points">0</property>
    <property name="shotcut:caption">Alain_flute_totoro.mp4</property>
    <property name="shotcut:skipConvert">1</property>
    <property name="global_feed">1</property>
    <property name="xml">was here</property>
    <filter id="filter628" out="00:00:20.880000">
      <property name="background">colour:0</property>
      <property name="mlt_service">affine</property>
      <property name="shotcut:filter">affineSizePosition</property>
      <property name="transition.fill">1</property>
      <property name="transition.distort">0</property>
      <property name="transition.rect">274.0 617.0 275.0 155.0 1</property>
      <property name="transition.valign">top</property>
      <property name="transition.halign">left</property>
      <property name="shotcut:animIn">00:00:00.000</property>
      <property name="shotcut:animOut">00:00:00.000</property>
      <property name="transition.threads">0</property>
    </filter>
    <filter id="filter629" out="00:00:20.880000">
      <property name="window">75</property>
      <property name="max_gain">20dB</property>
      <property name="mlt_service">volume</property>
      <property name="shotcut:filter">muteVolume</property>
      <property name="gain">0</property>
    </filter>
  </producer>
  <producer id="producer337" title="Anonymous Submission" in="00:00:00.000" out="00:03:19.240">
    <property name="length">00:03:19:07</property>
    <property name="eof">pause</property>
    <property name="resource">../../006 - Videos format youtube/Flutes/Alain_flute_totoro.mp4</property>
    <property name="audio_index">1</property>
    <property name="video_index">0</property>
    <property name="mute_on_pause">0</property>
    <property name="mlt_service">avformat-novalidate</property>
    <property name="seekable">1</property>
    <property name="aspect_ratio">1</property>
    <property name="creation_time">2020-04-08T16:32:02</property>
    <property name="shotcut:hash">e4470a14bf088b76cf4b34d8127e4e51</property>
    <property name="ignore_points">0</property>
    <property name="shotcut:caption">Alain_flute_totoro.mp4</property>
    <property name="shotcut:skipConvert">1</property>
    <property name="global_feed">1</property>
    <property name="xml">was here</property>
    <filter id="filter630" out="00:00:27.880000" in="00:00:20.920000">
      <property name="background">colour:0</property>
      <property name="mlt_service">affine</property>
      <property name="shotcut:filter">affineSizePosition</property>
      <property name="transition.fill">1</property>
      <property name="transition.distort">0</property>
      <property name="transition.rect">00:00:00.000000=274.0 617.0 276.0 155.0 1;00:00:00.440000=1645.0 308.0 275.0 155.0 1</property>
      <property name="transition.valign">top</property>
      <property name="transition.halign">left</property>
      <property name="shotcut:animIn">00:00:00.480000</property>
      <property name="shotcut:animOut">00:00:00.000</property>
      <property name="transition.threads">0</property>
    </filter>
    <filter id="filter631" out="00:00:27.880000" in="00:00:20.920000">
      <property name="window">75</property>
      <property name="max_gain">20dB</property>
      <property name="mlt_service">volume</property>
      <property name="shotcut:filter">muteVolume</property>
      <property name="gain">0</property>
    </filter>
  </producer>
  <producer id="producer338" title="Anonymous Submission" in="00:00:00.000" out="00:03:19.240">
    <property name="length">00:03:19:07</property>
    <property name="eof">pause</property>
    <property name="resource">../../006 - Videos format youtube/Flutes/Alain_flute_totoro.mp4</property>
    <property name="audio_index">1</property>
    <property name="video_index">0</property>
    <property name="mute_on_pause">0</property>
    <property name="mlt_service">avformat-novalidate</property>
    <property name="seekable">1</property>
    <property name="aspect_ratio">1</property>
    <property name="creation_time">2020-04-08T16:32:02</property>
    <property name="shotcut:hash">e4470a14bf088b76cf4b34d8127e4e51</property>
    <property name="ignore_points">0</property>
    <property name="shotcut:caption">Alain_flute_totoro.mp4</property>
    <property name="shotcut:skipConvert">1</property>
    <property name="global_feed">1</property>
    <property name="xml">was here</property>
    <filter id="filter632" out="00:00:29.520000" in="00:00:27.920000">
      <property name="background">colour:0</property>
      <property name="mlt_service">affine</property>
      <property name="shotcut:filter">affineSizePosition</property>
      <property name="transition.fill">1</property>
      <property name="transition.distort">0</property>
      <property name="transition.rect">00:00:00.000000=1680.0 135.0 242.0 136.0 1;00:00:01.600000=1680.0 270.0 241.0 136.0 1</property>
      <property name="transition.valign">top</property>
      <property name="transition.halign">left</property>
      <property name="shotcut:animIn">00:00:01.640000</property>
      <property name="shotcut:animOut">00:00:00.000</property>
      <property name="transition.threads">0</property>
    </filter>
    <filter id="filter633" out="00:00:29.520000" in="00:00:27.920000">
      <property name="window">75</property>
      <property name="max_gain">20dB</property>
      <property name="mlt_service">volume</property>
      <property name="shotcut:filter">muteVolume</property>
      <property name="gain">0</property>
    </filter>
  </producer>
  <producer id="producer339" title="Anonymous Submission" in="00:00:00.000" out="00:03:19.240">
    <property name="length">00:03:19:07</property>
    <property name="eof">pause</property>
    <property name="resource">../../006 - Videos format youtube/Flutes/Alain_flute_totoro.mp4</property>
    <property name="audio_index">1</property>
    <property name="video_index">0</property>
    <property name="mute_on_pause">0</property>
    <property name="mlt_service">avformat-novalidate</property>
    <property name="seekable">1</property>
    <property name="aspect_ratio">1</property>
    <property name="creation_time">2020-04-08T16:32:02</property>
    <property name="shotcut:hash">e4470a14bf088b76cf4b34d8127e4e51</property>
    <property name="ignore_points">0</property>
    <property name="shotcut:caption">Alain_flute_totoro.mp4</property>
    <property name="shotcut:skipConvert">1</property>
    <property name="global_feed">1</property>
    <property name="xml">was here</property>
    <filter id="filter634" out="00:00:31.200000" in="00:00:29.560000">
      <property name="background">colour:0</property>
      <property name="mlt_service">affine</property>
      <property name="shotcut:filter">affineSizePosition</property>
      <property name="transition.fill">1</property>
      <property name="transition.distort">0</property>
      <property name="transition.rect">00:00:00.000000=1680.0 270.0 242.0 136.0 1;00:00:01.600000=1680.0 405.0 241.0 136.0 1</property>
      <property name="transition.valign">top</property>
      <property name="transition.halign">left</property>
      <property name="shotcut:animIn">00:00:01.640000</property>
      <property name="shotcut:animOut">00:00:00.000</property>
      <property name="transition.threads">0</property>
    </filter>
    <filter id="filter635" out="00:00:31.200000" in="00:00:29.560000">
      <property name="window">75</property>
      <property name="max_gain">20dB</property>
      <property name="mlt_service">volume</property>
      <property name="shotcut:filter">muteVolume</property>
      <property name="gain">0</property>
    </filter>
  </producer>
  <producer id="producer340" title="Anonymous Submission" in="00:00:00.000" out="00:03:19.240">
    <property name="length">00:03:19:07</property>
    <property name="eof">pause</property>
    <property name="resource">../../006 - Videos format youtube/Flutes/Alain_flute_totoro.mp4</property>
    <property name="audio_index">1</property>
    <property name="video_index">0</property>
    <property name="mute_on_pause">0</property>
    <property name="mlt_service">avformat-novalidate</property>
    <property name="seekable">1</property>
    <property name="aspect_ratio">1</property>
    <property name="creation_time">2020-04-08T16:32:02</property>
    <property name="shotcut:hash">e4470a14bf088b76cf4b34d8127e4e51</property>
    <property name="ignore_points">0</property>
    <property name="shotcut:caption">Alain_flute_totoro.mp4</property>
    <property name="shotcut:skipConvert">1</property>
    <property name="global_feed">1</property>
    <property name="xml">was here</property>
    <filter id="filter636" out="00:00:32.880000" in="00:00:31.240000">
      <property name="background">colour:0</property>
      <property name="mlt_service">affine</property>
      <property name="shotcut:filter">affineSizePosition</property>
      <property name="transition.fill">1</property>
      <property name="transition.distort">0</property>
      <property name="transition.rect">00:00:00.000000=1680.0 405.0 242.0 136.0 1;00:00:01.600000=1680.0 540.0 241.0 136.0 1</property>
      <property name="transition.valign">top</property>
      <property name="transition.halign">left</property>
      <property name="shotcut:animIn">00:00:01.640000</property>
      <property name="shotcut:animOut">00:00:00.000</property>
      <property name="transition.threads">0</property>
    </filter>
    <filter id="filter637" out="00:00:32.880000" in="00:00:31.240000">
      <property name="window">75</property>
      <property name="max_gain">20dB</property>
      <property name="mlt_service">volume</property>
      <property name="shotcut:filter">muteVolume</property>
      <property name="gain">0</property>
    </filter>
  </producer>
  <producer id="producer341" title="Anonymous Submission" in="00:00:00.000" out="00:03:19.240">
    <property name="length">00:03:19:07</property>
    <property name="eof">pause</property>
    <property name="resource">../../006 - Videos format youtube/Flutes/Alain_flute_totoro.mp4</property>
    <property name="audio_index">1</property>
    <property name="video_index">0</property>
    <property name="mute_on_pause">0</property>
    <property name="mlt_service">avformat-novalidate</property>
    <property name="seekable">1</property>
    <property name="aspect_ratio">1</property>
    <property name="creation_time">2020-04-08T16:32:02</property>
    <property name="shotcut:hash">e4470a14bf088b76cf4b34d8127e4e51</property>
    <property name="ignore_points">0</property>
    <property name="shotcut:caption">Alain_flute_totoro.mp4</property>
    <property name="shotcut:skipConvert">1</property>
    <property name="global_feed">1</property>
    <property name="xml">was here</property>
    <filter id="filter638" out="00:00:34.520000" in="00:00:32.920000">
      <property name="background">colour:0</property>
      <property name="mlt_service">affine</property>
      <property name="shotcut:filter">affineSizePosition</property>
      <property name="transition.fill">1</property>
      <property name="transition.distort">0</property>
      <property name="transition.rect">00:00:00.000000=1680.0 540.0 242.0 136.0 1;00:00:01.600000=1680.0 675.0 241.0 136.0 1</property>
      <property name="transition.valign">top</property>
      <property name="transition.halign">left</property>
      <property name="shotcut:animIn">00:00:01.640000</property>
      <property name="shotcut:animOut">00:00:00.000</property>
      <property name="transition.threads">0</property>
    </filter>
    <filter id="filter639" out="00:00:34.520000" in="00:00:32.920000">
      <property name="window">75</property>
      <property name="max_gain">20dB</property>
      <property name="mlt_service">volume</property>
      <property name="shotcut:filter">muteVolume</property>
      <property name="gain">0</property>
    </filter>
  </producer>
  <producer id="producer342" title="Anonymous Submission" in="00:00:00.000" out="00:03:19.240">
    <property name="length">00:03:19:07</property>
    <property name="eof">pause</property>
    <property name="resource">../../006 - Videos format youtube/Flutes/Alain_flute_totoro.mp4</property>
    <property name="audio_index">1</property>
    <property name="video_index">0</property>
    <property name="mute_on_pause">0</property>
    <property name="mlt_service">avformat-novalidate</property>
    <property name="seekable">1</property>
    <property name="aspect_ratio">1</property>
    <property name="creation_time">2020-04-08T16:32:02</property>
    <property name="shotcut:hash">e4470a14bf088b76cf4b34d8127e4e51</property>
    <property name="ignore_points">0</property>
    <property name="shotcut:caption">Alain_flute_totoro.mp4</property>
    <property name="shotcut:skipConvert">1</property>
    <property name="global_feed">1</property>
    <property name="xml">was here</property>
    <filter id="filter640" out="00:00:36.200000" in="00:00:34.560000">
      <property name="background">colour:0</property>
      <property name="mlt_service">affine</property>
      <property name="shotcut:filter">affineSizePosition</property>
      <property name="transition.fill">1</property>
      <property name="transition.distort">0</property>
      <property name="transition.rect">00:00:00.000000=1680.0 675.0 242.0 136.0 1;00:00:01.600000=1680.0 810.0 241.0 136.0 1</property>
      <property name="transition.valign">top</property>
      <property name="transition.halign">left</property>
      <property name="shotcut:animIn">00:00:01.640000</property>
      <property name="shotcut:animOut">00:00:00.000</property>
      <property name="transition.threads">0</property>
    </filter>
    <filter id="filter641" out="00:00:36.200000" in="00:00:34.560000">
      <property name="window">75</property>
      <property name="max_gain">20dB</property>
      <property name="mlt_service">volume</property>
      <property name="shotcut:filter">muteVolume</property>
      <property name="gain">0</property>
    </filter>
  </producer>
  <producer id="producer343" title="Anonymous Submission" in="00:00:00.000" out="00:03:19.240">
    <property name="length">00:03:19:07</property>
    <property name="eof">pause</property>
    <property name="resource">../../006 - Videos format youtube/Flutes/Alain_flute_totoro.mp4</property>
    <property name="audio_index">1</property>
    <property name="video_index">0</property>
    <property name="mute_on_pause">0</property>
    <property name="mlt_service">avformat-novalidate</property>
    <property name="seekable">1</property>
    <property name="aspect_ratio">1</property>
    <property name="creation_time">2020-04-08T16:32:02</property>
    <property name="shotcut:hash">e4470a14bf088b76cf4b34d8127e4e51</property>
    <property name="ignore_points">0</property>
    <property name="shotcut:caption">Alain_flute_totoro.mp4</property>
    <property name="shotcut:skipConvert">1</property>
    <property name="global_feed">1</property>
    <property name="xml">was here</property>
    <filter id="filter642" out="00:00:37.880000" in="00:00:36.240000">
      <property name="background">colour:0</property>
      <property name="mlt_service">affine</property>
      <property name="shotcut:filter">affineSizePosition</property>
      <property name="transition.fill">1</property>
      <property name="transition.distort">0</property>
      <property name="transition.rect">00:00:00.000000=1680.0 810.0 242.0 136.0 1;00:00:01.600000=1680.0 945.0 241.0 136.0 1</property>
      <property name="transition.valign">top</property>
      <property name="transition.halign">left</property>
      <property name="shotcut:animIn">00:00:01.640000</property>
      <property name="shotcut:animOut">00:00:00.000</property>
      <property name="transition.threads">0</property>
    </filter>
    <filter id="filter643" out="00:00:37.880000" in="00:00:36.240000">
      <property name="window">75</property>
      <property name="max_gain">20dB</property>
      <property name="mlt_service">volume</property>
      <property name="shotcut:filter">muteVolume</property>
      <property name="gain">0</property>
    </filter>
  </producer>
  <producer id="producer344" title="Anonymous Submission" in="00:00:00.000" out="00:03:19.240">
    <property name="length">00:03:19:07</property>
    <property name="eof">pause</property>
    <property name="resource">../../006 - Videos format youtube/Flutes/Alain_flute_totoro.mp4</property>
    <property name="audio_index">1</property>
    <property name="video_index">0</property>
    <property name="mute_on_pause">0</property>
    <property name="mlt_service">avformat-novalidate</property>
    <property name="seekable">1</property>
    <property name="aspect_ratio">1</property>
    <property name="creation_time">2020-04-08T16:32:02</property>
    <property name="shotcut:hash">e4470a14bf088b76cf4b34d8127e4e51</property>
    <property name="ignore_points">0</property>
    <property name="shotcut:caption">Alain_flute_totoro.mp4</property>
    <property name="shotcut:skipConvert">1</property>
    <property name="global_feed">1</property>
    <property name="xml">was here</property>
    <filter id="filter644" out="00:00:39.520000" in="00:00:37.920000">
      <property name="background">colour:0</property>
      <property name="mlt_service">affine</property>
      <property name="shotcut:filter">affineSizePosition</property>
      <property name="transition.fill">1</property>
      <property name="transition.distort">0</property>
      <property name="transition.rect">00:00:00.000000=1680.0 135.0 242.0 136.0 1;00:00:01.600000=1680.0 270.0 241.0 136.0 1</property>
      <property name="transition.valign">top</property>
      <property name="transition.halign">left</property>
      <property name="shotcut:animIn">00:00:01.640000</property>
      <property name="shotcut:animOut">00:00:00.000</property>
      <property name="transition.threads">0</property>
    </filter>
    <filter id="filter645" out="00:00:39.520000" in="00:00:37.920000">
      <property name="window">75</property>
      <property name="max_gain">20dB</property>
      <property name="mlt_service">volume</property>
      <property name="shotcut:filter">muteVolume</property>
      <property name="gain">0</property>
    </filter>
  </producer>
  <producer id="producer345" title="Anonymous Submission" in="00:00:00.000" out="00:03:19.240">
    <property name="length">00:03:19:07</property>
    <property name="eof">pause</property>
    <property name="resource">../../006 - Videos format youtube/Flutes/Alain_flute_totoro.mp4</property>
    <property name="audio_index">1</property>
    <property name="video_index">0</property>
    <property name="mute_on_pause">0</property>
    <property name="mlt_service">avformat-novalidate</property>
    <property name="seekable">1</property>
    <property name="aspect_ratio">1</property>
    <property name="creation_time">2020-04-08T16:32:02</property>
    <property name="shotcut:hash">e4470a14bf088b76cf4b34d8127e4e51</property>
    <property name="ignore_points">0</property>
    <property name="shotcut:caption">Alain_flute_totoro.mp4</property>
    <property name="shotcut:skipConvert">1</property>
    <property name="global_feed">1</property>
    <property name="xml">was here</property>
    <filter id="filter646" out="00:00:41.200000" in="00:00:39.560000">
      <property name="background">colour:0</property>
      <property name="mlt_service">affine</property>
      <property name="shotcut:filter">affineSizePosition</property>
      <property name="transition.fill">1</property>
      <property name="transition.distort">0</property>
      <property name="transition.rect">00:00:00.000000=1680.0 270.0 242.0 136.0 1;00:00:01.600000=1680.0 405.0 241.0 136.0 1</property>
      <property name="transition.valign">top</property>
      <property name="transition.halign">left</property>
      <property name="shotcut:animIn">00:00:01.640000</property>
      <property name="shotcut:animOut">00:00:00.000</property>
      <property name="transition.threads">0</property>
    </filter>
    <filter id="filter647" out="00:00:41.200000" in="00:00:39.560000">
      <property name="window">75</property>
      <property name="max_gain">20dB</property>
      <property name="mlt_service">volume</property>
      <property name="shotcut:filter">muteVolume</property>
      <property name="gain">0</property>
    </filter>
  </producer>
  <producer id="producer346" title="Anonymous Submission" in="00:00:00.000" out="00:03:19.240">
    <property name="length">00:03:19:07</property>
    <property name="eof">pause</property>
    <property name="resource">../../006 - Videos format youtube/Flutes/Alain_flute_totoro.mp4</property>
    <property name="audio_index">1</property>
    <property name="video_index">0</property>
    <property name="mute_on_pause">0</property>
    <property name="mlt_service">avformat-novalidate</property>
    <property name="seekable">1</property>
    <property name="aspect_ratio">1</property>
    <property name="creation_time">2020-04-08T16:32:02</property>
    <property name="shotcut:hash">e4470a14bf088b76cf4b34d8127e4e51</property>
    <property name="ignore_points">0</property>
    <property name="shotcut:caption">Alain_flute_totoro.mp4</property>
    <property name="shotcut:skipConvert">1</property>
    <property name="global_feed">1</property>
    <property name="xml">was here</property>
    <filter id="filter648" out="00:00:42.880000" in="00:00:41.240000">
      <property name="background">colour:0</property>
      <property name="mlt_service">affine</property>
      <property name="shotcut:filter">affineSizePosition</property>
      <property name="transition.fill">1</property>
      <property name="transition.distort">0</property>
      <property name="transition.rect">00:00:00.000000=1680.0 405.0 242.0 136.0 1;00:00:01.600000=1680.0 540.0 241.0 136.0 1</property>
      <property name="transition.valign">top</property>
      <property name="transition.halign">left</property>
      <property name="shotcut:animIn">00:00:01.640000</property>
      <property name="shotcut:animOut">00:00:00.000</property>
      <property name="transition.threads">0</property>
    </filter>
    <filter id="filter649" out="00:00:42.880000" in="00:00:41.240000">
      <property name="window">75</property>
      <property name="max_gain">20dB</property>
      <property name="mlt_service">volume</property>
      <property name="shotcut:filter">muteVolume</property>
      <property name="gain">0</property>
    </filter>
  </producer>
  <producer id="producer347" title="Anonymous Submission" in="00:00:00.000" out="00:03:19.240">
    <property name="length">00:03:19:07</property>
    <property name="eof">pause</property>
    <property name="resource">../../006 - Videos format youtube/Flutes/Alain_flute_totoro.mp4</property>
    <property name="audio_index">1</property>
    <property name="video_index">0</property>
    <property name="mute_on_pause">0</property>
    <property name="mlt_service">avformat-novalidate</property>
    <property name="seekable">1</property>
    <property name="aspect_ratio">1</property>
    <property name="creation_time">2020-04-08T16:32:02</property>
    <property name="shotcut:hash">e4470a14bf088b76cf4b34d8127e4e51</property>
    <property name="ignore_points">0</property>
    <property name="shotcut:caption">Alain_flute_totoro.mp4</property>
    <property name="shotcut:skipConvert">1</property>
    <property name="global_feed">1</property>
    <property name="xml">was here</property>
    <filter id="filter650" out="00:00:44.520000" in="00:00:42.920000">
      <property name="background">colour:0</property>
      <property name="mlt_service">affine</property>
      <property name="shotcut:filter">affineSizePosition</property>
      <property name="transition.fill">1</property>
      <property name="transition.distort">0</property>
      <property name="transition.rect">00:00:00.000000=1680.0 540.0 242.0 136.0 1;00:00:01.600000=1680.0 675.0 241.0 136.0 1</property>
      <property name="transition.valign">top</property>
      <property name="transition.halign">left</property>
      <property name="shotcut:animIn">00:00:01.640000</property>
      <property name="shotcut:animOut">00:00:00.000</property>
      <property name="transition.threads">0</property>
    </filter>
    <filter id="filter651" out="00:00:44.520000" in="00:00:42.920000">
      <property name="window">75</property>
      <property name="max_gain">20dB</property>
      <property name="mlt_service">volume</property>
      <property name="shotcut:filter">muteVolume</property>
      <property name="gain">0</property>
    </filter>
  </producer>
  <producer id="producer348" title="Anonymous Submission" in="00:00:00.000" out="00:03:19.240">
    <property name="length">00:03:19:07</property>
    <property name="eof">pause</property>
    <property name="resource">../../006 - Videos format youtube/Flutes/Alain_flute_totoro.mp4</property>
    <property name="audio_index">1</property>
    <property name="video_index">0</property>
    <property name="mute_on_pause">0</property>
    <property name="mlt_service">avformat-novalidate</property>
    <property name="seekable">1</property>
    <property name="aspect_ratio">1</property>
    <property name="creation_time">2020-04-08T16:32:02</property>
    <property name="shotcut:hash">e4470a14bf088b76cf4b34d8127e4e51</property>
    <property name="ignore_points">0</property>
    <property name="shotcut:caption">Alain_flute_totoro.mp4</property>
    <property name="shotcut:skipConvert">1</property>
    <property name="global_feed">1</property>
    <property name="xml">was here</property>
    <filter id="filter652" out="00:00:46.200000" in="00:00:44.560000">
      <property name="background">colour:0</property>
      <property name="mlt_service">affine</property>
      <property name="shotcut:filter">affineSizePosition</property>
      <property name="transition.fill">1</property>
      <property name="transition.distort">0</property>
      <property name="transition.rect">00:00:00.000000=1680.0 675.0 242.0 136.0 1;00:00:01.600000=1680.0 810.0 241.0 136.0 1</property>
      <property name="transition.valign">top</property>
      <property name="transition.halign">left</property>
      <property name="shotcut:animIn">00:00:01.640000</property>
      <property name="shotcut:animOut">00:00:00.000</property>
      <property name="transition.threads">0</property>
    </filter>
    <filter id="filter653" out="00:00:46.200000" in="00:00:44.560000">
      <property name="window">75</property>
      <property name="max_gain">20dB</property>
      <property name="mlt_service">volume</property>
      <property name="shotcut:filter">muteVolume</property>
      <property name="gain">0</property>
    </filter>
  </producer>
  <producer id="producer349" title="Anonymous Submission" in="00:00:00.000" out="00:03:19.240">
    <property name="length">00:03:19:07</property>
    <property name="eof">pause</property>
    <property name="resource">../../006 - Videos format youtube/Flutes/Alain_flute_totoro.mp4</property>
    <property name="audio_index">1</property>
    <property name="video_index">0</property>
    <property name="mute_on_pause">0</property>
    <property name="mlt_service">avformat-novalidate</property>
    <property name="seekable">1</property>
    <property name="aspect_ratio">1</property>
    <property name="creation_time">2020-04-08T16:32:02</property>
    <property name="shotcut:hash">e4470a14bf088b76cf4b34d8127e4e51</property>
    <property name="ignore_points">0</property>
    <property name="shotcut:caption">Alain_flute_totoro.mp4</property>
    <property name="shotcut:skipConvert">1</property>
    <property name="global_feed">1</property>
    <property name="xml">was here</property>
    <filter id="filter654" out="00:00:47.880000" in="00:00:46.240000">
      <property name="background">colour:0</property>
      <property name="mlt_service">affine</property>
      <property name="shotcut:filter">affineSizePosition</property>
      <property name="transition.fill">1</property>
      <property name="transition.distort">0</property>
      <property name="transition.rect">00:00:00.000000=1680.0 810.0 242.0 136.0 1;00:00:01.600000=1680.0 945.0 241.0 136.0 1</property>
      <property name="transition.valign">top</property>
      <property name="transition.halign">left</property>
      <property name="shotcut:animIn">00:00:01.640000</property>
      <property name="shotcut:animOut">00:00:00.000</property>
      <property name="transition.threads">0</property>
    </filter>
    <filter id="filter655" out="00:00:47.880000" in="00:00:46.240000">
      <property name="window">75</property>
      <property name="max_gain">20dB</property>
      <property name="mlt_service">volume</property>
      <property name="shotcut:filter">muteVolume</property>
      <property name="gain">0</property>
    </filter>
  </producer>
  <producer id="producer350" title="Anonymous Submission" in="00:00:00.000" out="00:03:19.240">
    <property name="length">00:03:19:07</property>
    <property name="eof">pause</property>
    <property name="resource">../../006 - Videos format youtube/Flutes/Alain_flute_totoro.mp4</property>
    <property name="audio_index">1</property>
    <property name="video_index">0</property>
    <property name="mute_on_pause">0</property>
    <property name="mlt_service">avformat-novalidate</property>
    <property name="seekable">1</property>
    <property name="aspect_ratio">1</property>
    <property name="creation_time">2020-04-08T16:32:02</property>
    <property name="shotcut:hash">e4470a14bf088b76cf4b34d8127e4e51</property>
    <property name="ignore_points">0</property>
    <property name="shotcut:caption">Alain_flute_totoro.mp4</property>
    <property name="shotcut:skipConvert">1</property>
    <property name="global_feed">1</property>
    <property name="xml">was here</property>
    <filter id="filter656" out="00:01:01.880000" in="00:00:47.920000">
      <property name="background">colour:0</property>
      <property name="mlt_service">affine</property>
      <property name="shotcut:filter">affineSizePosition</property>
      <property name="transition.fill">1</property>
      <property name="transition.distort">0</property>
      <property name="transition.rect">1680.0 135.0 241.0 136.0 1</property>
      <property name="transition.valign">top</property>
      <property name="transition.halign">left</property>
      <property name="shotcut:animIn">00:00:01.640000</property>
      <property name="shotcut:animOut">00:00:00.000</property>
      <property name="transition.threads">0</property>
    </filter>
    <filter id="filter657" out="00:01:01.880000" in="00:00:47.920000">
      <property name="window">75</property>
      <property name="max_gain">20dB</property>
      <property name="mlt_service">volume</property>
      <property name="shotcut:filter">muteVolume</property>
      <property name="gain">0</property>
    </filter>
  </producer>
  <producer id="producer351" title="Anonymous Submission" in="00:00:00.000" out="00:03:19.240">
    <property name="length">00:03:19:07</property>
    <property name="eof">pause</property>
    <property name="resource">../../006 - Videos format youtube/Flutes/Alain_flute_totoro.mp4</property>
    <property name="audio_index">1</property>
    <property name="video_index">0</property>
    <property name="mute_on_pause">0</property>
    <property name="mlt_service">avformat-novalidate</property>
    <property name="seekable">1</property>
    <property name="aspect_ratio">1</property>
    <property name="creation_time">2020-04-08T16:32:02</property>
    <property name="shotcut:hash">e4470a14bf088b76cf4b34d8127e4e51</property>
    <property name="ignore_points">0</property>
    <property name="shotcut:caption">Alain_flute_totoro.mp4</property>
    <property name="shotcut:skipConvert">1</property>
    <property name="global_feed">1</property>
    <property name="xml">was here</property>
    <filter id="filter658" out="00:01:09.880000" in="00:01:01.920000">
      <property name="background">colour:0</property>
      <property name="mlt_service">affine</property>
      <property name="shotcut:filter">affineSizePosition</property>
      <property name="transition.fill">1</property>
      <property name="transition.distort">0</property>
      <property name="transition.rect">274.0 617.0 275.0 155.0 1</property>
      <property name="transition.valign">top</property>
      <property name="transition.halign">left</property>
      <property name="shotcut:animIn">00:00:01.640000</property>
      <property name="shotcut:animOut">00:00:00.000</property>
      <property name="transition.threads">0</property>
    </filter>
    <filter id="filter659" out="00:01:09.880000" in="00:01:01.920000">
      <property name="window">75</property>
      <property name="max_gain">20dB</property>
      <property name="mlt_service">volume</property>
      <property name="shotcut:filter">muteVolume</property>
      <property name="gain">0</property>
    </filter>
  </producer>
  <producer id="producer352" title="Anonymous Submission" in="00:00:00.000" out="00:03:19.240">
    <property name="length">00:03:19:07</property>
    <property name="eof">pause</property>
    <property name="resource">../../006 - Videos format youtube/Flutes/Alain_flute_totoro.mp4</property>
    <property name="audio_index">1</property>
    <property name="video_index">0</property>
    <property name="mute_on_pause">0</property>
    <property name="mlt_service">avformat-novalidate</property>
    <property name="seekable">1</property>
    <property name="aspect_ratio">1</property>
    <property name="creation_time">2020-04-08T16:32:02</property>
    <property name="shotcut:hash">e4470a14bf088b76cf4b34d8127e4e51</property>
    <property name="ignore_points">0</property>
    <property name="shotcut:caption">Alain_flute_totoro.mp4</property>
    <property name="shotcut:skipConvert">1</property>
    <property name="global_feed">1</property>
    <property name="xml">was here</property>
    <filter id="filter660" out="00:01:17.880000" in="00:01:09.920000">
      <property name="background">colour:0</property>
      <property name="mlt_service">affine</property>
      <property name="shotcut:filter">affineSizePosition</property>
      <property name="transition.fill">1</property>
      <property name="transition.distort">0</property>
      <property name="transition.rect">1097.0 0.0 823.0 463.0 1</property>
      <property name="transition.valign">top</property>
      <property name="transition.halign">left</property>
      <property name="shotcut:animIn">00:00:01.640000</property>
      <property name="shotcut:animOut">00:00:00.000</property>
      <property name="transition.threads">0</property>
    </filter>
    <filter id="filter661" out="00:01:17.880000" in="00:01:09.920000">
      <property name="window">75</property>
      <property name="max_gain">20dB</property>
      <property name="mlt_service">volume</property>
      <property name="shotcut:filter">muteVolume</property>
      <property name="gain">0</property>
    </filter>
  </producer>
  <producer id="producer353" title="Anonymous Submission" in="00:00:00.000" out="00:03:19.240">
    <property name="length">00:03:19:07</property>
    <property name="eof">pause</property>
    <property name="resource">../../006 - Videos format youtube/Flutes/Alain_flute_totoro.mp4</property>
    <property name="audio_index">1</property>
    <property name="video_index">0</property>
    <property name="mute_on_pause">0</property>
    <property name="mlt_service">avformat-novalidate</property>
    <property name="seekable">1</property>
    <property name="aspect_ratio">1</property>
    <property name="creation_time">2020-04-08T16:32:02</property>
    <property name="shotcut:hash">e4470a14bf088b76cf4b34d8127e4e51</property>
    <property name="ignore_points">0</property>
    <property name="shotcut:caption">Alain_flute_totoro.mp4</property>
    <property name="shotcut:skipConvert">1</property>
    <property name="global_feed">1</property>
    <property name="xml">was here</property>
    <filter id="filter662" out="00:01:24.880000" in="00:01:17.920000">
      <property name="background">colour:0</property>
      <property name="mlt_service">affine</property>
      <property name="shotcut:filter">affineSizePosition</property>
      <property name="transition.fill">1</property>
      <property name="transition.distort">0</property>
      <property name="transition.rect">6879.0 0.0 321.0 181.0 1</property>
      <property name="transition.valign">top</property>
      <property name="transition.halign">left</property>
      <property name="shotcut:animIn">00:00:01.640000</property>
      <property name="shotcut:animOut">00:00:00.000</property>
      <property name="transition.threads">0</property>
    </filter>
    <filter id="filter663" out="00:01:24.880000" in="00:01:17.920000">
      <property name="window">75</property>
      <property name="max_gain">20dB</property>
      <property name="mlt_service">volume</property>
      <property name="shotcut:filter">muteVolume</property>
      <property name="gain">0</property>
    </filter>
  </producer>
  <producer id="producer354" title="Anonymous Submission" in="00:00:00.000" out="00:03:19.240">
    <property name="length">00:03:19:07</property>
    <property name="eof">pause</property>
    <property name="resource">../../006 - Videos format youtube/Flutes/Alain_flute_totoro.mp4</property>
    <property name="audio_index">1</property>
    <property name="video_index">0</property>
    <property name="mute_on_pause">0</property>
    <property name="mlt_service">avformat-novalidate</property>
    <property name="seekable">1</property>
    <property name="aspect_ratio">1</property>
    <property name="creation_time">2020-04-08T16:32:02</property>
    <property name="shotcut:hash">e4470a14bf088b76cf4b34d8127e4e51</property>
    <property name="ignore_points">0</property>
    <property name="shotcut:caption">Alain_flute_totoro.mp4</property>
    <property name="shotcut:skipConvert">1</property>
    <property name="global_feed">1</property>
    <property name="xml">was here</property>
    <filter id="filter664" out="00:01:32.880000" in="00:01:24.920000">
      <property name="background">colour:0</property>
      <property name="mlt_service">affine</property>
      <property name="shotcut:filter">affineSizePosition</property>
      <property name="transition.fill">1</property>
      <property name="transition.distort">0</property>
      <property name="transition.rect">1600.0 540.0 321.0 181.0 1</property>
      <property name="transition.valign">top</property>
      <property name="transition.halign">left</property>
      <property name="shotcut:animIn">00:00:01.640000</property>
      <property name="shotcut:animOut">00:00:00.000</property>
      <property name="transition.threads">0</property>
    </filter>
    <filter id="filter665" out="00:01:32.880000" in="00:01:24.920000">
      <property name="window">75</property>
      <property name="max_gain">20dB</property>
      <property name="mlt_service">volume</property>
      <property name="shotcut:filter">muteVolume</property>
      <property name="gain">0</property>
    </filter>
  </producer>
  <producer id="producer355" title="Anonymous Submission" in="00:00:00.000" out="00:03:19.240">
    <property name="length">00:03:19:07</property>
    <property name="eof">pause</property>
    <property name="resource">../../006 - Videos format youtube/Flutes/Alain_flute_totoro.mp4</property>
    <property name="audio_index">1</property>
    <property name="video_index">0</property>
    <property name="mute_on_pause">0</property>
    <property name="mlt_service">avformat-novalidate</property>
    <property name="seekable">1</property>
    <property name="aspect_ratio">1</property>
    <property name="creation_time">2020-04-08T16:32:02</property>
    <property name="shotcut:hash">e4470a14bf088b76cf4b34d8127e4e51</property>
    <property name="ignore_points">0</property>
    <property name="shotcut:caption">Alain_flute_totoro.mp4</property>
    <property name="shotcut:skipConvert">1</property>
    <property name="global_feed">1</property>
    <property name="xml">was here</property>
    <filter id="filter666" out="00:01:41.880000" in="00:01:32.920000">
      <property name="background">colour:0</property>
      <property name="mlt_service">affine</property>
      <property name="shotcut:filter">affineSizePosition</property>
      <property name="transition.fill">1</property>
      <property name="transition.distort">0</property>
      <property name="transition.rect">1645.0 308.0 275.0 155.0 1</property>
      <property name="transition.valign">top</property>
      <property name="transition.halign">left</property>
      <property name="shotcut:animIn">00:00:01.640000</property>
      <property name="shotcut:animOut">00:00:00.000</property>
      <property name="transition.threads">0</property>
    </filter>
    <filter id="filter667" out="00:01:41.880000" in="00:01:32.920000">
      <property name="window">75</property>
      <property name="max_gain">20dB</property>
      <property name="mlt_service">volume</property>
      <property name="shotcut:filter">muteVolume</property>
      <property name="gain">0</property>
    </filter>
  </producer>
  <producer id="producer356" title="Anonymous Submission" in="00:00:00.000" out="00:03:19.240">
    <property name="length">00:03:19:07</property>
    <property name="eof">pause</property>
    <property name="resource">../../006 - Videos format youtube/Flutes/Alain_flute_totoro.mp4</property>
    <property name="audio_index">1</property>
    <property name="video_index">0</property>
    <property name="mute_on_pause">0</property>
    <property name="mlt_service">avformat-novalidate</property>
    <property name="seekable">1</property>
    <property name="aspect_ratio">1</property>
    <property name="creation_time">2020-04-08T16:32:02</property>
    <property name="shotcut:hash">e4470a14bf088b76cf4b34d8127e4e51</property>
    <property name="ignore_points">0</property>
    <property name="shotcut:caption">Alain_flute_totoro.mp4</property>
    <property name="shotcut:skipConvert">1</property>
    <property name="global_feed">1</property>
    <property name="xml">was here</property>
    <filter id="filter668" out="00:01:48.880000" in="00:01:41.920000">
      <property name="background">colour:0</property>
      <property name="mlt_service">affine</property>
      <property name="shotcut:filter">affineSizePosition</property>
      <property name="transition.fill">1</property>
      <property name="transition.distort">0</property>
      <property name="transition.rect">274.0 617.0 275.0 155.0 1</property>
      <property name="transition.valign">top</property>
      <property name="transition.halign">left</property>
      <property name="shotcut:animIn">00:00:01.640000</property>
      <property name="shotcut:animOut">00:00:00.000</property>
      <property name="transition.threads">0</property>
    </filter>
    <filter id="filter669" out="00:01:48.880000" in="00:01:41.920000">
      <property name="window">75</property>
      <property name="max_gain">20dB</property>
      <property name="mlt_service">volume</property>
      <property name="shotcut:filter">muteVolume</property>
      <property name="gain">0</property>
    </filter>
  </producer>
  <producer id="producer357" title="Anonymous Submission" in="00:00:00.000" out="00:03:19.240">
    <property name="length">00:03:19:07</property>
    <property name="eof">pause</property>
    <property name="resource">../../006 - Videos format youtube/Flutes/Alain_flute_totoro.mp4</property>
    <property name="audio_index">1</property>
    <property name="video_index">0</property>
    <property name="mute_on_pause">0</property>
    <property name="mlt_service">avformat-novalidate</property>
    <property name="seekable">1</property>
    <property name="aspect_ratio">1</property>
    <property name="creation_time">2020-04-08T16:32:02</property>
    <property name="shotcut:hash">e4470a14bf088b76cf4b34d8127e4e51</property>
    <property name="ignore_points">0</property>
    <property name="shotcut:caption">Alain_flute_totoro.mp4</property>
    <property name="shotcut:skipConvert">1</property>
    <property name="global_feed">1</property>
    <property name="xml">was here</property>
    <filter id="filter670" out="00:03:19.240000" in="00:01:48.920000">
      <property name="background">colour:0</property>
      <property name="mlt_service">affine</property>
      <property name="shotcut:filter">affineSizePosition</property>
      <property name="transition.fill">1</property>
      <property name="transition.distort">0</property>
      <property name="transition.rect">6879.0 0.0 321.0 181.0 1</property>
      <property name="transition.valign">top</property>
      <property name="transition.halign">left</property>
      <property name="shotcut:animIn">00:00:01.640000</property>
      <property name="shotcut:animOut">00:00:00.000</property>
      <property name="transition.threads">0</property>
    </filter>
    <filter id="filter671" out="00:03:19.240000" in="00:01:48.920000">
      <property name="window">75</property>
      <property name="max_gain">20dB</property>
      <property name="mlt_service">volume</property>
      <property name="shotcut:filter">muteVolume</property>
      <property name="gain">0</property>
    </filter>
  </producer>
  <playlist id="playlist20">
    <property name="shotcut:video">1</property>
    <property name="shotcut:name">Alain_flute2</property>
    <property name="shotcut:lock">1</property>
    <blank length="00:00:02.080" />
    <entry producer="producer336" in="00:00:00.000" out="00:00:20.880000" />
    <entry producer="producer337" in="00:00:20.920000" out="00:00:27.880000" />
    <entry producer="producer338" in="00:00:27.920000" out="00:00:29.520000" />
    <entry producer="producer339" in="00:00:29.560000" out="00:00:31.200000" />
    <entry producer="producer340" in="00:00:31.240000" out="00:00:32.880000" />
    <entry producer="producer341" in="00:00:32.920000" out="00:00:34.520000" />
    <entry producer="producer342" in="00:00:34.560000" out="00:00:36.200000" />
    <entry producer="producer343" in="00:00:36.240000" out="00:00:37.880000" />
    <entry producer="producer344" in="00:00:37.920000" out="00:00:39.520000" />
    <entry producer="producer345" in="00:00:39.560000" out="00:00:41.200000" />
    <entry producer="producer346" in="00:00:41.240000" out="00:00:42.880000" />
    <entry producer="producer347" in="00:00:42.920000" out="00:00:44.520000" />
    <entry producer="producer348" in="00:00:44.560000" out="00:00:46.200000" />
    <entry producer="producer349" in="00:00:46.240000" out="00:00:47.880000" />
    <entry producer="producer350" in="00:00:47.920000" out="00:01:01.880000" />
    <entry producer="producer351" in="00:01:01.920000" out="00:01:09.880000" />
    <entry producer="producer352" in="00:01:09.920000" out="00:01:17.880000" />
    <entry producer="producer353" in="00:01:17.920000" out="00:01:24.880000" />
    <entry producer="producer354" in="00:01:24.920000" out="00:01:32.880000" />
    <entry producer="producer355" in="00:01:32.920000" out="00:01:41.880000" />
    <entry producer="producer356" in="00:01:41.920000" out="00:01:48.880000" />
    <entry producer="producer357" in="00:01:48.920000" out="00:03:19.240000" />
    <filter id="filter672" out="00:03:35.640">
      <property name="window">75</property>
      <property name="max_gain">20dB</property>
      <property name="level">-10</property>
      <property name="mlt_service">volume</property>
    </filter>
  </playlist>
  <producer id="producer358" title="Anonymous Submission" in="00:00:00.000" out="00:02:58.120">
    <property name="length">00:02:58:04</property>
    <property name="eof">pause</property>
    <property name="resource">../../006 - Videos format youtube/Flutes/Laurence_flute_totoro.mp4</property>
    <property name="audio_index">1</property>
    <property name="video_index">0</property>
    <property name="mute_on_pause">0</property>
    <property name="mlt_service">avformat-novalidate</property>
    <property name="seekable">1</property>
    <property name="aspect_ratio">1</property>
    <property name="creation_time">2020-04-10T18:00:41</property>
    <property name="shotcut:hash">60bcdee113b1401df52909414ee98b5b</property>
    <property name="ignore_points">0</property>
    <property name="shotcut:caption">Laurence_flute_totoro.mp4</property>
    <property name="shotcut:skipConvert">1</property>
    <property name="global_feed">1</property>
    <property name="xml">was here</property>
    <filter id="filter673" out="00:00:03.400000">
      <property name="background">colour:0</property>
      <property name="mlt_service">affine</property>
      <property name="shotcut:filter">affineSizePosition</property>
      <property name="transition.fill">1</property>
      <property name="transition.distort">0</property>
      <property name="transition.rect">0.0 925.0 275.0 155.0 1</property>
      <property name="transition.valign">top</property>
      <property name="transition.halign">left</property>
      <property name="shotcut:animIn">00:00:00.000</property>
      <property name="shotcut:animOut">00:00:00.000</property>
      <property name="transition.threads">0</property>
    </filter>
  </producer>
  <producer id="producer359" title="Anonymous Submission" in="00:00:00.000" out="00:02:58.120">
    <property name="length">00:02:58:04</property>
    <property name="eof">pause</property>
    <property name="resource">../../006 - Videos format youtube/Flutes/Laurence_flute_totoro.mp4</property>
    <property name="audio_index">1</property>
    <property name="video_index">0</property>
    <property name="mute_on_pause">0</property>
    <property name="mlt_service">avformat-novalidate</property>
    <property name="seekable">1</property>
    <property name="aspect_ratio">1</property>
    <property name="creation_time">2020-04-10T18:00:41</property>
    <property name="shotcut:hash">60bcdee113b1401df52909414ee98b5b</property>
    <property name="ignore_points">0</property>
    <property name="shotcut:caption">Laurence_flute_totoro.mp4</property>
    <property name="shotcut:skipConvert">1</property>
    <property name="global_feed">1</property>
    <property name="xml">was here</property>
    <filter id="filter674" out="00:00:10.400000" in="00:00:03.440000">
      <property name="background">colour:0</property>
      <property name="mlt_service">affine</property>
      <property name="shotcut:filter">affineSizePosition</property>
      <property name="transition.fill">1</property>
      <property name="transition.distort">0</property>
      <property name="transition.rect">00:00:00.000000=0.0 925.0 276.0 155.0 1;00:00:00.440000=274.0 154.0 275.0 155.0 1</property>
      <property name="transition.valign">top</property>
      <property name="transition.halign">left</property>
      <property name="shotcut:animIn">00:00:00.480000</property>
      <property name="shotcut:animOut">00:00:00.000</property>
      <property name="transition.threads">0</property>
    </filter>
  </producer>
  <producer id="producer360" title="Anonymous Submission" in="00:00:00.000" out="00:02:58.120">
    <property name="length">00:02:58:04</property>
    <property name="eof">pause</property>
    <property name="resource">../../006 - Videos format youtube/Flutes/Laurence_flute_totoro.mp4</property>
    <property name="audio_index">1</property>
    <property name="video_index">0</property>
    <property name="mute_on_pause">0</property>
    <property name="mlt_service">avformat-novalidate</property>
    <property name="seekable">1</property>
    <property name="aspect_ratio">1</property>
    <property name="creation_time">2020-04-10T18:00:41</property>
    <property name="shotcut:hash">60bcdee113b1401df52909414ee98b5b</property>
    <property name="ignore_points">0</property>
    <property name="shotcut:caption">Laurence_flute_totoro.mp4</property>
    <property name="shotcut:skipConvert">1</property>
    <property name="global_feed">1</property>
    <property name="xml">was here</property>
    <filter id="filter675" out="00:00:12.040000" in="00:00:10.440000">
      <property name="background">colour:0</property>
      <property name="mlt_service">affine</property>
      <property name="shotcut:filter">affineSizePosition</property>
      <property name="transition.fill">1</property>
      <property name="transition.distort">0</property>
      <property name="transition.rect">00:00:00.000000=1680.0 810.0 242.0 136.0 1;00:00:01.600000=1680.0 945.0 241.0 136.0 1</property>
      <property name="transition.valign">top</property>
      <property name="transition.halign">left</property>
      <property name="shotcut:animIn">00:00:01.640000</property>
      <property name="shotcut:animOut">00:00:00.000</property>
      <property name="transition.threads">0</property>
    </filter>
  </producer>
  <producer id="producer361" title="Anonymous Submission" in="00:00:00.000" out="00:02:58.120">
    <property name="length">00:02:58:04</property>
    <property name="eof">pause</property>
    <property name="resource">../../006 - Videos format youtube/Flutes/Laurence_flute_totoro.mp4</property>
    <property name="audio_index">1</property>
    <property name="video_index">0</property>
    <property name="mute_on_pause">0</property>
    <property name="mlt_service">avformat-novalidate</property>
    <property name="seekable">1</property>
    <property name="aspect_ratio">1</property>
    <property name="creation_time">2020-04-10T18:00:41</property>
    <property name="shotcut:hash">60bcdee113b1401df52909414ee98b5b</property>
    <property name="ignore_points">0</property>
    <property name="shotcut:caption">Laurence_flute_totoro.mp4</property>
    <property name="shotcut:skipConvert">1</property>
    <property name="global_feed">1</property>
    <property name="xml">was here</property>
    <filter id="filter676" out="00:00:13.720000" in="00:00:12.080000">
      <property name="background">colour:0</property>
      <property name="mlt_service">affine</property>
      <property name="shotcut:filter">affineSizePosition</property>
      <property name="transition.fill">1</property>
      <property name="transition.distort">0</property>
      <property name="transition.rect">00:00:00.000000=1680.0 135.0 242.0 136.0 1;00:00:01.600000=1680.0 270.0 241.0 136.0 1</property>
      <property name="transition.valign">top</property>
      <property name="transition.halign">left</property>
      <property name="shotcut:animIn">00:00:01.640000</property>
      <property name="shotcut:animOut">00:00:00.000</property>
      <property name="transition.threads">0</property>
    </filter>
  </producer>
  <producer id="producer362" title="Anonymous Submission" in="00:00:00.000" out="00:02:58.120">
    <property name="length">00:02:58:04</property>
    <property name="eof">pause</property>
    <property name="resource">../../006 - Videos format youtube/Flutes/Laurence_flute_totoro.mp4</property>
    <property name="audio_index">1</property>
    <property name="video_index">0</property>
    <property name="mute_on_pause">0</property>
    <property name="mlt_service">avformat-novalidate</property>
    <property name="seekable">1</property>
    <property name="aspect_ratio">1</property>
    <property name="creation_time">2020-04-10T18:00:41</property>
    <property name="shotcut:hash">60bcdee113b1401df52909414ee98b5b</property>
    <property name="ignore_points">0</property>
    <property name="shotcut:caption">Laurence_flute_totoro.mp4</property>
    <property name="shotcut:skipConvert">1</property>
    <property name="global_feed">1</property>
    <property name="xml">was here</property>
    <filter id="filter677" out="00:00:15.400000" in="00:00:13.760000">
      <property name="background">colour:0</property>
      <property name="mlt_service">affine</property>
      <property name="shotcut:filter">affineSizePosition</property>
      <property name="transition.fill">1</property>
      <property name="transition.distort">0</property>
      <property name="transition.rect">00:00:00.000000=1680.0 270.0 242.0 136.0 1;00:00:01.600000=1680.0 405.0 241.0 136.0 1</property>
      <property name="transition.valign">top</property>
      <property name="transition.halign">left</property>
      <property name="shotcut:animIn">00:00:01.640000</property>
      <property name="shotcut:animOut">00:00:00.000</property>
      <property name="transition.threads">0</property>
    </filter>
  </producer>
  <producer id="producer363" title="Anonymous Submission" in="00:00:00.000" out="00:02:58.120">
    <property name="length">00:02:58:04</property>
    <property name="eof">pause</property>
    <property name="resource">../../006 - Videos format youtube/Flutes/Laurence_flute_totoro.mp4</property>
    <property name="audio_index">1</property>
    <property name="video_index">0</property>
    <property name="mute_on_pause">0</property>
    <property name="mlt_service">avformat-novalidate</property>
    <property name="seekable">1</property>
    <property name="aspect_ratio">1</property>
    <property name="creation_time">2020-04-10T18:00:41</property>
    <property name="shotcut:hash">60bcdee113b1401df52909414ee98b5b</property>
    <property name="ignore_points">0</property>
    <property name="shotcut:caption">Laurence_flute_totoro.mp4</property>
    <property name="shotcut:skipConvert">1</property>
    <property name="global_feed">1</property>
    <property name="xml">was here</property>
    <filter id="filter678" out="00:00:17.040000" in="00:00:15.440000">
      <property name="background">colour:0</property>
      <property name="mlt_service">affine</property>
      <property name="shotcut:filter">affineSizePosition</property>
      <property name="transition.fill">1</property>
      <property name="transition.distort">0</property>
      <property name="transition.rect">00:00:00.000000=1680.0 405.0 242.0 136.0 1;00:00:01.600000=1680.0 540.0 241.0 136.0 1</property>
      <property name="transition.valign">top</property>
      <property name="transition.halign">left</property>
      <property name="shotcut:animIn">00:00:01.640000</property>
      <property name="shotcut:animOut">00:00:00.000</property>
      <property name="transition.threads">0</property>
    </filter>
  </producer>
  <producer id="producer364" title="Anonymous Submission" in="00:00:00.000" out="00:02:58.120">
    <property name="length">00:02:58:04</property>
    <property name="eof">pause</property>
    <property name="resource">../../006 - Videos format youtube/Flutes/Laurence_flute_totoro.mp4</property>
    <property name="audio_index">1</property>
    <property name="video_index">0</property>
    <property name="mute_on_pause">0</property>
    <property name="mlt_service">avformat-novalidate</property>
    <property name="seekable">1</property>
    <property name="aspect_ratio">1</property>
    <property name="creation_time">2020-04-10T18:00:41</property>
    <property name="shotcut:hash">60bcdee113b1401df52909414ee98b5b</property>
    <property name="ignore_points">0</property>
    <property name="shotcut:caption">Laurence_flute_totoro.mp4</property>
    <property name="shotcut:skipConvert">1</property>
    <property name="global_feed">1</property>
    <property name="xml">was here</property>
    <filter id="filter679" out="00:00:18.720000" in="00:00:17.080000">
      <property name="background">colour:0</property>
      <property name="mlt_service">affine</property>
      <property name="shotcut:filter">affineSizePosition</property>
      <property name="transition.fill">1</property>
      <property name="transition.distort">0</property>
      <property name="transition.rect">00:00:00.000000=1680.0 540.0 242.0 136.0 1;00:00:01.600000=1680.0 675.0 241.0 136.0 1</property>
      <property name="transition.valign">top</property>
      <property name="transition.halign">left</property>
      <property name="shotcut:animIn">00:00:01.640000</property>
      <property name="shotcut:animOut">00:00:00.000</property>
      <property name="transition.threads">0</property>
    </filter>
  </producer>
  <producer id="producer365" title="Anonymous Submission" in="00:00:00.000" out="00:02:58.120">
    <property name="length">00:02:58:04</property>
    <property name="eof">pause</property>
    <property name="resource">../../006 - Videos format youtube/Flutes/Laurence_flute_totoro.mp4</property>
    <property name="audio_index">1</property>
    <property name="video_index">0</property>
    <property name="mute_on_pause">0</property>
    <property name="mlt_service">avformat-novalidate</property>
    <property name="seekable">1</property>
    <property name="aspect_ratio">1</property>
    <property name="creation_time">2020-04-10T18:00:41</property>
    <property name="shotcut:hash">60bcdee113b1401df52909414ee98b5b</property>
    <property name="ignore_points">0</property>
    <property name="shotcut:caption">Laurence_flute_totoro.mp4</property>
    <property name="shotcut:skipConvert">1</property>
    <property name="global_feed">1</property>
    <property name="xml">was here</property>
    <filter id="filter680" out="00:00:20.400000" in="00:00:18.760000">
      <property name="background">colour:0</property>
      <property name="mlt_service">affine</property>
      <property name="shotcut:filter">affineSizePosition</property>
      <property name="transition.fill">1</property>
      <property name="transition.distort">0</property>
      <property name="transition.rect">00:00:00.000000=1680.0 675.0 242.0 136.0 1;00:00:01.600000=1680.0 810.0 241.0 136.0 1</property>
      <property name="transition.valign">top</property>
      <property name="transition.halign">left</property>
      <property name="shotcut:animIn">00:00:01.640000</property>
      <property name="shotcut:animOut">00:00:00.000</property>
      <property name="transition.threads">0</property>
    </filter>
  </producer>
  <producer id="producer366" title="Anonymous Submission" in="00:00:00.000" out="00:02:58.120">
    <property name="length">00:02:58:04</property>
    <property name="eof">pause</property>
    <property name="resource">../../006 - Videos format youtube/Flutes/Laurence_flute_totoro.mp4</property>
    <property name="audio_index">1</property>
    <property name="video_index">0</property>
    <property name="mute_on_pause">0</property>
    <property name="mlt_service">avformat-novalidate</property>
    <property name="seekable">1</property>
    <property name="aspect_ratio">1</property>
    <property name="creation_time">2020-04-10T18:00:41</property>
    <property name="shotcut:hash">60bcdee113b1401df52909414ee98b5b</property>
    <property name="ignore_points">0</property>
    <property name="shotcut:caption">Laurence_flute_totoro.mp4</property>
    <property name="shotcut:skipConvert">1</property>
    <property name="global_feed">1</property>
    <property name="xml">was here</property>
    <filter id="filter681" out="00:00:22.040000" in="00:00:20.440000">
      <property name="background">colour:0</property>
      <property name="mlt_service">affine</property>
      <property name="shotcut:filter">affineSizePosition</property>
      <property name="transition.fill">1</property>
      <property name="transition.distort">0</property>
      <property name="transition.rect">00:00:00.000000=1680.0 810.0 242.0 136.0 1;00:00:01.600000=1680.0 945.0 241.0 136.0 1</property>
      <property name="transition.valign">top</property>
      <property name="transition.halign">left</property>
      <property name="shotcut:animIn">00:00:01.640000</property>
      <property name="shotcut:animOut">00:00:00.000</property>
      <property name="transition.threads">0</property>
    </filter>
  </producer>
  <producer id="producer367" title="Anonymous Submission" in="00:00:00.000" out="00:02:58.120">
    <property name="length">00:02:58:04</property>
    <property name="eof">pause</property>
    <property name="resource">../../006 - Videos format youtube/Flutes/Laurence_flute_totoro.mp4</property>
    <property name="audio_index">1</property>
    <property name="video_index">0</property>
    <property name="mute_on_pause">0</property>
    <property name="mlt_service">avformat-novalidate</property>
    <property name="seekable">1</property>
    <property name="aspect_ratio">1</property>
    <property name="creation_time">2020-04-10T18:00:41</property>
    <property name="shotcut:hash">60bcdee113b1401df52909414ee98b5b</property>
    <property name="ignore_points">0</property>
    <property name="shotcut:caption">Laurence_flute_totoro.mp4</property>
    <property name="shotcut:skipConvert">1</property>
    <property name="global_feed">1</property>
    <property name="xml">was here</property>
    <filter id="filter682" out="00:00:23.720000" in="00:00:22.080000">
      <property name="background">colour:0</property>
      <property name="mlt_service">affine</property>
      <property name="shotcut:filter">affineSizePosition</property>
      <property name="transition.fill">1</property>
      <property name="transition.distort">0</property>
      <property name="transition.rect">00:00:00.000000=1680.0 135.0 242.0 136.0 1;00:00:01.600000=1680.0 270.0 241.0 136.0 1</property>
      <property name="transition.valign">top</property>
      <property name="transition.halign">left</property>
      <property name="shotcut:animIn">00:00:01.640000</property>
      <property name="shotcut:animOut">00:00:00.000</property>
      <property name="transition.threads">0</property>
    </filter>
  </producer>
  <producer id="producer368" title="Anonymous Submission" in="00:00:00.000" out="00:02:58.120">
    <property name="length">00:02:58:04</property>
    <property name="eof">pause</property>
    <property name="resource">../../006 - Videos format youtube/Flutes/Laurence_flute_totoro.mp4</property>
    <property name="audio_index">1</property>
    <property name="video_index">0</property>
    <property name="mute_on_pause">0</property>
    <property name="mlt_service">avformat-novalidate</property>
    <property name="seekable">1</property>
    <property name="aspect_ratio">1</property>
    <property name="creation_time">2020-04-10T18:00:41</property>
    <property name="shotcut:hash">60bcdee113b1401df52909414ee98b5b</property>
    <property name="ignore_points">0</property>
    <property name="shotcut:caption">Laurence_flute_totoro.mp4</property>
    <property name="shotcut:skipConvert">1</property>
    <property name="global_feed">1</property>
    <property name="xml">was here</property>
    <filter id="filter683" out="00:00:25.400000" in="00:00:23.760000">
      <property name="background">colour:0</property>
      <property name="mlt_service">affine</property>
      <property name="shotcut:filter">affineSizePosition</property>
      <property name="transition.fill">1</property>
      <property name="transition.distort">0</property>
      <property name="transition.rect">00:00:00.000000=1680.0 270.0 242.0 136.0 1;00:00:01.600000=1680.0 405.0 241.0 136.0 1</property>
      <property name="transition.valign">top</property>
      <property name="transition.halign">left</property>
      <property name="shotcut:animIn">00:00:01.640000</property>
      <property name="shotcut:animOut">00:00:00.000</property>
      <property name="transition.threads">0</property>
    </filter>
  </producer>
  <producer id="producer369" title="Anonymous Submission" in="00:00:00.000" out="00:02:58.120">
    <property name="length">00:02:58:04</property>
    <property name="eof">pause</property>
    <property name="resource">../../006 - Videos format youtube/Flutes/Laurence_flute_totoro.mp4</property>
    <property name="audio_index">1</property>
    <property name="video_index">0</property>
    <property name="mute_on_pause">0</property>
    <property name="mlt_service">avformat-novalidate</property>
    <property name="seekable">1</property>
    <property name="aspect_ratio">1</property>
    <property name="creation_time">2020-04-10T18:00:41</property>
    <property name="shotcut:hash">60bcdee113b1401df52909414ee98b5b</property>
    <property name="ignore_points">0</property>
    <property name="shotcut:caption">Laurence_flute_totoro.mp4</property>
    <property name="shotcut:skipConvert">1</property>
    <property name="global_feed">1</property>
    <property name="xml">was here</property>
    <filter id="filter684" out="00:00:27.040000" in="00:00:25.440000">
      <property name="background">colour:0</property>
      <property name="mlt_service">affine</property>
      <property name="shotcut:filter">affineSizePosition</property>
      <property name="transition.fill">1</property>
      <property name="transition.distort">0</property>
      <property name="transition.rect">00:00:00.000000=1680.0 405.0 242.0 136.0 1;00:00:01.600000=1680.0 540.0 241.0 136.0 1</property>
      <property name="transition.valign">top</property>
      <property name="transition.halign">left</property>
      <property name="shotcut:animIn">00:00:01.640000</property>
      <property name="shotcut:animOut">00:00:00.000</property>
      <property name="transition.threads">0</property>
    </filter>
  </producer>
  <producer id="producer370" title="Anonymous Submission" in="00:00:00.000" out="00:02:58.120">
    <property name="length">00:02:58:04</property>
    <property name="eof">pause</property>
    <property name="resource">../../006 - Videos format youtube/Flutes/Laurence_flute_totoro.mp4</property>
    <property name="audio_index">1</property>
    <property name="video_index">0</property>
    <property name="mute_on_pause">0</property>
    <property name="mlt_service">avformat-novalidate</property>
    <property name="seekable">1</property>
    <property name="aspect_ratio">1</property>
    <property name="creation_time">2020-04-10T18:00:41</property>
    <property name="shotcut:hash">60bcdee113b1401df52909414ee98b5b</property>
    <property name="ignore_points">0</property>
    <property name="shotcut:caption">Laurence_flute_totoro.mp4</property>
    <property name="shotcut:skipConvert">1</property>
    <property name="global_feed">1</property>
    <property name="xml">was here</property>
    <filter id="filter685" out="00:00:28.720000" in="00:00:27.080000">
      <property name="background">colour:0</property>
      <property name="mlt_service">affine</property>
      <property name="shotcut:filter">affineSizePosition</property>
      <property name="transition.fill">1</property>
      <property name="transition.distort">0</property>
      <property name="transition.rect">00:00:00.000000=1680.0 540.0 242.0 136.0 1;00:00:01.600000=1680.0 675.0 241.0 136.0 1</property>
      <property name="transition.valign">top</property>
      <property name="transition.halign">left</property>
      <property name="shotcut:animIn">00:00:01.640000</property>
      <property name="shotcut:animOut">00:00:00.000</property>
      <property name="transition.threads">0</property>
    </filter>
  </producer>
  <producer id="producer371" title="Anonymous Submission" in="00:00:00.000" out="00:02:58.120">
    <property name="length">00:02:58:04</property>
    <property name="eof">pause</property>
    <property name="resource">../../006 - Videos format youtube/Flutes/Laurence_flute_totoro.mp4</property>
    <property name="audio_index">1</property>
    <property name="video_index">0</property>
    <property name="mute_on_pause">0</property>
    <property name="mlt_service">avformat-novalidate</property>
    <property name="seekable">1</property>
    <property name="aspect_ratio">1</property>
    <property name="creation_time">2020-04-10T18:00:41</property>
    <property name="shotcut:hash">60bcdee113b1401df52909414ee98b5b</property>
    <property name="ignore_points">0</property>
    <property name="shotcut:caption">Laurence_flute_totoro.mp4</property>
    <property name="shotcut:skipConvert">1</property>
    <property name="global_feed">1</property>
    <property name="xml">was here</property>
    <filter id="filter686" out="00:00:44.400000" in="00:00:28.760000">
      <property name="background">colour:0</property>
      <property name="mlt_service">affine</property>
      <property name="shotcut:filter">affineSizePosition</property>
      <property name="transition.fill">1</property>
      <property name="transition.distort">0</property>
      <property name="transition.rect">00:00:00.000000=1680.0 675.0 242.0 136.0 1;00:00:01.600000=1680.0 810.0 241.0 136.0 1</property>
      <property name="transition.valign">top</property>
      <property name="transition.halign">left</property>
      <property name="shotcut:animIn">00:00:01.640000</property>
      <property name="shotcut:animOut">00:00:00.000</property>
      <property name="transition.threads">0</property>
    </filter>
  </producer>
  <producer id="producer372" title="Anonymous Submission" in="00:00:00.000" out="00:02:58.120">
    <property name="length">00:02:58:04</property>
    <property name="eof">pause</property>
    <property name="resource">../../006 - Videos format youtube/Flutes/Laurence_flute_totoro.mp4</property>
    <property name="audio_index">1</property>
    <property name="video_index">0</property>
    <property name="mute_on_pause">0</property>
    <property name="mlt_service">avformat-novalidate</property>
    <property name="seekable">1</property>
    <property name="aspect_ratio">1</property>
    <property name="creation_time">2020-04-10T18:00:41</property>
    <property name="shotcut:hash">60bcdee113b1401df52909414ee98b5b</property>
    <property name="ignore_points">0</property>
    <property name="shotcut:caption">Laurence_flute_totoro.mp4</property>
    <property name="shotcut:skipConvert">1</property>
    <property name="global_feed">1</property>
    <property name="xml">was here</property>
    <filter id="filter687" out="00:00:52.400000" in="00:00:44.440000">
      <property name="background">colour:0</property>
      <property name="mlt_service">affine</property>
      <property name="shotcut:filter">affineSizePosition</property>
      <property name="transition.fill">1</property>
      <property name="transition.distort">0</property>
      <property name="transition.rect">0.0 925.0 275.0 155.0 1</property>
      <property name="transition.valign">top</property>
      <property name="transition.halign">left</property>
      <property name="shotcut:animIn">00:00:01.640000</property>
      <property name="shotcut:animOut">00:00:00.000</property>
      <property name="transition.threads">0</property>
    </filter>
  </producer>
  <producer id="producer373" title="Anonymous Submission" in="00:00:00.000" out="00:02:58.120">
    <property name="length">00:02:58:04</property>
    <property name="eof">pause</property>
    <property name="resource">../../006 - Videos format youtube/Flutes/Laurence_flute_totoro.mp4</property>
    <property name="audio_index">1</property>
    <property name="video_index">0</property>
    <property name="mute_on_pause">0</property>
    <property name="mlt_service">avformat-novalidate</property>
    <property name="seekable">1</property>
    <property name="aspect_ratio">1</property>
    <property name="creation_time">2020-04-10T18:00:41</property>
    <property name="shotcut:hash">60bcdee113b1401df52909414ee98b5b</property>
    <property name="ignore_points">0</property>
    <property name="shotcut:caption">Laurence_flute_totoro.mp4</property>
    <property name="shotcut:skipConvert">1</property>
    <property name="global_feed">1</property>
    <property name="xml">was here</property>
    <filter id="filter688" out="00:01:00.400000" in="00:00:52.440000">
      <property name="background">colour:0</property>
      <property name="mlt_service">affine</property>
      <property name="shotcut:filter">affineSizePosition</property>
      <property name="transition.fill">1</property>
      <property name="transition.distort">0</property>
      <property name="transition.rect">-1371.0 -308.0 275.0 155.0 1</property>
      <property name="transition.valign">top</property>
      <property name="transition.halign">left</property>
      <property name="shotcut:animIn">00:00:01.640000</property>
      <property name="shotcut:animOut">00:00:00.000</property>
      <property name="transition.threads">0</property>
    </filter>
  </producer>
  <producer id="producer374" title="Anonymous Submission" in="00:00:00.000" out="00:02:58.120">
    <property name="length">00:02:58:04</property>
    <property name="eof">pause</property>
    <property name="resource">../../006 - Videos format youtube/Flutes/Laurence_flute_totoro.mp4</property>
    <property name="audio_index">1</property>
    <property name="video_index">0</property>
    <property name="mute_on_pause">0</property>
    <property name="mlt_service">avformat-novalidate</property>
    <property name="seekable">1</property>
    <property name="aspect_ratio">1</property>
    <property name="creation_time">2020-04-10T18:00:41</property>
    <property name="shotcut:hash">60bcdee113b1401df52909414ee98b5b</property>
    <property name="ignore_points">0</property>
    <property name="shotcut:caption">Laurence_flute_totoro.mp4</property>
    <property name="shotcut:skipConvert">1</property>
    <property name="global_feed">1</property>
    <property name="xml">was here</property>
    <filter id="filter689" out="00:01:07.400000" in="00:01:00.440000">
      <property name="background">colour:0</property>
      <property name="mlt_service">affine</property>
      <property name="shotcut:filter">affineSizePosition</property>
      <property name="transition.fill">1</property>
      <property name="transition.distort">0</property>
      <property name="transition.rect">160.0 0.0 321.0 181.0 1</property>
      <property name="transition.valign">top</property>
      <property name="transition.halign">left</property>
      <property name="shotcut:animIn">00:00:01.640000</property>
      <property name="shotcut:animOut">00:00:00.000</property>
      <property name="transition.threads">0</property>
    </filter>
  </producer>
  <producer id="producer375" title="Anonymous Submission" in="00:00:00.000" out="00:02:58.120">
    <property name="length">00:02:58:04</property>
    <property name="eof">pause</property>
    <property name="resource">../../006 - Videos format youtube/Flutes/Laurence_flute_totoro.mp4</property>
    <property name="audio_index">1</property>
    <property name="video_index">0</property>
    <property name="mute_on_pause">0</property>
    <property name="mlt_service">avformat-novalidate</property>
    <property name="seekable">1</property>
    <property name="aspect_ratio">1</property>
    <property name="creation_time">2020-04-10T18:00:41</property>
    <property name="shotcut:hash">60bcdee113b1401df52909414ee98b5b</property>
    <property name="ignore_points">0</property>
    <property name="shotcut:caption">Laurence_flute_totoro.mp4</property>
    <property name="shotcut:skipConvert">1</property>
    <property name="global_feed">1</property>
    <property name="xml">was here</property>
    <filter id="filter690" out="00:01:15.400000" in="00:01:07.440000">
      <property name="background">colour:0</property>
      <property name="mlt_service">affine</property>
      <property name="shotcut:filter">affineSizePosition</property>
      <property name="transition.fill">1</property>
      <property name="transition.distort">0</property>
      <property name="transition.rect">1280.0 540.0 321.0 181.0 1</property>
      <property name="transition.valign">top</property>
      <property name="transition.halign">left</property>
      <property name="shotcut:animIn">00:00:01.640000</property>
      <property name="shotcut:animOut">00:00:00.000</property>
      <property name="transition.threads">0</property>
    </filter>
  </producer>
  <producer id="producer376" title="Anonymous Submission" in="00:00:00.000" out="00:02:58.120">
    <property name="length">00:02:58:04</property>
    <property name="eof">pause</property>
    <property name="resource">../../006 - Videos format youtube/Flutes/Laurence_flute_totoro.mp4</property>
    <property name="audio_index">1</property>
    <property name="video_index">0</property>
    <property name="mute_on_pause">0</property>
    <property name="mlt_service">avformat-novalidate</property>
    <property name="seekable">1</property>
    <property name="aspect_ratio">1</property>
    <property name="creation_time">2020-04-10T18:00:41</property>
    <property name="shotcut:hash">60bcdee113b1401df52909414ee98b5b</property>
    <property name="ignore_points">0</property>
    <property name="shotcut:caption">Laurence_flute_totoro.mp4</property>
    <property name="shotcut:skipConvert">1</property>
    <property name="global_feed">1</property>
    <property name="xml">was here</property>
    <filter id="filter691" out="00:01:24.400000" in="00:01:15.440000">
      <property name="background">colour:0</property>
      <property name="mlt_service">affine</property>
      <property name="shotcut:filter">affineSizePosition</property>
      <property name="transition.fill">1</property>
      <property name="transition.distort">0</property>
      <property name="transition.rect">-548.0 -308.0 275.0 155.0 1</property>
      <property name="transition.valign">top</property>
      <property name="transition.halign">left</property>
      <property name="shotcut:animIn">00:00:01.640000</property>
      <property name="shotcut:animOut">00:00:00.000</property>
      <property name="transition.threads">0</property>
    </filter>
  </producer>
  <producer id="producer377" title="Anonymous Submission" in="00:00:00.000" out="00:02:58.120">
    <property name="length">00:02:58:04</property>
    <property name="eof">pause</property>
    <property name="resource">../../006 - Videos format youtube/Flutes/Laurence_flute_totoro.mp4</property>
    <property name="audio_index">1</property>
    <property name="video_index">0</property>
    <property name="mute_on_pause">0</property>
    <property name="mlt_service">avformat-novalidate</property>
    <property name="seekable">1</property>
    <property name="aspect_ratio">1</property>
    <property name="creation_time">2020-04-10T18:00:41</property>
    <property name="shotcut:hash">60bcdee113b1401df52909414ee98b5b</property>
    <property name="ignore_points">0</property>
    <property name="shotcut:caption">Laurence_flute_totoro.mp4</property>
    <property name="shotcut:skipConvert">1</property>
    <property name="global_feed">1</property>
    <property name="xml">was here</property>
    <filter id="filter692" out="00:01:31.400000" in="00:01:24.440000">
      <property name="background">colour:0</property>
      <property name="mlt_service">affine</property>
      <property name="shotcut:filter">affineSizePosition</property>
      <property name="transition.fill">1</property>
      <property name="transition.distort">0</property>
      <property name="transition.rect">0.0 925.0 275.0 155.0 1</property>
      <property name="transition.valign">top</property>
      <property name="transition.halign">left</property>
      <property name="shotcut:animIn">00:00:01.640000</property>
      <property name="shotcut:animOut">00:00:00.000</property>
      <property name="transition.threads">0</property>
    </filter>
  </producer>
  <producer id="producer378" title="Anonymous Submission" in="00:00:00.000" out="00:02:58.120">
    <property name="length">00:02:58:04</property>
    <property name="eof">pause</property>
    <property name="resource">../../006 - Videos format youtube/Flutes/Laurence_flute_totoro.mp4</property>
    <property name="audio_index">1</property>
    <property name="video_index">0</property>
    <property name="mute_on_pause">0</property>
    <property name="mlt_service">avformat-novalidate</property>
    <property name="seekable">1</property>
    <property name="aspect_ratio">1</property>
    <property name="creation_time">2020-04-10T18:00:41</property>
    <property name="shotcut:hash">60bcdee113b1401df52909414ee98b5b</property>
    <property name="ignore_points">0</property>
    <property name="shotcut:caption">Laurence_flute_totoro.mp4</property>
    <property name="shotcut:skipConvert">1</property>
    <property name="global_feed">1</property>
    <property name="xml">was here</property>
    <filter id="filter693" out="00:02:58.120000" in="00:01:31.440000">
      <property name="background">colour:0</property>
      <property name="mlt_service">affine</property>
      <property name="shotcut:filter">affineSizePosition</property>
      <property name="transition.fill">1</property>
      <property name="transition.distort">0</property>
      <property name="transition.rect">3360.0 0.0 321.0 181.0 1</property>
      <property name="transition.valign">top</property>
      <property name="transition.halign">left</property>
      <property name="shotcut:animIn">00:00:01.640000</property>
      <property name="shotcut:animOut">00:00:00.000</property>
      <property name="transition.threads">0</property>
    </filter>
  </producer>
  <playlist id="playlist21">
    <property name="shotcut:video">1</property>
    <property name="shotcut:name"> Laurence_flute 2</property>
    <property name="shotcut:lock">1</property>
    <blank length="00:00:19.560" />
    <entry producer="producer358" in="00:00:00.000" out="00:00:03.400000" />
    <entry producer="producer359" in="00:00:03.440000" out="00:00:10.400000" />
    <entry producer="producer360" in="00:00:10.440000" out="00:00:12.040000" />
    <entry producer="producer361" in="00:00:12.080000" out="00:00:13.720000" />
    <entry producer="producer362" in="00:00:13.760000" out="00:00:15.400000" />
    <entry producer="producer363" in="00:00:15.440000" out="00:00:17.040000" />
    <entry producer="producer364" in="00:00:17.080000" out="00:00:18.720000" />
    <entry producer="producer365" in="00:00:18.760000" out="00:00:20.400000" />
    <entry producer="producer366" in="00:00:20.440000" out="00:00:22.040000" />
    <entry producer="producer367" in="00:00:22.080000" out="00:00:23.720000" />
    <entry producer="producer368" in="00:00:23.760000" out="00:00:25.400000" />
    <entry producer="producer369" in="00:00:25.440000" out="00:00:27.040000" />
    <entry producer="producer370" in="00:00:27.080000" out="00:00:28.720000" />
    <entry producer="producer371" in="00:00:28.760000" out="00:00:44.400000" />
    <entry producer="producer372" in="00:00:44.440000" out="00:00:52.400000" />
    <entry producer="producer373" in="00:00:52.440000" out="00:01:00.400000" />
    <entry producer="producer374" in="00:01:00.440000" out="00:01:07.400000" />
    <entry producer="producer375" in="00:01:07.440000" out="00:01:15.400000" />
    <entry producer="producer376" in="00:01:15.440000" out="00:01:24.400000" />
    <entry producer="producer377" in="00:01:24.440000" out="00:01:31.400000" />
    <entry producer="producer378" in="00:01:31.440000" out="00:02:58.120000" />
    <filter id="filter694" out="00:03:35.640">
      <property name="window">75</property>
      <property name="max_gain">20dB</property>
      <property name="level">-12</property>
      <property name="mlt_service">volume</property>
    </filter>
  </playlist>
  <producer id="producer379" title="Anonymous Submission" in="00:00:00.000" out="00:02:59.720">
    <property name="length">00:02:59:19</property>
    <property name="eof">pause</property>
    <property name="resource">../../006 - Videos format youtube/Flutes/Antoine_flute_totoro.mp4</property>
    <property name="audio_index">1</property>
    <property name="video_index">0</property>
    <property name="mute_on_pause">0</property>
    <property name="mlt_service">avformat-novalidate</property>
    <property name="seekable">1</property>
    <property name="aspect_ratio">1</property>
    <property name="creation_time">2020-04-09T18:43:14</property>
    <property name="shotcut:hash">4b5c310c51f982bf236c6a3fad1fff39</property>
    <property name="ignore_points">0</property>
    <property name="shotcut:caption">Antoine_flute_totoro.mp4</property>
    <property name="shotcut:skipConvert">1</property>
    <property name="global_feed">1</property>
    <property name="xml">was here</property>
    <filter id="filter695" out="00:00:06.240000">
      <property name="background">colour:0</property>
      <property name="mlt_service">affine</property>
      <property name="shotcut:filter">affineSizePosition</property>
      <property name="transition.fill">1</property>
      <property name="transition.distort">0</property>
      <property name="transition.rect">274.0 771.0 275.0 155.0 1</property>
      <property name="transition.valign">top</property>
      <property name="transition.halign">left</property>
      <property name="shotcut:animIn">00:00:00.000</property>
      <property name="shotcut:animOut">00:00:00.000</property>
      <property name="transition.threads">0</property>
    </filter>
    <filter id="filter696" out="00:00:06.240000">
      <property name="window">75</property>
      <property name="max_gain">20dB</property>
      <property name="mlt_service">volume</property>
      <property name="shotcut:filter">muteVolume</property>
      <property name="gain">0</property>
    </filter>
  </producer>
  <producer id="producer380" title="Anonymous Submission" in="00:00:00.000" out="00:02:59.720">
    <property name="length">00:02:59:19</property>
    <property name="eof">pause</property>
    <property name="resource">../../006 - Videos format youtube/Flutes/Antoine_flute_totoro.mp4</property>
    <property name="audio_index">1</property>
    <property name="video_index">0</property>
    <property name="mute_on_pause">0</property>
    <property name="mlt_service">avformat-novalidate</property>
    <property name="seekable">1</property>
    <property name="aspect_ratio">1</property>
    <property name="creation_time">2020-04-09T18:43:14</property>
    <property name="shotcut:hash">4b5c310c51f982bf236c6a3fad1fff39</property>
    <property name="ignore_points">0</property>
    <property name="shotcut:caption">Antoine_flute_totoro.mp4</property>
    <property name="shotcut:skipConvert">1</property>
    <property name="global_feed">1</property>
    <property name="xml">was here</property>
    <filter id="filter697" out="00:00:13.240000" in="00:00:06.280000">
      <property name="background">colour:0</property>
      <property name="mlt_service">affine</property>
      <property name="shotcut:filter">affineSizePosition</property>
      <property name="transition.fill">1</property>
      <property name="transition.distort">0</property>
      <property name="transition.rect">00:00:00.000000=274.0 771.0 276.0 155.0 1;00:00:00.440000=1371.0 308.0 275.0 155.0 1</property>
      <property name="transition.valign">top</property>
      <property name="transition.halign">left</property>
      <property name="shotcut:animIn">00:00:00.480000</property>
      <property name="shotcut:animOut">00:00:00.000</property>
      <property name="transition.threads">0</property>
    </filter>
    <filter id="filter698" out="00:00:13.240000" in="00:00:06.280000">
      <property name="window">75</property>
      <property name="max_gain">20dB</property>
      <property name="mlt_service">volume</property>
      <property name="shotcut:filter">muteVolume</property>
      <property name="gain">0</property>
    </filter>
  </producer>
  <producer id="producer381" title="Anonymous Submission" in="00:00:00.000" out="00:02:59.720">
    <property name="length">00:02:59:19</property>
    <property name="eof">pause</property>
    <property name="resource">../../006 - Videos format youtube/Flutes/Antoine_flute_totoro.mp4</property>
    <property name="audio_index">1</property>
    <property name="video_index">0</property>
    <property name="mute_on_pause">0</property>
    <property name="mlt_service">avformat-novalidate</property>
    <property name="seekable">1</property>
    <property name="aspect_ratio">1</property>
    <property name="creation_time">2020-04-09T18:43:14</property>
    <property name="shotcut:hash">4b5c310c51f982bf236c6a3fad1fff39</property>
    <property name="ignore_points">0</property>
    <property name="shotcut:caption">Antoine_flute_totoro.mp4</property>
    <property name="shotcut:skipConvert">1</property>
    <property name="global_feed">1</property>
    <property name="xml">was here</property>
    <filter id="filter699" out="00:00:14.880000" in="00:00:13.280000">
      <property name="background">colour:0</property>
      <property name="mlt_service">affine</property>
      <property name="shotcut:filter">affineSizePosition</property>
      <property name="transition.fill">1</property>
      <property name="transition.distort">0</property>
      <property name="transition.rect">00:00:00.000000=1680.0 270.0 242.0 136.0 1;00:00:01.600000=1680.0 405.0 241.0 136.0 1</property>
      <property name="transition.valign">top</property>
      <property name="transition.halign">left</property>
      <property name="shotcut:animIn">00:00:01.640000</property>
      <property name="shotcut:animOut">00:00:00.000</property>
      <property name="transition.threads">0</property>
    </filter>
    <filter id="filter700" out="00:00:14.880000" in="00:00:13.280000">
      <property name="window">75</property>
      <property name="max_gain">20dB</property>
      <property name="mlt_service">volume</property>
      <property name="shotcut:filter">muteVolume</property>
      <property name="gain">0</property>
    </filter>
  </producer>
  <producer id="producer382" title="Anonymous Submission" in="00:00:00.000" out="00:02:59.720">
    <property name="length">00:02:59:19</property>
    <property name="eof">pause</property>
    <property name="resource">../../006 - Videos format youtube/Flutes/Antoine_flute_totoro.mp4</property>
    <property name="audio_index">1</property>
    <property name="video_index">0</property>
    <property name="mute_on_pause">0</property>
    <property name="mlt_service">avformat-novalidate</property>
    <property name="seekable">1</property>
    <property name="aspect_ratio">1</property>
    <property name="creation_time">2020-04-09T18:43:14</property>
    <property name="shotcut:hash">4b5c310c51f982bf236c6a3fad1fff39</property>
    <property name="ignore_points">0</property>
    <property name="shotcut:caption">Antoine_flute_totoro.mp4</property>
    <property name="shotcut:skipConvert">1</property>
    <property name="global_feed">1</property>
    <property name="xml">was here</property>
    <filter id="filter701" out="00:00:16.560000" in="00:00:14.920000">
      <property name="background">colour:0</property>
      <property name="mlt_service">affine</property>
      <property name="shotcut:filter">affineSizePosition</property>
      <property name="transition.fill">1</property>
      <property name="transition.distort">0</property>
      <property name="transition.rect">00:00:00.000000=1680.0 405.0 242.0 136.0 1;00:00:01.600000=1680.0 540.0 241.0 136.0 1</property>
      <property name="transition.valign">top</property>
      <property name="transition.halign">left</property>
      <property name="shotcut:animIn">00:00:01.640000</property>
      <property name="shotcut:animOut">00:00:00.000</property>
      <property name="transition.threads">0</property>
    </filter>
    <filter id="filter702" out="00:00:16.560000" in="00:00:14.920000">
      <property name="window">75</property>
      <property name="max_gain">20dB</property>
      <property name="mlt_service">volume</property>
      <property name="shotcut:filter">muteVolume</property>
      <property name="gain">0</property>
    </filter>
  </producer>
  <producer id="producer383" title="Anonymous Submission" in="00:00:00.000" out="00:02:59.720">
    <property name="length">00:02:59:19</property>
    <property name="eof">pause</property>
    <property name="resource">../../006 - Videos format youtube/Flutes/Antoine_flute_totoro.mp4</property>
    <property name="audio_index">1</property>
    <property name="video_index">0</property>
    <property name="mute_on_pause">0</property>
    <property name="mlt_service">avformat-novalidate</property>
    <property name="seekable">1</property>
    <property name="aspect_ratio">1</property>
    <property name="creation_time">2020-04-09T18:43:14</property>
    <property name="shotcut:hash">4b5c310c51f982bf236c6a3fad1fff39</property>
    <property name="ignore_points">0</property>
    <property name="shotcut:caption">Antoine_flute_totoro.mp4</property>
    <property name="shotcut:skipConvert">1</property>
    <property name="global_feed">1</property>
    <property name="xml">was here</property>
    <filter id="filter703" out="00:00:18.240000" in="00:00:16.600000">
      <property name="background">colour:0</property>
      <property name="mlt_service">affine</property>
      <property name="shotcut:filter">affineSizePosition</property>
      <property name="transition.fill">1</property>
      <property name="transition.distort">0</property>
      <property name="transition.rect">00:00:00.000000=1680.0 540.0 242.0 136.0 1;00:00:01.600000=1680.0 675.0 241.0 136.0 1</property>
      <property name="transition.valign">top</property>
      <property name="transition.halign">left</property>
      <property name="shotcut:animIn">00:00:01.640000</property>
      <property name="shotcut:animOut">00:00:00.000</property>
      <property name="transition.threads">0</property>
    </filter>
    <filter id="filter704" out="00:00:18.240000" in="00:00:16.600000">
      <property name="window">75</property>
      <property name="max_gain">20dB</property>
      <property name="mlt_service">volume</property>
      <property name="shotcut:filter">muteVolume</property>
      <property name="gain">0</property>
    </filter>
  </producer>
  <producer id="producer384" title="Anonymous Submission" in="00:00:00.000" out="00:02:59.720">
    <property name="length">00:02:59:19</property>
    <property name="eof">pause</property>
    <property name="resource">../../006 - Videos format youtube/Flutes/Antoine_flute_totoro.mp4</property>
    <property name="audio_index">1</property>
    <property name="video_index">0</property>
    <property name="mute_on_pause">0</property>
    <property name="mlt_service">avformat-novalidate</property>
    <property name="seekable">1</property>
    <property name="aspect_ratio">1</property>
    <property name="creation_time">2020-04-09T18:43:14</property>
    <property name="shotcut:hash">4b5c310c51f982bf236c6a3fad1fff39</property>
    <property name="ignore_points">0</property>
    <property name="shotcut:caption">Antoine_flute_totoro.mp4</property>
    <property name="shotcut:skipConvert">1</property>
    <property name="global_feed">1</property>
    <property name="xml">was here</property>
    <filter id="filter705" out="00:00:19.880000" in="00:00:18.280000">
      <property name="background">colour:0</property>
      <property name="mlt_service">affine</property>
      <property name="shotcut:filter">affineSizePosition</property>
      <property name="transition.fill">1</property>
      <property name="transition.distort">0</property>
      <property name="transition.rect">00:00:00.000000=1680.0 675.0 242.0 136.0 1;00:00:01.600000=1680.0 810.0 241.0 136.0 1</property>
      <property name="transition.valign">top</property>
      <property name="transition.halign">left</property>
      <property name="shotcut:animIn">00:00:01.640000</property>
      <property name="shotcut:animOut">00:00:00.000</property>
      <property name="transition.threads">0</property>
    </filter>
    <filter id="filter706" out="00:00:19.880000" in="00:00:18.280000">
      <property name="window">75</property>
      <property name="max_gain">20dB</property>
      <property name="mlt_service">volume</property>
      <property name="shotcut:filter">muteVolume</property>
      <property name="gain">0</property>
    </filter>
  </producer>
  <producer id="producer385" title="Anonymous Submission" in="00:00:00.000" out="00:02:59.720">
    <property name="length">00:02:59:19</property>
    <property name="eof">pause</property>
    <property name="resource">../../006 - Videos format youtube/Flutes/Antoine_flute_totoro.mp4</property>
    <property name="audio_index">1</property>
    <property name="video_index">0</property>
    <property name="mute_on_pause">0</property>
    <property name="mlt_service">avformat-novalidate</property>
    <property name="seekable">1</property>
    <property name="aspect_ratio">1</property>
    <property name="creation_time">2020-04-09T18:43:14</property>
    <property name="shotcut:hash">4b5c310c51f982bf236c6a3fad1fff39</property>
    <property name="ignore_points">0</property>
    <property name="shotcut:caption">Antoine_flute_totoro.mp4</property>
    <property name="shotcut:skipConvert">1</property>
    <property name="global_feed">1</property>
    <property name="xml">was here</property>
    <filter id="filter707" out="00:00:21.560000" in="00:00:19.920000">
      <property name="background">colour:0</property>
      <property name="mlt_service">affine</property>
      <property name="shotcut:filter">affineSizePosition</property>
      <property name="transition.fill">1</property>
      <property name="transition.distort">0</property>
      <property name="transition.rect">00:00:00.000000=1680.0 810.0 242.0 136.0 1;00:00:01.600000=1680.0 945.0 241.0 136.0 1</property>
      <property name="transition.valign">top</property>
      <property name="transition.halign">left</property>
      <property name="shotcut:animIn">00:00:01.640000</property>
      <property name="shotcut:animOut">00:00:00.000</property>
      <property name="transition.threads">0</property>
    </filter>
    <filter id="filter708" out="00:00:21.560000" in="00:00:19.920000">
      <property name="window">75</property>
      <property name="max_gain">20dB</property>
      <property name="mlt_service">volume</property>
      <property name="shotcut:filter">muteVolume</property>
      <property name="gain">0</property>
    </filter>
  </producer>
  <producer id="producer386" title="Anonymous Submission" in="00:00:00.000" out="00:02:59.720">
    <property name="length">00:02:59:19</property>
    <property name="eof">pause</property>
    <property name="resource">../../006 - Videos format youtube/Flutes/Antoine_flute_totoro.mp4</property>
    <property name="audio_index">1</property>
    <property name="video_index">0</property>
    <property name="mute_on_pause">0</property>
    <property name="mlt_service">avformat-novalidate</property>
    <property name="seekable">1</property>
    <property name="aspect_ratio">1</property>
    <property name="creation_time">2020-04-09T18:43:14</property>
    <property name="shotcut:hash">4b5c310c51f982bf236c6a3fad1fff39</property>
    <property name="ignore_points">0</property>
    <property name="shotcut:caption">Antoine_flute_totoro.mp4</property>
    <property name="shotcut:skipConvert">1</property>
    <property name="global_feed">1</property>
    <property name="xml">was here</property>
    <filter id="filter709" out="00:00:23.240000" in="00:00:21.600000">
      <property name="background">colour:0</property>
      <property name="mlt_service">affine</property>
      <property name="shotcut:filter">affineSizePosition</property>
      <property name="transition.fill">1</property>
      <property name="transition.distort">0</property>
      <property name="transition.rect">00:00:00.000000=1680.0 135.0 242.0 136.0 1;00:00:01.600000=1680.0 270.0 241.0 136.0 1</property>
      <property name="transition.valign">top</property>
      <property name="transition.halign">left</property>
      <property name="shotcut:animIn">00:00:01.640000</property>
      <property name="shotcut:animOut">00:00:00.000</property>
      <property name="transition.threads">0</property>
    </filter>
    <filter id="filter710" out="00:00:23.240000" in="00:00:21.600000">
      <property name="window">75</property>
      <property name="max_gain">20dB</property>
      <property name="mlt_service">volume</property>
      <property name="shotcut:filter">muteVolume</property>
      <property name="gain">0</property>
    </filter>
  </producer>
  <producer id="producer387" title="Anonymous Submission" in="00:00:00.000" out="00:02:59.720">
    <property name="length">00:02:59:19</property>
    <property name="eof">pause</property>
    <property name="resource">../../006 - Videos format youtube/Flutes/Antoine_flute_totoro.mp4</property>
    <property name="audio_index">1</property>
    <property name="video_index">0</property>
    <property name="mute_on_pause">0</property>
    <property name="mlt_service">avformat-novalidate</property>
    <property name="seekable">1</property>
    <property name="aspect_ratio">1</property>
    <property name="creation_time">2020-04-09T18:43:14</property>
    <property name="shotcut:hash">4b5c310c51f982bf236c6a3fad1fff39</property>
    <property name="ignore_points">0</property>
    <property name="shotcut:caption">Antoine_flute_totoro.mp4</property>
    <property name="shotcut:skipConvert">1</property>
    <property name="global_feed">1</property>
    <property name="xml">was here</property>
    <filter id="filter711" out="00:00:24.880000" in="00:00:23.280000">
      <property name="background">colour:0</property>
      <property name="mlt_service">affine</property>
      <property name="shotcut:filter">affineSizePosition</property>
      <property name="transition.fill">1</property>
      <property name="transition.distort">0</property>
      <property name="transition.rect">00:00:00.000000=1680.0 270.0 242.0 136.0 1;00:00:01.600000=1680.0 405.0 241.0 136.0 1</property>
      <property name="transition.valign">top</property>
      <property name="transition.halign">left</property>
      <property name="shotcut:animIn">00:00:01.640000</property>
      <property name="shotcut:animOut">00:00:00.000</property>
      <property name="transition.threads">0</property>
    </filter>
    <filter id="filter712" out="00:00:24.880000" in="00:00:23.280000">
      <property name="window">75</property>
      <property name="max_gain">20dB</property>
      <property name="mlt_service">volume</property>
      <property name="shotcut:filter">muteVolume</property>
      <property name="gain">0</property>
    </filter>
  </producer>
  <producer id="producer388" title="Anonymous Submission" in="00:00:00.000" out="00:02:59.720">
    <property name="length">00:02:59:19</property>
    <property name="eof">pause</property>
    <property name="resource">../../006 - Videos format youtube/Flutes/Antoine_flute_totoro.mp4</property>
    <property name="audio_index">1</property>
    <property name="video_index">0</property>
    <property name="mute_on_pause">0</property>
    <property name="mlt_service">avformat-novalidate</property>
    <property name="seekable">1</property>
    <property name="aspect_ratio">1</property>
    <property name="creation_time">2020-04-09T18:43:14</property>
    <property name="shotcut:hash">4b5c310c51f982bf236c6a3fad1fff39</property>
    <property name="ignore_points">0</property>
    <property name="shotcut:caption">Antoine_flute_totoro.mp4</property>
    <property name="shotcut:skipConvert">1</property>
    <property name="global_feed">1</property>
    <property name="xml">was here</property>
    <filter id="filter713" out="00:00:26.560000" in="00:00:24.920000">
      <property name="background">colour:0</property>
      <property name="mlt_service">affine</property>
      <property name="shotcut:filter">affineSizePosition</property>
      <property name="transition.fill">1</property>
      <property name="transition.distort">0</property>
      <property name="transition.rect">00:00:00.000000=1680.0 405.0 242.0 136.0 1;00:00:01.600000=1680.0 540.0 241.0 136.0 1</property>
      <property name="transition.valign">top</property>
      <property name="transition.halign">left</property>
      <property name="shotcut:animIn">00:00:01.640000</property>
      <property name="shotcut:animOut">00:00:00.000</property>
      <property name="transition.threads">0</property>
    </filter>
    <filter id="filter714" out="00:00:26.560000" in="00:00:24.920000">
      <property name="window">75</property>
      <property name="max_gain">20dB</property>
      <property name="mlt_service">volume</property>
      <property name="shotcut:filter">muteVolume</property>
      <property name="gain">0</property>
    </filter>
  </producer>
  <producer id="producer389" title="Anonymous Submission" in="00:00:00.000" out="00:02:59.720">
    <property name="length">00:02:59:19</property>
    <property name="eof">pause</property>
    <property name="resource">../../006 - Videos format youtube/Flutes/Antoine_flute_totoro.mp4</property>
    <property name="audio_index">1</property>
    <property name="video_index">0</property>
    <property name="mute_on_pause">0</property>
    <property name="mlt_service">avformat-novalidate</property>
    <property name="seekable">1</property>
    <property name="aspect_ratio">1</property>
    <property name="creation_time">2020-04-09T18:43:14</property>
    <property name="shotcut:hash">4b5c310c51f982bf236c6a3fad1fff39</property>
    <property name="ignore_points">0</property>
    <property name="shotcut:caption">Antoine_flute_totoro.mp4</property>
    <property name="shotcut:skipConvert">1</property>
    <property name="global_feed">1</property>
    <property name="xml">was here</property>
    <filter id="filter715" out="00:00:28.240000" in="00:00:26.600000">
      <property name="background">colour:0</property>
      <property name="mlt_service">affine</property>
      <property name="shotcut:filter">affineSizePosition</property>
      <property name="transition.fill">1</property>
      <property name="transition.distort">0</property>
      <property name="transition.rect">00:00:00.000000=1680.0 540.0 242.0 136.0 1;00:00:01.600000=1680.0 675.0 241.0 136.0 1</property>
      <property name="transition.valign">top</property>
      <property name="transition.halign">left</property>
      <property name="shotcut:animIn">00:00:01.640000</property>
      <property name="shotcut:animOut">00:00:00.000</property>
      <property name="transition.threads">0</property>
    </filter>
    <filter id="filter716" out="00:00:28.240000" in="00:00:26.600000">
      <property name="window">75</property>
      <property name="max_gain">20dB</property>
      <property name="mlt_service">volume</property>
      <property name="shotcut:filter">muteVolume</property>
      <property name="gain">0</property>
    </filter>
  </producer>
  <producer id="producer390" title="Anonymous Submission" in="00:00:00.000" out="00:02:59.720">
    <property name="length">00:02:59:19</property>
    <property name="eof">pause</property>
    <property name="resource">../../006 - Videos format youtube/Flutes/Antoine_flute_totoro.mp4</property>
    <property name="audio_index">1</property>
    <property name="video_index">0</property>
    <property name="mute_on_pause">0</property>
    <property name="mlt_service">avformat-novalidate</property>
    <property name="seekable">1</property>
    <property name="aspect_ratio">1</property>
    <property name="creation_time">2020-04-09T18:43:14</property>
    <property name="shotcut:hash">4b5c310c51f982bf236c6a3fad1fff39</property>
    <property name="ignore_points">0</property>
    <property name="shotcut:caption">Antoine_flute_totoro.mp4</property>
    <property name="shotcut:skipConvert">1</property>
    <property name="global_feed">1</property>
    <property name="xml">was here</property>
    <filter id="filter717" out="00:00:29.880000" in="00:00:28.280000">
      <property name="background">colour:0</property>
      <property name="mlt_service">affine</property>
      <property name="shotcut:filter">affineSizePosition</property>
      <property name="transition.fill">1</property>
      <property name="transition.distort">0</property>
      <property name="transition.rect">00:00:00.000000=1680.0 675.0 242.0 136.0 1;00:00:01.600000=1680.0 810.0 241.0 136.0 1</property>
      <property name="transition.valign">top</property>
      <property name="transition.halign">left</property>
      <property name="shotcut:animIn">00:00:01.640000</property>
      <property name="shotcut:animOut">00:00:00.000</property>
      <property name="transition.threads">0</property>
    </filter>
    <filter id="filter718" out="00:00:29.880000" in="00:00:28.280000">
      <property name="window">75</property>
      <property name="max_gain">20dB</property>
      <property name="mlt_service">volume</property>
      <property name="shotcut:filter">muteVolume</property>
      <property name="gain">0</property>
    </filter>
  </producer>
  <producer id="producer391" title="Anonymous Submission" in="00:00:00.000" out="00:02:59.720">
    <property name="length">00:02:59:19</property>
    <property name="eof">pause</property>
    <property name="resource">../../006 - Videos format youtube/Flutes/Antoine_flute_totoro.mp4</property>
    <property name="audio_index">1</property>
    <property name="video_index">0</property>
    <property name="mute_on_pause">0</property>
    <property name="mlt_service">avformat-novalidate</property>
    <property name="seekable">1</property>
    <property name="aspect_ratio">1</property>
    <property name="creation_time">2020-04-09T18:43:14</property>
    <property name="shotcut:hash">4b5c310c51f982bf236c6a3fad1fff39</property>
    <property name="ignore_points">0</property>
    <property name="shotcut:caption">Antoine_flute_totoro.mp4</property>
    <property name="shotcut:skipConvert">1</property>
    <property name="global_feed">1</property>
    <property name="xml">was here</property>
    <filter id="filter719" out="00:00:31.560000" in="00:00:29.920000">
      <property name="background">colour:0</property>
      <property name="mlt_service">affine</property>
      <property name="shotcut:filter">affineSizePosition</property>
      <property name="transition.fill">1</property>
      <property name="transition.distort">0</property>
      <property name="transition.rect">00:00:00.000000=1680.0 810.0 242.0 136.0 1;00:00:01.600000=1680.0 945.0 241.0 136.0 1</property>
      <property name="transition.valign">top</property>
      <property name="transition.halign">left</property>
      <property name="shotcut:animIn">00:00:01.640000</property>
      <property name="shotcut:animOut">00:00:00.000</property>
      <property name="transition.threads">0</property>
    </filter>
    <filter id="filter720" out="00:00:31.560000" in="00:00:29.920000">
      <property name="window">75</property>
      <property name="max_gain">20dB</property>
      <property name="mlt_service">volume</property>
      <property name="shotcut:filter">muteVolume</property>
      <property name="gain">0</property>
    </filter>
  </producer>
  <producer id="producer392" title="Anonymous Submission" in="00:00:00.000" out="00:02:59.720">
    <property name="length">00:02:59:19</property>
    <property name="eof">pause</property>
    <property name="resource">../../006 - Videos format youtube/Flutes/Antoine_flute_totoro.mp4</property>
    <property name="audio_index">1</property>
    <property name="video_index">0</property>
    <property name="mute_on_pause">0</property>
    <property name="mlt_service">avformat-novalidate</property>
    <property name="seekable">1</property>
    <property name="aspect_ratio">1</property>
    <property name="creation_time">2020-04-09T18:43:14</property>
    <property name="shotcut:hash">4b5c310c51f982bf236c6a3fad1fff39</property>
    <property name="ignore_points">0</property>
    <property name="shotcut:caption">Antoine_flute_totoro.mp4</property>
    <property name="shotcut:skipConvert">1</property>
    <property name="global_feed">1</property>
    <property name="xml">was here</property>
    <filter id="filter721" out="00:00:47.240000" in="00:00:31.600000">
      <property name="background">colour:0</property>
      <property name="mlt_service">affine</property>
      <property name="shotcut:filter">affineSizePosition</property>
      <property name="transition.fill">1</property>
      <property name="transition.distort">0</property>
      <property name="transition.rect">00:00:00.000000=1680.0 135.0 242.0 136.0 1;00:00:01.600000=1680.0 270.0 241.0 136.0 1</property>
      <property name="transition.valign">top</property>
      <property name="transition.halign">left</property>
      <property name="shotcut:animIn">00:00:01.640000</property>
      <property name="shotcut:animOut">00:00:00.000</property>
      <property name="transition.threads">0</property>
    </filter>
    <filter id="filter722" out="00:00:47.240000" in="00:00:31.600000">
      <property name="window">75</property>
      <property name="max_gain">20dB</property>
      <property name="mlt_service">volume</property>
      <property name="shotcut:filter">muteVolume</property>
      <property name="gain">0</property>
    </filter>
  </producer>
  <producer id="producer393" title="Anonymous Submission" in="00:00:00.000" out="00:02:59.720">
    <property name="length">00:02:59:19</property>
    <property name="eof">pause</property>
    <property name="resource">../../006 - Videos format youtube/Flutes/Antoine_flute_totoro.mp4</property>
    <property name="audio_index">1</property>
    <property name="video_index">0</property>
    <property name="mute_on_pause">0</property>
    <property name="mlt_service">avformat-novalidate</property>
    <property name="seekable">1</property>
    <property name="aspect_ratio">1</property>
    <property name="creation_time">2020-04-09T18:43:14</property>
    <property name="shotcut:hash">4b5c310c51f982bf236c6a3fad1fff39</property>
    <property name="ignore_points">0</property>
    <property name="shotcut:caption">Antoine_flute_totoro.mp4</property>
    <property name="shotcut:skipConvert">1</property>
    <property name="global_feed">1</property>
    <property name="xml">was here</property>
    <filter id="filter723" out="00:00:55.240000" in="00:00:47.280000">
      <property name="background">colour:0</property>
      <property name="mlt_service">affine</property>
      <property name="shotcut:filter">affineSizePosition</property>
      <property name="transition.fill">1</property>
      <property name="transition.distort">0</property>
      <property name="transition.rect">274.0 771.0 275.0 155.0 1</property>
      <property name="transition.valign">top</property>
      <property name="transition.halign">left</property>
      <property name="shotcut:animIn">00:00:01.640000</property>
      <property name="shotcut:animOut">00:00:00.000</property>
      <property name="transition.threads">0</property>
    </filter>
    <filter id="filter724" out="00:00:55.240000" in="00:00:47.280000">
      <property name="window">75</property>
      <property name="max_gain">20dB</property>
      <property name="mlt_service">volume</property>
      <property name="shotcut:filter">muteVolume</property>
      <property name="gain">0</property>
    </filter>
  </producer>
  <producer id="producer394" title="Anonymous Submission" in="00:00:00.000" out="00:02:59.720">
    <property name="length">00:02:59:19</property>
    <property name="eof">pause</property>
    <property name="resource">../../006 - Videos format youtube/Flutes/Antoine_flute_totoro.mp4</property>
    <property name="audio_index">1</property>
    <property name="video_index">0</property>
    <property name="mute_on_pause">0</property>
    <property name="mlt_service">avformat-novalidate</property>
    <property name="seekable">1</property>
    <property name="aspect_ratio">1</property>
    <property name="creation_time">2020-04-09T18:43:14</property>
    <property name="shotcut:hash">4b5c310c51f982bf236c6a3fad1fff39</property>
    <property name="ignore_points">0</property>
    <property name="shotcut:caption">Antoine_flute_totoro.mp4</property>
    <property name="shotcut:skipConvert">1</property>
    <property name="global_feed">1</property>
    <property name="xml">was here</property>
    <filter id="filter725" out="00:01:03.240000" in="00:00:55.280000">
      <property name="background">colour:0</property>
      <property name="mlt_service">affine</property>
      <property name="shotcut:filter">affineSizePosition</property>
      <property name="transition.fill">1</property>
      <property name="transition.distort">0</property>
      <property name="transition.rect">-1645.0 -617.0 275.0 155.0 1</property>
      <property name="transition.valign">top</property>
      <property name="transition.halign">left</property>
      <property name="shotcut:animIn">00:00:01.640000</property>
      <property name="shotcut:animOut">00:00:00.000</property>
      <property name="transition.threads">0</property>
    </filter>
    <filter id="filter726" out="00:01:03.240000" in="00:00:55.280000">
      <property name="window">75</property>
      <property name="max_gain">20dB</property>
      <property name="mlt_service">volume</property>
      <property name="shotcut:filter">muteVolume</property>
      <property name="gain">0</property>
    </filter>
  </producer>
  <producer id="producer395" title="Anonymous Submission" in="00:00:00.000" out="00:02:59.720">
    <property name="length">00:02:59:19</property>
    <property name="eof">pause</property>
    <property name="resource">../../006 - Videos format youtube/Flutes/Antoine_flute_totoro.mp4</property>
    <property name="audio_index">1</property>
    <property name="video_index">0</property>
    <property name="mute_on_pause">0</property>
    <property name="mlt_service">avformat-novalidate</property>
    <property name="seekable">1</property>
    <property name="aspect_ratio">1</property>
    <property name="creation_time">2020-04-09T18:43:14</property>
    <property name="shotcut:hash">4b5c310c51f982bf236c6a3fad1fff39</property>
    <property name="ignore_points">0</property>
    <property name="shotcut:caption">Antoine_flute_totoro.mp4</property>
    <property name="shotcut:skipConvert">1</property>
    <property name="global_feed">1</property>
    <property name="xml">was here</property>
    <filter id="filter727" out="00:01:10.240000" in="00:01:03.280000">
      <property name="background">colour:0</property>
      <property name="mlt_service">affine</property>
      <property name="shotcut:filter">affineSizePosition</property>
      <property name="transition.fill">1</property>
      <property name="transition.distort">0</property>
      <property name="transition.rect">-960.0 0.0 321.0 181.0 1</property>
      <property name="transition.valign">top</property>
      <property name="transition.halign">left</property>
      <property name="shotcut:animIn">00:00:01.640000</property>
      <property name="shotcut:animOut">00:00:00.000</property>
      <property name="transition.threads">0</property>
    </filter>
    <filter id="filter728" out="00:01:10.240000" in="00:01:03.280000">
      <property name="window">75</property>
      <property name="max_gain">20dB</property>
      <property name="mlt_service">volume</property>
      <property name="shotcut:filter">muteVolume</property>
      <property name="gain">0</property>
    </filter>
  </producer>
  <producer id="producer396" title="Anonymous Submission" in="00:00:00.000" out="00:02:59.720">
    <property name="length">00:02:59:19</property>
    <property name="eof">pause</property>
    <property name="resource">../../006 - Videos format youtube/Flutes/Antoine_flute_totoro.mp4</property>
    <property name="audio_index">1</property>
    <property name="video_index">0</property>
    <property name="mute_on_pause">0</property>
    <property name="mlt_service">avformat-novalidate</property>
    <property name="seekable">1</property>
    <property name="aspect_ratio">1</property>
    <property name="creation_time">2020-04-09T18:43:14</property>
    <property name="shotcut:hash">4b5c310c51f982bf236c6a3fad1fff39</property>
    <property name="ignore_points">0</property>
    <property name="shotcut:caption">Antoine_flute_totoro.mp4</property>
    <property name="shotcut:skipConvert">1</property>
    <property name="global_feed">1</property>
    <property name="xml">was here</property>
    <filter id="filter729" out="00:01:18.240000" in="00:01:10.280000">
      <property name="background">colour:0</property>
      <property name="mlt_service">affine</property>
      <property name="shotcut:filter">affineSizePosition</property>
      <property name="transition.fill">1</property>
      <property name="transition.distort">0</property>
      <property name="transition.rect">960.0 540.0 321.0 181.0 1</property>
      <property name="transition.valign">top</property>
      <property name="transition.halign">left</property>
      <property name="shotcut:animIn">00:00:01.640000</property>
      <property name="shotcut:animOut">00:00:00.000</property>
      <property name="transition.threads">0</property>
    </filter>
    <filter id="filter730" out="00:01:18.240000" in="00:01:10.280000">
      <property name="window">75</property>
      <property name="max_gain">20dB</property>
      <property name="mlt_service">volume</property>
      <property name="shotcut:filter">muteVolume</property>
      <property name="gain">0</property>
    </filter>
  </producer>
  <producer id="producer397" title="Anonymous Submission" in="00:00:00.000" out="00:02:59.720">
    <property name="length">00:02:59:19</property>
    <property name="eof">pause</property>
    <property name="resource">../../006 - Videos format youtube/Flutes/Antoine_flute_totoro.mp4</property>
    <property name="audio_index">1</property>
    <property name="video_index">0</property>
    <property name="mute_on_pause">0</property>
    <property name="mlt_service">avformat-novalidate</property>
    <property name="seekable">1</property>
    <property name="aspect_ratio">1</property>
    <property name="creation_time">2020-04-09T18:43:14</property>
    <property name="shotcut:hash">4b5c310c51f982bf236c6a3fad1fff39</property>
    <property name="ignore_points">0</property>
    <property name="shotcut:caption">Antoine_flute_totoro.mp4</property>
    <property name="shotcut:skipConvert">1</property>
    <property name="global_feed">1</property>
    <property name="xml">was here</property>
    <filter id="filter731" out="00:01:27.240000" in="00:01:18.280000">
      <property name="background">colour:0</property>
      <property name="mlt_service">affine</property>
      <property name="shotcut:filter">affineSizePosition</property>
      <property name="transition.fill">1</property>
      <property name="transition.distort">0</property>
      <property name="transition.rect">548.0 308.0 275.0 155.0 1</property>
      <property name="transition.valign">top</property>
      <property name="transition.halign">left</property>
      <property name="shotcut:animIn">00:00:01.640000</property>
      <property name="shotcut:animOut">00:00:00.000</property>
      <property name="transition.threads">0</property>
    </filter>
    <filter id="filter732" out="00:01:27.240000" in="00:01:18.280000">
      <property name="window">75</property>
      <property name="max_gain">20dB</property>
      <property name="mlt_service">volume</property>
      <property name="shotcut:filter">muteVolume</property>
      <property name="gain">0</property>
    </filter>
  </producer>
  <producer id="producer398" title="Anonymous Submission" in="00:00:00.000" out="00:02:59.720">
    <property name="length">00:02:59:19</property>
    <property name="eof">pause</property>
    <property name="resource">../../006 - Videos format youtube/Flutes/Antoine_flute_totoro.mp4</property>
    <property name="audio_index">1</property>
    <property name="video_index">0</property>
    <property name="mute_on_pause">0</property>
    <property name="mlt_service">avformat-novalidate</property>
    <property name="seekable">1</property>
    <property name="aspect_ratio">1</property>
    <property name="creation_time">2020-04-09T18:43:14</property>
    <property name="shotcut:hash">4b5c310c51f982bf236c6a3fad1fff39</property>
    <property name="ignore_points">0</property>
    <property name="shotcut:caption">Antoine_flute_totoro.mp4</property>
    <property name="shotcut:skipConvert">1</property>
    <property name="global_feed">1</property>
    <property name="xml">was here</property>
    <filter id="filter733" out="00:01:34.240000" in="00:01:27.280000">
      <property name="background">colour:0</property>
      <property name="mlt_service">affine</property>
      <property name="shotcut:filter">affineSizePosition</property>
      <property name="transition.fill">1</property>
      <property name="transition.distort">0</property>
      <property name="transition.rect">274.0 771.0 275.0 155.0 1</property>
      <property name="transition.valign">top</property>
      <property name="transition.halign">left</property>
      <property name="shotcut:animIn">00:00:01.640000</property>
      <property name="shotcut:animOut">00:00:00.000</property>
      <property name="transition.threads">0</property>
    </filter>
    <filter id="filter734" out="00:01:34.240000" in="00:01:27.280000">
      <property name="window">75</property>
      <property name="max_gain">20dB</property>
      <property name="mlt_service">volume</property>
      <property name="shotcut:filter">muteVolume</property>
      <property name="gain">0</property>
    </filter>
  </producer>
  <producer id="producer399" title="Anonymous Submission" in="00:00:00.000" out="00:02:59.720">
    <property name="length">00:02:59:19</property>
    <property name="eof">pause</property>
    <property name="resource">../../006 - Videos format youtube/Flutes/Antoine_flute_totoro.mp4</property>
    <property name="audio_index">1</property>
    <property name="video_index">0</property>
    <property name="mute_on_pause">0</property>
    <property name="mlt_service">avformat-novalidate</property>
    <property name="seekable">1</property>
    <property name="aspect_ratio">1</property>
    <property name="creation_time">2020-04-09T18:43:14</property>
    <property name="shotcut:hash">4b5c310c51f982bf236c6a3fad1fff39</property>
    <property name="ignore_points">0</property>
    <property name="shotcut:caption">Antoine_flute_totoro.mp4</property>
    <property name="shotcut:skipConvert">1</property>
    <property name="global_feed">1</property>
    <property name="xml">was here</property>
    <filter id="filter735" out="00:02:59.720000" in="00:01:34.280000">
      <property name="background">colour:0</property>
      <property name="mlt_service">affine</property>
      <property name="shotcut:filter">affineSizePosition</property>
      <property name="transition.fill">1</property>
      <property name="transition.distort">0</property>
      <property name="transition.rect">-640.0 -360.0 321.0 181.0 1</property>
      <property name="transition.valign">top</property>
      <property name="transition.halign">left</property>
      <property name="shotcut:animIn">00:00:01.640000</property>
      <property name="shotcut:animOut">00:00:00.000</property>
      <property name="transition.threads">0</property>
    </filter>
    <filter id="filter736" out="00:02:59.720000" in="00:01:34.280000">
      <property name="window">75</property>
      <property name="max_gain">20dB</property>
      <property name="mlt_service">volume</property>
      <property name="shotcut:filter">muteVolume</property>
      <property name="gain">0</property>
    </filter>
  </producer>
  <playlist id="playlist22">
    <property name="shotcut:video">1</property>
    <property name="shotcut:name">Antoine_flute1</property>
    <property name="shotcut:lock">1</property>
    <blank length="00:00:16.720" />
    <entry producer="producer379" in="00:00:00.000" out="00:00:06.240000" />
    <entry producer="producer380" in="00:00:06.280000" out="00:00:13.240000" />
    <entry producer="producer381" in="00:00:13.280000" out="00:00:14.880000" />
    <entry producer="producer382" in="00:00:14.920000" out="00:00:16.560000" />
    <entry producer="producer383" in="00:00:16.600000" out="00:00:18.240000" />
    <entry producer="producer384" in="00:00:18.280000" out="00:00:19.880000" />
    <entry producer="producer385" in="00:00:19.920000" out="00:00:21.560000" />
    <entry producer="producer386" in="00:00:21.600000" out="00:00:23.240000" />
    <entry producer="producer387" in="00:00:23.280000" out="00:00:24.880000" />
    <entry producer="producer388" in="00:00:24.920000" out="00:00:26.560000" />
    <entry producer="producer389" in="00:00:26.600000" out="00:00:28.240000" />
    <entry producer="producer390" in="00:00:28.280000" out="00:00:29.880000" />
    <entry producer="producer391" in="00:00:29.920000" out="00:00:31.560000" />
    <entry producer="producer392" in="00:00:31.600000" out="00:00:47.240000" />
    <entry producer="producer393" in="00:00:47.280000" out="00:00:55.240000" />
    <entry producer="producer394" in="00:00:55.280000" out="00:01:03.240000" />
    <entry producer="producer395" in="00:01:03.280000" out="00:01:10.240000" />
    <entry producer="producer396" in="00:01:10.280000" out="00:01:18.240000" />
    <entry producer="producer397" in="00:01:18.280000" out="00:01:27.240000" />
    <entry producer="producer398" in="00:01:27.280000" out="00:01:34.240000" />
    <entry producer="producer399" in="00:01:34.280000" out="00:02:59.720000" />
    <filter id="filter737" out="00:03:35.640">
      <property name="window">75</property>
      <property name="max_gain">20dB</property>
      <property name="level">-12</property>
      <property name="mlt_service">volume</property>
    </filter>
  </playlist>
  <producer id="producer400" title="Anonymous Submission" in="00:00:00.000" out="00:03:35.640">
    <property name="length">00:03:35:17</property>
    <property name="eof">pause</property>
    <property name="resource">../../006 - Videos format youtube/Flutes/Gwenn_flute_totoro_recadre.mp4</property>
    <property name="audio_index">1</property>
    <property name="video_index">0</property>
    <property name="mute_on_pause">0</property>
    <property name="mlt_service">avformat-novalidate</property>
    <property name="seekable">1</property>
    <property name="aspect_ratio">1</property>
    <property name="creation_time">2020-04-30T15:27:42</property>
    <property name="shotcut:hash">100c5d626d0e8201453c2f0a20325b08</property>
    <property name="ignore_points">0</property>
    <property name="shotcut:caption">Gwenn_flute_totoro_recadre.mp4</property>
    <property name="shotcut:skipConvert">1</property>
    <property name="global_feed">1</property>
    <property name="xml">was here</property>
    <filter id="filter738" out="00:00:22.960000">
      <property name="background">colour:0</property>
      <property name="mlt_service">affine</property>
      <property name="shotcut:filter">affineSizePosition</property>
      <property name="transition.fill">1</property>
      <property name="transition.distort">0</property>
      <property name="transition.rect">274.0 154.0 275.0 155.0 1</property>
      <property name="transition.valign">top</property>
      <property name="transition.halign">left</property>
      <property name="shotcut:animIn">00:00:00.000</property>
      <property name="shotcut:animOut">00:00:00.000</property>
      <property name="transition.threads">0</property>
    </filter>
  </producer>
  <producer id="producer401" title="Anonymous Submission" in="00:00:00.000" out="00:03:35.640">
    <property name="length">00:03:35:17</property>
    <property name="eof">pause</property>
    <property name="resource">../../006 - Videos format youtube/Flutes/Gwenn_flute_totoro_recadre.mp4</property>
    <property name="audio_index">1</property>
    <property name="video_index">0</property>
    <property name="mute_on_pause">0</property>
    <property name="mlt_service">avformat-novalidate</property>
    <property name="seekable">1</property>
    <property name="aspect_ratio">1</property>
    <property name="creation_time">2020-04-30T15:27:42</property>
    <property name="shotcut:hash">100c5d626d0e8201453c2f0a20325b08</property>
    <property name="ignore_points">0</property>
    <property name="shotcut:caption">Gwenn_flute_totoro_recadre.mp4</property>
    <property name="shotcut:skipConvert">1</property>
    <property name="global_feed">1</property>
    <property name="xml">was here</property>
    <filter id="filter739" out="00:00:29.960000" in="00:00:23.000000">
      <property name="background">colour:0</property>
      <property name="mlt_service">affine</property>
      <property name="shotcut:filter">affineSizePosition</property>
      <property name="transition.fill">1</property>
      <property name="transition.distort">0</property>
      <property name="transition.rect">00:00:00.000000=274.0 154.0 276.0 155.0 1;00:00:00.440000=0.0 925.0 275.0 155.0 1</property>
      <property name="transition.valign">top</property>
      <property name="transition.halign">left</property>
      <property name="shotcut:animIn">00:00:00.480000</property>
      <property name="shotcut:animOut">00:00:00.000</property>
      <property name="transition.threads">0</property>
    </filter>
  </producer>
  <producer id="producer402" title="Anonymous Submission" in="00:00:00.000" out="00:03:35.640">
    <property name="length">00:03:35:17</property>
    <property name="eof">pause</property>
    <property name="resource">../../006 - Videos format youtube/Flutes/Gwenn_flute_totoro_recadre.mp4</property>
    <property name="audio_index">1</property>
    <property name="video_index">0</property>
    <property name="mute_on_pause">0</property>
    <property name="mlt_service">avformat-novalidate</property>
    <property name="seekable">1</property>
    <property name="aspect_ratio">1</property>
    <property name="creation_time">2020-04-30T15:27:42</property>
    <property name="shotcut:hash">100c5d626d0e8201453c2f0a20325b08</property>
    <property name="ignore_points">0</property>
    <property name="shotcut:caption">Gwenn_flute_totoro_recadre.mp4</property>
    <property name="shotcut:skipConvert">1</property>
    <property name="global_feed">1</property>
    <property name="xml">was here</property>
    <filter id="filter740" out="00:00:31.600000" in="00:00:30.000000">
      <property name="background">colour:0</property>
      <property name="mlt_service">affine</property>
      <property name="shotcut:filter">affineSizePosition</property>
      <property name="transition.fill">1</property>
      <property name="transition.distort">0</property>
      <property name="transition.rect">00:00:00.000000=1680.0 540.0 242.0 136.0 1;00:00:01.600000=1680.0 675.0 241.0 136.0 1</property>
      <property name="transition.valign">top</property>
      <property name="transition.halign">left</property>
      <property name="shotcut:animIn">00:00:01.640000</property>
      <property name="shotcut:animOut">00:00:00.000</property>
      <property name="transition.threads">0</property>
    </filter>
  </producer>
  <producer id="producer403" title="Anonymous Submission" in="00:00:00.000" out="00:03:35.640">
    <property name="length">00:03:35:17</property>
    <property name="eof">pause</property>
    <property name="resource">../../006 - Videos format youtube/Flutes/Gwenn_flute_totoro_recadre.mp4</property>
    <property name="audio_index">1</property>
    <property name="video_index">0</property>
    <property name="mute_on_pause">0</property>
    <property name="mlt_service">avformat-novalidate</property>
    <property name="seekable">1</property>
    <property name="aspect_ratio">1</property>
    <property name="creation_time">2020-04-30T15:27:42</property>
    <property name="shotcut:hash">100c5d626d0e8201453c2f0a20325b08</property>
    <property name="ignore_points">0</property>
    <property name="shotcut:caption">Gwenn_flute_totoro_recadre.mp4</property>
    <property name="shotcut:skipConvert">1</property>
    <property name="global_feed">1</property>
    <property name="xml">was here</property>
    <filter id="filter741" out="00:00:33.280000" in="00:00:31.640000">
      <property name="background">colour:0</property>
      <property name="mlt_service">affine</property>
      <property name="shotcut:filter">affineSizePosition</property>
      <property name="transition.fill">1</property>
      <property name="transition.distort">0</property>
      <property name="transition.rect">00:00:00.000000=1680.0 675.0 242.0 136.0 1;00:00:01.600000=1680.0 810.0 241.0 136.0 1</property>
      <property name="transition.valign">top</property>
      <property name="transition.halign">left</property>
      <property name="shotcut:animIn">00:00:01.640000</property>
      <property name="shotcut:animOut">00:00:00.000</property>
      <property name="transition.threads">0</property>
    </filter>
  </producer>
  <producer id="producer404" title="Anonymous Submission" in="00:00:00.000" out="00:03:35.640">
    <property name="length">00:03:35:17</property>
    <property name="eof">pause</property>
    <property name="resource">../../006 - Videos format youtube/Flutes/Gwenn_flute_totoro_recadre.mp4</property>
    <property name="audio_index">1</property>
    <property name="video_index">0</property>
    <property name="mute_on_pause">0</property>
    <property name="mlt_service">avformat-novalidate</property>
    <property name="seekable">1</property>
    <property name="aspect_ratio">1</property>
    <property name="creation_time">2020-04-30T15:27:42</property>
    <property name="shotcut:hash">100c5d626d0e8201453c2f0a20325b08</property>
    <property name="ignore_points">0</property>
    <property name="shotcut:caption">Gwenn_flute_totoro_recadre.mp4</property>
    <property name="shotcut:skipConvert">1</property>
    <property name="global_feed">1</property>
    <property name="xml">was here</property>
    <filter id="filter742" out="00:00:34.960000" in="00:00:33.320000">
      <property name="background">colour:0</property>
      <property name="mlt_service">affine</property>
      <property name="shotcut:filter">affineSizePosition</property>
      <property name="transition.fill">1</property>
      <property name="transition.distort">0</property>
      <property name="transition.rect">00:00:00.000000=1680.0 810.0 242.0 136.0 1;00:00:01.600000=1680.0 945.0 241.0 136.0 1</property>
      <property name="transition.valign">top</property>
      <property name="transition.halign">left</property>
      <property name="shotcut:animIn">00:00:01.640000</property>
      <property name="shotcut:animOut">00:00:00.000</property>
      <property name="transition.threads">0</property>
    </filter>
  </producer>
  <producer id="producer405" title="Anonymous Submission" in="00:00:00.000" out="00:03:35.640">
    <property name="length">00:03:35:17</property>
    <property name="eof">pause</property>
    <property name="resource">../../006 - Videos format youtube/Flutes/Gwenn_flute_totoro_recadre.mp4</property>
    <property name="audio_index">1</property>
    <property name="video_index">0</property>
    <property name="mute_on_pause">0</property>
    <property name="mlt_service">avformat-novalidate</property>
    <property name="seekable">1</property>
    <property name="aspect_ratio">1</property>
    <property name="creation_time">2020-04-30T15:27:42</property>
    <property name="shotcut:hash">100c5d626d0e8201453c2f0a20325b08</property>
    <property name="ignore_points">0</property>
    <property name="shotcut:caption">Gwenn_flute_totoro_recadre.mp4</property>
    <property name="shotcut:skipConvert">1</property>
    <property name="global_feed">1</property>
    <property name="xml">was here</property>
    <filter id="filter743" out="00:00:36.600000" in="00:00:35.000000">
      <property name="background">colour:0</property>
      <property name="mlt_service">affine</property>
      <property name="shotcut:filter">affineSizePosition</property>
      <property name="transition.fill">1</property>
      <property name="transition.distort">0</property>
      <property name="transition.rect">00:00:00.000000=1680.0 135.0 242.0 136.0 1;00:00:01.600000=1680.0 270.0 241.0 136.0 1</property>
      <property name="transition.valign">top</property>
      <property name="transition.halign">left</property>
      <property name="shotcut:animIn">00:00:01.640000</property>
      <property name="shotcut:animOut">00:00:00.000</property>
      <property name="transition.threads">0</property>
    </filter>
  </producer>
  <producer id="producer406" title="Anonymous Submission" in="00:00:00.000" out="00:03:35.640">
    <property name="length">00:03:35:17</property>
    <property name="eof">pause</property>
    <property name="resource">../../006 - Videos format youtube/Flutes/Gwenn_flute_totoro_recadre.mp4</property>
    <property name="audio_index">1</property>
    <property name="video_index">0</property>
    <property name="mute_on_pause">0</property>
    <property name="mlt_service">avformat-novalidate</property>
    <property name="seekable">1</property>
    <property name="aspect_ratio">1</property>
    <property name="creation_time">2020-04-30T15:27:42</property>
    <property name="shotcut:hash">100c5d626d0e8201453c2f0a20325b08</property>
    <property name="ignore_points">0</property>
    <property name="shotcut:caption">Gwenn_flute_totoro_recadre.mp4</property>
    <property name="shotcut:skipConvert">1</property>
    <property name="global_feed">1</property>
    <property name="xml">was here</property>
    <filter id="filter744" out="00:00:38.280000" in="00:00:36.640000">
      <property name="background">colour:0</property>
      <property name="mlt_service">affine</property>
      <property name="shotcut:filter">affineSizePosition</property>
      <property name="transition.fill">1</property>
      <property name="transition.distort">0</property>
      <property name="transition.rect">00:00:00.000000=1680.0 270.0 242.0 136.0 1;00:00:01.600000=1680.0 405.0 241.0 136.0 1</property>
      <property name="transition.valign">top</property>
      <property name="transition.halign">left</property>
      <property name="shotcut:animIn">00:00:01.640000</property>
      <property name="shotcut:animOut">00:00:00.000</property>
      <property name="transition.threads">0</property>
    </filter>
  </producer>
  <producer id="producer407" title="Anonymous Submission" in="00:00:00.000" out="00:03:35.640">
    <property name="length">00:03:35:17</property>
    <property name="eof">pause</property>
    <property name="resource">../../006 - Videos format youtube/Flutes/Gwenn_flute_totoro_recadre.mp4</property>
    <property name="audio_index">1</property>
    <property name="video_index">0</property>
    <property name="mute_on_pause">0</property>
    <property name="mlt_service">avformat-novalidate</property>
    <property name="seekable">1</property>
    <property name="aspect_ratio">1</property>
    <property name="creation_time">2020-04-30T15:27:42</property>
    <property name="shotcut:hash">100c5d626d0e8201453c2f0a20325b08</property>
    <property name="ignore_points">0</property>
    <property name="shotcut:caption">Gwenn_flute_totoro_recadre.mp4</property>
    <property name="shotcut:skipConvert">1</property>
    <property name="global_feed">1</property>
    <property name="xml">was here</property>
    <filter id="filter745" out="00:00:39.960000" in="00:00:38.320000">
      <property name="background">colour:0</property>
      <property name="mlt_service">affine</property>
      <property name="shotcut:filter">affineSizePosition</property>
      <property name="transition.fill">1</property>
      <property name="transition.distort">0</property>
      <property name="transition.rect">00:00:00.000000=1680.0 405.0 242.0 136.0 1;00:00:01.600000=1680.0 540.0 241.0 136.0 1</property>
      <property name="transition.valign">top</property>
      <property name="transition.halign">left</property>
      <property name="shotcut:animIn">00:00:01.640000</property>
      <property name="shotcut:animOut">00:00:00.000</property>
      <property name="transition.threads">0</property>
    </filter>
  </producer>
  <producer id="producer408" title="Anonymous Submission" in="00:00:00.000" out="00:03:35.640">
    <property name="length">00:03:35:17</property>
    <property name="eof">pause</property>
    <property name="resource">../../006 - Videos format youtube/Flutes/Gwenn_flute_totoro_recadre.mp4</property>
    <property name="audio_index">1</property>
    <property name="video_index">0</property>
    <property name="mute_on_pause">0</property>
    <property name="mlt_service">avformat-novalidate</property>
    <property name="seekable">1</property>
    <property name="aspect_ratio">1</property>
    <property name="creation_time">2020-04-30T15:27:42</property>
    <property name="shotcut:hash">100c5d626d0e8201453c2f0a20325b08</property>
    <property name="ignore_points">0</property>
    <property name="shotcut:caption">Gwenn_flute_totoro_recadre.mp4</property>
    <property name="shotcut:skipConvert">1</property>
    <property name="global_feed">1</property>
    <property name="xml">was here</property>
    <filter id="filter746" out="00:00:41.600000" in="00:00:40.000000">
      <property name="background">colour:0</property>
      <property name="mlt_service">affine</property>
      <property name="shotcut:filter">affineSizePosition</property>
      <property name="transition.fill">1</property>
      <property name="transition.distort">0</property>
      <property name="transition.rect">00:00:00.000000=1680.0 540.0 242.0 136.0 1;00:00:01.600000=1680.0 675.0 241.0 136.0 1</property>
      <property name="transition.valign">top</property>
      <property name="transition.halign">left</property>
      <property name="shotcut:animIn">00:00:01.640000</property>
      <property name="shotcut:animOut">00:00:00.000</property>
      <property name="transition.threads">0</property>
    </filter>
  </producer>
  <producer id="producer409" title="Anonymous Submission" in="00:00:00.000" out="00:03:35.640">
    <property name="length">00:03:35:17</property>
    <property name="eof">pause</property>
    <property name="resource">../../006 - Videos format youtube/Flutes/Gwenn_flute_totoro_recadre.mp4</property>
    <property name="audio_index">1</property>
    <property name="video_index">0</property>
    <property name="mute_on_pause">0</property>
    <property name="mlt_service">avformat-novalidate</property>
    <property name="seekable">1</property>
    <property name="aspect_ratio">1</property>
    <property name="creation_time">2020-04-30T15:27:42</property>
    <property name="shotcut:hash">100c5d626d0e8201453c2f0a20325b08</property>
    <property name="ignore_points">0</property>
    <property name="shotcut:caption">Gwenn_flute_totoro_recadre.mp4</property>
    <property name="shotcut:skipConvert">1</property>
    <property name="global_feed">1</property>
    <property name="xml">was here</property>
    <filter id="filter747" out="00:00:43.280000" in="00:00:41.640000">
      <property name="background">colour:0</property>
      <property name="mlt_service">affine</property>
      <property name="shotcut:filter">affineSizePosition</property>
      <property name="transition.fill">1</property>
      <property name="transition.distort">0</property>
      <property name="transition.rect">00:00:00.000000=1680.0 675.0 242.0 136.0 1;00:00:01.600000=1680.0 810.0 241.0 136.0 1</property>
      <property name="transition.valign">top</property>
      <property name="transition.halign">left</property>
      <property name="shotcut:animIn">00:00:01.640000</property>
      <property name="shotcut:animOut">00:00:00.000</property>
      <property name="transition.threads">0</property>
    </filter>
  </producer>
  <producer id="producer410" title="Anonymous Submission" in="00:00:00.000" out="00:03:35.640">
    <property name="length">00:03:35:17</property>
    <property name="eof">pause</property>
    <property name="resource">../../006 - Videos format youtube/Flutes/Gwenn_flute_totoro_recadre.mp4</property>
    <property name="audio_index">1</property>
    <property name="video_index">0</property>
    <property name="mute_on_pause">0</property>
    <property name="mlt_service">avformat-novalidate</property>
    <property name="seekable">1</property>
    <property name="aspect_ratio">1</property>
    <property name="creation_time">2020-04-30T15:27:42</property>
    <property name="shotcut:hash">100c5d626d0e8201453c2f0a20325b08</property>
    <property name="ignore_points">0</property>
    <property name="shotcut:caption">Gwenn_flute_totoro_recadre.mp4</property>
    <property name="shotcut:skipConvert">1</property>
    <property name="global_feed">1</property>
    <property name="xml">was here</property>
    <filter id="filter748" out="00:00:44.960000" in="00:00:43.320000">
      <property name="background">colour:0</property>
      <property name="mlt_service">affine</property>
      <property name="shotcut:filter">affineSizePosition</property>
      <property name="transition.fill">1</property>
      <property name="transition.distort">0</property>
      <property name="transition.rect">00:00:00.000000=1680.0 810.0 242.0 136.0 1;00:00:01.600000=1680.0 945.0 241.0 136.0 1</property>
      <property name="transition.valign">top</property>
      <property name="transition.halign">left</property>
      <property name="shotcut:animIn">00:00:01.640000</property>
      <property name="shotcut:animOut">00:00:00.000</property>
      <property name="transition.threads">0</property>
    </filter>
  </producer>
  <producer id="producer411" title="Anonymous Submission" in="00:00:00.000" out="00:03:35.640">
    <property name="length">00:03:35:17</property>
    <property name="eof">pause</property>
    <property name="resource">../../006 - Videos format youtube/Flutes/Gwenn_flute_totoro_recadre.mp4</property>
    <property name="audio_index">1</property>
    <property name="video_index">0</property>
    <property name="mute_on_pause">0</property>
    <property name="mlt_service">avformat-novalidate</property>
    <property name="seekable">1</property>
    <property name="aspect_ratio">1</property>
    <property name="creation_time">2020-04-30T15:27:42</property>
    <property name="shotcut:hash">100c5d626d0e8201453c2f0a20325b08</property>
    <property name="ignore_points">0</property>
    <property name="shotcut:caption">Gwenn_flute_totoro_recadre.mp4</property>
    <property name="shotcut:skipConvert">1</property>
    <property name="global_feed">1</property>
    <property name="xml">was here</property>
    <filter id="filter749" out="00:00:46.600000" in="00:00:45.000000">
      <property name="background">colour:0</property>
      <property name="mlt_service">affine</property>
      <property name="shotcut:filter">affineSizePosition</property>
      <property name="transition.fill">1</property>
      <property name="transition.distort">0</property>
      <property name="transition.rect">00:00:00.000000=1680.0 135.0 242.0 136.0 1;00:00:01.600000=1680.0 270.0 241.0 136.0 1</property>
      <property name="transition.valign">top</property>
      <property name="transition.halign">left</property>
      <property name="shotcut:animIn">00:00:01.640000</property>
      <property name="shotcut:animOut">00:00:00.000</property>
      <property name="transition.threads">0</property>
    </filter>
  </producer>
  <producer id="producer412" title="Anonymous Submission" in="00:00:00.000" out="00:03:35.640">
    <property name="length">00:03:35:17</property>
    <property name="eof">pause</property>
    <property name="resource">../../006 - Videos format youtube/Flutes/Gwenn_flute_totoro_recadre.mp4</property>
    <property name="audio_index">1</property>
    <property name="video_index">0</property>
    <property name="mute_on_pause">0</property>
    <property name="mlt_service">avformat-novalidate</property>
    <property name="seekable">1</property>
    <property name="aspect_ratio">1</property>
    <property name="creation_time">2020-04-30T15:27:42</property>
    <property name="shotcut:hash">100c5d626d0e8201453c2f0a20325b08</property>
    <property name="ignore_points">0</property>
    <property name="shotcut:caption">Gwenn_flute_totoro_recadre.mp4</property>
    <property name="shotcut:skipConvert">1</property>
    <property name="global_feed">1</property>
    <property name="xml">was here</property>
    <filter id="filter750" out="00:00:48.280000" in="00:00:46.640000">
      <property name="background">colour:0</property>
      <property name="mlt_service">affine</property>
      <property name="shotcut:filter">affineSizePosition</property>
      <property name="transition.fill">1</property>
      <property name="transition.distort">0</property>
      <property name="transition.rect">00:00:00.000000=1680.0 270.0 242.0 136.0 1;00:00:01.600000=1680.0 405.0 241.0 136.0 1</property>
      <property name="transition.valign">top</property>
      <property name="transition.halign">left</property>
      <property name="shotcut:animIn">00:00:01.640000</property>
      <property name="shotcut:animOut">00:00:00.000</property>
      <property name="transition.threads">0</property>
    </filter>
  </producer>
  <producer id="producer413" title="Anonymous Submission" in="00:00:00.000" out="00:03:35.640">
    <property name="length">00:03:35:17</property>
    <property name="eof">pause</property>
    <property name="resource">../../006 - Videos format youtube/Flutes/Gwenn_flute_totoro_recadre.mp4</property>
    <property name="audio_index">1</property>
    <property name="video_index">0</property>
    <property name="mute_on_pause">0</property>
    <property name="mlt_service">avformat-novalidate</property>
    <property name="seekable">1</property>
    <property name="aspect_ratio">1</property>
    <property name="creation_time">2020-04-30T15:27:42</property>
    <property name="shotcut:hash">100c5d626d0e8201453c2f0a20325b08</property>
    <property name="ignore_points">0</property>
    <property name="shotcut:caption">Gwenn_flute_totoro_recadre.mp4</property>
    <property name="shotcut:skipConvert">1</property>
    <property name="global_feed">1</property>
    <property name="xml">was here</property>
    <filter id="filter751" out="00:01:03.960000" in="00:00:48.320000">
      <property name="background">colour:0</property>
      <property name="mlt_service">affine</property>
      <property name="shotcut:filter">affineSizePosition</property>
      <property name="transition.fill">1</property>
      <property name="transition.distort">0</property>
      <property name="transition.rect">00:00:00.000000=1680.0 405.0 242.0 136.0 1;00:00:01.600000=1680.0 540.0 241.0 136.0 1</property>
      <property name="transition.valign">top</property>
      <property name="transition.halign">left</property>
      <property name="shotcut:animIn">00:00:01.640000</property>
      <property name="shotcut:animOut">00:00:00.000</property>
      <property name="transition.threads">0</property>
    </filter>
  </producer>
  <producer id="producer414" title="Anonymous Submission" in="00:00:00.000" out="00:03:35.640">
    <property name="length">00:03:35:17</property>
    <property name="eof">pause</property>
    <property name="resource">../../006 - Videos format youtube/Flutes/Gwenn_flute_totoro_recadre.mp4</property>
    <property name="audio_index">1</property>
    <property name="video_index">0</property>
    <property name="mute_on_pause">0</property>
    <property name="mlt_service">avformat-novalidate</property>
    <property name="seekable">1</property>
    <property name="aspect_ratio">1</property>
    <property name="creation_time">2020-04-30T15:27:42</property>
    <property name="shotcut:hash">100c5d626d0e8201453c2f0a20325b08</property>
    <property name="ignore_points">0</property>
    <property name="shotcut:caption">Gwenn_flute_totoro_recadre.mp4</property>
    <property name="shotcut:skipConvert">1</property>
    <property name="global_feed">1</property>
    <property name="xml">was here</property>
    <filter id="filter752" out="00:01:11.960000" in="00:01:04.000000">
      <property name="background">colour:0</property>
      <property name="mlt_service">affine</property>
      <property name="shotcut:filter">affineSizePosition</property>
      <property name="transition.fill">1</property>
      <property name="transition.distort">0</property>
      <property name="transition.rect">-1371.0 -308.0 275.0 155.0 1</property>
      <property name="transition.valign">top</property>
      <property name="transition.halign">left</property>
      <property name="shotcut:animIn">00:00:01.640000</property>
      <property name="shotcut:animOut">00:00:00.000</property>
      <property name="transition.threads">0</property>
    </filter>
  </producer>
  <producer id="producer415" title="Anonymous Submission" in="00:00:00.000" out="00:03:35.640">
    <property name="length">00:03:35:17</property>
    <property name="eof">pause</property>
    <property name="resource">../../006 - Videos format youtube/Flutes/Gwenn_flute_totoro_recadre.mp4</property>
    <property name="audio_index">1</property>
    <property name="video_index">0</property>
    <property name="mute_on_pause">0</property>
    <property name="mlt_service">avformat-novalidate</property>
    <property name="seekable">1</property>
    <property name="aspect_ratio">1</property>
    <property name="creation_time">2020-04-30T15:27:42</property>
    <property name="shotcut:hash">100c5d626d0e8201453c2f0a20325b08</property>
    <property name="ignore_points">0</property>
    <property name="shotcut:caption">Gwenn_flute_totoro_recadre.mp4</property>
    <property name="shotcut:skipConvert">1</property>
    <property name="global_feed">1</property>
    <property name="xml">was here</property>
    <filter id="filter753" out="00:01:19.960000" in="00:01:12.000000">
      <property name="background">colour:0</property>
      <property name="mlt_service">affine</property>
      <property name="shotcut:filter">affineSizePosition</property>
      <property name="transition.fill">1</property>
      <property name="transition.distort">0</property>
      <property name="transition.rect">0.0 925.0 275.0 155.0 1</property>
      <property name="transition.valign">top</property>
      <property name="transition.halign">left</property>
      <property name="shotcut:animIn">00:00:01.640000</property>
      <property name="shotcut:animOut">00:00:00.000</property>
      <property name="transition.threads">0</property>
    </filter>
  </producer>
  <producer id="producer416" title="Anonymous Submission" in="00:00:00.000" out="00:03:35.640">
    <property name="length">00:03:35:17</property>
    <property name="eof">pause</property>
    <property name="resource">../../006 - Videos format youtube/Flutes/Gwenn_flute_totoro_recadre.mp4</property>
    <property name="audio_index">1</property>
    <property name="video_index">0</property>
    <property name="mute_on_pause">0</property>
    <property name="mlt_service">avformat-novalidate</property>
    <property name="seekable">1</property>
    <property name="aspect_ratio">1</property>
    <property name="creation_time">2020-04-30T15:27:42</property>
    <property name="shotcut:hash">100c5d626d0e8201453c2f0a20325b08</property>
    <property name="ignore_points">0</property>
    <property name="shotcut:caption">Gwenn_flute_totoro_recadre.mp4</property>
    <property name="shotcut:skipConvert">1</property>
    <property name="global_feed">1</property>
    <property name="xml">was here</property>
    <filter id="filter754" out="00:01:26.960000" in="00:01:20.000000">
      <property name="background">colour:0</property>
      <property name="mlt_service">affine</property>
      <property name="shotcut:filter">affineSizePosition</property>
      <property name="transition.fill">1</property>
      <property name="transition.distort">0</property>
      <property name="transition.rect">3360.0 0.0 321.0 181.0 1</property>
      <property name="transition.valign">top</property>
      <property name="transition.halign">left</property>
      <property name="shotcut:animIn">00:00:01.640000</property>
      <property name="shotcut:animOut">00:00:00.000</property>
      <property name="transition.threads">0</property>
    </filter>
  </producer>
  <producer id="producer417" title="Anonymous Submission" in="00:00:00.000" out="00:03:35.640">
    <property name="length">00:03:35:17</property>
    <property name="eof">pause</property>
    <property name="resource">../../006 - Videos format youtube/Flutes/Gwenn_flute_totoro_recadre.mp4</property>
    <property name="audio_index">1</property>
    <property name="video_index">0</property>
    <property name="mute_on_pause">0</property>
    <property name="mlt_service">avformat-novalidate</property>
    <property name="seekable">1</property>
    <property name="aspect_ratio">1</property>
    <property name="creation_time">2020-04-30T15:27:42</property>
    <property name="shotcut:hash">100c5d626d0e8201453c2f0a20325b08</property>
    <property name="ignore_points">0</property>
    <property name="shotcut:caption">Gwenn_flute_totoro_recadre.mp4</property>
    <property name="shotcut:skipConvert">1</property>
    <property name="global_feed">1</property>
    <property name="xml">was here</property>
    <filter id="filter755" out="00:01:34.960000" in="00:01:27.000000">
      <property name="background">colour:0</property>
      <property name="mlt_service">affine</property>
      <property name="shotcut:filter">affineSizePosition</property>
      <property name="transition.fill">1</property>
      <property name="transition.distort">0</property>
      <property name="transition.rect">960.0 0.0 961.0 541.0 1</property>
      <property name="transition.valign">top</property>
      <property name="transition.halign">left</property>
      <property name="shotcut:animIn">00:00:01.640000</property>
      <property name="shotcut:animOut">00:00:00.000</property>
      <property name="transition.threads">0</property>
    </filter>
  </producer>
  <producer id="producer418" title="Anonymous Submission" in="00:00:00.000" out="00:03:35.640">
    <property name="length">00:03:35:17</property>
    <property name="eof">pause</property>
    <property name="resource">../../006 - Videos format youtube/Flutes/Gwenn_flute_totoro_recadre.mp4</property>
    <property name="audio_index">1</property>
    <property name="video_index">0</property>
    <property name="mute_on_pause">0</property>
    <property name="mlt_service">avformat-novalidate</property>
    <property name="seekable">1</property>
    <property name="aspect_ratio">1</property>
    <property name="creation_time">2020-04-30T15:27:42</property>
    <property name="shotcut:hash">100c5d626d0e8201453c2f0a20325b08</property>
    <property name="ignore_points">0</property>
    <property name="shotcut:caption">Gwenn_flute_totoro_recadre.mp4</property>
    <property name="shotcut:skipConvert">1</property>
    <property name="global_feed">1</property>
    <property name="xml">was here</property>
    <filter id="filter756" out="00:01:43.960000" in="00:01:35.000000">
      <property name="background">colour:0</property>
      <property name="mlt_service">affine</property>
      <property name="shotcut:filter">affineSizePosition</property>
      <property name="transition.fill">1</property>
      <property name="transition.distort">0</property>
      <property name="transition.rect">-548.0 -308.0 275.0 155.0 1</property>
      <property name="transition.valign">top</property>
      <property name="transition.halign">left</property>
      <property name="shotcut:animIn">00:00:01.640000</property>
      <property name="shotcut:animOut">00:00:00.000</property>
      <property name="transition.threads">0</property>
    </filter>
  </producer>
  <producer id="producer419" title="Anonymous Submission" in="00:00:00.000" out="00:03:35.640">
    <property name="length">00:03:35:17</property>
    <property name="eof">pause</property>
    <property name="resource">../../006 - Videos format youtube/Flutes/Gwenn_flute_totoro_recadre.mp4</property>
    <property name="audio_index">1</property>
    <property name="video_index">0</property>
    <property name="mute_on_pause">0</property>
    <property name="mlt_service">avformat-novalidate</property>
    <property name="seekable">1</property>
    <property name="aspect_ratio">1</property>
    <property name="creation_time">2020-04-30T15:27:42</property>
    <property name="shotcut:hash">100c5d626d0e8201453c2f0a20325b08</property>
    <property name="ignore_points">0</property>
    <property name="shotcut:caption">Gwenn_flute_totoro_recadre.mp4</property>
    <property name="shotcut:skipConvert">1</property>
    <property name="global_feed">1</property>
    <property name="xml">was here</property>
    <filter id="filter757" out="00:01:50.960000" in="00:01:44.000000">
      <property name="background">colour:0</property>
      <property name="mlt_service">affine</property>
      <property name="shotcut:filter">affineSizePosition</property>
      <property name="transition.fill">1</property>
      <property name="transition.distort">0</property>
      <property name="transition.rect">-548.0 -308.0 275.0 155.0 1</property>
      <property name="transition.valign">top</property>
      <property name="transition.halign">left</property>
      <property name="shotcut:animIn">00:00:01.640000</property>
      <property name="shotcut:animOut">00:00:00.000</property>
      <property name="transition.threads">0</property>
    </filter>
  </producer>
  <producer id="producer420" title="Anonymous Submission" in="00:00:00.000" out="00:03:35.640">
    <property name="length">00:03:35:17</property>
    <property name="eof">pause</property>
    <property name="resource">../../006 - Videos format youtube/Flutes/Gwenn_flute_totoro_recadre.mp4</property>
    <property name="audio_index">1</property>
    <property name="video_index">0</property>
    <property name="mute_on_pause">0</property>
    <property name="mlt_service">avformat-novalidate</property>
    <property name="seekable">1</property>
    <property name="aspect_ratio">1</property>
    <property name="creation_time">2020-04-30T15:27:42</property>
    <property name="shotcut:hash">100c5d626d0e8201453c2f0a20325b08</property>
    <property name="ignore_points">0</property>
    <property name="shotcut:caption">Gwenn_flute_totoro_recadre.mp4</property>
    <property name="shotcut:skipConvert">1</property>
    <property name="global_feed">1</property>
    <property name="xml">was here</property>
    <filter id="filter758" out="00:03:35.640" in="00:01:51.000000">
      <property name="background">colour:0</property>
      <property name="mlt_service">affine</property>
      <property name="shotcut:filter">affineSizePosition</property>
      <property name="transition.fill">1</property>
      <property name="transition.distort">0</property>
      <property name="transition.rect">-640.0 -360.0 321.0 181.0 1</property>
      <property name="transition.valign">top</property>
      <property name="transition.halign">left</property>
      <property name="shotcut:animIn">00:00:01.640000</property>
      <property name="shotcut:animOut">00:00:00.000</property>
      <property name="transition.threads">0</property>
    </filter>
  </producer>
  <playlist id="playlist23">
    <property name="shotcut:video">1</property>
    <property name="shotcut:name">Gwenn miroir&#233;</property>
    <entry producer="producer400" in="00:00:00.000" out="00:00:22.960000" />
  <entry producer="producer401" in="00:00:23.000000" out="00:00:29.960000" />
  <entry producer="producer402" in="00:00:30.000000" out="00:00:31.600000" />
  <entry producer="producer403" in="00:00:31.640000" out="00:00:33.280000" />
  <entry producer="producer404" in="00:00:33.320000" out="00:00:34.960000" />
  <entry producer="producer405" in="00:00:35.000000" out="00:00:36.600000" />
  <entry producer="producer406" in="00:00:36.640000" out="00:00:38.280000" />
  <entry producer="producer407" in="00:00:38.320000" out="00:00:39.960000" />
  <entry producer="producer408" in="00:00:40.000000" out="00:00:41.600000" />
  <entry producer="producer409" in="00:00:41.640000" out="00:00:43.280000" />
  <entry producer="producer410" in="00:00:43.320000" out="00:00:44.960000" />
  <entry producer="producer411" in="00:00:45.000000" out="00:00:46.600000" />
  <entry producer="producer412" in="00:00:46.640000" out="00:00:48.280000" />
  <entry producer="producer413" in="00:00:48.320000" out="00:01:03.960000" />
  <entry producer="producer414" in="00:01:04.000000" out="00:01:11.960000" />
  <entry producer="producer415" in="00:01:12.000000" out="00:01:19.960000" />
  <entry producer="producer416" in="00:01:20.000000" out="00:01:26.960000" />
  <entry producer="producer417" in="00:01:27.000000" out="00:01:34.960000" />
  <entry producer="producer418" in="00:01:35.000000" out="00:01:43.960000" />
  <entry producer="producer419" in="00:01:44.000000" out="00:01:50.960000" />
  <entry producer="producer420" in="00:01:51.000000" out="00:03:35.640" />
  </playlist>
  <producer id="producer421" title="Anonymous Submission" in="00:00:00.000" out="00:03:07.840">
    <property name="length">00:03:07:22</property>
    <property name="eof">pause</property>
    <property name="resource">../../006 - Videos format youtube/Flutes/Benoit_flute_totoro2.mp4</property>
    <property name="audio_index">1</property>
    <property name="video_index">0</property>
    <property name="mute_on_pause">0</property>
    <property name="mlt_service">avformat-novalidate</property>
    <property name="seekable">1</property>
    <property name="aspect_ratio">1</property>
    <property name="creation_time">2020-04-25T18:09:23</property>
    <property name="shotcut:hash">25e06be6934fe2d45b07a99ff037b350</property>
    <property name="ignore_points">0</property>
    <property name="shotcut:caption">Benoit_flute_totoro2.mp4</property>
    <property name="shotcut:skipConvert">1</property>
    <property name="global_feed">1</property>
    <property name="xml">was here</property>
    <filter id="filter759" out="00:00:01.320000">
      <property name="background">colour:0</property>
      <property name="mlt_service">affine</property>
      <property name="shotcut:filter">affineSizePosition</property>
      <property name="transition.fill">1</property>
      <property name="transition.distort">0</property>
      <property name="transition.rect">1371.0 462.0 275.0 155.0 1</property>
      <property name="transition.valign">top</property>
      <property name="transition.halign">left</property>
      <property name="shotcut:animIn">00:00:00.000</property>
      <property name="shotcut:animOut">00:00:00.000</property>
      <property name="transition.threads">0</property>
    </filter>
  </producer>
  <producer id="producer422" title="Anonymous Submission" in="00:00:00.000" out="00:03:07.840">
    <property name="length">00:03:07:22</property>
    <property name="eof">pause</property>
    <property name="resource">../../006 - Videos format youtube/Flutes/Benoit_flute_totoro2.mp4</property>
    <property name="audio_index">1</property>
    <property name="video_index">0</property>
    <property name="mute_on_pause">0</property>
    <property name="mlt_service">avformat-novalidate</property>
    <property name="seekable">1</property>
    <property name="aspect_ratio">1</property>
    <property name="creation_time">2020-04-25T18:09:23</property>
    <property name="shotcut:hash">25e06be6934fe2d45b07a99ff037b350</property>
    <property name="ignore_points">0</property>
    <property name="shotcut:caption">Benoit_flute_totoro2.mp4</property>
    <property name="shotcut:skipConvert">1</property>
    <property name="global_feed">1</property>
    <property name="xml">was here</property>
    <filter id="filter760" out="00:00:08.320000" in="00:00:01.360000">
      <property name="background">colour:0</property>
      <property name="mlt_service">affine</property>
      <property name="shotcut:filter">affineSizePosition</property>
      <property name="transition.fill">1</property>
      <property name="transition.distort">0</property>
      <property name="transition.rect">00:00:00.000000=1371.0 462.0 276.0 155.0 1;00:00:00.440000=0.0 771.0 275.0 155.0 1</property>
      <property name="transition.valign">top</property>
      <property name="transition.halign">left</property>
      <property name="shotcut:animIn">00:00:00.480000</property>
      <property name="shotcut:animOut">00:00:00.000</property>
      <property name="transition.threads">0</property>
    </filter>
  </producer>
  <producer id="producer423" title="Anonymous Submission" in="00:00:00.000" out="00:03:07.840">
    <property name="length">00:03:07:22</property>
    <property name="eof">pause</property>
    <property name="resource">../../006 - Videos format youtube/Flutes/Benoit_flute_totoro2.mp4</property>
    <property name="audio_index">1</property>
    <property name="video_index">0</property>
    <property name="mute_on_pause">0</property>
    <property name="mlt_service">avformat-novalidate</property>
    <property name="seekable">1</property>
    <property name="aspect_ratio">1</property>
    <property name="creation_time">2020-04-25T18:09:23</property>
    <property name="shotcut:hash">25e06be6934fe2d45b07a99ff037b350</property>
    <property name="ignore_points">0</property>
    <property name="shotcut:caption">Benoit_flute_totoro2.mp4</property>
    <property name="shotcut:skipConvert">1</property>
    <property name="global_feed">1</property>
    <property name="xml">was here</property>
    <filter id="filter761" out="00:00:09.960000" in="00:00:08.360000">
      <property name="background">colour:0</property>
      <property name="mlt_service">affine</property>
      <property name="shotcut:filter">affineSizePosition</property>
      <property name="transition.fill">1</property>
      <property name="transition.distort">0</property>
      <property name="transition.rect">00:00:00.000000=1680.0 405.0 242.0 136.0 1;00:00:01.600000=1680.0 540.0 241.0 136.0 1</property>
      <property name="transition.valign">top</property>
      <property name="transition.halign">left</property>
      <property name="shotcut:animIn">00:00:01.640000</property>
      <property name="shotcut:animOut">00:00:00.000</property>
      <property name="transition.threads">0</property>
    </filter>
  </producer>
  <producer id="producer424" title="Anonymous Submission" in="00:00:00.000" out="00:03:07.840">
    <property name="length">00:03:07:22</property>
    <property name="eof">pause</property>
    <property name="resource">../../006 - Videos format youtube/Flutes/Benoit_flute_totoro2.mp4</property>
    <property name="audio_index">1</property>
    <property name="video_index">0</property>
    <property name="mute_on_pause">0</property>
    <property name="mlt_service">avformat-novalidate</property>
    <property name="seekable">1</property>
    <property name="aspect_ratio">1</property>
    <property name="creation_time">2020-04-25T18:09:23</property>
    <property name="shotcut:hash">25e06be6934fe2d45b07a99ff037b350</property>
    <property name="ignore_points">0</property>
    <property name="shotcut:caption">Benoit_flute_totoro2.mp4</property>
    <property name="shotcut:skipConvert">1</property>
    <property name="global_feed">1</property>
    <property name="xml">was here</property>
    <filter id="filter762" out="00:00:11.640000" in="00:00:10.000000">
      <property name="background">colour:0</property>
      <property name="mlt_service">affine</property>
      <property name="shotcut:filter">affineSizePosition</property>
      <property name="transition.fill">1</property>
      <property name="transition.distort">0</property>
      <property name="transition.rect">00:00:00.000000=1680.0 540.0 242.0 136.0 1;00:00:01.600000=1680.0 675.0 241.0 136.0 1</property>
      <property name="transition.valign">top</property>
      <property name="transition.halign">left</property>
      <property name="shotcut:animIn">00:00:01.640000</property>
      <property name="shotcut:animOut">00:00:00.000</property>
      <property name="transition.threads">0</property>
    </filter>
  </producer>
  <producer id="producer425" title="Anonymous Submission" in="00:00:00.000" out="00:03:07.840">
    <property name="length">00:03:07:22</property>
    <property name="eof">pause</property>
    <property name="resource">../../006 - Videos format youtube/Flutes/Benoit_flute_totoro2.mp4</property>
    <property name="audio_index">1</property>
    <property name="video_index">0</property>
    <property name="mute_on_pause">0</property>
    <property name="mlt_service">avformat-novalidate</property>
    <property name="seekable">1</property>
    <property name="aspect_ratio">1</property>
    <property name="creation_time">2020-04-25T18:09:23</property>
    <property name="shotcut:hash">25e06be6934fe2d45b07a99ff037b350</property>
    <property name="ignore_points">0</property>
    <property name="shotcut:caption">Benoit_flute_totoro2.mp4</property>
    <property name="shotcut:skipConvert">1</property>
    <property name="global_feed">1</property>
    <property name="xml">was here</property>
    <filter id="filter763" out="00:00:13.320000" in="00:00:11.680000">
      <property name="background">colour:0</property>
      <property name="mlt_service">affine</property>
      <property name="shotcut:filter">affineSizePosition</property>
      <property name="transition.fill">1</property>
      <property name="transition.distort">0</property>
      <property name="transition.rect">00:00:00.000000=1680.0 675.0 242.0 136.0 1;00:00:01.600000=1680.0 810.0 241.0 136.0 1</property>
      <property name="transition.valign">top</property>
      <property name="transition.halign">left</property>
      <property name="shotcut:animIn">00:00:01.640000</property>
      <property name="shotcut:animOut">00:00:00.000</property>
      <property name="transition.threads">0</property>
    </filter>
  </producer>
  <producer id="producer426" title="Anonymous Submission" in="00:00:00.000" out="00:03:07.840">
    <property name="length">00:03:07:22</property>
    <property name="eof">pause</property>
    <property name="resource">../../006 - Videos format youtube/Flutes/Benoit_flute_totoro2.mp4</property>
    <property name="audio_index">1</property>
    <property name="video_index">0</property>
    <property name="mute_on_pause">0</property>
    <property name="mlt_service">avformat-novalidate</property>
    <property name="seekable">1</property>
    <property name="aspect_ratio">1</property>
    <property name="creation_time">2020-04-25T18:09:23</property>
    <property name="shotcut:hash">25e06be6934fe2d45b07a99ff037b350</property>
    <property name="ignore_points">0</property>
    <property name="shotcut:caption">Benoit_flute_totoro2.mp4</property>
    <property name="shotcut:skipConvert">1</property>
    <property name="global_feed">1</property>
    <property name="xml">was here</property>
    <filter id="filter764" out="00:00:14.960000" in="00:00:13.360000">
      <property name="background">colour:0</property>
      <property name="mlt_service">affine</property>
      <property name="shotcut:filter">affineSizePosition</property>
      <property name="transition.fill">1</property>
      <property name="transition.distort">0</property>
      <property name="transition.rect">00:00:00.000000=1680.0 810.0 242.0 136.0 1;00:00:01.600000=1680.0 945.0 241.0 136.0 1</property>
      <property name="transition.valign">top</property>
      <property name="transition.halign">left</property>
      <property name="shotcut:animIn">00:00:01.640000</property>
      <property name="shotcut:animOut">00:00:00.000</property>
      <property name="transition.threads">0</property>
    </filter>
  </producer>
  <producer id="producer427" title="Anonymous Submission" in="00:00:00.000" out="00:03:07.840">
    <property name="length">00:03:07:22</property>
    <property name="eof">pause</property>
    <property name="resource">../../006 - Videos format youtube/Flutes/Benoit_flute_totoro2.mp4</property>
    <property name="audio_index">1</property>
    <property name="video_index">0</property>
    <property name="mute_on_pause">0</property>
    <property name="mlt_service">avformat-novalidate</property>
    <property name="seekable">1</property>
    <property name="aspect_ratio">1</property>
    <property name="creation_time">2020-04-25T18:09:23</property>
    <property name="shotcut:hash">25e06be6934fe2d45b07a99ff037b350</property>
    <property name="ignore_points">0</property>
    <property name="shotcut:caption">Benoit_flute_totoro2.mp4</property>
    <property name="shotcut:skipConvert">1</property>
    <property name="global_feed">1</property>
    <property name="xml">was here</property>
    <filter id="filter765" out="00:00:16.640000" in="00:00:15.000000">
      <property name="background">colour:0</property>
      <property name="mlt_service">affine</property>
      <property name="shotcut:filter">affineSizePosition</property>
      <property name="transition.fill">1</property>
      <property name="transition.distort">0</property>
      <property name="transition.rect">00:00:00.000000=1680.0 135.0 242.0 136.0 1;00:00:01.600000=1680.0 270.0 241.0 136.0 1</property>
      <property name="transition.valign">top</property>
      <property name="transition.halign">left</property>
      <property name="shotcut:animIn">00:00:01.640000</property>
      <property name="shotcut:animOut">00:00:00.000</property>
      <property name="transition.threads">0</property>
    </filter>
  </producer>
  <producer id="producer428" title="Anonymous Submission" in="00:00:00.000" out="00:03:07.840">
    <property name="length">00:03:07:22</property>
    <property name="eof">pause</property>
    <property name="resource">../../006 - Videos format youtube/Flutes/Benoit_flute_totoro2.mp4</property>
    <property name="audio_index">1</property>
    <property name="video_index">0</property>
    <property name="mute_on_pause">0</property>
    <property name="mlt_service">avformat-novalidate</property>
    <property name="seekable">1</property>
    <property name="aspect_ratio">1</property>
    <property name="creation_time">2020-04-25T18:09:23</property>
    <property name="shotcut:hash">25e06be6934fe2d45b07a99ff037b350</property>
    <property name="ignore_points">0</property>
    <property name="shotcut:caption">Benoit_flute_totoro2.mp4</property>
    <property name="shotcut:skipConvert">1</property>
    <property name="global_feed">1</property>
    <property name="xml">was here</property>
    <filter id="filter766" out="00:00:18.320000" in="00:00:16.680000">
      <property name="background">colour:0</property>
      <property name="mlt_service">affine</property>
      <property name="shotcut:filter">affineSizePosition</property>
      <property name="transition.fill">1</property>
      <property name="transition.distort">0</property>
      <property name="transition.rect">00:00:00.000000=1680.0 270.0 242.0 136.0 1;00:00:01.600000=1680.0 405.0 241.0 136.0 1</property>
      <property name="transition.valign">top</property>
      <property name="transition.halign">left</property>
      <property name="shotcut:animIn">00:00:01.640000</property>
      <property name="shotcut:animOut">00:00:00.000</property>
      <property name="transition.threads">0</property>
    </filter>
  </producer>
  <producer id="producer429" title="Anonymous Submission" in="00:00:00.000" out="00:03:07.840">
    <property name="length">00:03:07:22</property>
    <property name="eof">pause</property>
    <property name="resource">../../006 - Videos format youtube/Flutes/Benoit_flute_totoro2.mp4</property>
    <property name="audio_index">1</property>
    <property name="video_index">0</property>
    <property name="mute_on_pause">0</property>
    <property name="mlt_service">avformat-novalidate</property>
    <property name="seekable">1</property>
    <property name="aspect_ratio">1</property>
    <property name="creation_time">2020-04-25T18:09:23</property>
    <property name="shotcut:hash">25e06be6934fe2d45b07a99ff037b350</property>
    <property name="ignore_points">0</property>
    <property name="shotcut:caption">Benoit_flute_totoro2.mp4</property>
    <property name="shotcut:skipConvert">1</property>
    <property name="global_feed">1</property>
    <property name="xml">was here</property>
    <filter id="filter767" out="00:00:19.960000" in="00:00:18.360000">
      <property name="background">colour:0</property>
      <property name="mlt_service">affine</property>
      <property name="shotcut:filter">affineSizePosition</property>
      <property name="transition.fill">1</property>
      <property name="transition.distort">0</property>
      <property name="transition.rect">00:00:00.000000=1680.0 405.0 242.0 136.0 1;00:00:01.600000=1680.0 540.0 241.0 136.0 1</property>
      <property name="transition.valign">top</property>
      <property name="transition.halign">left</property>
      <property name="shotcut:animIn">00:00:01.640000</property>
      <property name="shotcut:animOut">00:00:00.000</property>
      <property name="transition.threads">0</property>
    </filter>
  </producer>
  <producer id="producer430" title="Anonymous Submission" in="00:00:00.000" out="00:03:07.840">
    <property name="length">00:03:07:22</property>
    <property name="eof">pause</property>
    <property name="resource">../../006 - Videos format youtube/Flutes/Benoit_flute_totoro2.mp4</property>
    <property name="audio_index">1</property>
    <property name="video_index">0</property>
    <property name="mute_on_pause">0</property>
    <property name="mlt_service">avformat-novalidate</property>
    <property name="seekable">1</property>
    <property name="aspect_ratio">1</property>
    <property name="creation_time">2020-04-25T18:09:23</property>
    <property name="shotcut:hash">25e06be6934fe2d45b07a99ff037b350</property>
    <property name="ignore_points">0</property>
    <property name="shotcut:caption">Benoit_flute_totoro2.mp4</property>
    <property name="shotcut:skipConvert">1</property>
    <property name="global_feed">1</property>
    <property name="xml">was here</property>
    <filter id="filter768" out="00:00:21.640000" in="00:00:20.000000">
      <property name="background">colour:0</property>
      <property name="mlt_service">affine</property>
      <property name="shotcut:filter">affineSizePosition</property>
      <property name="transition.fill">1</property>
      <property name="transition.distort">0</property>
      <property name="transition.rect">00:00:00.000000=1680.0 540.0 242.0 136.0 1;00:00:01.600000=1680.0 675.0 241.0 136.0 1</property>
      <property name="transition.valign">top</property>
      <property name="transition.halign">left</property>
      <property name="shotcut:animIn">00:00:01.640000</property>
      <property name="shotcut:animOut">00:00:00.000</property>
      <property name="transition.threads">0</property>
    </filter>
  </producer>
  <producer id="producer431" title="Anonymous Submission" in="00:00:00.000" out="00:03:07.840">
    <property name="length">00:03:07:22</property>
    <property name="eof">pause</property>
    <property name="resource">../../006 - Videos format youtube/Flutes/Benoit_flute_totoro2.mp4</property>
    <property name="audio_index">1</property>
    <property name="video_index">0</property>
    <property name="mute_on_pause">0</property>
    <property name="mlt_service">avformat-novalidate</property>
    <property name="seekable">1</property>
    <property name="aspect_ratio">1</property>
    <property name="creation_time">2020-04-25T18:09:23</property>
    <property name="shotcut:hash">25e06be6934fe2d45b07a99ff037b350</property>
    <property name="ignore_points">0</property>
    <property name="shotcut:caption">Benoit_flute_totoro2.mp4</property>
    <property name="shotcut:skipConvert">1</property>
    <property name="global_feed">1</property>
    <property name="xml">was here</property>
    <filter id="filter769" out="00:00:23.320000" in="00:00:21.680000">
      <property name="background">colour:0</property>
      <property name="mlt_service">affine</property>
      <property name="shotcut:filter">affineSizePosition</property>
      <property name="transition.fill">1</property>
      <property name="transition.distort">0</property>
      <property name="transition.rect">00:00:00.000000=1680.0 675.0 242.0 136.0 1;00:00:01.600000=1680.0 810.0 241.0 136.0 1</property>
      <property name="transition.valign">top</property>
      <property name="transition.halign">left</property>
      <property name="shotcut:animIn">00:00:01.640000</property>
      <property name="shotcut:animOut">00:00:00.000</property>
      <property name="transition.threads">0</property>
    </filter>
  </producer>
  <producer id="producer432" title="Anonymous Submission" in="00:00:00.000" out="00:03:07.840">
    <property name="length">00:03:07:22</property>
    <property name="eof">pause</property>
    <property name="resource">../../006 - Videos format youtube/Flutes/Benoit_flute_totoro2.mp4</property>
    <property name="audio_index">1</property>
    <property name="video_index">0</property>
    <property name="mute_on_pause">0</property>
    <property name="mlt_service">avformat-novalidate</property>
    <property name="seekable">1</property>
    <property name="aspect_ratio">1</property>
    <property name="creation_time">2020-04-25T18:09:23</property>
    <property name="shotcut:hash">25e06be6934fe2d45b07a99ff037b350</property>
    <property name="ignore_points">0</property>
    <property name="shotcut:caption">Benoit_flute_totoro2.mp4</property>
    <property name="shotcut:skipConvert">1</property>
    <property name="global_feed">1</property>
    <property name="xml">was here</property>
    <filter id="filter770" out="00:00:24.960000" in="00:00:23.360000">
      <property name="background">colour:0</property>
      <property name="mlt_service">affine</property>
      <property name="shotcut:filter">affineSizePosition</property>
      <property name="transition.fill">1</property>
      <property name="transition.distort">0</property>
      <property name="transition.rect">00:00:00.000000=1680.0 810.0 242.0 136.0 1;00:00:01.600000=1680.0 945.0 241.0 136.0 1</property>
      <property name="transition.valign">top</property>
      <property name="transition.halign">left</property>
      <property name="shotcut:animIn">00:00:01.640000</property>
      <property name="shotcut:animOut">00:00:00.000</property>
      <property name="transition.threads">0</property>
    </filter>
  </producer>
  <producer id="producer433" title="Anonymous Submission" in="00:00:00.000" out="00:03:07.840">
    <property name="length">00:03:07:22</property>
    <property name="eof">pause</property>
    <property name="resource">../../006 - Videos format youtube/Flutes/Benoit_flute_totoro2.mp4</property>
    <property name="audio_index">1</property>
    <property name="video_index">0</property>
    <property name="mute_on_pause">0</property>
    <property name="mlt_service">avformat-novalidate</property>
    <property name="seekable">1</property>
    <property name="aspect_ratio">1</property>
    <property name="creation_time">2020-04-25T18:09:23</property>
    <property name="shotcut:hash">25e06be6934fe2d45b07a99ff037b350</property>
    <property name="ignore_points">0</property>
    <property name="shotcut:caption">Benoit_flute_totoro2.mp4</property>
    <property name="shotcut:skipConvert">1</property>
    <property name="global_feed">1</property>
    <property name="xml">was here</property>
    <filter id="filter771" out="00:00:26.640000" in="00:00:25.000000">
      <property name="background">colour:0</property>
      <property name="mlt_service">affine</property>
      <property name="shotcut:filter">affineSizePosition</property>
      <property name="transition.fill">1</property>
      <property name="transition.distort">0</property>
      <property name="transition.rect">00:00:00.000000=1680.0 135.0 242.0 136.0 1;00:00:01.600000=1680.0 270.0 241.0 136.0 1</property>
      <property name="transition.valign">top</property>
      <property name="transition.halign">left</property>
      <property name="shotcut:animIn">00:00:01.640000</property>
      <property name="shotcut:animOut">00:00:00.000</property>
      <property name="transition.threads">0</property>
    </filter>
  </producer>
  <producer id="producer434" title="Anonymous Submission" in="00:00:00.000" out="00:03:07.840">
    <property name="length">00:03:07:22</property>
    <property name="eof">pause</property>
    <property name="resource">../../006 - Videos format youtube/Flutes/Benoit_flute_totoro2.mp4</property>
    <property name="audio_index">1</property>
    <property name="video_index">0</property>
    <property name="mute_on_pause">0</property>
    <property name="mlt_service">avformat-novalidate</property>
    <property name="seekable">1</property>
    <property name="aspect_ratio">1</property>
    <property name="creation_time">2020-04-25T18:09:23</property>
    <property name="shotcut:hash">25e06be6934fe2d45b07a99ff037b350</property>
    <property name="ignore_points">0</property>
    <property name="shotcut:caption">Benoit_flute_totoro2.mp4</property>
    <property name="shotcut:skipConvert">1</property>
    <property name="global_feed">1</property>
    <property name="xml">was here</property>
    <filter id="filter772" out="00:00:42.320000" in="00:00:26.680000">
      <property name="background">colour:0</property>
      <property name="mlt_service">affine</property>
      <property name="shotcut:filter">affineSizePosition</property>
      <property name="transition.fill">1</property>
      <property name="transition.distort">0</property>
      <property name="transition.rect">00:00:00.000000=1680.0 270.0 242.0 136.0 1;00:00:01.600000=1680.0 405.0 241.0 136.0 1</property>
      <property name="transition.valign">top</property>
      <property name="transition.halign">left</property>
      <property name="shotcut:animIn">00:00:01.640000</property>
      <property name="shotcut:animOut">00:00:00.000</property>
      <property name="transition.threads">0</property>
    </filter>
  </producer>
  <producer id="producer435" title="Anonymous Submission" in="00:00:00.000" out="00:03:07.840">
    <property name="length">00:03:07:22</property>
    <property name="eof">pause</property>
    <property name="resource">../../006 - Videos format youtube/Flutes/Benoit_flute_totoro2.mp4</property>
    <property name="audio_index">1</property>
    <property name="video_index">0</property>
    <property name="mute_on_pause">0</property>
    <property name="mlt_service">avformat-novalidate</property>
    <property name="seekable">1</property>
    <property name="aspect_ratio">1</property>
    <property name="creation_time">2020-04-25T18:09:23</property>
    <property name="shotcut:hash">25e06be6934fe2d45b07a99ff037b350</property>
    <property name="ignore_points">0</property>
    <property name="shotcut:caption">Benoit_flute_totoro2.mp4</property>
    <property name="shotcut:skipConvert">1</property>
    <property name="global_feed">1</property>
    <property name="xml">was here</property>
    <filter id="filter773" out="00:00:58.320000" in="00:00:42.360000">
      <property name="background">colour:0</property>
      <property name="mlt_service">affine</property>
      <property name="shotcut:filter">affineSizePosition</property>
      <property name="transition.fill">1</property>
      <property name="transition.distort">0</property>
      <property name="transition.rect">-1645.0 -462.0 275.0 155.0 1</property>
      <property name="transition.valign">top</property>
      <property name="transition.halign">left</property>
      <property name="shotcut:animIn">00:00:01.640000</property>
      <property name="shotcut:animOut">00:00:00.000</property>
      <property name="transition.threads">0</property>
    </filter>
  </producer>
  <producer id="producer436" title="Anonymous Submission" in="00:00:00.000" out="00:03:07.840">
    <property name="length">00:03:07:22</property>
    <property name="eof">pause</property>
    <property name="resource">../../006 - Videos format youtube/Flutes/Benoit_flute_totoro2.mp4</property>
    <property name="audio_index">1</property>
    <property name="video_index">0</property>
    <property name="mute_on_pause">0</property>
    <property name="mlt_service">avformat-novalidate</property>
    <property name="seekable">1</property>
    <property name="aspect_ratio">1</property>
    <property name="creation_time">2020-04-25T18:09:23</property>
    <property name="shotcut:hash">25e06be6934fe2d45b07a99ff037b350</property>
    <property name="ignore_points">0</property>
    <property name="shotcut:caption">Benoit_flute_totoro2.mp4</property>
    <property name="shotcut:skipConvert">1</property>
    <property name="global_feed">1</property>
    <property name="xml">was here</property>
    <filter id="filter774" out="00:01:05.320000" in="00:00:58.360000">
      <property name="background">colour:0</property>
      <property name="mlt_service">affine</property>
      <property name="shotcut:filter">affineSizePosition</property>
      <property name="transition.fill">1</property>
      <property name="transition.distort">0</property>
      <property name="transition.rect">5920.0 0.0 321.0 181.0 1</property>
      <property name="transition.valign">top</property>
      <property name="transition.halign">left</property>
      <property name="shotcut:animIn">00:00:01.640000</property>
      <property name="shotcut:animOut">00:00:00.000</property>
      <property name="transition.threads">0</property>
    </filter>
  </producer>
  <producer id="producer437" title="Anonymous Submission" in="00:00:00.000" out="00:03:07.840">
    <property name="length">00:03:07:22</property>
    <property name="eof">pause</property>
    <property name="resource">../../006 - Videos format youtube/Flutes/Benoit_flute_totoro2.mp4</property>
    <property name="audio_index">1</property>
    <property name="video_index">0</property>
    <property name="mute_on_pause">0</property>
    <property name="mlt_service">avformat-novalidate</property>
    <property name="seekable">1</property>
    <property name="aspect_ratio">1</property>
    <property name="creation_time">2020-04-25T18:09:23</property>
    <property name="shotcut:hash">25e06be6934fe2d45b07a99ff037b350</property>
    <property name="ignore_points">0</property>
    <property name="shotcut:caption">Benoit_flute_totoro2.mp4</property>
    <property name="shotcut:skipConvert">1</property>
    <property name="global_feed">1</property>
    <property name="xml">was here</property>
    <filter id="filter775" out="00:01:13.320000" in="00:01:05.360000">
      <property name="background">colour:0</property>
      <property name="mlt_service">affine</property>
      <property name="shotcut:filter">affineSizePosition</property>
      <property name="transition.fill">1</property>
      <property name="transition.distort">0</property>
      <property name="transition.rect">1280.0 900.0 321.0 181.0 1</property>
      <property name="transition.valign">top</property>
      <property name="transition.halign">left</property>
      <property name="shotcut:animIn">00:00:01.640000</property>
      <property name="shotcut:animOut">00:00:00.000</property>
      <property name="transition.threads">0</property>
    </filter>
  </producer>
  <producer id="producer438" title="Anonymous Submission" in="00:00:00.000" out="00:03:07.840">
    <property name="length">00:03:07:22</property>
    <property name="eof">pause</property>
    <property name="resource">../../006 - Videos format youtube/Flutes/Benoit_flute_totoro2.mp4</property>
    <property name="audio_index">1</property>
    <property name="video_index">0</property>
    <property name="mute_on_pause">0</property>
    <property name="mlt_service">avformat-novalidate</property>
    <property name="seekable">1</property>
    <property name="aspect_ratio">1</property>
    <property name="creation_time">2020-04-25T18:09:23</property>
    <property name="shotcut:hash">25e06be6934fe2d45b07a99ff037b350</property>
    <property name="ignore_points">0</property>
    <property name="shotcut:caption">Benoit_flute_totoro2.mp4</property>
    <property name="shotcut:skipConvert">1</property>
    <property name="global_feed">1</property>
    <property name="xml">was here</property>
    <filter id="filter776" out="00:01:22.320000" in="00:01:13.360000">
      <property name="background">colour:0</property>
      <property name="mlt_service">affine</property>
      <property name="shotcut:filter">affineSizePosition</property>
      <property name="transition.fill">1</property>
      <property name="transition.distort">0</property>
      <property name="transition.rect">-548.0 -308.0 275.0 155.0 1</property>
      <property name="transition.valign">top</property>
      <property name="transition.halign">left</property>
      <property name="shotcut:animIn">00:00:01.640000</property>
      <property name="shotcut:animOut">00:00:00.000</property>
      <property name="transition.threads">0</property>
    </filter>
  </producer>
  <producer id="producer439" title="Anonymous Submission" in="00:00:00.000" out="00:03:07.840">
    <property name="length">00:03:07:22</property>
    <property name="eof">pause</property>
    <property name="resource">../../006 - Videos format youtube/Flutes/Benoit_flute_totoro2.mp4</property>
    <property name="audio_index">1</property>
    <property name="video_index">0</property>
    <property name="mute_on_pause">0</property>
    <property name="mlt_service">avformat-novalidate</property>
    <property name="seekable">1</property>
    <property name="aspect_ratio">1</property>
    <property name="creation_time">2020-04-25T18:09:23</property>
    <property name="shotcut:hash">25e06be6934fe2d45b07a99ff037b350</property>
    <property name="ignore_points">0</property>
    <property name="shotcut:caption">Benoit_flute_totoro2.mp4</property>
    <property name="shotcut:skipConvert">1</property>
    <property name="global_feed">1</property>
    <property name="xml">was here</property>
    <filter id="filter777" out="00:01:29.320000" in="00:01:22.360000">
      <property name="background">colour:0</property>
      <property name="mlt_service">affine</property>
      <property name="shotcut:filter">affineSizePosition</property>
      <property name="transition.fill">1</property>
      <property name="transition.distort">0</property>
      <property name="transition.rect">1371.0 462.0 275.0 155.0 1</property>
      <property name="transition.valign">top</property>
      <property name="transition.halign">left</property>
      <property name="shotcut:animIn">00:00:01.640000</property>
      <property name="shotcut:animOut">00:00:00.000</property>
      <property name="transition.threads">0</property>
    </filter>
  </producer>
  <producer id="producer440" title="Anonymous Submission" in="00:00:00.000" out="00:03:07.840">
    <property name="length">00:03:07:22</property>
    <property name="eof">pause</property>
    <property name="resource">../../006 - Videos format youtube/Flutes/Benoit_flute_totoro2.mp4</property>
    <property name="audio_index">1</property>
    <property name="video_index">0</property>
    <property name="mute_on_pause">0</property>
    <property name="mlt_service">avformat-novalidate</property>
    <property name="seekable">1</property>
    <property name="aspect_ratio">1</property>
    <property name="creation_time">2020-04-25T18:09:23</property>
    <property name="shotcut:hash">25e06be6934fe2d45b07a99ff037b350</property>
    <property name="ignore_points">0</property>
    <property name="shotcut:caption">Benoit_flute_totoro2.mp4</property>
    <property name="shotcut:skipConvert">1</property>
    <property name="global_feed">1</property>
    <property name="xml">was here</property>
    <filter id="filter778" out="00:03:07.840000" in="00:01:29.360000">
      <property name="background">colour:0</property>
      <property name="mlt_service">affine</property>
      <property name="shotcut:filter">affineSizePosition</property>
      <property name="transition.fill">1</property>
      <property name="transition.distort">0</property>
      <property name="transition.rect">5920.0 0.0 321.0 181.0 1</property>
      <property name="transition.valign">top</property>
      <property name="transition.halign">left</property>
      <property name="shotcut:animIn">00:00:01.640000</property>
      <property name="shotcut:animOut">00:00:00.000</property>
      <property name="transition.threads">0</property>
    </filter>
  </producer>
  <playlist id="playlist24">
    <property name="shotcut:video">1</property>
    <property name="shotcut:name">Benoit 2</property>
    <property name="shotcut:lock">1</property>
    <blank length="00:00:21.640" />
    <entry producer="producer421" in="00:00:00.000" out="00:00:01.320000" />
    <entry producer="producer422" in="00:00:01.360000" out="00:00:08.320000" />
    <entry producer="producer423" in="00:00:08.360000" out="00:00:09.960000" />
    <entry producer="producer424" in="00:00:10.000000" out="00:00:11.640000" />
    <entry producer="producer425" in="00:00:11.680000" out="00:00:13.320000" />
    <entry producer="producer426" in="00:00:13.360000" out="00:00:14.960000" />
    <entry producer="producer427" in="00:00:15.000000" out="00:00:16.640000" />
    <entry producer="producer428" in="00:00:16.680000" out="00:00:18.320000" />
    <entry producer="producer429" in="00:00:18.360000" out="00:00:19.960000" />
    <entry producer="producer430" in="00:00:20.000000" out="00:00:21.640000" />
    <entry producer="producer431" in="00:00:21.680000" out="00:00:23.320000" />
    <entry producer="producer432" in="00:00:23.360000" out="00:00:24.960000" />
    <entry producer="producer433" in="00:00:25.000000" out="00:00:26.640000" />
    <entry producer="producer434" in="00:00:26.680000" out="00:00:42.320000" />
    <entry producer="producer435" in="00:00:42.360000" out="00:00:58.320000" />
    <entry producer="producer436" in="00:00:58.360000" out="00:01:05.320000" />
    <entry producer="producer437" in="00:01:05.360000" out="00:01:13.320000" />
    <entry producer="producer438" in="00:01:13.360000" out="00:01:22.320000" />
    <entry producer="producer439" in="00:01:22.360000" out="00:01:29.320000" />
    <entry producer="producer440" in="00:01:29.360000" out="00:03:07.840000" />
    </playlist>
  <producer id="producer441" title="Anonymous Submission" in="00:00:00.000" out="00:03:15.240">
    <property name="length">00:03:15:07</property>
    <property name="eof">pause</property>
    <property name="resource">../../006 - Videos format youtube/Flutes/Jawad_flute_totoro.mp4</property>
    <property name="audio_index">1</property>
    <property name="video_index">0</property>
    <property name="mute_on_pause">0</property>
    <property name="mlt_service">avformat-novalidate</property>
    <property name="seekable">1</property>
    <property name="aspect_ratio">1</property>
    <property name="creation_time">2020-04-23T20:25:29</property>
    <property name="shotcut:hash">bc7b77ed976cd8d1d97d8c5d2bfce239</property>
    <property name="ignore_points">0</property>
    <property name="shotcut:caption">Jawad_flute_totoro.mp4</property>
    <property name="shotcut:skipConvert">1</property>
    <property name="global_feed">1</property>
    <property name="xml">was here</property>
    <filter id="filter779" out="00:00:14.800000">
      <property name="background">colour:0</property>
      <property name="mlt_service">affine</property>
      <property name="shotcut:filter">affineSizePosition</property>
      <property name="transition.fill">1</property>
      <property name="transition.distort">0</property>
      <property name="transition.rect">274.0 925.0 275.0 155.0 1</property>
      <property name="transition.valign">top</property>
      <property name="transition.halign">left</property>
      <property name="shotcut:animIn">00:00:00.000</property>
      <property name="shotcut:animOut">00:00:00.000</property>
      <property name="transition.threads">0</property>
    </filter>
    <filter id="filter780" out="00:00:14.800000">
      <property name="window">75</property>
      <property name="max_gain">20dB</property>
      <property name="mlt_service">volume</property>
      <property name="shotcut:filter">muteVolume</property>
      <property name="gain">0</property>
    </filter>
  </producer>
  <producer id="producer442" title="Anonymous Submission" in="00:00:00.000" out="00:03:15.240">
    <property name="length">00:03:15:07</property>
    <property name="eof">pause</property>
    <property name="resource">../../006 - Videos format youtube/Flutes/Jawad_flute_totoro.mp4</property>
    <property name="audio_index">1</property>
    <property name="video_index">0</property>
    <property name="mute_on_pause">0</property>
    <property name="mlt_service">avformat-novalidate</property>
    <property name="seekable">1</property>
    <property name="aspect_ratio">1</property>
    <property name="creation_time">2020-04-23T20:25:29</property>
    <property name="shotcut:hash">bc7b77ed976cd8d1d97d8c5d2bfce239</property>
    <property name="ignore_points">0</property>
    <property name="shotcut:caption">Jawad_flute_totoro.mp4</property>
    <property name="shotcut:skipConvert">1</property>
    <property name="global_feed">1</property>
    <property name="xml">was here</property>
    <filter id="filter781" out="00:00:21.800000" in="00:00:14.840000">
      <property name="background">colour:0</property>
      <property name="mlt_service">affine</property>
      <property name="shotcut:filter">affineSizePosition</property>
      <property name="transition.fill">1</property>
      <property name="transition.distort">0</property>
      <property name="transition.rect">00:00:00.000000=274.0 925.0 276.0 155.0 1;00:00:00.440000=1371.0 462.0 275.0 155.0 1</property>
      <property name="transition.valign">top</property>
      <property name="transition.halign">left</property>
      <property name="shotcut:animIn">00:00:00.480000</property>
      <property name="shotcut:animOut">00:00:00.000</property>
      <property name="transition.threads">0</property>
    </filter>
    <filter id="filter782" out="00:00:21.800000" in="00:00:14.840000">
      <property name="window">75</property>
      <property name="max_gain">20dB</property>
      <property name="mlt_service">volume</property>
      <property name="shotcut:filter">muteVolume</property>
      <property name="gain">0</property>
    </filter>
  </producer>
  <producer id="producer443" title="Anonymous Submission" in="00:00:00.000" out="00:03:15.240">
    <property name="length">00:03:15:07</property>
    <property name="eof">pause</property>
    <property name="resource">../../006 - Videos format youtube/Flutes/Jawad_flute_totoro.mp4</property>
    <property name="audio_index">1</property>
    <property name="video_index">0</property>
    <property name="mute_on_pause">0</property>
    <property name="mlt_service">avformat-novalidate</property>
    <property name="seekable">1</property>
    <property name="aspect_ratio">1</property>
    <property name="creation_time">2020-04-23T20:25:29</property>
    <property name="shotcut:hash">bc7b77ed976cd8d1d97d8c5d2bfce239</property>
    <property name="ignore_points">0</property>
    <property name="shotcut:caption">Jawad_flute_totoro.mp4</property>
    <property name="shotcut:skipConvert">1</property>
    <property name="global_feed">1</property>
    <property name="xml">was here</property>
    <filter id="filter783" out="00:00:23.440000" in="00:00:21.840000">
      <property name="background">colour:0</property>
      <property name="mlt_service">affine</property>
      <property name="shotcut:filter">affineSizePosition</property>
      <property name="transition.fill">1</property>
      <property name="transition.distort">0</property>
      <property name="transition.rect">00:00:00.000000=1680.0 675.0 242.0 136.0 1;00:00:01.600000=1680.0 810.0 241.0 136.0 1</property>
      <property name="transition.valign">top</property>
      <property name="transition.halign">left</property>
      <property name="shotcut:animIn">00:00:01.640000</property>
      <property name="shotcut:animOut">00:00:00.000</property>
      <property name="transition.threads">0</property>
    </filter>
    <filter id="filter784" out="00:00:23.440000" in="00:00:21.840000">
      <property name="window">75</property>
      <property name="max_gain">20dB</property>
      <property name="mlt_service">volume</property>
      <property name="shotcut:filter">muteVolume</property>
      <property name="gain">0</property>
    </filter>
  </producer>
  <producer id="producer444" title="Anonymous Submission" in="00:00:00.000" out="00:03:15.240">
    <property name="length">00:03:15:07</property>
    <property name="eof">pause</property>
    <property name="resource">../../006 - Videos format youtube/Flutes/Jawad_flute_totoro.mp4</property>
    <property name="audio_index">1</property>
    <property name="video_index">0</property>
    <property name="mute_on_pause">0</property>
    <property name="mlt_service">avformat-novalidate</property>
    <property name="seekable">1</property>
    <property name="aspect_ratio">1</property>
    <property name="creation_time">2020-04-23T20:25:29</property>
    <property name="shotcut:hash">bc7b77ed976cd8d1d97d8c5d2bfce239</property>
    <property name="ignore_points">0</property>
    <property name="shotcut:caption">Jawad_flute_totoro.mp4</property>
    <property name="shotcut:skipConvert">1</property>
    <property name="global_feed">1</property>
    <property name="xml">was here</property>
    <filter id="filter785" out="00:00:25.120000" in="00:00:23.480000">
      <property name="background">colour:0</property>
      <property name="mlt_service">affine</property>
      <property name="shotcut:filter">affineSizePosition</property>
      <property name="transition.fill">1</property>
      <property name="transition.distort">0</property>
      <property name="transition.rect">00:00:00.000000=1680.0 810.0 242.0 136.0 1;00:00:01.600000=1680.0 945.0 241.0 136.0 1</property>
      <property name="transition.valign">top</property>
      <property name="transition.halign">left</property>
      <property name="shotcut:animIn">00:00:01.640000</property>
      <property name="shotcut:animOut">00:00:00.000</property>
      <property name="transition.threads">0</property>
    </filter>
    <filter id="filter786" out="00:00:25.120000" in="00:00:23.480000">
      <property name="window">75</property>
      <property name="max_gain">20dB</property>
      <property name="mlt_service">volume</property>
      <property name="shotcut:filter">muteVolume</property>
      <property name="gain">0</property>
    </filter>
  </producer>
  <producer id="producer445" title="Anonymous Submission" in="00:00:00.000" out="00:03:15.240">
    <property name="length">00:03:15:07</property>
    <property name="eof">pause</property>
    <property name="resource">../../006 - Videos format youtube/Flutes/Jawad_flute_totoro.mp4</property>
    <property name="audio_index">1</property>
    <property name="video_index">0</property>
    <property name="mute_on_pause">0</property>
    <property name="mlt_service">avformat-novalidate</property>
    <property name="seekable">1</property>
    <property name="aspect_ratio">1</property>
    <property name="creation_time">2020-04-23T20:25:29</property>
    <property name="shotcut:hash">bc7b77ed976cd8d1d97d8c5d2bfce239</property>
    <property name="ignore_points">0</property>
    <property name="shotcut:caption">Jawad_flute_totoro.mp4</property>
    <property name="shotcut:skipConvert">1</property>
    <property name="global_feed">1</property>
    <property name="xml">was here</property>
    <filter id="filter787" out="00:00:26.800000" in="00:00:25.160000">
      <property name="background">colour:0</property>
      <property name="mlt_service">affine</property>
      <property name="shotcut:filter">affineSizePosition</property>
      <property name="transition.fill">1</property>
      <property name="transition.distort">0</property>
      <property name="transition.rect">00:00:00.000000=1680.0 135.0 242.0 136.0 1;00:00:01.600000=1680.0 270.0 241.0 136.0 1</property>
      <property name="transition.valign">top</property>
      <property name="transition.halign">left</property>
      <property name="shotcut:animIn">00:00:01.640000</property>
      <property name="shotcut:animOut">00:00:00.000</property>
      <property name="transition.threads">0</property>
    </filter>
    <filter id="filter788" out="00:00:26.800000" in="00:00:25.160000">
      <property name="window">75</property>
      <property name="max_gain">20dB</property>
      <property name="mlt_service">volume</property>
      <property name="shotcut:filter">muteVolume</property>
      <property name="gain">0</property>
    </filter>
  </producer>
  <producer id="producer446" title="Anonymous Submission" in="00:00:00.000" out="00:03:15.240">
    <property name="length">00:03:15:07</property>
    <property name="eof">pause</property>
    <property name="resource">../../006 - Videos format youtube/Flutes/Jawad_flute_totoro.mp4</property>
    <property name="audio_index">1</property>
    <property name="video_index">0</property>
    <property name="mute_on_pause">0</property>
    <property name="mlt_service">avformat-novalidate</property>
    <property name="seekable">1</property>
    <property name="aspect_ratio">1</property>
    <property name="creation_time">2020-04-23T20:25:29</property>
    <property name="shotcut:hash">bc7b77ed976cd8d1d97d8c5d2bfce239</property>
    <property name="ignore_points">0</property>
    <property name="shotcut:caption">Jawad_flute_totoro.mp4</property>
    <property name="shotcut:skipConvert">1</property>
    <property name="global_feed">1</property>
    <property name="xml">was here</property>
    <filter id="filter789" out="00:00:28.440000" in="00:00:26.840000">
      <property name="background">colour:0</property>
      <property name="mlt_service">affine</property>
      <property name="shotcut:filter">affineSizePosition</property>
      <property name="transition.fill">1</property>
      <property name="transition.distort">0</property>
      <property name="transition.rect">00:00:00.000000=1680.0 270.0 242.0 136.0 1;00:00:01.600000=1680.0 405.0 241.0 136.0 1</property>
      <property name="transition.valign">top</property>
      <property name="transition.halign">left</property>
      <property name="shotcut:animIn">00:00:01.640000</property>
      <property name="shotcut:animOut">00:00:00.000</property>
      <property name="transition.threads">0</property>
    </filter>
    <filter id="filter790" out="00:00:28.440000" in="00:00:26.840000">
      <property name="window">75</property>
      <property name="max_gain">20dB</property>
      <property name="mlt_service">volume</property>
      <property name="shotcut:filter">muteVolume</property>
      <property name="gain">0</property>
    </filter>
  </producer>
  <producer id="producer447" title="Anonymous Submission" in="00:00:00.000" out="00:03:15.240">
    <property name="length">00:03:15:07</property>
    <property name="eof">pause</property>
    <property name="resource">../../006 - Videos format youtube/Flutes/Jawad_flute_totoro.mp4</property>
    <property name="audio_index">1</property>
    <property name="video_index">0</property>
    <property name="mute_on_pause">0</property>
    <property name="mlt_service">avformat-novalidate</property>
    <property name="seekable">1</property>
    <property name="aspect_ratio">1</property>
    <property name="creation_time">2020-04-23T20:25:29</property>
    <property name="shotcut:hash">bc7b77ed976cd8d1d97d8c5d2bfce239</property>
    <property name="ignore_points">0</property>
    <property name="shotcut:caption">Jawad_flute_totoro.mp4</property>
    <property name="shotcut:skipConvert">1</property>
    <property name="global_feed">1</property>
    <property name="xml">was here</property>
    <filter id="filter791" out="00:00:30.120000" in="00:00:28.480000">
      <property name="background">colour:0</property>
      <property name="mlt_service">affine</property>
      <property name="shotcut:filter">affineSizePosition</property>
      <property name="transition.fill">1</property>
      <property name="transition.distort">0</property>
      <property name="transition.rect">00:00:00.000000=1680.0 405.0 242.0 136.0 1;00:00:01.600000=1680.0 540.0 241.0 136.0 1</property>
      <property name="transition.valign">top</property>
      <property name="transition.halign">left</property>
      <property name="shotcut:animIn">00:00:01.640000</property>
      <property name="shotcut:animOut">00:00:00.000</property>
      <property name="transition.threads">0</property>
    </filter>
    <filter id="filter792" out="00:00:30.120000" in="00:00:28.480000">
      <property name="window">75</property>
      <property name="max_gain">20dB</property>
      <property name="mlt_service">volume</property>
      <property name="shotcut:filter">muteVolume</property>
      <property name="gain">0</property>
    </filter>
  </producer>
  <producer id="producer448" title="Anonymous Submission" in="00:00:00.000" out="00:03:15.240">
    <property name="length">00:03:15:07</property>
    <property name="eof">pause</property>
    <property name="resource">../../006 - Videos format youtube/Flutes/Jawad_flute_totoro.mp4</property>
    <property name="audio_index">1</property>
    <property name="video_index">0</property>
    <property name="mute_on_pause">0</property>
    <property name="mlt_service">avformat-novalidate</property>
    <property name="seekable">1</property>
    <property name="aspect_ratio">1</property>
    <property name="creation_time">2020-04-23T20:25:29</property>
    <property name="shotcut:hash">bc7b77ed976cd8d1d97d8c5d2bfce239</property>
    <property name="ignore_points">0</property>
    <property name="shotcut:caption">Jawad_flute_totoro.mp4</property>
    <property name="shotcut:skipConvert">1</property>
    <property name="global_feed">1</property>
    <property name="xml">was here</property>
    <filter id="filter793" out="00:00:31.800000" in="00:00:30.160000">
      <property name="background">colour:0</property>
      <property name="mlt_service">affine</property>
      <property name="shotcut:filter">affineSizePosition</property>
      <property name="transition.fill">1</property>
      <property name="transition.distort">0</property>
      <property name="transition.rect">00:00:00.000000=1680.0 540.0 242.0 136.0 1;00:00:01.600000=1680.0 675.0 241.0 136.0 1</property>
      <property name="transition.valign">top</property>
      <property name="transition.halign">left</property>
      <property name="shotcut:animIn">00:00:01.640000</property>
      <property name="shotcut:animOut">00:00:00.000</property>
      <property name="transition.threads">0</property>
    </filter>
    <filter id="filter794" out="00:00:31.800000" in="00:00:30.160000">
      <property name="window">75</property>
      <property name="max_gain">20dB</property>
      <property name="mlt_service">volume</property>
      <property name="shotcut:filter">muteVolume</property>
      <property name="gain">0</property>
    </filter>
  </producer>
  <producer id="producer449" title="Anonymous Submission" in="00:00:00.000" out="00:03:15.240">
    <property name="length">00:03:15:07</property>
    <property name="eof">pause</property>
    <property name="resource">../../006 - Videos format youtube/Flutes/Jawad_flute_totoro.mp4</property>
    <property name="audio_index">1</property>
    <property name="video_index">0</property>
    <property name="mute_on_pause">0</property>
    <property name="mlt_service">avformat-novalidate</property>
    <property name="seekable">1</property>
    <property name="aspect_ratio">1</property>
    <property name="creation_time">2020-04-23T20:25:29</property>
    <property name="shotcut:hash">bc7b77ed976cd8d1d97d8c5d2bfce239</property>
    <property name="ignore_points">0</property>
    <property name="shotcut:caption">Jawad_flute_totoro.mp4</property>
    <property name="shotcut:skipConvert">1</property>
    <property name="global_feed">1</property>
    <property name="xml">was here</property>
    <filter id="filter795" out="00:00:33.440000" in="00:00:31.840000">
      <property name="background">colour:0</property>
      <property name="mlt_service">affine</property>
      <property name="shotcut:filter">affineSizePosition</property>
      <property name="transition.fill">1</property>
      <property name="transition.distort">0</property>
      <property name="transition.rect">00:00:00.000000=1680.0 675.0 242.0 136.0 1;00:00:01.600000=1680.0 810.0 241.0 136.0 1</property>
      <property name="transition.valign">top</property>
      <property name="transition.halign">left</property>
      <property name="shotcut:animIn">00:00:01.640000</property>
      <property name="shotcut:animOut">00:00:00.000</property>
      <property name="transition.threads">0</property>
    </filter>
    <filter id="filter796" out="00:00:33.440000" in="00:00:31.840000">
      <property name="window">75</property>
      <property name="max_gain">20dB</property>
      <property name="mlt_service">volume</property>
      <property name="shotcut:filter">muteVolume</property>
      <property name="gain">0</property>
    </filter>
  </producer>
  <producer id="producer450" title="Anonymous Submission" in="00:00:00.000" out="00:03:15.240">
    <property name="length">00:03:15:07</property>
    <property name="eof">pause</property>
    <property name="resource">../../006 - Videos format youtube/Flutes/Jawad_flute_totoro.mp4</property>
    <property name="audio_index">1</property>
    <property name="video_index">0</property>
    <property name="mute_on_pause">0</property>
    <property name="mlt_service">avformat-novalidate</property>
    <property name="seekable">1</property>
    <property name="aspect_ratio">1</property>
    <property name="creation_time">2020-04-23T20:25:29</property>
    <property name="shotcut:hash">bc7b77ed976cd8d1d97d8c5d2bfce239</property>
    <property name="ignore_points">0</property>
    <property name="shotcut:caption">Jawad_flute_totoro.mp4</property>
    <property name="shotcut:skipConvert">1</property>
    <property name="global_feed">1</property>
    <property name="xml">was here</property>
    <filter id="filter797" out="00:00:35.120000" in="00:00:33.480000">
      <property name="background">colour:0</property>
      <property name="mlt_service">affine</property>
      <property name="shotcut:filter">affineSizePosition</property>
      <property name="transition.fill">1</property>
      <property name="transition.distort">0</property>
      <property name="transition.rect">00:00:00.000000=1680.0 810.0 242.0 136.0 1;00:00:01.600000=1680.0 945.0 241.0 136.0 1</property>
      <property name="transition.valign">top</property>
      <property name="transition.halign">left</property>
      <property name="shotcut:animIn">00:00:01.640000</property>
      <property name="shotcut:animOut">00:00:00.000</property>
      <property name="transition.threads">0</property>
    </filter>
    <filter id="filter798" out="00:00:35.120000" in="00:00:33.480000">
      <property name="window">75</property>
      <property name="max_gain">20dB</property>
      <property name="mlt_service">volume</property>
      <property name="shotcut:filter">muteVolume</property>
      <property name="gain">0</property>
    </filter>
  </producer>
  <producer id="producer451" title="Anonymous Submission" in="00:00:00.000" out="00:03:15.240">
    <property name="length">00:03:15:07</property>
    <property name="eof">pause</property>
    <property name="resource">../../006 - Videos format youtube/Flutes/Jawad_flute_totoro.mp4</property>
    <property name="audio_index">1</property>
    <property name="video_index">0</property>
    <property name="mute_on_pause">0</property>
    <property name="mlt_service">avformat-novalidate</property>
    <property name="seekable">1</property>
    <property name="aspect_ratio">1</property>
    <property name="creation_time">2020-04-23T20:25:29</property>
    <property name="shotcut:hash">bc7b77ed976cd8d1d97d8c5d2bfce239</property>
    <property name="ignore_points">0</property>
    <property name="shotcut:caption">Jawad_flute_totoro.mp4</property>
    <property name="shotcut:skipConvert">1</property>
    <property name="global_feed">1</property>
    <property name="xml">was here</property>
    <filter id="filter799" out="00:00:36.800000" in="00:00:35.160000">
      <property name="background">colour:0</property>
      <property name="mlt_service">affine</property>
      <property name="shotcut:filter">affineSizePosition</property>
      <property name="transition.fill">1</property>
      <property name="transition.distort">0</property>
      <property name="transition.rect">00:00:00.000000=1680.0 135.0 242.0 136.0 1;00:00:01.600000=1680.0 270.0 241.0 136.0 1</property>
      <property name="transition.valign">top</property>
      <property name="transition.halign">left</property>
      <property name="shotcut:animIn">00:00:01.640000</property>
      <property name="shotcut:animOut">00:00:00.000</property>
      <property name="transition.threads">0</property>
    </filter>
    <filter id="filter800" out="00:00:36.800000" in="00:00:35.160000">
      <property name="window">75</property>
      <property name="max_gain">20dB</property>
      <property name="mlt_service">volume</property>
      <property name="shotcut:filter">muteVolume</property>
      <property name="gain">0</property>
    </filter>
  </producer>
  <producer id="producer452" title="Anonymous Submission" in="00:00:00.000" out="00:03:15.240">
    <property name="length">00:03:15:07</property>
    <property name="eof">pause</property>
    <property name="resource">../../006 - Videos format youtube/Flutes/Jawad_flute_totoro.mp4</property>
    <property name="audio_index">1</property>
    <property name="video_index">0</property>
    <property name="mute_on_pause">0</property>
    <property name="mlt_service">avformat-novalidate</property>
    <property name="seekable">1</property>
    <property name="aspect_ratio">1</property>
    <property name="creation_time">2020-04-23T20:25:29</property>
    <property name="shotcut:hash">bc7b77ed976cd8d1d97d8c5d2bfce239</property>
    <property name="ignore_points">0</property>
    <property name="shotcut:caption">Jawad_flute_totoro.mp4</property>
    <property name="shotcut:skipConvert">1</property>
    <property name="global_feed">1</property>
    <property name="xml">was here</property>
    <filter id="filter801" out="00:00:38.440000" in="00:00:36.840000">
      <property name="background">colour:0</property>
      <property name="mlt_service">affine</property>
      <property name="shotcut:filter">affineSizePosition</property>
      <property name="transition.fill">1</property>
      <property name="transition.distort">0</property>
      <property name="transition.rect">00:00:00.000000=1680.0 270.0 242.0 136.0 1;00:00:01.600000=1680.0 405.0 241.0 136.0 1</property>
      <property name="transition.valign">top</property>
      <property name="transition.halign">left</property>
      <property name="shotcut:animIn">00:00:01.640000</property>
      <property name="shotcut:animOut">00:00:00.000</property>
      <property name="transition.threads">0</property>
    </filter>
    <filter id="filter802" out="00:00:38.440000" in="00:00:36.840000">
      <property name="window">75</property>
      <property name="max_gain">20dB</property>
      <property name="mlt_service">volume</property>
      <property name="shotcut:filter">muteVolume</property>
      <property name="gain">0</property>
    </filter>
  </producer>
  <producer id="producer453" title="Anonymous Submission" in="00:00:00.000" out="00:03:15.240">
    <property name="length">00:03:15:07</property>
    <property name="eof">pause</property>
    <property name="resource">../../006 - Videos format youtube/Flutes/Jawad_flute_totoro.mp4</property>
    <property name="audio_index">1</property>
    <property name="video_index">0</property>
    <property name="mute_on_pause">0</property>
    <property name="mlt_service">avformat-novalidate</property>
    <property name="seekable">1</property>
    <property name="aspect_ratio">1</property>
    <property name="creation_time">2020-04-23T20:25:29</property>
    <property name="shotcut:hash">bc7b77ed976cd8d1d97d8c5d2bfce239</property>
    <property name="ignore_points">0</property>
    <property name="shotcut:caption">Jawad_flute_totoro.mp4</property>
    <property name="shotcut:skipConvert">1</property>
    <property name="global_feed">1</property>
    <property name="xml">was here</property>
    <filter id="filter803" out="00:00:40.120000" in="00:00:38.480000">
      <property name="background">colour:0</property>
      <property name="mlt_service">affine</property>
      <property name="shotcut:filter">affineSizePosition</property>
      <property name="transition.fill">1</property>
      <property name="transition.distort">0</property>
      <property name="transition.rect">00:00:00.000000=1680.0 405.0 242.0 136.0 1;00:00:01.600000=1680.0 540.0 241.0 136.0 1</property>
      <property name="transition.valign">top</property>
      <property name="transition.halign">left</property>
      <property name="shotcut:animIn">00:00:01.640000</property>
      <property name="shotcut:animOut">00:00:00.000</property>
      <property name="transition.threads">0</property>
    </filter>
    <filter id="filter804" out="00:00:40.120000" in="00:00:38.480000">
      <property name="window">75</property>
      <property name="max_gain">20dB</property>
      <property name="mlt_service">volume</property>
      <property name="shotcut:filter">muteVolume</property>
      <property name="gain">0</property>
    </filter>
  </producer>
  <producer id="producer454" title="Anonymous Submission" in="00:00:00.000" out="00:03:15.240">
    <property name="length">00:03:15:07</property>
    <property name="eof">pause</property>
    <property name="resource">../../006 - Videos format youtube/Flutes/Jawad_flute_totoro.mp4</property>
    <property name="audio_index">1</property>
    <property name="video_index">0</property>
    <property name="mute_on_pause">0</property>
    <property name="mlt_service">avformat-novalidate</property>
    <property name="seekable">1</property>
    <property name="aspect_ratio">1</property>
    <property name="creation_time">2020-04-23T20:25:29</property>
    <property name="shotcut:hash">bc7b77ed976cd8d1d97d8c5d2bfce239</property>
    <property name="ignore_points">0</property>
    <property name="shotcut:caption">Jawad_flute_totoro.mp4</property>
    <property name="shotcut:skipConvert">1</property>
    <property name="global_feed">1</property>
    <property name="xml">was here</property>
    <filter id="filter805" out="00:00:55.800000" in="00:00:40.160000">
      <property name="background">colour:0</property>
      <property name="mlt_service">affine</property>
      <property name="shotcut:filter">affineSizePosition</property>
      <property name="transition.fill">1</property>
      <property name="transition.distort">0</property>
      <property name="transition.rect">00:00:00.000000=1680.0 540.0 242.0 136.0 1;00:00:01.600000=1680.0 675.0 241.0 136.0 1</property>
      <property name="transition.valign">top</property>
      <property name="transition.halign">left</property>
      <property name="shotcut:animIn">00:00:01.640000</property>
      <property name="shotcut:animOut">00:00:00.000</property>
      <property name="transition.threads">0</property>
    </filter>
    <filter id="filter806" out="00:00:55.800000" in="00:00:40.160000">
      <property name="window">75</property>
      <property name="max_gain">20dB</property>
      <property name="mlt_service">volume</property>
      <property name="shotcut:filter">muteVolume</property>
      <property name="gain">0</property>
    </filter>
  </producer>
  <producer id="producer455" title="Anonymous Submission" in="00:00:00.000" out="00:03:15.240">
    <property name="length">00:03:15:07</property>
    <property name="eof">pause</property>
    <property name="resource">../../006 - Videos format youtube/Flutes/Jawad_flute_totoro.mp4</property>
    <property name="audio_index">1</property>
    <property name="video_index">0</property>
    <property name="mute_on_pause">0</property>
    <property name="mlt_service">avformat-novalidate</property>
    <property name="seekable">1</property>
    <property name="aspect_ratio">1</property>
    <property name="creation_time">2020-04-23T20:25:29</property>
    <property name="shotcut:hash">bc7b77ed976cd8d1d97d8c5d2bfce239</property>
    <property name="ignore_points">0</property>
    <property name="shotcut:caption">Jawad_flute_totoro.mp4</property>
    <property name="shotcut:skipConvert">1</property>
    <property name="global_feed">1</property>
    <property name="xml">was here</property>
    <filter id="filter807" out="00:01:03.800000" in="00:00:55.840000">
      <property name="background">colour:0</property>
      <property name="mlt_service">affine</property>
      <property name="shotcut:filter">affineSizePosition</property>
      <property name="transition.fill">1</property>
      <property name="transition.distort">0</property>
      <property name="transition.rect">274.0 925.0 275.0 155.0 1</property>
      <property name="transition.valign">top</property>
      <property name="transition.halign">left</property>
      <property name="shotcut:animIn">00:00:01.640000</property>
      <property name="shotcut:animOut">00:00:00.000</property>
      <property name="transition.threads">0</property>
    </filter>
    <filter id="filter808" out="00:01:03.800000" in="00:00:55.840000">
      <property name="window">75</property>
      <property name="max_gain">20dB</property>
      <property name="mlt_service">volume</property>
      <property name="shotcut:filter">muteVolume</property>
      <property name="gain">0</property>
    </filter>
  </producer>
  <producer id="producer456" title="Anonymous Submission" in="00:00:00.000" out="00:03:15.240">
    <property name="length">00:03:15:07</property>
    <property name="eof">pause</property>
    <property name="resource">../../006 - Videos format youtube/Flutes/Jawad_flute_totoro.mp4</property>
    <property name="audio_index">1</property>
    <property name="video_index">0</property>
    <property name="mute_on_pause">0</property>
    <property name="mlt_service">avformat-novalidate</property>
    <property name="seekable">1</property>
    <property name="aspect_ratio">1</property>
    <property name="creation_time">2020-04-23T20:25:29</property>
    <property name="shotcut:hash">bc7b77ed976cd8d1d97d8c5d2bfce239</property>
    <property name="ignore_points">0</property>
    <property name="shotcut:caption">Jawad_flute_totoro.mp4</property>
    <property name="shotcut:skipConvert">1</property>
    <property name="global_feed">1</property>
    <property name="xml">was here</property>
    <filter id="filter809" out="00:01:11.800000" in="00:01:03.840000">
      <property name="background">colour:0</property>
      <property name="mlt_service">affine</property>
      <property name="shotcut:filter">affineSizePosition</property>
      <property name="transition.fill">1</property>
      <property name="transition.distort">0</property>
      <property name="transition.rect">-548.0 -462.0 275.0 155.0 1</property>
      <property name="transition.valign">top</property>
      <property name="transition.halign">left</property>
      <property name="shotcut:animIn">00:00:01.640000</property>
      <property name="shotcut:animOut">00:00:00.000</property>
      <property name="transition.threads">0</property>
    </filter>
    <filter id="filter810" out="00:01:11.800000" in="00:01:03.840000">
      <property name="window">75</property>
      <property name="max_gain">20dB</property>
      <property name="mlt_service">volume</property>
      <property name="shotcut:filter">muteVolume</property>
      <property name="gain">0</property>
    </filter>
  </producer>
  <producer id="producer457" title="Anonymous Submission" in="00:00:00.000" out="00:03:15.240">
    <property name="length">00:03:15:07</property>
    <property name="eof">pause</property>
    <property name="resource">../../006 - Videos format youtube/Flutes/Jawad_flute_totoro.mp4</property>
    <property name="audio_index">1</property>
    <property name="video_index">0</property>
    <property name="mute_on_pause">0</property>
    <property name="mlt_service">avformat-novalidate</property>
    <property name="seekable">1</property>
    <property name="aspect_ratio">1</property>
    <property name="creation_time">2020-04-23T20:25:29</property>
    <property name="shotcut:hash">bc7b77ed976cd8d1d97d8c5d2bfce239</property>
    <property name="ignore_points">0</property>
    <property name="shotcut:caption">Jawad_flute_totoro.mp4</property>
    <property name="shotcut:skipConvert">1</property>
    <property name="global_feed">1</property>
    <property name="xml">was here</property>
    <filter id="filter811" out="00:01:18.800000" in="00:01:11.840000">
      <property name="background">colour:0</property>
      <property name="mlt_service">affine</property>
      <property name="shotcut:filter">affineSizePosition</property>
      <property name="transition.fill">1</property>
      <property name="transition.distort">0</property>
      <property name="transition.rect">1120.0 0.0 321.0 181.0 1</property>
      <property name="transition.valign">top</property>
      <property name="transition.halign">left</property>
      <property name="shotcut:animIn">00:00:01.640000</property>
      <property name="shotcut:animOut">00:00:00.000</property>
      <property name="transition.threads">0</property>
    </filter>
    <filter id="filter812" out="00:01:18.800000" in="00:01:11.840000">
      <property name="window">75</property>
      <property name="max_gain">20dB</property>
      <property name="mlt_service">volume</property>
      <property name="shotcut:filter">muteVolume</property>
      <property name="gain">0</property>
    </filter>
  </producer>
  <producer id="producer458" title="Anonymous Submission" in="00:00:00.000" out="00:03:15.240">
    <property name="length">00:03:15:07</property>
    <property name="eof">pause</property>
    <property name="resource">../../006 - Videos format youtube/Flutes/Jawad_flute_totoro.mp4</property>
    <property name="audio_index">1</property>
    <property name="video_index">0</property>
    <property name="mute_on_pause">0</property>
    <property name="mlt_service">avformat-novalidate</property>
    <property name="seekable">1</property>
    <property name="aspect_ratio">1</property>
    <property name="creation_time">2020-04-23T20:25:29</property>
    <property name="shotcut:hash">bc7b77ed976cd8d1d97d8c5d2bfce239</property>
    <property name="ignore_points">0</property>
    <property name="shotcut:caption">Jawad_flute_totoro.mp4</property>
    <property name="shotcut:skipConvert">1</property>
    <property name="global_feed">1</property>
    <property name="xml">was here</property>
    <filter id="filter813" out="00:01:26.800000" in="00:01:18.840000">
      <property name="background">colour:0</property>
      <property name="mlt_service">affine</property>
      <property name="shotcut:filter">affineSizePosition</property>
      <property name="transition.fill">1</property>
      <property name="transition.distort">0</property>
      <property name="transition.rect">-640.0 -360.0 321.0 181.0 1</property>
      <property name="transition.valign">top</property>
      <property name="transition.halign">left</property>
      <property name="shotcut:animIn">00:00:01.640000</property>
      <property name="shotcut:animOut">00:00:00.000</property>
      <property name="transition.threads">0</property>
    </filter>
    <filter id="filter814" out="00:01:26.800000" in="00:01:18.840000">
      <property name="window">75</property>
      <property name="max_gain">20dB</property>
      <property name="mlt_service">volume</property>
      <property name="shotcut:filter">muteVolume</property>
      <property name="gain">0</property>
    </filter>
  </producer>
  <producer id="producer459" title="Anonymous Submission" in="00:00:00.000" out="00:03:15.240">
    <property name="length">00:03:15:07</property>
    <property name="eof">pause</property>
    <property name="resource">../../006 - Videos format youtube/Flutes/Jawad_flute_totoro.mp4</property>
    <property name="audio_index">1</property>
    <property name="video_index">0</property>
    <property name="mute_on_pause">0</property>
    <property name="mlt_service">avformat-novalidate</property>
    <property name="seekable">1</property>
    <property name="aspect_ratio">1</property>
    <property name="creation_time">2020-04-23T20:25:29</property>
    <property name="shotcut:hash">bc7b77ed976cd8d1d97d8c5d2bfce239</property>
    <property name="ignore_points">0</property>
    <property name="shotcut:caption">Jawad_flute_totoro.mp4</property>
    <property name="shotcut:skipConvert">1</property>
    <property name="global_feed">1</property>
    <property name="xml">was here</property>
    <filter id="filter815" out="00:01:35.800000" in="00:01:26.840000">
      <property name="background">colour:0</property>
      <property name="mlt_service">affine</property>
      <property name="shotcut:filter">affineSizePosition</property>
      <property name="transition.fill">1</property>
      <property name="transition.distort">0</property>
      <property name="transition.rect">1371.0 462.0 275.0 155.0 1</property>
      <property name="transition.valign">top</property>
      <property name="transition.halign">left</property>
      <property name="shotcut:animIn">00:00:01.640000</property>
      <property name="shotcut:animOut">00:00:00.000</property>
      <property name="transition.threads">0</property>
    </filter>
    <filter id="filter816" out="00:01:35.800000" in="00:01:26.840000">
      <property name="window">75</property>
      <property name="max_gain">20dB</property>
      <property name="mlt_service">volume</property>
      <property name="shotcut:filter">muteVolume</property>
      <property name="gain">0</property>
    </filter>
  </producer>
  <producer id="producer460" title="Anonymous Submission" in="00:00:00.000" out="00:03:15.240">
    <property name="length">00:03:15:07</property>
    <property name="eof">pause</property>
    <property name="resource">../../006 - Videos format youtube/Flutes/Jawad_flute_totoro.mp4</property>
    <property name="audio_index">1</property>
    <property name="video_index">0</property>
    <property name="mute_on_pause">0</property>
    <property name="mlt_service">avformat-novalidate</property>
    <property name="seekable">1</property>
    <property name="aspect_ratio">1</property>
    <property name="creation_time">2020-04-23T20:25:29</property>
    <property name="shotcut:hash">bc7b77ed976cd8d1d97d8c5d2bfce239</property>
    <property name="ignore_points">0</property>
    <property name="shotcut:caption">Jawad_flute_totoro.mp4</property>
    <property name="shotcut:skipConvert">1</property>
    <property name="global_feed">1</property>
    <property name="xml">was here</property>
    <filter id="filter817" out="00:01:42.800000" in="00:01:35.840000">
      <property name="background">colour:0</property>
      <property name="mlt_service">affine</property>
      <property name="shotcut:filter">affineSizePosition</property>
      <property name="transition.fill">1</property>
      <property name="transition.distort">0</property>
      <property name="transition.rect">274.0 925.0 275.0 155.0 1</property>
      <property name="transition.valign">top</property>
      <property name="transition.halign">left</property>
      <property name="shotcut:animIn">00:00:01.640000</property>
      <property name="shotcut:animOut">00:00:00.000</property>
      <property name="transition.threads">0</property>
    </filter>
    <filter id="filter818" out="00:01:42.800000" in="00:01:35.840000">
      <property name="window">75</property>
      <property name="max_gain">20dB</property>
      <property name="mlt_service">volume</property>
      <property name="shotcut:filter">muteVolume</property>
      <property name="gain">0</property>
    </filter>
  </producer>
  <producer id="producer461" title="Anonymous Submission" in="00:00:00.000" out="00:03:15.240">
    <property name="length">00:03:15:07</property>
    <property name="eof">pause</property>
    <property name="resource">../../006 - Videos format youtube/Flutes/Jawad_flute_totoro.mp4</property>
    <property name="audio_index">1</property>
    <property name="video_index">0</property>
    <property name="mute_on_pause">0</property>
    <property name="mlt_service">avformat-novalidate</property>
    <property name="seekable">1</property>
    <property name="aspect_ratio">1</property>
    <property name="creation_time">2020-04-23T20:25:29</property>
    <property name="shotcut:hash">bc7b77ed976cd8d1d97d8c5d2bfce239</property>
    <property name="ignore_points">0</property>
    <property name="shotcut:caption">Jawad_flute_totoro.mp4</property>
    <property name="shotcut:skipConvert">1</property>
    <property name="global_feed">1</property>
    <property name="xml">was here</property>
    <filter id="filter819" out="00:03:15.240" in="00:01:42.840000">
      <property name="background">colour:0</property>
      <property name="mlt_service">affine</property>
      <property name="shotcut:filter">affineSizePosition</property>
      <property name="transition.fill">1</property>
      <property name="transition.distort">0</property>
      <property name="transition.rect">-640.0 -360.0 321.0 181.0 1</property>
      <property name="transition.valign">top</property>
      <property name="transition.halign">left</property>
      <property name="shotcut:animIn">00:00:01.640000</property>
      <property name="shotcut:animOut">00:00:00.000</property>
      <property name="transition.threads">0</property>
    </filter>
    <filter id="filter820" out="00:03:15.240" in="00:01:42.840000">
      <property name="window">75</property>
      <property name="max_gain">20dB</property>
      <property name="mlt_service">volume</property>
      <property name="shotcut:filter">muteVolume</property>
      <property name="gain">0</property>
    </filter>
  </producer>
  <playlist id="playlist25">
    <property name="shotcut:video">1</property>
    <property name="shotcut:name">Jawad</property>
    <property name="shotcut:lock">1</property>
    <blank length="00:00:08.160" />
    <entry producer="producer441" in="00:00:00.000" out="00:00:14.800000" />
  <entry producer="producer442" in="00:00:14.840000" out="00:00:21.800000" />
  <entry producer="producer443" in="00:00:21.840000" out="00:00:23.440000" />
  <entry producer="producer444" in="00:00:23.480000" out="00:00:25.120000" />
  <entry producer="producer445" in="00:00:25.160000" out="00:00:26.800000" />
  <entry producer="producer446" in="00:00:26.840000" out="00:00:28.440000" />
  <entry producer="producer447" in="00:00:28.480000" out="00:00:30.120000" />
  <entry producer="producer448" in="00:00:30.160000" out="00:00:31.800000" />
  <entry producer="producer449" in="00:00:31.840000" out="00:00:33.440000" />
  <entry producer="producer450" in="00:00:33.480000" out="00:00:35.120000" />
  <entry producer="producer451" in="00:00:35.160000" out="00:00:36.800000" />
  <entry producer="producer452" in="00:00:36.840000" out="00:00:38.440000" />
  <entry producer="producer453" in="00:00:38.480000" out="00:00:40.120000" />
  <entry producer="producer454" in="00:00:40.160000" out="00:00:55.800000" />
  <entry producer="producer455" in="00:00:55.840000" out="00:01:03.800000" />
  <entry producer="producer456" in="00:01:03.840000" out="00:01:11.800000" />
  <entry producer="producer457" in="00:01:11.840000" out="00:01:18.800000" />
  <entry producer="producer458" in="00:01:18.840000" out="00:01:26.800000" />
  <entry producer="producer459" in="00:01:26.840000" out="00:01:35.800000" />
  <entry producer="producer460" in="00:01:35.840000" out="00:01:42.800000" />
  <entry producer="producer461" in="00:01:42.840000" out="00:03:15.240" />
  </playlist>
  <producer id="producer462" title="Anonymous Submission" in="00:00:00.000" out="00:03:11.560">
    <property name="length">00:03:11:15</property>
    <property name="eof">pause</property>
    <property name="resource">../../006 - Videos format youtube/Hautbois/Aur&#233;lie_hautbois_totoro.mp4</property>
    <property name="audio_index">1</property>
    <property name="video_index">0</property>
    <property name="mute_on_pause">0</property>
    <property name="mlt_service">avformat-novalidate</property>
    <property name="seekable">1</property>
    <property name="aspect_ratio">1</property>
    <property name="shotcut:hash">eef028a0ef9d0a891fcda437adec93c6</property>
    <property name="ignore_points">0</property>
    <property name="shotcut:caption">Aur&#233;lie_hautbois_totoro.mp4</property>
    <property name="shotcut:skipConvert">1</property>
    <property name="global_feed">1</property>
    <property name="xml">was here</property>
    <filter id="filter821" out="00:00:15.000000">
      <property name="background">colour:0</property>
      <property name="mlt_service">affine</property>
      <property name="shotcut:filter">affineSizePosition</property>
      <property name="transition.fill">1</property>
      <property name="transition.distort">0</property>
      <property name="transition.rect">822.0 154.0 275.0 155.0 1</property>
      <property name="transition.valign">top</property>
      <property name="transition.halign">left</property>
      <property name="shotcut:animIn">00:00:00.000</property>
      <property name="shotcut:animOut">00:00:00.000</property>
      <property name="transition.threads">0</property>
    </filter>
  </producer>
  <producer id="producer463" title="Anonymous Submission" in="00:00:00.000" out="00:03:11.560">
    <property name="length">00:03:11:15</property>
    <property name="eof">pause</property>
    <property name="resource">../../006 - Videos format youtube/Hautbois/Aur&#233;lie_hautbois_totoro.mp4</property>
    <property name="audio_index">1</property>
    <property name="video_index">0</property>
    <property name="mute_on_pause">0</property>
    <property name="mlt_service">avformat-novalidate</property>
    <property name="seekable">1</property>
    <property name="aspect_ratio">1</property>
    <property name="shotcut:hash">eef028a0ef9d0a891fcda437adec93c6</property>
    <property name="ignore_points">0</property>
    <property name="shotcut:caption">Aur&#233;lie_hautbois_totoro.mp4</property>
    <property name="shotcut:skipConvert">1</property>
    <property name="global_feed">1</property>
    <property name="xml">was here</property>
    <filter id="filter822" out="00:00:22.000000" in="00:00:15.040000">
      <property name="background">colour:0</property>
      <property name="mlt_service">affine</property>
      <property name="shotcut:filter">affineSizePosition</property>
      <property name="transition.fill">1</property>
      <property name="transition.distort">0</property>
      <property name="transition.rect">00:00:00.000000=822.0 154.0 276.0 155.0 1;00:00:00.440000=0.0 462.0 275.0 155.0 1</property>
      <property name="transition.valign">top</property>
      <property name="transition.halign">left</property>
      <property name="shotcut:animIn">00:00:00.480000</property>
      <property name="shotcut:animOut">00:00:00.000</property>
      <property name="transition.threads">0</property>
    </filter>
  </producer>
  <producer id="producer464" title="Anonymous Submission" in="00:00:00.000" out="00:03:11.560">
    <property name="length">00:03:11:15</property>
    <property name="eof">pause</property>
    <property name="resource">../../006 - Videos format youtube/Hautbois/Aur&#233;lie_hautbois_totoro.mp4</property>
    <property name="audio_index">1</property>
    <property name="video_index">0</property>
    <property name="mute_on_pause">0</property>
    <property name="mlt_service">avformat-novalidate</property>
    <property name="seekable">1</property>
    <property name="aspect_ratio">1</property>
    <property name="shotcut:hash">eef028a0ef9d0a891fcda437adec93c6</property>
    <property name="ignore_points">0</property>
    <property name="shotcut:caption">Aur&#233;lie_hautbois_totoro.mp4</property>
    <property name="shotcut:skipConvert">1</property>
    <property name="global_feed">1</property>
    <property name="xml">was here</property>
    <filter id="filter823" out="00:00:56.000000" in="00:00:22.040000">
      <property name="background">colour:0</property>
      <property name="mlt_service">affine</property>
      <property name="shotcut:filter">affineSizePosition</property>
      <property name="transition.fill">1</property>
      <property name="transition.distort">0</property>
      <property name="transition.rect">-480.0 -270.0 241.0 136.0 1</property>
      <property name="transition.valign">top</property>
      <property name="transition.halign">left</property>
      <property name="shotcut:animIn">00:00:00.480000</property>
      <property name="shotcut:animOut">00:00:00.000</property>
      <property name="transition.threads">0</property>
    </filter>
  </producer>
  <producer id="producer465" title="Anonymous Submission" in="00:00:00.000" out="00:03:11.560">
    <property name="length">00:03:11:15</property>
    <property name="eof">pause</property>
    <property name="resource">../../006 - Videos format youtube/Hautbois/Aur&#233;lie_hautbois_totoro.mp4</property>
    <property name="audio_index">1</property>
    <property name="video_index">0</property>
    <property name="mute_on_pause">0</property>
    <property name="mlt_service">avformat-novalidate</property>
    <property name="seekable">1</property>
    <property name="aspect_ratio">1</property>
    <property name="shotcut:hash">eef028a0ef9d0a891fcda437adec93c6</property>
    <property name="ignore_points">0</property>
    <property name="shotcut:caption">Aur&#233;lie_hautbois_totoro.mp4</property>
    <property name="shotcut:skipConvert">1</property>
    <property name="global_feed">1</property>
    <property name="xml">was here</property>
    <filter id="filter824" out="00:01:04.000000" in="00:00:56.040000">
      <property name="background">colour:0</property>
      <property name="mlt_service">affine</property>
      <property name="shotcut:filter">affineSizePosition</property>
      <property name="transition.fill">1</property>
      <property name="transition.distort">0</property>
      <property name="transition.rect">822.0 154.0 275.0 155.0 1</property>
      <property name="transition.valign">top</property>
      <property name="transition.halign">left</property>
      <property name="shotcut:animIn">00:00:00.480000</property>
      <property name="shotcut:animOut">00:00:00.000</property>
      <property name="transition.threads">0</property>
    </filter>
  </producer>
  <producer id="producer466" title="Anonymous Submission" in="00:00:00.000" out="00:03:11.560">
    <property name="length">00:03:11:15</property>
    <property name="eof">pause</property>
    <property name="resource">../../006 - Videos format youtube/Hautbois/Aur&#233;lie_hautbois_totoro.mp4</property>
    <property name="audio_index">1</property>
    <property name="video_index">0</property>
    <property name="mute_on_pause">0</property>
    <property name="mlt_service">avformat-novalidate</property>
    <property name="seekable">1</property>
    <property name="aspect_ratio">1</property>
    <property name="shotcut:hash">eef028a0ef9d0a891fcda437adec93c6</property>
    <property name="ignore_points">0</property>
    <property name="shotcut:caption">Aur&#233;lie_hautbois_totoro.mp4</property>
    <property name="shotcut:skipConvert">1</property>
    <property name="global_feed">1</property>
    <property name="xml">was here</property>
    <filter id="filter825" out="00:01:12.000000" in="00:01:04.040000">
      <property name="background">colour:0</property>
      <property name="mlt_service">affine</property>
      <property name="shotcut:filter">affineSizePosition</property>
      <property name="transition.fill">1</property>
      <property name="transition.distort">0</property>
      <property name="transition.rect">1645.0 462.0 275.0 155.0 1</property>
      <property name="transition.valign">top</property>
      <property name="transition.halign">left</property>
      <property name="shotcut:animIn">00:00:00.480000</property>
      <property name="shotcut:animOut">00:00:00.000</property>
      <property name="transition.threads">0</property>
    </filter>
  </producer>
  <producer id="producer467" title="Anonymous Submission" in="00:00:00.000" out="00:03:11.560">
    <property name="length">00:03:11:15</property>
    <property name="eof">pause</property>
    <property name="resource">../../006 - Videos format youtube/Hautbois/Aur&#233;lie_hautbois_totoro.mp4</property>
    <property name="audio_index">1</property>
    <property name="video_index">0</property>
    <property name="mute_on_pause">0</property>
    <property name="mlt_service">avformat-novalidate</property>
    <property name="seekable">1</property>
    <property name="aspect_ratio">1</property>
    <property name="shotcut:hash">eef028a0ef9d0a891fcda437adec93c6</property>
    <property name="ignore_points">0</property>
    <property name="shotcut:caption">Aur&#233;lie_hautbois_totoro.mp4</property>
    <property name="shotcut:skipConvert">1</property>
    <property name="global_feed">1</property>
    <property name="xml">was here</property>
    <filter id="filter826" out="00:01:19.000000" in="00:01:12.040000">
      <property name="background">colour:0</property>
      <property name="mlt_service">affine</property>
      <property name="shotcut:filter">affineSizePosition</property>
      <property name="transition.fill">1</property>
      <property name="transition.distort">0</property>
      <property name="transition.rect">799.0 0.0 321.0 181.0 1</property>
      <property name="transition.valign">top</property>
      <property name="transition.halign">left</property>
      <property name="shotcut:animIn">00:00:00.480000</property>
      <property name="shotcut:animOut">00:00:00.000</property>
      <property name="transition.threads">0</property>
    </filter>
  </producer>
  <producer id="producer468" title="Anonymous Submission" in="00:00:00.000" out="00:03:11.560">
    <property name="length">00:03:11:15</property>
    <property name="eof">pause</property>
    <property name="resource">../../006 - Videos format youtube/Hautbois/Aur&#233;lie_hautbois_totoro.mp4</property>
    <property name="audio_index">1</property>
    <property name="video_index">0</property>
    <property name="mute_on_pause">0</property>
    <property name="mlt_service">avformat-novalidate</property>
    <property name="seekable">1</property>
    <property name="aspect_ratio">1</property>
    <property name="shotcut:hash">eef028a0ef9d0a891fcda437adec93c6</property>
    <property name="ignore_points">0</property>
    <property name="shotcut:caption">Aur&#233;lie_hautbois_totoro.mp4</property>
    <property name="shotcut:skipConvert">1</property>
    <property name="global_feed">1</property>
    <property name="xml">was here</property>
    <filter id="filter827" out="00:01:27.000000" in="00:01:19.040000">
      <property name="background">colour:0</property>
      <property name="mlt_service">affine</property>
      <property name="shotcut:filter">affineSizePosition</property>
      <property name="transition.fill">1</property>
      <property name="transition.distort">0</property>
      <property name="transition.rect">1600.0 900.0 321.0 181.0 1</property>
      <property name="transition.valign">top</property>
      <property name="transition.halign">left</property>
      <property name="shotcut:animIn">00:00:00.480000</property>
      <property name="shotcut:animOut">00:00:00.000</property>
      <property name="transition.threads">0</property>
    </filter>
  </producer>
  <producer id="producer469" title="Anonymous Submission" in="00:00:00.000" out="00:03:11.560">
    <property name="length">00:03:11:15</property>
    <property name="eof">pause</property>
    <property name="resource">../../006 - Videos format youtube/Hautbois/Aur&#233;lie_hautbois_totoro.mp4</property>
    <property name="audio_index">1</property>
    <property name="video_index">0</property>
    <property name="mute_on_pause">0</property>
    <property name="mlt_service">avformat-novalidate</property>
    <property name="seekable">1</property>
    <property name="aspect_ratio">1</property>
    <property name="shotcut:hash">eef028a0ef9d0a891fcda437adec93c6</property>
    <property name="ignore_points">0</property>
    <property name="shotcut:caption">Aur&#233;lie_hautbois_totoro.mp4</property>
    <property name="shotcut:skipConvert">1</property>
    <property name="global_feed">1</property>
    <property name="xml">was here</property>
    <filter id="filter828" out="00:01:36.000000" in="00:01:27.040000">
      <property name="background">colour:0</property>
      <property name="mlt_service">affine</property>
      <property name="shotcut:filter">affineSizePosition</property>
      <property name="transition.fill">1</property>
      <property name="transition.distort">0</property>
      <property name="transition.rect">0.0 925.0 275.0 155.0 1</property>
      <property name="transition.valign">top</property>
      <property name="transition.halign">left</property>
      <property name="shotcut:animIn">00:00:00.480000</property>
      <property name="shotcut:animOut">00:00:00.000</property>
      <property name="transition.threads">0</property>
    </filter>
  </producer>
  <producer id="producer470" title="Anonymous Submission" in="00:00:00.000" out="00:03:11.560">
    <property name="length">00:03:11:15</property>
    <property name="eof">pause</property>
    <property name="resource">../../006 - Videos format youtube/Hautbois/Aur&#233;lie_hautbois_totoro.mp4</property>
    <property name="audio_index">1</property>
    <property name="video_index">0</property>
    <property name="mute_on_pause">0</property>
    <property name="mlt_service">avformat-novalidate</property>
    <property name="seekable">1</property>
    <property name="aspect_ratio">1</property>
    <property name="shotcut:hash">eef028a0ef9d0a891fcda437adec93c6</property>
    <property name="ignore_points">0</property>
    <property name="shotcut:caption">Aur&#233;lie_hautbois_totoro.mp4</property>
    <property name="shotcut:skipConvert">1</property>
    <property name="global_feed">1</property>
    <property name="xml">was here</property>
    <filter id="filter829" out="00:01:43.000000" in="00:01:36.040000">
      <property name="background">colour:0</property>
      <property name="mlt_service">affine</property>
      <property name="shotcut:filter">affineSizePosition</property>
      <property name="transition.fill">1</property>
      <property name="transition.distort">0</property>
      <property name="transition.rect">-548.0 -308.0 275.0 155.0 1</property>
      <property name="transition.valign">top</property>
      <property name="transition.halign">left</property>
      <property name="shotcut:animIn">00:00:00.480000</property>
      <property name="shotcut:animOut">00:00:00.000</property>
      <property name="transition.threads">0</property>
    </filter>
  </producer>
  <producer id="producer471" title="Anonymous Submission" in="00:00:00.000" out="00:03:11.560">
    <property name="length">00:03:11:15</property>
    <property name="eof">pause</property>
    <property name="resource">../../006 - Videos format youtube/Hautbois/Aur&#233;lie_hautbois_totoro.mp4</property>
    <property name="audio_index">1</property>
    <property name="video_index">0</property>
    <property name="mute_on_pause">0</property>
    <property name="mlt_service">avformat-novalidate</property>
    <property name="seekable">1</property>
    <property name="aspect_ratio">1</property>
    <property name="shotcut:hash">eef028a0ef9d0a891fcda437adec93c6</property>
    <property name="ignore_points">0</property>
    <property name="shotcut:caption">Aur&#233;lie_hautbois_totoro.mp4</property>
    <property name="shotcut:skipConvert">1</property>
    <property name="global_feed">1</property>
    <property name="xml">was here</property>
    <filter id="filter830" out="00:03:11.560000" in="00:01:43.040000">
      <property name="background">colour:0</property>
      <property name="mlt_service">affine</property>
      <property name="shotcut:filter">affineSizePosition</property>
      <property name="transition.fill">1</property>
      <property name="transition.distort">0</property>
      <property name="transition.rect">640.0 720.0 641.0 361.0 1</property>
      <property name="transition.valign">top</property>
      <property name="transition.halign">left</property>
      <property name="shotcut:animIn">00:00:00.480000</property>
      <property name="shotcut:animOut">00:00:00.000</property>
      <property name="transition.threads">0</property>
    </filter>
  </producer>
  <playlist id="playlist26">
    <property name="shotcut:video">1</property>
    <property name="shotcut:name">Aur&#233;lie_hautbois</property>
    <property name="shotcut:lock">1</property>
    <blank length="00:00:07.960" />
    <entry producer="producer462" in="00:00:00.000" out="00:00:15.000000" />
    <entry producer="producer463" in="00:00:15.040000" out="00:00:22.000000" />
    <entry producer="producer464" in="00:00:22.040000" out="00:00:56.000000" />
    <entry producer="producer465" in="00:00:56.040000" out="00:01:04.000000" />
    <entry producer="producer466" in="00:01:04.040000" out="00:01:12.000000" />
    <entry producer="producer467" in="00:01:12.040000" out="00:01:19.000000" />
    <entry producer="producer468" in="00:01:19.040000" out="00:01:27.000000" />
    <entry producer="producer469" in="00:01:27.040000" out="00:01:36.000000" />
    <entry producer="producer470" in="00:01:36.040000" out="00:01:43.000000" />
    <entry producer="producer471" in="00:01:43.040000" out="00:03:11.560000" />
    <filter id="filter831" out="00:03:35.640">
      <property name="window">75</property>
      <property name="max_gain">20dB</property>
      <property name="level">-5</property>
      <property name="mlt_service">volume</property>
    </filter>
  </playlist>
  <producer id="producer472" title="Anonymous Submission" in="00:00:00.000" out="00:03:26.320">
    <property name="length">00:03:26:09</property>
    <property name="eof">pause</property>
    <property name="resource">../../006 - Videos format youtube/Hautbois/Veronique_hautbois_totoro.mp4</property>
    <property name="audio_index">1</property>
    <property name="video_index">0</property>
    <property name="mute_on_pause">0</property>
    <property name="mlt_service">avformat-novalidate</property>
    <property name="seekable">1</property>
    <property name="aspect_ratio">1</property>
    <property name="creation_time">2020-04-17T16:41:56</property>
    <property name="shotcut:hash">506874eb3b33a62e78b559d4ce6a6bec</property>
    <property name="ignore_points">0</property>
    <property name="shotcut:caption">Veronique_hautbois_totoro.mp4</property>
    <property name="shotcut:skipConvert">1</property>
    <property name="global_feed">1</property>
    <property name="xml">was here</property>
    <filter id="filter832" out="00:00:13.680000">
      <property name="background">colour:0</property>
      <property name="mlt_service">affine</property>
      <property name="shotcut:filter">affineSizePosition</property>
      <property name="transition.fill">1</property>
      <property name="transition.distort">0</property>
      <property name="transition.rect">0.0 462.0 275.0 155.0 1</property>
      <property name="transition.valign">top</property>
      <property name="transition.halign">left</property>
      <property name="shotcut:animIn">00:00:00.000</property>
      <property name="shotcut:animOut">00:00:00.000</property>
      <property name="transition.threads">0</property>
    </filter>
  </producer>
  <producer id="producer473" title="Anonymous Submission" in="00:00:00.000" out="00:03:26.320">
    <property name="length">00:03:26:09</property>
    <property name="eof">pause</property>
    <property name="resource">../../006 - Videos format youtube/Hautbois/Veronique_hautbois_totoro.mp4</property>
    <property name="audio_index">1</property>
    <property name="video_index">0</property>
    <property name="mute_on_pause">0</property>
    <property name="mlt_service">avformat-novalidate</property>
    <property name="seekable">1</property>
    <property name="aspect_ratio">1</property>
    <property name="creation_time">2020-04-17T16:41:56</property>
    <property name="shotcut:hash">506874eb3b33a62e78b559d4ce6a6bec</property>
    <property name="ignore_points">0</property>
    <property name="shotcut:caption">Veronique_hautbois_totoro.mp4</property>
    <property name="shotcut:skipConvert">1</property>
    <property name="global_feed">1</property>
    <property name="xml">was here</property>
    <filter id="filter833" out="00:00:20.680000" in="00:00:13.720000">
      <property name="background">colour:0</property>
      <property name="mlt_service">affine</property>
      <property name="shotcut:filter">affineSizePosition</property>
      <property name="transition.fill">1</property>
      <property name="transition.distort">0</property>
      <property name="transition.rect">00:00:00.000000=0.0 462.0 276.0 155.0 1;00:00:00.440000=822.0 154.0 275.0 155.0 1</property>
      <property name="transition.valign">top</property>
      <property name="transition.halign">left</property>
      <property name="shotcut:animIn">00:00:00.480000</property>
      <property name="shotcut:animOut">00:00:00.000</property>
      <property name="transition.threads">0</property>
    </filter>
  </producer>
  <producer id="producer474" title="Anonymous Submission" in="00:00:00.000" out="00:03:26.320">
    <property name="length">00:03:26:09</property>
    <property name="eof">pause</property>
    <property name="resource">../../006 - Videos format youtube/Hautbois/Veronique_hautbois_totoro.mp4</property>
    <property name="audio_index">1</property>
    <property name="video_index">0</property>
    <property name="mute_on_pause">0</property>
    <property name="mlt_service">avformat-novalidate</property>
    <property name="seekable">1</property>
    <property name="aspect_ratio">1</property>
    <property name="creation_time">2020-04-17T16:41:56</property>
    <property name="shotcut:hash">506874eb3b33a62e78b559d4ce6a6bec</property>
    <property name="ignore_points">0</property>
    <property name="shotcut:caption">Veronique_hautbois_totoro.mp4</property>
    <property name="shotcut:skipConvert">1</property>
    <property name="global_feed">1</property>
    <property name="xml">was here</property>
    <filter id="filter834" out="00:00:54.680000" in="00:00:20.720000">
      <property name="background">colour:0</property>
      <property name="mlt_service">affine</property>
      <property name="shotcut:filter">affineSizePosition</property>
      <property name="transition.fill">1</property>
      <property name="transition.distort">0</property>
      <property name="transition.rect">-480.0 -270.0 241.0 136.0 1</property>
      <property name="transition.valign">top</property>
      <property name="transition.halign">left</property>
      <property name="shotcut:animIn">00:00:00.480000</property>
      <property name="shotcut:animOut">00:00:00.000</property>
      <property name="transition.threads">0</property>
    </filter>
  </producer>
  <producer id="producer475" title="Anonymous Submission" in="00:00:00.000" out="00:03:26.320">
    <property name="length">00:03:26:09</property>
    <property name="eof">pause</property>
    <property name="resource">../../006 - Videos format youtube/Hautbois/Veronique_hautbois_totoro.mp4</property>
    <property name="audio_index">1</property>
    <property name="video_index">0</property>
    <property name="mute_on_pause">0</property>
    <property name="mlt_service">avformat-novalidate</property>
    <property name="seekable">1</property>
    <property name="aspect_ratio">1</property>
    <property name="creation_time">2020-04-17T16:41:56</property>
    <property name="shotcut:hash">506874eb3b33a62e78b559d4ce6a6bec</property>
    <property name="ignore_points">0</property>
    <property name="shotcut:caption">Veronique_hautbois_totoro.mp4</property>
    <property name="shotcut:skipConvert">1</property>
    <property name="global_feed">1</property>
    <property name="xml">was here</property>
    <filter id="filter835" out="00:01:02.680000" in="00:00:54.720000">
      <property name="background">colour:0</property>
      <property name="mlt_service">affine</property>
      <property name="shotcut:filter">affineSizePosition</property>
      <property name="transition.fill">1</property>
      <property name="transition.distort">0</property>
      <property name="transition.rect">0.0 462.0 275.0 155.0 1</property>
      <property name="transition.valign">top</property>
      <property name="transition.halign">left</property>
      <property name="shotcut:animIn">00:00:00.480000</property>
      <property name="shotcut:animOut">00:00:00.000</property>
      <property name="transition.threads">0</property>
    </filter>
  </producer>
  <producer id="producer476" title="Anonymous Submission" in="00:00:00.000" out="00:03:26.320">
    <property name="length">00:03:26:09</property>
    <property name="eof">pause</property>
    <property name="resource">../../006 - Videos format youtube/Hautbois/Veronique_hautbois_totoro.mp4</property>
    <property name="audio_index">1</property>
    <property name="video_index">0</property>
    <property name="mute_on_pause">0</property>
    <property name="mlt_service">avformat-novalidate</property>
    <property name="seekable">1</property>
    <property name="aspect_ratio">1</property>
    <property name="creation_time">2020-04-17T16:41:56</property>
    <property name="shotcut:hash">506874eb3b33a62e78b559d4ce6a6bec</property>
    <property name="ignore_points">0</property>
    <property name="shotcut:caption">Veronique_hautbois_totoro.mp4</property>
    <property name="shotcut:skipConvert">1</property>
    <property name="global_feed">1</property>
    <property name="xml">was here</property>
    <filter id="filter836" out="00:01:10.680000" in="00:01:02.720000">
      <property name="background">colour:0</property>
      <property name="mlt_service">affine</property>
      <property name="shotcut:filter">affineSizePosition</property>
      <property name="transition.fill">1</property>
      <property name="transition.distort">0</property>
      <property name="transition.rect">822.0 617.0 275.0 155.0 1</property>
      <property name="transition.valign">top</property>
      <property name="transition.halign">left</property>
      <property name="shotcut:animIn">00:00:00.480000</property>
      <property name="shotcut:animOut">00:00:00.000</property>
      <property name="transition.threads">0</property>
    </filter>
  </producer>
  <producer id="producer477" title="Anonymous Submission" in="00:00:00.000" out="00:03:26.320">
    <property name="length">00:03:26:09</property>
    <property name="eof">pause</property>
    <property name="resource">../../006 - Videos format youtube/Hautbois/Veronique_hautbois_totoro.mp4</property>
    <property name="audio_index">1</property>
    <property name="video_index">0</property>
    <property name="mute_on_pause">0</property>
    <property name="mlt_service">avformat-novalidate</property>
    <property name="seekable">1</property>
    <property name="aspect_ratio">1</property>
    <property name="creation_time">2020-04-17T16:41:56</property>
    <property name="shotcut:hash">506874eb3b33a62e78b559d4ce6a6bec</property>
    <property name="ignore_points">0</property>
    <property name="shotcut:caption">Veronique_hautbois_totoro.mp4</property>
    <property name="shotcut:skipConvert">1</property>
    <property name="global_feed">1</property>
    <property name="xml">was here</property>
    <filter id="filter837" out="00:01:17.680000" in="00:01:10.720000">
      <property name="background">colour:0</property>
      <property name="mlt_service">affine</property>
      <property name="shotcut:filter">affineSizePosition</property>
      <property name="transition.fill">1</property>
      <property name="transition.distort">0</property>
      <property name="transition.rect">4319.0 0.0 321.0 181.0 1</property>
      <property name="transition.valign">top</property>
      <property name="transition.halign">left</property>
      <property name="shotcut:animIn">00:00:00.480000</property>
      <property name="shotcut:animOut">00:00:00.000</property>
      <property name="transition.threads">0</property>
    </filter>
  </producer>
  <producer id="producer478" title="Anonymous Submission" in="00:00:00.000" out="00:03:26.320">
    <property name="length">00:03:26:09</property>
    <property name="eof">pause</property>
    <property name="resource">../../006 - Videos format youtube/Hautbois/Veronique_hautbois_totoro.mp4</property>
    <property name="audio_index">1</property>
    <property name="video_index">0</property>
    <property name="mute_on_pause">0</property>
    <property name="mlt_service">avformat-novalidate</property>
    <property name="seekable">1</property>
    <property name="aspect_ratio">1</property>
    <property name="creation_time">2020-04-17T16:41:56</property>
    <property name="shotcut:hash">506874eb3b33a62e78b559d4ce6a6bec</property>
    <property name="ignore_points">0</property>
    <property name="shotcut:caption">Veronique_hautbois_totoro.mp4</property>
    <property name="shotcut:skipConvert">1</property>
    <property name="global_feed">1</property>
    <property name="xml">was here</property>
    <filter id="filter838" out="00:01:25.680000" in="00:01:17.720000">
      <property name="background">colour:0</property>
      <property name="mlt_service">affine</property>
      <property name="shotcut:filter">affineSizePosition</property>
      <property name="transition.fill">1</property>
      <property name="transition.distort">0</property>
      <property name="transition.rect">960.0 900.0 321.0 181.0 1</property>
      <property name="transition.valign">top</property>
      <property name="transition.halign">left</property>
      <property name="shotcut:animIn">00:00:00.480000</property>
      <property name="shotcut:animOut">00:00:00.000</property>
      <property name="transition.threads">0</property>
    </filter>
  </producer>
  <producer id="producer479" title="Anonymous Submission" in="00:00:00.000" out="00:03:26.320">
    <property name="length">00:03:26:09</property>
    <property name="eof">pause</property>
    <property name="resource">../../006 - Videos format youtube/Hautbois/Veronique_hautbois_totoro.mp4</property>
    <property name="audio_index">1</property>
    <property name="video_index">0</property>
    <property name="mute_on_pause">0</property>
    <property name="mlt_service">avformat-novalidate</property>
    <property name="seekable">1</property>
    <property name="aspect_ratio">1</property>
    <property name="creation_time">2020-04-17T16:41:56</property>
    <property name="shotcut:hash">506874eb3b33a62e78b559d4ce6a6bec</property>
    <property name="ignore_points">0</property>
    <property name="shotcut:caption">Veronique_hautbois_totoro.mp4</property>
    <property name="shotcut:skipConvert">1</property>
    <property name="global_feed">1</property>
    <property name="xml">was here</property>
    <filter id="filter839" out="00:01:34.680000" in="00:01:25.720000">
      <property name="background">colour:0</property>
      <property name="mlt_service">affine</property>
      <property name="shotcut:filter">affineSizePosition</property>
      <property name="transition.fill">1</property>
      <property name="transition.distort">0</property>
      <property name="transition.rect">-822.0 -462.0 275.0 155.0 1</property>
      <property name="transition.valign">top</property>
      <property name="transition.halign">left</property>
      <property name="shotcut:animIn">00:00:00.480000</property>
      <property name="shotcut:animOut">00:00:00.000</property>
      <property name="transition.threads">0</property>
    </filter>
  </producer>
  <producer id="producer480" title="Anonymous Submission" in="00:00:00.000" out="00:03:26.320">
    <property name="length">00:03:26:09</property>
    <property name="eof">pause</property>
    <property name="resource">../../006 - Videos format youtube/Hautbois/Veronique_hautbois_totoro.mp4</property>
    <property name="audio_index">1</property>
    <property name="video_index">0</property>
    <property name="mute_on_pause">0</property>
    <property name="mlt_service">avformat-novalidate</property>
    <property name="seekable">1</property>
    <property name="aspect_ratio">1</property>
    <property name="creation_time">2020-04-17T16:41:56</property>
    <property name="shotcut:hash">506874eb3b33a62e78b559d4ce6a6bec</property>
    <property name="ignore_points">0</property>
    <property name="shotcut:caption">Veronique_hautbois_totoro.mp4</property>
    <property name="shotcut:skipConvert">1</property>
    <property name="global_feed">1</property>
    <property name="xml">was here</property>
    <filter id="filter840" out="00:01:41.680000" in="00:01:34.720000">
      <property name="background">colour:0</property>
      <property name="mlt_service">affine</property>
      <property name="shotcut:filter">affineSizePosition</property>
      <property name="transition.fill">1</property>
      <property name="transition.distort">0</property>
      <property name="transition.rect">0.0 462.0 275.0 155.0 1</property>
      <property name="transition.valign">top</property>
      <property name="transition.halign">left</property>
      <property name="shotcut:animIn">00:00:00.480000</property>
      <property name="shotcut:animOut">00:00:00.000</property>
      <property name="transition.threads">0</property>
    </filter>
  </producer>
  <producer id="producer481" title="Anonymous Submission" in="00:00:00.000" out="00:03:26.320">
    <property name="length">00:03:26:09</property>
    <property name="eof">pause</property>
    <property name="resource">../../006 - Videos format youtube/Hautbois/Veronique_hautbois_totoro.mp4</property>
    <property name="audio_index">1</property>
    <property name="video_index">0</property>
    <property name="mute_on_pause">0</property>
    <property name="mlt_service">avformat-novalidate</property>
    <property name="seekable">1</property>
    <property name="aspect_ratio">1</property>
    <property name="creation_time">2020-04-17T16:41:56</property>
    <property name="shotcut:hash">506874eb3b33a62e78b559d4ce6a6bec</property>
    <property name="ignore_points">0</property>
    <property name="shotcut:caption">Veronique_hautbois_totoro.mp4</property>
    <property name="shotcut:skipConvert">1</property>
    <property name="global_feed">1</property>
    <property name="xml">was here</property>
    <filter id="filter841" out="00:03:26.320000" in="00:01:41.720000">
      <property name="background">colour:0</property>
      <property name="mlt_service">affine</property>
      <property name="shotcut:filter">affineSizePosition</property>
      <property name="transition.fill">1</property>
      <property name="transition.distort">0</property>
      <property name="transition.rect">4319.0 0.0 321.0 181.0 1</property>
      <property name="transition.valign">top</property>
      <property name="transition.halign">left</property>
      <property name="shotcut:animIn">00:00:00.480000</property>
      <property name="shotcut:animOut">00:00:00.000</property>
      <property name="transition.threads">0</property>
    </filter>
  </producer>
  <playlist id="playlist27">
    <property name="shotcut:video">1</property>
    <property name="shotcut:name">Veronique_cor-anglais</property>
    <property name="shotcut:lock">1</property>
    <blank length="00:00:09.280" />
    <entry producer="producer472" in="00:00:00.000" out="00:00:13.680000" />
    <entry producer="producer473" in="00:00:13.720000" out="00:00:20.680000" />
    <entry producer="producer474" in="00:00:20.720000" out="00:00:54.680000" />
    <entry producer="producer475" in="00:00:54.720000" out="00:01:02.680000" />
    <entry producer="producer476" in="00:01:02.720000" out="00:01:10.680000" />
    <entry producer="producer477" in="00:01:10.720000" out="00:01:17.680000" />
    <entry producer="producer478" in="00:01:17.720000" out="00:01:25.680000" />
    <entry producer="producer479" in="00:01:25.720000" out="00:01:34.680000" />
    <entry producer="producer480" in="00:01:34.720000" out="00:01:41.680000" />
    <entry producer="producer481" in="00:01:41.720000" out="00:03:26.320000" />
    <filter id="filter842" out="00:03:35.640">
      <property name="window">75</property>
      <property name="max_gain">20dB</property>
      <property name="level">-8</property>
      <property name="mlt_service">volume</property>
    </filter>
  </playlist>
  <producer id="producer482" title="Anonymous Submission" in="00:00:00.000" out="00:03:12.560">
    <property name="length">00:03:12:15</property>
    <property name="eof">pause</property>
    <property name="resource">../../006 - Videos format youtube/Saxophone/Francoise_saxophone_totoro.mp4</property>
    <property name="audio_index">1</property>
    <property name="video_index">0</property>
    <property name="mute_on_pause">0</property>
    <property name="mlt_service">avformat-novalidate</property>
    <property name="seekable">1</property>
    <property name="aspect_ratio">1</property>
    <property name="creation_time">2020-04-21T20:21:24</property>
    <property name="shotcut:hash">bf995f50e95c73cb7593ff8be7ce82da</property>
    <property name="ignore_points">0</property>
    <property name="shotcut:caption">Francoise_saxophone_totoro.mp4</property>
    <property name="shotcut:skipConvert">1</property>
    <property name="global_feed">1</property>
    <property name="xml">was here</property>
    <filter id="filter843" out="00:00:14.680000">
      <property name="background">colour:0</property>
      <property name="mlt_service">affine</property>
      <property name="shotcut:filter">affineSizePosition</property>
      <property name="transition.fill">1</property>
      <property name="transition.distort">0</property>
      <property name="transition.rect">274.0 462.0 275.0 155.0 1</property>
      <property name="transition.valign">top</property>
      <property name="transition.halign">left</property>
      <property name="shotcut:animIn">00:00:00.000</property>
      <property name="shotcut:animOut">00:00:00.000</property>
      <property name="transition.threads">0</property>
    </filter>
  </producer>
  <producer id="producer483" title="Anonymous Submission" in="00:00:00.000" out="00:03:12.560">
    <property name="length">00:03:12:15</property>
    <property name="eof">pause</property>
    <property name="resource">../../006 - Videos format youtube/Saxophone/Francoise_saxophone_totoro.mp4</property>
    <property name="audio_index">1</property>
    <property name="video_index">0</property>
    <property name="mute_on_pause">0</property>
    <property name="mlt_service">avformat-novalidate</property>
    <property name="seekable">1</property>
    <property name="aspect_ratio">1</property>
    <property name="creation_time">2020-04-21T20:21:24</property>
    <property name="shotcut:hash">bf995f50e95c73cb7593ff8be7ce82da</property>
    <property name="ignore_points">0</property>
    <property name="shotcut:caption">Francoise_saxophone_totoro.mp4</property>
    <property name="shotcut:skipConvert">1</property>
    <property name="global_feed">1</property>
    <property name="xml">was here</property>
    <filter id="filter844" out="00:00:21.680000" in="00:00:14.720000">
      <property name="background">colour:0</property>
      <property name="mlt_service">affine</property>
      <property name="shotcut:filter">affineSizePosition</property>
      <property name="transition.fill">1</property>
      <property name="transition.distort">0</property>
      <property name="transition.rect">00:00:00.000000=274.0 462.0 276.0 155.0 1;00:00:00.440000=1645.0 154.0 275.0 155.0 1</property>
      <property name="transition.valign">top</property>
      <property name="transition.halign">left</property>
      <property name="shotcut:animIn">00:00:00.480000</property>
      <property name="shotcut:animOut">00:00:00.000</property>
      <property name="transition.threads">0</property>
    </filter>
  </producer>
  <producer id="producer484" title="Anonymous Submission" in="00:00:00.000" out="00:03:12.560">
    <property name="length">00:03:12:15</property>
    <property name="eof">pause</property>
    <property name="resource">../../006 - Videos format youtube/Saxophone/Francoise_saxophone_totoro.mp4</property>
    <property name="audio_index">1</property>
    <property name="video_index">0</property>
    <property name="mute_on_pause">0</property>
    <property name="mlt_service">avformat-novalidate</property>
    <property name="seekable">1</property>
    <property name="aspect_ratio">1</property>
    <property name="creation_time">2020-04-21T20:21:24</property>
    <property name="shotcut:hash">bf995f50e95c73cb7593ff8be7ce82da</property>
    <property name="ignore_points">0</property>
    <property name="shotcut:caption">Francoise_saxophone_totoro.mp4</property>
    <property name="shotcut:skipConvert">1</property>
    <property name="global_feed">1</property>
    <property name="xml">was here</property>
    <filter id="filter845" out="00:00:23.080000" in="00:00:21.720000">
      <property name="background">colour:0</property>
      <property name="mlt_service">affine</property>
      <property name="shotcut:filter">affineSizePosition</property>
      <property name="transition.fill">1</property>
      <property name="transition.distort">0</property>
      <property name="transition.rect">00:00:00.000000=960.0 945.0 242.0 136.0 1;00:00:01.360000=720.0 945.0 241.0 136.0 1</property>
      <property name="transition.valign">top</property>
      <property name="transition.halign">left</property>
      <property name="shotcut:animIn">00:00:01.400000</property>
      <property name="shotcut:animOut">00:00:00.000</property>
      <property name="transition.threads">0</property>
    </filter>
  </producer>
  <producer id="producer485" title="Anonymous Submission" in="00:00:00.000" out="00:03:12.560">
    <property name="length">00:03:12:15</property>
    <property name="eof">pause</property>
    <property name="resource">../../006 - Videos format youtube/Saxophone/Francoise_saxophone_totoro.mp4</property>
    <property name="audio_index">1</property>
    <property name="video_index">0</property>
    <property name="mute_on_pause">0</property>
    <property name="mlt_service">avformat-novalidate</property>
    <property name="seekable">1</property>
    <property name="aspect_ratio">1</property>
    <property name="creation_time">2020-04-21T20:21:24</property>
    <property name="shotcut:hash">bf995f50e95c73cb7593ff8be7ce82da</property>
    <property name="ignore_points">0</property>
    <property name="shotcut:caption">Francoise_saxophone_totoro.mp4</property>
    <property name="shotcut:skipConvert">1</property>
    <property name="global_feed">1</property>
    <property name="xml">was here</property>
    <filter id="filter846" out="00:00:24.520000" in="00:00:23.120000">
      <property name="background">colour:0</property>
      <property name="mlt_service">affine</property>
      <property name="shotcut:filter">affineSizePosition</property>
      <property name="transition.fill">1</property>
      <property name="transition.distort">0</property>
      <property name="transition.rect">00:00:00.000000=720.0 945.0 242.0 136.0 1;00:00:01.360000=480.0 945.0 241.0 136.0 1</property>
      <property name="transition.valign">top</property>
      <property name="transition.halign">left</property>
      <property name="shotcut:animIn">00:00:01.400000</property>
      <property name="shotcut:animOut">00:00:00.000</property>
      <property name="transition.threads">0</property>
    </filter>
  </producer>
  <producer id="producer486" title="Anonymous Submission" in="00:00:00.000" out="00:03:12.560">
    <property name="length">00:03:12:15</property>
    <property name="eof">pause</property>
    <property name="resource">../../006 - Videos format youtube/Saxophone/Francoise_saxophone_totoro.mp4</property>
    <property name="audio_index">1</property>
    <property name="video_index">0</property>
    <property name="mute_on_pause">0</property>
    <property name="mlt_service">avformat-novalidate</property>
    <property name="seekable">1</property>
    <property name="aspect_ratio">1</property>
    <property name="creation_time">2020-04-21T20:21:24</property>
    <property name="shotcut:hash">bf995f50e95c73cb7593ff8be7ce82da</property>
    <property name="ignore_points">0</property>
    <property name="shotcut:caption">Francoise_saxophone_totoro.mp4</property>
    <property name="shotcut:skipConvert">1</property>
    <property name="global_feed">1</property>
    <property name="xml">was here</property>
    <filter id="filter847" out="00:00:25.960000" in="00:00:24.560000">
      <property name="background">colour:0</property>
      <property name="mlt_service">affine</property>
      <property name="shotcut:filter">affineSizePosition</property>
      <property name="transition.fill">1</property>
      <property name="transition.distort">0</property>
      <property name="transition.rect">00:00:00.000000=480.0 945.0 242.0 136.0 1;00:00:01.360000=240.0 945.0 241.0 136.0 1</property>
      <property name="transition.valign">top</property>
      <property name="transition.halign">left</property>
      <property name="shotcut:animIn">00:00:01.400000</property>
      <property name="shotcut:animOut">00:00:00.000</property>
      <property name="transition.threads">0</property>
    </filter>
  </producer>
  <producer id="producer487" title="Anonymous Submission" in="00:00:00.000" out="00:03:12.560">
    <property name="length">00:03:12:15</property>
    <property name="eof">pause</property>
    <property name="resource">../../006 - Videos format youtube/Saxophone/Francoise_saxophone_totoro.mp4</property>
    <property name="audio_index">1</property>
    <property name="video_index">0</property>
    <property name="mute_on_pause">0</property>
    <property name="mlt_service">avformat-novalidate</property>
    <property name="seekable">1</property>
    <property name="aspect_ratio">1</property>
    <property name="creation_time">2020-04-21T20:21:24</property>
    <property name="shotcut:hash">bf995f50e95c73cb7593ff8be7ce82da</property>
    <property name="ignore_points">0</property>
    <property name="shotcut:caption">Francoise_saxophone_totoro.mp4</property>
    <property name="shotcut:skipConvert">1</property>
    <property name="global_feed">1</property>
    <property name="xml">was here</property>
    <filter id="filter848" out="00:00:27.360000" in="00:00:26.000000">
      <property name="background">colour:0</property>
      <property name="mlt_service">affine</property>
      <property name="shotcut:filter">affineSizePosition</property>
      <property name="transition.fill">1</property>
      <property name="transition.distort">0</property>
      <property name="transition.rect">00:00:00.000000=240.0 945.0 242.0 136.0 1;00:00:01.360000=0.0 945.0 241.0 136.0 1</property>
      <property name="transition.valign">top</property>
      <property name="transition.halign">left</property>
      <property name="shotcut:animIn">00:00:01.400000</property>
      <property name="shotcut:animOut">00:00:00.000</property>
      <property name="transition.threads">0</property>
    </filter>
  </producer>
  <producer id="producer488" title="Anonymous Submission" in="00:00:00.000" out="00:03:12.560">
    <property name="length">00:03:12:15</property>
    <property name="eof">pause</property>
    <property name="resource">../../006 - Videos format youtube/Saxophone/Francoise_saxophone_totoro.mp4</property>
    <property name="audio_index">1</property>
    <property name="video_index">0</property>
    <property name="mute_on_pause">0</property>
    <property name="mlt_service">avformat-novalidate</property>
    <property name="seekable">1</property>
    <property name="aspect_ratio">1</property>
    <property name="creation_time">2020-04-21T20:21:24</property>
    <property name="shotcut:hash">bf995f50e95c73cb7593ff8be7ce82da</property>
    <property name="ignore_points">0</property>
    <property name="shotcut:caption">Francoise_saxophone_totoro.mp4</property>
    <property name="shotcut:skipConvert">1</property>
    <property name="global_feed">1</property>
    <property name="xml">was here</property>
    <filter id="filter849" out="00:00:28.800000" in="00:00:27.400000">
      <property name="background">colour:0</property>
      <property name="mlt_service">affine</property>
      <property name="shotcut:filter">affineSizePosition</property>
      <property name="transition.fill">1</property>
      <property name="transition.distort">0</property>
      <property name="transition.rect">00:00:00.000000=1680.0 945.0 242.0 136.0 1;00:00:01.360000=1440.0 945.0 241.0 136.0 1</property>
      <property name="transition.valign">top</property>
      <property name="transition.halign">left</property>
      <property name="shotcut:animIn">00:00:01.400000</property>
      <property name="shotcut:animOut">00:00:00.000</property>
      <property name="transition.threads">0</property>
    </filter>
  </producer>
  <producer id="producer489" title="Anonymous Submission" in="00:00:00.000" out="00:03:12.560">
    <property name="length">00:03:12:15</property>
    <property name="eof">pause</property>
    <property name="resource">../../006 - Videos format youtube/Saxophone/Francoise_saxophone_totoro.mp4</property>
    <property name="audio_index">1</property>
    <property name="video_index">0</property>
    <property name="mute_on_pause">0</property>
    <property name="mlt_service">avformat-novalidate</property>
    <property name="seekable">1</property>
    <property name="aspect_ratio">1</property>
    <property name="creation_time">2020-04-21T20:21:24</property>
    <property name="shotcut:hash">bf995f50e95c73cb7593ff8be7ce82da</property>
    <property name="ignore_points">0</property>
    <property name="shotcut:caption">Francoise_saxophone_totoro.mp4</property>
    <property name="shotcut:skipConvert">1</property>
    <property name="global_feed">1</property>
    <property name="xml">was here</property>
    <filter id="filter850" out="00:00:30.240000" in="00:00:28.840000">
      <property name="background">colour:0</property>
      <property name="mlt_service">affine</property>
      <property name="shotcut:filter">affineSizePosition</property>
      <property name="transition.fill">1</property>
      <property name="transition.distort">0</property>
      <property name="transition.rect">00:00:00.000000=1440.0 945.0 242.0 136.0 1;00:00:01.360000=1200.0 945.0 241.0 136.0 1</property>
      <property name="transition.valign">top</property>
      <property name="transition.halign">left</property>
      <property name="shotcut:animIn">00:00:01.400000</property>
      <property name="shotcut:animOut">00:00:00.000</property>
      <property name="transition.threads">0</property>
    </filter>
  </producer>
  <producer id="producer490" title="Anonymous Submission" in="00:00:00.000" out="00:03:12.560">
    <property name="length">00:03:12:15</property>
    <property name="eof">pause</property>
    <property name="resource">../../006 - Videos format youtube/Saxophone/Francoise_saxophone_totoro.mp4</property>
    <property name="audio_index">1</property>
    <property name="video_index">0</property>
    <property name="mute_on_pause">0</property>
    <property name="mlt_service">avformat-novalidate</property>
    <property name="seekable">1</property>
    <property name="aspect_ratio">1</property>
    <property name="creation_time">2020-04-21T20:21:24</property>
    <property name="shotcut:hash">bf995f50e95c73cb7593ff8be7ce82da</property>
    <property name="ignore_points">0</property>
    <property name="shotcut:caption">Francoise_saxophone_totoro.mp4</property>
    <property name="shotcut:skipConvert">1</property>
    <property name="global_feed">1</property>
    <property name="xml">was here</property>
    <filter id="filter851" out="00:00:31.680000" in="00:00:30.280000">
      <property name="background">colour:0</property>
      <property name="mlt_service">affine</property>
      <property name="shotcut:filter">affineSizePosition</property>
      <property name="transition.fill">1</property>
      <property name="transition.distort">0</property>
      <property name="transition.rect">00:00:00.000000=1200.0 945.0 242.0 136.0 1;00:00:01.360000=960.0 945.0 241.0 136.0 1</property>
      <property name="transition.valign">top</property>
      <property name="transition.halign">left</property>
      <property name="shotcut:animIn">00:00:01.400000</property>
      <property name="shotcut:animOut">00:00:00.000</property>
      <property name="transition.threads">0</property>
    </filter>
  </producer>
  <producer id="producer491" title="Anonymous Submission" in="00:00:00.000" out="00:03:12.560">
    <property name="length">00:03:12:15</property>
    <property name="eof">pause</property>
    <property name="resource">../../006 - Videos format youtube/Saxophone/Francoise_saxophone_totoro.mp4</property>
    <property name="audio_index">1</property>
    <property name="video_index">0</property>
    <property name="mute_on_pause">0</property>
    <property name="mlt_service">avformat-novalidate</property>
    <property name="seekable">1</property>
    <property name="aspect_ratio">1</property>
    <property name="creation_time">2020-04-21T20:21:24</property>
    <property name="shotcut:hash">bf995f50e95c73cb7593ff8be7ce82da</property>
    <property name="ignore_points">0</property>
    <property name="shotcut:caption">Francoise_saxophone_totoro.mp4</property>
    <property name="shotcut:skipConvert">1</property>
    <property name="global_feed">1</property>
    <property name="xml">was here</property>
    <filter id="filter852" out="00:00:33.080000" in="00:00:31.720000">
      <property name="background">colour:0</property>
      <property name="mlt_service">affine</property>
      <property name="shotcut:filter">affineSizePosition</property>
      <property name="transition.fill">1</property>
      <property name="transition.distort">0</property>
      <property name="transition.rect">00:00:00.000000=960.0 945.0 242.0 136.0 1;00:00:01.360000=720.0 945.0 241.0 136.0 1</property>
      <property name="transition.valign">top</property>
      <property name="transition.halign">left</property>
      <property name="shotcut:animIn">00:00:01.400000</property>
      <property name="shotcut:animOut">00:00:00.000</property>
      <property name="transition.threads">0</property>
    </filter>
  </producer>
  <producer id="producer492" title="Anonymous Submission" in="00:00:00.000" out="00:03:12.560">
    <property name="length">00:03:12:15</property>
    <property name="eof">pause</property>
    <property name="resource">../../006 - Videos format youtube/Saxophone/Francoise_saxophone_totoro.mp4</property>
    <property name="audio_index">1</property>
    <property name="video_index">0</property>
    <property name="mute_on_pause">0</property>
    <property name="mlt_service">avformat-novalidate</property>
    <property name="seekable">1</property>
    <property name="aspect_ratio">1</property>
    <property name="creation_time">2020-04-21T20:21:24</property>
    <property name="shotcut:hash">bf995f50e95c73cb7593ff8be7ce82da</property>
    <property name="ignore_points">0</property>
    <property name="shotcut:caption">Francoise_saxophone_totoro.mp4</property>
    <property name="shotcut:skipConvert">1</property>
    <property name="global_feed">1</property>
    <property name="xml">was here</property>
    <filter id="filter853" out="00:00:34.520000" in="00:00:33.120000">
      <property name="background">colour:0</property>
      <property name="mlt_service">affine</property>
      <property name="shotcut:filter">affineSizePosition</property>
      <property name="transition.fill">1</property>
      <property name="transition.distort">0</property>
      <property name="transition.rect">00:00:00.000000=720.0 945.0 242.0 136.0 1;00:00:01.360000=480.0 945.0 241.0 136.0 1</property>
      <property name="transition.valign">top</property>
      <property name="transition.halign">left</property>
      <property name="shotcut:animIn">00:00:01.400000</property>
      <property name="shotcut:animOut">00:00:00.000</property>
      <property name="transition.threads">0</property>
    </filter>
  </producer>
  <producer id="producer493" title="Anonymous Submission" in="00:00:00.000" out="00:03:12.560">
    <property name="length">00:03:12:15</property>
    <property name="eof">pause</property>
    <property name="resource">../../006 - Videos format youtube/Saxophone/Francoise_saxophone_totoro.mp4</property>
    <property name="audio_index">1</property>
    <property name="video_index">0</property>
    <property name="mute_on_pause">0</property>
    <property name="mlt_service">avformat-novalidate</property>
    <property name="seekable">1</property>
    <property name="aspect_ratio">1</property>
    <property name="creation_time">2020-04-21T20:21:24</property>
    <property name="shotcut:hash">bf995f50e95c73cb7593ff8be7ce82da</property>
    <property name="ignore_points">0</property>
    <property name="shotcut:caption">Francoise_saxophone_totoro.mp4</property>
    <property name="shotcut:skipConvert">1</property>
    <property name="global_feed">1</property>
    <property name="xml">was here</property>
    <filter id="filter854" out="00:00:35.960000" in="00:00:34.560000">
      <property name="background">colour:0</property>
      <property name="mlt_service">affine</property>
      <property name="shotcut:filter">affineSizePosition</property>
      <property name="transition.fill">1</property>
      <property name="transition.distort">0</property>
      <property name="transition.rect">00:00:00.000000=480.0 945.0 242.0 136.0 1;00:00:01.360000=240.0 945.0 241.0 136.0 1</property>
      <property name="transition.valign">top</property>
      <property name="transition.halign">left</property>
      <property name="shotcut:animIn">00:00:01.400000</property>
      <property name="shotcut:animOut">00:00:00.000</property>
      <property name="transition.threads">0</property>
    </filter>
  </producer>
  <producer id="producer494" title="Anonymous Submission" in="00:00:00.000" out="00:03:12.560">
    <property name="length">00:03:12:15</property>
    <property name="eof">pause</property>
    <property name="resource">../../006 - Videos format youtube/Saxophone/Francoise_saxophone_totoro.mp4</property>
    <property name="audio_index">1</property>
    <property name="video_index">0</property>
    <property name="mute_on_pause">0</property>
    <property name="mlt_service">avformat-novalidate</property>
    <property name="seekable">1</property>
    <property name="aspect_ratio">1</property>
    <property name="creation_time">2020-04-21T20:21:24</property>
    <property name="shotcut:hash">bf995f50e95c73cb7593ff8be7ce82da</property>
    <property name="ignore_points">0</property>
    <property name="shotcut:caption">Francoise_saxophone_totoro.mp4</property>
    <property name="shotcut:skipConvert">1</property>
    <property name="global_feed">1</property>
    <property name="xml">was here</property>
    <filter id="filter855" out="00:00:37.360000" in="00:00:36.000000">
      <property name="background">colour:0</property>
      <property name="mlt_service">affine</property>
      <property name="shotcut:filter">affineSizePosition</property>
      <property name="transition.fill">1</property>
      <property name="transition.distort">0</property>
      <property name="transition.rect">00:00:00.000000=240.0 945.0 242.0 136.0 1;00:00:01.360000=0.0 945.0 241.0 136.0 1</property>
      <property name="transition.valign">top</property>
      <property name="transition.halign">left</property>
      <property name="shotcut:animIn">00:00:01.400000</property>
      <property name="shotcut:animOut">00:00:00.000</property>
      <property name="transition.threads">0</property>
    </filter>
  </producer>
  <producer id="producer495" title="Anonymous Submission" in="00:00:00.000" out="00:03:12.560">
    <property name="length">00:03:12:15</property>
    <property name="eof">pause</property>
    <property name="resource">../../006 - Videos format youtube/Saxophone/Francoise_saxophone_totoro.mp4</property>
    <property name="audio_index">1</property>
    <property name="video_index">0</property>
    <property name="mute_on_pause">0</property>
    <property name="mlt_service">avformat-novalidate</property>
    <property name="seekable">1</property>
    <property name="aspect_ratio">1</property>
    <property name="creation_time">2020-04-21T20:21:24</property>
    <property name="shotcut:hash">bf995f50e95c73cb7593ff8be7ce82da</property>
    <property name="ignore_points">0</property>
    <property name="shotcut:caption">Francoise_saxophone_totoro.mp4</property>
    <property name="shotcut:skipConvert">1</property>
    <property name="global_feed">1</property>
    <property name="xml">was here</property>
    <filter id="filter856" out="00:00:38.800000" in="00:00:37.400000">
      <property name="background">colour:0</property>
      <property name="mlt_service">affine</property>
      <property name="shotcut:filter">affineSizePosition</property>
      <property name="transition.fill">1</property>
      <property name="transition.distort">0</property>
      <property name="transition.rect">00:00:00.000000=1680.0 945.0 242.0 136.0 1;00:00:01.360000=1440.0 945.0 241.0 136.0 1</property>
      <property name="transition.valign">top</property>
      <property name="transition.halign">left</property>
      <property name="shotcut:animIn">00:00:01.400000</property>
      <property name="shotcut:animOut">00:00:00.000</property>
      <property name="transition.threads">0</property>
    </filter>
  </producer>
  <producer id="producer496" title="Anonymous Submission" in="00:00:00.000" out="00:03:12.560">
    <property name="length">00:03:12:15</property>
    <property name="eof">pause</property>
    <property name="resource">../../006 - Videos format youtube/Saxophone/Francoise_saxophone_totoro.mp4</property>
    <property name="audio_index">1</property>
    <property name="video_index">0</property>
    <property name="mute_on_pause">0</property>
    <property name="mlt_service">avformat-novalidate</property>
    <property name="seekable">1</property>
    <property name="aspect_ratio">1</property>
    <property name="creation_time">2020-04-21T20:21:24</property>
    <property name="shotcut:hash">bf995f50e95c73cb7593ff8be7ce82da</property>
    <property name="ignore_points">0</property>
    <property name="shotcut:caption">Francoise_saxophone_totoro.mp4</property>
    <property name="shotcut:skipConvert">1</property>
    <property name="global_feed">1</property>
    <property name="xml">was here</property>
    <filter id="filter857" out="00:00:40.240000" in="00:00:38.840000">
      <property name="background">colour:0</property>
      <property name="mlt_service">affine</property>
      <property name="shotcut:filter">affineSizePosition</property>
      <property name="transition.fill">1</property>
      <property name="transition.distort">0</property>
      <property name="transition.rect">00:00:00.000000=1440.0 945.0 242.0 136.0 1;00:00:01.360000=1200.0 945.0 241.0 136.0 1</property>
      <property name="transition.valign">top</property>
      <property name="transition.halign">left</property>
      <property name="shotcut:animIn">00:00:01.400000</property>
      <property name="shotcut:animOut">00:00:00.000</property>
      <property name="transition.threads">0</property>
    </filter>
  </producer>
  <producer id="producer497" title="Anonymous Submission" in="00:00:00.000" out="00:03:12.560">
    <property name="length">00:03:12:15</property>
    <property name="eof">pause</property>
    <property name="resource">../../006 - Videos format youtube/Saxophone/Francoise_saxophone_totoro.mp4</property>
    <property name="audio_index">1</property>
    <property name="video_index">0</property>
    <property name="mute_on_pause">0</property>
    <property name="mlt_service">avformat-novalidate</property>
    <property name="seekable">1</property>
    <property name="aspect_ratio">1</property>
    <property name="creation_time">2020-04-21T20:21:24</property>
    <property name="shotcut:hash">bf995f50e95c73cb7593ff8be7ce82da</property>
    <property name="ignore_points">0</property>
    <property name="shotcut:caption">Francoise_saxophone_totoro.mp4</property>
    <property name="shotcut:skipConvert">1</property>
    <property name="global_feed">1</property>
    <property name="xml">was here</property>
    <filter id="filter858" out="00:00:55.680000" in="00:00:40.280000">
      <property name="background">colour:0</property>
      <property name="mlt_service">affine</property>
      <property name="shotcut:filter">affineSizePosition</property>
      <property name="transition.fill">1</property>
      <property name="transition.distort">0</property>
      <property name="transition.rect">00:00:00.000000=1200.0 945.0 242.0 136.0 1;00:00:01.360000=960.0 945.0 241.0 136.0 1</property>
      <property name="transition.valign">top</property>
      <property name="transition.halign">left</property>
      <property name="shotcut:animIn">00:00:01.400000</property>
      <property name="shotcut:animOut">00:00:00.000</property>
      <property name="transition.threads">0</property>
    </filter>
  </producer>
  <producer id="producer498" title="Anonymous Submission" in="00:00:00.000" out="00:03:12.560">
    <property name="length">00:03:12:15</property>
    <property name="eof">pause</property>
    <property name="resource">../../006 - Videos format youtube/Saxophone/Francoise_saxophone_totoro.mp4</property>
    <property name="audio_index">1</property>
    <property name="video_index">0</property>
    <property name="mute_on_pause">0</property>
    <property name="mlt_service">avformat-novalidate</property>
    <property name="seekable">1</property>
    <property name="aspect_ratio">1</property>
    <property name="creation_time">2020-04-21T20:21:24</property>
    <property name="shotcut:hash">bf995f50e95c73cb7593ff8be7ce82da</property>
    <property name="ignore_points">0</property>
    <property name="shotcut:caption">Francoise_saxophone_totoro.mp4</property>
    <property name="shotcut:skipConvert">1</property>
    <property name="global_feed">1</property>
    <property name="xml">was here</property>
    <filter id="filter859" out="00:01:03.680000" in="00:00:55.720000">
      <property name="background">colour:0</property>
      <property name="mlt_service">affine</property>
      <property name="shotcut:filter">affineSizePosition</property>
      <property name="transition.fill">1</property>
      <property name="transition.distort">0</property>
      <property name="transition.rect">274.0 462.0 275.0 155.0 1</property>
      <property name="transition.valign">top</property>
      <property name="transition.halign">left</property>
      <property name="shotcut:animIn">00:00:01.400000</property>
      <property name="shotcut:animOut">00:00:00.000</property>
      <property name="transition.threads">0</property>
    </filter>
  </producer>
  <producer id="producer499" title="Anonymous Submission" in="00:00:00.000" out="00:03:12.560">
    <property name="length">00:03:12:15</property>
    <property name="eof">pause</property>
    <property name="resource">../../006 - Videos format youtube/Saxophone/Francoise_saxophone_totoro.mp4</property>
    <property name="audio_index">1</property>
    <property name="video_index">0</property>
    <property name="mute_on_pause">0</property>
    <property name="mlt_service">avformat-novalidate</property>
    <property name="seekable">1</property>
    <property name="aspect_ratio">1</property>
    <property name="creation_time">2020-04-21T20:21:24</property>
    <property name="shotcut:hash">bf995f50e95c73cb7593ff8be7ce82da</property>
    <property name="ignore_points">0</property>
    <property name="shotcut:caption">Francoise_saxophone_totoro.mp4</property>
    <property name="shotcut:skipConvert">1</property>
    <property name="global_feed">1</property>
    <property name="xml">was here</property>
    <filter id="filter860" out="00:01:11.680000" in="00:01:03.720000">
      <property name="background">colour:0</property>
      <property name="mlt_service">affine</property>
      <property name="shotcut:filter">affineSizePosition</property>
      <property name="transition.fill">1</property>
      <property name="transition.distort">0</property>
      <property name="transition.rect">-822.0 -462.0 275.0 155.0 1</property>
      <property name="transition.valign">top</property>
      <property name="transition.halign">left</property>
      <property name="shotcut:animIn">00:00:01.400000</property>
      <property name="shotcut:animOut">00:00:00.000</property>
      <property name="transition.threads">0</property>
    </filter>
  </producer>
  <producer id="producer500" title="Anonymous Submission" in="00:00:00.000" out="00:03:12.560">
    <property name="length">00:03:12:15</property>
    <property name="eof">pause</property>
    <property name="resource">../../006 - Videos format youtube/Saxophone/Francoise_saxophone_totoro.mp4</property>
    <property name="audio_index">1</property>
    <property name="video_index">0</property>
    <property name="mute_on_pause">0</property>
    <property name="mlt_service">avformat-novalidate</property>
    <property name="seekable">1</property>
    <property name="aspect_ratio">1</property>
    <property name="creation_time">2020-04-21T20:21:24</property>
    <property name="shotcut:hash">bf995f50e95c73cb7593ff8be7ce82da</property>
    <property name="ignore_points">0</property>
    <property name="shotcut:caption">Francoise_saxophone_totoro.mp4</property>
    <property name="shotcut:skipConvert">1</property>
    <property name="global_feed">1</property>
    <property name="xml">was here</property>
    <filter id="filter861" out="00:01:18.680000" in="00:01:11.720000">
      <property name="background">colour:0</property>
      <property name="mlt_service">affine</property>
      <property name="shotcut:filter">affineSizePosition</property>
      <property name="transition.fill">1</property>
      <property name="transition.distort">0</property>
      <property name="transition.rect">4640.0 0.0 321.0 181.0 1</property>
      <property name="transition.valign">top</property>
      <property name="transition.halign">left</property>
      <property name="shotcut:animIn">00:00:01.400000</property>
      <property name="shotcut:animOut">00:00:00.000</property>
      <property name="transition.threads">0</property>
    </filter>
  </producer>
  <producer id="producer501" title="Anonymous Submission" in="00:00:00.000" out="00:03:12.560">
    <property name="length">00:03:12:15</property>
    <property name="eof">pause</property>
    <property name="resource">../../006 - Videos format youtube/Saxophone/Francoise_saxophone_totoro.mp4</property>
    <property name="audio_index">1</property>
    <property name="video_index">0</property>
    <property name="mute_on_pause">0</property>
    <property name="mlt_service">avformat-novalidate</property>
    <property name="seekable">1</property>
    <property name="aspect_ratio">1</property>
    <property name="creation_time">2020-04-21T20:21:24</property>
    <property name="shotcut:hash">bf995f50e95c73cb7593ff8be7ce82da</property>
    <property name="ignore_points">0</property>
    <property name="shotcut:caption">Francoise_saxophone_totoro.mp4</property>
    <property name="shotcut:skipConvert">1</property>
    <property name="global_feed">1</property>
    <property name="xml">was here</property>
    <filter id="filter862" out="00:01:26.680000" in="00:01:18.720000">
      <property name="background">colour:0</property>
      <property name="mlt_service">affine</property>
      <property name="shotcut:filter">affineSizePosition</property>
      <property name="transition.fill">1</property>
      <property name="transition.distort">0</property>
      <property name="transition.rect">1600.0 -540.0 321.0 181.0 1</property>
      <property name="transition.valign">top</property>
      <property name="transition.halign">left</property>
      <property name="shotcut:animIn">00:00:01.400000</property>
      <property name="shotcut:animOut">00:00:00.000</property>
      <property name="transition.threads">0</property>
    </filter>
  </producer>
  <producer id="producer502" title="Anonymous Submission" in="00:00:00.000" out="00:03:12.560">
    <property name="length">00:03:12:15</property>
    <property name="eof">pause</property>
    <property name="resource">../../006 - Videos format youtube/Saxophone/Francoise_saxophone_totoro.mp4</property>
    <property name="audio_index">1</property>
    <property name="video_index">0</property>
    <property name="mute_on_pause">0</property>
    <property name="mlt_service">avformat-novalidate</property>
    <property name="seekable">1</property>
    <property name="aspect_ratio">1</property>
    <property name="creation_time">2020-04-21T20:21:24</property>
    <property name="shotcut:hash">bf995f50e95c73cb7593ff8be7ce82da</property>
    <property name="ignore_points">0</property>
    <property name="shotcut:caption">Francoise_saxophone_totoro.mp4</property>
    <property name="shotcut:skipConvert">1</property>
    <property name="global_feed">1</property>
    <property name="xml">was here</property>
    <filter id="filter863" out="00:01:35.680000" in="00:01:26.720000">
      <property name="background">colour:0</property>
      <property name="mlt_service">affine</property>
      <property name="shotcut:filter">affineSizePosition</property>
      <property name="transition.fill">1</property>
      <property name="transition.distort">0</property>
      <property name="transition.rect">1645.0 154.0 275.0 155.0 1</property>
      <property name="transition.valign">top</property>
      <property name="transition.halign">left</property>
      <property name="shotcut:animIn">00:00:01.400000</property>
      <property name="shotcut:animOut">00:00:00.000</property>
      <property name="transition.threads">0</property>
    </filter>
  </producer>
  <producer id="producer503" title="Anonymous Submission" in="00:00:00.000" out="00:03:12.560">
    <property name="length">00:03:12:15</property>
    <property name="eof">pause</property>
    <property name="resource">../../006 - Videos format youtube/Saxophone/Francoise_saxophone_totoro.mp4</property>
    <property name="audio_index">1</property>
    <property name="video_index">0</property>
    <property name="mute_on_pause">0</property>
    <property name="mlt_service">avformat-novalidate</property>
    <property name="seekable">1</property>
    <property name="aspect_ratio">1</property>
    <property name="creation_time">2020-04-21T20:21:24</property>
    <property name="shotcut:hash">bf995f50e95c73cb7593ff8be7ce82da</property>
    <property name="ignore_points">0</property>
    <property name="shotcut:caption">Francoise_saxophone_totoro.mp4</property>
    <property name="shotcut:skipConvert">1</property>
    <property name="global_feed">1</property>
    <property name="xml">was here</property>
    <filter id="filter864" out="00:01:42.680000" in="00:01:35.720000">
      <property name="background">colour:0</property>
      <property name="mlt_service">affine</property>
      <property name="shotcut:filter">affineSizePosition</property>
      <property name="transition.fill">1</property>
      <property name="transition.distort">0</property>
      <property name="transition.rect">274.0 462.0 275.0 155.0 1</property>
      <property name="transition.valign">top</property>
      <property name="transition.halign">left</property>
      <property name="shotcut:animIn">00:00:01.400000</property>
      <property name="shotcut:animOut">00:00:00.000</property>
      <property name="transition.threads">0</property>
    </filter>
  </producer>
  <producer id="producer504" title="Anonymous Submission" in="00:00:00.000" out="00:03:12.560">
    <property name="length">00:03:12:15</property>
    <property name="eof">pause</property>
    <property name="resource">../../006 - Videos format youtube/Saxophone/Francoise_saxophone_totoro.mp4</property>
    <property name="audio_index">1</property>
    <property name="video_index">0</property>
    <property name="mute_on_pause">0</property>
    <property name="mlt_service">avformat-novalidate</property>
    <property name="seekable">1</property>
    <property name="aspect_ratio">1</property>
    <property name="creation_time">2020-04-21T20:21:24</property>
    <property name="shotcut:hash">bf995f50e95c73cb7593ff8be7ce82da</property>
    <property name="ignore_points">0</property>
    <property name="shotcut:caption">Francoise_saxophone_totoro.mp4</property>
    <property name="shotcut:skipConvert">1</property>
    <property name="global_feed">1</property>
    <property name="xml">was here</property>
    <filter id="filter865" out="00:03:12.560" in="00:01:42.720000">
      <property name="background">colour:0</property>
      <property name="mlt_service">affine</property>
      <property name="shotcut:filter">affineSizePosition</property>
      <property name="transition.fill">1</property>
      <property name="transition.distort">0</property>
      <property name="transition.rect">4640.0 0.0 321.0 181.0 1</property>
      <property name="transition.valign">top</property>
      <property name="transition.halign">left</property>
      <property name="shotcut:animIn">00:00:01.400000</property>
      <property name="shotcut:animOut">00:00:00.000</property>
      <property name="transition.threads">0</property>
    </filter>
  </producer>
  <playlist id="playlist28">
    <property name="shotcut:video">1</property>
    <property name="shotcut:name">Francoise saxo</property>
    <property name="shotcut:lock">1</property>
    <blank length="00:00:08.280" />
    <entry producer="producer482" in="00:00:00.000" out="00:00:14.680000" />
  <entry producer="producer483" in="00:00:14.720000" out="00:00:21.680000" />
  <entry producer="producer484" in="00:00:21.720000" out="00:00:23.080000" />
  <entry producer="producer485" in="00:00:23.120000" out="00:00:24.520000" />
  <entry producer="producer486" in="00:00:24.560000" out="00:00:25.960000" />
  <entry producer="producer487" in="00:00:26.000000" out="00:00:27.360000" />
  <entry producer="producer488" in="00:00:27.400000" out="00:00:28.800000" />
  <entry producer="producer489" in="00:00:28.840000" out="00:00:30.240000" />
  <entry producer="producer490" in="00:00:30.280000" out="00:00:31.680000" />
  <entry producer="producer491" in="00:00:31.720000" out="00:00:33.080000" />
  <entry producer="producer492" in="00:00:33.120000" out="00:00:34.520000" />
  <entry producer="producer493" in="00:00:34.560000" out="00:00:35.960000" />
  <entry producer="producer494" in="00:00:36.000000" out="00:00:37.360000" />
  <entry producer="producer495" in="00:00:37.400000" out="00:00:38.800000" />
  <entry producer="producer496" in="00:00:38.840000" out="00:00:40.240000" />
  <entry producer="producer497" in="00:00:40.280000" out="00:00:55.680000" />
  <entry producer="producer498" in="00:00:55.720000" out="00:01:03.680000" />
  <entry producer="producer499" in="00:01:03.720000" out="00:01:11.680000" />
  <entry producer="producer500" in="00:01:11.720000" out="00:01:18.680000" />
  <entry producer="producer501" in="00:01:18.720000" out="00:01:26.680000" />
  <entry producer="producer502" in="00:01:26.720000" out="00:01:35.680000" />
  <entry producer="producer503" in="00:01:35.720000" out="00:01:42.680000" />
  <entry producer="producer504" in="00:01:42.720000" out="00:03:12.560" />
  </playlist>
  <producer id="producer505" title="Anonymous Submission" in="00:00:00.000" out="00:03:01.800">
    <property name="length">00:03:01:21</property>
    <property name="eof">pause</property>
    <property name="resource">../../006 - Videos format youtube/Saxophone/Aurianne_saxophone_totoro.mp4</property>
    <property name="audio_index">1</property>
    <property name="video_index">0</property>
    <property name="mute_on_pause">0</property>
    <property name="mlt_service">avformat-novalidate</property>
    <property name="seekable">1</property>
    <property name="aspect_ratio">1</property>
    <property name="creation_time">2020-04-09T18:32:01</property>
    <property name="shotcut:hash">dd198363db28b4d265caa15eb2e0f266</property>
    <property name="ignore_points">0</property>
    <property name="shotcut:caption">Aurianne_saxophone_totoro.mp4</property>
    <property name="shotcut:skipConvert">1</property>
    <property name="global_feed">1</property>
    <property name="xml">was here</property>
    <filter id="filter866" out="00:00:06.720000">
      <property name="background">colour:0</property>
      <property name="mlt_service">affine</property>
      <property name="shotcut:filter">affineSizePosition</property>
      <property name="transition.fill">1</property>
      <property name="transition.distort">0</property>
      <property name="transition.rect">1097.0 0.0 275.0 155.0 1</property>
      <property name="transition.valign">top</property>
      <property name="transition.halign">left</property>
      <property name="shotcut:animIn">00:00:00.000</property>
      <property name="shotcut:animOut">00:00:00.000</property>
      <property name="transition.threads">0</property>
    </filter>
    <filter id="filter867" out="00:00:06.720000">
      <property name="window">75</property>
      <property name="max_gain">20dB</property>
      <property name="mlt_service">volume</property>
      <property name="shotcut:filter">muteVolume</property>
      <property name="gain">0</property>
    </filter>
  </producer>
  <producer id="producer506" title="Anonymous Submission" in="00:00:00.000" out="00:03:01.800">
    <property name="length">00:03:01:21</property>
    <property name="eof">pause</property>
    <property name="resource">../../006 - Videos format youtube/Saxophone/Aurianne_saxophone_totoro.mp4</property>
    <property name="audio_index">1</property>
    <property name="video_index">0</property>
    <property name="mute_on_pause">0</property>
    <property name="mlt_service">avformat-novalidate</property>
    <property name="seekable">1</property>
    <property name="aspect_ratio">1</property>
    <property name="creation_time">2020-04-09T18:32:01</property>
    <property name="shotcut:hash">dd198363db28b4d265caa15eb2e0f266</property>
    <property name="ignore_points">0</property>
    <property name="shotcut:caption">Aurianne_saxophone_totoro.mp4</property>
    <property name="shotcut:skipConvert">1</property>
    <property name="global_feed">1</property>
    <property name="xml">was here</property>
    <filter id="filter868" out="00:00:13.720000" in="00:00:06.760000">
      <property name="background">colour:0</property>
      <property name="mlt_service">affine</property>
      <property name="shotcut:filter">affineSizePosition</property>
      <property name="transition.fill">1</property>
      <property name="transition.distort">0</property>
      <property name="transition.rect">00:00:00.000000=1097.0 0.0 276.0 155.0 1;00:00:00.440000=0.0 617.0 275.0 155.0 1</property>
      <property name="transition.valign">top</property>
      <property name="transition.halign">left</property>
      <property name="shotcut:animIn">00:00:00.480000</property>
      <property name="shotcut:animOut">00:00:00.000</property>
      <property name="transition.threads">0</property>
    </filter>
    <filter id="filter869" out="00:00:13.720000" in="00:00:06.760000">
      <property name="window">75</property>
      <property name="max_gain">20dB</property>
      <property name="mlt_service">volume</property>
      <property name="shotcut:filter">muteVolume</property>
      <property name="gain">0</property>
    </filter>
  </producer>
  <producer id="producer507" title="Anonymous Submission" in="00:00:00.000" out="00:03:01.800">
    <property name="length">00:03:01:21</property>
    <property name="eof">pause</property>
    <property name="resource">../../006 - Videos format youtube/Saxophone/Aurianne_saxophone_totoro.mp4</property>
    <property name="audio_index">1</property>
    <property name="video_index">0</property>
    <property name="mute_on_pause">0</property>
    <property name="mlt_service">avformat-novalidate</property>
    <property name="seekable">1</property>
    <property name="aspect_ratio">1</property>
    <property name="creation_time">2020-04-09T18:32:01</property>
    <property name="shotcut:hash">dd198363db28b4d265caa15eb2e0f266</property>
    <property name="ignore_points">0</property>
    <property name="shotcut:caption">Aurianne_saxophone_totoro.mp4</property>
    <property name="shotcut:skipConvert">1</property>
    <property name="global_feed">1</property>
    <property name="xml">was here</property>
    <filter id="filter870" out="00:00:15.120000" in="00:00:13.760000">
      <property name="background">colour:0</property>
      <property name="mlt_service">affine</property>
      <property name="shotcut:filter">affineSizePosition</property>
      <property name="transition.fill">1</property>
      <property name="transition.distort">0</property>
      <property name="transition.rect">00:00:00.000000=240.0 945.0 242.0 136.0 1;00:00:01.360000=0.0 945.0 241.0 136.0 1</property>
      <property name="transition.valign">top</property>
      <property name="transition.halign">left</property>
      <property name="shotcut:animIn">00:00:01.400000</property>
      <property name="shotcut:animOut">00:00:00.000</property>
      <property name="transition.threads">0</property>
    </filter>
    <filter id="filter871" out="00:00:15.120000" in="00:00:13.760000">
      <property name="window">75</property>
      <property name="max_gain">20dB</property>
      <property name="mlt_service">volume</property>
      <property name="shotcut:filter">muteVolume</property>
      <property name="gain">0</property>
    </filter>
  </producer>
  <producer id="producer508" title="Anonymous Submission" in="00:00:00.000" out="00:03:01.800">
    <property name="length">00:03:01:21</property>
    <property name="eof">pause</property>
    <property name="resource">../../006 - Videos format youtube/Saxophone/Aurianne_saxophone_totoro.mp4</property>
    <property name="audio_index">1</property>
    <property name="video_index">0</property>
    <property name="mute_on_pause">0</property>
    <property name="mlt_service">avformat-novalidate</property>
    <property name="seekable">1</property>
    <property name="aspect_ratio">1</property>
    <property name="creation_time">2020-04-09T18:32:01</property>
    <property name="shotcut:hash">dd198363db28b4d265caa15eb2e0f266</property>
    <property name="ignore_points">0</property>
    <property name="shotcut:caption">Aurianne_saxophone_totoro.mp4</property>
    <property name="shotcut:skipConvert">1</property>
    <property name="global_feed">1</property>
    <property name="xml">was here</property>
    <filter id="filter872" out="00:00:16.560000" in="00:00:15.160000">
      <property name="background">colour:0</property>
      <property name="mlt_service">affine</property>
      <property name="shotcut:filter">affineSizePosition</property>
      <property name="transition.fill">1</property>
      <property name="transition.distort">0</property>
      <property name="transition.rect">00:00:00.000000=1680.0 945.0 242.0 136.0 1;00:00:01.360000=1440.0 945.0 241.0 136.0 1</property>
      <property name="transition.valign">top</property>
      <property name="transition.halign">left</property>
      <property name="shotcut:animIn">00:00:01.400000</property>
      <property name="shotcut:animOut">00:00:00.000</property>
      <property name="transition.threads">0</property>
    </filter>
    <filter id="filter873" out="00:00:16.560000" in="00:00:15.160000">
      <property name="window">75</property>
      <property name="max_gain">20dB</property>
      <property name="mlt_service">volume</property>
      <property name="shotcut:filter">muteVolume</property>
      <property name="gain">0</property>
    </filter>
  </producer>
  <producer id="producer509" title="Anonymous Submission" in="00:00:00.000" out="00:03:01.800">
    <property name="length">00:03:01:21</property>
    <property name="eof">pause</property>
    <property name="resource">../../006 - Videos format youtube/Saxophone/Aurianne_saxophone_totoro.mp4</property>
    <property name="audio_index">1</property>
    <property name="video_index">0</property>
    <property name="mute_on_pause">0</property>
    <property name="mlt_service">avformat-novalidate</property>
    <property name="seekable">1</property>
    <property name="aspect_ratio">1</property>
    <property name="creation_time">2020-04-09T18:32:01</property>
    <property name="shotcut:hash">dd198363db28b4d265caa15eb2e0f266</property>
    <property name="ignore_points">0</property>
    <property name="shotcut:caption">Aurianne_saxophone_totoro.mp4</property>
    <property name="shotcut:skipConvert">1</property>
    <property name="global_feed">1</property>
    <property name="xml">was here</property>
    <filter id="filter874" out="00:00:18.000000" in="00:00:16.600000">
      <property name="background">colour:0</property>
      <property name="mlt_service">affine</property>
      <property name="shotcut:filter">affineSizePosition</property>
      <property name="transition.fill">1</property>
      <property name="transition.distort">0</property>
      <property name="transition.rect">00:00:00.000000=1440.0 945.0 242.0 136.0 1;00:00:01.360000=1200.0 945.0 241.0 136.0 1</property>
      <property name="transition.valign">top</property>
      <property name="transition.halign">left</property>
      <property name="shotcut:animIn">00:00:01.400000</property>
      <property name="shotcut:animOut">00:00:00.000</property>
      <property name="transition.threads">0</property>
    </filter>
    <filter id="filter875" out="00:00:18.000000" in="00:00:16.600000">
      <property name="window">75</property>
      <property name="max_gain">20dB</property>
      <property name="mlt_service">volume</property>
      <property name="shotcut:filter">muteVolume</property>
      <property name="gain">0</property>
    </filter>
  </producer>
  <producer id="producer510" title="Anonymous Submission" in="00:00:00.000" out="00:03:01.800">
    <property name="length">00:03:01:21</property>
    <property name="eof">pause</property>
    <property name="resource">../../006 - Videos format youtube/Saxophone/Aurianne_saxophone_totoro.mp4</property>
    <property name="audio_index">1</property>
    <property name="video_index">0</property>
    <property name="mute_on_pause">0</property>
    <property name="mlt_service">avformat-novalidate</property>
    <property name="seekable">1</property>
    <property name="aspect_ratio">1</property>
    <property name="creation_time">2020-04-09T18:32:01</property>
    <property name="shotcut:hash">dd198363db28b4d265caa15eb2e0f266</property>
    <property name="ignore_points">0</property>
    <property name="shotcut:caption">Aurianne_saxophone_totoro.mp4</property>
    <property name="shotcut:skipConvert">1</property>
    <property name="global_feed">1</property>
    <property name="xml">was here</property>
    <filter id="filter876" out="00:00:19.400000" in="00:00:18.040000">
      <property name="background">colour:0</property>
      <property name="mlt_service">affine</property>
      <property name="shotcut:filter">affineSizePosition</property>
      <property name="transition.fill">1</property>
      <property name="transition.distort">0</property>
      <property name="transition.rect">00:00:00.000000=1200.0 945.0 242.0 136.0 1;00:00:01.360000=960.0 945.0 241.0 136.0 1</property>
      <property name="transition.valign">top</property>
      <property name="transition.halign">left</property>
      <property name="shotcut:animIn">00:00:01.400000</property>
      <property name="shotcut:animOut">00:00:00.000</property>
      <property name="transition.threads">0</property>
    </filter>
    <filter id="filter877" out="00:00:19.400000" in="00:00:18.040000">
      <property name="window">75</property>
      <property name="max_gain">20dB</property>
      <property name="mlt_service">volume</property>
      <property name="shotcut:filter">muteVolume</property>
      <property name="gain">0</property>
    </filter>
  </producer>
  <producer id="producer511" title="Anonymous Submission" in="00:00:00.000" out="00:03:01.800">
    <property name="length">00:03:01:21</property>
    <property name="eof">pause</property>
    <property name="resource">../../006 - Videos format youtube/Saxophone/Aurianne_saxophone_totoro.mp4</property>
    <property name="audio_index">1</property>
    <property name="video_index">0</property>
    <property name="mute_on_pause">0</property>
    <property name="mlt_service">avformat-novalidate</property>
    <property name="seekable">1</property>
    <property name="aspect_ratio">1</property>
    <property name="creation_time">2020-04-09T18:32:01</property>
    <property name="shotcut:hash">dd198363db28b4d265caa15eb2e0f266</property>
    <property name="ignore_points">0</property>
    <property name="shotcut:caption">Aurianne_saxophone_totoro.mp4</property>
    <property name="shotcut:skipConvert">1</property>
    <property name="global_feed">1</property>
    <property name="xml">was here</property>
    <filter id="filter878" out="00:00:20.840000" in="00:00:19.440000">
      <property name="background">colour:0</property>
      <property name="mlt_service">affine</property>
      <property name="shotcut:filter">affineSizePosition</property>
      <property name="transition.fill">1</property>
      <property name="transition.distort">0</property>
      <property name="transition.rect">00:00:00.000000=960.0 945.0 242.0 136.0 1;00:00:01.360000=720.0 945.0 241.0 136.0 1</property>
      <property name="transition.valign">top</property>
      <property name="transition.halign">left</property>
      <property name="shotcut:animIn">00:00:01.400000</property>
      <property name="shotcut:animOut">00:00:00.000</property>
      <property name="transition.threads">0</property>
    </filter>
    <filter id="filter879" out="00:00:20.840000" in="00:00:19.440000">
      <property name="window">75</property>
      <property name="max_gain">20dB</property>
      <property name="mlt_service">volume</property>
      <property name="shotcut:filter">muteVolume</property>
      <property name="gain">0</property>
    </filter>
  </producer>
  <producer id="producer512" title="Anonymous Submission" in="00:00:00.000" out="00:03:01.800">
    <property name="length">00:03:01:21</property>
    <property name="eof">pause</property>
    <property name="resource">../../006 - Videos format youtube/Saxophone/Aurianne_saxophone_totoro.mp4</property>
    <property name="audio_index">1</property>
    <property name="video_index">0</property>
    <property name="mute_on_pause">0</property>
    <property name="mlt_service">avformat-novalidate</property>
    <property name="seekable">1</property>
    <property name="aspect_ratio">1</property>
    <property name="creation_time">2020-04-09T18:32:01</property>
    <property name="shotcut:hash">dd198363db28b4d265caa15eb2e0f266</property>
    <property name="ignore_points">0</property>
    <property name="shotcut:caption">Aurianne_saxophone_totoro.mp4</property>
    <property name="shotcut:skipConvert">1</property>
    <property name="global_feed">1</property>
    <property name="xml">was here</property>
    <filter id="filter880" out="00:00:22.280000" in="00:00:20.880000">
      <property name="background">colour:0</property>
      <property name="mlt_service">affine</property>
      <property name="shotcut:filter">affineSizePosition</property>
      <property name="transition.fill">1</property>
      <property name="transition.distort">0</property>
      <property name="transition.rect">00:00:00.000000=720.0 945.0 242.0 136.0 1;00:00:01.360000=480.0 945.0 241.0 136.0 1</property>
      <property name="transition.valign">top</property>
      <property name="transition.halign">left</property>
      <property name="shotcut:animIn">00:00:01.400000</property>
      <property name="shotcut:animOut">00:00:00.000</property>
      <property name="transition.threads">0</property>
    </filter>
    <filter id="filter881" out="00:00:22.280000" in="00:00:20.880000">
      <property name="window">75</property>
      <property name="max_gain">20dB</property>
      <property name="mlt_service">volume</property>
      <property name="shotcut:filter">muteVolume</property>
      <property name="gain">0</property>
    </filter>
  </producer>
  <producer id="producer513" title="Anonymous Submission" in="00:00:00.000" out="00:03:01.800">
    <property name="length">00:03:01:21</property>
    <property name="eof">pause</property>
    <property name="resource">../../006 - Videos format youtube/Saxophone/Aurianne_saxophone_totoro.mp4</property>
    <property name="audio_index">1</property>
    <property name="video_index">0</property>
    <property name="mute_on_pause">0</property>
    <property name="mlt_service">avformat-novalidate</property>
    <property name="seekable">1</property>
    <property name="aspect_ratio">1</property>
    <property name="creation_time">2020-04-09T18:32:01</property>
    <property name="shotcut:hash">dd198363db28b4d265caa15eb2e0f266</property>
    <property name="ignore_points">0</property>
    <property name="shotcut:caption">Aurianne_saxophone_totoro.mp4</property>
    <property name="shotcut:skipConvert">1</property>
    <property name="global_feed">1</property>
    <property name="xml">was here</property>
    <filter id="filter882" out="00:00:23.720000" in="00:00:22.320000">
      <property name="background">colour:0</property>
      <property name="mlt_service">affine</property>
      <property name="shotcut:filter">affineSizePosition</property>
      <property name="transition.fill">1</property>
      <property name="transition.distort">0</property>
      <property name="transition.rect">00:00:00.000000=480.0 945.0 242.0 136.0 1;00:00:01.360000=240.0 945.0 241.0 136.0 1</property>
      <property name="transition.valign">top</property>
      <property name="transition.halign">left</property>
      <property name="shotcut:animIn">00:00:01.400000</property>
      <property name="shotcut:animOut">00:00:00.000</property>
      <property name="transition.threads">0</property>
    </filter>
    <filter id="filter883" out="00:00:23.720000" in="00:00:22.320000">
      <property name="window">75</property>
      <property name="max_gain">20dB</property>
      <property name="mlt_service">volume</property>
      <property name="shotcut:filter">muteVolume</property>
      <property name="gain">0</property>
    </filter>
  </producer>
  <producer id="producer514" title="Anonymous Submission" in="00:00:00.000" out="00:03:01.800">
    <property name="length">00:03:01:21</property>
    <property name="eof">pause</property>
    <property name="resource">../../006 - Videos format youtube/Saxophone/Aurianne_saxophone_totoro.mp4</property>
    <property name="audio_index">1</property>
    <property name="video_index">0</property>
    <property name="mute_on_pause">0</property>
    <property name="mlt_service">avformat-novalidate</property>
    <property name="seekable">1</property>
    <property name="aspect_ratio">1</property>
    <property name="creation_time">2020-04-09T18:32:01</property>
    <property name="shotcut:hash">dd198363db28b4d265caa15eb2e0f266</property>
    <property name="ignore_points">0</property>
    <property name="shotcut:caption">Aurianne_saxophone_totoro.mp4</property>
    <property name="shotcut:skipConvert">1</property>
    <property name="global_feed">1</property>
    <property name="xml">was here</property>
    <filter id="filter884" out="00:00:25.120000" in="00:00:23.760000">
      <property name="background">colour:0</property>
      <property name="mlt_service">affine</property>
      <property name="shotcut:filter">affineSizePosition</property>
      <property name="transition.fill">1</property>
      <property name="transition.distort">0</property>
      <property name="transition.rect">00:00:00.000000=240.0 945.0 242.0 136.0 1;00:00:01.360000=0.0 945.0 241.0 136.0 1</property>
      <property name="transition.valign">top</property>
      <property name="transition.halign">left</property>
      <property name="shotcut:animIn">00:00:01.400000</property>
      <property name="shotcut:animOut">00:00:00.000</property>
      <property name="transition.threads">0</property>
    </filter>
    <filter id="filter885" out="00:00:25.120000" in="00:00:23.760000">
      <property name="window">75</property>
      <property name="max_gain">20dB</property>
      <property name="mlt_service">volume</property>
      <property name="shotcut:filter">muteVolume</property>
      <property name="gain">0</property>
    </filter>
  </producer>
  <producer id="producer515" title="Anonymous Submission" in="00:00:00.000" out="00:03:01.800">
    <property name="length">00:03:01:21</property>
    <property name="eof">pause</property>
    <property name="resource">../../006 - Videos format youtube/Saxophone/Aurianne_saxophone_totoro.mp4</property>
    <property name="audio_index">1</property>
    <property name="video_index">0</property>
    <property name="mute_on_pause">0</property>
    <property name="mlt_service">avformat-novalidate</property>
    <property name="seekable">1</property>
    <property name="aspect_ratio">1</property>
    <property name="creation_time">2020-04-09T18:32:01</property>
    <property name="shotcut:hash">dd198363db28b4d265caa15eb2e0f266</property>
    <property name="ignore_points">0</property>
    <property name="shotcut:caption">Aurianne_saxophone_totoro.mp4</property>
    <property name="shotcut:skipConvert">1</property>
    <property name="global_feed">1</property>
    <property name="xml">was here</property>
    <filter id="filter886" out="00:00:26.560000" in="00:00:25.160000">
      <property name="background">colour:0</property>
      <property name="mlt_service">affine</property>
      <property name="shotcut:filter">affineSizePosition</property>
      <property name="transition.fill">1</property>
      <property name="transition.distort">0</property>
      <property name="transition.rect">00:00:00.000000=1680.0 945.0 242.0 136.0 1;00:00:01.360000=1440.0 945.0 241.0 136.0 1</property>
      <property name="transition.valign">top</property>
      <property name="transition.halign">left</property>
      <property name="shotcut:animIn">00:00:01.400000</property>
      <property name="shotcut:animOut">00:00:00.000</property>
      <property name="transition.threads">0</property>
    </filter>
    <filter id="filter887" out="00:00:26.560000" in="00:00:25.160000">
      <property name="window">75</property>
      <property name="max_gain">20dB</property>
      <property name="mlt_service">volume</property>
      <property name="shotcut:filter">muteVolume</property>
      <property name="gain">0</property>
    </filter>
  </producer>
  <producer id="producer516" title="Anonymous Submission" in="00:00:00.000" out="00:03:01.800">
    <property name="length">00:03:01:21</property>
    <property name="eof">pause</property>
    <property name="resource">../../006 - Videos format youtube/Saxophone/Aurianne_saxophone_totoro.mp4</property>
    <property name="audio_index">1</property>
    <property name="video_index">0</property>
    <property name="mute_on_pause">0</property>
    <property name="mlt_service">avformat-novalidate</property>
    <property name="seekable">1</property>
    <property name="aspect_ratio">1</property>
    <property name="creation_time">2020-04-09T18:32:01</property>
    <property name="shotcut:hash">dd198363db28b4d265caa15eb2e0f266</property>
    <property name="ignore_points">0</property>
    <property name="shotcut:caption">Aurianne_saxophone_totoro.mp4</property>
    <property name="shotcut:skipConvert">1</property>
    <property name="global_feed">1</property>
    <property name="xml">was here</property>
    <filter id="filter888" out="00:00:28.000000" in="00:00:26.600000">
      <property name="background">colour:0</property>
      <property name="mlt_service">affine</property>
      <property name="shotcut:filter">affineSizePosition</property>
      <property name="transition.fill">1</property>
      <property name="transition.distort">0</property>
      <property name="transition.rect">00:00:00.000000=1440.0 945.0 242.0 136.0 1;00:00:01.360000=1200.0 945.0 241.0 136.0 1</property>
      <property name="transition.valign">top</property>
      <property name="transition.halign">left</property>
      <property name="shotcut:animIn">00:00:01.400000</property>
      <property name="shotcut:animOut">00:00:00.000</property>
      <property name="transition.threads">0</property>
    </filter>
    <filter id="filter889" out="00:00:28.000000" in="00:00:26.600000">
      <property name="window">75</property>
      <property name="max_gain">20dB</property>
      <property name="mlt_service">volume</property>
      <property name="shotcut:filter">muteVolume</property>
      <property name="gain">0</property>
    </filter>
  </producer>
  <producer id="producer517" title="Anonymous Submission" in="00:00:00.000" out="00:03:01.800">
    <property name="length">00:03:01:21</property>
    <property name="eof">pause</property>
    <property name="resource">../../006 - Videos format youtube/Saxophone/Aurianne_saxophone_totoro.mp4</property>
    <property name="audio_index">1</property>
    <property name="video_index">0</property>
    <property name="mute_on_pause">0</property>
    <property name="mlt_service">avformat-novalidate</property>
    <property name="seekable">1</property>
    <property name="aspect_ratio">1</property>
    <property name="creation_time">2020-04-09T18:32:01</property>
    <property name="shotcut:hash">dd198363db28b4d265caa15eb2e0f266</property>
    <property name="ignore_points">0</property>
    <property name="shotcut:caption">Aurianne_saxophone_totoro.mp4</property>
    <property name="shotcut:skipConvert">1</property>
    <property name="global_feed">1</property>
    <property name="xml">was here</property>
    <filter id="filter890" out="00:00:29.400000" in="00:00:28.040000">
      <property name="background">colour:0</property>
      <property name="mlt_service">affine</property>
      <property name="shotcut:filter">affineSizePosition</property>
      <property name="transition.fill">1</property>
      <property name="transition.distort">0</property>
      <property name="transition.rect">00:00:00.000000=1200.0 945.0 242.0 136.0 1;00:00:01.360000=960.0 945.0 241.0 136.0 1</property>
      <property name="transition.valign">top</property>
      <property name="transition.halign">left</property>
      <property name="shotcut:animIn">00:00:01.400000</property>
      <property name="shotcut:animOut">00:00:00.000</property>
      <property name="transition.threads">0</property>
    </filter>
    <filter id="filter891" out="00:00:29.400000" in="00:00:28.040000">
      <property name="window">75</property>
      <property name="max_gain">20dB</property>
      <property name="mlt_service">volume</property>
      <property name="shotcut:filter">muteVolume</property>
      <property name="gain">0</property>
    </filter>
  </producer>
  <producer id="producer518" title="Anonymous Submission" in="00:00:00.000" out="00:03:01.800">
    <property name="length">00:03:01:21</property>
    <property name="eof">pause</property>
    <property name="resource">../../006 - Videos format youtube/Saxophone/Aurianne_saxophone_totoro.mp4</property>
    <property name="audio_index">1</property>
    <property name="video_index">0</property>
    <property name="mute_on_pause">0</property>
    <property name="mlt_service">avformat-novalidate</property>
    <property name="seekable">1</property>
    <property name="aspect_ratio">1</property>
    <property name="creation_time">2020-04-09T18:32:01</property>
    <property name="shotcut:hash">dd198363db28b4d265caa15eb2e0f266</property>
    <property name="ignore_points">0</property>
    <property name="shotcut:caption">Aurianne_saxophone_totoro.mp4</property>
    <property name="shotcut:skipConvert">1</property>
    <property name="global_feed">1</property>
    <property name="xml">was here</property>
    <filter id="filter892" out="00:00:30.840000" in="00:00:29.440000">
      <property name="background">colour:0</property>
      <property name="mlt_service">affine</property>
      <property name="shotcut:filter">affineSizePosition</property>
      <property name="transition.fill">1</property>
      <property name="transition.distort">0</property>
      <property name="transition.rect">00:00:00.000000=960.0 945.0 242.0 136.0 1;00:00:01.360000=720.0 945.0 241.0 136.0 1</property>
      <property name="transition.valign">top</property>
      <property name="transition.halign">left</property>
      <property name="shotcut:animIn">00:00:01.400000</property>
      <property name="shotcut:animOut">00:00:00.000</property>
      <property name="transition.threads">0</property>
    </filter>
    <filter id="filter893" out="00:00:30.840000" in="00:00:29.440000">
      <property name="window">75</property>
      <property name="max_gain">20dB</property>
      <property name="mlt_service">volume</property>
      <property name="shotcut:filter">muteVolume</property>
      <property name="gain">0</property>
    </filter>
  </producer>
  <producer id="producer519" title="Anonymous Submission" in="00:00:00.000" out="00:03:01.800">
    <property name="length">00:03:01:21</property>
    <property name="eof">pause</property>
    <property name="resource">../../006 - Videos format youtube/Saxophone/Aurianne_saxophone_totoro.mp4</property>
    <property name="audio_index">1</property>
    <property name="video_index">0</property>
    <property name="mute_on_pause">0</property>
    <property name="mlt_service">avformat-novalidate</property>
    <property name="seekable">1</property>
    <property name="aspect_ratio">1</property>
    <property name="creation_time">2020-04-09T18:32:01</property>
    <property name="shotcut:hash">dd198363db28b4d265caa15eb2e0f266</property>
    <property name="ignore_points">0</property>
    <property name="shotcut:caption">Aurianne_saxophone_totoro.mp4</property>
    <property name="shotcut:skipConvert">1</property>
    <property name="global_feed">1</property>
    <property name="xml">was here</property>
    <filter id="filter894" out="00:00:32.280000" in="00:00:30.880000">
      <property name="background">colour:0</property>
      <property name="mlt_service">affine</property>
      <property name="shotcut:filter">affineSizePosition</property>
      <property name="transition.fill">1</property>
      <property name="transition.distort">0</property>
      <property name="transition.rect">00:00:00.000000=720.0 945.0 242.0 136.0 1;00:00:01.360000=480.0 945.0 241.0 136.0 1</property>
      <property name="transition.valign">top</property>
      <property name="transition.halign">left</property>
      <property name="shotcut:animIn">00:00:01.400000</property>
      <property name="shotcut:animOut">00:00:00.000</property>
      <property name="transition.threads">0</property>
    </filter>
    <filter id="filter895" out="00:00:32.280000" in="00:00:30.880000">
      <property name="window">75</property>
      <property name="max_gain">20dB</property>
      <property name="mlt_service">volume</property>
      <property name="shotcut:filter">muteVolume</property>
      <property name="gain">0</property>
    </filter>
  </producer>
  <producer id="producer520" title="Anonymous Submission" in="00:00:00.000" out="00:03:01.800">
    <property name="length">00:03:01:21</property>
    <property name="eof">pause</property>
    <property name="resource">../../006 - Videos format youtube/Saxophone/Aurianne_saxophone_totoro.mp4</property>
    <property name="audio_index">1</property>
    <property name="video_index">0</property>
    <property name="mute_on_pause">0</property>
    <property name="mlt_service">avformat-novalidate</property>
    <property name="seekable">1</property>
    <property name="aspect_ratio">1</property>
    <property name="creation_time">2020-04-09T18:32:01</property>
    <property name="shotcut:hash">dd198363db28b4d265caa15eb2e0f266</property>
    <property name="ignore_points">0</property>
    <property name="shotcut:caption">Aurianne_saxophone_totoro.mp4</property>
    <property name="shotcut:skipConvert">1</property>
    <property name="global_feed">1</property>
    <property name="xml">was here</property>
    <filter id="filter896" out="00:00:47.720000" in="00:00:32.320000">
      <property name="background">colour:0</property>
      <property name="mlt_service">affine</property>
      <property name="shotcut:filter">affineSizePosition</property>
      <property name="transition.fill">1</property>
      <property name="transition.distort">0</property>
      <property name="transition.rect">00:00:00.000000=480.0 945.0 242.0 136.0 1;00:00:01.360000=240.0 945.0 241.0 136.0 1</property>
      <property name="transition.valign">top</property>
      <property name="transition.halign">left</property>
      <property name="shotcut:animIn">00:00:01.400000</property>
      <property name="shotcut:animOut">00:00:00.000</property>
      <property name="transition.threads">0</property>
    </filter>
    <filter id="filter897" out="00:00:47.720000" in="00:00:32.320000">
      <property name="window">75</property>
      <property name="max_gain">20dB</property>
      <property name="mlt_service">volume</property>
      <property name="shotcut:filter">muteVolume</property>
      <property name="gain">0</property>
    </filter>
  </producer>
  <producer id="producer521" title="Anonymous Submission" in="00:00:00.000" out="00:03:01.800">
    <property name="length">00:03:01:21</property>
    <property name="eof">pause</property>
    <property name="resource">../../006 - Videos format youtube/Saxophone/Aurianne_saxophone_totoro.mp4</property>
    <property name="audio_index">1</property>
    <property name="video_index">0</property>
    <property name="mute_on_pause">0</property>
    <property name="mlt_service">avformat-novalidate</property>
    <property name="seekable">1</property>
    <property name="aspect_ratio">1</property>
    <property name="creation_time">2020-04-09T18:32:01</property>
    <property name="shotcut:hash">dd198363db28b4d265caa15eb2e0f266</property>
    <property name="ignore_points">0</property>
    <property name="shotcut:caption">Aurianne_saxophone_totoro.mp4</property>
    <property name="shotcut:skipConvert">1</property>
    <property name="global_feed">1</property>
    <property name="xml">was here</property>
    <filter id="filter898" out="00:00:55.720000" in="00:00:47.760000">
      <property name="background">colour:0</property>
      <property name="mlt_service">affine</property>
      <property name="shotcut:filter">affineSizePosition</property>
      <property name="transition.fill">1</property>
      <property name="transition.distort">0</property>
      <property name="transition.rect">1097.0 0.0 275.0 155.0 1</property>
      <property name="transition.valign">top</property>
      <property name="transition.halign">left</property>
      <property name="shotcut:animIn">00:00:01.400000</property>
      <property name="shotcut:animOut">00:00:00.000</property>
      <property name="transition.threads">0</property>
    </filter>
    <filter id="filter899" out="00:00:55.720000" in="00:00:47.760000">
      <property name="window">75</property>
      <property name="max_gain">20dB</property>
      <property name="mlt_service">volume</property>
      <property name="shotcut:filter">muteVolume</property>
      <property name="gain">0</property>
    </filter>
  </producer>
  <producer id="producer522" title="Anonymous Submission" in="00:00:00.000" out="00:03:01.800">
    <property name="length">00:03:01:21</property>
    <property name="eof">pause</property>
    <property name="resource">../../006 - Videos format youtube/Saxophone/Aurianne_saxophone_totoro.mp4</property>
    <property name="audio_index">1</property>
    <property name="video_index">0</property>
    <property name="mute_on_pause">0</property>
    <property name="mlt_service">avformat-novalidate</property>
    <property name="seekable">1</property>
    <property name="aspect_ratio">1</property>
    <property name="creation_time">2020-04-09T18:32:01</property>
    <property name="shotcut:hash">dd198363db28b4d265caa15eb2e0f266</property>
    <property name="ignore_points">0</property>
    <property name="shotcut:caption">Aurianne_saxophone_totoro.mp4</property>
    <property name="shotcut:skipConvert">1</property>
    <property name="global_feed">1</property>
    <property name="xml">was here</property>
    <filter id="filter900" out="00:01:03.720000" in="00:00:55.760000">
      <property name="background">colour:0</property>
      <property name="mlt_service">affine</property>
      <property name="shotcut:filter">affineSizePosition</property>
      <property name="transition.fill">1</property>
      <property name="transition.distort">0</property>
      <property name="transition.rect">1097.0 617.0 823.0 463.0 1</property>
      <property name="transition.valign">top</property>
      <property name="transition.halign">left</property>
      <property name="shotcut:animIn">00:00:01.400000</property>
      <property name="shotcut:animOut">00:00:00.000</property>
      <property name="transition.threads">0</property>
    </filter>
    <filter id="filter901" out="00:01:03.720000" in="00:00:55.760000">
      <property name="window">75</property>
      <property name="max_gain">20dB</property>
      <property name="mlt_service">volume</property>
      <property name="shotcut:filter">muteVolume</property>
      <property name="gain">0</property>
    </filter>
  </producer>
  <producer id="producer523" title="Anonymous Submission" in="00:00:00.000" out="00:03:01.800">
    <property name="length">00:03:01:21</property>
    <property name="eof">pause</property>
    <property name="resource">../../006 - Videos format youtube/Saxophone/Aurianne_saxophone_totoro.mp4</property>
    <property name="audio_index">1</property>
    <property name="video_index">0</property>
    <property name="mute_on_pause">0</property>
    <property name="mlt_service">avformat-novalidate</property>
    <property name="seekable">1</property>
    <property name="aspect_ratio">1</property>
    <property name="creation_time">2020-04-09T18:32:01</property>
    <property name="shotcut:hash">dd198363db28b4d265caa15eb2e0f266</property>
    <property name="ignore_points">0</property>
    <property name="shotcut:caption">Aurianne_saxophone_totoro.mp4</property>
    <property name="shotcut:skipConvert">1</property>
    <property name="global_feed">1</property>
    <property name="xml">was here</property>
    <filter id="filter902" out="00:01:10.720000" in="00:01:03.760000">
      <property name="background">colour:0</property>
      <property name="mlt_service">affine</property>
      <property name="shotcut:filter">affineSizePosition</property>
      <property name="transition.fill">1</property>
      <property name="transition.distort">0</property>
      <property name="transition.rect">-480.0 0.0 321.0 181.0 1</property>
      <property name="transition.valign">top</property>
      <property name="transition.halign">left</property>
      <property name="shotcut:animIn">00:00:01.400000</property>
      <property name="shotcut:animOut">00:00:00.000</property>
      <property name="transition.threads">0</property>
    </filter>
    <filter id="filter903" out="00:01:10.720000" in="00:01:03.760000">
      <property name="window">75</property>
      <property name="max_gain">20dB</property>
      <property name="mlt_service">volume</property>
      <property name="shotcut:filter">muteVolume</property>
      <property name="gain">0</property>
    </filter>
  </producer>
  <producer id="producer524" title="Anonymous Submission" in="00:00:00.000" out="00:03:01.800">
    <property name="length">00:03:01:21</property>
    <property name="eof">pause</property>
    <property name="resource">../../006 - Videos format youtube/Saxophone/Aurianne_saxophone_totoro.mp4</property>
    <property name="audio_index">1</property>
    <property name="video_index">0</property>
    <property name="mute_on_pause">0</property>
    <property name="mlt_service">avformat-novalidate</property>
    <property name="seekable">1</property>
    <property name="aspect_ratio">1</property>
    <property name="creation_time">2020-04-09T18:32:01</property>
    <property name="shotcut:hash">dd198363db28b4d265caa15eb2e0f266</property>
    <property name="ignore_points">0</property>
    <property name="shotcut:caption">Aurianne_saxophone_totoro.mp4</property>
    <property name="shotcut:skipConvert">1</property>
    <property name="global_feed">1</property>
    <property name="xml">was here</property>
    <filter id="filter904" out="00:01:18.720000" in="00:01:10.760000">
      <property name="background">colour:0</property>
      <property name="mlt_service">affine</property>
      <property name="shotcut:filter">affineSizePosition</property>
      <property name="transition.fill">1</property>
      <property name="transition.distort">0</property>
      <property name="transition.rect">-1600.0 -900.0 321.0 181.0 1</property>
      <property name="transition.valign">top</property>
      <property name="transition.halign">left</property>
      <property name="shotcut:animIn">00:00:01.400000</property>
      <property name="shotcut:animOut">00:00:00.000</property>
      <property name="transition.threads">0</property>
    </filter>
    <filter id="filter905" out="00:01:18.720000" in="00:01:10.760000">
      <property name="window">75</property>
      <property name="max_gain">20dB</property>
      <property name="mlt_service">volume</property>
      <property name="shotcut:filter">muteVolume</property>
      <property name="gain">0</property>
    </filter>
  </producer>
  <producer id="producer525" title="Anonymous Submission" in="00:00:00.000" out="00:03:01.800">
    <property name="length">00:03:01:21</property>
    <property name="eof">pause</property>
    <property name="resource">../../006 - Videos format youtube/Saxophone/Aurianne_saxophone_totoro.mp4</property>
    <property name="audio_index">1</property>
    <property name="video_index">0</property>
    <property name="mute_on_pause">0</property>
    <property name="mlt_service">avformat-novalidate</property>
    <property name="seekable">1</property>
    <property name="aspect_ratio">1</property>
    <property name="creation_time">2020-04-09T18:32:01</property>
    <property name="shotcut:hash">dd198363db28b4d265caa15eb2e0f266</property>
    <property name="ignore_points">0</property>
    <property name="shotcut:caption">Aurianne_saxophone_totoro.mp4</property>
    <property name="shotcut:skipConvert">1</property>
    <property name="global_feed">1</property>
    <property name="xml">was here</property>
    <filter id="filter906" out="00:01:27.720000" in="00:01:18.760000">
      <property name="background">colour:0</property>
      <property name="mlt_service">affine</property>
      <property name="shotcut:filter">affineSizePosition</property>
      <property name="transition.fill">1</property>
      <property name="transition.distort">0</property>
      <property name="transition.rect">-548.0 -308.0 275.0 155.0 1</property>
      <property name="transition.valign">top</property>
      <property name="transition.halign">left</property>
      <property name="shotcut:animIn">00:00:01.400000</property>
      <property name="shotcut:animOut">00:00:00.000</property>
      <property name="transition.threads">0</property>
    </filter>
    <filter id="filter907" out="00:01:27.720000" in="00:01:18.760000">
      <property name="window">75</property>
      <property name="max_gain">20dB</property>
      <property name="mlt_service">volume</property>
      <property name="shotcut:filter">muteVolume</property>
      <property name="gain">0</property>
    </filter>
  </producer>
  <producer id="producer526" title="Anonymous Submission" in="00:00:00.000" out="00:03:01.800">
    <property name="length">00:03:01:21</property>
    <property name="eof">pause</property>
    <property name="resource">../../006 - Videos format youtube/Saxophone/Aurianne_saxophone_totoro.mp4</property>
    <property name="audio_index">1</property>
    <property name="video_index">0</property>
    <property name="mute_on_pause">0</property>
    <property name="mlt_service">avformat-novalidate</property>
    <property name="seekable">1</property>
    <property name="aspect_ratio">1</property>
    <property name="creation_time">2020-04-09T18:32:01</property>
    <property name="shotcut:hash">dd198363db28b4d265caa15eb2e0f266</property>
    <property name="ignore_points">0</property>
    <property name="shotcut:caption">Aurianne_saxophone_totoro.mp4</property>
    <property name="shotcut:skipConvert">1</property>
    <property name="global_feed">1</property>
    <property name="xml">was here</property>
    <filter id="filter908" out="00:01:34.720000" in="00:01:27.760000">
      <property name="background">colour:0</property>
      <property name="mlt_service">affine</property>
      <property name="shotcut:filter">affineSizePosition</property>
      <property name="transition.fill">1</property>
      <property name="transition.distort">0</property>
      <property name="transition.rect">-548.0 -308.0 275.0 155.0 1</property>
      <property name="transition.valign">top</property>
      <property name="transition.halign">left</property>
      <property name="shotcut:animIn">00:00:01.400000</property>
      <property name="shotcut:animOut">00:00:00.000</property>
      <property name="transition.threads">0</property>
    </filter>
    <filter id="filter909" out="00:01:34.720000" in="00:01:27.760000">
      <property name="window">75</property>
      <property name="max_gain">20dB</property>
      <property name="mlt_service">volume</property>
      <property name="shotcut:filter">muteVolume</property>
      <property name="gain">0</property>
    </filter>
  </producer>
  <producer id="producer527" title="Anonymous Submission" in="00:00:00.000" out="00:03:01.800">
    <property name="length">00:03:01:21</property>
    <property name="eof">pause</property>
    <property name="resource">../../006 - Videos format youtube/Saxophone/Aurianne_saxophone_totoro.mp4</property>
    <property name="audio_index">1</property>
    <property name="video_index">0</property>
    <property name="mute_on_pause">0</property>
    <property name="mlt_service">avformat-novalidate</property>
    <property name="seekable">1</property>
    <property name="aspect_ratio">1</property>
    <property name="creation_time">2020-04-09T18:32:01</property>
    <property name="shotcut:hash">dd198363db28b4d265caa15eb2e0f266</property>
    <property name="ignore_points">0</property>
    <property name="shotcut:caption">Aurianne_saxophone_totoro.mp4</property>
    <property name="shotcut:skipConvert">1</property>
    <property name="global_feed">1</property>
    <property name="xml">was here</property>
    <filter id="filter910" out="00:03:01.800000" in="00:01:34.760000">
      <property name="background">colour:0</property>
      <property name="mlt_service">affine</property>
      <property name="shotcut:filter">affineSizePosition</property>
      <property name="transition.fill">1</property>
      <property name="transition.distort">0</property>
      <property name="transition.rect">-480.0 0.0 321.0 181.0 1</property>
      <property name="transition.valign">top</property>
      <property name="transition.halign">left</property>
      <property name="shotcut:animIn">00:00:01.400000</property>
      <property name="shotcut:animOut">00:00:00.000</property>
      <property name="transition.threads">0</property>
    </filter>
    <filter id="filter911" out="00:03:01.800000" in="00:01:34.760000">
      <property name="window">75</property>
      <property name="max_gain">20dB</property>
      <property name="mlt_service">volume</property>
      <property name="shotcut:filter">muteVolume</property>
      <property name="gain">0</property>
    </filter>
  </producer>
  <playlist id="playlist29">
    <property name="shotcut:video">1</property>
    <property name="shotcut:name">Aurianne_saxo1</property>
    <property name="shotcut:lock">1</property>
    <blank length="00:00:16.240" />
    <entry producer="producer505" in="00:00:00.000" out="00:00:06.720000" />
    <entry producer="producer506" in="00:00:06.760000" out="00:00:13.720000" />
    <entry producer="producer507" in="00:00:13.760000" out="00:00:15.120000" />
    <entry producer="producer508" in="00:00:15.160000" out="00:00:16.560000" />
    <entry producer="producer509" in="00:00:16.600000" out="00:00:18.000000" />
    <entry producer="producer510" in="00:00:18.040000" out="00:00:19.400000" />
    <entry producer="producer511" in="00:00:19.440000" out="00:00:20.840000" />
    <entry producer="producer512" in="00:00:20.880000" out="00:00:22.280000" />
    <entry producer="producer513" in="00:00:22.320000" out="00:00:23.720000" />
    <entry producer="producer514" in="00:00:23.760000" out="00:00:25.120000" />
    <entry producer="producer515" in="00:00:25.160000" out="00:00:26.560000" />
    <entry producer="producer516" in="00:00:26.600000" out="00:00:28.000000" />
    <entry producer="producer517" in="00:00:28.040000" out="00:00:29.400000" />
    <entry producer="producer518" in="00:00:29.440000" out="00:00:30.840000" />
    <entry producer="producer519" in="00:00:30.880000" out="00:00:32.280000" />
    <entry producer="producer520" in="00:00:32.320000" out="00:00:47.720000" />
    <entry producer="producer521" in="00:00:47.760000" out="00:00:55.720000" />
    <entry producer="producer522" in="00:00:55.760000" out="00:01:03.720000" />
    <entry producer="producer523" in="00:01:03.760000" out="00:01:10.720000" />
    <entry producer="producer524" in="00:01:10.760000" out="00:01:18.720000" />
    <entry producer="producer525" in="00:01:18.760000" out="00:01:27.720000" />
    <entry producer="producer526" in="00:01:27.760000" out="00:01:34.720000" />
    <entry producer="producer527" in="00:01:34.760000" out="00:03:01.800000" />
    <filter id="filter912" out="00:03:20.840">
      <property name="window">75</property>
      <property name="max_gain">20dB</property>
      <property name="level">-7</property>
      <property name="mlt_service">volume</property>
    </filter>
  </playlist>
  <producer id="producer528" title="Anonymous Submission" in="00:00:00.000" out="00:03:14.560">
    <property name="length">00:03:14:15</property>
    <property name="eof">pause</property>
    <property name="resource">../../006 - Videos format youtube/Saxophone/Marie-Claude_saxophone_totoro.mp4</property>
    <property name="audio_index">1</property>
    <property name="video_index">0</property>
    <property name="mute_on_pause">0</property>
    <property name="mlt_service">avformat-novalidate</property>
    <property name="seekable">1</property>
    <property name="aspect_ratio">1</property>
    <property name="creation_time">2020-04-17T16:47:48</property>
    <property name="shotcut:hash">93486417d24480bfbb5e6dc264b34a22</property>
    <property name="ignore_points">0</property>
    <property name="shotcut:caption">Marie-Claude_saxophone_totoro.mp4</property>
    <property name="shotcut:skipConvert">1</property>
    <property name="global_feed">1</property>
    <property name="xml">was here</property>
    <filter id="filter913" out="00:00:17.040000">
      <property name="background">colour:0</property>
      <property name="mlt_service">affine</property>
      <property name="shotcut:filter">affineSizePosition</property>
      <property name="transition.fill">1</property>
      <property name="transition.distort">0</property>
      <property name="transition.rect">0.0 308.0 275.0 155.0 1</property>
      <property name="transition.valign">top</property>
      <property name="transition.halign">left</property>
      <property name="shotcut:animIn">00:00:00.000</property>
      <property name="shotcut:animOut">00:00:00.000</property>
      <property name="transition.threads">0</property>
    </filter>
    <filter id="filter914" out="00:00:17.040000">
      <property name="window">75</property>
      <property name="max_gain">20dB</property>
      <property name="mlt_service">volume</property>
      <property name="shotcut:filter">muteVolume</property>
      <property name="gain">0</property>
    </filter>
  </producer>
  <producer id="producer529" title="Anonymous Submission" in="00:00:00.000" out="00:03:14.560">
    <property name="length">00:03:14:15</property>
    <property name="eof">pause</property>
    <property name="resource">../../006 - Videos format youtube/Saxophone/Marie-Claude_saxophone_totoro.mp4</property>
    <property name="audio_index">1</property>
    <property name="video_index">0</property>
    <property name="mute_on_pause">0</property>
    <property name="mlt_service">avformat-novalidate</property>
    <property name="seekable">1</property>
    <property name="aspect_ratio">1</property>
    <property name="creation_time">2020-04-17T16:47:48</property>
    <property name="shotcut:hash">93486417d24480bfbb5e6dc264b34a22</property>
    <property name="ignore_points">0</property>
    <property name="shotcut:caption">Marie-Claude_saxophone_totoro.mp4</property>
    <property name="shotcut:skipConvert">1</property>
    <property name="global_feed">1</property>
    <property name="xml">was here</property>
    <filter id="filter915" out="00:00:24.040000" in="00:00:17.080000">
      <property name="background">colour:0</property>
      <property name="mlt_service">affine</property>
      <property name="shotcut:filter">affineSizePosition</property>
      <property name="transition.fill">1</property>
      <property name="transition.distort">0</property>
      <property name="transition.rect">00:00:00.000000=0.0 308.0 276.0 155.0 1;00:00:00.440000=1645.0 462.0 275.0 155.0 1</property>
      <property name="transition.valign">top</property>
      <property name="transition.halign">left</property>
      <property name="shotcut:animIn">00:00:00.480000</property>
      <property name="shotcut:animOut">00:00:00.000</property>
      <property name="transition.threads">0</property>
    </filter>
    <filter id="filter916" out="00:00:24.040000" in="00:00:17.080000">
      <property name="window">75</property>
      <property name="max_gain">20dB</property>
      <property name="mlt_service">volume</property>
      <property name="shotcut:filter">muteVolume</property>
      <property name="gain">0</property>
    </filter>
  </producer>
  <producer id="producer530" title="Anonymous Submission" in="00:00:00.000" out="00:03:14.560">
    <property name="length">00:03:14:15</property>
    <property name="eof">pause</property>
    <property name="resource">../../006 - Videos format youtube/Saxophone/Marie-Claude_saxophone_totoro.mp4</property>
    <property name="audio_index">1</property>
    <property name="video_index">0</property>
    <property name="mute_on_pause">0</property>
    <property name="mlt_service">avformat-novalidate</property>
    <property name="seekable">1</property>
    <property name="aspect_ratio">1</property>
    <property name="creation_time">2020-04-17T16:47:48</property>
    <property name="shotcut:hash">93486417d24480bfbb5e6dc264b34a22</property>
    <property name="ignore_points">0</property>
    <property name="shotcut:caption">Marie-Claude_saxophone_totoro.mp4</property>
    <property name="shotcut:skipConvert">1</property>
    <property name="global_feed">1</property>
    <property name="xml">was here</property>
    <filter id="filter917" out="00:00:25.440000" in="00:00:24.080000">
      <property name="background">colour:0</property>
      <property name="mlt_service">affine</property>
      <property name="shotcut:filter">affineSizePosition</property>
      <property name="transition.fill">1</property>
      <property name="transition.distort">0</property>
      <property name="transition.rect">00:00:00.000000=1200.0 945.0 242.0 136.0 1;00:00:01.360000=960.0 945.0 241.0 136.0 1</property>
      <property name="transition.valign">top</property>
      <property name="transition.halign">left</property>
      <property name="shotcut:animIn">00:00:01.400000</property>
      <property name="shotcut:animOut">00:00:00.000</property>
      <property name="transition.threads">0</property>
    </filter>
    <filter id="filter918" out="00:00:25.440000" in="00:00:24.080000">
      <property name="window">75</property>
      <property name="max_gain">20dB</property>
      <property name="mlt_service">volume</property>
      <property name="shotcut:filter">muteVolume</property>
      <property name="gain">0</property>
    </filter>
  </producer>
  <producer id="producer531" title="Anonymous Submission" in="00:00:00.000" out="00:03:14.560">
    <property name="length">00:03:14:15</property>
    <property name="eof">pause</property>
    <property name="resource">../../006 - Videos format youtube/Saxophone/Marie-Claude_saxophone_totoro.mp4</property>
    <property name="audio_index">1</property>
    <property name="video_index">0</property>
    <property name="mute_on_pause">0</property>
    <property name="mlt_service">avformat-novalidate</property>
    <property name="seekable">1</property>
    <property name="aspect_ratio">1</property>
    <property name="creation_time">2020-04-17T16:47:48</property>
    <property name="shotcut:hash">93486417d24480bfbb5e6dc264b34a22</property>
    <property name="ignore_points">0</property>
    <property name="shotcut:caption">Marie-Claude_saxophone_totoro.mp4</property>
    <property name="shotcut:skipConvert">1</property>
    <property name="global_feed">1</property>
    <property name="xml">was here</property>
    <filter id="filter919" out="00:00:26.880000" in="00:00:25.480000">
      <property name="background">colour:0</property>
      <property name="mlt_service">affine</property>
      <property name="shotcut:filter">affineSizePosition</property>
      <property name="transition.fill">1</property>
      <property name="transition.distort">0</property>
      <property name="transition.rect">00:00:00.000000=960.0 945.0 242.0 136.0 1;00:00:01.360000=720.0 945.0 241.0 136.0 1</property>
      <property name="transition.valign">top</property>
      <property name="transition.halign">left</property>
      <property name="shotcut:animIn">00:00:01.400000</property>
      <property name="shotcut:animOut">00:00:00.000</property>
      <property name="transition.threads">0</property>
    </filter>
    <filter id="filter920" out="00:00:26.880000" in="00:00:25.480000">
      <property name="window">75</property>
      <property name="max_gain">20dB</property>
      <property name="mlt_service">volume</property>
      <property name="shotcut:filter">muteVolume</property>
      <property name="gain">0</property>
    </filter>
  </producer>
  <producer id="producer532" title="Anonymous Submission" in="00:00:00.000" out="00:03:14.560">
    <property name="length">00:03:14:15</property>
    <property name="eof">pause</property>
    <property name="resource">../../006 - Videos format youtube/Saxophone/Marie-Claude_saxophone_totoro.mp4</property>
    <property name="audio_index">1</property>
    <property name="video_index">0</property>
    <property name="mute_on_pause">0</property>
    <property name="mlt_service">avformat-novalidate</property>
    <property name="seekable">1</property>
    <property name="aspect_ratio">1</property>
    <property name="creation_time">2020-04-17T16:47:48</property>
    <property name="shotcut:hash">93486417d24480bfbb5e6dc264b34a22</property>
    <property name="ignore_points">0</property>
    <property name="shotcut:caption">Marie-Claude_saxophone_totoro.mp4</property>
    <property name="shotcut:skipConvert">1</property>
    <property name="global_feed">1</property>
    <property name="xml">was here</property>
    <filter id="filter921" out="00:00:28.320000" in="00:00:26.920000">
      <property name="background">colour:0</property>
      <property name="mlt_service">affine</property>
      <property name="shotcut:filter">affineSizePosition</property>
      <property name="transition.fill">1</property>
      <property name="transition.distort">0</property>
      <property name="transition.rect">00:00:00.000000=720.0 945.0 242.0 136.0 1;00:00:01.360000=480.0 945.0 241.0 136.0 1</property>
      <property name="transition.valign">top</property>
      <property name="transition.halign">left</property>
      <property name="shotcut:animIn">00:00:01.400000</property>
      <property name="shotcut:animOut">00:00:00.000</property>
      <property name="transition.threads">0</property>
    </filter>
    <filter id="filter922" out="00:00:28.320000" in="00:00:26.920000">
      <property name="window">75</property>
      <property name="max_gain">20dB</property>
      <property name="mlt_service">volume</property>
      <property name="shotcut:filter">muteVolume</property>
      <property name="gain">0</property>
    </filter>
  </producer>
  <producer id="producer533" title="Anonymous Submission" in="00:00:00.000" out="00:03:14.560">
    <property name="length">00:03:14:15</property>
    <property name="eof">pause</property>
    <property name="resource">../../006 - Videos format youtube/Saxophone/Marie-Claude_saxophone_totoro.mp4</property>
    <property name="audio_index">1</property>
    <property name="video_index">0</property>
    <property name="mute_on_pause">0</property>
    <property name="mlt_service">avformat-novalidate</property>
    <property name="seekable">1</property>
    <property name="aspect_ratio">1</property>
    <property name="creation_time">2020-04-17T16:47:48</property>
    <property name="shotcut:hash">93486417d24480bfbb5e6dc264b34a22</property>
    <property name="ignore_points">0</property>
    <property name="shotcut:caption">Marie-Claude_saxophone_totoro.mp4</property>
    <property name="shotcut:skipConvert">1</property>
    <property name="global_feed">1</property>
    <property name="xml">was here</property>
    <filter id="filter923" out="00:00:29.720000" in="00:00:28.360000">
      <property name="background">colour:0</property>
      <property name="mlt_service">affine</property>
      <property name="shotcut:filter">affineSizePosition</property>
      <property name="transition.fill">1</property>
      <property name="transition.distort">0</property>
      <property name="transition.rect">00:00:00.000000=480.0 945.0 242.0 136.0 1;00:00:01.360000=240.0 945.0 241.0 136.0 1</property>
      <property name="transition.valign">top</property>
      <property name="transition.halign">left</property>
      <property name="shotcut:animIn">00:00:01.400000</property>
      <property name="shotcut:animOut">00:00:00.000</property>
      <property name="transition.threads">0</property>
    </filter>
    <filter id="filter924" out="00:00:29.720000" in="00:00:28.360000">
      <property name="window">75</property>
      <property name="max_gain">20dB</property>
      <property name="mlt_service">volume</property>
      <property name="shotcut:filter">muteVolume</property>
      <property name="gain">0</property>
    </filter>
  </producer>
  <producer id="producer534" title="Anonymous Submission" in="00:00:00.000" out="00:03:14.560">
    <property name="length">00:03:14:15</property>
    <property name="eof">pause</property>
    <property name="resource">../../006 - Videos format youtube/Saxophone/Marie-Claude_saxophone_totoro.mp4</property>
    <property name="audio_index">1</property>
    <property name="video_index">0</property>
    <property name="mute_on_pause">0</property>
    <property name="mlt_service">avformat-novalidate</property>
    <property name="seekable">1</property>
    <property name="aspect_ratio">1</property>
    <property name="creation_time">2020-04-17T16:47:48</property>
    <property name="shotcut:hash">93486417d24480bfbb5e6dc264b34a22</property>
    <property name="ignore_points">0</property>
    <property name="shotcut:caption">Marie-Claude_saxophone_totoro.mp4</property>
    <property name="shotcut:skipConvert">1</property>
    <property name="global_feed">1</property>
    <property name="xml">was here</property>
    <filter id="filter925" out="00:00:31.160000" in="00:00:29.760000">
      <property name="background">colour:0</property>
      <property name="mlt_service">affine</property>
      <property name="shotcut:filter">affineSizePosition</property>
      <property name="transition.fill">1</property>
      <property name="transition.distort">0</property>
      <property name="transition.rect">00:00:00.000000=240.0 945.0 242.0 136.0 1;00:00:01.360000=0.0 945.0 241.0 136.0 1</property>
      <property name="transition.valign">top</property>
      <property name="transition.halign">left</property>
      <property name="shotcut:animIn">00:00:01.400000</property>
      <property name="shotcut:animOut">00:00:00.000</property>
      <property name="transition.threads">0</property>
    </filter>
    <filter id="filter926" out="00:00:31.160000" in="00:00:29.760000">
      <property name="window">75</property>
      <property name="max_gain">20dB</property>
      <property name="mlt_service">volume</property>
      <property name="shotcut:filter">muteVolume</property>
      <property name="gain">0</property>
    </filter>
  </producer>
  <producer id="producer535" title="Anonymous Submission" in="00:00:00.000" out="00:03:14.560">
    <property name="length">00:03:14:15</property>
    <property name="eof">pause</property>
    <property name="resource">../../006 - Videos format youtube/Saxophone/Marie-Claude_saxophone_totoro.mp4</property>
    <property name="audio_index">1</property>
    <property name="video_index">0</property>
    <property name="mute_on_pause">0</property>
    <property name="mlt_service">avformat-novalidate</property>
    <property name="seekable">1</property>
    <property name="aspect_ratio">1</property>
    <property name="creation_time">2020-04-17T16:47:48</property>
    <property name="shotcut:hash">93486417d24480bfbb5e6dc264b34a22</property>
    <property name="ignore_points">0</property>
    <property name="shotcut:caption">Marie-Claude_saxophone_totoro.mp4</property>
    <property name="shotcut:skipConvert">1</property>
    <property name="global_feed">1</property>
    <property name="xml">was here</property>
    <filter id="filter927" out="00:00:32.600000" in="00:00:31.200000">
      <property name="background">colour:0</property>
      <property name="mlt_service">affine</property>
      <property name="shotcut:filter">affineSizePosition</property>
      <property name="transition.fill">1</property>
      <property name="transition.distort">0</property>
      <property name="transition.rect">00:00:00.000000=1680.0 945.0 242.0 136.0 1;00:00:01.360000=1440.0 945.0 241.0 136.0 1</property>
      <property name="transition.valign">top</property>
      <property name="transition.halign">left</property>
      <property name="shotcut:animIn">00:00:01.400000</property>
      <property name="shotcut:animOut">00:00:00.000</property>
      <property name="transition.threads">0</property>
    </filter>
    <filter id="filter928" out="00:00:32.600000" in="00:00:31.200000">
      <property name="window">75</property>
      <property name="max_gain">20dB</property>
      <property name="mlt_service">volume</property>
      <property name="shotcut:filter">muteVolume</property>
      <property name="gain">0</property>
    </filter>
  </producer>
  <producer id="producer536" title="Anonymous Submission" in="00:00:00.000" out="00:03:14.560">
    <property name="length">00:03:14:15</property>
    <property name="eof">pause</property>
    <property name="resource">../../006 - Videos format youtube/Saxophone/Marie-Claude_saxophone_totoro.mp4</property>
    <property name="audio_index">1</property>
    <property name="video_index">0</property>
    <property name="mute_on_pause">0</property>
    <property name="mlt_service">avformat-novalidate</property>
    <property name="seekable">1</property>
    <property name="aspect_ratio">1</property>
    <property name="creation_time">2020-04-17T16:47:48</property>
    <property name="shotcut:hash">93486417d24480bfbb5e6dc264b34a22</property>
    <property name="ignore_points">0</property>
    <property name="shotcut:caption">Marie-Claude_saxophone_totoro.mp4</property>
    <property name="shotcut:skipConvert">1</property>
    <property name="global_feed">1</property>
    <property name="xml">was here</property>
    <filter id="filter929" out="00:00:34.040000" in="00:00:32.640000">
      <property name="background">colour:0</property>
      <property name="mlt_service">affine</property>
      <property name="shotcut:filter">affineSizePosition</property>
      <property name="transition.fill">1</property>
      <property name="transition.distort">0</property>
      <property name="transition.rect">00:00:00.000000=1440.0 945.0 242.0 136.0 1;00:00:01.360000=1200.0 945.0 241.0 136.0 1</property>
      <property name="transition.valign">top</property>
      <property name="transition.halign">left</property>
      <property name="shotcut:animIn">00:00:01.400000</property>
      <property name="shotcut:animOut">00:00:00.000</property>
      <property name="transition.threads">0</property>
    </filter>
    <filter id="filter930" out="00:00:34.040000" in="00:00:32.640000">
      <property name="window">75</property>
      <property name="max_gain">20dB</property>
      <property name="mlt_service">volume</property>
      <property name="shotcut:filter">muteVolume</property>
      <property name="gain">0</property>
    </filter>
  </producer>
  <producer id="producer537" title="Anonymous Submission" in="00:00:00.000" out="00:03:14.560">
    <property name="length">00:03:14:15</property>
    <property name="eof">pause</property>
    <property name="resource">../../006 - Videos format youtube/Saxophone/Marie-Claude_saxophone_totoro.mp4</property>
    <property name="audio_index">1</property>
    <property name="video_index">0</property>
    <property name="mute_on_pause">0</property>
    <property name="mlt_service">avformat-novalidate</property>
    <property name="seekable">1</property>
    <property name="aspect_ratio">1</property>
    <property name="creation_time">2020-04-17T16:47:48</property>
    <property name="shotcut:hash">93486417d24480bfbb5e6dc264b34a22</property>
    <property name="ignore_points">0</property>
    <property name="shotcut:caption">Marie-Claude_saxophone_totoro.mp4</property>
    <property name="shotcut:skipConvert">1</property>
    <property name="global_feed">1</property>
    <property name="xml">was here</property>
    <filter id="filter931" out="00:00:35.440000" in="00:00:34.080000">
      <property name="background">colour:0</property>
      <property name="mlt_service">affine</property>
      <property name="shotcut:filter">affineSizePosition</property>
      <property name="transition.fill">1</property>
      <property name="transition.distort">0</property>
      <property name="transition.rect">00:00:00.000000=1200.0 945.0 242.0 136.0 1;00:00:01.360000=960.0 945.0 241.0 136.0 1</property>
      <property name="transition.valign">top</property>
      <property name="transition.halign">left</property>
      <property name="shotcut:animIn">00:00:01.400000</property>
      <property name="shotcut:animOut">00:00:00.000</property>
      <property name="transition.threads">0</property>
    </filter>
    <filter id="filter932" out="00:00:35.440000" in="00:00:34.080000">
      <property name="window">75</property>
      <property name="max_gain">20dB</property>
      <property name="mlt_service">volume</property>
      <property name="shotcut:filter">muteVolume</property>
      <property name="gain">0</property>
    </filter>
  </producer>
  <producer id="producer538" title="Anonymous Submission" in="00:00:00.000" out="00:03:14.560">
    <property name="length">00:03:14:15</property>
    <property name="eof">pause</property>
    <property name="resource">../../006 - Videos format youtube/Saxophone/Marie-Claude_saxophone_totoro.mp4</property>
    <property name="audio_index">1</property>
    <property name="video_index">0</property>
    <property name="mute_on_pause">0</property>
    <property name="mlt_service">avformat-novalidate</property>
    <property name="seekable">1</property>
    <property name="aspect_ratio">1</property>
    <property name="creation_time">2020-04-17T16:47:48</property>
    <property name="shotcut:hash">93486417d24480bfbb5e6dc264b34a22</property>
    <property name="ignore_points">0</property>
    <property name="shotcut:caption">Marie-Claude_saxophone_totoro.mp4</property>
    <property name="shotcut:skipConvert">1</property>
    <property name="global_feed">1</property>
    <property name="xml">was here</property>
    <filter id="filter933" out="00:00:36.880000" in="00:00:35.480000">
      <property name="background">colour:0</property>
      <property name="mlt_service">affine</property>
      <property name="shotcut:filter">affineSizePosition</property>
      <property name="transition.fill">1</property>
      <property name="transition.distort">0</property>
      <property name="transition.rect">00:00:00.000000=960.0 945.0 242.0 136.0 1;00:00:01.360000=720.0 945.0 241.0 136.0 1</property>
      <property name="transition.valign">top</property>
      <property name="transition.halign">left</property>
      <property name="shotcut:animIn">00:00:01.400000</property>
      <property name="shotcut:animOut">00:00:00.000</property>
      <property name="transition.threads">0</property>
    </filter>
    <filter id="filter934" out="00:00:36.880000" in="00:00:35.480000">
      <property name="window">75</property>
      <property name="max_gain">20dB</property>
      <property name="mlt_service">volume</property>
      <property name="shotcut:filter">muteVolume</property>
      <property name="gain">0</property>
    </filter>
  </producer>
  <producer id="producer539" title="Anonymous Submission" in="00:00:00.000" out="00:03:14.560">
    <property name="length">00:03:14:15</property>
    <property name="eof">pause</property>
    <property name="resource">../../006 - Videos format youtube/Saxophone/Marie-Claude_saxophone_totoro.mp4</property>
    <property name="audio_index">1</property>
    <property name="video_index">0</property>
    <property name="mute_on_pause">0</property>
    <property name="mlt_service">avformat-novalidate</property>
    <property name="seekable">1</property>
    <property name="aspect_ratio">1</property>
    <property name="creation_time">2020-04-17T16:47:48</property>
    <property name="shotcut:hash">93486417d24480bfbb5e6dc264b34a22</property>
    <property name="ignore_points">0</property>
    <property name="shotcut:caption">Marie-Claude_saxophone_totoro.mp4</property>
    <property name="shotcut:skipConvert">1</property>
    <property name="global_feed">1</property>
    <property name="xml">was here</property>
    <filter id="filter935" out="00:00:38.320000" in="00:00:36.920000">
      <property name="background">colour:0</property>
      <property name="mlt_service">affine</property>
      <property name="shotcut:filter">affineSizePosition</property>
      <property name="transition.fill">1</property>
      <property name="transition.distort">0</property>
      <property name="transition.rect">00:00:00.000000=720.0 945.0 242.0 136.0 1;00:00:01.360000=480.0 945.0 241.0 136.0 1</property>
      <property name="transition.valign">top</property>
      <property name="transition.halign">left</property>
      <property name="shotcut:animIn">00:00:01.400000</property>
      <property name="shotcut:animOut">00:00:00.000</property>
      <property name="transition.threads">0</property>
    </filter>
    <filter id="filter936" out="00:00:38.320000" in="00:00:36.920000">
      <property name="window">75</property>
      <property name="max_gain">20dB</property>
      <property name="mlt_service">volume</property>
      <property name="shotcut:filter">muteVolume</property>
      <property name="gain">0</property>
    </filter>
  </producer>
  <producer id="producer540" title="Anonymous Submission" in="00:00:00.000" out="00:03:14.560">
    <property name="length">00:03:14:15</property>
    <property name="eof">pause</property>
    <property name="resource">../../006 - Videos format youtube/Saxophone/Marie-Claude_saxophone_totoro.mp4</property>
    <property name="audio_index">1</property>
    <property name="video_index">0</property>
    <property name="mute_on_pause">0</property>
    <property name="mlt_service">avformat-novalidate</property>
    <property name="seekable">1</property>
    <property name="aspect_ratio">1</property>
    <property name="creation_time">2020-04-17T16:47:48</property>
    <property name="shotcut:hash">93486417d24480bfbb5e6dc264b34a22</property>
    <property name="ignore_points">0</property>
    <property name="shotcut:caption">Marie-Claude_saxophone_totoro.mp4</property>
    <property name="shotcut:skipConvert">1</property>
    <property name="global_feed">1</property>
    <property name="xml">was here</property>
    <filter id="filter937" out="00:00:39.720000" in="00:00:38.360000">
      <property name="background">colour:0</property>
      <property name="mlt_service">affine</property>
      <property name="shotcut:filter">affineSizePosition</property>
      <property name="transition.fill">1</property>
      <property name="transition.distort">0</property>
      <property name="transition.rect">00:00:00.000000=480.0 945.0 242.0 136.0 1;00:00:01.360000=240.0 945.0 241.0 136.0 1</property>
      <property name="transition.valign">top</property>
      <property name="transition.halign">left</property>
      <property name="shotcut:animIn">00:00:01.400000</property>
      <property name="shotcut:animOut">00:00:00.000</property>
      <property name="transition.threads">0</property>
    </filter>
    <filter id="filter938" out="00:00:39.720000" in="00:00:38.360000">
      <property name="window">75</property>
      <property name="max_gain">20dB</property>
      <property name="mlt_service">volume</property>
      <property name="shotcut:filter">muteVolume</property>
      <property name="gain">0</property>
    </filter>
  </producer>
  <producer id="producer541" title="Anonymous Submission" in="00:00:00.000" out="00:03:14.560">
    <property name="length">00:03:14:15</property>
    <property name="eof">pause</property>
    <property name="resource">../../006 - Videos format youtube/Saxophone/Marie-Claude_saxophone_totoro.mp4</property>
    <property name="audio_index">1</property>
    <property name="video_index">0</property>
    <property name="mute_on_pause">0</property>
    <property name="mlt_service">avformat-novalidate</property>
    <property name="seekable">1</property>
    <property name="aspect_ratio">1</property>
    <property name="creation_time">2020-04-17T16:47:48</property>
    <property name="shotcut:hash">93486417d24480bfbb5e6dc264b34a22</property>
    <property name="ignore_points">0</property>
    <property name="shotcut:caption">Marie-Claude_saxophone_totoro.mp4</property>
    <property name="shotcut:skipConvert">1</property>
    <property name="global_feed">1</property>
    <property name="xml">was here</property>
    <filter id="filter939" out="00:00:41.160000" in="00:00:39.760000">
      <property name="background">colour:0</property>
      <property name="mlt_service">affine</property>
      <property name="shotcut:filter">affineSizePosition</property>
      <property name="transition.fill">1</property>
      <property name="transition.distort">0</property>
      <property name="transition.rect">00:00:00.000000=240.0 945.0 242.0 136.0 1;00:00:01.360000=0.0 945.0 241.0 136.0 1</property>
      <property name="transition.valign">top</property>
      <property name="transition.halign">left</property>
      <property name="shotcut:animIn">00:00:01.400000</property>
      <property name="shotcut:animOut">00:00:00.000</property>
      <property name="transition.threads">0</property>
    </filter>
    <filter id="filter940" out="00:00:41.160000" in="00:00:39.760000">
      <property name="window">75</property>
      <property name="max_gain">20dB</property>
      <property name="mlt_service">volume</property>
      <property name="shotcut:filter">muteVolume</property>
      <property name="gain">0</property>
    </filter>
  </producer>
  <producer id="producer542" title="Anonymous Submission" in="00:00:00.000" out="00:03:14.560">
    <property name="length">00:03:14:15</property>
    <property name="eof">pause</property>
    <property name="resource">../../006 - Videos format youtube/Saxophone/Marie-Claude_saxophone_totoro.mp4</property>
    <property name="audio_index">1</property>
    <property name="video_index">0</property>
    <property name="mute_on_pause">0</property>
    <property name="mlt_service">avformat-novalidate</property>
    <property name="seekable">1</property>
    <property name="aspect_ratio">1</property>
    <property name="creation_time">2020-04-17T16:47:48</property>
    <property name="shotcut:hash">93486417d24480bfbb5e6dc264b34a22</property>
    <property name="ignore_points">0</property>
    <property name="shotcut:caption">Marie-Claude_saxophone_totoro.mp4</property>
    <property name="shotcut:skipConvert">1</property>
    <property name="global_feed">1</property>
    <property name="xml">was here</property>
    <filter id="filter941" out="00:00:42.600000" in="00:00:41.200000">
      <property name="background">colour:0</property>
      <property name="mlt_service">affine</property>
      <property name="shotcut:filter">affineSizePosition</property>
      <property name="transition.fill">1</property>
      <property name="transition.distort">0</property>
      <property name="transition.rect">00:00:00.000000=1680.0 945.0 242.0 136.0 1;00:00:01.360000=1440.0 945.0 241.0 136.0 1</property>
      <property name="transition.valign">top</property>
      <property name="transition.halign">left</property>
      <property name="shotcut:animIn">00:00:01.400000</property>
      <property name="shotcut:animOut">00:00:00.000</property>
      <property name="transition.threads">0</property>
    </filter>
    <filter id="filter942" out="00:00:42.600000" in="00:00:41.200000">
      <property name="window">75</property>
      <property name="max_gain">20dB</property>
      <property name="mlt_service">volume</property>
      <property name="shotcut:filter">muteVolume</property>
      <property name="gain">0</property>
    </filter>
  </producer>
  <producer id="producer543" title="Anonymous Submission" in="00:00:00.000" out="00:03:14.560">
    <property name="length">00:03:14:15</property>
    <property name="eof">pause</property>
    <property name="resource">../../006 - Videos format youtube/Saxophone/Marie-Claude_saxophone_totoro.mp4</property>
    <property name="audio_index">1</property>
    <property name="video_index">0</property>
    <property name="mute_on_pause">0</property>
    <property name="mlt_service">avformat-novalidate</property>
    <property name="seekable">1</property>
    <property name="aspect_ratio">1</property>
    <property name="creation_time">2020-04-17T16:47:48</property>
    <property name="shotcut:hash">93486417d24480bfbb5e6dc264b34a22</property>
    <property name="ignore_points">0</property>
    <property name="shotcut:caption">Marie-Claude_saxophone_totoro.mp4</property>
    <property name="shotcut:skipConvert">1</property>
    <property name="global_feed">1</property>
    <property name="xml">was here</property>
    <filter id="filter943" out="00:00:58.040000" in="00:00:42.640000">
      <property name="background">colour:0</property>
      <property name="mlt_service">affine</property>
      <property name="shotcut:filter">affineSizePosition</property>
      <property name="transition.fill">1</property>
      <property name="transition.distort">0</property>
      <property name="transition.rect">00:00:00.000000=1440.0 945.0 242.0 136.0 1;00:00:01.360000=1200.0 945.0 241.0 136.0 1</property>
      <property name="transition.valign">top</property>
      <property name="transition.halign">left</property>
      <property name="shotcut:animIn">00:00:01.400000</property>
      <property name="shotcut:animOut">00:00:00.000</property>
      <property name="transition.threads">0</property>
    </filter>
    <filter id="filter944" out="00:00:58.040000" in="00:00:42.640000">
      <property name="window">75</property>
      <property name="max_gain">20dB</property>
      <property name="mlt_service">volume</property>
      <property name="shotcut:filter">muteVolume</property>
      <property name="gain">0</property>
    </filter>
  </producer>
  <producer id="producer544" title="Anonymous Submission" in="00:00:00.000" out="00:03:14.560">
    <property name="length">00:03:14:15</property>
    <property name="eof">pause</property>
    <property name="resource">../../006 - Videos format youtube/Saxophone/Marie-Claude_saxophone_totoro.mp4</property>
    <property name="audio_index">1</property>
    <property name="video_index">0</property>
    <property name="mute_on_pause">0</property>
    <property name="mlt_service">avformat-novalidate</property>
    <property name="seekable">1</property>
    <property name="aspect_ratio">1</property>
    <property name="creation_time">2020-04-17T16:47:48</property>
    <property name="shotcut:hash">93486417d24480bfbb5e6dc264b34a22</property>
    <property name="ignore_points">0</property>
    <property name="shotcut:caption">Marie-Claude_saxophone_totoro.mp4</property>
    <property name="shotcut:skipConvert">1</property>
    <property name="global_feed">1</property>
    <property name="xml">was here</property>
    <filter id="filter945" out="00:01:06.040000" in="00:00:58.080000">
      <property name="background">colour:0</property>
      <property name="mlt_service">affine</property>
      <property name="shotcut:filter">affineSizePosition</property>
      <property name="transition.fill">1</property>
      <property name="transition.distort">0</property>
      <property name="transition.rect">-1920.0 -308.0 275.0 155.0 1</property>
      <property name="transition.valign">top</property>
      <property name="transition.halign">left</property>
      <property name="shotcut:animIn">00:00:01.400000</property>
      <property name="shotcut:animOut">00:00:00.000</property>
      <property name="transition.threads">0</property>
    </filter>
    <filter id="filter946" out="00:01:06.040000" in="00:00:58.080000">
      <property name="window">75</property>
      <property name="max_gain">20dB</property>
      <property name="mlt_service">volume</property>
      <property name="shotcut:filter">muteVolume</property>
      <property name="gain">0</property>
    </filter>
  </producer>
  <producer id="producer545" title="Anonymous Submission" in="00:00:00.000" out="00:03:14.560">
    <property name="length">00:03:14:15</property>
    <property name="eof">pause</property>
    <property name="resource">../../006 - Videos format youtube/Saxophone/Marie-Claude_saxophone_totoro.mp4</property>
    <property name="audio_index">1</property>
    <property name="video_index">0</property>
    <property name="mute_on_pause">0</property>
    <property name="mlt_service">avformat-novalidate</property>
    <property name="seekable">1</property>
    <property name="aspect_ratio">1</property>
    <property name="creation_time">2020-04-17T16:47:48</property>
    <property name="shotcut:hash">93486417d24480bfbb5e6dc264b34a22</property>
    <property name="ignore_points">0</property>
    <property name="shotcut:caption">Marie-Claude_saxophone_totoro.mp4</property>
    <property name="shotcut:skipConvert">1</property>
    <property name="global_feed">1</property>
    <property name="xml">was here</property>
    <filter id="filter947" out="00:01:14.040000" in="00:01:06.080000">
      <property name="background">colour:0</property>
      <property name="mlt_service">affine</property>
      <property name="shotcut:filter">affineSizePosition</property>
      <property name="transition.fill">1</property>
      <property name="transition.distort">0</property>
      <property name="transition.rect">822.0 154.0 275.0 155.0 1</property>
      <property name="transition.valign">top</property>
      <property name="transition.halign">left</property>
      <property name="shotcut:animIn">00:00:01.400000</property>
      <property name="shotcut:animOut">00:00:00.000</property>
      <property name="transition.threads">0</property>
    </filter>
    <filter id="filter948" out="00:01:14.040000" in="00:01:06.080000">
      <property name="window">75</property>
      <property name="max_gain">20dB</property>
      <property name="mlt_service">volume</property>
      <property name="shotcut:filter">muteVolume</property>
      <property name="gain">0</property>
    </filter>
  </producer>
  <producer id="producer546" title="Anonymous Submission" in="00:00:00.000" out="00:03:14.560">
    <property name="length">00:03:14:15</property>
    <property name="eof">pause</property>
    <property name="resource">../../006 - Videos format youtube/Saxophone/Marie-Claude_saxophone_totoro.mp4</property>
    <property name="audio_index">1</property>
    <property name="video_index">0</property>
    <property name="mute_on_pause">0</property>
    <property name="mlt_service">avformat-novalidate</property>
    <property name="seekable">1</property>
    <property name="aspect_ratio">1</property>
    <property name="creation_time">2020-04-17T16:47:48</property>
    <property name="shotcut:hash">93486417d24480bfbb5e6dc264b34a22</property>
    <property name="ignore_points">0</property>
    <property name="shotcut:caption">Marie-Claude_saxophone_totoro.mp4</property>
    <property name="shotcut:skipConvert">1</property>
    <property name="global_feed">1</property>
    <property name="xml">was here</property>
    <filter id="filter949" out="00:01:21.040000" in="00:01:14.080000">
      <property name="background">colour:0</property>
      <property name="mlt_service">affine</property>
      <property name="shotcut:filter">affineSizePosition</property>
      <property name="transition.fill">1</property>
      <property name="transition.distort">0</property>
      <property name="transition.rect">2079.0 0.0 321.0 181.0 1</property>
      <property name="transition.valign">top</property>
      <property name="transition.halign">left</property>
      <property name="shotcut:animIn">00:00:01.400000</property>
      <property name="shotcut:animOut">00:00:00.000</property>
      <property name="transition.threads">0</property>
    </filter>
    <filter id="filter950" out="00:01:21.040000" in="00:01:14.080000">
      <property name="window">75</property>
      <property name="max_gain">20dB</property>
      <property name="mlt_service">volume</property>
      <property name="shotcut:filter">muteVolume</property>
      <property name="gain">0</property>
    </filter>
  </producer>
  <producer id="producer547" title="Anonymous Submission" in="00:00:00.000" out="00:03:14.560">
    <property name="length">00:03:14:15</property>
    <property name="eof">pause</property>
    <property name="resource">../../006 - Videos format youtube/Saxophone/Marie-Claude_saxophone_totoro.mp4</property>
    <property name="audio_index">1</property>
    <property name="video_index">0</property>
    <property name="mute_on_pause">0</property>
    <property name="mlt_service">avformat-novalidate</property>
    <property name="seekable">1</property>
    <property name="aspect_ratio">1</property>
    <property name="creation_time">2020-04-17T16:47:48</property>
    <property name="shotcut:hash">93486417d24480bfbb5e6dc264b34a22</property>
    <property name="ignore_points">0</property>
    <property name="shotcut:caption">Marie-Claude_saxophone_totoro.mp4</property>
    <property name="shotcut:skipConvert">1</property>
    <property name="global_feed">1</property>
    <property name="xml">was here</property>
    <filter id="filter951" out="00:01:29.040000" in="00:01:21.080000">
      <property name="background">colour:0</property>
      <property name="mlt_service">affine</property>
      <property name="shotcut:filter">affineSizePosition</property>
      <property name="transition.fill">1</property>
      <property name="transition.distort">0</property>
      <property name="transition.rect">640.0 0.0 321.0 181.0 1</property>
      <property name="transition.valign">top</property>
      <property name="transition.halign">left</property>
      <property name="shotcut:animIn">00:00:01.400000</property>
      <property name="shotcut:animOut">00:00:00.000</property>
      <property name="transition.threads">0</property>
    </filter>
    <filter id="filter952" out="00:01:29.040000" in="00:01:21.080000">
      <property name="window">75</property>
      <property name="max_gain">20dB</property>
      <property name="mlt_service">volume</property>
      <property name="shotcut:filter">muteVolume</property>
      <property name="gain">0</property>
    </filter>
  </producer>
  <producer id="producer548" title="Anonymous Submission" in="00:00:00.000" out="00:03:14.560">
    <property name="length">00:03:14:15</property>
    <property name="eof">pause</property>
    <property name="resource">../../006 - Videos format youtube/Saxophone/Marie-Claude_saxophone_totoro.mp4</property>
    <property name="audio_index">1</property>
    <property name="video_index">0</property>
    <property name="mute_on_pause">0</property>
    <property name="mlt_service">avformat-novalidate</property>
    <property name="seekable">1</property>
    <property name="aspect_ratio">1</property>
    <property name="creation_time">2020-04-17T16:47:48</property>
    <property name="shotcut:hash">93486417d24480bfbb5e6dc264b34a22</property>
    <property name="ignore_points">0</property>
    <property name="shotcut:caption">Marie-Claude_saxophone_totoro.mp4</property>
    <property name="shotcut:skipConvert">1</property>
    <property name="global_feed">1</property>
    <property name="xml">was here</property>
    <filter id="filter953" out="00:01:38.040000" in="00:01:29.080000">
      <property name="background">colour:0</property>
      <property name="mlt_service">affine</property>
      <property name="shotcut:filter">affineSizePosition</property>
      <property name="transition.fill">1</property>
      <property name="transition.distort">0</property>
      <property name="transition.rect">1645.0 462.0 275.0 155.0 1</property>
      <property name="transition.valign">top</property>
      <property name="transition.halign">left</property>
      <property name="shotcut:animIn">00:00:01.400000</property>
      <property name="shotcut:animOut">00:00:00.000</property>
      <property name="transition.threads">0</property>
    </filter>
    <filter id="filter954" out="00:01:38.040000" in="00:01:29.080000">
      <property name="window">75</property>
      <property name="max_gain">20dB</property>
      <property name="mlt_service">volume</property>
      <property name="shotcut:filter">muteVolume</property>
      <property name="gain">0</property>
    </filter>
  </producer>
  <producer id="producer549" title="Anonymous Submission" in="00:00:00.000" out="00:03:14.560">
    <property name="length">00:03:14:15</property>
    <property name="eof">pause</property>
    <property name="resource">../../006 - Videos format youtube/Saxophone/Marie-Claude_saxophone_totoro.mp4</property>
    <property name="audio_index">1</property>
    <property name="video_index">0</property>
    <property name="mute_on_pause">0</property>
    <property name="mlt_service">avformat-novalidate</property>
    <property name="seekable">1</property>
    <property name="aspect_ratio">1</property>
    <property name="creation_time">2020-04-17T16:47:48</property>
    <property name="shotcut:hash">93486417d24480bfbb5e6dc264b34a22</property>
    <property name="ignore_points">0</property>
    <property name="shotcut:caption">Marie-Claude_saxophone_totoro.mp4</property>
    <property name="shotcut:skipConvert">1</property>
    <property name="global_feed">1</property>
    <property name="xml">was here</property>
    <filter id="filter955" out="00:01:45.040000" in="00:01:38.080000">
      <property name="background">colour:0</property>
      <property name="mlt_service">affine</property>
      <property name="shotcut:filter">affineSizePosition</property>
      <property name="transition.fill">1</property>
      <property name="transition.distort">0</property>
      <property name="transition.rect">0.0 308.0 275.0 155.0 1</property>
      <property name="transition.valign">top</property>
      <property name="transition.halign">left</property>
      <property name="shotcut:animIn">00:00:01.400000</property>
      <property name="shotcut:animOut">00:00:00.000</property>
      <property name="transition.threads">0</property>
    </filter>
    <filter id="filter956" out="00:01:45.040000" in="00:01:38.080000">
      <property name="window">75</property>
      <property name="max_gain">20dB</property>
      <property name="mlt_service">volume</property>
      <property name="shotcut:filter">muteVolume</property>
      <property name="gain">0</property>
    </filter>
  </producer>
  <producer id="producer550" title="Anonymous Submission" in="00:00:00.000" out="00:03:14.560">
    <property name="length">00:03:14:15</property>
    <property name="eof">pause</property>
    <property name="resource">../../006 - Videos format youtube/Saxophone/Marie-Claude_saxophone_totoro.mp4</property>
    <property name="audio_index">1</property>
    <property name="video_index">0</property>
    <property name="mute_on_pause">0</property>
    <property name="mlt_service">avformat-novalidate</property>
    <property name="seekable">1</property>
    <property name="aspect_ratio">1</property>
    <property name="creation_time">2020-04-17T16:47:48</property>
    <property name="shotcut:hash">93486417d24480bfbb5e6dc264b34a22</property>
    <property name="ignore_points">0</property>
    <property name="shotcut:caption">Marie-Claude_saxophone_totoro.mp4</property>
    <property name="shotcut:skipConvert">1</property>
    <property name="global_feed">1</property>
    <property name="xml">was here</property>
    <filter id="filter957" out="00:03:14.560000" in="00:01:45.080000">
      <property name="background">colour:0</property>
      <property name="mlt_service">affine</property>
      <property name="shotcut:filter">affineSizePosition</property>
      <property name="transition.fill">1</property>
      <property name="transition.distort">0</property>
      <property name="transition.rect">2079.0 0.0 321.0 181.0 1</property>
      <property name="transition.valign">top</property>
      <property name="transition.halign">left</property>
      <property name="shotcut:animIn">00:00:01.400000</property>
      <property name="shotcut:animOut">00:00:00.000</property>
      <property name="transition.threads">0</property>
    </filter>
    <filter id="filter958" out="00:03:14.560000" in="00:01:45.080000">
      <property name="window">75</property>
      <property name="max_gain">20dB</property>
      <property name="mlt_service">volume</property>
      <property name="shotcut:filter">muteVolume</property>
      <property name="gain">0</property>
    </filter>
  </producer>
  <playlist id="playlist30">
    <property name="shotcut:video">1</property>
    <property name="shotcut:name">Marie(Claude</property>
    <property name="shotcut:lock">1</property>
    <blank length="00:00:05.920" />
    <entry producer="producer528" in="00:00:00.000" out="00:00:17.040000" />
    <entry producer="producer529" in="00:00:17.080000" out="00:00:24.040000" />
    <entry producer="producer530" in="00:00:24.080000" out="00:00:25.440000" />
    <entry producer="producer531" in="00:00:25.480000" out="00:00:26.880000" />
    <entry producer="producer532" in="00:00:26.920000" out="00:00:28.320000" />
    <entry producer="producer533" in="00:00:28.360000" out="00:00:29.720000" />
    <entry producer="producer534" in="00:00:29.760000" out="00:00:31.160000" />
    <entry producer="producer535" in="00:00:31.200000" out="00:00:32.600000" />
    <entry producer="producer536" in="00:00:32.640000" out="00:00:34.040000" />
    <entry producer="producer537" in="00:00:34.080000" out="00:00:35.440000" />
    <entry producer="producer538" in="00:00:35.480000" out="00:00:36.880000" />
    <entry producer="producer539" in="00:00:36.920000" out="00:00:38.320000" />
    <entry producer="producer540" in="00:00:38.360000" out="00:00:39.720000" />
    <entry producer="producer541" in="00:00:39.760000" out="00:00:41.160000" />
    <entry producer="producer542" in="00:00:41.200000" out="00:00:42.600000" />
    <entry producer="producer543" in="00:00:42.640000" out="00:00:58.040000" />
    <entry producer="producer544" in="00:00:58.080000" out="00:01:06.040000" />
    <entry producer="producer545" in="00:01:06.080000" out="00:01:14.040000" />
    <entry producer="producer546" in="00:01:14.080000" out="00:01:21.040000" />
    <entry producer="producer547" in="00:01:21.080000" out="00:01:29.040000" />
    <entry producer="producer548" in="00:01:29.080000" out="00:01:38.040000" />
    <entry producer="producer549" in="00:01:38.080000" out="00:01:45.040000" />
    <entry producer="producer550" in="00:01:45.080000" out="00:03:14.560000" />
    <filter id="filter959" out="00:03:20.840">
      <property name="window">75</property>
      <property name="max_gain">20dB</property>
      <property name="level">-10</property>
      <property name="mlt_service">volume</property>
    </filter>
  </playlist>
  <producer id="producer551" title="Anonymous Submission" in="00:00:00.000" out="00:03:18.880">
    <property name="length">00:03:18:23</property>
    <property name="eof">pause</property>
    <property name="resource">../../006 - Videos format youtube/Saxophone/Franck_saxophone_totoro.mp4</property>
    <property name="audio_index">1</property>
    <property name="video_index">0</property>
    <property name="mute_on_pause">0</property>
    <property name="mlt_service">avformat-novalidate</property>
    <property name="seekable">1</property>
    <property name="aspect_ratio">1</property>
    <property name="creation_time">2020-04-13T11:28:12</property>
    <property name="shotcut:hash">65568a88d02d9b90ac8b802dbc8299d0</property>
    <property name="ignore_points">0</property>
    <property name="shotcut:caption">Franck_saxophone_totoro.mp4</property>
    <property name="shotcut:skipConvert">1</property>
    <property name="global_feed">1</property>
    <property name="xml">was here</property>
    <filter id="filter960" in="00:00:08.600" out="00:00:24.520000">
      <property name="background">colour:0</property>
      <property name="mlt_service">affine</property>
      <property name="shotcut:filter">affineSizePosition</property>
      <property name="transition.fill">1</property>
      <property name="transition.distort">0</property>
      <property name="transition.rect">0.0 617.0 275.0 155.0 1</property>
      <property name="transition.valign">top</property>
      <property name="transition.halign">left</property>
      <property name="shotcut:animIn">00:00:00.000</property>
      <property name="shotcut:animOut">00:00:00.000</property>
      <property name="transition.threads">0</property>
    </filter>
    <filter id="filter961" in="00:00:08.600" out="00:00:24.520000">
      <property name="window">75</property>
      <property name="max_gain">20dB</property>
      <property name="mlt_service">volume</property>
      <property name="shotcut:filter">muteVolume</property>
      <property name="gain">0</property>
    </filter>
  </producer>
  <producer id="producer552" title="Anonymous Submission" in="00:00:00.000" out="00:03:18.880">
    <property name="length">00:03:18:23</property>
    <property name="eof">pause</property>
    <property name="resource">../../006 - Videos format youtube/Saxophone/Franck_saxophone_totoro.mp4</property>
    <property name="audio_index">1</property>
    <property name="video_index">0</property>
    <property name="mute_on_pause">0</property>
    <property name="mlt_service">avformat-novalidate</property>
    <property name="seekable">1</property>
    <property name="aspect_ratio">1</property>
    <property name="creation_time">2020-04-13T11:28:12</property>
    <property name="shotcut:hash">65568a88d02d9b90ac8b802dbc8299d0</property>
    <property name="ignore_points">0</property>
    <property name="shotcut:caption">Franck_saxophone_totoro.mp4</property>
    <property name="shotcut:skipConvert">1</property>
    <property name="global_feed">1</property>
    <property name="xml">was here</property>
    <filter id="filter962" in="00:00:24.560000" out="00:00:31.520000">
      <property name="background">colour:0</property>
      <property name="mlt_service">affine</property>
      <property name="shotcut:filter">affineSizePosition</property>
      <property name="transition.fill">1</property>
      <property name="transition.distort">0</property>
      <property name="transition.rect">00:00:00.000000=0.0 617.0 276.0 155.0 1;00:00:00.440000=1097.0 0.0 275.0 155.0 1</property>
      <property name="transition.valign">top</property>
      <property name="transition.halign">left</property>
      <property name="shotcut:animIn">00:00:00.480000</property>
      <property name="shotcut:animOut">00:00:00.000</property>
      <property name="transition.threads">0</property>
    </filter>
    <filter id="filter963" in="00:00:24.560000" out="00:00:31.520000">
      <property name="window">75</property>
      <property name="max_gain">20dB</property>
      <property name="mlt_service">volume</property>
      <property name="shotcut:filter">muteVolume</property>
      <property name="gain">0</property>
    </filter>
  </producer>
  <producer id="producer553" title="Anonymous Submission" in="00:00:00.000" out="00:03:18.880">
    <property name="length">00:03:18:23</property>
    <property name="eof">pause</property>
    <property name="resource">../../006 - Videos format youtube/Saxophone/Franck_saxophone_totoro.mp4</property>
    <property name="audio_index">1</property>
    <property name="video_index">0</property>
    <property name="mute_on_pause">0</property>
    <property name="mlt_service">avformat-novalidate</property>
    <property name="seekable">1</property>
    <property name="aspect_ratio">1</property>
    <property name="creation_time">2020-04-13T11:28:12</property>
    <property name="shotcut:hash">65568a88d02d9b90ac8b802dbc8299d0</property>
    <property name="ignore_points">0</property>
    <property name="shotcut:caption">Franck_saxophone_totoro.mp4</property>
    <property name="shotcut:skipConvert">1</property>
    <property name="global_feed">1</property>
    <property name="xml">was here</property>
    <filter id="filter964" in="00:00:31.560000" out="00:00:32.920000">
      <property name="background">colour:0</property>
      <property name="mlt_service">affine</property>
      <property name="shotcut:filter">affineSizePosition</property>
      <property name="transition.fill">1</property>
      <property name="transition.distort">0</property>
      <property name="transition.rect">00:00:00.000000=720.0 945.0 242.0 136.0 1;00:00:01.360000=480.0 945.0 241.0 136.0 1</property>
      <property name="transition.valign">top</property>
      <property name="transition.halign">left</property>
      <property name="shotcut:animIn">00:00:01.400000</property>
      <property name="shotcut:animOut">00:00:00.000</property>
      <property name="transition.threads">0</property>
    </filter>
    <filter id="filter965" in="00:00:31.560000" out="00:00:32.920000">
      <property name="window">75</property>
      <property name="max_gain">20dB</property>
      <property name="mlt_service">volume</property>
      <property name="shotcut:filter">muteVolume</property>
      <property name="gain">0</property>
    </filter>
  </producer>
  <producer id="producer554" title="Anonymous Submission" in="00:00:00.000" out="00:03:18.880">
    <property name="length">00:03:18:23</property>
    <property name="eof">pause</property>
    <property name="resource">../../006 - Videos format youtube/Saxophone/Franck_saxophone_totoro.mp4</property>
    <property name="audio_index">1</property>
    <property name="video_index">0</property>
    <property name="mute_on_pause">0</property>
    <property name="mlt_service">avformat-novalidate</property>
    <property name="seekable">1</property>
    <property name="aspect_ratio">1</property>
    <property name="creation_time">2020-04-13T11:28:12</property>
    <property name="shotcut:hash">65568a88d02d9b90ac8b802dbc8299d0</property>
    <property name="ignore_points">0</property>
    <property name="shotcut:caption">Franck_saxophone_totoro.mp4</property>
    <property name="shotcut:skipConvert">1</property>
    <property name="global_feed">1</property>
    <property name="xml">was here</property>
    <filter id="filter966" in="00:00:32.960000" out="00:00:34.360000">
      <property name="background">colour:0</property>
      <property name="mlt_service">affine</property>
      <property name="shotcut:filter">affineSizePosition</property>
      <property name="transition.fill">1</property>
      <property name="transition.distort">0</property>
      <property name="transition.rect">00:00:00.000000=480.0 945.0 242.0 136.0 1;00:00:01.360000=240.0 945.0 241.0 136.0 1</property>
      <property name="transition.valign">top</property>
      <property name="transition.halign">left</property>
      <property name="shotcut:animIn">00:00:01.400000</property>
      <property name="shotcut:animOut">00:00:00.000</property>
      <property name="transition.threads">0</property>
    </filter>
    <filter id="filter967" in="00:00:32.960000" out="00:00:34.360000">
      <property name="window">75</property>
      <property name="max_gain">20dB</property>
      <property name="mlt_service">volume</property>
      <property name="shotcut:filter">muteVolume</property>
      <property name="gain">0</property>
    </filter>
  </producer>
  <producer id="producer555" title="Anonymous Submission" in="00:00:00.000" out="00:03:18.880">
    <property name="length">00:03:18:23</property>
    <property name="eof">pause</property>
    <property name="resource">../../006 - Videos format youtube/Saxophone/Franck_saxophone_totoro.mp4</property>
    <property name="audio_index">1</property>
    <property name="video_index">0</property>
    <property name="mute_on_pause">0</property>
    <property name="mlt_service">avformat-novalidate</property>
    <property name="seekable">1</property>
    <property name="aspect_ratio">1</property>
    <property name="creation_time">2020-04-13T11:28:12</property>
    <property name="shotcut:hash">65568a88d02d9b90ac8b802dbc8299d0</property>
    <property name="ignore_points">0</property>
    <property name="shotcut:caption">Franck_saxophone_totoro.mp4</property>
    <property name="shotcut:skipConvert">1</property>
    <property name="global_feed">1</property>
    <property name="xml">was here</property>
    <filter id="filter968" in="00:00:34.400000" out="00:00:35.800000">
      <property name="background">colour:0</property>
      <property name="mlt_service">affine</property>
      <property name="shotcut:filter">affineSizePosition</property>
      <property name="transition.fill">1</property>
      <property name="transition.distort">0</property>
      <property name="transition.rect">00:00:00.000000=240.0 945.0 242.0 136.0 1;00:00:01.360000=0.0 945.0 241.0 136.0 1</property>
      <property name="transition.valign">top</property>
      <property name="transition.halign">left</property>
      <property name="shotcut:animIn">00:00:01.400000</property>
      <property name="shotcut:animOut">00:00:00.000</property>
      <property name="transition.threads">0</property>
    </filter>
    <filter id="filter969" in="00:00:34.400000" out="00:00:35.800000">
      <property name="window">75</property>
      <property name="max_gain">20dB</property>
      <property name="mlt_service">volume</property>
      <property name="shotcut:filter">muteVolume</property>
      <property name="gain">0</property>
    </filter>
  </producer>
  <producer id="producer556" title="Anonymous Submission" in="00:00:00.000" out="00:03:18.880">
    <property name="length">00:03:18:23</property>
    <property name="eof">pause</property>
    <property name="resource">../../006 - Videos format youtube/Saxophone/Franck_saxophone_totoro.mp4</property>
    <property name="audio_index">1</property>
    <property name="video_index">0</property>
    <property name="mute_on_pause">0</property>
    <property name="mlt_service">avformat-novalidate</property>
    <property name="seekable">1</property>
    <property name="aspect_ratio">1</property>
    <property name="creation_time">2020-04-13T11:28:12</property>
    <property name="shotcut:hash">65568a88d02d9b90ac8b802dbc8299d0</property>
    <property name="ignore_points">0</property>
    <property name="shotcut:caption">Franck_saxophone_totoro.mp4</property>
    <property name="shotcut:skipConvert">1</property>
    <property name="global_feed">1</property>
    <property name="xml">was here</property>
    <filter id="filter970" in="00:00:35.840000" out="00:00:37.200000">
      <property name="background">colour:0</property>
      <property name="mlt_service">affine</property>
      <property name="shotcut:filter">affineSizePosition</property>
      <property name="transition.fill">1</property>
      <property name="transition.distort">0</property>
      <property name="transition.rect">00:00:00.000000=1680.0 945.0 242.0 136.0 1;00:00:01.360000=1440.0 945.0 241.0 136.0 1</property>
      <property name="transition.valign">top</property>
      <property name="transition.halign">left</property>
      <property name="shotcut:animIn">00:00:01.400000</property>
      <property name="shotcut:animOut">00:00:00.000</property>
      <property name="transition.threads">0</property>
    </filter>
    <filter id="filter971" in="00:00:35.840000" out="00:00:37.200000">
      <property name="window">75</property>
      <property name="max_gain">20dB</property>
      <property name="mlt_service">volume</property>
      <property name="shotcut:filter">muteVolume</property>
      <property name="gain">0</property>
    </filter>
  </producer>
  <producer id="producer557" title="Anonymous Submission" in="00:00:00.000" out="00:03:18.880">
    <property name="length">00:03:18:23</property>
    <property name="eof">pause</property>
    <property name="resource">../../006 - Videos format youtube/Saxophone/Franck_saxophone_totoro.mp4</property>
    <property name="audio_index">1</property>
    <property name="video_index">0</property>
    <property name="mute_on_pause">0</property>
    <property name="mlt_service">avformat-novalidate</property>
    <property name="seekable">1</property>
    <property name="aspect_ratio">1</property>
    <property name="creation_time">2020-04-13T11:28:12</property>
    <property name="shotcut:hash">65568a88d02d9b90ac8b802dbc8299d0</property>
    <property name="ignore_points">0</property>
    <property name="shotcut:caption">Franck_saxophone_totoro.mp4</property>
    <property name="shotcut:skipConvert">1</property>
    <property name="global_feed">1</property>
    <property name="xml">was here</property>
    <filter id="filter972" in="00:00:37.240000" out="00:00:38.640000">
      <property name="background">colour:0</property>
      <property name="mlt_service">affine</property>
      <property name="shotcut:filter">affineSizePosition</property>
      <property name="transition.fill">1</property>
      <property name="transition.distort">0</property>
      <property name="transition.rect">00:00:00.000000=1440.0 945.0 242.0 136.0 1;00:00:01.360000=1200.0 945.0 241.0 136.0 1</property>
      <property name="transition.valign">top</property>
      <property name="transition.halign">left</property>
      <property name="shotcut:animIn">00:00:01.400000</property>
      <property name="shotcut:animOut">00:00:00.000</property>
      <property name="transition.threads">0</property>
    </filter>
    <filter id="filter973" in="00:00:37.240000" out="00:00:38.640000">
      <property name="window">75</property>
      <property name="max_gain">20dB</property>
      <property name="mlt_service">volume</property>
      <property name="shotcut:filter">muteVolume</property>
      <property name="gain">0</property>
    </filter>
  </producer>
  <producer id="producer558" title="Anonymous Submission" in="00:00:00.000" out="00:03:18.880">
    <property name="length">00:03:18:23</property>
    <property name="eof">pause</property>
    <property name="resource">../../006 - Videos format youtube/Saxophone/Franck_saxophone_totoro.mp4</property>
    <property name="audio_index">1</property>
    <property name="video_index">0</property>
    <property name="mute_on_pause">0</property>
    <property name="mlt_service">avformat-novalidate</property>
    <property name="seekable">1</property>
    <property name="aspect_ratio">1</property>
    <property name="creation_time">2020-04-13T11:28:12</property>
    <property name="shotcut:hash">65568a88d02d9b90ac8b802dbc8299d0</property>
    <property name="ignore_points">0</property>
    <property name="shotcut:caption">Franck_saxophone_totoro.mp4</property>
    <property name="shotcut:skipConvert">1</property>
    <property name="global_feed">1</property>
    <property name="xml">was here</property>
    <filter id="filter974" in="00:00:38.680000" out="00:00:40.080000">
      <property name="background">colour:0</property>
      <property name="mlt_service">affine</property>
      <property name="shotcut:filter">affineSizePosition</property>
      <property name="transition.fill">1</property>
      <property name="transition.distort">0</property>
      <property name="transition.rect">00:00:00.000000=1200.0 945.0 242.0 136.0 1;00:00:01.360000=960.0 945.0 241.0 136.0 1</property>
      <property name="transition.valign">top</property>
      <property name="transition.halign">left</property>
      <property name="shotcut:animIn">00:00:01.400000</property>
      <property name="shotcut:animOut">00:00:00.000</property>
      <property name="transition.threads">0</property>
    </filter>
    <filter id="filter975" in="00:00:38.680000" out="00:00:40.080000">
      <property name="window">75</property>
      <property name="max_gain">20dB</property>
      <property name="mlt_service">volume</property>
      <property name="shotcut:filter">muteVolume</property>
      <property name="gain">0</property>
    </filter>
  </producer>
  <producer id="producer559" title="Anonymous Submission" in="00:00:00.000" out="00:03:18.880">
    <property name="length">00:03:18:23</property>
    <property name="eof">pause</property>
    <property name="resource">../../006 - Videos format youtube/Saxophone/Franck_saxophone_totoro.mp4</property>
    <property name="audio_index">1</property>
    <property name="video_index">0</property>
    <property name="mute_on_pause">0</property>
    <property name="mlt_service">avformat-novalidate</property>
    <property name="seekable">1</property>
    <property name="aspect_ratio">1</property>
    <property name="creation_time">2020-04-13T11:28:12</property>
    <property name="shotcut:hash">65568a88d02d9b90ac8b802dbc8299d0</property>
    <property name="ignore_points">0</property>
    <property name="shotcut:caption">Franck_saxophone_totoro.mp4</property>
    <property name="shotcut:skipConvert">1</property>
    <property name="global_feed">1</property>
    <property name="xml">was here</property>
    <filter id="filter976" in="00:00:40.120000" out="00:00:41.520000">
      <property name="background">colour:0</property>
      <property name="mlt_service">affine</property>
      <property name="shotcut:filter">affineSizePosition</property>
      <property name="transition.fill">1</property>
      <property name="transition.distort">0</property>
      <property name="transition.rect">00:00:00.000000=960.0 945.0 242.0 136.0 1;00:00:01.360000=720.0 945.0 241.0 136.0 1</property>
      <property name="transition.valign">top</property>
      <property name="transition.halign">left</property>
      <property name="shotcut:animIn">00:00:01.400000</property>
      <property name="shotcut:animOut">00:00:00.000</property>
      <property name="transition.threads">0</property>
    </filter>
    <filter id="filter977" in="00:00:40.120000" out="00:00:41.520000">
      <property name="window">75</property>
      <property name="max_gain">20dB</property>
      <property name="mlt_service">volume</property>
      <property name="shotcut:filter">muteVolume</property>
      <property name="gain">0</property>
    </filter>
  </producer>
  <producer id="producer560" title="Anonymous Submission" in="00:00:00.000" out="00:03:18.880">
    <property name="length">00:03:18:23</property>
    <property name="eof">pause</property>
    <property name="resource">../../006 - Videos format youtube/Saxophone/Franck_saxophone_totoro.mp4</property>
    <property name="audio_index">1</property>
    <property name="video_index">0</property>
    <property name="mute_on_pause">0</property>
    <property name="mlt_service">avformat-novalidate</property>
    <property name="seekable">1</property>
    <property name="aspect_ratio">1</property>
    <property name="creation_time">2020-04-13T11:28:12</property>
    <property name="shotcut:hash">65568a88d02d9b90ac8b802dbc8299d0</property>
    <property name="ignore_points">0</property>
    <property name="shotcut:caption">Franck_saxophone_totoro.mp4</property>
    <property name="shotcut:skipConvert">1</property>
    <property name="global_feed">1</property>
    <property name="xml">was here</property>
    <filter id="filter978" in="00:00:41.560000" out="00:00:42.920000">
      <property name="background">colour:0</property>
      <property name="mlt_service">affine</property>
      <property name="shotcut:filter">affineSizePosition</property>
      <property name="transition.fill">1</property>
      <property name="transition.distort">0</property>
      <property name="transition.rect">00:00:00.000000=720.0 945.0 242.0 136.0 1;00:00:01.360000=480.0 945.0 241.0 136.0 1</property>
      <property name="transition.valign">top</property>
      <property name="transition.halign">left</property>
      <property name="shotcut:animIn">00:00:01.400000</property>
      <property name="shotcut:animOut">00:00:00.000</property>
      <property name="transition.threads">0</property>
    </filter>
    <filter id="filter979" in="00:00:41.560000" out="00:00:42.920000">
      <property name="window">75</property>
      <property name="max_gain">20dB</property>
      <property name="mlt_service">volume</property>
      <property name="shotcut:filter">muteVolume</property>
      <property name="gain">0</property>
    </filter>
  </producer>
  <producer id="producer561" title="Anonymous Submission" in="00:00:00.000" out="00:03:18.880">
    <property name="length">00:03:18:23</property>
    <property name="eof">pause</property>
    <property name="resource">../../006 - Videos format youtube/Saxophone/Franck_saxophone_totoro.mp4</property>
    <property name="audio_index">1</property>
    <property name="video_index">0</property>
    <property name="mute_on_pause">0</property>
    <property name="mlt_service">avformat-novalidate</property>
    <property name="seekable">1</property>
    <property name="aspect_ratio">1</property>
    <property name="creation_time">2020-04-13T11:28:12</property>
    <property name="shotcut:hash">65568a88d02d9b90ac8b802dbc8299d0</property>
    <property name="ignore_points">0</property>
    <property name="shotcut:caption">Franck_saxophone_totoro.mp4</property>
    <property name="shotcut:skipConvert">1</property>
    <property name="global_feed">1</property>
    <property name="xml">was here</property>
    <filter id="filter980" in="00:00:42.960000" out="00:00:44.360000">
      <property name="background">colour:0</property>
      <property name="mlt_service">affine</property>
      <property name="shotcut:filter">affineSizePosition</property>
      <property name="transition.fill">1</property>
      <property name="transition.distort">0</property>
      <property name="transition.rect">00:00:00.000000=480.0 945.0 242.0 136.0 1;00:00:01.360000=240.0 945.0 241.0 136.0 1</property>
      <property name="transition.valign">top</property>
      <property name="transition.halign">left</property>
      <property name="shotcut:animIn">00:00:01.400000</property>
      <property name="shotcut:animOut">00:00:00.000</property>
      <property name="transition.threads">0</property>
    </filter>
    <filter id="filter981" in="00:00:42.960000" out="00:00:44.360000">
      <property name="window">75</property>
      <property name="max_gain">20dB</property>
      <property name="mlt_service">volume</property>
      <property name="shotcut:filter">muteVolume</property>
      <property name="gain">0</property>
    </filter>
  </producer>
  <producer id="producer562" title="Anonymous Submission" in="00:00:00.000" out="00:03:18.880">
    <property name="length">00:03:18:23</property>
    <property name="eof">pause</property>
    <property name="resource">../../006 - Videos format youtube/Saxophone/Franck_saxophone_totoro.mp4</property>
    <property name="audio_index">1</property>
    <property name="video_index">0</property>
    <property name="mute_on_pause">0</property>
    <property name="mlt_service">avformat-novalidate</property>
    <property name="seekable">1</property>
    <property name="aspect_ratio">1</property>
    <property name="creation_time">2020-04-13T11:28:12</property>
    <property name="shotcut:hash">65568a88d02d9b90ac8b802dbc8299d0</property>
    <property name="ignore_points">0</property>
    <property name="shotcut:caption">Franck_saxophone_totoro.mp4</property>
    <property name="shotcut:skipConvert">1</property>
    <property name="global_feed">1</property>
    <property name="xml">was here</property>
    <filter id="filter982" in="00:00:44.400000" out="00:00:45.800000">
      <property name="background">colour:0</property>
      <property name="mlt_service">affine</property>
      <property name="shotcut:filter">affineSizePosition</property>
      <property name="transition.fill">1</property>
      <property name="transition.distort">0</property>
      <property name="transition.rect">00:00:00.000000=240.0 945.0 242.0 136.0 1;00:00:01.360000=0.0 945.0 241.0 136.0 1</property>
      <property name="transition.valign">top</property>
      <property name="transition.halign">left</property>
      <property name="shotcut:animIn">00:00:01.400000</property>
      <property name="shotcut:animOut">00:00:00.000</property>
      <property name="transition.threads">0</property>
    </filter>
    <filter id="filter983" in="00:00:44.400000" out="00:00:45.800000">
      <property name="window">75</property>
      <property name="max_gain">20dB</property>
      <property name="mlt_service">volume</property>
      <property name="shotcut:filter">muteVolume</property>
      <property name="gain">0</property>
    </filter>
  </producer>
  <producer id="producer563" title="Anonymous Submission" in="00:00:00.000" out="00:03:18.880">
    <property name="length">00:03:18:23</property>
    <property name="eof">pause</property>
    <property name="resource">../../006 - Videos format youtube/Saxophone/Franck_saxophone_totoro.mp4</property>
    <property name="audio_index">1</property>
    <property name="video_index">0</property>
    <property name="mute_on_pause">0</property>
    <property name="mlt_service">avformat-novalidate</property>
    <property name="seekable">1</property>
    <property name="aspect_ratio">1</property>
    <property name="creation_time">2020-04-13T11:28:12</property>
    <property name="shotcut:hash">65568a88d02d9b90ac8b802dbc8299d0</property>
    <property name="ignore_points">0</property>
    <property name="shotcut:caption">Franck_saxophone_totoro.mp4</property>
    <property name="shotcut:skipConvert">1</property>
    <property name="global_feed">1</property>
    <property name="xml">was here</property>
    <filter id="filter984" in="00:00:45.840000" out="00:00:47.200000">
      <property name="background">colour:0</property>
      <property name="mlt_service">affine</property>
      <property name="shotcut:filter">affineSizePosition</property>
      <property name="transition.fill">1</property>
      <property name="transition.distort">0</property>
      <property name="transition.rect">00:00:00.000000=1680.0 945.0 242.0 136.0 1;00:00:01.360000=1440.0 945.0 241.0 136.0 1</property>
      <property name="transition.valign">top</property>
      <property name="transition.halign">left</property>
      <property name="shotcut:animIn">00:00:01.400000</property>
      <property name="shotcut:animOut">00:00:00.000</property>
      <property name="transition.threads">0</property>
    </filter>
    <filter id="filter985" in="00:00:45.840000" out="00:00:47.200000">
      <property name="window">75</property>
      <property name="max_gain">20dB</property>
      <property name="mlt_service">volume</property>
      <property name="shotcut:filter">muteVolume</property>
      <property name="gain">0</property>
    </filter>
  </producer>
  <producer id="producer564" title="Anonymous Submission" in="00:00:00.000" out="00:03:18.880">
    <property name="length">00:03:18:23</property>
    <property name="eof">pause</property>
    <property name="resource">../../006 - Videos format youtube/Saxophone/Franck_saxophone_totoro.mp4</property>
    <property name="audio_index">1</property>
    <property name="video_index">0</property>
    <property name="mute_on_pause">0</property>
    <property name="mlt_service">avformat-novalidate</property>
    <property name="seekable">1</property>
    <property name="aspect_ratio">1</property>
    <property name="creation_time">2020-04-13T11:28:12</property>
    <property name="shotcut:hash">65568a88d02d9b90ac8b802dbc8299d0</property>
    <property name="ignore_points">0</property>
    <property name="shotcut:caption">Franck_saxophone_totoro.mp4</property>
    <property name="shotcut:skipConvert">1</property>
    <property name="global_feed">1</property>
    <property name="xml">was here</property>
    <filter id="filter986" in="00:00:47.240000" out="00:00:48.640000">
      <property name="background">colour:0</property>
      <property name="mlt_service">affine</property>
      <property name="shotcut:filter">affineSizePosition</property>
      <property name="transition.fill">1</property>
      <property name="transition.distort">0</property>
      <property name="transition.rect">00:00:00.000000=1440.0 945.0 242.0 136.0 1;00:00:01.360000=1200.0 945.0 241.0 136.0 1</property>
      <property name="transition.valign">top</property>
      <property name="transition.halign">left</property>
      <property name="shotcut:animIn">00:00:01.400000</property>
      <property name="shotcut:animOut">00:00:00.000</property>
      <property name="transition.threads">0</property>
    </filter>
    <filter id="filter987" in="00:00:47.240000" out="00:00:48.640000">
      <property name="window">75</property>
      <property name="max_gain">20dB</property>
      <property name="mlt_service">volume</property>
      <property name="shotcut:filter">muteVolume</property>
      <property name="gain">0</property>
    </filter>
  </producer>
  <producer id="producer565" title="Anonymous Submission" in="00:00:00.000" out="00:03:18.880">
    <property name="length">00:03:18:23</property>
    <property name="eof">pause</property>
    <property name="resource">../../006 - Videos format youtube/Saxophone/Franck_saxophone_totoro.mp4</property>
    <property name="audio_index">1</property>
    <property name="video_index">0</property>
    <property name="mute_on_pause">0</property>
    <property name="mlt_service">avformat-novalidate</property>
    <property name="seekable">1</property>
    <property name="aspect_ratio">1</property>
    <property name="creation_time">2020-04-13T11:28:12</property>
    <property name="shotcut:hash">65568a88d02d9b90ac8b802dbc8299d0</property>
    <property name="ignore_points">0</property>
    <property name="shotcut:caption">Franck_saxophone_totoro.mp4</property>
    <property name="shotcut:skipConvert">1</property>
    <property name="global_feed">1</property>
    <property name="xml">was here</property>
    <filter id="filter988" in="00:00:48.680000" out="00:00:50.080000">
      <property name="background">colour:0</property>
      <property name="mlt_service">affine</property>
      <property name="shotcut:filter">affineSizePosition</property>
      <property name="transition.fill">1</property>
      <property name="transition.distort">0</property>
      <property name="transition.rect">00:00:00.000000=1200.0 945.0 242.0 136.0 1;00:00:01.360000=960.0 945.0 241.0 136.0 1</property>
      <property name="transition.valign">top</property>
      <property name="transition.halign">left</property>
      <property name="shotcut:animIn">00:00:01.400000</property>
      <property name="shotcut:animOut">00:00:00.000</property>
      <property name="transition.threads">0</property>
    </filter>
    <filter id="filter989" in="00:00:48.680000" out="00:00:50.080000">
      <property name="window">75</property>
      <property name="max_gain">20dB</property>
      <property name="mlt_service">volume</property>
      <property name="shotcut:filter">muteVolume</property>
      <property name="gain">0</property>
    </filter>
  </producer>
  <producer id="producer566" title="Anonymous Submission" in="00:00:00.000" out="00:03:18.880">
    <property name="length">00:03:18:23</property>
    <property name="eof">pause</property>
    <property name="resource">../../006 - Videos format youtube/Saxophone/Franck_saxophone_totoro.mp4</property>
    <property name="audio_index">1</property>
    <property name="video_index">0</property>
    <property name="mute_on_pause">0</property>
    <property name="mlt_service">avformat-novalidate</property>
    <property name="seekable">1</property>
    <property name="aspect_ratio">1</property>
    <property name="creation_time">2020-04-13T11:28:12</property>
    <property name="shotcut:hash">65568a88d02d9b90ac8b802dbc8299d0</property>
    <property name="ignore_points">0</property>
    <property name="shotcut:caption">Franck_saxophone_totoro.mp4</property>
    <property name="shotcut:skipConvert">1</property>
    <property name="global_feed">1</property>
    <property name="xml">was here</property>
    <filter id="filter990" in="00:00:50.120000" out="00:01:05.520000">
      <property name="background">colour:0</property>
      <property name="mlt_service">affine</property>
      <property name="shotcut:filter">affineSizePosition</property>
      <property name="transition.fill">1</property>
      <property name="transition.distort">0</property>
      <property name="transition.rect">00:00:00.000000=960.0 945.0 242.0 136.0 1;00:00:01.360000=720.0 945.0 241.0 136.0 1</property>
      <property name="transition.valign">top</property>
      <property name="transition.halign">left</property>
      <property name="shotcut:animIn">00:00:01.400000</property>
      <property name="shotcut:animOut">00:00:00.000</property>
      <property name="transition.threads">0</property>
    </filter>
    <filter id="filter991" in="00:00:50.120000" out="00:01:05.520000">
      <property name="window">75</property>
      <property name="max_gain">20dB</property>
      <property name="mlt_service">volume</property>
      <property name="shotcut:filter">muteVolume</property>
      <property name="gain">0</property>
    </filter>
  </producer>
  <producer id="producer567" title="Anonymous Submission" in="00:00:00.000" out="00:03:18.880">
    <property name="length">00:03:18:23</property>
    <property name="eof">pause</property>
    <property name="resource">../../006 - Videos format youtube/Saxophone/Franck_saxophone_totoro.mp4</property>
    <property name="audio_index">1</property>
    <property name="video_index">0</property>
    <property name="mute_on_pause">0</property>
    <property name="mlt_service">avformat-novalidate</property>
    <property name="seekable">1</property>
    <property name="aspect_ratio">1</property>
    <property name="creation_time">2020-04-13T11:28:12</property>
    <property name="shotcut:hash">65568a88d02d9b90ac8b802dbc8299d0</property>
    <property name="ignore_points">0</property>
    <property name="shotcut:caption">Franck_saxophone_totoro.mp4</property>
    <property name="shotcut:skipConvert">1</property>
    <property name="global_feed">1</property>
    <property name="xml">was here</property>
    <filter id="filter992" in="00:01:05.560000" out="00:01:13.520000">
      <property name="background">colour:0</property>
      <property name="mlt_service">affine</property>
      <property name="shotcut:filter">affineSizePosition</property>
      <property name="transition.fill">1</property>
      <property name="transition.distort">0</property>
      <property name="transition.rect">0.0 617.0 275.0 155.0 1</property>
      <property name="transition.valign">top</property>
      <property name="transition.halign">left</property>
      <property name="shotcut:animIn">00:00:01.400000</property>
      <property name="shotcut:animOut">00:00:00.000</property>
      <property name="transition.threads">0</property>
    </filter>
    <filter id="filter993" in="00:01:05.560000" out="00:01:13.520000">
      <property name="window">75</property>
      <property name="max_gain">20dB</property>
      <property name="mlt_service">volume</property>
      <property name="shotcut:filter">muteVolume</property>
      <property name="gain">0</property>
    </filter>
  </producer>
  <producer id="producer568" title="Anonymous Submission" in="00:00:00.000" out="00:03:18.880">
    <property name="length">00:03:18:23</property>
    <property name="eof">pause</property>
    <property name="resource">../../006 - Videos format youtube/Saxophone/Franck_saxophone_totoro.mp4</property>
    <property name="audio_index">1</property>
    <property name="video_index">0</property>
    <property name="mute_on_pause">0</property>
    <property name="mlt_service">avformat-novalidate</property>
    <property name="seekable">1</property>
    <property name="aspect_ratio">1</property>
    <property name="creation_time">2020-04-13T11:28:12</property>
    <property name="shotcut:hash">65568a88d02d9b90ac8b802dbc8299d0</property>
    <property name="ignore_points">0</property>
    <property name="shotcut:caption">Franck_saxophone_totoro.mp4</property>
    <property name="shotcut:skipConvert">1</property>
    <property name="global_feed">1</property>
    <property name="xml">was here</property>
    <filter id="filter994" in="00:01:13.560000" out="00:01:21.520000">
      <property name="background">colour:0</property>
      <property name="mlt_service">affine</property>
      <property name="shotcut:filter">affineSizePosition</property>
      <property name="transition.fill">1</property>
      <property name="transition.distort">0</property>
      <property name="transition.rect">-1920.0 -617.0 275.0 155.0 1</property>
      <property name="transition.valign">top</property>
      <property name="transition.halign">left</property>
      <property name="shotcut:animIn">00:00:01.400000</property>
      <property name="shotcut:animOut">00:00:00.000</property>
      <property name="transition.threads">0</property>
    </filter>
    <filter id="filter995" in="00:01:13.560000" out="00:01:21.520000">
      <property name="window">75</property>
      <property name="max_gain">20dB</property>
      <property name="mlt_service">volume</property>
      <property name="shotcut:filter">muteVolume</property>
      <property name="gain">0</property>
    </filter>
  </producer>
  <producer id="producer569" title="Anonymous Submission" in="00:00:00.000" out="00:03:18.880">
    <property name="length">00:03:18:23</property>
    <property name="eof">pause</property>
    <property name="resource">../../006 - Videos format youtube/Saxophone/Franck_saxophone_totoro.mp4</property>
    <property name="audio_index">1</property>
    <property name="video_index">0</property>
    <property name="mute_on_pause">0</property>
    <property name="mlt_service">avformat-novalidate</property>
    <property name="seekable">1</property>
    <property name="aspect_ratio">1</property>
    <property name="creation_time">2020-04-13T11:28:12</property>
    <property name="shotcut:hash">65568a88d02d9b90ac8b802dbc8299d0</property>
    <property name="ignore_points">0</property>
    <property name="shotcut:caption">Franck_saxophone_totoro.mp4</property>
    <property name="shotcut:skipConvert">1</property>
    <property name="global_feed">1</property>
    <property name="xml">was here</property>
    <filter id="filter996" in="00:01:21.560000" out="00:01:28.520000">
      <property name="background">colour:0</property>
      <property name="mlt_service">affine</property>
      <property name="shotcut:filter">affineSizePosition</property>
      <property name="transition.fill">1</property>
      <property name="transition.distort">0</property>
      <property name="transition.rect">0.0 540.0 321.0 181.0 1</property>
      <property name="transition.valign">top</property>
      <property name="transition.halign">left</property>
      <property name="shotcut:animIn">00:00:01.400000</property>
      <property name="shotcut:animOut">00:00:00.000</property>
      <property name="transition.threads">0</property>
    </filter>
    <filter id="filter997" in="00:01:21.560000" out="00:01:28.520000">
      <property name="window">75</property>
      <property name="max_gain">20dB</property>
      <property name="mlt_service">volume</property>
      <property name="shotcut:filter">muteVolume</property>
      <property name="gain">0</property>
    </filter>
  </producer>
  <producer id="producer570" title="Anonymous Submission" in="00:00:00.000" out="00:03:18.880">
    <property name="length">00:03:18:23</property>
    <property name="eof">pause</property>
    <property name="resource">../../006 - Videos format youtube/Saxophone/Franck_saxophone_totoro.mp4</property>
    <property name="audio_index">1</property>
    <property name="video_index">0</property>
    <property name="mute_on_pause">0</property>
    <property name="mlt_service">avformat-novalidate</property>
    <property name="seekable">1</property>
    <property name="aspect_ratio">1</property>
    <property name="creation_time">2020-04-13T11:28:12</property>
    <property name="shotcut:hash">65568a88d02d9b90ac8b802dbc8299d0</property>
    <property name="ignore_points">0</property>
    <property name="shotcut:caption">Franck_saxophone_totoro.mp4</property>
    <property name="shotcut:skipConvert">1</property>
    <property name="global_feed">1</property>
    <property name="xml">was here</property>
    <filter id="filter998" in="00:01:28.560000" out="00:01:36.520000">
      <property name="background">colour:0</property>
      <property name="mlt_service">affine</property>
      <property name="shotcut:filter">affineSizePosition</property>
      <property name="transition.fill">1</property>
      <property name="transition.distort">0</property>
      <property name="transition.rect">0.0 540.0 961.0 541.0 1</property>
      <property name="transition.valign">top</property>
      <property name="transition.halign">left</property>
      <property name="shotcut:animIn">00:00:01.400000</property>
      <property name="shotcut:animOut">00:00:00.000</property>
      <property name="transition.threads">0</property>
    </filter>
    <filter id="filter999" in="00:01:28.560000" out="00:01:36.520000">
      <property name="window">75</property>
      <property name="max_gain">20dB</property>
      <property name="mlt_service">volume</property>
      <property name="shotcut:filter">muteVolume</property>
      <property name="gain">0</property>
    </filter>
  </producer>
  <producer id="producer571" title="Anonymous Submission" in="00:00:00.000" out="00:03:18.880">
    <property name="length">00:03:18:23</property>
    <property name="eof">pause</property>
    <property name="resource">../../006 - Videos format youtube/Saxophone/Franck_saxophone_totoro.mp4</property>
    <property name="audio_index">1</property>
    <property name="video_index">0</property>
    <property name="mute_on_pause">0</property>
    <property name="mlt_service">avformat-novalidate</property>
    <property name="seekable">1</property>
    <property name="aspect_ratio">1</property>
    <property name="creation_time">2020-04-13T11:28:12</property>
    <property name="shotcut:hash">65568a88d02d9b90ac8b802dbc8299d0</property>
    <property name="ignore_points">0</property>
    <property name="shotcut:caption">Franck_saxophone_totoro.mp4</property>
    <property name="shotcut:skipConvert">1</property>
    <property name="global_feed">1</property>
    <property name="xml">was here</property>
    <filter id="filter1000" in="00:01:36.560000" out="00:01:45.520000">
      <property name="background">colour:0</property>
      <property name="mlt_service">affine</property>
      <property name="shotcut:filter">affineSizePosition</property>
      <property name="transition.fill">1</property>
      <property name="transition.distort">0</property>
      <property name="transition.rect">822.0 462.0 275.0 155.0 1</property>
      <property name="transition.valign">top</property>
      <property name="transition.halign">left</property>
      <property name="shotcut:animIn">00:00:01.400000</property>
      <property name="shotcut:animOut">00:00:00.000</property>
      <property name="transition.threads">0</property>
    </filter>
    <filter id="filter1001" in="00:01:36.560000" out="00:01:45.520000">
      <property name="window">75</property>
      <property name="max_gain">20dB</property>
      <property name="mlt_service">volume</property>
      <property name="shotcut:filter">muteVolume</property>
      <property name="gain">0</property>
    </filter>
  </producer>
  <producer id="producer572" title="Anonymous Submission" in="00:00:00.000" out="00:03:18.880">
    <property name="length">00:03:18:23</property>
    <property name="eof">pause</property>
    <property name="resource">../../006 - Videos format youtube/Saxophone/Franck_saxophone_totoro.mp4</property>
    <property name="audio_index">1</property>
    <property name="video_index">0</property>
    <property name="mute_on_pause">0</property>
    <property name="mlt_service">avformat-novalidate</property>
    <property name="seekable">1</property>
    <property name="aspect_ratio">1</property>
    <property name="creation_time">2020-04-13T11:28:12</property>
    <property name="shotcut:hash">65568a88d02d9b90ac8b802dbc8299d0</property>
    <property name="ignore_points">0</property>
    <property name="shotcut:caption">Franck_saxophone_totoro.mp4</property>
    <property name="shotcut:skipConvert">1</property>
    <property name="global_feed">1</property>
    <property name="xml">was here</property>
    <filter id="filter1002" in="00:01:45.560000" out="00:01:52.520000">
      <property name="background">colour:0</property>
      <property name="mlt_service">affine</property>
      <property name="shotcut:filter">affineSizePosition</property>
      <property name="transition.fill">1</property>
      <property name="transition.distort">0</property>
      <property name="transition.rect">0.0 617.0 275.0 155.0 1</property>
      <property name="transition.valign">top</property>
      <property name="transition.halign">left</property>
      <property name="shotcut:animIn">00:00:01.400000</property>
      <property name="shotcut:animOut">00:00:00.000</property>
      <property name="transition.threads">0</property>
    </filter>
    <filter id="filter1003" in="00:01:45.560000" out="00:01:52.520000">
      <property name="window">75</property>
      <property name="max_gain">20dB</property>
      <property name="mlt_service">volume</property>
      <property name="shotcut:filter">muteVolume</property>
      <property name="gain">0</property>
    </filter>
  </producer>
  <producer id="producer573" title="Anonymous Submission" in="00:00:00.000" out="00:03:18.880">
    <property name="length">00:03:18:23</property>
    <property name="eof">pause</property>
    <property name="resource">../../006 - Videos format youtube/Saxophone/Franck_saxophone_totoro.mp4</property>
    <property name="audio_index">1</property>
    <property name="video_index">0</property>
    <property name="mute_on_pause">0</property>
    <property name="mlt_service">avformat-novalidate</property>
    <property name="seekable">1</property>
    <property name="aspect_ratio">1</property>
    <property name="creation_time">2020-04-13T11:28:12</property>
    <property name="shotcut:hash">65568a88d02d9b90ac8b802dbc8299d0</property>
    <property name="ignore_points">0</property>
    <property name="shotcut:caption">Franck_saxophone_totoro.mp4</property>
    <property name="shotcut:skipConvert">1</property>
    <property name="global_feed">1</property>
    <property name="xml">was here</property>
    <filter id="filter1004" in="00:01:52.560000" out="00:03:18.880000">
      <property name="background">colour:0</property>
      <property name="mlt_service">affine</property>
      <property name="shotcut:filter">affineSizePosition</property>
      <property name="transition.fill">1</property>
      <property name="transition.distort">0</property>
      <property name="transition.rect">6560.0 0.0 321.0 181.0 1</property>
      <property name="transition.valign">top</property>
      <property name="transition.halign">left</property>
      <property name="shotcut:animIn">00:00:01.400000</property>
      <property name="shotcut:animOut">00:00:00.000</property>
      <property name="transition.threads">0</property>
    </filter>
    <filter id="filter1005" in="00:01:52.560000" out="00:03:18.880000">
      <property name="window">75</property>
      <property name="max_gain">20dB</property>
      <property name="mlt_service">volume</property>
      <property name="shotcut:filter">muteVolume</property>
      <property name="gain">0</property>
    </filter>
  </producer>
  <playlist id="playlist31">
    <property name="shotcut:video">1</property>
    <property name="shotcut:name">Franck</property>
    <property name="shotcut:lock">1</property>
    <blank length="00:00:07.040" />
    <entry producer="producer551" in="00:00:08.600" out="00:00:24.520000" />
    <entry producer="producer552" in="00:00:24.560000" out="00:00:31.520000" />
    <entry producer="producer553" in="00:00:31.560000" out="00:00:32.920000" />
    <entry producer="producer554" in="00:00:32.960000" out="00:00:34.360000" />
    <entry producer="producer555" in="00:00:34.400000" out="00:00:35.800000" />
    <entry producer="producer556" in="00:00:35.840000" out="00:00:37.200000" />
    <entry producer="producer557" in="00:00:37.240000" out="00:00:38.640000" />
    <entry producer="producer558" in="00:00:38.680000" out="00:00:40.080000" />
    <entry producer="producer559" in="00:00:40.120000" out="00:00:41.520000" />
    <entry producer="producer560" in="00:00:41.560000" out="00:00:42.920000" />
    <entry producer="producer561" in="00:00:42.960000" out="00:00:44.360000" />
    <entry producer="producer562" in="00:00:44.400000" out="00:00:45.800000" />
    <entry producer="producer563" in="00:00:45.840000" out="00:00:47.200000" />
    <entry producer="producer564" in="00:00:47.240000" out="00:00:48.640000" />
    <entry producer="producer565" in="00:00:48.680000" out="00:00:50.080000" />
    <entry producer="producer566" in="00:00:50.120000" out="00:01:05.520000" />
    <entry producer="producer567" in="00:01:05.560000" out="00:01:13.520000" />
    <entry producer="producer568" in="00:01:13.560000" out="00:01:21.520000" />
    <entry producer="producer569" in="00:01:21.560000" out="00:01:28.520000" />
    <entry producer="producer570" in="00:01:28.560000" out="00:01:36.520000" />
    <entry producer="producer571" in="00:01:36.560000" out="00:01:45.520000" />
    <entry producer="producer572" in="00:01:45.560000" out="00:01:52.520000" />
    <entry producer="producer573" in="00:01:52.560000" out="00:03:18.880000" />
    <filter id="filter1006" out="00:03:20.840">
      <property name="window">75</property>
      <property name="max_gain">20dB</property>
      <property name="level">-8</property>
      <property name="mlt_service">volume</property>
    </filter>
  </playlist>
  <producer id="producer574" title="Anonymous Submission" in="00:00:00.000" out="00:02:56.880">
    <property name="length">00:02:56:23</property>
    <property name="eof">pause</property>
    <property name="resource">../../006 - Videos format youtube/Saxophone/Nadine_saxophone_totoro.mp4</property>
    <property name="audio_index">1</property>
    <property name="video_index">0</property>
    <property name="mute_on_pause">0</property>
    <property name="mlt_service">avformat-novalidate</property>
    <property name="seekable">1</property>
    <property name="aspect_ratio">1</property>
    <property name="creation_time">2020-04-05T10:59:22</property>
    <property name="shotcut:hash">82626502be7a153c67023eb3ec220870</property>
    <property name="ignore_points">0</property>
    <property name="shotcut:caption">Nadine_saxophone_totoro.mp4</property>
    <property name="shotcut:skipConvert">1</property>
    <property name="global_feed">1</property>
    <property name="xml">was here</property>
    <filter id="filter1007" out="00:00:01.360000">
      <property name="background">colour:0</property>
      <property name="mlt_service">affine</property>
      <property name="shotcut:filter">affineSizePosition</property>
      <property name="transition.fill">1</property>
      <property name="transition.distort">0</property>
      <property name="transition.rect">1097.0 154.0 275.0 155.0 1</property>
      <property name="transition.valign">top</property>
      <property name="transition.halign">left</property>
      <property name="shotcut:animIn">00:00:00.000</property>
      <property name="shotcut:animOut">00:00:00.000</property>
      <property name="transition.threads">0</property>
    </filter>
  </producer>
  <producer id="producer575" title="Anonymous Submission" in="00:00:00.000" out="00:02:56.880">
    <property name="length">00:02:56:23</property>
    <property name="eof">pause</property>
    <property name="resource">../../006 - Videos format youtube/Saxophone/Nadine_saxophone_totoro.mp4</property>
    <property name="audio_index">1</property>
    <property name="video_index">0</property>
    <property name="mute_on_pause">0</property>
    <property name="mlt_service">avformat-novalidate</property>
    <property name="seekable">1</property>
    <property name="aspect_ratio">1</property>
    <property name="creation_time">2020-04-05T10:59:22</property>
    <property name="shotcut:hash">82626502be7a153c67023eb3ec220870</property>
    <property name="ignore_points">0</property>
    <property name="shotcut:caption">Nadine_saxophone_totoro.mp4</property>
    <property name="shotcut:skipConvert">1</property>
    <property name="global_feed">1</property>
    <property name="xml">was here</property>
    <filter id="filter1008" out="00:00:08.360000" in="00:00:01.400000">
      <property name="background">colour:0</property>
      <property name="mlt_service">affine</property>
      <property name="shotcut:filter">affineSizePosition</property>
      <property name="transition.fill">1</property>
      <property name="transition.distort">0</property>
      <property name="transition.rect">00:00:00.000000=1097.0 154.0 276.0 155.0 1;00:00:00.440000=548.0 771.0 275.0 155.0 1</property>
      <property name="transition.valign">top</property>
      <property name="transition.halign">left</property>
      <property name="shotcut:animIn">00:00:00.480000</property>
      <property name="shotcut:animOut">00:00:00.000</property>
      <property name="transition.threads">0</property>
    </filter>
  </producer>
  <producer id="producer576" title="Anonymous Submission" in="00:00:00.000" out="00:02:56.880">
    <property name="length">00:02:56:23</property>
    <property name="eof">pause</property>
    <property name="resource">../../006 - Videos format youtube/Saxophone/Nadine_saxophone_totoro.mp4</property>
    <property name="audio_index">1</property>
    <property name="video_index">0</property>
    <property name="mute_on_pause">0</property>
    <property name="mlt_service">avformat-novalidate</property>
    <property name="seekable">1</property>
    <property name="aspect_ratio">1</property>
    <property name="creation_time">2020-04-05T10:59:22</property>
    <property name="shotcut:hash">82626502be7a153c67023eb3ec220870</property>
    <property name="ignore_points">0</property>
    <property name="shotcut:caption">Nadine_saxophone_totoro.mp4</property>
    <property name="shotcut:skipConvert">1</property>
    <property name="global_feed">1</property>
    <property name="xml">was here</property>
    <filter id="filter1009" out="00:00:09.760000" in="00:00:08.400000">
      <property name="background">colour:0</property>
      <property name="mlt_service">affine</property>
      <property name="shotcut:filter">affineSizePosition</property>
      <property name="transition.fill">1</property>
      <property name="transition.distort">0</property>
      <property name="transition.rect">00:00:00.000000=1440.0 945.0 242.0 136.0 1;00:00:01.360000=1200.0 945.0 241.0 136.0 1</property>
      <property name="transition.valign">top</property>
      <property name="transition.halign">left</property>
      <property name="shotcut:animIn">00:00:01.400000</property>
      <property name="shotcut:animOut">00:00:00.000</property>
      <property name="transition.threads">0</property>
    </filter>
  </producer>
  <producer id="producer577" title="Anonymous Submission" in="00:00:00.000" out="00:02:56.880">
    <property name="length">00:02:56:23</property>
    <property name="eof">pause</property>
    <property name="resource">../../006 - Videos format youtube/Saxophone/Nadine_saxophone_totoro.mp4</property>
    <property name="audio_index">1</property>
    <property name="video_index">0</property>
    <property name="mute_on_pause">0</property>
    <property name="mlt_service">avformat-novalidate</property>
    <property name="seekable">1</property>
    <property name="aspect_ratio">1</property>
    <property name="creation_time">2020-04-05T10:59:22</property>
    <property name="shotcut:hash">82626502be7a153c67023eb3ec220870</property>
    <property name="ignore_points">0</property>
    <property name="shotcut:caption">Nadine_saxophone_totoro.mp4</property>
    <property name="shotcut:skipConvert">1</property>
    <property name="global_feed">1</property>
    <property name="xml">was here</property>
    <filter id="filter1010" out="00:00:11.200000" in="00:00:09.800000">
      <property name="background">colour:0</property>
      <property name="mlt_service">affine</property>
      <property name="shotcut:filter">affineSizePosition</property>
      <property name="transition.fill">1</property>
      <property name="transition.distort">0</property>
      <property name="transition.rect">00:00:00.000000=1200.0 945.0 242.0 136.0 1;00:00:01.360000=960.0 945.0 241.0 136.0 1</property>
      <property name="transition.valign">top</property>
      <property name="transition.halign">left</property>
      <property name="shotcut:animIn">00:00:01.400000</property>
      <property name="shotcut:animOut">00:00:00.000</property>
      <property name="transition.threads">0</property>
    </filter>
  </producer>
  <producer id="producer578" title="Anonymous Submission" in="00:00:00.000" out="00:02:56.880">
    <property name="length">00:02:56:23</property>
    <property name="eof">pause</property>
    <property name="resource">../../006 - Videos format youtube/Saxophone/Nadine_saxophone_totoro.mp4</property>
    <property name="audio_index">1</property>
    <property name="video_index">0</property>
    <property name="mute_on_pause">0</property>
    <property name="mlt_service">avformat-novalidate</property>
    <property name="seekable">1</property>
    <property name="aspect_ratio">1</property>
    <property name="creation_time">2020-04-05T10:59:22</property>
    <property name="shotcut:hash">82626502be7a153c67023eb3ec220870</property>
    <property name="ignore_points">0</property>
    <property name="shotcut:caption">Nadine_saxophone_totoro.mp4</property>
    <property name="shotcut:skipConvert">1</property>
    <property name="global_feed">1</property>
    <property name="xml">was here</property>
    <filter id="filter1011" out="00:00:12.640000" in="00:00:11.240000">
      <property name="background">colour:0</property>
      <property name="mlt_service">affine</property>
      <property name="shotcut:filter">affineSizePosition</property>
      <property name="transition.fill">1</property>
      <property name="transition.distort">0</property>
      <property name="transition.rect">00:00:00.000000=960.0 945.0 242.0 136.0 1;00:00:01.360000=720.0 945.0 241.0 136.0 1</property>
      <property name="transition.valign">top</property>
      <property name="transition.halign">left</property>
      <property name="shotcut:animIn">00:00:01.400000</property>
      <property name="shotcut:animOut">00:00:00.000</property>
      <property name="transition.threads">0</property>
    </filter>
  </producer>
  <producer id="producer579" title="Anonymous Submission" in="00:00:00.000" out="00:02:56.880">
    <property name="length">00:02:56:23</property>
    <property name="eof">pause</property>
    <property name="resource">../../006 - Videos format youtube/Saxophone/Nadine_saxophone_totoro.mp4</property>
    <property name="audio_index">1</property>
    <property name="video_index">0</property>
    <property name="mute_on_pause">0</property>
    <property name="mlt_service">avformat-novalidate</property>
    <property name="seekable">1</property>
    <property name="aspect_ratio">1</property>
    <property name="creation_time">2020-04-05T10:59:22</property>
    <property name="shotcut:hash">82626502be7a153c67023eb3ec220870</property>
    <property name="ignore_points">0</property>
    <property name="shotcut:caption">Nadine_saxophone_totoro.mp4</property>
    <property name="shotcut:skipConvert">1</property>
    <property name="global_feed">1</property>
    <property name="xml">was here</property>
    <filter id="filter1012" out="00:00:14.040000" in="00:00:12.680000">
      <property name="background">colour:0</property>
      <property name="mlt_service">affine</property>
      <property name="shotcut:filter">affineSizePosition</property>
      <property name="transition.fill">1</property>
      <property name="transition.distort">0</property>
      <property name="transition.rect">00:00:00.000000=720.0 945.0 242.0 136.0 1;00:00:01.360000=480.0 945.0 241.0 136.0 1</property>
      <property name="transition.valign">top</property>
      <property name="transition.halign">left</property>
      <property name="shotcut:animIn">00:00:01.400000</property>
      <property name="shotcut:animOut">00:00:00.000</property>
      <property name="transition.threads">0</property>
    </filter>
  </producer>
  <producer id="producer580" title="Anonymous Submission" in="00:00:00.000" out="00:02:56.880">
    <property name="length">00:02:56:23</property>
    <property name="eof">pause</property>
    <property name="resource">../../006 - Videos format youtube/Saxophone/Nadine_saxophone_totoro.mp4</property>
    <property name="audio_index">1</property>
    <property name="video_index">0</property>
    <property name="mute_on_pause">0</property>
    <property name="mlt_service">avformat-novalidate</property>
    <property name="seekable">1</property>
    <property name="aspect_ratio">1</property>
    <property name="creation_time">2020-04-05T10:59:22</property>
    <property name="shotcut:hash">82626502be7a153c67023eb3ec220870</property>
    <property name="ignore_points">0</property>
    <property name="shotcut:caption">Nadine_saxophone_totoro.mp4</property>
    <property name="shotcut:skipConvert">1</property>
    <property name="global_feed">1</property>
    <property name="xml">was here</property>
    <filter id="filter1013" out="00:00:15.480000" in="00:00:14.080000">
      <property name="background">colour:0</property>
      <property name="mlt_service">affine</property>
      <property name="shotcut:filter">affineSizePosition</property>
      <property name="transition.fill">1</property>
      <property name="transition.distort">0</property>
      <property name="transition.rect">00:00:00.000000=480.0 945.0 242.0 136.0 1;00:00:01.360000=240.0 945.0 241.0 136.0 1</property>
      <property name="transition.valign">top</property>
      <property name="transition.halign">left</property>
      <property name="shotcut:animIn">00:00:01.400000</property>
      <property name="shotcut:animOut">00:00:00.000</property>
      <property name="transition.threads">0</property>
    </filter>
  </producer>
  <producer id="producer581" title="Anonymous Submission" in="00:00:00.000" out="00:02:56.880">
    <property name="length">00:02:56:23</property>
    <property name="eof">pause</property>
    <property name="resource">../../006 - Videos format youtube/Saxophone/Nadine_saxophone_totoro.mp4</property>
    <property name="audio_index">1</property>
    <property name="video_index">0</property>
    <property name="mute_on_pause">0</property>
    <property name="mlt_service">avformat-novalidate</property>
    <property name="seekable">1</property>
    <property name="aspect_ratio">1</property>
    <property name="creation_time">2020-04-05T10:59:22</property>
    <property name="shotcut:hash">82626502be7a153c67023eb3ec220870</property>
    <property name="ignore_points">0</property>
    <property name="shotcut:caption">Nadine_saxophone_totoro.mp4</property>
    <property name="shotcut:skipConvert">1</property>
    <property name="global_feed">1</property>
    <property name="xml">was here</property>
    <filter id="filter1014" out="00:00:16.920000" in="00:00:15.520000">
      <property name="background">colour:0</property>
      <property name="mlt_service">affine</property>
      <property name="shotcut:filter">affineSizePosition</property>
      <property name="transition.fill">1</property>
      <property name="transition.distort">0</property>
      <property name="transition.rect">00:00:00.000000=240.0 945.0 242.0 136.0 1;00:00:01.360000=0.0 945.0 241.0 136.0 1</property>
      <property name="transition.valign">top</property>
      <property name="transition.halign">left</property>
      <property name="shotcut:animIn">00:00:01.400000</property>
      <property name="shotcut:animOut">00:00:00.000</property>
      <property name="transition.threads">0</property>
    </filter>
  </producer>
  <producer id="producer582" title="Anonymous Submission" in="00:00:00.000" out="00:02:56.880">
    <property name="length">00:02:56:23</property>
    <property name="eof">pause</property>
    <property name="resource">../../006 - Videos format youtube/Saxophone/Nadine_saxophone_totoro.mp4</property>
    <property name="audio_index">1</property>
    <property name="video_index">0</property>
    <property name="mute_on_pause">0</property>
    <property name="mlt_service">avformat-novalidate</property>
    <property name="seekable">1</property>
    <property name="aspect_ratio">1</property>
    <property name="creation_time">2020-04-05T10:59:22</property>
    <property name="shotcut:hash">82626502be7a153c67023eb3ec220870</property>
    <property name="ignore_points">0</property>
    <property name="shotcut:caption">Nadine_saxophone_totoro.mp4</property>
    <property name="shotcut:skipConvert">1</property>
    <property name="global_feed">1</property>
    <property name="xml">was here</property>
    <filter id="filter1015" out="00:00:18.360000" in="00:00:16.960000">
      <property name="background">colour:0</property>
      <property name="mlt_service">affine</property>
      <property name="shotcut:filter">affineSizePosition</property>
      <property name="transition.fill">1</property>
      <property name="transition.distort">0</property>
      <property name="transition.rect">00:00:00.000000=1680.0 945.0 242.0 136.0 1;00:00:01.360000=1440.0 945.0 241.0 136.0 1</property>
      <property name="transition.valign">top</property>
      <property name="transition.halign">left</property>
      <property name="shotcut:animIn">00:00:01.400000</property>
      <property name="shotcut:animOut">00:00:00.000</property>
      <property name="transition.threads">0</property>
    </filter>
  </producer>
  <producer id="producer583" title="Anonymous Submission" in="00:00:00.000" out="00:02:56.880">
    <property name="length">00:02:56:23</property>
    <property name="eof">pause</property>
    <property name="resource">../../006 - Videos format youtube/Saxophone/Nadine_saxophone_totoro.mp4</property>
    <property name="audio_index">1</property>
    <property name="video_index">0</property>
    <property name="mute_on_pause">0</property>
    <property name="mlt_service">avformat-novalidate</property>
    <property name="seekable">1</property>
    <property name="aspect_ratio">1</property>
    <property name="creation_time">2020-04-05T10:59:22</property>
    <property name="shotcut:hash">82626502be7a153c67023eb3ec220870</property>
    <property name="ignore_points">0</property>
    <property name="shotcut:caption">Nadine_saxophone_totoro.mp4</property>
    <property name="shotcut:skipConvert">1</property>
    <property name="global_feed">1</property>
    <property name="xml">was here</property>
    <filter id="filter1016" out="00:00:19.760000" in="00:00:18.400000">
      <property name="background">colour:0</property>
      <property name="mlt_service">affine</property>
      <property name="shotcut:filter">affineSizePosition</property>
      <property name="transition.fill">1</property>
      <property name="transition.distort">0</property>
      <property name="transition.rect">00:00:00.000000=1440.0 945.0 242.0 136.0 1;00:00:01.360000=1200.0 945.0 241.0 136.0 1</property>
      <property name="transition.valign">top</property>
      <property name="transition.halign">left</property>
      <property name="shotcut:animIn">00:00:01.400000</property>
      <property name="shotcut:animOut">00:00:00.000</property>
      <property name="transition.threads">0</property>
    </filter>
  </producer>
  <producer id="producer584" title="Anonymous Submission" in="00:00:00.000" out="00:02:56.880">
    <property name="length">00:02:56:23</property>
    <property name="eof">pause</property>
    <property name="resource">../../006 - Videos format youtube/Saxophone/Nadine_saxophone_totoro.mp4</property>
    <property name="audio_index">1</property>
    <property name="video_index">0</property>
    <property name="mute_on_pause">0</property>
    <property name="mlt_service">avformat-novalidate</property>
    <property name="seekable">1</property>
    <property name="aspect_ratio">1</property>
    <property name="creation_time">2020-04-05T10:59:22</property>
    <property name="shotcut:hash">82626502be7a153c67023eb3ec220870</property>
    <property name="ignore_points">0</property>
    <property name="shotcut:caption">Nadine_saxophone_totoro.mp4</property>
    <property name="shotcut:skipConvert">1</property>
    <property name="global_feed">1</property>
    <property name="xml">was here</property>
    <filter id="filter1017" out="00:00:21.200000" in="00:00:19.800000">
      <property name="background">colour:0</property>
      <property name="mlt_service">affine</property>
      <property name="shotcut:filter">affineSizePosition</property>
      <property name="transition.fill">1</property>
      <property name="transition.distort">0</property>
      <property name="transition.rect">00:00:00.000000=1200.0 945.0 242.0 136.0 1;00:00:01.360000=960.0 945.0 241.0 136.0 1</property>
      <property name="transition.valign">top</property>
      <property name="transition.halign">left</property>
      <property name="shotcut:animIn">00:00:01.400000</property>
      <property name="shotcut:animOut">00:00:00.000</property>
      <property name="transition.threads">0</property>
    </filter>
  </producer>
  <producer id="producer585" title="Anonymous Submission" in="00:00:00.000" out="00:02:56.880">
    <property name="length">00:02:56:23</property>
    <property name="eof">pause</property>
    <property name="resource">../../006 - Videos format youtube/Saxophone/Nadine_saxophone_totoro.mp4</property>
    <property name="audio_index">1</property>
    <property name="video_index">0</property>
    <property name="mute_on_pause">0</property>
    <property name="mlt_service">avformat-novalidate</property>
    <property name="seekable">1</property>
    <property name="aspect_ratio">1</property>
    <property name="creation_time">2020-04-05T10:59:22</property>
    <property name="shotcut:hash">82626502be7a153c67023eb3ec220870</property>
    <property name="ignore_points">0</property>
    <property name="shotcut:caption">Nadine_saxophone_totoro.mp4</property>
    <property name="shotcut:skipConvert">1</property>
    <property name="global_feed">1</property>
    <property name="xml">was here</property>
    <filter id="filter1018" out="00:00:22.640000" in="00:00:21.240000">
      <property name="background">colour:0</property>
      <property name="mlt_service">affine</property>
      <property name="shotcut:filter">affineSizePosition</property>
      <property name="transition.fill">1</property>
      <property name="transition.distort">0</property>
      <property name="transition.rect">00:00:00.000000=960.0 945.0 242.0 136.0 1;00:00:01.360000=720.0 945.0 241.0 136.0 1</property>
      <property name="transition.valign">top</property>
      <property name="transition.halign">left</property>
      <property name="shotcut:animIn">00:00:01.400000</property>
      <property name="shotcut:animOut">00:00:00.000</property>
      <property name="transition.threads">0</property>
    </filter>
  </producer>
  <producer id="producer586" title="Anonymous Submission" in="00:00:00.000" out="00:02:56.880">
    <property name="length">00:02:56:23</property>
    <property name="eof">pause</property>
    <property name="resource">../../006 - Videos format youtube/Saxophone/Nadine_saxophone_totoro.mp4</property>
    <property name="audio_index">1</property>
    <property name="video_index">0</property>
    <property name="mute_on_pause">0</property>
    <property name="mlt_service">avformat-novalidate</property>
    <property name="seekable">1</property>
    <property name="aspect_ratio">1</property>
    <property name="creation_time">2020-04-05T10:59:22</property>
    <property name="shotcut:hash">82626502be7a153c67023eb3ec220870</property>
    <property name="ignore_points">0</property>
    <property name="shotcut:caption">Nadine_saxophone_totoro.mp4</property>
    <property name="shotcut:skipConvert">1</property>
    <property name="global_feed">1</property>
    <property name="xml">was here</property>
    <filter id="filter1019" out="00:00:24.040000" in="00:00:22.680000">
      <property name="background">colour:0</property>
      <property name="mlt_service">affine</property>
      <property name="shotcut:filter">affineSizePosition</property>
      <property name="transition.fill">1</property>
      <property name="transition.distort">0</property>
      <property name="transition.rect">00:00:00.000000=720.0 945.0 242.0 136.0 1;00:00:01.360000=480.0 945.0 241.0 136.0 1</property>
      <property name="transition.valign">top</property>
      <property name="transition.halign">left</property>
      <property name="shotcut:animIn">00:00:01.400000</property>
      <property name="shotcut:animOut">00:00:00.000</property>
      <property name="transition.threads">0</property>
    </filter>
  </producer>
  <producer id="producer587" title="Anonymous Submission" in="00:00:00.000" out="00:02:56.880">
    <property name="length">00:02:56:23</property>
    <property name="eof">pause</property>
    <property name="resource">../../006 - Videos format youtube/Saxophone/Nadine_saxophone_totoro.mp4</property>
    <property name="audio_index">1</property>
    <property name="video_index">0</property>
    <property name="mute_on_pause">0</property>
    <property name="mlt_service">avformat-novalidate</property>
    <property name="seekable">1</property>
    <property name="aspect_ratio">1</property>
    <property name="creation_time">2020-04-05T10:59:22</property>
    <property name="shotcut:hash">82626502be7a153c67023eb3ec220870</property>
    <property name="ignore_points">0</property>
    <property name="shotcut:caption">Nadine_saxophone_totoro.mp4</property>
    <property name="shotcut:skipConvert">1</property>
    <property name="global_feed">1</property>
    <property name="xml">was here</property>
    <filter id="filter1020" out="00:00:25.480000" in="00:00:24.080000">
      <property name="background">colour:0</property>
      <property name="mlt_service">affine</property>
      <property name="shotcut:filter">affineSizePosition</property>
      <property name="transition.fill">1</property>
      <property name="transition.distort">0</property>
      <property name="transition.rect">00:00:00.000000=480.0 945.0 242.0 136.0 1;00:00:01.360000=240.0 945.0 241.0 136.0 1</property>
      <property name="transition.valign">top</property>
      <property name="transition.halign">left</property>
      <property name="shotcut:animIn">00:00:01.400000</property>
      <property name="shotcut:animOut">00:00:00.000</property>
      <property name="transition.threads">0</property>
    </filter>
  </producer>
  <producer id="producer588" title="Anonymous Submission" in="00:00:00.000" out="00:02:56.880">
    <property name="length">00:02:56:23</property>
    <property name="eof">pause</property>
    <property name="resource">../../006 - Videos format youtube/Saxophone/Nadine_saxophone_totoro.mp4</property>
    <property name="audio_index">1</property>
    <property name="video_index">0</property>
    <property name="mute_on_pause">0</property>
    <property name="mlt_service">avformat-novalidate</property>
    <property name="seekable">1</property>
    <property name="aspect_ratio">1</property>
    <property name="creation_time">2020-04-05T10:59:22</property>
    <property name="shotcut:hash">82626502be7a153c67023eb3ec220870</property>
    <property name="ignore_points">0</property>
    <property name="shotcut:caption">Nadine_saxophone_totoro.mp4</property>
    <property name="shotcut:skipConvert">1</property>
    <property name="global_feed">1</property>
    <property name="xml">was here</property>
    <filter id="filter1021" out="00:00:26.920000" in="00:00:25.520000">
      <property name="background">colour:0</property>
      <property name="mlt_service">affine</property>
      <property name="shotcut:filter">affineSizePosition</property>
      <property name="transition.fill">1</property>
      <property name="transition.distort">0</property>
      <property name="transition.rect">00:00:00.000000=240.0 945.0 242.0 136.0 1;00:00:01.360000=0.0 945.0 241.0 136.0 1</property>
      <property name="transition.valign">top</property>
      <property name="transition.halign">left</property>
      <property name="shotcut:animIn">00:00:01.400000</property>
      <property name="shotcut:animOut">00:00:00.000</property>
      <property name="transition.threads">0</property>
    </filter>
  </producer>
  <producer id="producer589" title="Anonymous Submission" in="00:00:00.000" out="00:02:56.880">
    <property name="length">00:02:56:23</property>
    <property name="eof">pause</property>
    <property name="resource">../../006 - Videos format youtube/Saxophone/Nadine_saxophone_totoro.mp4</property>
    <property name="audio_index">1</property>
    <property name="video_index">0</property>
    <property name="mute_on_pause">0</property>
    <property name="mlt_service">avformat-novalidate</property>
    <property name="seekable">1</property>
    <property name="aspect_ratio">1</property>
    <property name="creation_time">2020-04-05T10:59:22</property>
    <property name="shotcut:hash">82626502be7a153c67023eb3ec220870</property>
    <property name="ignore_points">0</property>
    <property name="shotcut:caption">Nadine_saxophone_totoro.mp4</property>
    <property name="shotcut:skipConvert">1</property>
    <property name="global_feed">1</property>
    <property name="xml">was here</property>
    <filter id="filter1022" out="00:00:42.360000" in="00:00:26.960000">
      <property name="background">colour:0</property>
      <property name="mlt_service">affine</property>
      <property name="shotcut:filter">affineSizePosition</property>
      <property name="transition.fill">1</property>
      <property name="transition.distort">0</property>
      <property name="transition.rect">00:00:00.000000=1680.0 945.0 242.0 136.0 1;00:00:01.360000=1440.0 945.0 241.0 136.0 1</property>
      <property name="transition.valign">top</property>
      <property name="transition.halign">left</property>
      <property name="shotcut:animIn">00:00:01.400000</property>
      <property name="shotcut:animOut">00:00:00.000</property>
      <property name="transition.threads">0</property>
    </filter>
  </producer>
  <producer id="producer590" title="Anonymous Submission" in="00:00:00.000" out="00:02:56.880">
    <property name="length">00:02:56:23</property>
    <property name="eof">pause</property>
    <property name="resource">../../006 - Videos format youtube/Saxophone/Nadine_saxophone_totoro.mp4</property>
    <property name="audio_index">1</property>
    <property name="video_index">0</property>
    <property name="mute_on_pause">0</property>
    <property name="mlt_service">avformat-novalidate</property>
    <property name="seekable">1</property>
    <property name="aspect_ratio">1</property>
    <property name="creation_time">2020-04-05T10:59:22</property>
    <property name="shotcut:hash">82626502be7a153c67023eb3ec220870</property>
    <property name="ignore_points">0</property>
    <property name="shotcut:caption">Nadine_saxophone_totoro.mp4</property>
    <property name="shotcut:skipConvert">1</property>
    <property name="global_feed">1</property>
    <property name="xml">was here</property>
    <filter id="filter1023" out="00:00:50.360000" in="00:00:42.400000">
      <property name="background">colour:0</property>
      <property name="mlt_service">affine</property>
      <property name="shotcut:filter">affineSizePosition</property>
      <property name="transition.fill">1</property>
      <property name="transition.distort">0</property>
      <property name="transition.rect">-548.0 -462.0 275.0 155.0 1</property>
      <property name="transition.valign">top</property>
      <property name="transition.halign">left</property>
      <property name="shotcut:animIn">00:00:01.400000</property>
      <property name="shotcut:animOut">00:00:00.000</property>
      <property name="transition.threads">0</property>
    </filter>
  </producer>
  <producer id="producer591" title="Anonymous Submission" in="00:00:00.000" out="00:02:56.880">
    <property name="length">00:02:56:23</property>
    <property name="eof">pause</property>
    <property name="resource">../../006 - Videos format youtube/Saxophone/Nadine_saxophone_totoro.mp4</property>
    <property name="audio_index">1</property>
    <property name="video_index">0</property>
    <property name="mute_on_pause">0</property>
    <property name="mlt_service">avformat-novalidate</property>
    <property name="seekable">1</property>
    <property name="aspect_ratio">1</property>
    <property name="creation_time">2020-04-05T10:59:22</property>
    <property name="shotcut:hash">82626502be7a153c67023eb3ec220870</property>
    <property name="ignore_points">0</property>
    <property name="shotcut:caption">Nadine_saxophone_totoro.mp4</property>
    <property name="shotcut:skipConvert">1</property>
    <property name="global_feed">1</property>
    <property name="xml">was here</property>
    <filter id="filter1024" out="00:00:58.360000" in="00:00:50.400000">
      <property name="background">colour:0</property>
      <property name="mlt_service">affine</property>
      <property name="shotcut:filter">affineSizePosition</property>
      <property name="transition.fill">1</property>
      <property name="transition.distort">0</property>
      <property name="transition.rect">274.0 925.0 275.0 155.0 1</property>
      <property name="transition.valign">top</property>
      <property name="transition.halign">left</property>
      <property name="shotcut:animIn">00:00:01.400000</property>
      <property name="shotcut:animOut">00:00:00.000</property>
      <property name="transition.threads">0</property>
    </filter>
  </producer>
  <producer id="producer592" title="Anonymous Submission" in="00:00:00.000" out="00:02:56.880">
    <property name="length">00:02:56:23</property>
    <property name="eof">pause</property>
    <property name="resource">../../006 - Videos format youtube/Saxophone/Nadine_saxophone_totoro.mp4</property>
    <property name="audio_index">1</property>
    <property name="video_index">0</property>
    <property name="mute_on_pause">0</property>
    <property name="mlt_service">avformat-novalidate</property>
    <property name="seekable">1</property>
    <property name="aspect_ratio">1</property>
    <property name="creation_time">2020-04-05T10:59:22</property>
    <property name="shotcut:hash">82626502be7a153c67023eb3ec220870</property>
    <property name="ignore_points">0</property>
    <property name="shotcut:caption">Nadine_saxophone_totoro.mp4</property>
    <property name="shotcut:skipConvert">1</property>
    <property name="global_feed">1</property>
    <property name="xml">was here</property>
    <filter id="filter1025" out="00:01:05.360000" in="00:00:58.400000">
      <property name="background">colour:0</property>
      <property name="mlt_service">affine</property>
      <property name="shotcut:filter">affineSizePosition</property>
      <property name="transition.fill">1</property>
      <property name="transition.distort">0</property>
      <property name="transition.rect">1600.0 360.0 321.0 181.0 1</property>
      <property name="transition.valign">top</property>
      <property name="transition.halign">left</property>
      <property name="shotcut:animIn">00:00:01.400000</property>
      <property name="shotcut:animOut">00:00:00.000</property>
      <property name="transition.threads">0</property>
    </filter>
  </producer>
  <producer id="producer593" title="Anonymous Submission" in="00:00:00.000" out="00:02:56.880">
    <property name="length">00:02:56:23</property>
    <property name="eof">pause</property>
    <property name="resource">../../006 - Videos format youtube/Saxophone/Nadine_saxophone_totoro.mp4</property>
    <property name="audio_index">1</property>
    <property name="video_index">0</property>
    <property name="mute_on_pause">0</property>
    <property name="mlt_service">avformat-novalidate</property>
    <property name="seekable">1</property>
    <property name="aspect_ratio">1</property>
    <property name="creation_time">2020-04-05T10:59:22</property>
    <property name="shotcut:hash">82626502be7a153c67023eb3ec220870</property>
    <property name="ignore_points">0</property>
    <property name="shotcut:caption">Nadine_saxophone_totoro.mp4</property>
    <property name="shotcut:skipConvert">1</property>
    <property name="global_feed">1</property>
    <property name="xml">was here</property>
    <filter id="filter1026" out="00:01:13.360000" in="00:01:05.400000">
      <property name="background">colour:0</property>
      <property name="mlt_service">affine</property>
      <property name="shotcut:filter">affineSizePosition</property>
      <property name="transition.fill">1</property>
      <property name="transition.distort">0</property>
      <property name="transition.rect">-1440.0 0.0 321.0 181.0 1</property>
      <property name="transition.valign">top</property>
      <property name="transition.halign">left</property>
      <property name="shotcut:animIn">00:00:01.400000</property>
      <property name="shotcut:animOut">00:00:00.000</property>
      <property name="transition.threads">0</property>
    </filter>
  </producer>
  <producer id="producer594" title="Anonymous Submission" in="00:00:00.000" out="00:02:56.880">
    <property name="length">00:02:56:23</property>
    <property name="eof">pause</property>
    <property name="resource">../../006 - Videos format youtube/Saxophone/Nadine_saxophone_totoro.mp4</property>
    <property name="audio_index">1</property>
    <property name="video_index">0</property>
    <property name="mute_on_pause">0</property>
    <property name="mlt_service">avformat-novalidate</property>
    <property name="seekable">1</property>
    <property name="aspect_ratio">1</property>
    <property name="creation_time">2020-04-05T10:59:22</property>
    <property name="shotcut:hash">82626502be7a153c67023eb3ec220870</property>
    <property name="ignore_points">0</property>
    <property name="shotcut:caption">Nadine_saxophone_totoro.mp4</property>
    <property name="shotcut:skipConvert">1</property>
    <property name="global_feed">1</property>
    <property name="xml">was here</property>
    <filter id="filter1027" out="00:01:22.360000" in="00:01:13.400000">
      <property name="background">colour:0</property>
      <property name="mlt_service">affine</property>
      <property name="shotcut:filter">affineSizePosition</property>
      <property name="transition.fill">1</property>
      <property name="transition.distort">0</property>
      <property name="transition.rect">-548.0 -308.0 275.0 155.0 1</property>
      <property name="transition.valign">top</property>
      <property name="transition.halign">left</property>
      <property name="shotcut:animIn">00:00:01.400000</property>
      <property name="shotcut:animOut">00:00:00.000</property>
      <property name="transition.threads">0</property>
    </filter>
  </producer>
  <producer id="producer595" title="Anonymous Submission" in="00:00:00.000" out="00:02:56.880">
    <property name="length">00:02:56:23</property>
    <property name="eof">pause</property>
    <property name="resource">../../006 - Videos format youtube/Saxophone/Nadine_saxophone_totoro.mp4</property>
    <property name="audio_index">1</property>
    <property name="video_index">0</property>
    <property name="mute_on_pause">0</property>
    <property name="mlt_service">avformat-novalidate</property>
    <property name="seekable">1</property>
    <property name="aspect_ratio">1</property>
    <property name="creation_time">2020-04-05T10:59:22</property>
    <property name="shotcut:hash">82626502be7a153c67023eb3ec220870</property>
    <property name="ignore_points">0</property>
    <property name="shotcut:caption">Nadine_saxophone_totoro.mp4</property>
    <property name="shotcut:skipConvert">1</property>
    <property name="global_feed">1</property>
    <property name="xml">was here</property>
    <filter id="filter1028" out="00:01:29.360000" in="00:01:22.400000">
      <property name="background">colour:0</property>
      <property name="mlt_service">affine</property>
      <property name="shotcut:filter">affineSizePosition</property>
      <property name="transition.fill">1</property>
      <property name="transition.distort">0</property>
      <property name="transition.rect">-548.0 -308.0 275.0 155.0 1</property>
      <property name="transition.valign">top</property>
      <property name="transition.halign">left</property>
      <property name="shotcut:animIn">00:00:01.400000</property>
      <property name="shotcut:animOut">00:00:00.000</property>
      <property name="transition.threads">0</property>
    </filter>
  </producer>
  <producer id="producer596" title="Anonymous Submission" in="00:00:00.000" out="00:02:56.880">
    <property name="length">00:02:56:23</property>
    <property name="eof">pause</property>
    <property name="resource">../../006 - Videos format youtube/Saxophone/Nadine_saxophone_totoro.mp4</property>
    <property name="audio_index">1</property>
    <property name="video_index">0</property>
    <property name="mute_on_pause">0</property>
    <property name="mlt_service">avformat-novalidate</property>
    <property name="seekable">1</property>
    <property name="aspect_ratio">1</property>
    <property name="creation_time">2020-04-05T10:59:22</property>
    <property name="shotcut:hash">82626502be7a153c67023eb3ec220870</property>
    <property name="ignore_points">0</property>
    <property name="shotcut:caption">Nadine_saxophone_totoro.mp4</property>
    <property name="shotcut:skipConvert">1</property>
    <property name="global_feed">1</property>
    <property name="xml">was here</property>
    <filter id="filter1029" out="00:02:56.880000" in="00:01:29.400000">
      <property name="background">colour:0</property>
      <property name="mlt_service">affine</property>
      <property name="shotcut:filter">affineSizePosition</property>
      <property name="transition.fill">1</property>
      <property name="transition.distort">0</property>
      <property name="transition.rect">1120.0 0.0 321.0 181.0 1</property>
      <property name="transition.valign">top</property>
      <property name="transition.halign">left</property>
      <property name="shotcut:animIn">00:00:01.400000</property>
      <property name="shotcut:animOut">00:00:00.000</property>
      <property name="transition.threads">0</property>
    </filter>
  </producer>
  <playlist id="playlist32">
    <property name="shotcut:video">1</property>
    <property name="shotcut:name">Nadine_saxo2/3?</property>
    <property name="shotcut:lock">1</property>
    <blank length="00:00:21.600" />
    <entry producer="producer574" in="00:00:00.000" out="00:00:01.360000" />
    <entry producer="producer575" in="00:00:01.400000" out="00:00:08.360000" />
    <entry producer="producer576" in="00:00:08.400000" out="00:00:09.760000" />
    <entry producer="producer577" in="00:00:09.800000" out="00:00:11.200000" />
    <entry producer="producer578" in="00:00:11.240000" out="00:00:12.640000" />
    <entry producer="producer579" in="00:00:12.680000" out="00:00:14.040000" />
    <entry producer="producer580" in="00:00:14.080000" out="00:00:15.480000" />
    <entry producer="producer581" in="00:00:15.520000" out="00:00:16.920000" />
    <entry producer="producer582" in="00:00:16.960000" out="00:00:18.360000" />
    <entry producer="producer583" in="00:00:18.400000" out="00:00:19.760000" />
    <entry producer="producer584" in="00:00:19.800000" out="00:00:21.200000" />
    <entry producer="producer585" in="00:00:21.240000" out="00:00:22.640000" />
    <entry producer="producer586" in="00:00:22.680000" out="00:00:24.040000" />
    <entry producer="producer587" in="00:00:24.080000" out="00:00:25.480000" />
    <entry producer="producer588" in="00:00:25.520000" out="00:00:26.920000" />
    <entry producer="producer589" in="00:00:26.960000" out="00:00:42.360000" />
    <entry producer="producer590" in="00:00:42.400000" out="00:00:50.360000" />
    <entry producer="producer591" in="00:00:50.400000" out="00:00:58.360000" />
    <entry producer="producer592" in="00:00:58.400000" out="00:01:05.360000" />
    <entry producer="producer593" in="00:01:05.400000" out="00:01:13.360000" />
    <entry producer="producer594" in="00:01:13.400000" out="00:01:22.360000" />
    <entry producer="producer595" in="00:01:22.400000" out="00:01:29.360000" />
    <entry producer="producer596" in="00:01:29.400000" out="00:02:56.880000" />
    <filter id="filter1030" out="00:03:20.840">
      <property name="window">75</property>
      <property name="max_gain">20dB</property>
      <property name="level">-10</property>
      <property name="mlt_service">volume</property>
    </filter>
  </playlist>
  <producer id="producer597" title="Anonymous Submission" in="00:00:00.000" out="00:03:00.640">
    <property name="length">00:03:00:17</property>
    <property name="eof">pause</property>
    <property name="resource">../../006 - Videos format youtube/Saxophone/Nathalie_saxophone_totoro.mp4</property>
    <property name="audio_index">1</property>
    <property name="video_index">0</property>
    <property name="mute_on_pause">0</property>
    <property name="mlt_service">avformat-novalidate</property>
    <property name="seekable">1</property>
    <property name="aspect_ratio">1</property>
    <property name="creation_time">2020-04-05T20:53:59</property>
    <property name="shotcut:hash">0d7f5f7f840ed30cff72366d537ba970</property>
    <property name="ignore_points">0</property>
    <property name="shotcut:caption">Nathalie_saxophone_totoro.mp4</property>
    <property name="shotcut:skipConvert">1</property>
    <property name="global_feed">1</property>
    <property name="xml">was here</property>
    <filter id="filter1031" out="00:00:06.520000">
      <property name="background">colour:0</property>
      <property name="mlt_service">affine</property>
      <property name="shotcut:filter">affineSizePosition</property>
      <property name="transition.fill">1</property>
      <property name="transition.distort">0</property>
      <property name="transition.rect">548.0 771.0 275.0 155.0 1</property>
      <property name="transition.valign">top</property>
      <property name="transition.halign">left</property>
      <property name="shotcut:animIn">00:00:00.000</property>
      <property name="shotcut:animOut">00:00:00.000</property>
      <property name="transition.threads">0</property>
    </filter>
  </producer>
  <producer id="producer598" title="Anonymous Submission" in="00:00:00.000" out="00:03:00.640">
    <property name="length">00:03:00:17</property>
    <property name="eof">pause</property>
    <property name="resource">../../006 - Videos format youtube/Saxophone/Nathalie_saxophone_totoro.mp4</property>
    <property name="audio_index">1</property>
    <property name="video_index">0</property>
    <property name="mute_on_pause">0</property>
    <property name="mlt_service">avformat-novalidate</property>
    <property name="seekable">1</property>
    <property name="aspect_ratio">1</property>
    <property name="creation_time">2020-04-05T20:53:59</property>
    <property name="shotcut:hash">0d7f5f7f840ed30cff72366d537ba970</property>
    <property name="ignore_points">0</property>
    <property name="shotcut:caption">Nathalie_saxophone_totoro.mp4</property>
    <property name="shotcut:skipConvert">1</property>
    <property name="global_feed">1</property>
    <property name="xml">was here</property>
    <filter id="filter1032" out="00:00:13.520000" in="00:00:06.560000">
      <property name="background">colour:0</property>
      <property name="mlt_service">affine</property>
      <property name="shotcut:filter">affineSizePosition</property>
      <property name="transition.fill">1</property>
      <property name="transition.distort">0</property>
      <property name="transition.rect">00:00:00.000000=548.0 771.0 276.0 155.0 1;00:00:00.440000=1097.0 154.0 275.0 155.0 1</property>
      <property name="transition.valign">top</property>
      <property name="transition.halign">left</property>
      <property name="shotcut:animIn">00:00:00.480000</property>
      <property name="shotcut:animOut">00:00:00.000</property>
      <property name="transition.threads">0</property>
    </filter>
  </producer>
  <producer id="producer599" title="Anonymous Submission" in="00:00:00.000" out="00:03:00.640">
    <property name="length">00:03:00:17</property>
    <property name="eof">pause</property>
    <property name="resource">../../006 - Videos format youtube/Saxophone/Nathalie_saxophone_totoro.mp4</property>
    <property name="audio_index">1</property>
    <property name="video_index">0</property>
    <property name="mute_on_pause">0</property>
    <property name="mlt_service">avformat-novalidate</property>
    <property name="seekable">1</property>
    <property name="aspect_ratio">1</property>
    <property name="creation_time">2020-04-05T20:53:59</property>
    <property name="shotcut:hash">0d7f5f7f840ed30cff72366d537ba970</property>
    <property name="ignore_points">0</property>
    <property name="shotcut:caption">Nathalie_saxophone_totoro.mp4</property>
    <property name="shotcut:skipConvert">1</property>
    <property name="global_feed">1</property>
    <property name="xml">was here</property>
    <filter id="filter1033" out="00:00:14.920000" in="00:00:13.560000">
      <property name="background">colour:0</property>
      <property name="mlt_service">affine</property>
      <property name="shotcut:filter">affineSizePosition</property>
      <property name="transition.fill">1</property>
      <property name="transition.distort">0</property>
      <property name="transition.rect">00:00:00.000000=1680.0 945.0 242.0 136.0 1;00:00:01.360000=1440.0 945.0 241.0 136.0 1</property>
      <property name="transition.valign">top</property>
      <property name="transition.halign">left</property>
      <property name="shotcut:animIn">00:00:01.400000</property>
      <property name="shotcut:animOut">00:00:00.000</property>
      <property name="transition.threads">0</property>
    </filter>
  </producer>
  <producer id="producer600" title="Anonymous Submission" in="00:00:00.000" out="00:03:00.640">
    <property name="length">00:03:00:17</property>
    <property name="eof">pause</property>
    <property name="resource">../../006 - Videos format youtube/Saxophone/Nathalie_saxophone_totoro.mp4</property>
    <property name="audio_index">1</property>
    <property name="video_index">0</property>
    <property name="mute_on_pause">0</property>
    <property name="mlt_service">avformat-novalidate</property>
    <property name="seekable">1</property>
    <property name="aspect_ratio">1</property>
    <property name="creation_time">2020-04-05T20:53:59</property>
    <property name="shotcut:hash">0d7f5f7f840ed30cff72366d537ba970</property>
    <property name="ignore_points">0</property>
    <property name="shotcut:caption">Nathalie_saxophone_totoro.mp4</property>
    <property name="shotcut:skipConvert">1</property>
    <property name="global_feed">1</property>
    <property name="xml">was here</property>
    <filter id="filter1034" out="00:00:16.360000" in="00:00:14.960000">
      <property name="background">colour:0</property>
      <property name="mlt_service">affine</property>
      <property name="shotcut:filter">affineSizePosition</property>
      <property name="transition.fill">1</property>
      <property name="transition.distort">0</property>
      <property name="transition.rect">00:00:00.000000=1440.0 945.0 242.0 136.0 1;00:00:01.360000=1200.0 945.0 241.0 136.0 1</property>
      <property name="transition.valign">top</property>
      <property name="transition.halign">left</property>
      <property name="shotcut:animIn">00:00:01.400000</property>
      <property name="shotcut:animOut">00:00:00.000</property>
      <property name="transition.threads">0</property>
    </filter>
  </producer>
  <producer id="producer601" title="Anonymous Submission" in="00:00:00.000" out="00:03:00.640">
    <property name="length">00:03:00:17</property>
    <property name="eof">pause</property>
    <property name="resource">../../006 - Videos format youtube/Saxophone/Nathalie_saxophone_totoro.mp4</property>
    <property name="audio_index">1</property>
    <property name="video_index">0</property>
    <property name="mute_on_pause">0</property>
    <property name="mlt_service">avformat-novalidate</property>
    <property name="seekable">1</property>
    <property name="aspect_ratio">1</property>
    <property name="creation_time">2020-04-05T20:53:59</property>
    <property name="shotcut:hash">0d7f5f7f840ed30cff72366d537ba970</property>
    <property name="ignore_points">0</property>
    <property name="shotcut:caption">Nathalie_saxophone_totoro.mp4</property>
    <property name="shotcut:skipConvert">1</property>
    <property name="global_feed">1</property>
    <property name="xml">was here</property>
    <filter id="filter1035" out="00:00:17.800000" in="00:00:16.400000">
      <property name="background">colour:0</property>
      <property name="mlt_service">affine</property>
      <property name="shotcut:filter">affineSizePosition</property>
      <property name="transition.fill">1</property>
      <property name="transition.distort">0</property>
      <property name="transition.rect">00:00:00.000000=1200.0 945.0 242.0 136.0 1;00:00:01.360000=960.0 945.0 241.0 136.0 1</property>
      <property name="transition.valign">top</property>
      <property name="transition.halign">left</property>
      <property name="shotcut:animIn">00:00:01.400000</property>
      <property name="shotcut:animOut">00:00:00.000</property>
      <property name="transition.threads">0</property>
    </filter>
  </producer>
  <producer id="producer602" title="Anonymous Submission" in="00:00:00.000" out="00:03:00.640">
    <property name="length">00:03:00:17</property>
    <property name="eof">pause</property>
    <property name="resource">../../006 - Videos format youtube/Saxophone/Nathalie_saxophone_totoro.mp4</property>
    <property name="audio_index">1</property>
    <property name="video_index">0</property>
    <property name="mute_on_pause">0</property>
    <property name="mlt_service">avformat-novalidate</property>
    <property name="seekable">1</property>
    <property name="aspect_ratio">1</property>
    <property name="creation_time">2020-04-05T20:53:59</property>
    <property name="shotcut:hash">0d7f5f7f840ed30cff72366d537ba970</property>
    <property name="ignore_points">0</property>
    <property name="shotcut:caption">Nathalie_saxophone_totoro.mp4</property>
    <property name="shotcut:skipConvert">1</property>
    <property name="global_feed">1</property>
    <property name="xml">was here</property>
    <filter id="filter1036" out="00:00:19.200000" in="00:00:17.840000">
      <property name="background">colour:0</property>
      <property name="mlt_service">affine</property>
      <property name="shotcut:filter">affineSizePosition</property>
      <property name="transition.fill">1</property>
      <property name="transition.distort">0</property>
      <property name="transition.rect">00:00:00.000000=960.0 945.0 242.0 136.0 1;00:00:01.360000=720.0 945.0 241.0 136.0 1</property>
      <property name="transition.valign">top</property>
      <property name="transition.halign">left</property>
      <property name="shotcut:animIn">00:00:01.400000</property>
      <property name="shotcut:animOut">00:00:00.000</property>
      <property name="transition.threads">0</property>
    </filter>
  </producer>
  <producer id="producer603" title="Anonymous Submission" in="00:00:00.000" out="00:03:00.640">
    <property name="length">00:03:00:17</property>
    <property name="eof">pause</property>
    <property name="resource">../../006 - Videos format youtube/Saxophone/Nathalie_saxophone_totoro.mp4</property>
    <property name="audio_index">1</property>
    <property name="video_index">0</property>
    <property name="mute_on_pause">0</property>
    <property name="mlt_service">avformat-novalidate</property>
    <property name="seekable">1</property>
    <property name="aspect_ratio">1</property>
    <property name="creation_time">2020-04-05T20:53:59</property>
    <property name="shotcut:hash">0d7f5f7f840ed30cff72366d537ba970</property>
    <property name="ignore_points">0</property>
    <property name="shotcut:caption">Nathalie_saxophone_totoro.mp4</property>
    <property name="shotcut:skipConvert">1</property>
    <property name="global_feed">1</property>
    <property name="xml">was here</property>
    <filter id="filter1037" out="00:00:20.640000" in="00:00:19.240000">
      <property name="background">colour:0</property>
      <property name="mlt_service">affine</property>
      <property name="shotcut:filter">affineSizePosition</property>
      <property name="transition.fill">1</property>
      <property name="transition.distort">0</property>
      <property name="transition.rect">00:00:00.000000=720.0 945.0 242.0 136.0 1;00:00:01.360000=480.0 945.0 241.0 136.0 1</property>
      <property name="transition.valign">top</property>
      <property name="transition.halign">left</property>
      <property name="shotcut:animIn">00:00:01.400000</property>
      <property name="shotcut:animOut">00:00:00.000</property>
      <property name="transition.threads">0</property>
    </filter>
  </producer>
  <producer id="producer604" title="Anonymous Submission" in="00:00:00.000" out="00:03:00.640">
    <property name="length">00:03:00:17</property>
    <property name="eof">pause</property>
    <property name="resource">../../006 - Videos format youtube/Saxophone/Nathalie_saxophone_totoro.mp4</property>
    <property name="audio_index">1</property>
    <property name="video_index">0</property>
    <property name="mute_on_pause">0</property>
    <property name="mlt_service">avformat-novalidate</property>
    <property name="seekable">1</property>
    <property name="aspect_ratio">1</property>
    <property name="creation_time">2020-04-05T20:53:59</property>
    <property name="shotcut:hash">0d7f5f7f840ed30cff72366d537ba970</property>
    <property name="ignore_points">0</property>
    <property name="shotcut:caption">Nathalie_saxophone_totoro.mp4</property>
    <property name="shotcut:skipConvert">1</property>
    <property name="global_feed">1</property>
    <property name="xml">was here</property>
    <filter id="filter1038" out="00:00:22.080000" in="00:00:20.680000">
      <property name="background">colour:0</property>
      <property name="mlt_service">affine</property>
      <property name="shotcut:filter">affineSizePosition</property>
      <property name="transition.fill">1</property>
      <property name="transition.distort">0</property>
      <property name="transition.rect">00:00:00.000000=480.0 945.0 242.0 136.0 1;00:00:01.360000=240.0 945.0 241.0 136.0 1</property>
      <property name="transition.valign">top</property>
      <property name="transition.halign">left</property>
      <property name="shotcut:animIn">00:00:01.400000</property>
      <property name="shotcut:animOut">00:00:00.000</property>
      <property name="transition.threads">0</property>
    </filter>
  </producer>
  <producer id="producer605" title="Anonymous Submission" in="00:00:00.000" out="00:03:00.640">
    <property name="length">00:03:00:17</property>
    <property name="eof">pause</property>
    <property name="resource">../../006 - Videos format youtube/Saxophone/Nathalie_saxophone_totoro.mp4</property>
    <property name="audio_index">1</property>
    <property name="video_index">0</property>
    <property name="mute_on_pause">0</property>
    <property name="mlt_service">avformat-novalidate</property>
    <property name="seekable">1</property>
    <property name="aspect_ratio">1</property>
    <property name="creation_time">2020-04-05T20:53:59</property>
    <property name="shotcut:hash">0d7f5f7f840ed30cff72366d537ba970</property>
    <property name="ignore_points">0</property>
    <property name="shotcut:caption">Nathalie_saxophone_totoro.mp4</property>
    <property name="shotcut:skipConvert">1</property>
    <property name="global_feed">1</property>
    <property name="xml">was here</property>
    <filter id="filter1039" out="00:00:23.520000" in="00:00:22.120000">
      <property name="background">colour:0</property>
      <property name="mlt_service">affine</property>
      <property name="shotcut:filter">affineSizePosition</property>
      <property name="transition.fill">1</property>
      <property name="transition.distort">0</property>
      <property name="transition.rect">00:00:00.000000=240.0 945.0 242.0 136.0 1;00:00:01.360000=0.0 945.0 241.0 136.0 1</property>
      <property name="transition.valign">top</property>
      <property name="transition.halign">left</property>
      <property name="shotcut:animIn">00:00:01.400000</property>
      <property name="shotcut:animOut">00:00:00.000</property>
      <property name="transition.threads">0</property>
    </filter>
  </producer>
  <producer id="producer606" title="Anonymous Submission" in="00:00:00.000" out="00:03:00.640">
    <property name="length">00:03:00:17</property>
    <property name="eof">pause</property>
    <property name="resource">../../006 - Videos format youtube/Saxophone/Nathalie_saxophone_totoro.mp4</property>
    <property name="audio_index">1</property>
    <property name="video_index">0</property>
    <property name="mute_on_pause">0</property>
    <property name="mlt_service">avformat-novalidate</property>
    <property name="seekable">1</property>
    <property name="aspect_ratio">1</property>
    <property name="creation_time">2020-04-05T20:53:59</property>
    <property name="shotcut:hash">0d7f5f7f840ed30cff72366d537ba970</property>
    <property name="ignore_points">0</property>
    <property name="shotcut:caption">Nathalie_saxophone_totoro.mp4</property>
    <property name="shotcut:skipConvert">1</property>
    <property name="global_feed">1</property>
    <property name="xml">was here</property>
    <filter id="filter1040" out="00:00:24.920000" in="00:00:23.560000">
      <property name="background">colour:0</property>
      <property name="mlt_service">affine</property>
      <property name="shotcut:filter">affineSizePosition</property>
      <property name="transition.fill">1</property>
      <property name="transition.distort">0</property>
      <property name="transition.rect">00:00:00.000000=1680.0 945.0 242.0 136.0 1;00:00:01.360000=1440.0 945.0 241.0 136.0 1</property>
      <property name="transition.valign">top</property>
      <property name="transition.halign">left</property>
      <property name="shotcut:animIn">00:00:01.400000</property>
      <property name="shotcut:animOut">00:00:00.000</property>
      <property name="transition.threads">0</property>
    </filter>
  </producer>
  <producer id="producer607" title="Anonymous Submission" in="00:00:00.000" out="00:03:00.640">
    <property name="length">00:03:00:17</property>
    <property name="eof">pause</property>
    <property name="resource">../../006 - Videos format youtube/Saxophone/Nathalie_saxophone_totoro.mp4</property>
    <property name="audio_index">1</property>
    <property name="video_index">0</property>
    <property name="mute_on_pause">0</property>
    <property name="mlt_service">avformat-novalidate</property>
    <property name="seekable">1</property>
    <property name="aspect_ratio">1</property>
    <property name="creation_time">2020-04-05T20:53:59</property>
    <property name="shotcut:hash">0d7f5f7f840ed30cff72366d537ba970</property>
    <property name="ignore_points">0</property>
    <property name="shotcut:caption">Nathalie_saxophone_totoro.mp4</property>
    <property name="shotcut:skipConvert">1</property>
    <property name="global_feed">1</property>
    <property name="xml">was here</property>
    <filter id="filter1041" out="00:00:26.360000" in="00:00:24.960000">
      <property name="background">colour:0</property>
      <property name="mlt_service">affine</property>
      <property name="shotcut:filter">affineSizePosition</property>
      <property name="transition.fill">1</property>
      <property name="transition.distort">0</property>
      <property name="transition.rect">00:00:00.000000=1440.0 945.0 242.0 136.0 1;00:00:01.360000=1200.0 945.0 241.0 136.0 1</property>
      <property name="transition.valign">top</property>
      <property name="transition.halign">left</property>
      <property name="shotcut:animIn">00:00:01.400000</property>
      <property name="shotcut:animOut">00:00:00.000</property>
      <property name="transition.threads">0</property>
    </filter>
  </producer>
  <producer id="producer608" title="Anonymous Submission" in="00:00:00.000" out="00:03:00.640">
    <property name="length">00:03:00:17</property>
    <property name="eof">pause</property>
    <property name="resource">../../006 - Videos format youtube/Saxophone/Nathalie_saxophone_totoro.mp4</property>
    <property name="audio_index">1</property>
    <property name="video_index">0</property>
    <property name="mute_on_pause">0</property>
    <property name="mlt_service">avformat-novalidate</property>
    <property name="seekable">1</property>
    <property name="aspect_ratio">1</property>
    <property name="creation_time">2020-04-05T20:53:59</property>
    <property name="shotcut:hash">0d7f5f7f840ed30cff72366d537ba970</property>
    <property name="ignore_points">0</property>
    <property name="shotcut:caption">Nathalie_saxophone_totoro.mp4</property>
    <property name="shotcut:skipConvert">1</property>
    <property name="global_feed">1</property>
    <property name="xml">was here</property>
    <filter id="filter1042" out="00:00:27.800000" in="00:00:26.400000">
      <property name="background">colour:0</property>
      <property name="mlt_service">affine</property>
      <property name="shotcut:filter">affineSizePosition</property>
      <property name="transition.fill">1</property>
      <property name="transition.distort">0</property>
      <property name="transition.rect">00:00:00.000000=1200.0 945.0 242.0 136.0 1;00:00:01.360000=960.0 945.0 241.0 136.0 1</property>
      <property name="transition.valign">top</property>
      <property name="transition.halign">left</property>
      <property name="shotcut:animIn">00:00:01.400000</property>
      <property name="shotcut:animOut">00:00:00.000</property>
      <property name="transition.threads">0</property>
    </filter>
  </producer>
  <producer id="producer609" title="Anonymous Submission" in="00:00:00.000" out="00:03:00.640">
    <property name="length">00:03:00:17</property>
    <property name="eof">pause</property>
    <property name="resource">../../006 - Videos format youtube/Saxophone/Nathalie_saxophone_totoro.mp4</property>
    <property name="audio_index">1</property>
    <property name="video_index">0</property>
    <property name="mute_on_pause">0</property>
    <property name="mlt_service">avformat-novalidate</property>
    <property name="seekable">1</property>
    <property name="aspect_ratio">1</property>
    <property name="creation_time">2020-04-05T20:53:59</property>
    <property name="shotcut:hash">0d7f5f7f840ed30cff72366d537ba970</property>
    <property name="ignore_points">0</property>
    <property name="shotcut:caption">Nathalie_saxophone_totoro.mp4</property>
    <property name="shotcut:skipConvert">1</property>
    <property name="global_feed">1</property>
    <property name="xml">was here</property>
    <filter id="filter1043" out="00:00:29.200000" in="00:00:27.840000">
      <property name="background">colour:0</property>
      <property name="mlt_service">affine</property>
      <property name="shotcut:filter">affineSizePosition</property>
      <property name="transition.fill">1</property>
      <property name="transition.distort">0</property>
      <property name="transition.rect">00:00:00.000000=960.0 945.0 242.0 136.0 1;00:00:01.360000=720.0 945.0 241.0 136.0 1</property>
      <property name="transition.valign">top</property>
      <property name="transition.halign">left</property>
      <property name="shotcut:animIn">00:00:01.400000</property>
      <property name="shotcut:animOut">00:00:00.000</property>
      <property name="transition.threads">0</property>
    </filter>
  </producer>
  <producer id="producer610" title="Anonymous Submission" in="00:00:00.000" out="00:03:00.640">
    <property name="length">00:03:00:17</property>
    <property name="eof">pause</property>
    <property name="resource">../../006 - Videos format youtube/Saxophone/Nathalie_saxophone_totoro.mp4</property>
    <property name="audio_index">1</property>
    <property name="video_index">0</property>
    <property name="mute_on_pause">0</property>
    <property name="mlt_service">avformat-novalidate</property>
    <property name="seekable">1</property>
    <property name="aspect_ratio">1</property>
    <property name="creation_time">2020-04-05T20:53:59</property>
    <property name="shotcut:hash">0d7f5f7f840ed30cff72366d537ba970</property>
    <property name="ignore_points">0</property>
    <property name="shotcut:caption">Nathalie_saxophone_totoro.mp4</property>
    <property name="shotcut:skipConvert">1</property>
    <property name="global_feed">1</property>
    <property name="xml">was here</property>
    <filter id="filter1044" out="00:00:30.640000" in="00:00:29.240000">
      <property name="background">colour:0</property>
      <property name="mlt_service">affine</property>
      <property name="shotcut:filter">affineSizePosition</property>
      <property name="transition.fill">1</property>
      <property name="transition.distort">0</property>
      <property name="transition.rect">00:00:00.000000=720.0 945.0 242.0 136.0 1;00:00:01.360000=480.0 945.0 241.0 136.0 1</property>
      <property name="transition.valign">top</property>
      <property name="transition.halign">left</property>
      <property name="shotcut:animIn">00:00:01.400000</property>
      <property name="shotcut:animOut">00:00:00.000</property>
      <property name="transition.threads">0</property>
    </filter>
  </producer>
  <producer id="producer611" title="Anonymous Submission" in="00:00:00.000" out="00:03:00.640">
    <property name="length">00:03:00:17</property>
    <property name="eof">pause</property>
    <property name="resource">../../006 - Videos format youtube/Saxophone/Nathalie_saxophone_totoro.mp4</property>
    <property name="audio_index">1</property>
    <property name="video_index">0</property>
    <property name="mute_on_pause">0</property>
    <property name="mlt_service">avformat-novalidate</property>
    <property name="seekable">1</property>
    <property name="aspect_ratio">1</property>
    <property name="creation_time">2020-04-05T20:53:59</property>
    <property name="shotcut:hash">0d7f5f7f840ed30cff72366d537ba970</property>
    <property name="ignore_points">0</property>
    <property name="shotcut:caption">Nathalie_saxophone_totoro.mp4</property>
    <property name="shotcut:skipConvert">1</property>
    <property name="global_feed">1</property>
    <property name="xml">was here</property>
    <filter id="filter1045" out="00:00:32.080000" in="00:00:30.680000">
      <property name="background">colour:0</property>
      <property name="mlt_service">affine</property>
      <property name="shotcut:filter">affineSizePosition</property>
      <property name="transition.fill">1</property>
      <property name="transition.distort">0</property>
      <property name="transition.rect">00:00:00.000000=480.0 945.0 242.0 136.0 1;00:00:01.360000=240.0 945.0 241.0 136.0 1</property>
      <property name="transition.valign">top</property>
      <property name="transition.halign">left</property>
      <property name="shotcut:animIn">00:00:01.400000</property>
      <property name="shotcut:animOut">00:00:00.000</property>
      <property name="transition.threads">0</property>
    </filter>
  </producer>
  <producer id="producer612" title="Anonymous Submission" in="00:00:00.000" out="00:03:00.640">
    <property name="length">00:03:00:17</property>
    <property name="eof">pause</property>
    <property name="resource">../../006 - Videos format youtube/Saxophone/Nathalie_saxophone_totoro.mp4</property>
    <property name="audio_index">1</property>
    <property name="video_index">0</property>
    <property name="mute_on_pause">0</property>
    <property name="mlt_service">avformat-novalidate</property>
    <property name="seekable">1</property>
    <property name="aspect_ratio">1</property>
    <property name="creation_time">2020-04-05T20:53:59</property>
    <property name="shotcut:hash">0d7f5f7f840ed30cff72366d537ba970</property>
    <property name="ignore_points">0</property>
    <property name="shotcut:caption">Nathalie_saxophone_totoro.mp4</property>
    <property name="shotcut:skipConvert">1</property>
    <property name="global_feed">1</property>
    <property name="xml">was here</property>
    <filter id="filter1046" out="00:00:33.480000" in="00:00:32.120000">
      <property name="background">colour:0</property>
      <property name="mlt_service">affine</property>
      <property name="shotcut:filter">affineSizePosition</property>
      <property name="transition.fill">1</property>
      <property name="transition.distort">0</property>
      <property name="transition.rect">00:00:00.000000=240.0 945.0 242.0 136.0 1;00:00:01.360000=0.0 945.0 241.0 136.0 1</property>
      <property name="transition.valign">top</property>
      <property name="transition.halign">left</property>
      <property name="shotcut:animIn">00:00:01.400000</property>
      <property name="shotcut:animOut">00:00:00.000</property>
      <property name="transition.threads">0</property>
    </filter>
  </producer>
  <producer id="producer613" title="Anonymous Submission" in="00:00:00.000" out="00:03:00.640">
    <property name="length">00:03:00:17</property>
    <property name="eof">pause</property>
    <property name="resource">../../006 - Videos format youtube/Saxophone/Nathalie_saxophone_totoro.mp4</property>
    <property name="audio_index">1</property>
    <property name="video_index">0</property>
    <property name="mute_on_pause">0</property>
    <property name="mlt_service">avformat-novalidate</property>
    <property name="seekable">1</property>
    <property name="aspect_ratio">1</property>
    <property name="creation_time">2020-04-05T20:53:59</property>
    <property name="shotcut:hash">0d7f5f7f840ed30cff72366d537ba970</property>
    <property name="ignore_points">0</property>
    <property name="shotcut:caption">Nathalie_saxophone_totoro.mp4</property>
    <property name="shotcut:skipConvert">1</property>
    <property name="global_feed">1</property>
    <property name="xml">was here</property>
    <filter id="filter1047" out="00:00:47.520000" in="00:00:33.520000">
      <property name="background">colour:0</property>
      <property name="mlt_service">affine</property>
      <property name="shotcut:filter">affineSizePosition</property>
      <property name="transition.fill">1</property>
      <property name="transition.distort">0</property>
      <property name="transition.rect">1680.0 945.0 241.0 136.0 1</property>
      <property name="transition.valign">top</property>
      <property name="transition.halign">left</property>
      <property name="shotcut:animIn">00:00:01.400000</property>
      <property name="shotcut:animOut">00:00:00.000</property>
      <property name="transition.threads">0</property>
    </filter>
  </producer>
  <producer id="producer614" title="Anonymous Submission" in="00:00:00.000" out="00:03:00.640">
    <property name="length">00:03:00:17</property>
    <property name="eof">pause</property>
    <property name="resource">../../006 - Videos format youtube/Saxophone/Nathalie_saxophone_totoro.mp4</property>
    <property name="audio_index">1</property>
    <property name="video_index">0</property>
    <property name="mute_on_pause">0</property>
    <property name="mlt_service">avformat-novalidate</property>
    <property name="seekable">1</property>
    <property name="aspect_ratio">1</property>
    <property name="creation_time">2020-04-05T20:53:59</property>
    <property name="shotcut:hash">0d7f5f7f840ed30cff72366d537ba970</property>
    <property name="ignore_points">0</property>
    <property name="shotcut:caption">Nathalie_saxophone_totoro.mp4</property>
    <property name="shotcut:skipConvert">1</property>
    <property name="global_feed">1</property>
    <property name="xml">was here</property>
    <filter id="filter1048" out="00:00:55.520000" in="00:00:47.560000">
      <property name="background">colour:0</property>
      <property name="mlt_service">affine</property>
      <property name="shotcut:filter">affineSizePosition</property>
      <property name="transition.fill">1</property>
      <property name="transition.distort">0</property>
      <property name="transition.rect">-548.0 -617.0 275.0 155.0 1</property>
      <property name="transition.valign">top</property>
      <property name="transition.halign">left</property>
      <property name="shotcut:animIn">00:00:01.400000</property>
      <property name="shotcut:animOut">00:00:00.000</property>
      <property name="transition.threads">0</property>
    </filter>
  </producer>
  <producer id="producer615" title="Anonymous Submission" in="00:00:00.000" out="00:03:00.640">
    <property name="length">00:03:00:17</property>
    <property name="eof">pause</property>
    <property name="resource">../../006 - Videos format youtube/Saxophone/Nathalie_saxophone_totoro.mp4</property>
    <property name="audio_index">1</property>
    <property name="video_index">0</property>
    <property name="mute_on_pause">0</property>
    <property name="mlt_service">avformat-novalidate</property>
    <property name="seekable">1</property>
    <property name="aspect_ratio">1</property>
    <property name="creation_time">2020-04-05T20:53:59</property>
    <property name="shotcut:hash">0d7f5f7f840ed30cff72366d537ba970</property>
    <property name="ignore_points">0</property>
    <property name="shotcut:caption">Nathalie_saxophone_totoro.mp4</property>
    <property name="shotcut:skipConvert">1</property>
    <property name="global_feed">1</property>
    <property name="xml">was here</property>
    <filter id="filter1049" out="00:01:03.520000" in="00:00:55.560000">
      <property name="background">colour:0</property>
      <property name="mlt_service">affine</property>
      <property name="shotcut:filter">affineSizePosition</property>
      <property name="transition.fill">1</property>
      <property name="transition.distort">0</property>
      <property name="transition.rect">822.0 771.0 275.0 155.0 1</property>
      <property name="transition.valign">top</property>
      <property name="transition.halign">left</property>
      <property name="shotcut:animIn">00:00:01.400000</property>
      <property name="shotcut:animOut">00:00:00.000</property>
      <property name="transition.threads">0</property>
    </filter>
  </producer>
  <producer id="producer616" title="Anonymous Submission" in="00:00:00.000" out="00:03:00.640">
    <property name="length">00:03:00:17</property>
    <property name="eof">pause</property>
    <property name="resource">../../006 - Videos format youtube/Saxophone/Nathalie_saxophone_totoro.mp4</property>
    <property name="audio_index">1</property>
    <property name="video_index">0</property>
    <property name="mute_on_pause">0</property>
    <property name="mlt_service">avformat-novalidate</property>
    <property name="seekable">1</property>
    <property name="aspect_ratio">1</property>
    <property name="creation_time">2020-04-05T20:53:59</property>
    <property name="shotcut:hash">0d7f5f7f840ed30cff72366d537ba970</property>
    <property name="ignore_points">0</property>
    <property name="shotcut:caption">Nathalie_saxophone_totoro.mp4</property>
    <property name="shotcut:skipConvert">1</property>
    <property name="global_feed">1</property>
    <property name="xml">was here</property>
    <filter id="filter1050" out="00:01:10.520000" in="00:01:03.560000">
      <property name="background">colour:0</property>
      <property name="mlt_service">affine</property>
      <property name="shotcut:filter">affineSizePosition</property>
      <property name="transition.fill">1</property>
      <property name="transition.distort">0</property>
      <property name="transition.rect">0.0 360.0 321.0 181.0 1</property>
      <property name="transition.valign">top</property>
      <property name="transition.halign">left</property>
      <property name="shotcut:animIn">00:00:01.400000</property>
      <property name="shotcut:animOut">00:00:00.000</property>
      <property name="transition.threads">0</property>
    </filter>
  </producer>
  <producer id="producer617" title="Anonymous Submission" in="00:00:00.000" out="00:03:00.640">
    <property name="length">00:03:00:17</property>
    <property name="eof">pause</property>
    <property name="resource">../../006 - Videos format youtube/Saxophone/Nathalie_saxophone_totoro.mp4</property>
    <property name="audio_index">1</property>
    <property name="video_index">0</property>
    <property name="mute_on_pause">0</property>
    <property name="mlt_service">avformat-novalidate</property>
    <property name="seekable">1</property>
    <property name="aspect_ratio">1</property>
    <property name="creation_time">2020-04-05T20:53:59</property>
    <property name="shotcut:hash">0d7f5f7f840ed30cff72366d537ba970</property>
    <property name="ignore_points">0</property>
    <property name="shotcut:caption">Nathalie_saxophone_totoro.mp4</property>
    <property name="shotcut:skipConvert">1</property>
    <property name="global_feed">1</property>
    <property name="xml">was here</property>
    <filter id="filter1051" out="00:01:18.520000" in="00:01:10.560000">
      <property name="background">colour:0</property>
      <property name="mlt_service">affine</property>
      <property name="shotcut:filter">affineSizePosition</property>
      <property name="transition.fill">1</property>
      <property name="transition.distort">0</property>
      <property name="transition.rect">-640.0 -360.0 321.0 181.0 1</property>
      <property name="transition.valign">top</property>
      <property name="transition.halign">left</property>
      <property name="shotcut:animIn">00:00:01.400000</property>
      <property name="shotcut:animOut">00:00:00.000</property>
      <property name="transition.threads">0</property>
    </filter>
  </producer>
  <producer id="producer618" title="Anonymous Submission" in="00:00:00.000" out="00:03:00.640">
    <property name="length">00:03:00:17</property>
    <property name="eof">pause</property>
    <property name="resource">../../006 - Videos format youtube/Saxophone/Nathalie_saxophone_totoro.mp4</property>
    <property name="audio_index">1</property>
    <property name="video_index">0</property>
    <property name="mute_on_pause">0</property>
    <property name="mlt_service">avformat-novalidate</property>
    <property name="seekable">1</property>
    <property name="aspect_ratio">1</property>
    <property name="creation_time">2020-04-05T20:53:59</property>
    <property name="shotcut:hash">0d7f5f7f840ed30cff72366d537ba970</property>
    <property name="ignore_points">0</property>
    <property name="shotcut:caption">Nathalie_saxophone_totoro.mp4</property>
    <property name="shotcut:skipConvert">1</property>
    <property name="global_feed">1</property>
    <property name="xml">was here</property>
    <filter id="filter1052" out="00:01:27.520000" in="00:01:18.560000">
      <property name="background">colour:0</property>
      <property name="mlt_service">affine</property>
      <property name="shotcut:filter">affineSizePosition</property>
      <property name="transition.fill">1</property>
      <property name="transition.distort">0</property>
      <property name="transition.rect">-1097.0 -617.0 275.0 155.0 1</property>
      <property name="transition.valign">top</property>
      <property name="transition.halign">left</property>
      <property name="shotcut:animIn">00:00:01.400000</property>
      <property name="shotcut:animOut">00:00:00.000</property>
      <property name="transition.threads">0</property>
    </filter>
  </producer>
  <producer id="producer619" title="Anonymous Submission" in="00:00:00.000" out="00:03:00.640">
    <property name="length">00:03:00:17</property>
    <property name="eof">pause</property>
    <property name="resource">../../006 - Videos format youtube/Saxophone/Nathalie_saxophone_totoro.mp4</property>
    <property name="audio_index">1</property>
    <property name="video_index">0</property>
    <property name="mute_on_pause">0</property>
    <property name="mlt_service">avformat-novalidate</property>
    <property name="seekable">1</property>
    <property name="aspect_ratio">1</property>
    <property name="creation_time">2020-04-05T20:53:59</property>
    <property name="shotcut:hash">0d7f5f7f840ed30cff72366d537ba970</property>
    <property name="ignore_points">0</property>
    <property name="shotcut:caption">Nathalie_saxophone_totoro.mp4</property>
    <property name="shotcut:skipConvert">1</property>
    <property name="global_feed">1</property>
    <property name="xml">was here</property>
    <filter id="filter1053" out="00:01:34.520000" in="00:01:27.560000">
      <property name="background">colour:0</property>
      <property name="mlt_service">affine</property>
      <property name="shotcut:filter">affineSizePosition</property>
      <property name="transition.fill">1</property>
      <property name="transition.distort">0</property>
      <property name="transition.rect">-548.0 -308.0 275.0 155.0 1</property>
      <property name="transition.valign">top</property>
      <property name="transition.halign">left</property>
      <property name="shotcut:animIn">00:00:01.400000</property>
      <property name="shotcut:animOut">00:00:00.000</property>
      <property name="transition.threads">0</property>
    </filter>
  </producer>
  <producer id="producer620" title="Anonymous Submission" in="00:00:00.000" out="00:03:00.640">
    <property name="length">00:03:00:17</property>
    <property name="eof">pause</property>
    <property name="resource">../../006 - Videos format youtube/Saxophone/Nathalie_saxophone_totoro.mp4</property>
    <property name="audio_index">1</property>
    <property name="video_index">0</property>
    <property name="mute_on_pause">0</property>
    <property name="mlt_service">avformat-novalidate</property>
    <property name="seekable">1</property>
    <property name="aspect_ratio">1</property>
    <property name="creation_time">2020-04-05T20:53:59</property>
    <property name="shotcut:hash">0d7f5f7f840ed30cff72366d537ba970</property>
    <property name="ignore_points">0</property>
    <property name="shotcut:caption">Nathalie_saxophone_totoro.mp4</property>
    <property name="shotcut:skipConvert">1</property>
    <property name="global_feed">1</property>
    <property name="xml">was here</property>
    <filter id="filter1054" out="00:03:00.640000" in="00:01:34.560000">
      <property name="background">colour:0</property>
      <property name="mlt_service">affine</property>
      <property name="shotcut:filter">affineSizePosition</property>
      <property name="transition.fill">1</property>
      <property name="transition.distort">0</property>
      <property name="transition.rect">-640.0 -360.0 321.0 181.0 1</property>
      <property name="transition.valign">top</property>
      <property name="transition.halign">left</property>
      <property name="shotcut:animIn">00:00:01.400000</property>
      <property name="shotcut:animOut">00:00:00.000</property>
      <property name="transition.threads">0</property>
    </filter>
  </producer>
  <playlist id="playlist33">
    <property name="shotcut:video">1</property>
    <property name="shotcut:name">Nathalie_saxo2/3?</property>
    <property name="shotcut:lock">1</property>
    <blank length="00:00:16.440" />
    <entry producer="producer597" in="00:00:00.000" out="00:00:06.520000" />
    <entry producer="producer598" in="00:00:06.560000" out="00:00:13.520000" />
    <entry producer="producer599" in="00:00:13.560000" out="00:00:14.920000" />
    <entry producer="producer600" in="00:00:14.960000" out="00:00:16.360000" />
    <entry producer="producer601" in="00:00:16.400000" out="00:00:17.800000" />
    <entry producer="producer602" in="00:00:17.840000" out="00:00:19.200000" />
    <entry producer="producer603" in="00:00:19.240000" out="00:00:20.640000" />
    <entry producer="producer604" in="00:00:20.680000" out="00:00:22.080000" />
    <entry producer="producer605" in="00:00:22.120000" out="00:00:23.520000" />
    <entry producer="producer606" in="00:00:23.560000" out="00:00:24.920000" />
    <entry producer="producer607" in="00:00:24.960000" out="00:00:26.360000" />
    <entry producer="producer608" in="00:00:26.400000" out="00:00:27.800000" />
    <entry producer="producer609" in="00:00:27.840000" out="00:00:29.200000" />
    <entry producer="producer610" in="00:00:29.240000" out="00:00:30.640000" />
    <entry producer="producer611" in="00:00:30.680000" out="00:00:32.080000" />
    <entry producer="producer612" in="00:00:32.120000" out="00:00:33.480000" />
    <entry producer="producer613" in="00:00:33.520000" out="00:00:47.520000" />
    <entry producer="producer614" in="00:00:47.560000" out="00:00:55.520000" />
    <entry producer="producer615" in="00:00:55.560000" out="00:01:03.520000" />
    <entry producer="producer616" in="00:01:03.560000" out="00:01:10.520000" />
    <entry producer="producer617" in="00:01:10.560000" out="00:01:18.520000" />
    <entry producer="producer618" in="00:01:18.560000" out="00:01:27.520000" />
    <entry producer="producer619" in="00:01:27.560000" out="00:01:34.520000" />
    <entry producer="producer620" in="00:01:34.560000" out="00:03:00.640000" />
    <filter id="filter1055" out="00:03:20.840">
      <property name="window">75</property>
      <property name="max_gain">20dB</property>
      <property name="level">-10</property>
      <property name="mlt_service">volume</property>
    </filter>
  </playlist>
  <producer id="producer621" title="Anonymous Submission" in="00:00:00.000" out="00:03:20.680">
    <property name="length">00:03:20:18</property>
    <property name="eof">pause</property>
    <property name="resource">../../006 - Videos format youtube/Saxophone/Chloe_saxophone_totoro_clown_recadre.mp4</property>
    <property name="audio_index">1</property>
    <property name="video_index">0</property>
    <property name="mute_on_pause">0</property>
    <property name="mlt_service">avformat-novalidate</property>
    <property name="seekable">1</property>
    <property name="aspect_ratio">1</property>
    <property name="creation_time">2020-04-12T15:45:35</property>
    <property name="shotcut:hash">93226b3e2e8f077ce38531a1c7650b73</property>
    <property name="ignore_points">0</property>
    <property name="shotcut:caption">Chloe_saxophone_totoro_clown_recadre.mp4</property>
    <property name="shotcut:skipConvert">1</property>
    <property name="global_feed">1</property>
    <property name="xml">was here</property>
    <filter id="filter1056" out="00:00:22.960000">
      <property name="background">colour:0</property>
      <property name="mlt_service">affine</property>
      <property name="shotcut:filter">affineSizePosition</property>
      <property name="transition.fill">1</property>
      <property name="transition.distort">0</property>
      <property name="transition.rect">1645.0 462.0 275.0 155.0 1</property>
      <property name="transition.valign">top</property>
      <property name="transition.halign">left</property>
      <property name="shotcut:animIn">00:00:00.000</property>
      <property name="shotcut:animOut">00:00:00.000</property>
      <property name="transition.threads">0</property>
    </filter>
    <filter id="filter1057" out="00:00:22.960000">
      <property name="window">75</property>
      <property name="max_gain">20dB</property>
      <property name="level">-15</property>
      <property name="mlt_service">volume</property>
    </filter>
  </producer>
  <producer id="producer622" title="Anonymous Submission" in="00:00:00.000" out="00:03:20.680">
    <property name="length">00:03:20:18</property>
    <property name="eof">pause</property>
    <property name="resource">../../006 - Videos format youtube/Saxophone/Chloe_saxophone_totoro_clown_recadre.mp4</property>
    <property name="audio_index">1</property>
    <property name="video_index">0</property>
    <property name="mute_on_pause">0</property>
    <property name="mlt_service">avformat-novalidate</property>
    <property name="seekable">1</property>
    <property name="aspect_ratio">1</property>
    <property name="creation_time">2020-04-12T15:45:35</property>
    <property name="shotcut:hash">93226b3e2e8f077ce38531a1c7650b73</property>
    <property name="ignore_points">0</property>
    <property name="shotcut:caption">Chloe_saxophone_totoro_clown_recadre.mp4</property>
    <property name="shotcut:skipConvert">1</property>
    <property name="global_feed">1</property>
    <property name="xml">was here</property>
    <filter id="filter1058" out="00:00:29.960000" in="00:00:23.000000">
      <property name="background">colour:0</property>
      <property name="mlt_service">affine</property>
      <property name="shotcut:filter">affineSizePosition</property>
      <property name="transition.fill">1</property>
      <property name="transition.distort">0</property>
      <property name="transition.rect">00:00:00.000000=1645.0 462.0 276.0 155.0 1;00:00:00.440000=0.0 308.0 275.0 155.0 1</property>
      <property name="transition.valign">top</property>
      <property name="transition.halign">left</property>
      <property name="shotcut:animIn">00:00:00.480000</property>
      <property name="shotcut:animOut">00:00:00.000</property>
      <property name="transition.threads">0</property>
    </filter>
    <filter id="filter1059" out="00:00:29.960000" in="00:00:23.000000">
      <property name="window">75</property>
      <property name="max_gain">20dB</property>
      <property name="level">-15</property>
      <property name="mlt_service">volume</property>
    </filter>
  </producer>
  <producer id="producer623" title="Anonymous Submission" in="00:00:00.000" out="00:03:20.680">
    <property name="length">00:03:20:18</property>
    <property name="eof">pause</property>
    <property name="resource">../../006 - Videos format youtube/Saxophone/Chloe_saxophone_totoro_clown_recadre.mp4</property>
    <property name="audio_index">1</property>
    <property name="video_index">0</property>
    <property name="mute_on_pause">0</property>
    <property name="mlt_service">avformat-novalidate</property>
    <property name="seekable">1</property>
    <property name="aspect_ratio">1</property>
    <property name="creation_time">2020-04-12T15:45:35</property>
    <property name="shotcut:hash">93226b3e2e8f077ce38531a1c7650b73</property>
    <property name="ignore_points">0</property>
    <property name="shotcut:caption">Chloe_saxophone_totoro_clown_recadre.mp4</property>
    <property name="shotcut:skipConvert">1</property>
    <property name="global_feed">1</property>
    <property name="xml">was here</property>
    <filter id="filter1060" out="00:00:31.360000" in="00:00:30.000000">
      <property name="background">colour:0</property>
      <property name="mlt_service">affine</property>
      <property name="shotcut:filter">affineSizePosition</property>
      <property name="transition.fill">1</property>
      <property name="transition.distort">0</property>
      <property name="transition.rect">00:00:00.000000=480.0 945.0 242.0 136.0 1;00:00:01.360000=240.0 945.0 241.0 136.0 1</property>
      <property name="transition.valign">top</property>
      <property name="transition.halign">left</property>
      <property name="shotcut:animIn">00:00:01.400000</property>
      <property name="shotcut:animOut">00:00:00.000</property>
      <property name="transition.threads">0</property>
    </filter>
    <filter id="filter1061" out="00:00:31.360000" in="00:00:30.000000">
      <property name="window">75</property>
      <property name="max_gain">20dB</property>
      <property name="level">-15</property>
      <property name="mlt_service">volume</property>
    </filter>
  </producer>
  <producer id="producer624" title="Anonymous Submission" in="00:00:00.000" out="00:03:20.680">
    <property name="length">00:03:20:18</property>
    <property name="eof">pause</property>
    <property name="resource">../../006 - Videos format youtube/Saxophone/Chloe_saxophone_totoro_clown_recadre.mp4</property>
    <property name="audio_index">1</property>
    <property name="video_index">0</property>
    <property name="mute_on_pause">0</property>
    <property name="mlt_service">avformat-novalidate</property>
    <property name="seekable">1</property>
    <property name="aspect_ratio">1</property>
    <property name="creation_time">2020-04-12T15:45:35</property>
    <property name="shotcut:hash">93226b3e2e8f077ce38531a1c7650b73</property>
    <property name="ignore_points">0</property>
    <property name="shotcut:caption">Chloe_saxophone_totoro_clown_recadre.mp4</property>
    <property name="shotcut:skipConvert">1</property>
    <property name="global_feed">1</property>
    <property name="xml">was here</property>
    <filter id="filter1062" out="00:00:32.800000" in="00:00:31.400000">
      <property name="background">colour:0</property>
      <property name="mlt_service">affine</property>
      <property name="shotcut:filter">affineSizePosition</property>
      <property name="transition.fill">1</property>
      <property name="transition.distort">0</property>
      <property name="transition.rect">00:00:00.000000=240.0 945.0 242.0 136.0 1;00:00:01.360000=0.0 945.0 241.0 136.0 1</property>
      <property name="transition.valign">top</property>
      <property name="transition.halign">left</property>
      <property name="shotcut:animIn">00:00:01.400000</property>
      <property name="shotcut:animOut">00:00:00.000</property>
      <property name="transition.threads">0</property>
    </filter>
    <filter id="filter1063" out="00:00:32.800000" in="00:00:31.400000">
      <property name="window">75</property>
      <property name="max_gain">20dB</property>
      <property name="level">-15</property>
      <property name="mlt_service">volume</property>
    </filter>
  </producer>
  <producer id="producer625" title="Anonymous Submission" in="00:00:00.000" out="00:03:20.680">
    <property name="length">00:03:20:18</property>
    <property name="eof">pause</property>
    <property name="resource">../../006 - Videos format youtube/Saxophone/Chloe_saxophone_totoro_clown_recadre.mp4</property>
    <property name="audio_index">1</property>
    <property name="video_index">0</property>
    <property name="mute_on_pause">0</property>
    <property name="mlt_service">avformat-novalidate</property>
    <property name="seekable">1</property>
    <property name="aspect_ratio">1</property>
    <property name="creation_time">2020-04-12T15:45:35</property>
    <property name="shotcut:hash">93226b3e2e8f077ce38531a1c7650b73</property>
    <property name="ignore_points">0</property>
    <property name="shotcut:caption">Chloe_saxophone_totoro_clown_recadre.mp4</property>
    <property name="shotcut:skipConvert">1</property>
    <property name="global_feed">1</property>
    <property name="xml">was here</property>
    <filter id="filter1064" out="00:00:34.240000" in="00:00:32.840000">
      <property name="background">colour:0</property>
      <property name="mlt_service">affine</property>
      <property name="shotcut:filter">affineSizePosition</property>
      <property name="transition.fill">1</property>
      <property name="transition.distort">0</property>
      <property name="transition.rect">00:00:00.000000=1680.0 945.0 242.0 136.0 1;00:00:01.360000=1440.0 945.0 241.0 136.0 1</property>
      <property name="transition.valign">top</property>
      <property name="transition.halign">left</property>
      <property name="shotcut:animIn">00:00:01.400000</property>
      <property name="shotcut:animOut">00:00:00.000</property>
      <property name="transition.threads">0</property>
    </filter>
    <filter id="filter1065" out="00:00:34.240000" in="00:00:32.840000">
      <property name="window">75</property>
      <property name="max_gain">20dB</property>
      <property name="level">-15</property>
      <property name="mlt_service">volume</property>
    </filter>
  </producer>
  <producer id="producer626" title="Anonymous Submission" in="00:00:00.000" out="00:03:20.680">
    <property name="length">00:03:20:18</property>
    <property name="eof">pause</property>
    <property name="resource">../../006 - Videos format youtube/Saxophone/Chloe_saxophone_totoro_clown_recadre.mp4</property>
    <property name="audio_index">1</property>
    <property name="video_index">0</property>
    <property name="mute_on_pause">0</property>
    <property name="mlt_service">avformat-novalidate</property>
    <property name="seekable">1</property>
    <property name="aspect_ratio">1</property>
    <property name="creation_time">2020-04-12T15:45:35</property>
    <property name="shotcut:hash">93226b3e2e8f077ce38531a1c7650b73</property>
    <property name="ignore_points">0</property>
    <property name="shotcut:caption">Chloe_saxophone_totoro_clown_recadre.mp4</property>
    <property name="shotcut:skipConvert">1</property>
    <property name="global_feed">1</property>
    <property name="xml">was here</property>
    <filter id="filter1066" out="00:00:35.640000" in="00:00:34.280000">
      <property name="background">colour:0</property>
      <property name="mlt_service">affine</property>
      <property name="shotcut:filter">affineSizePosition</property>
      <property name="transition.fill">1</property>
      <property name="transition.distort">0</property>
      <property name="transition.rect">00:00:00.000000=1440.0 945.0 242.0 136.0 1;00:00:01.360000=1200.0 945.0 241.0 136.0 1</property>
      <property name="transition.valign">top</property>
      <property name="transition.halign">left</property>
      <property name="shotcut:animIn">00:00:01.400000</property>
      <property name="shotcut:animOut">00:00:00.000</property>
      <property name="transition.threads">0</property>
    </filter>
    <filter id="filter1067" out="00:00:35.640000" in="00:00:34.280000">
      <property name="window">75</property>
      <property name="max_gain">20dB</property>
      <property name="level">-15</property>
      <property name="mlt_service">volume</property>
    </filter>
  </producer>
  <producer id="producer627" title="Anonymous Submission" in="00:00:00.000" out="00:03:20.680">
    <property name="length">00:03:20:18</property>
    <property name="eof">pause</property>
    <property name="resource">../../006 - Videos format youtube/Saxophone/Chloe_saxophone_totoro_clown_recadre.mp4</property>
    <property name="audio_index">1</property>
    <property name="video_index">0</property>
    <property name="mute_on_pause">0</property>
    <property name="mlt_service">avformat-novalidate</property>
    <property name="seekable">1</property>
    <property name="aspect_ratio">1</property>
    <property name="creation_time">2020-04-12T15:45:35</property>
    <property name="shotcut:hash">93226b3e2e8f077ce38531a1c7650b73</property>
    <property name="ignore_points">0</property>
    <property name="shotcut:caption">Chloe_saxophone_totoro_clown_recadre.mp4</property>
    <property name="shotcut:skipConvert">1</property>
    <property name="global_feed">1</property>
    <property name="xml">was here</property>
    <filter id="filter1068" out="00:00:37.080000" in="00:00:35.680000">
      <property name="background">colour:0</property>
      <property name="mlt_service">affine</property>
      <property name="shotcut:filter">affineSizePosition</property>
      <property name="transition.fill">1</property>
      <property name="transition.distort">0</property>
      <property name="transition.rect">00:00:00.000000=1200.0 945.0 242.0 136.0 1;00:00:01.360000=960.0 945.0 241.0 136.0 1</property>
      <property name="transition.valign">top</property>
      <property name="transition.halign">left</property>
      <property name="shotcut:animIn">00:00:01.400000</property>
      <property name="shotcut:animOut">00:00:00.000</property>
      <property name="transition.threads">0</property>
    </filter>
    <filter id="filter1069" out="00:00:37.080000" in="00:00:35.680000">
      <property name="window">75</property>
      <property name="max_gain">20dB</property>
      <property name="level">-15</property>
      <property name="mlt_service">volume</property>
    </filter>
  </producer>
  <producer id="producer628" title="Anonymous Submission" in="00:00:00.000" out="00:03:20.680">
    <property name="length">00:03:20:18</property>
    <property name="eof">pause</property>
    <property name="resource">../../006 - Videos format youtube/Saxophone/Chloe_saxophone_totoro_clown_recadre.mp4</property>
    <property name="audio_index">1</property>
    <property name="video_index">0</property>
    <property name="mute_on_pause">0</property>
    <property name="mlt_service">avformat-novalidate</property>
    <property name="seekable">1</property>
    <property name="aspect_ratio">1</property>
    <property name="creation_time">2020-04-12T15:45:35</property>
    <property name="shotcut:hash">93226b3e2e8f077ce38531a1c7650b73</property>
    <property name="ignore_points">0</property>
    <property name="shotcut:caption">Chloe_saxophone_totoro_clown_recadre.mp4</property>
    <property name="shotcut:skipConvert">1</property>
    <property name="global_feed">1</property>
    <property name="xml">was here</property>
    <filter id="filter1070" out="00:00:38.520000" in="00:00:37.120000">
      <property name="background">colour:0</property>
      <property name="mlt_service">affine</property>
      <property name="shotcut:filter">affineSizePosition</property>
      <property name="transition.fill">1</property>
      <property name="transition.distort">0</property>
      <property name="transition.rect">00:00:00.000000=960.0 945.0 242.0 136.0 1;00:00:01.360000=720.0 945.0 241.0 136.0 1</property>
      <property name="transition.valign">top</property>
      <property name="transition.halign">left</property>
      <property name="shotcut:animIn">00:00:01.400000</property>
      <property name="shotcut:animOut">00:00:00.000</property>
      <property name="transition.threads">0</property>
    </filter>
    <filter id="filter1071" out="00:00:38.520000" in="00:00:37.120000">
      <property name="window">75</property>
      <property name="max_gain">20dB</property>
      <property name="level">-15</property>
      <property name="mlt_service">volume</property>
    </filter>
  </producer>
  <producer id="producer629" title="Anonymous Submission" in="00:00:00.000" out="00:03:20.680">
    <property name="length">00:03:20:18</property>
    <property name="eof">pause</property>
    <property name="resource">../../006 - Videos format youtube/Saxophone/Chloe_saxophone_totoro_clown_recadre.mp4</property>
    <property name="audio_index">1</property>
    <property name="video_index">0</property>
    <property name="mute_on_pause">0</property>
    <property name="mlt_service">avformat-novalidate</property>
    <property name="seekable">1</property>
    <property name="aspect_ratio">1</property>
    <property name="creation_time">2020-04-12T15:45:35</property>
    <property name="shotcut:hash">93226b3e2e8f077ce38531a1c7650b73</property>
    <property name="ignore_points">0</property>
    <property name="shotcut:caption">Chloe_saxophone_totoro_clown_recadre.mp4</property>
    <property name="shotcut:skipConvert">1</property>
    <property name="global_feed">1</property>
    <property name="xml">was here</property>
    <filter id="filter1072" out="00:00:39.960000" in="00:00:38.560000">
      <property name="background">colour:0</property>
      <property name="mlt_service">affine</property>
      <property name="shotcut:filter">affineSizePosition</property>
      <property name="transition.fill">1</property>
      <property name="transition.distort">0</property>
      <property name="transition.rect">00:00:00.000000=720.0 945.0 242.0 136.0 1;00:00:01.360000=480.0 945.0 241.0 136.0 1</property>
      <property name="transition.valign">top</property>
      <property name="transition.halign">left</property>
      <property name="shotcut:animIn">00:00:01.400000</property>
      <property name="shotcut:animOut">00:00:00.000</property>
      <property name="transition.threads">0</property>
    </filter>
    <filter id="filter1073" out="00:00:39.960000" in="00:00:38.560000">
      <property name="window">75</property>
      <property name="max_gain">20dB</property>
      <property name="level">-15</property>
      <property name="mlt_service">volume</property>
    </filter>
  </producer>
  <producer id="producer630" title="Anonymous Submission" in="00:00:00.000" out="00:03:20.680">
    <property name="length">00:03:20:18</property>
    <property name="eof">pause</property>
    <property name="resource">../../006 - Videos format youtube/Saxophone/Chloe_saxophone_totoro_clown_recadre.mp4</property>
    <property name="audio_index">1</property>
    <property name="video_index">0</property>
    <property name="mute_on_pause">0</property>
    <property name="mlt_service">avformat-novalidate</property>
    <property name="seekable">1</property>
    <property name="aspect_ratio">1</property>
    <property name="creation_time">2020-04-12T15:45:35</property>
    <property name="shotcut:hash">93226b3e2e8f077ce38531a1c7650b73</property>
    <property name="ignore_points">0</property>
    <property name="shotcut:caption">Chloe_saxophone_totoro_clown_recadre.mp4</property>
    <property name="shotcut:skipConvert">1</property>
    <property name="global_feed">1</property>
    <property name="xml">was here</property>
    <filter id="filter1074" out="00:00:41.360000" in="00:00:40.000000">
      <property name="background">colour:0</property>
      <property name="mlt_service">affine</property>
      <property name="shotcut:filter">affineSizePosition</property>
      <property name="transition.fill">1</property>
      <property name="transition.distort">0</property>
      <property name="transition.rect">00:00:00.000000=480.0 945.0 242.0 136.0 1;00:00:01.360000=240.0 945.0 241.0 136.0 1</property>
      <property name="transition.valign">top</property>
      <property name="transition.halign">left</property>
      <property name="shotcut:animIn">00:00:01.400000</property>
      <property name="shotcut:animOut">00:00:00.000</property>
      <property name="transition.threads">0</property>
    </filter>
    <filter id="filter1075" out="00:00:41.360000" in="00:00:40.000000">
      <property name="window">75</property>
      <property name="max_gain">20dB</property>
      <property name="level">-15</property>
      <property name="mlt_service">volume</property>
    </filter>
  </producer>
  <producer id="producer631" title="Anonymous Submission" in="00:00:00.000" out="00:03:20.680">
    <property name="length">00:03:20:18</property>
    <property name="eof">pause</property>
    <property name="resource">../../006 - Videos format youtube/Saxophone/Chloe_saxophone_totoro_clown_recadre.mp4</property>
    <property name="audio_index">1</property>
    <property name="video_index">0</property>
    <property name="mute_on_pause">0</property>
    <property name="mlt_service">avformat-novalidate</property>
    <property name="seekable">1</property>
    <property name="aspect_ratio">1</property>
    <property name="creation_time">2020-04-12T15:45:35</property>
    <property name="shotcut:hash">93226b3e2e8f077ce38531a1c7650b73</property>
    <property name="ignore_points">0</property>
    <property name="shotcut:caption">Chloe_saxophone_totoro_clown_recadre.mp4</property>
    <property name="shotcut:skipConvert">1</property>
    <property name="global_feed">1</property>
    <property name="xml">was here</property>
    <filter id="filter1076" out="00:00:42.800000" in="00:00:41.400000">
      <property name="background">colour:0</property>
      <property name="mlt_service">affine</property>
      <property name="shotcut:filter">affineSizePosition</property>
      <property name="transition.fill">1</property>
      <property name="transition.distort">0</property>
      <property name="transition.rect">00:00:00.000000=240.0 945.0 242.0 136.0 1;00:00:01.360000=0.0 945.0 241.0 136.0 1</property>
      <property name="transition.valign">top</property>
      <property name="transition.halign">left</property>
      <property name="shotcut:animIn">00:00:01.400000</property>
      <property name="shotcut:animOut">00:00:00.000</property>
      <property name="transition.threads">0</property>
    </filter>
    <filter id="filter1077" out="00:00:42.800000" in="00:00:41.400000">
      <property name="window">75</property>
      <property name="max_gain">20dB</property>
      <property name="level">-15</property>
      <property name="mlt_service">volume</property>
    </filter>
  </producer>
  <producer id="producer632" title="Anonymous Submission" in="00:00:00.000" out="00:03:20.680">
    <property name="length">00:03:20:18</property>
    <property name="eof">pause</property>
    <property name="resource">../../006 - Videos format youtube/Saxophone/Chloe_saxophone_totoro_clown_recadre.mp4</property>
    <property name="audio_index">1</property>
    <property name="video_index">0</property>
    <property name="mute_on_pause">0</property>
    <property name="mlt_service">avformat-novalidate</property>
    <property name="seekable">1</property>
    <property name="aspect_ratio">1</property>
    <property name="creation_time">2020-04-12T15:45:35</property>
    <property name="shotcut:hash">93226b3e2e8f077ce38531a1c7650b73</property>
    <property name="ignore_points">0</property>
    <property name="shotcut:caption">Chloe_saxophone_totoro_clown_recadre.mp4</property>
    <property name="shotcut:skipConvert">1</property>
    <property name="global_feed">1</property>
    <property name="xml">was here</property>
    <filter id="filter1078" out="00:00:44.240000" in="00:00:42.840000">
      <property name="background">colour:0</property>
      <property name="mlt_service">affine</property>
      <property name="shotcut:filter">affineSizePosition</property>
      <property name="transition.fill">1</property>
      <property name="transition.distort">0</property>
      <property name="transition.rect">00:00:00.000000=1680.0 945.0 242.0 136.0 1;00:00:01.360000=1440.0 945.0 241.0 136.0 1</property>
      <property name="transition.valign">top</property>
      <property name="transition.halign">left</property>
      <property name="shotcut:animIn">00:00:01.400000</property>
      <property name="shotcut:animOut">00:00:00.000</property>
      <property name="transition.threads">0</property>
    </filter>
    <filter id="filter1079" out="00:00:44.240000" in="00:00:42.840000">
      <property name="window">75</property>
      <property name="max_gain">20dB</property>
      <property name="level">-15</property>
      <property name="mlt_service">volume</property>
    </filter>
  </producer>
  <producer id="producer633" title="Anonymous Submission" in="00:00:00.000" out="00:03:20.680">
    <property name="length">00:03:20:18</property>
    <property name="eof">pause</property>
    <property name="resource">../../006 - Videos format youtube/Saxophone/Chloe_saxophone_totoro_clown_recadre.mp4</property>
    <property name="audio_index">1</property>
    <property name="video_index">0</property>
    <property name="mute_on_pause">0</property>
    <property name="mlt_service">avformat-novalidate</property>
    <property name="seekable">1</property>
    <property name="aspect_ratio">1</property>
    <property name="creation_time">2020-04-12T15:45:35</property>
    <property name="shotcut:hash">93226b3e2e8f077ce38531a1c7650b73</property>
    <property name="ignore_points">0</property>
    <property name="shotcut:caption">Chloe_saxophone_totoro_clown_recadre.mp4</property>
    <property name="shotcut:skipConvert">1</property>
    <property name="global_feed">1</property>
    <property name="xml">was here</property>
    <filter id="filter1080" out="00:00:45.640000" in="00:00:44.280000">
      <property name="background">colour:0</property>
      <property name="mlt_service">affine</property>
      <property name="shotcut:filter">affineSizePosition</property>
      <property name="transition.fill">1</property>
      <property name="transition.distort">0</property>
      <property name="transition.rect">00:00:00.000000=1440.0 945.0 242.0 136.0 1;00:00:01.360000=1200.0 945.0 241.0 136.0 1</property>
      <property name="transition.valign">top</property>
      <property name="transition.halign">left</property>
      <property name="shotcut:animIn">00:00:01.400000</property>
      <property name="shotcut:animOut">00:00:00.000</property>
      <property name="transition.threads">0</property>
    </filter>
    <filter id="filter1081" out="00:00:45.640000" in="00:00:44.280000">
      <property name="window">75</property>
      <property name="max_gain">20dB</property>
      <property name="level">-15</property>
      <property name="mlt_service">volume</property>
    </filter>
  </producer>
  <producer id="producer634" title="Anonymous Submission" in="00:00:00.000" out="00:03:20.680">
    <property name="length">00:03:20:18</property>
    <property name="eof">pause</property>
    <property name="resource">../../006 - Videos format youtube/Saxophone/Chloe_saxophone_totoro_clown_recadre.mp4</property>
    <property name="audio_index">1</property>
    <property name="video_index">0</property>
    <property name="mute_on_pause">0</property>
    <property name="mlt_service">avformat-novalidate</property>
    <property name="seekable">1</property>
    <property name="aspect_ratio">1</property>
    <property name="creation_time">2020-04-12T15:45:35</property>
    <property name="shotcut:hash">93226b3e2e8f077ce38531a1c7650b73</property>
    <property name="ignore_points">0</property>
    <property name="shotcut:caption">Chloe_saxophone_totoro_clown_recadre.mp4</property>
    <property name="shotcut:skipConvert">1</property>
    <property name="global_feed">1</property>
    <property name="xml">was here</property>
    <filter id="filter1082" out="00:00:47.080000" in="00:00:45.680000">
      <property name="background">colour:0</property>
      <property name="mlt_service">affine</property>
      <property name="shotcut:filter">affineSizePosition</property>
      <property name="transition.fill">1</property>
      <property name="transition.distort">0</property>
      <property name="transition.rect">00:00:00.000000=1200.0 945.0 242.0 136.0 1;00:00:01.360000=960.0 945.0 241.0 136.0 1</property>
      <property name="transition.valign">top</property>
      <property name="transition.halign">left</property>
      <property name="shotcut:animIn">00:00:01.400000</property>
      <property name="shotcut:animOut">00:00:00.000</property>
      <property name="transition.threads">0</property>
    </filter>
    <filter id="filter1083" out="00:00:47.080000" in="00:00:45.680000">
      <property name="window">75</property>
      <property name="max_gain">20dB</property>
      <property name="level">-15</property>
      <property name="mlt_service">volume</property>
    </filter>
  </producer>
  <producer id="producer635" title="Anonymous Submission" in="00:00:00.000" out="00:03:20.680">
    <property name="length">00:03:20:18</property>
    <property name="eof">pause</property>
    <property name="resource">../../006 - Videos format youtube/Saxophone/Chloe_saxophone_totoro_clown_recadre.mp4</property>
    <property name="audio_index">1</property>
    <property name="video_index">0</property>
    <property name="mute_on_pause">0</property>
    <property name="mlt_service">avformat-novalidate</property>
    <property name="seekable">1</property>
    <property name="aspect_ratio">1</property>
    <property name="creation_time">2020-04-12T15:45:35</property>
    <property name="shotcut:hash">93226b3e2e8f077ce38531a1c7650b73</property>
    <property name="ignore_points">0</property>
    <property name="shotcut:caption">Chloe_saxophone_totoro_clown_recadre.mp4</property>
    <property name="shotcut:skipConvert">1</property>
    <property name="global_feed">1</property>
    <property name="xml">was here</property>
    <filter id="filter1084" out="00:00:48.520000" in="00:00:47.120000">
      <property name="background">colour:0</property>
      <property name="mlt_service">affine</property>
      <property name="shotcut:filter">affineSizePosition</property>
      <property name="transition.fill">1</property>
      <property name="transition.distort">0</property>
      <property name="transition.rect">00:00:00.000000=960.0 945.0 242.0 136.0 1;00:00:01.360000=720.0 945.0 241.0 136.0 1</property>
      <property name="transition.valign">top</property>
      <property name="transition.halign">left</property>
      <property name="shotcut:animIn">00:00:01.400000</property>
      <property name="shotcut:animOut">00:00:00.000</property>
      <property name="transition.threads">0</property>
    </filter>
    <filter id="filter1085" out="00:00:48.520000" in="00:00:47.120000">
      <property name="window">75</property>
      <property name="max_gain">20dB</property>
      <property name="level">-15</property>
      <property name="mlt_service">volume</property>
    </filter>
  </producer>
  <producer id="producer636" title="Anonymous Submission" in="00:00:00.000" out="00:03:20.680">
    <property name="length">00:03:20:18</property>
    <property name="eof">pause</property>
    <property name="resource">../../006 - Videos format youtube/Saxophone/Chloe_saxophone_totoro_clown_recadre.mp4</property>
    <property name="audio_index">1</property>
    <property name="video_index">0</property>
    <property name="mute_on_pause">0</property>
    <property name="mlt_service">avformat-novalidate</property>
    <property name="seekable">1</property>
    <property name="aspect_ratio">1</property>
    <property name="creation_time">2020-04-12T15:45:35</property>
    <property name="shotcut:hash">93226b3e2e8f077ce38531a1c7650b73</property>
    <property name="ignore_points">0</property>
    <property name="shotcut:caption">Chloe_saxophone_totoro_clown_recadre.mp4</property>
    <property name="shotcut:skipConvert">1</property>
    <property name="global_feed">1</property>
    <property name="xml">was here</property>
    <filter id="filter1086" out="00:01:03.960000" in="00:00:48.560000">
      <property name="background">colour:0</property>
      <property name="mlt_service">affine</property>
      <property name="shotcut:filter">affineSizePosition</property>
      <property name="transition.fill">1</property>
      <property name="transition.distort">0</property>
      <property name="transition.rect">00:00:00.000000=720.0 945.0 242.0 136.0 1;00:00:01.360000=480.0 945.0 241.0 136.0 1</property>
      <property name="transition.valign">top</property>
      <property name="transition.halign">left</property>
      <property name="shotcut:animIn">00:00:01.400000</property>
      <property name="shotcut:animOut">00:00:00.000</property>
      <property name="transition.threads">0</property>
    </filter>
    <filter id="filter1087" out="00:01:03.960000" in="00:00:48.560000">
      <property name="window">75</property>
      <property name="max_gain">20dB</property>
      <property name="level">-15</property>
      <property name="mlt_service">volume</property>
    </filter>
  </producer>
  <producer id="producer637" title="Anonymous Submission" in="00:00:00.000" out="00:03:20.680">
    <property name="length">00:03:20:18</property>
    <property name="eof">pause</property>
    <property name="resource">../../006 - Videos format youtube/Saxophone/Chloe_saxophone_totoro_clown_recadre.mp4</property>
    <property name="audio_index">1</property>
    <property name="video_index">0</property>
    <property name="mute_on_pause">0</property>
    <property name="mlt_service">avformat-novalidate</property>
    <property name="seekable">1</property>
    <property name="aspect_ratio">1</property>
    <property name="creation_time">2020-04-12T15:45:35</property>
    <property name="shotcut:hash">93226b3e2e8f077ce38531a1c7650b73</property>
    <property name="ignore_points">0</property>
    <property name="shotcut:caption">Chloe_saxophone_totoro_clown_recadre.mp4</property>
    <property name="shotcut:skipConvert">1</property>
    <property name="global_feed">1</property>
    <property name="xml">was here</property>
    <filter id="filter1088" out="00:01:11.960000" in="00:01:04.000000">
      <property name="background">colour:0</property>
      <property name="mlt_service">affine</property>
      <property name="shotcut:filter">affineSizePosition</property>
      <property name="transition.fill">1</property>
      <property name="transition.distort">0</property>
      <property name="transition.rect">822.0 308.0 275.0 155.0 1</property>
      <property name="transition.valign">top</property>
      <property name="transition.halign">left</property>
      <property name="shotcut:animIn">00:00:01.400000</property>
      <property name="shotcut:animOut">00:00:00.000</property>
      <property name="transition.threads">0</property>
    </filter>
    <filter id="filter1089" out="00:01:11.960000" in="00:01:04.000000">
      <property name="window">75</property>
      <property name="max_gain">20dB</property>
      <property name="level">-15</property>
      <property name="mlt_service">volume</property>
    </filter>
  </producer>
  <producer id="producer638" title="Anonymous Submission" in="00:00:00.000" out="00:03:20.680">
    <property name="length">00:03:20:18</property>
    <property name="eof">pause</property>
    <property name="resource">../../006 - Videos format youtube/Saxophone/Chloe_saxophone_totoro_clown_recadre.mp4</property>
    <property name="audio_index">1</property>
    <property name="video_index">0</property>
    <property name="mute_on_pause">0</property>
    <property name="mlt_service">avformat-novalidate</property>
    <property name="seekable">1</property>
    <property name="aspect_ratio">1</property>
    <property name="creation_time">2020-04-12T15:45:35</property>
    <property name="shotcut:hash">93226b3e2e8f077ce38531a1c7650b73</property>
    <property name="ignore_points">0</property>
    <property name="shotcut:caption">Chloe_saxophone_totoro_clown_recadre.mp4</property>
    <property name="shotcut:skipConvert">1</property>
    <property name="global_feed">1</property>
    <property name="xml">was here</property>
    <filter id="filter1090" out="00:01:19.960000" in="00:01:12.000000">
      <property name="background">colour:0</property>
      <property name="mlt_service">affine</property>
      <property name="shotcut:filter">affineSizePosition</property>
      <property name="transition.fill">1</property>
      <property name="transition.distort">0</property>
      <property name="transition.rect">822.0 925.0 275.0 155.0 1</property>
      <property name="transition.valign">top</property>
      <property name="transition.halign">left</property>
      <property name="shotcut:animIn">00:00:01.400000</property>
      <property name="shotcut:animOut">00:00:00.000</property>
      <property name="transition.threads">0</property>
    </filter>
    <filter id="filter1091" out="00:01:19.960000" in="00:01:12.000000">
      <property name="window">75</property>
      <property name="max_gain">20dB</property>
      <property name="level">-15</property>
      <property name="mlt_service">volume</property>
    </filter>
  </producer>
  <producer id="producer639" title="Anonymous Submission" in="00:00:00.000" out="00:03:20.680">
    <property name="length">00:03:20:18</property>
    <property name="eof">pause</property>
    <property name="resource">../../006 - Videos format youtube/Saxophone/Chloe_saxophone_totoro_clown_recadre.mp4</property>
    <property name="audio_index">1</property>
    <property name="video_index">0</property>
    <property name="mute_on_pause">0</property>
    <property name="mlt_service">avformat-novalidate</property>
    <property name="seekable">1</property>
    <property name="aspect_ratio">1</property>
    <property name="creation_time">2020-04-12T15:45:35</property>
    <property name="shotcut:hash">93226b3e2e8f077ce38531a1c7650b73</property>
    <property name="ignore_points">0</property>
    <property name="shotcut:caption">Chloe_saxophone_totoro_clown_recadre.mp4</property>
    <property name="shotcut:skipConvert">1</property>
    <property name="global_feed">1</property>
    <property name="xml">was here</property>
    <filter id="filter1092" out="00:01:26.960000" in="00:01:20.000000">
      <property name="background">colour:0</property>
      <property name="mlt_service">affine</property>
      <property name="shotcut:filter">affineSizePosition</property>
      <property name="transition.fill">1</property>
      <property name="transition.distort">0</property>
      <property name="transition.rect">6240.0 0.0 321.0 181.0 1</property>
      <property name="transition.valign">top</property>
      <property name="transition.halign">left</property>
      <property name="shotcut:animIn">00:00:01.400000</property>
      <property name="shotcut:animOut">00:00:00.000</property>
      <property name="transition.threads">0</property>
    </filter>
    <filter id="filter1093" out="00:01:26.960000" in="00:01:20.000000">
      <property name="window">75</property>
      <property name="max_gain">20dB</property>
      <property name="level">-15</property>
      <property name="mlt_service">volume</property>
    </filter>
  </producer>
  <producer id="producer640" title="Anonymous Submission" in="00:00:00.000" out="00:03:20.680">
    <property name="length">00:03:20:18</property>
    <property name="eof">pause</property>
    <property name="resource">../../006 - Videos format youtube/Saxophone/Chloe_saxophone_totoro_clown_recadre.mp4</property>
    <property name="audio_index">1</property>
    <property name="video_index">0</property>
    <property name="mute_on_pause">0</property>
    <property name="mlt_service">avformat-novalidate</property>
    <property name="seekable">1</property>
    <property name="aspect_ratio">1</property>
    <property name="creation_time">2020-04-12T15:45:35</property>
    <property name="shotcut:hash">93226b3e2e8f077ce38531a1c7650b73</property>
    <property name="ignore_points">0</property>
    <property name="shotcut:caption">Chloe_saxophone_totoro_clown_recadre.mp4</property>
    <property name="shotcut:skipConvert">1</property>
    <property name="global_feed">1</property>
    <property name="xml">was here</property>
    <filter id="filter1094" out="00:01:34.960000" in="00:01:27.000000">
      <property name="background">colour:0</property>
      <property name="mlt_service">affine</property>
      <property name="shotcut:filter">affineSizePosition</property>
      <property name="transition.fill">1</property>
      <property name="transition.distort">0</property>
      <property name="transition.rect">1280.0 -540.0 321.0 181.0 1</property>
      <property name="transition.valign">top</property>
      <property name="transition.halign">left</property>
      <property name="shotcut:animIn">00:00:01.400000</property>
      <property name="shotcut:animOut">00:00:00.000</property>
      <property name="transition.threads">0</property>
    </filter>
    <filter id="filter1095" out="00:01:34.960000" in="00:01:27.000000">
      <property name="window">75</property>
      <property name="max_gain">20dB</property>
      <property name="level">-15</property>
      <property name="mlt_service">volume</property>
    </filter>
  </producer>
  <producer id="producer641" title="Anonymous Submission" in="00:00:00.000" out="00:03:20.680">
    <property name="length">00:03:20:18</property>
    <property name="eof">pause</property>
    <property name="resource">../../006 - Videos format youtube/Saxophone/Chloe_saxophone_totoro_clown_recadre.mp4</property>
    <property name="audio_index">1</property>
    <property name="video_index">0</property>
    <property name="mute_on_pause">0</property>
    <property name="mlt_service">avformat-novalidate</property>
    <property name="seekable">1</property>
    <property name="aspect_ratio">1</property>
    <property name="creation_time">2020-04-12T15:45:35</property>
    <property name="shotcut:hash">93226b3e2e8f077ce38531a1c7650b73</property>
    <property name="ignore_points">0</property>
    <property name="shotcut:caption">Chloe_saxophone_totoro_clown_recadre.mp4</property>
    <property name="shotcut:skipConvert">1</property>
    <property name="global_feed">1</property>
    <property name="xml">was here</property>
    <filter id="filter1096" out="00:01:43.960000" in="00:01:35.000000">
      <property name="background">colour:0</property>
      <property name="mlt_service">affine</property>
      <property name="shotcut:filter">affineSizePosition</property>
      <property name="transition.fill">1</property>
      <property name="transition.distort">0</property>
      <property name="transition.rect">0.0 308.0 275.0 155.0 1</property>
      <property name="transition.valign">top</property>
      <property name="transition.halign">left</property>
      <property name="shotcut:animIn">00:00:01.400000</property>
      <property name="shotcut:animOut">00:00:00.000</property>
      <property name="transition.threads">0</property>
    </filter>
    <filter id="filter1097" out="00:01:43.960000" in="00:01:35.000000">
      <property name="window">75</property>
      <property name="max_gain">20dB</property>
      <property name="level">-15</property>
      <property name="mlt_service">volume</property>
    </filter>
  </producer>
  <producer id="producer642" title="Anonymous Submission" in="00:00:00.000" out="00:03:20.680">
    <property name="length">00:03:20:18</property>
    <property name="eof">pause</property>
    <property name="resource">../../006 - Videos format youtube/Saxophone/Chloe_saxophone_totoro_clown_recadre.mp4</property>
    <property name="audio_index">1</property>
    <property name="video_index">0</property>
    <property name="mute_on_pause">0</property>
    <property name="mlt_service">avformat-novalidate</property>
    <property name="seekable">1</property>
    <property name="aspect_ratio">1</property>
    <property name="creation_time">2020-04-12T15:45:35</property>
    <property name="shotcut:hash">93226b3e2e8f077ce38531a1c7650b73</property>
    <property name="ignore_points">0</property>
    <property name="shotcut:caption">Chloe_saxophone_totoro_clown_recadre.mp4</property>
    <property name="shotcut:skipConvert">1</property>
    <property name="global_feed">1</property>
    <property name="xml">was here</property>
    <filter id="filter1098" out="00:01:50.960000" in="00:01:44.000000">
      <property name="background">colour:0</property>
      <property name="mlt_service">affine</property>
      <property name="shotcut:filter">affineSizePosition</property>
      <property name="transition.fill">1</property>
      <property name="transition.distort">0</property>
      <property name="transition.rect">1645.0 462.0 275.0 155.0 1</property>
      <property name="transition.valign">top</property>
      <property name="transition.halign">left</property>
      <property name="shotcut:animIn">00:00:01.400000</property>
      <property name="shotcut:animOut">00:00:00.000</property>
      <property name="transition.threads">0</property>
    </filter>
    <filter id="filter1099" out="00:01:50.960000" in="00:01:44.000000">
      <property name="window">75</property>
      <property name="max_gain">20dB</property>
      <property name="level">-15</property>
      <property name="mlt_service">volume</property>
    </filter>
  </producer>
  <producer id="producer643" title="Anonymous Submission" in="00:00:00.000" out="00:03:20.680">
    <property name="length">00:03:20:18</property>
    <property name="eof">pause</property>
    <property name="resource">../../006 - Videos format youtube/Saxophone/Chloe_saxophone_totoro_clown_recadre.mp4</property>
    <property name="audio_index">1</property>
    <property name="video_index">0</property>
    <property name="mute_on_pause">0</property>
    <property name="mlt_service">avformat-novalidate</property>
    <property name="seekable">1</property>
    <property name="aspect_ratio">1</property>
    <property name="creation_time">2020-04-12T15:45:35</property>
    <property name="shotcut:hash">93226b3e2e8f077ce38531a1c7650b73</property>
    <property name="ignore_points">0</property>
    <property name="shotcut:caption">Chloe_saxophone_totoro_clown_recadre.mp4</property>
    <property name="shotcut:skipConvert">1</property>
    <property name="global_feed">1</property>
    <property name="xml">was here</property>
    <filter id="filter1100" out="00:03:20.680" in="00:01:51.000000">
      <property name="background">colour:0</property>
      <property name="mlt_service">affine</property>
      <property name="shotcut:filter">affineSizePosition</property>
      <property name="transition.fill">1</property>
      <property name="transition.distort">0</property>
      <property name="transition.rect">1280.0 720.0 641.0 361.0 1</property>
      <property name="transition.valign">top</property>
      <property name="transition.halign">left</property>
      <property name="shotcut:animIn">00:00:01.400000</property>
      <property name="shotcut:animOut">00:00:00.000</property>
      <property name="transition.threads">0</property>
    </filter>
    <filter id="filter1101" out="00:03:20.680" in="00:01:51.000000">
      <property name="window">75</property>
      <property name="max_gain">20dB</property>
      <property name="level">-15</property>
      <property name="mlt_service">volume</property>
    </filter>
  </producer>
  <playlist id="playlist34">
    <property name="shotcut:video">1</property>
    <property name="shotcut:name">Chloe recadre</property>
    <property name="shotcut:lock">1</property>
    <entry producer="producer621" in="00:00:00.000" out="00:00:22.960000" />
  <entry producer="producer622" in="00:00:23.000000" out="00:00:29.960000" />
  <entry producer="producer623" in="00:00:30.000000" out="00:00:31.360000" />
  <entry producer="producer624" in="00:00:31.400000" out="00:00:32.800000" />
  <entry producer="producer625" in="00:00:32.840000" out="00:00:34.240000" />
  <entry producer="producer626" in="00:00:34.280000" out="00:00:35.640000" />
  <entry producer="producer627" in="00:00:35.680000" out="00:00:37.080000" />
  <entry producer="producer628" in="00:00:37.120000" out="00:00:38.520000" />
  <entry producer="producer629" in="00:00:38.560000" out="00:00:39.960000" />
  <entry producer="producer630" in="00:00:40.000000" out="00:00:41.360000" />
  <entry producer="producer631" in="00:00:41.400000" out="00:00:42.800000" />
  <entry producer="producer632" in="00:00:42.840000" out="00:00:44.240000" />
  <entry producer="producer633" in="00:00:44.280000" out="00:00:45.640000" />
  <entry producer="producer634" in="00:00:45.680000" out="00:00:47.080000" />
  <entry producer="producer635" in="00:00:47.120000" out="00:00:48.520000" />
  <entry producer="producer636" in="00:00:48.560000" out="00:01:03.960000" />
  <entry producer="producer637" in="00:01:04.000000" out="00:01:11.960000" />
  <entry producer="producer638" in="00:01:12.000000" out="00:01:19.960000" />
  <entry producer="producer639" in="00:01:20.000000" out="00:01:26.960000" />
  <entry producer="producer640" in="00:01:27.000000" out="00:01:34.960000" />
  <entry producer="producer641" in="00:01:35.000000" out="00:01:43.960000" />
  <entry producer="producer642" in="00:01:44.000000" out="00:01:50.960000" />
  <entry producer="producer643" in="00:01:51.000000" out="00:03:20.680" />
  </playlist>
  <producer id="producer644" title="Anonymous Submission" in="00:00:00.000" out="00:03:16.680">
    <property name="length">00:03:16:18</property>
    <property name="eof">pause</property>
    <property name="resource">../../006 - Videos format youtube/Trombone/Camille_trombone_totoro.mp4</property>
    <property name="audio_index">1</property>
    <property name="video_index">0</property>
    <property name="mute_on_pause">0</property>
    <property name="mlt_service">avformat-novalidate</property>
    <property name="seekable">1</property>
    <property name="aspect_ratio">1</property>
    <property name="creation_time">2020-04-09T17:56:38</property>
    <property name="shotcut:hash">6322ebba469dd48f4d62f48f0e58e722</property>
    <property name="ignore_points">0</property>
    <property name="shotcut:caption">Camille_trombone_totoro.mp4</property>
    <property name="shotcut:skipConvert">1</property>
    <property name="global_feed">1</property>
    <property name="xml">was here</property>
    <filter id="filter1102" out="00:00:13.920000">
      <property name="background">colour:0</property>
      <property name="mlt_service">affine</property>
      <property name="shotcut:filter">affineSizePosition</property>
      <property name="transition.fill">1</property>
      <property name="transition.distort">0</property>
      <property name="transition.rect">1645.0 771.0 275.0 155.0 1</property>
      <property name="transition.valign">top</property>
      <property name="transition.halign">left</property>
      <property name="shotcut:animIn">00:00:00.000</property>
      <property name="shotcut:animOut">00:00:00.000</property>
      <property name="transition.threads">0</property>
    </filter>
    <filter id="filter1103" out="00:00:13.920000">
      <property name="window">75</property>
      <property name="max_gain">20dB</property>
      <property name="mlt_service">volume</property>
      <property name="shotcut:filter">muteVolume</property>
      <property name="gain">0</property>
    </filter>
  </producer>
  <producer id="producer645" title="Anonymous Submission" in="00:00:00.000" out="00:03:16.680">
    <property name="length">00:03:16:18</property>
    <property name="eof">pause</property>
    <property name="resource">../../006 - Videos format youtube/Trombone/Camille_trombone_totoro.mp4</property>
    <property name="audio_index">1</property>
    <property name="video_index">0</property>
    <property name="mute_on_pause">0</property>
    <property name="mlt_service">avformat-novalidate</property>
    <property name="seekable">1</property>
    <property name="aspect_ratio">1</property>
    <property name="creation_time">2020-04-09T17:56:38</property>
    <property name="shotcut:hash">6322ebba469dd48f4d62f48f0e58e722</property>
    <property name="ignore_points">0</property>
    <property name="shotcut:caption">Camille_trombone_totoro.mp4</property>
    <property name="shotcut:skipConvert">1</property>
    <property name="global_feed">1</property>
    <property name="xml">was here</property>
    <filter id="filter1104" out="00:00:20.920000" in="00:00:13.960000">
      <property name="background">colour:0</property>
      <property name="mlt_service">affine</property>
      <property name="shotcut:filter">affineSizePosition</property>
      <property name="transition.fill">1</property>
      <property name="transition.distort">0</property>
      <property name="transition.rect">00:00:00.000000=1645.0 771.0 276.0 155.0 1;00:00:00.440000=274.0 0.0 275.0 155.0 1</property>
      <property name="transition.valign">top</property>
      <property name="transition.halign">left</property>
      <property name="shotcut:animIn">00:00:00.480000</property>
      <property name="shotcut:animOut">00:00:00.000</property>
      <property name="transition.threads">0</property>
    </filter>
    <filter id="filter1105" out="00:00:20.920000" in="00:00:13.960000">
      <property name="window">75</property>
      <property name="max_gain">20dB</property>
      <property name="mlt_service">volume</property>
      <property name="shotcut:filter">muteVolume</property>
      <property name="gain">0</property>
    </filter>
  </producer>
  <producer id="producer646" title="Anonymous Submission" in="00:00:00.000" out="00:03:16.680">
    <property name="length">00:03:16:18</property>
    <property name="eof">pause</property>
    <property name="resource">../../006 - Videos format youtube/Trombone/Camille_trombone_totoro.mp4</property>
    <property name="audio_index">1</property>
    <property name="video_index">0</property>
    <property name="mute_on_pause">0</property>
    <property name="mlt_service">avformat-novalidate</property>
    <property name="seekable">1</property>
    <property name="aspect_ratio">1</property>
    <property name="creation_time">2020-04-09T17:56:38</property>
    <property name="shotcut:hash">6322ebba469dd48f4d62f48f0e58e722</property>
    <property name="ignore_points">0</property>
    <property name="shotcut:caption">Camille_trombone_totoro.mp4</property>
    <property name="shotcut:skipConvert">1</property>
    <property name="global_feed">1</property>
    <property name="xml">was here</property>
    <filter id="filter1106" out="00:00:54.920000" in="00:00:20.960000">
      <property name="background">colour:0</property>
      <property name="mlt_service">affine</property>
      <property name="shotcut:filter">affineSizePosition</property>
      <property name="transition.fill">1</property>
      <property name="transition.distort">0</property>
      <property name="transition.rect">0.0 135.0 241.0 136.0 1</property>
      <property name="transition.valign">top</property>
      <property name="transition.halign">left</property>
      <property name="shotcut:animIn">00:00:00.480000</property>
      <property name="shotcut:animOut">00:00:00.000</property>
      <property name="transition.threads">0</property>
    </filter>
    <filter id="filter1107" out="00:00:54.920000" in="00:00:20.960000">
      <property name="window">75</property>
      <property name="max_gain">20dB</property>
      <property name="mlt_service">volume</property>
      <property name="shotcut:filter">muteVolume</property>
      <property name="gain">0</property>
    </filter>
  </producer>
  <producer id="producer647" title="Anonymous Submission" in="00:00:00.000" out="00:03:16.680">
    <property name="length">00:03:16:18</property>
    <property name="eof">pause</property>
    <property name="resource">../../006 - Videos format youtube/Trombone/Camille_trombone_totoro.mp4</property>
    <property name="audio_index">1</property>
    <property name="video_index">0</property>
    <property name="mute_on_pause">0</property>
    <property name="mlt_service">avformat-novalidate</property>
    <property name="seekable">1</property>
    <property name="aspect_ratio">1</property>
    <property name="creation_time">2020-04-09T17:56:38</property>
    <property name="shotcut:hash">6322ebba469dd48f4d62f48f0e58e722</property>
    <property name="ignore_points">0</property>
    <property name="shotcut:caption">Camille_trombone_totoro.mp4</property>
    <property name="shotcut:skipConvert">1</property>
    <property name="global_feed">1</property>
    <property name="xml">was here</property>
    <filter id="filter1108" out="00:01:02.920000" in="00:00:54.960000">
      <property name="background">colour:0</property>
      <property name="mlt_service">affine</property>
      <property name="shotcut:filter">affineSizePosition</property>
      <property name="transition.fill">1</property>
      <property name="transition.distort">0</property>
      <property name="transition.rect">1645.0 771.0 275.0 155.0 1</property>
      <property name="transition.valign">top</property>
      <property name="transition.halign">left</property>
      <property name="shotcut:animIn">00:00:00.480000</property>
      <property name="shotcut:animOut">00:00:00.000</property>
      <property name="transition.threads">0</property>
    </filter>
    <filter id="filter1109" out="00:01:02.920000" in="00:00:54.960000">
      <property name="window">75</property>
      <property name="max_gain">20dB</property>
      <property name="mlt_service">volume</property>
      <property name="shotcut:filter">muteVolume</property>
      <property name="gain">0</property>
    </filter>
  </producer>
  <producer id="producer648" title="Anonymous Submission" in="00:00:00.000" out="00:03:16.680">
    <property name="length">00:03:16:18</property>
    <property name="eof">pause</property>
    <property name="resource">../../006 - Videos format youtube/Trombone/Camille_trombone_totoro.mp4</property>
    <property name="audio_index">1</property>
    <property name="video_index">0</property>
    <property name="mute_on_pause">0</property>
    <property name="mlt_service">avformat-novalidate</property>
    <property name="seekable">1</property>
    <property name="aspect_ratio">1</property>
    <property name="creation_time">2020-04-09T17:56:38</property>
    <property name="shotcut:hash">6322ebba469dd48f4d62f48f0e58e722</property>
    <property name="ignore_points">0</property>
    <property name="shotcut:caption">Camille_trombone_totoro.mp4</property>
    <property name="shotcut:skipConvert">1</property>
    <property name="global_feed">1</property>
    <property name="xml">was here</property>
    <filter id="filter1110" out="00:01:10.920000" in="00:01:02.960000">
      <property name="background">colour:0</property>
      <property name="mlt_service">affine</property>
      <property name="shotcut:filter">affineSizePosition</property>
      <property name="transition.fill">1</property>
      <property name="transition.distort">0</property>
      <property name="transition.rect">-1645.0 -925.0 275.0 155.0 1</property>
      <property name="transition.valign">top</property>
      <property name="transition.halign">left</property>
      <property name="shotcut:animIn">00:00:00.480000</property>
      <property name="shotcut:animOut">00:00:00.000</property>
      <property name="transition.threads">0</property>
    </filter>
    <filter id="filter1111" out="00:01:10.920000" in="00:01:02.960000">
      <property name="window">75</property>
      <property name="max_gain">20dB</property>
      <property name="mlt_service">volume</property>
      <property name="shotcut:filter">muteVolume</property>
      <property name="gain">0</property>
    </filter>
  </producer>
  <producer id="producer649" title="Anonymous Submission" in="00:00:00.000" out="00:03:16.680">
    <property name="length">00:03:16:18</property>
    <property name="eof">pause</property>
    <property name="resource">../../006 - Videos format youtube/Trombone/Camille_trombone_totoro.mp4</property>
    <property name="audio_index">1</property>
    <property name="video_index">0</property>
    <property name="mute_on_pause">0</property>
    <property name="mlt_service">avformat-novalidate</property>
    <property name="seekable">1</property>
    <property name="aspect_ratio">1</property>
    <property name="creation_time">2020-04-09T17:56:38</property>
    <property name="shotcut:hash">6322ebba469dd48f4d62f48f0e58e722</property>
    <property name="ignore_points">0</property>
    <property name="shotcut:caption">Camille_trombone_totoro.mp4</property>
    <property name="shotcut:skipConvert">1</property>
    <property name="global_feed">1</property>
    <property name="xml">was here</property>
    <filter id="filter1112" out="00:01:17.920000" in="00:01:10.960000">
      <property name="background">colour:0</property>
      <property name="mlt_service">affine</property>
      <property name="shotcut:filter">affineSizePosition</property>
      <property name="transition.fill">1</property>
      <property name="transition.distort">0</property>
      <property name="transition.rect">0.0 0.0 961.0 541.0 1</property>
      <property name="transition.valign">top</property>
      <property name="transition.halign">left</property>
      <property name="shotcut:animIn">00:00:00.480000</property>
      <property name="shotcut:animOut">00:00:00.000</property>
      <property name="transition.threads">0</property>
    </filter>
    <filter id="filter1113" out="00:01:17.920000" in="00:01:10.960000">
      <property name="window">75</property>
      <property name="max_gain">20dB</property>
      <property name="mlt_service">volume</property>
      <property name="shotcut:filter">muteVolume</property>
      <property name="gain">0</property>
    </filter>
  </producer>
  <producer id="producer650" title="Anonymous Submission" in="00:00:00.000" out="00:03:16.680">
    <property name="length">00:03:16:18</property>
    <property name="eof">pause</property>
    <property name="resource">../../006 - Videos format youtube/Trombone/Camille_trombone_totoro.mp4</property>
    <property name="audio_index">1</property>
    <property name="video_index">0</property>
    <property name="mute_on_pause">0</property>
    <property name="mlt_service">avformat-novalidate</property>
    <property name="seekable">1</property>
    <property name="aspect_ratio">1</property>
    <property name="creation_time">2020-04-09T17:56:38</property>
    <property name="shotcut:hash">6322ebba469dd48f4d62f48f0e58e722</property>
    <property name="ignore_points">0</property>
    <property name="shotcut:caption">Camille_trombone_totoro.mp4</property>
    <property name="shotcut:skipConvert">1</property>
    <property name="global_feed">1</property>
    <property name="xml">was here</property>
    <filter id="filter1114" out="00:01:25.920000" in="00:01:17.960000">
      <property name="background">colour:0</property>
      <property name="mlt_service">affine</property>
      <property name="shotcut:filter">affineSizePosition</property>
      <property name="transition.fill">1</property>
      <property name="transition.distort">0</property>
      <property name="transition.rect">0.0 180.0 321.0 181.0 1</property>
      <property name="transition.valign">top</property>
      <property name="transition.halign">left</property>
      <property name="shotcut:animIn">00:00:00.480000</property>
      <property name="shotcut:animOut">00:00:00.000</property>
      <property name="transition.threads">0</property>
    </filter>
    <filter id="filter1115" out="00:01:25.920000" in="00:01:17.960000">
      <property name="window">75</property>
      <property name="max_gain">20dB</property>
      <property name="mlt_service">volume</property>
      <property name="shotcut:filter">muteVolume</property>
      <property name="gain">0</property>
    </filter>
  </producer>
  <producer id="producer651" title="Anonymous Submission" in="00:00:00.000" out="00:03:16.680">
    <property name="length">00:03:16:18</property>
    <property name="eof">pause</property>
    <property name="resource">../../006 - Videos format youtube/Trombone/Camille_trombone_totoro.mp4</property>
    <property name="audio_index">1</property>
    <property name="video_index">0</property>
    <property name="mute_on_pause">0</property>
    <property name="mlt_service">avformat-novalidate</property>
    <property name="seekable">1</property>
    <property name="aspect_ratio">1</property>
    <property name="creation_time">2020-04-09T17:56:38</property>
    <property name="shotcut:hash">6322ebba469dd48f4d62f48f0e58e722</property>
    <property name="ignore_points">0</property>
    <property name="shotcut:caption">Camille_trombone_totoro.mp4</property>
    <property name="shotcut:skipConvert">1</property>
    <property name="global_feed">1</property>
    <property name="xml">was here</property>
    <filter id="filter1116" out="00:01:34.920000" in="00:01:25.960000">
      <property name="background">colour:0</property>
      <property name="mlt_service">affine</property>
      <property name="shotcut:filter">affineSizePosition</property>
      <property name="transition.fill">1</property>
      <property name="transition.distort">0</property>
      <property name="transition.rect">274.0 0.0 275.0 155.0 1</property>
      <property name="transition.valign">top</property>
      <property name="transition.halign">left</property>
      <property name="shotcut:animIn">00:00:00.480000</property>
      <property name="shotcut:animOut">00:00:00.000</property>
      <property name="transition.threads">0</property>
    </filter>
    <filter id="filter1117" out="00:01:34.920000" in="00:01:25.960000">
      <property name="window">75</property>
      <property name="max_gain">20dB</property>
      <property name="mlt_service">volume</property>
      <property name="shotcut:filter">muteVolume</property>
      <property name="gain">0</property>
    </filter>
  </producer>
  <producer id="producer652" title="Anonymous Submission" in="00:00:00.000" out="00:03:16.680">
    <property name="length">00:03:16:18</property>
    <property name="eof">pause</property>
    <property name="resource">../../006 - Videos format youtube/Trombone/Camille_trombone_totoro.mp4</property>
    <property name="audio_index">1</property>
    <property name="video_index">0</property>
    <property name="mute_on_pause">0</property>
    <property name="mlt_service">avformat-novalidate</property>
    <property name="seekable">1</property>
    <property name="aspect_ratio">1</property>
    <property name="creation_time">2020-04-09T17:56:38</property>
    <property name="shotcut:hash">6322ebba469dd48f4d62f48f0e58e722</property>
    <property name="ignore_points">0</property>
    <property name="shotcut:caption">Camille_trombone_totoro.mp4</property>
    <property name="shotcut:skipConvert">1</property>
    <property name="global_feed">1</property>
    <property name="xml">was here</property>
    <filter id="filter1118" out="00:01:41.920000" in="00:01:34.960000">
      <property name="background">colour:0</property>
      <property name="mlt_service">affine</property>
      <property name="shotcut:filter">affineSizePosition</property>
      <property name="transition.fill">1</property>
      <property name="transition.distort">0</property>
      <property name="transition.rect">1645.0 771.0 275.0 155.0 1</property>
      <property name="transition.valign">top</property>
      <property name="transition.halign">left</property>
      <property name="shotcut:animIn">00:00:00.480000</property>
      <property name="shotcut:animOut">00:00:00.000</property>
      <property name="transition.threads">0</property>
    </filter>
    <filter id="filter1119" out="00:01:41.920000" in="00:01:34.960000">
      <property name="window">75</property>
      <property name="max_gain">20dB</property>
      <property name="mlt_service">volume</property>
      <property name="shotcut:filter">muteVolume</property>
      <property name="gain">0</property>
    </filter>
  </producer>
  <producer id="producer653" title="Anonymous Submission" in="00:00:00.000" out="00:03:16.680">
    <property name="length">00:03:16:18</property>
    <property name="eof">pause</property>
    <property name="resource">../../006 - Videos format youtube/Trombone/Camille_trombone_totoro.mp4</property>
    <property name="audio_index">1</property>
    <property name="video_index">0</property>
    <property name="mute_on_pause">0</property>
    <property name="mlt_service">avformat-novalidate</property>
    <property name="seekable">1</property>
    <property name="aspect_ratio">1</property>
    <property name="creation_time">2020-04-09T17:56:38</property>
    <property name="shotcut:hash">6322ebba469dd48f4d62f48f0e58e722</property>
    <property name="ignore_points">0</property>
    <property name="shotcut:caption">Camille_trombone_totoro.mp4</property>
    <property name="shotcut:skipConvert">1</property>
    <property name="global_feed">1</property>
    <property name="xml">was here</property>
    <filter id="filter1120" out="00:03:16.680000" in="00:01:41.960000">
      <property name="background">colour:0</property>
      <property name="mlt_service">affine</property>
      <property name="shotcut:filter">affineSizePosition</property>
      <property name="transition.fill">1</property>
      <property name="transition.distort">0</property>
      <property name="transition.rect">-640.0 -360.0 321.0 181.0 1</property>
      <property name="transition.valign">top</property>
      <property name="transition.halign">left</property>
      <property name="shotcut:animIn">00:00:00.480000</property>
      <property name="shotcut:animOut">00:00:00.000</property>
      <property name="transition.threads">0</property>
    </filter>
    <filter id="filter1121" out="00:03:16.680000" in="00:01:41.960000">
      <property name="window">75</property>
      <property name="max_gain">20dB</property>
      <property name="mlt_service">volume</property>
      <property name="shotcut:filter">muteVolume</property>
      <property name="gain">0</property>
    </filter>
  </producer>
  <playlist id="playlist35">
    <property name="shotcut:video">1</property>
    <property name="shotcut:name">Camille_trombone</property>
    <property name="shotcut:lock">1</property>
    <blank length="00:00:09.040" />
    <entry producer="producer644" in="00:00:00.000" out="00:00:13.920000" />
    <entry producer="producer645" in="00:00:13.960000" out="00:00:20.920000" />
    <entry producer="producer646" in="00:00:20.960000" out="00:00:54.920000" />
    <entry producer="producer647" in="00:00:54.960000" out="00:01:02.920000" />
    <entry producer="producer648" in="00:01:02.960000" out="00:01:10.920000" />
    <entry producer="producer649" in="00:01:10.960000" out="00:01:17.920000" />
    <entry producer="producer650" in="00:01:17.960000" out="00:01:25.920000" />
    <entry producer="producer651" in="00:01:25.960000" out="00:01:34.920000" />
    <entry producer="producer652" in="00:01:34.960000" out="00:01:41.920000" />
    <entry producer="producer653" in="00:01:41.960000" out="00:03:16.680000" />
    <filter id="filter1122" out="00:03:25.720">
      <property name="window">75</property>
      <property name="max_gain">20dB</property>
      <property name="level">-10</property>
      <property name="mlt_service">volume</property>
    </filter>
  </playlist>
  <producer id="producer654" title="Anonymous Submission" in="00:00:00.000" out="00:03:39.200">
    <property name="length">00:03:39:06</property>
    <property name="eof">pause</property>
    <property name="resource">../../006 - Videos format youtube/Trombone/daniel_trombone_totoro.mp4</property>
    <property name="audio_index">1</property>
    <property name="video_index">0</property>
    <property name="mute_on_pause">0</property>
    <property name="mlt_service">avformat-novalidate</property>
    <property name="seekable">1</property>
    <property name="aspect_ratio">1</property>
    <property name="shotcut:hash">a1664e01b7aa5838d73b735214bc61f9</property>
    <property name="ignore_points">0</property>
    <property name="shotcut:caption">daniel_trombone_totoro.mp4</property>
    <property name="shotcut:skipConvert">1</property>
    <property name="global_feed">1</property>
    <property name="xml">was here</property>
    <filter id="filter1123" in="00:00:26.360" out="00:00:41.560000">
      <property name="background">colour:0</property>
      <property name="mlt_service">affine</property>
      <property name="shotcut:filter">affineRotate</property>
      <property name="transition.fix_rotate_x">0</property>
      <property name="transition.scale_x">0.416667</property>
      <property name="transition.ox">0</property>
      <property name="transition.oy">0</property>
      <property name="transition.threads">0</property>
      <property name="transition.scale_y">0.416667</property>
    </filter>
    <filter id="filter1124" in="00:00:26.360" out="00:00:41.560000">
      <property name="background">colour:0</property>
      <property name="mlt_service">affine</property>
      <property name="shotcut:filter">affineSizePosition</property>
      <property name="transition.fill">1</property>
      <property name="transition.distort">0</property>
      <property name="transition.rect">274.0 0.0 275.0 155.0 1</property>
      <property name="transition.valign">top</property>
      <property name="transition.halign">left</property>
      <property name="shotcut:animIn">00:00:00.000</property>
      <property name="shotcut:animOut">00:00:00.000</property>
      <property name="transition.threads">0</property>
    </filter>
    <filter id="filter1125" in="00:00:26.360" out="00:00:41.560000">
      <property name="window">75</property>
      <property name="max_gain">20dB</property>
      <property name="mlt_service">volume</property>
      <property name="shotcut:filter">muteVolume</property>
      <property name="gain">0</property>
    </filter>
  </producer>
  <producer id="producer655" title="Anonymous Submission" in="00:00:00.000" out="00:03:39.200">
    <property name="length">00:03:39:06</property>
    <property name="eof">pause</property>
    <property name="resource">../../006 - Videos format youtube/Trombone/daniel_trombone_totoro.mp4</property>
    <property name="audio_index">1</property>
    <property name="video_index">0</property>
    <property name="mute_on_pause">0</property>
    <property name="mlt_service">avformat-novalidate</property>
    <property name="seekable">1</property>
    <property name="aspect_ratio">1</property>
    <property name="shotcut:hash">a1664e01b7aa5838d73b735214bc61f9</property>
    <property name="ignore_points">0</property>
    <property name="shotcut:caption">daniel_trombone_totoro.mp4</property>
    <property name="shotcut:skipConvert">1</property>
    <property name="global_feed">1</property>
    <property name="xml">was here</property>
    <filter id="filter1126" in="00:00:41.600000" out="00:00:48.560000">
      <property name="background">colour:0</property>
      <property name="mlt_service">affine</property>
      <property name="shotcut:filter">affineRotate</property>
      <property name="transition.fix_rotate_x">0</property>
      <property name="transition.scale_x">0.416667</property>
      <property name="transition.ox">0</property>
      <property name="transition.oy">0</property>
      <property name="transition.threads">0</property>
      <property name="transition.scale_y">0.416667</property>
    </filter>
    <filter id="filter1127" in="00:00:41.600000" out="00:00:48.560000">
      <property name="background">colour:0</property>
      <property name="mlt_service">affine</property>
      <property name="shotcut:filter">affineSizePosition</property>
      <property name="transition.fill">1</property>
      <property name="transition.distort">0</property>
      <property name="transition.rect">00:00:00.000000=274.0 0.0 276.0 155.0 1;00:00:00.440000=1645.0 771.0 275.0 155.0 1</property>
      <property name="transition.valign">top</property>
      <property name="transition.halign">left</property>
      <property name="shotcut:animIn">00:00:00.480000</property>
      <property name="shotcut:animOut">00:00:00.000</property>
      <property name="transition.threads">0</property>
    </filter>
    <filter id="filter1128" in="00:00:41.600000" out="00:00:48.560000">
      <property name="window">75</property>
      <property name="max_gain">20dB</property>
      <property name="mlt_service">volume</property>
      <property name="shotcut:filter">muteVolume</property>
      <property name="gain">0</property>
    </filter>
  </producer>
  <producer id="producer656" title="Anonymous Submission" in="00:00:00.000" out="00:03:39.200">
    <property name="length">00:03:39:06</property>
    <property name="eof">pause</property>
    <property name="resource">../../006 - Videos format youtube/Trombone/daniel_trombone_totoro.mp4</property>
    <property name="audio_index">1</property>
    <property name="video_index">0</property>
    <property name="mute_on_pause">0</property>
    <property name="mlt_service">avformat-novalidate</property>
    <property name="seekable">1</property>
    <property name="aspect_ratio">1</property>
    <property name="shotcut:hash">a1664e01b7aa5838d73b735214bc61f9</property>
    <property name="ignore_points">0</property>
    <property name="shotcut:caption">daniel_trombone_totoro.mp4</property>
    <property name="shotcut:skipConvert">1</property>
    <property name="global_feed">1</property>
    <property name="xml">was here</property>
    <filter id="filter1129" in="00:00:48.600000" out="00:01:22.560000">
      <property name="background">colour:0</property>
      <property name="mlt_service">affine</property>
      <property name="shotcut:filter">affineRotate</property>
      <property name="transition.fix_rotate_x">0</property>
      <property name="transition.scale_x">0.416667</property>
      <property name="transition.ox">0</property>
      <property name="transition.oy">0</property>
      <property name="transition.threads">0</property>
      <property name="transition.scale_y">0.416667</property>
    </filter>
    <filter id="filter1130" in="00:00:48.600000" out="00:01:22.560000">
      <property name="background">colour:0</property>
      <property name="mlt_service">affine</property>
      <property name="shotcut:filter">affineSizePosition</property>
      <property name="transition.fill">1</property>
      <property name="transition.distort">0</property>
      <property name="transition.rect">0.0 405.0 241.0 136.0 1</property>
      <property name="transition.valign">top</property>
      <property name="transition.halign">left</property>
      <property name="shotcut:animIn">00:00:00.480000</property>
      <property name="shotcut:animOut">00:00:00.000</property>
      <property name="transition.threads">0</property>
    </filter>
    <filter id="filter1131" in="00:00:48.600000" out="00:01:22.560000">
      <property name="window">75</property>
      <property name="max_gain">20dB</property>
      <property name="mlt_service">volume</property>
      <property name="shotcut:filter">muteVolume</property>
      <property name="gain">0</property>
    </filter>
  </producer>
  <producer id="producer657" title="Anonymous Submission" in="00:00:00.000" out="00:03:39.200">
    <property name="length">00:03:39:06</property>
    <property name="eof">pause</property>
    <property name="resource">../../006 - Videos format youtube/Trombone/daniel_trombone_totoro.mp4</property>
    <property name="audio_index">1</property>
    <property name="video_index">0</property>
    <property name="mute_on_pause">0</property>
    <property name="mlt_service">avformat-novalidate</property>
    <property name="seekable">1</property>
    <property name="aspect_ratio">1</property>
    <property name="shotcut:hash">a1664e01b7aa5838d73b735214bc61f9</property>
    <property name="ignore_points">0</property>
    <property name="shotcut:caption">daniel_trombone_totoro.mp4</property>
    <property name="shotcut:skipConvert">1</property>
    <property name="global_feed">1</property>
    <property name="xml">was here</property>
    <filter id="filter1132" in="00:01:22.600000" out="00:01:30.560000">
      <property name="background">colour:0</property>
      <property name="mlt_service">affine</property>
      <property name="shotcut:filter">affineRotate</property>
      <property name="transition.fix_rotate_x">0</property>
      <property name="transition.scale_x">0.416667</property>
      <property name="transition.ox">0</property>
      <property name="transition.oy">0</property>
      <property name="transition.threads">0</property>
      <property name="transition.scale_y">0.416667</property>
    </filter>
    <filter id="filter1133" in="00:01:22.600000" out="00:01:30.560000">
      <property name="background">colour:0</property>
      <property name="mlt_service">affine</property>
      <property name="shotcut:filter">affineSizePosition</property>
      <property name="transition.fill">1</property>
      <property name="transition.distort">0</property>
      <property name="transition.rect">0.0 0.0 823.0 463.0 1</property>
      <property name="transition.valign">top</property>
      <property name="transition.halign">left</property>
      <property name="shotcut:animIn">00:00:00.480000</property>
      <property name="shotcut:animOut">00:00:00.000</property>
      <property name="transition.threads">0</property>
    </filter>
    <filter id="filter1134" in="00:01:22.600000" out="00:01:30.560000">
      <property name="window">75</property>
      <property name="max_gain">20dB</property>
      <property name="mlt_service">volume</property>
      <property name="shotcut:filter">muteVolume</property>
      <property name="gain">0</property>
    </filter>
  </producer>
  <producer id="producer658" title="Anonymous Submission" in="00:00:00.000" out="00:03:39.200">
    <property name="length">00:03:39:06</property>
    <property name="eof">pause</property>
    <property name="resource">../../006 - Videos format youtube/Trombone/daniel_trombone_totoro.mp4</property>
    <property name="audio_index">1</property>
    <property name="video_index">0</property>
    <property name="mute_on_pause">0</property>
    <property name="mlt_service">avformat-novalidate</property>
    <property name="seekable">1</property>
    <property name="aspect_ratio">1</property>
    <property name="shotcut:hash">a1664e01b7aa5838d73b735214bc61f9</property>
    <property name="ignore_points">0</property>
    <property name="shotcut:caption">daniel_trombone_totoro.mp4</property>
    <property name="shotcut:skipConvert">1</property>
    <property name="global_feed">1</property>
    <property name="xml">was here</property>
    <filter id="filter1135" in="00:01:30.600000" out="00:01:38.560000">
      <property name="background">colour:0</property>
      <property name="mlt_service">affine</property>
      <property name="shotcut:filter">affineRotate</property>
      <property name="transition.fix_rotate_x">0</property>
      <property name="transition.scale_x">0.416667</property>
      <property name="transition.ox">0</property>
      <property name="transition.oy">0</property>
      <property name="transition.threads">0</property>
      <property name="transition.scale_y">0.416667</property>
    </filter>
    <filter id="filter1136" in="00:01:30.600000" out="00:01:38.560000">
      <property name="background">colour:0</property>
      <property name="mlt_service">affine</property>
      <property name="shotcut:filter">affineSizePosition</property>
      <property name="transition.fill">1</property>
      <property name="transition.distort">0</property>
      <property name="transition.rect">-548.0 -308.0 275.0 155.0 1</property>
      <property name="transition.valign">top</property>
      <property name="transition.halign">left</property>
      <property name="shotcut:animIn">00:00:00.480000</property>
      <property name="shotcut:animOut">00:00:00.000</property>
      <property name="transition.threads">0</property>
    </filter>
    <filter id="filter1137" in="00:01:30.600000" out="00:01:38.560000">
      <property name="window">75</property>
      <property name="max_gain">20dB</property>
      <property name="mlt_service">volume</property>
      <property name="shotcut:filter">muteVolume</property>
      <property name="gain">0</property>
    </filter>
  </producer>
  <producer id="producer659" title="Anonymous Submission" in="00:00:00.000" out="00:03:39.200">
    <property name="length">00:03:39:06</property>
    <property name="eof">pause</property>
    <property name="resource">../../006 - Videos format youtube/Trombone/daniel_trombone_totoro.mp4</property>
    <property name="audio_index">1</property>
    <property name="video_index">0</property>
    <property name="mute_on_pause">0</property>
    <property name="mlt_service">avformat-novalidate</property>
    <property name="seekable">1</property>
    <property name="aspect_ratio">1</property>
    <property name="shotcut:hash">a1664e01b7aa5838d73b735214bc61f9</property>
    <property name="ignore_points">0</property>
    <property name="shotcut:caption">daniel_trombone_totoro.mp4</property>
    <property name="shotcut:skipConvert">1</property>
    <property name="global_feed">1</property>
    <property name="xml">was here</property>
    <filter id="filter1138" in="00:01:38.600000" out="00:01:45.560000">
      <property name="background">colour:0</property>
      <property name="mlt_service">affine</property>
      <property name="shotcut:filter">affineRotate</property>
      <property name="transition.fix_rotate_x">0</property>
      <property name="transition.scale_x">0.416667</property>
      <property name="transition.ox">0</property>
      <property name="transition.oy">0</property>
      <property name="transition.threads">0</property>
      <property name="transition.scale_y">0.416667</property>
    </filter>
    <filter id="filter1139" in="00:01:38.600000" out="00:01:45.560000">
      <property name="background">colour:0</property>
      <property name="mlt_service">affine</property>
      <property name="shotcut:filter">affineSizePosition</property>
      <property name="transition.fill">1</property>
      <property name="transition.distort">0</property>
      <property name="transition.rect">-1440.0 0.0 321.0 181.0 1</property>
      <property name="transition.valign">top</property>
      <property name="transition.halign">left</property>
      <property name="shotcut:animIn">00:00:00.480000</property>
      <property name="shotcut:animOut">00:00:00.000</property>
      <property name="transition.threads">0</property>
    </filter>
    <filter id="filter1140" in="00:01:38.600000" out="00:01:45.560000">
      <property name="window">75</property>
      <property name="max_gain">20dB</property>
      <property name="mlt_service">volume</property>
      <property name="shotcut:filter">muteVolume</property>
      <property name="gain">0</property>
    </filter>
  </producer>
  <producer id="producer660" title="Anonymous Submission" in="00:00:00.000" out="00:03:39.200">
    <property name="length">00:03:39:06</property>
    <property name="eof">pause</property>
    <property name="resource">../../006 - Videos format youtube/Trombone/daniel_trombone_totoro.mp4</property>
    <property name="audio_index">1</property>
    <property name="video_index">0</property>
    <property name="mute_on_pause">0</property>
    <property name="mlt_service">avformat-novalidate</property>
    <property name="seekable">1</property>
    <property name="aspect_ratio">1</property>
    <property name="shotcut:hash">a1664e01b7aa5838d73b735214bc61f9</property>
    <property name="ignore_points">0</property>
    <property name="shotcut:caption">daniel_trombone_totoro.mp4</property>
    <property name="shotcut:skipConvert">1</property>
    <property name="global_feed">1</property>
    <property name="xml">was here</property>
    <filter id="filter1141" in="00:01:45.600000" out="00:01:53.560000">
      <property name="background">colour:0</property>
      <property name="mlt_service">affine</property>
      <property name="shotcut:filter">affineRotate</property>
      <property name="transition.fix_rotate_x">0</property>
      <property name="transition.scale_x">0.416667</property>
      <property name="transition.ox">0</property>
      <property name="transition.oy">0</property>
      <property name="transition.threads">0</property>
      <property name="transition.scale_y">0.416667</property>
    </filter>
    <filter id="filter1142" in="00:01:45.600000" out="00:01:53.560000">
      <property name="background">colour:0</property>
      <property name="mlt_service">affine</property>
      <property name="shotcut:filter">affineSizePosition</property>
      <property name="transition.fill">1</property>
      <property name="transition.distort">0</property>
      <property name="transition.rect">0.0 0.0 321.0 181.0 1</property>
      <property name="transition.valign">top</property>
      <property name="transition.halign">left</property>
      <property name="shotcut:animIn">00:00:00.480000</property>
      <property name="shotcut:animOut">00:00:00.000</property>
      <property name="transition.threads">0</property>
    </filter>
    <filter id="filter1143" in="00:01:45.600000" out="00:01:53.560000">
      <property name="window">75</property>
      <property name="max_gain">20dB</property>
      <property name="mlt_service">volume</property>
      <property name="shotcut:filter">muteVolume</property>
      <property name="gain">0</property>
    </filter>
  </producer>
  <producer id="producer661" title="Anonymous Submission" in="00:00:00.000" out="00:03:39.200">
    <property name="length">00:03:39:06</property>
    <property name="eof">pause</property>
    <property name="resource">../../006 - Videos format youtube/Trombone/daniel_trombone_totoro.mp4</property>
    <property name="audio_index">1</property>
    <property name="video_index">0</property>
    <property name="mute_on_pause">0</property>
    <property name="mlt_service">avformat-novalidate</property>
    <property name="seekable">1</property>
    <property name="aspect_ratio">1</property>
    <property name="shotcut:hash">a1664e01b7aa5838d73b735214bc61f9</property>
    <property name="ignore_points">0</property>
    <property name="shotcut:caption">daniel_trombone_totoro.mp4</property>
    <property name="shotcut:skipConvert">1</property>
    <property name="global_feed">1</property>
    <property name="xml">was here</property>
    <filter id="filter1144" in="00:01:53.600000" out="00:02:02.560000">
      <property name="background">colour:0</property>
      <property name="mlt_service">affine</property>
      <property name="shotcut:filter">affineRotate</property>
      <property name="transition.fix_rotate_x">0</property>
      <property name="transition.scale_x">0.416667</property>
      <property name="transition.ox">0</property>
      <property name="transition.oy">0</property>
      <property name="transition.threads">0</property>
      <property name="transition.scale_y">0.416667</property>
    </filter>
    <filter id="filter1145" in="00:01:53.600000" out="00:02:02.560000">
      <property name="background">colour:0</property>
      <property name="mlt_service">affine</property>
      <property name="shotcut:filter">affineSizePosition</property>
      <property name="transition.fill">1</property>
      <property name="transition.distort">0</property>
      <property name="transition.rect">1645.0 771.0 275.0 155.0 1</property>
      <property name="transition.valign">top</property>
      <property name="transition.halign">left</property>
      <property name="shotcut:animIn">00:00:00.480000</property>
      <property name="shotcut:animOut">00:00:00.000</property>
      <property name="transition.threads">0</property>
    </filter>
    <filter id="filter1146" in="00:01:53.600000" out="00:02:02.560000">
      <property name="window">75</property>
      <property name="max_gain">20dB</property>
      <property name="mlt_service">volume</property>
      <property name="shotcut:filter">muteVolume</property>
      <property name="gain">0</property>
    </filter>
  </producer>
  <producer id="producer662" title="Anonymous Submission" in="00:00:00.000" out="00:03:39.200">
    <property name="length">00:03:39:06</property>
    <property name="eof">pause</property>
    <property name="resource">../../006 - Videos format youtube/Trombone/daniel_trombone_totoro.mp4</property>
    <property name="audio_index">1</property>
    <property name="video_index">0</property>
    <property name="mute_on_pause">0</property>
    <property name="mlt_service">avformat-novalidate</property>
    <property name="seekable">1</property>
    <property name="aspect_ratio">1</property>
    <property name="shotcut:hash">a1664e01b7aa5838d73b735214bc61f9</property>
    <property name="ignore_points">0</property>
    <property name="shotcut:caption">daniel_trombone_totoro.mp4</property>
    <property name="shotcut:skipConvert">1</property>
    <property name="global_feed">1</property>
    <property name="xml">was here</property>
    <filter id="filter1147" in="00:02:02.600000" out="00:02:09.560000">
      <property name="background">colour:0</property>
      <property name="mlt_service">affine</property>
      <property name="shotcut:filter">affineRotate</property>
      <property name="transition.fix_rotate_x">0</property>
      <property name="transition.scale_x">0.416667</property>
      <property name="transition.ox">0</property>
      <property name="transition.oy">0</property>
      <property name="transition.threads">0</property>
      <property name="transition.scale_y">0.416667</property>
    </filter>
    <filter id="filter1148" in="00:02:02.600000" out="00:02:09.560000">
      <property name="background">colour:0</property>
      <property name="mlt_service">affine</property>
      <property name="shotcut:filter">affineSizePosition</property>
      <property name="transition.fill">1</property>
      <property name="transition.distort">0</property>
      <property name="transition.rect">548.0 462.0 275.0 155.0 1</property>
      <property name="transition.valign">top</property>
      <property name="transition.halign">left</property>
      <property name="shotcut:animIn">00:00:00.480000</property>
      <property name="shotcut:animOut">00:00:00.000</property>
      <property name="transition.threads">0</property>
    </filter>
    <filter id="filter1149" in="00:02:02.600000" out="00:02:09.560000">
      <property name="window">75</property>
      <property name="max_gain">20dB</property>
      <property name="mlt_service">volume</property>
      <property name="shotcut:filter">muteVolume</property>
      <property name="gain">0</property>
    </filter>
  </producer>
  <producer id="producer663" title="Anonymous Submission" in="00:00:00.000" out="00:03:39.200">
    <property name="length">00:03:39:06</property>
    <property name="eof">pause</property>
    <property name="resource">../../006 - Videos format youtube/Trombone/daniel_trombone_totoro.mp4</property>
    <property name="audio_index">1</property>
    <property name="video_index">0</property>
    <property name="mute_on_pause">0</property>
    <property name="mlt_service">avformat-novalidate</property>
    <property name="seekable">1</property>
    <property name="aspect_ratio">1</property>
    <property name="shotcut:hash">a1664e01b7aa5838d73b735214bc61f9</property>
    <property name="ignore_points">0</property>
    <property name="shotcut:caption">daniel_trombone_totoro.mp4</property>
    <property name="shotcut:skipConvert">1</property>
    <property name="global_feed">1</property>
    <property name="xml">was here</property>
    <filter id="filter1150" in="00:02:09.600000" out="00:03:39.200000">
      <property name="background">colour:0</property>
      <property name="mlt_service">affine</property>
      <property name="shotcut:filter">affineRotate</property>
      <property name="transition.fix_rotate_x">0</property>
      <property name="transition.scale_x">0.416667</property>
      <property name="transition.ox">0</property>
      <property name="transition.oy">0</property>
      <property name="transition.threads">0</property>
      <property name="transition.scale_y">0.416667</property>
    </filter>
    <filter id="filter1151" in="00:02:09.600000" out="00:03:39.200000">
      <property name="background">colour:0</property>
      <property name="mlt_service">affine</property>
      <property name="shotcut:filter">affineSizePosition</property>
      <property name="transition.fill">1</property>
      <property name="transition.distort">0</property>
      <property name="transition.rect">-1440.0 0.0 321.0 181.0 1</property>
      <property name="transition.valign">top</property>
      <property name="transition.halign">left</property>
      <property name="shotcut:animIn">00:00:00.480000</property>
      <property name="shotcut:animOut">00:00:00.000</property>
      <property name="transition.threads">0</property>
    </filter>
    <filter id="filter1152" in="00:02:09.600000" out="00:03:39.200000">
      <property name="window">75</property>
      <property name="max_gain">20dB</property>
      <property name="mlt_service">volume</property>
      <property name="shotcut:filter">muteVolume</property>
      <property name="gain">0</property>
    </filter>
  </producer>
  <playlist id="playlist36">
    <property name="shotcut:video">1</property>
    <property name="shotcut:name">Daniel</property>
    <property name="shotcut:lock">1</property>
    <blank length="00:00:07.760" />
    <entry producer="producer654" in="00:00:26.360" out="00:00:41.560000" />
    <entry producer="producer655" in="00:00:41.600000" out="00:00:48.560000" />
    <entry producer="producer656" in="00:00:48.600000" out="00:01:22.560000" />
    <entry producer="producer657" in="00:01:22.600000" out="00:01:30.560000" />
    <entry producer="producer658" in="00:01:30.600000" out="00:01:38.560000" />
    <entry producer="producer659" in="00:01:38.600000" out="00:01:45.560000" />
    <entry producer="producer660" in="00:01:45.600000" out="00:01:53.560000" />
    <entry producer="producer661" in="00:01:53.600000" out="00:02:02.560000" />
    <entry producer="producer662" in="00:02:02.600000" out="00:02:09.560000" />
    <entry producer="producer663" in="00:02:09.600000" out="00:03:39.200000" />
    <filter id="filter1153" out="00:03:25.720">
      <property name="window">75</property>
      <property name="max_gain">20dB</property>
      <property name="level">-12</property>
      <property name="mlt_service">volume</property>
    </filter>
  </playlist>
  <producer id="producer664" title="Anonymous Submission" in="00:00:00.000" out="00:03:18.320">
    <property name="length">00:03:18:09</property>
    <property name="eof">pause</property>
    <property name="resource">../../006 - Videos format youtube/Trombone/Cecile_trombone_totoro.mp4</property>
    <property name="audio_index">1</property>
    <property name="video_index">0</property>
    <property name="mute_on_pause">0</property>
    <property name="mlt_service">avformat-novalidate</property>
    <property name="seekable">1</property>
    <property name="aspect_ratio">1</property>
    <property name="creation_time">2020-04-19T16:42:14</property>
    <property name="shotcut:hash">c7c2345077b92c636ec8da26a84f18d5</property>
    <property name="ignore_points">0</property>
    <property name="shotcut:caption">Cecile_trombone_totoro.mp4</property>
    <property name="shotcut:skipConvert">1</property>
    <property name="global_feed">1</property>
    <property name="xml">was here</property>
    <filter id="filter1154" out="00:00:22.440000">
      <property name="background">colour:0</property>
      <property name="mlt_service">affine</property>
      <property name="shotcut:filter">affineSizePosition</property>
      <property name="transition.fill">1</property>
      <property name="transition.distort">0</property>
      <property name="transition.rect">1371.0 925.0 275.0 155.0 1</property>
      <property name="transition.valign">top</property>
      <property name="transition.halign">left</property>
      <property name="shotcut:animIn">00:00:00.000</property>
      <property name="shotcut:animOut">00:00:00.000</property>
      <property name="transition.threads">0</property>
    </filter>
    <filter id="filter1155" out="00:00:22.440000">
      <property name="window">75</property>
      <property name="max_gain">20dB</property>
      <property name="mlt_service">volume</property>
      <property name="shotcut:filter">muteVolume</property>
      <property name="gain">0</property>
    </filter>
  </producer>
  <producer id="producer665" title="Anonymous Submission" in="00:00:00.000" out="00:03:18.320">
    <property name="length">00:03:18:09</property>
    <property name="eof">pause</property>
    <property name="resource">../../006 - Videos format youtube/Trombone/Cecile_trombone_totoro.mp4</property>
    <property name="audio_index">1</property>
    <property name="video_index">0</property>
    <property name="mute_on_pause">0</property>
    <property name="mlt_service">avformat-novalidate</property>
    <property name="seekable">1</property>
    <property name="aspect_ratio">1</property>
    <property name="creation_time">2020-04-19T16:42:14</property>
    <property name="shotcut:hash">c7c2345077b92c636ec8da26a84f18d5</property>
    <property name="ignore_points">0</property>
    <property name="shotcut:caption">Cecile_trombone_totoro.mp4</property>
    <property name="shotcut:skipConvert">1</property>
    <property name="global_feed">1</property>
    <property name="xml">was here</property>
    <filter id="filter1156" out="00:00:29.440000" in="00:00:22.480000">
      <property name="background">colour:0</property>
      <property name="mlt_service">affine</property>
      <property name="shotcut:filter">affineSizePosition</property>
      <property name="transition.fill">1</property>
      <property name="transition.distort">0</property>
      <property name="transition.rect">00:00:00.000000=1371.0 925.0 276.0 155.0 1;00:00:00.440000=274.0 617.0 275.0 155.0 1</property>
      <property name="transition.valign">top</property>
      <property name="transition.halign">left</property>
      <property name="shotcut:animIn">00:00:00.480000</property>
      <property name="shotcut:animOut">00:00:00.000</property>
      <property name="transition.threads">0</property>
    </filter>
    <filter id="filter1157" out="00:00:29.440000" in="00:00:22.480000">
      <property name="window">75</property>
      <property name="max_gain">20dB</property>
      <property name="mlt_service">volume</property>
      <property name="shotcut:filter">muteVolume</property>
      <property name="gain">0</property>
    </filter>
  </producer>
  <producer id="producer666" title="Anonymous Submission" in="00:00:00.000" out="00:03:18.320">
    <property name="length">00:03:18:09</property>
    <property name="eof">pause</property>
    <property name="resource">../../006 - Videos format youtube/Trombone/Cecile_trombone_totoro.mp4</property>
    <property name="audio_index">1</property>
    <property name="video_index">0</property>
    <property name="mute_on_pause">0</property>
    <property name="mlt_service">avformat-novalidate</property>
    <property name="seekable">1</property>
    <property name="aspect_ratio">1</property>
    <property name="creation_time">2020-04-19T16:42:14</property>
    <property name="shotcut:hash">c7c2345077b92c636ec8da26a84f18d5</property>
    <property name="ignore_points">0</property>
    <property name="shotcut:caption">Cecile_trombone_totoro.mp4</property>
    <property name="shotcut:skipConvert">1</property>
    <property name="global_feed">1</property>
    <property name="xml">was here</property>
    <filter id="filter1158" out="00:01:03.440000" in="00:00:29.480000">
      <property name="background">colour:0</property>
      <property name="mlt_service">affine</property>
      <property name="shotcut:filter">affineSizePosition</property>
      <property name="transition.fill">1</property>
      <property name="transition.distort">0</property>
      <property name="transition.rect">0.0 270.0 241.0 136.0 1</property>
      <property name="transition.valign">top</property>
      <property name="transition.halign">left</property>
      <property name="shotcut:animIn">00:00:00.480000</property>
      <property name="shotcut:animOut">00:00:00.000</property>
      <property name="transition.threads">0</property>
    </filter>
    <filter id="filter1159" out="00:01:03.440000" in="00:00:29.480000">
      <property name="window">75</property>
      <property name="max_gain">20dB</property>
      <property name="mlt_service">volume</property>
      <property name="shotcut:filter">muteVolume</property>
      <property name="gain">0</property>
    </filter>
  </producer>
  <producer id="producer667" title="Anonymous Submission" in="00:00:00.000" out="00:03:18.320">
    <property name="length">00:03:18:09</property>
    <property name="eof">pause</property>
    <property name="resource">../../006 - Videos format youtube/Trombone/Cecile_trombone_totoro.mp4</property>
    <property name="audio_index">1</property>
    <property name="video_index">0</property>
    <property name="mute_on_pause">0</property>
    <property name="mlt_service">avformat-novalidate</property>
    <property name="seekable">1</property>
    <property name="aspect_ratio">1</property>
    <property name="creation_time">2020-04-19T16:42:14</property>
    <property name="shotcut:hash">c7c2345077b92c636ec8da26a84f18d5</property>
    <property name="ignore_points">0</property>
    <property name="shotcut:caption">Cecile_trombone_totoro.mp4</property>
    <property name="shotcut:skipConvert">1</property>
    <property name="global_feed">1</property>
    <property name="xml">was here</property>
    <filter id="filter1160" out="00:01:11.440000" in="00:01:03.480000">
      <property name="background">colour:0</property>
      <property name="mlt_service">affine</property>
      <property name="shotcut:filter">affineSizePosition</property>
      <property name="transition.fill">1</property>
      <property name="transition.distort">0</property>
      <property name="transition.rect">1371.0 925.0 275.0 155.0 1</property>
      <property name="transition.valign">top</property>
      <property name="transition.halign">left</property>
      <property name="shotcut:animIn">00:00:00.480000</property>
      <property name="shotcut:animOut">00:00:00.000</property>
      <property name="transition.threads">0</property>
    </filter>
    <filter id="filter1161" out="00:01:11.440000" in="00:01:03.480000">
      <property name="window">75</property>
      <property name="max_gain">20dB</property>
      <property name="mlt_service">volume</property>
      <property name="shotcut:filter">muteVolume</property>
      <property name="gain">0</property>
    </filter>
  </producer>
  <producer id="producer668" title="Anonymous Submission" in="00:00:00.000" out="00:03:18.320">
    <property name="length">00:03:18:09</property>
    <property name="eof">pause</property>
    <property name="resource">../../006 - Videos format youtube/Trombone/Cecile_trombone_totoro.mp4</property>
    <property name="audio_index">1</property>
    <property name="video_index">0</property>
    <property name="mute_on_pause">0</property>
    <property name="mlt_service">avformat-novalidate</property>
    <property name="seekable">1</property>
    <property name="aspect_ratio">1</property>
    <property name="creation_time">2020-04-19T16:42:14</property>
    <property name="shotcut:hash">c7c2345077b92c636ec8da26a84f18d5</property>
    <property name="ignore_points">0</property>
    <property name="shotcut:caption">Cecile_trombone_totoro.mp4</property>
    <property name="shotcut:skipConvert">1</property>
    <property name="global_feed">1</property>
    <property name="xml">was here</property>
    <filter id="filter1162" out="00:01:19.440000" in="00:01:11.480000">
      <property name="background">colour:0</property>
      <property name="mlt_service">affine</property>
      <property name="shotcut:filter">affineSizePosition</property>
      <property name="transition.fill">1</property>
      <property name="transition.distort">0</property>
      <property name="transition.rect">548.0 0.0 275.0 155.0 1</property>
      <property name="transition.valign">top</property>
      <property name="transition.halign">left</property>
      <property name="shotcut:animIn">00:00:00.480000</property>
      <property name="shotcut:animOut">00:00:00.000</property>
      <property name="transition.threads">0</property>
    </filter>
    <filter id="filter1163" out="00:01:19.440000" in="00:01:11.480000">
      <property name="window">75</property>
      <property name="max_gain">20dB</property>
      <property name="mlt_service">volume</property>
      <property name="shotcut:filter">muteVolume</property>
      <property name="gain">0</property>
    </filter>
  </producer>
  <producer id="producer669" title="Anonymous Submission" in="00:00:00.000" out="00:03:18.320">
    <property name="length">00:03:18:09</property>
    <property name="eof">pause</property>
    <property name="resource">../../006 - Videos format youtube/Trombone/Cecile_trombone_totoro.mp4</property>
    <property name="audio_index">1</property>
    <property name="video_index">0</property>
    <property name="mute_on_pause">0</property>
    <property name="mlt_service">avformat-novalidate</property>
    <property name="seekable">1</property>
    <property name="aspect_ratio">1</property>
    <property name="creation_time">2020-04-19T16:42:14</property>
    <property name="shotcut:hash">c7c2345077b92c636ec8da26a84f18d5</property>
    <property name="ignore_points">0</property>
    <property name="shotcut:caption">Cecile_trombone_totoro.mp4</property>
    <property name="shotcut:skipConvert">1</property>
    <property name="global_feed">1</property>
    <property name="xml">was here</property>
    <filter id="filter1164" out="00:01:26.440000" in="00:01:19.480000">
      <property name="background">colour:0</property>
      <property name="mlt_service">affine</property>
      <property name="shotcut:filter">affineSizePosition</property>
      <property name="transition.fill">1</property>
      <property name="transition.distort">0</property>
      <property name="transition.rect">960.0 540.0 961.0 541.0 1</property>
      <property name="transition.valign">top</property>
      <property name="transition.halign">left</property>
      <property name="shotcut:animIn">00:00:00.480000</property>
      <property name="shotcut:animOut">00:00:00.000</property>
      <property name="transition.threads">0</property>
    </filter>
    <filter id="filter1165" out="00:01:26.440000" in="00:01:19.480000">
      <property name="window">75</property>
      <property name="max_gain">20dB</property>
      <property name="mlt_service">volume</property>
      <property name="shotcut:filter">muteVolume</property>
      <property name="gain">0</property>
    </filter>
  </producer>
  <producer id="producer670" title="Anonymous Submission" in="00:00:00.000" out="00:03:18.320">
    <property name="length">00:03:18:09</property>
    <property name="eof">pause</property>
    <property name="resource">../../006 - Videos format youtube/Trombone/Cecile_trombone_totoro.mp4</property>
    <property name="audio_index">1</property>
    <property name="video_index">0</property>
    <property name="mute_on_pause">0</property>
    <property name="mlt_service">avformat-novalidate</property>
    <property name="seekable">1</property>
    <property name="aspect_ratio">1</property>
    <property name="creation_time">2020-04-19T16:42:14</property>
    <property name="shotcut:hash">c7c2345077b92c636ec8da26a84f18d5</property>
    <property name="ignore_points">0</property>
    <property name="shotcut:caption">Cecile_trombone_totoro.mp4</property>
    <property name="shotcut:skipConvert">1</property>
    <property name="global_feed">1</property>
    <property name="xml">was here</property>
    <filter id="filter1166" out="00:01:34.440000" in="00:01:26.480000">
      <property name="background">colour:0</property>
      <property name="mlt_service">affine</property>
      <property name="shotcut:filter">affineSizePosition</property>
      <property name="transition.fill">1</property>
      <property name="transition.distort">0</property>
      <property name="transition.rect">320.0 0.0 321.0 181.0 1</property>
      <property name="transition.valign">top</property>
      <property name="transition.halign">left</property>
      <property name="shotcut:animIn">00:00:00.480000</property>
      <property name="shotcut:animOut">00:00:00.000</property>
      <property name="transition.threads">0</property>
    </filter>
    <filter id="filter1167" out="00:01:34.440000" in="00:01:26.480000">
      <property name="window">75</property>
      <property name="max_gain">20dB</property>
      <property name="mlt_service">volume</property>
      <property name="shotcut:filter">muteVolume</property>
      <property name="gain">0</property>
    </filter>
  </producer>
  <producer id="producer671" title="Anonymous Submission" in="00:00:00.000" out="00:03:18.320">
    <property name="length">00:03:18:09</property>
    <property name="eof">pause</property>
    <property name="resource">../../006 - Videos format youtube/Trombone/Cecile_trombone_totoro.mp4</property>
    <property name="audio_index">1</property>
    <property name="video_index">0</property>
    <property name="mute_on_pause">0</property>
    <property name="mlt_service">avformat-novalidate</property>
    <property name="seekable">1</property>
    <property name="aspect_ratio">1</property>
    <property name="creation_time">2020-04-19T16:42:14</property>
    <property name="shotcut:hash">c7c2345077b92c636ec8da26a84f18d5</property>
    <property name="ignore_points">0</property>
    <property name="shotcut:caption">Cecile_trombone_totoro.mp4</property>
    <property name="shotcut:skipConvert">1</property>
    <property name="global_feed">1</property>
    <property name="xml">was here</property>
    <filter id="filter1168" out="00:01:43.440000" in="00:01:34.480000">
      <property name="background">colour:0</property>
      <property name="mlt_service">affine</property>
      <property name="shotcut:filter">affineSizePosition</property>
      <property name="transition.fill">1</property>
      <property name="transition.distort">0</property>
      <property name="transition.rect">-548.0 -308.0 275.0 155.0 1</property>
      <property name="transition.valign">top</property>
      <property name="transition.halign">left</property>
      <property name="shotcut:animIn">00:00:00.480000</property>
      <property name="shotcut:animOut">00:00:00.000</property>
      <property name="transition.threads">0</property>
    </filter>
    <filter id="filter1169" out="00:01:43.440000" in="00:01:34.480000">
      <property name="window">75</property>
      <property name="max_gain">20dB</property>
      <property name="mlt_service">volume</property>
      <property name="shotcut:filter">muteVolume</property>
      <property name="gain">0</property>
    </filter>
  </producer>
  <producer id="producer672" title="Anonymous Submission" in="00:00:00.000" out="00:03:18.320">
    <property name="length">00:03:18:09</property>
    <property name="eof">pause</property>
    <property name="resource">../../006 - Videos format youtube/Trombone/Cecile_trombone_totoro.mp4</property>
    <property name="audio_index">1</property>
    <property name="video_index">0</property>
    <property name="mute_on_pause">0</property>
    <property name="mlt_service">avformat-novalidate</property>
    <property name="seekable">1</property>
    <property name="aspect_ratio">1</property>
    <property name="creation_time">2020-04-19T16:42:14</property>
    <property name="shotcut:hash">c7c2345077b92c636ec8da26a84f18d5</property>
    <property name="ignore_points">0</property>
    <property name="shotcut:caption">Cecile_trombone_totoro.mp4</property>
    <property name="shotcut:skipConvert">1</property>
    <property name="global_feed">1</property>
    <property name="xml">was here</property>
    <filter id="filter1170" out="00:01:50.440000" in="00:01:43.480000">
      <property name="background">colour:0</property>
      <property name="mlt_service">affine</property>
      <property name="shotcut:filter">affineSizePosition</property>
      <property name="transition.fill">1</property>
      <property name="transition.distort">0</property>
      <property name="transition.rect">1371.0 925.0 275.0 155.0 1</property>
      <property name="transition.valign">top</property>
      <property name="transition.halign">left</property>
      <property name="shotcut:animIn">00:00:00.480000</property>
      <property name="shotcut:animOut">00:00:00.000</property>
      <property name="transition.threads">0</property>
    </filter>
    <filter id="filter1171" out="00:01:50.440000" in="00:01:43.480000">
      <property name="window">75</property>
      <property name="max_gain">20dB</property>
      <property name="mlt_service">volume</property>
      <property name="shotcut:filter">muteVolume</property>
      <property name="gain">0</property>
    </filter>
  </producer>
  <producer id="producer673" title="Anonymous Submission" in="00:00:00.000" out="00:03:18.320">
    <property name="length">00:03:18:09</property>
    <property name="eof">pause</property>
    <property name="resource">../../006 - Videos format youtube/Trombone/Cecile_trombone_totoro.mp4</property>
    <property name="audio_index">1</property>
    <property name="video_index">0</property>
    <property name="mute_on_pause">0</property>
    <property name="mlt_service">avformat-novalidate</property>
    <property name="seekable">1</property>
    <property name="aspect_ratio">1</property>
    <property name="creation_time">2020-04-19T16:42:14</property>
    <property name="shotcut:hash">c7c2345077b92c636ec8da26a84f18d5</property>
    <property name="ignore_points">0</property>
    <property name="shotcut:caption">Cecile_trombone_totoro.mp4</property>
    <property name="shotcut:skipConvert">1</property>
    <property name="global_feed">1</property>
    <property name="xml">was here</property>
    <filter id="filter1172" out="00:03:18.320000" in="00:01:50.480000">
      <property name="background">colour:0</property>
      <property name="mlt_service">affine</property>
      <property name="shotcut:filter">affineSizePosition</property>
      <property name="transition.fill">1</property>
      <property name="transition.distort">0</property>
      <property name="transition.rect">5600.0 0.0 321.0 181.0 1</property>
      <property name="transition.valign">top</property>
      <property name="transition.halign">left</property>
      <property name="shotcut:animIn">00:00:00.480000</property>
      <property name="shotcut:animOut">00:00:00.000</property>
      <property name="transition.threads">0</property>
    </filter>
    <filter id="filter1173" out="00:03:18.320000" in="00:01:50.480000">
      <property name="window">75</property>
      <property name="max_gain">20dB</property>
      <property name="mlt_service">volume</property>
      <property name="shotcut:filter">muteVolume</property>
      <property name="gain">0</property>
    </filter>
  </producer>
  <playlist id="playlist37">
    <property name="shotcut:video">1</property>
    <property name="shotcut:name">Cecile</property>
    <property name="shotcut:lock">1</property>
    <blank length="00:00:00.520" />
    <entry producer="producer664" in="00:00:00.000" out="00:00:22.440000" />
    <entry producer="producer665" in="00:00:22.480000" out="00:00:29.440000" />
    <entry producer="producer666" in="00:00:29.480000" out="00:01:03.440000" />
    <entry producer="producer667" in="00:01:03.480000" out="00:01:11.440000" />
    <entry producer="producer668" in="00:01:11.480000" out="00:01:19.440000" />
    <entry producer="producer669" in="00:01:19.480000" out="00:01:26.440000" />
    <entry producer="producer670" in="00:01:26.480000" out="00:01:34.440000" />
    <entry producer="producer671" in="00:01:34.480000" out="00:01:43.440000" />
    <entry producer="producer672" in="00:01:43.480000" out="00:01:50.440000" />
    <entry producer="producer673" in="00:01:50.480000" out="00:03:18.320000" />
    <filter id="filter1174" out="00:03:25.720">
      <property name="window">75</property>
      <property name="max_gain">20dB</property>
      <property name="level">-10</property>
      <property name="mlt_service">volume</property>
    </filter>
  </playlist>
  <producer id="producer674" title="Anonymous Submission" in="00:00:00.000" out="00:03:41.040">
    <property name="length">00:03:41:02</property>
    <property name="eof">pause</property>
    <property name="resource">../../006 - Videos format youtube/Trompettes et cornets/Bidou_cornet_totoro.mp4</property>
    <property name="audio_index">1</property>
    <property name="video_index">0</property>
    <property name="mute_on_pause">0</property>
    <property name="mlt_service">avformat-novalidate</property>
    <property name="seekable">1</property>
    <property name="aspect_ratio">1</property>
    <property name="creation_time">2020-04-05T19:25:31</property>
    <property name="shotcut:hash">df47beb18305e9051d91b2aae87978a4</property>
    <property name="ignore_points">0</property>
    <property name="shotcut:caption">Bidou_cornet_totoro.mp4</property>
    <property name="shotcut:skipConvert">1</property>
    <property name="global_feed">1</property>
    <property name="xml">was here</property>
    <filter id="filter1175" in="00:00:22.360" out="00:00:43.080000">
      <property name="background">colour:0</property>
      <property name="mlt_service">affine</property>
      <property name="shotcut:filter">affineSizePosition</property>
      <property name="transition.fill">1</property>
      <property name="transition.distort">0</property>
      <property name="transition.rect">274.0 308.0 275.0 155.0 1</property>
      <property name="transition.valign">top</property>
      <property name="transition.halign">left</property>
      <property name="shotcut:animIn">00:00:00.000</property>
      <property name="shotcut:animOut">00:00:00.000</property>
      <property name="transition.threads">0</property>
    </filter>
    <filter id="filter1176" in="00:00:22.360" out="00:00:43.080000">
      <property name="window">75</property>
      <property name="max_gain">20dB</property>
      <property name="mlt_service">volume</property>
      <property name="shotcut:filter">muteVolume</property>
      <property name="gain">0</property>
    </filter>
  </producer>
  <producer id="producer675" title="Anonymous Submission" in="00:00:00.000" out="00:03:41.040">
    <property name="length">00:03:41:02</property>
    <property name="eof">pause</property>
    <property name="resource">../../006 - Videos format youtube/Trompettes et cornets/Bidou_cornet_totoro.mp4</property>
    <property name="audio_index">1</property>
    <property name="video_index">0</property>
    <property name="mute_on_pause">0</property>
    <property name="mlt_service">avformat-novalidate</property>
    <property name="seekable">1</property>
    <property name="aspect_ratio">1</property>
    <property name="creation_time">2020-04-05T19:25:31</property>
    <property name="shotcut:hash">df47beb18305e9051d91b2aae87978a4</property>
    <property name="ignore_points">0</property>
    <property name="shotcut:caption">Bidou_cornet_totoro.mp4</property>
    <property name="shotcut:skipConvert">1</property>
    <property name="global_feed">1</property>
    <property name="xml">was here</property>
    <filter id="filter1177" in="00:00:43.120000" out="00:00:50.080000">
      <property name="background">colour:0</property>
      <property name="mlt_service">affine</property>
      <property name="shotcut:filter">affineSizePosition</property>
      <property name="transition.fill">1</property>
      <property name="transition.distort">0</property>
      <property name="transition.rect">-822.0 -617.0 275.0 155.0 1</property>
      <property name="transition.valign">top</property>
      <property name="transition.halign">left</property>
      <property name="shotcut:animIn">00:00:00.000</property>
      <property name="shotcut:animOut">00:00:00.000</property>
      <property name="transition.threads">0</property>
    </filter>
    <filter id="filter1178" in="00:00:43.120000" out="00:00:50.080000">
      <property name="window">75</property>
      <property name="max_gain">20dB</property>
      <property name="mlt_service">volume</property>
      <property name="shotcut:filter">muteVolume</property>
      <property name="gain">0</property>
    </filter>
  </producer>
  <producer id="producer676" title="Anonymous Submission" in="00:00:00.000" out="00:03:41.040">
    <property name="length">00:03:41:02</property>
    <property name="eof">pause</property>
    <property name="resource">../../006 - Videos format youtube/Trompettes et cornets/Bidou_cornet_totoro.mp4</property>
    <property name="audio_index">1</property>
    <property name="video_index">0</property>
    <property name="mute_on_pause">0</property>
    <property name="mlt_service">avformat-novalidate</property>
    <property name="seekable">1</property>
    <property name="aspect_ratio">1</property>
    <property name="creation_time">2020-04-05T19:25:31</property>
    <property name="shotcut:hash">df47beb18305e9051d91b2aae87978a4</property>
    <property name="ignore_points">0</property>
    <property name="shotcut:caption">Bidou_cornet_totoro.mp4</property>
    <property name="shotcut:skipConvert">1</property>
    <property name="global_feed">1</property>
    <property name="xml">was here</property>
    <filter id="filter1179" in="00:00:50.120000" out="00:01:24.080000">
      <property name="background">colour:0</property>
      <property name="mlt_service">affine</property>
      <property name="shotcut:filter">affineSizePosition</property>
      <property name="transition.fill">1</property>
      <property name="transition.distort">0</property>
      <property name="transition.rect">0.0 540.0 241.0 136.0 1</property>
      <property name="transition.valign">top</property>
      <property name="transition.halign">left</property>
      <property name="shotcut:animIn">00:00:00.000</property>
      <property name="shotcut:animOut">00:00:00.000</property>
      <property name="transition.threads">0</property>
    </filter>
    <filter id="filter1180" in="00:00:50.120000" out="00:01:24.080000">
      <property name="window">75</property>
      <property name="max_gain">20dB</property>
      <property name="mlt_service">volume</property>
      <property name="shotcut:filter">muteVolume</property>
      <property name="gain">0</property>
    </filter>
  </producer>
  <producer id="producer677" title="Anonymous Submission" in="00:00:00.000" out="00:03:41.040">
    <property name="length">00:03:41:02</property>
    <property name="eof">pause</property>
    <property name="resource">../../006 - Videos format youtube/Trompettes et cornets/Bidou_cornet_totoro.mp4</property>
    <property name="audio_index">1</property>
    <property name="video_index">0</property>
    <property name="mute_on_pause">0</property>
    <property name="mlt_service">avformat-novalidate</property>
    <property name="seekable">1</property>
    <property name="aspect_ratio">1</property>
    <property name="creation_time">2020-04-05T19:25:31</property>
    <property name="shotcut:hash">df47beb18305e9051d91b2aae87978a4</property>
    <property name="ignore_points">0</property>
    <property name="shotcut:caption">Bidou_cornet_totoro.mp4</property>
    <property name="shotcut:skipConvert">1</property>
    <property name="global_feed">1</property>
    <property name="xml">was here</property>
    <filter id="filter1181" in="00:01:24.120000" out="00:01:32.080000">
      <property name="background">colour:0</property>
      <property name="mlt_service">affine</property>
      <property name="shotcut:filter">affineSizePosition</property>
      <property name="transition.fill">1</property>
      <property name="transition.distort">0</property>
      <property name="transition.rect">822.0 462.0 275.0 155.0 1</property>
      <property name="transition.valign">top</property>
      <property name="transition.halign">left</property>
      <property name="shotcut:animIn">00:00:00.000</property>
      <property name="shotcut:animOut">00:00:00.000</property>
      <property name="transition.threads">0</property>
    </filter>
    <filter id="filter1182" in="00:01:24.120000" out="00:01:32.080000">
      <property name="window">75</property>
      <property name="max_gain">20dB</property>
      <property name="mlt_service">volume</property>
      <property name="shotcut:filter">muteVolume</property>
      <property name="gain">0</property>
    </filter>
  </producer>
  <producer id="producer678" title="Anonymous Submission" in="00:00:00.000" out="00:03:41.040">
    <property name="length">00:03:41:02</property>
    <property name="eof">pause</property>
    <property name="resource">../../006 - Videos format youtube/Trompettes et cornets/Bidou_cornet_totoro.mp4</property>
    <property name="audio_index">1</property>
    <property name="video_index">0</property>
    <property name="mute_on_pause">0</property>
    <property name="mlt_service">avformat-novalidate</property>
    <property name="seekable">1</property>
    <property name="aspect_ratio">1</property>
    <property name="creation_time">2020-04-05T19:25:31</property>
    <property name="shotcut:hash">df47beb18305e9051d91b2aae87978a4</property>
    <property name="ignore_points">0</property>
    <property name="shotcut:caption">Bidou_cornet_totoro.mp4</property>
    <property name="shotcut:skipConvert">1</property>
    <property name="global_feed">1</property>
    <property name="xml">was here</property>
    <filter id="filter1183" in="00:01:32.120000" out="00:01:40.080000">
      <property name="background">colour:0</property>
      <property name="mlt_service">affine</property>
      <property name="shotcut:filter">affineSizePosition</property>
      <property name="transition.fill">1</property>
      <property name="transition.distort">0</property>
      <property name="transition.rect">548.0 925.0 275.0 155.0 1</property>
      <property name="transition.valign">top</property>
      <property name="transition.halign">left</property>
      <property name="shotcut:animIn">00:00:00.000</property>
      <property name="shotcut:animOut">00:00:00.000</property>
      <property name="transition.threads">0</property>
    </filter>
    <filter id="filter1184" in="00:01:32.120000" out="00:01:40.080000">
      <property name="window">75</property>
      <property name="max_gain">20dB</property>
      <property name="mlt_service">volume</property>
      <property name="shotcut:filter">muteVolume</property>
      <property name="gain">0</property>
    </filter>
  </producer>
  <producer id="producer679" title="Anonymous Submission" in="00:00:00.000" out="00:03:41.040">
    <property name="length">00:03:41:02</property>
    <property name="eof">pause</property>
    <property name="resource">../../006 - Videos format youtube/Trompettes et cornets/Bidou_cornet_totoro.mp4</property>
    <property name="audio_index">1</property>
    <property name="video_index">0</property>
    <property name="mute_on_pause">0</property>
    <property name="mlt_service">avformat-novalidate</property>
    <property name="seekable">1</property>
    <property name="aspect_ratio">1</property>
    <property name="creation_time">2020-04-05T19:25:31</property>
    <property name="shotcut:hash">df47beb18305e9051d91b2aae87978a4</property>
    <property name="ignore_points">0</property>
    <property name="shotcut:caption">Bidou_cornet_totoro.mp4</property>
    <property name="shotcut:skipConvert">1</property>
    <property name="global_feed">1</property>
    <property name="xml">was here</property>
    <filter id="filter1185" in="00:01:40.120000" out="00:01:47.080000">
      <property name="background">colour:0</property>
      <property name="mlt_service">affine</property>
      <property name="shotcut:filter">affineSizePosition</property>
      <property name="transition.fill">1</property>
      <property name="transition.distort">0</property>
      <property name="transition.rect">960.0 0.0 321.0 181.0 1</property>
      <property name="transition.valign">top</property>
      <property name="transition.halign">left</property>
      <property name="shotcut:animIn">00:00:00.000</property>
      <property name="shotcut:animOut">00:00:00.000</property>
      <property name="transition.threads">0</property>
    </filter>
    <filter id="filter1186" in="00:01:40.120000" out="00:01:47.080000">
      <property name="window">75</property>
      <property name="max_gain">20dB</property>
      <property name="mlt_service">volume</property>
      <property name="shotcut:filter">muteVolume</property>
      <property name="gain">0</property>
    </filter>
  </producer>
  <producer id="producer680" title="Anonymous Submission" in="00:00:00.000" out="00:03:41.040">
    <property name="length">00:03:41:02</property>
    <property name="eof">pause</property>
    <property name="resource">../../006 - Videos format youtube/Trompettes et cornets/Bidou_cornet_totoro.mp4</property>
    <property name="audio_index">1</property>
    <property name="video_index">0</property>
    <property name="mute_on_pause">0</property>
    <property name="mlt_service">avformat-novalidate</property>
    <property name="seekable">1</property>
    <property name="aspect_ratio">1</property>
    <property name="creation_time">2020-04-05T19:25:31</property>
    <property name="shotcut:hash">df47beb18305e9051d91b2aae87978a4</property>
    <property name="ignore_points">0</property>
    <property name="shotcut:caption">Bidou_cornet_totoro.mp4</property>
    <property name="shotcut:skipConvert">1</property>
    <property name="global_feed">1</property>
    <property name="xml">was here</property>
    <filter id="filter1187" in="00:01:47.120000" out="00:01:55.080000">
      <property name="background">colour:0</property>
      <property name="mlt_service">affine</property>
      <property name="shotcut:filter">affineSizePosition</property>
      <property name="transition.fill">1</property>
      <property name="transition.distort">0</property>
      <property name="transition.rect">960.0 -360.0 321.0 181.0 1</property>
      <property name="transition.valign">top</property>
      <property name="transition.halign">left</property>
      <property name="shotcut:animIn">00:00:00.000</property>
      <property name="shotcut:animOut">00:00:00.000</property>
      <property name="transition.threads">0</property>
    </filter>
    <filter id="filter1188" in="00:01:47.120000" out="00:01:55.080000">
      <property name="window">75</property>
      <property name="max_gain">20dB</property>
      <property name="mlt_service">volume</property>
      <property name="shotcut:filter">muteVolume</property>
      <property name="gain">0</property>
    </filter>
  </producer>
  <producer id="producer681" title="Anonymous Submission" in="00:00:00.000" out="00:03:41.040">
    <property name="length">00:03:41:02</property>
    <property name="eof">pause</property>
    <property name="resource">../../006 - Videos format youtube/Trompettes et cornets/Bidou_cornet_totoro.mp4</property>
    <property name="audio_index">1</property>
    <property name="video_index">0</property>
    <property name="mute_on_pause">0</property>
    <property name="mlt_service">avformat-novalidate</property>
    <property name="seekable">1</property>
    <property name="aspect_ratio">1</property>
    <property name="creation_time">2020-04-05T19:25:31</property>
    <property name="shotcut:hash">df47beb18305e9051d91b2aae87978a4</property>
    <property name="ignore_points">0</property>
    <property name="shotcut:caption">Bidou_cornet_totoro.mp4</property>
    <property name="shotcut:skipConvert">1</property>
    <property name="global_feed">1</property>
    <property name="xml">was here</property>
    <filter id="filter1189" in="00:01:55.120000" out="00:02:04.080000">
      <property name="background">colour:0</property>
      <property name="mlt_service">affine</property>
      <property name="shotcut:filter">affineSizePosition</property>
      <property name="transition.fill">1</property>
      <property name="transition.distort">0</property>
      <property name="transition.rect">-822.0 -617.0 275.0 155.0 1</property>
      <property name="transition.valign">top</property>
      <property name="transition.halign">left</property>
      <property name="shotcut:animIn">00:00:00.000</property>
      <property name="shotcut:animOut">00:00:00.000</property>
      <property name="transition.threads">0</property>
    </filter>
    <filter id="filter1190" in="00:01:55.120000" out="00:02:04.080000">
      <property name="window">75</property>
      <property name="max_gain">20dB</property>
      <property name="mlt_service">volume</property>
      <property name="shotcut:filter">muteVolume</property>
      <property name="gain">0</property>
    </filter>
  </producer>
  <producer id="producer682" title="Anonymous Submission" in="00:00:00.000" out="00:03:41.040">
    <property name="length">00:03:41:02</property>
    <property name="eof">pause</property>
    <property name="resource">../../006 - Videos format youtube/Trompettes et cornets/Bidou_cornet_totoro.mp4</property>
    <property name="audio_index">1</property>
    <property name="video_index">0</property>
    <property name="mute_on_pause">0</property>
    <property name="mlt_service">avformat-novalidate</property>
    <property name="seekable">1</property>
    <property name="aspect_ratio">1</property>
    <property name="creation_time">2020-04-05T19:25:31</property>
    <property name="shotcut:hash">df47beb18305e9051d91b2aae87978a4</property>
    <property name="ignore_points">0</property>
    <property name="shotcut:caption">Bidou_cornet_totoro.mp4</property>
    <property name="shotcut:skipConvert">1</property>
    <property name="global_feed">1</property>
    <property name="xml">was here</property>
    <filter id="filter1191" in="00:02:04.120000" out="00:02:11.080000">
      <property name="background">colour:0</property>
      <property name="mlt_service">affine</property>
      <property name="shotcut:filter">affineSizePosition</property>
      <property name="transition.fill">1</property>
      <property name="transition.distort">0</property>
      <property name="transition.rect">-548.0 -308.0 275.0 155.0 1</property>
      <property name="transition.valign">top</property>
      <property name="transition.halign">left</property>
      <property name="shotcut:animIn">00:00:00.000</property>
      <property name="shotcut:animOut">00:00:00.000</property>
      <property name="transition.threads">0</property>
    </filter>
    <filter id="filter1192" in="00:02:04.120000" out="00:02:11.080000">
      <property name="window">75</property>
      <property name="max_gain">20dB</property>
      <property name="mlt_service">volume</property>
      <property name="shotcut:filter">muteVolume</property>
      <property name="gain">0</property>
    </filter>
  </producer>
  <producer id="producer683" title="Anonymous Submission" in="00:00:00.000" out="00:03:41.040">
    <property name="length">00:03:41:02</property>
    <property name="eof">pause</property>
    <property name="resource">../../006 - Videos format youtube/Trompettes et cornets/Bidou_cornet_totoro.mp4</property>
    <property name="audio_index">1</property>
    <property name="video_index">0</property>
    <property name="mute_on_pause">0</property>
    <property name="mlt_service">avformat-novalidate</property>
    <property name="seekable">1</property>
    <property name="aspect_ratio">1</property>
    <property name="creation_time">2020-04-05T19:25:31</property>
    <property name="shotcut:hash">df47beb18305e9051d91b2aae87978a4</property>
    <property name="ignore_points">0</property>
    <property name="shotcut:caption">Bidou_cornet_totoro.mp4</property>
    <property name="shotcut:skipConvert">1</property>
    <property name="global_feed">1</property>
    <property name="xml">was here</property>
    <filter id="filter1193" in="00:02:11.120000" out="00:03:41.040000">
      <property name="background">colour:0</property>
      <property name="mlt_service">affine</property>
      <property name="shotcut:filter">affineSizePosition</property>
      <property name="transition.fill">1</property>
      <property name="transition.distort">0</property>
      <property name="transition.rect">2399.0 0.0 321.0 181.0 1</property>
      <property name="transition.valign">top</property>
      <property name="transition.halign">left</property>
      <property name="shotcut:animIn">00:00:00.000</property>
      <property name="shotcut:animOut">00:00:00.000</property>
      <property name="transition.threads">0</property>
    </filter>
    <filter id="filter1194" in="00:02:11.120000" out="00:03:41.040000">
      <property name="window">75</property>
      <property name="max_gain">20dB</property>
      <property name="mlt_service">volume</property>
      <property name="shotcut:filter">muteVolume</property>
      <property name="gain">0</property>
    </filter>
  </producer>
  <playlist id="playlist38">
    <property name="shotcut:video">1</property>
    <property name="shotcut:name">Bidou_cornet</property>
    <property name="shotcut:lock">1</property>
    <blank length="00:00:02.240" />
    <entry producer="producer674" in="00:00:22.360" out="00:00:43.080000" />
    <entry producer="producer675" in="00:00:43.120000" out="00:00:50.080000" />
    <entry producer="producer676" in="00:00:50.120000" out="00:01:24.080000" />
    <entry producer="producer677" in="00:01:24.120000" out="00:01:32.080000" />
    <entry producer="producer678" in="00:01:32.120000" out="00:01:40.080000" />
    <entry producer="producer679" in="00:01:40.120000" out="00:01:47.080000" />
    <entry producer="producer680" in="00:01:47.120000" out="00:01:55.080000" />
    <entry producer="producer681" in="00:01:55.120000" out="00:02:04.080000" />
    <entry producer="producer682" in="00:02:04.120000" out="00:02:11.080000" />
    <entry producer="producer683" in="00:02:11.120000" out="00:03:41.040000" />
    <filter id="filter1195" out="00:03:24.360">
      <property name="window">75</property>
      <property name="max_gain">20dB</property>
      <property name="level">-11</property>
      <property name="mlt_service">volume</property>
    </filter>
  </playlist>
  <producer id="producer684" title="Anonymous Submission" in="00:00:00.000" out="00:03:02.520">
    <property name="length">00:03:02:14</property>
    <property name="eof">pause</property>
    <property name="resource">../../006 - Videos format youtube/Trompettes et cornets/Serge_trompette_totoro.mp4</property>
    <property name="audio_index">1</property>
    <property name="video_index">0</property>
    <property name="mute_on_pause">0</property>
    <property name="mlt_service">avformat-novalidate</property>
    <property name="seekable">1</property>
    <property name="aspect_ratio">1</property>
    <property name="creation_time">2020-04-12T19:40:43</property>
    <property name="shotcut:hash">8ef8fab703d506ba08497a54257ebc1e</property>
    <property name="ignore_points">0</property>
    <property name="shotcut:caption">Serge_trompette_totoro.mp4</property>
    <property name="shotcut:skipConvert">1</property>
    <property name="global_feed">1</property>
    <property name="xml">was here</property>
    <filter id="filter1196" out="00:00:08.280000">
      <property name="background">colour:0</property>
      <property name="mlt_service">affine</property>
      <property name="shotcut:filter">affineSizePosition</property>
      <property name="transition.fill">1</property>
      <property name="transition.distort">0</property>
      <property name="transition.rect">1645.0 617.0 275.0 155.0 1</property>
      <property name="transition.valign">top</property>
      <property name="transition.halign">left</property>
      <property name="shotcut:animIn">00:00:00.000</property>
      <property name="shotcut:animOut">00:00:00.000</property>
      <property name="transition.threads">0</property>
    </filter>
    <filter id="filter1197" out="00:00:08.280000">
      <property name="window">75</property>
      <property name="max_gain">20dB</property>
      <property name="level">-8</property>
      <property name="mlt_service">volume</property>
    </filter>
    <filter id="filter1198" out="00:00:08.280000">
      <property name="window">75</property>
      <property name="max_gain">20dB</property>
      <property name="mlt_service">volume</property>
      <property name="shotcut:filter">muteVolume</property>
      <property name="gain">0</property>
    </filter>
  </producer>
  <producer id="producer685" title="Anonymous Submission" in="00:00:00.000" out="00:03:02.520">
    <property name="length">00:03:02:14</property>
    <property name="eof">pause</property>
    <property name="resource">../../006 - Videos format youtube/Trompettes et cornets/Serge_trompette_totoro.mp4</property>
    <property name="audio_index">1</property>
    <property name="video_index">0</property>
    <property name="mute_on_pause">0</property>
    <property name="mlt_service">avformat-novalidate</property>
    <property name="seekable">1</property>
    <property name="aspect_ratio">1</property>
    <property name="creation_time">2020-04-12T19:40:43</property>
    <property name="shotcut:hash">8ef8fab703d506ba08497a54257ebc1e</property>
    <property name="ignore_points">0</property>
    <property name="shotcut:caption">Serge_trompette_totoro.mp4</property>
    <property name="shotcut:skipConvert">1</property>
    <property name="global_feed">1</property>
    <property name="xml">was here</property>
    <filter id="filter1199" out="00:00:15.280000" in="00:00:08.320000">
      <property name="background">colour:0</property>
      <property name="mlt_service">affine</property>
      <property name="shotcut:filter">affineSizePosition</property>
      <property name="transition.fill">1</property>
      <property name="transition.distort">0</property>
      <property name="transition.rect">00:00:00.000000=1645.0 617.0 276.0 155.0 1;00:00:00.440000=1097.0 771.0 275.0 155.0 1</property>
      <property name="transition.valign">top</property>
      <property name="transition.halign">left</property>
      <property name="shotcut:animIn">00:00:00.480000</property>
      <property name="shotcut:animOut">00:00:00.000</property>
      <property name="transition.threads">0</property>
    </filter>
    <filter id="filter1200" out="00:00:15.280000" in="00:00:08.320000">
      <property name="window">75</property>
      <property name="max_gain">20dB</property>
      <property name="level">-8</property>
      <property name="mlt_service">volume</property>
    </filter>
    <filter id="filter1201" out="00:00:15.280000" in="00:00:08.320000">
      <property name="window">75</property>
      <property name="max_gain">20dB</property>
      <property name="mlt_service">volume</property>
      <property name="shotcut:filter">muteVolume</property>
      <property name="gain">0</property>
    </filter>
  </producer>
  <producer id="producer686" title="Anonymous Submission" in="00:00:00.000" out="00:03:02.520">
    <property name="length">00:03:02:14</property>
    <property name="eof">pause</property>
    <property name="resource">../../006 - Videos format youtube/Trompettes et cornets/Serge_trompette_totoro.mp4</property>
    <property name="audio_index">1</property>
    <property name="video_index">0</property>
    <property name="mute_on_pause">0</property>
    <property name="mlt_service">avformat-novalidate</property>
    <property name="seekable">1</property>
    <property name="aspect_ratio">1</property>
    <property name="creation_time">2020-04-12T19:40:43</property>
    <property name="shotcut:hash">8ef8fab703d506ba08497a54257ebc1e</property>
    <property name="ignore_points">0</property>
    <property name="shotcut:caption">Serge_trompette_totoro.mp4</property>
    <property name="shotcut:skipConvert">1</property>
    <property name="global_feed">1</property>
    <property name="xml">was here</property>
    <filter id="filter1202" out="00:00:49.280000" in="00:00:15.320000">
      <property name="background">colour:0</property>
      <property name="mlt_service">affine</property>
      <property name="shotcut:filter">affineSizePosition</property>
      <property name="transition.fill">1</property>
      <property name="transition.distort">0</property>
      <property name="transition.rect">0.0 810.0 241.0 136.0 1</property>
      <property name="transition.valign">top</property>
      <property name="transition.halign">left</property>
      <property name="shotcut:animIn">00:00:00.480000</property>
      <property name="shotcut:animOut">00:00:00.000</property>
      <property name="transition.threads">0</property>
    </filter>
    <filter id="filter1203" out="00:00:49.280000" in="00:00:15.320000">
      <property name="window">75</property>
      <property name="max_gain">20dB</property>
      <property name="level">-8</property>
      <property name="mlt_service">volume</property>
    </filter>
    <filter id="filter1204" out="00:00:49.280000" in="00:00:15.320000">
      <property name="window">75</property>
      <property name="max_gain">20dB</property>
      <property name="mlt_service">volume</property>
      <property name="shotcut:filter">muteVolume</property>
      <property name="gain">0</property>
    </filter>
  </producer>
  <producer id="producer687" title="Anonymous Submission" in="00:00:00.000" out="00:03:02.520">
    <property name="length">00:03:02:14</property>
    <property name="eof">pause</property>
    <property name="resource">../../006 - Videos format youtube/Trompettes et cornets/Serge_trompette_totoro.mp4</property>
    <property name="audio_index">1</property>
    <property name="video_index">0</property>
    <property name="mute_on_pause">0</property>
    <property name="mlt_service">avformat-novalidate</property>
    <property name="seekable">1</property>
    <property name="aspect_ratio">1</property>
    <property name="creation_time">2020-04-12T19:40:43</property>
    <property name="shotcut:hash">8ef8fab703d506ba08497a54257ebc1e</property>
    <property name="ignore_points">0</property>
    <property name="shotcut:caption">Serge_trompette_totoro.mp4</property>
    <property name="shotcut:skipConvert">1</property>
    <property name="global_feed">1</property>
    <property name="xml">was here</property>
    <filter id="filter1205" out="00:00:57.280000" in="00:00:49.320000">
      <property name="background">colour:0</property>
      <property name="mlt_service">affine</property>
      <property name="shotcut:filter">affineSizePosition</property>
      <property name="transition.fill">1</property>
      <property name="transition.distort">0</property>
      <property name="transition.rect">1645.0 617.0 275.0 155.0 1</property>
      <property name="transition.valign">top</property>
      <property name="transition.halign">left</property>
      <property name="shotcut:animIn">00:00:00.480000</property>
      <property name="shotcut:animOut">00:00:00.000</property>
      <property name="transition.threads">0</property>
    </filter>
    <filter id="filter1206" out="00:00:57.280000" in="00:00:49.320000">
      <property name="window">75</property>
      <property name="max_gain">20dB</property>
      <property name="level">-8</property>
      <property name="mlt_service">volume</property>
    </filter>
    <filter id="filter1207" out="00:00:57.280000" in="00:00:49.320000">
      <property name="window">75</property>
      <property name="max_gain">20dB</property>
      <property name="mlt_service">volume</property>
      <property name="shotcut:filter">muteVolume</property>
      <property name="gain">0</property>
    </filter>
  </producer>
  <producer id="producer688" title="Anonymous Submission" in="00:00:00.000" out="00:03:02.520">
    <property name="length">00:03:02:14</property>
    <property name="eof">pause</property>
    <property name="resource">../../006 - Videos format youtube/Trompettes et cornets/Serge_trompette_totoro.mp4</property>
    <property name="audio_index">1</property>
    <property name="video_index">0</property>
    <property name="mute_on_pause">0</property>
    <property name="mlt_service">avformat-novalidate</property>
    <property name="seekable">1</property>
    <property name="aspect_ratio">1</property>
    <property name="creation_time">2020-04-12T19:40:43</property>
    <property name="shotcut:hash">8ef8fab703d506ba08497a54257ebc1e</property>
    <property name="ignore_points">0</property>
    <property name="shotcut:caption">Serge_trompette_totoro.mp4</property>
    <property name="shotcut:skipConvert">1</property>
    <property name="global_feed">1</property>
    <property name="xml">was here</property>
    <filter id="filter1208" out="00:01:05.280000" in="00:00:57.320000">
      <property name="background">colour:0</property>
      <property name="mlt_service">affine</property>
      <property name="shotcut:filter">affineSizePosition</property>
      <property name="transition.fill">1</property>
      <property name="transition.distort">0</property>
      <property name="transition.rect">274.0 617.0 275.0 155.0 1</property>
      <property name="transition.valign">top</property>
      <property name="transition.halign">left</property>
      <property name="shotcut:animIn">00:00:00.480000</property>
      <property name="shotcut:animOut">00:00:00.000</property>
      <property name="transition.threads">0</property>
    </filter>
    <filter id="filter1209" out="00:01:05.280000" in="00:00:57.320000">
      <property name="window">75</property>
      <property name="max_gain">20dB</property>
      <property name="level">-8</property>
      <property name="mlt_service">volume</property>
    </filter>
    <filter id="filter1210" out="00:01:05.280000" in="00:00:57.320000">
      <property name="window">75</property>
      <property name="max_gain">20dB</property>
      <property name="mlt_service">volume</property>
      <property name="shotcut:filter">muteVolume</property>
      <property name="gain">0</property>
    </filter>
  </producer>
  <producer id="producer689" title="Anonymous Submission" in="00:00:00.000" out="00:03:02.520">
    <property name="length">00:03:02:14</property>
    <property name="eof">pause</property>
    <property name="resource">../../006 - Videos format youtube/Trompettes et cornets/Serge_trompette_totoro.mp4</property>
    <property name="audio_index">1</property>
    <property name="video_index">0</property>
    <property name="mute_on_pause">0</property>
    <property name="mlt_service">avformat-novalidate</property>
    <property name="seekable">1</property>
    <property name="aspect_ratio">1</property>
    <property name="creation_time">2020-04-12T19:40:43</property>
    <property name="shotcut:hash">8ef8fab703d506ba08497a54257ebc1e</property>
    <property name="ignore_points">0</property>
    <property name="shotcut:caption">Serge_trompette_totoro.mp4</property>
    <property name="shotcut:skipConvert">1</property>
    <property name="global_feed">1</property>
    <property name="xml">was here</property>
    <filter id="filter1211" out="00:01:12.280000" in="00:01:05.320000">
      <property name="background">colour:0</property>
      <property name="mlt_service">affine</property>
      <property name="shotcut:filter">affineSizePosition</property>
      <property name="transition.fill">1</property>
      <property name="transition.distort">0</property>
      <property name="transition.rect">1280.0 0.0 321.0 181.0 1</property>
      <property name="transition.valign">top</property>
      <property name="transition.halign">left</property>
      <property name="shotcut:animIn">00:00:00.480000</property>
      <property name="shotcut:animOut">00:00:00.000</property>
      <property name="transition.threads">0</property>
    </filter>
    <filter id="filter1212" out="00:01:12.280000" in="00:01:05.320000">
      <property name="window">75</property>
      <property name="max_gain">20dB</property>
      <property name="level">-8</property>
      <property name="mlt_service">volume</property>
    </filter>
    <filter id="filter1213" out="00:01:12.280000" in="00:01:05.320000">
      <property name="window">75</property>
      <property name="max_gain">20dB</property>
      <property name="mlt_service">volume</property>
      <property name="shotcut:filter">muteVolume</property>
      <property name="gain">0</property>
    </filter>
  </producer>
  <producer id="producer690" title="Anonymous Submission" in="00:00:00.000" out="00:03:02.520">
    <property name="length">00:03:02:14</property>
    <property name="eof">pause</property>
    <property name="resource">../../006 - Videos format youtube/Trompettes et cornets/Serge_trompette_totoro.mp4</property>
    <property name="audio_index">1</property>
    <property name="video_index">0</property>
    <property name="mute_on_pause">0</property>
    <property name="mlt_service">avformat-novalidate</property>
    <property name="seekable">1</property>
    <property name="aspect_ratio">1</property>
    <property name="creation_time">2020-04-12T19:40:43</property>
    <property name="shotcut:hash">8ef8fab703d506ba08497a54257ebc1e</property>
    <property name="ignore_points">0</property>
    <property name="shotcut:caption">Serge_trompette_totoro.mp4</property>
    <property name="shotcut:skipConvert">1</property>
    <property name="global_feed">1</property>
    <property name="xml">was here</property>
    <filter id="filter1214" out="00:01:20.280000" in="00:01:12.320000">
      <property name="background">colour:0</property>
      <property name="mlt_service">affine</property>
      <property name="shotcut:filter">affineSizePosition</property>
      <property name="transition.fill">1</property>
      <property name="transition.distort">0</property>
      <property name="transition.rect">1280.0 -360.0 321.0 181.0 1</property>
      <property name="transition.valign">top</property>
      <property name="transition.halign">left</property>
      <property name="shotcut:animIn">00:00:00.480000</property>
      <property name="shotcut:animOut">00:00:00.000</property>
      <property name="transition.threads">0</property>
    </filter>
    <filter id="filter1215" out="00:01:20.280000" in="00:01:12.320000">
      <property name="window">75</property>
      <property name="max_gain">20dB</property>
      <property name="level">-8</property>
      <property name="mlt_service">volume</property>
    </filter>
    <filter id="filter1216" out="00:01:20.280000" in="00:01:12.320000">
      <property name="window">75</property>
      <property name="max_gain">20dB</property>
      <property name="mlt_service">volume</property>
      <property name="shotcut:filter">muteVolume</property>
      <property name="gain">0</property>
    </filter>
  </producer>
  <producer id="producer691" title="Anonymous Submission" in="00:00:00.000" out="00:03:02.520">
    <property name="length">00:03:02:14</property>
    <property name="eof">pause</property>
    <property name="resource">../../006 - Videos format youtube/Trompettes et cornets/Serge_trompette_totoro.mp4</property>
    <property name="audio_index">1</property>
    <property name="video_index">0</property>
    <property name="mute_on_pause">0</property>
    <property name="mlt_service">avformat-novalidate</property>
    <property name="seekable">1</property>
    <property name="aspect_ratio">1</property>
    <property name="creation_time">2020-04-12T19:40:43</property>
    <property name="shotcut:hash">8ef8fab703d506ba08497a54257ebc1e</property>
    <property name="ignore_points">0</property>
    <property name="shotcut:caption">Serge_trompette_totoro.mp4</property>
    <property name="shotcut:skipConvert">1</property>
    <property name="global_feed">1</property>
    <property name="xml">was here</property>
    <filter id="filter1217" out="00:01:29.280000" in="00:01:20.320000">
      <property name="background">colour:0</property>
      <property name="mlt_service">affine</property>
      <property name="shotcut:filter">affineSizePosition</property>
      <property name="transition.fill">1</property>
      <property name="transition.distort">0</property>
      <property name="transition.rect">-548.0 -308.0 275.0 155.0 1</property>
      <property name="transition.valign">top</property>
      <property name="transition.halign">left</property>
      <property name="shotcut:animIn">00:00:00.480000</property>
      <property name="shotcut:animOut">00:00:00.000</property>
      <property name="transition.threads">0</property>
    </filter>
    <filter id="filter1218" out="00:01:29.280000" in="00:01:20.320000">
      <property name="window">75</property>
      <property name="max_gain">20dB</property>
      <property name="level">-8</property>
      <property name="mlt_service">volume</property>
    </filter>
    <filter id="filter1219" out="00:01:29.280000" in="00:01:20.320000">
      <property name="window">75</property>
      <property name="max_gain">20dB</property>
      <property name="mlt_service">volume</property>
      <property name="shotcut:filter">muteVolume</property>
      <property name="gain">0</property>
    </filter>
  </producer>
  <producer id="producer692" title="Anonymous Submission" in="00:00:00.000" out="00:03:02.520">
    <property name="length">00:03:02:14</property>
    <property name="eof">pause</property>
    <property name="resource">../../006 - Videos format youtube/Trompettes et cornets/Serge_trompette_totoro.mp4</property>
    <property name="audio_index">1</property>
    <property name="video_index">0</property>
    <property name="mute_on_pause">0</property>
    <property name="mlt_service">avformat-novalidate</property>
    <property name="seekable">1</property>
    <property name="aspect_ratio">1</property>
    <property name="creation_time">2020-04-12T19:40:43</property>
    <property name="shotcut:hash">8ef8fab703d506ba08497a54257ebc1e</property>
    <property name="ignore_points">0</property>
    <property name="shotcut:caption">Serge_trompette_totoro.mp4</property>
    <property name="shotcut:skipConvert">1</property>
    <property name="global_feed">1</property>
    <property name="xml">was here</property>
    <filter id="filter1220" out="00:01:36.280000" in="00:01:29.320000">
      <property name="background">colour:0</property>
      <property name="mlt_service">affine</property>
      <property name="shotcut:filter">affineSizePosition</property>
      <property name="transition.fill">1</property>
      <property name="transition.distort">0</property>
      <property name="transition.rect">1645.0 617.0 275.0 155.0 1</property>
      <property name="transition.valign">top</property>
      <property name="transition.halign">left</property>
      <property name="shotcut:animIn">00:00:00.480000</property>
      <property name="shotcut:animOut">00:00:00.000</property>
      <property name="transition.threads">0</property>
    </filter>
    <filter id="filter1221" out="00:01:36.280000" in="00:01:29.320000">
      <property name="window">75</property>
      <property name="max_gain">20dB</property>
      <property name="level">-8</property>
      <property name="mlt_service">volume</property>
    </filter>
    <filter id="filter1222" out="00:01:36.280000" in="00:01:29.320000">
      <property name="window">75</property>
      <property name="max_gain">20dB</property>
      <property name="mlt_service">volume</property>
      <property name="shotcut:filter">muteVolume</property>
      <property name="gain">0</property>
    </filter>
  </producer>
  <producer id="producer693" title="Anonymous Submission" in="00:00:00.000" out="00:03:02.520">
    <property name="length">00:03:02:14</property>
    <property name="eof">pause</property>
    <property name="resource">../../006 - Videos format youtube/Trompettes et cornets/Serge_trompette_totoro.mp4</property>
    <property name="audio_index">1</property>
    <property name="video_index">0</property>
    <property name="mute_on_pause">0</property>
    <property name="mlt_service">avformat-novalidate</property>
    <property name="seekable">1</property>
    <property name="aspect_ratio">1</property>
    <property name="creation_time">2020-04-12T19:40:43</property>
    <property name="shotcut:hash">8ef8fab703d506ba08497a54257ebc1e</property>
    <property name="ignore_points">0</property>
    <property name="shotcut:caption">Serge_trompette_totoro.mp4</property>
    <property name="shotcut:skipConvert">1</property>
    <property name="global_feed">1</property>
    <property name="xml">was here</property>
    <filter id="filter1223" out="00:03:02.520000" in="00:01:36.320000">
      <property name="background">colour:0</property>
      <property name="mlt_service">affine</property>
      <property name="shotcut:filter">affineSizePosition</property>
      <property name="transition.fill">1</property>
      <property name="transition.distort">0</property>
      <property name="transition.rect">-640.0 -360.0 321.0 181.0 1</property>
      <property name="transition.valign">top</property>
      <property name="transition.halign">left</property>
      <property name="shotcut:animIn">00:00:00.480000</property>
      <property name="shotcut:animOut">00:00:00.000</property>
      <property name="transition.threads">0</property>
    </filter>
    <filter id="filter1224" out="00:03:02.520000" in="00:01:36.320000">
      <property name="window">75</property>
      <property name="max_gain">20dB</property>
      <property name="level">-8</property>
      <property name="mlt_service">volume</property>
    </filter>
    <filter id="filter1225" out="00:03:02.520000" in="00:01:36.320000">
      <property name="window">75</property>
      <property name="max_gain">20dB</property>
      <property name="mlt_service">volume</property>
      <property name="shotcut:filter">muteVolume</property>
      <property name="gain">0</property>
    </filter>
  </producer>
  <playlist id="playlist39">
    <property name="shotcut:video">1</property>
    <property name="shotcut:name">Serge_arrive</property>
    <property name="shotcut:lock">1</property>
    <blank length="00:00:14.680" />
    <entry producer="producer684" in="00:00:00.000" out="00:00:08.280000" />
    <entry producer="producer685" in="00:00:08.320000" out="00:00:15.280000" />
    <entry producer="producer686" in="00:00:15.320000" out="00:00:49.280000" />
    <entry producer="producer687" in="00:00:49.320000" out="00:00:57.280000" />
    <entry producer="producer688" in="00:00:57.320000" out="00:01:05.280000" />
    <entry producer="producer689" in="00:01:05.320000" out="00:01:12.280000" />
    <entry producer="producer690" in="00:01:12.320000" out="00:01:20.280000" />
    <entry producer="producer691" in="00:01:20.320000" out="00:01:29.280000" />
    <entry producer="producer692" in="00:01:29.320000" out="00:01:36.280000" />
    <entry producer="producer693" in="00:01:36.320000" out="00:03:02.520000" />
    </playlist>
  <producer id="producer694" title="Anonymous Submission" in="00:00:00.000" out="00:03:24.360">
    <property name="length">00:03:24:10</property>
    <property name="eof">pause</property>
    <property name="resource">../../006 - Videos format youtube/Trompettes et cornets/Patrick_trompette_totoro_recadre.mp4</property>
    <property name="audio_index">1</property>
    <property name="video_index">0</property>
    <property name="mute_on_pause">0</property>
    <property name="mlt_service">avformat-novalidate</property>
    <property name="seekable">1</property>
    <property name="aspect_ratio">1</property>
    <property name="creation_time">2020-04-30T16:36:42</property>
    <property name="shotcut:hash">6d403b6511552862d61535ad4f275af7</property>
    <property name="ignore_points">0</property>
    <property name="shotcut:caption">Patrick_trompette_totoro_recadre.mp4</property>
    <property name="shotcut:skipConvert">1</property>
    <property name="global_feed">1</property>
    <property name="xml">was here</property>
    <filter id="filter1226" out="00:00:22.960000">
      <property name="background">colour:0</property>
      <property name="mlt_service">affine</property>
      <property name="shotcut:filter">affineSizePosition</property>
      <property name="transition.fill">1</property>
      <property name="transition.distort">0</property>
      <property name="transition.rect">822.0 771.0 275.0 155.0 1</property>
      <property name="transition.valign">top</property>
      <property name="transition.halign">left</property>
      <property name="shotcut:animIn">00:00:00.000</property>
      <property name="shotcut:animOut">00:00:00.000</property>
      <property name="transition.threads">0</property>
    </filter>
  </producer>
  <producer id="producer695" title="Anonymous Submission" in="00:00:00.000" out="00:03:24.360">
    <property name="length">00:03:24:10</property>
    <property name="eof">pause</property>
    <property name="resource">../../006 - Videos format youtube/Trompettes et cornets/Patrick_trompette_totoro_recadre.mp4</property>
    <property name="audio_index">1</property>
    <property name="video_index">0</property>
    <property name="mute_on_pause">0</property>
    <property name="mlt_service">avformat-novalidate</property>
    <property name="seekable">1</property>
    <property name="aspect_ratio">1</property>
    <property name="creation_time">2020-04-30T16:36:42</property>
    <property name="shotcut:hash">6d403b6511552862d61535ad4f275af7</property>
    <property name="ignore_points">0</property>
    <property name="shotcut:caption">Patrick_trompette_totoro_recadre.mp4</property>
    <property name="shotcut:skipConvert">1</property>
    <property name="global_feed">1</property>
    <property name="xml">was here</property>
    <filter id="filter1227" out="00:00:29.960000" in="00:00:23.000000">
      <property name="background">colour:0</property>
      <property name="mlt_service">affine</property>
      <property name="shotcut:filter">affineSizePosition</property>
      <property name="transition.fill">1</property>
      <property name="transition.distort">0</property>
      <property name="transition.rect">00:00:00.000000=822.0 771.0 276.0 155.0 1;00:00:00.440000=548.0 925.0 275.0 155.0 1</property>
      <property name="transition.valign">top</property>
      <property name="transition.halign">left</property>
      <property name="shotcut:animIn">00:00:00.480000</property>
      <property name="shotcut:animOut">00:00:00.000</property>
      <property name="transition.threads">0</property>
    </filter>
  </producer>
  <producer id="producer696" title="Anonymous Submission" in="00:00:00.000" out="00:03:24.360">
    <property name="length">00:03:24:10</property>
    <property name="eof">pause</property>
    <property name="resource">../../006 - Videos format youtube/Trompettes et cornets/Patrick_trompette_totoro_recadre.mp4</property>
    <property name="audio_index">1</property>
    <property name="video_index">0</property>
    <property name="mute_on_pause">0</property>
    <property name="mlt_service">avformat-novalidate</property>
    <property name="seekable">1</property>
    <property name="aspect_ratio">1</property>
    <property name="creation_time">2020-04-30T16:36:42</property>
    <property name="shotcut:hash">6d403b6511552862d61535ad4f275af7</property>
    <property name="ignore_points">0</property>
    <property name="shotcut:caption">Patrick_trompette_totoro_recadre.mp4</property>
    <property name="shotcut:skipConvert">1</property>
    <property name="global_feed">1</property>
    <property name="xml">was here</property>
    <filter id="filter1228" out="00:01:03.960000" in="00:00:30.000000">
      <property name="background">colour:0</property>
      <property name="mlt_service">affine</property>
      <property name="shotcut:filter">affineSizePosition</property>
      <property name="transition.fill">1</property>
      <property name="transition.distort">0</property>
      <property name="transition.rect">-480.0 -270.0 241.0 136.0 1</property>
      <property name="transition.valign">top</property>
      <property name="transition.halign">left</property>
      <property name="shotcut:animIn">00:00:00.480000</property>
      <property name="shotcut:animOut">00:00:00.000</property>
      <property name="transition.threads">0</property>
    </filter>
  </producer>
  <producer id="producer697" title="Anonymous Submission" in="00:00:00.000" out="00:03:24.360">
    <property name="length">00:03:24:10</property>
    <property name="eof">pause</property>
    <property name="resource">../../006 - Videos format youtube/Trompettes et cornets/Patrick_trompette_totoro_recadre.mp4</property>
    <property name="audio_index">1</property>
    <property name="video_index">0</property>
    <property name="mute_on_pause">0</property>
    <property name="mlt_service">avformat-novalidate</property>
    <property name="seekable">1</property>
    <property name="aspect_ratio">1</property>
    <property name="creation_time">2020-04-30T16:36:42</property>
    <property name="shotcut:hash">6d403b6511552862d61535ad4f275af7</property>
    <property name="ignore_points">0</property>
    <property name="shotcut:caption">Patrick_trompette_totoro_recadre.mp4</property>
    <property name="shotcut:skipConvert">1</property>
    <property name="global_feed">1</property>
    <property name="xml">was here</property>
    <filter id="filter1229" out="00:01:11.960000" in="00:01:04.000000">
      <property name="background">colour:0</property>
      <property name="mlt_service">affine</property>
      <property name="shotcut:filter">affineSizePosition</property>
      <property name="transition.fill">1</property>
      <property name="transition.distort">0</property>
      <property name="transition.rect">-822.0 -617.0 275.0 155.0 1</property>
      <property name="transition.valign">top</property>
      <property name="transition.halign">left</property>
      <property name="shotcut:animIn">00:00:00.480000</property>
      <property name="shotcut:animOut">00:00:00.000</property>
      <property name="transition.threads">0</property>
    </filter>
  </producer>
  <producer id="producer698" title="Anonymous Submission" in="00:00:00.000" out="00:03:24.360">
    <property name="length">00:03:24:10</property>
    <property name="eof">pause</property>
    <property name="resource">../../006 - Videos format youtube/Trompettes et cornets/Patrick_trompette_totoro_recadre.mp4</property>
    <property name="audio_index">1</property>
    <property name="video_index">0</property>
    <property name="mute_on_pause">0</property>
    <property name="mlt_service">avformat-novalidate</property>
    <property name="seekable">1</property>
    <property name="aspect_ratio">1</property>
    <property name="creation_time">2020-04-30T16:36:42</property>
    <property name="shotcut:hash">6d403b6511552862d61535ad4f275af7</property>
    <property name="ignore_points">0</property>
    <property name="shotcut:caption">Patrick_trompette_totoro_recadre.mp4</property>
    <property name="shotcut:skipConvert">1</property>
    <property name="global_feed">1</property>
    <property name="xml">was here</property>
    <filter id="filter1230" out="00:01:19.960000" in="00:01:12.000000">
      <property name="background">colour:0</property>
      <property name="mlt_service">affine</property>
      <property name="shotcut:filter">affineSizePosition</property>
      <property name="transition.fill">1</property>
      <property name="transition.distort">0</property>
      <property name="transition.rect">822.0 462.0 275.0 155.0 1</property>
      <property name="transition.valign">top</property>
      <property name="transition.halign">left</property>
      <property name="shotcut:animIn">00:00:00.480000</property>
      <property name="shotcut:animOut">00:00:00.000</property>
      <property name="transition.threads">0</property>
    </filter>
  </producer>
  <producer id="producer699" title="Anonymous Submission" in="00:00:00.000" out="00:03:24.360">
    <property name="length">00:03:24:10</property>
    <property name="eof">pause</property>
    <property name="resource">../../006 - Videos format youtube/Trompettes et cornets/Patrick_trompette_totoro_recadre.mp4</property>
    <property name="audio_index">1</property>
    <property name="video_index">0</property>
    <property name="mute_on_pause">0</property>
    <property name="mlt_service">avformat-novalidate</property>
    <property name="seekable">1</property>
    <property name="aspect_ratio">1</property>
    <property name="creation_time">2020-04-30T16:36:42</property>
    <property name="shotcut:hash">6d403b6511552862d61535ad4f275af7</property>
    <property name="ignore_points">0</property>
    <property name="shotcut:caption">Patrick_trompette_totoro_recadre.mp4</property>
    <property name="shotcut:skipConvert">1</property>
    <property name="global_feed">1</property>
    <property name="xml">was here</property>
    <filter id="filter1231" out="00:01:26.960000" in="00:01:20.000000">
      <property name="background">colour:0</property>
      <property name="mlt_service">affine</property>
      <property name="shotcut:filter">affineSizePosition</property>
      <property name="transition.fill">1</property>
      <property name="transition.distort">0</property>
      <property name="transition.rect">1600.0 0.0 321.0 181.0 1</property>
      <property name="transition.valign">top</property>
      <property name="transition.halign">left</property>
      <property name="shotcut:animIn">00:00:00.480000</property>
      <property name="shotcut:animOut">00:00:00.000</property>
      <property name="transition.threads">0</property>
    </filter>
  </producer>
  <producer id="producer700" title="Anonymous Submission" in="00:00:00.000" out="00:03:24.360">
    <property name="length">00:03:24:10</property>
    <property name="eof">pause</property>
    <property name="resource">../../006 - Videos format youtube/Trompettes et cornets/Patrick_trompette_totoro_recadre.mp4</property>
    <property name="audio_index">1</property>
    <property name="video_index">0</property>
    <property name="mute_on_pause">0</property>
    <property name="mlt_service">avformat-novalidate</property>
    <property name="seekable">1</property>
    <property name="aspect_ratio">1</property>
    <property name="creation_time">2020-04-30T16:36:42</property>
    <property name="shotcut:hash">6d403b6511552862d61535ad4f275af7</property>
    <property name="ignore_points">0</property>
    <property name="shotcut:caption">Patrick_trompette_totoro_recadre.mp4</property>
    <property name="shotcut:skipConvert">1</property>
    <property name="global_feed">1</property>
    <property name="xml">was here</property>
    <filter id="filter1232" out="00:01:34.960000" in="00:01:27.000000">
      <property name="background">colour:0</property>
      <property name="mlt_service">affine</property>
      <property name="shotcut:filter">affineSizePosition</property>
      <property name="transition.fill">1</property>
      <property name="transition.distort">0</property>
      <property name="transition.rect">1600.0 -360.0 321.0 181.0 1</property>
      <property name="transition.valign">top</property>
      <property name="transition.halign">left</property>
      <property name="shotcut:animIn">00:00:00.480000</property>
      <property name="shotcut:animOut">00:00:00.000</property>
      <property name="transition.threads">0</property>
    </filter>
  </producer>
  <producer id="producer701" title="Anonymous Submission" in="00:00:00.000" out="00:03:24.360">
    <property name="length">00:03:24:10</property>
    <property name="eof">pause</property>
    <property name="resource">../../006 - Videos format youtube/Trompettes et cornets/Patrick_trompette_totoro_recadre.mp4</property>
    <property name="audio_index">1</property>
    <property name="video_index">0</property>
    <property name="mute_on_pause">0</property>
    <property name="mlt_service">avformat-novalidate</property>
    <property name="seekable">1</property>
    <property name="aspect_ratio">1</property>
    <property name="creation_time">2020-04-30T16:36:42</property>
    <property name="shotcut:hash">6d403b6511552862d61535ad4f275af7</property>
    <property name="ignore_points">0</property>
    <property name="shotcut:caption">Patrick_trompette_totoro_recadre.mp4</property>
    <property name="shotcut:skipConvert">1</property>
    <property name="global_feed">1</property>
    <property name="xml">was here</property>
    <filter id="filter1233" out="00:01:43.960000" in="00:01:35.000000">
      <property name="background">colour:0</property>
      <property name="mlt_service">affine</property>
      <property name="shotcut:filter">affineSizePosition</property>
      <property name="transition.fill">1</property>
      <property name="transition.distort">0</property>
      <property name="transition.rect">-548.0 -308.0 275.0 155.0 1</property>
      <property name="transition.valign">top</property>
      <property name="transition.halign">left</property>
      <property name="shotcut:animIn">00:00:00.480000</property>
      <property name="shotcut:animOut">00:00:00.000</property>
      <property name="transition.threads">0</property>
    </filter>
  </producer>
  <producer id="producer702" title="Anonymous Submission" in="00:00:00.000" out="00:03:24.360">
    <property name="length">00:03:24:10</property>
    <property name="eof">pause</property>
    <property name="resource">../../006 - Videos format youtube/Trompettes et cornets/Patrick_trompette_totoro_recadre.mp4</property>
    <property name="audio_index">1</property>
    <property name="video_index">0</property>
    <property name="mute_on_pause">0</property>
    <property name="mlt_service">avformat-novalidate</property>
    <property name="seekable">1</property>
    <property name="aspect_ratio">1</property>
    <property name="creation_time">2020-04-30T16:36:42</property>
    <property name="shotcut:hash">6d403b6511552862d61535ad4f275af7</property>
    <property name="ignore_points">0</property>
    <property name="shotcut:caption">Patrick_trompette_totoro_recadre.mp4</property>
    <property name="shotcut:skipConvert">1</property>
    <property name="global_feed">1</property>
    <property name="xml">was here</property>
    <filter id="filter1234" out="00:01:50.960000" in="00:01:44.000000">
      <property name="background">colour:0</property>
      <property name="mlt_service">affine</property>
      <property name="shotcut:filter">affineSizePosition</property>
      <property name="transition.fill">1</property>
      <property name="transition.distort">0</property>
      <property name="transition.rect">-548.0 -308.0 275.0 155.0 1</property>
      <property name="transition.valign">top</property>
      <property name="transition.halign">left</property>
      <property name="shotcut:animIn">00:00:00.480000</property>
      <property name="shotcut:animOut">00:00:00.000</property>
      <property name="transition.threads">0</property>
    </filter>
  </producer>
  <producer id="producer703" title="Anonymous Submission" in="00:00:00.000" out="00:03:24.360">
    <property name="length">00:03:24:10</property>
    <property name="eof">pause</property>
    <property name="resource">../../006 - Videos format youtube/Trompettes et cornets/Patrick_trompette_totoro_recadre.mp4</property>
    <property name="audio_index">1</property>
    <property name="video_index">0</property>
    <property name="mute_on_pause">0</property>
    <property name="mlt_service">avformat-novalidate</property>
    <property name="seekable">1</property>
    <property name="aspect_ratio">1</property>
    <property name="creation_time">2020-04-30T16:36:42</property>
    <property name="shotcut:hash">6d403b6511552862d61535ad4f275af7</property>
    <property name="ignore_points">0</property>
    <property name="shotcut:caption">Patrick_trompette_totoro_recadre.mp4</property>
    <property name="shotcut:skipConvert">1</property>
    <property name="global_feed">1</property>
    <property name="xml">was here</property>
    <filter id="filter1235" out="00:03:24.360" in="00:01:51.000000">
      <property name="background">colour:0</property>
      <property name="mlt_service">affine</property>
      <property name="shotcut:filter">affineSizePosition</property>
      <property name="transition.fill">1</property>
      <property name="transition.distort">0</property>
      <property name="transition.rect">640.0 0.0 641.0 361.0 1</property>
      <property name="transition.valign">top</property>
      <property name="transition.halign">left</property>
      <property name="shotcut:animIn">00:00:00.480000</property>
      <property name="shotcut:animOut">00:00:00.000</property>
      <property name="transition.threads">0</property>
    </filter>
  </producer>
  <playlist id="playlist40">
    <property name="shotcut:video">1</property>
    <property name="shotcut:name">Patrick trompette recadre</property>
    <property name="shotcut:lock">1</property>
    <entry producer="producer694" in="00:00:00.000" out="00:00:22.960000" />
  <entry producer="producer695" in="00:00:23.000000" out="00:00:29.960000" />
  <entry producer="producer696" in="00:00:30.000000" out="00:01:03.960000" />
  <entry producer="producer697" in="00:01:04.000000" out="00:01:11.960000" />
  <entry producer="producer698" in="00:01:12.000000" out="00:01:19.960000" />
  <entry producer="producer699" in="00:01:20.000000" out="00:01:26.960000" />
  <entry producer="producer700" in="00:01:27.000000" out="00:01:34.960000" />
  <entry producer="producer701" in="00:01:35.000000" out="00:01:43.960000" />
  <entry producer="producer702" in="00:01:44.000000" out="00:01:50.960000" />
  <entry producer="producer703" in="00:01:51.000000" out="00:03:24.360" />
  </playlist>
  <producer id="producer704" title="Anonymous Submission" in="00:00:00.000" out="00:03:23.200">
    <property name="length">00:03:23:06</property>
    <property name="eof">pause</property>
    <property name="resource">../../006 - Videos format youtube/Trompettes et cornets/Marianne_trompette_totoro.mp4</property>
    <property name="audio_index">1</property>
    <property name="video_index">0</property>
    <property name="mute_on_pause">0</property>
    <property name="mlt_service">avformat-novalidate</property>
    <property name="seekable">1</property>
    <property name="aspect_ratio">1</property>
    <property name="creation_time">2020-04-17T16:46:13</property>
    <property name="shotcut:hash">028a5d33b6622364c3abee360843bcb6</property>
    <property name="ignore_points">0</property>
    <property name="shotcut:caption">Marianne_trompette_totoro.mp4</property>
    <property name="shotcut:skipConvert">1</property>
    <property name="global_feed">1</property>
    <property name="xml">was here</property>
    <filter id="filter1236" out="00:00:21.840000">
      <property name="background">colour:0</property>
      <property name="mlt_service">affine</property>
      <property name="shotcut:filter">affineSizePosition</property>
      <property name="transition.fill">1</property>
      <property name="transition.distort">0</property>
      <property name="transition.rect">1645.0 154.0 275.0 155.0 1</property>
      <property name="transition.valign">top</property>
      <property name="transition.halign">left</property>
      <property name="shotcut:animIn">00:00:00.000</property>
      <property name="shotcut:animOut">00:00:00.000</property>
      <property name="transition.threads">0</property>
    </filter>
  </producer>
  <producer id="producer705" title="Anonymous Submission" in="00:00:00.000" out="00:03:23.200">
    <property name="length">00:03:23:06</property>
    <property name="eof">pause</property>
    <property name="resource">../../006 - Videos format youtube/Trompettes et cornets/Marianne_trompette_totoro.mp4</property>
    <property name="audio_index">1</property>
    <property name="video_index">0</property>
    <property name="mute_on_pause">0</property>
    <property name="mlt_service">avformat-novalidate</property>
    <property name="seekable">1</property>
    <property name="aspect_ratio">1</property>
    <property name="creation_time">2020-04-17T16:46:13</property>
    <property name="shotcut:hash">028a5d33b6622364c3abee360843bcb6</property>
    <property name="ignore_points">0</property>
    <property name="shotcut:caption">Marianne_trompette_totoro.mp4</property>
    <property name="shotcut:skipConvert">1</property>
    <property name="global_feed">1</property>
    <property name="xml">was here</property>
    <filter id="filter1237" out="00:00:28.840000" in="00:00:21.880000">
      <property name="background">colour:0</property>
      <property name="mlt_service">affine</property>
      <property name="shotcut:filter">affineSizePosition</property>
      <property name="transition.fill">1</property>
      <property name="transition.distort">0</property>
      <property name="transition.rect">00:00:00.000000=1645.0 154.0 276.0 155.0 1;00:00:00.440000=274.0 771.0 275.0 155.0 1</property>
      <property name="transition.valign">top</property>
      <property name="transition.halign">left</property>
      <property name="shotcut:animIn">00:00:00.480000</property>
      <property name="shotcut:animOut">00:00:00.000</property>
      <property name="transition.threads">0</property>
    </filter>
  </producer>
  <producer id="producer706" title="Anonymous Submission" in="00:00:00.000" out="00:03:23.200">
    <property name="length">00:03:23:06</property>
    <property name="eof">pause</property>
    <property name="resource">../../006 - Videos format youtube/Trompettes et cornets/Marianne_trompette_totoro.mp4</property>
    <property name="audio_index">1</property>
    <property name="video_index">0</property>
    <property name="mute_on_pause">0</property>
    <property name="mlt_service">avformat-novalidate</property>
    <property name="seekable">1</property>
    <property name="aspect_ratio">1</property>
    <property name="creation_time">2020-04-17T16:46:13</property>
    <property name="shotcut:hash">028a5d33b6622364c3abee360843bcb6</property>
    <property name="ignore_points">0</property>
    <property name="shotcut:caption">Marianne_trompette_totoro.mp4</property>
    <property name="shotcut:skipConvert">1</property>
    <property name="global_feed">1</property>
    <property name="xml">was here</property>
    <filter id="filter1238" out="00:01:02.840000" in="00:00:28.880000">
      <property name="background">colour:0</property>
      <property name="mlt_service">affine</property>
      <property name="shotcut:filter">affineSizePosition</property>
      <property name="transition.fill">1</property>
      <property name="transition.distort">0</property>
      <property name="transition.rect">0.0 675.0 241.0 136.0 1</property>
      <property name="transition.valign">top</property>
      <property name="transition.halign">left</property>
      <property name="shotcut:animIn">00:00:00.480000</property>
      <property name="shotcut:animOut">00:00:00.000</property>
      <property name="transition.threads">0</property>
    </filter>
  </producer>
  <producer id="producer707" title="Anonymous Submission" in="00:00:00.000" out="00:03:23.200">
    <property name="length">00:03:23:06</property>
    <property name="eof">pause</property>
    <property name="resource">../../006 - Videos format youtube/Trompettes et cornets/Marianne_trompette_totoro.mp4</property>
    <property name="audio_index">1</property>
    <property name="video_index">0</property>
    <property name="mute_on_pause">0</property>
    <property name="mlt_service">avformat-novalidate</property>
    <property name="seekable">1</property>
    <property name="aspect_ratio">1</property>
    <property name="creation_time">2020-04-17T16:46:13</property>
    <property name="shotcut:hash">028a5d33b6622364c3abee360843bcb6</property>
    <property name="ignore_points">0</property>
    <property name="shotcut:caption">Marianne_trompette_totoro.mp4</property>
    <property name="shotcut:skipConvert">1</property>
    <property name="global_feed">1</property>
    <property name="xml">was here</property>
    <filter id="filter1239" out="00:01:10.840000" in="00:01:02.880000">
      <property name="background">colour:0</property>
      <property name="mlt_service">affine</property>
      <property name="shotcut:filter">affineSizePosition</property>
      <property name="transition.fill">1</property>
      <property name="transition.distort">0</property>
      <property name="transition.rect">1097.0 154.0 823.0 463.0 1</property>
      <property name="transition.valign">top</property>
      <property name="transition.halign">left</property>
      <property name="shotcut:animIn">00:00:00.480000</property>
      <property name="shotcut:animOut">00:00:00.000</property>
      <property name="transition.threads">0</property>
    </filter>
  </producer>
  <producer id="producer708" title="Anonymous Submission" in="00:00:00.000" out="00:03:23.200">
    <property name="length">00:03:23:06</property>
    <property name="eof">pause</property>
    <property name="resource">../../006 - Videos format youtube/Trompettes et cornets/Marianne_trompette_totoro.mp4</property>
    <property name="audio_index">1</property>
    <property name="video_index">0</property>
    <property name="mute_on_pause">0</property>
    <property name="mlt_service">avformat-novalidate</property>
    <property name="seekable">1</property>
    <property name="aspect_ratio">1</property>
    <property name="creation_time">2020-04-17T16:46:13</property>
    <property name="shotcut:hash">028a5d33b6622364c3abee360843bcb6</property>
    <property name="ignore_points">0</property>
    <property name="shotcut:caption">Marianne_trompette_totoro.mp4</property>
    <property name="shotcut:skipConvert">1</property>
    <property name="global_feed">1</property>
    <property name="xml">was here</property>
    <filter id="filter1240" out="00:01:18.840000" in="00:01:10.880000">
      <property name="background">colour:0</property>
      <property name="mlt_service">affine</property>
      <property name="shotcut:filter">affineSizePosition</property>
      <property name="transition.fill">1</property>
      <property name="transition.distort">0</property>
      <property name="transition.rect">-548.0 -462.0 -273.0 -153.0 1</property>
      <property name="transition.valign">top</property>
      <property name="transition.halign">left</property>
      <property name="shotcut:animIn">00:00:00.480000</property>
      <property name="shotcut:animOut">00:00:00.000</property>
      <property name="transition.threads">0</property>
    </filter>
  </producer>
  <producer id="producer709" title="Anonymous Submission" in="00:00:00.000" out="00:03:23.200">
    <property name="length">00:03:23:06</property>
    <property name="eof">pause</property>
    <property name="resource">../../006 - Videos format youtube/Trompettes et cornets/Marianne_trompette_totoro.mp4</property>
    <property name="audio_index">1</property>
    <property name="video_index">0</property>
    <property name="mute_on_pause">0</property>
    <property name="mlt_service">avformat-novalidate</property>
    <property name="seekable">1</property>
    <property name="aspect_ratio">1</property>
    <property name="creation_time">2020-04-17T16:46:13</property>
    <property name="shotcut:hash">028a5d33b6622364c3abee360843bcb6</property>
    <property name="ignore_points">0</property>
    <property name="shotcut:caption">Marianne_trompette_totoro.mp4</property>
    <property name="shotcut:skipConvert">1</property>
    <property name="global_feed">1</property>
    <property name="xml">was here</property>
    <filter id="filter1241" out="00:01:25.840000" in="00:01:18.880000">
      <property name="background">colour:0</property>
      <property name="mlt_service">affine</property>
      <property name="shotcut:filter">affineSizePosition</property>
      <property name="transition.fill">1</property>
      <property name="transition.distort">0</property>
      <property name="transition.rect">960.0 180.0 321.0 181.0 1</property>
      <property name="transition.valign">top</property>
      <property name="transition.halign">left</property>
      <property name="shotcut:animIn">00:00:00.480000</property>
      <property name="shotcut:animOut">00:00:00.000</property>
      <property name="transition.threads">0</property>
    </filter>
  </producer>
  <producer id="producer710" title="Anonymous Submission" in="00:00:00.000" out="00:03:23.200">
    <property name="length">00:03:23:06</property>
    <property name="eof">pause</property>
    <property name="resource">../../006 - Videos format youtube/Trompettes et cornets/Marianne_trompette_totoro.mp4</property>
    <property name="audio_index">1</property>
    <property name="video_index">0</property>
    <property name="mute_on_pause">0</property>
    <property name="mlt_service">avformat-novalidate</property>
    <property name="seekable">1</property>
    <property name="aspect_ratio">1</property>
    <property name="creation_time">2020-04-17T16:46:13</property>
    <property name="shotcut:hash">028a5d33b6622364c3abee360843bcb6</property>
    <property name="ignore_points">0</property>
    <property name="shotcut:caption">Marianne_trompette_totoro.mp4</property>
    <property name="shotcut:skipConvert">1</property>
    <property name="global_feed">1</property>
    <property name="xml">was here</property>
    <filter id="filter1242" out="00:01:33.840000" in="00:01:25.880000">
      <property name="background">colour:0</property>
      <property name="mlt_service">affine</property>
      <property name="shotcut:filter">affineSizePosition</property>
      <property name="transition.fill">1</property>
      <property name="transition.distort">0</property>
      <property name="transition.rect">960.0 -540.0 321.0 181.0 1</property>
      <property name="transition.valign">top</property>
      <property name="transition.halign">left</property>
      <property name="shotcut:animIn">00:00:00.480000</property>
      <property name="shotcut:animOut">00:00:00.000</property>
      <property name="transition.threads">0</property>
    </filter>
  </producer>
  <producer id="producer711" title="Anonymous Submission" in="00:00:00.000" out="00:03:23.200">
    <property name="length">00:03:23:06</property>
    <property name="eof">pause</property>
    <property name="resource">../../006 - Videos format youtube/Trompettes et cornets/Marianne_trompette_totoro.mp4</property>
    <property name="audio_index">1</property>
    <property name="video_index">0</property>
    <property name="mute_on_pause">0</property>
    <property name="mlt_service">avformat-novalidate</property>
    <property name="seekable">1</property>
    <property name="aspect_ratio">1</property>
    <property name="creation_time">2020-04-17T16:46:13</property>
    <property name="shotcut:hash">028a5d33b6622364c3abee360843bcb6</property>
    <property name="ignore_points">0</property>
    <property name="shotcut:caption">Marianne_trompette_totoro.mp4</property>
    <property name="shotcut:skipConvert">1</property>
    <property name="global_feed">1</property>
    <property name="xml">was here</property>
    <filter id="filter1243" out="00:01:42.840000" in="00:01:33.880000">
      <property name="background">colour:0</property>
      <property name="mlt_service">affine</property>
      <property name="shotcut:filter">affineSizePosition</property>
      <property name="transition.fill">1</property>
      <property name="transition.distort">0</property>
      <property name="transition.rect">-548.0 -308.0 275.0 155.0 1</property>
      <property name="transition.valign">top</property>
      <property name="transition.halign">left</property>
      <property name="shotcut:animIn">00:00:00.480000</property>
      <property name="shotcut:animOut">00:00:00.000</property>
      <property name="transition.threads">0</property>
    </filter>
  </producer>
  <producer id="producer712" title="Anonymous Submission" in="00:00:00.000" out="00:03:23.200">
    <property name="length">00:03:23:06</property>
    <property name="eof">pause</property>
    <property name="resource">../../006 - Videos format youtube/Trompettes et cornets/Marianne_trompette_totoro.mp4</property>
    <property name="audio_index">1</property>
    <property name="video_index">0</property>
    <property name="mute_on_pause">0</property>
    <property name="mlt_service">avformat-novalidate</property>
    <property name="seekable">1</property>
    <property name="aspect_ratio">1</property>
    <property name="creation_time">2020-04-17T16:46:13</property>
    <property name="shotcut:hash">028a5d33b6622364c3abee360843bcb6</property>
    <property name="ignore_points">0</property>
    <property name="shotcut:caption">Marianne_trompette_totoro.mp4</property>
    <property name="shotcut:skipConvert">1</property>
    <property name="global_feed">1</property>
    <property name="xml">was here</property>
    <filter id="filter1244" out="00:01:49.840000" in="00:01:42.880000">
      <property name="background">colour:0</property>
      <property name="mlt_service">affine</property>
      <property name="shotcut:filter">affineSizePosition</property>
      <property name="transition.fill">1</property>
      <property name="transition.distort">0</property>
      <property name="transition.rect">-548.0 -308.0 275.0 155.0 1</property>
      <property name="transition.valign">top</property>
      <property name="transition.halign">left</property>
      <property name="shotcut:animIn">00:00:00.480000</property>
      <property name="shotcut:animOut">00:00:00.000</property>
      <property name="transition.threads">0</property>
    </filter>
  </producer>
  <producer id="producer713" title="Anonymous Submission" in="00:00:00.000" out="00:03:23.200">
    <property name="length">00:03:23:06</property>
    <property name="eof">pause</property>
    <property name="resource">../../006 - Videos format youtube/Trompettes et cornets/Marianne_trompette_totoro.mp4</property>
    <property name="audio_index">1</property>
    <property name="video_index">0</property>
    <property name="mute_on_pause">0</property>
    <property name="mlt_service">avformat-novalidate</property>
    <property name="seekable">1</property>
    <property name="aspect_ratio">1</property>
    <property name="creation_time">2020-04-17T16:46:13</property>
    <property name="shotcut:hash">028a5d33b6622364c3abee360843bcb6</property>
    <property name="ignore_points">0</property>
    <property name="shotcut:caption">Marianne_trompette_totoro.mp4</property>
    <property name="shotcut:skipConvert">1</property>
    <property name="global_feed">1</property>
    <property name="xml">was here</property>
    <filter id="filter1245" out="00:03:23.200000" in="00:01:49.880000">
      <property name="background">colour:0</property>
      <property name="mlt_service">affine</property>
      <property name="shotcut:filter">affineSizePosition</property>
      <property name="transition.fill">1</property>
      <property name="transition.distort">0</property>
      <property name="transition.rect">-640.0 -360.0 321.0 181.0 1</property>
      <property name="transition.valign">top</property>
      <property name="transition.halign">left</property>
      <property name="shotcut:animIn">00:00:00.480000</property>
      <property name="shotcut:animOut">00:00:00.000</property>
      <property name="transition.threads">0</property>
    </filter>
  </producer>
  <playlist id="playlist41">
    <property name="shotcut:video">1</property>
    <property name="shotcut:name">Marianne</property>
    <property name="shotcut:lock">1</property>
    <blank length="00:00:01.120" />
    <entry producer="producer704" in="00:00:00.000" out="00:00:21.840000" />
    <entry producer="producer705" in="00:00:21.880000" out="00:00:28.840000" />
    <entry producer="producer706" in="00:00:28.880000" out="00:01:02.840000" />
    <entry producer="producer707" in="00:01:02.880000" out="00:01:10.840000" />
    <entry producer="producer708" in="00:01:10.880000" out="00:01:18.840000" />
    <entry producer="producer709" in="00:01:18.880000" out="00:01:25.840000" />
    <entry producer="producer710" in="00:01:25.880000" out="00:01:33.840000" />
    <entry producer="producer711" in="00:01:33.880000" out="00:01:42.840000" />
    <entry producer="producer712" in="00:01:42.880000" out="00:01:49.840000" />
    <entry producer="producer713" in="00:01:49.880000" out="00:03:23.200000" />
    <filter id="filter1246" out="00:03:24.360">
      <property name="window">75</property>
      <property name="max_gain">20dB</property>
      <property name="level">-5</property>
      <property name="mlt_service">volume</property>
    </filter>
  </playlist>
  <producer id="producer714" title="Anonymous Submission" in="00:00:00.000" out="00:03:26.280">
    <property name="length">00:03:26:08</property>
    <property name="eof">pause</property>
    <property name="resource">../../006 - Videos format youtube/Tuba/Svoisine_tuba.mp4</property>
    <property name="audio_index">1</property>
    <property name="video_index">0</property>
    <property name="mute_on_pause">0</property>
    <property name="mlt_service">avformat-novalidate</property>
    <property name="seekable">1</property>
    <property name="aspect_ratio">1</property>
    <property name="creation_time">2020-04-11T08:39:47</property>
    <property name="shotcut:hash">8494f33c31e06cf5728dcdd20ff8db58</property>
    <property name="ignore_points">0</property>
    <property name="shotcut:caption">Svoisine_tuba.mp4</property>
    <property name="shotcut:skipConvert">1</property>
    <property name="global_feed">1</property>
    <property name="xml">was here</property>
    <filter id="filter1247" in="00:00:09.680" out="00:00:27.360000">
      <property name="background">colour:0</property>
      <property name="mlt_service">affine</property>
      <property name="shotcut:filter">affineSizePosition</property>
      <property name="transition.fill">1</property>
      <property name="transition.distort">0</property>
      <property name="transition.rect">1371.0 0.0 275.0 155.0 1</property>
      <property name="transition.valign">top</property>
      <property name="transition.halign">left</property>
      <property name="shotcut:animIn">00:00:00.000</property>
      <property name="shotcut:animOut">00:00:00.000</property>
      <property name="transition.threads">0</property>
    </filter>
    <filter id="filter1248" in="00:00:09.680" out="00:00:27.360000">
      <property name="window">75</property>
      <property name="max_gain">20dB</property>
      <property name="mlt_service">volume</property>
      <property name="shotcut:filter">muteVolume</property>
      <property name="gain">0</property>
    </filter>
  </producer>
  <producer id="producer715" title="Anonymous Submission" in="00:00:00.000" out="00:03:26.280">
    <property name="length">00:03:26:08</property>
    <property name="eof">pause</property>
    <property name="resource">../../006 - Videos format youtube/Tuba/Svoisine_tuba.mp4</property>
    <property name="audio_index">1</property>
    <property name="video_index">0</property>
    <property name="mute_on_pause">0</property>
    <property name="mlt_service">avformat-novalidate</property>
    <property name="seekable">1</property>
    <property name="aspect_ratio">1</property>
    <property name="creation_time">2020-04-11T08:39:47</property>
    <property name="shotcut:hash">8494f33c31e06cf5728dcdd20ff8db58</property>
    <property name="ignore_points">0</property>
    <property name="shotcut:caption">Svoisine_tuba.mp4</property>
    <property name="shotcut:skipConvert">1</property>
    <property name="global_feed">1</property>
    <property name="xml">was here</property>
    <filter id="filter1249" in="00:00:27.400000" out="00:00:34.360000">
      <property name="background">colour:0</property>
      <property name="mlt_service">affine</property>
      <property name="shotcut:filter">affineSizePosition</property>
      <property name="transition.fill">1</property>
      <property name="transition.distort">0</property>
      <property name="transition.rect">00:00:00.000000=1371.0 0.0 276.0 155.0 1;00:00:00.440000=822.0 925.0 275.0 155.0 1</property>
      <property name="transition.valign">top</property>
      <property name="transition.halign">left</property>
      <property name="shotcut:animIn">00:00:00.480000</property>
      <property name="shotcut:animOut">00:00:00.000</property>
      <property name="transition.threads">0</property>
    </filter>
    <filter id="filter1250" in="00:00:27.400000" out="00:00:34.360000">
      <property name="window">75</property>
      <property name="max_gain">20dB</property>
      <property name="mlt_service">volume</property>
      <property name="shotcut:filter">muteVolume</property>
      <property name="gain">0</property>
    </filter>
  </producer>
  <producer id="producer716" title="Anonymous Submission" in="00:00:00.000" out="00:03:26.280">
    <property name="length">00:03:26:08</property>
    <property name="eof">pause</property>
    <property name="resource">../../006 - Videos format youtube/Tuba/Svoisine_tuba.mp4</property>
    <property name="audio_index">1</property>
    <property name="video_index">0</property>
    <property name="mute_on_pause">0</property>
    <property name="mlt_service">avformat-novalidate</property>
    <property name="seekable">1</property>
    <property name="aspect_ratio">1</property>
    <property name="creation_time">2020-04-11T08:39:47</property>
    <property name="shotcut:hash">8494f33c31e06cf5728dcdd20ff8db58</property>
    <property name="ignore_points">0</property>
    <property name="shotcut:caption">Svoisine_tuba.mp4</property>
    <property name="shotcut:skipConvert">1</property>
    <property name="global_feed">1</property>
    <property name="xml">was here</property>
    <filter id="filter1251" in="00:00:34.400000" out="00:01:08.360000">
      <property name="background">colour:0</property>
      <property name="mlt_service">affine</property>
      <property name="shotcut:filter">affineSizePosition</property>
      <property name="transition.fill">1</property>
      <property name="transition.distort">0</property>
      <property name="transition.rect">0.0 1080.0 241.0 136.0 1</property>
      <property name="transition.valign">top</property>
      <property name="transition.halign">left</property>
      <property name="shotcut:animIn">00:00:00.480000</property>
      <property name="shotcut:animOut">00:00:00.000</property>
      <property name="transition.threads">0</property>
    </filter>
    <filter id="filter1252" in="00:00:34.400000" out="00:01:08.360000">
      <property name="window">75</property>
      <property name="max_gain">20dB</property>
      <property name="mlt_service">volume</property>
      <property name="shotcut:filter">muteVolume</property>
      <property name="gain">0</property>
    </filter>
  </producer>
  <producer id="producer717" title="Anonymous Submission" in="00:00:00.000" out="00:03:26.280">
    <property name="length">00:03:26:08</property>
    <property name="eof">pause</property>
    <property name="resource">../../006 - Videos format youtube/Tuba/Svoisine_tuba.mp4</property>
    <property name="audio_index">1</property>
    <property name="video_index">0</property>
    <property name="mute_on_pause">0</property>
    <property name="mlt_service">avformat-novalidate</property>
    <property name="seekable">1</property>
    <property name="aspect_ratio">1</property>
    <property name="creation_time">2020-04-11T08:39:47</property>
    <property name="shotcut:hash">8494f33c31e06cf5728dcdd20ff8db58</property>
    <property name="ignore_points">0</property>
    <property name="shotcut:caption">Svoisine_tuba.mp4</property>
    <property name="shotcut:skipConvert">1</property>
    <property name="global_feed">1</property>
    <property name="xml">was here</property>
    <filter id="filter1253" in="00:01:08.400000" out="00:01:16.360000">
      <property name="background">colour:0</property>
      <property name="mlt_service">affine</property>
      <property name="shotcut:filter">affineSizePosition</property>
      <property name="transition.fill">1</property>
      <property name="transition.distort">0</property>
      <property name="transition.rect">1371.0 0.0 275.0 155.0 1</property>
      <property name="transition.valign">top</property>
      <property name="transition.halign">left</property>
      <property name="shotcut:animIn">00:00:00.480000</property>
      <property name="shotcut:animOut">00:00:00.000</property>
      <property name="transition.threads">0</property>
    </filter>
    <filter id="filter1254" in="00:01:08.400000" out="00:01:16.360000">
      <property name="window">75</property>
      <property name="max_gain">20dB</property>
      <property name="mlt_service">volume</property>
      <property name="shotcut:filter">muteVolume</property>
      <property name="gain">0</property>
    </filter>
  </producer>
  <producer id="producer718" title="Anonymous Submission" in="00:00:00.000" out="00:03:26.280">
    <property name="length">00:03:26:08</property>
    <property name="eof">pause</property>
    <property name="resource">../../006 - Videos format youtube/Tuba/Svoisine_tuba.mp4</property>
    <property name="audio_index">1</property>
    <property name="video_index">0</property>
    <property name="mute_on_pause">0</property>
    <property name="mlt_service">avformat-novalidate</property>
    <property name="seekable">1</property>
    <property name="aspect_ratio">1</property>
    <property name="creation_time">2020-04-11T08:39:47</property>
    <property name="shotcut:hash">8494f33c31e06cf5728dcdd20ff8db58</property>
    <property name="ignore_points">0</property>
    <property name="shotcut:caption">Svoisine_tuba.mp4</property>
    <property name="shotcut:skipConvert">1</property>
    <property name="global_feed">1</property>
    <property name="xml">was here</property>
    <filter id="filter1255" in="00:01:16.400000" out="00:01:24.360000">
      <property name="background">colour:0</property>
      <property name="mlt_service">affine</property>
      <property name="shotcut:filter">affineSizePosition</property>
      <property name="transition.fill">1</property>
      <property name="transition.distort">0</property>
      <property name="transition.rect">0.0 154.0 823.0 463.0 1</property>
      <property name="transition.valign">top</property>
      <property name="transition.halign">left</property>
      <property name="shotcut:animIn">00:00:00.480000</property>
      <property name="shotcut:animOut">00:00:00.000</property>
      <property name="transition.threads">0</property>
    </filter>
    <filter id="filter1256" in="00:01:16.400000" out="00:01:24.360000">
      <property name="window">75</property>
      <property name="max_gain">20dB</property>
      <property name="mlt_service">volume</property>
      <property name="shotcut:filter">muteVolume</property>
      <property name="gain">0</property>
    </filter>
  </producer>
  <producer id="producer719" title="Anonymous Submission" in="00:00:00.000" out="00:03:26.280">
    <property name="length">00:03:26:08</property>
    <property name="eof">pause</property>
    <property name="resource">../../006 - Videos format youtube/Tuba/Svoisine_tuba.mp4</property>
    <property name="audio_index">1</property>
    <property name="video_index">0</property>
    <property name="mute_on_pause">0</property>
    <property name="mlt_service">avformat-novalidate</property>
    <property name="seekable">1</property>
    <property name="aspect_ratio">1</property>
    <property name="creation_time">2020-04-11T08:39:47</property>
    <property name="shotcut:hash">8494f33c31e06cf5728dcdd20ff8db58</property>
    <property name="ignore_points">0</property>
    <property name="shotcut:caption">Svoisine_tuba.mp4</property>
    <property name="shotcut:skipConvert">1</property>
    <property name="global_feed">1</property>
    <property name="xml">was here</property>
    <filter id="filter1257" in="00:01:24.400000" out="00:01:31.360000">
      <property name="background">colour:0</property>
      <property name="mlt_service">affine</property>
      <property name="shotcut:filter">affineSizePosition</property>
      <property name="transition.fill">1</property>
      <property name="transition.distort">0</property>
      <property name="transition.rect">960.0 360.0 321.0 181.0 1</property>
      <property name="transition.valign">top</property>
      <property name="transition.halign">left</property>
      <property name="shotcut:animIn">00:00:00.480000</property>
      <property name="shotcut:animOut">00:00:00.000</property>
      <property name="transition.threads">0</property>
    </filter>
    <filter id="filter1258" in="00:01:24.400000" out="00:01:31.360000">
      <property name="window">75</property>
      <property name="max_gain">20dB</property>
      <property name="mlt_service">volume</property>
      <property name="shotcut:filter">muteVolume</property>
      <property name="gain">0</property>
    </filter>
  </producer>
  <producer id="producer720" title="Anonymous Submission" in="00:00:00.000" out="00:03:26.280">
    <property name="length">00:03:26:08</property>
    <property name="eof">pause</property>
    <property name="resource">../../006 - Videos format youtube/Tuba/Svoisine_tuba.mp4</property>
    <property name="audio_index">1</property>
    <property name="video_index">0</property>
    <property name="mute_on_pause">0</property>
    <property name="mlt_service">avformat-novalidate</property>
    <property name="seekable">1</property>
    <property name="aspect_ratio">1</property>
    <property name="creation_time">2020-04-11T08:39:47</property>
    <property name="shotcut:hash">8494f33c31e06cf5728dcdd20ff8db58</property>
    <property name="ignore_points">0</property>
    <property name="shotcut:caption">Svoisine_tuba.mp4</property>
    <property name="shotcut:skipConvert">1</property>
    <property name="global_feed">1</property>
    <property name="xml">was here</property>
    <filter id="filter1259" in="00:01:31.400000" out="00:01:39.360000">
      <property name="background">colour:0</property>
      <property name="mlt_service">affine</property>
      <property name="shotcut:filter">affineSizePosition</property>
      <property name="transition.fill">1</property>
      <property name="transition.distort">0</property>
      <property name="transition.rect">960.0 -720.0 321.0 181.0 1</property>
      <property name="transition.valign">top</property>
      <property name="transition.halign">left</property>
      <property name="shotcut:animIn">00:00:00.480000</property>
      <property name="shotcut:animOut">00:00:00.000</property>
      <property name="transition.threads">0</property>
    </filter>
    <filter id="filter1260" in="00:01:31.400000" out="00:01:39.360000">
      <property name="window">75</property>
      <property name="max_gain">20dB</property>
      <property name="mlt_service">volume</property>
      <property name="shotcut:filter">muteVolume</property>
      <property name="gain">0</property>
    </filter>
  </producer>
  <producer id="producer721" title="Anonymous Submission" in="00:00:00.000" out="00:03:26.280">
    <property name="length">00:03:26:08</property>
    <property name="eof">pause</property>
    <property name="resource">../../006 - Videos format youtube/Tuba/Svoisine_tuba.mp4</property>
    <property name="audio_index">1</property>
    <property name="video_index">0</property>
    <property name="mute_on_pause">0</property>
    <property name="mlt_service">avformat-novalidate</property>
    <property name="seekable">1</property>
    <property name="aspect_ratio">1</property>
    <property name="creation_time">2020-04-11T08:39:47</property>
    <property name="shotcut:hash">8494f33c31e06cf5728dcdd20ff8db58</property>
    <property name="ignore_points">0</property>
    <property name="shotcut:caption">Svoisine_tuba.mp4</property>
    <property name="shotcut:skipConvert">1</property>
    <property name="global_feed">1</property>
    <property name="xml">was here</property>
    <filter id="filter1261" in="00:01:39.400000" out="00:01:48.360000">
      <property name="background">colour:0</property>
      <property name="mlt_service">affine</property>
      <property name="shotcut:filter">affineSizePosition</property>
      <property name="transition.fill">1</property>
      <property name="transition.distort">0</property>
      <property name="transition.rect">-548.0 -308.0 275.0 155.0 1</property>
      <property name="transition.valign">top</property>
      <property name="transition.halign">left</property>
      <property name="shotcut:animIn">00:00:00.480000</property>
      <property name="shotcut:animOut">00:00:00.000</property>
      <property name="transition.threads">0</property>
    </filter>
    <filter id="filter1262" in="00:01:39.400000" out="00:01:48.360000">
      <property name="window">75</property>
      <property name="max_gain">20dB</property>
      <property name="mlt_service">volume</property>
      <property name="shotcut:filter">muteVolume</property>
      <property name="gain">0</property>
    </filter>
  </producer>
  <producer id="producer722" title="Anonymous Submission" in="00:00:00.000" out="00:03:26.280">
    <property name="length">00:03:26:08</property>
    <property name="eof">pause</property>
    <property name="resource">../../006 - Videos format youtube/Tuba/Svoisine_tuba.mp4</property>
    <property name="audio_index">1</property>
    <property name="video_index">0</property>
    <property name="mute_on_pause">0</property>
    <property name="mlt_service">avformat-novalidate</property>
    <property name="seekable">1</property>
    <property name="aspect_ratio">1</property>
    <property name="creation_time">2020-04-11T08:39:47</property>
    <property name="shotcut:hash">8494f33c31e06cf5728dcdd20ff8db58</property>
    <property name="ignore_points">0</property>
    <property name="shotcut:caption">Svoisine_tuba.mp4</property>
    <property name="shotcut:skipConvert">1</property>
    <property name="global_feed">1</property>
    <property name="xml">was here</property>
    <filter id="filter1263" in="00:01:48.400000" out="00:01:55.360000">
      <property name="background">colour:0</property>
      <property name="mlt_service">affine</property>
      <property name="shotcut:filter">affineSizePosition</property>
      <property name="transition.fill">1</property>
      <property name="transition.distort">0</property>
      <property name="transition.rect">-548.0 -308.0 275.0 155.0 1</property>
      <property name="transition.valign">top</property>
      <property name="transition.halign">left</property>
      <property name="shotcut:animIn">00:00:00.480000</property>
      <property name="shotcut:animOut">00:00:00.000</property>
      <property name="transition.threads">0</property>
    </filter>
    <filter id="filter1264" in="00:01:48.400000" out="00:01:55.360000">
      <property name="window">75</property>
      <property name="max_gain">20dB</property>
      <property name="mlt_service">volume</property>
      <property name="shotcut:filter">muteVolume</property>
      <property name="gain">0</property>
    </filter>
  </producer>
  <producer id="producer723" title="Anonymous Submission" in="00:00:00.000" out="00:03:26.280">
    <property name="length">00:03:26:08</property>
    <property name="eof">pause</property>
    <property name="resource">../../006 - Videos format youtube/Tuba/Svoisine_tuba.mp4</property>
    <property name="audio_index">1</property>
    <property name="video_index">0</property>
    <property name="mute_on_pause">0</property>
    <property name="mlt_service">avformat-novalidate</property>
    <property name="seekable">1</property>
    <property name="aspect_ratio">1</property>
    <property name="creation_time">2020-04-11T08:39:47</property>
    <property name="shotcut:hash">8494f33c31e06cf5728dcdd20ff8db58</property>
    <property name="ignore_points">0</property>
    <property name="shotcut:caption">Svoisine_tuba.mp4</property>
    <property name="shotcut:skipConvert">1</property>
    <property name="global_feed">1</property>
    <property name="xml">was here</property>
    <filter id="filter1265" in="00:01:55.400000" out="00:03:26.280000">
      <property name="background">colour:0</property>
      <property name="mlt_service">affine</property>
      <property name="shotcut:filter">affineSizePosition</property>
      <property name="transition.fill">1</property>
      <property name="transition.distort">0</property>
      <property name="transition.rect">2719.0 0.0 321.0 181.0 1</property>
      <property name="transition.valign">top</property>
      <property name="transition.halign">left</property>
      <property name="shotcut:animIn">00:00:00.480000</property>
      <property name="shotcut:animOut">00:00:00.000</property>
      <property name="transition.threads">0</property>
    </filter>
    <filter id="filter1266" in="00:01:55.400000" out="00:03:26.280000">
      <property name="window">75</property>
      <property name="max_gain">20dB</property>
      <property name="mlt_service">volume</property>
      <property name="shotcut:filter">muteVolume</property>
      <property name="gain">0</property>
    </filter>
  </producer>
  <playlist id="playlist42">
    <property name="shotcut:video">1</property>
    <property name="shotcut:name">S Voisine</property>
    <property name="shotcut:lock">1</property>
    <blank length="00:00:05.280" />
    <entry producer="producer714" in="00:00:09.680" out="00:00:27.360000" />
    <entry producer="producer715" in="00:00:27.400000" out="00:00:34.360000" />
    <entry producer="producer716" in="00:00:34.400000" out="00:01:08.360000" />
    <entry producer="producer717" in="00:01:08.400000" out="00:01:16.360000" />
    <entry producer="producer718" in="00:01:16.400000" out="00:01:24.360000" />
    <entry producer="producer719" in="00:01:24.400000" out="00:01:31.360000" />
    <entry producer="producer720" in="00:01:31.400000" out="00:01:39.360000" />
    <entry producer="producer721" in="00:01:39.400000" out="00:01:48.360000" />
    <entry producer="producer722" in="00:01:48.400000" out="00:01:55.360000" />
    <entry producer="producer723" in="00:01:55.400000" out="00:03:26.280000" />
    <filter id="filter1267" out="00:03:32.600">
      <property name="window">75</property>
      <property name="max_gain">20dB</property>
      <property name="level">-10</property>
      <property name="mlt_service">volume</property>
    </filter>
  </playlist>
  <producer id="producer724" title="Anonymous Submission" in="00:00:00.000" out="00:05:55.520">
    <property name="length">00:05:55:14</property>
    <property name="eof">pause</property>
    <property name="resource">../../006 - Videos format youtube/Euphonium/Serge_baryton_totoro_recadre.mp4</property>
    <property name="audio_index">1</property>
    <property name="video_index">0</property>
    <property name="mute_on_pause">0</property>
    <property name="mlt_service">avformat-novalidate</property>
    <property name="seekable">1</property>
    <property name="aspect_ratio">1</property>
    <property name="creation_time">2020-04-12T16:27:49</property>
    <property name="shotcut:hash">b07d92044a15ac5f1a605af51e13624e</property>
    <property name="ignore_points">0</property>
    <property name="shotcut:caption">Serge_baryton_totoro_recadre.mp4</property>
    <property name="shotcut:skipConvert">1</property>
    <property name="global_feed">1</property>
    <property name="xml">was here</property>
    <filter id="filter1268" out="00:00:22.880000">
      <property name="background">colour:0</property>
      <property name="mlt_service">affine</property>
      <property name="shotcut:filter">affineSizePosition</property>
      <property name="transition.fill">1</property>
      <property name="transition.distort">0</property>
      <property name="transition.rect">548.0 925.0 275.0 155.0 1</property>
      <property name="transition.valign">top</property>
      <property name="transition.halign">left</property>
      <property name="shotcut:animIn">00:00:00.000</property>
      <property name="shotcut:animOut">00:00:00.000</property>
      <property name="transition.threads">0</property>
    </filter>
  </producer>
  <producer id="producer725" title="Anonymous Submission" in="00:00:00.000" out="00:05:55.520">
    <property name="length">00:05:55:14</property>
    <property name="eof">pause</property>
    <property name="resource">../../006 - Videos format youtube/Euphonium/Serge_baryton_totoro_recadre.mp4</property>
    <property name="audio_index">1</property>
    <property name="video_index">0</property>
    <property name="mute_on_pause">0</property>
    <property name="mlt_service">avformat-novalidate</property>
    <property name="seekable">1</property>
    <property name="aspect_ratio">1</property>
    <property name="creation_time">2020-04-12T16:27:49</property>
    <property name="shotcut:hash">b07d92044a15ac5f1a605af51e13624e</property>
    <property name="ignore_points">0</property>
    <property name="shotcut:caption">Serge_baryton_totoro_recadre.mp4</property>
    <property name="shotcut:skipConvert">1</property>
    <property name="global_feed">1</property>
    <property name="xml">was here</property>
    <filter id="filter1269" out="00:00:29.880000" in="00:00:22.920000">
      <property name="background">colour:0</property>
      <property name="mlt_service">affine</property>
      <property name="shotcut:filter">affineSizePosition</property>
      <property name="transition.fill">1</property>
      <property name="transition.distort">0</property>
      <property name="transition.rect">00:00:00.000000=548.0 925.0 276.0 155.0 1;00:00:00.440000=274.0 308.0 275.0 155.0 1</property>
      <property name="transition.valign">top</property>
      <property name="transition.halign">left</property>
      <property name="shotcut:animIn">00:00:00.480000</property>
      <property name="shotcut:animOut">00:00:00.000</property>
      <property name="transition.threads">0</property>
    </filter>
  </producer>
  <producer id="producer726" title="Anonymous Submission" in="00:00:00.000" out="00:05:55.520">
    <property name="length">00:05:55:14</property>
    <property name="eof">pause</property>
    <property name="resource">../../006 - Videos format youtube/Euphonium/Serge_baryton_totoro_recadre.mp4</property>
    <property name="audio_index">1</property>
    <property name="video_index">0</property>
    <property name="mute_on_pause">0</property>
    <property name="mlt_service">avformat-novalidate</property>
    <property name="seekable">1</property>
    <property name="aspect_ratio">1</property>
    <property name="creation_time">2020-04-12T16:27:49</property>
    <property name="shotcut:hash">b07d92044a15ac5f1a605af51e13624e</property>
    <property name="ignore_points">0</property>
    <property name="shotcut:caption">Serge_baryton_totoro_recadre.mp4</property>
    <property name="shotcut:skipConvert">1</property>
    <property name="global_feed">1</property>
    <property name="xml">was here</property>
    <filter id="filter1270" out="00:01:03.880000" in="00:00:29.920000">
      <property name="background">colour:0</property>
      <property name="mlt_service">affine</property>
      <property name="shotcut:filter">affineSizePosition</property>
      <property name="transition.fill">1</property>
      <property name="transition.distort">0</property>
      <property name="transition.rect">-480.0 -270.0 241.0 136.0 1</property>
      <property name="transition.valign">top</property>
      <property name="transition.halign">left</property>
      <property name="shotcut:animIn">00:00:00.480000</property>
      <property name="shotcut:animOut">00:00:00.000</property>
      <property name="transition.threads">0</property>
    </filter>
  </producer>
  <producer id="producer727" title="Anonymous Submission" in="00:00:00.000" out="00:05:55.520">
    <property name="length">00:05:55:14</property>
    <property name="eof">pause</property>
    <property name="resource">../../006 - Videos format youtube/Euphonium/Serge_baryton_totoro_recadre.mp4</property>
    <property name="audio_index">1</property>
    <property name="video_index">0</property>
    <property name="mute_on_pause">0</property>
    <property name="mlt_service">avformat-novalidate</property>
    <property name="seekable">1</property>
    <property name="aspect_ratio">1</property>
    <property name="creation_time">2020-04-12T16:27:49</property>
    <property name="shotcut:hash">b07d92044a15ac5f1a605af51e13624e</property>
    <property name="ignore_points">0</property>
    <property name="shotcut:caption">Serge_baryton_totoro_recadre.mp4</property>
    <property name="shotcut:skipConvert">1</property>
    <property name="global_feed">1</property>
    <property name="xml">was here</property>
    <filter id="filter1271" out="00:01:11.880000" in="00:01:03.920000">
      <property name="background">colour:0</property>
      <property name="mlt_service">affine</property>
      <property name="shotcut:filter">affineSizePosition</property>
      <property name="transition.fill">1</property>
      <property name="transition.distort">0</property>
      <property name="transition.rect">-1920.0 -617.0 275.0 155.0 1</property>
      <property name="transition.valign">top</property>
      <property name="transition.halign">left</property>
      <property name="shotcut:animIn">00:00:00.480000</property>
      <property name="shotcut:animOut">00:00:00.000</property>
      <property name="transition.threads">0</property>
    </filter>
  </producer>
  <producer id="producer728" title="Anonymous Submission" in="00:00:00.000" out="00:05:55.520">
    <property name="length">00:05:55:14</property>
    <property name="eof">pause</property>
    <property name="resource">../../006 - Videos format youtube/Euphonium/Serge_baryton_totoro_recadre.mp4</property>
    <property name="audio_index">1</property>
    <property name="video_index">0</property>
    <property name="mute_on_pause">0</property>
    <property name="mlt_service">avformat-novalidate</property>
    <property name="seekable">1</property>
    <property name="aspect_ratio">1</property>
    <property name="creation_time">2020-04-12T16:27:49</property>
    <property name="shotcut:hash">b07d92044a15ac5f1a605af51e13624e</property>
    <property name="ignore_points">0</property>
    <property name="shotcut:caption">Serge_baryton_totoro_recadre.mp4</property>
    <property name="shotcut:skipConvert">1</property>
    <property name="global_feed">1</property>
    <property name="xml">was here</property>
    <filter id="filter1272" out="00:01:19.880000" in="00:01:11.920000">
      <property name="background">colour:0</property>
      <property name="mlt_service">affine</property>
      <property name="shotcut:filter">affineSizePosition</property>
      <property name="transition.fill">1</property>
      <property name="transition.distort">0</property>
      <property name="transition.rect">0.0 617.0 275.0 155.0 1</property>
      <property name="transition.valign">top</property>
      <property name="transition.halign">left</property>
      <property name="shotcut:animIn">00:00:00.480000</property>
      <property name="shotcut:animOut">00:00:00.000</property>
      <property name="transition.threads">0</property>
    </filter>
  </producer>
  <producer id="producer729" title="Anonymous Submission" in="00:00:00.000" out="00:05:55.520">
    <property name="length">00:05:55:14</property>
    <property name="eof">pause</property>
    <property name="resource">../../006 - Videos format youtube/Euphonium/Serge_baryton_totoro_recadre.mp4</property>
    <property name="audio_index">1</property>
    <property name="video_index">0</property>
    <property name="mute_on_pause">0</property>
    <property name="mlt_service">avformat-novalidate</property>
    <property name="seekable">1</property>
    <property name="aspect_ratio">1</property>
    <property name="creation_time">2020-04-12T16:27:49</property>
    <property name="shotcut:hash">b07d92044a15ac5f1a605af51e13624e</property>
    <property name="ignore_points">0</property>
    <property name="shotcut:caption">Serge_baryton_totoro_recadre.mp4</property>
    <property name="shotcut:skipConvert">1</property>
    <property name="global_feed">1</property>
    <property name="xml">was here</property>
    <filter id="filter1273" out="00:01:26.880000" in="00:01:19.920000">
      <property name="background">colour:0</property>
      <property name="mlt_service">affine</property>
      <property name="shotcut:filter">affineSizePosition</property>
      <property name="transition.fill">1</property>
      <property name="transition.distort">0</property>
      <property name="transition.rect">1280.0 360.0 321.0 181.0 1</property>
      <property name="transition.valign">top</property>
      <property name="transition.halign">left</property>
      <property name="shotcut:animIn">00:00:00.480000</property>
      <property name="shotcut:animOut">00:00:00.000</property>
      <property name="transition.threads">0</property>
    </filter>
  </producer>
  <producer id="producer730" title="Anonymous Submission" in="00:00:00.000" out="00:05:55.520">
    <property name="length">00:05:55:14</property>
    <property name="eof">pause</property>
    <property name="resource">../../006 - Videos format youtube/Euphonium/Serge_baryton_totoro_recadre.mp4</property>
    <property name="audio_index">1</property>
    <property name="video_index">0</property>
    <property name="mute_on_pause">0</property>
    <property name="mlt_service">avformat-novalidate</property>
    <property name="seekable">1</property>
    <property name="aspect_ratio">1</property>
    <property name="creation_time">2020-04-12T16:27:49</property>
    <property name="shotcut:hash">b07d92044a15ac5f1a605af51e13624e</property>
    <property name="ignore_points">0</property>
    <property name="shotcut:caption">Serge_baryton_totoro_recadre.mp4</property>
    <property name="shotcut:skipConvert">1</property>
    <property name="global_feed">1</property>
    <property name="xml">was here</property>
    <filter id="filter1274" out="00:01:34.880000" in="00:01:26.920000">
      <property name="background">colour:0</property>
      <property name="mlt_service">affine</property>
      <property name="shotcut:filter">affineSizePosition</property>
      <property name="transition.fill">1</property>
      <property name="transition.distort">0</property>
      <property name="transition.rect">0.0 360.0 321.0 181.0 1</property>
      <property name="transition.valign">top</property>
      <property name="transition.halign">left</property>
      <property name="shotcut:animIn">00:00:00.480000</property>
      <property name="shotcut:animOut">00:00:00.000</property>
      <property name="transition.threads">0</property>
    </filter>
  </producer>
  <producer id="producer731" title="Anonymous Submission" in="00:00:00.000" out="00:05:55.520">
    <property name="length">00:05:55:14</property>
    <property name="eof">pause</property>
    <property name="resource">../../006 - Videos format youtube/Euphonium/Serge_baryton_totoro_recadre.mp4</property>
    <property name="audio_index">1</property>
    <property name="video_index">0</property>
    <property name="mute_on_pause">0</property>
    <property name="mlt_service">avformat-novalidate</property>
    <property name="seekable">1</property>
    <property name="aspect_ratio">1</property>
    <property name="creation_time">2020-04-12T16:27:49</property>
    <property name="shotcut:hash">b07d92044a15ac5f1a605af51e13624e</property>
    <property name="ignore_points">0</property>
    <property name="shotcut:caption">Serge_baryton_totoro_recadre.mp4</property>
    <property name="shotcut:skipConvert">1</property>
    <property name="global_feed">1</property>
    <property name="xml">was here</property>
    <filter id="filter1275" out="00:01:43.880000" in="00:01:34.920000">
      <property name="background">colour:0</property>
      <property name="mlt_service">affine</property>
      <property name="shotcut:filter">affineSizePosition</property>
      <property name="transition.fill">1</property>
      <property name="transition.distort">0</property>
      <property name="transition.rect">274.0 308.0 275.0 155.0 1</property>
      <property name="transition.valign">top</property>
      <property name="transition.halign">left</property>
      <property name="shotcut:animIn">00:00:00.480000</property>
      <property name="shotcut:animOut">00:00:00.000</property>
      <property name="transition.threads">0</property>
    </filter>
  </producer>
  <producer id="producer732" title="Anonymous Submission" in="00:00:00.000" out="00:05:55.520">
    <property name="length">00:05:55:14</property>
    <property name="eof">pause</property>
    <property name="resource">../../006 - Videos format youtube/Euphonium/Serge_baryton_totoro_recadre.mp4</property>
    <property name="audio_index">1</property>
    <property name="video_index">0</property>
    <property name="mute_on_pause">0</property>
    <property name="mlt_service">avformat-novalidate</property>
    <property name="seekable">1</property>
    <property name="aspect_ratio">1</property>
    <property name="creation_time">2020-04-12T16:27:49</property>
    <property name="shotcut:hash">b07d92044a15ac5f1a605af51e13624e</property>
    <property name="ignore_points">0</property>
    <property name="shotcut:caption">Serge_baryton_totoro_recadre.mp4</property>
    <property name="shotcut:skipConvert">1</property>
    <property name="global_feed">1</property>
    <property name="xml">was here</property>
    <filter id="filter1276" out="00:01:50.880000" in="00:01:43.920000">
      <property name="background">colour:0</property>
      <property name="mlt_service">affine</property>
      <property name="shotcut:filter">affineSizePosition</property>
      <property name="transition.fill">1</property>
      <property name="transition.distort">0</property>
      <property name="transition.rect">1097.0 0.0 823.0 463.0 1</property>
      <property name="transition.valign">top</property>
      <property name="transition.halign">left</property>
      <property name="shotcut:animIn">00:00:00.480000</property>
      <property name="shotcut:animOut">00:00:00.000</property>
      <property name="transition.threads">0</property>
    </filter>
  </producer>
  <producer id="producer733" title="Anonymous Submission" in="00:00:00.000" out="00:05:55.520">
    <property name="length">00:05:55:14</property>
    <property name="eof">pause</property>
    <property name="resource">../../006 - Videos format youtube/Euphonium/Serge_baryton_totoro_recadre.mp4</property>
    <property name="audio_index">1</property>
    <property name="video_index">0</property>
    <property name="mute_on_pause">0</property>
    <property name="mlt_service">avformat-novalidate</property>
    <property name="seekable">1</property>
    <property name="aspect_ratio">1</property>
    <property name="creation_time">2020-04-12T16:27:49</property>
    <property name="shotcut:hash">b07d92044a15ac5f1a605af51e13624e</property>
    <property name="ignore_points">0</property>
    <property name="shotcut:caption">Serge_baryton_totoro_recadre.mp4</property>
    <property name="shotcut:skipConvert">1</property>
    <property name="global_feed">1</property>
    <property name="xml">was here</property>
    <filter id="filter1277" out="00:03:32.520000" in="00:01:50.920000">
      <property name="background">colour:0</property>
      <property name="mlt_service">affine</property>
      <property name="shotcut:filter">affineSizePosition</property>
      <property name="transition.fill">1</property>
      <property name="transition.distort">0</property>
      <property name="transition.rect">-640.0 -360.0 321.0 181.0 1</property>
      <property name="transition.valign">top</property>
      <property name="transition.halign">left</property>
      <property name="shotcut:animIn">00:00:00.480000</property>
      <property name="shotcut:animOut">00:00:00.000</property>
      <property name="transition.threads">0</property>
    </filter>
  </producer>
  <playlist id="playlist43">
    <property name="shotcut:video">1</property>
    <property name="shotcut:name">S Baudry recadre</property>
    <property name="shotcut:lock">1</property>
    <blank length="00:00:00.080" />
    <entry producer="producer724" in="00:00:00.000" out="00:00:22.880000" />
    <entry producer="producer725" in="00:00:22.920000" out="00:00:29.880000" />
    <entry producer="producer726" in="00:00:29.920000" out="00:01:03.880000" />
    <entry producer="producer727" in="00:01:03.920000" out="00:01:11.880000" />
    <entry producer="producer728" in="00:01:11.920000" out="00:01:19.880000" />
    <entry producer="producer729" in="00:01:19.920000" out="00:01:26.880000" />
    <entry producer="producer730" in="00:01:26.920000" out="00:01:34.880000" />
    <entry producer="producer731" in="00:01:34.920000" out="00:01:43.880000" />
    <entry producer="producer732" in="00:01:43.920000" out="00:01:50.880000" />
    <entry producer="producer733" in="00:01:50.920000" out="00:03:32.520000" />
    <filter id="filter1278" out="00:03:32.600">
      <property name="window">75</property>
      <property name="max_gain">20dB</property>
      <property name="level">-13</property>
      <property name="mlt_service">volume</property>
    </filter>
  </playlist>
  <producer id="producer734" title="Anonymous Submission" in="00:00:00.000" out="00:05:55.520">
    <property name="length">00:05:55:14</property>
    <property name="eof">pause</property>
    <property name="resource">../../006 - Videos format youtube/Tuba/Srevol_tuba_recadre.mp4</property>
    <property name="audio_index">1</property>
    <property name="video_index">0</property>
    <property name="mute_on_pause">0</property>
    <property name="mlt_service">avformat-novalidate</property>
    <property name="seekable">1</property>
    <property name="aspect_ratio">1</property>
    <property name="creation_time">2020-04-12T16:43:58</property>
    <property name="shotcut:hash">297b5a36e5ddc4793893fda24b46726f</property>
    <property name="ignore_points">0</property>
    <property name="shotcut:caption">Srevol_tuba_recadre.mp4</property>
    <property name="shotcut:skipConvert">1</property>
    <property name="global_feed">1</property>
    <property name="xml">was here</property>
    <filter id="filter1279" out="00:00:22.960000">
      <property name="background">colour:0</property>
      <property name="mlt_service">affine</property>
      <property name="shotcut:filter">affineSizePosition</property>
      <property name="transition.fill">1</property>
      <property name="transition.distort">0</property>
      <property name="transition.rect">822.0 925.0 275.0 155.0 1</property>
      <property name="transition.valign">top</property>
      <property name="transition.halign">left</property>
      <property name="shotcut:animIn">00:00:00.000</property>
      <property name="shotcut:animOut">00:00:00.000</property>
      <property name="transition.threads">0</property>
    </filter>
    <filter id="filter1280" out="00:00:22.960000">
      <property name="window">75</property>
      <property name="max_gain">20dB</property>
      <property name="mlt_service">volume</property>
      <property name="shotcut:filter">muteVolume</property>
      <property name="gain">0</property>
    </filter>
  </producer>
  <producer id="producer735" title="Anonymous Submission" in="00:00:00.000" out="00:05:55.520">
    <property name="length">00:05:55:14</property>
    <property name="eof">pause</property>
    <property name="resource">../../006 - Videos format youtube/Tuba/Srevol_tuba_recadre.mp4</property>
    <property name="audio_index">1</property>
    <property name="video_index">0</property>
    <property name="mute_on_pause">0</property>
    <property name="mlt_service">avformat-novalidate</property>
    <property name="seekable">1</property>
    <property name="aspect_ratio">1</property>
    <property name="creation_time">2020-04-12T16:43:58</property>
    <property name="shotcut:hash">297b5a36e5ddc4793893fda24b46726f</property>
    <property name="ignore_points">0</property>
    <property name="shotcut:caption">Srevol_tuba_recadre.mp4</property>
    <property name="shotcut:skipConvert">1</property>
    <property name="global_feed">1</property>
    <property name="xml">was here</property>
    <filter id="filter1281" out="00:00:29.960000" in="00:00:23.000000">
      <property name="background">colour:0</property>
      <property name="mlt_service">affine</property>
      <property name="shotcut:filter">affineSizePosition</property>
      <property name="transition.fill">1</property>
      <property name="transition.distort">0</property>
      <property name="transition.rect">00:00:00.000000=822.0 925.0 276.0 155.0 1;00:00:00.440000=1371.0 0.0 275.0 155.0 1</property>
      <property name="transition.valign">top</property>
      <property name="transition.halign">left</property>
      <property name="shotcut:animIn">00:00:00.480000</property>
      <property name="shotcut:animOut">00:00:00.000</property>
      <property name="transition.threads">0</property>
    </filter>
    <filter id="filter1282" out="00:00:29.960000" in="00:00:23.000000">
      <property name="window">75</property>
      <property name="max_gain">20dB</property>
      <property name="mlt_service">volume</property>
      <property name="shotcut:filter">muteVolume</property>
      <property name="gain">0</property>
    </filter>
  </producer>
  <producer id="producer736" title="Anonymous Submission" in="00:00:00.000" out="00:05:55.520">
    <property name="length">00:05:55:14</property>
    <property name="eof">pause</property>
    <property name="resource">../../006 - Videos format youtube/Tuba/Srevol_tuba_recadre.mp4</property>
    <property name="audio_index">1</property>
    <property name="video_index">0</property>
    <property name="mute_on_pause">0</property>
    <property name="mlt_service">avformat-novalidate</property>
    <property name="seekable">1</property>
    <property name="aspect_ratio">1</property>
    <property name="creation_time">2020-04-12T16:43:58</property>
    <property name="shotcut:hash">297b5a36e5ddc4793893fda24b46726f</property>
    <property name="ignore_points">0</property>
    <property name="shotcut:caption">Srevol_tuba_recadre.mp4</property>
    <property name="shotcut:skipConvert">1</property>
    <property name="global_feed">1</property>
    <property name="xml">was here</property>
    <filter id="filter1283" out="00:01:03.960000" in="00:00:30.000000">
      <property name="background">colour:0</property>
      <property name="mlt_service">affine</property>
      <property name="shotcut:filter">affineSizePosition</property>
      <property name="transition.fill">1</property>
      <property name="transition.distort">0</property>
      <property name="transition.rect">0.0 945.0 241.0 136.0 1</property>
      <property name="transition.valign">top</property>
      <property name="transition.halign">left</property>
      <property name="shotcut:animIn">00:00:00.480000</property>
      <property name="shotcut:animOut">00:00:00.000</property>
      <property name="transition.threads">0</property>
    </filter>
    <filter id="filter1284" out="00:01:03.960000" in="00:00:30.000000">
      <property name="window">75</property>
      <property name="max_gain">20dB</property>
      <property name="mlt_service">volume</property>
      <property name="shotcut:filter">muteVolume</property>
      <property name="gain">0</property>
    </filter>
  </producer>
  <producer id="producer737" title="Anonymous Submission" in="00:00:00.000" out="00:05:55.520">
    <property name="length">00:05:55:14</property>
    <property name="eof">pause</property>
    <property name="resource">../../006 - Videos format youtube/Tuba/Srevol_tuba_recadre.mp4</property>
    <property name="audio_index">1</property>
    <property name="video_index">0</property>
    <property name="mute_on_pause">0</property>
    <property name="mlt_service">avformat-novalidate</property>
    <property name="seekable">1</property>
    <property name="aspect_ratio">1</property>
    <property name="creation_time">2020-04-12T16:43:58</property>
    <property name="shotcut:hash">297b5a36e5ddc4793893fda24b46726f</property>
    <property name="ignore_points">0</property>
    <property name="shotcut:caption">Srevol_tuba_recadre.mp4</property>
    <property name="shotcut:skipConvert">1</property>
    <property name="global_feed">1</property>
    <property name="xml">was here</property>
    <filter id="filter1285" out="00:01:11.960000" in="00:01:04.000000">
      <property name="background">colour:0</property>
      <property name="mlt_service">affine</property>
      <property name="shotcut:filter">affineSizePosition</property>
      <property name="transition.fill">1</property>
      <property name="transition.distort">0</property>
      <property name="transition.rect">-1645.0 -617.0 275.0 155.0 1</property>
      <property name="transition.valign">top</property>
      <property name="transition.halign">left</property>
      <property name="shotcut:animIn">00:00:00.480000</property>
      <property name="shotcut:animOut">00:00:00.000</property>
      <property name="transition.threads">0</property>
    </filter>
    <filter id="filter1286" out="00:01:11.960000" in="00:01:04.000000">
      <property name="window">75</property>
      <property name="max_gain">20dB</property>
      <property name="mlt_service">volume</property>
      <property name="shotcut:filter">muteVolume</property>
      <property name="gain">0</property>
    </filter>
  </producer>
  <producer id="producer738" title="Anonymous Submission" in="00:00:00.000" out="00:05:55.520">
    <property name="length">00:05:55:14</property>
    <property name="eof">pause</property>
    <property name="resource">../../006 - Videos format youtube/Tuba/Srevol_tuba_recadre.mp4</property>
    <property name="audio_index">1</property>
    <property name="video_index">0</property>
    <property name="mute_on_pause">0</property>
    <property name="mlt_service">avformat-novalidate</property>
    <property name="seekable">1</property>
    <property name="aspect_ratio">1</property>
    <property name="creation_time">2020-04-12T16:43:58</property>
    <property name="shotcut:hash">297b5a36e5ddc4793893fda24b46726f</property>
    <property name="ignore_points">0</property>
    <property name="shotcut:caption">Srevol_tuba_recadre.mp4</property>
    <property name="shotcut:skipConvert">1</property>
    <property name="global_feed">1</property>
    <property name="xml">was here</property>
    <filter id="filter1287" out="00:01:19.960000" in="00:01:12.000000">
      <property name="background">colour:0</property>
      <property name="mlt_service">affine</property>
      <property name="shotcut:filter">affineSizePosition</property>
      <property name="transition.fill">1</property>
      <property name="transition.distort">0</property>
      <property name="transition.rect">274.0 771.0 275.0 155.0 1</property>
      <property name="transition.valign">top</property>
      <property name="transition.halign">left</property>
      <property name="shotcut:animIn">00:00:00.480000</property>
      <property name="shotcut:animOut">00:00:00.000</property>
      <property name="transition.threads">0</property>
    </filter>
    <filter id="filter1288" out="00:01:19.960000" in="00:01:12.000000">
      <property name="window">75</property>
      <property name="max_gain">20dB</property>
      <property name="mlt_service">volume</property>
      <property name="shotcut:filter">muteVolume</property>
      <property name="gain">0</property>
    </filter>
  </producer>
  <producer id="producer739" title="Anonymous Submission" in="00:00:00.000" out="00:05:55.520">
    <property name="length">00:05:55:14</property>
    <property name="eof">pause</property>
    <property name="resource">../../006 - Videos format youtube/Tuba/Srevol_tuba_recadre.mp4</property>
    <property name="audio_index">1</property>
    <property name="video_index">0</property>
    <property name="mute_on_pause">0</property>
    <property name="mlt_service">avformat-novalidate</property>
    <property name="seekable">1</property>
    <property name="aspect_ratio">1</property>
    <property name="creation_time">2020-04-12T16:43:58</property>
    <property name="shotcut:hash">297b5a36e5ddc4793893fda24b46726f</property>
    <property name="ignore_points">0</property>
    <property name="shotcut:caption">Srevol_tuba_recadre.mp4</property>
    <property name="shotcut:skipConvert">1</property>
    <property name="global_feed">1</property>
    <property name="xml">was here</property>
    <filter id="filter1289" out="00:01:26.960000" in="00:01:20.000000">
      <property name="background">colour:0</property>
      <property name="mlt_service">affine</property>
      <property name="shotcut:filter">affineSizePosition</property>
      <property name="transition.fill">1</property>
      <property name="transition.distort">0</property>
      <property name="transition.rect">1600.0 360.0 321.0 181.0 1</property>
      <property name="transition.valign">top</property>
      <property name="transition.halign">left</property>
      <property name="shotcut:animIn">00:00:00.480000</property>
      <property name="shotcut:animOut">00:00:00.000</property>
      <property name="transition.threads">0</property>
    </filter>
    <filter id="filter1290" out="00:01:26.960000" in="00:01:20.000000">
      <property name="window">75</property>
      <property name="max_gain">20dB</property>
      <property name="mlt_service">volume</property>
      <property name="shotcut:filter">muteVolume</property>
      <property name="gain">0</property>
    </filter>
  </producer>
  <producer id="producer740" title="Anonymous Submission" in="00:00:00.000" out="00:05:55.520">
    <property name="length">00:05:55:14</property>
    <property name="eof">pause</property>
    <property name="resource">../../006 - Videos format youtube/Tuba/Srevol_tuba_recadre.mp4</property>
    <property name="audio_index">1</property>
    <property name="video_index">0</property>
    <property name="mute_on_pause">0</property>
    <property name="mlt_service">avformat-novalidate</property>
    <property name="seekable">1</property>
    <property name="aspect_ratio">1</property>
    <property name="creation_time">2020-04-12T16:43:58</property>
    <property name="shotcut:hash">297b5a36e5ddc4793893fda24b46726f</property>
    <property name="ignore_points">0</property>
    <property name="shotcut:caption">Srevol_tuba_recadre.mp4</property>
    <property name="shotcut:skipConvert">1</property>
    <property name="global_feed">1</property>
    <property name="xml">was here</property>
    <filter id="filter1291" out="00:01:34.960000" in="00:01:27.000000">
      <property name="background">colour:0</property>
      <property name="mlt_service">affine</property>
      <property name="shotcut:filter">affineSizePosition</property>
      <property name="transition.fill">1</property>
      <property name="transition.distort">0</property>
      <property name="transition.rect">1600.0 -720.0 321.0 181.0 1</property>
      <property name="transition.valign">top</property>
      <property name="transition.halign">left</property>
      <property name="shotcut:animIn">00:00:00.480000</property>
      <property name="shotcut:animOut">00:00:00.000</property>
      <property name="transition.threads">0</property>
    </filter>
    <filter id="filter1292" out="00:01:34.960000" in="00:01:27.000000">
      <property name="window">75</property>
      <property name="max_gain">20dB</property>
      <property name="mlt_service">volume</property>
      <property name="shotcut:filter">muteVolume</property>
      <property name="gain">0</property>
    </filter>
  </producer>
  <producer id="producer741" title="Anonymous Submission" in="00:00:00.000" out="00:05:55.520">
    <property name="length">00:05:55:14</property>
    <property name="eof">pause</property>
    <property name="resource">../../006 - Videos format youtube/Tuba/Srevol_tuba_recadre.mp4</property>
    <property name="audio_index">1</property>
    <property name="video_index">0</property>
    <property name="mute_on_pause">0</property>
    <property name="mlt_service">avformat-novalidate</property>
    <property name="seekable">1</property>
    <property name="aspect_ratio">1</property>
    <property name="creation_time">2020-04-12T16:43:58</property>
    <property name="shotcut:hash">297b5a36e5ddc4793893fda24b46726f</property>
    <property name="ignore_points">0</property>
    <property name="shotcut:caption">Srevol_tuba_recadre.mp4</property>
    <property name="shotcut:skipConvert">1</property>
    <property name="global_feed">1</property>
    <property name="xml">was here</property>
    <filter id="filter1293" out="00:01:43.960000" in="00:01:35.000000">
      <property name="background">colour:0</property>
      <property name="mlt_service">affine</property>
      <property name="shotcut:filter">affineSizePosition</property>
      <property name="transition.fill">1</property>
      <property name="transition.distort">0</property>
      <property name="transition.rect">548.0 0.0 275.0 155.0 1</property>
      <property name="transition.valign">top</property>
      <property name="transition.halign">left</property>
      <property name="shotcut:animIn">00:00:00.480000</property>
      <property name="shotcut:animOut">00:00:00.000</property>
      <property name="transition.threads">0</property>
    </filter>
    <filter id="filter1294" out="00:01:43.960000" in="00:01:35.000000">
      <property name="window">75</property>
      <property name="max_gain">20dB</property>
      <property name="mlt_service">volume</property>
      <property name="shotcut:filter">muteVolume</property>
      <property name="gain">0</property>
    </filter>
  </producer>
  <producer id="producer742" title="Anonymous Submission" in="00:00:00.000" out="00:05:55.520">
    <property name="length">00:05:55:14</property>
    <property name="eof">pause</property>
    <property name="resource">../../006 - Videos format youtube/Tuba/Srevol_tuba_recadre.mp4</property>
    <property name="audio_index">1</property>
    <property name="video_index">0</property>
    <property name="mute_on_pause">0</property>
    <property name="mlt_service">avformat-novalidate</property>
    <property name="seekable">1</property>
    <property name="aspect_ratio">1</property>
    <property name="creation_time">2020-04-12T16:43:58</property>
    <property name="shotcut:hash">297b5a36e5ddc4793893fda24b46726f</property>
    <property name="ignore_points">0</property>
    <property name="shotcut:caption">Srevol_tuba_recadre.mp4</property>
    <property name="shotcut:skipConvert">1</property>
    <property name="global_feed">1</property>
    <property name="xml">was here</property>
    <filter id="filter1295" out="00:01:50.960000" in="00:01:44.000000">
      <property name="background">colour:0</property>
      <property name="mlt_service">affine</property>
      <property name="shotcut:filter">affineSizePosition</property>
      <property name="transition.fill">1</property>
      <property name="transition.distort">0</property>
      <property name="transition.rect">274.0 0.0 823.0 463.0 1</property>
      <property name="transition.valign">top</property>
      <property name="transition.halign">left</property>
      <property name="shotcut:animIn">00:00:00.480000</property>
      <property name="shotcut:animOut">00:00:00.000</property>
      <property name="transition.threads">0</property>
    </filter>
    <filter id="filter1296" out="00:01:50.960000" in="00:01:44.000000">
      <property name="window">75</property>
      <property name="max_gain">20dB</property>
      <property name="mlt_service">volume</property>
      <property name="shotcut:filter">muteVolume</property>
      <property name="gain">0</property>
    </filter>
  </producer>
  <producer id="producer743" title="Anonymous Submission" in="00:00:00.000" out="00:05:55.520">
    <property name="length">00:05:55:14</property>
    <property name="eof">pause</property>
    <property name="resource">../../006 - Videos format youtube/Tuba/Srevol_tuba_recadre.mp4</property>
    <property name="audio_index">1</property>
    <property name="video_index">0</property>
    <property name="mute_on_pause">0</property>
    <property name="mlt_service">avformat-novalidate</property>
    <property name="seekable">1</property>
    <property name="aspect_ratio">1</property>
    <property name="creation_time">2020-04-12T16:43:58</property>
    <property name="shotcut:hash">297b5a36e5ddc4793893fda24b46726f</property>
    <property name="ignore_points">0</property>
    <property name="shotcut:caption">Srevol_tuba_recadre.mp4</property>
    <property name="shotcut:skipConvert">1</property>
    <property name="global_feed">1</property>
    <property name="xml">was here</property>
    <filter id="filter1297" out="00:03:25.680000" in="00:01:51.000000">
      <property name="background">colour:0</property>
      <property name="mlt_service">affine</property>
      <property name="shotcut:filter">affineSizePosition</property>
      <property name="transition.fill">1</property>
      <property name="transition.distort">0</property>
      <property name="transition.rect">-640.0 -360.0 321.0 181.0 1</property>
      <property name="transition.valign">top</property>
      <property name="transition.halign">left</property>
      <property name="shotcut:animIn">00:00:00.480000</property>
      <property name="shotcut:animOut">00:00:00.000</property>
      <property name="transition.threads">0</property>
    </filter>
    <filter id="filter1298" out="00:03:25.680000" in="00:01:51.000000">
      <property name="window">75</property>
      <property name="max_gain">20dB</property>
      <property name="mlt_service">volume</property>
      <property name="shotcut:filter">muteVolume</property>
      <property name="gain">0</property>
    </filter>
  </producer>
  <playlist id="playlist44">
    <property name="shotcut:video">1</property>
    <property name="shotcut:name">S Revol recadre</property>
    <property name="shotcut:lock">1</property>
    <entry producer="producer734" in="00:00:00.000" out="00:00:22.960000" />
    <entry producer="producer735" in="00:00:23.000000" out="00:00:29.960000" />
    <entry producer="producer736" in="00:00:30.000000" out="00:01:03.960000" />
    <entry producer="producer737" in="00:01:04.000000" out="00:01:11.960000" />
    <entry producer="producer738" in="00:01:12.000000" out="00:01:19.960000" />
    <entry producer="producer739" in="00:01:20.000000" out="00:01:26.960000" />
    <entry producer="producer740" in="00:01:27.000000" out="00:01:34.960000" />
    <entry producer="producer741" in="00:01:35.000000" out="00:01:43.960000" />
    <entry producer="producer742" in="00:01:44.000000" out="00:01:50.960000" />
    <entry producer="producer743" in="00:01:51.000000" out="00:03:25.680000" />
    <filter id="filter1299" out="00:03:32.600">
      <property name="window">75</property>
      <property name="max_gain">20dB</property>
      <property name="level">-7</property>
      <property name="mlt_service">volume</property>
    </filter>
  </playlist>
  <producer id="producer744" title="Anonymous Submission" in="00:00:00.000" out="00:03:35.640">
    <property name="length">00:03:35:17</property>
    <property name="eof">pause</property>
    <property name="resource">../../006 - Videos format youtube/Bonus/Camille_bonus_recadre.mp4</property>
    <property name="audio_index">1</property>
    <property name="video_index">0</property>
    <property name="mute_on_pause">0</property>
    <property name="mlt_service">avformat-novalidate</property>
    <property name="seekable">1</property>
    <property name="aspect_ratio">1</property>
    <property name="creation_time">2020-05-04T19:45:54</property>
    <property name="shotcut:hash">2e165d68055d486add3c4562e4c703c2</property>
    <property name="ignore_points">0</property>
    <property name="shotcut:caption">Camille_bonus_recadre.mp4</property>
    <property name="shotcut:skipConvert">1</property>
    <property name="global_feed">1</property>
    <property name="xml">was here</property>
    <filter id="filter1300" out="00:01:03.960000">
      <property name="background">colour:0</property>
      <property name="mlt_service">affine</property>
      <property name="shotcut:filter">affineSizePosition</property>
      <property name="transition.fill">1</property>
      <property name="transition.distort">0</property>
      <property name="transition.rect">-548.0 -308.0 275.0 155.0 1</property>
      <property name="transition.valign">top</property>
      <property name="transition.halign">left</property>
      <property name="shotcut:animIn">00:00:00.000</property>
      <property name="shotcut:animOut">00:00:00.000</property>
      <property name="transition.threads">0</property>
    </filter>
  </producer>
  <producer id="producer745" title="Anonymous Submission" in="00:00:00.000" out="00:03:35.640">
    <property name="length">00:03:35:17</property>
    <property name="eof">pause</property>
    <property name="resource">../../006 - Videos format youtube/Bonus/Camille_bonus_recadre.mp4</property>
    <property name="audio_index">1</property>
    <property name="video_index">0</property>
    <property name="mute_on_pause">0</property>
    <property name="mlt_service">avformat-novalidate</property>
    <property name="seekable">1</property>
    <property name="aspect_ratio">1</property>
    <property name="creation_time">2020-05-04T19:45:54</property>
    <property name="shotcut:hash">2e165d68055d486add3c4562e4c703c2</property>
    <property name="ignore_points">0</property>
    <property name="shotcut:caption">Camille_bonus_recadre.mp4</property>
    <property name="shotcut:skipConvert">1</property>
    <property name="global_feed">1</property>
    <property name="xml">was here</property>
    <filter id="filter1301" out="00:01:19.960000" in="00:01:04.000000">
      <property name="background">colour:0</property>
      <property name="mlt_service">affine</property>
      <property name="shotcut:filter">affineSizePosition</property>
      <property name="transition.fill">1</property>
      <property name="transition.distort">0</property>
      <property name="transition.rect">-548.0 -308.0 275.0 155.0 1</property>
      <property name="transition.valign">top</property>
      <property name="transition.halign">left</property>
      <property name="shotcut:animIn">00:00:00.000</property>
      <property name="shotcut:animOut">00:00:00.000</property>
      <property name="transition.threads">0</property>
    </filter>
  </producer>
  <producer id="producer746" title="Anonymous Submission" in="00:00:00.000" out="00:03:35.640">
    <property name="length">00:03:35:17</property>
    <property name="eof">pause</property>
    <property name="resource">../../006 - Videos format youtube/Bonus/Camille_bonus_recadre.mp4</property>
    <property name="audio_index">1</property>
    <property name="video_index">0</property>
    <property name="mute_on_pause">0</property>
    <property name="mlt_service">avformat-novalidate</property>
    <property name="seekable">1</property>
    <property name="aspect_ratio">1</property>
    <property name="creation_time">2020-05-04T19:45:54</property>
    <property name="shotcut:hash">2e165d68055d486add3c4562e4c703c2</property>
    <property name="ignore_points">0</property>
    <property name="shotcut:caption">Camille_bonus_recadre.mp4</property>
    <property name="shotcut:skipConvert">1</property>
    <property name="global_feed">1</property>
    <property name="xml">was here</property>
    <filter id="filter1302" out="00:01:34.960000" in="00:01:20.000000">
      <property name="background">colour:0</property>
      <property name="mlt_service">affine</property>
      <property name="shotcut:filter">affineSizePosition</property>
      <property name="transition.fill">1</property>
      <property name="transition.distort">0</property>
      <property name="transition.rect">-3040.0 0.0 321.0 181.0 1</property>
      <property name="transition.valign">top</property>
      <property name="transition.halign">left</property>
      <property name="shotcut:animIn">00:00:00.000</property>
      <property name="shotcut:animOut">00:00:00.000</property>
      <property name="transition.threads">0</property>
    </filter>
  </producer>
  <producer id="producer747" title="Anonymous Submission" in="00:00:00.000" out="00:03:35.640">
    <property name="length">00:03:35:17</property>
    <property name="eof">pause</property>
    <property name="resource">../../006 - Videos format youtube/Bonus/Camille_bonus_recadre.mp4</property>
    <property name="audio_index">1</property>
    <property name="video_index">0</property>
    <property name="mute_on_pause">0</property>
    <property name="mlt_service">avformat-novalidate</property>
    <property name="seekable">1</property>
    <property name="aspect_ratio">1</property>
    <property name="creation_time">2020-05-04T19:45:54</property>
    <property name="shotcut:hash">2e165d68055d486add3c4562e4c703c2</property>
    <property name="ignore_points">0</property>
    <property name="shotcut:caption">Camille_bonus_recadre.mp4</property>
    <property name="shotcut:skipConvert">1</property>
    <property name="global_feed">1</property>
    <property name="xml">was here</property>
    <filter id="filter1303" out="00:01:43.960000" in="00:01:35.000000">
      <property name="background">colour:0</property>
      <property name="mlt_service">affine</property>
      <property name="shotcut:filter">affineSizePosition</property>
      <property name="transition.fill">1</property>
      <property name="transition.distort">0</property>
      <property name="transition.rect">-548.0 -308.0 275.0 155.0 1</property>
      <property name="transition.valign">top</property>
      <property name="transition.halign">left</property>
      <property name="shotcut:animIn">00:00:00.000</property>
      <property name="shotcut:animOut">00:00:00.000</property>
      <property name="transition.threads">0</property>
    </filter>
  </producer>
  <producer id="producer748" title="Anonymous Submission" in="00:00:00.000" out="00:03:35.640">
    <property name="length">00:03:35:17</property>
    <property name="eof">pause</property>
    <property name="resource">../../006 - Videos format youtube/Bonus/Camille_bonus_recadre.mp4</property>
    <property name="audio_index">1</property>
    <property name="video_index">0</property>
    <property name="mute_on_pause">0</property>
    <property name="mlt_service">avformat-novalidate</property>
    <property name="seekable">1</property>
    <property name="aspect_ratio">1</property>
    <property name="creation_time">2020-05-04T19:45:54</property>
    <property name="shotcut:hash">2e165d68055d486add3c4562e4c703c2</property>
    <property name="ignore_points">0</property>
    <property name="shotcut:caption">Camille_bonus_recadre.mp4</property>
    <property name="shotcut:skipConvert">1</property>
    <property name="global_feed">1</property>
    <property name="xml">was here</property>
    <filter id="filter1304" out="00:01:50.960000" in="00:01:44.000000">
      <property name="background">colour:0</property>
      <property name="mlt_service">affine</property>
      <property name="shotcut:filter">affineSizePosition</property>
      <property name="transition.fill">1</property>
      <property name="transition.distort">0</property>
      <property name="transition.rect">-548.0 -308.0 275.0 155.0 1</property>
      <property name="transition.valign">top</property>
      <property name="transition.halign">left</property>
      <property name="shotcut:animIn">00:00:00.000</property>
      <property name="shotcut:animOut">00:00:00.000</property>
      <property name="transition.threads">0</property>
    </filter>
  </producer>
  <producer id="producer749" title="Anonymous Submission" in="00:00:00.000" out="00:03:35.640">
    <property name="length">00:03:35:17</property>
    <property name="eof">pause</property>
    <property name="resource">../../006 - Videos format youtube/Bonus/Camille_bonus_recadre.mp4</property>
    <property name="audio_index">1</property>
    <property name="video_index">0</property>
    <property name="mute_on_pause">0</property>
    <property name="mlt_service">avformat-novalidate</property>
    <property name="seekable">1</property>
    <property name="aspect_ratio">1</property>
    <property name="creation_time">2020-05-04T19:45:54</property>
    <property name="shotcut:hash">2e165d68055d486add3c4562e4c703c2</property>
    <property name="ignore_points">0</property>
    <property name="shotcut:caption">Camille_bonus_recadre.mp4</property>
    <property name="shotcut:skipConvert">1</property>
    <property name="global_feed">1</property>
    <property name="xml">was here</property>
    <filter id="filter1305" out="00:03:35.640" in="00:01:51.000000">
      <property name="background">colour:0</property>
      <property name="mlt_service">affine</property>
      <property name="shotcut:filter">affineSizePosition</property>
      <property name="transition.fill">1</property>
      <property name="transition.distort">0</property>
      <property name="transition.rect">-3040.0 0.0 321.0 181.0 1</property>
      <property name="transition.valign">top</property>
      <property name="transition.halign">left</property>
      <property name="shotcut:animIn">00:00:00.000</property>
      <property name="shotcut:animOut">00:00:00.000</property>
      <property name="transition.threads">0</property>
    </filter>
  </producer>
  <playlist id="playlist45">
    <property name="shotcut:video">1</property>
    <property name="shotcut:name">Camille bonus recadre</property>
    <property name="shotcut:lock">1</property>
    <entry producer="producer744" in="00:00:00.000" out="00:01:03.960000" />
  <entry producer="producer745" in="00:01:04.000000" out="00:01:19.960000" />
  <entry producer="producer746" in="00:01:20.000000" out="00:01:34.960000" />
  <entry producer="producer747" in="00:01:35.000000" out="00:01:43.960000" />
  <entry producer="producer748" in="00:01:44.000000" out="00:01:50.960000" />
  <entry producer="producer749" in="00:01:51.000000" out="00:03:35.640" />
  </playlist>
  <producer id="producer750" title="Anonymous Submission" in="00:00:00.000" out="00:03:35.640">
    <property name="length">00:03:35:17</property>
    <property name="eof">pause</property>
    <property name="resource">../../006 - Videos format youtube/Bonus/Bidou_bonus_recadre.mp4</property>
    <property name="audio_index">1</property>
    <property name="video_index">0</property>
    <property name="mute_on_pause">0</property>
    <property name="mlt_service">avformat-novalidate</property>
    <property name="seekable">1</property>
    <property name="aspect_ratio">1</property>
    <property name="creation_time">2020-05-04T19:40:43</property>
    <property name="shotcut:hash">cad9e016c8749576a320bd38391ed515</property>
    <property name="ignore_points">0</property>
    <property name="shotcut:caption">Bidou_bonus_recadre.mp4</property>
    <property name="shotcut:skipConvert">1</property>
    <property name="global_feed">1</property>
    <property name="xml">was here</property>
    <filter id="filter1306" out="00:01:03.960000">
      <property name="background">colour:0</property>
      <property name="mlt_service">affine</property>
      <property name="shotcut:filter">affineSizePosition</property>
      <property name="transition.fill">1</property>
      <property name="transition.distort">0</property>
      <property name="transition.rect">-1371.0 -771.0 275.0 155.0 1</property>
      <property name="transition.valign">top</property>
      <property name="transition.halign">left</property>
      <property name="shotcut:animIn">00:00:00.000</property>
      <property name="shotcut:animOut">00:00:00.000</property>
      <property name="transition.threads">0</property>
    </filter>
  </producer>
  <producer id="producer751" title="Anonymous Submission" in="00:00:00.000" out="00:03:35.640">
    <property name="length">00:03:35:17</property>
    <property name="eof">pause</property>
    <property name="resource">../../006 - Videos format youtube/Bonus/Bidou_bonus_recadre.mp4</property>
    <property name="audio_index">1</property>
    <property name="video_index">0</property>
    <property name="mute_on_pause">0</property>
    <property name="mlt_service">avformat-novalidate</property>
    <property name="seekable">1</property>
    <property name="aspect_ratio">1</property>
    <property name="creation_time">2020-05-04T19:40:43</property>
    <property name="shotcut:hash">cad9e016c8749576a320bd38391ed515</property>
    <property name="ignore_points">0</property>
    <property name="shotcut:caption">Bidou_bonus_recadre.mp4</property>
    <property name="shotcut:skipConvert">1</property>
    <property name="global_feed">1</property>
    <property name="xml">was here</property>
    <filter id="filter1307" out="00:01:19.960000" in="00:01:04.000000">
      <property name="background">colour:0</property>
      <property name="mlt_service">affine</property>
      <property name="shotcut:filter">affineSizePosition</property>
      <property name="transition.fill">1</property>
      <property name="transition.distort">0</property>
      <property name="transition.rect">-1371.0 -771.0 275.0 155.0 1</property>
      <property name="transition.valign">top</property>
      <property name="transition.halign">left</property>
      <property name="shotcut:animIn">00:00:00.000</property>
      <property name="shotcut:animOut">00:00:00.000</property>
      <property name="transition.threads">0</property>
    </filter>
  </producer>
  <producer id="producer752" title="Anonymous Submission" in="00:00:00.000" out="00:03:35.640">
    <property name="length">00:03:35:17</property>
    <property name="eof">pause</property>
    <property name="resource">../../006 - Videos format youtube/Bonus/Bidou_bonus_recadre.mp4</property>
    <property name="audio_index">1</property>
    <property name="video_index">0</property>
    <property name="mute_on_pause">0</property>
    <property name="mlt_service">avformat-novalidate</property>
    <property name="seekable">1</property>
    <property name="aspect_ratio">1</property>
    <property name="creation_time">2020-05-04T19:40:43</property>
    <property name="shotcut:hash">cad9e016c8749576a320bd38391ed515</property>
    <property name="ignore_points">0</property>
    <property name="shotcut:caption">Bidou_bonus_recadre.mp4</property>
    <property name="shotcut:skipConvert">1</property>
    <property name="global_feed">1</property>
    <property name="xml">was here</property>
    <filter id="filter1308" out="00:01:34.960000" in="00:01:20.000000">
      <property name="background">colour:0</property>
      <property name="mlt_service">affine</property>
      <property name="shotcut:filter">affineSizePosition</property>
      <property name="transition.fill">1</property>
      <property name="transition.distort">0</property>
      <property name="transition.rect">-2080.0 0.0 321.0 181.0 1</property>
      <property name="transition.valign">top</property>
      <property name="transition.halign">left</property>
      <property name="shotcut:animIn">00:00:00.000</property>
      <property name="shotcut:animOut">00:00:00.000</property>
      <property name="transition.threads">0</property>
    </filter>
  </producer>
  <producer id="producer753" title="Anonymous Submission" in="00:00:00.000" out="00:03:35.640">
    <property name="length">00:03:35:17</property>
    <property name="eof">pause</property>
    <property name="resource">../../006 - Videos format youtube/Bonus/Bidou_bonus_recadre.mp4</property>
    <property name="audio_index">1</property>
    <property name="video_index">0</property>
    <property name="mute_on_pause">0</property>
    <property name="mlt_service">avformat-novalidate</property>
    <property name="seekable">1</property>
    <property name="aspect_ratio">1</property>
    <property name="creation_time">2020-05-04T19:40:43</property>
    <property name="shotcut:hash">cad9e016c8749576a320bd38391ed515</property>
    <property name="ignore_points">0</property>
    <property name="shotcut:caption">Bidou_bonus_recadre.mp4</property>
    <property name="shotcut:skipConvert">1</property>
    <property name="global_feed">1</property>
    <property name="xml">was here</property>
    <filter id="filter1309" out="00:01:43.960000" in="00:01:35.000000">
      <property name="background">colour:0</property>
      <property name="mlt_service">affine</property>
      <property name="shotcut:filter">affineSizePosition</property>
      <property name="transition.fill">1</property>
      <property name="transition.distort">0</property>
      <property name="transition.rect">-1371.0 -771.0 275.0 155.0 1</property>
      <property name="transition.valign">top</property>
      <property name="transition.halign">left</property>
      <property name="shotcut:animIn">00:00:00.000</property>
      <property name="shotcut:animOut">00:00:00.000</property>
      <property name="transition.threads">0</property>
    </filter>
  </producer>
  <producer id="producer754" title="Anonymous Submission" in="00:00:00.000" out="00:03:35.640">
    <property name="length">00:03:35:17</property>
    <property name="eof">pause</property>
    <property name="resource">../../006 - Videos format youtube/Bonus/Bidou_bonus_recadre.mp4</property>
    <property name="audio_index">1</property>
    <property name="video_index">0</property>
    <property name="mute_on_pause">0</property>
    <property name="mlt_service">avformat-novalidate</property>
    <property name="seekable">1</property>
    <property name="aspect_ratio">1</property>
    <property name="creation_time">2020-05-04T19:40:43</property>
    <property name="shotcut:hash">cad9e016c8749576a320bd38391ed515</property>
    <property name="ignore_points">0</property>
    <property name="shotcut:caption">Bidou_bonus_recadre.mp4</property>
    <property name="shotcut:skipConvert">1</property>
    <property name="global_feed">1</property>
    <property name="xml">was here</property>
    <filter id="filter1310" out="00:01:50.960000" in="00:01:44.000000">
      <property name="background">colour:0</property>
      <property name="mlt_service">affine</property>
      <property name="shotcut:filter">affineSizePosition</property>
      <property name="transition.fill">1</property>
      <property name="transition.distort">0</property>
      <property name="transition.rect">-1371.0 -771.0 275.0 155.0 1</property>
      <property name="transition.valign">top</property>
      <property name="transition.halign">left</property>
      <property name="shotcut:animIn">00:00:00.000</property>
      <property name="shotcut:animOut">00:00:00.000</property>
      <property name="transition.threads">0</property>
    </filter>
  </producer>
  <producer id="producer755" title="Anonymous Submission" in="00:00:00.000" out="00:03:35.640">
    <property name="length">00:03:35:17</property>
    <property name="eof">pause</property>
    <property name="resource">../../006 - Videos format youtube/Bonus/Bidou_bonus_recadre.mp4</property>
    <property name="audio_index">1</property>
    <property name="video_index">0</property>
    <property name="mute_on_pause">0</property>
    <property name="mlt_service">avformat-novalidate</property>
    <property name="seekable">1</property>
    <property name="aspect_ratio">1</property>
    <property name="creation_time">2020-05-04T19:40:43</property>
    <property name="shotcut:hash">cad9e016c8749576a320bd38391ed515</property>
    <property name="ignore_points">0</property>
    <property name="shotcut:caption">Bidou_bonus_recadre.mp4</property>
    <property name="shotcut:skipConvert">1</property>
    <property name="global_feed">1</property>
    <property name="xml">was here</property>
    <filter id="filter1311" out="00:03:35.640" in="00:01:51.000000">
      <property name="background">colour:0</property>
      <property name="mlt_service">affine</property>
      <property name="shotcut:filter">affineSizePosition</property>
      <property name="transition.fill">1</property>
      <property name="transition.distort">0</property>
      <property name="transition.rect">-2080.0 0.0 321.0 181.0 1</property>
      <property name="transition.valign">top</property>
      <property name="transition.halign">left</property>
      <property name="shotcut:animIn">00:00:00.000</property>
      <property name="shotcut:animOut">00:00:00.000</property>
      <property name="transition.threads">0</property>
    </filter>
  </producer>
  <playlist id="playlist46">
    <property name="shotcut:video">1</property>
    <property name="shotcut:name">Bidou bonus recadre</property>
    <property name="shotcut:lock">1</property>
    <entry producer="producer750" in="00:00:00.000" out="00:01:03.960000" />
  <entry producer="producer751" in="00:01:04.000000" out="00:01:19.960000" />
  <entry producer="producer752" in="00:01:20.000000" out="00:01:34.960000" />
  <entry producer="producer753" in="00:01:35.000000" out="00:01:43.960000" />
  <entry producer="producer754" in="00:01:44.000000" out="00:01:50.960000" />
  <entry producer="producer755" in="00:01:51.000000" out="00:03:35.640" />
  </playlist>
  <producer id="producer756" title="Anonymous Submission" in="00:00:00.000" out="00:03:35.640">
    <property name="length">00:03:35:17</property>
    <property name="eof">pause</property>
    <property name="resource">../../006 - Videos format youtube/Bonus/Nelly_bonus_recadre.mp4</property>
    <property name="audio_index">1</property>
    <property name="video_index">0</property>
    <property name="mute_on_pause">0</property>
    <property name="mlt_service">avformat-novalidate</property>
    <property name="seekable">1</property>
    <property name="aspect_ratio">1</property>
    <property name="creation_time">2020-05-04T19:36:46</property>
    <property name="shotcut:hash">bda5dde38a2a50f885f7d825540c3463</property>
    <property name="ignore_points">0</property>
    <property name="shotcut:caption">Nelly_bonus_recadre.mp4</property>
    <property name="shotcut:skipConvert">1</property>
    <property name="global_feed">1</property>
    <property name="xml">was here</property>
    <filter id="filter1312" out="00:01:03.960000">
      <property name="background">colour:0</property>
      <property name="mlt_service">affine</property>
      <property name="shotcut:filter">affineSizePosition</property>
      <property name="transition.fill">1</property>
      <property name="transition.distort">0</property>
      <property name="transition.rect">-1645.0 -925.0 275.0 155.0 1</property>
      <property name="transition.valign">top</property>
      <property name="transition.halign">left</property>
      <property name="shotcut:animIn">00:00:00.000</property>
      <property name="shotcut:animOut">00:00:00.000</property>
      <property name="transition.threads">0</property>
    </filter>
  </producer>
  <producer id="producer757" title="Anonymous Submission" in="00:00:00.000" out="00:03:35.640">
    <property name="length">00:03:35:17</property>
    <property name="eof">pause</property>
    <property name="resource">../../006 - Videos format youtube/Bonus/Nelly_bonus_recadre.mp4</property>
    <property name="audio_index">1</property>
    <property name="video_index">0</property>
    <property name="mute_on_pause">0</property>
    <property name="mlt_service">avformat-novalidate</property>
    <property name="seekable">1</property>
    <property name="aspect_ratio">1</property>
    <property name="creation_time">2020-05-04T19:36:46</property>
    <property name="shotcut:hash">bda5dde38a2a50f885f7d825540c3463</property>
    <property name="ignore_points">0</property>
    <property name="shotcut:caption">Nelly_bonus_recadre.mp4</property>
    <property name="shotcut:skipConvert">1</property>
    <property name="global_feed">1</property>
    <property name="xml">was here</property>
    <filter id="filter1313" out="00:01:19.960000" in="00:01:04.000000">
      <property name="background">colour:0</property>
      <property name="mlt_service">affine</property>
      <property name="shotcut:filter">affineSizePosition</property>
      <property name="transition.fill">1</property>
      <property name="transition.distort">0</property>
      <property name="transition.rect">-1645.0 -925.0 275.0 155.0 1</property>
      <property name="transition.valign">top</property>
      <property name="transition.halign">left</property>
      <property name="shotcut:animIn">00:00:00.000</property>
      <property name="shotcut:animOut">00:00:00.000</property>
      <property name="transition.threads">0</property>
    </filter>
  </producer>
  <producer id="producer758" title="Anonymous Submission" in="00:00:00.000" out="00:03:35.640">
    <property name="length">00:03:35:17</property>
    <property name="eof">pause</property>
    <property name="resource">../../006 - Videos format youtube/Bonus/Nelly_bonus_recadre.mp4</property>
    <property name="audio_index">1</property>
    <property name="video_index">0</property>
    <property name="mute_on_pause">0</property>
    <property name="mlt_service">avformat-novalidate</property>
    <property name="seekable">1</property>
    <property name="aspect_ratio">1</property>
    <property name="creation_time">2020-05-04T19:36:46</property>
    <property name="shotcut:hash">bda5dde38a2a50f885f7d825540c3463</property>
    <property name="ignore_points">0</property>
    <property name="shotcut:caption">Nelly_bonus_recadre.mp4</property>
    <property name="shotcut:skipConvert">1</property>
    <property name="global_feed">1</property>
    <property name="xml">was here</property>
    <filter id="filter1314" out="00:01:34.960000" in="00:01:20.000000">
      <property name="background">colour:0</property>
      <property name="mlt_service">affine</property>
      <property name="shotcut:filter">affineSizePosition</property>
      <property name="transition.fill">1</property>
      <property name="transition.distort">0</property>
      <property name="transition.rect">-1760.0 0.0 321.0 181.0 1</property>
      <property name="transition.valign">top</property>
      <property name="transition.halign">left</property>
      <property name="shotcut:animIn">00:00:00.000</property>
      <property name="shotcut:animOut">00:00:00.000</property>
      <property name="transition.threads">0</property>
    </filter>
  </producer>
  <producer id="producer759" title="Anonymous Submission" in="00:00:00.000" out="00:03:35.640">
    <property name="length">00:03:35:17</property>
    <property name="eof">pause</property>
    <property name="resource">../../006 - Videos format youtube/Bonus/Nelly_bonus_recadre.mp4</property>
    <property name="audio_index">1</property>
    <property name="video_index">0</property>
    <property name="mute_on_pause">0</property>
    <property name="mlt_service">avformat-novalidate</property>
    <property name="seekable">1</property>
    <property name="aspect_ratio">1</property>
    <property name="creation_time">2020-05-04T19:36:46</property>
    <property name="shotcut:hash">bda5dde38a2a50f885f7d825540c3463</property>
    <property name="ignore_points">0</property>
    <property name="shotcut:caption">Nelly_bonus_recadre.mp4</property>
    <property name="shotcut:skipConvert">1</property>
    <property name="global_feed">1</property>
    <property name="xml">was here</property>
    <filter id="filter1315" out="00:01:43.960000" in="00:01:35.000000">
      <property name="background">colour:0</property>
      <property name="mlt_service">affine</property>
      <property name="shotcut:filter">affineSizePosition</property>
      <property name="transition.fill">1</property>
      <property name="transition.distort">0</property>
      <property name="transition.rect">-1645.0 -925.0 275.0 155.0 1</property>
      <property name="transition.valign">top</property>
      <property name="transition.halign">left</property>
      <property name="shotcut:animIn">00:00:00.000</property>
      <property name="shotcut:animOut">00:00:00.000</property>
      <property name="transition.threads">0</property>
    </filter>
  </producer>
  <producer id="producer760" title="Anonymous Submission" in="00:00:00.000" out="00:03:35.640">
    <property name="length">00:03:35:17</property>
    <property name="eof">pause</property>
    <property name="resource">../../006 - Videos format youtube/Bonus/Nelly_bonus_recadre.mp4</property>
    <property name="audio_index">1</property>
    <property name="video_index">0</property>
    <property name="mute_on_pause">0</property>
    <property name="mlt_service">avformat-novalidate</property>
    <property name="seekable">1</property>
    <property name="aspect_ratio">1</property>
    <property name="creation_time">2020-05-04T19:36:46</property>
    <property name="shotcut:hash">bda5dde38a2a50f885f7d825540c3463</property>
    <property name="ignore_points">0</property>
    <property name="shotcut:caption">Nelly_bonus_recadre.mp4</property>
    <property name="shotcut:skipConvert">1</property>
    <property name="global_feed">1</property>
    <property name="xml">was here</property>
    <filter id="filter1316" out="00:01:50.960000" in="00:01:44.000000">
      <property name="background">colour:0</property>
      <property name="mlt_service">affine</property>
      <property name="shotcut:filter">affineSizePosition</property>
      <property name="transition.fill">1</property>
      <property name="transition.distort">0</property>
      <property name="transition.rect">-1645.0 -925.0 275.0 155.0 1</property>
      <property name="transition.valign">top</property>
      <property name="transition.halign">left</property>
      <property name="shotcut:animIn">00:00:00.000</property>
      <property name="shotcut:animOut">00:00:00.000</property>
      <property name="transition.threads">0</property>
    </filter>
  </producer>
  <producer id="producer761" title="Anonymous Submission" in="00:00:00.000" out="00:03:35.640">
    <property name="length">00:03:35:17</property>
    <property name="eof">pause</property>
    <property name="resource">../../006 - Videos format youtube/Bonus/Nelly_bonus_recadre.mp4</property>
    <property name="audio_index">1</property>
    <property name="video_index">0</property>
    <property name="mute_on_pause">0</property>
    <property name="mlt_service">avformat-novalidate</property>
    <property name="seekable">1</property>
    <property name="aspect_ratio">1</property>
    <property name="creation_time">2020-05-04T19:36:46</property>
    <property name="shotcut:hash">bda5dde38a2a50f885f7d825540c3463</property>
    <property name="ignore_points">0</property>
    <property name="shotcut:caption">Nelly_bonus_recadre.mp4</property>
    <property name="shotcut:skipConvert">1</property>
    <property name="global_feed">1</property>
    <property name="xml">was here</property>
    <filter id="filter1317" out="00:03:35.640" in="00:01:51.000000">
      <property name="background">colour:0</property>
      <property name="mlt_service">affine</property>
      <property name="shotcut:filter">affineSizePosition</property>
      <property name="transition.fill">1</property>
      <property name="transition.distort">0</property>
      <property name="transition.rect">-1760.0 0.0 321.0 181.0 1</property>
      <property name="transition.valign">top</property>
      <property name="transition.halign">left</property>
      <property name="shotcut:animIn">00:00:00.000</property>
      <property name="shotcut:animOut">00:00:00.000</property>
      <property name="transition.threads">0</property>
    </filter>
  </producer>
  <playlist id="playlist47">
    <property name="shotcut:video">1</property>
    <property name="shotcut:name">Nelly bonus recadre</property>
    <property name="shotcut:lock">1</property>
    <entry producer="producer756" in="00:00:00.000" out="00:01:03.960000" />
  <entry producer="producer757" in="00:01:04.000000" out="00:01:19.960000" />
  <entry producer="producer758" in="00:01:20.000000" out="00:01:34.960000" />
  <entry producer="producer759" in="00:01:35.000000" out="00:01:43.960000" />
  <entry producer="producer760" in="00:01:44.000000" out="00:01:50.960000" />
  <entry producer="producer761" in="00:01:51.000000" out="00:03:35.640" />
  </playlist>
  <producer id="producer762" title="Anonymous Submission" in="00:00:00.000" out="00:03:35.640">
    <property name="length">00:03:35:17</property>
    <property name="eof">pause</property>
    <property name="resource">../../006 - Videos format youtube/Bonus/Laurence_bonus_recadre.mp4</property>
    <property name="audio_index">1</property>
    <property name="video_index">0</property>
    <property name="mute_on_pause">0</property>
    <property name="mlt_service">avformat-novalidate</property>
    <property name="seekable">1</property>
    <property name="aspect_ratio">1</property>
    <property name="creation_time">2020-05-04T19:48:20</property>
    <property name="shotcut:hash">96b817e0ade0ca64c6c4eafb78718e1d</property>
    <property name="ignore_points">0</property>
    <property name="shotcut:caption">Laurence_bonus_recadre.mp4</property>
    <property name="shotcut:skipConvert">1</property>
    <property name="global_feed">1</property>
    <property name="xml">was here</property>
    <filter id="filter1318" out="00:00:29.920000">
      <property name="background">colour:0</property>
      <property name="mlt_service">affine</property>
      <property name="shotcut:filter">affineSizePosition</property>
      <property name="transition.fill">1</property>
      <property name="transition.distort">0</property>
      <property name="transition.rect">-822.0 -462.0 275.0 155.0 1</property>
      <property name="transition.valign">top</property>
      <property name="transition.halign">left</property>
      <property name="shotcut:animIn">00:00:00.000</property>
      <property name="shotcut:animOut">00:00:00.000</property>
      <property name="transition.threads">0</property>
    </filter>
  </producer>
  <producer id="producer763" title="Anonymous Submission" in="00:00:00.000" out="00:03:35.640">
    <property name="length">00:03:35:17</property>
    <property name="eof">pause</property>
    <property name="resource">../../006 - Videos format youtube/Bonus/Laurence_bonus_recadre.mp4</property>
    <property name="audio_index">1</property>
    <property name="video_index">0</property>
    <property name="mute_on_pause">0</property>
    <property name="mlt_service">avformat-novalidate</property>
    <property name="seekable">1</property>
    <property name="aspect_ratio">1</property>
    <property name="creation_time">2020-05-04T19:48:20</property>
    <property name="shotcut:hash">96b817e0ade0ca64c6c4eafb78718e1d</property>
    <property name="ignore_points">0</property>
    <property name="shotcut:caption">Laurence_bonus_recadre.mp4</property>
    <property name="shotcut:skipConvert">1</property>
    <property name="global_feed">1</property>
    <property name="xml">was here</property>
    <filter id="filter1319" out="00:01:03.920000" in="00:00:29.960000">
      <property name="background">colour:0</property>
      <property name="mlt_service">affine</property>
      <property name="shotcut:filter">affineSizePosition</property>
      <property name="transition.fill">1</property>
      <property name="transition.distort">0</property>
      <property name="transition.rect">-480.0 -270.0 241.0 136.0 1</property>
      <property name="transition.valign">top</property>
      <property name="transition.halign">left</property>
      <property name="shotcut:animIn">00:00:00.000</property>
      <property name="shotcut:animOut">00:00:00.000</property>
      <property name="transition.threads">0</property>
    </filter>
  </producer>
  <producer id="producer764" title="Anonymous Submission" in="00:00:00.000" out="00:03:35.640">
    <property name="length">00:03:35:17</property>
    <property name="eof">pause</property>
    <property name="resource">../../006 - Videos format youtube/Bonus/Laurence_bonus_recadre.mp4</property>
    <property name="audio_index">1</property>
    <property name="video_index">0</property>
    <property name="mute_on_pause">0</property>
    <property name="mlt_service">avformat-novalidate</property>
    <property name="seekable">1</property>
    <property name="aspect_ratio">1</property>
    <property name="creation_time">2020-05-04T19:48:20</property>
    <property name="shotcut:hash">96b817e0ade0ca64c6c4eafb78718e1d</property>
    <property name="ignore_points">0</property>
    <property name="shotcut:caption">Laurence_bonus_recadre.mp4</property>
    <property name="shotcut:skipConvert">1</property>
    <property name="global_feed">1</property>
    <property name="xml">was here</property>
    <filter id="filter1320" out="00:01:19.920000" in="00:01:03.960000">
      <property name="background">colour:0</property>
      <property name="mlt_service">affine</property>
      <property name="shotcut:filter">affineSizePosition</property>
      <property name="transition.fill">1</property>
      <property name="transition.distort">0</property>
      <property name="transition.rect">-822.0 -462.0 275.0 155.0 1</property>
      <property name="transition.valign">top</property>
      <property name="transition.halign">left</property>
      <property name="shotcut:animIn">00:00:00.000</property>
      <property name="shotcut:animOut">00:00:00.000</property>
      <property name="transition.threads">0</property>
    </filter>
  </producer>
  <producer id="producer765" title="Anonymous Submission" in="00:00:00.000" out="00:03:35.640">
    <property name="length">00:03:35:17</property>
    <property name="eof">pause</property>
    <property name="resource">../../006 - Videos format youtube/Bonus/Laurence_bonus_recadre.mp4</property>
    <property name="audio_index">1</property>
    <property name="video_index">0</property>
    <property name="mute_on_pause">0</property>
    <property name="mlt_service">avformat-novalidate</property>
    <property name="seekable">1</property>
    <property name="aspect_ratio">1</property>
    <property name="creation_time">2020-05-04T19:48:20</property>
    <property name="shotcut:hash">96b817e0ade0ca64c6c4eafb78718e1d</property>
    <property name="ignore_points">0</property>
    <property name="shotcut:caption">Laurence_bonus_recadre.mp4</property>
    <property name="shotcut:skipConvert">1</property>
    <property name="global_feed">1</property>
    <property name="xml">was here</property>
    <filter id="filter1321" out="00:01:34.920000" in="00:01:19.960000">
      <property name="background">colour:0</property>
      <property name="mlt_service">affine</property>
      <property name="shotcut:filter">affineSizePosition</property>
      <property name="transition.fill">1</property>
      <property name="transition.distort">0</property>
      <property name="transition.rect">-2719.0 0.0 321.0 181.0 1</property>
      <property name="transition.valign">top</property>
      <property name="transition.halign">left</property>
      <property name="shotcut:animIn">00:00:00.000</property>
      <property name="shotcut:animOut">00:00:00.000</property>
      <property name="transition.threads">0</property>
    </filter>
  </producer>
  <producer id="producer766" title="Anonymous Submission" in="00:00:00.000" out="00:03:35.640">
    <property name="length">00:03:35:17</property>
    <property name="eof">pause</property>
    <property name="resource">../../006 - Videos format youtube/Bonus/Laurence_bonus_recadre.mp4</property>
    <property name="audio_index">1</property>
    <property name="video_index">0</property>
    <property name="mute_on_pause">0</property>
    <property name="mlt_service">avformat-novalidate</property>
    <property name="seekable">1</property>
    <property name="aspect_ratio">1</property>
    <property name="creation_time">2020-05-04T19:48:20</property>
    <property name="shotcut:hash">96b817e0ade0ca64c6c4eafb78718e1d</property>
    <property name="ignore_points">0</property>
    <property name="shotcut:caption">Laurence_bonus_recadre.mp4</property>
    <property name="shotcut:skipConvert">1</property>
    <property name="global_feed">1</property>
    <property name="xml">was here</property>
    <filter id="filter1322" out="00:01:43.920000" in="00:01:34.960000">
      <property name="background">colour:0</property>
      <property name="mlt_service">affine</property>
      <property name="shotcut:filter">affineSizePosition</property>
      <property name="transition.fill">1</property>
      <property name="transition.distort">0</property>
      <property name="transition.rect">0.0 462.0 823.0 463.0 1</property>
      <property name="transition.valign">top</property>
      <property name="transition.halign">left</property>
      <property name="shotcut:animIn">00:00:00.000</property>
      <property name="shotcut:animOut">00:00:00.000</property>
      <property name="transition.threads">0</property>
    </filter>
  </producer>
  <producer id="producer767" title="Anonymous Submission" in="00:00:00.000" out="00:03:35.640">
    <property name="length">00:03:35:17</property>
    <property name="eof">pause</property>
    <property name="resource">../../006 - Videos format youtube/Bonus/Laurence_bonus_recadre.mp4</property>
    <property name="audio_index">1</property>
    <property name="video_index">0</property>
    <property name="mute_on_pause">0</property>
    <property name="mlt_service">avformat-novalidate</property>
    <property name="seekable">1</property>
    <property name="aspect_ratio">1</property>
    <property name="creation_time">2020-05-04T19:48:20</property>
    <property name="shotcut:hash">96b817e0ade0ca64c6c4eafb78718e1d</property>
    <property name="ignore_points">0</property>
    <property name="shotcut:caption">Laurence_bonus_recadre.mp4</property>
    <property name="shotcut:skipConvert">1</property>
    <property name="global_feed">1</property>
    <property name="xml">was here</property>
    <filter id="filter1323" out="00:01:50.920000" in="00:01:43.960000">
      <property name="background">colour:0</property>
      <property name="mlt_service">affine</property>
      <property name="shotcut:filter">affineSizePosition</property>
      <property name="transition.fill">1</property>
      <property name="transition.distort">0</property>
      <property name="transition.rect">-548.0 -308.0 275.0 155.0 1</property>
      <property name="transition.valign">top</property>
      <property name="transition.halign">left</property>
      <property name="shotcut:animIn">00:00:00.000</property>
      <property name="shotcut:animOut">00:00:00.000</property>
      <property name="transition.threads">0</property>
    </filter>
  </producer>
  <producer id="producer768" title="Anonymous Submission" in="00:00:00.000" out="00:03:35.640">
    <property name="length">00:03:35:17</property>
    <property name="eof">pause</property>
    <property name="resource">../../006 - Videos format youtube/Bonus/Laurence_bonus_recadre.mp4</property>
    <property name="audio_index">1</property>
    <property name="video_index">0</property>
    <property name="mute_on_pause">0</property>
    <property name="mlt_service">avformat-novalidate</property>
    <property name="seekable">1</property>
    <property name="aspect_ratio">1</property>
    <property name="creation_time">2020-05-04T19:48:20</property>
    <property name="shotcut:hash">96b817e0ade0ca64c6c4eafb78718e1d</property>
    <property name="ignore_points">0</property>
    <property name="shotcut:caption">Laurence_bonus_recadre.mp4</property>
    <property name="shotcut:skipConvert">1</property>
    <property name="global_feed">1</property>
    <property name="xml">was here</property>
    <filter id="filter1324" out="00:03:35.640" in="00:01:50.960000">
      <property name="background">colour:0</property>
      <property name="mlt_service">affine</property>
      <property name="shotcut:filter">affineSizePosition</property>
      <property name="transition.fill">1</property>
      <property name="transition.distort">0</property>
      <property name="transition.rect">-2719.0 0.0 321.0 181.0 1</property>
      <property name="transition.valign">top</property>
      <property name="transition.halign">left</property>
      <property name="shotcut:animIn">00:00:00.000</property>
      <property name="shotcut:animOut">00:00:00.000</property>
      <property name="transition.threads">0</property>
    </filter>
  </producer>
  <playlist id="playlist48">
    <property name="shotcut:video">1</property>
    <property name="shotcut:name">Laurence bonus recadre</property>
    <property name="shotcut:lock">1</property>
    <blank length="00:00:00.040" />
    <entry producer="producer762" in="00:00:00.000" out="00:00:29.920000" />
  <entry producer="producer763" in="00:00:29.960000" out="00:01:03.920000" />
  <entry producer="producer764" in="00:01:03.960000" out="00:01:19.920000" />
  <entry producer="producer765" in="00:01:19.960000" out="00:01:34.920000" />
  <entry producer="producer766" in="00:01:34.960000" out="00:01:43.920000" />
  <entry producer="producer767" in="00:01:43.960000" out="00:01:50.920000" />
  <entry producer="producer768" in="00:01:50.960000" out="00:03:35.640" />
  </playlist>
  <producer id="producer769" title="Anonymous Submission" in="00:00:00.000" out="00:03:35.640">
    <property name="length">00:03:35:17</property>
    <property name="eof">pause</property>
    <property name="resource">../../006 - Videos format youtube/Bonus/Nadine_bonus_recadre.mp4</property>
    <property name="audio_index">1</property>
    <property name="video_index">0</property>
    <property name="mute_on_pause">0</property>
    <property name="mlt_service">avformat-novalidate</property>
    <property name="seekable">1</property>
    <property name="aspect_ratio">1</property>
    <property name="creation_time">2020-05-04T19:47:08</property>
    <property name="shotcut:hash">72a5c03ede31823c1442cf41fa4ce158</property>
    <property name="ignore_points">0</property>
    <property name="shotcut:caption">Nadine_bonus_recadre.mp4</property>
    <property name="shotcut:skipConvert">1</property>
    <property name="global_feed">1</property>
    <property name="xml">was here</property>
    <filter id="filter1325" out="00:01:03.960000">
      <property name="background">colour:0</property>
      <property name="mlt_service">affine</property>
      <property name="shotcut:filter">affineSizePosition</property>
      <property name="transition.fill">1</property>
      <property name="transition.distort">0</property>
      <property name="transition.rect">-1097.0 -617.0 275.0 155.0 1</property>
      <property name="transition.valign">top</property>
      <property name="transition.halign">left</property>
      <property name="shotcut:animIn">00:00:00.000</property>
      <property name="shotcut:animOut">00:00:00.000</property>
      <property name="transition.threads">0</property>
    </filter>
  </producer>
  <producer id="producer770" title="Anonymous Submission" in="00:00:00.000" out="00:03:35.640">
    <property name="length">00:03:35:17</property>
    <property name="eof">pause</property>
    <property name="resource">../../006 - Videos format youtube/Bonus/Nadine_bonus_recadre.mp4</property>
    <property name="audio_index">1</property>
    <property name="video_index">0</property>
    <property name="mute_on_pause">0</property>
    <property name="mlt_service">avformat-novalidate</property>
    <property name="seekable">1</property>
    <property name="aspect_ratio">1</property>
    <property name="creation_time">2020-05-04T19:47:08</property>
    <property name="shotcut:hash">72a5c03ede31823c1442cf41fa4ce158</property>
    <property name="ignore_points">0</property>
    <property name="shotcut:caption">Nadine_bonus_recadre.mp4</property>
    <property name="shotcut:skipConvert">1</property>
    <property name="global_feed">1</property>
    <property name="xml">was here</property>
    <filter id="filter1326" out="00:01:19.960000" in="00:01:04.000000">
      <property name="background">colour:0</property>
      <property name="mlt_service">affine</property>
      <property name="shotcut:filter">affineSizePosition</property>
      <property name="transition.fill">1</property>
      <property name="transition.distort">0</property>
      <property name="transition.rect">-1097.0 -617.0 275.0 155.0 1</property>
      <property name="transition.valign">top</property>
      <property name="transition.halign">left</property>
      <property name="shotcut:animIn">00:00:00.000</property>
      <property name="shotcut:animOut">00:00:00.000</property>
      <property name="transition.threads">0</property>
    </filter>
  </producer>
  <producer id="producer771" title="Anonymous Submission" in="00:00:00.000" out="00:03:35.640">
    <property name="length">00:03:35:17</property>
    <property name="eof">pause</property>
    <property name="resource">../../006 - Videos format youtube/Bonus/Nadine_bonus_recadre.mp4</property>
    <property name="audio_index">1</property>
    <property name="video_index">0</property>
    <property name="mute_on_pause">0</property>
    <property name="mlt_service">avformat-novalidate</property>
    <property name="seekable">1</property>
    <property name="aspect_ratio">1</property>
    <property name="creation_time">2020-05-04T19:47:08</property>
    <property name="shotcut:hash">72a5c03ede31823c1442cf41fa4ce158</property>
    <property name="ignore_points">0</property>
    <property name="shotcut:caption">Nadine_bonus_recadre.mp4</property>
    <property name="shotcut:skipConvert">1</property>
    <property name="global_feed">1</property>
    <property name="xml">was here</property>
    <filter id="filter1327" out="00:01:34.960000" in="00:01:20.000000">
      <property name="background">colour:0</property>
      <property name="mlt_service">affine</property>
      <property name="shotcut:filter">affineSizePosition</property>
      <property name="transition.fill">1</property>
      <property name="transition.distort">0</property>
      <property name="transition.rect">-2400.0 0.0 321.0 181.0 1</property>
      <property name="transition.valign">top</property>
      <property name="transition.halign">left</property>
      <property name="shotcut:animIn">00:00:00.000</property>
      <property name="shotcut:animOut">00:00:00.000</property>
      <property name="transition.threads">0</property>
    </filter>
  </producer>
  <producer id="producer772" title="Anonymous Submission" in="00:00:00.000" out="00:03:35.640">
    <property name="length">00:03:35:17</property>
    <property name="eof">pause</property>
    <property name="resource">../../006 - Videos format youtube/Bonus/Nadine_bonus_recadre.mp4</property>
    <property name="audio_index">1</property>
    <property name="video_index">0</property>
    <property name="mute_on_pause">0</property>
    <property name="mlt_service">avformat-novalidate</property>
    <property name="seekable">1</property>
    <property name="aspect_ratio">1</property>
    <property name="creation_time">2020-05-04T19:47:08</property>
    <property name="shotcut:hash">72a5c03ede31823c1442cf41fa4ce158</property>
    <property name="ignore_points">0</property>
    <property name="shotcut:caption">Nadine_bonus_recadre.mp4</property>
    <property name="shotcut:skipConvert">1</property>
    <property name="global_feed">1</property>
    <property name="xml">was here</property>
    <filter id="filter1328" out="00:01:43.960000" in="00:01:35.000000">
      <property name="background">colour:0</property>
      <property name="mlt_service">affine</property>
      <property name="shotcut:filter">affineSizePosition</property>
      <property name="transition.fill">1</property>
      <property name="transition.distort">0</property>
      <property name="transition.rect">822.0 617.0 823.0 463.0 1</property>
      <property name="transition.valign">top</property>
      <property name="transition.halign">left</property>
      <property name="shotcut:animIn">00:00:00.000</property>
      <property name="shotcut:animOut">00:00:00.000</property>
      <property name="transition.threads">0</property>
    </filter>
  </producer>
  <producer id="producer773" title="Anonymous Submission" in="00:00:00.000" out="00:03:35.640">
    <property name="length">00:03:35:17</property>
    <property name="eof">pause</property>
    <property name="resource">../../006 - Videos format youtube/Bonus/Nadine_bonus_recadre.mp4</property>
    <property name="audio_index">1</property>
    <property name="video_index">0</property>
    <property name="mute_on_pause">0</property>
    <property name="mlt_service">avformat-novalidate</property>
    <property name="seekable">1</property>
    <property name="aspect_ratio">1</property>
    <property name="creation_time">2020-05-04T19:47:08</property>
    <property name="shotcut:hash">72a5c03ede31823c1442cf41fa4ce158</property>
    <property name="ignore_points">0</property>
    <property name="shotcut:caption">Nadine_bonus_recadre.mp4</property>
    <property name="shotcut:skipConvert">1</property>
    <property name="global_feed">1</property>
    <property name="xml">was here</property>
    <filter id="filter1329" out="00:01:50.960000" in="00:01:44.000000">
      <property name="background">colour:0</property>
      <property name="mlt_service">affine</property>
      <property name="shotcut:filter">affineSizePosition</property>
      <property name="transition.fill">1</property>
      <property name="transition.distort">0</property>
      <property name="transition.rect">-548.0 -308.0 275.0 155.0 1</property>
      <property name="transition.valign">top</property>
      <property name="transition.halign">left</property>
      <property name="shotcut:animIn">00:00:00.000</property>
      <property name="shotcut:animOut">00:00:00.000</property>
      <property name="transition.threads">0</property>
    </filter>
  </producer>
  <producer id="producer774" title="Anonymous Submission" in="00:00:00.000" out="00:03:35.640">
    <property name="length">00:03:35:17</property>
    <property name="eof">pause</property>
    <property name="resource">../../006 - Videos format youtube/Bonus/Nadine_bonus_recadre.mp4</property>
    <property name="audio_index">1</property>
    <property name="video_index">0</property>
    <property name="mute_on_pause">0</property>
    <property name="mlt_service">avformat-novalidate</property>
    <property name="seekable">1</property>
    <property name="aspect_ratio">1</property>
    <property name="creation_time">2020-05-04T19:47:08</property>
    <property name="shotcut:hash">72a5c03ede31823c1442cf41fa4ce158</property>
    <property name="ignore_points">0</property>
    <property name="shotcut:caption">Nadine_bonus_recadre.mp4</property>
    <property name="shotcut:skipConvert">1</property>
    <property name="global_feed">1</property>
    <property name="xml">was here</property>
    <filter id="filter1330" out="00:03:35.640" in="00:01:51.000000">
      <property name="background">colour:0</property>
      <property name="mlt_service">affine</property>
      <property name="shotcut:filter">affineSizePosition</property>
      <property name="transition.fill">1</property>
      <property name="transition.distort">0</property>
      <property name="transition.rect">-2400.0 0.0 321.0 181.0 1</property>
      <property name="transition.valign">top</property>
      <property name="transition.halign">left</property>
      <property name="shotcut:animIn">00:00:00.000</property>
      <property name="shotcut:animOut">00:00:00.000</property>
      <property name="transition.threads">0</property>
    </filter>
  </producer>
  <playlist id="playlist49">
    <property name="shotcut:video">1</property>
    <property name="shotcut:name">Nadine bonus recadre</property>
    <property name="shotcut:lock">1</property>
    <entry producer="producer769" in="00:00:00.000" out="00:01:03.960000" />
  <entry producer="producer770" in="00:01:04.000000" out="00:01:19.960000" />
  <entry producer="producer771" in="00:01:20.000000" out="00:01:34.960000" />
  <entry producer="producer772" in="00:01:35.000000" out="00:01:43.960000" />
  <entry producer="producer773" in="00:01:44.000000" out="00:01:50.960000" />
  <entry producer="producer774" in="00:01:51.000000" out="00:03:35.640" />
  </playlist>
  <tractor id="tractor0" title="Shotcut version 19.08.05" global_feed="1" in="00:00:00.000" out="00:03:41.520">
    <property name="shotcut">1</property>
    <property name="shotcut:projectAudioChannels">2</property>
    <property name="shotcut:projectFolder">1</property>
    <property name="shotcut:scaleFactor">1.94333</property>
    <track producer="background" />
    <track producer="playlist0" hide="audio" />
    <track producer="playlist1" />
    <track producer="playlist2" />
    <track producer="playlist3" />
    <track producer="playlist4" />
    <track producer="playlist5" />
    <track producer="playlist6" />
    <track producer="playlist7" />
    <track producer="playlist8" />
    <track producer="playlist9" />
    <track producer="playlist10" />
    <track producer="playlist11" />
    <track producer="playlist12" />
    <track producer="playlist13" />
    <track producer="playlist14" />
    <track producer="playlist15" />
    <track producer="playlist16" />
    <track producer="playlist17" />
    <track producer="playlist18" />
    <track producer="playlist19" />
    <track producer="playlist20" />
    <track producer="playlist21" />
    <track producer="playlist22" />
    <track producer="playlist23" />
    <track producer="playlist24" />
    <track producer="playlist25" />
    <track producer="playlist26" />
    <track producer="playlist27" />
    <track producer="playlist28" />
    <track producer="playlist29" />
    <track producer="playlist30" />
    <track producer="playlist31" />
    <track producer="playlist32" />
    <track producer="playlist33" />
    <track producer="playlist34" />
    <track producer="playlist35" />
    <track producer="playlist36" />
    <track producer="playlist37" />
    <track producer="playlist38" />
    <track producer="playlist39" />
    <track producer="playlist40" />
    <track producer="playlist41" />
    <track producer="playlist42" />
    <track producer="playlist43" />
    <track producer="playlist44" />
    <track producer="playlist45" />
    <track producer="playlist46" />
    <track producer="playlist47" />
    <track producer="playlist48" />
    <track producer="playlist49" />
    <transition id="transition0">
      <property name="a_track">0</property>
      <property name="b_track">1</property>
      <property name="mlt_service">mix</property>
      <property name="always_active">1</property>
      <property name="sum">1</property>
    </transition>
    <transition id="transition1">
      <property name="a_track">1</property>
      <property name="b_track">1</property>
      <property name="version">0.9</property>
      <property name="mlt_service">frei0r.cairoblend</property>
      <property name="disable">1</property>
    </transition>
    <transition id="transition2">
      <property name="a_track">1</property>
      <property name="b_track">2</property>
      <property name="version">0.9</property>
      <property name="mlt_service">frei0r.cairoblend</property>
    </transition>
    <transition id="transition3">
      <property name="a_track">1</property>
      <property name="b_track">3</property>
      <property name="version">0.9</property>
      <property name="mlt_service">frei0r.cairoblend</property>
    </transition>
    <transition id="transition4">
      <property name="a_track">0</property>
      <property name="b_track">4</property>
      <property name="mlt_service">mix</property>
      <property name="always_active">1</property>
      <property name="sum">1</property>
    </transition>
    <transition id="transition5">
      <property name="a_track">1</property>
      <property name="b_track">4</property>
      <property name="version">0.9</property>
      <property name="mlt_service">frei0r.cairoblend</property>
      <property name="disable">0</property>
    </transition>
    <transition id="transition6">
      <property name="a_track">0</property>
      <property name="b_track">5</property>
      <property name="mlt_service">mix</property>
      <property name="always_active">1</property>
      <property name="sum">1</property>
    </transition>
    <transition id="transition7">
      <property name="a_track">1</property>
      <property name="b_track">5</property>
      <property name="version">0.9</property>
      <property name="mlt_service">frei0r.cairoblend</property>
      <property name="disable">0</property>
    </transition>
    <transition id="transition8">
      <property name="a_track">0</property>
      <property name="b_track">6</property>
      <property name="mlt_service">mix</property>
      <property name="always_active">1</property>
      <property name="sum">1</property>
    </transition>
    <transition id="transition9">
      <property name="a_track">1</property>
      <property name="b_track">6</property>
      <property name="version">0.9</property>
      <property name="mlt_service">frei0r.cairoblend</property>
      <property name="disable">0</property>
    </transition>
    <transition id="transition10">
      <property name="a_track">0</property>
      <property name="b_track">2</property>
      <property name="mlt_service">mix</property>
      <property name="always_active">1</property>
      <property name="sum">1</property>
    </transition>
    <transition id="transition11">
      <property name="a_track">0</property>
      <property name="b_track">3</property>
      <property name="mlt_service">mix</property>
      <property name="always_active">1</property>
      <property name="sum">1</property>
    </transition>
  <transition id="transition12">
      <property name="a_track">0</property>
      <property name="b_track">7</property>
      <property name="mlt_service">mix</property>
      <property name="always_active">1</property>
      <property name="sum">1</property>
    </transition>
    <transition id="transition13">
      <property name="a_track">1</property>
      <property name="b_track">7</property>
      <property name="version">0.9</property>
      <property name="mlt_service">frei0r.cairoblend</property>
      <property name="disable">0</property>
    </transition>
    <transition id="transition14">
      <property name="a_track">0</property>
      <property name="b_track">8</property>
      <property name="mlt_service">mix</property>
      <property name="always_active">1</property>
      <property name="sum">1</property>
    </transition>
    <transition id="transition15">
      <property name="a_track">1</property>
      <property name="b_track">8</property>
      <property name="version">0.9</property>
      <property name="mlt_service">frei0r.cairoblend</property>
      <property name="disable">0</property>
    </transition>
  <transition id="transition16">
      <property name="a_track">1</property>
      <property name="b_track">9</property>
      <property name="version">0.9</property>
      <property name="mlt_service">frei0r.cairoblend</property>
    </transition>
    <transition id="transition17">
      <property name="a_track">0</property>
      <property name="b_track">9</property>
      <property name="mlt_service">mix</property>
      <property name="always_active">1</property>
      <property name="sum">1</property>
    </transition>
    <transition id="transition18">
      <property name="a_track">1</property>
      <property name="b_track">10</property>
      <property name="version">0.9</property>
      <property name="mlt_service">frei0r.cairoblend</property>
    </transition>
    <transition id="transition19">
      <property name="a_track">0</property>
      <property name="b_track">10</property>
      <property name="mlt_service">mix</property>
      <property name="always_active">1</property>
      <property name="sum">1</property>
    </transition>
    <transition id="transition20">
      <property name="a_track">0</property>
      <property name="b_track">11</property>
      <property name="mlt_service">mix</property>
      <property name="always_active">1</property>
      <property name="sum">1</property>
    </transition>
    <transition id="transition21">
      <property name="a_track">1</property>
      <property name="b_track">11</property>
      <property name="version">0.9</property>
      <property name="mlt_service">frei0r.cairoblend</property>
      <property name="disable">0</property>
    </transition>
    <transition id="transition22">
      <property name="a_track">0</property>
      <property name="b_track">12</property>
      <property name="mlt_service">mix</property>
      <property name="always_active">1</property>
      <property name="sum">1</property>
    </transition>
    <transition id="transition23">
      <property name="a_track">1</property>
      <property name="b_track">12</property>
      <property name="version">0.9</property>
      <property name="mlt_service">frei0r.cairoblend</property>
      <property name="disable">0</property>
    </transition>
    <transition id="transition24">
      <property name="a_track">1</property>
      <property name="b_track">13</property>
      <property name="version">0.9</property>
      <property name="mlt_service">frei0r.cairoblend</property>
    </transition>
    <transition id="transition25">
      <property name="a_track">0</property>
      <property name="b_track">13</property>
      <property name="mlt_service">mix</property>
      <property name="always_active">1</property>
      <property name="sum">1</property>
    </transition>
    <transition id="transition26">
      <property name="a_track">1</property>
      <property name="b_track">14</property>
      <property name="version">0.9</property>
      <property name="mlt_service">frei0r.cairoblend</property>
    </transition>
    <transition id="transition27">
      <property name="a_track">0</property>
      <property name="b_track">14</property>
      <property name="mlt_service">mix</property>
      <property name="always_active">1</property>
      <property name="sum">1</property>
    </transition>
  <transition id="transition28">
      <property name="a_track">0</property>
      <property name="b_track">15</property>
      <property name="mlt_service">mix</property>
      <property name="always_active">1</property>
      <property name="sum">1</property>
    </transition>
    <transition id="transition29">
      <property name="a_track">1</property>
      <property name="b_track">15</property>
      <property name="version">0.9</property>
      <property name="mlt_service">frei0r.cairoblend</property>
      <property name="disable">0</property>
    </transition>
    <transition id="transition30">
      <property name="a_track">0</property>
      <property name="b_track">16</property>
      <property name="mlt_service">mix</property>
      <property name="always_active">1</property>
      <property name="sum">1</property>
    </transition>
    <transition id="transition31">
      <property name="a_track">1</property>
      <property name="b_track">16</property>
      <property name="version">0.9</property>
      <property name="mlt_service">frei0r.cairoblend</property>
      <property name="disable">0</property>
    </transition>
    <transition id="transition32">
      <property name="a_track">1</property>
      <property name="b_track">17</property>
      <property name="version">0.9</property>
      <property name="mlt_service">frei0r.cairoblend</property>
    </transition>
    <transition id="transition33">
      <property name="a_track">0</property>
      <property name="b_track">17</property>
      <property name="mlt_service">mix</property>
      <property name="always_active">1</property>
      <property name="sum">1</property>
    </transition>
    <transition id="transition34">
      <property name="a_track">0</property>
      <property name="b_track">18</property>
      <property name="mlt_service">mix</property>
      <property name="always_active">1</property>
      <property name="sum">1</property>
    </transition>
    <transition id="transition35">
      <property name="a_track">1</property>
      <property name="b_track">18</property>
      <property name="version">0.9</property>
      <property name="mlt_service">frei0r.cairoblend</property>
      <property name="disable">0</property>
    </transition>
    <transition id="transition36">
      <property name="a_track">0</property>
      <property name="b_track">19</property>
      <property name="mlt_service">mix</property>
      <property name="always_active">1</property>
      <property name="sum">1</property>
    </transition>
    <transition id="transition37">
      <property name="a_track">1</property>
      <property name="b_track">19</property>
      <property name="version">0.9</property>
      <property name="mlt_service">frei0r.cairoblend</property>
      <property name="disable">0</property>
    </transition>
    <transition id="transition38">
      <property name="a_track">0</property>
      <property name="b_track">20</property>
      <property name="mlt_service">mix</property>
      <property name="always_active">1</property>
      <property name="sum">1</property>
    </transition>
    <transition id="transition39">
      <property name="a_track">1</property>
      <property name="b_track">20</property>
      <property name="version">0.9</property>
      <property name="mlt_service">frei0r.cairoblend</property>
      <property name="disable">0</property>
    </transition>
  <transition id="transition40">
      <property name="a_track">0</property>
      <property name="b_track">21</property>
      <property name="mlt_service">mix</property>
      <property name="always_active">1</property>
      <property name="sum">1</property>
    </transition>
    <transition id="transition41">
      <property name="a_track">1</property>
      <property name="b_track">21</property>
      <property name="version">0.9</property>
      <property name="mlt_service">frei0r.cairoblend</property>
      <property name="disable">0</property>
    </transition>
    <transition id="transition42">
      <property name="a_track">1</property>
      <property name="b_track">22</property>
      <property name="version">0.9</property>
      <property name="mlt_service">frei0r.cairoblend</property>
    </transition>
    <transition id="transition43">
      <property name="a_track">0</property>
      <property name="b_track">22</property>
      <property name="mlt_service">mix</property>
      <property name="always_active">1</property>
      <property name="sum">1</property>
    </transition>
    <transition id="transition44">
      <property name="a_track">0</property>
      <property name="b_track">23</property>
      <property name="mlt_service">mix</property>
      <property name="always_active">1</property>
      <property name="sum">1</property>
    </transition>
    <transition id="transition45">
      <property name="a_track">1</property>
      <property name="b_track">23</property>
      <property name="version">0.9</property>
      <property name="mlt_service">frei0r.cairoblend</property>
      <property name="disable">0</property>
    </transition>
    <transition id="transition46">
      <property name="a_track">1</property>
      <property name="b_track">24</property>
      <property name="version">0.9</property>
      <property name="mlt_service">frei0r.cairoblend</property>
    </transition>
    <transition id="transition47">
      <property name="a_track">0</property>
      <property name="b_track">24</property>
      <property name="mlt_service">mix</property>
      <property name="always_active">1</property>
      <property name="sum">1</property>
    </transition>
  <transition id="transition48">
      <property name="a_track">1</property>
      <property name="b_track">25</property>
      <property name="version">0.9</property>
      <property name="mlt_service">frei0r.cairoblend</property>
    </transition>
    <transition id="transition49">
      <property name="a_track">0</property>
      <property name="b_track">25</property>
      <property name="mlt_service">mix</property>
      <property name="always_active">1</property>
      <property name="sum">1</property>
    </transition>
    <transition id="transition50">
      <property name="a_track">1</property>
      <property name="b_track">26</property>
      <property name="version">0.9</property>
      <property name="mlt_service">frei0r.cairoblend</property>
    </transition>
    <transition id="transition51">
      <property name="a_track">0</property>
      <property name="b_track">26</property>
      <property name="mlt_service">mix</property>
      <property name="always_active">1</property>
      <property name="sum">1</property>
    </transition>
    <transition id="transition52">
      <property name="a_track">0</property>
      <property name="b_track">27</property>
      <property name="mlt_service">mix</property>
      <property name="always_active">1</property>
      <property name="sum">1</property>
    </transition>
    <transition id="transition53">
      <property name="a_track">1</property>
      <property name="b_track">27</property>
      <property name="version">0.9</property>
      <property name="mlt_service">frei0r.cairoblend</property>
      <property name="disable">0</property>
    </transition>
    <transition id="transition54">
      <property name="a_track">0</property>
      <property name="b_track">28</property>
      <property name="mlt_service">mix</property>
      <property name="always_active">1</property>
      <property name="sum">1</property>
    </transition>
    <transition id="transition55">
      <property name="a_track">1</property>
      <property name="b_track">28</property>
      <property name="version">0.9</property>
      <property name="mlt_service">frei0r.cairoblend</property>
      <property name="disable">0</property>
    </transition>
    <transition id="transition56">
      <property name="a_track">1</property>
      <property name="b_track">29</property>
      <property name="version">0.9</property>
      <property name="mlt_service">frei0r.cairoblend</property>
    </transition>
    <transition id="transition57">
      <property name="a_track">0</property>
      <property name="b_track">29</property>
      <property name="mlt_service">mix</property>
      <property name="always_active">1</property>
      <property name="sum">1</property>
    </transition>
  <transition id="transition58">
      <property name="a_track">0</property>
      <property name="b_track">30</property>
      <property name="mlt_service">mix</property>
      <property name="always_active">1</property>
      <property name="sum">1</property>
    </transition>
    <transition id="transition59">
      <property name="a_track">1</property>
      <property name="b_track">30</property>
      <property name="version">0.9</property>
      <property name="mlt_service">frei0r.cairoblend</property>
      <property name="disable">0</property>
    </transition>
    <transition id="transition60">
      <property name="a_track">1</property>
      <property name="b_track">31</property>
      <property name="version">0.9</property>
      <property name="mlt_service">frei0r.cairoblend</property>
    </transition>
    <transition id="transition61">
      <property name="a_track">0</property>
      <property name="b_track">31</property>
      <property name="mlt_service">mix</property>
      <property name="always_active">1</property>
      <property name="sum">1</property>
    </transition>
    <transition id="transition62">
      <property name="a_track">1</property>
      <property name="b_track">32</property>
      <property name="version">0.9</property>
      <property name="mlt_service">frei0r.cairoblend</property>
    </transition>
    <transition id="transition63">
      <property name="a_track">0</property>
      <property name="b_track">32</property>
      <property name="mlt_service">mix</property>
      <property name="always_active">1</property>
      <property name="sum">1</property>
    </transition>
    <transition id="transition64">
      <property name="a_track">0</property>
      <property name="b_track">33</property>
      <property name="mlt_service">mix</property>
      <property name="always_active">1</property>
      <property name="sum">1</property>
    </transition>
    <transition id="transition65">
      <property name="a_track">1</property>
      <property name="b_track">33</property>
      <property name="version">0.9</property>
      <property name="mlt_service">frei0r.cairoblend</property>
      <property name="disable">0</property>
    </transition>
    <transition id="transition66">
      <property name="a_track">0</property>
      <property name="b_track">34</property>
      <property name="mlt_service">mix</property>
      <property name="always_active">1</property>
      <property name="sum">1</property>
    </transition>
    <transition id="transition67">
      <property name="a_track">1</property>
      <property name="b_track">34</property>
      <property name="version">0.9</property>
      <property name="mlt_service">frei0r.cairoblend</property>
      <property name="disable">0</property>
    </transition>
    <transition id="transition68">
      <property name="a_track">0</property>
      <property name="b_track">35</property>
      <property name="mlt_service">mix</property>
      <property name="always_active">1</property>
      <property name="sum">1</property>
    </transition>
    <transition id="transition69">
      <property name="a_track">1</property>
      <property name="b_track">35</property>
      <property name="version">0.9</property>
      <property name="mlt_service">frei0r.cairoblend</property>
      <property name="disable">0</property>
    </transition>
    <transition id="transition70">
      <property name="a_track">0</property>
      <property name="b_track">36</property>
      <property name="mlt_service">mix</property>
      <property name="always_active">1</property>
      <property name="sum">1</property>
    </transition>
    <transition id="transition71">
      <property name="a_track">1</property>
      <property name="b_track">36</property>
      <property name="version">0.9</property>
      <property name="mlt_service">frei0r.cairoblend</property>
      <property name="disable">0</property>
    </transition>
    <transition id="transition72">
      <property name="a_track">0</property>
      <property name="b_track">37</property>
      <property name="mlt_service">mix</property>
      <property name="always_active">1</property>
      <property name="sum">1</property>
    </transition>
    <transition id="transition73">
      <property name="a_track">1</property>
      <property name="b_track">37</property>
      <property name="version">0.9</property>
      <property name="mlt_service">frei0r.cairoblend</property>
      <property name="disable">0</property>
    </transition>
    <transition id="transition74">
      <property name="a_track">0</property>
      <property name="b_track">38</property>
      <property name="mlt_service">mix</property>
      <property name="always_active">1</property>
      <property name="sum">1</property>
    </transition>
    <transition id="transition75">
      <property name="a_track">1</property>
      <property name="b_track">38</property>
      <property name="version">0.9</property>
      <property name="mlt_service">frei0r.cairoblend</property>
      <property name="disable">0</property>
    </transition>
  <transition id="transition76">
      <property name="a_track">0</property>
      <property name="b_track">39</property>
      <property name="mlt_service">mix</property>
      <property name="always_active">1</property>
      <property name="sum">1</property>
    </transition>
    <transition id="transition77">
      <property name="a_track">1</property>
      <property name="b_track">39</property>
      <property name="version">0.9</property>
      <property name="mlt_service">frei0r.cairoblend</property>
      <property name="disable">0</property>
    </transition>
    <transition id="transition78">
      <property name="a_track">0</property>
      <property name="b_track">40</property>
      <property name="mlt_service">mix</property>
      <property name="always_active">1</property>
      <property name="sum">1</property>
    </transition>
    <transition id="transition79">
      <property name="a_track">1</property>
      <property name="b_track">40</property>
      <property name="version">0.9</property>
      <property name="mlt_service">frei0r.cairoblend</property>
      <property name="disable">0</property>
    </transition>
    <transition id="transition80">
      <property name="a_track">1</property>
      <property name="b_track">41</property>
      <property name="version">0.9</property>
      <property name="mlt_service">frei0r.cairoblend</property>
    </transition>
    <transition id="transition81">
      <property name="a_track">0</property>
      <property name="b_track">41</property>
      <property name="mlt_service">mix</property>
      <property name="always_active">1</property>
      <property name="sum">1</property>
    </transition>
  <transition id="transition82">
      <property name="a_track">0</property>
      <property name="b_track">42</property>
      <property name="mlt_service">mix</property>
      <property name="always_active">1</property>
      <property name="sum">1</property>
    </transition>
    <transition id="transition83">
      <property name="a_track">1</property>
      <property name="b_track">42</property>
      <property name="version">0.9</property>
      <property name="mlt_service">frei0r.cairoblend</property>
      <property name="disable">0</property>
    </transition>
    <transition id="transition84">
      <property name="a_track">0</property>
      <property name="b_track">43</property>
      <property name="mlt_service">mix</property>
      <property name="always_active">1</property>
      <property name="sum">1</property>
    </transition>
    <transition id="transition85">
      <property name="a_track">1</property>
      <property name="b_track">43</property>
      <property name="version">0.9</property>
      <property name="mlt_service">frei0r.cairoblend</property>
      <property name="disable">0</property>
    </transition>
    <transition id="transition86">
      <property name="a_track">1</property>
      <property name="b_track">44</property>
      <property name="version">0.9</property>
      <property name="mlt_service">frei0r.cairoblend</property>
    </transition>
    <transition id="transition87">
      <property name="a_track">0</property>
      <property name="b_track">44</property>
      <property name="mlt_service">mix</property>
      <property name="always_active">1</property>
      <property name="sum">1</property>
    </transition>
    <transition id="transition88">
      <property name="a_track">0</property>
      <property name="b_track">45</property>
      <property name="mlt_service">mix</property>
      <property name="always_active">1</property>
      <property name="sum">1</property>
    </transition>
    <transition id="transition89">
      <property name="a_track">1</property>
      <property name="b_track">45</property>
      <property name="version">0.9</property>
      <property name="mlt_service">frei0r.cairoblend</property>
      <property name="disable">0</property>
    </transition>
  <transition id="transition90">
      <property name="a_track">1</property>
      <property name="b_track">46</property>
      <property name="version">0.9</property>
      <property name="mlt_service">frei0r.cairoblend</property>
    </transition>
    <transition id="transition91">
      <property name="a_track">0</property>
      <property name="b_track">46</property>
      <property name="mlt_service">mix</property>
      <property name="always_active">1</property>
      <property name="sum">1</property>
    </transition>
    <transition id="transition92">
      <property name="a_track">1</property>
      <property name="b_track">47</property>
      <property name="version">0.9</property>
      <property name="mlt_service">frei0r.cairoblend</property>
    </transition>
    <transition id="transition93">
      <property name="a_track">0</property>
      <property name="b_track">47</property>
      <property name="mlt_service">mix</property>
      <property name="always_active">1</property>
      <property name="sum">1</property>
    </transition>
    <transition id="transition94">
      <property name="a_track">1</property>
      <property name="b_track">48</property>
      <property name="version">0.9</property>
      <property name="mlt_service">frei0r.cairoblend</property>
    </transition>
    <transition id="transition95">
      <property name="a_track">0</property>
      <property name="b_track">48</property>
      <property name="mlt_service">mix</property>
      <property name="always_active">1</property>
      <property name="sum">1</property>
    </transition>
    <transition id="transition96">
      <property name="a_track">1</property>
      <property name="b_track">49</property>
      <property name="version">0.9</property>
      <property name="mlt_service">frei0r.cairoblend</property>
    </transition>
    <transition id="transition97">
      <property name="a_track">0</property>
      <property name="b_track">49</property>
      <property name="mlt_service">mix</property>
      <property name="always_active">1</property>
      <property name="sum">1</property>
    </transition>
  <transition id="transition98">
      <property name="a_track">0</property>
      <property name="b_track">50</property>
      <property name="mlt_service">mix</property>
      <property name="always_active">1</property>
      <property name="sum">1</property>
    </transition>
    <transition id="transition99">
      <property name="a_track">1</property>
      <property name="b_track">50</property>
      <property name="version">0.9</property>
      <property name="mlt_service">frei0r.cairoblend</property>
      <property name="disable">0</property>
    </transition>
    </tractor>
</mlt>