<?xml version='1.0' encoding='us-ascii'?>
<mlt LC_NUMERIC="C" producer="main_bin" title="Shotcut version 20.02.17" version="6.20.0">
  <profile colorspace="709" description="HD 1080p 25 fps" display_aspect_den="9" display_aspect_num="16" frame_rate_den="1" frame_rate_num="25" height="1080" progressive="1" sample_aspect_den="1" sample_aspect_num="1" width="1920" />
  <playlist id="main_bin">
    <property name="xml_retain">1</property>
  </playlist>
  <producer id="black" in="00:00:00.000" out="00:03:41.600">
    <property name="length">00:03:41.640</property>
    <property name="eof">pause</property>
    <property name="resource">0</property>
    <property name="aspect_ratio">1</property>
    <property name="mlt_service">color</property>
    <property name="mlt_image_format">rgb24a</property>
    <property name="set.test_audio">0</property>
  </producer>
  <playlist id="background">
    <entry in="00:00:00.000" out="00:03:41.600" producer="black" />
  </playlist>
  <producer id="producer0" in="00:00:00.000" out="03:59:59.960" title="Anonymous Submission">
    <property name="length">04:00:00:00</property>
    <property name="eof">pause</property>
    <property name="resource">#00000000</property>
    <property name="aspect_ratio">1</property>
    <property name="mlt_service">color</property>
    <property name="mlt_image_format">rgb24a</property>
    <property name="shotcut:caption">transparent</property>
    <property name="shotcut:detail">transparent</property>
    <property name="ignore_points">0</property>
    <property name="global_feed">1</property>
    <property name="xml">was here</property>
    <property name="seekable">1</property>
    <filter id="filter0" out="00:00:04.960">
      <property name="argument" />
      <property name="geometry">0 0 1920 1080 1</property>
      <property name="family">Verdana</property>
      <property name="size">1080</property>
      <property name="weight">500</property>
      <property name="style">normal</property>
      <property name="fgcolour">#ffffffff</property>
      <property name="bgcolour">#00000000</property>
      <property name="olcolour">#aa000000</property>
      <property name="pad">0</property>
      <property name="halign">center</property>
      <property name="valign">bottom</property>
      <property name="outline">3</property>
      <property name="mlt_service">dynamictext</property>
      <property name="shotcut:filter">dynamicText</property>
      <property name="shotcut:usePointSize">0</property>
      <property name="shotcut:animIn">00:00:00.000</property>
      <property name="shotcut:animOut">00:00:00.000</property>
    </filter>
  </producer>
  <producer id="producer1" in="00:00:00.000" out="03:59:59.960" title="Anonymous Submission">
    <property name="length">04:00:00:00</property>
    <property name="eof">pause</property>
    <property name="resource">#00000000</property>
    <property name="aspect_ratio">1</property>
    <property name="mlt_service">color</property>
    <property name="mlt_image_format">rgb24a</property>
    <property name="shotcut:caption">transparent</property>
    <property name="shotcut:detail">transparent</property>
    <property name="ignore_points">0</property>
    <property name="global_feed">1</property>
    <property name="xml">was here</property>
    <property name="seekable">1</property>
    <filter id="filter1" in="00:00:05.000" out="00:03:41.520">
      <property name="argument" />
      <property name="geometry">0 0 1920 1080 1</property>
      <property name="family">Verdana</property>
      <property name="size">1080</property>
      <property name="weight">500</property>
      <property name="style">normal</property>
      <property name="fgcolour">#ffffffff</property>
      <property name="bgcolour">#00000000</property>
      <property name="olcolour">#aa000000</property>
      <property name="pad">0</property>
      <property name="halign">center</property>
      <property name="valign">bottom</property>
      <property name="outline">3</property>
      <property name="mlt_service">dynamictext</property>
      <property name="shotcut:filter">dynamicText</property>
      <property name="shotcut:usePointSize">0</property>
      <property name="shotcut:animIn">00:00:00.000</property>
      <property name="shotcut:animOut">00:00:00.000</property>
    </filter>
  </producer>
  <playlist id="playlist0">
    <property name="shotcut:video">1</property>
    <property name="shotcut:name">Storyboard</property>
    <property name="shotcut:lock">1</property>
    <entry in="00:00:00.000" out="00:00:04.960" producer="producer0" />
    <entry in="00:00:05.000" out="00:03:41.520" producer="producer1" />
  </playlist>
  <producer id="producer2" in="00:00:00.000" out="00:04:05.560" title="Anonymous Submission">
    <property name="length">00:04:05:15</property>
    <property name="eof">pause</property>
    <property name="resource">../../006 - Videos format youtube/Percussions/Jean-Seb_percu_totoro.mp4</property>
    <property name="audio_index">1</property>
    <property name="video_index">0</property>
    <property name="mute_on_pause">0</property>
    <property name="mlt_service">avformat-novalidate</property>
    <property name="seekable">1</property>
    <property name="aspect_ratio">1</property>
    <property name="creation_time">2020-05-01T20:32:43</property>
    <property name="shotcut:hash">a2e950dced0df93b86cbf01dbc5519c9</property>
    <property name="ignore_points">0</property>
    <property name="shotcut:caption">Jean-Seb_percu_totoro.mp4</property>
    <property name="shotcut:skipConvert">1</property>
    <property name="global_feed">1</property>
    <property name="xml">was here</property>
    <filter id="filter2" in="00:02:15.440000" out="00:02:19.000000">
      <property name="background">colour:0</property>
      <property name="mlt_service">affine</property>
      <property name="shotcut:filter">affineSizePosition</property>
      <property name="transition.fill">1</property>
      <property name="transition.distort">0</property>
      <property name="transition.rect">-1910.0 -1074.5 -9.0 -4.5 1</property>
      <property name="transition.valign">top</property>
      <property name="transition.halign">left</property>
      <property name="shotcut:animIn">00:00:00.000</property>
      <property name="shotcut:animOut">00:00:00.000</property>
      <property name="transition.threads">0</property>
    </filter>
    <filter id="filter3" in="00:02:15.440000" out="00:02:19.000000">
      <property name="window">75</property>
      <property name="max_gain">20dB</property>
      <property name="mlt_service">volume</property>
      <property name="shotcut:filter">muteVolume</property>
      <property name="gain">0</property>
    </filter>
  </producer>
  <producer id="producer3" in="00:00:00.000" out="00:04:05.560" title="Anonymous Submission">
    <property name="length">00:04:05:15</property>
    <property name="eof">pause</property>
    <property name="resource">../../006 - Videos format youtube/Percussions/Jean-Seb_percu_totoro.mp4</property>
    <property name="audio_index">1</property>
    <property name="video_index">0</property>
    <property name="mute_on_pause">0</property>
    <property name="mlt_service">avformat-novalidate</property>
    <property name="seekable">1</property>
    <property name="aspect_ratio">1</property>
    <property name="creation_time">2020-05-01T20:32:43</property>
    <property name="shotcut:hash">a2e950dced0df93b86cbf01dbc5519c9</property>
    <property name="ignore_points">0</property>
    <property name="shotcut:caption">Jean-Seb_percu_totoro.mp4</property>
    <property name="shotcut:skipConvert">1</property>
    <property name="global_feed">1</property>
    <property name="xml">was here</property>
    <filter id="filter4" in="00:02:19.040000" out="00:02:22.400000">
      <property name="background">colour:0</property>
      <property name="mlt_service">affine</property>
      <property name="shotcut:filter">affineSizePosition</property>
      <property name="transition.fill">1</property>
      <property name="transition.distort">0</property>
      <property name="transition.rect">00:00:00.000000=-1900.0 -1068.5 -18.0 -9.5 1;00:00:00.360000=650.0 77.5 119.0 67.5 1</property>
      <property name="transition.valign">top</property>
      <property name="transition.halign">left</property>
      <property name="shotcut:animIn">00:00:00.400000</property>
      <property name="shotcut:animOut">00:00:00.000</property>
      <property name="transition.threads">0</property>
    </filter>
    <filter id="filter5" in="00:02:19.040000" out="00:02:22.400000">
      <property name="window">75</property>
      <property name="max_gain">20dB</property>
      <property name="mlt_service">volume</property>
      <property name="shotcut:filter">muteVolume</property>
      <property name="gain">0</property>
    </filter>
  </producer>
  <producer id="producer4" in="00:00:00.000" out="00:04:05.560" title="Anonymous Submission">
    <property name="length">00:04:05:15</property>
    <property name="eof">pause</property>
    <property name="resource">../../006 - Videos format youtube/Percussions/Jean-Seb_percu_totoro.mp4</property>
    <property name="audio_index">1</property>
    <property name="video_index">0</property>
    <property name="mute_on_pause">0</property>
    <property name="mlt_service">avformat-novalidate</property>
    <property name="seekable">1</property>
    <property name="aspect_ratio">1</property>
    <property name="creation_time">2020-05-01T20:32:43</property>
    <property name="shotcut:hash">a2e950dced0df93b86cbf01dbc5519c9</property>
    <property name="ignore_points">0</property>
    <property name="shotcut:caption">Jean-Seb_percu_totoro.mp4</property>
    <property name="shotcut:skipConvert">1</property>
    <property name="global_feed">1</property>
    <property name="xml">was here</property>
    <filter id="filter6" in="00:02:22.440000" out="00:02:25.840000">
      <property name="background">colour:0</property>
      <property name="mlt_service">affine</property>
      <property name="shotcut:filter">affineSizePosition</property>
      <property name="transition.fill">1</property>
      <property name="transition.distort">0</property>
      <property name="transition.rect">00:00:00.000000=960.0 543.0 4.0 2.0 1;00:00:00.360000=998.0 633.0 167.0 94.0 1</property>
      <property name="transition.valign">top</property>
      <property name="transition.halign">left</property>
      <property name="shotcut:animIn">00:00:00.400000</property>
      <property name="shotcut:animOut">00:00:00.000</property>
      <property name="transition.threads">0</property>
    </filter>
    <filter id="filter7" in="00:02:22.440000" out="00:02:25.840000">
      <property name="window">75</property>
      <property name="max_gain">20dB</property>
      <property name="mlt_service">volume</property>
      <property name="shotcut:filter">muteVolume</property>
      <property name="gain">0</property>
    </filter>
  </producer>
  <producer id="producer5" in="00:00:00.000" out="00:04:05.560" title="Anonymous Submission">
    <property name="length">00:04:05:15</property>
    <property name="eof">pause</property>
    <property name="resource">../../006 - Videos format youtube/Percussions/Jean-Seb_percu_totoro.mp4</property>
    <property name="audio_index">1</property>
    <property name="video_index">0</property>
    <property name="mute_on_pause">0</property>
    <property name="mlt_service">avformat-novalidate</property>
    <property name="seekable">1</property>
    <property name="aspect_ratio">1</property>
    <property name="creation_time">2020-05-01T20:32:43</property>
    <property name="shotcut:hash">a2e950dced0df93b86cbf01dbc5519c9</property>
    <property name="ignore_points">0</property>
    <property name="shotcut:caption">Jean-Seb_percu_totoro.mp4</property>
    <property name="shotcut:skipConvert">1</property>
    <property name="global_feed">1</property>
    <property name="xml">was here</property>
    <filter id="filter8" in="00:02:25.880000" out="00:02:29.240000">
      <property name="background">colour:0</property>
      <property name="mlt_service">affine</property>
      <property name="shotcut:filter">affineSizePosition</property>
      <property name="transition.fill">1</property>
      <property name="transition.distort">0</property>
      <property name="transition.rect">00:00:00.000000=1008.0 638.5 158.0 88.5 1;00:00:00.360000=777.0 436.5 119.0 67.5 1</property>
      <property name="transition.valign">top</property>
      <property name="transition.halign">left</property>
      <property name="shotcut:animIn">00:00:00.400000</property>
      <property name="shotcut:animOut">00:00:00.000</property>
      <property name="transition.threads">0</property>
    </filter>
    <filter id="filter9" in="00:02:25.880000" out="00:02:29.240000">
      <property name="window">75</property>
      <property name="max_gain">20dB</property>
      <property name="mlt_service">volume</property>
      <property name="shotcut:filter">muteVolume</property>
      <property name="gain">0</property>
    </filter>
  </producer>
  <producer id="producer6" in="00:00:00.000" out="00:04:05.560" title="Anonymous Submission">
    <property name="length">00:04:05:15</property>
    <property name="eof">pause</property>
    <property name="resource">../../006 - Videos format youtube/Percussions/Jean-Seb_percu_totoro.mp4</property>
    <property name="audio_index">1</property>
    <property name="video_index">0</property>
    <property name="mute_on_pause">0</property>
    <property name="mlt_service">avformat-novalidate</property>
    <property name="seekable">1</property>
    <property name="aspect_ratio">1</property>
    <property name="creation_time">2020-05-01T20:32:43</property>
    <property name="shotcut:hash">a2e950dced0df93b86cbf01dbc5519c9</property>
    <property name="ignore_points">0</property>
    <property name="shotcut:caption">Jean-Seb_percu_totoro.mp4</property>
    <property name="shotcut:skipConvert">1</property>
    <property name="global_feed">1</property>
    <property name="xml">was here</property>
    <filter id="filter10" in="00:02:29.280000" out="00:02:32.680000">
      <property name="background">colour:0</property>
      <property name="mlt_service">affine</property>
      <property name="shotcut:filter">affineSizePosition</property>
      <property name="transition.fill">1</property>
      <property name="transition.distort">0</property>
      <property name="transition.rect">00:00:00.000000=787.0 441.5 110.0 61.5 1;00:00:00.360000=394.0 77.5 119.0 67.5 1</property>
      <property name="transition.valign">top</property>
      <property name="transition.halign">left</property>
      <property name="shotcut:animIn">00:00:00.400000</property>
      <property name="shotcut:animOut">00:00:00.000</property>
      <property name="transition.threads">0</property>
    </filter>
    <filter id="filter11" in="00:02:29.280000" out="00:02:32.680000">
      <property name="window">75</property>
      <property name="max_gain">20dB</property>
      <property name="mlt_service">volume</property>
      <property name="shotcut:filter">muteVolume</property>
      <property name="gain">0</property>
    </filter>
  </producer>
  <producer id="producer7" in="00:00:00.000" out="00:04:05.560" title="Anonymous Submission">
    <property name="length">00:04:05:15</property>
    <property name="eof">pause</property>
    <property name="resource">../../006 - Videos format youtube/Percussions/Jean-Seb_percu_totoro.mp4</property>
    <property name="audio_index">1</property>
    <property name="video_index">0</property>
    <property name="mute_on_pause">0</property>
    <property name="mlt_service">avformat-novalidate</property>
    <property name="seekable">1</property>
    <property name="aspect_ratio">1</property>
    <property name="creation_time">2020-05-01T20:32:43</property>
    <property name="shotcut:hash">a2e950dced0df93b86cbf01dbc5519c9</property>
    <property name="ignore_points">0</property>
    <property name="shotcut:caption">Jean-Seb_percu_totoro.mp4</property>
    <property name="shotcut:skipConvert">1</property>
    <property name="global_feed">1</property>
    <property name="xml">was here</property>
    <filter id="filter12" in="00:02:32.720000" out="00:02:36.080000">
      <property name="background">colour:0</property>
      <property name="mlt_service">affine</property>
      <property name="shotcut:filter">affineSizePosition</property>
      <property name="transition.fill">1</property>
      <property name="transition.distort">0</property>
      <property name="transition.rect">1034.0 77.5 119.0 67.5 1</property>
      <property name="transition.valign">top</property>
      <property name="transition.halign">left</property>
      <property name="shotcut:animIn">00:00:00.400000</property>
      <property name="shotcut:animOut">00:00:00.000</property>
      <property name="transition.threads">0</property>
    </filter>
    <filter id="filter13" in="00:02:32.720000" out="00:02:36.080000">
      <property name="window">75</property>
      <property name="max_gain">20dB</property>
      <property name="mlt_service">volume</property>
      <property name="shotcut:filter">muteVolume</property>
      <property name="gain">0</property>
    </filter>
  </producer>
  <producer id="producer8" in="00:00:00.000" out="00:04:05.560" title="Anonymous Submission">
    <property name="length">00:04:05:15</property>
    <property name="eof">pause</property>
    <property name="resource">../../006 - Videos format youtube/Percussions/Jean-Seb_percu_totoro.mp4</property>
    <property name="audio_index">1</property>
    <property name="video_index">0</property>
    <property name="mute_on_pause">0</property>
    <property name="mlt_service">avformat-novalidate</property>
    <property name="seekable">1</property>
    <property name="aspect_ratio">1</property>
    <property name="creation_time">2020-05-01T20:32:43</property>
    <property name="shotcut:hash">a2e950dced0df93b86cbf01dbc5519c9</property>
    <property name="ignore_points">0</property>
    <property name="shotcut:caption">Jean-Seb_percu_totoro.mp4</property>
    <property name="shotcut:skipConvert">1</property>
    <property name="global_feed">1</property>
    <property name="xml">was here</property>
    <filter id="filter14" in="00:02:36.120000" out="00:02:42.400000">
      <property name="background">colour:0</property>
      <property name="mlt_service">affine</property>
      <property name="shotcut:filter">affineSizePosition</property>
      <property name="transition.fill">1</property>
      <property name="transition.distort">0</property>
      <property name="transition.rect">00:00:00.000000=1044.0 82.5 110.0 61.5 1;00:00:00.360000=714.0 77.5 119.0 67.5 1</property>
      <property name="transition.valign">top</property>
      <property name="transition.halign">left</property>
      <property name="shotcut:animIn">00:00:00.400000</property>
      <property name="shotcut:animOut">00:00:00.000</property>
      <property name="transition.threads">0</property>
    </filter>
    <filter id="filter15" in="00:02:36.120000" out="00:02:42.400000">
      <property name="window">75</property>
      <property name="max_gain">20dB</property>
      <property name="mlt_service">volume</property>
      <property name="shotcut:filter">muteVolume</property>
      <property name="gain">0</property>
    </filter>
  </producer>
  <playlist id="playlist1">
    <property name="shotcut:video">1</property>
    <property name="shotcut:name">Jean-Seb percu</property>
    <property name="shotcut:lock">1</property>
    <blank length="00:01:55.000000" />
    <entry in="00:02:15.440000" out="00:02:19.000000" producer="producer2" />
    <entry in="00:02:19.040000" out="00:02:22.400000" producer="producer3" />
    <entry in="00:02:22.440000" out="00:02:25.840000" producer="producer4" />
    <entry in="00:02:25.880000" out="00:02:29.240000" producer="producer5" />
    <entry in="00:02:29.280000" out="00:02:32.680000" producer="producer6" />
    <entry in="00:02:32.720000" out="00:02:36.080000" producer="producer7" />
    <entry in="00:02:36.120000" out="00:02:42.400000" producer="producer8" />
    <filter id="filter16" out="00:03:41.600">
      <property name="window">75</property>
      <property name="max_gain">20dB</property>
      <property name="level">-15</property>
      <property name="mlt_service">volume</property>
    </filter>
  </playlist>
  <producer id="producer9" in="00:00:00.000" out="00:02:58.320" title="Anonymous Submission">
    <property name="length">00:02:58:09</property>
    <property name="eof">pause</property>
    <property name="resource">../../006 - Videos format youtube/Chef/Jean-Jacques_chef_totoro.mp4</property>
    <property name="audio_index">1</property>
    <property name="video_index">0</property>
    <property name="mute_on_pause">0</property>
    <property name="mlt_service">avformat-novalidate</property>
    <property name="seekable">1</property>
    <property name="aspect_ratio">1</property>
    <property name="creation_time">2020-04-05T13:55:58</property>
    <property name="shotcut:hash">54631fa1ec31562eee0a931256e35e96</property>
    <property name="ignore_points">0</property>
    <property name="shotcut:caption">Jean-Jacques_chef_totoro.mp4</property>
    <property name="shotcut:skipConvert">1</property>
    <property name="global_feed">1</property>
    <property name="xml">was here</property>
    <filter id="filter17" in="00:01:32.680000" out="00:01:36.240000">
      <property name="background">colour:0</property>
      <property name="mlt_service">affine</property>
      <property name="shotcut:filter">affineSizePosition</property>
      <property name="transition.fill">1</property>
      <property name="transition.distort">0</property>
      <property name="transition.rect">-1910.0 -1074.5 -9.0 -4.5 1</property>
      <property name="transition.valign">top</property>
      <property name="transition.halign">left</property>
      <property name="shotcut:animIn">00:00:00.000</property>
      <property name="shotcut:animOut">00:00:00.000</property>
      <property name="transition.threads">0</property>
    </filter>
    <filter id="filter18" in="00:01:32.680000" out="00:01:36.240000">
      <property name="window">75</property>
      <property name="max_gain">20dB</property>
      <property name="mlt_service">volume</property>
      <property name="shotcut:filter">muteVolume</property>
      <property name="gain">0</property>
    </filter>
  </producer>
  <producer id="producer10" in="00:00:00.000" out="00:02:58.320" title="Anonymous Submission">
    <property name="length">00:02:58:09</property>
    <property name="eof">pause</property>
    <property name="resource">../../006 - Videos format youtube/Chef/Jean-Jacques_chef_totoro.mp4</property>
    <property name="audio_index">1</property>
    <property name="video_index">0</property>
    <property name="mute_on_pause">0</property>
    <property name="mlt_service">avformat-novalidate</property>
    <property name="seekable">1</property>
    <property name="aspect_ratio">1</property>
    <property name="creation_time">2020-04-05T13:55:58</property>
    <property name="shotcut:hash">54631fa1ec31562eee0a931256e35e96</property>
    <property name="ignore_points">0</property>
    <property name="shotcut:caption">Jean-Jacques_chef_totoro.mp4</property>
    <property name="shotcut:skipConvert">1</property>
    <property name="global_feed">1</property>
    <property name="xml">was here</property>
    <filter id="filter19" in="00:01:36.280000" out="00:01:39.640000">
      <property name="background">colour:0</property>
      <property name="mlt_service">affine</property>
      <property name="shotcut:filter">affineSizePosition</property>
      <property name="transition.fill">1</property>
      <property name="transition.distort">0</property>
      <property name="transition.rect">00:00:00.000000=-1900.0 -1068.5 -18.0 -9.5 1;00:00:00.360000=777.0 77.5 119.0 67.5 1</property>
      <property name="transition.valign">top</property>
      <property name="transition.halign">left</property>
      <property name="shotcut:animIn">00:00:00.400000</property>
      <property name="shotcut:animOut">00:00:00.000</property>
      <property name="transition.threads">0</property>
    </filter>
    <filter id="filter20" in="00:01:36.280000" out="00:01:39.640000">
      <property name="window">75</property>
      <property name="max_gain">20dB</property>
      <property name="mlt_service">volume</property>
      <property name="shotcut:filter">muteVolume</property>
      <property name="gain">0</property>
    </filter>
  </producer>
  <producer id="producer11" in="00:00:00.000" out="00:02:58.320" title="Anonymous Submission">
    <property name="length">00:02:58:09</property>
    <property name="eof">pause</property>
    <property name="resource">../../006 - Videos format youtube/Chef/Jean-Jacques_chef_totoro.mp4</property>
    <property name="audio_index">1</property>
    <property name="video_index">0</property>
    <property name="mute_on_pause">0</property>
    <property name="mlt_service">avformat-novalidate</property>
    <property name="seekable">1</property>
    <property name="aspect_ratio">1</property>
    <property name="creation_time">2020-04-05T13:55:58</property>
    <property name="shotcut:hash">54631fa1ec31562eee0a931256e35e96</property>
    <property name="ignore_points">0</property>
    <property name="shotcut:caption">Jean-Jacques_chef_totoro.mp4</property>
    <property name="shotcut:skipConvert">1</property>
    <property name="global_feed">1</property>
    <property name="xml">was here</property>
    <filter id="filter21" in="00:01:39.680000" out="00:01:43.080000">
      <property name="background">colour:0</property>
      <property name="mlt_service">affine</property>
      <property name="shotcut:filter">affineSizePosition</property>
      <property name="transition.fill">1</property>
      <property name="transition.distort">0</property>
      <property name="transition.rect">00:00:00.000000=958.0 542.0 4.0 2.0 1;00:00:00.360000=915.0 540.0 167.0 94.0 1</property>
      <property name="transition.valign">top</property>
      <property name="transition.halign">left</property>
      <property name="shotcut:animIn">00:00:00.400000</property>
      <property name="shotcut:animOut">00:00:00.000</property>
      <property name="transition.threads">0</property>
    </filter>
    <filter id="filter22" in="00:01:39.680000" out="00:01:43.080000">
      <property name="window">75</property>
      <property name="max_gain">20dB</property>
      <property name="mlt_service">volume</property>
      <property name="shotcut:filter">muteVolume</property>
      <property name="gain">0</property>
    </filter>
  </producer>
  <producer id="producer12" in="00:00:00.000" out="00:02:58.320" title="Anonymous Submission">
    <property name="length">00:02:58:09</property>
    <property name="eof">pause</property>
    <property name="resource">../../006 - Videos format youtube/Chef/Jean-Jacques_chef_totoro.mp4</property>
    <property name="audio_index">1</property>
    <property name="video_index">0</property>
    <property name="mute_on_pause">0</property>
    <property name="mlt_service">avformat-novalidate</property>
    <property name="seekable">1</property>
    <property name="aspect_ratio">1</property>
    <property name="creation_time">2020-04-05T13:55:58</property>
    <property name="shotcut:hash">54631fa1ec31562eee0a931256e35e96</property>
    <property name="ignore_points">0</property>
    <property name="shotcut:caption">Jean-Jacques_chef_totoro.mp4</property>
    <property name="shotcut:skipConvert">1</property>
    <property name="global_feed">1</property>
    <property name="xml">was here</property>
    <filter id="filter23" in="00:01:43.120000" out="00:01:46.480000">
      <property name="background">colour:0</property>
      <property name="mlt_service">affine</property>
      <property name="shotcut:filter">affineSizePosition</property>
      <property name="transition.fill">1</property>
      <property name="transition.distort">0</property>
      <property name="transition.rect">00:00:00.000000=925.0 545.5 158.0 88.5 1;00:00:00.360000=777.0 653.5 119.0 67.5 1</property>
      <property name="transition.valign">top</property>
      <property name="transition.halign">left</property>
      <property name="shotcut:animIn">00:00:00.400000</property>
      <property name="shotcut:animOut">00:00:00.000</property>
      <property name="transition.threads">0</property>
    </filter>
    <filter id="filter24" in="00:01:43.120000" out="00:01:46.480000">
      <property name="window">75</property>
      <property name="max_gain">20dB</property>
      <property name="mlt_service">volume</property>
      <property name="shotcut:filter">muteVolume</property>
      <property name="gain">0</property>
    </filter>
  </producer>
  <producer id="producer13" in="00:00:00.000" out="00:02:58.320" title="Anonymous Submission">
    <property name="length">00:02:58:09</property>
    <property name="eof">pause</property>
    <property name="resource">../../006 - Videos format youtube/Chef/Jean-Jacques_chef_totoro.mp4</property>
    <property name="audio_index">1</property>
    <property name="video_index">0</property>
    <property name="mute_on_pause">0</property>
    <property name="mlt_service">avformat-novalidate</property>
    <property name="seekable">1</property>
    <property name="aspect_ratio">1</property>
    <property name="creation_time">2020-04-05T13:55:58</property>
    <property name="shotcut:hash">54631fa1ec31562eee0a931256e35e96</property>
    <property name="ignore_points">0</property>
    <property name="shotcut:caption">Jean-Jacques_chef_totoro.mp4</property>
    <property name="shotcut:skipConvert">1</property>
    <property name="global_feed">1</property>
    <property name="xml">was here</property>
    <filter id="filter25" in="00:01:46.520000" out="00:01:49.920000">
      <property name="background">colour:0</property>
      <property name="mlt_service">affine</property>
      <property name="shotcut:filter">affineSizePosition</property>
      <property name="transition.fill">1</property>
      <property name="transition.distort">0</property>
      <property name="transition.rect">00:00:00.000000=787.0 658.5 110.0 61.5 1;00:00:00.360000=522.0 77.5 119.0 67.5 1</property>
      <property name="transition.valign">top</property>
      <property name="transition.halign">left</property>
      <property name="shotcut:animIn">00:00:00.400000</property>
      <property name="shotcut:animOut">00:00:00.000</property>
      <property name="transition.threads">0</property>
    </filter>
    <filter id="filter26" in="00:01:46.520000" out="00:01:49.920000">
      <property name="window">75</property>
      <property name="max_gain">20dB</property>
      <property name="mlt_service">volume</property>
      <property name="shotcut:filter">muteVolume</property>
      <property name="gain">0</property>
    </filter>
  </producer>
  <producer id="producer14" in="00:00:00.000" out="00:02:58.320" title="Anonymous Submission">
    <property name="length">00:02:58:09</property>
    <property name="eof">pause</property>
    <property name="resource">../../006 - Videos format youtube/Chef/Jean-Jacques_chef_totoro.mp4</property>
    <property name="audio_index">1</property>
    <property name="video_index">0</property>
    <property name="mute_on_pause">0</property>
    <property name="mlt_service">avformat-novalidate</property>
    <property name="seekable">1</property>
    <property name="aspect_ratio">1</property>
    <property name="creation_time">2020-04-05T13:55:58</property>
    <property name="shotcut:hash">54631fa1ec31562eee0a931256e35e96</property>
    <property name="ignore_points">0</property>
    <property name="shotcut:caption">Jean-Jacques_chef_totoro.mp4</property>
    <property name="shotcut:skipConvert">1</property>
    <property name="global_feed">1</property>
    <property name="xml">was here</property>
    <filter id="filter27" in="00:01:49.960000" out="00:01:53.320000">
      <property name="background">colour:0</property>
      <property name="mlt_service">affine</property>
      <property name="shotcut:filter">affineSizePosition</property>
      <property name="transition.fill">1</property>
      <property name="transition.distort">0</property>
      <property name="transition.rect">00:00:00.000000=532.0 82.5 110.0 61.5 1;00:00:00.360000=714.0 797.5 119.0 67.5 1</property>
      <property name="transition.valign">top</property>
      <property name="transition.halign">left</property>
      <property name="shotcut:animIn">00:00:00.400000</property>
      <property name="shotcut:animOut">00:00:00.000</property>
      <property name="transition.threads">0</property>
    </filter>
    <filter id="filter28" in="00:01:49.960000" out="00:01:53.320000">
      <property name="window">75</property>
      <property name="max_gain">20dB</property>
      <property name="mlt_service">volume</property>
      <property name="shotcut:filter">muteVolume</property>
      <property name="gain">0</property>
    </filter>
  </producer>
  <producer id="producer15" in="00:00:00.000" out="00:02:58.320" title="Anonymous Submission">
    <property name="length">00:02:58:09</property>
    <property name="eof">pause</property>
    <property name="resource">../../006 - Videos format youtube/Chef/Jean-Jacques_chef_totoro.mp4</property>
    <property name="audio_index">1</property>
    <property name="video_index">0</property>
    <property name="mute_on_pause">0</property>
    <property name="mlt_service">avformat-novalidate</property>
    <property name="seekable">1</property>
    <property name="aspect_ratio">1</property>
    <property name="creation_time">2020-04-05T13:55:58</property>
    <property name="shotcut:hash">54631fa1ec31562eee0a931256e35e96</property>
    <property name="ignore_points">0</property>
    <property name="shotcut:caption">Jean-Jacques_chef_totoro.mp4</property>
    <property name="shotcut:skipConvert">1</property>
    <property name="global_feed">1</property>
    <property name="xml">was here</property>
    <filter id="filter29" in="00:01:53.360000" out="00:01:59.640000">
      <property name="background">colour:0</property>
      <property name="mlt_service">affine</property>
      <property name="shotcut:filter">affineSizePosition</property>
      <property name="transition.fill">1</property>
      <property name="transition.distort">0</property>
      <property name="transition.rect">00:00:00.000000=724.0 802.5 110.0 61.5 1;00:00:00.360000=1226.0 365.5 119.0 67.5 1</property>
      <property name="transition.valign">top</property>
      <property name="transition.halign">left</property>
      <property name="shotcut:animIn">00:00:00.400000</property>
      <property name="shotcut:animOut">00:00:00.000</property>
      <property name="transition.threads">0</property>
    </filter>
    <filter id="filter30" in="00:01:53.360000" out="00:01:59.640000">
      <property name="window">75</property>
      <property name="max_gain">20dB</property>
      <property name="mlt_service">volume</property>
      <property name="shotcut:filter">muteVolume</property>
      <property name="gain">0</property>
    </filter>
  </producer>
  <playlist id="playlist2">
    <property name="shotcut:video">1</property>
    <property name="shotcut:name">JJS_chef</property>
    <property name="shotcut:lock">1</property>
    <blank length="00:01:55.000000" />
    <entry in="00:01:32.680000" out="00:01:36.240000" producer="producer9" />
  <entry in="00:01:36.280000" out="00:01:39.640000" producer="producer10" />
  <entry in="00:01:39.680000" out="00:01:43.080000" producer="producer11" />
  <entry in="00:01:43.120000" out="00:01:46.480000" producer="producer12" />
  <entry in="00:01:46.520000" out="00:01:49.920000" producer="producer13" />
  <entry in="00:01:49.960000" out="00:01:53.320000" producer="producer14" />
  <entry in="00:01:53.360000" out="00:01:59.640000" producer="producer15" />
  </playlist>
  <producer id="producer16" in="00:00:00.000" out="00:02:58.600" title="Anonymous Submission">
    <property name="length">00:02:58:16</property>
    <property name="eof">pause</property>
    <property name="resource">../../006 - Videos format youtube/Percussions/Jean-Jacques_percu_totoro.mp4</property>
    <property name="audio_index">1</property>
    <property name="video_index">0</property>
    <property name="mute_on_pause">0</property>
    <property name="mlt_service">avformat-novalidate</property>
    <property name="seekable">1</property>
    <property name="aspect_ratio">1</property>
    <property name="creation_time">2020-04-05T13:32:56</property>
    <property name="shotcut:hash">a1cdbff80b90b0e15755cba1300f6075</property>
    <property name="ignore_points">0</property>
    <property name="shotcut:caption">Jean-Jacques_percu_totoro.mp4</property>
    <property name="shotcut:skipConvert">1</property>
    <property name="global_feed">1</property>
    <property name="xml">was here</property>
    <filter id="filter31" in="00:01:34.280000" out="00:01:37.840000">
      <property name="background">colour:0</property>
      <property name="mlt_service">affine</property>
      <property name="shotcut:filter">affineSizePosition</property>
      <property name="transition.fill">1</property>
      <property name="transition.distort">0</property>
      <property name="transition.rect">-1910.0 -1074.5 -9.0 -4.5 1</property>
      <property name="transition.valign">top</property>
      <property name="transition.halign">left</property>
      <property name="shotcut:animIn">00:00:00.000</property>
      <property name="shotcut:animOut">00:00:00.000</property>
      <property name="transition.threads">0</property>
    </filter>
    <filter id="filter32" in="00:01:34.280000" out="00:01:37.840000">
      <property name="window">75</property>
      <property name="max_gain">20dB</property>
      <property name="level">-2</property>
      <property name="mlt_service">volume</property>
    </filter>
    <filter id="filter33" in="00:01:34.280000" out="00:01:37.840000">
      <property name="window">75</property>
      <property name="max_gain">20dB</property>
      <property name="mlt_service">volume</property>
      <property name="shotcut:filter">muteVolume</property>
      <property name="gain">0</property>
    </filter>
  </producer>
  <producer id="producer17" in="00:00:00.000" out="00:02:58.600" title="Anonymous Submission">
    <property name="length">00:02:58:16</property>
    <property name="eof">pause</property>
    <property name="resource">../../006 - Videos format youtube/Percussions/Jean-Jacques_percu_totoro.mp4</property>
    <property name="audio_index">1</property>
    <property name="video_index">0</property>
    <property name="mute_on_pause">0</property>
    <property name="mlt_service">avformat-novalidate</property>
    <property name="seekable">1</property>
    <property name="aspect_ratio">1</property>
    <property name="creation_time">2020-04-05T13:32:56</property>
    <property name="shotcut:hash">a1cdbff80b90b0e15755cba1300f6075</property>
    <property name="ignore_points">0</property>
    <property name="shotcut:caption">Jean-Jacques_percu_totoro.mp4</property>
    <property name="shotcut:skipConvert">1</property>
    <property name="global_feed">1</property>
    <property name="xml">was here</property>
    <filter id="filter34" in="00:01:37.880000" out="00:01:41.240000">
      <property name="background">colour:0</property>
      <property name="mlt_service">affine</property>
      <property name="shotcut:filter">affineSizePosition</property>
      <property name="transition.fill">1</property>
      <property name="transition.distort">0</property>
      <property name="transition.rect">00:00:00.000000=-1900.0 -1068.5 -18.0 -9.5 1;00:00:00.360000=906.0 77.5 119.0 67.5 1</property>
      <property name="transition.valign">top</property>
      <property name="transition.halign">left</property>
      <property name="shotcut:animIn">00:00:00.400000</property>
      <property name="shotcut:animOut">00:00:00.000</property>
      <property name="transition.threads">0</property>
    </filter>
    <filter id="filter35" in="00:01:37.880000" out="00:01:41.240000">
      <property name="window">75</property>
      <property name="max_gain">20dB</property>
      <property name="level">-2</property>
      <property name="mlt_service">volume</property>
    </filter>
    <filter id="filter36" in="00:01:37.880000" out="00:01:41.240000">
      <property name="window">75</property>
      <property name="max_gain">20dB</property>
      <property name="mlt_service">volume</property>
      <property name="shotcut:filter">muteVolume</property>
      <property name="gain">0</property>
    </filter>
  </producer>
  <producer id="producer18" in="00:00:00.000" out="00:02:58.600" title="Anonymous Submission">
    <property name="length">00:02:58:16</property>
    <property name="eof">pause</property>
    <property name="resource">../../006 - Videos format youtube/Percussions/Jean-Jacques_percu_totoro.mp4</property>
    <property name="audio_index">1</property>
    <property name="video_index">0</property>
    <property name="mute_on_pause">0</property>
    <property name="mlt_service">avformat-novalidate</property>
    <property name="seekable">1</property>
    <property name="aspect_ratio">1</property>
    <property name="creation_time">2020-04-05T13:32:56</property>
    <property name="shotcut:hash">a1cdbff80b90b0e15755cba1300f6075</property>
    <property name="ignore_points">0</property>
    <property name="shotcut:caption">Jean-Jacques_percu_totoro.mp4</property>
    <property name="shotcut:skipConvert">1</property>
    <property name="global_feed">1</property>
    <property name="xml">was here</property>
    <filter id="filter37" in="00:01:41.280000" out="00:01:44.680000">
      <property name="background">colour:0</property>
      <property name="mlt_service">affine</property>
      <property name="shotcut:filter">affineSizePosition</property>
      <property name="transition.fill">1</property>
      <property name="transition.distort">0</property>
      <property name="transition.rect">00:00:00.000000=955.0 539.0 4.0 2.0 1;00:00:00.360000=748.0 352.0 167.0 94.0 1</property>
      <property name="transition.valign">top</property>
      <property name="transition.halign">left</property>
      <property name="shotcut:animIn">00:00:00.400000</property>
      <property name="shotcut:animOut">00:00:00.000</property>
      <property name="transition.threads">0</property>
    </filter>
    <filter id="filter38" in="00:01:41.280000" out="00:01:44.680000">
      <property name="window">75</property>
      <property name="max_gain">20dB</property>
      <property name="level">-2</property>
      <property name="mlt_service">volume</property>
    </filter>
    <filter id="filter39" in="00:01:41.280000" out="00:01:44.680000">
      <property name="window">75</property>
      <property name="max_gain">20dB</property>
      <property name="mlt_service">volume</property>
      <property name="shotcut:filter">muteVolume</property>
      <property name="gain">0</property>
    </filter>
  </producer>
  <producer id="producer19" in="00:00:00.000" out="00:02:58.600" title="Anonymous Submission">
    <property name="length">00:02:58:16</property>
    <property name="eof">pause</property>
    <property name="resource">../../006 - Videos format youtube/Percussions/Jean-Jacques_percu_totoro.mp4</property>
    <property name="audio_index">1</property>
    <property name="video_index">0</property>
    <property name="mute_on_pause">0</property>
    <property name="mlt_service">avformat-novalidate</property>
    <property name="seekable">1</property>
    <property name="aspect_ratio">1</property>
    <property name="creation_time">2020-04-05T13:32:56</property>
    <property name="shotcut:hash">a1cdbff80b90b0e15755cba1300f6075</property>
    <property name="ignore_points">0</property>
    <property name="shotcut:caption">Jean-Jacques_percu_totoro.mp4</property>
    <property name="shotcut:skipConvert">1</property>
    <property name="global_feed">1</property>
    <property name="xml">was here</property>
    <filter id="filter40" in="00:01:44.720000" out="00:01:48.080000">
      <property name="background">colour:0</property>
      <property name="mlt_service">affine</property>
      <property name="shotcut:filter">affineSizePosition</property>
      <property name="transition.fill">1</property>
      <property name="transition.distort">0</property>
      <property name="transition.rect">00:00:00.000000=758.0 357.5 158.0 88.5 1;00:00:00.360000=650.0 365.5 119.0 67.5 1</property>
      <property name="transition.valign">top</property>
      <property name="transition.halign">left</property>
      <property name="shotcut:animIn">00:00:00.400000</property>
      <property name="shotcut:animOut">00:00:00.000</property>
      <property name="transition.threads">0</property>
    </filter>
    <filter id="filter41" in="00:01:44.720000" out="00:01:48.080000">
      <property name="window">75</property>
      <property name="max_gain">20dB</property>
      <property name="level">-2</property>
      <property name="mlt_service">volume</property>
    </filter>
    <filter id="filter42" in="00:01:44.720000" out="00:01:48.080000">
      <property name="window">75</property>
      <property name="max_gain">20dB</property>
      <property name="mlt_service">volume</property>
      <property name="shotcut:filter">muteVolume</property>
      <property name="gain">0</property>
    </filter>
  </producer>
  <producer id="producer20" in="00:00:00.000" out="00:02:58.600" title="Anonymous Submission">
    <property name="length">00:02:58:16</property>
    <property name="eof">pause</property>
    <property name="resource">../../006 - Videos format youtube/Percussions/Jean-Jacques_percu_totoro.mp4</property>
    <property name="audio_index">1</property>
    <property name="video_index">0</property>
    <property name="mute_on_pause">0</property>
    <property name="mlt_service">avformat-novalidate</property>
    <property name="seekable">1</property>
    <property name="aspect_ratio">1</property>
    <property name="creation_time">2020-04-05T13:32:56</property>
    <property name="shotcut:hash">a1cdbff80b90b0e15755cba1300f6075</property>
    <property name="ignore_points">0</property>
    <property name="shotcut:caption">Jean-Jacques_percu_totoro.mp4</property>
    <property name="shotcut:skipConvert">1</property>
    <property name="global_feed">1</property>
    <property name="xml">was here</property>
    <filter id="filter43" in="00:01:48.120000" out="00:01:51.520000">
      <property name="background">colour:0</property>
      <property name="mlt_service">affine</property>
      <property name="shotcut:filter">affineSizePosition</property>
      <property name="transition.fill">1</property>
      <property name="transition.distort">0</property>
      <property name="transition.rect">00:00:00.000000=660.0 370.5 110.0 61.5 1;00:00:00.360000=1290.0 77.5 119.0 67.5 1</property>
      <property name="transition.valign">top</property>
      <property name="transition.halign">left</property>
      <property name="shotcut:animIn">00:00:00.400000</property>
      <property name="shotcut:animOut">00:00:00.000</property>
      <property name="transition.threads">0</property>
    </filter>
    <filter id="filter44" in="00:01:48.120000" out="00:01:51.520000">
      <property name="window">75</property>
      <property name="max_gain">20dB</property>
      <property name="level">-2</property>
      <property name="mlt_service">volume</property>
    </filter>
    <filter id="filter45" in="00:01:48.120000" out="00:01:51.520000">
      <property name="window">75</property>
      <property name="max_gain">20dB</property>
      <property name="mlt_service">volume</property>
      <property name="shotcut:filter">muteVolume</property>
      <property name="gain">0</property>
    </filter>
  </producer>
  <producer id="producer21" in="00:00:00.000" out="00:02:58.600" title="Anonymous Submission">
    <property name="length">00:02:58:16</property>
    <property name="eof">pause</property>
    <property name="resource">../../006 - Videos format youtube/Percussions/Jean-Jacques_percu_totoro.mp4</property>
    <property name="audio_index">1</property>
    <property name="video_index">0</property>
    <property name="mute_on_pause">0</property>
    <property name="mlt_service">avformat-novalidate</property>
    <property name="seekable">1</property>
    <property name="aspect_ratio">1</property>
    <property name="creation_time">2020-04-05T13:32:56</property>
    <property name="shotcut:hash">a1cdbff80b90b0e15755cba1300f6075</property>
    <property name="ignore_points">0</property>
    <property name="shotcut:caption">Jean-Jacques_percu_totoro.mp4</property>
    <property name="shotcut:skipConvert">1</property>
    <property name="global_feed">1</property>
    <property name="xml">was here</property>
    <filter id="filter46" in="00:01:51.560000" out="00:01:54.920000">
      <property name="background">colour:0</property>
      <property name="mlt_service">affine</property>
      <property name="shotcut:filter">affineSizePosition</property>
      <property name="transition.fill">1</property>
      <property name="transition.distort">0</property>
      <property name="transition.rect">00:00:00.000000=1300.0 82.5 110.0 61.5 1;00:00:00.360000=970.0 581.5 119.0 67.5 1</property>
      <property name="transition.valign">top</property>
      <property name="transition.halign">left</property>
      <property name="shotcut:animIn">00:00:00.400000</property>
      <property name="shotcut:animOut">00:00:00.000</property>
      <property name="transition.threads">0</property>
    </filter>
    <filter id="filter47" in="00:01:51.560000" out="00:01:54.920000">
      <property name="window">75</property>
      <property name="max_gain">20dB</property>
      <property name="level">-2</property>
      <property name="mlt_service">volume</property>
    </filter>
    <filter id="filter48" in="00:01:51.560000" out="00:01:54.920000">
      <property name="window">75</property>
      <property name="max_gain">20dB</property>
      <property name="mlt_service">volume</property>
      <property name="shotcut:filter">muteVolume</property>
      <property name="gain">0</property>
    </filter>
  </producer>
  <producer id="producer22" in="00:00:00.000" out="00:02:58.600" title="Anonymous Submission">
    <property name="length">00:02:58:16</property>
    <property name="eof">pause</property>
    <property name="resource">../../006 - Videos format youtube/Percussions/Jean-Jacques_percu_totoro.mp4</property>
    <property name="audio_index">1</property>
    <property name="video_index">0</property>
    <property name="mute_on_pause">0</property>
    <property name="mlt_service">avformat-novalidate</property>
    <property name="seekable">1</property>
    <property name="aspect_ratio">1</property>
    <property name="creation_time">2020-04-05T13:32:56</property>
    <property name="shotcut:hash">a1cdbff80b90b0e15755cba1300f6075</property>
    <property name="ignore_points">0</property>
    <property name="shotcut:caption">Jean-Jacques_percu_totoro.mp4</property>
    <property name="shotcut:skipConvert">1</property>
    <property name="global_feed">1</property>
    <property name="xml">was here</property>
    <filter id="filter49" in="00:01:54.960000" out="00:02:01.240000">
      <property name="background">colour:0</property>
      <property name="mlt_service">affine</property>
      <property name="shotcut:filter">affineSizePosition</property>
      <property name="transition.fill">1</property>
      <property name="transition.distort">0</property>
      <property name="transition.rect">00:00:00.000000=980.0 586.5 110.0 61.5 1;00:00:00.360000=586.0 436.5 119.0 67.5 1</property>
      <property name="transition.valign">top</property>
      <property name="transition.halign">left</property>
      <property name="shotcut:animIn">00:00:00.400000</property>
      <property name="shotcut:animOut">00:00:00.000</property>
      <property name="transition.threads">0</property>
    </filter>
    <filter id="filter50" in="00:01:54.960000" out="00:02:01.240000">
      <property name="window">75</property>
      <property name="max_gain">20dB</property>
      <property name="level">-2</property>
      <property name="mlt_service">volume</property>
    </filter>
    <filter id="filter51" in="00:01:54.960000" out="00:02:01.240000">
      <property name="window">75</property>
      <property name="max_gain">20dB</property>
      <property name="mlt_service">volume</property>
      <property name="shotcut:filter">muteVolume</property>
      <property name="gain">0</property>
    </filter>
  </producer>
  <playlist id="playlist3">
    <property name="shotcut:video">1</property>
    <property name="shotcut:name">JJS Percu</property>
    <property name="shotcut:lock">1</property>
    <blank length="00:01:55.000000" />
    <entry in="00:01:34.280000" out="00:01:37.840000" producer="producer16" />
    <entry in="00:01:37.880000" out="00:01:41.240000" producer="producer17" />
    <entry in="00:01:41.280000" out="00:01:44.680000" producer="producer18" />
    <entry in="00:01:44.720000" out="00:01:48.080000" producer="producer19" />
    <entry in="00:01:48.120000" out="00:01:51.520000" producer="producer20" />
    <entry in="00:01:51.560000" out="00:01:54.920000" producer="producer21" />
    <entry in="00:01:54.960000" out="00:02:01.240000" producer="producer22" />
    <filter id="filter52" out="00:03:41.600">
      <property name="window">75</property>
      <property name="max_gain">20dB</property>
      <property name="level">-8</property>
      <property name="mlt_service">volume</property>
    </filter>
  </playlist>
  <producer id="producer23" in="00:00:00.000" out="00:02:57.280" title="Anonymous Submission">
    <property name="length">00:02:57:08</property>
    <property name="eof">pause</property>
    <property name="resource">../../006 - Videos format youtube/Chef/Jean-Jacques_chef_lach&#233; prise.mp4</property>
    <property name="audio_index">1</property>
    <property name="video_index">0</property>
    <property name="mute_on_pause">0</property>
    <property name="mlt_service">avformat-novalidate</property>
    <property name="seekable">1</property>
    <property name="aspect_ratio">1</property>
    <property name="shotcut:hash">4af0ab01efd3cc0f2a28e1cc1318c9c1</property>
    <property name="ignore_points">0</property>
    <property name="shotcut:caption">Jean-Jacques_chef_lach&#233; prise.mp4</property>
    <property name="shotcut:skipConvert">1</property>
    <property name="global_feed">1</property>
    <property name="xml">was here</property>
    <filter id="filter53" in="00:01:33.600000" out="00:01:37.160000">
      <property name="background">colour:0</property>
      <property name="mlt_service">affine</property>
      <property name="shotcut:filter">affineSizePosition</property>
      <property name="transition.fill">1</property>
      <property name="transition.distort">0</property>
      <property name="transition.rect">-1910.0 -1074.5 -9.0 -4.5 1</property>
      <property name="transition.valign">top</property>
      <property name="transition.halign">left</property>
      <property name="shotcut:animIn">00:00:00.000</property>
      <property name="shotcut:animOut">00:00:00.000</property>
      <property name="transition.threads">0</property>
    </filter>
    <filter id="filter54" in="00:01:33.600000" out="00:01:37.160000">
      <property name="window">75</property>
      <property name="max_gain">20dB</property>
      <property name="mlt_service">volume</property>
      <property name="shotcut:filter">muteVolume</property>
      <property name="gain">0</property>
    </filter>
  </producer>
  <producer id="producer24" in="00:00:00.000" out="00:02:57.280" title="Anonymous Submission">
    <property name="length">00:02:57:08</property>
    <property name="eof">pause</property>
    <property name="resource">../../006 - Videos format youtube/Chef/Jean-Jacques_chef_lach&#233; prise.mp4</property>
    <property name="audio_index">1</property>
    <property name="video_index">0</property>
    <property name="mute_on_pause">0</property>
    <property name="mlt_service">avformat-novalidate</property>
    <property name="seekable">1</property>
    <property name="aspect_ratio">1</property>
    <property name="shotcut:hash">4af0ab01efd3cc0f2a28e1cc1318c9c1</property>
    <property name="ignore_points">0</property>
    <property name="shotcut:caption">Jean-Jacques_chef_lach&#233; prise.mp4</property>
    <property name="shotcut:skipConvert">1</property>
    <property name="global_feed">1</property>
    <property name="xml">was here</property>
    <filter id="filter55" in="00:01:37.200000" out="00:01:40.560000">
      <property name="background">colour:0</property>
      <property name="mlt_service">affine</property>
      <property name="shotcut:filter">affineSizePosition</property>
      <property name="transition.fill">1</property>
      <property name="transition.distort">0</property>
      <property name="transition.rect">00:00:00.000000=-1900.0 -1068.5 -18.0 -9.5 1;00:00:00.360000=1034.0 77.5 119.0 67.5 1</property>
      <property name="transition.valign">top</property>
      <property name="transition.halign">left</property>
      <property name="shotcut:animIn">00:00:00.400000</property>
      <property name="shotcut:animOut">00:00:00.000</property>
      <property name="transition.threads">0</property>
    </filter>
    <filter id="filter56" in="00:01:37.200000" out="00:01:40.560000">
      <property name="window">75</property>
      <property name="max_gain">20dB</property>
      <property name="mlt_service">volume</property>
      <property name="shotcut:filter">muteVolume</property>
      <property name="gain">0</property>
    </filter>
  </producer>
  <producer id="producer25" in="00:00:00.000" out="00:02:57.280" title="Anonymous Submission">
    <property name="length">00:02:57:08</property>
    <property name="eof">pause</property>
    <property name="resource">../../006 - Videos format youtube/Chef/Jean-Jacques_chef_lach&#233; prise.mp4</property>
    <property name="audio_index">1</property>
    <property name="video_index">0</property>
    <property name="mute_on_pause">0</property>
    <property name="mlt_service">avformat-novalidate</property>
    <property name="seekable">1</property>
    <property name="aspect_ratio">1</property>
    <property name="shotcut:hash">4af0ab01efd3cc0f2a28e1cc1318c9c1</property>
    <property name="ignore_points">0</property>
    <property name="shotcut:caption">Jean-Jacques_chef_lach&#233; prise.mp4</property>
    <property name="shotcut:skipConvert">1</property>
    <property name="global_feed">1</property>
    <property name="xml">was here</property>
    <filter id="filter57" in="00:01:40.600000" out="00:01:44.000000">
      <property name="background">colour:0</property>
      <property name="mlt_service">affine</property>
      <property name="shotcut:filter">affineSizePosition</property>
      <property name="transition.fill">1</property>
      <property name="transition.distort">0</property>
      <property name="transition.rect">00:00:00.000000=964.0 542.0 4.0 2.0 1;00:00:00.360000=1248.0 540.0 167.0 94.0 1</property>
      <property name="transition.valign">top</property>
      <property name="transition.halign">left</property>
      <property name="shotcut:animIn">00:00:00.400000</property>
      <property name="shotcut:animOut">00:00:00.000</property>
      <property name="transition.threads">0</property>
    </filter>
    <filter id="filter58" in="00:01:40.600000" out="00:01:44.000000">
      <property name="window">75</property>
      <property name="max_gain">20dB</property>
      <property name="mlt_service">volume</property>
      <property name="shotcut:filter">muteVolume</property>
      <property name="gain">0</property>
    </filter>
  </producer>
  <producer id="producer26" in="00:00:00.000" out="00:02:57.280" title="Anonymous Submission">
    <property name="length">00:02:57:08</property>
    <property name="eof">pause</property>
    <property name="resource">../../006 - Videos format youtube/Chef/Jean-Jacques_chef_lach&#233; prise.mp4</property>
    <property name="audio_index">1</property>
    <property name="video_index">0</property>
    <property name="mute_on_pause">0</property>
    <property name="mlt_service">avformat-novalidate</property>
    <property name="seekable">1</property>
    <property name="aspect_ratio">1</property>
    <property name="shotcut:hash">4af0ab01efd3cc0f2a28e1cc1318c9c1</property>
    <property name="ignore_points">0</property>
    <property name="shotcut:caption">Jean-Jacques_chef_lach&#233; prise.mp4</property>
    <property name="shotcut:skipConvert">1</property>
    <property name="global_feed">1</property>
    <property name="xml">was here</property>
    <filter id="filter59" in="00:01:44.040000" out="00:01:47.400000">
      <property name="background">colour:0</property>
      <property name="mlt_service">affine</property>
      <property name="shotcut:filter">affineSizePosition</property>
      <property name="transition.fill">1</property>
      <property name="transition.distort">0</property>
      <property name="transition.rect">00:00:00.000000=1258.0 545.5 158.0 88.5 1;00:00:00.360000=650.0 725.5 119.0 67.5 1</property>
      <property name="transition.valign">top</property>
      <property name="transition.halign">left</property>
      <property name="shotcut:animIn">00:00:00.400000</property>
      <property name="shotcut:animOut">00:00:00.000</property>
      <property name="transition.threads">0</property>
    </filter>
    <filter id="filter60" in="00:01:44.040000" out="00:01:47.400000">
      <property name="window">75</property>
      <property name="max_gain">20dB</property>
      <property name="mlt_service">volume</property>
      <property name="shotcut:filter">muteVolume</property>
      <property name="gain">0</property>
    </filter>
  </producer>
  <producer id="producer27" in="00:00:00.000" out="00:02:57.280" title="Anonymous Submission">
    <property name="length">00:02:57:08</property>
    <property name="eof">pause</property>
    <property name="resource">../../006 - Videos format youtube/Chef/Jean-Jacques_chef_lach&#233; prise.mp4</property>
    <property name="audio_index">1</property>
    <property name="video_index">0</property>
    <property name="mute_on_pause">0</property>
    <property name="mlt_service">avformat-novalidate</property>
    <property name="seekable">1</property>
    <property name="aspect_ratio">1</property>
    <property name="shotcut:hash">4af0ab01efd3cc0f2a28e1cc1318c9c1</property>
    <property name="ignore_points">0</property>
    <property name="shotcut:caption">Jean-Jacques_chef_lach&#233; prise.mp4</property>
    <property name="shotcut:skipConvert">1</property>
    <property name="global_feed">1</property>
    <property name="xml">was here</property>
    <filter id="filter61" in="00:01:47.440000" out="00:01:50.840000">
      <property name="background">colour:0</property>
      <property name="mlt_service">affine</property>
      <property name="shotcut:filter">affineSizePosition</property>
      <property name="transition.fill">1</property>
      <property name="transition.distort">0</property>
      <property name="transition.rect">00:00:00.000000=660.0 730.5 110.0 61.5 1;00:00:00.360000=1418.0 77.5 119.0 67.5 1</property>
      <property name="transition.valign">top</property>
      <property name="transition.halign">left</property>
      <property name="shotcut:animIn">00:00:00.400000</property>
      <property name="shotcut:animOut">00:00:00.000</property>
      <property name="transition.threads">0</property>
    </filter>
    <filter id="filter62" in="00:01:47.440000" out="00:01:50.840000">
      <property name="window">75</property>
      <property name="max_gain">20dB</property>
      <property name="mlt_service">volume</property>
      <property name="shotcut:filter">muteVolume</property>
      <property name="gain">0</property>
    </filter>
  </producer>
  <producer id="producer28" in="00:00:00.000" out="00:02:57.280" title="Anonymous Submission">
    <property name="length">00:02:57:08</property>
    <property name="eof">pause</property>
    <property name="resource">../../006 - Videos format youtube/Chef/Jean-Jacques_chef_lach&#233; prise.mp4</property>
    <property name="audio_index">1</property>
    <property name="video_index">0</property>
    <property name="mute_on_pause">0</property>
    <property name="mlt_service">avformat-novalidate</property>
    <property name="seekable">1</property>
    <property name="aspect_ratio">1</property>
    <property name="shotcut:hash">4af0ab01efd3cc0f2a28e1cc1318c9c1</property>
    <property name="ignore_points">0</property>
    <property name="shotcut:caption">Jean-Jacques_chef_lach&#233; prise.mp4</property>
    <property name="shotcut:skipConvert">1</property>
    <property name="global_feed">1</property>
    <property name="xml">was here</property>
    <filter id="filter63" in="00:01:50.880000" out="00:01:54.240000">
      <property name="background">colour:0</property>
      <property name="mlt_service">affine</property>
      <property name="shotcut:filter">affineSizePosition</property>
      <property name="transition.fill">1</property>
      <property name="transition.distort">0</property>
      <property name="transition.rect">00:00:00.000000=1428.0 82.5 110.0 61.5 1;00:00:00.360000=586.0 293.5 119.0 67.5 1</property>
      <property name="transition.valign">top</property>
      <property name="transition.halign">left</property>
      <property name="shotcut:animIn">00:00:00.400000</property>
      <property name="shotcut:animOut">00:00:00.000</property>
      <property name="transition.threads">0</property>
    </filter>
    <filter id="filter64" in="00:01:50.880000" out="00:01:54.240000">
      <property name="window">75</property>
      <property name="max_gain">20dB</property>
      <property name="mlt_service">volume</property>
      <property name="shotcut:filter">muteVolume</property>
      <property name="gain">0</property>
    </filter>
  </producer>
  <producer id="producer29" in="00:00:00.000" out="00:02:57.280" title="Anonymous Submission">
    <property name="length">00:02:57:08</property>
    <property name="eof">pause</property>
    <property name="resource">../../006 - Videos format youtube/Chef/Jean-Jacques_chef_lach&#233; prise.mp4</property>
    <property name="audio_index">1</property>
    <property name="video_index">0</property>
    <property name="mute_on_pause">0</property>
    <property name="mlt_service">avformat-novalidate</property>
    <property name="seekable">1</property>
    <property name="aspect_ratio">1</property>
    <property name="shotcut:hash">4af0ab01efd3cc0f2a28e1cc1318c9c1</property>
    <property name="ignore_points">0</property>
    <property name="shotcut:caption">Jean-Jacques_chef_lach&#233; prise.mp4</property>
    <property name="shotcut:skipConvert">1</property>
    <property name="global_feed">1</property>
    <property name="xml">was here</property>
    <filter id="filter65" in="00:01:54.280000" out="00:02:00.560000">
      <property name="background">colour:0</property>
      <property name="mlt_service">affine</property>
      <property name="shotcut:filter">affineSizePosition</property>
      <property name="transition.fill">1</property>
      <property name="transition.distort">0</property>
      <property name="transition.rect">00:00:00.000000=596.0 298.5 110.0 61.5 1;00:00:00.360000=1226.0 725.5 119.0 67.5 1</property>
      <property name="transition.valign">top</property>
      <property name="transition.halign">left</property>
      <property name="shotcut:animIn">00:00:00.400000</property>
      <property name="shotcut:animOut">00:00:00.000</property>
      <property name="transition.threads">0</property>
    </filter>
    <filter id="filter66" in="00:01:54.280000" out="00:02:00.560000">
      <property name="window">75</property>
      <property name="max_gain">20dB</property>
      <property name="mlt_service">volume</property>
      <property name="shotcut:filter">muteVolume</property>
      <property name="gain">0</property>
    </filter>
  </producer>
  <playlist id="playlist4">
    <property name="shotcut:video">1</property>
    <property name="shotcut:name">JJS lach&#233; prise</property>
    <property name="shotcut:lock">1</property>
    <blank length="00:01:55.000000" />
    <entry in="00:01:33.600000" out="00:01:37.160000" producer="producer23" />
  <entry in="00:01:37.200000" out="00:01:40.560000" producer="producer24" />
  <entry in="00:01:40.600000" out="00:01:44.000000" producer="producer25" />
  <entry in="00:01:44.040000" out="00:01:47.400000" producer="producer26" />
  <entry in="00:01:47.440000" out="00:01:50.840000" producer="producer27" />
  <entry in="00:01:50.880000" out="00:01:54.240000" producer="producer28" />
  <entry in="00:01:54.280000" out="00:02:00.560000" producer="producer29" />
  </playlist>
  <producer id="producer30" in="00:00:00.000" out="00:03:16.800" title="Anonymous Submission">
    <property name="length">00:03:16:21</property>
    <property name="eof">pause</property>
    <property name="resource">../../006 - Videos format youtube/Percussions/Alizee_piano_totoro.mp4</property>
    <property name="audio_index">1</property>
    <property name="video_index">0</property>
    <property name="mute_on_pause">0</property>
    <property name="mlt_service">avformat-novalidate</property>
    <property name="seekable">1</property>
    <property name="aspect_ratio">1</property>
    <property name="creation_time">2020-04-18T16:05:16</property>
    <property name="shotcut:hash">a1e6a8a71a5f1a2680d6075bfdc34382</property>
    <property name="ignore_points">0</property>
    <property name="shotcut:caption">Alizee_piano_totoro.mp4</property>
    <property name="shotcut:skipConvert">1</property>
    <property name="global_feed">1</property>
    <property name="xml">was here</property>
    <filter id="filter67" in="00:01:50.000000" out="00:01:53.560000">
      <property name="background">colour:0</property>
      <property name="mlt_service">affine</property>
      <property name="shotcut:filter">affineSizePosition</property>
      <property name="transition.fill">1</property>
      <property name="transition.distort">0</property>
      <property name="transition.rect">-1910.0 -1074.5 -9.0 -4.5 1</property>
      <property name="transition.valign">top</property>
      <property name="transition.halign">left</property>
      <property name="shotcut:animIn">00:00:00.000</property>
      <property name="shotcut:animOut">00:00:00.000</property>
      <property name="transition.threads">0</property>
    </filter>
  </producer>
  <producer id="producer31" in="00:00:00.000" out="00:03:16.800" title="Anonymous Submission">
    <property name="length">00:03:16:21</property>
    <property name="eof">pause</property>
    <property name="resource">../../006 - Videos format youtube/Percussions/Alizee_piano_totoro.mp4</property>
    <property name="audio_index">1</property>
    <property name="video_index">0</property>
    <property name="mute_on_pause">0</property>
    <property name="mlt_service">avformat-novalidate</property>
    <property name="seekable">1</property>
    <property name="aspect_ratio">1</property>
    <property name="creation_time">2020-04-18T16:05:16</property>
    <property name="shotcut:hash">a1e6a8a71a5f1a2680d6075bfdc34382</property>
    <property name="ignore_points">0</property>
    <property name="shotcut:caption">Alizee_piano_totoro.mp4</property>
    <property name="shotcut:skipConvert">1</property>
    <property name="global_feed">1</property>
    <property name="xml">was here</property>
    <filter id="filter68" in="00:01:53.600000" out="00:01:56.960000">
      <property name="background">colour:0</property>
      <property name="mlt_service">affine</property>
      <property name="shotcut:filter">affineSizePosition</property>
      <property name="transition.fill">1</property>
      <property name="transition.distort">0</property>
      <property name="transition.rect">00:00:00.000000=-1900.0 -1068.5 -18.0 -9.5 1;00:00:00.360000=650.0 149.5 119.0 67.5 1</property>
      <property name="transition.valign">top</property>
      <property name="transition.halign">left</property>
      <property name="shotcut:animIn">00:00:00.400000</property>
      <property name="shotcut:animOut">00:00:00.000</property>
      <property name="transition.threads">0</property>
    </filter>
  </producer>
  <producer id="producer32" in="00:00:00.000" out="00:03:16.800" title="Anonymous Submission">
    <property name="length">00:03:16:21</property>
    <property name="eof">pause</property>
    <property name="resource">../../006 - Videos format youtube/Percussions/Alizee_piano_totoro.mp4</property>
    <property name="audio_index">1</property>
    <property name="video_index">0</property>
    <property name="mute_on_pause">0</property>
    <property name="mlt_service">avformat-novalidate</property>
    <property name="seekable">1</property>
    <property name="aspect_ratio">1</property>
    <property name="creation_time">2020-04-18T16:05:16</property>
    <property name="shotcut:hash">a1e6a8a71a5f1a2680d6075bfdc34382</property>
    <property name="ignore_points">0</property>
    <property name="shotcut:caption">Alizee_piano_totoro.mp4</property>
    <property name="shotcut:skipConvert">1</property>
    <property name="global_feed">1</property>
    <property name="xml">was here</property>
    <filter id="filter69" in="00:01:57.000000" out="00:02:00.400000">
      <property name="background">colour:0</property>
      <property name="mlt_service">affine</property>
      <property name="shotcut:filter">affineSizePosition</property>
      <property name="transition.fill">1</property>
      <property name="transition.distort">0</property>
      <property name="transition.rect">-1920.0 -1080.0 1.0 1.0 1</property>
      <property name="transition.valign">top</property>
      <property name="transition.halign">left</property>
      <property name="shotcut:animIn">00:00:00.400000</property>
      <property name="shotcut:animOut">00:00:00.000</property>
      <property name="transition.threads">0</property>
    </filter>
  </producer>
  <producer id="producer33" in="00:00:00.000" out="00:03:16.800" title="Anonymous Submission">
    <property name="length">00:03:16:21</property>
    <property name="eof">pause</property>
    <property name="resource">../../006 - Videos format youtube/Percussions/Alizee_piano_totoro.mp4</property>
    <property name="audio_index">1</property>
    <property name="video_index">0</property>
    <property name="mute_on_pause">0</property>
    <property name="mlt_service">avformat-novalidate</property>
    <property name="seekable">1</property>
    <property name="aspect_ratio">1</property>
    <property name="creation_time">2020-04-18T16:05:16</property>
    <property name="shotcut:hash">a1e6a8a71a5f1a2680d6075bfdc34382</property>
    <property name="ignore_points">0</property>
    <property name="shotcut:caption">Alizee_piano_totoro.mp4</property>
    <property name="shotcut:skipConvert">1</property>
    <property name="global_feed">1</property>
    <property name="xml">was here</property>
    <filter id="filter70" in="00:02:00.440000" out="00:02:03.800000">
      <property name="background">colour:0</property>
      <property name="mlt_service">affine</property>
      <property name="shotcut:filter">affineSizePosition</property>
      <property name="transition.fill">1</property>
      <property name="transition.distort">0</property>
      <property name="transition.rect">00:00:00.000000=-1910.0 -1074.5 -8.0 -4.5 1;00:00:00.360000=777.0 149.5 119.0 67.5 1</property>
      <property name="transition.valign">top</property>
      <property name="transition.halign">left</property>
      <property name="shotcut:animIn">00:00:00.400000</property>
      <property name="shotcut:animOut">00:00:00.000</property>
      <property name="transition.threads">0</property>
    </filter>
  </producer>
  <producer id="producer34" in="00:00:00.000" out="00:03:16.800" title="Anonymous Submission">
    <property name="length">00:03:16:21</property>
    <property name="eof">pause</property>
    <property name="resource">../../006 - Videos format youtube/Percussions/Alizee_piano_totoro.mp4</property>
    <property name="audio_index">1</property>
    <property name="video_index">0</property>
    <property name="mute_on_pause">0</property>
    <property name="mlt_service">avformat-novalidate</property>
    <property name="seekable">1</property>
    <property name="aspect_ratio">1</property>
    <property name="creation_time">2020-04-18T16:05:16</property>
    <property name="shotcut:hash">a1e6a8a71a5f1a2680d6075bfdc34382</property>
    <property name="ignore_points">0</property>
    <property name="shotcut:caption">Alizee_piano_totoro.mp4</property>
    <property name="shotcut:skipConvert">1</property>
    <property name="global_feed">1</property>
    <property name="xml">was here</property>
    <filter id="filter71" in="00:02:03.840000" out="00:02:07.240000">
      <property name="background">colour:0</property>
      <property name="mlt_service">affine</property>
      <property name="shotcut:filter">affineSizePosition</property>
      <property name="transition.fill">1</property>
      <property name="transition.distort">0</property>
      <property name="transition.rect">00:00:00.000000=787.0 154.5 110.0 61.5 1;00:00:00.360000=522.0 149.5 119.0 67.5 1</property>
      <property name="transition.valign">top</property>
      <property name="transition.halign">left</property>
      <property name="shotcut:animIn">00:00:00.400000</property>
      <property name="shotcut:animOut">00:00:00.000</property>
      <property name="transition.threads">0</property>
    </filter>
  </producer>
  <producer id="producer35" in="00:00:00.000" out="00:03:16.800" title="Anonymous Submission">
    <property name="length">00:03:16:21</property>
    <property name="eof">pause</property>
    <property name="resource">../../006 - Videos format youtube/Percussions/Alizee_piano_totoro.mp4</property>
    <property name="audio_index">1</property>
    <property name="video_index">0</property>
    <property name="mute_on_pause">0</property>
    <property name="mlt_service">avformat-novalidate</property>
    <property name="seekable">1</property>
    <property name="aspect_ratio">1</property>
    <property name="creation_time">2020-04-18T16:05:16</property>
    <property name="shotcut:hash">a1e6a8a71a5f1a2680d6075bfdc34382</property>
    <property name="ignore_points">0</property>
    <property name="shotcut:caption">Alizee_piano_totoro.mp4</property>
    <property name="shotcut:skipConvert">1</property>
    <property name="global_feed">1</property>
    <property name="xml">was here</property>
    <filter id="filter72" in="00:02:07.280000" out="00:02:10.640000">
      <property name="background">colour:0</property>
      <property name="mlt_service">affine</property>
      <property name="shotcut:filter">affineSizePosition</property>
      <property name="transition.fill">1</property>
      <property name="transition.distort">0</property>
      <property name="transition.rect">00:00:00.000000=532.0 154.5 110.0 61.5 1;00:00:00.360000=714.0 725.5 119.0 67.5 1</property>
      <property name="transition.valign">top</property>
      <property name="transition.halign">left</property>
      <property name="shotcut:animIn">00:00:00.400000</property>
      <property name="shotcut:animOut">00:00:00.000</property>
      <property name="transition.threads">0</property>
    </filter>
  </producer>
  <producer id="producer36" in="00:00:00.000" out="00:03:16.800" title="Anonymous Submission">
    <property name="length">00:03:16:21</property>
    <property name="eof">pause</property>
    <property name="resource">../../006 - Videos format youtube/Percussions/Alizee_piano_totoro.mp4</property>
    <property name="audio_index">1</property>
    <property name="video_index">0</property>
    <property name="mute_on_pause">0</property>
    <property name="mlt_service">avformat-novalidate</property>
    <property name="seekable">1</property>
    <property name="aspect_ratio">1</property>
    <property name="creation_time">2020-04-18T16:05:16</property>
    <property name="shotcut:hash">a1e6a8a71a5f1a2680d6075bfdc34382</property>
    <property name="ignore_points">0</property>
    <property name="shotcut:caption">Alizee_piano_totoro.mp4</property>
    <property name="shotcut:skipConvert">1</property>
    <property name="global_feed">1</property>
    <property name="xml">was here</property>
    <filter id="filter73" in="00:02:10.680000" out="00:02:16.960000">
      <property name="background">colour:0</property>
      <property name="mlt_service">affine</property>
      <property name="shotcut:filter">affineSizePosition</property>
      <property name="transition.fill">1</property>
      <property name="transition.distort">0</property>
      <property name="transition.rect">00:00:00.000000=724.0 730.5 110.0 61.5 1;00:00:00.360000=714.0 221.5 119.0 67.5 1</property>
      <property name="transition.valign">top</property>
      <property name="transition.halign">left</property>
      <property name="shotcut:animIn">00:00:00.400000</property>
      <property name="shotcut:animOut">00:00:00.000</property>
      <property name="transition.threads">0</property>
    </filter>
  </producer>
  <playlist id="playlist5">
    <property name="shotcut:video">1</property>
    <property name="shotcut:name">Alizee</property>
    <property name="shotcut:lock">1</property>
    <blank length="00:01:55.000000" />
    <entry in="00:01:50.000000" out="00:01:53.560000" producer="producer30" />
    <entry in="00:01:53.600000" out="00:01:56.960000" producer="producer31" />
    <entry in="00:01:57.000000" out="00:02:00.400000" producer="producer32" />
    <entry in="00:02:00.440000" out="00:02:03.800000" producer="producer33" />
    <entry in="00:02:03.840000" out="00:02:07.240000" producer="producer34" />
    <entry in="00:02:07.280000" out="00:02:10.640000" producer="producer35" />
    <entry in="00:02:10.680000" out="00:02:16.960000" producer="producer36" />
    <filter id="filter74" out="00:03:41.600">
      <property name="window">75</property>
      <property name="max_gain">20dB</property>
      <property name="level">-6</property>
      <property name="mlt_service">volume</property>
    </filter>
  </playlist>
  <producer id="producer37" in="00:00:00.000" out="00:03:41.600" title="Anonymous Submission">
    <property name="length">00:03:41.640</property>
    <property name="eof">pause</property>
    <property name="resource">../../003 - Bande son/pupitres/totoro.mp3</property>
    <property name="audio_index">0</property>
    <property name="video_index">-1</property>
    <property name="mute_on_pause">0</property>
    <property name="mlt_service">avformat-novalidate</property>
    <property name="seekable">1</property>
    <property name="creation_time">2020-04-29T12:12:19</property>
    <property name="shotcut:hash">98cda0f998a12056ec53b1c42a153fae</property>
    <property name="ignore_points">0</property>
    <property name="shotcut:caption">totoro.mp3</property>
    <property name="shotcut:skipConvert">1</property>
    <property name="global_feed">1</property>
    <property name="xml">was here</property>
  </producer>
  <playlist id="playlist6">
    <property name="shotcut:audio">1</property>
    <property name="shotcut:name">A1</property>
    <entry in="00:00:00.000" out="00:03:41.600" producer="producer37" />
  </playlist>
  <producer id="producer38" in="00:00:00.000" out="00:03:21.840" title="Anonymous Submission">
    <property name="length">00:03:21:22</property>
    <property name="eof">pause</property>
    <property name="resource">../../006 - Videos format youtube/Euphonium/Bidou_euphonium_totoro.mp4</property>
    <property name="audio_index">1</property>
    <property name="video_index">0</property>
    <property name="mute_on_pause">0</property>
    <property name="mlt_service">avformat-novalidate</property>
    <property name="seekable">1</property>
    <property name="aspect_ratio">1</property>
    <property name="creation_time">2020-04-05T19:40:16</property>
    <property name="shotcut:hash">c61ed928d3936826431ae6103cd9bcfd</property>
    <property name="ignore_points">0</property>
    <property name="shotcut:caption">Bidou_euphonium_totoro.mp4</property>
    <property name="shotcut:skipConvert">1</property>
    <property name="global_feed">1</property>
    <property name="xml">was here</property>
    <filter id="filter75" in="00:01:54.960000" out="00:01:58.520000">
      <property name="background">colour:0</property>
      <property name="mlt_service">affine</property>
      <property name="shotcut:filter">affineSizePosition</property>
      <property name="transition.fill">1</property>
      <property name="transition.distort">0</property>
      <property name="transition.rect">-1910.0 -1074.5 -9.0 -4.5 1</property>
      <property name="transition.valign">top</property>
      <property name="transition.halign">left</property>
      <property name="shotcut:animIn">00:00:00.000</property>
      <property name="shotcut:animOut">00:00:00.000</property>
      <property name="transition.threads">0</property>
    </filter>
    <filter id="filter76" in="00:01:54.960000" out="00:01:58.520000">
      <property name="window">75</property>
      <property name="max_gain">20dB</property>
      <property name="mlt_service">volume</property>
      <property name="shotcut:filter">muteVolume</property>
      <property name="gain">0</property>
    </filter>
  </producer>
  <producer id="producer39" in="00:00:00.000" out="00:03:21.840" title="Anonymous Submission">
    <property name="length">00:03:21:22</property>
    <property name="eof">pause</property>
    <property name="resource">../../006 - Videos format youtube/Euphonium/Bidou_euphonium_totoro.mp4</property>
    <property name="audio_index">1</property>
    <property name="video_index">0</property>
    <property name="mute_on_pause">0</property>
    <property name="mlt_service">avformat-novalidate</property>
    <property name="seekable">1</property>
    <property name="aspect_ratio">1</property>
    <property name="creation_time">2020-04-05T19:40:16</property>
    <property name="shotcut:hash">c61ed928d3936826431ae6103cd9bcfd</property>
    <property name="ignore_points">0</property>
    <property name="shotcut:caption">Bidou_euphonium_totoro.mp4</property>
    <property name="shotcut:skipConvert">1</property>
    <property name="global_feed">1</property>
    <property name="xml">was here</property>
    <filter id="filter77" in="00:01:58.560000" out="00:02:01.920000">
      <property name="background">colour:0</property>
      <property name="mlt_service">affine</property>
      <property name="shotcut:filter">affineSizePosition</property>
      <property name="transition.fill">1</property>
      <property name="transition.distort">0</property>
      <property name="transition.rect">00:00:00.000000=-1900.0 -1068.5 -18.0 -9.5 1;00:00:00.360000=777.0 149.5 119.0 67.5 1</property>
      <property name="transition.valign">top</property>
      <property name="transition.halign">left</property>
      <property name="shotcut:animIn">00:00:00.400000</property>
      <property name="shotcut:animOut">00:00:00.000</property>
      <property name="transition.threads">0</property>
    </filter>
    <filter id="filter78" in="00:01:58.560000" out="00:02:01.920000">
      <property name="window">75</property>
      <property name="max_gain">20dB</property>
      <property name="mlt_service">volume</property>
      <property name="shotcut:filter">muteVolume</property>
      <property name="gain">0</property>
    </filter>
  </producer>
  <producer id="producer40" in="00:00:00.000" out="00:03:21.840" title="Anonymous Submission">
    <property name="length">00:03:21:22</property>
    <property name="eof">pause</property>
    <property name="resource">../../006 - Videos format youtube/Euphonium/Bidou_euphonium_totoro.mp4</property>
    <property name="audio_index">1</property>
    <property name="video_index">0</property>
    <property name="mute_on_pause">0</property>
    <property name="mlt_service">avformat-novalidate</property>
    <property name="seekable">1</property>
    <property name="aspect_ratio">1</property>
    <property name="creation_time">2020-04-05T19:40:16</property>
    <property name="shotcut:hash">c61ed928d3936826431ae6103cd9bcfd</property>
    <property name="ignore_points">0</property>
    <property name="shotcut:caption">Bidou_euphonium_totoro.mp4</property>
    <property name="shotcut:skipConvert">1</property>
    <property name="global_feed">1</property>
    <property name="xml">was here</property>
    <filter id="filter79" in="00:02:01.960000" out="00:02:05.360000">
      <property name="background">colour:0</property>
      <property name="mlt_service">affine</property>
      <property name="shotcut:filter">affineSizePosition</property>
      <property name="transition.fill">1</property>
      <property name="transition.distort">0</property>
      <property name="transition.rect">-1920.0 -1080.0 1.0 1.0 1</property>
      <property name="transition.valign">top</property>
      <property name="transition.halign">left</property>
      <property name="shotcut:animIn">00:00:00.400000</property>
      <property name="shotcut:animOut">00:00:00.000</property>
      <property name="transition.threads">0</property>
    </filter>
    <filter id="filter80" in="00:02:01.960000" out="00:02:05.360000">
      <property name="window">75</property>
      <property name="max_gain">20dB</property>
      <property name="mlt_service">volume</property>
      <property name="shotcut:filter">muteVolume</property>
      <property name="gain">0</property>
    </filter>
  </producer>
  <producer id="producer41" in="00:00:00.000" out="00:03:21.840" title="Anonymous Submission">
    <property name="length">00:03:21:22</property>
    <property name="eof">pause</property>
    <property name="resource">../../006 - Videos format youtube/Euphonium/Bidou_euphonium_totoro.mp4</property>
    <property name="audio_index">1</property>
    <property name="video_index">0</property>
    <property name="mute_on_pause">0</property>
    <property name="mlt_service">avformat-novalidate</property>
    <property name="seekable">1</property>
    <property name="aspect_ratio">1</property>
    <property name="creation_time">2020-04-05T19:40:16</property>
    <property name="shotcut:hash">c61ed928d3936826431ae6103cd9bcfd</property>
    <property name="ignore_points">0</property>
    <property name="shotcut:caption">Bidou_euphonium_totoro.mp4</property>
    <property name="shotcut:skipConvert">1</property>
    <property name="global_feed">1</property>
    <property name="xml">was here</property>
    <filter id="filter81" in="00:02:05.400000" out="00:02:08.760000">
      <property name="background">colour:0</property>
      <property name="mlt_service">affine</property>
      <property name="shotcut:filter">affineSizePosition</property>
      <property name="transition.fill">1</property>
      <property name="transition.distort">0</property>
      <property name="transition.rect">00:00:00.000000=-1910.0 -1074.5 -8.0 -4.5 1;00:00:00.360000=777.0 293.5 119.0 67.5 1</property>
      <property name="transition.valign">top</property>
      <property name="transition.halign">left</property>
      <property name="shotcut:animIn">00:00:00.400000</property>
      <property name="shotcut:animOut">00:00:00.000</property>
      <property name="transition.threads">0</property>
    </filter>
    <filter id="filter82" in="00:02:05.400000" out="00:02:08.760000">
      <property name="window">75</property>
      <property name="max_gain">20dB</property>
      <property name="mlt_service">volume</property>
      <property name="shotcut:filter">muteVolume</property>
      <property name="gain">0</property>
    </filter>
  </producer>
  <producer id="producer42" in="00:00:00.000" out="00:03:21.840" title="Anonymous Submission">
    <property name="length">00:03:21:22</property>
    <property name="eof">pause</property>
    <property name="resource">../../006 - Videos format youtube/Euphonium/Bidou_euphonium_totoro.mp4</property>
    <property name="audio_index">1</property>
    <property name="video_index">0</property>
    <property name="mute_on_pause">0</property>
    <property name="mlt_service">avformat-novalidate</property>
    <property name="seekable">1</property>
    <property name="aspect_ratio">1</property>
    <property name="creation_time">2020-04-05T19:40:16</property>
    <property name="shotcut:hash">c61ed928d3936826431ae6103cd9bcfd</property>
    <property name="ignore_points">0</property>
    <property name="shotcut:caption">Bidou_euphonium_totoro.mp4</property>
    <property name="shotcut:skipConvert">1</property>
    <property name="global_feed">1</property>
    <property name="xml">was here</property>
    <filter id="filter83" in="00:02:08.800000" out="00:02:12.200000">
      <property name="background">colour:0</property>
      <property name="mlt_service">affine</property>
      <property name="shotcut:filter">affineSizePosition</property>
      <property name="transition.fill">1</property>
      <property name="transition.distort">0</property>
      <property name="transition.rect">00:00:00.000000=787.0 298.5 110.0 61.5 1;00:00:00.360000=650.0 149.5 119.0 67.5 1</property>
      <property name="transition.valign">top</property>
      <property name="transition.halign">left</property>
      <property name="shotcut:animIn">00:00:00.400000</property>
      <property name="shotcut:animOut">00:00:00.000</property>
      <property name="transition.threads">0</property>
    </filter>
    <filter id="filter84" in="00:02:08.800000" out="00:02:12.200000">
      <property name="window">75</property>
      <property name="max_gain">20dB</property>
      <property name="mlt_service">volume</property>
      <property name="shotcut:filter">muteVolume</property>
      <property name="gain">0</property>
    </filter>
  </producer>
  <producer id="producer43" in="00:00:00.000" out="00:03:21.840" title="Anonymous Submission">
    <property name="length">00:03:21:22</property>
    <property name="eof">pause</property>
    <property name="resource">../../006 - Videos format youtube/Euphonium/Bidou_euphonium_totoro.mp4</property>
    <property name="audio_index">1</property>
    <property name="video_index">0</property>
    <property name="mute_on_pause">0</property>
    <property name="mlt_service">avformat-novalidate</property>
    <property name="seekable">1</property>
    <property name="aspect_ratio">1</property>
    <property name="creation_time">2020-04-05T19:40:16</property>
    <property name="shotcut:hash">c61ed928d3936826431ae6103cd9bcfd</property>
    <property name="ignore_points">0</property>
    <property name="shotcut:caption">Bidou_euphonium_totoro.mp4</property>
    <property name="shotcut:skipConvert">1</property>
    <property name="global_feed">1</property>
    <property name="xml">was here</property>
    <filter id="filter85" in="00:02:12.240000" out="00:02:15.600000">
      <property name="background">colour:0</property>
      <property name="mlt_service">affine</property>
      <property name="shotcut:filter">affineSizePosition</property>
      <property name="transition.fill">1</property>
      <property name="transition.distort">0</property>
      <property name="transition.rect">-1910.0 -1074.5 -9.0 -4.5 1</property>
      <property name="transition.valign">top</property>
      <property name="transition.halign">left</property>
      <property name="shotcut:animIn">00:00:00.400000</property>
      <property name="shotcut:animOut">00:00:00.000</property>
      <property name="transition.threads">0</property>
    </filter>
    <filter id="filter86" in="00:02:12.240000" out="00:02:15.600000">
      <property name="window">75</property>
      <property name="max_gain">20dB</property>
      <property name="mlt_service">volume</property>
      <property name="shotcut:filter">muteVolume</property>
      <property name="gain">0</property>
    </filter>
  </producer>
  <producer id="producer44" in="00:00:00.000" out="00:03:21.840" title="Anonymous Submission">
    <property name="length">00:03:21:22</property>
    <property name="eof">pause</property>
    <property name="resource">../../006 - Videos format youtube/Euphonium/Bidou_euphonium_totoro.mp4</property>
    <property name="audio_index">1</property>
    <property name="video_index">0</property>
    <property name="mute_on_pause">0</property>
    <property name="mlt_service">avformat-novalidate</property>
    <property name="seekable">1</property>
    <property name="aspect_ratio">1</property>
    <property name="creation_time">2020-04-05T19:40:16</property>
    <property name="shotcut:hash">c61ed928d3936826431ae6103cd9bcfd</property>
    <property name="ignore_points">0</property>
    <property name="shotcut:caption">Bidou_euphonium_totoro.mp4</property>
    <property name="shotcut:skipConvert">1</property>
    <property name="global_feed">1</property>
    <property name="xml">was here</property>
    <filter id="filter87" in="00:02:15.640000" out="00:02:21.920000">
      <property name="background">colour:0</property>
      <property name="mlt_service">affine</property>
      <property name="shotcut:filter">affineSizePosition</property>
      <property name="transition.fill">1</property>
      <property name="transition.distort">0</property>
      <property name="transition.rect">00:00:00.000000=-1900.0 -1068.5 -18.0 -9.5 1;00:00:00.360000=1098.0 509.5 119.0 67.5 1</property>
      <property name="transition.valign">top</property>
      <property name="transition.halign">left</property>
      <property name="shotcut:animIn">00:00:00.400000</property>
      <property name="shotcut:animOut">00:00:00.000</property>
      <property name="transition.threads">0</property>
    </filter>
    <filter id="filter88" in="00:02:15.640000" out="00:02:21.920000">
      <property name="window">75</property>
      <property name="max_gain">20dB</property>
      <property name="mlt_service">volume</property>
      <property name="shotcut:filter">muteVolume</property>
      <property name="gain">0</property>
    </filter>
  </producer>
  <playlist id="playlist7">
    <property name="shotcut:video">1</property>
    <property name="shotcut:name">Bidou_euphonium</property>
    <property name="shotcut:lock">1</property>
    <blank length="00:01:55.000000" />
    <entry in="00:01:54.960000" out="00:01:58.520000" producer="producer38" />
    <entry in="00:01:58.560000" out="00:02:01.920000" producer="producer39" />
    <entry in="00:02:01.960000" out="00:02:05.360000" producer="producer40" />
    <entry in="00:02:05.400000" out="00:02:08.760000" producer="producer41" />
    <entry in="00:02:08.800000" out="00:02:12.200000" producer="producer42" />
    <entry in="00:02:12.240000" out="00:02:15.600000" producer="producer43" />
    <entry in="00:02:15.640000" out="00:02:21.920000" producer="producer44" />
    <filter id="filter89" out="00:03:24.320">
      <property name="window">75</property>
      <property name="max_gain">20dB</property>
      <property name="level">-8</property>
      <property name="mlt_service">volume</property>
    </filter>
  </playlist>
  <producer id="producer45" in="00:00:00.000" out="00:03:39.760" title="Anonymous Submission">
    <property name="length">00:03:39:20</property>
    <property name="eof">pause</property>
    <property name="resource">../../006 - Videos format youtube/Euphonium/Serge_euphonium_totoro.mp4</property>
    <property name="audio_index">1</property>
    <property name="video_index">0</property>
    <property name="mute_on_pause">0</property>
    <property name="mlt_service">avformat-novalidate</property>
    <property name="seekable">1</property>
    <property name="aspect_ratio">1</property>
    <property name="creation_time">2020-04-09T18:38:52</property>
    <property name="shotcut:hash">febfb730e69b265c8667487f9874d68f</property>
    <property name="ignore_points">0</property>
    <property name="shotcut:caption">Serge_euphonium_totoro.mp4</property>
    <property name="shotcut:skipConvert">1</property>
    <property name="global_feed">1</property>
    <property name="xml">was here</property>
    <filter id="filter90" in="00:01:56.760000" out="00:02:00.320000">
      <property name="background">colour:0</property>
      <property name="mlt_service">affine</property>
      <property name="shotcut:filter">affineSizePosition</property>
      <property name="transition.fill">1</property>
      <property name="transition.distort">0</property>
      <property name="transition.rect">-1910.0 -1074.5 -9.0 -4.5 1</property>
      <property name="transition.valign">top</property>
      <property name="transition.halign">left</property>
      <property name="shotcut:animIn">00:00:00.000</property>
      <property name="shotcut:animOut">00:00:00.000</property>
      <property name="transition.threads">0</property>
    </filter>
  </producer>
  <producer id="producer46" in="00:00:00.000" out="00:03:39.760" title="Anonymous Submission">
    <property name="length">00:03:39:20</property>
    <property name="eof">pause</property>
    <property name="resource">../../006 - Videos format youtube/Euphonium/Serge_euphonium_totoro.mp4</property>
    <property name="audio_index">1</property>
    <property name="video_index">0</property>
    <property name="mute_on_pause">0</property>
    <property name="mlt_service">avformat-novalidate</property>
    <property name="seekable">1</property>
    <property name="aspect_ratio">1</property>
    <property name="creation_time">2020-04-09T18:38:52</property>
    <property name="shotcut:hash">febfb730e69b265c8667487f9874d68f</property>
    <property name="ignore_points">0</property>
    <property name="shotcut:caption">Serge_euphonium_totoro.mp4</property>
    <property name="shotcut:skipConvert">1</property>
    <property name="global_feed">1</property>
    <property name="xml">was here</property>
    <filter id="filter91" in="00:02:00.360000" out="00:02:03.720000">
      <property name="background">colour:0</property>
      <property name="mlt_service">affine</property>
      <property name="shotcut:filter">affineSizePosition</property>
      <property name="transition.fill">1</property>
      <property name="transition.distort">0</property>
      <property name="transition.rect">00:00:00.000000=-1900.0 -1068.5 -18.0 -9.5 1;00:00:00.360000=906.0 149.5 119.0 67.5 1</property>
      <property name="transition.valign">top</property>
      <property name="transition.halign">left</property>
      <property name="shotcut:animIn">00:00:00.400000</property>
      <property name="shotcut:animOut">00:00:00.000</property>
      <property name="transition.threads">0</property>
    </filter>
  </producer>
  <producer id="producer47" in="00:00:00.000" out="00:03:39.760" title="Anonymous Submission">
    <property name="length">00:03:39:20</property>
    <property name="eof">pause</property>
    <property name="resource">../../006 - Videos format youtube/Euphonium/Serge_euphonium_totoro.mp4</property>
    <property name="audio_index">1</property>
    <property name="video_index">0</property>
    <property name="mute_on_pause">0</property>
    <property name="mlt_service">avformat-novalidate</property>
    <property name="seekable">1</property>
    <property name="aspect_ratio">1</property>
    <property name="creation_time">2020-04-09T18:38:52</property>
    <property name="shotcut:hash">febfb730e69b265c8667487f9874d68f</property>
    <property name="ignore_points">0</property>
    <property name="shotcut:caption">Serge_euphonium_totoro.mp4</property>
    <property name="shotcut:skipConvert">1</property>
    <property name="global_feed">1</property>
    <property name="xml">was here</property>
    <filter id="filter92" in="00:02:03.760000" out="00:02:07.160000">
      <property name="background">colour:0</property>
      <property name="mlt_service">affine</property>
      <property name="shotcut:filter">affineSizePosition</property>
      <property name="transition.fill">1</property>
      <property name="transition.distort">0</property>
      <property name="transition.rect">00:00:00.000000=958.0 548.0 4.0 2.0 1;00:00:00.360000=915.0 914.0 167.0 94.0 1</property>
      <property name="transition.valign">top</property>
      <property name="transition.halign">left</property>
      <property name="shotcut:animIn">00:00:00.400000</property>
      <property name="shotcut:animOut">00:00:00.000</property>
      <property name="transition.threads">0</property>
    </filter>
  </producer>
  <producer id="producer48" in="00:00:00.000" out="00:03:39.760" title="Anonymous Submission">
    <property name="length">00:03:39:20</property>
    <property name="eof">pause</property>
    <property name="resource">../../006 - Videos format youtube/Euphonium/Serge_euphonium_totoro.mp4</property>
    <property name="audio_index">1</property>
    <property name="video_index">0</property>
    <property name="mute_on_pause">0</property>
    <property name="mlt_service">avformat-novalidate</property>
    <property name="seekable">1</property>
    <property name="aspect_ratio">1</property>
    <property name="creation_time">2020-04-09T18:38:52</property>
    <property name="shotcut:hash">febfb730e69b265c8667487f9874d68f</property>
    <property name="ignore_points">0</property>
    <property name="shotcut:caption">Serge_euphonium_totoro.mp4</property>
    <property name="shotcut:skipConvert">1</property>
    <property name="global_feed">1</property>
    <property name="xml">was here</property>
    <filter id="filter93" in="00:02:07.200000" out="00:02:10.560000">
      <property name="background">colour:0</property>
      <property name="mlt_service">affine</property>
      <property name="shotcut:filter">affineSizePosition</property>
      <property name="transition.fill">1</property>
      <property name="transition.distort">0</property>
      <property name="transition.rect">-1910.0 -1074.5 -9.0 -4.5 1</property>
      <property name="transition.valign">top</property>
      <property name="transition.halign">left</property>
      <property name="shotcut:animIn">00:00:00.400000</property>
      <property name="shotcut:animOut">00:00:00.000</property>
      <property name="transition.threads">0</property>
    </filter>
  </producer>
  <producer id="producer49" in="00:00:00.000" out="00:03:39.760" title="Anonymous Submission">
    <property name="length">00:03:39:20</property>
    <property name="eof">pause</property>
    <property name="resource">../../006 - Videos format youtube/Euphonium/Serge_euphonium_totoro.mp4</property>
    <property name="audio_index">1</property>
    <property name="video_index">0</property>
    <property name="mute_on_pause">0</property>
    <property name="mlt_service">avformat-novalidate</property>
    <property name="seekable">1</property>
    <property name="aspect_ratio">1</property>
    <property name="creation_time">2020-04-09T18:38:52</property>
    <property name="shotcut:hash">febfb730e69b265c8667487f9874d68f</property>
    <property name="ignore_points">0</property>
    <property name="shotcut:caption">Serge_euphonium_totoro.mp4</property>
    <property name="shotcut:skipConvert">1</property>
    <property name="global_feed">1</property>
    <property name="xml">was here</property>
    <filter id="filter94" in="00:02:10.600000" out="00:02:14.000000">
      <property name="background">colour:0</property>
      <property name="mlt_service">affine</property>
      <property name="shotcut:filter">affineSizePosition</property>
      <property name="transition.fill">1</property>
      <property name="transition.distort">0</property>
      <property name="transition.rect">00:00:00.000000=-1900.0 -1068.5 -18.0 -9.5 1;00:00:00.360000=1162.0 149.5 119.0 67.5 1</property>
      <property name="transition.valign">top</property>
      <property name="transition.halign">left</property>
      <property name="shotcut:animIn">00:00:00.400000</property>
      <property name="shotcut:animOut">00:00:00.000</property>
      <property name="transition.threads">0</property>
    </filter>
  </producer>
  <producer id="producer50" in="00:00:00.000" out="00:03:39.760" title="Anonymous Submission">
    <property name="length">00:03:39:20</property>
    <property name="eof">pause</property>
    <property name="resource">../../006 - Videos format youtube/Euphonium/Serge_euphonium_totoro.mp4</property>
    <property name="audio_index">1</property>
    <property name="video_index">0</property>
    <property name="mute_on_pause">0</property>
    <property name="mlt_service">avformat-novalidate</property>
    <property name="seekable">1</property>
    <property name="aspect_ratio">1</property>
    <property name="creation_time">2020-04-09T18:38:52</property>
    <property name="shotcut:hash">febfb730e69b265c8667487f9874d68f</property>
    <property name="ignore_points">0</property>
    <property name="shotcut:caption">Serge_euphonium_totoro.mp4</property>
    <property name="shotcut:skipConvert">1</property>
    <property name="global_feed">1</property>
    <property name="xml">was here</property>
    <filter id="filter95" in="00:02:14.040000" out="00:02:17.400000">
      <property name="background">colour:0</property>
      <property name="mlt_service">affine</property>
      <property name="shotcut:filter">affineSizePosition</property>
      <property name="transition.fill">1</property>
      <property name="transition.distort">0</property>
      <property name="transition.rect">00:00:00.000000=1172.0 154.5 110.0 61.5 1;00:00:00.360000=714.0 868.5 119.0 67.5 1</property>
      <property name="transition.valign">top</property>
      <property name="transition.halign">left</property>
      <property name="shotcut:animIn">00:00:00.400000</property>
      <property name="shotcut:animOut">00:00:00.000</property>
      <property name="transition.threads">0</property>
    </filter>
  </producer>
  <producer id="producer51" in="00:00:00.000" out="00:03:39.760" title="Anonymous Submission">
    <property name="length">00:03:39:20</property>
    <property name="eof">pause</property>
    <property name="resource">../../006 - Videos format youtube/Euphonium/Serge_euphonium_totoro.mp4</property>
    <property name="audio_index">1</property>
    <property name="video_index">0</property>
    <property name="mute_on_pause">0</property>
    <property name="mlt_service">avformat-novalidate</property>
    <property name="seekable">1</property>
    <property name="aspect_ratio">1</property>
    <property name="creation_time">2020-04-09T18:38:52</property>
    <property name="shotcut:hash">febfb730e69b265c8667487f9874d68f</property>
    <property name="ignore_points">0</property>
    <property name="shotcut:caption">Serge_euphonium_totoro.mp4</property>
    <property name="shotcut:skipConvert">1</property>
    <property name="global_feed">1</property>
    <property name="xml">was here</property>
    <filter id="filter96" in="00:02:17.440000" out="00:02:23.720000">
      <property name="background">colour:0</property>
      <property name="mlt_service">affine</property>
      <property name="shotcut:filter">affineSizePosition</property>
      <property name="transition.fill">1</property>
      <property name="transition.distort">0</property>
      <property name="transition.rect">1162.0 581.5 119.0 67.5 1</property>
      <property name="transition.valign">top</property>
      <property name="transition.halign">left</property>
      <property name="shotcut:animIn">00:00:00.400000</property>
      <property name="shotcut:animOut">00:00:00.000</property>
      <property name="transition.threads">0</property>
    </filter>
  </producer>
  <playlist id="playlist8">
    <blank length="00:01:55.000000" /><property name="shotcut:video">1</property>
    <property name="shotcut:name">Serge_euphonium</property>
    <property name="shotcut:lock">1</property>
    <entry in="00:01:56.760000" out="00:02:00.320000" producer="producer45" />
    <entry in="00:02:00.360000" out="00:02:03.720000" producer="producer46" />
    <entry in="00:02:03.760000" out="00:02:07.160000" producer="producer47" />
    <entry in="00:02:07.200000" out="00:02:10.560000" producer="producer48" />
    <entry in="00:02:10.600000" out="00:02:14.000000" producer="producer49" />
    <entry in="00:02:14.040000" out="00:02:17.400000" producer="producer50" />
    <entry in="00:02:17.440000" out="00:02:23.720000" producer="producer51" />
    </playlist>
  <producer id="producer52" in="00:00:00.000" out="00:03:23.360" title="Anonymous Submission">
    <property name="length">00:03:23:10</property>
    <property name="eof">pause</property>
    <property name="resource">../../006 - Videos format youtube/Clarinettes/Cecile_clarinette_totoro_recadre.mp4</property>
    <property name="audio_index">1</property>
    <property name="video_index">0</property>
    <property name="mute_on_pause">0</property>
    <property name="mlt_service">avformat-novalidate</property>
    <property name="seekable">1</property>
    <property name="aspect_ratio">1</property>
    <property name="creation_time">2020-04-20T12:31:07</property>
    <property name="shotcut:hash">fa0b3ca4ef9842045a4dd842a677be53</property>
    <property name="ignore_points">0</property>
    <property name="shotcut:caption">Cecile_clarinette_totoro_recadre.mp4</property>
    <property name="shotcut:skipConvert">1</property>
    <property name="global_feed">1</property>
    <property name="xml">was here</property>
    <filter id="filter97" in="00:01:55.040000" out="00:01:58.600000">
      <property name="background">colour:0</property>
      <property name="mlt_service">affine</property>
      <property name="shotcut:filter">affineSizePosition</property>
      <property name="transition.fill">1</property>
      <property name="transition.distort">0</property>
      <property name="transition.rect">-1910.0 -1074.5 -9.0 -4.5 1</property>
      <property name="transition.valign">top</property>
      <property name="transition.halign">left</property>
      <property name="shotcut:animIn">00:00:00.000</property>
      <property name="shotcut:animOut">00:00:00.000</property>
      <property name="transition.threads">0</property>
    </filter>
    <filter id="filter98" in="00:01:55.040000" out="00:01:58.600000">
      <property name="window">75</property>
      <property name="max_gain">20dB</property>
      <property name="mlt_service">volume</property>
      <property name="shotcut:filter">muteVolume</property>
      <property name="gain">0</property>
    </filter>
  </producer>
  <producer id="producer53" in="00:00:00.000" out="00:03:23.360" title="Anonymous Submission">
    <property name="length">00:03:23:10</property>
    <property name="eof">pause</property>
    <property name="resource">../../006 - Videos format youtube/Clarinettes/Cecile_clarinette_totoro_recadre.mp4</property>
    <property name="audio_index">1</property>
    <property name="video_index">0</property>
    <property name="mute_on_pause">0</property>
    <property name="mlt_service">avformat-novalidate</property>
    <property name="seekable">1</property>
    <property name="aspect_ratio">1</property>
    <property name="creation_time">2020-04-20T12:31:07</property>
    <property name="shotcut:hash">fa0b3ca4ef9842045a4dd842a677be53</property>
    <property name="ignore_points">0</property>
    <property name="shotcut:caption">Cecile_clarinette_totoro_recadre.mp4</property>
    <property name="shotcut:skipConvert">1</property>
    <property name="global_feed">1</property>
    <property name="xml">was here</property>
    <filter id="filter99" in="00:01:58.640000" out="00:02:02.000000">
      <property name="background">colour:0</property>
      <property name="mlt_service">affine</property>
      <property name="shotcut:filter">affineSizePosition</property>
      <property name="transition.fill">1</property>
      <property name="transition.distort">0</property>
      <property name="transition.rect">00:00:00.000000=-1900.0 -1068.5 -18.0 -9.5 1;00:00:00.360000=1034.0 149.5 119.0 67.5 1</property>
      <property name="transition.valign">top</property>
      <property name="transition.halign">left</property>
      <property name="shotcut:animIn">00:00:00.400000</property>
      <property name="shotcut:animOut">00:00:00.000</property>
      <property name="transition.threads">0</property>
    </filter>
    <filter id="filter100" in="00:01:58.640000" out="00:02:02.000000">
      <property name="window">75</property>
      <property name="max_gain">20dB</property>
      <property name="mlt_service">volume</property>
      <property name="shotcut:filter">muteVolume</property>
      <property name="gain">0</property>
    </filter>
  </producer>
  <producer id="producer54" in="00:00:00.000" out="00:03:23.360" title="Anonymous Submission">
    <property name="length">00:03:23:10</property>
    <property name="eof">pause</property>
    <property name="resource">../../006 - Videos format youtube/Clarinettes/Cecile_clarinette_totoro_recadre.mp4</property>
    <property name="audio_index">1</property>
    <property name="video_index">0</property>
    <property name="mute_on_pause">0</property>
    <property name="mlt_service">avformat-novalidate</property>
    <property name="seekable">1</property>
    <property name="aspect_ratio">1</property>
    <property name="creation_time">2020-04-20T12:31:07</property>
    <property name="shotcut:hash">fa0b3ca4ef9842045a4dd842a677be53</property>
    <property name="ignore_points">0</property>
    <property name="shotcut:caption">Cecile_clarinette_totoro_recadre.mp4</property>
    <property name="shotcut:skipConvert">1</property>
    <property name="global_feed">1</property>
    <property name="xml">was here</property>
    <filter id="filter101" in="00:02:02.040000" out="00:02:05.440000">
      <property name="background">colour:0</property>
      <property name="mlt_service">affine</property>
      <property name="shotcut:filter">affineSizePosition</property>
      <property name="transition.fill">1</property>
      <property name="transition.distort">0</property>
      <property name="transition.rect">00:00:00.000000=962.0 540.0 4.0 2.0 1;00:00:00.360000=1164.0 446.0 167.0 94.0 1</property>
      <property name="transition.valign">top</property>
      <property name="transition.halign">left</property>
      <property name="shotcut:animIn">00:00:00.400000</property>
      <property name="shotcut:animOut">00:00:00.000</property>
      <property name="transition.threads">0</property>
    </filter>
    <filter id="filter102" in="00:02:02.040000" out="00:02:05.440000">
      <property name="window">75</property>
      <property name="max_gain">20dB</property>
      <property name="mlt_service">volume</property>
      <property name="shotcut:filter">muteVolume</property>
      <property name="gain">0</property>
    </filter>
  </producer>
  <producer id="producer55" in="00:00:00.000" out="00:03:23.360" title="Anonymous Submission">
    <property name="length">00:03:23:10</property>
    <property name="eof">pause</property>
    <property name="resource">../../006 - Videos format youtube/Clarinettes/Cecile_clarinette_totoro_recadre.mp4</property>
    <property name="audio_index">1</property>
    <property name="video_index">0</property>
    <property name="mute_on_pause">0</property>
    <property name="mlt_service">avformat-novalidate</property>
    <property name="seekable">1</property>
    <property name="aspect_ratio">1</property>
    <property name="creation_time">2020-04-20T12:31:07</property>
    <property name="shotcut:hash">fa0b3ca4ef9842045a4dd842a677be53</property>
    <property name="ignore_points">0</property>
    <property name="shotcut:caption">Cecile_clarinette_totoro_recadre.mp4</property>
    <property name="shotcut:skipConvert">1</property>
    <property name="global_feed">1</property>
    <property name="xml">was here</property>
    <filter id="filter103" in="00:02:05.480000" out="00:02:08.840000">
      <property name="background">colour:0</property>
      <property name="mlt_service">affine</property>
      <property name="shotcut:filter">affineSizePosition</property>
      <property name="transition.fill">1</property>
      <property name="transition.distort">0</property>
      <property name="transition.rect">00:00:00.000000=1174.0 451.5 158.0 88.5 1;00:00:00.360000=906.0 941.5 119.0 67.5 1</property>
      <property name="transition.valign">top</property>
      <property name="transition.halign">left</property>
      <property name="shotcut:animIn">00:00:00.400000</property>
      <property name="shotcut:animOut">00:00:00.000</property>
      <property name="transition.threads">0</property>
    </filter>
    <filter id="filter104" in="00:02:05.480000" out="00:02:08.840000">
      <property name="window">75</property>
      <property name="max_gain">20dB</property>
      <property name="mlt_service">volume</property>
      <property name="shotcut:filter">muteVolume</property>
      <property name="gain">0</property>
    </filter>
  </producer>
  <producer id="producer56" in="00:00:00.000" out="00:03:23.360" title="Anonymous Submission">
    <property name="length">00:03:23:10</property>
    <property name="eof">pause</property>
    <property name="resource">../../006 - Videos format youtube/Clarinettes/Cecile_clarinette_totoro_recadre.mp4</property>
    <property name="audio_index">1</property>
    <property name="video_index">0</property>
    <property name="mute_on_pause">0</property>
    <property name="mlt_service">avformat-novalidate</property>
    <property name="seekable">1</property>
    <property name="aspect_ratio">1</property>
    <property name="creation_time">2020-04-20T12:31:07</property>
    <property name="shotcut:hash">fa0b3ca4ef9842045a4dd842a677be53</property>
    <property name="ignore_points">0</property>
    <property name="shotcut:caption">Cecile_clarinette_totoro_recadre.mp4</property>
    <property name="shotcut:skipConvert">1</property>
    <property name="global_feed">1</property>
    <property name="xml">was here</property>
    <filter id="filter105" in="00:02:08.880000" out="00:02:12.280000">
      <property name="background">colour:0</property>
      <property name="mlt_service">affine</property>
      <property name="shotcut:filter">affineSizePosition</property>
      <property name="transition.fill">1</property>
      <property name="transition.distort">0</property>
      <property name="transition.rect">00:00:00.000000=916.0 946.5 110.0 61.5 1;00:00:00.360000=1290.0 149.5 119.0 67.5 1</property>
      <property name="transition.valign">top</property>
      <property name="transition.halign">left</property>
      <property name="shotcut:animIn">00:00:00.400000</property>
      <property name="shotcut:animOut">00:00:00.000</property>
      <property name="transition.threads">0</property>
    </filter>
    <filter id="filter106" in="00:02:08.880000" out="00:02:12.280000">
      <property name="window">75</property>
      <property name="max_gain">20dB</property>
      <property name="mlt_service">volume</property>
      <property name="shotcut:filter">muteVolume</property>
      <property name="gain">0</property>
    </filter>
  </producer>
  <producer id="producer57" in="00:00:00.000" out="00:03:23.360" title="Anonymous Submission">
    <property name="length">00:03:23:10</property>
    <property name="eof">pause</property>
    <property name="resource">../../006 - Videos format youtube/Clarinettes/Cecile_clarinette_totoro_recadre.mp4</property>
    <property name="audio_index">1</property>
    <property name="video_index">0</property>
    <property name="mute_on_pause">0</property>
    <property name="mlt_service">avformat-novalidate</property>
    <property name="seekable">1</property>
    <property name="aspect_ratio">1</property>
    <property name="creation_time">2020-04-20T12:31:07</property>
    <property name="shotcut:hash">fa0b3ca4ef9842045a4dd842a677be53</property>
    <property name="ignore_points">0</property>
    <property name="shotcut:caption">Cecile_clarinette_totoro_recadre.mp4</property>
    <property name="shotcut:skipConvert">1</property>
    <property name="global_feed">1</property>
    <property name="xml">was here</property>
    <filter id="filter107" in="00:02:12.320000" out="00:02:15.680000">
      <property name="background">colour:0</property>
      <property name="mlt_service">affine</property>
      <property name="shotcut:filter">affineSizePosition</property>
      <property name="transition.fill">1</property>
      <property name="transition.distort">0</property>
      <property name="transition.rect">1034.0 941.5 119.0 67.5 1</property>
      <property name="transition.valign">top</property>
      <property name="transition.halign">left</property>
      <property name="shotcut:animIn">00:00:00.400000</property>
      <property name="shotcut:animOut">00:00:00.000</property>
      <property name="transition.threads">0</property>
    </filter>
    <filter id="filter108" in="00:02:12.320000" out="00:02:15.680000">
      <property name="window">75</property>
      <property name="max_gain">20dB</property>
      <property name="mlt_service">volume</property>
      <property name="shotcut:filter">muteVolume</property>
      <property name="gain">0</property>
    </filter>
  </producer>
  <producer id="producer58" in="00:00:00.000" out="00:03:23.360" title="Anonymous Submission">
    <property name="length">00:03:23:10</property>
    <property name="eof">pause</property>
    <property name="resource">../../006 - Videos format youtube/Clarinettes/Cecile_clarinette_totoro_recadre.mp4</property>
    <property name="audio_index">1</property>
    <property name="video_index">0</property>
    <property name="mute_on_pause">0</property>
    <property name="mlt_service">avformat-novalidate</property>
    <property name="seekable">1</property>
    <property name="aspect_ratio">1</property>
    <property name="creation_time">2020-04-20T12:31:07</property>
    <property name="shotcut:hash">fa0b3ca4ef9842045a4dd842a677be53</property>
    <property name="ignore_points">0</property>
    <property name="shotcut:caption">Cecile_clarinette_totoro_recadre.mp4</property>
    <property name="shotcut:skipConvert">1</property>
    <property name="global_feed">1</property>
    <property name="xml">was here</property>
    <filter id="filter109" in="00:02:15.720000" out="00:02:22.000000">
      <property name="background">colour:0</property>
      <property name="mlt_service">affine</property>
      <property name="shotcut:filter">affineSizePosition</property>
      <property name="transition.fill">1</property>
      <property name="transition.distort">0</property>
      <property name="transition.rect">00:00:00.000000=1044.0 946.5 110.0 61.5 1;00:00:00.360000=714.0 436.5 119.0 67.5 1</property>
      <property name="transition.valign">top</property>
      <property name="transition.halign">left</property>
      <property name="shotcut:animIn">00:00:00.400000</property>
      <property name="shotcut:animOut">00:00:00.000</property>
      <property name="transition.threads">0</property>
    </filter>
    <filter id="filter110" in="00:02:15.720000" out="00:02:22.000000">
      <property name="window">75</property>
      <property name="max_gain">20dB</property>
      <property name="mlt_service">volume</property>
      <property name="shotcut:filter">muteVolume</property>
      <property name="gain">0</property>
    </filter>
  </producer>
  <playlist id="playlist9">
    <property name="shotcut:video">1</property>
    <property name="shotcut:name">Cecile clar bass</property>
    <property name="shotcut:lock">1</property>
    <blank length="00:01:55.000000" />
    <entry in="00:01:55.040000" out="00:01:58.600000" producer="producer52" />
    <entry in="00:01:58.640000" out="00:02:02.000000" producer="producer53" />
    <entry in="00:02:02.040000" out="00:02:05.440000" producer="producer54" />
    <entry in="00:02:05.480000" out="00:02:08.840000" producer="producer55" />
    <entry in="00:02:08.880000" out="00:02:12.280000" producer="producer56" />
    <entry in="00:02:12.320000" out="00:02:15.680000" producer="producer57" />
    <entry in="00:02:15.720000" out="00:02:22.000000" producer="producer58" />
    <filter id="filter111" out="00:03:23.320">
      <property name="window">75</property>
      <property name="max_gain">20dB</property>
      <property name="level">-8</property>
      <property name="mlt_service">volume</property>
    </filter>
  </playlist>
  <producer id="producer59" in="00:00:00.000" out="00:03:22.160" title="Anonymous Submission">
    <property name="length">00:03:22:05</property>
    <property name="eof">pause</property>
    <property name="resource">../../006 - Videos format youtube/Clarinettes/Am&#233;lie_clarinette_recadre.mp4</property>
    <property name="audio_index">1</property>
    <property name="video_index">0</property>
    <property name="mute_on_pause">0</property>
    <property name="mlt_service">avformat-novalidate</property>
    <property name="seekable">1</property>
    <property name="aspect_ratio">1</property>
    <property name="shotcut:hash">76dbe6d6a34f9982b0d3bc9056faad5e</property>
    <property name="ignore_points">0</property>
    <property name="shotcut:caption">Am&#233;lie_clarinette_recadre.mp4</property>
    <property name="shotcut:skipConvert">1</property>
    <property name="global_feed">1</property>
    <property name="xml">was here</property>
    <filter id="filter112" in="00:01:55.000000" out="00:01:58.560000">
      <property name="background">colour:0</property>
      <property name="mlt_service">affine</property>
      <property name="shotcut:filter">affineSizePosition</property>
      <property name="transition.fill">1</property>
      <property name="transition.distort">0</property>
      <property name="transition.rect">-1910.0 -1074.5 -9.0 -4.5 1</property>
      <property name="transition.valign">top</property>
      <property name="transition.halign">left</property>
      <property name="shotcut:animIn">00:00:00.000</property>
      <property name="shotcut:animOut">00:00:00.000</property>
      <property name="transition.threads">0</property>
    </filter>
  </producer>
  <producer id="producer60" in="00:00:00.000" out="00:03:22.160" title="Anonymous Submission">
    <property name="length">00:03:22:05</property>
    <property name="eof">pause</property>
    <property name="resource">../../006 - Videos format youtube/Clarinettes/Am&#233;lie_clarinette_recadre.mp4</property>
    <property name="audio_index">1</property>
    <property name="video_index">0</property>
    <property name="mute_on_pause">0</property>
    <property name="mlt_service">avformat-novalidate</property>
    <property name="seekable">1</property>
    <property name="aspect_ratio">1</property>
    <property name="shotcut:hash">76dbe6d6a34f9982b0d3bc9056faad5e</property>
    <property name="ignore_points">0</property>
    <property name="shotcut:caption">Am&#233;lie_clarinette_recadre.mp4</property>
    <property name="shotcut:skipConvert">1</property>
    <property name="global_feed">1</property>
    <property name="xml">was here</property>
    <filter id="filter113" in="00:01:58.600000" out="00:02:01.960000">
      <property name="background">colour:0</property>
      <property name="mlt_service">affine</property>
      <property name="shotcut:filter">affineSizePosition</property>
      <property name="transition.fill">1</property>
      <property name="transition.distort">0</property>
      <property name="transition.rect">00:00:00.000000=-1900.0 -1068.5 -18.0 -9.5 1;00:00:00.360000=777.0 221.5 119.0 67.5 1</property>
      <property name="transition.valign">top</property>
      <property name="transition.halign">left</property>
      <property name="shotcut:animIn">00:00:00.400000</property>
      <property name="shotcut:animOut">00:00:00.000</property>
      <property name="transition.threads">0</property>
    </filter>
  </producer>
  <producer id="producer61" in="00:00:00.000" out="00:03:22.160" title="Anonymous Submission">
    <property name="length">00:03:22:05</property>
    <property name="eof">pause</property>
    <property name="resource">../../006 - Videos format youtube/Clarinettes/Am&#233;lie_clarinette_recadre.mp4</property>
    <property name="audio_index">1</property>
    <property name="video_index">0</property>
    <property name="mute_on_pause">0</property>
    <property name="mlt_service">avformat-novalidate</property>
    <property name="seekable">1</property>
    <property name="aspect_ratio">1</property>
    <property name="shotcut:hash">76dbe6d6a34f9982b0d3bc9056faad5e</property>
    <property name="ignore_points">0</property>
    <property name="shotcut:caption">Am&#233;lie_clarinette_recadre.mp4</property>
    <property name="shotcut:skipConvert">1</property>
    <property name="global_feed">1</property>
    <property name="xml">was here</property>
    <filter id="filter114" in="00:02:02.000000" out="00:02:05.400000">
      <property name="background">colour:0</property>
      <property name="mlt_service">affine</property>
      <property name="shotcut:filter">affineSizePosition</property>
      <property name="transition.fill">1</property>
      <property name="transition.distort">0</property>
      <property name="transition.rect">00:00:00.000000=955.0 542.0 4.0 2.0 1;00:00:00.360000=748.0 540.0 167.0 94.0 1</property>
      <property name="transition.valign">top</property>
      <property name="transition.halign">left</property>
      <property name="shotcut:animIn">00:00:00.400000</property>
      <property name="shotcut:animOut">00:00:00.000</property>
      <property name="transition.threads">0</property>
    </filter>
  </producer>
  <producer id="producer62" in="00:00:00.000" out="00:03:22.160" title="Anonymous Submission">
    <property name="length">00:03:22:05</property>
    <property name="eof">pause</property>
    <property name="resource">../../006 - Videos format youtube/Clarinettes/Am&#233;lie_clarinette_recadre.mp4</property>
    <property name="audio_index">1</property>
    <property name="video_index">0</property>
    <property name="mute_on_pause">0</property>
    <property name="mlt_service">avformat-novalidate</property>
    <property name="seekable">1</property>
    <property name="aspect_ratio">1</property>
    <property name="shotcut:hash">76dbe6d6a34f9982b0d3bc9056faad5e</property>
    <property name="ignore_points">0</property>
    <property name="shotcut:caption">Am&#233;lie_clarinette_recadre.mp4</property>
    <property name="shotcut:skipConvert">1</property>
    <property name="global_feed">1</property>
    <property name="xml">was here</property>
    <filter id="filter115" in="00:02:05.440000" out="00:02:08.800000">
      <property name="background">colour:0</property>
      <property name="mlt_service">affine</property>
      <property name="shotcut:filter">affineSizePosition</property>
      <property name="transition.fill">1</property>
      <property name="transition.distort">0</property>
      <property name="transition.rect">00:00:00.000000=758.0 545.5 158.0 88.5 1;00:00:00.360000=1034.0 941.5 119.0 67.5 1</property>
      <property name="transition.valign">top</property>
      <property name="transition.halign">left</property>
      <property name="shotcut:animIn">00:00:00.400000</property>
      <property name="shotcut:animOut">00:00:00.000</property>
      <property name="transition.threads">0</property>
    </filter>
  </producer>
  <producer id="producer63" in="00:00:00.000" out="00:03:22.160" title="Anonymous Submission">
    <property name="length">00:03:22:05</property>
    <property name="eof">pause</property>
    <property name="resource">../../006 - Videos format youtube/Clarinettes/Am&#233;lie_clarinette_recadre.mp4</property>
    <property name="audio_index">1</property>
    <property name="video_index">0</property>
    <property name="mute_on_pause">0</property>
    <property name="mlt_service">avformat-novalidate</property>
    <property name="seekable">1</property>
    <property name="aspect_ratio">1</property>
    <property name="shotcut:hash">76dbe6d6a34f9982b0d3bc9056faad5e</property>
    <property name="ignore_points">0</property>
    <property name="shotcut:caption">Am&#233;lie_clarinette_recadre.mp4</property>
    <property name="shotcut:skipConvert">1</property>
    <property name="global_feed">1</property>
    <property name="xml">was here</property>
    <filter id="filter116" in="00:02:08.840000" out="00:02:12.240000">
      <property name="background">colour:0</property>
      <property name="mlt_service">affine</property>
      <property name="shotcut:filter">affineSizePosition</property>
      <property name="transition.fill">1</property>
      <property name="transition.distort">0</property>
      <property name="transition.rect">00:00:00.000000=1044.0 946.5 110.0 61.5 1;00:00:00.360000=522.0 221.5 119.0 67.5 1</property>
      <property name="transition.valign">top</property>
      <property name="transition.halign">left</property>
      <property name="shotcut:animIn">00:00:00.400000</property>
      <property name="shotcut:animOut">00:00:00.000</property>
      <property name="transition.threads">0</property>
    </filter>
  </producer>
  <producer id="producer64" in="00:00:00.000" out="00:03:22.160" title="Anonymous Submission">
    <property name="length">00:03:22:05</property>
    <property name="eof">pause</property>
    <property name="resource">../../006 - Videos format youtube/Clarinettes/Am&#233;lie_clarinette_recadre.mp4</property>
    <property name="audio_index">1</property>
    <property name="video_index">0</property>
    <property name="mute_on_pause">0</property>
    <property name="mlt_service">avformat-novalidate</property>
    <property name="seekable">1</property>
    <property name="aspect_ratio">1</property>
    <property name="shotcut:hash">76dbe6d6a34f9982b0d3bc9056faad5e</property>
    <property name="ignore_points">0</property>
    <property name="shotcut:caption">Am&#233;lie_clarinette_recadre.mp4</property>
    <property name="shotcut:skipConvert">1</property>
    <property name="global_feed">1</property>
    <property name="xml">was here</property>
    <filter id="filter117" in="00:02:12.280000" out="00:02:15.640000">
      <property name="background">colour:0</property>
      <property name="mlt_service">affine</property>
      <property name="shotcut:filter">affineSizePosition</property>
      <property name="transition.fill">1</property>
      <property name="transition.distort">0</property>
      <property name="transition.rect">-1910.0 -1074.5 -9.0 -4.5 1</property>
      <property name="transition.valign">top</property>
      <property name="transition.halign">left</property>
      <property name="shotcut:animIn">00:00:00.400000</property>
      <property name="shotcut:animOut">00:00:00.000</property>
      <property name="transition.threads">0</property>
    </filter>
  </producer>
  <producer id="producer65" in="00:00:00.000" out="00:03:22.160" title="Anonymous Submission">
    <property name="length">00:03:22:05</property>
    <property name="eof">pause</property>
    <property name="resource">../../006 - Videos format youtube/Clarinettes/Am&#233;lie_clarinette_recadre.mp4</property>
    <property name="audio_index">1</property>
    <property name="video_index">0</property>
    <property name="mute_on_pause">0</property>
    <property name="mlt_service">avformat-novalidate</property>
    <property name="seekable">1</property>
    <property name="aspect_ratio">1</property>
    <property name="shotcut:hash">76dbe6d6a34f9982b0d3bc9056faad5e</property>
    <property name="ignore_points">0</property>
    <property name="shotcut:caption">Am&#233;lie_clarinette_recadre.mp4</property>
    <property name="shotcut:skipConvert">1</property>
    <property name="global_feed">1</property>
    <property name="xml">was here</property>
    <filter id="filter118" in="00:02:15.680000" out="00:02:21.960000">
      <property name="background">colour:0</property>
      <property name="mlt_service">affine</property>
      <property name="shotcut:filter">affineSizePosition</property>
      <property name="transition.fill">1</property>
      <property name="transition.distort">0</property>
      <property name="transition.rect">00:00:00.000000=-1900.0 -1068.5 -18.0 -9.5 1;00:00:00.360000=714.0 149.5 119.0 67.5 1</property>
      <property name="transition.valign">top</property>
      <property name="transition.halign">left</property>
      <property name="shotcut:animIn">00:00:00.400000</property>
      <property name="shotcut:animOut">00:00:00.000</property>
      <property name="transition.threads">0</property>
    </filter>
  </producer>
  <playlist id="playlist10">
    <blank length="00:01:55.000000" /><property name="shotcut:video">1</property>
    <property name="shotcut:name">Clarinette_amelie_recadree</property>
    <property name="shotcut:lock">1</property>
    <entry in="00:01:55.000000" out="00:01:58.560000" producer="producer59" />
    <entry in="00:01:58.600000" out="00:02:01.960000" producer="producer60" />
    <entry in="00:02:02.000000" out="00:02:05.400000" producer="producer61" />
    <entry in="00:02:05.440000" out="00:02:08.800000" producer="producer62" />
    <entry in="00:02:08.840000" out="00:02:12.240000" producer="producer63" />
    <entry in="00:02:12.280000" out="00:02:15.640000" producer="producer64" />
    <entry in="00:02:15.680000" out="00:02:21.960000" producer="producer65" />
    <filter id="filter119" out="00:03:23.320">
      <property name="window">75</property>
      <property name="max_gain">20dB</property>
      <property name="level">-8</property>
      <property name="mlt_service">volume</property>
    </filter>
  </playlist>
  <producer id="producer66" in="00:00:00.000" out="00:03:27.800" title="Anonymous Submission">
    <property name="length">00:03:27:21</property>
    <property name="eof">pause</property>
    <property name="resource">../../006 - Videos format youtube/Clarinettes/Nelly_clarinette_totoro.mp4</property>
    <property name="audio_index">1</property>
    <property name="video_index">0</property>
    <property name="mute_on_pause">0</property>
    <property name="mlt_service">avformat-novalidate</property>
    <property name="seekable">1</property>
    <property name="aspect_ratio">1</property>
    <property name="creation_time">2020-04-05T13:37:57</property>
    <property name="shotcut:hash">ce64ff05cbaafa4ab64d61c9e57002dd</property>
    <property name="ignore_points">0</property>
    <property name="shotcut:caption">Nelly_clarinette_totoro.mp4</property>
    <property name="shotcut:skipConvert">1</property>
    <property name="global_feed">1</property>
    <property name="xml">was here</property>
    <filter id="filter120" in="00:02:01.920000" out="00:02:05.480000">
      <property name="background">colour:0</property>
      <property name="mlt_service">affine</property>
      <property name="shotcut:filter">affineSizePosition</property>
      <property name="transition.fill">1</property>
      <property name="transition.distort">0</property>
      <property name="transition.rect">-1910.0 -1074.5 -9.0 -4.5 1</property>
      <property name="transition.valign">top</property>
      <property name="transition.halign">left</property>
      <property name="shotcut:animIn">00:00:00.000</property>
      <property name="shotcut:animOut">00:00:00.000</property>
      <property name="transition.threads">0</property>
    </filter>
    <filter id="filter121" in="00:02:01.920000" out="00:02:05.480000">
      <property name="window">75</property>
      <property name="max_gain">20dB</property>
      <property name="level">0</property>
      <property name="mlt_service">volume</property>
      <property name="disable">1</property>
    </filter>
  </producer>
  <producer id="producer67" in="00:00:00.000" out="00:03:27.800" title="Anonymous Submission">
    <property name="length">00:03:27:21</property>
    <property name="eof">pause</property>
    <property name="resource">../../006 - Videos format youtube/Clarinettes/Nelly_clarinette_totoro.mp4</property>
    <property name="audio_index">1</property>
    <property name="video_index">0</property>
    <property name="mute_on_pause">0</property>
    <property name="mlt_service">avformat-novalidate</property>
    <property name="seekable">1</property>
    <property name="aspect_ratio">1</property>
    <property name="creation_time">2020-04-05T13:37:57</property>
    <property name="shotcut:hash">ce64ff05cbaafa4ab64d61c9e57002dd</property>
    <property name="ignore_points">0</property>
    <property name="shotcut:caption">Nelly_clarinette_totoro.mp4</property>
    <property name="shotcut:skipConvert">1</property>
    <property name="global_feed">1</property>
    <property name="xml">was here</property>
    <filter id="filter122" in="00:02:05.520000" out="00:02:08.880000">
      <property name="background">colour:0</property>
      <property name="mlt_service">affine</property>
      <property name="shotcut:filter">affineSizePosition</property>
      <property name="transition.fill">1</property>
      <property name="transition.distort">0</property>
      <property name="transition.rect">00:00:00.000000=-1900.0 -1068.5 -18.0 -9.5 1;00:00:00.360000=906.0 221.5 119.0 67.5 1</property>
      <property name="transition.valign">top</property>
      <property name="transition.halign">left</property>
      <property name="shotcut:animIn">00:00:00.400000</property>
      <property name="shotcut:animOut">00:00:00.000</property>
      <property name="transition.threads">0</property>
    </filter>
    <filter id="filter123" in="00:02:05.520000" out="00:02:08.880000">
      <property name="window">75</property>
      <property name="max_gain">20dB</property>
      <property name="level">0</property>
      <property name="mlt_service">volume</property>
      <property name="disable">1</property>
    </filter>
  </producer>
  <producer id="producer68" in="00:00:00.000" out="00:03:27.800" title="Anonymous Submission">
    <property name="length">00:03:27:21</property>
    <property name="eof">pause</property>
    <property name="resource">../../006 - Videos format youtube/Clarinettes/Nelly_clarinette_totoro.mp4</property>
    <property name="audio_index">1</property>
    <property name="video_index">0</property>
    <property name="mute_on_pause">0</property>
    <property name="mlt_service">avformat-novalidate</property>
    <property name="seekable">1</property>
    <property name="aspect_ratio">1</property>
    <property name="creation_time">2020-04-05T13:37:57</property>
    <property name="shotcut:hash">ce64ff05cbaafa4ab64d61c9e57002dd</property>
    <property name="ignore_points">0</property>
    <property name="shotcut:caption">Nelly_clarinette_totoro.mp4</property>
    <property name="shotcut:skipConvert">1</property>
    <property name="global_feed">1</property>
    <property name="xml">was here</property>
    <filter id="filter124" in="00:02:08.920000" out="00:02:12.320000">
      <property name="background">colour:0</property>
      <property name="mlt_service">affine</property>
      <property name="shotcut:filter">affineSizePosition</property>
      <property name="transition.fill">1</property>
      <property name="transition.distort">0</property>
      <property name="transition.rect">00:00:00.000000=951.0 537.0 4.0 2.0 1;00:00:00.360000=499.0 259.0 167.0 94.0 1</property>
      <property name="transition.valign">top</property>
      <property name="transition.halign">left</property>
      <property name="shotcut:animIn">00:00:00.400000</property>
      <property name="shotcut:animOut">00:00:00.000</property>
      <property name="transition.threads">0</property>
    </filter>
    <filter id="filter125" in="00:02:08.920000" out="00:02:12.320000">
      <property name="window">75</property>
      <property name="max_gain">20dB</property>
      <property name="level">0</property>
      <property name="mlt_service">volume</property>
      <property name="disable">1</property>
    </filter>
  </producer>
  <producer id="producer69" in="00:00:00.000" out="00:03:27.800" title="Anonymous Submission">
    <property name="length">00:03:27:21</property>
    <property name="eof">pause</property>
    <property name="resource">../../006 - Videos format youtube/Clarinettes/Nelly_clarinette_totoro.mp4</property>
    <property name="audio_index">1</property>
    <property name="video_index">0</property>
    <property name="mute_on_pause">0</property>
    <property name="mlt_service">avformat-novalidate</property>
    <property name="seekable">1</property>
    <property name="aspect_ratio">1</property>
    <property name="creation_time">2020-04-05T13:37:57</property>
    <property name="shotcut:hash">ce64ff05cbaafa4ab64d61c9e57002dd</property>
    <property name="ignore_points">0</property>
    <property name="shotcut:caption">Nelly_clarinette_totoro.mp4</property>
    <property name="shotcut:skipConvert">1</property>
    <property name="global_feed">1</property>
    <property name="xml">was here</property>
    <filter id="filter126" in="00:02:12.360000" out="00:02:15.720000">
      <property name="background">colour:0</property>
      <property name="mlt_service">affine</property>
      <property name="shotcut:filter">affineSizePosition</property>
      <property name="transition.fill">1</property>
      <property name="transition.distort">0</property>
      <property name="transition.rect">00:00:00.000000=509.0 264.5 158.0 88.5 1;00:00:00.360000=1034.0 509.5 119.0 67.5 1</property>
      <property name="transition.valign">top</property>
      <property name="transition.halign">left</property>
      <property name="shotcut:animIn">00:00:00.400000</property>
      <property name="shotcut:animOut">00:00:00.000</property>
      <property name="transition.threads">0</property>
    </filter>
    <filter id="filter127" in="00:02:12.360000" out="00:02:15.720000">
      <property name="window">75</property>
      <property name="max_gain">20dB</property>
      <property name="level">0</property>
      <property name="mlt_service">volume</property>
      <property name="disable">1</property>
    </filter>
  </producer>
  <producer id="producer70" in="00:00:00.000" out="00:03:27.800" title="Anonymous Submission">
    <property name="length">00:03:27:21</property>
    <property name="eof">pause</property>
    <property name="resource">../../006 - Videos format youtube/Clarinettes/Nelly_clarinette_totoro.mp4</property>
    <property name="audio_index">1</property>
    <property name="video_index">0</property>
    <property name="mute_on_pause">0</property>
    <property name="mlt_service">avformat-novalidate</property>
    <property name="seekable">1</property>
    <property name="aspect_ratio">1</property>
    <property name="creation_time">2020-04-05T13:37:57</property>
    <property name="shotcut:hash">ce64ff05cbaafa4ab64d61c9e57002dd</property>
    <property name="ignore_points">0</property>
    <property name="shotcut:caption">Nelly_clarinette_totoro.mp4</property>
    <property name="shotcut:skipConvert">1</property>
    <property name="global_feed">1</property>
    <property name="xml">was here</property>
    <filter id="filter128" in="00:02:15.760000" out="00:02:19.160000">
      <property name="background">colour:0</property>
      <property name="mlt_service">affine</property>
      <property name="shotcut:filter">affineSizePosition</property>
      <property name="transition.fill">1</property>
      <property name="transition.distort">0</property>
      <property name="transition.rect">714.0 221.5 119.0 67.5 1</property>
      <property name="transition.valign">top</property>
      <property name="transition.halign">left</property>
      <property name="shotcut:animIn">00:00:00.400000</property>
      <property name="shotcut:animOut">00:00:00.000</property>
      <property name="transition.threads">0</property>
    </filter>
    <filter id="filter129" in="00:02:15.760000" out="00:02:19.160000">
      <property name="window">75</property>
      <property name="max_gain">20dB</property>
      <property name="level">0</property>
      <property name="mlt_service">volume</property>
      <property name="disable">1</property>
    </filter>
  </producer>
  <producer id="producer71" in="00:00:00.000" out="00:03:27.800" title="Anonymous Submission">
    <property name="length">00:03:27:21</property>
    <property name="eof">pause</property>
    <property name="resource">../../006 - Videos format youtube/Clarinettes/Nelly_clarinette_totoro.mp4</property>
    <property name="audio_index">1</property>
    <property name="video_index">0</property>
    <property name="mute_on_pause">0</property>
    <property name="mlt_service">avformat-novalidate</property>
    <property name="seekable">1</property>
    <property name="aspect_ratio">1</property>
    <property name="creation_time">2020-04-05T13:37:57</property>
    <property name="shotcut:hash">ce64ff05cbaafa4ab64d61c9e57002dd</property>
    <property name="ignore_points">0</property>
    <property name="shotcut:caption">Nelly_clarinette_totoro.mp4</property>
    <property name="shotcut:skipConvert">1</property>
    <property name="global_feed">1</property>
    <property name="xml">was here</property>
    <filter id="filter130" in="00:02:19.200000" out="00:02:22.560000">
      <property name="background">colour:0</property>
      <property name="mlt_service">affine</property>
      <property name="shotcut:filter">affineSizePosition</property>
      <property name="transition.fill">1</property>
      <property name="transition.distort">0</property>
      <property name="transition.rect">00:00:00.000000=724.0 226.5 110.0 61.5 1;00:00:00.360000=714.0 653.5 119.0 67.5 1</property>
      <property name="transition.valign">top</property>
      <property name="transition.halign">left</property>
      <property name="shotcut:animIn">00:00:00.400000</property>
      <property name="shotcut:animOut">00:00:00.000</property>
      <property name="transition.threads">0</property>
    </filter>
    <filter id="filter131" in="00:02:19.200000" out="00:02:22.560000">
      <property name="window">75</property>
      <property name="max_gain">20dB</property>
      <property name="level">0</property>
      <property name="mlt_service">volume</property>
      <property name="disable">1</property>
    </filter>
  </producer>
  <producer id="producer72" in="00:00:00.000" out="00:03:27.800" title="Anonymous Submission">
    <property name="length">00:03:27:21</property>
    <property name="eof">pause</property>
    <property name="resource">../../006 - Videos format youtube/Clarinettes/Nelly_clarinette_totoro.mp4</property>
    <property name="audio_index">1</property>
    <property name="video_index">0</property>
    <property name="mute_on_pause">0</property>
    <property name="mlt_service">avformat-novalidate</property>
    <property name="seekable">1</property>
    <property name="aspect_ratio">1</property>
    <property name="creation_time">2020-04-05T13:37:57</property>
    <property name="shotcut:hash">ce64ff05cbaafa4ab64d61c9e57002dd</property>
    <property name="ignore_points">0</property>
    <property name="shotcut:caption">Nelly_clarinette_totoro.mp4</property>
    <property name="shotcut:skipConvert">1</property>
    <property name="global_feed">1</property>
    <property name="xml">was here</property>
    <filter id="filter132" in="00:02:22.600000" out="00:02:28.880000">
      <property name="background">colour:0</property>
      <property name="mlt_service">affine</property>
      <property name="shotcut:filter">affineSizePosition</property>
      <property name="transition.fill">1</property>
      <property name="transition.distort">0</property>
      <property name="transition.rect">00:00:00.000000=724.0 658.5 110.0 61.5 1;00:00:00.360000=586.0 509.5 119.0 67.5 1</property>
      <property name="transition.valign">top</property>
      <property name="transition.halign">left</property>
      <property name="shotcut:animIn">00:00:00.400000</property>
      <property name="shotcut:animOut">00:00:00.000</property>
      <property name="transition.threads">0</property>
    </filter>
    <filter id="filter133" in="00:02:22.600000" out="00:02:28.880000">
      <property name="window">75</property>
      <property name="max_gain">20dB</property>
      <property name="level">0</property>
      <property name="mlt_service">volume</property>
      <property name="disable">1</property>
    </filter>
  </producer>
  <playlist id="playlist11">
    <property name="shotcut:video">1</property>
    <property name="shotcut:name">Clarinette_Nelly</property>
    <property name="shotcut:lock">1</property>
    <blank length="00:01:55.000000" />
    <entry in="00:02:01.920000" out="00:02:05.480000" producer="producer66" />
    <entry in="00:02:05.520000" out="00:02:08.880000" producer="producer67" />
    <entry in="00:02:08.920000" out="00:02:12.320000" producer="producer68" />
    <entry in="00:02:12.360000" out="00:02:15.720000" producer="producer69" />
    <entry in="00:02:15.760000" out="00:02:19.160000" producer="producer70" />
    <entry in="00:02:19.200000" out="00:02:22.560000" producer="producer71" />
    <entry in="00:02:22.600000" out="00:02:28.880000" producer="producer72" />
    <filter id="filter134" out="00:03:23.320">
      <property name="window">75</property>
      <property name="max_gain">20dB</property>
      <property name="level">-11</property>
      <property name="mlt_service">volume</property>
    </filter>
  </playlist>
  <producer id="producer73" in="00:00:00.000" out="00:03:16.440" title="Anonymous Submission">
    <property name="length">00:03:16:12</property>
    <property name="eof">pause</property>
    <property name="resource">../../006 - Videos format youtube/Clarinettes/Natacha_clarinette_totoro.mp4</property>
    <property name="audio_index">1</property>
    <property name="video_index">0</property>
    <property name="mute_on_pause">0</property>
    <property name="mlt_service">avformat-novalidate</property>
    <property name="seekable">1</property>
    <property name="aspect_ratio">1</property>
    <property name="creation_time">2020-04-09T18:24:43</property>
    <property name="shotcut:hash">ef0c345cac52960b965edf602ef26da9</property>
    <property name="ignore_points">0</property>
    <property name="shotcut:caption">Natacha_clarinette_totoro.mp4</property>
    <property name="shotcut:skipConvert">1</property>
    <property name="global_feed">1</property>
    <property name="xml">was here</property>
    <filter id="filter135" in="00:01:51.920000" out="00:01:55.480000">
      <property name="background">colour:0</property>
      <property name="mlt_service">affine</property>
      <property name="shotcut:filter">affineSizePosition</property>
      <property name="transition.fill">1</property>
      <property name="transition.distort">0</property>
      <property name="transition.rect">-1910.0 -1074.5 -9.0 -4.5 1</property>
      <property name="transition.valign">top</property>
      <property name="transition.halign">left</property>
      <property name="shotcut:animIn">00:00:00.000</property>
      <property name="shotcut:animOut">00:00:00.000</property>
      <property name="transition.threads">0</property>
    </filter>
    <filter id="filter136" in="00:01:51.920000" out="00:01:55.480000">
      <property name="window">75</property>
      <property name="max_gain">20dB</property>
      <property name="mlt_service">volume</property>
      <property name="shotcut:filter">muteVolume</property>
      <property name="gain">0</property>
    </filter>
  </producer>
  <producer id="producer74" in="00:00:00.000" out="00:03:16.440" title="Anonymous Submission">
    <property name="length">00:03:16:12</property>
    <property name="eof">pause</property>
    <property name="resource">../../006 - Videos format youtube/Clarinettes/Natacha_clarinette_totoro.mp4</property>
    <property name="audio_index">1</property>
    <property name="video_index">0</property>
    <property name="mute_on_pause">0</property>
    <property name="mlt_service">avformat-novalidate</property>
    <property name="seekable">1</property>
    <property name="aspect_ratio">1</property>
    <property name="creation_time">2020-04-09T18:24:43</property>
    <property name="shotcut:hash">ef0c345cac52960b965edf602ef26da9</property>
    <property name="ignore_points">0</property>
    <property name="shotcut:caption">Natacha_clarinette_totoro.mp4</property>
    <property name="shotcut:skipConvert">1</property>
    <property name="global_feed">1</property>
    <property name="xml">was here</property>
    <filter id="filter137" in="00:01:55.520000" out="00:01:58.880000">
      <property name="background">colour:0</property>
      <property name="mlt_service">affine</property>
      <property name="shotcut:filter">affineSizePosition</property>
      <property name="transition.fill">1</property>
      <property name="transition.distort">0</property>
      <property name="transition.rect">00:00:00.000000=-1900.0 -1068.5 -18.0 -9.5 1;00:00:00.360000=777.0 293.5 119.0 67.5 1</property>
      <property name="transition.valign">top</property>
      <property name="transition.halign">left</property>
      <property name="shotcut:animIn">00:00:00.400000</property>
      <property name="shotcut:animOut">00:00:00.000</property>
      <property name="transition.threads">0</property>
    </filter>
    <filter id="filter138" in="00:01:55.520000" out="00:01:58.880000">
      <property name="window">75</property>
      <property name="max_gain">20dB</property>
      <property name="mlt_service">volume</property>
      <property name="shotcut:filter">muteVolume</property>
      <property name="gain">0</property>
    </filter>
  </producer>
  <producer id="producer75" in="00:00:00.000" out="00:03:16.440" title="Anonymous Submission">
    <property name="length">00:03:16:12</property>
    <property name="eof">pause</property>
    <property name="resource">../../006 - Videos format youtube/Clarinettes/Natacha_clarinette_totoro.mp4</property>
    <property name="audio_index">1</property>
    <property name="video_index">0</property>
    <property name="mute_on_pause">0</property>
    <property name="mlt_service">avformat-novalidate</property>
    <property name="seekable">1</property>
    <property name="aspect_ratio">1</property>
    <property name="creation_time">2020-04-09T18:24:43</property>
    <property name="shotcut:hash">ef0c345cac52960b965edf602ef26da9</property>
    <property name="ignore_points">0</property>
    <property name="shotcut:caption">Natacha_clarinette_totoro.mp4</property>
    <property name="shotcut:skipConvert">1</property>
    <property name="global_feed">1</property>
    <property name="xml">was here</property>
    <filter id="filter139" in="00:01:58.920000" out="00:02:02.320000">
      <property name="background">colour:0</property>
      <property name="mlt_service">affine</property>
      <property name="shotcut:filter">affineSizePosition</property>
      <property name="transition.fill">1</property>
      <property name="transition.distort">0</property>
      <property name="transition.rect">00:00:00.000000=958.0 545.0 4.0 2.0 1;00:00:00.360000=915.0 727.0 167.0 94.0 1</property>
      <property name="transition.valign">top</property>
      <property name="transition.halign">left</property>
      <property name="shotcut:animIn">00:00:00.400000</property>
      <property name="shotcut:animOut">00:00:00.000</property>
      <property name="transition.threads">0</property>
    </filter>
    <filter id="filter140" in="00:01:58.920000" out="00:02:02.320000">
      <property name="window">75</property>
      <property name="max_gain">20dB</property>
      <property name="mlt_service">volume</property>
      <property name="shotcut:filter">muteVolume</property>
      <property name="gain">0</property>
    </filter>
  </producer>
  <producer id="producer76" in="00:00:00.000" out="00:03:16.440" title="Anonymous Submission">
    <property name="length">00:03:16:12</property>
    <property name="eof">pause</property>
    <property name="resource">../../006 - Videos format youtube/Clarinettes/Natacha_clarinette_totoro.mp4</property>
    <property name="audio_index">1</property>
    <property name="video_index">0</property>
    <property name="mute_on_pause">0</property>
    <property name="mlt_service">avformat-novalidate</property>
    <property name="seekable">1</property>
    <property name="aspect_ratio">1</property>
    <property name="creation_time">2020-04-09T18:24:43</property>
    <property name="shotcut:hash">ef0c345cac52960b965edf602ef26da9</property>
    <property name="ignore_points">0</property>
    <property name="shotcut:caption">Natacha_clarinette_totoro.mp4</property>
    <property name="shotcut:skipConvert">1</property>
    <property name="global_feed">1</property>
    <property name="xml">was here</property>
    <filter id="filter141" in="00:02:02.360000" out="00:02:05.720000">
      <property name="background">colour:0</property>
      <property name="mlt_service">affine</property>
      <property name="shotcut:filter">affineSizePosition</property>
      <property name="transition.fill">1</property>
      <property name="transition.distort">0</property>
      <property name="transition.rect">-1910.0 -1074.5 -9.0 -4.5 1</property>
      <property name="transition.valign">top</property>
      <property name="transition.halign">left</property>
      <property name="shotcut:animIn">00:00:00.400000</property>
      <property name="shotcut:animOut">00:00:00.000</property>
      <property name="transition.threads">0</property>
    </filter>
    <filter id="filter142" in="00:02:02.360000" out="00:02:05.720000">
      <property name="window">75</property>
      <property name="max_gain">20dB</property>
      <property name="mlt_service">volume</property>
      <property name="shotcut:filter">muteVolume</property>
      <property name="gain">0</property>
    </filter>
  </producer>
  <producer id="producer77" in="00:00:00.000" out="00:03:16.440" title="Anonymous Submission">
    <property name="length">00:03:16:12</property>
    <property name="eof">pause</property>
    <property name="resource">../../006 - Videos format youtube/Clarinettes/Natacha_clarinette_totoro.mp4</property>
    <property name="audio_index">1</property>
    <property name="video_index">0</property>
    <property name="mute_on_pause">0</property>
    <property name="mlt_service">avformat-novalidate</property>
    <property name="seekable">1</property>
    <property name="aspect_ratio">1</property>
    <property name="creation_time">2020-04-09T18:24:43</property>
    <property name="shotcut:hash">ef0c345cac52960b965edf602ef26da9</property>
    <property name="ignore_points">0</property>
    <property name="shotcut:caption">Natacha_clarinette_totoro.mp4</property>
    <property name="shotcut:skipConvert">1</property>
    <property name="global_feed">1</property>
    <property name="xml">was here</property>
    <filter id="filter143" in="00:02:05.760000" out="00:02:09.160000">
      <property name="background">colour:0</property>
      <property name="mlt_service">affine</property>
      <property name="shotcut:filter">affineSizePosition</property>
      <property name="transition.fill">1</property>
      <property name="transition.distort">0</property>
      <property name="transition.rect">1098.0 221.5 119.0 67.5 1</property>
      <property name="transition.valign">top</property>
      <property name="transition.halign">left</property>
      <property name="shotcut:animIn">00:00:00.400000</property>
      <property name="shotcut:animOut">00:00:00.000</property>
      <property name="transition.threads">0</property>
    </filter>
    <filter id="filter144" in="00:02:05.760000" out="00:02:09.160000">
      <property name="window">75</property>
      <property name="max_gain">20dB</property>
      <property name="mlt_service">volume</property>
      <property name="shotcut:filter">muteVolume</property>
      <property name="gain">0</property>
    </filter>
  </producer>
  <producer id="producer78" in="00:00:00.000" out="00:03:16.440" title="Anonymous Submission">
    <property name="length">00:03:16:12</property>
    <property name="eof">pause</property>
    <property name="resource">../../006 - Videos format youtube/Clarinettes/Natacha_clarinette_totoro.mp4</property>
    <property name="audio_index">1</property>
    <property name="video_index">0</property>
    <property name="mute_on_pause">0</property>
    <property name="mlt_service">avformat-novalidate</property>
    <property name="seekable">1</property>
    <property name="aspect_ratio">1</property>
    <property name="creation_time">2020-04-09T18:24:43</property>
    <property name="shotcut:hash">ef0c345cac52960b965edf602ef26da9</property>
    <property name="ignore_points">0</property>
    <property name="shotcut:caption">Natacha_clarinette_totoro.mp4</property>
    <property name="shotcut:skipConvert">1</property>
    <property name="global_feed">1</property>
    <property name="xml">was here</property>
    <filter id="filter145" in="00:02:09.200000" out="00:02:12.560000">
      <property name="background">colour:0</property>
      <property name="mlt_service">affine</property>
      <property name="shotcut:filter">affineSizePosition</property>
      <property name="transition.fill">1</property>
      <property name="transition.distort">0</property>
      <property name="transition.rect">00:00:00.000000=1108.0 226.5 110.0 61.5 1;00:00:00.360000=1098.0 725.5 119.0 67.5 1</property>
      <property name="transition.valign">top</property>
      <property name="transition.halign">left</property>
      <property name="shotcut:animIn">00:00:00.400000</property>
      <property name="shotcut:animOut">00:00:00.000</property>
      <property name="transition.threads">0</property>
    </filter>
    <filter id="filter146" in="00:02:09.200000" out="00:02:12.560000">
      <property name="window">75</property>
      <property name="max_gain">20dB</property>
      <property name="mlt_service">volume</property>
      <property name="shotcut:filter">muteVolume</property>
      <property name="gain">0</property>
    </filter>
  </producer>
  <producer id="producer79" in="00:00:00.000" out="00:03:16.440" title="Anonymous Submission">
    <property name="length">00:03:16:12</property>
    <property name="eof">pause</property>
    <property name="resource">../../006 - Videos format youtube/Clarinettes/Natacha_clarinette_totoro.mp4</property>
    <property name="audio_index">1</property>
    <property name="video_index">0</property>
    <property name="mute_on_pause">0</property>
    <property name="mlt_service">avformat-novalidate</property>
    <property name="seekable">1</property>
    <property name="aspect_ratio">1</property>
    <property name="creation_time">2020-04-09T18:24:43</property>
    <property name="shotcut:hash">ef0c345cac52960b965edf602ef26da9</property>
    <property name="ignore_points">0</property>
    <property name="shotcut:caption">Natacha_clarinette_totoro.mp4</property>
    <property name="shotcut:skipConvert">1</property>
    <property name="global_feed">1</property>
    <property name="xml">was here</property>
    <filter id="filter147" in="00:02:12.600000" out="00:02:18.880000">
      <property name="background">colour:0</property>
      <property name="mlt_service">affine</property>
      <property name="shotcut:filter">affineSizePosition</property>
      <property name="transition.fill">1</property>
      <property name="transition.distort">0</property>
      <property name="transition.rect">00:00:00.000000=1108.0 730.5 110.0 61.5 1;00:00:00.360000=1226.0 221.5 119.0 67.5 1</property>
      <property name="transition.valign">top</property>
      <property name="transition.halign">left</property>
      <property name="shotcut:animIn">00:00:00.400000</property>
      <property name="shotcut:animOut">00:00:00.000</property>
      <property name="transition.threads">0</property>
    </filter>
    <filter id="filter148" in="00:02:12.600000" out="00:02:18.880000">
      <property name="window">75</property>
      <property name="max_gain">20dB</property>
      <property name="mlt_service">volume</property>
      <property name="shotcut:filter">muteVolume</property>
      <property name="gain">0</property>
    </filter>
  </producer>
  <playlist id="playlist12">
    <property name="shotcut:video">1</property>
    <property name="shotcut:name">natacha</property>
    <property name="shotcut:lock">1</property>
    <blank length="00:01:55.000000" />
    <entry in="00:01:51.920000" out="00:01:55.480000" producer="producer73" />
    <entry in="00:01:55.520000" out="00:01:58.880000" producer="producer74" />
    <entry in="00:01:58.920000" out="00:02:02.320000" producer="producer75" />
    <entry in="00:02:02.360000" out="00:02:05.720000" producer="producer76" />
    <entry in="00:02:05.760000" out="00:02:09.160000" producer="producer77" />
    <entry in="00:02:09.200000" out="00:02:12.560000" producer="producer78" />
    <entry in="00:02:12.600000" out="00:02:18.880000" producer="producer79" />
    <filter id="filter149" out="00:03:23.320">
      <property name="window">75</property>
      <property name="max_gain">20dB</property>
      <property name="level">-11</property>
      <property name="mlt_service">volume</property>
    </filter>
  </playlist>
  <producer id="producer80" in="00:00:00.000" out="00:03:22.120" title="Anonymous Submission">
    <property name="length">00:03:22:04</property>
    <property name="eof">pause</property>
    <property name="resource">../../006 - Videos format youtube/Clarinettes/Pierre_clarinette_totoro_recadre.mp4</property>
    <property name="audio_index">1</property>
    <property name="video_index">0</property>
    <property name="mute_on_pause">0</property>
    <property name="mlt_service">avformat-novalidate</property>
    <property name="seekable">1</property>
    <property name="aspect_ratio">1</property>
    <property name="creation_time">2020-04-12T15:55:36</property>
    <property name="shotcut:hash">e4c0c36f4b8e968ab780c99675fecd9b</property>
    <property name="ignore_points">0</property>
    <property name="shotcut:caption">Pierre_clarinette_totoro_recadre.mp4</property>
    <property name="shotcut:skipConvert">1</property>
    <property name="global_feed">1</property>
    <property name="xml">was here</property>
    <filter id="filter150" in="00:01:55.000000" out="00:01:58.560000">
      <property name="background">colour:0</property>
      <property name="mlt_service">affine</property>
      <property name="shotcut:filter">affineSizePosition</property>
      <property name="transition.fill">1</property>
      <property name="transition.distort">0</property>
      <property name="transition.rect">-1910.0 -1074.5 -9.0 -4.5 1</property>
      <property name="transition.valign">top</property>
      <property name="transition.halign">left</property>
      <property name="shotcut:animIn">00:00:00.000</property>
      <property name="shotcut:animOut">00:00:00.000</property>
      <property name="transition.threads">0</property>
    </filter>
  </producer>
  <producer id="producer81" in="00:00:00.000" out="00:03:22.120" title="Anonymous Submission">
    <property name="length">00:03:22:04</property>
    <property name="eof">pause</property>
    <property name="resource">../../006 - Videos format youtube/Clarinettes/Pierre_clarinette_totoro_recadre.mp4</property>
    <property name="audio_index">1</property>
    <property name="video_index">0</property>
    <property name="mute_on_pause">0</property>
    <property name="mlt_service">avformat-novalidate</property>
    <property name="seekable">1</property>
    <property name="aspect_ratio">1</property>
    <property name="creation_time">2020-04-12T15:55:36</property>
    <property name="shotcut:hash">e4c0c36f4b8e968ab780c99675fecd9b</property>
    <property name="ignore_points">0</property>
    <property name="shotcut:caption">Pierre_clarinette_totoro_recadre.mp4</property>
    <property name="shotcut:skipConvert">1</property>
    <property name="global_feed">1</property>
    <property name="xml">was here</property>
    <filter id="filter151" in="00:01:58.600000" out="00:02:01.960000">
      <property name="background">colour:0</property>
      <property name="mlt_service">affine</property>
      <property name="shotcut:filter">affineSizePosition</property>
      <property name="transition.fill">1</property>
      <property name="transition.distort">0</property>
      <property name="transition.rect">00:00:00.000000=-1900.0 -1068.5 -18.0 -9.5 1;00:00:00.360000=906.0 293.5 119.0 67.5 1</property>
      <property name="transition.valign">top</property>
      <property name="transition.halign">left</property>
      <property name="shotcut:animIn">00:00:00.400000</property>
      <property name="shotcut:animOut">00:00:00.000</property>
      <property name="transition.threads">0</property>
    </filter>
  </producer>
  <producer id="producer82" in="00:00:00.000" out="00:03:22.120" title="Anonymous Submission">
    <property name="length">00:03:22:04</property>
    <property name="eof">pause</property>
    <property name="resource">../../006 - Videos format youtube/Clarinettes/Pierre_clarinette_totoro_recadre.mp4</property>
    <property name="audio_index">1</property>
    <property name="video_index">0</property>
    <property name="mute_on_pause">0</property>
    <property name="mlt_service">avformat-novalidate</property>
    <property name="seekable">1</property>
    <property name="aspect_ratio">1</property>
    <property name="creation_time">2020-04-12T15:55:36</property>
    <property name="shotcut:hash">e4c0c36f4b8e968ab780c99675fecd9b</property>
    <property name="ignore_points">0</property>
    <property name="shotcut:caption">Pierre_clarinette_totoro_recadre.mp4</property>
    <property name="shotcut:skipConvert">1</property>
    <property name="global_feed">1</property>
    <property name="xml">was here</property>
    <filter id="filter152" in="00:02:02.000000" out="00:02:05.400000">
      <property name="background">colour:0</property>
      <property name="mlt_service">affine</property>
      <property name="shotcut:filter">affineSizePosition</property>
      <property name="transition.fill">1</property>
      <property name="transition.distort">0</property>
      <property name="transition.rect">00:00:00.000000=953.0 542.0 4.0 2.0 1;00:00:00.360000=582.0 540.0 167.0 94.0 1</property>
      <property name="transition.valign">top</property>
      <property name="transition.halign">left</property>
      <property name="shotcut:animIn">00:00:00.400000</property>
      <property name="shotcut:animOut">00:00:00.000</property>
      <property name="transition.threads">0</property>
    </filter>
  </producer>
  <producer id="producer83" in="00:00:00.000" out="00:03:22.120" title="Anonymous Submission">
    <property name="length">00:03:22:04</property>
    <property name="eof">pause</property>
    <property name="resource">../../006 - Videos format youtube/Clarinettes/Pierre_clarinette_totoro_recadre.mp4</property>
    <property name="audio_index">1</property>
    <property name="video_index">0</property>
    <property name="mute_on_pause">0</property>
    <property name="mlt_service">avformat-novalidate</property>
    <property name="seekable">1</property>
    <property name="aspect_ratio">1</property>
    <property name="creation_time">2020-04-12T15:55:36</property>
    <property name="shotcut:hash">e4c0c36f4b8e968ab780c99675fecd9b</property>
    <property name="ignore_points">0</property>
    <property name="shotcut:caption">Pierre_clarinette_totoro_recadre.mp4</property>
    <property name="shotcut:skipConvert">1</property>
    <property name="global_feed">1</property>
    <property name="xml">was here</property>
    <filter id="filter153" in="00:02:05.440000" out="00:02:08.800000">
      <property name="background">colour:0</property>
      <property name="mlt_service">affine</property>
      <property name="shotcut:filter">affineSizePosition</property>
      <property name="transition.fill">1</property>
      <property name="transition.distort">0</property>
      <property name="transition.rect">00:00:00.000000=592.0 545.5 158.0 88.5 1;00:00:00.360000=650.0 509.5 119.0 67.5 1</property>
      <property name="transition.valign">top</property>
      <property name="transition.halign">left</property>
      <property name="shotcut:animIn">00:00:00.400000</property>
      <property name="shotcut:animOut">00:00:00.000</property>
      <property name="transition.threads">0</property>
    </filter>
  </producer>
  <producer id="producer84" in="00:00:00.000" out="00:03:22.120" title="Anonymous Submission">
    <property name="length">00:03:22:04</property>
    <property name="eof">pause</property>
    <property name="resource">../../006 - Videos format youtube/Clarinettes/Pierre_clarinette_totoro_recadre.mp4</property>
    <property name="audio_index">1</property>
    <property name="video_index">0</property>
    <property name="mute_on_pause">0</property>
    <property name="mlt_service">avformat-novalidate</property>
    <property name="seekable">1</property>
    <property name="aspect_ratio">1</property>
    <property name="creation_time">2020-04-12T15:55:36</property>
    <property name="shotcut:hash">e4c0c36f4b8e968ab780c99675fecd9b</property>
    <property name="ignore_points">0</property>
    <property name="shotcut:caption">Pierre_clarinette_totoro_recadre.mp4</property>
    <property name="shotcut:skipConvert">1</property>
    <property name="global_feed">1</property>
    <property name="xml">was here</property>
    <filter id="filter154" in="00:02:08.840000" out="00:02:12.240000">
      <property name="background">colour:0</property>
      <property name="mlt_service">affine</property>
      <property name="shotcut:filter">affineSizePosition</property>
      <property name="transition.fill">1</property>
      <property name="transition.distort">0</property>
      <property name="transition.rect">00:00:00.000000=660.0 513.5 110.0 61.5 1;00:00:00.360000=1290.0 221.5 119.0 67.5 1</property>
      <property name="transition.valign">top</property>
      <property name="transition.halign">left</property>
      <property name="shotcut:animIn">00:00:00.400000</property>
      <property name="shotcut:animOut">00:00:00.000</property>
      <property name="transition.threads">0</property>
    </filter>
  </producer>
  <producer id="producer85" in="00:00:00.000" out="00:03:22.120" title="Anonymous Submission">
    <property name="length">00:03:22:04</property>
    <property name="eof">pause</property>
    <property name="resource">../../006 - Videos format youtube/Clarinettes/Pierre_clarinette_totoro_recadre.mp4</property>
    <property name="audio_index">1</property>
    <property name="video_index">0</property>
    <property name="mute_on_pause">0</property>
    <property name="mlt_service">avformat-novalidate</property>
    <property name="seekable">1</property>
    <property name="aspect_ratio">1</property>
    <property name="creation_time">2020-04-12T15:55:36</property>
    <property name="shotcut:hash">e4c0c36f4b8e968ab780c99675fecd9b</property>
    <property name="ignore_points">0</property>
    <property name="shotcut:caption">Pierre_clarinette_totoro_recadre.mp4</property>
    <property name="shotcut:skipConvert">1</property>
    <property name="global_feed">1</property>
    <property name="xml">was here</property>
    <filter id="filter155" in="00:02:12.280000" out="00:02:15.640000">
      <property name="background">colour:0</property>
      <property name="mlt_service">affine</property>
      <property name="shotcut:filter">affineSizePosition</property>
      <property name="transition.fill">1</property>
      <property name="transition.distort">0</property>
      <property name="transition.rect">00:00:00.000000=1300.0 226.5 110.0 61.5 1;00:00:00.360000=1098.0 293.5 119.0 67.5 1</property>
      <property name="transition.valign">top</property>
      <property name="transition.halign">left</property>
      <property name="shotcut:animIn">00:00:00.400000</property>
      <property name="shotcut:animOut">00:00:00.000</property>
      <property name="transition.threads">0</property>
    </filter>
  </producer>
  <producer id="producer86" in="00:00:00.000" out="00:03:22.120" title="Anonymous Submission">
    <property name="length">00:03:22:04</property>
    <property name="eof">pause</property>
    <property name="resource">../../006 - Videos format youtube/Clarinettes/Pierre_clarinette_totoro_recadre.mp4</property>
    <property name="audio_index">1</property>
    <property name="video_index">0</property>
    <property name="mute_on_pause">0</property>
    <property name="mlt_service">avformat-novalidate</property>
    <property name="seekable">1</property>
    <property name="aspect_ratio">1</property>
    <property name="creation_time">2020-04-12T15:55:36</property>
    <property name="shotcut:hash">e4c0c36f4b8e968ab780c99675fecd9b</property>
    <property name="ignore_points">0</property>
    <property name="shotcut:caption">Pierre_clarinette_totoro_recadre.mp4</property>
    <property name="shotcut:skipConvert">1</property>
    <property name="global_feed">1</property>
    <property name="xml">was here</property>
    <filter id="filter156" in="00:02:15.680000" out="00:02:21.960000">
      <property name="background">colour:0</property>
      <property name="mlt_service">affine</property>
      <property name="shotcut:filter">affineSizePosition</property>
      <property name="transition.fill">1</property>
      <property name="transition.distort">0</property>
      <property name="transition.rect">00:00:00.000000=1108.0 298.5 110.0 61.5 1;00:00:00.360000=586.0 653.5 119.0 67.5 1</property>
      <property name="transition.valign">top</property>
      <property name="transition.halign">left</property>
      <property name="shotcut:animIn">00:00:00.400000</property>
      <property name="shotcut:animOut">00:00:00.000</property>
      <property name="transition.threads">0</property>
    </filter>
  </producer>
  <playlist id="playlist13">
    <blank length="00:01:55.000000" /><property name="shotcut:video">1</property>
    <property name="shotcut:name">Pierre_clarinette_recadr&#233;</property>
    <property name="shotcut:lock">1</property>
    <entry in="00:01:55.000000" out="00:01:58.560000" producer="producer80" />
    <entry in="00:01:58.600000" out="00:02:01.960000" producer="producer81" />
    <entry in="00:02:02.000000" out="00:02:05.400000" producer="producer82" />
    <entry in="00:02:05.440000" out="00:02:08.800000" producer="producer83" />
    <entry in="00:02:08.840000" out="00:02:12.240000" producer="producer84" />
    <entry in="00:02:12.280000" out="00:02:15.640000" producer="producer85" />
    <entry in="00:02:15.680000" out="00:02:21.960000" producer="producer86" />
    <filter id="filter157" out="00:03:23.320">
      <property name="window">75</property>
      <property name="max_gain">20dB</property>
      <property name="level">-10</property>
      <property name="mlt_service">volume</property>
    </filter>
  </playlist>
  <producer id="producer87" in="00:00:00.000" out="00:03:17.240" title="Anonymous Submission">
    <property name="length">00:03:17:07</property>
    <property name="eof">pause</property>
    <property name="resource">../../006 - Videos format youtube/Clarinettes/Ineke_clarinette_totoro.mp4</property>
    <property name="audio_index">1</property>
    <property name="video_index">0</property>
    <property name="mute_on_pause">0</property>
    <property name="mlt_service">avformat-novalidate</property>
    <property name="seekable">1</property>
    <property name="aspect_ratio">1</property>
    <property name="creation_time">2020-04-20T19:10:56</property>
    <property name="shotcut:hash">44edbdde4a7730436d308ed2f8de3797</property>
    <property name="ignore_points">0</property>
    <property name="shotcut:caption">Ineke_clarinette_totoro.mp4</property>
    <property name="shotcut:skipConvert">1</property>
    <property name="global_feed">1</property>
    <property name="xml">was here</property>
    <filter id="filter158" in="00:01:54.440000" out="00:01:58.000000">
      <property name="background">colour:0</property>
      <property name="mlt_service">affine</property>
      <property name="shotcut:filter">affineSizePosition</property>
      <property name="transition.fill">1</property>
      <property name="transition.distort">0</property>
      <property name="transition.rect">-1910.0 -1074.5 -9.0 -4.5 1</property>
      <property name="transition.valign">top</property>
      <property name="transition.halign">left</property>
      <property name="shotcut:animIn">00:00:00.000</property>
      <property name="shotcut:animOut">00:00:00.000</property>
      <property name="transition.threads">0</property>
    </filter>
    <filter id="filter159" in="00:01:54.440000" out="00:01:58.000000">
      <property name="window">75</property>
      <property name="max_gain">20dB</property>
      <property name="mlt_service">volume</property>
      <property name="shotcut:filter">muteVolume</property>
      <property name="gain">0</property>
    </filter>
  </producer>
  <producer id="producer88" in="00:00:00.000" out="00:03:17.240" title="Anonymous Submission">
    <property name="length">00:03:17:07</property>
    <property name="eof">pause</property>
    <property name="resource">../../006 - Videos format youtube/Clarinettes/Ineke_clarinette_totoro.mp4</property>
    <property name="audio_index">1</property>
    <property name="video_index">0</property>
    <property name="mute_on_pause">0</property>
    <property name="mlt_service">avformat-novalidate</property>
    <property name="seekable">1</property>
    <property name="aspect_ratio">1</property>
    <property name="creation_time">2020-04-20T19:10:56</property>
    <property name="shotcut:hash">44edbdde4a7730436d308ed2f8de3797</property>
    <property name="ignore_points">0</property>
    <property name="shotcut:caption">Ineke_clarinette_totoro.mp4</property>
    <property name="shotcut:skipConvert">1</property>
    <property name="global_feed">1</property>
    <property name="xml">was here</property>
    <filter id="filter160" in="00:01:58.040000" out="00:02:01.400000">
      <property name="background">colour:0</property>
      <property name="mlt_service">affine</property>
      <property name="shotcut:filter">affineSizePosition</property>
      <property name="transition.fill">1</property>
      <property name="transition.distort">0</property>
      <property name="transition.rect">00:00:00.000000=-1900.0 -1068.5 -18.0 -9.5 1;00:00:00.360000=777.0 365.5 119.0 67.5 1</property>
      <property name="transition.valign">top</property>
      <property name="transition.halign">left</property>
      <property name="shotcut:animIn">00:00:00.400000</property>
      <property name="shotcut:animOut">00:00:00.000</property>
      <property name="transition.threads">0</property>
    </filter>
    <filter id="filter161" in="00:01:58.040000" out="00:02:01.400000">
      <property name="window">75</property>
      <property name="max_gain">20dB</property>
      <property name="mlt_service">volume</property>
      <property name="shotcut:filter">muteVolume</property>
      <property name="gain">0</property>
    </filter>
  </producer>
  <producer id="producer89" in="00:00:00.000" out="00:03:17.240" title="Anonymous Submission">
    <property name="length">00:03:17:07</property>
    <property name="eof">pause</property>
    <property name="resource">../../006 - Videos format youtube/Clarinettes/Ineke_clarinette_totoro.mp4</property>
    <property name="audio_index">1</property>
    <property name="video_index">0</property>
    <property name="mute_on_pause">0</property>
    <property name="mlt_service">avformat-novalidate</property>
    <property name="seekable">1</property>
    <property name="aspect_ratio">1</property>
    <property name="creation_time">2020-04-20T19:10:56</property>
    <property name="shotcut:hash">44edbdde4a7730436d308ed2f8de3797</property>
    <property name="ignore_points">0</property>
    <property name="shotcut:caption">Ineke_clarinette_totoro.mp4</property>
    <property name="shotcut:skipConvert">1</property>
    <property name="global_feed">1</property>
    <property name="xml">was here</property>
    <filter id="filter162" in="00:02:01.440000" out="00:02:04.840000">
      <property name="background">colour:0</property>
      <property name="mlt_service">affine</property>
      <property name="shotcut:filter">affineSizePosition</property>
      <property name="transition.fill">1</property>
      <property name="transition.distort">0</property>
      <property name="transition.rect">00:00:00.000000=964.0 536.0 4.0 2.0 1;00:00:00.360000=1248.0 165.0 167.0 94.0 1</property>
      <property name="transition.valign">top</property>
      <property name="transition.halign">left</property>
      <property name="shotcut:animIn">00:00:00.400000</property>
      <property name="shotcut:animOut">00:00:00.000</property>
      <property name="transition.threads">0</property>
    </filter>
    <filter id="filter163" in="00:02:01.440000" out="00:02:04.840000">
      <property name="window">75</property>
      <property name="max_gain">20dB</property>
      <property name="mlt_service">volume</property>
      <property name="shotcut:filter">muteVolume</property>
      <property name="gain">0</property>
    </filter>
  </producer>
  <producer id="producer90" in="00:00:00.000" out="00:03:17.240" title="Anonymous Submission">
    <property name="length">00:03:17:07</property>
    <property name="eof">pause</property>
    <property name="resource">../../006 - Videos format youtube/Clarinettes/Ineke_clarinette_totoro.mp4</property>
    <property name="audio_index">1</property>
    <property name="video_index">0</property>
    <property name="mute_on_pause">0</property>
    <property name="mlt_service">avformat-novalidate</property>
    <property name="seekable">1</property>
    <property name="aspect_ratio">1</property>
    <property name="creation_time">2020-04-20T19:10:56</property>
    <property name="shotcut:hash">44edbdde4a7730436d308ed2f8de3797</property>
    <property name="ignore_points">0</property>
    <property name="shotcut:caption">Ineke_clarinette_totoro.mp4</property>
    <property name="shotcut:skipConvert">1</property>
    <property name="global_feed">1</property>
    <property name="xml">was here</property>
    <filter id="filter164" in="00:02:04.880000" out="00:02:08.240000">
      <property name="background">colour:0</property>
      <property name="mlt_service">affine</property>
      <property name="shotcut:filter">affineSizePosition</property>
      <property name="transition.fill">1</property>
      <property name="transition.distort">0</property>
      <property name="transition.rect">00:00:00.000000=1258.0 170.5 158.0 88.5 1;00:00:00.360000=777.0 941.5 119.0 67.5 1</property>
      <property name="transition.valign">top</property>
      <property name="transition.halign">left</property>
      <property name="shotcut:animIn">00:00:00.400000</property>
      <property name="shotcut:animOut">00:00:00.000</property>
      <property name="transition.threads">0</property>
    </filter>
    <filter id="filter165" in="00:02:04.880000" out="00:02:08.240000">
      <property name="window">75</property>
      <property name="max_gain">20dB</property>
      <property name="mlt_service">volume</property>
      <property name="shotcut:filter">muteVolume</property>
      <property name="gain">0</property>
    </filter>
  </producer>
  <producer id="producer91" in="00:00:00.000" out="00:03:17.240" title="Anonymous Submission">
    <property name="length">00:03:17:07</property>
    <property name="eof">pause</property>
    <property name="resource">../../006 - Videos format youtube/Clarinettes/Ineke_clarinette_totoro.mp4</property>
    <property name="audio_index">1</property>
    <property name="video_index">0</property>
    <property name="mute_on_pause">0</property>
    <property name="mlt_service">avformat-novalidate</property>
    <property name="seekable">1</property>
    <property name="aspect_ratio">1</property>
    <property name="creation_time">2020-04-20T19:10:56</property>
    <property name="shotcut:hash">44edbdde4a7730436d308ed2f8de3797</property>
    <property name="ignore_points">0</property>
    <property name="shotcut:caption">Ineke_clarinette_totoro.mp4</property>
    <property name="shotcut:skipConvert">1</property>
    <property name="global_feed">1</property>
    <property name="xml">was here</property>
    <filter id="filter166" in="00:02:08.280000" out="00:02:11.680000">
      <property name="background">colour:0</property>
      <property name="mlt_service">affine</property>
      <property name="shotcut:filter">affineSizePosition</property>
      <property name="transition.fill">1</property>
      <property name="transition.distort">0</property>
      <property name="transition.rect">00:00:00.000000=787.0 946.5 110.0 61.5 1;00:00:00.360000=522.0 293.5 119.0 67.5 1</property>
      <property name="transition.valign">top</property>
      <property name="transition.halign">left</property>
      <property name="shotcut:animIn">00:00:00.400000</property>
      <property name="shotcut:animOut">00:00:00.000</property>
      <property name="transition.threads">0</property>
    </filter>
    <filter id="filter167" in="00:02:08.280000" out="00:02:11.680000">
      <property name="window">75</property>
      <property name="max_gain">20dB</property>
      <property name="mlt_service">volume</property>
      <property name="shotcut:filter">muteVolume</property>
      <property name="gain">0</property>
    </filter>
  </producer>
  <producer id="producer92" in="00:00:00.000" out="00:03:17.240" title="Anonymous Submission">
    <property name="length">00:03:17:07</property>
    <property name="eof">pause</property>
    <property name="resource">../../006 - Videos format youtube/Clarinettes/Ineke_clarinette_totoro.mp4</property>
    <property name="audio_index">1</property>
    <property name="video_index">0</property>
    <property name="mute_on_pause">0</property>
    <property name="mlt_service">avformat-novalidate</property>
    <property name="seekable">1</property>
    <property name="aspect_ratio">1</property>
    <property name="creation_time">2020-04-20T19:10:56</property>
    <property name="shotcut:hash">44edbdde4a7730436d308ed2f8de3797</property>
    <property name="ignore_points">0</property>
    <property name="shotcut:caption">Ineke_clarinette_totoro.mp4</property>
    <property name="shotcut:skipConvert">1</property>
    <property name="global_feed">1</property>
    <property name="xml">was here</property>
    <filter id="filter168" in="00:02:11.720000" out="00:02:15.080000">
      <property name="background">colour:0</property>
      <property name="mlt_service">affine</property>
      <property name="shotcut:filter">affineSizePosition</property>
      <property name="transition.fill">1</property>
      <property name="transition.distort">0</property>
      <property name="transition.rect">00:00:00.000000=532.0 298.5 110.0 61.5 1;00:00:00.360000=586.0 653.5 119.0 67.5 1</property>
      <property name="transition.valign">top</property>
      <property name="transition.halign">left</property>
      <property name="shotcut:animIn">00:00:00.400000</property>
      <property name="shotcut:animOut">00:00:00.000</property>
      <property name="transition.threads">0</property>
    </filter>
    <filter id="filter169" in="00:02:11.720000" out="00:02:15.080000">
      <property name="window">75</property>
      <property name="max_gain">20dB</property>
      <property name="mlt_service">volume</property>
      <property name="shotcut:filter">muteVolume</property>
      <property name="gain">0</property>
    </filter>
  </producer>
  <producer id="producer93" in="00:00:00.000" out="00:03:17.240" title="Anonymous Submission">
    <property name="length">00:03:17:07</property>
    <property name="eof">pause</property>
    <property name="resource">../../006 - Videos format youtube/Clarinettes/Ineke_clarinette_totoro.mp4</property>
    <property name="audio_index">1</property>
    <property name="video_index">0</property>
    <property name="mute_on_pause">0</property>
    <property name="mlt_service">avformat-novalidate</property>
    <property name="seekable">1</property>
    <property name="aspect_ratio">1</property>
    <property name="creation_time">2020-04-20T19:10:56</property>
    <property name="shotcut:hash">44edbdde4a7730436d308ed2f8de3797</property>
    <property name="ignore_points">0</property>
    <property name="shotcut:caption">Ineke_clarinette_totoro.mp4</property>
    <property name="shotcut:skipConvert">1</property>
    <property name="global_feed">1</property>
    <property name="xml">was here</property>
    <filter id="filter170" in="00:02:15.120000" out="00:02:21.400000">
      <property name="background">colour:0</property>
      <property name="mlt_service">affine</property>
      <property name="shotcut:filter">affineSizePosition</property>
      <property name="transition.fill">1</property>
      <property name="transition.distort">0</property>
      <property name="transition.rect">00:00:00.000000=596.0 658.5 110.0 61.5 1;00:00:00.360000=586.0 725.5 119.0 67.5 1</property>
      <property name="transition.valign">top</property>
      <property name="transition.halign">left</property>
      <property name="shotcut:animIn">00:00:00.400000</property>
      <property name="shotcut:animOut">00:00:00.000</property>
      <property name="transition.threads">0</property>
    </filter>
    <filter id="filter171" in="00:02:15.120000" out="00:02:21.400000">
      <property name="window">75</property>
      <property name="max_gain">20dB</property>
      <property name="mlt_service">volume</property>
      <property name="shotcut:filter">muteVolume</property>
      <property name="gain">0</property>
    </filter>
  </producer>
  <playlist id="playlist14">
    <property name="shotcut:video">1</property>
    <property name="shotcut:name">Ineke</property>
    <property name="shotcut:lock">1</property>
    <blank length="00:01:55.000000" />
    <entry in="00:01:54.440000" out="00:01:58.000000" producer="producer87" />
    <entry in="00:01:58.040000" out="00:02:01.400000" producer="producer88" />
    <entry in="00:02:01.440000" out="00:02:04.840000" producer="producer89" />
    <entry in="00:02:04.880000" out="00:02:08.240000" producer="producer90" />
    <entry in="00:02:08.280000" out="00:02:11.680000" producer="producer91" />
    <entry in="00:02:11.720000" out="00:02:15.080000" producer="producer92" />
    <entry in="00:02:15.120000" out="00:02:21.400000" producer="producer93" />
    <filter id="filter172" out="00:03:23.320">
      <property name="window">75</property>
      <property name="max_gain">20dB</property>
      <property name="level">-10</property>
      <property name="mlt_service">volume</property>
    </filter>
  </playlist>
  <producer id="producer94" in="00:00:00.000" out="00:03:14.400" title="Anonymous Submission">
    <property name="length">00:03:14:11</property>
    <property name="eof">pause</property>
    <property name="resource">../../006 - Videos format youtube/Clarinettes/Anne-sonia_clarinette_totoro.mp4</property>
    <property name="audio_index">1</property>
    <property name="video_index">0</property>
    <property name="mute_on_pause">0</property>
    <property name="mlt_service">avformat-novalidate</property>
    <property name="seekable">1</property>
    <property name="aspect_ratio">1</property>
    <property name="creation_time">2020-04-05T19:51:43</property>
    <property name="shotcut:hash">4571e04128d43e4e5e43a6e2575279f6</property>
    <property name="ignore_points">0</property>
    <property name="shotcut:caption">Anne-sonia_clarinette_totoro.mp4</property>
    <property name="shotcut:skipConvert">1</property>
    <property name="global_feed">1</property>
    <property name="xml">was here</property>
    <filter id="filter173" in="00:01:47.320000" out="00:01:50.880000">
      <property name="background">colour:0</property>
      <property name="mlt_service">affine</property>
      <property name="shotcut:filter">affineSizePosition</property>
      <property name="transition.fill">1</property>
      <property name="transition.distort">0</property>
      <property name="transition.rect">-1910.0 -1074.5 -9.0 -4.5 1</property>
      <property name="transition.valign">top</property>
      <property name="transition.halign">left</property>
      <property name="shotcut:animIn">00:00:00.000</property>
      <property name="shotcut:animOut">00:00:00.000</property>
      <property name="transition.threads">0</property>
    </filter>
    <filter id="filter174" in="00:01:47.320000" out="00:01:50.880000">
      <property name="window">75</property>
      <property name="max_gain">20dB</property>
      <property name="mlt_service">volume</property>
      <property name="shotcut:filter">muteVolume</property>
      <property name="gain">0</property>
    </filter>
  </producer>
  <producer id="producer95" in="00:00:00.000" out="00:03:14.400" title="Anonymous Submission">
    <property name="length">00:03:14:11</property>
    <property name="eof">pause</property>
    <property name="resource">../../006 - Videos format youtube/Clarinettes/Anne-sonia_clarinette_totoro.mp4</property>
    <property name="audio_index">1</property>
    <property name="video_index">0</property>
    <property name="mute_on_pause">0</property>
    <property name="mlt_service">avformat-novalidate</property>
    <property name="seekable">1</property>
    <property name="aspect_ratio">1</property>
    <property name="creation_time">2020-04-05T19:51:43</property>
    <property name="shotcut:hash">4571e04128d43e4e5e43a6e2575279f6</property>
    <property name="ignore_points">0</property>
    <property name="shotcut:caption">Anne-sonia_clarinette_totoro.mp4</property>
    <property name="shotcut:skipConvert">1</property>
    <property name="global_feed">1</property>
    <property name="xml">was here</property>
    <filter id="filter175" in="00:01:50.920000" out="00:01:54.280000">
      <property name="background">colour:0</property>
      <property name="mlt_service">affine</property>
      <property name="shotcut:filter">affineSizePosition</property>
      <property name="transition.fill">1</property>
      <property name="transition.distort">0</property>
      <property name="transition.rect">00:00:00.000000=-1900.0 -1068.5 -18.0 -9.5 1;00:00:00.360000=906.0 365.5 119.0 67.5 1</property>
      <property name="transition.valign">top</property>
      <property name="transition.halign">left</property>
      <property name="shotcut:animIn">00:00:00.400000</property>
      <property name="shotcut:animOut">00:00:00.000</property>
      <property name="transition.threads">0</property>
    </filter>
    <filter id="filter176" in="00:01:50.920000" out="00:01:54.280000">
      <property name="window">75</property>
      <property name="max_gain">20dB</property>
      <property name="mlt_service">volume</property>
      <property name="shotcut:filter">muteVolume</property>
      <property name="gain">0</property>
    </filter>
  </producer>
  <producer id="producer96" in="00:00:00.000" out="00:03:14.400" title="Anonymous Submission">
    <property name="length">00:03:14:11</property>
    <property name="eof">pause</property>
    <property name="resource">../../006 - Videos format youtube/Clarinettes/Anne-sonia_clarinette_totoro.mp4</property>
    <property name="audio_index">1</property>
    <property name="video_index">0</property>
    <property name="mute_on_pause">0</property>
    <property name="mlt_service">avformat-novalidate</property>
    <property name="seekable">1</property>
    <property name="aspect_ratio">1</property>
    <property name="creation_time">2020-04-05T19:51:43</property>
    <property name="shotcut:hash">4571e04128d43e4e5e43a6e2575279f6</property>
    <property name="ignore_points">0</property>
    <property name="shotcut:caption">Anne-sonia_clarinette_totoro.mp4</property>
    <property name="shotcut:skipConvert">1</property>
    <property name="global_feed">1</property>
    <property name="xml">was here</property>
    <filter id="filter177" in="00:01:54.320000" out="00:01:57.720000">
      <property name="background">colour:0</property>
      <property name="mlt_service">affine</property>
      <property name="shotcut:filter">affineSizePosition</property>
      <property name="transition.fill">1</property>
      <property name="transition.distort">0</property>
      <property name="transition.rect">00:00:00.000000=950.0 539.0 4.0 2.0 1;00:00:00.360000=416.0 352.0 167.0 94.0 1</property>
      <property name="transition.valign">top</property>
      <property name="transition.halign">left</property>
      <property name="shotcut:animIn">00:00:00.400000</property>
      <property name="shotcut:animOut">00:00:00.000</property>
      <property name="transition.threads">0</property>
    </filter>
    <filter id="filter178" in="00:01:54.320000" out="00:01:57.720000">
      <property name="window">75</property>
      <property name="max_gain">20dB</property>
      <property name="mlt_service">volume</property>
      <property name="shotcut:filter">muteVolume</property>
      <property name="gain">0</property>
    </filter>
  </producer>
  <producer id="producer97" in="00:00:00.000" out="00:03:14.400" title="Anonymous Submission">
    <property name="length">00:03:14:11</property>
    <property name="eof">pause</property>
    <property name="resource">../../006 - Videos format youtube/Clarinettes/Anne-sonia_clarinette_totoro.mp4</property>
    <property name="audio_index">1</property>
    <property name="video_index">0</property>
    <property name="mute_on_pause">0</property>
    <property name="mlt_service">avformat-novalidate</property>
    <property name="seekable">1</property>
    <property name="aspect_ratio">1</property>
    <property name="creation_time">2020-04-05T19:51:43</property>
    <property name="shotcut:hash">4571e04128d43e4e5e43a6e2575279f6</property>
    <property name="ignore_points">0</property>
    <property name="shotcut:caption">Anne-sonia_clarinette_totoro.mp4</property>
    <property name="shotcut:skipConvert">1</property>
    <property name="global_feed">1</property>
    <property name="xml">was here</property>
    <filter id="filter179" in="00:01:57.760000" out="00:02:01.120000">
      <property name="background">colour:0</property>
      <property name="mlt_service">affine</property>
      <property name="shotcut:filter">affineSizePosition</property>
      <property name="transition.fill">1</property>
      <property name="transition.distort">0</property>
      <property name="transition.rect">-1910.0 -1074.5 -9.0 -4.5 1</property>
      <property name="transition.valign">top</property>
      <property name="transition.halign">left</property>
      <property name="shotcut:animIn">00:00:00.400000</property>
      <property name="shotcut:animOut">00:00:00.000</property>
      <property name="transition.threads">0</property>
    </filter>
    <filter id="filter180" in="00:01:57.760000" out="00:02:01.120000">
      <property name="window">75</property>
      <property name="max_gain">20dB</property>
      <property name="mlt_service">volume</property>
      <property name="shotcut:filter">muteVolume</property>
      <property name="gain">0</property>
    </filter>
  </producer>
  <producer id="producer98" in="00:00:00.000" out="00:03:14.400" title="Anonymous Submission">
    <property name="length">00:03:14:11</property>
    <property name="eof">pause</property>
    <property name="resource">../../006 - Videos format youtube/Clarinettes/Anne-sonia_clarinette_totoro.mp4</property>
    <property name="audio_index">1</property>
    <property name="video_index">0</property>
    <property name="mute_on_pause">0</property>
    <property name="mlt_service">avformat-novalidate</property>
    <property name="seekable">1</property>
    <property name="aspect_ratio">1</property>
    <property name="creation_time">2020-04-05T19:51:43</property>
    <property name="shotcut:hash">4571e04128d43e4e5e43a6e2575279f6</property>
    <property name="ignore_points">0</property>
    <property name="shotcut:caption">Anne-sonia_clarinette_totoro.mp4</property>
    <property name="shotcut:skipConvert">1</property>
    <property name="global_feed">1</property>
    <property name="xml">was here</property>
    <filter id="filter181" in="00:02:01.160000" out="00:02:04.560000">
      <property name="background">colour:0</property>
      <property name="mlt_service">affine</property>
      <property name="shotcut:filter">affineSizePosition</property>
      <property name="transition.fill">1</property>
      <property name="transition.distort">0</property>
      <property name="transition.rect">00:00:00.000000=-1900.0 -1068.5 -18.0 -9.5 1;00:00:00.360000=778.0 293.5 119.0 67.5 1</property>
      <property name="transition.valign">top</property>
      <property name="transition.halign">left</property>
      <property name="shotcut:animIn">00:00:00.400000</property>
      <property name="shotcut:animOut">00:00:00.000</property>
      <property name="transition.threads">0</property>
    </filter>
    <filter id="filter182" in="00:02:01.160000" out="00:02:04.560000">
      <property name="window">75</property>
      <property name="max_gain">20dB</property>
      <property name="mlt_service">volume</property>
      <property name="shotcut:filter">muteVolume</property>
      <property name="gain">0</property>
    </filter>
  </producer>
  <producer id="producer99" in="00:00:00.000" out="00:03:14.400" title="Anonymous Submission">
    <property name="length">00:03:14:11</property>
    <property name="eof">pause</property>
    <property name="resource">../../006 - Videos format youtube/Clarinettes/Anne-sonia_clarinette_totoro.mp4</property>
    <property name="audio_index">1</property>
    <property name="video_index">0</property>
    <property name="mute_on_pause">0</property>
    <property name="mlt_service">avformat-novalidate</property>
    <property name="seekable">1</property>
    <property name="aspect_ratio">1</property>
    <property name="creation_time">2020-04-05T19:51:43</property>
    <property name="shotcut:hash">4571e04128d43e4e5e43a6e2575279f6</property>
    <property name="ignore_points">0</property>
    <property name="shotcut:caption">Anne-sonia_clarinette_totoro.mp4</property>
    <property name="shotcut:skipConvert">1</property>
    <property name="global_feed">1</property>
    <property name="xml">was here</property>
    <filter id="filter183" in="00:02:04.600000" out="00:02:07.960000">
      <property name="background">colour:0</property>
      <property name="mlt_service">affine</property>
      <property name="shotcut:filter">affineSizePosition</property>
      <property name="transition.fill">1</property>
      <property name="transition.distort">0</property>
      <property name="transition.rect">00:00:00.000000=788.0 298.5 110.0 61.5 1;00:00:00.360000=586.0 797.5 119.0 67.5 1</property>
      <property name="transition.valign">top</property>
      <property name="transition.halign">left</property>
      <property name="shotcut:animIn">00:00:00.400000</property>
      <property name="shotcut:animOut">00:00:00.000</property>
      <property name="transition.threads">0</property>
    </filter>
    <filter id="filter184" in="00:02:04.600000" out="00:02:07.960000">
      <property name="window">75</property>
      <property name="max_gain">20dB</property>
      <property name="mlt_service">volume</property>
      <property name="shotcut:filter">muteVolume</property>
      <property name="gain">0</property>
    </filter>
  </producer>
  <producer id="producer100" in="00:00:00.000" out="00:03:14.400" title="Anonymous Submission">
    <property name="length">00:03:14:11</property>
    <property name="eof">pause</property>
    <property name="resource">../../006 - Videos format youtube/Clarinettes/Anne-sonia_clarinette_totoro.mp4</property>
    <property name="audio_index">1</property>
    <property name="video_index">0</property>
    <property name="mute_on_pause">0</property>
    <property name="mlt_service">avformat-novalidate</property>
    <property name="seekable">1</property>
    <property name="aspect_ratio">1</property>
    <property name="creation_time">2020-04-05T19:51:43</property>
    <property name="shotcut:hash">4571e04128d43e4e5e43a6e2575279f6</property>
    <property name="ignore_points">0</property>
    <property name="shotcut:caption">Anne-sonia_clarinette_totoro.mp4</property>
    <property name="shotcut:skipConvert">1</property>
    <property name="global_feed">1</property>
    <property name="xml">was here</property>
    <filter id="filter185" in="00:02:08.000000" out="00:02:14.280000">
      <property name="background">colour:0</property>
      <property name="mlt_service">affine</property>
      <property name="shotcut:filter">affineSizePosition</property>
      <property name="transition.fill">1</property>
      <property name="transition.distort">0</property>
      <property name="transition.rect">00:00:00.000000=596.0 802.5 110.0 61.5 1;00:00:00.360000=714.0 941.5 119.0 67.5 1</property>
      <property name="transition.valign">top</property>
      <property name="transition.halign">left</property>
      <property name="shotcut:animIn">00:00:00.400000</property>
      <property name="shotcut:animOut">00:00:00.000</property>
      <property name="transition.threads">0</property>
    </filter>
    <filter id="filter186" in="00:02:08.000000" out="00:02:14.280000">
      <property name="window">75</property>
      <property name="max_gain">20dB</property>
      <property name="mlt_service">volume</property>
      <property name="shotcut:filter">muteVolume</property>
      <property name="gain">0</property>
    </filter>
  </producer>
  <playlist id="playlist15">
    <property name="shotcut:video">1</property>
    <property name="shotcut:name">Anne-Sonia_clar 2?</property>
    <property name="shotcut:lock">1</property>
    <blank length="00:01:55.000000" />
    <entry in="00:01:47.320000" out="00:01:50.880000" producer="producer94" />
    <entry in="00:01:50.920000" out="00:01:54.280000" producer="producer95" />
    <entry in="00:01:54.320000" out="00:01:57.720000" producer="producer96" />
    <entry in="00:01:57.760000" out="00:02:01.120000" producer="producer97" />
    <entry in="00:02:01.160000" out="00:02:04.560000" producer="producer98" />
    <entry in="00:02:04.600000" out="00:02:07.960000" producer="producer99" />
    <entry in="00:02:08.000000" out="00:02:14.280000" producer="producer100" />
    <filter id="filter187" out="00:03:23.320">
      <property name="window">75</property>
      <property name="max_gain">20dB</property>
      <property name="level">-11</property>
      <property name="mlt_service">volume</property>
    </filter>
  </playlist>
  <producer id="producer101" in="00:00:00.000" out="00:03:09.640" title="Anonymous Submission">
    <property name="length">00:03:09:17</property>
    <property name="eof">pause</property>
    <property name="resource">../../006 - Videos format youtube/Clarinettes/Stephane_clarinette_totoro.mp4</property>
    <property name="audio_index">1</property>
    <property name="video_index">0</property>
    <property name="mute_on_pause">0</property>
    <property name="mlt_service">avformat-novalidate</property>
    <property name="seekable">1</property>
    <property name="aspect_ratio">1</property>
    <property name="creation_time">2020-04-13T11:40:34</property>
    <property name="shotcut:hash">9a40f89235cfd4458835cfec463e07c8</property>
    <property name="ignore_points">0</property>
    <property name="shotcut:caption">Stephane_clarinette_totoro.mp4</property>
    <property name="shotcut:skipConvert">1</property>
    <property name="global_feed">1</property>
    <property name="xml">was here</property>
    <filter id="filter188" in="00:01:44.800000" out="00:01:48.360000">
      <property name="background">colour:0</property>
      <property name="mlt_service">affine</property>
      <property name="shotcut:filter">affineSizePosition</property>
      <property name="transition.fill">1</property>
      <property name="transition.distort">0</property>
      <property name="transition.rect">-1910.0 -1074.5 -9.0 -4.5 1</property>
      <property name="transition.valign">top</property>
      <property name="transition.halign">left</property>
      <property name="shotcut:animIn">00:00:00.000</property>
      <property name="shotcut:animOut">00:00:00.000</property>
      <property name="transition.threads">0</property>
    </filter>
    <filter id="filter189" in="00:01:44.800000" out="00:01:48.360000">
      <property name="window">75</property>
      <property name="max_gain">20dB</property>
      <property name="mlt_service">volume</property>
      <property name="shotcut:filter">muteVolume</property>
      <property name="gain">0</property>
    </filter>
  </producer>
  <producer id="producer102" in="00:00:00.000" out="00:03:09.640" title="Anonymous Submission">
    <property name="length">00:03:09:17</property>
    <property name="eof">pause</property>
    <property name="resource">../../006 - Videos format youtube/Clarinettes/Stephane_clarinette_totoro.mp4</property>
    <property name="audio_index">1</property>
    <property name="video_index">0</property>
    <property name="mute_on_pause">0</property>
    <property name="mlt_service">avformat-novalidate</property>
    <property name="seekable">1</property>
    <property name="aspect_ratio">1</property>
    <property name="creation_time">2020-04-13T11:40:34</property>
    <property name="shotcut:hash">9a40f89235cfd4458835cfec463e07c8</property>
    <property name="ignore_points">0</property>
    <property name="shotcut:caption">Stephane_clarinette_totoro.mp4</property>
    <property name="shotcut:skipConvert">1</property>
    <property name="global_feed">1</property>
    <property name="xml">was here</property>
    <filter id="filter190" in="00:01:48.400000" out="00:01:51.760000">
      <property name="background">colour:0</property>
      <property name="mlt_service">affine</property>
      <property name="shotcut:filter">affineSizePosition</property>
      <property name="transition.fill">1</property>
      <property name="transition.distort">0</property>
      <property name="transition.rect">00:00:00.000000=-1900.0 -1068.5 -18.0 -9.5 1;00:00:00.360000=777.0 437.5 119.0 67.5 1</property>
      <property name="transition.valign">top</property>
      <property name="transition.halign">left</property>
      <property name="shotcut:animIn">00:00:00.400000</property>
      <property name="shotcut:animOut">00:00:00.000</property>
      <property name="transition.threads">0</property>
    </filter>
    <filter id="filter191" in="00:01:48.400000" out="00:01:51.760000">
      <property name="window">75</property>
      <property name="max_gain">20dB</property>
      <property name="mlt_service">volume</property>
      <property name="shotcut:filter">muteVolume</property>
      <property name="gain">0</property>
    </filter>
  </producer>
  <producer id="producer103" in="00:00:00.000" out="00:03:09.640" title="Anonymous Submission">
    <property name="length">00:03:09:17</property>
    <property name="eof">pause</property>
    <property name="resource">../../006 - Videos format youtube/Clarinettes/Stephane_clarinette_totoro.mp4</property>
    <property name="audio_index">1</property>
    <property name="video_index">0</property>
    <property name="mute_on_pause">0</property>
    <property name="mlt_service">avformat-novalidate</property>
    <property name="seekable">1</property>
    <property name="aspect_ratio">1</property>
    <property name="creation_time">2020-04-13T11:40:34</property>
    <property name="shotcut:hash">9a40f89235cfd4458835cfec463e07c8</property>
    <property name="ignore_points">0</property>
    <property name="shotcut:caption">Stephane_clarinette_totoro.mp4</property>
    <property name="shotcut:skipConvert">1</property>
    <property name="global_feed">1</property>
    <property name="xml">was here</property>
    <filter id="filter192" in="00:01:51.800000" out="00:01:55.200000">
      <property name="background">colour:0</property>
      <property name="mlt_service">affine</property>
      <property name="shotcut:filter">affineSizePosition</property>
      <property name="transition.fill">1</property>
      <property name="transition.distort">0</property>
      <property name="transition.rect">00:00:00.000000=955.0 545.0 4.0 2.0 1;00:00:00.360000=748.0 727.0 167.0 94.0 1</property>
      <property name="transition.valign">top</property>
      <property name="transition.halign">left</property>
      <property name="shotcut:animIn">00:00:00.400000</property>
      <property name="shotcut:animOut">00:00:00.000</property>
      <property name="transition.threads">0</property>
    </filter>
    <filter id="filter193" in="00:01:51.800000" out="00:01:55.200000">
      <property name="window">75</property>
      <property name="max_gain">20dB</property>
      <property name="mlt_service">volume</property>
      <property name="shotcut:filter">muteVolume</property>
      <property name="gain">0</property>
    </filter>
  </producer>
  <producer id="producer104" in="00:00:00.000" out="00:03:09.640" title="Anonymous Submission">
    <property name="length">00:03:09:17</property>
    <property name="eof">pause</property>
    <property name="resource">../../006 - Videos format youtube/Clarinettes/Stephane_clarinette_totoro.mp4</property>
    <property name="audio_index">1</property>
    <property name="video_index">0</property>
    <property name="mute_on_pause">0</property>
    <property name="mlt_service">avformat-novalidate</property>
    <property name="seekable">1</property>
    <property name="aspect_ratio">1</property>
    <property name="creation_time">2020-04-13T11:40:34</property>
    <property name="shotcut:hash">9a40f89235cfd4458835cfec463e07c8</property>
    <property name="ignore_points">0</property>
    <property name="shotcut:caption">Stephane_clarinette_totoro.mp4</property>
    <property name="shotcut:skipConvert">1</property>
    <property name="global_feed">1</property>
    <property name="xml">was here</property>
    <filter id="filter194" in="00:01:55.240000" out="00:01:58.600000">
      <property name="background">colour:0</property>
      <property name="mlt_service">affine</property>
      <property name="shotcut:filter">affineSizePosition</property>
      <property name="transition.fill">1</property>
      <property name="transition.distort">0</property>
      <property name="transition.rect">-1910.0 -1074.5 -9.0 -4.5 1</property>
      <property name="transition.valign">top</property>
      <property name="transition.halign">left</property>
      <property name="shotcut:animIn">00:00:00.400000</property>
      <property name="shotcut:animOut">00:00:00.000</property>
      <property name="transition.threads">0</property>
    </filter>
    <filter id="filter195" in="00:01:55.240000" out="00:01:58.600000">
      <property name="window">75</property>
      <property name="max_gain">20dB</property>
      <property name="mlt_service">volume</property>
      <property name="shotcut:filter">muteVolume</property>
      <property name="gain">0</property>
    </filter>
  </producer>
  <producer id="producer105" in="00:00:00.000" out="00:03:09.640" title="Anonymous Submission">
    <property name="length">00:03:09:17</property>
    <property name="eof">pause</property>
    <property name="resource">../../006 - Videos format youtube/Clarinettes/Stephane_clarinette_totoro.mp4</property>
    <property name="audio_index">1</property>
    <property name="video_index">0</property>
    <property name="mute_on_pause">0</property>
    <property name="mlt_service">avformat-novalidate</property>
    <property name="seekable">1</property>
    <property name="aspect_ratio">1</property>
    <property name="creation_time">2020-04-13T11:40:34</property>
    <property name="shotcut:hash">9a40f89235cfd4458835cfec463e07c8</property>
    <property name="ignore_points">0</property>
    <property name="shotcut:caption">Stephane_clarinette_totoro.mp4</property>
    <property name="shotcut:skipConvert">1</property>
    <property name="global_feed">1</property>
    <property name="xml">was here</property>
    <filter id="filter196" in="00:01:58.640000" out="00:02:02.040000">
      <property name="background">colour:0</property>
      <property name="mlt_service">affine</property>
      <property name="shotcut:filter">affineSizePosition</property>
      <property name="transition.fill">1</property>
      <property name="transition.distort">0</property>
      <property name="transition.rect">00:00:00.000000=-1900.0 -1068.5 -18.0 -9.5 1;00:00:00.360000=1034.0 293.5 119.0 67.5 1</property>
      <property name="transition.valign">top</property>
      <property name="transition.halign">left</property>
      <property name="shotcut:animIn">00:00:00.400000</property>
      <property name="shotcut:animOut">00:00:00.000</property>
      <property name="transition.threads">0</property>
    </filter>
    <filter id="filter197" in="00:01:58.640000" out="00:02:02.040000">
      <property name="window">75</property>
      <property name="max_gain">20dB</property>
      <property name="mlt_service">volume</property>
      <property name="shotcut:filter">muteVolume</property>
      <property name="gain">0</property>
    </filter>
  </producer>
  <producer id="producer106" in="00:00:00.000" out="00:03:09.640" title="Anonymous Submission">
    <property name="length">00:03:09:17</property>
    <property name="eof">pause</property>
    <property name="resource">../../006 - Videos format youtube/Clarinettes/Stephane_clarinette_totoro.mp4</property>
    <property name="audio_index">1</property>
    <property name="video_index">0</property>
    <property name="mute_on_pause">0</property>
    <property name="mlt_service">avformat-novalidate</property>
    <property name="seekable">1</property>
    <property name="aspect_ratio">1</property>
    <property name="creation_time">2020-04-13T11:40:34</property>
    <property name="shotcut:hash">9a40f89235cfd4458835cfec463e07c8</property>
    <property name="ignore_points">0</property>
    <property name="shotcut:caption">Stephane_clarinette_totoro.mp4</property>
    <property name="shotcut:skipConvert">1</property>
    <property name="global_feed">1</property>
    <property name="xml">was here</property>
    <filter id="filter198" in="00:02:02.080000" out="00:02:05.440000">
      <property name="background">colour:0</property>
      <property name="mlt_service">affine</property>
      <property name="shotcut:filter">affineSizePosition</property>
      <property name="transition.fill">1</property>
      <property name="transition.distort">0</property>
      <property name="transition.rect">-1910.0 -1074.5 -9.0 -4.5 1</property>
      <property name="transition.valign">top</property>
      <property name="transition.halign">left</property>
      <property name="shotcut:animIn">00:00:00.400000</property>
      <property name="shotcut:animOut">00:00:00.000</property>
      <property name="transition.threads">0</property>
    </filter>
    <filter id="filter199" in="00:02:02.080000" out="00:02:05.440000">
      <property name="window">75</property>
      <property name="max_gain">20dB</property>
      <property name="mlt_service">volume</property>
      <property name="shotcut:filter">muteVolume</property>
      <property name="gain">0</property>
    </filter>
  </producer>
  <producer id="producer107" in="00:00:00.000" out="00:03:09.640" title="Anonymous Submission">
    <property name="length">00:03:09:17</property>
    <property name="eof">pause</property>
    <property name="resource">../../006 - Videos format youtube/Clarinettes/Stephane_clarinette_totoro.mp4</property>
    <property name="audio_index">1</property>
    <property name="video_index">0</property>
    <property name="mute_on_pause">0</property>
    <property name="mlt_service">avformat-novalidate</property>
    <property name="seekable">1</property>
    <property name="aspect_ratio">1</property>
    <property name="creation_time">2020-04-13T11:40:34</property>
    <property name="shotcut:hash">9a40f89235cfd4458835cfec463e07c8</property>
    <property name="ignore_points">0</property>
    <property name="shotcut:caption">Stephane_clarinette_totoro.mp4</property>
    <property name="shotcut:skipConvert">1</property>
    <property name="global_feed">1</property>
    <property name="xml">was here</property>
    <filter id="filter200" in="00:02:05.480000" out="00:02:11.760000">
      <property name="background">colour:0</property>
      <property name="mlt_service">affine</property>
      <property name="shotcut:filter">affineSizePosition</property>
      <property name="transition.fill">1</property>
      <property name="transition.distort">0</property>
      <property name="transition.rect">1162.0 149.5 119.0 67.5 1</property>
      <property name="transition.valign">top</property>
      <property name="transition.halign">left</property>
      <property name="shotcut:animIn">00:00:00.400000</property>
      <property name="shotcut:animOut">00:00:00.000</property>
      <property name="transition.threads">0</property>
    </filter>
    <filter id="filter201" in="00:02:05.480000" out="00:02:11.760000">
      <property name="window">75</property>
      <property name="max_gain">20dB</property>
      <property name="mlt_service">volume</property>
      <property name="shotcut:filter">muteVolume</property>
      <property name="gain">0</property>
    </filter>
  </producer>
  <playlist id="playlist16">
    <property name="shotcut:video">1</property>
    <property name="shotcut:name">Stephane</property>
    <property name="shotcut:lock">1</property>
    <blank length="00:01:55.000000" />
    <entry in="00:01:44.800000" out="00:01:48.360000" producer="producer101" />
    <entry in="00:01:48.400000" out="00:01:51.760000" producer="producer102" />
    <entry in="00:01:51.800000" out="00:01:55.200000" producer="producer103" />
    <entry in="00:01:55.240000" out="00:01:58.600000" producer="producer104" />
    <entry in="00:01:58.640000" out="00:02:02.040000" producer="producer105" />
    <entry in="00:02:02.080000" out="00:02:05.440000" producer="producer106" />
    <entry in="00:02:05.480000" out="00:02:11.760000" producer="producer107" />
    <filter id="filter202" out="00:03:23.320">
      <property name="window">75</property>
      <property name="max_gain">20dB</property>
      <property name="level">-11</property>
      <property name="mlt_service">volume</property>
    </filter>
  </playlist>
  <producer id="producer108" in="00:00:00.000" out="00:03:32.360" title="Anonymous Submission">
    <property name="length">00:03:32:10</property>
    <property name="eof">pause</property>
    <property name="resource">../../006 - Videos format youtube/Clarinettes/PierreG_clarinette_totoro.mp4</property>
    <property name="audio_index">1</property>
    <property name="video_index">0</property>
    <property name="mute_on_pause">0</property>
    <property name="mlt_service">avformat-novalidate</property>
    <property name="seekable">1</property>
    <property name="aspect_ratio">1</property>
    <property name="creation_time">2020-04-17T16:52:31</property>
    <property name="shotcut:hash">6b94f299793e62fd39584d2bc1ca99a4</property>
    <property name="ignore_points">0</property>
    <property name="shotcut:caption">PierreG_clarinette_totoro.mp4</property>
    <property name="shotcut:skipConvert">1</property>
    <property name="global_feed">1</property>
    <property name="xml">was here</property>
    <filter id="filter203" in="00:02:04.040000" out="00:02:07.600000">
      <property name="background">colour:0</property>
      <property name="mlt_service">affine</property>
      <property name="shotcut:filter">affineSizePosition</property>
      <property name="transition.fill">1</property>
      <property name="transition.distort">0</property>
      <property name="transition.rect">-1910.0 -1074.5 -9.0 -4.5 1</property>
      <property name="transition.valign">top</property>
      <property name="transition.halign">left</property>
      <property name="shotcut:animIn">00:00:00.000</property>
      <property name="shotcut:animOut">00:00:00.000</property>
      <property name="transition.threads">0</property>
    </filter>
    <filter id="filter204" in="00:02:04.040000" out="00:02:07.600000">
      <property name="window">75</property>
      <property name="max_gain">20dB</property>
      <property name="mlt_service">volume</property>
      <property name="shotcut:filter">muteVolume</property>
      <property name="gain">0</property>
    </filter>
  </producer>
  <producer id="producer109" in="00:00:00.000" out="00:03:32.360" title="Anonymous Submission">
    <property name="length">00:03:32:10</property>
    <property name="eof">pause</property>
    <property name="resource">../../006 - Videos format youtube/Clarinettes/PierreG_clarinette_totoro.mp4</property>
    <property name="audio_index">1</property>
    <property name="video_index">0</property>
    <property name="mute_on_pause">0</property>
    <property name="mlt_service">avformat-novalidate</property>
    <property name="seekable">1</property>
    <property name="aspect_ratio">1</property>
    <property name="creation_time">2020-04-17T16:52:31</property>
    <property name="shotcut:hash">6b94f299793e62fd39584d2bc1ca99a4</property>
    <property name="ignore_points">0</property>
    <property name="shotcut:caption">PierreG_clarinette_totoro.mp4</property>
    <property name="shotcut:skipConvert">1</property>
    <property name="global_feed">1</property>
    <property name="xml">was here</property>
    <filter id="filter205" in="00:02:07.640000" out="00:02:11.000000">
      <property name="background">colour:0</property>
      <property name="mlt_service">affine</property>
      <property name="shotcut:filter">affineSizePosition</property>
      <property name="transition.fill">1</property>
      <property name="transition.distort">0</property>
      <property name="transition.rect">00:00:00.000000=-1900.0 -1068.5 -18.0 -9.5 1;00:00:00.360000=906.0 437.5 119.0 67.5 1</property>
      <property name="transition.valign">top</property>
      <property name="transition.halign">left</property>
      <property name="shotcut:animIn">00:00:00.400000</property>
      <property name="shotcut:animOut">00:00:00.000</property>
      <property name="transition.threads">0</property>
    </filter>
    <filter id="filter206" in="00:02:07.640000" out="00:02:11.000000">
      <property name="window">75</property>
      <property name="max_gain">20dB</property>
      <property name="mlt_service">volume</property>
      <property name="shotcut:filter">muteVolume</property>
      <property name="gain">0</property>
    </filter>
  </producer>
  <producer id="producer110" in="00:00:00.000" out="00:03:32.360" title="Anonymous Submission">
    <property name="length">00:03:32:10</property>
    <property name="eof">pause</property>
    <property name="resource">../../006 - Videos format youtube/Clarinettes/PierreG_clarinette_totoro.mp4</property>
    <property name="audio_index">1</property>
    <property name="video_index">0</property>
    <property name="mute_on_pause">0</property>
    <property name="mlt_service">avformat-novalidate</property>
    <property name="seekable">1</property>
    <property name="aspect_ratio">1</property>
    <property name="creation_time">2020-04-17T16:52:31</property>
    <property name="shotcut:hash">6b94f299793e62fd39584d2bc1ca99a4</property>
    <property name="ignore_points">0</property>
    <property name="shotcut:caption">PierreG_clarinette_totoro.mp4</property>
    <property name="shotcut:skipConvert">1</property>
    <property name="global_feed">1</property>
    <property name="xml">was here</property>
    <filter id="filter207" in="00:02:11.040000" out="00:02:14.440000">
      <property name="background">colour:0</property>
      <property name="mlt_service">affine</property>
      <property name="shotcut:filter">affineSizePosition</property>
      <property name="transition.fill">1</property>
      <property name="transition.distort">0</property>
      <property name="transition.rect">00:00:00.000000=957.0 540.0 4.0 2.0 1;00:00:00.360000=831.0 446.0 167.0 94.0 1</property>
      <property name="transition.valign">top</property>
      <property name="transition.halign">left</property>
      <property name="shotcut:animIn">00:00:00.400000</property>
      <property name="shotcut:animOut">00:00:00.000</property>
      <property name="transition.threads">0</property>
    </filter>
    <filter id="filter208" in="00:02:11.040000" out="00:02:14.440000">
      <property name="window">75</property>
      <property name="max_gain">20dB</property>
      <property name="mlt_service">volume</property>
      <property name="shotcut:filter">muteVolume</property>
      <property name="gain">0</property>
    </filter>
  </producer>
  <producer id="producer111" in="00:00:00.000" out="00:03:32.360" title="Anonymous Submission">
    <property name="length">00:03:32:10</property>
    <property name="eof">pause</property>
    <property name="resource">../../006 - Videos format youtube/Clarinettes/PierreG_clarinette_totoro.mp4</property>
    <property name="audio_index">1</property>
    <property name="video_index">0</property>
    <property name="mute_on_pause">0</property>
    <property name="mlt_service">avformat-novalidate</property>
    <property name="seekable">1</property>
    <property name="aspect_ratio">1</property>
    <property name="creation_time">2020-04-17T16:52:31</property>
    <property name="shotcut:hash">6b94f299793e62fd39584d2bc1ca99a4</property>
    <property name="ignore_points">0</property>
    <property name="shotcut:caption">PierreG_clarinette_totoro.mp4</property>
    <property name="shotcut:skipConvert">1</property>
    <property name="global_feed">1</property>
    <property name="xml">was here</property>
    <filter id="filter209" in="00:02:14.480000" out="00:02:17.840000">
      <property name="background">colour:0</property>
      <property name="mlt_service">affine</property>
      <property name="shotcut:filter">affineSizePosition</property>
      <property name="transition.fill">1</property>
      <property name="transition.distort">0</property>
      <property name="transition.rect">-1910.0 -1074.5 -9.0 -4.5 1</property>
      <property name="transition.valign">top</property>
      <property name="transition.halign">left</property>
      <property name="shotcut:animIn">00:00:00.400000</property>
      <property name="shotcut:animOut">00:00:00.000</property>
      <property name="transition.threads">0</property>
    </filter>
    <filter id="filter210" in="00:02:14.480000" out="00:02:17.840000">
      <property name="window">75</property>
      <property name="max_gain">20dB</property>
      <property name="mlt_service">volume</property>
      <property name="shotcut:filter">muteVolume</property>
      <property name="gain">0</property>
    </filter>
  </producer>
  <producer id="producer112" in="00:00:00.000" out="00:03:32.360" title="Anonymous Submission">
    <property name="length">00:03:32:10</property>
    <property name="eof">pause</property>
    <property name="resource">../../006 - Videos format youtube/Clarinettes/PierreG_clarinette_totoro.mp4</property>
    <property name="audio_index">1</property>
    <property name="video_index">0</property>
    <property name="mute_on_pause">0</property>
    <property name="mlt_service">avformat-novalidate</property>
    <property name="seekable">1</property>
    <property name="aspect_ratio">1</property>
    <property name="creation_time">2020-04-17T16:52:31</property>
    <property name="shotcut:hash">6b94f299793e62fd39584d2bc1ca99a4</property>
    <property name="ignore_points">0</property>
    <property name="shotcut:caption">PierreG_clarinette_totoro.mp4</property>
    <property name="shotcut:skipConvert">1</property>
    <property name="global_feed">1</property>
    <property name="xml">was here</property>
    <filter id="filter211" in="00:02:17.880000" out="00:02:21.280000">
      <property name="background">colour:0</property>
      <property name="mlt_service">affine</property>
      <property name="shotcut:filter">affineSizePosition</property>
      <property name="transition.fill">1</property>
      <property name="transition.distort">0</property>
      <property name="transition.rect">00:00:00.000000=-1900.0 -1068.5 -18.0 -9.5 1;00:00:00.360000=1290.0 293.5 119.0 67.5 1</property>
      <property name="transition.valign">top</property>
      <property name="transition.halign">left</property>
      <property name="shotcut:animIn">00:00:00.400000</property>
      <property name="shotcut:animOut">00:00:00.000</property>
      <property name="transition.threads">0</property>
    </filter>
    <filter id="filter212" in="00:02:17.880000" out="00:02:21.280000">
      <property name="window">75</property>
      <property name="max_gain">20dB</property>
      <property name="mlt_service">volume</property>
      <property name="shotcut:filter">muteVolume</property>
      <property name="gain">0</property>
    </filter>
  </producer>
  <producer id="producer113" in="00:00:00.000" out="00:03:32.360" title="Anonymous Submission">
    <property name="length">00:03:32:10</property>
    <property name="eof">pause</property>
    <property name="resource">../../006 - Videos format youtube/Clarinettes/PierreG_clarinette_totoro.mp4</property>
    <property name="audio_index">1</property>
    <property name="video_index">0</property>
    <property name="mute_on_pause">0</property>
    <property name="mlt_service">avformat-novalidate</property>
    <property name="seekable">1</property>
    <property name="aspect_ratio">1</property>
    <property name="creation_time">2020-04-17T16:52:31</property>
    <property name="shotcut:hash">6b94f299793e62fd39584d2bc1ca99a4</property>
    <property name="ignore_points">0</property>
    <property name="shotcut:caption">PierreG_clarinette_totoro.mp4</property>
    <property name="shotcut:skipConvert">1</property>
    <property name="global_feed">1</property>
    <property name="xml">was here</property>
    <filter id="filter213" in="00:02:21.320000" out="00:02:24.680000">
      <property name="background">colour:0</property>
      <property name="mlt_service">affine</property>
      <property name="shotcut:filter">affineSizePosition</property>
      <property name="transition.fill">1</property>
      <property name="transition.distort">0</property>
      <property name="transition.rect">00:00:00.000000=1300.0 298.5 110.0 61.5 1;00:00:00.360000=586.0 581.5 119.0 67.5 1</property>
      <property name="transition.valign">top</property>
      <property name="transition.halign">left</property>
      <property name="shotcut:animIn">00:00:00.400000</property>
      <property name="shotcut:animOut">00:00:00.000</property>
      <property name="transition.threads">0</property>
    </filter>
    <filter id="filter214" in="00:02:21.320000" out="00:02:24.680000">
      <property name="window">75</property>
      <property name="max_gain">20dB</property>
      <property name="mlt_service">volume</property>
      <property name="shotcut:filter">muteVolume</property>
      <property name="gain">0</property>
    </filter>
  </producer>
  <producer id="producer114" in="00:00:00.000" out="00:03:32.360" title="Anonymous Submission">
    <property name="length">00:03:32:10</property>
    <property name="eof">pause</property>
    <property name="resource">../../006 - Videos format youtube/Clarinettes/PierreG_clarinette_totoro.mp4</property>
    <property name="audio_index">1</property>
    <property name="video_index">0</property>
    <property name="mute_on_pause">0</property>
    <property name="mlt_service">avformat-novalidate</property>
    <property name="seekable">1</property>
    <property name="aspect_ratio">1</property>
    <property name="creation_time">2020-04-17T16:52:31</property>
    <property name="shotcut:hash">6b94f299793e62fd39584d2bc1ca99a4</property>
    <property name="ignore_points">0</property>
    <property name="shotcut:caption">PierreG_clarinette_totoro.mp4</property>
    <property name="shotcut:skipConvert">1</property>
    <property name="global_feed">1</property>
    <property name="xml">was here</property>
    <filter id="filter215" in="00:02:24.720000" out="00:02:31.000000">
      <property name="background">colour:0</property>
      <property name="mlt_service">affine</property>
      <property name="shotcut:filter">affineSizePosition</property>
      <property name="transition.fill">1</property>
      <property name="transition.distort">0</property>
      <property name="transition.rect">00:00:00.000000=596.0 586.5 110.0 61.5 1;00:00:00.360000=970.0 77.5 119.0 67.5 1</property>
      <property name="transition.valign">top</property>
      <property name="transition.halign">left</property>
      <property name="shotcut:animIn">00:00:00.400000</property>
      <property name="shotcut:animOut">00:00:00.000</property>
      <property name="transition.threads">0</property>
    </filter>
    <filter id="filter216" in="00:02:24.720000" out="00:02:31.000000">
      <property name="window">75</property>
      <property name="max_gain">20dB</property>
      <property name="mlt_service">volume</property>
      <property name="shotcut:filter">muteVolume</property>
      <property name="gain">0</property>
    </filter>
  </producer>
  <playlist id="playlist17">
    <property name="shotcut:video">1</property>
    <property name="shotcut:name">Pierre_G</property>
    <property name="shotcut:lock">1</property>
    <blank length="00:01:55.000000" />
    <entry in="00:02:04.040000" out="00:02:07.600000" producer="producer108" />
    <entry in="00:02:07.640000" out="00:02:11.000000" producer="producer109" />
    <entry in="00:02:11.040000" out="00:02:14.440000" producer="producer110" />
    <entry in="00:02:14.480000" out="00:02:17.840000" producer="producer111" />
    <entry in="00:02:17.880000" out="00:02:21.280000" producer="producer112" />
    <entry in="00:02:21.320000" out="00:02:24.680000" producer="producer113" />
    <entry in="00:02:24.720000" out="00:02:31.000000" producer="producer114" />
    <filter id="filter217" out="00:03:23.320">
      <property name="window">75</property>
      <property name="max_gain">20dB</property>
      <property name="level">-11</property>
      <property name="mlt_service">volume</property>
    </filter>
  </playlist>
  <producer id="producer115" in="00:00:00.000" out="00:03:04.400" title="Anonymous Submission">
    <property name="length">00:03:04:11</property>
    <property name="eof">pause</property>
    <property name="resource">../../006 - Videos format youtube/Clarinettes/Violette_clarinette_totoro.mp4</property>
    <property name="audio_index">1</property>
    <property name="video_index">0</property>
    <property name="mute_on_pause">0</property>
    <property name="mlt_service">avformat-novalidate</property>
    <property name="seekable">1</property>
    <property name="aspect_ratio">1</property>
    <property name="creation_time">2020-04-13T15:00:56</property>
    <property name="shotcut:hash">be5d154cb44417d0faf36686c0a4cbbc</property>
    <property name="ignore_points">0</property>
    <property name="shotcut:caption">Violette_clarinette_totoro.mp4</property>
    <property name="shotcut:skipConvert">1</property>
    <property name="global_feed">1</property>
    <property name="xml">was here</property>
    <filter id="filter218" in="00:01:41.040000" out="00:01:44.600000">
      <property name="background">colour:0</property>
      <property name="mlt_service">affine</property>
      <property name="shotcut:filter">affineSizePosition</property>
      <property name="transition.fill">1</property>
      <property name="transition.distort">0</property>
      <property name="transition.rect">-1910.0 -1074.5 -9.0 -4.5 1</property>
      <property name="transition.valign">top</property>
      <property name="transition.halign">left</property>
      <property name="shotcut:animIn">00:00:00.000</property>
      <property name="shotcut:animOut">00:00:00.000</property>
      <property name="transition.threads">0</property>
    </filter>
    <filter id="filter219" in="00:01:41.040000" out="00:01:44.600000">
      <property name="window">75</property>
      <property name="max_gain">20dB</property>
      <property name="mlt_service">volume</property>
      <property name="shotcut:filter">muteVolume</property>
      <property name="gain">0</property>
    </filter>
  </producer>
  <producer id="producer116" in="00:00:00.000" out="00:03:04.400" title="Anonymous Submission">
    <property name="length">00:03:04:11</property>
    <property name="eof">pause</property>
    <property name="resource">../../006 - Videos format youtube/Clarinettes/Violette_clarinette_totoro.mp4</property>
    <property name="audio_index">1</property>
    <property name="video_index">0</property>
    <property name="mute_on_pause">0</property>
    <property name="mlt_service">avformat-novalidate</property>
    <property name="seekable">1</property>
    <property name="aspect_ratio">1</property>
    <property name="creation_time">2020-04-13T15:00:56</property>
    <property name="shotcut:hash">be5d154cb44417d0faf36686c0a4cbbc</property>
    <property name="ignore_points">0</property>
    <property name="shotcut:caption">Violette_clarinette_totoro.mp4</property>
    <property name="shotcut:skipConvert">1</property>
    <property name="global_feed">1</property>
    <property name="xml">was here</property>
    <filter id="filter220" in="00:01:44.640000" out="00:01:48.000000">
      <property name="background">colour:0</property>
      <property name="mlt_service">affine</property>
      <property name="shotcut:filter">affineSizePosition</property>
      <property name="transition.fill">1</property>
      <property name="transition.distort">0</property>
      <property name="transition.rect">00:00:00.000000=-1900.0 -1068.5 -18.0 -9.5 1;00:00:00.360000=777.0 509.5 119.0 67.5 1</property>
      <property name="transition.valign">top</property>
      <property name="transition.halign">left</property>
      <property name="shotcut:animIn">00:00:00.400000</property>
      <property name="shotcut:animOut">00:00:00.000</property>
      <property name="transition.threads">0</property>
    </filter>
    <filter id="filter221" in="00:01:44.640000" out="00:01:48.000000">
      <property name="window">75</property>
      <property name="max_gain">20dB</property>
      <property name="mlt_service">volume</property>
      <property name="shotcut:filter">muteVolume</property>
      <property name="gain">0</property>
    </filter>
  </producer>
  <producer id="producer117" in="00:00:00.000" out="00:03:04.400" title="Anonymous Submission">
    <property name="length">00:03:04:11</property>
    <property name="eof">pause</property>
    <property name="resource">../../006 - Videos format youtube/Clarinettes/Violette_clarinette_totoro.mp4</property>
    <property name="audio_index">1</property>
    <property name="video_index">0</property>
    <property name="mute_on_pause">0</property>
    <property name="mlt_service">avformat-novalidate</property>
    <property name="seekable">1</property>
    <property name="aspect_ratio">1</property>
    <property name="creation_time">2020-04-13T15:00:56</property>
    <property name="shotcut:hash">be5d154cb44417d0faf36686c0a4cbbc</property>
    <property name="ignore_points">0</property>
    <property name="shotcut:caption">Violette_clarinette_totoro.mp4</property>
    <property name="shotcut:skipConvert">1</property>
    <property name="global_feed">1</property>
    <property name="xml">was here</property>
    <filter id="filter222" in="00:01:48.040000" out="00:01:51.440000">
      <property name="background">colour:0</property>
      <property name="mlt_service">affine</property>
      <property name="shotcut:filter">affineSizePosition</property>
      <property name="transition.fill">1</property>
      <property name="transition.distort">0</property>
      <property name="transition.rect">00:00:00.000000=957.0 543.0 4.0 2.0 1;00:00:00.360000=831.0 633.0 167.0 94.0 1</property>
      <property name="transition.valign">top</property>
      <property name="transition.halign">left</property>
      <property name="shotcut:animIn">00:00:00.400000</property>
      <property name="shotcut:animOut">00:00:00.000</property>
      <property name="transition.threads">0</property>
    </filter>
    <filter id="filter223" in="00:01:48.040000" out="00:01:51.440000">
      <property name="window">75</property>
      <property name="max_gain">20dB</property>
      <property name="mlt_service">volume</property>
      <property name="shotcut:filter">muteVolume</property>
      <property name="gain">0</property>
    </filter>
  </producer>
  <producer id="producer118" in="00:00:00.000" out="00:03:04.400" title="Anonymous Submission">
    <property name="length">00:03:04:11</property>
    <property name="eof">pause</property>
    <property name="resource">../../006 - Videos format youtube/Clarinettes/Violette_clarinette_totoro.mp4</property>
    <property name="audio_index">1</property>
    <property name="video_index">0</property>
    <property name="mute_on_pause">0</property>
    <property name="mlt_service">avformat-novalidate</property>
    <property name="seekable">1</property>
    <property name="aspect_ratio">1</property>
    <property name="creation_time">2020-04-13T15:00:56</property>
    <property name="shotcut:hash">be5d154cb44417d0faf36686c0a4cbbc</property>
    <property name="ignore_points">0</property>
    <property name="shotcut:caption">Violette_clarinette_totoro.mp4</property>
    <property name="shotcut:skipConvert">1</property>
    <property name="global_feed">1</property>
    <property name="xml">was here</property>
    <filter id="filter224" in="00:01:51.480000" out="00:01:54.840000">
      <property name="background">colour:0</property>
      <property name="mlt_service">affine</property>
      <property name="shotcut:filter">affineSizePosition</property>
      <property name="transition.fill">1</property>
      <property name="transition.distort">0</property>
      <property name="transition.rect">00:00:00.000000=841.0 638.5 158.0 88.5 1;00:00:00.360000=1162.0 77.5 119.0 67.5 1</property>
      <property name="transition.valign">top</property>
      <property name="transition.halign">left</property>
      <property name="shotcut:animIn">00:00:00.400000</property>
      <property name="shotcut:animOut">00:00:00.000</property>
      <property name="transition.threads">0</property>
    </filter>
    <filter id="filter225" in="00:01:51.480000" out="00:01:54.840000">
      <property name="window">75</property>
      <property name="max_gain">20dB</property>
      <property name="mlt_service">volume</property>
      <property name="shotcut:filter">muteVolume</property>
      <property name="gain">0</property>
    </filter>
  </producer>
  <producer id="producer119" in="00:00:00.000" out="00:03:04.400" title="Anonymous Submission">
    <property name="length">00:03:04:11</property>
    <property name="eof">pause</property>
    <property name="resource">../../006 - Videos format youtube/Clarinettes/Violette_clarinette_totoro.mp4</property>
    <property name="audio_index">1</property>
    <property name="video_index">0</property>
    <property name="mute_on_pause">0</property>
    <property name="mlt_service">avformat-novalidate</property>
    <property name="seekable">1</property>
    <property name="aspect_ratio">1</property>
    <property name="creation_time">2020-04-13T15:00:56</property>
    <property name="shotcut:hash">be5d154cb44417d0faf36686c0a4cbbc</property>
    <property name="ignore_points">0</property>
    <property name="shotcut:caption">Violette_clarinette_totoro.mp4</property>
    <property name="shotcut:skipConvert">1</property>
    <property name="global_feed">1</property>
    <property name="xml">was here</property>
    <filter id="filter226" in="00:01:54.880000" out="00:01:58.280000">
      <property name="background">colour:0</property>
      <property name="mlt_service">affine</property>
      <property name="shotcut:filter">affineSizePosition</property>
      <property name="transition.fill">1</property>
      <property name="transition.distort">0</property>
      <property name="transition.rect">00:00:00.000000=1172.0 82.5 110.0 61.5 1;00:00:00.360000=522.0 365.5 119.0 67.5 1</property>
      <property name="transition.valign">top</property>
      <property name="transition.halign">left</property>
      <property name="shotcut:animIn">00:00:00.400000</property>
      <property name="shotcut:animOut">00:00:00.000</property>
      <property name="transition.threads">0</property>
    </filter>
    <filter id="filter227" in="00:01:54.880000" out="00:01:58.280000">
      <property name="window">75</property>
      <property name="max_gain">20dB</property>
      <property name="mlt_service">volume</property>
      <property name="shotcut:filter">muteVolume</property>
      <property name="gain">0</property>
    </filter>
  </producer>
  <producer id="producer120" in="00:00:00.000" out="00:03:04.400" title="Anonymous Submission">
    <property name="length">00:03:04:11</property>
    <property name="eof">pause</property>
    <property name="resource">../../006 - Videos format youtube/Clarinettes/Violette_clarinette_totoro.mp4</property>
    <property name="audio_index">1</property>
    <property name="video_index">0</property>
    <property name="mute_on_pause">0</property>
    <property name="mlt_service">avformat-novalidate</property>
    <property name="seekable">1</property>
    <property name="aspect_ratio">1</property>
    <property name="creation_time">2020-04-13T15:00:56</property>
    <property name="shotcut:hash">be5d154cb44417d0faf36686c0a4cbbc</property>
    <property name="ignore_points">0</property>
    <property name="shotcut:caption">Violette_clarinette_totoro.mp4</property>
    <property name="shotcut:skipConvert">1</property>
    <property name="global_feed">1</property>
    <property name="xml">was here</property>
    <filter id="filter228" in="00:01:58.320000" out="00:02:01.680000">
      <property name="background">colour:0</property>
      <property name="mlt_service">affine</property>
      <property name="shotcut:filter">affineSizePosition</property>
      <property name="transition.fill">1</property>
      <property name="transition.distort">0</property>
      <property name="transition.rect">00:00:00.000000=532.0 370.5 110.0 61.5 1;00:00:00.360000=714.0 436.5 119.0 67.5 1</property>
      <property name="transition.valign">top</property>
      <property name="transition.halign">left</property>
      <property name="shotcut:animIn">00:00:00.400000</property>
      <property name="shotcut:animOut">00:00:00.000</property>
      <property name="transition.threads">0</property>
    </filter>
    <filter id="filter229" in="00:01:58.320000" out="00:02:01.680000">
      <property name="window">75</property>
      <property name="max_gain">20dB</property>
      <property name="mlt_service">volume</property>
      <property name="shotcut:filter">muteVolume</property>
      <property name="gain">0</property>
    </filter>
  </producer>
  <producer id="producer121" in="00:00:00.000" out="00:03:04.400" title="Anonymous Submission">
    <property name="length">00:03:04:11</property>
    <property name="eof">pause</property>
    <property name="resource">../../006 - Videos format youtube/Clarinettes/Violette_clarinette_totoro.mp4</property>
    <property name="audio_index">1</property>
    <property name="video_index">0</property>
    <property name="mute_on_pause">0</property>
    <property name="mlt_service">avformat-novalidate</property>
    <property name="seekable">1</property>
    <property name="aspect_ratio">1</property>
    <property name="creation_time">2020-04-13T15:00:56</property>
    <property name="shotcut:hash">be5d154cb44417d0faf36686c0a4cbbc</property>
    <property name="ignore_points">0</property>
    <property name="shotcut:caption">Violette_clarinette_totoro.mp4</property>
    <property name="shotcut:skipConvert">1</property>
    <property name="global_feed">1</property>
    <property name="xml">was here</property>
    <filter id="filter230" in="00:02:01.720000" out="00:02:08.000000">
      <property name="background">colour:0</property>
      <property name="mlt_service">affine</property>
      <property name="shotcut:filter">affineSizePosition</property>
      <property name="transition.fill">1</property>
      <property name="transition.distort">0</property>
      <property name="transition.rect">00:00:00.000000=724.0 441.5 110.0 61.5 1;00:00:00.360000=714.0 509.5 119.0 67.5 1</property>
      <property name="transition.valign">top</property>
      <property name="transition.halign">left</property>
      <property name="shotcut:animIn">00:00:00.400000</property>
      <property name="shotcut:animOut">00:00:00.000</property>
      <property name="transition.threads">0</property>
    </filter>
    <filter id="filter231" in="00:02:01.720000" out="00:02:08.000000">
      <property name="window">75</property>
      <property name="max_gain">20dB</property>
      <property name="mlt_service">volume</property>
      <property name="shotcut:filter">muteVolume</property>
      <property name="gain">0</property>
    </filter>
  </producer>
  <playlist id="playlist18">
    <property name="shotcut:video">1</property>
    <property name="shotcut:name">Violette</property>
    <property name="shotcut:lock">1</property>
    <blank length="00:01:55.000000" />
    <entry in="00:01:41.040000" out="00:01:44.600000" producer="producer115" />
    <entry in="00:01:44.640000" out="00:01:48.000000" producer="producer116" />
    <entry in="00:01:48.040000" out="00:01:51.440000" producer="producer117" />
    <entry in="00:01:51.480000" out="00:01:54.840000" producer="producer118" />
    <entry in="00:01:54.880000" out="00:01:58.280000" producer="producer119" />
    <entry in="00:01:58.320000" out="00:02:01.680000" producer="producer120" />
    <entry in="00:02:01.720000" out="00:02:08.000000" producer="producer121" />
    <filter id="filter232" out="00:03:23.320">
      <property name="window">75</property>
      <property name="max_gain">20dB</property>
      <property name="level">-10</property>
      <property name="mlt_service">volume</property>
    </filter>
  </playlist>
  <producer id="producer122" in="00:00:00.000" out="00:03:41.120" title="Anonymous Submission">
    <property name="length">00:03:41:04</property>
    <property name="eof">pause</property>
    <property name="resource">../../006 - Videos format youtube/Cor/Andr&#233;_cor_totoro.mp4</property>
    <property name="audio_index">1</property>
    <property name="video_index">0</property>
    <property name="mute_on_pause">0</property>
    <property name="mlt_service">avformat-novalidate</property>
    <property name="seekable">1</property>
    <property name="aspect_ratio">1</property>
    <property name="shotcut:hash">8728c09feae42f34c50f8e6c186504c9</property>
    <property name="ignore_points">0</property>
    <property name="shotcut:caption">Andr&#233;_cor_totoro.mp4</property>
    <property name="shotcut:skipConvert">1</property>
    <property name="global_feed">1</property>
    <property name="xml">was here</property>
    <filter id="filter233" in="00:02:12.960000" out="00:02:16.520000">
      <property name="background">colour:0</property>
      <property name="mlt_service">affine</property>
      <property name="shotcut:filter">affineSizePosition</property>
      <property name="transition.fill">1</property>
      <property name="transition.distort">0</property>
      <property name="transition.rect">-1910.0 -1074.5 -9.0 -4.5 1</property>
      <property name="transition.valign">top</property>
      <property name="transition.halign">left</property>
      <property name="shotcut:animIn">00:00:00.000</property>
      <property name="shotcut:animOut">00:00:00.000</property>
      <property name="transition.threads">0</property>
    </filter>
    <filter id="filter234" in="00:02:12.960000" out="00:02:16.520000">
      <property name="window">75</property>
      <property name="max_gain">20dB</property>
      <property name="mlt_service">volume</property>
      <property name="shotcut:filter">muteVolume</property>
      <property name="gain">0</property>
    </filter>
  </producer>
  <producer id="producer123" in="00:00:00.000" out="00:03:41.120" title="Anonymous Submission">
    <property name="length">00:03:41:04</property>
    <property name="eof">pause</property>
    <property name="resource">../../006 - Videos format youtube/Cor/Andr&#233;_cor_totoro.mp4</property>
    <property name="audio_index">1</property>
    <property name="video_index">0</property>
    <property name="mute_on_pause">0</property>
    <property name="mlt_service">avformat-novalidate</property>
    <property name="seekable">1</property>
    <property name="aspect_ratio">1</property>
    <property name="shotcut:hash">8728c09feae42f34c50f8e6c186504c9</property>
    <property name="ignore_points">0</property>
    <property name="shotcut:caption">Andr&#233;_cor_totoro.mp4</property>
    <property name="shotcut:skipConvert">1</property>
    <property name="global_feed">1</property>
    <property name="xml">was here</property>
    <filter id="filter235" in="00:02:16.560000" out="00:02:19.920000">
      <property name="background">colour:0</property>
      <property name="mlt_service">affine</property>
      <property name="shotcut:filter">affineSizePosition</property>
      <property name="transition.fill">1</property>
      <property name="transition.distort">0</property>
      <property name="transition.rect">00:00:00.000000=-1900.0 -1068.5 -18.0 -9.5 1;00:00:00.360000=906.0 509.5 119.0 67.5 1</property>
      <property name="transition.valign">top</property>
      <property name="transition.halign">left</property>
      <property name="shotcut:animIn">00:00:00.400000</property>
      <property name="shotcut:animOut">00:00:00.000</property>
      <property name="transition.threads">0</property>
    </filter>
    <filter id="filter236" in="00:02:16.560000" out="00:02:19.920000">
      <property name="window">75</property>
      <property name="max_gain">20dB</property>
      <property name="mlt_service">volume</property>
      <property name="shotcut:filter">muteVolume</property>
      <property name="gain">0</property>
    </filter>
  </producer>
  <producer id="producer124" in="00:00:00.000" out="00:03:41.120" title="Anonymous Submission">
    <property name="length">00:03:41:04</property>
    <property name="eof">pause</property>
    <property name="resource">../../006 - Videos format youtube/Cor/Andr&#233;_cor_totoro.mp4</property>
    <property name="audio_index">1</property>
    <property name="video_index">0</property>
    <property name="mute_on_pause">0</property>
    <property name="mlt_service">avformat-novalidate</property>
    <property name="seekable">1</property>
    <property name="aspect_ratio">1</property>
    <property name="shotcut:hash">8728c09feae42f34c50f8e6c186504c9</property>
    <property name="ignore_points">0</property>
    <property name="shotcut:caption">Andr&#233;_cor_totoro.mp4</property>
    <property name="shotcut:skipConvert">1</property>
    <property name="global_feed">1</property>
    <property name="xml">was here</property>
    <filter id="filter237" in="00:02:19.960000" out="00:02:23.360000">
      <property name="background">colour:0</property>
      <property name="mlt_service">affine</property>
      <property name="shotcut:filter">affineSizePosition</property>
      <property name="transition.fill">1</property>
      <property name="transition.distort">0</property>
      <property name="transition.rect">00:00:00.000000=960.0 546.0 4.0 2.0 1;00:00:00.360000=998.0 820.0 167.0 94.0 1</property>
      <property name="transition.valign">top</property>
      <property name="transition.halign">left</property>
      <property name="shotcut:animIn">00:00:00.400000</property>
      <property name="shotcut:animOut">00:00:00.000</property>
      <property name="transition.threads">0</property>
    </filter>
    <filter id="filter238" in="00:02:19.960000" out="00:02:23.360000">
      <property name="window">75</property>
      <property name="max_gain">20dB</property>
      <property name="mlt_service">volume</property>
      <property name="shotcut:filter">muteVolume</property>
      <property name="gain">0</property>
    </filter>
  </producer>
  <producer id="producer125" in="00:00:00.000" out="00:03:41.120" title="Anonymous Submission">
    <property name="length">00:03:41:04</property>
    <property name="eof">pause</property>
    <property name="resource">../../006 - Videos format youtube/Cor/Andr&#233;_cor_totoro.mp4</property>
    <property name="audio_index">1</property>
    <property name="video_index">0</property>
    <property name="mute_on_pause">0</property>
    <property name="mlt_service">avformat-novalidate</property>
    <property name="seekable">1</property>
    <property name="aspect_ratio">1</property>
    <property name="shotcut:hash">8728c09feae42f34c50f8e6c186504c9</property>
    <property name="ignore_points">0</property>
    <property name="shotcut:caption">Andr&#233;_cor_totoro.mp4</property>
    <property name="shotcut:skipConvert">1</property>
    <property name="global_feed">1</property>
    <property name="xml">was here</property>
    <filter id="filter239" in="00:02:23.400000" out="00:02:26.760000">
      <property name="background">colour:0</property>
      <property name="mlt_service">affine</property>
      <property name="shotcut:filter">affineSizePosition</property>
      <property name="transition.fill">1</property>
      <property name="transition.distort">0</property>
      <property name="transition.rect">00:00:00.000000=1008.0 825.5 158.0 88.5 1;00:00:00.360000=906.0 77.5 119.0 67.5 1</property>
      <property name="transition.valign">top</property>
      <property name="transition.halign">left</property>
      <property name="shotcut:animIn">00:00:00.400000</property>
      <property name="shotcut:animOut">00:00:00.000</property>
      <property name="transition.threads">0</property>
    </filter>
    <filter id="filter240" in="00:02:23.400000" out="00:02:26.760000">
      <property name="window">75</property>
      <property name="max_gain">20dB</property>
      <property name="mlt_service">volume</property>
      <property name="shotcut:filter">muteVolume</property>
      <property name="gain">0</property>
    </filter>
  </producer>
  <producer id="producer126" in="00:00:00.000" out="00:03:41.120" title="Anonymous Submission">
    <property name="length">00:03:41:04</property>
    <property name="eof">pause</property>
    <property name="resource">../../006 - Videos format youtube/Cor/Andr&#233;_cor_totoro.mp4</property>
    <property name="audio_index">1</property>
    <property name="video_index">0</property>
    <property name="mute_on_pause">0</property>
    <property name="mlt_service">avformat-novalidate</property>
    <property name="seekable">1</property>
    <property name="aspect_ratio">1</property>
    <property name="shotcut:hash">8728c09feae42f34c50f8e6c186504c9</property>
    <property name="ignore_points">0</property>
    <property name="shotcut:caption">Andr&#233;_cor_totoro.mp4</property>
    <property name="shotcut:skipConvert">1</property>
    <property name="global_feed">1</property>
    <property name="xml">was here</property>
    <filter id="filter241" in="00:02:26.800000" out="00:02:30.200000">
      <property name="background">colour:0</property>
      <property name="mlt_service">affine</property>
      <property name="shotcut:filter">affineSizePosition</property>
      <property name="transition.fill">1</property>
      <property name="transition.distort">0</property>
      <property name="transition.rect">842.0 365.5 119.0 67.5 1</property>
      <property name="transition.valign">top</property>
      <property name="transition.halign">left</property>
      <property name="shotcut:animIn">00:00:00.400000</property>
      <property name="shotcut:animOut">00:00:00.000</property>
      <property name="transition.threads">0</property>
    </filter>
    <filter id="filter242" in="00:02:26.800000" out="00:02:30.200000">
      <property name="window">75</property>
      <property name="max_gain">20dB</property>
      <property name="mlt_service">volume</property>
      <property name="shotcut:filter">muteVolume</property>
      <property name="gain">0</property>
    </filter>
  </producer>
  <producer id="producer127" in="00:00:00.000" out="00:03:41.120" title="Anonymous Submission">
    <property name="length">00:03:41:04</property>
    <property name="eof">pause</property>
    <property name="resource">../../006 - Videos format youtube/Cor/Andr&#233;_cor_totoro.mp4</property>
    <property name="audio_index">1</property>
    <property name="video_index">0</property>
    <property name="mute_on_pause">0</property>
    <property name="mlt_service">avformat-novalidate</property>
    <property name="seekable">1</property>
    <property name="aspect_ratio">1</property>
    <property name="shotcut:hash">8728c09feae42f34c50f8e6c186504c9</property>
    <property name="ignore_points">0</property>
    <property name="shotcut:caption">Andr&#233;_cor_totoro.mp4</property>
    <property name="shotcut:skipConvert">1</property>
    <property name="global_feed">1</property>
    <property name="xml">was here</property>
    <filter id="filter243" in="00:02:30.240000" out="00:02:33.600000">
      <property name="background">colour:0</property>
      <property name="mlt_service">affine</property>
      <property name="shotcut:filter">affineSizePosition</property>
      <property name="transition.fill">1</property>
      <property name="transition.distort">0</property>
      <property name="transition.rect">00:00:00.000000=852.0 370.5 110.0 61.5 1;00:00:00.360000=1098.0 221.5 119.0 67.5 1</property>
      <property name="transition.valign">top</property>
      <property name="transition.halign">left</property>
      <property name="shotcut:animIn">00:00:00.400000</property>
      <property name="shotcut:animOut">00:00:00.000</property>
      <property name="transition.threads">0</property>
    </filter>
    <filter id="filter244" in="00:02:30.240000" out="00:02:33.600000">
      <property name="window">75</property>
      <property name="max_gain">20dB</property>
      <property name="mlt_service">volume</property>
      <property name="shotcut:filter">muteVolume</property>
      <property name="gain">0</property>
    </filter>
  </producer>
  <producer id="producer128" in="00:00:00.000" out="00:03:41.120" title="Anonymous Submission">
    <property name="length">00:03:41:04</property>
    <property name="eof">pause</property>
    <property name="resource">../../006 - Videos format youtube/Cor/Andr&#233;_cor_totoro.mp4</property>
    <property name="audio_index">1</property>
    <property name="video_index">0</property>
    <property name="mute_on_pause">0</property>
    <property name="mlt_service">avformat-novalidate</property>
    <property name="seekable">1</property>
    <property name="aspect_ratio">1</property>
    <property name="shotcut:hash">8728c09feae42f34c50f8e6c186504c9</property>
    <property name="ignore_points">0</property>
    <property name="shotcut:caption">Andr&#233;_cor_totoro.mp4</property>
    <property name="shotcut:skipConvert">1</property>
    <property name="global_feed">1</property>
    <property name="xml">was here</property>
    <filter id="filter245" in="00:02:33.640000" out="00:02:39.920000">
      <property name="background">colour:0</property>
      <property name="mlt_service">affine</property>
      <property name="shotcut:filter">affineSizePosition</property>
      <property name="transition.fill">1</property>
      <property name="transition.distort">0</property>
      <property name="transition.rect">00:00:00.000000=1108.0 226.5 110.0 61.5 1;00:00:00.360000=1226.0 293.5 119.0 67.5 1</property>
      <property name="transition.valign">top</property>
      <property name="transition.halign">left</property>
      <property name="shotcut:animIn">00:00:00.400000</property>
      <property name="shotcut:animOut">00:00:00.000</property>
      <property name="transition.threads">0</property>
    </filter>
    <filter id="filter246" in="00:02:33.640000" out="00:02:39.920000">
      <property name="window">75</property>
      <property name="max_gain">20dB</property>
      <property name="mlt_service">volume</property>
      <property name="shotcut:filter">muteVolume</property>
      <property name="gain">0</property>
    </filter>
  </producer>
  <playlist id="playlist19">
    <property name="shotcut:video">1</property>
    <property name="shotcut:name">Andr&#233; cor</property>
    <property name="shotcut:lock">1</property>
    <blank length="00:01:55.000000" />
    <entry in="00:02:12.960000" out="00:02:16.520000" producer="producer122" />
    <entry in="00:02:16.560000" out="00:02:19.920000" producer="producer123" />
    <entry in="00:02:19.960000" out="00:02:23.360000" producer="producer124" />
    <entry in="00:02:23.400000" out="00:02:26.760000" producer="producer125" />
    <entry in="00:02:26.800000" out="00:02:30.200000" producer="producer126" />
    <entry in="00:02:30.240000" out="00:02:33.600000" producer="producer127" />
    <entry in="00:02:33.640000" out="00:02:39.920000" producer="producer128" />
    <filter id="filter247" out="00:03:23.160">
      <property name="window">75</property>
      <property name="max_gain">20dB</property>
      <property name="level">-8</property>
      <property name="mlt_service">volume</property>
    </filter>
  </playlist>
  <producer id="producer129" in="00:00:00.000" out="00:03:09.320" title="Anonymous Submission">
    <property name="length">00:03:09:09</property>
    <property name="eof">pause</property>
    <property name="resource">../../006 - Videos format youtube/Cor/Myrtille_cor_totoro.mp4</property>
    <property name="audio_index">1</property>
    <property name="video_index">0</property>
    <property name="mute_on_pause">0</property>
    <property name="mlt_service">avformat-novalidate</property>
    <property name="seekable">1</property>
    <property name="aspect_ratio">1</property>
    <property name="creation_time">2020-04-21T06:33:53</property>
    <property name="shotcut:hash">010e5be869f07125ac95af97a3278e87</property>
    <property name="ignore_points">0</property>
    <property name="shotcut:caption">Myrtille_cor_totoro.mp4</property>
    <property name="shotcut:skipConvert">1</property>
    <property name="global_feed">1</property>
    <property name="xml">was here</property>
    <filter id="filter248" in="00:01:48.400000" out="00:01:51.960000">
      <property name="background">colour:0</property>
      <property name="mlt_service">affine</property>
      <property name="shotcut:filter">affineSizePosition</property>
      <property name="transition.fill">1</property>
      <property name="transition.distort">0</property>
      <property name="transition.rect">-1910.0 -1074.5 -9.0 -4.5 1</property>
      <property name="transition.valign">top</property>
      <property name="transition.halign">left</property>
      <property name="shotcut:animIn">00:00:00.000</property>
      <property name="shotcut:animOut">00:00:00.000</property>
      <property name="transition.threads">0</property>
    </filter>
    <filter id="filter249" in="00:01:48.400000" out="00:01:51.960000">
      <property name="window">75</property>
      <property name="max_gain">20dB</property>
      <property name="mlt_service">volume</property>
      <property name="shotcut:filter">muteVolume</property>
      <property name="gain">0</property>
    </filter>
  </producer>
  <producer id="producer130" in="00:00:00.000" out="00:03:09.320" title="Anonymous Submission">
    <property name="length">00:03:09:09</property>
    <property name="eof">pause</property>
    <property name="resource">../../006 - Videos format youtube/Cor/Myrtille_cor_totoro.mp4</property>
    <property name="audio_index">1</property>
    <property name="video_index">0</property>
    <property name="mute_on_pause">0</property>
    <property name="mlt_service">avformat-novalidate</property>
    <property name="seekable">1</property>
    <property name="aspect_ratio">1</property>
    <property name="creation_time">2020-04-21T06:33:53</property>
    <property name="shotcut:hash">010e5be869f07125ac95af97a3278e87</property>
    <property name="ignore_points">0</property>
    <property name="shotcut:caption">Myrtille_cor_totoro.mp4</property>
    <property name="shotcut:skipConvert">1</property>
    <property name="global_feed">1</property>
    <property name="xml">was here</property>
    <filter id="filter250" in="00:01:52.000000" out="00:01:55.360000">
      <property name="background">colour:0</property>
      <property name="mlt_service">affine</property>
      <property name="shotcut:filter">affineSizePosition</property>
      <property name="transition.fill">1</property>
      <property name="transition.distort">0</property>
      <property name="transition.rect">00:00:00.000000=-1900.0 -1068.5 -18.0 -9.5 1;00:00:00.360000=777.0 581.5 119.0 67.5 1</property>
      <property name="transition.valign">top</property>
      <property name="transition.halign">left</property>
      <property name="shotcut:animIn">00:00:00.400000</property>
      <property name="shotcut:animOut">00:00:00.000</property>
      <property name="transition.threads">0</property>
    </filter>
    <filter id="filter251" in="00:01:52.000000" out="00:01:55.360000">
      <property name="window">75</property>
      <property name="max_gain">20dB</property>
      <property name="mlt_service">volume</property>
      <property name="shotcut:filter">muteVolume</property>
      <property name="gain">0</property>
    </filter>
  </producer>
  <producer id="producer131" in="00:00:00.000" out="00:03:09.320" title="Anonymous Submission">
    <property name="length">00:03:09:09</property>
    <property name="eof">pause</property>
    <property name="resource">../../006 - Videos format youtube/Cor/Myrtille_cor_totoro.mp4</property>
    <property name="audio_index">1</property>
    <property name="video_index">0</property>
    <property name="mute_on_pause">0</property>
    <property name="mlt_service">avformat-novalidate</property>
    <property name="seekable">1</property>
    <property name="aspect_ratio">1</property>
    <property name="creation_time">2020-04-21T06:33:53</property>
    <property name="shotcut:hash">010e5be869f07125ac95af97a3278e87</property>
    <property name="ignore_points">0</property>
    <property name="shotcut:caption">Myrtille_cor_totoro.mp4</property>
    <property name="shotcut:skipConvert">1</property>
    <property name="global_feed">1</property>
    <property name="xml">was here</property>
    <filter id="filter252" in="00:01:55.400000" out="00:01:58.800000">
      <property name="background">colour:0</property>
      <property name="mlt_service">affine</property>
      <property name="shotcut:filter">affineSizePosition</property>
      <property name="transition.fill">1</property>
      <property name="transition.distort">0</property>
      <property name="transition.rect">-1920.0 -1080.0 1.0 1.0 1</property>
      <property name="transition.valign">top</property>
      <property name="transition.halign">left</property>
      <property name="shotcut:animIn">00:00:00.400000</property>
      <property name="shotcut:animOut">00:00:00.000</property>
      <property name="transition.threads">0</property>
    </filter>
    <filter id="filter253" in="00:01:55.400000" out="00:01:58.800000">
      <property name="window">75</property>
      <property name="max_gain">20dB</property>
      <property name="mlt_service">volume</property>
      <property name="shotcut:filter">muteVolume</property>
      <property name="gain">0</property>
    </filter>
  </producer>
  <producer id="producer132" in="00:00:00.000" out="00:03:09.320" title="Anonymous Submission">
    <property name="length">00:03:09:09</property>
    <property name="eof">pause</property>
    <property name="resource">../../006 - Videos format youtube/Cor/Myrtille_cor_totoro.mp4</property>
    <property name="audio_index">1</property>
    <property name="video_index">0</property>
    <property name="mute_on_pause">0</property>
    <property name="mlt_service">avformat-novalidate</property>
    <property name="seekable">1</property>
    <property name="aspect_ratio">1</property>
    <property name="creation_time">2020-04-21T06:33:53</property>
    <property name="shotcut:hash">010e5be869f07125ac95af97a3278e87</property>
    <property name="ignore_points">0</property>
    <property name="shotcut:caption">Myrtille_cor_totoro.mp4</property>
    <property name="shotcut:skipConvert">1</property>
    <property name="global_feed">1</property>
    <property name="xml">was here</property>
    <filter id="filter254" in="00:01:58.840000" out="00:02:02.200000">
      <property name="background">colour:0</property>
      <property name="mlt_service">affine</property>
      <property name="shotcut:filter">affineSizePosition</property>
      <property name="transition.fill">1</property>
      <property name="transition.distort">0</property>
      <property name="transition.rect">-1910.0 -1074.5 -9.0 -4.5 1</property>
      <property name="transition.valign">top</property>
      <property name="transition.halign">left</property>
      <property name="shotcut:animIn">00:00:00.400000</property>
      <property name="shotcut:animOut">00:00:00.000</property>
      <property name="transition.threads">0</property>
    </filter>
    <filter id="filter255" in="00:01:58.840000" out="00:02:02.200000">
      <property name="window">75</property>
      <property name="max_gain">20dB</property>
      <property name="mlt_service">volume</property>
      <property name="shotcut:filter">muteVolume</property>
      <property name="gain">0</property>
    </filter>
  </producer>
  <producer id="producer133" in="00:00:00.000" out="00:03:09.320" title="Anonymous Submission">
    <property name="length">00:03:09:09</property>
    <property name="eof">pause</property>
    <property name="resource">../../006 - Videos format youtube/Cor/Myrtille_cor_totoro.mp4</property>
    <property name="audio_index">1</property>
    <property name="video_index">0</property>
    <property name="mute_on_pause">0</property>
    <property name="mlt_service">avformat-novalidate</property>
    <property name="seekable">1</property>
    <property name="aspect_ratio">1</property>
    <property name="creation_time">2020-04-21T06:33:53</property>
    <property name="shotcut:hash">010e5be869f07125ac95af97a3278e87</property>
    <property name="ignore_points">0</property>
    <property name="shotcut:caption">Myrtille_cor_totoro.mp4</property>
    <property name="shotcut:skipConvert">1</property>
    <property name="global_feed">1</property>
    <property name="xml">was here</property>
    <filter id="filter256" in="00:02:02.240000" out="00:02:05.640000">
      <property name="background">colour:0</property>
      <property name="mlt_service">affine</property>
      <property name="shotcut:filter">affineSizePosition</property>
      <property name="transition.fill">1</property>
      <property name="transition.distort">0</property>
      <property name="transition.rect">970.0 365.5 119.0 67.5 1</property>
      <property name="transition.valign">top</property>
      <property name="transition.halign">left</property>
      <property name="shotcut:animIn">00:00:00.400000</property>
      <property name="shotcut:animOut">00:00:00.000</property>
      <property name="transition.threads">0</property>
    </filter>
    <filter id="filter257" in="00:02:02.240000" out="00:02:05.640000">
      <property name="window">75</property>
      <property name="max_gain">20dB</property>
      <property name="mlt_service">volume</property>
      <property name="shotcut:filter">muteVolume</property>
      <property name="gain">0</property>
    </filter>
  </producer>
  <producer id="producer134" in="00:00:00.000" out="00:03:09.320" title="Anonymous Submission">
    <property name="length">00:03:09:09</property>
    <property name="eof">pause</property>
    <property name="resource">../../006 - Videos format youtube/Cor/Myrtille_cor_totoro.mp4</property>
    <property name="audio_index">1</property>
    <property name="video_index">0</property>
    <property name="mute_on_pause">0</property>
    <property name="mlt_service">avformat-novalidate</property>
    <property name="seekable">1</property>
    <property name="aspect_ratio">1</property>
    <property name="creation_time">2020-04-21T06:33:53</property>
    <property name="shotcut:hash">010e5be869f07125ac95af97a3278e87</property>
    <property name="ignore_points">0</property>
    <property name="shotcut:caption">Myrtille_cor_totoro.mp4</property>
    <property name="shotcut:skipConvert">1</property>
    <property name="global_feed">1</property>
    <property name="xml">was here</property>
    <filter id="filter258" in="00:02:05.680000" out="00:02:09.040000">
      <property name="background">colour:0</property>
      <property name="mlt_service">affine</property>
      <property name="shotcut:filter">affineSizePosition</property>
      <property name="transition.fill">1</property>
      <property name="transition.distort">0</property>
      <property name="transition.rect">778.0 941.5 119.0 67.5 1</property>
      <property name="transition.valign">top</property>
      <property name="transition.halign">left</property>
      <property name="shotcut:animIn">00:00:00.400000</property>
      <property name="shotcut:animOut">00:00:00.000</property>
      <property name="transition.threads">0</property>
    </filter>
    <filter id="filter259" in="00:02:05.680000" out="00:02:09.040000">
      <property name="window">75</property>
      <property name="max_gain">20dB</property>
      <property name="mlt_service">volume</property>
      <property name="shotcut:filter">muteVolume</property>
      <property name="gain">0</property>
    </filter>
  </producer>
  <producer id="producer135" in="00:00:00.000" out="00:03:09.320" title="Anonymous Submission">
    <property name="length">00:03:09:09</property>
    <property name="eof">pause</property>
    <property name="resource">../../006 - Videos format youtube/Cor/Myrtille_cor_totoro.mp4</property>
    <property name="audio_index">1</property>
    <property name="video_index">0</property>
    <property name="mute_on_pause">0</property>
    <property name="mlt_service">avformat-novalidate</property>
    <property name="seekable">1</property>
    <property name="aspect_ratio">1</property>
    <property name="creation_time">2020-04-21T06:33:53</property>
    <property name="shotcut:hash">010e5be869f07125ac95af97a3278e87</property>
    <property name="ignore_points">0</property>
    <property name="shotcut:caption">Myrtille_cor_totoro.mp4</property>
    <property name="shotcut:skipConvert">1</property>
    <property name="global_feed">1</property>
    <property name="xml">was here</property>
    <filter id="filter260" in="00:02:09.080000" out="00:02:15.360000">
      <property name="background">colour:0</property>
      <property name="mlt_service">affine</property>
      <property name="shotcut:filter">affineSizePosition</property>
      <property name="transition.fill">1</property>
      <property name="transition.distort">0</property>
      <property name="transition.rect">00:00:00.000000=788.0 946.5 110.0 61.5 1;00:00:00.360000=714.0 653.5 119.0 67.5 1</property>
      <property name="transition.valign">top</property>
      <property name="transition.halign">left</property>
      <property name="shotcut:animIn">00:00:00.400000</property>
      <property name="shotcut:animOut">00:00:00.000</property>
      <property name="transition.threads">0</property>
    </filter>
    <filter id="filter261" in="00:02:09.080000" out="00:02:15.360000">
      <property name="window">75</property>
      <property name="max_gain">20dB</property>
      <property name="mlt_service">volume</property>
      <property name="shotcut:filter">muteVolume</property>
      <property name="gain">0</property>
    </filter>
  </producer>
  <playlist id="playlist20">
    <property name="shotcut:video">1</property>
    <property name="shotcut:name">V4</property>
    <property name="shotcut:lock">1</property>
    <blank length="00:01:55.000000" />
    <entry in="00:01:48.400000" out="00:01:51.960000" producer="producer129" />
    <entry in="00:01:52.000000" out="00:01:55.360000" producer="producer130" />
    <entry in="00:01:55.400000" out="00:01:58.800000" producer="producer131" />
    <entry in="00:01:58.840000" out="00:02:02.200000" producer="producer132" />
    <entry in="00:02:02.240000" out="00:02:05.640000" producer="producer133" />
    <entry in="00:02:05.680000" out="00:02:09.040000" producer="producer134" />
    <entry in="00:02:09.080000" out="00:02:15.360000" producer="producer135" />
    <filter id="filter262" out="00:03:23.160">
      <property name="window">75</property>
      <property name="max_gain">20dB</property>
      <property name="level">-11</property>
      <property name="mlt_service">volume</property>
    </filter>
  </playlist>
  <producer id="producer136" in="00:00:00.000" out="00:03:19.240" title="Anonymous Submission">
    <property name="length">00:03:19:07</property>
    <property name="eof">pause</property>
    <property name="resource">../../006 - Videos format youtube/Flutes/Alain_flute_totoro.mp4</property>
    <property name="audio_index">1</property>
    <property name="video_index">0</property>
    <property name="mute_on_pause">0</property>
    <property name="mlt_service">avformat-novalidate</property>
    <property name="seekable">1</property>
    <property name="aspect_ratio">1</property>
    <property name="creation_time">2020-04-08T16:32:02</property>
    <property name="shotcut:hash">e4470a14bf088b76cf4b34d8127e4e51</property>
    <property name="ignore_points">0</property>
    <property name="shotcut:caption">Alain_flute_totoro.mp4</property>
    <property name="shotcut:skipConvert">1</property>
    <property name="global_feed">1</property>
    <property name="xml">was here</property>
    <filter id="filter263" in="00:01:52.920000" out="00:01:56.480000">
      <property name="background">colour:0</property>
      <property name="mlt_service">affine</property>
      <property name="shotcut:filter">affineSizePosition</property>
      <property name="transition.fill">1</property>
      <property name="transition.distort">0</property>
      <property name="transition.rect">-1910.0 -1074.5 -9.0 -4.5 1</property>
      <property name="transition.valign">top</property>
      <property name="transition.halign">left</property>
      <property name="shotcut:animIn">00:00:00.000</property>
      <property name="shotcut:animOut">00:00:00.000</property>
      <property name="transition.threads">0</property>
    </filter>
    <filter id="filter264" in="00:01:52.920000" out="00:01:56.480000">
      <property name="window">75</property>
      <property name="max_gain">20dB</property>
      <property name="mlt_service">volume</property>
      <property name="shotcut:filter">muteVolume</property>
      <property name="gain">0</property>
    </filter>
  </producer>
  <producer id="producer137" in="00:00:00.000" out="00:03:19.240" title="Anonymous Submission">
    <property name="length">00:03:19:07</property>
    <property name="eof">pause</property>
    <property name="resource">../../006 - Videos format youtube/Flutes/Alain_flute_totoro.mp4</property>
    <property name="audio_index">1</property>
    <property name="video_index">0</property>
    <property name="mute_on_pause">0</property>
    <property name="mlt_service">avformat-novalidate</property>
    <property name="seekable">1</property>
    <property name="aspect_ratio">1</property>
    <property name="creation_time">2020-04-08T16:32:02</property>
    <property name="shotcut:hash">e4470a14bf088b76cf4b34d8127e4e51</property>
    <property name="ignore_points">0</property>
    <property name="shotcut:caption">Alain_flute_totoro.mp4</property>
    <property name="shotcut:skipConvert">1</property>
    <property name="global_feed">1</property>
    <property name="xml">was here</property>
    <filter id="filter265" in="00:01:56.520000" out="00:01:59.880000">
      <property name="background">colour:0</property>
      <property name="mlt_service">affine</property>
      <property name="shotcut:filter">affineSizePosition</property>
      <property name="transition.fill">1</property>
      <property name="transition.distort">0</property>
      <property name="transition.rect">00:00:00.000000=-1900.0 -1068.5 -18.0 -9.5 1;00:00:00.360000=906.0 581.5 119.0 67.5 1</property>
      <property name="transition.valign">top</property>
      <property name="transition.halign">left</property>
      <property name="shotcut:animIn">00:00:00.400000</property>
      <property name="shotcut:animOut">00:00:00.000</property>
      <property name="transition.threads">0</property>
    </filter>
    <filter id="filter266" in="00:01:56.520000" out="00:01:59.880000">
      <property name="window">75</property>
      <property name="max_gain">20dB</property>
      <property name="mlt_service">volume</property>
      <property name="shotcut:filter">muteVolume</property>
      <property name="gain">0</property>
    </filter>
  </producer>
  <producer id="producer138" in="00:00:00.000" out="00:03:19.240" title="Anonymous Submission">
    <property name="length">00:03:19:07</property>
    <property name="eof">pause</property>
    <property name="resource">../../006 - Videos format youtube/Flutes/Alain_flute_totoro.mp4</property>
    <property name="audio_index">1</property>
    <property name="video_index">0</property>
    <property name="mute_on_pause">0</property>
    <property name="mlt_service">avformat-novalidate</property>
    <property name="seekable">1</property>
    <property name="aspect_ratio">1</property>
    <property name="creation_time">2020-04-08T16:32:02</property>
    <property name="shotcut:hash">e4470a14bf088b76cf4b34d8127e4e51</property>
    <property name="ignore_points">0</property>
    <property name="shotcut:caption">Alain_flute_totoro.mp4</property>
    <property name="shotcut:skipConvert">1</property>
    <property name="global_feed">1</property>
    <property name="xml">was here</property>
    <filter id="filter267" in="00:01:59.920000" out="00:02:03.320000">
      <property name="background">colour:0</property>
      <property name="mlt_service">affine</property>
      <property name="shotcut:filter">affineSizePosition</property>
      <property name="transition.fill">1</property>
      <property name="transition.distort">0</property>
      <property name="transition.rect">00:00:00.000000=961.0 545.0 4.0 2.0 1;00:00:00.360000=1081.0 727.0 167.0 94.0 1</property>
      <property name="transition.valign">top</property>
      <property name="transition.halign">left</property>
      <property name="shotcut:animIn">00:00:00.400000</property>
      <property name="shotcut:animOut">00:00:00.000</property>
      <property name="transition.threads">0</property>
    </filter>
    <filter id="filter268" in="00:01:59.920000" out="00:02:03.320000">
      <property name="window">75</property>
      <property name="max_gain">20dB</property>
      <property name="mlt_service">volume</property>
      <property name="shotcut:filter">muteVolume</property>
      <property name="gain">0</property>
    </filter>
  </producer>
  <producer id="producer139" in="00:00:00.000" out="00:03:19.240" title="Anonymous Submission">
    <property name="length">00:03:19:07</property>
    <property name="eof">pause</property>
    <property name="resource">../../006 - Videos format youtube/Flutes/Alain_flute_totoro.mp4</property>
    <property name="audio_index">1</property>
    <property name="video_index">0</property>
    <property name="mute_on_pause">0</property>
    <property name="mlt_service">avformat-novalidate</property>
    <property name="seekable">1</property>
    <property name="aspect_ratio">1</property>
    <property name="creation_time">2020-04-08T16:32:02</property>
    <property name="shotcut:hash">e4470a14bf088b76cf4b34d8127e4e51</property>
    <property name="ignore_points">0</property>
    <property name="shotcut:caption">Alain_flute_totoro.mp4</property>
    <property name="shotcut:skipConvert">1</property>
    <property name="global_feed">1</property>
    <property name="xml">was here</property>
    <filter id="filter269" in="00:02:03.360000" out="00:02:06.720000">
      <property name="background">colour:0</property>
      <property name="mlt_service">affine</property>
      <property name="shotcut:filter">affineSizePosition</property>
      <property name="transition.fill">1</property>
      <property name="transition.distort">0</property>
      <property name="transition.rect">00:00:00.000000=1091.0 732.5 158.0 88.5 1;00:00:00.360000=650.0 293.5 119.0 67.5 1</property>
      <property name="transition.valign">top</property>
      <property name="transition.halign">left</property>
      <property name="shotcut:animIn">00:00:00.400000</property>
      <property name="shotcut:animOut">00:00:00.000</property>
      <property name="transition.threads">0</property>
    </filter>
    <filter id="filter270" in="00:02:03.360000" out="00:02:06.720000">
      <property name="window">75</property>
      <property name="max_gain">20dB</property>
      <property name="mlt_service">volume</property>
      <property name="shotcut:filter">muteVolume</property>
      <property name="gain">0</property>
    </filter>
  </producer>
  <producer id="producer140" in="00:00:00.000" out="00:03:19.240" title="Anonymous Submission">
    <property name="length">00:03:19:07</property>
    <property name="eof">pause</property>
    <property name="resource">../../006 - Videos format youtube/Flutes/Alain_flute_totoro.mp4</property>
    <property name="audio_index">1</property>
    <property name="video_index">0</property>
    <property name="mute_on_pause">0</property>
    <property name="mlt_service">avformat-novalidate</property>
    <property name="seekable">1</property>
    <property name="aspect_ratio">1</property>
    <property name="creation_time">2020-04-08T16:32:02</property>
    <property name="shotcut:hash">e4470a14bf088b76cf4b34d8127e4e51</property>
    <property name="ignore_points">0</property>
    <property name="shotcut:caption">Alain_flute_totoro.mp4</property>
    <property name="shotcut:skipConvert">1</property>
    <property name="global_feed">1</property>
    <property name="xml">was here</property>
    <filter id="filter271" in="00:02:06.760000" out="00:02:10.160000">
      <property name="background">colour:0</property>
      <property name="mlt_service">affine</property>
      <property name="shotcut:filter">affineSizePosition</property>
      <property name="transition.fill">1</property>
      <property name="transition.distort">0</property>
      <property name="transition.rect">00:00:00.000000=660.0 298.5 110.0 61.5 1;00:00:00.360000=1290.0 365.5 119.0 67.5 1</property>
      <property name="transition.valign">top</property>
      <property name="transition.halign">left</property>
      <property name="shotcut:animIn">00:00:00.400000</property>
      <property name="shotcut:animOut">00:00:00.000</property>
      <property name="transition.threads">0</property>
    </filter>
    <filter id="filter272" in="00:02:06.760000" out="00:02:10.160000">
      <property name="window">75</property>
      <property name="max_gain">20dB</property>
      <property name="mlt_service">volume</property>
      <property name="shotcut:filter">muteVolume</property>
      <property name="gain">0</property>
    </filter>
  </producer>
  <producer id="producer141" in="00:00:00.000" out="00:03:19.240" title="Anonymous Submission">
    <property name="length">00:03:19:07</property>
    <property name="eof">pause</property>
    <property name="resource">../../006 - Videos format youtube/Flutes/Alain_flute_totoro.mp4</property>
    <property name="audio_index">1</property>
    <property name="video_index">0</property>
    <property name="mute_on_pause">0</property>
    <property name="mlt_service">avformat-novalidate</property>
    <property name="seekable">1</property>
    <property name="aspect_ratio">1</property>
    <property name="creation_time">2020-04-08T16:32:02</property>
    <property name="shotcut:hash">e4470a14bf088b76cf4b34d8127e4e51</property>
    <property name="ignore_points">0</property>
    <property name="shotcut:caption">Alain_flute_totoro.mp4</property>
    <property name="shotcut:skipConvert">1</property>
    <property name="global_feed">1</property>
    <property name="xml">was here</property>
    <filter id="filter273" in="00:02:10.200000" out="00:02:13.560000">
      <property name="background">colour:0</property>
      <property name="mlt_service">affine</property>
      <property name="shotcut:filter">affineSizePosition</property>
      <property name="transition.fill">1</property>
      <property name="transition.distort">0</property>
      <property name="transition.rect">-1910.0 -1074.5 -9.0 -4.5 1</property>
      <property name="transition.valign">top</property>
      <property name="transition.halign">left</property>
      <property name="shotcut:animIn">00:00:00.400000</property>
      <property name="shotcut:animOut">00:00:00.000</property>
      <property name="transition.threads">0</property>
    </filter>
    <filter id="filter274" in="00:02:10.200000" out="00:02:13.560000">
      <property name="window">75</property>
      <property name="max_gain">20dB</property>
      <property name="mlt_service">volume</property>
      <property name="shotcut:filter">muteVolume</property>
      <property name="gain">0</property>
    </filter>
  </producer>
  <producer id="producer142" in="00:00:00.000" out="00:03:19.240" title="Anonymous Submission">
    <property name="length">00:03:19:07</property>
    <property name="eof">pause</property>
    <property name="resource">../../006 - Videos format youtube/Flutes/Alain_flute_totoro.mp4</property>
    <property name="audio_index">1</property>
    <property name="video_index">0</property>
    <property name="mute_on_pause">0</property>
    <property name="mlt_service">avformat-novalidate</property>
    <property name="seekable">1</property>
    <property name="aspect_ratio">1</property>
    <property name="creation_time">2020-04-08T16:32:02</property>
    <property name="shotcut:hash">e4470a14bf088b76cf4b34d8127e4e51</property>
    <property name="ignore_points">0</property>
    <property name="shotcut:caption">Alain_flute_totoro.mp4</property>
    <property name="shotcut:skipConvert">1</property>
    <property name="global_feed">1</property>
    <property name="xml">was here</property>
    <filter id="filter275" in="00:02:13.600000" out="00:02:19.880000">
      <property name="background">colour:0</property>
      <property name="mlt_service">affine</property>
      <property name="shotcut:filter">affineSizePosition</property>
      <property name="transition.fill">1</property>
      <property name="transition.distort">0</property>
      <property name="transition.rect">00:00:00.000000=-1900.0 -1068.5 -18.0 -9.5 1;00:00:00.360000=842.0 509.5 119.0 67.5 1</property>
      <property name="transition.valign">top</property>
      <property name="transition.halign">left</property>
      <property name="shotcut:animIn">00:00:00.400000</property>
      <property name="shotcut:animOut">00:00:00.000</property>
      <property name="transition.threads">0</property>
    </filter>
    <filter id="filter276" in="00:02:13.600000" out="00:02:19.880000">
      <property name="window">75</property>
      <property name="max_gain">20dB</property>
      <property name="mlt_service">volume</property>
      <property name="shotcut:filter">muteVolume</property>
      <property name="gain">0</property>
    </filter>
  </producer>
  <playlist id="playlist21">
    <property name="shotcut:video">1</property>
    <property name="shotcut:name">Alain_flute2</property>
    <property name="shotcut:lock">1</property>
    <blank length="00:01:55.000000" />
    <entry in="00:01:52.920000" out="00:01:56.480000" producer="producer136" />
    <entry in="00:01:56.520000" out="00:01:59.880000" producer="producer137" />
    <entry in="00:01:59.920000" out="00:02:03.320000" producer="producer138" />
    <entry in="00:02:03.360000" out="00:02:06.720000" producer="producer139" />
    <entry in="00:02:06.760000" out="00:02:10.160000" producer="producer140" />
    <entry in="00:02:10.200000" out="00:02:13.560000" producer="producer141" />
    <entry in="00:02:13.600000" out="00:02:19.880000" producer="producer142" />
    <filter id="filter277" out="00:03:35.640">
      <property name="window">75</property>
      <property name="max_gain">20dB</property>
      <property name="level">-10</property>
      <property name="mlt_service">volume</property>
    </filter>
  </playlist>
  <producer id="producer143" in="00:00:00.000" out="00:02:58.120" title="Anonymous Submission">
    <property name="length">00:02:58:04</property>
    <property name="eof">pause</property>
    <property name="resource">../../006 - Videos format youtube/Flutes/Laurence_flute_totoro.mp4</property>
    <property name="audio_index">1</property>
    <property name="video_index">0</property>
    <property name="mute_on_pause">0</property>
    <property name="mlt_service">avformat-novalidate</property>
    <property name="seekable">1</property>
    <property name="aspect_ratio">1</property>
    <property name="creation_time">2020-04-10T18:00:41</property>
    <property name="shotcut:hash">60bcdee113b1401df52909414ee98b5b</property>
    <property name="ignore_points">0</property>
    <property name="shotcut:caption">Laurence_flute_totoro.mp4</property>
    <property name="shotcut:skipConvert">1</property>
    <property name="global_feed">1</property>
    <property name="xml">was here</property>
    <filter id="filter278" in="00:01:35.440000" out="00:01:39.000000">
      <property name="background">colour:0</property>
      <property name="mlt_service">affine</property>
      <property name="shotcut:filter">affineSizePosition</property>
      <property name="transition.fill">1</property>
      <property name="transition.distort">0</property>
      <property name="transition.rect">-1910.0 -1074.5 -9.0 -4.5 1</property>
      <property name="transition.valign">top</property>
      <property name="transition.halign">left</property>
      <property name="shotcut:animIn">00:00:00.000</property>
      <property name="shotcut:animOut">00:00:00.000</property>
      <property name="transition.threads">0</property>
    </filter>
  </producer>
  <producer id="producer144" in="00:00:00.000" out="00:02:58.120" title="Anonymous Submission">
    <property name="length">00:02:58:04</property>
    <property name="eof">pause</property>
    <property name="resource">../../006 - Videos format youtube/Flutes/Laurence_flute_totoro.mp4</property>
    <property name="audio_index">1</property>
    <property name="video_index">0</property>
    <property name="mute_on_pause">0</property>
    <property name="mlt_service">avformat-novalidate</property>
    <property name="seekable">1</property>
    <property name="aspect_ratio">1</property>
    <property name="creation_time">2020-04-10T18:00:41</property>
    <property name="shotcut:hash">60bcdee113b1401df52909414ee98b5b</property>
    <property name="ignore_points">0</property>
    <property name="shotcut:caption">Laurence_flute_totoro.mp4</property>
    <property name="shotcut:skipConvert">1</property>
    <property name="global_feed">1</property>
    <property name="xml">was here</property>
    <filter id="filter279" in="00:01:39.040000" out="00:01:42.400000">
      <property name="background">colour:0</property>
      <property name="mlt_service">affine</property>
      <property name="shotcut:filter">affineSizePosition</property>
      <property name="transition.fill">1</property>
      <property name="transition.distort">0</property>
      <property name="transition.rect">00:00:00.000000=-1900.0 -1068.5 -18.0 -9.5 1;00:00:00.360000=777.0 653.5 119.0 67.5 1</property>
      <property name="transition.valign">top</property>
      <property name="transition.halign">left</property>
      <property name="shotcut:animIn">00:00:00.400000</property>
      <property name="shotcut:animOut">00:00:00.000</property>
      <property name="transition.threads">0</property>
    </filter>
  </producer>
  <producer id="producer145" in="00:00:00.000" out="00:02:58.120" title="Anonymous Submission">
    <property name="length">00:02:58:04</property>
    <property name="eof">pause</property>
    <property name="resource">../../006 - Videos format youtube/Flutes/Laurence_flute_totoro.mp4</property>
    <property name="audio_index">1</property>
    <property name="video_index">0</property>
    <property name="mute_on_pause">0</property>
    <property name="mlt_service">avformat-novalidate</property>
    <property name="seekable">1</property>
    <property name="aspect_ratio">1</property>
    <property name="creation_time">2020-04-10T18:00:41</property>
    <property name="shotcut:hash">60bcdee113b1401df52909414ee98b5b</property>
    <property name="ignore_points">0</property>
    <property name="shotcut:caption">Laurence_flute_totoro.mp4</property>
    <property name="shotcut:skipConvert">1</property>
    <property name="global_feed">1</property>
    <property name="xml">was here</property>
    <filter id="filter280" in="00:01:42.440000" out="00:01:45.840000">
      <property name="background">colour:0</property>
      <property name="mlt_service">affine</property>
      <property name="shotcut:filter">affineSizePosition</property>
      <property name="transition.fill">1</property>
      <property name="transition.distort">0</property>
      <property name="transition.rect">00:00:00.000000=966.0 539.0 4.0 2.0 1;00:00:00.360000=1414.0 352.0 167.0 94.0 1</property>
      <property name="transition.valign">top</property>
      <property name="transition.halign">left</property>
      <property name="shotcut:animIn">00:00:00.400000</property>
      <property name="shotcut:animOut">00:00:00.000</property>
      <property name="transition.threads">0</property>
    </filter>
  </producer>
  <producer id="producer146" in="00:00:00.000" out="00:02:58.120" title="Anonymous Submission">
    <property name="length">00:02:58:04</property>
    <property name="eof">pause</property>
    <property name="resource">../../006 - Videos format youtube/Flutes/Laurence_flute_totoro.mp4</property>
    <property name="audio_index">1</property>
    <property name="video_index">0</property>
    <property name="mute_on_pause">0</property>
    <property name="mlt_service">avformat-novalidate</property>
    <property name="seekable">1</property>
    <property name="aspect_ratio">1</property>
    <property name="creation_time">2020-04-10T18:00:41</property>
    <property name="shotcut:hash">60bcdee113b1401df52909414ee98b5b</property>
    <property name="ignore_points">0</property>
    <property name="shotcut:caption">Laurence_flute_totoro.mp4</property>
    <property name="shotcut:skipConvert">1</property>
    <property name="global_feed">1</property>
    <property name="xml">was here</property>
    <filter id="filter281" in="00:01:45.880000" out="00:01:49.240000">
      <property name="background">colour:0</property>
      <property name="mlt_service">affine</property>
      <property name="shotcut:filter">affineSizePosition</property>
      <property name="transition.fill">1</property>
      <property name="transition.distort">0</property>
      <property name="transition.rect">00:00:00.000000=1424.0 357.5 158.0 88.5 1;00:00:00.360000=777.0 365.5 119.0 67.5 1</property>
      <property name="transition.valign">top</property>
      <property name="transition.halign">left</property>
      <property name="shotcut:animIn">00:00:00.400000</property>
      <property name="shotcut:animOut">00:00:00.000</property>
      <property name="transition.threads">0</property>
    </filter>
  </producer>
  <producer id="producer147" in="00:00:00.000" out="00:02:58.120" title="Anonymous Submission">
    <property name="length">00:02:58:04</property>
    <property name="eof">pause</property>
    <property name="resource">../../006 - Videos format youtube/Flutes/Laurence_flute_totoro.mp4</property>
    <property name="audio_index">1</property>
    <property name="video_index">0</property>
    <property name="mute_on_pause">0</property>
    <property name="mlt_service">avformat-novalidate</property>
    <property name="seekable">1</property>
    <property name="aspect_ratio">1</property>
    <property name="creation_time">2020-04-10T18:00:41</property>
    <property name="shotcut:hash">60bcdee113b1401df52909414ee98b5b</property>
    <property name="ignore_points">0</property>
    <property name="shotcut:caption">Laurence_flute_totoro.mp4</property>
    <property name="shotcut:skipConvert">1</property>
    <property name="global_feed">1</property>
    <property name="xml">was here</property>
    <filter id="filter282" in="00:01:49.280000" out="00:01:52.680000">
      <property name="background">colour:0</property>
      <property name="mlt_service">affine</property>
      <property name="shotcut:filter">affineSizePosition</property>
      <property name="transition.fill">1</property>
      <property name="transition.distort">0</property>
      <property name="transition.rect">00:00:00.000000=787.0 370.5 110.0 61.5 1;00:00:00.360000=522.0 437.5 119.0 67.5 1</property>
      <property name="transition.valign">top</property>
      <property name="transition.halign">left</property>
      <property name="shotcut:animIn">00:00:00.400000</property>
      <property name="shotcut:animOut">00:00:00.000</property>
      <property name="transition.threads">0</property>
    </filter>
  </producer>
  <producer id="producer148" in="00:00:00.000" out="00:02:58.120" title="Anonymous Submission">
    <property name="length">00:02:58:04</property>
    <property name="eof">pause</property>
    <property name="resource">../../006 - Videos format youtube/Flutes/Laurence_flute_totoro.mp4</property>
    <property name="audio_index">1</property>
    <property name="video_index">0</property>
    <property name="mute_on_pause">0</property>
    <property name="mlt_service">avformat-novalidate</property>
    <property name="seekable">1</property>
    <property name="aspect_ratio">1</property>
    <property name="creation_time">2020-04-10T18:00:41</property>
    <property name="shotcut:hash">60bcdee113b1401df52909414ee98b5b</property>
    <property name="ignore_points">0</property>
    <property name="shotcut:caption">Laurence_flute_totoro.mp4</property>
    <property name="shotcut:skipConvert">1</property>
    <property name="global_feed">1</property>
    <property name="xml">was here</property>
    <filter id="filter283" in="00:01:52.720000" out="00:01:56.080000">
      <property name="background">colour:0</property>
      <property name="mlt_service">affine</property>
      <property name="shotcut:filter">affineSizePosition</property>
      <property name="transition.fill">1</property>
      <property name="transition.distort">0</property>
      <property name="transition.rect">00:00:00.000000=532.0 442.5 110.0 61.5 1;00:00:00.360000=714.0 293.5 119.0 67.5 1</property>
      <property name="transition.valign">top</property>
      <property name="transition.halign">left</property>
      <property name="shotcut:animIn">00:00:00.400000</property>
      <property name="shotcut:animOut">00:00:00.000</property>
      <property name="transition.threads">0</property>
    </filter>
  </producer>
  <producer id="producer149" in="00:00:00.000" out="00:02:58.120" title="Anonymous Submission">
    <property name="length">00:02:58:04</property>
    <property name="eof">pause</property>
    <property name="resource">../../006 - Videos format youtube/Flutes/Laurence_flute_totoro.mp4</property>
    <property name="audio_index">1</property>
    <property name="video_index">0</property>
    <property name="mute_on_pause">0</property>
    <property name="mlt_service">avformat-novalidate</property>
    <property name="seekable">1</property>
    <property name="aspect_ratio">1</property>
    <property name="creation_time">2020-04-10T18:00:41</property>
    <property name="shotcut:hash">60bcdee113b1401df52909414ee98b5b</property>
    <property name="ignore_points">0</property>
    <property name="shotcut:caption">Laurence_flute_totoro.mp4</property>
    <property name="shotcut:skipConvert">1</property>
    <property name="global_feed">1</property>
    <property name="xml">was here</property>
    <filter id="filter284" in="00:01:56.120000" out="00:02:02.400000">
      <property name="background">colour:0</property>
      <property name="mlt_service">affine</property>
      <property name="shotcut:filter">affineSizePosition</property>
      <property name="transition.fill">1</property>
      <property name="transition.distort">0</property>
      <property name="transition.rect">00:00:00.000000=724.0 298.5 110.0 61.5 1;00:00:00.360000=586.0 581.5 119.0 67.5 1</property>
      <property name="transition.valign">top</property>
      <property name="transition.halign">left</property>
      <property name="shotcut:animIn">00:00:00.400000</property>
      <property name="shotcut:animOut">00:00:00.000</property>
      <property name="transition.threads">0</property>
    </filter>
  </producer>
  <playlist id="playlist22">
    <property name="shotcut:video">1</property>
    <property name="shotcut:name"> Laurence_flute 2</property>
    <property name="shotcut:lock">1</property>
    <blank length="00:01:55.000000" />
    <entry in="00:01:35.440000" out="00:01:39.000000" producer="producer143" />
    <entry in="00:01:39.040000" out="00:01:42.400000" producer="producer144" />
    <entry in="00:01:42.440000" out="00:01:45.840000" producer="producer145" />
    <entry in="00:01:45.880000" out="00:01:49.240000" producer="producer146" />
    <entry in="00:01:49.280000" out="00:01:52.680000" producer="producer147" />
    <entry in="00:01:52.720000" out="00:01:56.080000" producer="producer148" />
    <entry in="00:01:56.120000" out="00:02:02.400000" producer="producer149" />
    <filter id="filter285" out="00:03:35.640">
      <property name="window">75</property>
      <property name="max_gain">20dB</property>
      <property name="level">-12</property>
      <property name="mlt_service">volume</property>
    </filter>
  </playlist>
  <producer id="producer150" in="00:00:00.000" out="00:02:59.720" title="Anonymous Submission">
    <property name="length">00:02:59:19</property>
    <property name="eof">pause</property>
    <property name="resource">../../006 - Videos format youtube/Flutes/Antoine_flute_totoro.mp4</property>
    <property name="audio_index">1</property>
    <property name="video_index">0</property>
    <property name="mute_on_pause">0</property>
    <property name="mlt_service">avformat-novalidate</property>
    <property name="seekable">1</property>
    <property name="aspect_ratio">1</property>
    <property name="creation_time">2020-04-09T18:43:14</property>
    <property name="shotcut:hash">4b5c310c51f982bf236c6a3fad1fff39</property>
    <property name="ignore_points">0</property>
    <property name="shotcut:caption">Antoine_flute_totoro.mp4</property>
    <property name="shotcut:skipConvert">1</property>
    <property name="global_feed">1</property>
    <property name="xml">was here</property>
    <filter id="filter286" in="00:01:38.280000" out="00:01:41.840000">
      <property name="background">colour:0</property>
      <property name="mlt_service">affine</property>
      <property name="shotcut:filter">affineSizePosition</property>
      <property name="transition.fill">1</property>
      <property name="transition.distort">0</property>
      <property name="transition.rect">-1910.0 -1074.5 -9.0 -4.5 1</property>
      <property name="transition.valign">top</property>
      <property name="transition.halign">left</property>
      <property name="shotcut:animIn">00:00:00.000</property>
      <property name="shotcut:animOut">00:00:00.000</property>
      <property name="transition.threads">0</property>
    </filter>
    <filter id="filter287" in="00:01:38.280000" out="00:01:41.840000">
      <property name="window">75</property>
      <property name="max_gain">20dB</property>
      <property name="mlt_service">volume</property>
      <property name="shotcut:filter">muteVolume</property>
      <property name="gain">0</property>
    </filter>
  </producer>
  <producer id="producer151" in="00:00:00.000" out="00:02:59.720" title="Anonymous Submission">
    <property name="length">00:02:59:19</property>
    <property name="eof">pause</property>
    <property name="resource">../../006 - Videos format youtube/Flutes/Antoine_flute_totoro.mp4</property>
    <property name="audio_index">1</property>
    <property name="video_index">0</property>
    <property name="mute_on_pause">0</property>
    <property name="mlt_service">avformat-novalidate</property>
    <property name="seekable">1</property>
    <property name="aspect_ratio">1</property>
    <property name="creation_time">2020-04-09T18:43:14</property>
    <property name="shotcut:hash">4b5c310c51f982bf236c6a3fad1fff39</property>
    <property name="ignore_points">0</property>
    <property name="shotcut:caption">Antoine_flute_totoro.mp4</property>
    <property name="shotcut:skipConvert">1</property>
    <property name="global_feed">1</property>
    <property name="xml">was here</property>
    <filter id="filter288" in="00:01:41.880000" out="00:01:45.240000">
      <property name="background">colour:0</property>
      <property name="mlt_service">affine</property>
      <property name="shotcut:filter">affineSizePosition</property>
      <property name="transition.fill">1</property>
      <property name="transition.distort">0</property>
      <property name="transition.rect">00:00:00.000000=-1900.0 -1068.5 -18.0 -9.5 1;00:00:00.360000=906.0 653.5 119.0 67.5 1</property>
      <property name="transition.valign">top</property>
      <property name="transition.halign">left</property>
      <property name="shotcut:animIn">00:00:00.400000</property>
      <property name="shotcut:animOut">00:00:00.000</property>
      <property name="transition.threads">0</property>
    </filter>
    <filter id="filter289" in="00:01:41.880000" out="00:01:45.240000">
      <property name="window">75</property>
      <property name="max_gain">20dB</property>
      <property name="mlt_service">volume</property>
      <property name="shotcut:filter">muteVolume</property>
      <property name="gain">0</property>
    </filter>
  </producer>
  <producer id="producer152" in="00:00:00.000" out="00:02:59.720" title="Anonymous Submission">
    <property name="length">00:02:59:19</property>
    <property name="eof">pause</property>
    <property name="resource">../../006 - Videos format youtube/Flutes/Antoine_flute_totoro.mp4</property>
    <property name="audio_index">1</property>
    <property name="video_index">0</property>
    <property name="mute_on_pause">0</property>
    <property name="mlt_service">avformat-novalidate</property>
    <property name="seekable">1</property>
    <property name="aspect_ratio">1</property>
    <property name="creation_time">2020-04-09T18:43:14</property>
    <property name="shotcut:hash">4b5c310c51f982bf236c6a3fad1fff39</property>
    <property name="ignore_points">0</property>
    <property name="shotcut:caption">Antoine_flute_totoro.mp4</property>
    <property name="shotcut:skipConvert">1</property>
    <property name="global_feed">1</property>
    <property name="xml">was here</property>
    <filter id="filter290" in="00:01:45.280000" out="00:01:48.680000">
      <property name="background">colour:0</property>
      <property name="mlt_service">affine</property>
      <property name="shotcut:filter">affineSizePosition</property>
      <property name="transition.fill">1</property>
      <property name="transition.distort">0</property>
      <property name="transition.rect">00:00:00.000000=962.0 543.0 4.0 2.0 1;00:00:00.360000=1164.0 633.0 167.0 94.0 1</property>
      <property name="transition.valign">top</property>
      <property name="transition.halign">left</property>
      <property name="shotcut:animIn">00:00:00.400000</property>
      <property name="shotcut:animOut">00:00:00.000</property>
      <property name="transition.threads">0</property>
    </filter>
    <filter id="filter291" in="00:01:45.280000" out="00:01:48.680000">
      <property name="window">75</property>
      <property name="max_gain">20dB</property>
      <property name="mlt_service">volume</property>
      <property name="shotcut:filter">muteVolume</property>
      <property name="gain">0</property>
    </filter>
  </producer>
  <producer id="producer153" in="00:00:00.000" out="00:02:59.720" title="Anonymous Submission">
    <property name="length">00:02:59:19</property>
    <property name="eof">pause</property>
    <property name="resource">../../006 - Videos format youtube/Flutes/Antoine_flute_totoro.mp4</property>
    <property name="audio_index">1</property>
    <property name="video_index">0</property>
    <property name="mute_on_pause">0</property>
    <property name="mlt_service">avformat-novalidate</property>
    <property name="seekable">1</property>
    <property name="aspect_ratio">1</property>
    <property name="creation_time">2020-04-09T18:43:14</property>
    <property name="shotcut:hash">4b5c310c51f982bf236c6a3fad1fff39</property>
    <property name="ignore_points">0</property>
    <property name="shotcut:caption">Antoine_flute_totoro.mp4</property>
    <property name="shotcut:skipConvert">1</property>
    <property name="global_feed">1</property>
    <property name="xml">was here</property>
    <filter id="filter292" in="00:01:48.720000" out="00:01:52.080000">
      <property name="background">colour:0</property>
      <property name="mlt_service">affine</property>
      <property name="shotcut:filter">affineSizePosition</property>
      <property name="transition.fill">1</property>
      <property name="transition.distort">0</property>
      <property name="transition.rect">00:00:00.000000=1174.0 638.5 158.0 88.5 1;00:00:00.360000=1162.0 941.5 119.0 67.5 1</property>
      <property name="transition.valign">top</property>
      <property name="transition.halign">left</property>
      <property name="shotcut:animIn">00:00:00.400000</property>
      <property name="shotcut:animOut">00:00:00.000</property>
      <property name="transition.threads">0</property>
    </filter>
    <filter id="filter293" in="00:01:48.720000" out="00:01:52.080000">
      <property name="window">75</property>
      <property name="max_gain">20dB</property>
      <property name="mlt_service">volume</property>
      <property name="shotcut:filter">muteVolume</property>
      <property name="gain">0</property>
    </filter>
  </producer>
  <producer id="producer154" in="00:00:00.000" out="00:02:59.720" title="Anonymous Submission">
    <property name="length">00:02:59:19</property>
    <property name="eof">pause</property>
    <property name="resource">../../006 - Videos format youtube/Flutes/Antoine_flute_totoro.mp4</property>
    <property name="audio_index">1</property>
    <property name="video_index">0</property>
    <property name="mute_on_pause">0</property>
    <property name="mlt_service">avformat-novalidate</property>
    <property name="seekable">1</property>
    <property name="aspect_ratio">1</property>
    <property name="creation_time">2020-04-09T18:43:14</property>
    <property name="shotcut:hash">4b5c310c51f982bf236c6a3fad1fff39</property>
    <property name="ignore_points">0</property>
    <property name="shotcut:caption">Antoine_flute_totoro.mp4</property>
    <property name="shotcut:skipConvert">1</property>
    <property name="global_feed">1</property>
    <property name="xml">was here</property>
    <filter id="filter294" in="00:01:52.120000" out="00:01:55.520000">
      <property name="background">colour:0</property>
      <property name="mlt_service">affine</property>
      <property name="shotcut:filter">affineSizePosition</property>
      <property name="transition.fill">1</property>
      <property name="transition.distort">0</property>
      <property name="transition.rect">00:00:00.000000=1172.0 946.5 110.0 61.5 1;00:00:00.360000=906.0 437.5 119.0 67.5 1</property>
      <property name="transition.valign">top</property>
      <property name="transition.halign">left</property>
      <property name="shotcut:animIn">00:00:00.400000</property>
      <property name="shotcut:animOut">00:00:00.000</property>
      <property name="transition.threads">0</property>
    </filter>
    <filter id="filter295" in="00:01:52.120000" out="00:01:55.520000">
      <property name="window">75</property>
      <property name="max_gain">20dB</property>
      <property name="mlt_service">volume</property>
      <property name="shotcut:filter">muteVolume</property>
      <property name="gain">0</property>
    </filter>
  </producer>
  <producer id="producer155" in="00:00:00.000" out="00:02:59.720" title="Anonymous Submission">
    <property name="length">00:02:59:19</property>
    <property name="eof">pause</property>
    <property name="resource">../../006 - Videos format youtube/Flutes/Antoine_flute_totoro.mp4</property>
    <property name="audio_index">1</property>
    <property name="video_index">0</property>
    <property name="mute_on_pause">0</property>
    <property name="mlt_service">avformat-novalidate</property>
    <property name="seekable">1</property>
    <property name="aspect_ratio">1</property>
    <property name="creation_time">2020-04-09T18:43:14</property>
    <property name="shotcut:hash">4b5c310c51f982bf236c6a3fad1fff39</property>
    <property name="ignore_points">0</property>
    <property name="shotcut:caption">Antoine_flute_totoro.mp4</property>
    <property name="shotcut:skipConvert">1</property>
    <property name="global_feed">1</property>
    <property name="xml">was here</property>
    <filter id="filter296" in="00:01:55.560000" out="00:01:58.920000">
      <property name="background">colour:0</property>
      <property name="mlt_service">affine</property>
      <property name="shotcut:filter">affineSizePosition</property>
      <property name="transition.fill">1</property>
      <property name="transition.distort">0</property>
      <property name="transition.rect">906.0 941.5 119.0 67.5 1</property>
      <property name="transition.valign">top</property>
      <property name="transition.halign">left</property>
      <property name="shotcut:animIn">00:00:00.400000</property>
      <property name="shotcut:animOut">00:00:00.000</property>
      <property name="transition.threads">0</property>
    </filter>
    <filter id="filter297" in="00:01:55.560000" out="00:01:58.920000">
      <property name="window">75</property>
      <property name="max_gain">20dB</property>
      <property name="mlt_service">volume</property>
      <property name="shotcut:filter">muteVolume</property>
      <property name="gain">0</property>
    </filter>
  </producer>
  <producer id="producer156" in="00:00:00.000" out="00:02:59.720" title="Anonymous Submission">
    <property name="length">00:02:59:19</property>
    <property name="eof">pause</property>
    <property name="resource">../../006 - Videos format youtube/Flutes/Antoine_flute_totoro.mp4</property>
    <property name="audio_index">1</property>
    <property name="video_index">0</property>
    <property name="mute_on_pause">0</property>
    <property name="mlt_service">avformat-novalidate</property>
    <property name="seekable">1</property>
    <property name="aspect_ratio">1</property>
    <property name="creation_time">2020-04-09T18:43:14</property>
    <property name="shotcut:hash">4b5c310c51f982bf236c6a3fad1fff39</property>
    <property name="ignore_points">0</property>
    <property name="shotcut:caption">Antoine_flute_totoro.mp4</property>
    <property name="shotcut:skipConvert">1</property>
    <property name="global_feed">1</property>
    <property name="xml">was here</property>
    <filter id="filter298" in="00:01:58.960000" out="00:02:05.240000">
      <property name="background">colour:0</property>
      <property name="mlt_service">affine</property>
      <property name="shotcut:filter">affineSizePosition</property>
      <property name="transition.fill">1</property>
      <property name="transition.distort">0</property>
      <property name="transition.rect">00:00:00.000000=916.0 946.5 110.0 61.5 1;00:00:00.360000=714.0 797.5 119.0 67.5 1</property>
      <property name="transition.valign">top</property>
      <property name="transition.halign">left</property>
      <property name="shotcut:animIn">00:00:00.400000</property>
      <property name="shotcut:animOut">00:00:00.000</property>
      <property name="transition.threads">0</property>
    </filter>
    <filter id="filter299" in="00:01:58.960000" out="00:02:05.240000">
      <property name="window">75</property>
      <property name="max_gain">20dB</property>
      <property name="mlt_service">volume</property>
      <property name="shotcut:filter">muteVolume</property>
      <property name="gain">0</property>
    </filter>
  </producer>
  <playlist id="playlist23">
    <property name="shotcut:video">1</property>
    <property name="shotcut:name">Antoine_flute1</property>
    <property name="shotcut:lock">1</property>
    <blank length="00:01:55.000000" />
    <entry in="00:01:38.280000" out="00:01:41.840000" producer="producer150" />
    <entry in="00:01:41.880000" out="00:01:45.240000" producer="producer151" />
    <entry in="00:01:45.280000" out="00:01:48.680000" producer="producer152" />
    <entry in="00:01:48.720000" out="00:01:52.080000" producer="producer153" />
    <entry in="00:01:52.120000" out="00:01:55.520000" producer="producer154" />
    <entry in="00:01:55.560000" out="00:01:58.920000" producer="producer155" />
    <entry in="00:01:58.960000" out="00:02:05.240000" producer="producer156" />
    <filter id="filter300" out="00:03:35.640">
      <property name="window">75</property>
      <property name="max_gain">20dB</property>
      <property name="level">-12</property>
      <property name="mlt_service">volume</property>
    </filter>
  </playlist>
  <producer id="producer157" in="00:00:00.000" out="00:03:35.640" title="Anonymous Submission">
    <property name="length">00:03:35:17</property>
    <property name="eof">pause</property>
    <property name="resource">../../006 - Videos format youtube/Flutes/Gwenn_flute_totoro_recadre.mp4</property>
    <property name="audio_index">1</property>
    <property name="video_index">0</property>
    <property name="mute_on_pause">0</property>
    <property name="mlt_service">avformat-novalidate</property>
    <property name="seekable">1</property>
    <property name="aspect_ratio">1</property>
    <property name="creation_time">2020-04-30T15:27:42</property>
    <property name="shotcut:hash">100c5d626d0e8201453c2f0a20325b08</property>
    <property name="ignore_points">0</property>
    <property name="shotcut:caption">Gwenn_flute_totoro_recadre.mp4</property>
    <property name="shotcut:skipConvert">1</property>
    <property name="global_feed">1</property>
    <property name="xml">was here</property>
    <filter id="filter301" in="00:01:55.000000" out="00:01:58.560000">
      <property name="background">colour:0</property>
      <property name="mlt_service">affine</property>
      <property name="shotcut:filter">affineSizePosition</property>
      <property name="transition.fill">1</property>
      <property name="transition.distort">0</property>
      <property name="transition.rect">-1910.0 -1074.5 -9.0 -4.5 1</property>
      <property name="transition.valign">top</property>
      <property name="transition.halign">left</property>
      <property name="shotcut:animIn">00:00:00.000</property>
      <property name="shotcut:animOut">00:00:00.000</property>
      <property name="transition.threads">0</property>
    </filter>
  </producer>
  <producer id="producer158" in="00:00:00.000" out="00:03:35.640" title="Anonymous Submission">
    <property name="length">00:03:35:17</property>
    <property name="eof">pause</property>
    <property name="resource">../../006 - Videos format youtube/Flutes/Gwenn_flute_totoro_recadre.mp4</property>
    <property name="audio_index">1</property>
    <property name="video_index">0</property>
    <property name="mute_on_pause">0</property>
    <property name="mlt_service">avformat-novalidate</property>
    <property name="seekable">1</property>
    <property name="aspect_ratio">1</property>
    <property name="creation_time">2020-04-30T15:27:42</property>
    <property name="shotcut:hash">100c5d626d0e8201453c2f0a20325b08</property>
    <property name="ignore_points">0</property>
    <property name="shotcut:caption">Gwenn_flute_totoro_recadre.mp4</property>
    <property name="shotcut:skipConvert">1</property>
    <property name="global_feed">1</property>
    <property name="xml">was here</property>
    <filter id="filter302" in="00:01:58.600000" out="00:02:01.960000">
      <property name="background">colour:0</property>
      <property name="mlt_service">affine</property>
      <property name="shotcut:filter">affineSizePosition</property>
      <property name="transition.fill">1</property>
      <property name="transition.distort">0</property>
      <property name="transition.rect">00:00:00.000000=-1900.0 -1068.5 -18.0 -9.5 1;00:00:00.360000=777.0 724.5 119.0 67.5 1</property>
      <property name="transition.valign">top</property>
      <property name="transition.halign">left</property>
      <property name="shotcut:animIn">00:00:00.400000</property>
      <property name="shotcut:animOut">00:00:00.000</property>
      <property name="transition.threads">0</property>
    </filter>
  </producer>
  <producer id="producer159" in="00:00:00.000" out="00:03:35.640" title="Anonymous Submission">
    <property name="length">00:03:35:17</property>
    <property name="eof">pause</property>
    <property name="resource">../../006 - Videos format youtube/Flutes/Gwenn_flute_totoro_recadre.mp4</property>
    <property name="audio_index">1</property>
    <property name="video_index">0</property>
    <property name="mute_on_pause">0</property>
    <property name="mlt_service">avformat-novalidate</property>
    <property name="seekable">1</property>
    <property name="aspect_ratio">1</property>
    <property name="creation_time">2020-04-30T15:27:42</property>
    <property name="shotcut:hash">100c5d626d0e8201453c2f0a20325b08</property>
    <property name="ignore_points">0</property>
    <property name="shotcut:caption">Gwenn_flute_totoro_recadre.mp4</property>
    <property name="shotcut:skipConvert">1</property>
    <property name="global_feed">1</property>
    <property name="xml">was here</property>
    <filter id="filter303" in="00:02:02.000000" out="00:02:05.400000">
      <property name="background">colour:0</property>
      <property name="mlt_service">affine</property>
      <property name="shotcut:filter">affineSizePosition</property>
      <property name="transition.fill">1</property>
      <property name="transition.distort">0</property>
      <property name="transition.rect">00:00:00.000000=960.0 537.0 4.0 2.0 1;00:00:00.360000=998.0 259.0 167.0 94.0 1</property>
      <property name="transition.valign">top</property>
      <property name="transition.halign">left</property>
      <property name="shotcut:animIn">00:00:00.400000</property>
      <property name="shotcut:animOut">00:00:00.000</property>
      <property name="transition.threads">0</property>
    </filter>
  </producer>
  <producer id="producer160" in="00:00:00.000" out="00:03:35.640" title="Anonymous Submission">
    <property name="length">00:03:35:17</property>
    <property name="eof">pause</property>
    <property name="resource">../../006 - Videos format youtube/Flutes/Gwenn_flute_totoro_recadre.mp4</property>
    <property name="audio_index">1</property>
    <property name="video_index">0</property>
    <property name="mute_on_pause">0</property>
    <property name="mlt_service">avformat-novalidate</property>
    <property name="seekable">1</property>
    <property name="aspect_ratio">1</property>
    <property name="creation_time">2020-04-30T15:27:42</property>
    <property name="shotcut:hash">100c5d626d0e8201453c2f0a20325b08</property>
    <property name="ignore_points">0</property>
    <property name="shotcut:caption">Gwenn_flute_totoro_recadre.mp4</property>
    <property name="shotcut:skipConvert">1</property>
    <property name="global_feed">1</property>
    <property name="xml">was here</property>
    <filter id="filter304" in="00:02:05.440000" out="00:02:08.800000">
      <property name="background">colour:0</property>
      <property name="mlt_service">affine</property>
      <property name="shotcut:filter">affineSizePosition</property>
      <property name="transition.fill">1</property>
      <property name="transition.distort">0</property>
      <property name="transition.rect">00:00:00.000000=1008.0 264.5 158.0 88.5 1;00:00:00.360000=777.0 868.5 119.0 67.5 1</property>
      <property name="transition.valign">top</property>
      <property name="transition.halign">left</property>
      <property name="shotcut:animIn">00:00:00.400000</property>
      <property name="shotcut:animOut">00:00:00.000</property>
      <property name="transition.threads">0</property>
    </filter>
  </producer>
  <producer id="producer161" in="00:00:00.000" out="00:03:35.640" title="Anonymous Submission">
    <property name="length">00:03:35:17</property>
    <property name="eof">pause</property>
    <property name="resource">../../006 - Videos format youtube/Flutes/Gwenn_flute_totoro_recadre.mp4</property>
    <property name="audio_index">1</property>
    <property name="video_index">0</property>
    <property name="mute_on_pause">0</property>
    <property name="mlt_service">avformat-novalidate</property>
    <property name="seekable">1</property>
    <property name="aspect_ratio">1</property>
    <property name="creation_time">2020-04-30T15:27:42</property>
    <property name="shotcut:hash">100c5d626d0e8201453c2f0a20325b08</property>
    <property name="ignore_points">0</property>
    <property name="shotcut:caption">Gwenn_flute_totoro_recadre.mp4</property>
    <property name="shotcut:skipConvert">1</property>
    <property name="global_feed">1</property>
    <property name="xml">was here</property>
    <filter id="filter305" in="00:02:08.840000" out="00:02:12.240000">
      <property name="background">colour:0</property>
      <property name="mlt_service">affine</property>
      <property name="shotcut:filter">affineSizePosition</property>
      <property name="transition.fill">1</property>
      <property name="transition.distort">0</property>
      <property name="transition.rect">00:00:00.000000=787.0 873.5 110.0 61.5 1;00:00:00.360000=1290.0 437.5 119.0 67.5 1</property>
      <property name="transition.valign">top</property>
      <property name="transition.halign">left</property>
      <property name="shotcut:animIn">00:00:00.400000</property>
      <property name="shotcut:animOut">00:00:00.000</property>
      <property name="transition.threads">0</property>
    </filter>
  </producer>
  <producer id="producer162" in="00:00:00.000" out="00:03:35.640" title="Anonymous Submission">
    <property name="length">00:03:35:17</property>
    <property name="eof">pause</property>
    <property name="resource">../../006 - Videos format youtube/Flutes/Gwenn_flute_totoro_recadre.mp4</property>
    <property name="audio_index">1</property>
    <property name="video_index">0</property>
    <property name="mute_on_pause">0</property>
    <property name="mlt_service">avformat-novalidate</property>
    <property name="seekable">1</property>
    <property name="aspect_ratio">1</property>
    <property name="creation_time">2020-04-30T15:27:42</property>
    <property name="shotcut:hash">100c5d626d0e8201453c2f0a20325b08</property>
    <property name="ignore_points">0</property>
    <property name="shotcut:caption">Gwenn_flute_totoro_recadre.mp4</property>
    <property name="shotcut:skipConvert">1</property>
    <property name="global_feed">1</property>
    <property name="xml">was here</property>
    <filter id="filter306" in="00:02:12.280000" out="00:02:15.640000">
      <property name="background">colour:0</property>
      <property name="mlt_service">affine</property>
      <property name="shotcut:filter">affineSizePosition</property>
      <property name="transition.fill">1</property>
      <property name="transition.distort">0</property>
      <property name="transition.rect">00:00:00.000000=1300.0 442.5 110.0 61.5 1;00:00:00.360000=1098.0 149.5 119.0 67.5 1</property>
      <property name="transition.valign">top</property>
      <property name="transition.halign">left</property>
      <property name="shotcut:animIn">00:00:00.400000</property>
      <property name="shotcut:animOut">00:00:00.000</property>
      <property name="transition.threads">0</property>
    </filter>
  </producer>
  <producer id="producer163" in="00:00:00.000" out="00:03:35.640" title="Anonymous Submission">
    <property name="length">00:03:35:17</property>
    <property name="eof">pause</property>
    <property name="resource">../../006 - Videos format youtube/Flutes/Gwenn_flute_totoro_recadre.mp4</property>
    <property name="audio_index">1</property>
    <property name="video_index">0</property>
    <property name="mute_on_pause">0</property>
    <property name="mlt_service">avformat-novalidate</property>
    <property name="seekable">1</property>
    <property name="aspect_ratio">1</property>
    <property name="creation_time">2020-04-30T15:27:42</property>
    <property name="shotcut:hash">100c5d626d0e8201453c2f0a20325b08</property>
    <property name="ignore_points">0</property>
    <property name="shotcut:caption">Gwenn_flute_totoro_recadre.mp4</property>
    <property name="shotcut:skipConvert">1</property>
    <property name="global_feed">1</property>
    <property name="xml">was here</property>
    <filter id="filter307" in="00:02:15.680000" out="00:02:21.960000">
      <property name="background">colour:0</property>
      <property name="mlt_service">affine</property>
      <property name="shotcut:filter">affineSizePosition</property>
      <property name="transition.fill">1</property>
      <property name="transition.distort">0</property>
      <property name="transition.rect">00:00:00.000000=1108.0 154.5 110.0 61.5 1;00:00:00.360000=586.0 293.5 119.0 67.5 1</property>
      <property name="transition.valign">top</property>
      <property name="transition.halign">left</property>
      <property name="shotcut:animIn">00:00:00.400000</property>
      <property name="shotcut:animOut">00:00:00.000</property>
      <property name="transition.threads">0</property>
    </filter>
  </producer>
  <playlist id="playlist24">
    <blank length="00:01:55.000000" /><property name="shotcut:video">1</property>
    <property name="shotcut:name">Gwenn miroir&#233;</property>
    <entry in="00:01:55.000000" out="00:01:58.560000" producer="producer157" />
  <entry in="00:01:58.600000" out="00:02:01.960000" producer="producer158" />
  <entry in="00:02:02.000000" out="00:02:05.400000" producer="producer159" />
  <entry in="00:02:05.440000" out="00:02:08.800000" producer="producer160" />
  <entry in="00:02:08.840000" out="00:02:12.240000" producer="producer161" />
  <entry in="00:02:12.280000" out="00:02:15.640000" producer="producer162" />
  <entry in="00:02:15.680000" out="00:02:21.960000" producer="producer163" />
  </playlist>
  <producer id="producer164" in="00:00:00.000" out="00:03:07.840" title="Anonymous Submission">
    <property name="length">00:03:07:22</property>
    <property name="eof">pause</property>
    <property name="resource">../../006 - Videos format youtube/Flutes/Benoit_flute_totoro2.mp4</property>
    <property name="audio_index">1</property>
    <property name="video_index">0</property>
    <property name="mute_on_pause">0</property>
    <property name="mlt_service">avformat-novalidate</property>
    <property name="seekable">1</property>
    <property name="aspect_ratio">1</property>
    <property name="creation_time">2020-04-25T18:09:23</property>
    <property name="shotcut:hash">25e06be6934fe2d45b07a99ff037b350</property>
    <property name="ignore_points">0</property>
    <property name="shotcut:caption">Benoit_flute_totoro2.mp4</property>
    <property name="shotcut:skipConvert">1</property>
    <property name="global_feed">1</property>
    <property name="xml">was here</property>
    <filter id="filter308" in="00:01:33.360000" out="00:01:36.920000">
      <property name="background">colour:0</property>
      <property name="mlt_service">affine</property>
      <property name="shotcut:filter">affineSizePosition</property>
      <property name="transition.fill">1</property>
      <property name="transition.distort">0</property>
      <property name="transition.rect">-1910.0 -1074.5 -9.0 -4.5 1</property>
      <property name="transition.valign">top</property>
      <property name="transition.halign">left</property>
      <property name="shotcut:animIn">00:00:00.000</property>
      <property name="shotcut:animOut">00:00:00.000</property>
      <property name="transition.threads">0</property>
    </filter>
  </producer>
  <producer id="producer165" in="00:00:00.000" out="00:03:07.840" title="Anonymous Submission">
    <property name="length">00:03:07:22</property>
    <property name="eof">pause</property>
    <property name="resource">../../006 - Videos format youtube/Flutes/Benoit_flute_totoro2.mp4</property>
    <property name="audio_index">1</property>
    <property name="video_index">0</property>
    <property name="mute_on_pause">0</property>
    <property name="mlt_service">avformat-novalidate</property>
    <property name="seekable">1</property>
    <property name="aspect_ratio">1</property>
    <property name="creation_time">2020-04-25T18:09:23</property>
    <property name="shotcut:hash">25e06be6934fe2d45b07a99ff037b350</property>
    <property name="ignore_points">0</property>
    <property name="shotcut:caption">Benoit_flute_totoro2.mp4</property>
    <property name="shotcut:skipConvert">1</property>
    <property name="global_feed">1</property>
    <property name="xml">was here</property>
    <filter id="filter309" in="00:01:36.960000" out="00:01:40.320000">
      <property name="background">colour:0</property>
      <property name="mlt_service">affine</property>
      <property name="shotcut:filter">affineSizePosition</property>
      <property name="transition.fill">1</property>
      <property name="transition.distort">0</property>
      <property name="transition.rect">00:00:00.000000=-1900.0 -1068.5 -18.0 -9.5 1;00:00:00.360000=906.0 724.5 119.0 67.5 1</property>
      <property name="transition.valign">top</property>
      <property name="transition.halign">left</property>
      <property name="shotcut:animIn">00:00:00.400000</property>
      <property name="shotcut:animOut">00:00:00.000</property>
      <property name="transition.threads">0</property>
    </filter>
  </producer>
  <producer id="producer166" in="00:00:00.000" out="00:03:07.840" title="Anonymous Submission">
    <property name="length">00:03:07:22</property>
    <property name="eof">pause</property>
    <property name="resource">../../006 - Videos format youtube/Flutes/Benoit_flute_totoro2.mp4</property>
    <property name="audio_index">1</property>
    <property name="video_index">0</property>
    <property name="mute_on_pause">0</property>
    <property name="mlt_service">avformat-novalidate</property>
    <property name="seekable">1</property>
    <property name="aspect_ratio">1</property>
    <property name="creation_time">2020-04-25T18:09:23</property>
    <property name="shotcut:hash">25e06be6934fe2d45b07a99ff037b350</property>
    <property name="ignore_points">0</property>
    <property name="shotcut:caption">Benoit_flute_totoro2.mp4</property>
    <property name="shotcut:skipConvert">1</property>
    <property name="global_feed">1</property>
    <property name="xml">was here</property>
    <filter id="filter310" in="00:01:40.360000" out="00:01:43.760000">
      <property name="background">colour:0</property>
      <property name="mlt_service">affine</property>
      <property name="shotcut:filter">affineSizePosition</property>
      <property name="transition.fill">1</property>
      <property name="transition.distort">0</property>
      <property name="transition.rect">00:00:00.000000=961.0 536.0 4.0 2.0 1;00:00:00.360000=1081.0 165.0 167.0 94.0 1</property>
      <property name="transition.valign">top</property>
      <property name="transition.halign">left</property>
      <property name="shotcut:animIn">00:00:00.400000</property>
      <property name="shotcut:animOut">00:00:00.000</property>
      <property name="transition.threads">0</property>
    </filter>
  </producer>
  <producer id="producer167" in="00:00:00.000" out="00:03:07.840" title="Anonymous Submission">
    <property name="length">00:03:07:22</property>
    <property name="eof">pause</property>
    <property name="resource">../../006 - Videos format youtube/Flutes/Benoit_flute_totoro2.mp4</property>
    <property name="audio_index">1</property>
    <property name="video_index">0</property>
    <property name="mute_on_pause">0</property>
    <property name="mlt_service">avformat-novalidate</property>
    <property name="seekable">1</property>
    <property name="aspect_ratio">1</property>
    <property name="creation_time">2020-04-25T18:09:23</property>
    <property name="shotcut:hash">25e06be6934fe2d45b07a99ff037b350</property>
    <property name="ignore_points">0</property>
    <property name="shotcut:caption">Benoit_flute_totoro2.mp4</property>
    <property name="shotcut:skipConvert">1</property>
    <property name="global_feed">1</property>
    <property name="xml">was here</property>
    <filter id="filter311" in="00:01:43.800000" out="00:01:47.160000">
      <property name="background">colour:0</property>
      <property name="mlt_service">affine</property>
      <property name="shotcut:filter">affineSizePosition</property>
      <property name="transition.fill">1</property>
      <property name="transition.distort">0</property>
      <property name="transition.rect">-1910.0 -1074.5 -9.0 -4.5 1</property>
      <property name="transition.valign">top</property>
      <property name="transition.halign">left</property>
      <property name="shotcut:animIn">00:00:00.400000</property>
      <property name="shotcut:animOut">00:00:00.000</property>
      <property name="transition.threads">0</property>
    </filter>
  </producer>
  <producer id="producer168" in="00:00:00.000" out="00:03:07.840" title="Anonymous Submission">
    <property name="length">00:03:07:22</property>
    <property name="eof">pause</property>
    <property name="resource">../../006 - Videos format youtube/Flutes/Benoit_flute_totoro2.mp4</property>
    <property name="audio_index">1</property>
    <property name="video_index">0</property>
    <property name="mute_on_pause">0</property>
    <property name="mlt_service">avformat-novalidate</property>
    <property name="seekable">1</property>
    <property name="aspect_ratio">1</property>
    <property name="creation_time">2020-04-25T18:09:23</property>
    <property name="shotcut:hash">25e06be6934fe2d45b07a99ff037b350</property>
    <property name="ignore_points">0</property>
    <property name="shotcut:caption">Benoit_flute_totoro2.mp4</property>
    <property name="shotcut:skipConvert">1</property>
    <property name="global_feed">1</property>
    <property name="xml">was here</property>
    <filter id="filter312" in="00:01:47.200000" out="00:01:50.600000">
      <property name="background">colour:0</property>
      <property name="mlt_service">affine</property>
      <property name="shotcut:filter">affineSizePosition</property>
      <property name="transition.fill">1</property>
      <property name="transition.distort">0</property>
      <property name="transition.rect">00:00:00.000000=-1900.0 -1068.5 -18.0 -9.5 1;00:00:00.360000=522.0 509.5 119.0 67.5 1</property>
      <property name="transition.valign">top</property>
      <property name="transition.halign">left</property>
      <property name="shotcut:animIn">00:00:00.400000</property>
      <property name="shotcut:animOut">00:00:00.000</property>
      <property name="transition.threads">0</property>
    </filter>
  </producer>
  <producer id="producer169" in="00:00:00.000" out="00:03:07.840" title="Anonymous Submission">
    <property name="length">00:03:07:22</property>
    <property name="eof">pause</property>
    <property name="resource">../../006 - Videos format youtube/Flutes/Benoit_flute_totoro2.mp4</property>
    <property name="audio_index">1</property>
    <property name="video_index">0</property>
    <property name="mute_on_pause">0</property>
    <property name="mlt_service">avformat-novalidate</property>
    <property name="seekable">1</property>
    <property name="aspect_ratio">1</property>
    <property name="creation_time">2020-04-25T18:09:23</property>
    <property name="shotcut:hash">25e06be6934fe2d45b07a99ff037b350</property>
    <property name="ignore_points">0</property>
    <property name="shotcut:caption">Benoit_flute_totoro2.mp4</property>
    <property name="shotcut:skipConvert">1</property>
    <property name="global_feed">1</property>
    <property name="xml">was here</property>
    <filter id="filter313" in="00:01:50.640000" out="00:01:54.000000">
      <property name="background">colour:0</property>
      <property name="mlt_service">affine</property>
      <property name="shotcut:filter">affineSizePosition</property>
      <property name="transition.fill">1</property>
      <property name="transition.distort">0</property>
      <property name="transition.rect">00:00:00.000000=532.0 513.5 110.0 61.5 1;00:00:00.360000=586.0 221.5 119.0 67.5 1</property>
      <property name="transition.valign">top</property>
      <property name="transition.halign">left</property>
      <property name="shotcut:animIn">00:00:00.400000</property>
      <property name="shotcut:animOut">00:00:00.000</property>
      <property name="transition.threads">0</property>
    </filter>
  </producer>
  <producer id="producer170" in="00:00:00.000" out="00:03:07.840" title="Anonymous Submission">
    <property name="length">00:03:07:22</property>
    <property name="eof">pause</property>
    <property name="resource">../../006 - Videos format youtube/Flutes/Benoit_flute_totoro2.mp4</property>
    <property name="audio_index">1</property>
    <property name="video_index">0</property>
    <property name="mute_on_pause">0</property>
    <property name="mlt_service">avformat-novalidate</property>
    <property name="seekable">1</property>
    <property name="aspect_ratio">1</property>
    <property name="creation_time">2020-04-25T18:09:23</property>
    <property name="shotcut:hash">25e06be6934fe2d45b07a99ff037b350</property>
    <property name="ignore_points">0</property>
    <property name="shotcut:caption">Benoit_flute_totoro2.mp4</property>
    <property name="shotcut:skipConvert">1</property>
    <property name="global_feed">1</property>
    <property name="xml">was here</property>
    <filter id="filter314" in="00:01:54.040000" out="00:02:00.320000">
      <property name="background">colour:0</property>
      <property name="mlt_service">affine</property>
      <property name="shotcut:filter">affineSizePosition</property>
      <property name="transition.fill">1</property>
      <property name="transition.distort">0</property>
      <property name="transition.rect">00:00:00.000000=596.0 226.5 110.0 61.5 1;00:00:00.360000=842.0 941.5 119.0 67.5 1</property>
      <property name="transition.valign">top</property>
      <property name="transition.halign">left</property>
      <property name="shotcut:animIn">00:00:00.400000</property>
      <property name="shotcut:animOut">00:00:00.000</property>
      <property name="transition.threads">0</property>
    </filter>
  </producer>
  <playlist id="playlist25">
    <property name="shotcut:video">1</property>
    <property name="shotcut:name">Benoit 2</property>
    <property name="shotcut:lock">1</property>
    <blank length="00:01:55.000000" />
    <entry in="00:01:33.360000" out="00:01:36.920000" producer="producer164" />
    <entry in="00:01:36.960000" out="00:01:40.320000" producer="producer165" />
    <entry in="00:01:40.360000" out="00:01:43.760000" producer="producer166" />
    <entry in="00:01:43.800000" out="00:01:47.160000" producer="producer167" />
    <entry in="00:01:47.200000" out="00:01:50.600000" producer="producer168" />
    <entry in="00:01:50.640000" out="00:01:54.000000" producer="producer169" />
    <entry in="00:01:54.040000" out="00:02:00.320000" producer="producer170" />
    </playlist>
  <producer id="producer171" in="00:00:00.000" out="00:03:15.240" title="Anonymous Submission">
    <property name="length">00:03:15:07</property>
    <property name="eof">pause</property>
    <property name="resource">../../006 - Videos format youtube/Flutes/Jawad_flute_totoro.mp4</property>
    <property name="audio_index">1</property>
    <property name="video_index">0</property>
    <property name="mute_on_pause">0</property>
    <property name="mlt_service">avformat-novalidate</property>
    <property name="seekable">1</property>
    <property name="aspect_ratio">1</property>
    <property name="creation_time">2020-04-23T20:25:29</property>
    <property name="shotcut:hash">bc7b77ed976cd8d1d97d8c5d2bfce239</property>
    <property name="ignore_points">0</property>
    <property name="shotcut:caption">Jawad_flute_totoro.mp4</property>
    <property name="shotcut:skipConvert">1</property>
    <property name="global_feed">1</property>
    <property name="xml">was here</property>
    <filter id="filter315" in="00:01:46.840000" out="00:01:50.400000">
      <property name="background">colour:0</property>
      <property name="mlt_service">affine</property>
      <property name="shotcut:filter">affineSizePosition</property>
      <property name="transition.fill">1</property>
      <property name="transition.distort">0</property>
      <property name="transition.rect">-1910.0 -1074.5 -9.0 -4.5 1</property>
      <property name="transition.valign">top</property>
      <property name="transition.halign">left</property>
      <property name="shotcut:animIn">00:00:00.000</property>
      <property name="shotcut:animOut">00:00:00.000</property>
      <property name="transition.threads">0</property>
    </filter>
    <filter id="filter316" in="00:01:46.840000" out="00:01:50.400000">
      <property name="window">75</property>
      <property name="max_gain">20dB</property>
      <property name="mlt_service">volume</property>
      <property name="shotcut:filter">muteVolume</property>
      <property name="gain">0</property>
    </filter>
  </producer>
  <producer id="producer172" in="00:00:00.000" out="00:03:15.240" title="Anonymous Submission">
    <property name="length">00:03:15:07</property>
    <property name="eof">pause</property>
    <property name="resource">../../006 - Videos format youtube/Flutes/Jawad_flute_totoro.mp4</property>
    <property name="audio_index">1</property>
    <property name="video_index">0</property>
    <property name="mute_on_pause">0</property>
    <property name="mlt_service">avformat-novalidate</property>
    <property name="seekable">1</property>
    <property name="aspect_ratio">1</property>
    <property name="creation_time">2020-04-23T20:25:29</property>
    <property name="shotcut:hash">bc7b77ed976cd8d1d97d8c5d2bfce239</property>
    <property name="ignore_points">0</property>
    <property name="shotcut:caption">Jawad_flute_totoro.mp4</property>
    <property name="shotcut:skipConvert">1</property>
    <property name="global_feed">1</property>
    <property name="xml">was here</property>
    <filter id="filter317" in="00:01:50.440000" out="00:01:53.800000">
      <property name="background">colour:0</property>
      <property name="mlt_service">affine</property>
      <property name="shotcut:filter">affineSizePosition</property>
      <property name="transition.fill">1</property>
      <property name="transition.distort">0</property>
      <property name="transition.rect">00:00:00.000000=-1900.0 -1068.5 -18.0 -9.5 1;00:00:00.360000=777.0 797.5 119.0 67.5 1</property>
      <property name="transition.valign">top</property>
      <property name="transition.halign">left</property>
      <property name="shotcut:animIn">00:00:00.400000</property>
      <property name="shotcut:animOut">00:00:00.000</property>
      <property name="transition.threads">0</property>
    </filter>
    <filter id="filter318" in="00:01:50.440000" out="00:01:53.800000">
      <property name="window">75</property>
      <property name="max_gain">20dB</property>
      <property name="mlt_service">volume</property>
      <property name="shotcut:filter">muteVolume</property>
      <property name="gain">0</property>
    </filter>
  </producer>
  <producer id="producer173" in="00:00:00.000" out="00:03:15.240" title="Anonymous Submission">
    <property name="length">00:03:15:07</property>
    <property name="eof">pause</property>
    <property name="resource">../../006 - Videos format youtube/Flutes/Jawad_flute_totoro.mp4</property>
    <property name="audio_index">1</property>
    <property name="video_index">0</property>
    <property name="mute_on_pause">0</property>
    <property name="mlt_service">avformat-novalidate</property>
    <property name="seekable">1</property>
    <property name="aspect_ratio">1</property>
    <property name="creation_time">2020-04-23T20:25:29</property>
    <property name="shotcut:hash">bc7b77ed976cd8d1d97d8c5d2bfce239</property>
    <property name="ignore_points">0</property>
    <property name="shotcut:caption">Jawad_flute_totoro.mp4</property>
    <property name="shotcut:skipConvert">1</property>
    <property name="global_feed">1</property>
    <property name="xml">was here</property>
    <filter id="filter319" in="00:01:53.840000" out="00:01:57.240000">
      <property name="background">colour:0</property>
      <property name="mlt_service">affine</property>
      <property name="shotcut:filter">affineSizePosition</property>
      <property name="transition.fill">1</property>
      <property name="transition.distort">0</property>
      <property name="transition.rect">00:00:00.000000=953.0 539.0 4.0 2.0 1;00:00:00.360000=582.0 352.0 167.0 94.0 1</property>
      <property name="transition.valign">top</property>
      <property name="transition.halign">left</property>
      <property name="shotcut:animIn">00:00:00.400000</property>
      <property name="shotcut:animOut">00:00:00.000</property>
      <property name="transition.threads">0</property>
    </filter>
    <filter id="filter320" in="00:01:53.840000" out="00:01:57.240000">
      <property name="window">75</property>
      <property name="max_gain">20dB</property>
      <property name="mlt_service">volume</property>
      <property name="shotcut:filter">muteVolume</property>
      <property name="gain">0</property>
    </filter>
  </producer>
  <producer id="producer174" in="00:00:00.000" out="00:03:15.240" title="Anonymous Submission">
    <property name="length">00:03:15:07</property>
    <property name="eof">pause</property>
    <property name="resource">../../006 - Videos format youtube/Flutes/Jawad_flute_totoro.mp4</property>
    <property name="audio_index">1</property>
    <property name="video_index">0</property>
    <property name="mute_on_pause">0</property>
    <property name="mlt_service">avformat-novalidate</property>
    <property name="seekable">1</property>
    <property name="aspect_ratio">1</property>
    <property name="creation_time">2020-04-23T20:25:29</property>
    <property name="shotcut:hash">bc7b77ed976cd8d1d97d8c5d2bfce239</property>
    <property name="ignore_points">0</property>
    <property name="shotcut:caption">Jawad_flute_totoro.mp4</property>
    <property name="shotcut:skipConvert">1</property>
    <property name="global_feed">1</property>
    <property name="xml">was here</property>
    <filter id="filter321" in="00:01:57.280000" out="00:02:00.640000">
      <property name="background">colour:0</property>
      <property name="mlt_service">affine</property>
      <property name="shotcut:filter">affineSizePosition</property>
      <property name="transition.fill">1</property>
      <property name="transition.distort">0</property>
      <property name="transition.rect">00:00:00.000000=592.0 357.5 158.0 88.5 1;00:00:00.360000=650.0 149.5 119.0 67.5 1</property>
      <property name="transition.valign">top</property>
      <property name="transition.halign">left</property>
      <property name="shotcut:animIn">00:00:00.400000</property>
      <property name="shotcut:animOut">00:00:00.000</property>
      <property name="transition.threads">0</property>
    </filter>
    <filter id="filter322" in="00:01:57.280000" out="00:02:00.640000">
      <property name="window">75</property>
      <property name="max_gain">20dB</property>
      <property name="mlt_service">volume</property>
      <property name="shotcut:filter">muteVolume</property>
      <property name="gain">0</property>
    </filter>
  </producer>
  <producer id="producer175" in="00:00:00.000" out="00:03:15.240" title="Anonymous Submission">
    <property name="length">00:03:15:07</property>
    <property name="eof">pause</property>
    <property name="resource">../../006 - Videos format youtube/Flutes/Jawad_flute_totoro.mp4</property>
    <property name="audio_index">1</property>
    <property name="video_index">0</property>
    <property name="mute_on_pause">0</property>
    <property name="mlt_service">avformat-novalidate</property>
    <property name="seekable">1</property>
    <property name="aspect_ratio">1</property>
    <property name="creation_time">2020-04-23T20:25:29</property>
    <property name="shotcut:hash">bc7b77ed976cd8d1d97d8c5d2bfce239</property>
    <property name="ignore_points">0</property>
    <property name="shotcut:caption">Jawad_flute_totoro.mp4</property>
    <property name="shotcut:skipConvert">1</property>
    <property name="global_feed">1</property>
    <property name="xml">was here</property>
    <filter id="filter323" in="00:02:00.680000" out="00:02:04.080000">
      <property name="background">colour:0</property>
      <property name="mlt_service">affine</property>
      <property name="shotcut:filter">affineSizePosition</property>
      <property name="transition.fill">1</property>
      <property name="transition.distort">0</property>
      <property name="transition.rect">00:00:00.000000=660.0 154.5 110.0 61.5 1;00:00:00.360000=1290.0 509.5 119.0 67.5 1</property>
      <property name="transition.valign">top</property>
      <property name="transition.halign">left</property>
      <property name="shotcut:animIn">00:00:00.400000</property>
      <property name="shotcut:animOut">00:00:00.000</property>
      <property name="transition.threads">0</property>
    </filter>
    <filter id="filter324" in="00:02:00.680000" out="00:02:04.080000">
      <property name="window">75</property>
      <property name="max_gain">20dB</property>
      <property name="mlt_service">volume</property>
      <property name="shotcut:filter">muteVolume</property>
      <property name="gain">0</property>
    </filter>
  </producer>
  <producer id="producer176" in="00:00:00.000" out="00:03:15.240" title="Anonymous Submission">
    <property name="length">00:03:15:07</property>
    <property name="eof">pause</property>
    <property name="resource">../../006 - Videos format youtube/Flutes/Jawad_flute_totoro.mp4</property>
    <property name="audio_index">1</property>
    <property name="video_index">0</property>
    <property name="mute_on_pause">0</property>
    <property name="mlt_service">avformat-novalidate</property>
    <property name="seekable">1</property>
    <property name="aspect_ratio">1</property>
    <property name="creation_time">2020-04-23T20:25:29</property>
    <property name="shotcut:hash">bc7b77ed976cd8d1d97d8c5d2bfce239</property>
    <property name="ignore_points">0</property>
    <property name="shotcut:caption">Jawad_flute_totoro.mp4</property>
    <property name="shotcut:skipConvert">1</property>
    <property name="global_feed">1</property>
    <property name="xml">was here</property>
    <filter id="filter325" in="00:02:04.120000" out="00:02:07.480000">
      <property name="background">colour:0</property>
      <property name="mlt_service">affine</property>
      <property name="shotcut:filter">affineSizePosition</property>
      <property name="transition.fill">1</property>
      <property name="transition.distort">0</property>
      <property name="transition.rect">00:00:00.000000=1300.0 513.5 110.0 61.5 1;00:00:00.360000=586.0 868.5 119.0 67.5 1</property>
      <property name="transition.valign">top</property>
      <property name="transition.halign">left</property>
      <property name="shotcut:animIn">00:00:00.400000</property>
      <property name="shotcut:animOut">00:00:00.000</property>
      <property name="transition.threads">0</property>
    </filter>
    <filter id="filter326" in="00:02:04.120000" out="00:02:07.480000">
      <property name="window">75</property>
      <property name="max_gain">20dB</property>
      <property name="mlt_service">volume</property>
      <property name="shotcut:filter">muteVolume</property>
      <property name="gain">0</property>
    </filter>
  </producer>
  <producer id="producer177" in="00:00:00.000" out="00:03:15.240" title="Anonymous Submission">
    <property name="length">00:03:15:07</property>
    <property name="eof">pause</property>
    <property name="resource">../../006 - Videos format youtube/Flutes/Jawad_flute_totoro.mp4</property>
    <property name="audio_index">1</property>
    <property name="video_index">0</property>
    <property name="mute_on_pause">0</property>
    <property name="mlt_service">avformat-novalidate</property>
    <property name="seekable">1</property>
    <property name="aspect_ratio">1</property>
    <property name="creation_time">2020-04-23T20:25:29</property>
    <property name="shotcut:hash">bc7b77ed976cd8d1d97d8c5d2bfce239</property>
    <property name="ignore_points">0</property>
    <property name="shotcut:caption">Jawad_flute_totoro.mp4</property>
    <property name="shotcut:skipConvert">1</property>
    <property name="global_feed">1</property>
    <property name="xml">was here</property>
    <filter id="filter327" in="00:02:07.520000" out="00:02:13.800000">
      <property name="background">colour:0</property>
      <property name="mlt_service">affine</property>
      <property name="shotcut:filter">affineSizePosition</property>
      <property name="transition.fill">1</property>
      <property name="transition.distort">0</property>
      <property name="transition.rect">00:00:00.000000=596.0 873.5 110.0 61.5 1;00:00:00.360000=1226.0 797.5 119.0 67.5 1</property>
      <property name="transition.valign">top</property>
      <property name="transition.halign">left</property>
      <property name="shotcut:animIn">00:00:00.400000</property>
      <property name="shotcut:animOut">00:00:00.000</property>
      <property name="transition.threads">0</property>
    </filter>
    <filter id="filter328" in="00:02:07.520000" out="00:02:13.800000">
      <property name="window">75</property>
      <property name="max_gain">20dB</property>
      <property name="mlt_service">volume</property>
      <property name="shotcut:filter">muteVolume</property>
      <property name="gain">0</property>
    </filter>
  </producer>
  <playlist id="playlist26">
    <property name="shotcut:video">1</property>
    <property name="shotcut:name">Jawad</property>
    <property name="shotcut:lock">1</property>
    <blank length="00:01:55.000000" />
    <entry in="00:01:46.840000" out="00:01:50.400000" producer="producer171" />
  <entry in="00:01:50.440000" out="00:01:53.800000" producer="producer172" />
  <entry in="00:01:53.840000" out="00:01:57.240000" producer="producer173" />
  <entry in="00:01:57.280000" out="00:02:00.640000" producer="producer174" />
  <entry in="00:02:00.680000" out="00:02:04.080000" producer="producer175" />
  <entry in="00:02:04.120000" out="00:02:07.480000" producer="producer176" />
  <entry in="00:02:07.520000" out="00:02:13.800000" producer="producer177" />
  </playlist>
  <producer id="producer178" in="00:00:00.000" out="00:03:11.560" title="Anonymous Submission">
    <property name="length">00:03:11:15</property>
    <property name="eof">pause</property>
    <property name="resource">../../006 - Videos format youtube/Hautbois/Aur&#233;lie_hautbois_totoro.mp4</property>
    <property name="audio_index">1</property>
    <property name="video_index">0</property>
    <property name="mute_on_pause">0</property>
    <property name="mlt_service">avformat-novalidate</property>
    <property name="seekable">1</property>
    <property name="aspect_ratio">1</property>
    <property name="shotcut:hash">eef028a0ef9d0a891fcda437adec93c6</property>
    <property name="ignore_points">0</property>
    <property name="shotcut:caption">Aur&#233;lie_hautbois_totoro.mp4</property>
    <property name="shotcut:skipConvert">1</property>
    <property name="global_feed">1</property>
    <property name="xml">was here</property>
    <filter id="filter329" in="00:01:47.040000" out="00:01:50.600000">
      <property name="background">colour:0</property>
      <property name="mlt_service">affine</property>
      <property name="shotcut:filter">affineSizePosition</property>
      <property name="transition.fill">1</property>
      <property name="transition.distort">0</property>
      <property name="transition.rect">-1910.0 -1074.5 -9.0 -4.5 1</property>
      <property name="transition.valign">top</property>
      <property name="transition.halign">left</property>
      <property name="shotcut:animIn">00:00:00.000</property>
      <property name="shotcut:animOut">00:00:00.000</property>
      <property name="transition.threads">0</property>
    </filter>
  </producer>
  <producer id="producer179" in="00:00:00.000" out="00:03:11.560" title="Anonymous Submission">
    <property name="length">00:03:11:15</property>
    <property name="eof">pause</property>
    <property name="resource">../../006 - Videos format youtube/Hautbois/Aur&#233;lie_hautbois_totoro.mp4</property>
    <property name="audio_index">1</property>
    <property name="video_index">0</property>
    <property name="mute_on_pause">0</property>
    <property name="mlt_service">avformat-novalidate</property>
    <property name="seekable">1</property>
    <property name="aspect_ratio">1</property>
    <property name="shotcut:hash">eef028a0ef9d0a891fcda437adec93c6</property>
    <property name="ignore_points">0</property>
    <property name="shotcut:caption">Aur&#233;lie_hautbois_totoro.mp4</property>
    <property name="shotcut:skipConvert">1</property>
    <property name="global_feed">1</property>
    <property name="xml">was here</property>
    <filter id="filter330" in="00:01:50.640000" out="00:01:54.000000">
      <property name="background">colour:0</property>
      <property name="mlt_service">affine</property>
      <property name="shotcut:filter">affineSizePosition</property>
      <property name="transition.fill">1</property>
      <property name="transition.distort">0</property>
      <property name="transition.rect">00:00:00.000000=-1900.0 -1068.5 -18.0 -9.5 1;00:00:00.360000=906.0 797.5 119.0 67.5 1</property>
      <property name="transition.valign">top</property>
      <property name="transition.halign">left</property>
      <property name="shotcut:animIn">00:00:00.400000</property>
      <property name="shotcut:animOut">00:00:00.000</property>
      <property name="transition.threads">0</property>
    </filter>
  </producer>
  <producer id="producer180" in="00:00:00.000" out="00:03:11.560" title="Anonymous Submission">
    <property name="length">00:03:11:15</property>
    <property name="eof">pause</property>
    <property name="resource">../../006 - Videos format youtube/Hautbois/Aur&#233;lie_hautbois_totoro.mp4</property>
    <property name="audio_index">1</property>
    <property name="video_index">0</property>
    <property name="mute_on_pause">0</property>
    <property name="mlt_service">avformat-novalidate</property>
    <property name="seekable">1</property>
    <property name="aspect_ratio">1</property>
    <property name="shotcut:hash">eef028a0ef9d0a891fcda437adec93c6</property>
    <property name="ignore_points">0</property>
    <property name="shotcut:caption">Aur&#233;lie_hautbois_totoro.mp4</property>
    <property name="shotcut:skipConvert">1</property>
    <property name="global_feed">1</property>
    <property name="xml">was here</property>
    <filter id="filter331" in="00:01:54.040000" out="00:01:57.440000">
      <property name="background">colour:0</property>
      <property name="mlt_service">affine</property>
      <property name="shotcut:filter">affineSizePosition</property>
      <property name="transition.fill">1</property>
      <property name="transition.distort">0</property>
      <property name="transition.rect">00:00:00.000000=957.0 546.0 4.0 2.0 1;00:00:00.360000=831.0 820.0 167.0 94.0 1</property>
      <property name="transition.valign">top</property>
      <property name="transition.halign">left</property>
      <property name="shotcut:animIn">00:00:00.400000</property>
      <property name="shotcut:animOut">00:00:00.000</property>
      <property name="transition.threads">0</property>
    </filter>
  </producer>
  <producer id="producer181" in="00:00:00.000" out="00:03:11.560" title="Anonymous Submission">
    <property name="length">00:03:11:15</property>
    <property name="eof">pause</property>
    <property name="resource">../../006 - Videos format youtube/Hautbois/Aur&#233;lie_hautbois_totoro.mp4</property>
    <property name="audio_index">1</property>
    <property name="video_index">0</property>
    <property name="mute_on_pause">0</property>
    <property name="mlt_service">avformat-novalidate</property>
    <property name="seekable">1</property>
    <property name="aspect_ratio">1</property>
    <property name="shotcut:hash">eef028a0ef9d0a891fcda437adec93c6</property>
    <property name="ignore_points">0</property>
    <property name="shotcut:caption">Aur&#233;lie_hautbois_totoro.mp4</property>
    <property name="shotcut:skipConvert">1</property>
    <property name="global_feed">1</property>
    <property name="xml">was here</property>
    <filter id="filter332" in="00:01:57.480000" out="00:02:00.840000">
      <property name="background">colour:0</property>
      <property name="mlt_service">affine</property>
      <property name="shotcut:filter">affineSizePosition</property>
      <property name="transition.fill">1</property>
      <property name="transition.distort">0</property>
      <property name="transition.rect">00:00:00.000000=841.0 825.5 158.0 88.5 1;00:00:00.360000=777.0 580.5 119.0 67.5 1</property>
      <property name="transition.valign">top</property>
      <property name="transition.halign">left</property>
      <property name="shotcut:animIn">00:00:00.400000</property>
      <property name="shotcut:animOut">00:00:00.000</property>
      <property name="transition.threads">0</property>
    </filter>
  </producer>
  <producer id="producer182" in="00:00:00.000" out="00:03:11.560" title="Anonymous Submission">
    <property name="length">00:03:11:15</property>
    <property name="eof">pause</property>
    <property name="resource">../../006 - Videos format youtube/Hautbois/Aur&#233;lie_hautbois_totoro.mp4</property>
    <property name="audio_index">1</property>
    <property name="video_index">0</property>
    <property name="mute_on_pause">0</property>
    <property name="mlt_service">avformat-novalidate</property>
    <property name="seekable">1</property>
    <property name="aspect_ratio">1</property>
    <property name="shotcut:hash">eef028a0ef9d0a891fcda437adec93c6</property>
    <property name="ignore_points">0</property>
    <property name="shotcut:caption">Aur&#233;lie_hautbois_totoro.mp4</property>
    <property name="shotcut:skipConvert">1</property>
    <property name="global_feed">1</property>
    <property name="xml">was here</property>
    <filter id="filter333" in="00:02:00.880000" out="00:02:04.280000">
      <property name="background">colour:0</property>
      <property name="mlt_service">affine</property>
      <property name="shotcut:filter">affineSizePosition</property>
      <property name="transition.fill">1</property>
      <property name="transition.distort">0</property>
      <property name="transition.rect">00:00:00.000000=787.0 585.5 110.0 61.5 1;00:00:00.360000=522.0 581.5 119.0 67.5 1</property>
      <property name="transition.valign">top</property>
      <property name="transition.halign">left</property>
      <property name="shotcut:animIn">00:00:00.400000</property>
      <property name="shotcut:animOut">00:00:00.000</property>
      <property name="transition.threads">0</property>
    </filter>
  </producer>
  <producer id="producer183" in="00:00:00.000" out="00:03:11.560" title="Anonymous Submission">
    <property name="length">00:03:11:15</property>
    <property name="eof">pause</property>
    <property name="resource">../../006 - Videos format youtube/Hautbois/Aur&#233;lie_hautbois_totoro.mp4</property>
    <property name="audio_index">1</property>
    <property name="video_index">0</property>
    <property name="mute_on_pause">0</property>
    <property name="mlt_service">avformat-novalidate</property>
    <property name="seekable">1</property>
    <property name="aspect_ratio">1</property>
    <property name="shotcut:hash">eef028a0ef9d0a891fcda437adec93c6</property>
    <property name="ignore_points">0</property>
    <property name="shotcut:caption">Aur&#233;lie_hautbois_totoro.mp4</property>
    <property name="shotcut:skipConvert">1</property>
    <property name="global_feed">1</property>
    <property name="xml">was here</property>
    <filter id="filter334" in="00:02:04.320000" out="00:02:07.680000">
      <property name="background">colour:0</property>
      <property name="mlt_service">affine</property>
      <property name="shotcut:filter">affineSizePosition</property>
      <property name="transition.fill">1</property>
      <property name="transition.distort">0</property>
      <property name="transition.rect">00:00:00.000000=532.0 586.5 110.0 61.5 1;00:00:00.360000=714.0 221.5 119.0 67.5 1</property>
      <property name="transition.valign">top</property>
      <property name="transition.halign">left</property>
      <property name="shotcut:animIn">00:00:00.400000</property>
      <property name="shotcut:animOut">00:00:00.000</property>
      <property name="transition.threads">0</property>
    </filter>
  </producer>
  <producer id="producer184" in="00:00:00.000" out="00:03:11.560" title="Anonymous Submission">
    <property name="length">00:03:11:15</property>
    <property name="eof">pause</property>
    <property name="resource">../../006 - Videos format youtube/Hautbois/Aur&#233;lie_hautbois_totoro.mp4</property>
    <property name="audio_index">1</property>
    <property name="video_index">0</property>
    <property name="mute_on_pause">0</property>
    <property name="mlt_service">avformat-novalidate</property>
    <property name="seekable">1</property>
    <property name="aspect_ratio">1</property>
    <property name="shotcut:hash">eef028a0ef9d0a891fcda437adec93c6</property>
    <property name="ignore_points">0</property>
    <property name="shotcut:caption">Aur&#233;lie_hautbois_totoro.mp4</property>
    <property name="shotcut:skipConvert">1</property>
    <property name="global_feed">1</property>
    <property name="xml">was here</property>
    <filter id="filter335" in="00:02:07.720000" out="00:02:14.000000">
      <property name="background">colour:0</property>
      <property name="mlt_service">affine</property>
      <property name="shotcut:filter">affineSizePosition</property>
      <property name="transition.fill">1</property>
      <property name="transition.distort">0</property>
      <property name="transition.rect">00:00:00.000000=724.0 226.5 110.0 61.5 1;00:00:00.360000=714.0 725.5 119.0 67.5 1</property>
      <property name="transition.valign">top</property>
      <property name="transition.halign">left</property>
      <property name="shotcut:animIn">00:00:00.400000</property>
      <property name="shotcut:animOut">00:00:00.000</property>
      <property name="transition.threads">0</property>
    </filter>
  </producer>
  <playlist id="playlist27">
    <property name="shotcut:video">1</property>
    <property name="shotcut:name">Aur&#233;lie_hautbois</property>
    <property name="shotcut:lock">1</property>
    <blank length="00:01:55.000000" />
    <entry in="00:01:47.040000" out="00:01:50.600000" producer="producer178" />
    <entry in="00:01:50.640000" out="00:01:54.000000" producer="producer179" />
    <entry in="00:01:54.040000" out="00:01:57.440000" producer="producer180" />
    <entry in="00:01:57.480000" out="00:02:00.840000" producer="producer181" />
    <entry in="00:02:00.880000" out="00:02:04.280000" producer="producer182" />
    <entry in="00:02:04.320000" out="00:02:07.680000" producer="producer183" />
    <entry in="00:02:07.720000" out="00:02:14.000000" producer="producer184" />
    <filter id="filter336" out="00:03:35.640">
      <property name="window">75</property>
      <property name="max_gain">20dB</property>
      <property name="level">-5</property>
      <property name="mlt_service">volume</property>
    </filter>
  </playlist>
  <producer id="producer185" in="00:00:00.000" out="00:03:26.320" title="Anonymous Submission">
    <property name="length">00:03:26:09</property>
    <property name="eof">pause</property>
    <property name="resource">../../006 - Videos format youtube/Hautbois/Veronique_hautbois_totoro.mp4</property>
    <property name="audio_index">1</property>
    <property name="video_index">0</property>
    <property name="mute_on_pause">0</property>
    <property name="mlt_service">avformat-novalidate</property>
    <property name="seekable">1</property>
    <property name="aspect_ratio">1</property>
    <property name="creation_time">2020-04-17T16:41:56</property>
    <property name="shotcut:hash">506874eb3b33a62e78b559d4ce6a6bec</property>
    <property name="ignore_points">0</property>
    <property name="shotcut:caption">Veronique_hautbois_totoro.mp4</property>
    <property name="shotcut:skipConvert">1</property>
    <property name="global_feed">1</property>
    <property name="xml">was here</property>
    <filter id="filter337" in="00:01:45.720000" out="00:01:49.280000">
      <property name="background">colour:0</property>
      <property name="mlt_service">affine</property>
      <property name="shotcut:filter">affineSizePosition</property>
      <property name="transition.fill">1</property>
      <property name="transition.distort">0</property>
      <property name="transition.rect">-1910.0 -1074.5 -9.0 -4.5 1</property>
      <property name="transition.valign">top</property>
      <property name="transition.halign">left</property>
      <property name="shotcut:animIn">00:00:00.000</property>
      <property name="shotcut:animOut">00:00:00.000</property>
      <property name="transition.threads">0</property>
    </filter>
  </producer>
  <producer id="producer186" in="00:00:00.000" out="00:03:26.320" title="Anonymous Submission">
    <property name="length">00:03:26:09</property>
    <property name="eof">pause</property>
    <property name="resource">../../006 - Videos format youtube/Hautbois/Veronique_hautbois_totoro.mp4</property>
    <property name="audio_index">1</property>
    <property name="video_index">0</property>
    <property name="mute_on_pause">0</property>
    <property name="mlt_service">avformat-novalidate</property>
    <property name="seekable">1</property>
    <property name="aspect_ratio">1</property>
    <property name="creation_time">2020-04-17T16:41:56</property>
    <property name="shotcut:hash">506874eb3b33a62e78b559d4ce6a6bec</property>
    <property name="ignore_points">0</property>
    <property name="shotcut:caption">Veronique_hautbois_totoro.mp4</property>
    <property name="shotcut:skipConvert">1</property>
    <property name="global_feed">1</property>
    <property name="xml">was here</property>
    <filter id="filter338" in="00:01:49.320000" out="00:01:52.680000">
      <property name="background">colour:0</property>
      <property name="mlt_service">affine</property>
      <property name="shotcut:filter">affineSizePosition</property>
      <property name="transition.fill">1</property>
      <property name="transition.distort">0</property>
      <property name="transition.rect">00:00:00.000000=-1900.0 -1068.5 -18.0 -9.5 1;00:00:00.360000=650.0 868.5 119.0 67.5 1</property>
      <property name="transition.valign">top</property>
      <property name="transition.halign">left</property>
      <property name="shotcut:animIn">00:00:00.400000</property>
      <property name="shotcut:animOut">00:00:00.000</property>
      <property name="transition.threads">0</property>
    </filter>
  </producer>
  <producer id="producer187" in="00:00:00.000" out="00:03:26.320" title="Anonymous Submission">
    <property name="length">00:03:26:09</property>
    <property name="eof">pause</property>
    <property name="resource">../../006 - Videos format youtube/Hautbois/Veronique_hautbois_totoro.mp4</property>
    <property name="audio_index">1</property>
    <property name="video_index">0</property>
    <property name="mute_on_pause">0</property>
    <property name="mlt_service">avformat-novalidate</property>
    <property name="seekable">1</property>
    <property name="aspect_ratio">1</property>
    <property name="creation_time">2020-04-17T16:41:56</property>
    <property name="shotcut:hash">506874eb3b33a62e78b559d4ce6a6bec</property>
    <property name="ignore_points">0</property>
    <property name="shotcut:caption">Veronique_hautbois_totoro.mp4</property>
    <property name="shotcut:skipConvert">1</property>
    <property name="global_feed">1</property>
    <property name="xml">was here</property>
    <filter id="filter339" in="00:01:52.720000" out="00:01:56.120000">
      <property name="background">colour:0</property>
      <property name="mlt_service">affine</property>
      <property name="shotcut:filter">affineSizePosition</property>
      <property name="transition.fill">1</property>
      <property name="transition.distort">0</property>
      <property name="transition.rect">00:00:00.000000=961.0 539.0 4.0 2.0 1;00:00:00.360000=1081.0 352.0 167.0 94.0 1</property>
      <property name="transition.valign">top</property>
      <property name="transition.halign">left</property>
      <property name="shotcut:animIn">00:00:00.400000</property>
      <property name="shotcut:animOut">00:00:00.000</property>
      <property name="transition.threads">0</property>
    </filter>
  </producer>
  <producer id="producer188" in="00:00:00.000" out="00:03:26.320" title="Anonymous Submission">
    <property name="length">00:03:26:09</property>
    <property name="eof">pause</property>
    <property name="resource">../../006 - Videos format youtube/Hautbois/Veronique_hautbois_totoro.mp4</property>
    <property name="audio_index">1</property>
    <property name="video_index">0</property>
    <property name="mute_on_pause">0</property>
    <property name="mlt_service">avformat-novalidate</property>
    <property name="seekable">1</property>
    <property name="aspect_ratio">1</property>
    <property name="creation_time">2020-04-17T16:41:56</property>
    <property name="shotcut:hash">506874eb3b33a62e78b559d4ce6a6bec</property>
    <property name="ignore_points">0</property>
    <property name="shotcut:caption">Veronique_hautbois_totoro.mp4</property>
    <property name="shotcut:skipConvert">1</property>
    <property name="global_feed">1</property>
    <property name="xml">was here</property>
    <filter id="filter340" in="00:01:56.160000" out="00:01:59.520000">
      <property name="background">colour:0</property>
      <property name="mlt_service">affine</property>
      <property name="shotcut:filter">affineSizePosition</property>
      <property name="transition.fill">1</property>
      <property name="transition.distort">0</property>
      <property name="transition.rect">-1910.0 -1074.5 -9.0 -4.5 1</property>
      <property name="transition.valign">top</property>
      <property name="transition.halign">left</property>
      <property name="shotcut:animIn">00:00:00.400000</property>
      <property name="shotcut:animOut">00:00:00.000</property>
      <property name="transition.threads">0</property>
    </filter>
  </producer>
  <producer id="producer189" in="00:00:00.000" out="00:03:26.320" title="Anonymous Submission">
    <property name="length">00:03:26:09</property>
    <property name="eof">pause</property>
    <property name="resource">../../006 - Videos format youtube/Hautbois/Veronique_hautbois_totoro.mp4</property>
    <property name="audio_index">1</property>
    <property name="video_index">0</property>
    <property name="mute_on_pause">0</property>
    <property name="mlt_service">avformat-novalidate</property>
    <property name="seekable">1</property>
    <property name="aspect_ratio">1</property>
    <property name="creation_time">2020-04-17T16:41:56</property>
    <property name="shotcut:hash">506874eb3b33a62e78b559d4ce6a6bec</property>
    <property name="ignore_points">0</property>
    <property name="shotcut:caption">Veronique_hautbois_totoro.mp4</property>
    <property name="shotcut:skipConvert">1</property>
    <property name="global_feed">1</property>
    <property name="xml">was here</property>
    <filter id="filter341" in="00:01:59.560000" out="00:02:02.960000">
      <property name="background">colour:0</property>
      <property name="mlt_service">affine</property>
      <property name="shotcut:filter">affineSizePosition</property>
      <property name="transition.fill">1</property>
      <property name="transition.distort">0</property>
      <property name="transition.rect">00:00:00.000000=-1900.0 -1068.5 -18.0 -9.5 1;00:00:00.360000=1290.0 581.5 119.0 67.5 1</property>
      <property name="transition.valign">top</property>
      <property name="transition.halign">left</property>
      <property name="shotcut:animIn">00:00:00.400000</property>
      <property name="shotcut:animOut">00:00:00.000</property>
      <property name="transition.threads">0</property>
    </filter>
  </producer>
  <producer id="producer190" in="00:00:00.000" out="00:03:26.320" title="Anonymous Submission">
    <property name="length">00:03:26:09</property>
    <property name="eof">pause</property>
    <property name="resource">../../006 - Videos format youtube/Hautbois/Veronique_hautbois_totoro.mp4</property>
    <property name="audio_index">1</property>
    <property name="video_index">0</property>
    <property name="mute_on_pause">0</property>
    <property name="mlt_service">avformat-novalidate</property>
    <property name="seekable">1</property>
    <property name="aspect_ratio">1</property>
    <property name="creation_time">2020-04-17T16:41:56</property>
    <property name="shotcut:hash">506874eb3b33a62e78b559d4ce6a6bec</property>
    <property name="ignore_points">0</property>
    <property name="shotcut:caption">Veronique_hautbois_totoro.mp4</property>
    <property name="shotcut:skipConvert">1</property>
    <property name="global_feed">1</property>
    <property name="xml">was here</property>
    <filter id="filter342" in="00:02:03.000000" out="00:02:06.360000">
      <property name="background">colour:0</property>
      <property name="mlt_service">affine</property>
      <property name="shotcut:filter">affineSizePosition</property>
      <property name="transition.fill">1</property>
      <property name="transition.distort">0</property>
      <property name="transition.rect">00:00:00.000000=1300.0 586.5 110.0 61.5 1;00:00:00.360000=586.0 509.5 119.0 67.5 1</property>
      <property name="transition.valign">top</property>
      <property name="transition.halign">left</property>
      <property name="shotcut:animIn">00:00:00.400000</property>
      <property name="shotcut:animOut">00:00:00.000</property>
      <property name="transition.threads">0</property>
    </filter>
  </producer>
  <producer id="producer191" in="00:00:00.000" out="00:03:26.320" title="Anonymous Submission">
    <property name="length">00:03:26:09</property>
    <property name="eof">pause</property>
    <property name="resource">../../006 - Videos format youtube/Hautbois/Veronique_hautbois_totoro.mp4</property>
    <property name="audio_index">1</property>
    <property name="video_index">0</property>
    <property name="mute_on_pause">0</property>
    <property name="mlt_service">avformat-novalidate</property>
    <property name="seekable">1</property>
    <property name="aspect_ratio">1</property>
    <property name="creation_time">2020-04-17T16:41:56</property>
    <property name="shotcut:hash">506874eb3b33a62e78b559d4ce6a6bec</property>
    <property name="ignore_points">0</property>
    <property name="shotcut:caption">Veronique_hautbois_totoro.mp4</property>
    <property name="shotcut:skipConvert">1</property>
    <property name="global_feed">1</property>
    <property name="xml">was here</property>
    <filter id="filter343" in="00:02:06.400000" out="00:02:12.680000">
      <property name="background">colour:0</property>
      <property name="mlt_service">affine</property>
      <property name="shotcut:filter">affineSizePosition</property>
      <property name="transition.fill">1</property>
      <property name="transition.distort">0</property>
      <property name="transition.rect">00:00:00.000000=596.0 513.5 110.0 61.5 1;00:00:00.360000=714.0 365.5 119.0 67.5 1</property>
      <property name="transition.valign">top</property>
      <property name="transition.halign">left</property>
      <property name="shotcut:animIn">00:00:00.400000</property>
      <property name="shotcut:animOut">00:00:00.000</property>
      <property name="transition.threads">0</property>
    </filter>
  </producer>
  <playlist id="playlist28">
    <property name="shotcut:video">1</property>
    <property name="shotcut:name">Veronique_cor-anglais</property>
    <property name="shotcut:lock">1</property>
    <blank length="00:01:55.000000" />
    <entry in="00:01:45.720000" out="00:01:49.280000" producer="producer185" />
    <entry in="00:01:49.320000" out="00:01:52.680000" producer="producer186" />
    <entry in="00:01:52.720000" out="00:01:56.120000" producer="producer187" />
    <entry in="00:01:56.160000" out="00:01:59.520000" producer="producer188" />
    <entry in="00:01:59.560000" out="00:02:02.960000" producer="producer189" />
    <entry in="00:02:03.000000" out="00:02:06.360000" producer="producer190" />
    <entry in="00:02:06.400000" out="00:02:12.680000" producer="producer191" />
    <filter id="filter344" out="00:03:35.640">
      <property name="window">75</property>
      <property name="max_gain">20dB</property>
      <property name="level">-8</property>
      <property name="mlt_service">volume</property>
    </filter>
  </playlist>
  <producer id="producer192" in="00:00:00.000" out="00:03:12.560" title="Anonymous Submission">
    <property name="length">00:03:12:15</property>
    <property name="eof">pause</property>
    <property name="resource">../../006 - Videos format youtube/Saxophone/Francoise_saxophone_totoro.mp4</property>
    <property name="audio_index">1</property>
    <property name="video_index">0</property>
    <property name="mute_on_pause">0</property>
    <property name="mlt_service">avformat-novalidate</property>
    <property name="seekable">1</property>
    <property name="aspect_ratio">1</property>
    <property name="creation_time">2020-04-21T20:21:24</property>
    <property name="shotcut:hash">bf995f50e95c73cb7593ff8be7ce82da</property>
    <property name="ignore_points">0</property>
    <property name="shotcut:caption">Francoise_saxophone_totoro.mp4</property>
    <property name="shotcut:skipConvert">1</property>
    <property name="global_feed">1</property>
    <property name="xml">was here</property>
    <filter id="filter345" in="00:01:46.720000" out="00:01:50.280000">
      <property name="background">colour:0</property>
      <property name="mlt_service">affine</property>
      <property name="shotcut:filter">affineSizePosition</property>
      <property name="transition.fill">1</property>
      <property name="transition.distort">0</property>
      <property name="transition.rect">-1910.0 -1074.5 -9.0 -4.5 1</property>
      <property name="transition.valign">top</property>
      <property name="transition.halign">left</property>
      <property name="shotcut:animIn">00:00:00.000</property>
      <property name="shotcut:animOut">00:00:00.000</property>
      <property name="transition.threads">0</property>
    </filter>
  </producer>
  <producer id="producer193" in="00:00:00.000" out="00:03:12.560" title="Anonymous Submission">
    <property name="length">00:03:12:15</property>
    <property name="eof">pause</property>
    <property name="resource">../../006 - Videos format youtube/Saxophone/Francoise_saxophone_totoro.mp4</property>
    <property name="audio_index">1</property>
    <property name="video_index">0</property>
    <property name="mute_on_pause">0</property>
    <property name="mlt_service">avformat-novalidate</property>
    <property name="seekable">1</property>
    <property name="aspect_ratio">1</property>
    <property name="creation_time">2020-04-21T20:21:24</property>
    <property name="shotcut:hash">bf995f50e95c73cb7593ff8be7ce82da</property>
    <property name="ignore_points">0</property>
    <property name="shotcut:caption">Francoise_saxophone_totoro.mp4</property>
    <property name="shotcut:skipConvert">1</property>
    <property name="global_feed">1</property>
    <property name="xml">was here</property>
    <filter id="filter346" in="00:01:50.320000" out="00:01:53.680000">
      <property name="background">colour:0</property>
      <property name="mlt_service">affine</property>
      <property name="shotcut:filter">affineSizePosition</property>
      <property name="transition.fill">1</property>
      <property name="transition.distort">0</property>
      <property name="transition.rect">00:00:00.000000=-1900.0 -1068.5 -18.0 -9.5 1;00:00:00.360000=777.0 868.5 119.0 67.5 1</property>
      <property name="transition.valign">top</property>
      <property name="transition.halign">left</property>
      <property name="shotcut:animIn">00:00:00.400000</property>
      <property name="shotcut:animOut">00:00:00.000</property>
      <property name="transition.threads">0</property>
    </filter>
  </producer>
  <producer id="producer194" in="00:00:00.000" out="00:03:12.560" title="Anonymous Submission">
    <property name="length">00:03:12:15</property>
    <property name="eof">pause</property>
    <property name="resource">../../006 - Videos format youtube/Saxophone/Francoise_saxophone_totoro.mp4</property>
    <property name="audio_index">1</property>
    <property name="video_index">0</property>
    <property name="mute_on_pause">0</property>
    <property name="mlt_service">avformat-novalidate</property>
    <property name="seekable">1</property>
    <property name="aspect_ratio">1</property>
    <property name="creation_time">2020-04-21T20:21:24</property>
    <property name="shotcut:hash">bf995f50e95c73cb7593ff8be7ce82da</property>
    <property name="ignore_points">0</property>
    <property name="shotcut:caption">Francoise_saxophone_totoro.mp4</property>
    <property name="shotcut:skipConvert">1</property>
    <property name="global_feed">1</property>
    <property name="xml">was here</property>
    <filter id="filter347" in="00:01:53.720000" out="00:01:57.120000">
      <property name="background">colour:0</property>
      <property name="mlt_service">affine</property>
      <property name="shotcut:filter">affineSizePosition</property>
      <property name="transition.fill">1</property>
      <property name="transition.distort">0</property>
      <property name="transition.rect">00:00:00.000000=951.0 540.0 4.0 2.0 1;00:00:00.360000=499.0 446.0 167.0 94.0 1</property>
      <property name="transition.valign">top</property>
      <property name="transition.halign">left</property>
      <property name="shotcut:animIn">00:00:00.400000</property>
      <property name="shotcut:animOut">00:00:00.000</property>
      <property name="transition.threads">0</property>
    </filter>
  </producer>
  <producer id="producer195" in="00:00:00.000" out="00:03:12.560" title="Anonymous Submission">
    <property name="length">00:03:12:15</property>
    <property name="eof">pause</property>
    <property name="resource">../../006 - Videos format youtube/Saxophone/Francoise_saxophone_totoro.mp4</property>
    <property name="audio_index">1</property>
    <property name="video_index">0</property>
    <property name="mute_on_pause">0</property>
    <property name="mlt_service">avformat-novalidate</property>
    <property name="seekable">1</property>
    <property name="aspect_ratio">1</property>
    <property name="creation_time">2020-04-21T20:21:24</property>
    <property name="shotcut:hash">bf995f50e95c73cb7593ff8be7ce82da</property>
    <property name="ignore_points">0</property>
    <property name="shotcut:caption">Francoise_saxophone_totoro.mp4</property>
    <property name="shotcut:skipConvert">1</property>
    <property name="global_feed">1</property>
    <property name="xml">was here</property>
    <filter id="filter348" in="00:01:57.160000" out="00:02:00.520000">
      <property name="background">colour:0</property>
      <property name="mlt_service">affine</property>
      <property name="shotcut:filter">affineSizePosition</property>
      <property name="transition.fill">1</property>
      <property name="transition.distort">0</property>
      <property name="transition.rect">-1910.0 -1074.5 -9.0 -4.5 1</property>
      <property name="transition.valign">top</property>
      <property name="transition.halign">left</property>
      <property name="shotcut:animIn">00:00:00.400000</property>
      <property name="shotcut:animOut">00:00:00.000</property>
      <property name="transition.threads">0</property>
    </filter>
  </producer>
  <producer id="producer196" in="00:00:00.000" out="00:03:12.560" title="Anonymous Submission">
    <property name="length">00:03:12:15</property>
    <property name="eof">pause</property>
    <property name="resource">../../006 - Videos format youtube/Saxophone/Francoise_saxophone_totoro.mp4</property>
    <property name="audio_index">1</property>
    <property name="video_index">0</property>
    <property name="mute_on_pause">0</property>
    <property name="mlt_service">avformat-novalidate</property>
    <property name="seekable">1</property>
    <property name="aspect_ratio">1</property>
    <property name="creation_time">2020-04-21T20:21:24</property>
    <property name="shotcut:hash">bf995f50e95c73cb7593ff8be7ce82da</property>
    <property name="ignore_points">0</property>
    <property name="shotcut:caption">Francoise_saxophone_totoro.mp4</property>
    <property name="shotcut:skipConvert">1</property>
    <property name="global_feed">1</property>
    <property name="xml">was here</property>
    <filter id="filter349" in="00:02:00.560000" out="00:02:03.960000">
      <property name="background">colour:0</property>
      <property name="mlt_service">affine</property>
      <property name="shotcut:filter">affineSizePosition</property>
      <property name="transition.fill">1</property>
      <property name="transition.distort">0</property>
      <property name="transition.rect">00:00:00.000000=-1900.0 -1068.5 -18.0 -9.5 1;00:00:00.360000=522.0 653.5 119.0 67.5 1</property>
      <property name="transition.valign">top</property>
      <property name="transition.halign">left</property>
      <property name="shotcut:animIn">00:00:00.400000</property>
      <property name="shotcut:animOut">00:00:00.000</property>
      <property name="transition.threads">0</property>
    </filter>
  </producer>
  <producer id="producer197" in="00:00:00.000" out="00:03:12.560" title="Anonymous Submission">
    <property name="length">00:03:12:15</property>
    <property name="eof">pause</property>
    <property name="resource">../../006 - Videos format youtube/Saxophone/Francoise_saxophone_totoro.mp4</property>
    <property name="audio_index">1</property>
    <property name="video_index">0</property>
    <property name="mute_on_pause">0</property>
    <property name="mlt_service">avformat-novalidate</property>
    <property name="seekable">1</property>
    <property name="aspect_ratio">1</property>
    <property name="creation_time">2020-04-21T20:21:24</property>
    <property name="shotcut:hash">bf995f50e95c73cb7593ff8be7ce82da</property>
    <property name="ignore_points">0</property>
    <property name="shotcut:caption">Francoise_saxophone_totoro.mp4</property>
    <property name="shotcut:skipConvert">1</property>
    <property name="global_feed">1</property>
    <property name="xml">was here</property>
    <filter id="filter350" in="00:02:04.000000" out="00:02:07.360000">
      <property name="background">colour:0</property>
      <property name="mlt_service">affine</property>
      <property name="shotcut:filter">affineSizePosition</property>
      <property name="transition.fill">1</property>
      <property name="transition.distort">0</property>
      <property name="transition.rect">00:00:00.000000=532.0 658.5 110.0 61.5 1;00:00:00.360000=714.0 365.5 119.0 67.5 1</property>
      <property name="transition.valign">top</property>
      <property name="transition.halign">left</property>
      <property name="shotcut:animIn">00:00:00.400000</property>
      <property name="shotcut:animOut">00:00:00.000</property>
      <property name="transition.threads">0</property>
    </filter>
  </producer>
  <producer id="producer198" in="00:00:00.000" out="00:03:12.560" title="Anonymous Submission">
    <property name="length">00:03:12:15</property>
    <property name="eof">pause</property>
    <property name="resource">../../006 - Videos format youtube/Saxophone/Francoise_saxophone_totoro.mp4</property>
    <property name="audio_index">1</property>
    <property name="video_index">0</property>
    <property name="mute_on_pause">0</property>
    <property name="mlt_service">avformat-novalidate</property>
    <property name="seekable">1</property>
    <property name="aspect_ratio">1</property>
    <property name="creation_time">2020-04-21T20:21:24</property>
    <property name="shotcut:hash">bf995f50e95c73cb7593ff8be7ce82da</property>
    <property name="ignore_points">0</property>
    <property name="shotcut:caption">Francoise_saxophone_totoro.mp4</property>
    <property name="shotcut:skipConvert">1</property>
    <property name="global_feed">1</property>
    <property name="xml">was here</property>
    <filter id="filter351" in="00:02:07.400000" out="00:02:13.680000">
      <property name="background">colour:0</property>
      <property name="mlt_service">affine</property>
      <property name="shotcut:filter">affineSizePosition</property>
      <property name="transition.fill">1</property>
      <property name="transition.distort">0</property>
      <property name="transition.rect">00:00:00.000000=724.0 370.5 110.0 61.5 1;00:00:00.360000=714.0 293.5 119.0 67.5 1</property>
      <property name="transition.valign">top</property>
      <property name="transition.halign">left</property>
      <property name="shotcut:animIn">00:00:00.400000</property>
      <property name="shotcut:animOut">00:00:00.000</property>
      <property name="transition.threads">0</property>
    </filter>
  </producer>
  <playlist id="playlist29">
    <property name="shotcut:video">1</property>
    <property name="shotcut:name">Francoise saxo</property>
    <property name="shotcut:lock">1</property>
    <blank length="00:01:55.000000" />
    <entry in="00:01:46.720000" out="00:01:50.280000" producer="producer192" />
  <entry in="00:01:50.320000" out="00:01:53.680000" producer="producer193" />
  <entry in="00:01:53.720000" out="00:01:57.120000" producer="producer194" />
  <entry in="00:01:57.160000" out="00:02:00.520000" producer="producer195" />
  <entry in="00:02:00.560000" out="00:02:03.960000" producer="producer196" />
  <entry in="00:02:04.000000" out="00:02:07.360000" producer="producer197" />
  <entry in="00:02:07.400000" out="00:02:13.680000" producer="producer198" />
  </playlist>
  <producer id="producer199" in="00:00:00.000" out="00:03:01.800" title="Anonymous Submission">
    <property name="length">00:03:01:21</property>
    <property name="eof">pause</property>
    <property name="resource">../../006 - Videos format youtube/Saxophone/Aurianne_saxophone_totoro.mp4</property>
    <property name="audio_index">1</property>
    <property name="video_index">0</property>
    <property name="mute_on_pause">0</property>
    <property name="mlt_service">avformat-novalidate</property>
    <property name="seekable">1</property>
    <property name="aspect_ratio">1</property>
    <property name="creation_time">2020-04-09T18:32:01</property>
    <property name="shotcut:hash">dd198363db28b4d265caa15eb2e0f266</property>
    <property name="ignore_points">0</property>
    <property name="shotcut:caption">Aurianne_saxophone_totoro.mp4</property>
    <property name="shotcut:skipConvert">1</property>
    <property name="global_feed">1</property>
    <property name="xml">was here</property>
    <filter id="filter352" in="00:01:38.760000" out="00:01:42.320000">
      <property name="background">colour:0</property>
      <property name="mlt_service">affine</property>
      <property name="shotcut:filter">affineSizePosition</property>
      <property name="transition.fill">1</property>
      <property name="transition.distort">0</property>
      <property name="transition.rect">-1910.0 -1074.5 -9.0 -4.5 1</property>
      <property name="transition.valign">top</property>
      <property name="transition.halign">left</property>
      <property name="shotcut:animIn">00:00:00.000</property>
      <property name="shotcut:animOut">00:00:00.000</property>
      <property name="transition.threads">0</property>
    </filter>
    <filter id="filter353" in="00:01:38.760000" out="00:01:42.320000">
      <property name="window">75</property>
      <property name="max_gain">20dB</property>
      <property name="mlt_service">volume</property>
      <property name="shotcut:filter">muteVolume</property>
      <property name="gain">0</property>
    </filter>
  </producer>
  <producer id="producer200" in="00:00:00.000" out="00:03:01.800" title="Anonymous Submission">
    <property name="length">00:03:01:21</property>
    <property name="eof">pause</property>
    <property name="resource">../../006 - Videos format youtube/Saxophone/Aurianne_saxophone_totoro.mp4</property>
    <property name="audio_index">1</property>
    <property name="video_index">0</property>
    <property name="mute_on_pause">0</property>
    <property name="mlt_service">avformat-novalidate</property>
    <property name="seekable">1</property>
    <property name="aspect_ratio">1</property>
    <property name="creation_time">2020-04-09T18:32:01</property>
    <property name="shotcut:hash">dd198363db28b4d265caa15eb2e0f266</property>
    <property name="ignore_points">0</property>
    <property name="shotcut:caption">Aurianne_saxophone_totoro.mp4</property>
    <property name="shotcut:skipConvert">1</property>
    <property name="global_feed">1</property>
    <property name="xml">was here</property>
    <filter id="filter354" in="00:01:42.360000" out="00:01:45.720000">
      <property name="background">colour:0</property>
      <property name="mlt_service">affine</property>
      <property name="shotcut:filter">affineSizePosition</property>
      <property name="transition.fill">1</property>
      <property name="transition.distort">0</property>
      <property name="transition.rect">00:00:00.000000=-1900.0 -1068.5 -18.0 -9.5 1;00:00:00.360000=906.0 868.5 119.0 67.5 1</property>
      <property name="transition.valign">top</property>
      <property name="transition.halign">left</property>
      <property name="shotcut:animIn">00:00:00.400000</property>
      <property name="shotcut:animOut">00:00:00.000</property>
      <property name="transition.threads">0</property>
    </filter>
    <filter id="filter355" in="00:01:42.360000" out="00:01:45.720000">
      <property name="window">75</property>
      <property name="max_gain">20dB</property>
      <property name="mlt_service">volume</property>
      <property name="shotcut:filter">muteVolume</property>
      <property name="gain">0</property>
    </filter>
  </producer>
  <producer id="producer201" in="00:00:00.000" out="00:03:01.800" title="Anonymous Submission">
    <property name="length">00:03:01:21</property>
    <property name="eof">pause</property>
    <property name="resource">../../006 - Videos format youtube/Saxophone/Aurianne_saxophone_totoro.mp4</property>
    <property name="audio_index">1</property>
    <property name="video_index">0</property>
    <property name="mute_on_pause">0</property>
    <property name="mlt_service">avformat-novalidate</property>
    <property name="seekable">1</property>
    <property name="aspect_ratio">1</property>
    <property name="creation_time">2020-04-09T18:32:01</property>
    <property name="shotcut:hash">dd198363db28b4d265caa15eb2e0f266</property>
    <property name="ignore_points">0</property>
    <property name="shotcut:caption">Aurianne_saxophone_totoro.mp4</property>
    <property name="shotcut:skipConvert">1</property>
    <property name="global_feed">1</property>
    <property name="xml">was here</property>
    <filter id="filter356" in="00:01:45.760000" out="00:01:49.160000">
      <property name="background">colour:0</property>
      <property name="mlt_service">affine</property>
      <property name="shotcut:filter">affineSizePosition</property>
      <property name="transition.fill">1</property>
      <property name="transition.distort">0</property>
      <property name="transition.rect">00:00:00.000000=964.0 539.0 4.0 2.0 1;00:00:00.360000=1248.0 352.0 167.0 94.0 1</property>
      <property name="transition.valign">top</property>
      <property name="transition.halign">left</property>
      <property name="shotcut:animIn">00:00:00.400000</property>
      <property name="shotcut:animOut">00:00:00.000</property>
      <property name="transition.threads">0</property>
    </filter>
    <filter id="filter357" in="00:01:45.760000" out="00:01:49.160000">
      <property name="window">75</property>
      <property name="max_gain">20dB</property>
      <property name="mlt_service">volume</property>
      <property name="shotcut:filter">muteVolume</property>
      <property name="gain">0</property>
    </filter>
  </producer>
  <producer id="producer202" in="00:00:00.000" out="00:03:01.800" title="Anonymous Submission">
    <property name="length">00:03:01:21</property>
    <property name="eof">pause</property>
    <property name="resource">../../006 - Videos format youtube/Saxophone/Aurianne_saxophone_totoro.mp4</property>
    <property name="audio_index">1</property>
    <property name="video_index">0</property>
    <property name="mute_on_pause">0</property>
    <property name="mlt_service">avformat-novalidate</property>
    <property name="seekable">1</property>
    <property name="aspect_ratio">1</property>
    <property name="creation_time">2020-04-09T18:32:01</property>
    <property name="shotcut:hash">dd198363db28b4d265caa15eb2e0f266</property>
    <property name="ignore_points">0</property>
    <property name="shotcut:caption">Aurianne_saxophone_totoro.mp4</property>
    <property name="shotcut:skipConvert">1</property>
    <property name="global_feed">1</property>
    <property name="xml">was here</property>
    <filter id="filter358" in="00:01:49.200000" out="00:01:52.560000">
      <property name="background">colour:0</property>
      <property name="mlt_service">affine</property>
      <property name="shotcut:filter">affineSizePosition</property>
      <property name="transition.fill">1</property>
      <property name="transition.distort">0</property>
      <property name="transition.rect">00:00:00.000000=1258.0 357.5 158.0 88.5 1;00:00:00.360000=777.0 509.5 119.0 67.5 1</property>
      <property name="transition.valign">top</property>
      <property name="transition.halign">left</property>
      <property name="shotcut:animIn">00:00:00.400000</property>
      <property name="shotcut:animOut">00:00:00.000</property>
      <property name="transition.threads">0</property>
    </filter>
    <filter id="filter359" in="00:01:49.200000" out="00:01:52.560000">
      <property name="window">75</property>
      <property name="max_gain">20dB</property>
      <property name="mlt_service">volume</property>
      <property name="shotcut:filter">muteVolume</property>
      <property name="gain">0</property>
    </filter>
  </producer>
  <producer id="producer203" in="00:00:00.000" out="00:03:01.800" title="Anonymous Submission">
    <property name="length">00:03:01:21</property>
    <property name="eof">pause</property>
    <property name="resource">../../006 - Videos format youtube/Saxophone/Aurianne_saxophone_totoro.mp4</property>
    <property name="audio_index">1</property>
    <property name="video_index">0</property>
    <property name="mute_on_pause">0</property>
    <property name="mlt_service">avformat-novalidate</property>
    <property name="seekable">1</property>
    <property name="aspect_ratio">1</property>
    <property name="creation_time">2020-04-09T18:32:01</property>
    <property name="shotcut:hash">dd198363db28b4d265caa15eb2e0f266</property>
    <property name="ignore_points">0</property>
    <property name="shotcut:caption">Aurianne_saxophone_totoro.mp4</property>
    <property name="shotcut:skipConvert">1</property>
    <property name="global_feed">1</property>
    <property name="xml">was here</property>
    <filter id="filter360" in="00:01:52.600000" out="00:01:56.000000">
      <property name="background">colour:0</property>
      <property name="mlt_service">affine</property>
      <property name="shotcut:filter">affineSizePosition</property>
      <property name="transition.fill">1</property>
      <property name="transition.distort">0</property>
      <property name="transition.rect">00:00:00.000000=787.0 513.5 110.0 61.5 1;00:00:00.360000=1290.0 653.5 119.0 67.5 1</property>
      <property name="transition.valign">top</property>
      <property name="transition.halign">left</property>
      <property name="shotcut:animIn">00:00:00.400000</property>
      <property name="shotcut:animOut">00:00:00.000</property>
      <property name="transition.threads">0</property>
    </filter>
    <filter id="filter361" in="00:01:52.600000" out="00:01:56.000000">
      <property name="window">75</property>
      <property name="max_gain">20dB</property>
      <property name="mlt_service">volume</property>
      <property name="shotcut:filter">muteVolume</property>
      <property name="gain">0</property>
    </filter>
  </producer>
  <producer id="producer204" in="00:00:00.000" out="00:03:01.800" title="Anonymous Submission">
    <property name="length">00:03:01:21</property>
    <property name="eof">pause</property>
    <property name="resource">../../006 - Videos format youtube/Saxophone/Aurianne_saxophone_totoro.mp4</property>
    <property name="audio_index">1</property>
    <property name="video_index">0</property>
    <property name="mute_on_pause">0</property>
    <property name="mlt_service">avformat-novalidate</property>
    <property name="seekable">1</property>
    <property name="aspect_ratio">1</property>
    <property name="creation_time">2020-04-09T18:32:01</property>
    <property name="shotcut:hash">dd198363db28b4d265caa15eb2e0f266</property>
    <property name="ignore_points">0</property>
    <property name="shotcut:caption">Aurianne_saxophone_totoro.mp4</property>
    <property name="shotcut:skipConvert">1</property>
    <property name="global_feed">1</property>
    <property name="xml">was here</property>
    <filter id="filter362" in="00:01:56.040000" out="00:01:59.400000">
      <property name="background">colour:0</property>
      <property name="mlt_service">affine</property>
      <property name="shotcut:filter">affineSizePosition</property>
      <property name="transition.fill">1</property>
      <property name="transition.distort">0</property>
      <property name="transition.rect">00:00:00.000000=1300.0 658.5 110.0 61.5 1;00:00:00.360000=586.0 149.5 119.0 67.5 1</property>
      <property name="transition.valign">top</property>
      <property name="transition.halign">left</property>
      <property name="shotcut:animIn">00:00:00.400000</property>
      <property name="shotcut:animOut">00:00:00.000</property>
      <property name="transition.threads">0</property>
    </filter>
    <filter id="filter363" in="00:01:56.040000" out="00:01:59.400000">
      <property name="window">75</property>
      <property name="max_gain">20dB</property>
      <property name="mlt_service">volume</property>
      <property name="shotcut:filter">muteVolume</property>
      <property name="gain">0</property>
    </filter>
  </producer>
  <producer id="producer205" in="00:00:00.000" out="00:03:01.800" title="Anonymous Submission">
    <property name="length">00:03:01:21</property>
    <property name="eof">pause</property>
    <property name="resource">../../006 - Videos format youtube/Saxophone/Aurianne_saxophone_totoro.mp4</property>
    <property name="audio_index">1</property>
    <property name="video_index">0</property>
    <property name="mute_on_pause">0</property>
    <property name="mlt_service">avformat-novalidate</property>
    <property name="seekable">1</property>
    <property name="aspect_ratio">1</property>
    <property name="creation_time">2020-04-09T18:32:01</property>
    <property name="shotcut:hash">dd198363db28b4d265caa15eb2e0f266</property>
    <property name="ignore_points">0</property>
    <property name="shotcut:caption">Aurianne_saxophone_totoro.mp4</property>
    <property name="shotcut:skipConvert">1</property>
    <property name="global_feed">1</property>
    <property name="xml">was here</property>
    <filter id="filter364" in="00:01:59.440000" out="00:02:05.720000">
      <property name="background">colour:0</property>
      <property name="mlt_service">affine</property>
      <property name="shotcut:filter">affineSizePosition</property>
      <property name="transition.fill">1</property>
      <property name="transition.distort">0</property>
      <property name="transition.rect">00:00:00.000000=596.0 154.5 110.0 61.5 1;00:00:00.360000=970.0 509.5 119.0 67.5 1</property>
      <property name="transition.valign">top</property>
      <property name="transition.halign">left</property>
      <property name="shotcut:animIn">00:00:00.400000</property>
      <property name="shotcut:animOut">00:00:00.000</property>
      <property name="transition.threads">0</property>
    </filter>
    <filter id="filter365" in="00:01:59.440000" out="00:02:05.720000">
      <property name="window">75</property>
      <property name="max_gain">20dB</property>
      <property name="mlt_service">volume</property>
      <property name="shotcut:filter">muteVolume</property>
      <property name="gain">0</property>
    </filter>
  </producer>
  <playlist id="playlist30">
    <property name="shotcut:video">1</property>
    <property name="shotcut:name">Aurianne_saxo1</property>
    <property name="shotcut:lock">1</property>
    <blank length="00:01:55.000000" />
    <entry in="00:01:38.760000" out="00:01:42.320000" producer="producer199" />
    <entry in="00:01:42.360000" out="00:01:45.720000" producer="producer200" />
    <entry in="00:01:45.760000" out="00:01:49.160000" producer="producer201" />
    <entry in="00:01:49.200000" out="00:01:52.560000" producer="producer202" />
    <entry in="00:01:52.600000" out="00:01:56.000000" producer="producer203" />
    <entry in="00:01:56.040000" out="00:01:59.400000" producer="producer204" />
    <entry in="00:01:59.440000" out="00:02:05.720000" producer="producer205" />
    <filter id="filter366" out="00:03:20.840">
      <property name="window">75</property>
      <property name="max_gain">20dB</property>
      <property name="level">-7</property>
      <property name="mlt_service">volume</property>
    </filter>
  </playlist>
  <producer id="producer206" in="00:00:00.000" out="00:03:14.560" title="Anonymous Submission">
    <property name="length">00:03:14:15</property>
    <property name="eof">pause</property>
    <property name="resource">../../006 - Videos format youtube/Saxophone/Marie-Claude_saxophone_totoro.mp4</property>
    <property name="audio_index">1</property>
    <property name="video_index">0</property>
    <property name="mute_on_pause">0</property>
    <property name="mlt_service">avformat-novalidate</property>
    <property name="seekable">1</property>
    <property name="aspect_ratio">1</property>
    <property name="creation_time">2020-04-17T16:47:48</property>
    <property name="shotcut:hash">93486417d24480bfbb5e6dc264b34a22</property>
    <property name="ignore_points">0</property>
    <property name="shotcut:caption">Marie-Claude_saxophone_totoro.mp4</property>
    <property name="shotcut:skipConvert">1</property>
    <property name="global_feed">1</property>
    <property name="xml">was here</property>
    <filter id="filter367" in="00:01:49.080000" out="00:01:52.640000">
      <property name="background">colour:0</property>
      <property name="mlt_service">affine</property>
      <property name="shotcut:filter">affineSizePosition</property>
      <property name="transition.fill">1</property>
      <property name="transition.distort">0</property>
      <property name="transition.rect">-1910.0 -1074.5 -9.0 -4.5 1</property>
      <property name="transition.valign">top</property>
      <property name="transition.halign">left</property>
      <property name="shotcut:animIn">00:00:00.000</property>
      <property name="shotcut:animOut">00:00:00.000</property>
      <property name="transition.threads">0</property>
    </filter>
    <filter id="filter368" in="00:01:49.080000" out="00:01:52.640000">
      <property name="window">75</property>
      <property name="max_gain">20dB</property>
      <property name="mlt_service">volume</property>
      <property name="shotcut:filter">muteVolume</property>
      <property name="gain">0</property>
    </filter>
  </producer>
  <producer id="producer207" in="00:00:00.000" out="00:03:14.560" title="Anonymous Submission">
    <property name="length">00:03:14:15</property>
    <property name="eof">pause</property>
    <property name="resource">../../006 - Videos format youtube/Saxophone/Marie-Claude_saxophone_totoro.mp4</property>
    <property name="audio_index">1</property>
    <property name="video_index">0</property>
    <property name="mute_on_pause">0</property>
    <property name="mlt_service">avformat-novalidate</property>
    <property name="seekable">1</property>
    <property name="aspect_ratio">1</property>
    <property name="creation_time">2020-04-17T16:47:48</property>
    <property name="shotcut:hash">93486417d24480bfbb5e6dc264b34a22</property>
    <property name="ignore_points">0</property>
    <property name="shotcut:caption">Marie-Claude_saxophone_totoro.mp4</property>
    <property name="shotcut:skipConvert">1</property>
    <property name="global_feed">1</property>
    <property name="xml">was here</property>
    <filter id="filter369" in="00:01:52.680000" out="00:01:56.040000">
      <property name="background">colour:0</property>
      <property name="mlt_service">affine</property>
      <property name="shotcut:filter">affineSizePosition</property>
      <property name="transition.fill">1</property>
      <property name="transition.distort">0</property>
      <property name="transition.rect">00:00:00.000000=-1900.0 -1068.5 -18.0 -9.5 1;00:00:00.360000=1034.0 868.5 119.0 67.5 1</property>
      <property name="transition.valign">top</property>
      <property name="transition.halign">left</property>
      <property name="shotcut:animIn">00:00:00.400000</property>
      <property name="shotcut:animOut">00:00:00.000</property>
      <property name="transition.threads">0</property>
    </filter>
    <filter id="filter370" in="00:01:52.680000" out="00:01:56.040000">
      <property name="window">75</property>
      <property name="max_gain">20dB</property>
      <property name="mlt_service">volume</property>
      <property name="shotcut:filter">muteVolume</property>
      <property name="gain">0</property>
    </filter>
  </producer>
  <producer id="producer208" in="00:00:00.000" out="00:03:14.560" title="Anonymous Submission">
    <property name="length">00:03:14:15</property>
    <property name="eof">pause</property>
    <property name="resource">../../006 - Videos format youtube/Saxophone/Marie-Claude_saxophone_totoro.mp4</property>
    <property name="audio_index">1</property>
    <property name="video_index">0</property>
    <property name="mute_on_pause">0</property>
    <property name="mlt_service">avformat-novalidate</property>
    <property name="seekable">1</property>
    <property name="aspect_ratio">1</property>
    <property name="creation_time">2020-04-17T16:47:48</property>
    <property name="shotcut:hash">93486417d24480bfbb5e6dc264b34a22</property>
    <property name="ignore_points">0</property>
    <property name="shotcut:caption">Marie-Claude_saxophone_totoro.mp4</property>
    <property name="shotcut:skipConvert">1</property>
    <property name="global_feed">1</property>
    <property name="xml">was here</property>
    <filter id="filter371" in="00:01:56.080000" out="00:01:59.480000">
      <property name="background">colour:0</property>
      <property name="mlt_service">affine</property>
      <property name="shotcut:filter">affineSizePosition</property>
      <property name="transition.fill">1</property>
      <property name="transition.distort">0</property>
      <property name="transition.rect">00:00:00.000000=954.0 540.0 4.0 2.0 1;00:00:00.360000=665.0 446.0 167.0 94.0 1</property>
      <property name="transition.valign">top</property>
      <property name="transition.halign">left</property>
      <property name="shotcut:animIn">00:00:00.400000</property>
      <property name="shotcut:animOut">00:00:00.000</property>
      <property name="transition.threads">0</property>
    </filter>
    <filter id="filter372" in="00:01:56.080000" out="00:01:59.480000">
      <property name="window">75</property>
      <property name="max_gain">20dB</property>
      <property name="mlt_service">volume</property>
      <property name="shotcut:filter">muteVolume</property>
      <property name="gain">0</property>
    </filter>
  </producer>
  <producer id="producer209" in="00:00:00.000" out="00:03:14.560" title="Anonymous Submission">
    <property name="length">00:03:14:15</property>
    <property name="eof">pause</property>
    <property name="resource">../../006 - Videos format youtube/Saxophone/Marie-Claude_saxophone_totoro.mp4</property>
    <property name="audio_index">1</property>
    <property name="video_index">0</property>
    <property name="mute_on_pause">0</property>
    <property name="mlt_service">avformat-novalidate</property>
    <property name="seekable">1</property>
    <property name="aspect_ratio">1</property>
    <property name="creation_time">2020-04-17T16:47:48</property>
    <property name="shotcut:hash">93486417d24480bfbb5e6dc264b34a22</property>
    <property name="ignore_points">0</property>
    <property name="shotcut:caption">Marie-Claude_saxophone_totoro.mp4</property>
    <property name="shotcut:skipConvert">1</property>
    <property name="global_feed">1</property>
    <property name="xml">was here</property>
    <filter id="filter373" in="00:01:59.520000" out="00:02:02.880000">
      <property name="background">colour:0</property>
      <property name="mlt_service">affine</property>
      <property name="shotcut:filter">affineSizePosition</property>
      <property name="transition.fill">1</property>
      <property name="transition.distort">0</property>
      <property name="transition.rect">00:00:00.000000=675.0 451.5 158.0 88.5 1;00:00:00.360000=777.0 77.5 119.0 67.5 1</property>
      <property name="transition.valign">top</property>
      <property name="transition.halign">left</property>
      <property name="shotcut:animIn">00:00:00.400000</property>
      <property name="shotcut:animOut">00:00:00.000</property>
      <property name="transition.threads">0</property>
    </filter>
    <filter id="filter374" in="00:01:59.520000" out="00:02:02.880000">
      <property name="window">75</property>
      <property name="max_gain">20dB</property>
      <property name="mlt_service">volume</property>
      <property name="shotcut:filter">muteVolume</property>
      <property name="gain">0</property>
    </filter>
  </producer>
  <producer id="producer210" in="00:00:00.000" out="00:03:14.560" title="Anonymous Submission">
    <property name="length">00:03:14:15</property>
    <property name="eof">pause</property>
    <property name="resource">../../006 - Videos format youtube/Saxophone/Marie-Claude_saxophone_totoro.mp4</property>
    <property name="audio_index">1</property>
    <property name="video_index">0</property>
    <property name="mute_on_pause">0</property>
    <property name="mlt_service">avformat-novalidate</property>
    <property name="seekable">1</property>
    <property name="aspect_ratio">1</property>
    <property name="creation_time">2020-04-17T16:47:48</property>
    <property name="shotcut:hash">93486417d24480bfbb5e6dc264b34a22</property>
    <property name="ignore_points">0</property>
    <property name="shotcut:caption">Marie-Claude_saxophone_totoro.mp4</property>
    <property name="shotcut:skipConvert">1</property>
    <property name="global_feed">1</property>
    <property name="xml">was here</property>
    <filter id="filter375" in="00:02:02.920000" out="00:02:06.320000">
      <property name="background">colour:0</property>
      <property name="mlt_service">affine</property>
      <property name="shotcut:filter">affineSizePosition</property>
      <property name="transition.fill">1</property>
      <property name="transition.distort">0</property>
      <property name="transition.rect">00:00:00.000000=787.0 82.5 110.0 61.5 1;00:00:00.360000=522.0 725.5 119.0 67.5 1</property>
      <property name="transition.valign">top</property>
      <property name="transition.halign">left</property>
      <property name="shotcut:animIn">00:00:00.400000</property>
      <property name="shotcut:animOut">00:00:00.000</property>
      <property name="transition.threads">0</property>
    </filter>
    <filter id="filter376" in="00:02:02.920000" out="00:02:06.320000">
      <property name="window">75</property>
      <property name="max_gain">20dB</property>
      <property name="mlt_service">volume</property>
      <property name="shotcut:filter">muteVolume</property>
      <property name="gain">0</property>
    </filter>
  </producer>
  <producer id="producer211" in="00:00:00.000" out="00:03:14.560" title="Anonymous Submission">
    <property name="length">00:03:14:15</property>
    <property name="eof">pause</property>
    <property name="resource">../../006 - Videos format youtube/Saxophone/Marie-Claude_saxophone_totoro.mp4</property>
    <property name="audio_index">1</property>
    <property name="video_index">0</property>
    <property name="mute_on_pause">0</property>
    <property name="mlt_service">avformat-novalidate</property>
    <property name="seekable">1</property>
    <property name="aspect_ratio">1</property>
    <property name="creation_time">2020-04-17T16:47:48</property>
    <property name="shotcut:hash">93486417d24480bfbb5e6dc264b34a22</property>
    <property name="ignore_points">0</property>
    <property name="shotcut:caption">Marie-Claude_saxophone_totoro.mp4</property>
    <property name="shotcut:skipConvert">1</property>
    <property name="global_feed">1</property>
    <property name="xml">was here</property>
    <filter id="filter377" in="00:02:06.360000" out="00:02:09.720000">
      <property name="background">colour:0</property>
      <property name="mlt_service">affine</property>
      <property name="shotcut:filter">affineSizePosition</property>
      <property name="transition.fill">1</property>
      <property name="transition.distort">0</property>
      <property name="transition.rect">00:00:00.000000=532.0 730.5 110.0 61.5 1;00:00:00.360000=714.0 149.5 119.0 67.5 1</property>
      <property name="transition.valign">top</property>
      <property name="transition.halign">left</property>
      <property name="shotcut:animIn">00:00:00.400000</property>
      <property name="shotcut:animOut">00:00:00.000</property>
      <property name="transition.threads">0</property>
    </filter>
    <filter id="filter378" in="00:02:06.360000" out="00:02:09.720000">
      <property name="window">75</property>
      <property name="max_gain">20dB</property>
      <property name="mlt_service">volume</property>
      <property name="shotcut:filter">muteVolume</property>
      <property name="gain">0</property>
    </filter>
  </producer>
  <producer id="producer212" in="00:00:00.000" out="00:03:14.560" title="Anonymous Submission">
    <property name="length">00:03:14:15</property>
    <property name="eof">pause</property>
    <property name="resource">../../006 - Videos format youtube/Saxophone/Marie-Claude_saxophone_totoro.mp4</property>
    <property name="audio_index">1</property>
    <property name="video_index">0</property>
    <property name="mute_on_pause">0</property>
    <property name="mlt_service">avformat-novalidate</property>
    <property name="seekable">1</property>
    <property name="aspect_ratio">1</property>
    <property name="creation_time">2020-04-17T16:47:48</property>
    <property name="shotcut:hash">93486417d24480bfbb5e6dc264b34a22</property>
    <property name="ignore_points">0</property>
    <property name="shotcut:caption">Marie-Claude_saxophone_totoro.mp4</property>
    <property name="shotcut:skipConvert">1</property>
    <property name="global_feed">1</property>
    <property name="xml">was here</property>
    <filter id="filter379" in="00:02:09.760000" out="00:02:16.040000">
      <property name="background">colour:0</property>
      <property name="mlt_service">affine</property>
      <property name="shotcut:filter">affineSizePosition</property>
      <property name="transition.fill">1</property>
      <property name="transition.distort">0</property>
      <property name="transition.rect">00:00:00.000000=724.0 154.5 110.0 61.5 1;00:00:00.360000=970.0 941.5 119.0 67.5 1</property>
      <property name="transition.valign">top</property>
      <property name="transition.halign">left</property>
      <property name="shotcut:animIn">00:00:00.400000</property>
      <property name="shotcut:animOut">00:00:00.000</property>
      <property name="transition.threads">0</property>
    </filter>
    <filter id="filter380" in="00:02:09.760000" out="00:02:16.040000">
      <property name="window">75</property>
      <property name="max_gain">20dB</property>
      <property name="mlt_service">volume</property>
      <property name="shotcut:filter">muteVolume</property>
      <property name="gain">0</property>
    </filter>
  </producer>
  <playlist id="playlist31">
    <property name="shotcut:video">1</property>
    <property name="shotcut:name">Marie(Claude</property>
    <property name="shotcut:lock">1</property>
    <blank length="00:01:55.000000" />
    <entry in="00:01:49.080000" out="00:01:52.640000" producer="producer206" />
    <entry in="00:01:52.680000" out="00:01:56.040000" producer="producer207" />
    <entry in="00:01:56.080000" out="00:01:59.480000" producer="producer208" />
    <entry in="00:01:59.520000" out="00:02:02.880000" producer="producer209" />
    <entry in="00:02:02.920000" out="00:02:06.320000" producer="producer210" />
    <entry in="00:02:06.360000" out="00:02:09.720000" producer="producer211" />
    <entry in="00:02:09.760000" out="00:02:16.040000" producer="producer212" />
    <filter id="filter381" out="00:03:20.840">
      <property name="window">75</property>
      <property name="max_gain">20dB</property>
      <property name="level">-10</property>
      <property name="mlt_service">volume</property>
    </filter>
  </playlist>
  <producer id="producer213" in="00:00:00.000" out="00:03:18.880" title="Anonymous Submission">
    <property name="length">00:03:18:23</property>
    <property name="eof">pause</property>
    <property name="resource">../../006 - Videos format youtube/Saxophone/Franck_saxophone_totoro.mp4</property>
    <property name="audio_index">1</property>
    <property name="video_index">0</property>
    <property name="mute_on_pause">0</property>
    <property name="mlt_service">avformat-novalidate</property>
    <property name="seekable">1</property>
    <property name="aspect_ratio">1</property>
    <property name="creation_time">2020-04-13T11:28:12</property>
    <property name="shotcut:hash">65568a88d02d9b90ac8b802dbc8299d0</property>
    <property name="ignore_points">0</property>
    <property name="shotcut:caption">Franck_saxophone_totoro.mp4</property>
    <property name="shotcut:skipConvert">1</property>
    <property name="global_feed">1</property>
    <property name="xml">was here</property>
    <filter id="filter382" in="00:01:56.560000" out="00:02:00.120000">
      <property name="background">colour:0</property>
      <property name="mlt_service">affine</property>
      <property name="shotcut:filter">affineSizePosition</property>
      <property name="transition.fill">1</property>
      <property name="transition.distort">0</property>
      <property name="transition.rect">-1910.0 -1074.5 -9.0 -4.5 1</property>
      <property name="transition.valign">top</property>
      <property name="transition.halign">left</property>
      <property name="shotcut:animIn">00:00:00.000</property>
      <property name="shotcut:animOut">00:00:00.000</property>
      <property name="transition.threads">0</property>
    </filter>
    <filter id="filter383" in="00:01:56.560000" out="00:02:00.120000">
      <property name="window">75</property>
      <property name="max_gain">20dB</property>
      <property name="mlt_service">volume</property>
      <property name="shotcut:filter">muteVolume</property>
      <property name="gain">0</property>
    </filter>
  </producer>
  <producer id="producer214" in="00:00:00.000" out="00:03:18.880" title="Anonymous Submission">
    <property name="length">00:03:18:23</property>
    <property name="eof">pause</property>
    <property name="resource">../../006 - Videos format youtube/Saxophone/Franck_saxophone_totoro.mp4</property>
    <property name="audio_index">1</property>
    <property name="video_index">0</property>
    <property name="mute_on_pause">0</property>
    <property name="mlt_service">avformat-novalidate</property>
    <property name="seekable">1</property>
    <property name="aspect_ratio">1</property>
    <property name="creation_time">2020-04-13T11:28:12</property>
    <property name="shotcut:hash">65568a88d02d9b90ac8b802dbc8299d0</property>
    <property name="ignore_points">0</property>
    <property name="shotcut:caption">Franck_saxophone_totoro.mp4</property>
    <property name="shotcut:skipConvert">1</property>
    <property name="global_feed">1</property>
    <property name="xml">was here</property>
    <filter id="filter384" in="00:02:00.160000" out="00:02:03.520000">
      <property name="background">colour:0</property>
      <property name="mlt_service">affine</property>
      <property name="shotcut:filter">affineSizePosition</property>
      <property name="transition.fill">1</property>
      <property name="transition.distort">0</property>
      <property name="transition.rect">00:00:00.000000=-1900.0 -1068.5 -18.0 -9.5 1;00:00:00.360000=650.0 941.5 119.0 67.5 1</property>
      <property name="transition.valign">top</property>
      <property name="transition.halign">left</property>
      <property name="shotcut:animIn">00:00:00.400000</property>
      <property name="shotcut:animOut">00:00:00.000</property>
      <property name="transition.threads">0</property>
    </filter>
    <filter id="filter385" in="00:02:00.160000" out="00:02:03.520000">
      <property name="window">75</property>
      <property name="max_gain">20dB</property>
      <property name="mlt_service">volume</property>
      <property name="shotcut:filter">muteVolume</property>
      <property name="gain">0</property>
    </filter>
  </producer>
  <producer id="producer215" in="00:00:00.000" out="00:03:18.880" title="Anonymous Submission">
    <property name="length">00:03:18:23</property>
    <property name="eof">pause</property>
    <property name="resource">../../006 - Videos format youtube/Saxophone/Franck_saxophone_totoro.mp4</property>
    <property name="audio_index">1</property>
    <property name="video_index">0</property>
    <property name="mute_on_pause">0</property>
    <property name="mlt_service">avformat-novalidate</property>
    <property name="seekable">1</property>
    <property name="aspect_ratio">1</property>
    <property name="creation_time">2020-04-13T11:28:12</property>
    <property name="shotcut:hash">65568a88d02d9b90ac8b802dbc8299d0</property>
    <property name="ignore_points">0</property>
    <property name="shotcut:caption">Franck_saxophone_totoro.mp4</property>
    <property name="shotcut:skipConvert">1</property>
    <property name="global_feed">1</property>
    <property name="xml">was here</property>
    <filter id="filter386" in="00:02:03.560000" out="00:02:06.960000">
      <property name="background">colour:0</property>
      <property name="mlt_service">affine</property>
      <property name="shotcut:filter">affineSizePosition</property>
      <property name="transition.fill">1</property>
      <property name="transition.distort">0</property>
      <property name="transition.rect">00:00:00.000000=954.0 543.0 4.0 2.0 1;00:00:00.360000=665.0 633.0 167.0 94.0 1</property>
      <property name="transition.valign">top</property>
      <property name="transition.halign">left</property>
      <property name="shotcut:animIn">00:00:00.400000</property>
      <property name="shotcut:animOut">00:00:00.000</property>
      <property name="transition.threads">0</property>
    </filter>
    <filter id="filter387" in="00:02:03.560000" out="00:02:06.960000">
      <property name="window">75</property>
      <property name="max_gain">20dB</property>
      <property name="mlt_service">volume</property>
      <property name="shotcut:filter">muteVolume</property>
      <property name="gain">0</property>
    </filter>
  </producer>
  <producer id="producer216" in="00:00:00.000" out="00:03:18.880" title="Anonymous Submission">
    <property name="length">00:03:18:23</property>
    <property name="eof">pause</property>
    <property name="resource">../../006 - Videos format youtube/Saxophone/Franck_saxophone_totoro.mp4</property>
    <property name="audio_index">1</property>
    <property name="video_index">0</property>
    <property name="mute_on_pause">0</property>
    <property name="mlt_service">avformat-novalidate</property>
    <property name="seekable">1</property>
    <property name="aspect_ratio">1</property>
    <property name="creation_time">2020-04-13T11:28:12</property>
    <property name="shotcut:hash">65568a88d02d9b90ac8b802dbc8299d0</property>
    <property name="ignore_points">0</property>
    <property name="shotcut:caption">Franck_saxophone_totoro.mp4</property>
    <property name="shotcut:skipConvert">1</property>
    <property name="global_feed">1</property>
    <property name="xml">was here</property>
    <filter id="filter388" in="00:02:07.000000" out="00:02:10.360000">
      <property name="background">colour:0</property>
      <property name="mlt_service">affine</property>
      <property name="shotcut:filter">affineSizePosition</property>
      <property name="transition.fill">1</property>
      <property name="transition.distort">0</property>
      <property name="transition.rect">00:00:00.000000=675.0 638.5 158.0 88.5 1;00:00:00.360000=906.0 509.5 119.0 67.5 1</property>
      <property name="transition.valign">top</property>
      <property name="transition.halign">left</property>
      <property name="shotcut:animIn">00:00:00.400000</property>
      <property name="shotcut:animOut">00:00:00.000</property>
      <property name="transition.threads">0</property>
    </filter>
    <filter id="filter389" in="00:02:07.000000" out="00:02:10.360000">
      <property name="window">75</property>
      <property name="max_gain">20dB</property>
      <property name="mlt_service">volume</property>
      <property name="shotcut:filter">muteVolume</property>
      <property name="gain">0</property>
    </filter>
  </producer>
  <producer id="producer217" in="00:00:00.000" out="00:03:18.880" title="Anonymous Submission">
    <property name="length">00:03:18:23</property>
    <property name="eof">pause</property>
    <property name="resource">../../006 - Videos format youtube/Saxophone/Franck_saxophone_totoro.mp4</property>
    <property name="audio_index">1</property>
    <property name="video_index">0</property>
    <property name="mute_on_pause">0</property>
    <property name="mlt_service">avformat-novalidate</property>
    <property name="seekable">1</property>
    <property name="aspect_ratio">1</property>
    <property name="creation_time">2020-04-13T11:28:12</property>
    <property name="shotcut:hash">65568a88d02d9b90ac8b802dbc8299d0</property>
    <property name="ignore_points">0</property>
    <property name="shotcut:caption">Franck_saxophone_totoro.mp4</property>
    <property name="shotcut:skipConvert">1</property>
    <property name="global_feed">1</property>
    <property name="xml">was here</property>
    <filter id="filter390" in="00:02:10.400000" out="00:02:13.800000">
      <property name="background">colour:0</property>
      <property name="mlt_service">affine</property>
      <property name="shotcut:filter">affineSizePosition</property>
      <property name="transition.fill">1</property>
      <property name="transition.distort">0</property>
      <property name="transition.rect">00:00:00.000000=916.0 513.5 110.0 61.5 1;00:00:00.360000=1290.0 725.5 119.0 67.5 1</property>
      <property name="transition.valign">top</property>
      <property name="transition.halign">left</property>
      <property name="shotcut:animIn">00:00:00.400000</property>
      <property name="shotcut:animOut">00:00:00.000</property>
      <property name="transition.threads">0</property>
    </filter>
    <filter id="filter391" in="00:02:10.400000" out="00:02:13.800000">
      <property name="window">75</property>
      <property name="max_gain">20dB</property>
      <property name="mlt_service">volume</property>
      <property name="shotcut:filter">muteVolume</property>
      <property name="gain">0</property>
    </filter>
  </producer>
  <producer id="producer218" in="00:00:00.000" out="00:03:18.880" title="Anonymous Submission">
    <property name="length">00:03:18:23</property>
    <property name="eof">pause</property>
    <property name="resource">../../006 - Videos format youtube/Saxophone/Franck_saxophone_totoro.mp4</property>
    <property name="audio_index">1</property>
    <property name="video_index">0</property>
    <property name="mute_on_pause">0</property>
    <property name="mlt_service">avformat-novalidate</property>
    <property name="seekable">1</property>
    <property name="aspect_ratio">1</property>
    <property name="creation_time">2020-04-13T11:28:12</property>
    <property name="shotcut:hash">65568a88d02d9b90ac8b802dbc8299d0</property>
    <property name="ignore_points">0</property>
    <property name="shotcut:caption">Franck_saxophone_totoro.mp4</property>
    <property name="shotcut:skipConvert">1</property>
    <property name="global_feed">1</property>
    <property name="xml">was here</property>
    <filter id="filter392" in="00:02:13.840000" out="00:02:17.200000">
      <property name="background">colour:0</property>
      <property name="mlt_service">affine</property>
      <property name="shotcut:filter">affineSizePosition</property>
      <property name="transition.fill">1</property>
      <property name="transition.distort">0</property>
      <property name="transition.rect">00:00:00.000000=1300.0 730.5 110.0 61.5 1;00:00:00.360000=714.0 509.5 119.0 67.5 1</property>
      <property name="transition.valign">top</property>
      <property name="transition.halign">left</property>
      <property name="shotcut:animIn">00:00:00.400000</property>
      <property name="shotcut:animOut">00:00:00.000</property>
      <property name="transition.threads">0</property>
    </filter>
    <filter id="filter393" in="00:02:13.840000" out="00:02:17.200000">
      <property name="window">75</property>
      <property name="max_gain">20dB</property>
      <property name="mlt_service">volume</property>
      <property name="shotcut:filter">muteVolume</property>
      <property name="gain">0</property>
    </filter>
  </producer>
  <producer id="producer219" in="00:00:00.000" out="00:03:18.880" title="Anonymous Submission">
    <property name="length">00:03:18:23</property>
    <property name="eof">pause</property>
    <property name="resource">../../006 - Videos format youtube/Saxophone/Franck_saxophone_totoro.mp4</property>
    <property name="audio_index">1</property>
    <property name="video_index">0</property>
    <property name="mute_on_pause">0</property>
    <property name="mlt_service">avformat-novalidate</property>
    <property name="seekable">1</property>
    <property name="aspect_ratio">1</property>
    <property name="creation_time">2020-04-13T11:28:12</property>
    <property name="shotcut:hash">65568a88d02d9b90ac8b802dbc8299d0</property>
    <property name="ignore_points">0</property>
    <property name="shotcut:caption">Franck_saxophone_totoro.mp4</property>
    <property name="shotcut:skipConvert">1</property>
    <property name="global_feed">1</property>
    <property name="xml">was here</property>
    <filter id="filter394" in="00:02:17.240000" out="00:02:23.520000">
      <property name="background">colour:0</property>
      <property name="mlt_service">affine</property>
      <property name="shotcut:filter">affineSizePosition</property>
      <property name="transition.fill">1</property>
      <property name="transition.distort">0</property>
      <property name="transition.rect">00:00:00.000000=724.0 513.5 110.0 61.5 1;00:00:00.360000=586.0 797.5 119.0 67.5 1</property>
      <property name="transition.valign">top</property>
      <property name="transition.halign">left</property>
      <property name="shotcut:animIn">00:00:00.400000</property>
      <property name="shotcut:animOut">00:00:00.000</property>
      <property name="transition.threads">0</property>
    </filter>
    <filter id="filter395" in="00:02:17.240000" out="00:02:23.520000">
      <property name="window">75</property>
      <property name="max_gain">20dB</property>
      <property name="mlt_service">volume</property>
      <property name="shotcut:filter">muteVolume</property>
      <property name="gain">0</property>
    </filter>
  </producer>
  <playlist id="playlist32">
    <property name="shotcut:video">1</property>
    <property name="shotcut:name">Franck</property>
    <property name="shotcut:lock">1</property>
    <blank length="00:01:55.000000" />
    <entry in="00:01:56.560000" out="00:02:00.120000" producer="producer213" />
    <entry in="00:02:00.160000" out="00:02:03.520000" producer="producer214" />
    <entry in="00:02:03.560000" out="00:02:06.960000" producer="producer215" />
    <entry in="00:02:07.000000" out="00:02:10.360000" producer="producer216" />
    <entry in="00:02:10.400000" out="00:02:13.800000" producer="producer217" />
    <entry in="00:02:13.840000" out="00:02:17.200000" producer="producer218" />
    <entry in="00:02:17.240000" out="00:02:23.520000" producer="producer219" />
    <filter id="filter396" out="00:03:20.840">
      <property name="window">75</property>
      <property name="max_gain">20dB</property>
      <property name="level">-8</property>
      <property name="mlt_service">volume</property>
    </filter>
  </playlist>
  <producer id="producer220" in="00:00:00.000" out="00:02:56.880" title="Anonymous Submission">
    <property name="length">00:02:56:23</property>
    <property name="eof">pause</property>
    <property name="resource">../../006 - Videos format youtube/Saxophone/Nadine_saxophone_totoro.mp4</property>
    <property name="audio_index">1</property>
    <property name="video_index">0</property>
    <property name="mute_on_pause">0</property>
    <property name="mlt_service">avformat-novalidate</property>
    <property name="seekable">1</property>
    <property name="aspect_ratio">1</property>
    <property name="creation_time">2020-04-05T10:59:22</property>
    <property name="shotcut:hash">82626502be7a153c67023eb3ec220870</property>
    <property name="ignore_points">0</property>
    <property name="shotcut:caption">Nadine_saxophone_totoro.mp4</property>
    <property name="shotcut:skipConvert">1</property>
    <property name="global_feed">1</property>
    <property name="xml">was here</property>
    <filter id="filter397" in="00:01:33.400000" out="00:01:36.960000">
      <property name="background">colour:0</property>
      <property name="mlt_service">affine</property>
      <property name="shotcut:filter">affineSizePosition</property>
      <property name="transition.fill">1</property>
      <property name="transition.distort">0</property>
      <property name="transition.rect">-1910.0 -1074.5 -9.0 -4.5 1</property>
      <property name="transition.valign">top</property>
      <property name="transition.halign">left</property>
      <property name="shotcut:animIn">00:00:00.000</property>
      <property name="shotcut:animOut">00:00:00.000</property>
      <property name="transition.threads">0</property>
    </filter>
  </producer>
  <producer id="producer221" in="00:00:00.000" out="00:02:56.880" title="Anonymous Submission">
    <property name="length">00:02:56:23</property>
    <property name="eof">pause</property>
    <property name="resource">../../006 - Videos format youtube/Saxophone/Nadine_saxophone_totoro.mp4</property>
    <property name="audio_index">1</property>
    <property name="video_index">0</property>
    <property name="mute_on_pause">0</property>
    <property name="mlt_service">avformat-novalidate</property>
    <property name="seekable">1</property>
    <property name="aspect_ratio">1</property>
    <property name="creation_time">2020-04-05T10:59:22</property>
    <property name="shotcut:hash">82626502be7a153c67023eb3ec220870</property>
    <property name="ignore_points">0</property>
    <property name="shotcut:caption">Nadine_saxophone_totoro.mp4</property>
    <property name="shotcut:skipConvert">1</property>
    <property name="global_feed">1</property>
    <property name="xml">was here</property>
    <filter id="filter398" in="00:01:37.000000" out="00:01:40.360000">
      <property name="background">colour:0</property>
      <property name="mlt_service">affine</property>
      <property name="shotcut:filter">affineSizePosition</property>
      <property name="transition.fill">1</property>
      <property name="transition.distort">0</property>
      <property name="transition.rect">00:00:00.000000=-1900.0 -1068.5 -18.0 -9.5 1;00:00:00.360000=777.0 941.5 119.0 67.5 1</property>
      <property name="transition.valign">top</property>
      <property name="transition.halign">left</property>
      <property name="shotcut:animIn">00:00:00.400000</property>
      <property name="shotcut:animOut">00:00:00.000</property>
      <property name="transition.threads">0</property>
    </filter>
  </producer>
  <producer id="producer222" in="00:00:00.000" out="00:02:56.880" title="Anonymous Submission">
    <property name="length">00:02:56:23</property>
    <property name="eof">pause</property>
    <property name="resource">../../006 - Videos format youtube/Saxophone/Nadine_saxophone_totoro.mp4</property>
    <property name="audio_index">1</property>
    <property name="video_index">0</property>
    <property name="mute_on_pause">0</property>
    <property name="mlt_service">avformat-novalidate</property>
    <property name="seekable">1</property>
    <property name="aspect_ratio">1</property>
    <property name="creation_time">2020-04-05T10:59:22</property>
    <property name="shotcut:hash">82626502be7a153c67023eb3ec220870</property>
    <property name="ignore_points">0</property>
    <property name="shotcut:caption">Nadine_saxophone_totoro.mp4</property>
    <property name="shotcut:skipConvert">1</property>
    <property name="global_feed">1</property>
    <property name="xml">was here</property>
    <filter id="filter399" in="00:01:40.400000" out="00:01:43.800000">
      <property name="background">colour:0</property>
      <property name="mlt_service">affine</property>
      <property name="shotcut:filter">affineSizePosition</property>
      <property name="transition.fill">1</property>
      <property name="transition.distort">0</property>
      <property name="transition.rect">00:00:00.000000=958.0 539.0 4.0 2.0 1;00:00:00.360000=915.0 352.0 167.0 94.0 1</property>
      <property name="transition.valign">top</property>
      <property name="transition.halign">left</property>
      <property name="shotcut:animIn">00:00:00.400000</property>
      <property name="shotcut:animOut">00:00:00.000</property>
      <property name="transition.threads">0</property>
    </filter>
  </producer>
  <producer id="producer223" in="00:00:00.000" out="00:02:56.880" title="Anonymous Submission">
    <property name="length">00:02:56:23</property>
    <property name="eof">pause</property>
    <property name="resource">../../006 - Videos format youtube/Saxophone/Nadine_saxophone_totoro.mp4</property>
    <property name="audio_index">1</property>
    <property name="video_index">0</property>
    <property name="mute_on_pause">0</property>
    <property name="mlt_service">avformat-novalidate</property>
    <property name="seekable">1</property>
    <property name="aspect_ratio">1</property>
    <property name="creation_time">2020-04-05T10:59:22</property>
    <property name="shotcut:hash">82626502be7a153c67023eb3ec220870</property>
    <property name="ignore_points">0</property>
    <property name="shotcut:caption">Nadine_saxophone_totoro.mp4</property>
    <property name="shotcut:skipConvert">1</property>
    <property name="global_feed">1</property>
    <property name="xml">was here</property>
    <filter id="filter400" in="00:01:43.840000" out="00:01:47.200000">
      <property name="background">colour:0</property>
      <property name="mlt_service">affine</property>
      <property name="shotcut:filter">affineSizePosition</property>
      <property name="transition.fill">1</property>
      <property name="transition.distort">0</property>
      <property name="transition.rect">00:00:00.000000=925.0 357.5 158.0 88.5 1;00:00:00.360000=777.0 725.5 119.0 67.5 1</property>
      <property name="transition.valign">top</property>
      <property name="transition.halign">left</property>
      <property name="shotcut:animIn">00:00:00.400000</property>
      <property name="shotcut:animOut">00:00:00.000</property>
      <property name="transition.threads">0</property>
    </filter>
  </producer>
  <producer id="producer224" in="00:00:00.000" out="00:02:56.880" title="Anonymous Submission">
    <property name="length">00:02:56:23</property>
    <property name="eof">pause</property>
    <property name="resource">../../006 - Videos format youtube/Saxophone/Nadine_saxophone_totoro.mp4</property>
    <property name="audio_index">1</property>
    <property name="video_index">0</property>
    <property name="mute_on_pause">0</property>
    <property name="mlt_service">avformat-novalidate</property>
    <property name="seekable">1</property>
    <property name="aspect_ratio">1</property>
    <property name="creation_time">2020-04-05T10:59:22</property>
    <property name="shotcut:hash">82626502be7a153c67023eb3ec220870</property>
    <property name="ignore_points">0</property>
    <property name="shotcut:caption">Nadine_saxophone_totoro.mp4</property>
    <property name="shotcut:skipConvert">1</property>
    <property name="global_feed">1</property>
    <property name="xml">was here</property>
    <filter id="filter401" in="00:01:47.240000" out="00:01:50.640000">
      <property name="background">colour:0</property>
      <property name="mlt_service">affine</property>
      <property name="shotcut:filter">affineSizePosition</property>
      <property name="transition.fill">1</property>
      <property name="transition.distort">0</property>
      <property name="transition.rect">00:00:00.000000=787.0 730.5 110.0 61.5 1;00:00:00.360000=522.0 797.5 119.0 67.5 1</property>
      <property name="transition.valign">top</property>
      <property name="transition.halign">left</property>
      <property name="shotcut:animIn">00:00:00.400000</property>
      <property name="shotcut:animOut">00:00:00.000</property>
      <property name="transition.threads">0</property>
    </filter>
  </producer>
  <producer id="producer225" in="00:00:00.000" out="00:02:56.880" title="Anonymous Submission">
    <property name="length">00:02:56:23</property>
    <property name="eof">pause</property>
    <property name="resource">../../006 - Videos format youtube/Saxophone/Nadine_saxophone_totoro.mp4</property>
    <property name="audio_index">1</property>
    <property name="video_index">0</property>
    <property name="mute_on_pause">0</property>
    <property name="mlt_service">avformat-novalidate</property>
    <property name="seekable">1</property>
    <property name="aspect_ratio">1</property>
    <property name="creation_time">2020-04-05T10:59:22</property>
    <property name="shotcut:hash">82626502be7a153c67023eb3ec220870</property>
    <property name="ignore_points">0</property>
    <property name="shotcut:caption">Nadine_saxophone_totoro.mp4</property>
    <property name="shotcut:skipConvert">1</property>
    <property name="global_feed">1</property>
    <property name="xml">was here</property>
    <filter id="filter402" in="00:01:50.680000" out="00:01:54.040000">
      <property name="background">colour:0</property>
      <property name="mlt_service">affine</property>
      <property name="shotcut:filter">affineSizePosition</property>
      <property name="transition.fill">1</property>
      <property name="transition.distort">0</property>
      <property name="transition.rect">906.0 77.5 119.0 67.5 1</property>
      <property name="transition.valign">top</property>
      <property name="transition.halign">left</property>
      <property name="shotcut:animIn">00:00:00.400000</property>
      <property name="shotcut:animOut">00:00:00.000</property>
      <property name="transition.threads">0</property>
    </filter>
  </producer>
  <producer id="producer226" in="00:00:00.000" out="00:02:56.880" title="Anonymous Submission">
    <property name="length">00:02:56:23</property>
    <property name="eof">pause</property>
    <property name="resource">../../006 - Videos format youtube/Saxophone/Nadine_saxophone_totoro.mp4</property>
    <property name="audio_index">1</property>
    <property name="video_index">0</property>
    <property name="mute_on_pause">0</property>
    <property name="mlt_service">avformat-novalidate</property>
    <property name="seekable">1</property>
    <property name="aspect_ratio">1</property>
    <property name="creation_time">2020-04-05T10:59:22</property>
    <property name="shotcut:hash">82626502be7a153c67023eb3ec220870</property>
    <property name="ignore_points">0</property>
    <property name="shotcut:caption">Nadine_saxophone_totoro.mp4</property>
    <property name="shotcut:skipConvert">1</property>
    <property name="global_feed">1</property>
    <property name="xml">was here</property>
    <filter id="filter403" in="00:01:54.080000" out="00:02:00.360000">
      <property name="background">colour:0</property>
      <property name="mlt_service">affine</property>
      <property name="shotcut:filter">affineSizePosition</property>
      <property name="transition.fill">1</property>
      <property name="transition.distort">0</property>
      <property name="transition.rect">00:00:00.000000=916.0 82.5 110.0 61.5 1;00:00:00.360000=586.0 365.5 119.0 67.5 1</property>
      <property name="transition.valign">top</property>
      <property name="transition.halign">left</property>
      <property name="shotcut:animIn">00:00:00.400000</property>
      <property name="shotcut:animOut">00:00:00.000</property>
      <property name="transition.threads">0</property>
    </filter>
  </producer>
  <playlist id="playlist33">
    <property name="shotcut:video">1</property>
    <property name="shotcut:name">Nadine_saxo2/3?</property>
    <property name="shotcut:lock">1</property>
    <blank length="00:01:55.000000" />
    <entry in="00:01:33.400000" out="00:01:36.960000" producer="producer220" />
    <entry in="00:01:37.000000" out="00:01:40.360000" producer="producer221" />
    <entry in="00:01:40.400000" out="00:01:43.800000" producer="producer222" />
    <entry in="00:01:43.840000" out="00:01:47.200000" producer="producer223" />
    <entry in="00:01:47.240000" out="00:01:50.640000" producer="producer224" />
    <entry in="00:01:50.680000" out="00:01:54.040000" producer="producer225" />
    <entry in="00:01:54.080000" out="00:02:00.360000" producer="producer226" />
    <filter id="filter404" out="00:03:20.840">
      <property name="window">75</property>
      <property name="max_gain">20dB</property>
      <property name="level">-10</property>
      <property name="mlt_service">volume</property>
    </filter>
  </playlist>
  <producer id="producer227" in="00:00:00.000" out="00:03:00.640" title="Anonymous Submission">
    <property name="length">00:03:00:17</property>
    <property name="eof">pause</property>
    <property name="resource">../../006 - Videos format youtube/Saxophone/Nathalie_saxophone_totoro.mp4</property>
    <property name="audio_index">1</property>
    <property name="video_index">0</property>
    <property name="mute_on_pause">0</property>
    <property name="mlt_service">avformat-novalidate</property>
    <property name="seekable">1</property>
    <property name="aspect_ratio">1</property>
    <property name="creation_time">2020-04-05T20:53:59</property>
    <property name="shotcut:hash">0d7f5f7f840ed30cff72366d537ba970</property>
    <property name="ignore_points">0</property>
    <property name="shotcut:caption">Nathalie_saxophone_totoro.mp4</property>
    <property name="shotcut:skipConvert">1</property>
    <property name="global_feed">1</property>
    <property name="xml">was here</property>
    <filter id="filter405" in="00:01:38.560000" out="00:01:42.120000">
      <property name="background">colour:0</property>
      <property name="mlt_service">affine</property>
      <property name="shotcut:filter">affineSizePosition</property>
      <property name="transition.fill">1</property>
      <property name="transition.distort">0</property>
      <property name="transition.rect">-1910.0 -1074.5 -9.0 -4.5 1</property>
      <property name="transition.valign">top</property>
      <property name="transition.halign">left</property>
      <property name="shotcut:animIn">00:00:00.000</property>
      <property name="shotcut:animOut">00:00:00.000</property>
      <property name="transition.threads">0</property>
    </filter>
  </producer>
  <producer id="producer228" in="00:00:00.000" out="00:03:00.640" title="Anonymous Submission">
    <property name="length">00:03:00:17</property>
    <property name="eof">pause</property>
    <property name="resource">../../006 - Videos format youtube/Saxophone/Nathalie_saxophone_totoro.mp4</property>
    <property name="audio_index">1</property>
    <property name="video_index">0</property>
    <property name="mute_on_pause">0</property>
    <property name="mlt_service">avformat-novalidate</property>
    <property name="seekable">1</property>
    <property name="aspect_ratio">1</property>
    <property name="creation_time">2020-04-05T20:53:59</property>
    <property name="shotcut:hash">0d7f5f7f840ed30cff72366d537ba970</property>
    <property name="ignore_points">0</property>
    <property name="shotcut:caption">Nathalie_saxophone_totoro.mp4</property>
    <property name="shotcut:skipConvert">1</property>
    <property name="global_feed">1</property>
    <property name="xml">was here</property>
    <filter id="filter406" in="00:01:42.160000" out="00:01:45.520000">
      <property name="background">colour:0</property>
      <property name="mlt_service">affine</property>
      <property name="shotcut:filter">affineSizePosition</property>
      <property name="transition.fill">1</property>
      <property name="transition.distort">0</property>
      <property name="transition.rect">00:00:00.000000=-1900.0 -1068.5 -18.0 -9.5 1;00:00:00.360000=906.0 941.5 119.0 67.5 1</property>
      <property name="transition.valign">top</property>
      <property name="transition.halign">left</property>
      <property name="shotcut:animIn">00:00:00.400000</property>
      <property name="shotcut:animOut">00:00:00.000</property>
      <property name="transition.threads">0</property>
    </filter>
  </producer>
  <producer id="producer229" in="00:00:00.000" out="00:03:00.640" title="Anonymous Submission">
    <property name="length">00:03:00:17</property>
    <property name="eof">pause</property>
    <property name="resource">../../006 - Videos format youtube/Saxophone/Nathalie_saxophone_totoro.mp4</property>
    <property name="audio_index">1</property>
    <property name="video_index">0</property>
    <property name="mute_on_pause">0</property>
    <property name="mlt_service">avformat-novalidate</property>
    <property name="seekable">1</property>
    <property name="aspect_ratio">1</property>
    <property name="creation_time">2020-04-05T20:53:59</property>
    <property name="shotcut:hash">0d7f5f7f840ed30cff72366d537ba970</property>
    <property name="ignore_points">0</property>
    <property name="shotcut:caption">Nathalie_saxophone_totoro.mp4</property>
    <property name="shotcut:skipConvert">1</property>
    <property name="global_feed">1</property>
    <property name="xml">was here</property>
    <filter id="filter407" in="00:01:45.560000" out="00:01:48.960000">
      <property name="background">colour:0</property>
      <property name="mlt_service">affine</property>
      <property name="shotcut:filter">affineSizePosition</property>
      <property name="transition.fill">1</property>
      <property name="transition.distort">0</property>
      <property name="transition.rect">00:00:00.000000=962.0 534.0 4.0 2.0 1;00:00:00.360000=1164.0 72.0 167.0 94.0 1</property>
      <property name="transition.valign">top</property>
      <property name="transition.halign">left</property>
      <property name="shotcut:animIn">00:00:00.400000</property>
      <property name="shotcut:animOut">00:00:00.000</property>
      <property name="transition.threads">0</property>
    </filter>
  </producer>
  <producer id="producer230" in="00:00:00.000" out="00:03:00.640" title="Anonymous Submission">
    <property name="length">00:03:00:17</property>
    <property name="eof">pause</property>
    <property name="resource">../../006 - Videos format youtube/Saxophone/Nathalie_saxophone_totoro.mp4</property>
    <property name="audio_index">1</property>
    <property name="video_index">0</property>
    <property name="mute_on_pause">0</property>
    <property name="mlt_service">avformat-novalidate</property>
    <property name="seekable">1</property>
    <property name="aspect_ratio">1</property>
    <property name="creation_time">2020-04-05T20:53:59</property>
    <property name="shotcut:hash">0d7f5f7f840ed30cff72366d537ba970</property>
    <property name="ignore_points">0</property>
    <property name="shotcut:caption">Nathalie_saxophone_totoro.mp4</property>
    <property name="shotcut:skipConvert">1</property>
    <property name="global_feed">1</property>
    <property name="xml">was here</property>
    <filter id="filter408" in="00:01:49.000000" out="00:01:52.360000">
      <property name="background">colour:0</property>
      <property name="mlt_service">affine</property>
      <property name="shotcut:filter">affineSizePosition</property>
      <property name="transition.fill">1</property>
      <property name="transition.distort">0</property>
      <property name="transition.rect">00:00:00.000000=1174.0 77.5 158.0 88.5 1;00:00:00.360000=1034.0 77.5 119.0 67.5 1</property>
      <property name="transition.valign">top</property>
      <property name="transition.halign">left</property>
      <property name="shotcut:animIn">00:00:00.400000</property>
      <property name="shotcut:animOut">00:00:00.000</property>
      <property name="transition.threads">0</property>
    </filter>
  </producer>
  <producer id="producer231" in="00:00:00.000" out="00:03:00.640" title="Anonymous Submission">
    <property name="length">00:03:00:17</property>
    <property name="eof">pause</property>
    <property name="resource">../../006 - Videos format youtube/Saxophone/Nathalie_saxophone_totoro.mp4</property>
    <property name="audio_index">1</property>
    <property name="video_index">0</property>
    <property name="mute_on_pause">0</property>
    <property name="mlt_service">avformat-novalidate</property>
    <property name="seekable">1</property>
    <property name="aspect_ratio">1</property>
    <property name="creation_time">2020-04-05T20:53:59</property>
    <property name="shotcut:hash">0d7f5f7f840ed30cff72366d537ba970</property>
    <property name="ignore_points">0</property>
    <property name="shotcut:caption">Nathalie_saxophone_totoro.mp4</property>
    <property name="shotcut:skipConvert">1</property>
    <property name="global_feed">1</property>
    <property name="xml">was here</property>
    <filter id="filter409" in="00:01:52.400000" out="00:01:55.800000">
      <property name="background">colour:0</property>
      <property name="mlt_service">affine</property>
      <property name="shotcut:filter">affineSizePosition</property>
      <property name="transition.fill">1</property>
      <property name="transition.distort">0</property>
      <property name="transition.rect">00:00:00.000000=1044.0 82.5 110.0 61.5 1;00:00:00.360000=1290.0 797.5 119.0 67.5 1</property>
      <property name="transition.valign">top</property>
      <property name="transition.halign">left</property>
      <property name="shotcut:animIn">00:00:00.400000</property>
      <property name="shotcut:animOut">00:00:00.000</property>
      <property name="transition.threads">0</property>
    </filter>
  </producer>
  <producer id="producer232" in="00:00:00.000" out="00:03:00.640" title="Anonymous Submission">
    <property name="length">00:03:00:17</property>
    <property name="eof">pause</property>
    <property name="resource">../../006 - Videos format youtube/Saxophone/Nathalie_saxophone_totoro.mp4</property>
    <property name="audio_index">1</property>
    <property name="video_index">0</property>
    <property name="mute_on_pause">0</property>
    <property name="mlt_service">avformat-novalidate</property>
    <property name="seekable">1</property>
    <property name="aspect_ratio">1</property>
    <property name="creation_time">2020-04-05T20:53:59</property>
    <property name="shotcut:hash">0d7f5f7f840ed30cff72366d537ba970</property>
    <property name="ignore_points">0</property>
    <property name="shotcut:caption">Nathalie_saxophone_totoro.mp4</property>
    <property name="shotcut:skipConvert">1</property>
    <property name="global_feed">1</property>
    <property name="xml">was here</property>
    <filter id="filter410" in="00:01:55.840000" out="00:01:59.200000">
      <property name="background">colour:0</property>
      <property name="mlt_service">affine</property>
      <property name="shotcut:filter">affineSizePosition</property>
      <property name="transition.fill">1</property>
      <property name="transition.distort">0</property>
      <property name="transition.rect">-1910.0 -1074.5 -9.0 -4.5 1</property>
      <property name="transition.valign">top</property>
      <property name="transition.halign">left</property>
      <property name="shotcut:animIn">00:00:00.400000</property>
      <property name="shotcut:animOut">00:00:00.000</property>
      <property name="transition.threads">0</property>
    </filter>
  </producer>
  <producer id="producer233" in="00:00:00.000" out="00:03:00.640" title="Anonymous Submission">
    <property name="length">00:03:00:17</property>
    <property name="eof">pause</property>
    <property name="resource">../../006 - Videos format youtube/Saxophone/Nathalie_saxophone_totoro.mp4</property>
    <property name="audio_index">1</property>
    <property name="video_index">0</property>
    <property name="mute_on_pause">0</property>
    <property name="mlt_service">avformat-novalidate</property>
    <property name="seekable">1</property>
    <property name="aspect_ratio">1</property>
    <property name="creation_time">2020-04-05T20:53:59</property>
    <property name="shotcut:hash">0d7f5f7f840ed30cff72366d537ba970</property>
    <property name="ignore_points">0</property>
    <property name="shotcut:caption">Nathalie_saxophone_totoro.mp4</property>
    <property name="shotcut:skipConvert">1</property>
    <property name="global_feed">1</property>
    <property name="xml">was here</property>
    <filter id="filter411" in="00:01:59.240000" out="00:02:05.520000">
      <property name="background">colour:0</property>
      <property name="mlt_service">affine</property>
      <property name="shotcut:filter">affineSizePosition</property>
      <property name="transition.fill">1</property>
      <property name="transition.distort">0</property>
      <property name="transition.rect">00:00:00.000000=-1900.0 -1068.5 -18.0 -9.5 1;00:00:00.360000=1098.0 77.5 119.0 67.5 1</property>
      <property name="transition.valign">top</property>
      <property name="transition.halign">left</property>
      <property name="shotcut:animIn">00:00:00.400000</property>
      <property name="shotcut:animOut">00:00:00.000</property>
      <property name="transition.threads">0</property>
    </filter>
  </producer>
  <playlist id="playlist34">
    <property name="shotcut:video">1</property>
    <property name="shotcut:name">Nathalie_saxo2/3?</property>
    <property name="shotcut:lock">1</property>
    <blank length="00:01:55.000000" />
    <entry in="00:01:38.560000" out="00:01:42.120000" producer="producer227" />
    <entry in="00:01:42.160000" out="00:01:45.520000" producer="producer228" />
    <entry in="00:01:45.560000" out="00:01:48.960000" producer="producer229" />
    <entry in="00:01:49.000000" out="00:01:52.360000" producer="producer230" />
    <entry in="00:01:52.400000" out="00:01:55.800000" producer="producer231" />
    <entry in="00:01:55.840000" out="00:01:59.200000" producer="producer232" />
    <entry in="00:01:59.240000" out="00:02:05.520000" producer="producer233" />
    <filter id="filter412" out="00:03:20.840">
      <property name="window">75</property>
      <property name="max_gain">20dB</property>
      <property name="level">-10</property>
      <property name="mlt_service">volume</property>
    </filter>
  </playlist>
  <producer id="producer234" in="00:00:00.000" out="00:03:20.680" title="Anonymous Submission">
    <property name="length">00:03:20:18</property>
    <property name="eof">pause</property>
    <property name="resource">../../006 - Videos format youtube/Saxophone/Chloe_saxophone_totoro_clown_recadre.mp4</property>
    <property name="audio_index">1</property>
    <property name="video_index">0</property>
    <property name="mute_on_pause">0</property>
    <property name="mlt_service">avformat-novalidate</property>
    <property name="seekable">1</property>
    <property name="aspect_ratio">1</property>
    <property name="creation_time">2020-04-12T15:45:35</property>
    <property name="shotcut:hash">93226b3e2e8f077ce38531a1c7650b73</property>
    <property name="ignore_points">0</property>
    <property name="shotcut:caption">Chloe_saxophone_totoro_clown_recadre.mp4</property>
    <property name="shotcut:skipConvert">1</property>
    <property name="global_feed">1</property>
    <property name="xml">was here</property>
    <filter id="filter413" in="00:01:55.000000" out="00:01:58.560000">
      <property name="background">colour:0</property>
      <property name="mlt_service">affine</property>
      <property name="shotcut:filter">affineSizePosition</property>
      <property name="transition.fill">1</property>
      <property name="transition.distort">0</property>
      <property name="transition.rect">-1910.0 -1074.5 -9.0 -4.5 1</property>
      <property name="transition.valign">top</property>
      <property name="transition.halign">left</property>
      <property name="shotcut:animIn">00:00:00.000</property>
      <property name="shotcut:animOut">00:00:00.000</property>
      <property name="transition.threads">0</property>
    </filter>
    <filter id="filter414" in="00:01:55.000000" out="00:01:58.560000">
      <property name="window">75</property>
      <property name="max_gain">20dB</property>
      <property name="level">-15</property>
      <property name="mlt_service">volume</property>
    </filter>
  </producer>
  <producer id="producer235" in="00:00:00.000" out="00:03:20.680" title="Anonymous Submission">
    <property name="length">00:03:20:18</property>
    <property name="eof">pause</property>
    <property name="resource">../../006 - Videos format youtube/Saxophone/Chloe_saxophone_totoro_clown_recadre.mp4</property>
    <property name="audio_index">1</property>
    <property name="video_index">0</property>
    <property name="mute_on_pause">0</property>
    <property name="mlt_service">avformat-novalidate</property>
    <property name="seekable">1</property>
    <property name="aspect_ratio">1</property>
    <property name="creation_time">2020-04-12T15:45:35</property>
    <property name="shotcut:hash">93226b3e2e8f077ce38531a1c7650b73</property>
    <property name="ignore_points">0</property>
    <property name="shotcut:caption">Chloe_saxophone_totoro_clown_recadre.mp4</property>
    <property name="shotcut:skipConvert">1</property>
    <property name="global_feed">1</property>
    <property name="xml">was here</property>
    <filter id="filter415" in="00:01:58.600000" out="00:02:01.960000">
      <property name="background">colour:0</property>
      <property name="mlt_service">affine</property>
      <property name="shotcut:filter">affineSizePosition</property>
      <property name="transition.fill">1</property>
      <property name="transition.distort">0</property>
      <property name="transition.rect">00:00:00.000000=-1900.0 -1068.5 -18.0 -9.5 1;00:00:00.360000=1034.0 941.5 119.0 67.5 1</property>
      <property name="transition.valign">top</property>
      <property name="transition.halign">left</property>
      <property name="shotcut:animIn">00:00:00.400000</property>
      <property name="shotcut:animOut">00:00:00.000</property>
      <property name="transition.threads">0</property>
    </filter>
    <filter id="filter416" in="00:01:58.600000" out="00:02:01.960000">
      <property name="window">75</property>
      <property name="max_gain">20dB</property>
      <property name="level">-15</property>
      <property name="mlt_service">volume</property>
    </filter>
  </producer>
  <producer id="producer236" in="00:00:00.000" out="00:03:20.680" title="Anonymous Submission">
    <property name="length">00:03:20:18</property>
    <property name="eof">pause</property>
    <property name="resource">../../006 - Videos format youtube/Saxophone/Chloe_saxophone_totoro_clown_recadre.mp4</property>
    <property name="audio_index">1</property>
    <property name="video_index">0</property>
    <property name="mute_on_pause">0</property>
    <property name="mlt_service">avformat-novalidate</property>
    <property name="seekable">1</property>
    <property name="aspect_ratio">1</property>
    <property name="creation_time">2020-04-12T15:45:35</property>
    <property name="shotcut:hash">93226b3e2e8f077ce38531a1c7650b73</property>
    <property name="ignore_points">0</property>
    <property name="shotcut:caption">Chloe_saxophone_totoro_clown_recadre.mp4</property>
    <property name="shotcut:skipConvert">1</property>
    <property name="global_feed">1</property>
    <property name="xml">was here</property>
    <filter id="filter417" in="00:02:02.000000" out="00:02:05.400000">
      <property name="background">colour:0</property>
      <property name="mlt_service">affine</property>
      <property name="shotcut:filter">affineSizePosition</property>
      <property name="transition.fill">1</property>
      <property name="transition.distort">0</property>
      <property name="transition.rect">00:00:00.000000=962.0 537.0 4.0 2.0 1;00:00:00.360000=1164.0 259.0 167.0 94.0 1</property>
      <property name="transition.valign">top</property>
      <property name="transition.halign">left</property>
      <property name="shotcut:animIn">00:00:00.400000</property>
      <property name="shotcut:animOut">00:00:00.000</property>
      <property name="transition.threads">0</property>
    </filter>
    <filter id="filter418" in="00:02:02.000000" out="00:02:05.400000">
      <property name="window">75</property>
      <property name="max_gain">20dB</property>
      <property name="level">-15</property>
      <property name="mlt_service">volume</property>
    </filter>
  </producer>
  <producer id="producer237" in="00:00:00.000" out="00:03:20.680" title="Anonymous Submission">
    <property name="length">00:03:20:18</property>
    <property name="eof">pause</property>
    <property name="resource">../../006 - Videos format youtube/Saxophone/Chloe_saxophone_totoro_clown_recadre.mp4</property>
    <property name="audio_index">1</property>
    <property name="video_index">0</property>
    <property name="mute_on_pause">0</property>
    <property name="mlt_service">avformat-novalidate</property>
    <property name="seekable">1</property>
    <property name="aspect_ratio">1</property>
    <property name="creation_time">2020-04-12T15:45:35</property>
    <property name="shotcut:hash">93226b3e2e8f077ce38531a1c7650b73</property>
    <property name="ignore_points">0</property>
    <property name="shotcut:caption">Chloe_saxophone_totoro_clown_recadre.mp4</property>
    <property name="shotcut:skipConvert">1</property>
    <property name="global_feed">1</property>
    <property name="xml">was here</property>
    <filter id="filter419" in="00:02:05.440000" out="00:02:08.800000">
      <property name="background">colour:0</property>
      <property name="mlt_service">affine</property>
      <property name="shotcut:filter">affineSizePosition</property>
      <property name="transition.fill">1</property>
      <property name="transition.distort">0</property>
      <property name="transition.rect">00:00:00.000000=1174.0 264.5 158.0 88.5 1;00:00:00.360000=650.0 868.5 119.0 67.5 1</property>
      <property name="transition.valign">top</property>
      <property name="transition.halign">left</property>
      <property name="shotcut:animIn">00:00:00.400000</property>
      <property name="shotcut:animOut">00:00:00.000</property>
      <property name="transition.threads">0</property>
    </filter>
    <filter id="filter420" in="00:02:05.440000" out="00:02:08.800000">
      <property name="window">75</property>
      <property name="max_gain">20dB</property>
      <property name="level">-15</property>
      <property name="mlt_service">volume</property>
    </filter>
  </producer>
  <producer id="producer238" in="00:00:00.000" out="00:03:20.680" title="Anonymous Submission">
    <property name="length">00:03:20:18</property>
    <property name="eof">pause</property>
    <property name="resource">../../006 - Videos format youtube/Saxophone/Chloe_saxophone_totoro_clown_recadre.mp4</property>
    <property name="audio_index">1</property>
    <property name="video_index">0</property>
    <property name="mute_on_pause">0</property>
    <property name="mlt_service">avformat-novalidate</property>
    <property name="seekable">1</property>
    <property name="aspect_ratio">1</property>
    <property name="creation_time">2020-04-12T15:45:35</property>
    <property name="shotcut:hash">93226b3e2e8f077ce38531a1c7650b73</property>
    <property name="ignore_points">0</property>
    <property name="shotcut:caption">Chloe_saxophone_totoro_clown_recadre.mp4</property>
    <property name="shotcut:skipConvert">1</property>
    <property name="global_feed">1</property>
    <property name="xml">was here</property>
    <filter id="filter421" in="00:02:08.840000" out="00:02:12.240000">
      <property name="background">colour:0</property>
      <property name="mlt_service">affine</property>
      <property name="shotcut:filter">affineSizePosition</property>
      <property name="transition.fill">1</property>
      <property name="transition.distort">0</property>
      <property name="transition.rect">00:00:00.000000=660.0 873.5 110.0 61.5 1;00:00:00.360000=522.0 868.5 119.0 67.5 1</property>
      <property name="transition.valign">top</property>
      <property name="transition.halign">left</property>
      <property name="shotcut:animIn">00:00:00.400000</property>
      <property name="shotcut:animOut">00:00:00.000</property>
      <property name="transition.threads">0</property>
    </filter>
    <filter id="filter422" in="00:02:08.840000" out="00:02:12.240000">
      <property name="window">75</property>
      <property name="max_gain">20dB</property>
      <property name="level">-15</property>
      <property name="mlt_service">volume</property>
    </filter>
  </producer>
  <producer id="producer239" in="00:00:00.000" out="00:03:20.680" title="Anonymous Submission">
    <property name="length">00:03:20:18</property>
    <property name="eof">pause</property>
    <property name="resource">../../006 - Videos format youtube/Saxophone/Chloe_saxophone_totoro_clown_recadre.mp4</property>
    <property name="audio_index">1</property>
    <property name="video_index">0</property>
    <property name="mute_on_pause">0</property>
    <property name="mlt_service">avformat-novalidate</property>
    <property name="seekable">1</property>
    <property name="aspect_ratio">1</property>
    <property name="creation_time">2020-04-12T15:45:35</property>
    <property name="shotcut:hash">93226b3e2e8f077ce38531a1c7650b73</property>
    <property name="ignore_points">0</property>
    <property name="shotcut:caption">Chloe_saxophone_totoro_clown_recadre.mp4</property>
    <property name="shotcut:skipConvert">1</property>
    <property name="global_feed">1</property>
    <property name="xml">was here</property>
    <filter id="filter423" in="00:02:12.280000" out="00:02:15.640000">
      <property name="background">colour:0</property>
      <property name="mlt_service">affine</property>
      <property name="shotcut:filter">affineSizePosition</property>
      <property name="transition.fill">1</property>
      <property name="transition.distort">0</property>
      <property name="transition.rect">00:00:00.000000=532.0 873.5 110.0 61.5 1;00:00:00.360000=586.0 725.5 119.0 67.5 1</property>
      <property name="transition.valign">top</property>
      <property name="transition.halign">left</property>
      <property name="shotcut:animIn">00:00:00.400000</property>
      <property name="shotcut:animOut">00:00:00.000</property>
      <property name="transition.threads">0</property>
    </filter>
    <filter id="filter424" in="00:02:12.280000" out="00:02:15.640000">
      <property name="window">75</property>
      <property name="max_gain">20dB</property>
      <property name="level">-15</property>
      <property name="mlt_service">volume</property>
    </filter>
  </producer>
  <producer id="producer240" in="00:00:00.000" out="00:03:20.680" title="Anonymous Submission">
    <property name="length">00:03:20:18</property>
    <property name="eof">pause</property>
    <property name="resource">../../006 - Videos format youtube/Saxophone/Chloe_saxophone_totoro_clown_recadre.mp4</property>
    <property name="audio_index">1</property>
    <property name="video_index">0</property>
    <property name="mute_on_pause">0</property>
    <property name="mlt_service">avformat-novalidate</property>
    <property name="seekable">1</property>
    <property name="aspect_ratio">1</property>
    <property name="creation_time">2020-04-12T15:45:35</property>
    <property name="shotcut:hash">93226b3e2e8f077ce38531a1c7650b73</property>
    <property name="ignore_points">0</property>
    <property name="shotcut:caption">Chloe_saxophone_totoro_clown_recadre.mp4</property>
    <property name="shotcut:skipConvert">1</property>
    <property name="global_feed">1</property>
    <property name="xml">was here</property>
    <filter id="filter425" in="00:02:15.680000" out="00:02:21.960000">
      <property name="background">colour:0</property>
      <property name="mlt_service">affine</property>
      <property name="shotcut:filter">affineSizePosition</property>
      <property name="transition.fill">1</property>
      <property name="transition.distort">0</property>
      <property name="transition.rect">00:00:00.000000=596.0 730.5 110.0 61.5 1;00:00:00.360000=586.0 149.5 119.0 67.5 1</property>
      <property name="transition.valign">top</property>
      <property name="transition.halign">left</property>
      <property name="shotcut:animIn">00:00:00.400000</property>
      <property name="shotcut:animOut">00:00:00.000</property>
      <property name="transition.threads">0</property>
    </filter>
    <filter id="filter426" in="00:02:15.680000" out="00:02:21.960000">
      <property name="window">75</property>
      <property name="max_gain">20dB</property>
      <property name="level">-15</property>
      <property name="mlt_service">volume</property>
    </filter>
  </producer>
  <playlist id="playlist35">
    <blank length="00:01:55.000000" /><property name="shotcut:video">1</property>
    <property name="shotcut:name">Chloe recadre</property>
    <property name="shotcut:lock">1</property>
    <entry in="00:01:55.000000" out="00:01:58.560000" producer="producer234" />
  <entry in="00:01:58.600000" out="00:02:01.960000" producer="producer235" />
  <entry in="00:02:02.000000" out="00:02:05.400000" producer="producer236" />
  <entry in="00:02:05.440000" out="00:02:08.800000" producer="producer237" />
  <entry in="00:02:08.840000" out="00:02:12.240000" producer="producer238" />
  <entry in="00:02:12.280000" out="00:02:15.640000" producer="producer239" />
  <entry in="00:02:15.680000" out="00:02:21.960000" producer="producer240" />
  </playlist>
  <producer id="producer241" in="00:00:00.000" out="00:03:16.680" title="Anonymous Submission">
    <property name="length">00:03:16:18</property>
    <property name="eof">pause</property>
    <property name="resource">../../006 - Videos format youtube/Trombone/Camille_trombone_totoro.mp4</property>
    <property name="audio_index">1</property>
    <property name="video_index">0</property>
    <property name="mute_on_pause">0</property>
    <property name="mlt_service">avformat-novalidate</property>
    <property name="seekable">1</property>
    <property name="aspect_ratio">1</property>
    <property name="creation_time">2020-04-09T17:56:38</property>
    <property name="shotcut:hash">6322ebba469dd48f4d62f48f0e58e722</property>
    <property name="ignore_points">0</property>
    <property name="shotcut:caption">Camille_trombone_totoro.mp4</property>
    <property name="shotcut:skipConvert">1</property>
    <property name="global_feed">1</property>
    <property name="xml">was here</property>
    <filter id="filter427" in="00:01:45.960000" out="00:01:49.520000">
      <property name="background">colour:0</property>
      <property name="mlt_service">affine</property>
      <property name="shotcut:filter">affineSizePosition</property>
      <property name="transition.fill">1</property>
      <property name="transition.distort">0</property>
      <property name="transition.rect">-1910.0 -1074.5 -9.0 -4.5 1</property>
      <property name="transition.valign">top</property>
      <property name="transition.halign">left</property>
      <property name="shotcut:animIn">00:00:00.000</property>
      <property name="shotcut:animOut">00:00:00.000</property>
      <property name="transition.threads">0</property>
    </filter>
    <filter id="filter428" in="00:01:45.960000" out="00:01:49.520000">
      <property name="window">75</property>
      <property name="max_gain">20dB</property>
      <property name="mlt_service">volume</property>
      <property name="shotcut:filter">muteVolume</property>
      <property name="gain">0</property>
    </filter>
  </producer>
  <producer id="producer242" in="00:00:00.000" out="00:03:16.680" title="Anonymous Submission">
    <property name="length">00:03:16:18</property>
    <property name="eof">pause</property>
    <property name="resource">../../006 - Videos format youtube/Trombone/Camille_trombone_totoro.mp4</property>
    <property name="audio_index">1</property>
    <property name="video_index">0</property>
    <property name="mute_on_pause">0</property>
    <property name="mlt_service">avformat-novalidate</property>
    <property name="seekable">1</property>
    <property name="aspect_ratio">1</property>
    <property name="creation_time">2020-04-09T17:56:38</property>
    <property name="shotcut:hash">6322ebba469dd48f4d62f48f0e58e722</property>
    <property name="ignore_points">0</property>
    <property name="shotcut:caption">Camille_trombone_totoro.mp4</property>
    <property name="shotcut:skipConvert">1</property>
    <property name="global_feed">1</property>
    <property name="xml">was here</property>
    <filter id="filter429" in="00:01:49.560000" out="00:01:52.920000">
      <property name="background">colour:0</property>
      <property name="mlt_service">affine</property>
      <property name="shotcut:filter">affineSizePosition</property>
      <property name="transition.fill">1</property>
      <property name="transition.distort">0</property>
      <property name="transition.rect">-1910.0 -1074.5 -9.0 -4.5 1</property>
      <property name="transition.valign">top</property>
      <property name="transition.halign">left</property>
      <property name="shotcut:animIn">00:00:00.000</property>
      <property name="shotcut:animOut">00:00:00.000</property>
      <property name="transition.threads">0</property>
    </filter>
    <filter id="filter430" in="00:01:49.560000" out="00:01:52.920000">
      <property name="window">75</property>
      <property name="max_gain">20dB</property>
      <property name="mlt_service">volume</property>
      <property name="shotcut:filter">muteVolume</property>
      <property name="gain">0</property>
    </filter>
  </producer>
  <producer id="producer243" in="00:00:00.000" out="00:03:16.680" title="Anonymous Submission">
    <property name="length">00:03:16:18</property>
    <property name="eof">pause</property>
    <property name="resource">../../006 - Videos format youtube/Trombone/Camille_trombone_totoro.mp4</property>
    <property name="audio_index">1</property>
    <property name="video_index">0</property>
    <property name="mute_on_pause">0</property>
    <property name="mlt_service">avformat-novalidate</property>
    <property name="seekable">1</property>
    <property name="aspect_ratio">1</property>
    <property name="creation_time">2020-04-09T17:56:38</property>
    <property name="shotcut:hash">6322ebba469dd48f4d62f48f0e58e722</property>
    <property name="ignore_points">0</property>
    <property name="shotcut:caption">Camille_trombone_totoro.mp4</property>
    <property name="shotcut:skipConvert">1</property>
    <property name="global_feed">1</property>
    <property name="xml">was here</property>
    <filter id="filter431" in="00:01:52.960000" out="00:01:56.360000">
      <property name="background">colour:0</property>
      <property name="mlt_service">affine</property>
      <property name="shotcut:filter">affineSizePosition</property>
      <property name="transition.fill">1</property>
      <property name="transition.distort">0</property>
      <property name="transition.rect">00:00:00.000000=961.0 542.0 4.0 2.0 1;00:00:00.360000=1081.0 540.0 167.0 94.0 1</property>
      <property name="transition.valign">top</property>
      <property name="transition.halign">left</property>
      <property name="shotcut:animIn">00:00:00.400000</property>
      <property name="shotcut:animOut">00:00:00.000</property>
      <property name="transition.threads">0</property>
    </filter>
    <filter id="filter432" in="00:01:52.960000" out="00:01:56.360000">
      <property name="window">75</property>
      <property name="max_gain">20dB</property>
      <property name="mlt_service">volume</property>
      <property name="shotcut:filter">muteVolume</property>
      <property name="gain">0</property>
    </filter>
  </producer>
  <producer id="producer244" in="00:00:00.000" out="00:03:16.680" title="Anonymous Submission">
    <property name="length">00:03:16:18</property>
    <property name="eof">pause</property>
    <property name="resource">../../006 - Videos format youtube/Trombone/Camille_trombone_totoro.mp4</property>
    <property name="audio_index">1</property>
    <property name="video_index">0</property>
    <property name="mute_on_pause">0</property>
    <property name="mlt_service">avformat-novalidate</property>
    <property name="seekable">1</property>
    <property name="aspect_ratio">1</property>
    <property name="creation_time">2020-04-09T17:56:38</property>
    <property name="shotcut:hash">6322ebba469dd48f4d62f48f0e58e722</property>
    <property name="ignore_points">0</property>
    <property name="shotcut:caption">Camille_trombone_totoro.mp4</property>
    <property name="shotcut:skipConvert">1</property>
    <property name="global_feed">1</property>
    <property name="xml">was here</property>
    <filter id="filter433" in="00:01:56.400000" out="00:01:59.760000">
      <property name="background">colour:0</property>
      <property name="mlt_service">affine</property>
      <property name="shotcut:filter">affineSizePosition</property>
      <property name="transition.fill">1</property>
      <property name="transition.distort">0</property>
      <property name="transition.rect">00:00:00.000000=1091.0 545.5 158.0 88.5 1;00:00:00.360000=650.0 653.5 119.0 67.5 1</property>
      <property name="transition.valign">top</property>
      <property name="transition.halign">left</property>
      <property name="shotcut:animIn">00:00:00.400000</property>
      <property name="shotcut:animOut">00:00:00.000</property>
      <property name="transition.threads">0</property>
    </filter>
    <filter id="filter434" in="00:01:56.400000" out="00:01:59.760000">
      <property name="window">75</property>
      <property name="max_gain">20dB</property>
      <property name="mlt_service">volume</property>
      <property name="shotcut:filter">muteVolume</property>
      <property name="gain">0</property>
    </filter>
  </producer>
  <producer id="producer245" in="00:00:00.000" out="00:03:16.680" title="Anonymous Submission">
    <property name="length">00:03:16:18</property>
    <property name="eof">pause</property>
    <property name="resource">../../006 - Videos format youtube/Trombone/Camille_trombone_totoro.mp4</property>
    <property name="audio_index">1</property>
    <property name="video_index">0</property>
    <property name="mute_on_pause">0</property>
    <property name="mlt_service">avformat-novalidate</property>
    <property name="seekable">1</property>
    <property name="aspect_ratio">1</property>
    <property name="creation_time">2020-04-09T17:56:38</property>
    <property name="shotcut:hash">6322ebba469dd48f4d62f48f0e58e722</property>
    <property name="ignore_points">0</property>
    <property name="shotcut:caption">Camille_trombone_totoro.mp4</property>
    <property name="shotcut:skipConvert">1</property>
    <property name="global_feed">1</property>
    <property name="xml">was here</property>
    <filter id="filter435" in="00:01:59.800000" out="00:02:03.200000">
      <property name="background">colour:0</property>
      <property name="mlt_service">affine</property>
      <property name="shotcut:filter">affineSizePosition</property>
      <property name="transition.fill">1</property>
      <property name="transition.distort">0</property>
      <property name="transition.rect">00:00:00.000000=660.0 658.5 110.0 61.5 1;00:00:00.360000=1290.0 868.5 119.0 67.5 1</property>
      <property name="transition.valign">top</property>
      <property name="transition.halign">left</property>
      <property name="shotcut:animIn">00:00:00.400000</property>
      <property name="shotcut:animOut">00:00:00.000</property>
      <property name="transition.threads">0</property>
    </filter>
    <filter id="filter436" in="00:01:59.800000" out="00:02:03.200000">
      <property name="window">75</property>
      <property name="max_gain">20dB</property>
      <property name="mlt_service">volume</property>
      <property name="shotcut:filter">muteVolume</property>
      <property name="gain">0</property>
    </filter>
  </producer>
  <producer id="producer246" in="00:00:00.000" out="00:03:16.680" title="Anonymous Submission">
    <property name="length">00:03:16:18</property>
    <property name="eof">pause</property>
    <property name="resource">../../006 - Videos format youtube/Trombone/Camille_trombone_totoro.mp4</property>
    <property name="audio_index">1</property>
    <property name="video_index">0</property>
    <property name="mute_on_pause">0</property>
    <property name="mlt_service">avformat-novalidate</property>
    <property name="seekable">1</property>
    <property name="aspect_ratio">1</property>
    <property name="creation_time">2020-04-09T17:56:38</property>
    <property name="shotcut:hash">6322ebba469dd48f4d62f48f0e58e722</property>
    <property name="ignore_points">0</property>
    <property name="shotcut:caption">Camille_trombone_totoro.mp4</property>
    <property name="shotcut:skipConvert">1</property>
    <property name="global_feed">1</property>
    <property name="xml">was here</property>
    <filter id="filter437" in="00:02:03.240000" out="00:02:06.600000">
      <property name="background">colour:0</property>
      <property name="mlt_service">affine</property>
      <property name="shotcut:filter">affineSizePosition</property>
      <property name="transition.fill">1</property>
      <property name="transition.distort">0</property>
      <property name="transition.rect">00:00:00.000000=1300.0 873.5 110.0 61.5 1;00:00:00.360000=1098.0 653.5 119.0 67.5 1</property>
      <property name="transition.valign">top</property>
      <property name="transition.halign">left</property>
      <property name="shotcut:animIn">00:00:00.400000</property>
      <property name="shotcut:animOut">00:00:00.000</property>
      <property name="transition.threads">0</property>
    </filter>
    <filter id="filter438" in="00:02:03.240000" out="00:02:06.600000">
      <property name="window">75</property>
      <property name="max_gain">20dB</property>
      <property name="mlt_service">volume</property>
      <property name="shotcut:filter">muteVolume</property>
      <property name="gain">0</property>
    </filter>
  </producer>
  <producer id="producer247" in="00:00:00.000" out="00:03:16.680" title="Anonymous Submission">
    <property name="length">00:03:16:18</property>
    <property name="eof">pause</property>
    <property name="resource">../../006 - Videos format youtube/Trombone/Camille_trombone_totoro.mp4</property>
    <property name="audio_index">1</property>
    <property name="video_index">0</property>
    <property name="mute_on_pause">0</property>
    <property name="mlt_service">avformat-novalidate</property>
    <property name="seekable">1</property>
    <property name="aspect_ratio">1</property>
    <property name="creation_time">2020-04-09T17:56:38</property>
    <property name="shotcut:hash">6322ebba469dd48f4d62f48f0e58e722</property>
    <property name="ignore_points">0</property>
    <property name="shotcut:caption">Camille_trombone_totoro.mp4</property>
    <property name="shotcut:skipConvert">1</property>
    <property name="global_feed">1</property>
    <property name="xml">was here</property>
    <filter id="filter439" in="00:02:06.640000" out="00:02:12.920000">
      <property name="background">colour:0</property>
      <property name="mlt_service">affine</property>
      <property name="shotcut:filter">affineSizePosition</property>
      <property name="transition.fill">1</property>
      <property name="transition.distort">0</property>
      <property name="transition.rect">00:00:00.000000=1108.0 658.5 110.0 61.5 1;00:00:00.360000=714.0 868.5 119.0 67.5 1</property>
      <property name="transition.valign">top</property>
      <property name="transition.halign">left</property>
      <property name="shotcut:animIn">00:00:00.400000</property>
      <property name="shotcut:animOut">00:00:00.000</property>
      <property name="transition.threads">0</property>
    </filter>
    <filter id="filter440" in="00:02:06.640000" out="00:02:12.920000">
      <property name="window">75</property>
      <property name="max_gain">20dB</property>
      <property name="mlt_service">volume</property>
      <property name="shotcut:filter">muteVolume</property>
      <property name="gain">0</property>
    </filter>
  </producer>
  <playlist id="playlist36">
    <property name="shotcut:video">1</property>
    <property name="shotcut:name">Camille_trombone</property>
    <property name="shotcut:lock">1</property>
    <blank length="00:01:55.000000" />
    <entry in="00:01:45.960000" out="00:01:49.520000" producer="producer241" />
    <entry in="00:01:49.560000" out="00:01:52.920000" producer="producer242" />
    <entry in="00:01:52.960000" out="00:01:56.360000" producer="producer243" />
    <entry in="00:01:56.400000" out="00:01:59.760000" producer="producer244" />
    <entry in="00:01:59.800000" out="00:02:03.200000" producer="producer245" />
    <entry in="00:02:03.240000" out="00:02:06.600000" producer="producer246" />
    <entry in="00:02:06.640000" out="00:02:12.920000" producer="producer247" />
    <filter id="filter441" out="00:05:41.880">
      <property name="window">75</property>
      <property name="max_gain">20dB</property>
      <property name="level">-10</property>
      <property name="mlt_service">volume</property>
    </filter>
  </playlist>
  <producer id="producer248" in="00:00:00.000" out="00:03:18.320" title="Anonymous Submission">
    <property name="length">00:03:18:09</property>
    <property name="eof">pause</property>
    <property name="resource">../../006 - Videos format youtube/Trombone/Cecile_trombone_totoro.mp4</property>
    <property name="audio_index">1</property>
    <property name="video_index">0</property>
    <property name="mute_on_pause">0</property>
    <property name="mlt_service">avformat-novalidate</property>
    <property name="seekable">1</property>
    <property name="aspect_ratio">1</property>
    <property name="creation_time">2020-04-19T16:42:14</property>
    <property name="shotcut:hash">c7c2345077b92c636ec8da26a84f18d5</property>
    <property name="ignore_points">0</property>
    <property name="shotcut:caption">Cecile_trombone_totoro.mp4</property>
    <property name="shotcut:skipConvert">1</property>
    <property name="global_feed">1</property>
    <property name="xml">was here</property>
    <filter id="filter442" in="00:01:54.480000" out="00:01:58.040000">
      <property name="background">colour:0</property>
      <property name="mlt_service">affine</property>
      <property name="shotcut:filter">affineSizePosition</property>
      <property name="transition.fill">1</property>
      <property name="transition.distort">0</property>
      <property name="transition.rect">-1910.0 -1074.5 -9.0 -4.5 1</property>
      <property name="transition.valign">top</property>
      <property name="transition.halign">left</property>
      <property name="shotcut:animIn">00:00:00.000</property>
      <property name="shotcut:animOut">00:00:00.000</property>
      <property name="transition.threads">0</property>
    </filter>
    <filter id="filter443" in="00:01:54.480000" out="00:01:58.040000">
      <property name="window">75</property>
      <property name="max_gain">20dB</property>
      <property name="mlt_service">volume</property>
      <property name="shotcut:filter">muteVolume</property>
      <property name="gain">0</property>
    </filter>
  </producer>
  <producer id="producer249" in="00:00:00.000" out="00:03:18.320" title="Anonymous Submission">
    <property name="length">00:03:18:09</property>
    <property name="eof">pause</property>
    <property name="resource">../../006 - Videos format youtube/Trombone/Cecile_trombone_totoro.mp4</property>
    <property name="audio_index">1</property>
    <property name="video_index">0</property>
    <property name="mute_on_pause">0</property>
    <property name="mlt_service">avformat-novalidate</property>
    <property name="seekable">1</property>
    <property name="aspect_ratio">1</property>
    <property name="creation_time">2020-04-19T16:42:14</property>
    <property name="shotcut:hash">c7c2345077b92c636ec8da26a84f18d5</property>
    <property name="ignore_points">0</property>
    <property name="shotcut:caption">Cecile_trombone_totoro.mp4</property>
    <property name="shotcut:skipConvert">1</property>
    <property name="global_feed">1</property>
    <property name="xml">was here</property>
    <filter id="filter444" in="00:01:58.080000" out="00:02:01.440000">
      <property name="background">colour:0</property>
      <property name="mlt_service">affine</property>
      <property name="shotcut:filter">affineSizePosition</property>
      <property name="transition.fill">1</property>
      <property name="transition.distort">0</property>
      <property name="transition.rect">-1910.0 -1074.5 -9.0 -4.5 1</property>
      <property name="transition.valign">top</property>
      <property name="transition.halign">left</property>
      <property name="shotcut:animIn">00:00:00.000</property>
      <property name="shotcut:animOut">00:00:00.000</property>
      <property name="transition.threads">0</property>
    </filter>
    <filter id="filter445" in="00:01:58.080000" out="00:02:01.440000">
      <property name="window">75</property>
      <property name="max_gain">20dB</property>
      <property name="mlt_service">volume</property>
      <property name="shotcut:filter">muteVolume</property>
      <property name="gain">0</property>
    </filter>
  </producer>
  <producer id="producer250" in="00:00:00.000" out="00:03:18.320" title="Anonymous Submission">
    <property name="length">00:03:18:09</property>
    <property name="eof">pause</property>
    <property name="resource">../../006 - Videos format youtube/Trombone/Cecile_trombone_totoro.mp4</property>
    <property name="audio_index">1</property>
    <property name="video_index">0</property>
    <property name="mute_on_pause">0</property>
    <property name="mlt_service">avformat-novalidate</property>
    <property name="seekable">1</property>
    <property name="aspect_ratio">1</property>
    <property name="creation_time">2020-04-19T16:42:14</property>
    <property name="shotcut:hash">c7c2345077b92c636ec8da26a84f18d5</property>
    <property name="ignore_points">0</property>
    <property name="shotcut:caption">Cecile_trombone_totoro.mp4</property>
    <property name="shotcut:skipConvert">1</property>
    <property name="global_feed">1</property>
    <property name="xml">was here</property>
    <filter id="filter446" in="00:02:01.480000" out="00:02:04.880000">
      <property name="background">colour:0</property>
      <property name="mlt_service">affine</property>
      <property name="shotcut:filter">affineSizePosition</property>
      <property name="transition.fill">1</property>
      <property name="transition.distort">0</property>
      <property name="transition.rect">00:00:00.000000=954.0 537.0 4.0 2.0 1;00:00:00.360000=665.0 259.0 167.0 94.0 1</property>
      <property name="transition.valign">top</property>
      <property name="transition.halign">left</property>
      <property name="shotcut:animIn">00:00:00.400000</property>
      <property name="shotcut:animOut">00:00:00.000</property>
      <property name="transition.threads">0</property>
    </filter>
    <filter id="filter447" in="00:02:01.480000" out="00:02:04.880000">
      <property name="window">75</property>
      <property name="max_gain">20dB</property>
      <property name="mlt_service">volume</property>
      <property name="shotcut:filter">muteVolume</property>
      <property name="gain">0</property>
    </filter>
  </producer>
  <producer id="producer251" in="00:00:00.000" out="00:03:18.320" title="Anonymous Submission">
    <property name="length">00:03:18:09</property>
    <property name="eof">pause</property>
    <property name="resource">../../006 - Videos format youtube/Trombone/Cecile_trombone_totoro.mp4</property>
    <property name="audio_index">1</property>
    <property name="video_index">0</property>
    <property name="mute_on_pause">0</property>
    <property name="mlt_service">avformat-novalidate</property>
    <property name="seekable">1</property>
    <property name="aspect_ratio">1</property>
    <property name="creation_time">2020-04-19T16:42:14</property>
    <property name="shotcut:hash">c7c2345077b92c636ec8da26a84f18d5</property>
    <property name="ignore_points">0</property>
    <property name="shotcut:caption">Cecile_trombone_totoro.mp4</property>
    <property name="shotcut:skipConvert">1</property>
    <property name="global_feed">1</property>
    <property name="xml">was here</property>
    <filter id="filter448" in="00:02:04.920000" out="00:02:08.280000">
      <property name="background">colour:0</property>
      <property name="mlt_service">affine</property>
      <property name="shotcut:filter">affineSizePosition</property>
      <property name="transition.fill">1</property>
      <property name="transition.distort">0</property>
      <property name="transition.rect">-1910.0 -1074.5 -9.0 -4.5 1</property>
      <property name="transition.valign">top</property>
      <property name="transition.halign">left</property>
      <property name="shotcut:animIn">00:00:00.400000</property>
      <property name="shotcut:animOut">00:00:00.000</property>
      <property name="transition.threads">0</property>
    </filter>
    <filter id="filter449" in="00:02:04.920000" out="00:02:08.280000">
      <property name="window">75</property>
      <property name="max_gain">20dB</property>
      <property name="mlt_service">volume</property>
      <property name="shotcut:filter">muteVolume</property>
      <property name="gain">0</property>
    </filter>
  </producer>
  <producer id="producer252" in="00:00:00.000" out="00:03:18.320" title="Anonymous Submission">
    <property name="length">00:03:18:09</property>
    <property name="eof">pause</property>
    <property name="resource">../../006 - Videos format youtube/Trombone/Cecile_trombone_totoro.mp4</property>
    <property name="audio_index">1</property>
    <property name="video_index">0</property>
    <property name="mute_on_pause">0</property>
    <property name="mlt_service">avformat-novalidate</property>
    <property name="seekable">1</property>
    <property name="aspect_ratio">1</property>
    <property name="creation_time">2020-04-19T16:42:14</property>
    <property name="shotcut:hash">c7c2345077b92c636ec8da26a84f18d5</property>
    <property name="ignore_points">0</property>
    <property name="shotcut:caption">Cecile_trombone_totoro.mp4</property>
    <property name="shotcut:skipConvert">1</property>
    <property name="global_feed">1</property>
    <property name="xml">was here</property>
    <filter id="filter450" in="00:02:08.320000" out="00:02:11.720000">
      <property name="background">colour:0</property>
      <property name="mlt_service">affine</property>
      <property name="shotcut:filter">affineSizePosition</property>
      <property name="transition.fill">1</property>
      <property name="transition.distort">0</property>
      <property name="transition.rect">00:00:00.000000=-1900.0 -1068.5 -18.0 -9.5 1;00:00:00.360000=394.0 941.5 119.0 67.5 1</property>
      <property name="transition.valign">top</property>
      <property name="transition.halign">left</property>
      <property name="shotcut:animIn">00:00:00.400000</property>
      <property name="shotcut:animOut">00:00:00.000</property>
      <property name="transition.threads">0</property>
    </filter>
    <filter id="filter451" in="00:02:08.320000" out="00:02:11.720000">
      <property name="window">75</property>
      <property name="max_gain">20dB</property>
      <property name="mlt_service">volume</property>
      <property name="shotcut:filter">muteVolume</property>
      <property name="gain">0</property>
    </filter>
  </producer>
  <producer id="producer253" in="00:00:00.000" out="00:03:18.320" title="Anonymous Submission">
    <property name="length">00:03:18:09</property>
    <property name="eof">pause</property>
    <property name="resource">../../006 - Videos format youtube/Trombone/Cecile_trombone_totoro.mp4</property>
    <property name="audio_index">1</property>
    <property name="video_index">0</property>
    <property name="mute_on_pause">0</property>
    <property name="mlt_service">avformat-novalidate</property>
    <property name="seekable">1</property>
    <property name="aspect_ratio">1</property>
    <property name="creation_time">2020-04-19T16:42:14</property>
    <property name="shotcut:hash">c7c2345077b92c636ec8da26a84f18d5</property>
    <property name="ignore_points">0</property>
    <property name="shotcut:caption">Cecile_trombone_totoro.mp4</property>
    <property name="shotcut:skipConvert">1</property>
    <property name="global_feed">1</property>
    <property name="xml">was here</property>
    <filter id="filter452" in="00:02:11.760000" out="00:02:15.120000">
      <property name="background">colour:0</property>
      <property name="mlt_service">affine</property>
      <property name="shotcut:filter">affineSizePosition</property>
      <property name="transition.fill">1</property>
      <property name="transition.distort">0</property>
      <property name="transition.rect">00:00:00.000000=404.0 946.5 110.0 61.5 1;00:00:00.360000=1098.0 868.5 119.0 67.5 1</property>
      <property name="transition.valign">top</property>
      <property name="transition.halign">left</property>
      <property name="shotcut:animIn">00:00:00.400000</property>
      <property name="shotcut:animOut">00:00:00.000</property>
      <property name="transition.threads">0</property>
    </filter>
    <filter id="filter453" in="00:02:11.760000" out="00:02:15.120000">
      <property name="window">75</property>
      <property name="max_gain">20dB</property>
      <property name="mlt_service">volume</property>
      <property name="shotcut:filter">muteVolume</property>
      <property name="gain">0</property>
    </filter>
  </producer>
  <producer id="producer254" in="00:00:00.000" out="00:03:18.320" title="Anonymous Submission">
    <property name="length">00:03:18:09</property>
    <property name="eof">pause</property>
    <property name="resource">../../006 - Videos format youtube/Trombone/Cecile_trombone_totoro.mp4</property>
    <property name="audio_index">1</property>
    <property name="video_index">0</property>
    <property name="mute_on_pause">0</property>
    <property name="mlt_service">avformat-novalidate</property>
    <property name="seekable">1</property>
    <property name="aspect_ratio">1</property>
    <property name="creation_time">2020-04-19T16:42:14</property>
    <property name="shotcut:hash">c7c2345077b92c636ec8da26a84f18d5</property>
    <property name="ignore_points">0</property>
    <property name="shotcut:caption">Cecile_trombone_totoro.mp4</property>
    <property name="shotcut:skipConvert">1</property>
    <property name="global_feed">1</property>
    <property name="xml">was here</property>
    <filter id="filter454" in="00:02:15.160000" out="00:02:21.440000">
      <property name="background">colour:0</property>
      <property name="mlt_service">affine</property>
      <property name="shotcut:filter">affineSizePosition</property>
      <property name="transition.fill">1</property>
      <property name="transition.distort">0</property>
      <property name="transition.rect">00:00:00.000000=1108.0 873.5 110.0 61.5 1;00:00:00.360000=1226.0 653.5 119.0 67.5 1</property>
      <property name="transition.valign">top</property>
      <property name="transition.halign">left</property>
      <property name="shotcut:animIn">00:00:00.400000</property>
      <property name="shotcut:animOut">00:00:00.000</property>
      <property name="transition.threads">0</property>
    </filter>
    <filter id="filter455" in="00:02:15.160000" out="00:02:21.440000">
      <property name="window">75</property>
      <property name="max_gain">20dB</property>
      <property name="mlt_service">volume</property>
      <property name="shotcut:filter">muteVolume</property>
      <property name="gain">0</property>
    </filter>
  </producer>
  <playlist id="playlist37">
    <property name="shotcut:video">1</property>
    <property name="shotcut:name">Cecile</property>
    <property name="shotcut:lock">1</property>
    <blank length="00:01:55.000000" />
    <entry in="00:01:54.480000" out="00:01:58.040000" producer="producer248" />
    <entry in="00:01:58.080000" out="00:02:01.440000" producer="producer249" />
    <entry in="00:02:01.480000" out="00:02:04.880000" producer="producer250" />
    <entry in="00:02:04.920000" out="00:02:08.280000" producer="producer251" />
    <entry in="00:02:08.320000" out="00:02:11.720000" producer="producer252" />
    <entry in="00:02:11.760000" out="00:02:15.120000" producer="producer253" />
    <entry in="00:02:15.160000" out="00:02:21.440000" producer="producer254" />
    <filter id="filter456" out="00:05:41.880">
      <property name="window">75</property>
      <property name="max_gain">20dB</property>
      <property name="level">-10</property>
      <property name="mlt_service">volume</property>
    </filter>
  </playlist>
  <producer id="producer255" in="00:00:00.000" out="00:03:25.760" title="Anonymous Submission">
    <property name="length">00:03:25.800</property>
    <property name="eof">pause</property>
    <property name="resource">../../006 - Videos format youtube/Trombone/daniel_trombonne_recadre.mp4</property>
    <property name="audio_index">1</property>
    <property name="video_index">0</property>
    <property name="mute_on_pause">0</property>
    <property name="mlt_service">avformat-novalidate</property>
    <property name="seekable">1</property>
    <property name="aspect_ratio">1</property>
    <property name="creation_time">2020-05-03T08:10:04</property>
    <property name="shotcut:hash">de43792e7531d555f05e5239ba522e38</property>
    <property name="ignore_points">0</property>
    <property name="shotcut:caption">daniel_trombonne_recadre.mp4</property>
    <property name="shotcut:skipConvert">1</property>
    <property name="global_feed">1</property>
    <property name="xml">was here</property>
    <filter id="filter457" in="00:01:55.000000" out="00:01:58.560000">
      <property name="background">colour:0</property>
      <property name="mlt_service">affine</property>
      <property name="shotcut:filter">affineSizePosition</property>
      <property name="transition.fill">1</property>
      <property name="transition.distort">0</property>
      <property name="transition.rect">-1910.0 -1074.5 -9.0 -4.5 1</property>
      <property name="transition.valign">top</property>
      <property name="transition.halign">left</property>
      <property name="shotcut:animIn">00:00:00.000</property>
      <property name="shotcut:animOut">00:00:00.000</property>
      <property name="transition.threads">0</property>
    </filter>
  </producer>
  <producer id="producer256" in="00:00:00.000" out="00:03:25.760" title="Anonymous Submission">
    <property name="length">00:03:25.800</property>
    <property name="eof">pause</property>
    <property name="resource">../../006 - Videos format youtube/Trombone/daniel_trombonne_recadre.mp4</property>
    <property name="audio_index">1</property>
    <property name="video_index">0</property>
    <property name="mute_on_pause">0</property>
    <property name="mlt_service">avformat-novalidate</property>
    <property name="seekable">1</property>
    <property name="aspect_ratio">1</property>
    <property name="creation_time">2020-05-03T08:10:04</property>
    <property name="shotcut:hash">de43792e7531d555f05e5239ba522e38</property>
    <property name="ignore_points">0</property>
    <property name="shotcut:caption">daniel_trombonne_recadre.mp4</property>
    <property name="shotcut:skipConvert">1</property>
    <property name="global_feed">1</property>
    <property name="xml">was here</property>
    <filter id="filter458" in="00:01:58.600000" out="00:02:01.960000">
      <property name="background">colour:0</property>
      <property name="mlt_service">affine</property>
      <property name="shotcut:filter">affineSizePosition</property>
      <property name="transition.fill">1</property>
      <property name="transition.distort">0</property>
      <property name="transition.rect">-1910.0 -1074.5 -9.0 -4.5 1</property>
      <property name="transition.valign">top</property>
      <property name="transition.halign">left</property>
      <property name="shotcut:animIn">00:00:00.000</property>
      <property name="shotcut:animOut">00:00:00.000</property>
      <property name="transition.threads">0</property>
    </filter>
  </producer>
  <producer id="producer257" in="00:00:00.000" out="00:03:25.760" title="Anonymous Submission">
    <property name="length">00:03:25.800</property>
    <property name="eof">pause</property>
    <property name="resource">../../006 - Videos format youtube/Trombone/daniel_trombonne_recadre.mp4</property>
    <property name="audio_index">1</property>
    <property name="video_index">0</property>
    <property name="mute_on_pause">0</property>
    <property name="mlt_service">avformat-novalidate</property>
    <property name="seekable">1</property>
    <property name="aspect_ratio">1</property>
    <property name="creation_time">2020-05-03T08:10:04</property>
    <property name="shotcut:hash">de43792e7531d555f05e5239ba522e38</property>
    <property name="ignore_points">0</property>
    <property name="shotcut:caption">daniel_trombonne_recadre.mp4</property>
    <property name="shotcut:skipConvert">1</property>
    <property name="global_feed">1</property>
    <property name="xml">was here</property>
    <filter id="filter459" in="00:02:02.000000" out="00:02:05.400000">
      <property name="background">colour:0</property>
      <property name="mlt_service">affine</property>
      <property name="shotcut:filter">affineSizePosition</property>
      <property name="transition.fill">1</property>
      <property name="transition.distort">0</property>
      <property name="transition.rect">00:00:00.000000=964.0 537.0 4.0 2.0 1;00:00:00.360000=1331.0 259.0 167.0 94.0 1</property>
      <property name="transition.valign">top</property>
      <property name="transition.halign">left</property>
      <property name="shotcut:animIn">00:00:00.400000</property>
      <property name="shotcut:animOut">00:00:00.000</property>
      <property name="transition.threads">0</property>
    </filter>
  </producer>
  <producer id="producer258" in="00:00:00.000" out="00:03:25.760" title="Anonymous Submission">
    <property name="length">00:03:25.800</property>
    <property name="eof">pause</property>
    <property name="resource">../../006 - Videos format youtube/Trombone/daniel_trombonne_recadre.mp4</property>
    <property name="audio_index">1</property>
    <property name="video_index">0</property>
    <property name="mute_on_pause">0</property>
    <property name="mlt_service">avformat-novalidate</property>
    <property name="seekable">1</property>
    <property name="aspect_ratio">1</property>
    <property name="creation_time">2020-05-03T08:10:04</property>
    <property name="shotcut:hash">de43792e7531d555f05e5239ba522e38</property>
    <property name="ignore_points">0</property>
    <property name="shotcut:caption">daniel_trombonne_recadre.mp4</property>
    <property name="shotcut:skipConvert">1</property>
    <property name="global_feed">1</property>
    <property name="xml">was here</property>
    <filter id="filter460" in="00:02:05.440000" out="00:02:08.800000">
      <property name="background">colour:0</property>
      <property name="mlt_service">affine</property>
      <property name="shotcut:filter">affineSizePosition</property>
      <property name="transition.fill">1</property>
      <property name="transition.distort">0</property>
      <property name="transition.rect">00:00:00.000000=1341.0 264.5 158.0 88.5 1;00:00:00.360000=650.0 221.5 119.0 67.5 1</property>
      <property name="transition.valign">top</property>
      <property name="transition.halign">left</property>
      <property name="shotcut:animIn">00:00:00.400000</property>
      <property name="shotcut:animOut">00:00:00.000</property>
      <property name="transition.threads">0</property>
    </filter>
  </producer>
  <producer id="producer259" in="00:00:00.000" out="00:03:25.760" title="Anonymous Submission">
    <property name="length">00:03:25.800</property>
    <property name="eof">pause</property>
    <property name="resource">../../006 - Videos format youtube/Trombone/daniel_trombonne_recadre.mp4</property>
    <property name="audio_index">1</property>
    <property name="video_index">0</property>
    <property name="mute_on_pause">0</property>
    <property name="mlt_service">avformat-novalidate</property>
    <property name="seekable">1</property>
    <property name="aspect_ratio">1</property>
    <property name="creation_time">2020-05-03T08:10:04</property>
    <property name="shotcut:hash">de43792e7531d555f05e5239ba522e38</property>
    <property name="ignore_points">0</property>
    <property name="shotcut:caption">daniel_trombonne_recadre.mp4</property>
    <property name="shotcut:skipConvert">1</property>
    <property name="global_feed">1</property>
    <property name="xml">was here</property>
    <filter id="filter461" in="00:02:08.840000" out="00:02:12.240000">
      <property name="background">colour:0</property>
      <property name="mlt_service">affine</property>
      <property name="shotcut:filter">affineSizePosition</property>
      <property name="transition.fill">1</property>
      <property name="transition.distort">0</property>
      <property name="transition.rect">00:00:00.000000=660.0 226.5 110.0 61.5 1;00:00:00.360000=522.0 941.5 119.0 67.5 1</property>
      <property name="transition.valign">top</property>
      <property name="transition.halign">left</property>
      <property name="shotcut:animIn">00:00:00.400000</property>
      <property name="shotcut:animOut">00:00:00.000</property>
      <property name="transition.threads">0</property>
    </filter>
  </producer>
  <producer id="producer260" in="00:00:00.000" out="00:03:25.760" title="Anonymous Submission">
    <property name="length">00:03:25.800</property>
    <property name="eof">pause</property>
    <property name="resource">../../006 - Videos format youtube/Trombone/daniel_trombonne_recadre.mp4</property>
    <property name="audio_index">1</property>
    <property name="video_index">0</property>
    <property name="mute_on_pause">0</property>
    <property name="mlt_service">avformat-novalidate</property>
    <property name="seekable">1</property>
    <property name="aspect_ratio">1</property>
    <property name="creation_time">2020-05-03T08:10:04</property>
    <property name="shotcut:hash">de43792e7531d555f05e5239ba522e38</property>
    <property name="ignore_points">0</property>
    <property name="shotcut:caption">daniel_trombonne_recadre.mp4</property>
    <property name="shotcut:skipConvert">1</property>
    <property name="global_feed">1</property>
    <property name="xml">was here</property>
    <filter id="filter462" in="00:02:12.280000" out="00:02:15.640000">
      <property name="background">colour:0</property>
      <property name="mlt_service">affine</property>
      <property name="shotcut:filter">affineSizePosition</property>
      <property name="transition.fill">1</property>
      <property name="transition.distort">0</property>
      <property name="transition.rect">00:00:00.000000=532.0 946.5 110.0 61.5 1;00:00:00.360000=714.0 581.5 119.0 67.5 1</property>
      <property name="transition.valign">top</property>
      <property name="transition.halign">left</property>
      <property name="shotcut:animIn">00:00:00.400000</property>
      <property name="shotcut:animOut">00:00:00.000</property>
      <property name="transition.threads">0</property>
    </filter>
  </producer>
  <producer id="producer261" in="00:00:00.000" out="00:03:25.760" title="Anonymous Submission">
    <property name="length">00:03:25.800</property>
    <property name="eof">pause</property>
    <property name="resource">../../006 - Videos format youtube/Trombone/daniel_trombonne_recadre.mp4</property>
    <property name="audio_index">1</property>
    <property name="video_index">0</property>
    <property name="mute_on_pause">0</property>
    <property name="mlt_service">avformat-novalidate</property>
    <property name="seekable">1</property>
    <property name="aspect_ratio">1</property>
    <property name="creation_time">2020-05-03T08:10:04</property>
    <property name="shotcut:hash">de43792e7531d555f05e5239ba522e38</property>
    <property name="ignore_points">0</property>
    <property name="shotcut:caption">daniel_trombonne_recadre.mp4</property>
    <property name="shotcut:skipConvert">1</property>
    <property name="global_feed">1</property>
    <property name="xml">was here</property>
    <filter id="filter463" in="00:02:15.680000" out="00:02:21.960000">
      <property name="background">colour:0</property>
      <property name="mlt_service">affine</property>
      <property name="shotcut:filter">affineSizePosition</property>
      <property name="transition.fill">1</property>
      <property name="transition.distort">0</property>
      <property name="transition.rect">00:00:00.000000=724.0 586.5 110.0 61.5 1;00:00:00.360000=586.0 868.5 119.0 67.5 1</property>
      <property name="transition.valign">top</property>
      <property name="transition.halign">left</property>
      <property name="shotcut:animIn">00:00:00.400000</property>
      <property name="shotcut:animOut">00:00:00.000</property>
      <property name="transition.threads">0</property>
    </filter>
  </producer>
  <playlist id="playlist38">
    <blank length="00:01:55.000000" /><property name="shotcut:video">1</property>
    <property name="shotcut:name">V5</property>
    <entry in="00:01:55.000000" out="00:01:58.560000" producer="producer255" />
  <entry in="00:01:58.600000" out="00:02:01.960000" producer="producer256" />
  <entry in="00:02:02.000000" out="00:02:05.400000" producer="producer257" />
  <entry in="00:02:05.440000" out="00:02:08.800000" producer="producer258" />
  <entry in="00:02:08.840000" out="00:02:12.240000" producer="producer259" />
  <entry in="00:02:12.280000" out="00:02:15.640000" producer="producer260" />
  <entry in="00:02:15.680000" out="00:02:21.960000" producer="producer261" />
  </playlist>
  <producer id="producer262" in="00:00:00.000" out="00:03:41.040" title="Anonymous Submission">
    <property name="length">00:03:41:02</property>
    <property name="eof">pause</property>
    <property name="resource">../../006 - Videos format youtube/Trompettes et cornets/Bidou_cornet_totoro.mp4</property>
    <property name="audio_index">1</property>
    <property name="video_index">0</property>
    <property name="mute_on_pause">0</property>
    <property name="mlt_service">avformat-novalidate</property>
    <property name="seekable">1</property>
    <property name="aspect_ratio">1</property>
    <property name="creation_time">2020-04-05T19:25:31</property>
    <property name="shotcut:hash">df47beb18305e9051d91b2aae87978a4</property>
    <property name="ignore_points">0</property>
    <property name="shotcut:caption">Bidou_cornet_totoro.mp4</property>
    <property name="shotcut:skipConvert">1</property>
    <property name="global_feed">1</property>
    <property name="xml">was here</property>
    <filter id="filter464" in="00:02:15.120000" out="00:02:18.680000">
      <property name="background">colour:0</property>
      <property name="mlt_service">affine</property>
      <property name="shotcut:filter">affineSizePosition</property>
      <property name="transition.fill">1</property>
      <property name="transition.distort">0</property>
      <property name="transition.rect">-1910.0 -1074.5 -9.0 -4.5 1</property>
      <property name="transition.valign">top</property>
      <property name="transition.halign">left</property>
      <property name="shotcut:animIn">00:00:00.000</property>
      <property name="shotcut:animOut">00:00:00.000</property>
      <property name="transition.threads">0</property>
    </filter>
    <filter id="filter465" in="00:02:15.120000" out="00:02:18.680000">
      <property name="window">75</property>
      <property name="max_gain">20dB</property>
      <property name="mlt_service">volume</property>
      <property name="shotcut:filter">muteVolume</property>
      <property name="gain">0</property>
    </filter>
  </producer>
  <producer id="producer263" in="00:00:00.000" out="00:03:41.040" title="Anonymous Submission">
    <property name="length">00:03:41:02</property>
    <property name="eof">pause</property>
    <property name="resource">../../006 - Videos format youtube/Trompettes et cornets/Bidou_cornet_totoro.mp4</property>
    <property name="audio_index">1</property>
    <property name="video_index">0</property>
    <property name="mute_on_pause">0</property>
    <property name="mlt_service">avformat-novalidate</property>
    <property name="seekable">1</property>
    <property name="aspect_ratio">1</property>
    <property name="creation_time">2020-04-05T19:25:31</property>
    <property name="shotcut:hash">df47beb18305e9051d91b2aae87978a4</property>
    <property name="ignore_points">0</property>
    <property name="shotcut:caption">Bidou_cornet_totoro.mp4</property>
    <property name="shotcut:skipConvert">1</property>
    <property name="global_feed">1</property>
    <property name="xml">was here</property>
    <filter id="filter466" in="00:02:18.720000" out="00:02:22.080000">
      <property name="background">colour:0</property>
      <property name="mlt_service">affine</property>
      <property name="shotcut:filter">affineSizePosition</property>
      <property name="transition.fill">1</property>
      <property name="transition.distort">0</property>
      <property name="transition.rect">-1910.0 -1074.5 -9.0 -4.5 1</property>
      <property name="transition.valign">top</property>
      <property name="transition.halign">left</property>
      <property name="shotcut:animIn">00:00:00.000</property>
      <property name="shotcut:animOut">00:00:00.000</property>
      <property name="transition.threads">0</property>
    </filter>
    <filter id="filter467" in="00:02:18.720000" out="00:02:22.080000">
      <property name="window">75</property>
      <property name="max_gain">20dB</property>
      <property name="mlt_service">volume</property>
      <property name="shotcut:filter">muteVolume</property>
      <property name="gain">0</property>
    </filter>
  </producer>
  <producer id="producer264" in="00:00:00.000" out="00:03:41.040" title="Anonymous Submission">
    <property name="length">00:03:41:02</property>
    <property name="eof">pause</property>
    <property name="resource">../../006 - Videos format youtube/Trompettes et cornets/Bidou_cornet_totoro.mp4</property>
    <property name="audio_index">1</property>
    <property name="video_index">0</property>
    <property name="mute_on_pause">0</property>
    <property name="mlt_service">avformat-novalidate</property>
    <property name="seekable">1</property>
    <property name="aspect_ratio">1</property>
    <property name="creation_time">2020-04-05T19:25:31</property>
    <property name="shotcut:hash">df47beb18305e9051d91b2aae87978a4</property>
    <property name="ignore_points">0</property>
    <property name="shotcut:caption">Bidou_cornet_totoro.mp4</property>
    <property name="shotcut:skipConvert">1</property>
    <property name="global_feed">1</property>
    <property name="xml">was here</property>
    <filter id="filter468" in="00:02:22.120000" out="00:02:25.520000">
      <property name="background">colour:0</property>
      <property name="mlt_service">affine</property>
      <property name="shotcut:filter">affineSizePosition</property>
      <property name="transition.fill">1</property>
      <property name="transition.distort">0</property>
      <property name="transition.rect">00:00:00.000000=954.0 534.0 4.0 2.0 1;00:00:00.360000=665.0 72.0 167.0 94.0 1</property>
      <property name="transition.valign">top</property>
      <property name="transition.halign">left</property>
      <property name="shotcut:animIn">00:00:00.400000</property>
      <property name="shotcut:animOut">00:00:00.000</property>
      <property name="transition.threads">0</property>
    </filter>
    <filter id="filter469" in="00:02:22.120000" out="00:02:25.520000">
      <property name="window">75</property>
      <property name="max_gain">20dB</property>
      <property name="mlt_service">volume</property>
      <property name="shotcut:filter">muteVolume</property>
      <property name="gain">0</property>
    </filter>
  </producer>
  <producer id="producer265" in="00:00:00.000" out="00:03:41.040" title="Anonymous Submission">
    <property name="length">00:03:41:02</property>
    <property name="eof">pause</property>
    <property name="resource">../../006 - Videos format youtube/Trompettes et cornets/Bidou_cornet_totoro.mp4</property>
    <property name="audio_index">1</property>
    <property name="video_index">0</property>
    <property name="mute_on_pause">0</property>
    <property name="mlt_service">avformat-novalidate</property>
    <property name="seekable">1</property>
    <property name="aspect_ratio">1</property>
    <property name="creation_time">2020-04-05T19:25:31</property>
    <property name="shotcut:hash">df47beb18305e9051d91b2aae87978a4</property>
    <property name="ignore_points">0</property>
    <property name="shotcut:caption">Bidou_cornet_totoro.mp4</property>
    <property name="shotcut:skipConvert">1</property>
    <property name="global_feed">1</property>
    <property name="xml">was here</property>
    <filter id="filter470" in="00:02:25.560000" out="00:02:28.920000">
      <property name="background">colour:0</property>
      <property name="mlt_service">affine</property>
      <property name="shotcut:filter">affineSizePosition</property>
      <property name="transition.fill">1</property>
      <property name="transition.distort">0</property>
      <property name="transition.rect">00:00:00.000000=675.0 77.5 158.0 88.5 1;00:00:00.360000=777.0 796.5 119.0 67.5 1</property>
      <property name="transition.valign">top</property>
      <property name="transition.halign">left</property>
      <property name="shotcut:animIn">00:00:00.400000</property>
      <property name="shotcut:animOut">00:00:00.000</property>
      <property name="transition.threads">0</property>
    </filter>
    <filter id="filter471" in="00:02:25.560000" out="00:02:28.920000">
      <property name="window">75</property>
      <property name="max_gain">20dB</property>
      <property name="mlt_service">volume</property>
      <property name="shotcut:filter">muteVolume</property>
      <property name="gain">0</property>
    </filter>
  </producer>
  <producer id="producer266" in="00:00:00.000" out="00:03:41.040" title="Anonymous Submission">
    <property name="length">00:03:41:02</property>
    <property name="eof">pause</property>
    <property name="resource">../../006 - Videos format youtube/Trompettes et cornets/Bidou_cornet_totoro.mp4</property>
    <property name="audio_index">1</property>
    <property name="video_index">0</property>
    <property name="mute_on_pause">0</property>
    <property name="mlt_service">avformat-novalidate</property>
    <property name="seekable">1</property>
    <property name="aspect_ratio">1</property>
    <property name="creation_time">2020-04-05T19:25:31</property>
    <property name="shotcut:hash">df47beb18305e9051d91b2aae87978a4</property>
    <property name="ignore_points">0</property>
    <property name="shotcut:caption">Bidou_cornet_totoro.mp4</property>
    <property name="shotcut:skipConvert">1</property>
    <property name="global_feed">1</property>
    <property name="xml">was here</property>
    <filter id="filter472" in="00:02:28.960000" out="00:02:32.360000">
      <property name="background">colour:0</property>
      <property name="mlt_service">affine</property>
      <property name="shotcut:filter">affineSizePosition</property>
      <property name="transition.fill">1</property>
      <property name="transition.distort">0</property>
      <property name="transition.rect">00:00:00.000000=787.0 801.5 110.0 61.5 1;00:00:00.360000=650.0 941.5 119.0 67.5 1</property>
      <property name="transition.valign">top</property>
      <property name="transition.halign">left</property>
      <property name="shotcut:animIn">00:00:00.400000</property>
      <property name="shotcut:animOut">00:00:00.000</property>
      <property name="transition.threads">0</property>
    </filter>
    <filter id="filter473" in="00:02:28.960000" out="00:02:32.360000">
      <property name="window">75</property>
      <property name="max_gain">20dB</property>
      <property name="mlt_service">volume</property>
      <property name="shotcut:filter">muteVolume</property>
      <property name="gain">0</property>
    </filter>
  </producer>
  <producer id="producer267" in="00:00:00.000" out="00:03:41.040" title="Anonymous Submission">
    <property name="length">00:03:41:02</property>
    <property name="eof">pause</property>
    <property name="resource">../../006 - Videos format youtube/Trompettes et cornets/Bidou_cornet_totoro.mp4</property>
    <property name="audio_index">1</property>
    <property name="video_index">0</property>
    <property name="mute_on_pause">0</property>
    <property name="mlt_service">avformat-novalidate</property>
    <property name="seekable">1</property>
    <property name="aspect_ratio">1</property>
    <property name="creation_time">2020-04-05T19:25:31</property>
    <property name="shotcut:hash">df47beb18305e9051d91b2aae87978a4</property>
    <property name="ignore_points">0</property>
    <property name="shotcut:caption">Bidou_cornet_totoro.mp4</property>
    <property name="shotcut:skipConvert">1</property>
    <property name="global_feed">1</property>
    <property name="xml">was here</property>
    <filter id="filter474" in="00:02:32.400000" out="00:02:35.760000">
      <property name="background">colour:0</property>
      <property name="mlt_service">affine</property>
      <property name="shotcut:filter">affineSizePosition</property>
      <property name="transition.fill">1</property>
      <property name="transition.distort">0</property>
      <property name="transition.rect">00:00:00.000000=660.0 946.5 110.0 61.5 1;00:00:00.360000=1226.0 581.5 119.0 67.5 1</property>
      <property name="transition.valign">top</property>
      <property name="transition.halign">left</property>
      <property name="shotcut:animIn">00:00:00.400000</property>
      <property name="shotcut:animOut">00:00:00.000</property>
      <property name="transition.threads">0</property>
    </filter>
    <filter id="filter475" in="00:02:32.400000" out="00:02:35.760000">
      <property name="window">75</property>
      <property name="max_gain">20dB</property>
      <property name="mlt_service">volume</property>
      <property name="shotcut:filter">muteVolume</property>
      <property name="gain">0</property>
    </filter>
  </producer>
  <producer id="producer268" in="00:00:00.000" out="00:03:41.040" title="Anonymous Submission">
    <property name="length">00:03:41:02</property>
    <property name="eof">pause</property>
    <property name="resource">../../006 - Videos format youtube/Trompettes et cornets/Bidou_cornet_totoro.mp4</property>
    <property name="audio_index">1</property>
    <property name="video_index">0</property>
    <property name="mute_on_pause">0</property>
    <property name="mlt_service">avformat-novalidate</property>
    <property name="seekable">1</property>
    <property name="aspect_ratio">1</property>
    <property name="creation_time">2020-04-05T19:25:31</property>
    <property name="shotcut:hash">df47beb18305e9051d91b2aae87978a4</property>
    <property name="ignore_points">0</property>
    <property name="shotcut:caption">Bidou_cornet_totoro.mp4</property>
    <property name="shotcut:skipConvert">1</property>
    <property name="global_feed">1</property>
    <property name="xml">was here</property>
    <filter id="filter476" in="00:02:35.800000" out="00:02:42.080000">
      <property name="background">colour:0</property>
      <property name="mlt_service">affine</property>
      <property name="shotcut:filter">affineSizePosition</property>
      <property name="transition.fill">1</property>
      <property name="transition.distort">0</property>
      <property name="transition.rect">00:00:00.000000=1236.0 586.5 110.0 61.5 1;00:00:00.360000=842.0 77.5 119.0 67.5 1</property>
      <property name="transition.valign">top</property>
      <property name="transition.halign">left</property>
      <property name="shotcut:animIn">00:00:00.400000</property>
      <property name="shotcut:animOut">00:00:00.000</property>
      <property name="transition.threads">0</property>
    </filter>
    <filter id="filter477" in="00:02:35.800000" out="00:02:42.080000">
      <property name="window">75</property>
      <property name="max_gain">20dB</property>
      <property name="mlt_service">volume</property>
      <property name="shotcut:filter">muteVolume</property>
      <property name="gain">0</property>
    </filter>
  </producer>
  <playlist id="playlist39">
    <property name="shotcut:video">1</property>
    <property name="shotcut:name">Bidou_cornet</property>
    <property name="shotcut:lock">1</property>
    <blank length="00:01:55.000000" />
    <entry in="00:02:15.120000" out="00:02:18.680000" producer="producer262" />
    <entry in="00:02:18.720000" out="00:02:22.080000" producer="producer263" />
    <entry in="00:02:22.120000" out="00:02:25.520000" producer="producer264" />
    <entry in="00:02:25.560000" out="00:02:28.920000" producer="producer265" />
    <entry in="00:02:28.960000" out="00:02:32.360000" producer="producer266" />
    <entry in="00:02:32.400000" out="00:02:35.760000" producer="producer267" />
    <entry in="00:02:35.800000" out="00:02:42.080000" producer="producer268" />
    <filter id="filter478" out="00:03:24.360">
      <property name="window">75</property>
      <property name="max_gain">20dB</property>
      <property name="level">-11</property>
      <property name="mlt_service">volume</property>
    </filter>
  </playlist>
  <producer id="producer269" in="00:00:00.000" out="00:03:02.520" title="Anonymous Submission">
    <property name="length">00:03:02:14</property>
    <property name="eof">pause</property>
    <property name="resource">../../006 - Videos format youtube/Trompettes et cornets/Serge_trompette_totoro.mp4</property>
    <property name="audio_index">1</property>
    <property name="video_index">0</property>
    <property name="mute_on_pause">0</property>
    <property name="mlt_service">avformat-novalidate</property>
    <property name="seekable">1</property>
    <property name="aspect_ratio">1</property>
    <property name="creation_time">2020-04-12T19:40:43</property>
    <property name="shotcut:hash">8ef8fab703d506ba08497a54257ebc1e</property>
    <property name="ignore_points">0</property>
    <property name="shotcut:caption">Serge_trompette_totoro.mp4</property>
    <property name="shotcut:skipConvert">1</property>
    <property name="global_feed">1</property>
    <property name="xml">was here</property>
    <filter id="filter479" in="00:01:40.320000" out="00:01:43.880000">
      <property name="background">colour:0</property>
      <property name="mlt_service">affine</property>
      <property name="shotcut:filter">affineSizePosition</property>
      <property name="transition.fill">1</property>
      <property name="transition.distort">0</property>
      <property name="transition.rect">-1910.0 -1074.5 -9.0 -4.5 1</property>
      <property name="transition.valign">top</property>
      <property name="transition.halign">left</property>
      <property name="shotcut:animIn">00:00:00.000</property>
      <property name="shotcut:animOut">00:00:00.000</property>
      <property name="transition.threads">0</property>
    </filter>
    <filter id="filter480" in="00:01:40.320000" out="00:01:43.880000">
      <property name="window">75</property>
      <property name="max_gain">20dB</property>
      <property name="level">-8</property>
      <property name="mlt_service">volume</property>
    </filter>
    <filter id="filter481" in="00:01:40.320000" out="00:01:43.880000">
      <property name="window">75</property>
      <property name="max_gain">20dB</property>
      <property name="mlt_service">volume</property>
      <property name="shotcut:filter">muteVolume</property>
      <property name="gain">0</property>
    </filter>
  </producer>
  <producer id="producer270" in="00:00:00.000" out="00:03:02.520" title="Anonymous Submission">
    <property name="length">00:03:02:14</property>
    <property name="eof">pause</property>
    <property name="resource">../../006 - Videos format youtube/Trompettes et cornets/Serge_trompette_totoro.mp4</property>
    <property name="audio_index">1</property>
    <property name="video_index">0</property>
    <property name="mute_on_pause">0</property>
    <property name="mlt_service">avformat-novalidate</property>
    <property name="seekable">1</property>
    <property name="aspect_ratio">1</property>
    <property name="creation_time">2020-04-12T19:40:43</property>
    <property name="shotcut:hash">8ef8fab703d506ba08497a54257ebc1e</property>
    <property name="ignore_points">0</property>
    <property name="shotcut:caption">Serge_trompette_totoro.mp4</property>
    <property name="shotcut:skipConvert">1</property>
    <property name="global_feed">1</property>
    <property name="xml">was here</property>
    <filter id="filter482" in="00:01:43.920000" out="00:01:47.280000">
      <property name="background">colour:0</property>
      <property name="mlt_service">affine</property>
      <property name="shotcut:filter">affineSizePosition</property>
      <property name="transition.fill">1</property>
      <property name="transition.distort">0</property>
      <property name="transition.rect">-1910.0 -1074.5 -9.0 -4.5 1</property>
      <property name="transition.valign">top</property>
      <property name="transition.halign">left</property>
      <property name="shotcut:animIn">00:00:00.000</property>
      <property name="shotcut:animOut">00:00:00.000</property>
      <property name="transition.threads">0</property>
    </filter>
    <filter id="filter483" in="00:01:43.920000" out="00:01:47.280000">
      <property name="window">75</property>
      <property name="max_gain">20dB</property>
      <property name="level">-8</property>
      <property name="mlt_service">volume</property>
    </filter>
    <filter id="filter484" in="00:01:43.920000" out="00:01:47.280000">
      <property name="window">75</property>
      <property name="max_gain">20dB</property>
      <property name="mlt_service">volume</property>
      <property name="shotcut:filter">muteVolume</property>
      <property name="gain">0</property>
    </filter>
  </producer>
  <producer id="producer271" in="00:00:00.000" out="00:03:02.520" title="Anonymous Submission">
    <property name="length">00:03:02:14</property>
    <property name="eof">pause</property>
    <property name="resource">../../006 - Videos format youtube/Trompettes et cornets/Serge_trompette_totoro.mp4</property>
    <property name="audio_index">1</property>
    <property name="video_index">0</property>
    <property name="mute_on_pause">0</property>
    <property name="mlt_service">avformat-novalidate</property>
    <property name="seekable">1</property>
    <property name="aspect_ratio">1</property>
    <property name="creation_time">2020-04-12T19:40:43</property>
    <property name="shotcut:hash">8ef8fab703d506ba08497a54257ebc1e</property>
    <property name="ignore_points">0</property>
    <property name="shotcut:caption">Serge_trompette_totoro.mp4</property>
    <property name="shotcut:skipConvert">1</property>
    <property name="global_feed">1</property>
    <property name="xml">was here</property>
    <filter id="filter485" in="00:01:47.320000" out="00:01:50.720000">
      <property name="background">colour:0</property>
      <property name="mlt_service">affine</property>
      <property name="shotcut:filter">affineSizePosition</property>
      <property name="transition.fill">1</property>
      <property name="transition.distort">0</property>
      <property name="transition.rect">00:00:00.000000=960.0 540.0 4.0 2.0 1;00:00:00.360000=998.0 446.0 167.0 94.0 1</property>
      <property name="transition.valign">top</property>
      <property name="transition.halign">left</property>
      <property name="shotcut:animIn">00:00:00.400000</property>
      <property name="shotcut:animOut">00:00:00.000</property>
      <property name="transition.threads">0</property>
    </filter>
    <filter id="filter486" in="00:01:47.320000" out="00:01:50.720000">
      <property name="window">75</property>
      <property name="max_gain">20dB</property>
      <property name="level">-8</property>
      <property name="mlt_service">volume</property>
    </filter>
    <filter id="filter487" in="00:01:47.320000" out="00:01:50.720000">
      <property name="window">75</property>
      <property name="max_gain">20dB</property>
      <property name="mlt_service">volume</property>
      <property name="shotcut:filter">muteVolume</property>
      <property name="gain">0</property>
    </filter>
  </producer>
  <producer id="producer272" in="00:00:00.000" out="00:03:02.520" title="Anonymous Submission">
    <property name="length">00:03:02:14</property>
    <property name="eof">pause</property>
    <property name="resource">../../006 - Videos format youtube/Trompettes et cornets/Serge_trompette_totoro.mp4</property>
    <property name="audio_index">1</property>
    <property name="video_index">0</property>
    <property name="mute_on_pause">0</property>
    <property name="mlt_service">avformat-novalidate</property>
    <property name="seekable">1</property>
    <property name="aspect_ratio">1</property>
    <property name="creation_time">2020-04-12T19:40:43</property>
    <property name="shotcut:hash">8ef8fab703d506ba08497a54257ebc1e</property>
    <property name="ignore_points">0</property>
    <property name="shotcut:caption">Serge_trompette_totoro.mp4</property>
    <property name="shotcut:skipConvert">1</property>
    <property name="global_feed">1</property>
    <property name="xml">was here</property>
    <filter id="filter488" in="00:01:50.760000" out="00:01:54.120000">
      <property name="background">colour:0</property>
      <property name="mlt_service">affine</property>
      <property name="shotcut:filter">affineSizePosition</property>
      <property name="transition.fill">1</property>
      <property name="transition.distort">0</property>
      <property name="transition.rect">00:00:00.000000=1008.0 451.5 158.0 88.5 1;00:00:00.360000=650.0 436.5 119.0 67.5 1</property>
      <property name="transition.valign">top</property>
      <property name="transition.halign">left</property>
      <property name="shotcut:animIn">00:00:00.400000</property>
      <property name="shotcut:animOut">00:00:00.000</property>
      <property name="transition.threads">0</property>
    </filter>
    <filter id="filter489" in="00:01:50.760000" out="00:01:54.120000">
      <property name="window">75</property>
      <property name="max_gain">20dB</property>
      <property name="level">-8</property>
      <property name="mlt_service">volume</property>
    </filter>
    <filter id="filter490" in="00:01:50.760000" out="00:01:54.120000">
      <property name="window">75</property>
      <property name="max_gain">20dB</property>
      <property name="mlt_service">volume</property>
      <property name="shotcut:filter">muteVolume</property>
      <property name="gain">0</property>
    </filter>
  </producer>
  <producer id="producer273" in="00:00:00.000" out="00:03:02.520" title="Anonymous Submission">
    <property name="length">00:03:02:14</property>
    <property name="eof">pause</property>
    <property name="resource">../../006 - Videos format youtube/Trompettes et cornets/Serge_trompette_totoro.mp4</property>
    <property name="audio_index">1</property>
    <property name="video_index">0</property>
    <property name="mute_on_pause">0</property>
    <property name="mlt_service">avformat-novalidate</property>
    <property name="seekable">1</property>
    <property name="aspect_ratio">1</property>
    <property name="creation_time">2020-04-12T19:40:43</property>
    <property name="shotcut:hash">8ef8fab703d506ba08497a54257ebc1e</property>
    <property name="ignore_points">0</property>
    <property name="shotcut:caption">Serge_trompette_totoro.mp4</property>
    <property name="shotcut:skipConvert">1</property>
    <property name="global_feed">1</property>
    <property name="xml">was here</property>
    <filter id="filter491" in="00:01:54.160000" out="00:01:57.560000">
      <property name="background">colour:0</property>
      <property name="mlt_service">affine</property>
      <property name="shotcut:filter">affineSizePosition</property>
      <property name="transition.fill">1</property>
      <property name="transition.distort">0</property>
      <property name="transition.rect">00:00:00.000000=660.0 441.5 110.0 61.5 1;00:00:00.360000=1162.0 941.5 119.0 67.5 1</property>
      <property name="transition.valign">top</property>
      <property name="transition.halign">left</property>
      <property name="shotcut:animIn">00:00:00.400000</property>
      <property name="shotcut:animOut">00:00:00.000</property>
      <property name="transition.threads">0</property>
    </filter>
    <filter id="filter492" in="00:01:54.160000" out="00:01:57.560000">
      <property name="window">75</property>
      <property name="max_gain">20dB</property>
      <property name="level">-8</property>
      <property name="mlt_service">volume</property>
    </filter>
    <filter id="filter493" in="00:01:54.160000" out="00:01:57.560000">
      <property name="window">75</property>
      <property name="max_gain">20dB</property>
      <property name="mlt_service">volume</property>
      <property name="shotcut:filter">muteVolume</property>
      <property name="gain">0</property>
    </filter>
  </producer>
  <producer id="producer274" in="00:00:00.000" out="00:03:02.520" title="Anonymous Submission">
    <property name="length">00:03:02:14</property>
    <property name="eof">pause</property>
    <property name="resource">../../006 - Videos format youtube/Trompettes et cornets/Serge_trompette_totoro.mp4</property>
    <property name="audio_index">1</property>
    <property name="video_index">0</property>
    <property name="mute_on_pause">0</property>
    <property name="mlt_service">avformat-novalidate</property>
    <property name="seekable">1</property>
    <property name="aspect_ratio">1</property>
    <property name="creation_time">2020-04-12T19:40:43</property>
    <property name="shotcut:hash">8ef8fab703d506ba08497a54257ebc1e</property>
    <property name="ignore_points">0</property>
    <property name="shotcut:caption">Serge_trompette_totoro.mp4</property>
    <property name="shotcut:skipConvert">1</property>
    <property name="global_feed">1</property>
    <property name="xml">was here</property>
    <filter id="filter494" in="00:01:57.600000" out="00:02:00.960000">
      <property name="background">colour:0</property>
      <property name="mlt_service">affine</property>
      <property name="shotcut:filter">affineSizePosition</property>
      <property name="transition.fill">1</property>
      <property name="transition.distort">0</property>
      <property name="transition.rect">00:00:00.000000=1172.0 946.5 110.0 61.5 1;00:00:00.360000=1098.0 581.5 119.0 67.5 1</property>
      <property name="transition.valign">top</property>
      <property name="transition.halign">left</property>
      <property name="shotcut:animIn">00:00:00.400000</property>
      <property name="shotcut:animOut">00:00:00.000</property>
      <property name="transition.threads">0</property>
    </filter>
    <filter id="filter495" in="00:01:57.600000" out="00:02:00.960000">
      <property name="window">75</property>
      <property name="max_gain">20dB</property>
      <property name="level">-8</property>
      <property name="mlt_service">volume</property>
    </filter>
    <filter id="filter496" in="00:01:57.600000" out="00:02:00.960000">
      <property name="window">75</property>
      <property name="max_gain">20dB</property>
      <property name="mlt_service">volume</property>
      <property name="shotcut:filter">muteVolume</property>
      <property name="gain">0</property>
    </filter>
  </producer>
  <producer id="producer275" in="00:00:00.000" out="00:03:02.520" title="Anonymous Submission">
    <property name="length">00:03:02:14</property>
    <property name="eof">pause</property>
    <property name="resource">../../006 - Videos format youtube/Trompettes et cornets/Serge_trompette_totoro.mp4</property>
    <property name="audio_index">1</property>
    <property name="video_index">0</property>
    <property name="mute_on_pause">0</property>
    <property name="mlt_service">avformat-novalidate</property>
    <property name="seekable">1</property>
    <property name="aspect_ratio">1</property>
    <property name="creation_time">2020-04-12T19:40:43</property>
    <property name="shotcut:hash">8ef8fab703d506ba08497a54257ebc1e</property>
    <property name="ignore_points">0</property>
    <property name="shotcut:caption">Serge_trompette_totoro.mp4</property>
    <property name="shotcut:skipConvert">1</property>
    <property name="global_feed">1</property>
    <property name="xml">was here</property>
    <filter id="filter497" in="00:02:01.000000" out="00:02:07.280000">
      <property name="background">colour:0</property>
      <property name="mlt_service">affine</property>
      <property name="shotcut:filter">affineSizePosition</property>
      <property name="transition.fill">1</property>
      <property name="transition.distort">0</property>
      <property name="transition.rect">00:00:00.000000=1108.0 586.5 110.0 61.5 1;00:00:00.360000=714.0 581.5 119.0 67.5 1</property>
      <property name="transition.valign">top</property>
      <property name="transition.halign">left</property>
      <property name="shotcut:animIn">00:00:00.400000</property>
      <property name="shotcut:animOut">00:00:00.000</property>
      <property name="transition.threads">0</property>
    </filter>
    <filter id="filter498" in="00:02:01.000000" out="00:02:07.280000">
      <property name="window">75</property>
      <property name="max_gain">20dB</property>
      <property name="level">-8</property>
      <property name="mlt_service">volume</property>
    </filter>
    <filter id="filter499" in="00:02:01.000000" out="00:02:07.280000">
      <property name="window">75</property>
      <property name="max_gain">20dB</property>
      <property name="mlt_service">volume</property>
      <property name="shotcut:filter">muteVolume</property>
      <property name="gain">0</property>
    </filter>
  </producer>
  <playlist id="playlist40">
    <property name="shotcut:video">1</property>
    <property name="shotcut:name">Serge_arrive</property>
    <property name="shotcut:lock">1</property>
    <blank length="00:01:55.000000" />
    <entry in="00:01:40.320000" out="00:01:43.880000" producer="producer269" />
    <entry in="00:01:43.920000" out="00:01:47.280000" producer="producer270" />
    <entry in="00:01:47.320000" out="00:01:50.720000" producer="producer271" />
    <entry in="00:01:50.760000" out="00:01:54.120000" producer="producer272" />
    <entry in="00:01:54.160000" out="00:01:57.560000" producer="producer273" />
    <entry in="00:01:57.600000" out="00:02:00.960000" producer="producer274" />
    <entry in="00:02:01.000000" out="00:02:07.280000" producer="producer275" />
    </playlist>
  <producer id="producer276" in="00:00:00.000" out="00:03:23.200" title="Anonymous Submission">
    <property name="length">00:03:23:06</property>
    <property name="eof">pause</property>
    <property name="resource">../../006 - Videos format youtube/Trompettes et cornets/Marianne_trompette_totoro.mp4</property>
    <property name="audio_index">1</property>
    <property name="video_index">0</property>
    <property name="mute_on_pause">0</property>
    <property name="mlt_service">avformat-novalidate</property>
    <property name="seekable">1</property>
    <property name="aspect_ratio">1</property>
    <property name="creation_time">2020-04-17T16:46:13</property>
    <property name="shotcut:hash">028a5d33b6622364c3abee360843bcb6</property>
    <property name="ignore_points">0</property>
    <property name="shotcut:caption">Marianne_trompette_totoro.mp4</property>
    <property name="shotcut:skipConvert">1</property>
    <property name="global_feed">1</property>
    <property name="xml">was here</property>
    <filter id="filter500" in="00:01:53.880000" out="00:01:57.440000">
      <property name="background">colour:0</property>
      <property name="mlt_service">affine</property>
      <property name="shotcut:filter">affineSizePosition</property>
      <property name="transition.fill">1</property>
      <property name="transition.distort">0</property>
      <property name="transition.rect">-1910.0 -1074.5 -9.0 -4.5 1</property>
      <property name="transition.valign">top</property>
      <property name="transition.halign">left</property>
      <property name="shotcut:animIn">00:00:00.000</property>
      <property name="shotcut:animOut">00:00:00.000</property>
      <property name="transition.threads">0</property>
    </filter>
  </producer>
  <producer id="producer277" in="00:00:00.000" out="00:03:23.200" title="Anonymous Submission">
    <property name="length">00:03:23:06</property>
    <property name="eof">pause</property>
    <property name="resource">../../006 - Videos format youtube/Trompettes et cornets/Marianne_trompette_totoro.mp4</property>
    <property name="audio_index">1</property>
    <property name="video_index">0</property>
    <property name="mute_on_pause">0</property>
    <property name="mlt_service">avformat-novalidate</property>
    <property name="seekable">1</property>
    <property name="aspect_ratio">1</property>
    <property name="creation_time">2020-04-17T16:46:13</property>
    <property name="shotcut:hash">028a5d33b6622364c3abee360843bcb6</property>
    <property name="ignore_points">0</property>
    <property name="shotcut:caption">Marianne_trompette_totoro.mp4</property>
    <property name="shotcut:skipConvert">1</property>
    <property name="global_feed">1</property>
    <property name="xml">was here</property>
    <filter id="filter501" in="00:01:57.480000" out="00:02:00.840000">
      <property name="background">colour:0</property>
      <property name="mlt_service">affine</property>
      <property name="shotcut:filter">affineSizePosition</property>
      <property name="transition.fill">1</property>
      <property name="transition.distort">0</property>
      <property name="transition.rect">-1910.0 -1074.5 -9.0 -4.5 1</property>
      <property name="transition.valign">top</property>
      <property name="transition.halign">left</property>
      <property name="shotcut:animIn">00:00:00.000</property>
      <property name="shotcut:animOut">00:00:00.000</property>
      <property name="transition.threads">0</property>
    </filter>
  </producer>
  <producer id="producer278" in="00:00:00.000" out="00:03:23.200" title="Anonymous Submission">
    <property name="length">00:03:23:06</property>
    <property name="eof">pause</property>
    <property name="resource">../../006 - Videos format youtube/Trompettes et cornets/Marianne_trompette_totoro.mp4</property>
    <property name="audio_index">1</property>
    <property name="video_index">0</property>
    <property name="mute_on_pause">0</property>
    <property name="mlt_service">avformat-novalidate</property>
    <property name="seekable">1</property>
    <property name="aspect_ratio">1</property>
    <property name="creation_time">2020-04-17T16:46:13</property>
    <property name="shotcut:hash">028a5d33b6622364c3abee360843bcb6</property>
    <property name="ignore_points">0</property>
    <property name="shotcut:caption">Marianne_trompette_totoro.mp4</property>
    <property name="shotcut:skipConvert">1</property>
    <property name="global_feed">1</property>
    <property name="xml">was here</property>
    <filter id="filter502" in="00:02:00.880000" out="00:02:04.280000">
      <property name="background">colour:0</property>
      <property name="mlt_service">affine</property>
      <property name="shotcut:filter">affineSizePosition</property>
      <property name="transition.fill">1</property>
      <property name="transition.distort">0</property>
      <property name="transition.rect">00:00:00.000000=964.0 540.0 4.0 2.0 1;00:00:00.360000=1331.0 446.0 167.0 94.0 1</property>
      <property name="transition.valign">top</property>
      <property name="transition.halign">left</property>
      <property name="shotcut:animIn">00:00:00.400000</property>
      <property name="shotcut:animOut">00:00:00.000</property>
      <property name="transition.threads">0</property>
    </filter>
  </producer>
  <producer id="producer279" in="00:00:00.000" out="00:03:23.200" title="Anonymous Submission">
    <property name="length">00:03:23:06</property>
    <property name="eof">pause</property>
    <property name="resource">../../006 - Videos format youtube/Trompettes et cornets/Marianne_trompette_totoro.mp4</property>
    <property name="audio_index">1</property>
    <property name="video_index">0</property>
    <property name="mute_on_pause">0</property>
    <property name="mlt_service">avformat-novalidate</property>
    <property name="seekable">1</property>
    <property name="aspect_ratio">1</property>
    <property name="creation_time">2020-04-17T16:46:13</property>
    <property name="shotcut:hash">028a5d33b6622364c3abee360843bcb6</property>
    <property name="ignore_points">0</property>
    <property name="shotcut:caption">Marianne_trompette_totoro.mp4</property>
    <property name="shotcut:skipConvert">1</property>
    <property name="global_feed">1</property>
    <property name="xml">was here</property>
    <filter id="filter503" in="00:02:04.320000" out="00:02:07.680000">
      <property name="background">colour:0</property>
      <property name="mlt_service">affine</property>
      <property name="shotcut:filter">affineSizePosition</property>
      <property name="transition.fill">1</property>
      <property name="transition.distort">0</property>
      <property name="transition.rect">00:00:00.000000=1341.0 451.5 158.0 88.5 1;00:00:00.360000=650.0 796.5 119.0 67.5 1</property>
      <property name="transition.valign">top</property>
      <property name="transition.halign">left</property>
      <property name="shotcut:animIn">00:00:00.400000</property>
      <property name="shotcut:animOut">00:00:00.000</property>
      <property name="transition.threads">0</property>
    </filter>
  </producer>
  <producer id="producer280" in="00:00:00.000" out="00:03:23.200" title="Anonymous Submission">
    <property name="length">00:03:23:06</property>
    <property name="eof">pause</property>
    <property name="resource">../../006 - Videos format youtube/Trompettes et cornets/Marianne_trompette_totoro.mp4</property>
    <property name="audio_index">1</property>
    <property name="video_index">0</property>
    <property name="mute_on_pause">0</property>
    <property name="mlt_service">avformat-novalidate</property>
    <property name="seekable">1</property>
    <property name="aspect_ratio">1</property>
    <property name="creation_time">2020-04-17T16:46:13</property>
    <property name="shotcut:hash">028a5d33b6622364c3abee360843bcb6</property>
    <property name="ignore_points">0</property>
    <property name="shotcut:caption">Marianne_trompette_totoro.mp4</property>
    <property name="shotcut:skipConvert">1</property>
    <property name="global_feed">1</property>
    <property name="xml">was here</property>
    <filter id="filter504" in="00:02:07.720000" out="00:02:11.120000">
      <property name="background">colour:0</property>
      <property name="mlt_service">affine</property>
      <property name="shotcut:filter">affineSizePosition</property>
      <property name="transition.fill">1</property>
      <property name="transition.distort">0</property>
      <property name="transition.rect">00:00:00.000000=660.0 801.5 110.0 61.5 1;00:00:00.360000=1290.0 941.5 119.0 67.5 1</property>
      <property name="transition.valign">top</property>
      <property name="transition.halign">left</property>
      <property name="shotcut:animIn">00:00:00.400000</property>
      <property name="shotcut:animOut">00:00:00.000</property>
      <property name="transition.threads">0</property>
    </filter>
  </producer>
  <producer id="producer281" in="00:00:00.000" out="00:03:23.200" title="Anonymous Submission">
    <property name="length">00:03:23:06</property>
    <property name="eof">pause</property>
    <property name="resource">../../006 - Videos format youtube/Trompettes et cornets/Marianne_trompette_totoro.mp4</property>
    <property name="audio_index">1</property>
    <property name="video_index">0</property>
    <property name="mute_on_pause">0</property>
    <property name="mlt_service">avformat-novalidate</property>
    <property name="seekable">1</property>
    <property name="aspect_ratio">1</property>
    <property name="creation_time">2020-04-17T16:46:13</property>
    <property name="shotcut:hash">028a5d33b6622364c3abee360843bcb6</property>
    <property name="ignore_points">0</property>
    <property name="shotcut:caption">Marianne_trompette_totoro.mp4</property>
    <property name="shotcut:skipConvert">1</property>
    <property name="global_feed">1</property>
    <property name="xml">was here</property>
    <filter id="filter505" in="00:02:11.160000" out="00:02:14.520000">
      <property name="background">colour:0</property>
      <property name="mlt_service">affine</property>
      <property name="shotcut:filter">affineSizePosition</property>
      <property name="transition.fill">1</property>
      <property name="transition.distort">0</property>
      <property name="transition.rect">778.0 77.5 119.0 67.5 1</property>
      <property name="transition.valign">top</property>
      <property name="transition.halign">left</property>
      <property name="shotcut:animIn">00:00:00.400000</property>
      <property name="shotcut:animOut">00:00:00.000</property>
      <property name="transition.threads">0</property>
    </filter>
  </producer>
  <producer id="producer282" in="00:00:00.000" out="00:03:23.200" title="Anonymous Submission">
    <property name="length">00:03:23:06</property>
    <property name="eof">pause</property>
    <property name="resource">../../006 - Videos format youtube/Trompettes et cornets/Marianne_trompette_totoro.mp4</property>
    <property name="audio_index">1</property>
    <property name="video_index">0</property>
    <property name="mute_on_pause">0</property>
    <property name="mlt_service">avformat-novalidate</property>
    <property name="seekable">1</property>
    <property name="aspect_ratio">1</property>
    <property name="creation_time">2020-04-17T16:46:13</property>
    <property name="shotcut:hash">028a5d33b6622364c3abee360843bcb6</property>
    <property name="ignore_points">0</property>
    <property name="shotcut:caption">Marianne_trompette_totoro.mp4</property>
    <property name="shotcut:skipConvert">1</property>
    <property name="global_feed">1</property>
    <property name="xml">was here</property>
    <filter id="filter506" in="00:02:14.560000" out="00:02:20.840000">
      <property name="background">colour:0</property>
      <property name="mlt_service">affine</property>
      <property name="shotcut:filter">affineSizePosition</property>
      <property name="transition.fill">1</property>
      <property name="transition.distort">0</property>
      <property name="transition.rect">1162.0 868.5 119.0 67.5 1</property>
      <property name="transition.valign">top</property>
      <property name="transition.halign">left</property>
      <property name="shotcut:animIn">00:00:00.400000</property>
      <property name="shotcut:animOut">00:00:00.000</property>
      <property name="transition.threads">0</property>
    </filter>
  </producer>
  <playlist id="playlist41">
    <property name="shotcut:video">1</property>
    <property name="shotcut:name">Marianne</property>
    <property name="shotcut:lock">1</property>
    <blank length="00:01:55.000000" />
    <entry in="00:01:53.880000" out="00:01:57.440000" producer="producer276" />
    <entry in="00:01:57.480000" out="00:02:00.840000" producer="producer277" />
    <entry in="00:02:00.880000" out="00:02:04.280000" producer="producer278" />
    <entry in="00:02:04.320000" out="00:02:07.680000" producer="producer279" />
    <entry in="00:02:07.720000" out="00:02:11.120000" producer="producer280" />
    <entry in="00:02:11.160000" out="00:02:14.520000" producer="producer281" />
    <entry in="00:02:14.560000" out="00:02:20.840000" producer="producer282" />
    <filter id="filter507" out="00:03:24.360">
      <property name="window">75</property>
      <property name="max_gain">20dB</property>
      <property name="level">-5</property>
      <property name="mlt_service">volume</property>
    </filter>
  </playlist>
  <producer id="producer283" in="00:00:00.000" out="00:03:26.280" title="Anonymous Submission">
    <property name="length">00:03:26:08</property>
    <property name="eof">pause</property>
    <property name="resource">../../006 - Videos format youtube/Tuba/Svoisine_tuba.mp4</property>
    <property name="audio_index">1</property>
    <property name="video_index">0</property>
    <property name="mute_on_pause">0</property>
    <property name="mlt_service">avformat-novalidate</property>
    <property name="seekable">1</property>
    <property name="aspect_ratio">1</property>
    <property name="creation_time">2020-04-11T08:39:47</property>
    <property name="shotcut:hash">8494f33c31e06cf5728dcdd20ff8db58</property>
    <property name="ignore_points">0</property>
    <property name="shotcut:caption">Svoisine_tuba.mp4</property>
    <property name="shotcut:skipConvert">1</property>
    <property name="global_feed">1</property>
    <property name="xml">was here</property>
    <filter id="filter508" in="00:01:59.400000" out="00:02:02.960000">
      <property name="background">colour:0</property>
      <property name="mlt_service">affine</property>
      <property name="shotcut:filter">affineSizePosition</property>
      <property name="transition.fill">1</property>
      <property name="transition.distort">0</property>
      <property name="transition.rect">-1910.0 -1074.5 -9.0 -4.5 1</property>
      <property name="transition.valign">top</property>
      <property name="transition.halign">left</property>
      <property name="shotcut:animIn">00:00:00.000</property>
      <property name="shotcut:animOut">00:00:00.000</property>
      <property name="transition.threads">0</property>
    </filter>
    <filter id="filter509" in="00:01:59.400000" out="00:02:02.960000">
      <property name="window">75</property>
      <property name="max_gain">20dB</property>
      <property name="mlt_service">volume</property>
      <property name="shotcut:filter">muteVolume</property>
      <property name="gain">0</property>
    </filter>
  </producer>
  <producer id="producer284" in="00:00:00.000" out="00:03:26.280" title="Anonymous Submission">
    <property name="length">00:03:26:08</property>
    <property name="eof">pause</property>
    <property name="resource">../../006 - Videos format youtube/Tuba/Svoisine_tuba.mp4</property>
    <property name="audio_index">1</property>
    <property name="video_index">0</property>
    <property name="mute_on_pause">0</property>
    <property name="mlt_service">avformat-novalidate</property>
    <property name="seekable">1</property>
    <property name="aspect_ratio">1</property>
    <property name="creation_time">2020-04-11T08:39:47</property>
    <property name="shotcut:hash">8494f33c31e06cf5728dcdd20ff8db58</property>
    <property name="ignore_points">0</property>
    <property name="shotcut:caption">Svoisine_tuba.mp4</property>
    <property name="shotcut:skipConvert">1</property>
    <property name="global_feed">1</property>
    <property name="xml">was here</property>
    <filter id="filter510" in="00:02:03.000000" out="00:02:06.360000">
      <property name="background">colour:0</property>
      <property name="mlt_service">affine</property>
      <property name="shotcut:filter">affineSizePosition</property>
      <property name="transition.fill">1</property>
      <property name="transition.distort">0</property>
      <property name="transition.rect">-1910.0 -1074.5 -9.0 -4.5 1</property>
      <property name="transition.valign">top</property>
      <property name="transition.halign">left</property>
      <property name="shotcut:animIn">00:00:00.000</property>
      <property name="shotcut:animOut">00:00:00.000</property>
      <property name="transition.threads">0</property>
    </filter>
    <filter id="filter511" in="00:02:03.000000" out="00:02:06.360000">
      <property name="window">75</property>
      <property name="max_gain">20dB</property>
      <property name="mlt_service">volume</property>
      <property name="shotcut:filter">muteVolume</property>
      <property name="gain">0</property>
    </filter>
  </producer>
  <producer id="producer285" in="00:00:00.000" out="00:03:26.280" title="Anonymous Submission">
    <property name="length">00:03:26:08</property>
    <property name="eof">pause</property>
    <property name="resource">../../006 - Videos format youtube/Tuba/Svoisine_tuba.mp4</property>
    <property name="audio_index">1</property>
    <property name="video_index">0</property>
    <property name="mute_on_pause">0</property>
    <property name="mlt_service">avformat-novalidate</property>
    <property name="seekable">1</property>
    <property name="aspect_ratio">1</property>
    <property name="creation_time">2020-04-11T08:39:47</property>
    <property name="shotcut:hash">8494f33c31e06cf5728dcdd20ff8db58</property>
    <property name="ignore_points">0</property>
    <property name="shotcut:caption">Svoisine_tuba.mp4</property>
    <property name="shotcut:skipConvert">1</property>
    <property name="global_feed">1</property>
    <property name="xml">was here</property>
    <filter id="filter512" in="00:02:06.400000" out="00:02:09.800000">
      <property name="background">colour:0</property>
      <property name="mlt_service">affine</property>
      <property name="shotcut:filter">affineSizePosition</property>
      <property name="transition.fill">1</property>
      <property name="transition.distort">0</property>
      <property name="transition.rect">00:00:00.000000=953.0 536.0 4.0 2.0 1;00:00:00.360000=582.0 165.0 167.0 94.0 1</property>
      <property name="transition.valign">top</property>
      <property name="transition.halign">left</property>
      <property name="shotcut:animIn">00:00:00.400000</property>
      <property name="shotcut:animOut">00:00:00.000</property>
      <property name="transition.threads">0</property>
    </filter>
    <filter id="filter513" in="00:02:06.400000" out="00:02:09.800000">
      <property name="window">75</property>
      <property name="max_gain">20dB</property>
      <property name="mlt_service">volume</property>
      <property name="shotcut:filter">muteVolume</property>
      <property name="gain">0</property>
    </filter>
  </producer>
  <producer id="producer286" in="00:00:00.000" out="00:03:26.280" title="Anonymous Submission">
    <property name="length">00:03:26:08</property>
    <property name="eof">pause</property>
    <property name="resource">../../006 - Videos format youtube/Tuba/Svoisine_tuba.mp4</property>
    <property name="audio_index">1</property>
    <property name="video_index">0</property>
    <property name="mute_on_pause">0</property>
    <property name="mlt_service">avformat-novalidate</property>
    <property name="seekable">1</property>
    <property name="aspect_ratio">1</property>
    <property name="creation_time">2020-04-11T08:39:47</property>
    <property name="shotcut:hash">8494f33c31e06cf5728dcdd20ff8db58</property>
    <property name="ignore_points">0</property>
    <property name="shotcut:caption">Svoisine_tuba.mp4</property>
    <property name="shotcut:skipConvert">1</property>
    <property name="global_feed">1</property>
    <property name="xml">was here</property>
    <filter id="filter514" in="00:02:09.840000" out="00:02:13.200000">
      <property name="background">colour:0</property>
      <property name="mlt_service">affine</property>
      <property name="shotcut:filter">affineSizePosition</property>
      <property name="transition.fill">1</property>
      <property name="transition.distort">0</property>
      <property name="transition.rect">00:00:00.000000=592.0 170.5 158.0 88.5 1;00:00:00.360000=777.0 221.5 119.0 67.5 1</property>
      <property name="transition.valign">top</property>
      <property name="transition.halign">left</property>
      <property name="shotcut:animIn">00:00:00.400000</property>
      <property name="shotcut:animOut">00:00:00.000</property>
      <property name="transition.threads">0</property>
    </filter>
    <filter id="filter515" in="00:02:09.840000" out="00:02:13.200000">
      <property name="window">75</property>
      <property name="max_gain">20dB</property>
      <property name="mlt_service">volume</property>
      <property name="shotcut:filter">muteVolume</property>
      <property name="gain">0</property>
    </filter>
  </producer>
  <producer id="producer287" in="00:00:00.000" out="00:03:26.280" title="Anonymous Submission">
    <property name="length">00:03:26:08</property>
    <property name="eof">pause</property>
    <property name="resource">../../006 - Videos format youtube/Tuba/Svoisine_tuba.mp4</property>
    <property name="audio_index">1</property>
    <property name="video_index">0</property>
    <property name="mute_on_pause">0</property>
    <property name="mlt_service">avformat-novalidate</property>
    <property name="seekable">1</property>
    <property name="aspect_ratio">1</property>
    <property name="creation_time">2020-04-11T08:39:47</property>
    <property name="shotcut:hash">8494f33c31e06cf5728dcdd20ff8db58</property>
    <property name="ignore_points">0</property>
    <property name="shotcut:caption">Svoisine_tuba.mp4</property>
    <property name="shotcut:skipConvert">1</property>
    <property name="global_feed">1</property>
    <property name="xml">was here</property>
    <filter id="filter516" in="00:02:13.240000" out="00:02:16.640000">
      <property name="background">colour:0</property>
      <property name="mlt_service">affine</property>
      <property name="shotcut:filter">affineSizePosition</property>
      <property name="transition.fill">1</property>
      <property name="transition.distort">0</property>
      <property name="transition.rect">00:00:00.000000=787.0 226.5 110.0 61.5 1;00:00:00.360000=1418.0 941.5 119.0 67.5 1</property>
      <property name="transition.valign">top</property>
      <property name="transition.halign">left</property>
      <property name="shotcut:animIn">00:00:00.400000</property>
      <property name="shotcut:animOut">00:00:00.000</property>
      <property name="transition.threads">0</property>
    </filter>
    <filter id="filter517" in="00:02:13.240000" out="00:02:16.640000">
      <property name="window">75</property>
      <property name="max_gain">20dB</property>
      <property name="mlt_service">volume</property>
      <property name="shotcut:filter">muteVolume</property>
      <property name="gain">0</property>
    </filter>
  </producer>
  <producer id="producer288" in="00:00:00.000" out="00:03:26.280" title="Anonymous Submission">
    <property name="length">00:03:26:08</property>
    <property name="eof">pause</property>
    <property name="resource">../../006 - Videos format youtube/Tuba/Svoisine_tuba.mp4</property>
    <property name="audio_index">1</property>
    <property name="video_index">0</property>
    <property name="mute_on_pause">0</property>
    <property name="mlt_service">avformat-novalidate</property>
    <property name="seekable">1</property>
    <property name="aspect_ratio">1</property>
    <property name="creation_time">2020-04-11T08:39:47</property>
    <property name="shotcut:hash">8494f33c31e06cf5728dcdd20ff8db58</property>
    <property name="ignore_points">0</property>
    <property name="shotcut:caption">Svoisine_tuba.mp4</property>
    <property name="shotcut:skipConvert">1</property>
    <property name="global_feed">1</property>
    <property name="xml">was here</property>
    <filter id="filter518" in="00:02:16.680000" out="00:02:20.040000">
      <property name="background">colour:0</property>
      <property name="mlt_service">affine</property>
      <property name="shotcut:filter">affineSizePosition</property>
      <property name="transition.fill">1</property>
      <property name="transition.distort">0</property>
      <property name="transition.rect">00:00:00.000000=1428.0 946.5 110.0 61.5 1;00:00:00.360000=586.0 436.5 119.0 67.5 1</property>
      <property name="transition.valign">top</property>
      <property name="transition.halign">left</property>
      <property name="shotcut:animIn">00:00:00.400000</property>
      <property name="shotcut:animOut">00:00:00.000</property>
      <property name="transition.threads">0</property>
    </filter>
    <filter id="filter519" in="00:02:16.680000" out="00:02:20.040000">
      <property name="window">75</property>
      <property name="max_gain">20dB</property>
      <property name="mlt_service">volume</property>
      <property name="shotcut:filter">muteVolume</property>
      <property name="gain">0</property>
    </filter>
  </producer>
  <producer id="producer289" in="00:00:00.000" out="00:03:26.280" title="Anonymous Submission">
    <property name="length">00:03:26:08</property>
    <property name="eof">pause</property>
    <property name="resource">../../006 - Videos format youtube/Tuba/Svoisine_tuba.mp4</property>
    <property name="audio_index">1</property>
    <property name="video_index">0</property>
    <property name="mute_on_pause">0</property>
    <property name="mlt_service">avformat-novalidate</property>
    <property name="seekable">1</property>
    <property name="aspect_ratio">1</property>
    <property name="creation_time">2020-04-11T08:39:47</property>
    <property name="shotcut:hash">8494f33c31e06cf5728dcdd20ff8db58</property>
    <property name="ignore_points">0</property>
    <property name="shotcut:caption">Svoisine_tuba.mp4</property>
    <property name="shotcut:skipConvert">1</property>
    <property name="global_feed">1</property>
    <property name="xml">was here</property>
    <filter id="filter520" in="00:02:20.080000" out="00:02:26.360000">
      <property name="background">colour:0</property>
      <property name="mlt_service">affine</property>
      <property name="shotcut:filter">affineSizePosition</property>
      <property name="transition.fill">1</property>
      <property name="transition.distort">0</property>
      <property name="transition.rect">00:00:00.000000=596.0 441.5 110.0 61.5 1;00:00:00.360000=1098.0 941.5 119.0 67.5 1</property>
      <property name="transition.valign">top</property>
      <property name="transition.halign">left</property>
      <property name="shotcut:animIn">00:00:00.400000</property>
      <property name="shotcut:animOut">00:00:00.000</property>
      <property name="transition.threads">0</property>
    </filter>
    <filter id="filter521" in="00:02:20.080000" out="00:02:26.360000">
      <property name="window">75</property>
      <property name="max_gain">20dB</property>
      <property name="mlt_service">volume</property>
      <property name="shotcut:filter">muteVolume</property>
      <property name="gain">0</property>
    </filter>
  </producer>
  <playlist id="playlist42">
    <property name="shotcut:video">1</property>
    <property name="shotcut:name">S Voisine</property>
    <property name="shotcut:lock">1</property>
    <blank length="00:01:55.000000" />
    <entry in="00:01:59.400000" out="00:02:02.960000" producer="producer283" />
    <entry in="00:02:03.000000" out="00:02:06.360000" producer="producer284" />
    <entry in="00:02:06.400000" out="00:02:09.800000" producer="producer285" />
    <entry in="00:02:09.840000" out="00:02:13.200000" producer="producer286" />
    <entry in="00:02:13.240000" out="00:02:16.640000" producer="producer287" />
    <entry in="00:02:16.680000" out="00:02:20.040000" producer="producer288" />
    <entry in="00:02:20.080000" out="00:02:26.360000" producer="producer289" />
    <filter id="filter522" out="00:03:32.600">
      <property name="window">75</property>
      <property name="max_gain">20dB</property>
      <property name="level">-10</property>
      <property name="mlt_service">volume</property>
    </filter>
  </playlist>
  <producer id="producer290" in="00:00:00.000" out="00:05:55.520" title="Anonymous Submission">
    <property name="length">00:05:55:14</property>
    <property name="eof">pause</property>
    <property name="resource">../../006 - Videos format youtube/Euphonium/Serge_baryton_totoro_recadre.mp4</property>
    <property name="audio_index">1</property>
    <property name="video_index">0</property>
    <property name="mute_on_pause">0</property>
    <property name="mlt_service">avformat-novalidate</property>
    <property name="seekable">1</property>
    <property name="aspect_ratio">1</property>
    <property name="creation_time">2020-04-12T16:27:49</property>
    <property name="shotcut:hash">b07d92044a15ac5f1a605af51e13624e</property>
    <property name="ignore_points">0</property>
    <property name="shotcut:caption">Serge_baryton_totoro_recadre.mp4</property>
    <property name="shotcut:skipConvert">1</property>
    <property name="global_feed">1</property>
    <property name="xml">was here</property>
    <filter id="filter523" in="00:01:54.920000" out="00:01:58.480000">
      <property name="background">colour:0</property>
      <property name="mlt_service">affine</property>
      <property name="shotcut:filter">affineSizePosition</property>
      <property name="transition.fill">1</property>
      <property name="transition.distort">0</property>
      <property name="transition.rect">-1910.0 -1074.5 -9.0 -4.5 1</property>
      <property name="transition.valign">top</property>
      <property name="transition.halign">left</property>
      <property name="shotcut:animIn">00:00:00.000</property>
      <property name="shotcut:animOut">00:00:00.000</property>
      <property name="transition.threads">0</property>
    </filter>
  </producer>
  <producer id="producer291" in="00:00:00.000" out="00:05:55.520" title="Anonymous Submission">
    <property name="length">00:05:55:14</property>
    <property name="eof">pause</property>
    <property name="resource">../../006 - Videos format youtube/Euphonium/Serge_baryton_totoro_recadre.mp4</property>
    <property name="audio_index">1</property>
    <property name="video_index">0</property>
    <property name="mute_on_pause">0</property>
    <property name="mlt_service">avformat-novalidate</property>
    <property name="seekable">1</property>
    <property name="aspect_ratio">1</property>
    <property name="creation_time">2020-04-12T16:27:49</property>
    <property name="shotcut:hash">b07d92044a15ac5f1a605af51e13624e</property>
    <property name="ignore_points">0</property>
    <property name="shotcut:caption">Serge_baryton_totoro_recadre.mp4</property>
    <property name="shotcut:skipConvert">1</property>
    <property name="global_feed">1</property>
    <property name="xml">was here</property>
    <filter id="filter524" in="00:01:58.520000" out="00:02:01.880000">
      <property name="background">colour:0</property>
      <property name="mlt_service">affine</property>
      <property name="shotcut:filter">affineSizePosition</property>
      <property name="transition.fill">1</property>
      <property name="transition.distort">0</property>
      <property name="transition.rect">-1910.0 -1074.5 -9.0 -4.5 1</property>
      <property name="transition.valign">top</property>
      <property name="transition.halign">left</property>
      <property name="shotcut:animIn">00:00:00.000</property>
      <property name="shotcut:animOut">00:00:00.000</property>
      <property name="transition.threads">0</property>
    </filter>
  </producer>
  <producer id="producer292" in="00:00:00.000" out="00:05:55.520" title="Anonymous Submission">
    <property name="length">00:05:55:14</property>
    <property name="eof">pause</property>
    <property name="resource">../../006 - Videos format youtube/Euphonium/Serge_baryton_totoro_recadre.mp4</property>
    <property name="audio_index">1</property>
    <property name="video_index">0</property>
    <property name="mute_on_pause">0</property>
    <property name="mlt_service">avformat-novalidate</property>
    <property name="seekable">1</property>
    <property name="aspect_ratio">1</property>
    <property name="creation_time">2020-04-12T16:27:49</property>
    <property name="shotcut:hash">b07d92044a15ac5f1a605af51e13624e</property>
    <property name="ignore_points">0</property>
    <property name="shotcut:caption">Serge_baryton_totoro_recadre.mp4</property>
    <property name="shotcut:skipConvert">1</property>
    <property name="global_feed">1</property>
    <property name="xml">was here</property>
    <filter id="filter525" in="00:02:01.920000" out="00:02:05.320000">
      <property name="background">colour:0</property>
      <property name="mlt_service">affine</property>
      <property name="shotcut:filter">affineSizePosition</property>
      <property name="transition.fill">1</property>
      <property name="transition.distort">0</property>
      <property name="transition.rect">00:00:00.000000=957.0 537.0 4.0 2.0 1;00:00:00.360000=831.0 259.0 167.0 94.0 1</property>
      <property name="transition.valign">top</property>
      <property name="transition.halign">left</property>
      <property name="shotcut:animIn">00:00:00.400000</property>
      <property name="shotcut:animOut">00:00:00.000</property>
      <property name="transition.threads">0</property>
    </filter>
  </producer>
  <producer id="producer293" in="00:00:00.000" out="00:05:55.520" title="Anonymous Submission">
    <property name="length">00:05:55:14</property>
    <property name="eof">pause</property>
    <property name="resource">../../006 - Videos format youtube/Euphonium/Serge_baryton_totoro_recadre.mp4</property>
    <property name="audio_index">1</property>
    <property name="video_index">0</property>
    <property name="mute_on_pause">0</property>
    <property name="mlt_service">avformat-novalidate</property>
    <property name="seekable">1</property>
    <property name="aspect_ratio">1</property>
    <property name="creation_time">2020-04-12T16:27:49</property>
    <property name="shotcut:hash">b07d92044a15ac5f1a605af51e13624e</property>
    <property name="ignore_points">0</property>
    <property name="shotcut:caption">Serge_baryton_totoro_recadre.mp4</property>
    <property name="shotcut:skipConvert">1</property>
    <property name="global_feed">1</property>
    <property name="xml">was here</property>
    <filter id="filter526" in="00:02:05.360000" out="00:02:08.720000">
      <property name="background">colour:0</property>
      <property name="mlt_service">affine</property>
      <property name="shotcut:filter">affineSizePosition</property>
      <property name="transition.fill">1</property>
      <property name="transition.distort">0</property>
      <property name="transition.rect">-1910.0 -1074.5 -9.0 -4.5 1</property>
      <property name="transition.valign">top</property>
      <property name="transition.halign">left</property>
      <property name="shotcut:animIn">00:00:00.400000</property>
      <property name="shotcut:animOut">00:00:00.000</property>
      <property name="transition.threads">0</property>
    </filter>
  </producer>
  <producer id="producer294" in="00:00:00.000" out="00:05:55.520" title="Anonymous Submission">
    <property name="length">00:05:55:14</property>
    <property name="eof">pause</property>
    <property name="resource">../../006 - Videos format youtube/Euphonium/Serge_baryton_totoro_recadre.mp4</property>
    <property name="audio_index">1</property>
    <property name="video_index">0</property>
    <property name="mute_on_pause">0</property>
    <property name="mlt_service">avformat-novalidate</property>
    <property name="seekable">1</property>
    <property name="aspect_ratio">1</property>
    <property name="creation_time">2020-04-12T16:27:49</property>
    <property name="shotcut:hash">b07d92044a15ac5f1a605af51e13624e</property>
    <property name="ignore_points">0</property>
    <property name="shotcut:caption">Serge_baryton_totoro_recadre.mp4</property>
    <property name="shotcut:skipConvert">1</property>
    <property name="global_feed">1</property>
    <property name="xml">was here</property>
    <filter id="filter527" in="00:02:08.760000" out="00:02:12.160000">
      <property name="background">colour:0</property>
      <property name="mlt_service">affine</property>
      <property name="shotcut:filter">affineSizePosition</property>
      <property name="transition.fill">1</property>
      <property name="transition.distort">0</property>
      <property name="transition.rect">-1910.0 -1074.5 -9.0 -4.5 1</property>
      <property name="transition.valign">top</property>
      <property name="transition.halign">left</property>
      <property name="shotcut:animIn">00:00:00.400000</property>
      <property name="shotcut:animOut">00:00:00.000</property>
      <property name="transition.threads">0</property>
    </filter>
  </producer>
  <producer id="producer295" in="00:00:00.000" out="00:05:55.520" title="Anonymous Submission">
    <property name="length">00:05:55:14</property>
    <property name="eof">pause</property>
    <property name="resource">../../006 - Videos format youtube/Euphonium/Serge_baryton_totoro_recadre.mp4</property>
    <property name="audio_index">1</property>
    <property name="video_index">0</property>
    <property name="mute_on_pause">0</property>
    <property name="mlt_service">avformat-novalidate</property>
    <property name="seekable">1</property>
    <property name="aspect_ratio">1</property>
    <property name="creation_time">2020-04-12T16:27:49</property>
    <property name="shotcut:hash">b07d92044a15ac5f1a605af51e13624e</property>
    <property name="ignore_points">0</property>
    <property name="shotcut:caption">Serge_baryton_totoro_recadre.mp4</property>
    <property name="shotcut:skipConvert">1</property>
    <property name="global_feed">1</property>
    <property name="xml">was here</property>
    <filter id="filter528" in="00:02:12.200000" out="00:02:15.560000">
      <property name="background">colour:0</property>
      <property name="mlt_service">affine</property>
      <property name="shotcut:filter">affineSizePosition</property>
      <property name="transition.fill">1</property>
      <property name="transition.distort">0</property>
      <property name="transition.rect">00:00:00.000000=-1900.0 -1068.5 -18.0 -9.5 1;00:00:00.360000=586.0 365.5 119.0 67.5 1</property>
      <property name="transition.valign">top</property>
      <property name="transition.halign">left</property>
      <property name="shotcut:animIn">00:00:00.400000</property>
      <property name="shotcut:animOut">00:00:00.000</property>
      <property name="transition.threads">0</property>
    </filter>
  </producer>
  <producer id="producer296" in="00:00:00.000" out="00:05:55.520" title="Anonymous Submission">
    <property name="length">00:05:55:14</property>
    <property name="eof">pause</property>
    <property name="resource">../../006 - Videos format youtube/Euphonium/Serge_baryton_totoro_recadre.mp4</property>
    <property name="audio_index">1</property>
    <property name="video_index">0</property>
    <property name="mute_on_pause">0</property>
    <property name="mlt_service">avformat-novalidate</property>
    <property name="seekable">1</property>
    <property name="aspect_ratio">1</property>
    <property name="creation_time">2020-04-12T16:27:49</property>
    <property name="shotcut:hash">b07d92044a15ac5f1a605af51e13624e</property>
    <property name="ignore_points">0</property>
    <property name="shotcut:caption">Serge_baryton_totoro_recadre.mp4</property>
    <property name="shotcut:skipConvert">1</property>
    <property name="global_feed">1</property>
    <property name="xml">was here</property>
    <filter id="filter529" in="00:02:15.600000" out="00:02:21.880000">
      <property name="background">colour:0</property>
      <property name="mlt_service">affine</property>
      <property name="shotcut:filter">affineSizePosition</property>
      <property name="transition.fill">1</property>
      <property name="transition.distort">0</property>
      <property name="transition.rect">1162.0 436.5 119.0 67.5 1</property>
      <property name="transition.valign">top</property>
      <property name="transition.halign">left</property>
      <property name="shotcut:animIn">00:00:00.400000</property>
      <property name="shotcut:animOut">00:00:00.000</property>
      <property name="transition.threads">0</property>
    </filter>
  </producer>
  <playlist id="playlist43">
    <property name="shotcut:video">1</property>
    <property name="shotcut:name">S Baudry recadre</property>
    <property name="shotcut:lock">1</property>
    <blank length="00:01:55.000000" />
    <entry in="00:01:54.920000" out="00:01:58.480000" producer="producer290" />
    <entry in="00:01:58.520000" out="00:02:01.880000" producer="producer291" />
    <entry in="00:02:01.920000" out="00:02:05.320000" producer="producer292" />
    <entry in="00:02:05.360000" out="00:02:08.720000" producer="producer293" />
    <entry in="00:02:08.760000" out="00:02:12.160000" producer="producer294" />
    <entry in="00:02:12.200000" out="00:02:15.560000" producer="producer295" />
    <entry in="00:02:15.600000" out="00:02:21.880000" producer="producer296" />
    <filter id="filter530" out="00:03:32.600">
      <property name="window">75</property>
      <property name="max_gain">20dB</property>
      <property name="level">-13</property>
      <property name="mlt_service">volume</property>
    </filter>
  </playlist>
  <producer id="producer297" in="00:00:00.000" out="00:05:55.520" title="Anonymous Submission">
    <property name="length">00:05:55:14</property>
    <property name="eof">pause</property>
    <property name="resource">../../006 - Videos format youtube/Tuba/Srevol_tuba_recadre.mp4</property>
    <property name="audio_index">1</property>
    <property name="video_index">0</property>
    <property name="mute_on_pause">0</property>
    <property name="mlt_service">avformat-novalidate</property>
    <property name="seekable">1</property>
    <property name="aspect_ratio">1</property>
    <property name="creation_time">2020-04-12T16:43:58</property>
    <property name="shotcut:hash">297b5a36e5ddc4793893fda24b46726f</property>
    <property name="ignore_points">0</property>
    <property name="shotcut:caption">Srevol_tuba_recadre.mp4</property>
    <property name="shotcut:skipConvert">1</property>
    <property name="global_feed">1</property>
    <property name="xml">was here</property>
    <filter id="filter531" in="00:01:55.000000" out="00:01:58.560000">
      <property name="background">colour:0</property>
      <property name="mlt_service">affine</property>
      <property name="shotcut:filter">affineSizePosition</property>
      <property name="transition.fill">1</property>
      <property name="transition.distort">0</property>
      <property name="transition.rect">-1910.0 -1074.5 -9.0 -4.5 1</property>
      <property name="transition.valign">top</property>
      <property name="transition.halign">left</property>
      <property name="shotcut:animIn">00:00:00.000</property>
      <property name="shotcut:animOut">00:00:00.000</property>
      <property name="transition.threads">0</property>
    </filter>
    <filter id="filter532" in="00:01:55.000000" out="00:01:58.560000">
      <property name="window">75</property>
      <property name="max_gain">20dB</property>
      <property name="mlt_service">volume</property>
      <property name="shotcut:filter">muteVolume</property>
      <property name="gain">0</property>
    </filter>
  </producer>
  <producer id="producer298" in="00:00:00.000" out="00:05:55.520" title="Anonymous Submission">
    <property name="length">00:05:55:14</property>
    <property name="eof">pause</property>
    <property name="resource">../../006 - Videos format youtube/Tuba/Srevol_tuba_recadre.mp4</property>
    <property name="audio_index">1</property>
    <property name="video_index">0</property>
    <property name="mute_on_pause">0</property>
    <property name="mlt_service">avformat-novalidate</property>
    <property name="seekable">1</property>
    <property name="aspect_ratio">1</property>
    <property name="creation_time">2020-04-12T16:43:58</property>
    <property name="shotcut:hash">297b5a36e5ddc4793893fda24b46726f</property>
    <property name="ignore_points">0</property>
    <property name="shotcut:caption">Srevol_tuba_recadre.mp4</property>
    <property name="shotcut:skipConvert">1</property>
    <property name="global_feed">1</property>
    <property name="xml">was here</property>
    <filter id="filter533" in="00:01:58.600000" out="00:02:01.960000">
      <property name="background">colour:0</property>
      <property name="mlt_service">affine</property>
      <property name="shotcut:filter">affineSizePosition</property>
      <property name="transition.fill">1</property>
      <property name="transition.distort">0</property>
      <property name="transition.rect">-1910.0 -1074.5 -9.0 -4.5 1</property>
      <property name="transition.valign">top</property>
      <property name="transition.halign">left</property>
      <property name="shotcut:animIn">00:00:00.000</property>
      <property name="shotcut:animOut">00:00:00.000</property>
      <property name="transition.threads">0</property>
    </filter>
    <filter id="filter534" in="00:01:58.600000" out="00:02:01.960000">
      <property name="window">75</property>
      <property name="max_gain">20dB</property>
      <property name="mlt_service">volume</property>
      <property name="shotcut:filter">muteVolume</property>
      <property name="gain">0</property>
    </filter>
  </producer>
  <producer id="producer299" in="00:00:00.000" out="00:05:55.520" title="Anonymous Submission">
    <property name="length">00:05:55:14</property>
    <property name="eof">pause</property>
    <property name="resource">../../006 - Videos format youtube/Tuba/Srevol_tuba_recadre.mp4</property>
    <property name="audio_index">1</property>
    <property name="video_index">0</property>
    <property name="mute_on_pause">0</property>
    <property name="mlt_service">avformat-novalidate</property>
    <property name="seekable">1</property>
    <property name="aspect_ratio">1</property>
    <property name="creation_time">2020-04-12T16:43:58</property>
    <property name="shotcut:hash">297b5a36e5ddc4793893fda24b46726f</property>
    <property name="ignore_points">0</property>
    <property name="shotcut:caption">Srevol_tuba_recadre.mp4</property>
    <property name="shotcut:skipConvert">1</property>
    <property name="global_feed">1</property>
    <property name="xml">was here</property>
    <filter id="filter535" in="00:02:02.000000" out="00:02:05.400000">
      <property name="background">colour:0</property>
      <property name="mlt_service">affine</property>
      <property name="shotcut:filter">affineSizePosition</property>
      <property name="transition.fill">1</property>
      <property name="transition.distort">0</property>
      <property name="transition.rect">00:00:00.000000=955.0 536.0 4.0 2.0 1;00:00:00.360000=748.0 165.0 167.0 94.0 1</property>
      <property name="transition.valign">top</property>
      <property name="transition.halign">left</property>
      <property name="shotcut:animIn">00:00:00.400000</property>
      <property name="shotcut:animOut">00:00:00.000</property>
      <property name="transition.threads">0</property>
    </filter>
    <filter id="filter536" in="00:02:02.000000" out="00:02:05.400000">
      <property name="window">75</property>
      <property name="max_gain">20dB</property>
      <property name="mlt_service">volume</property>
      <property name="shotcut:filter">muteVolume</property>
      <property name="gain">0</property>
    </filter>
  </producer>
  <producer id="producer300" in="00:00:00.000" out="00:05:55.520" title="Anonymous Submission">
    <property name="length">00:05:55:14</property>
    <property name="eof">pause</property>
    <property name="resource">../../006 - Videos format youtube/Tuba/Srevol_tuba_recadre.mp4</property>
    <property name="audio_index">1</property>
    <property name="video_index">0</property>
    <property name="mute_on_pause">0</property>
    <property name="mlt_service">avformat-novalidate</property>
    <property name="seekable">1</property>
    <property name="aspect_ratio">1</property>
    <property name="creation_time">2020-04-12T16:43:58</property>
    <property name="shotcut:hash">297b5a36e5ddc4793893fda24b46726f</property>
    <property name="ignore_points">0</property>
    <property name="shotcut:caption">Srevol_tuba_recadre.mp4</property>
    <property name="shotcut:skipConvert">1</property>
    <property name="global_feed">1</property>
    <property name="xml">was here</property>
    <filter id="filter537" in="00:02:05.440000" out="00:02:08.800000">
      <property name="background">colour:0</property>
      <property name="mlt_service">affine</property>
      <property name="shotcut:filter">affineSizePosition</property>
      <property name="transition.fill">1</property>
      <property name="transition.distort">0</property>
      <property name="transition.rect">00:00:00.000000=758.0 170.5 158.0 88.5 1;00:00:00.360000=650.0 580.5 119.0 67.5 1</property>
      <property name="transition.valign">top</property>
      <property name="transition.halign">left</property>
      <property name="shotcut:animIn">00:00:00.400000</property>
      <property name="shotcut:animOut">00:00:00.000</property>
      <property name="transition.threads">0</property>
    </filter>
    <filter id="filter538" in="00:02:05.440000" out="00:02:08.800000">
      <property name="window">75</property>
      <property name="max_gain">20dB</property>
      <property name="mlt_service">volume</property>
      <property name="shotcut:filter">muteVolume</property>
      <property name="gain">0</property>
    </filter>
  </producer>
  <producer id="producer301" in="00:00:00.000" out="00:05:55.520" title="Anonymous Submission">
    <property name="length">00:05:55:14</property>
    <property name="eof">pause</property>
    <property name="resource">../../006 - Videos format youtube/Tuba/Srevol_tuba_recadre.mp4</property>
    <property name="audio_index">1</property>
    <property name="video_index">0</property>
    <property name="mute_on_pause">0</property>
    <property name="mlt_service">avformat-novalidate</property>
    <property name="seekable">1</property>
    <property name="aspect_ratio">1</property>
    <property name="creation_time">2020-04-12T16:43:58</property>
    <property name="shotcut:hash">297b5a36e5ddc4793893fda24b46726f</property>
    <property name="ignore_points">0</property>
    <property name="shotcut:caption">Srevol_tuba_recadre.mp4</property>
    <property name="shotcut:skipConvert">1</property>
    <property name="global_feed">1</property>
    <property name="xml">was here</property>
    <filter id="filter539" in="00:02:08.840000" out="00:02:12.240000">
      <property name="background">colour:0</property>
      <property name="mlt_service">affine</property>
      <property name="shotcut:filter">affineSizePosition</property>
      <property name="transition.fill">1</property>
      <property name="transition.distort">0</property>
      <property name="transition.rect">-1910.0 -1074.5 -9.0 -4.5 1</property>
      <property name="transition.valign">top</property>
      <property name="transition.halign">left</property>
      <property name="shotcut:animIn">00:00:00.400000</property>
      <property name="shotcut:animOut">00:00:00.000</property>
      <property name="transition.threads">0</property>
    </filter>
    <filter id="filter540" in="00:02:08.840000" out="00:02:12.240000">
      <property name="window">75</property>
      <property name="max_gain">20dB</property>
      <property name="mlt_service">volume</property>
      <property name="shotcut:filter">muteVolume</property>
      <property name="gain">0</property>
    </filter>
  </producer>
  <producer id="producer302" in="00:00:00.000" out="00:05:55.520" title="Anonymous Submission">
    <property name="length">00:05:55:14</property>
    <property name="eof">pause</property>
    <property name="resource">../../006 - Videos format youtube/Tuba/Srevol_tuba_recadre.mp4</property>
    <property name="audio_index">1</property>
    <property name="video_index">0</property>
    <property name="mute_on_pause">0</property>
    <property name="mlt_service">avformat-novalidate</property>
    <property name="seekable">1</property>
    <property name="aspect_ratio">1</property>
    <property name="creation_time">2020-04-12T16:43:58</property>
    <property name="shotcut:hash">297b5a36e5ddc4793893fda24b46726f</property>
    <property name="ignore_points">0</property>
    <property name="shotcut:caption">Srevol_tuba_recadre.mp4</property>
    <property name="shotcut:skipConvert">1</property>
    <property name="global_feed">1</property>
    <property name="xml">was here</property>
    <filter id="filter541" in="00:02:12.280000" out="00:02:15.640000">
      <property name="background">colour:0</property>
      <property name="mlt_service">affine</property>
      <property name="shotcut:filter">affineSizePosition</property>
      <property name="transition.fill">1</property>
      <property name="transition.distort">0</property>
      <property name="transition.rect">00:00:00.000000=-1900.0 -1068.5 -18.0 -9.5 1;00:00:00.360000=1098.0 797.5 119.0 67.5 1</property>
      <property name="transition.valign">top</property>
      <property name="transition.halign">left</property>
      <property name="shotcut:animIn">00:00:00.400000</property>
      <property name="shotcut:animOut">00:00:00.000</property>
      <property name="transition.threads">0</property>
    </filter>
    <filter id="filter542" in="00:02:12.280000" out="00:02:15.640000">
      <property name="window">75</property>
      <property name="max_gain">20dB</property>
      <property name="mlt_service">volume</property>
      <property name="shotcut:filter">muteVolume</property>
      <property name="gain">0</property>
    </filter>
  </producer>
  <producer id="producer303" in="00:00:00.000" out="00:05:55.520" title="Anonymous Submission">
    <property name="length">00:05:55:14</property>
    <property name="eof">pause</property>
    <property name="resource">../../006 - Videos format youtube/Tuba/Srevol_tuba_recadre.mp4</property>
    <property name="audio_index">1</property>
    <property name="video_index">0</property>
    <property name="mute_on_pause">0</property>
    <property name="mlt_service">avformat-novalidate</property>
    <property name="seekable">1</property>
    <property name="aspect_ratio">1</property>
    <property name="creation_time">2020-04-12T16:43:58</property>
    <property name="shotcut:hash">297b5a36e5ddc4793893fda24b46726f</property>
    <property name="ignore_points">0</property>
    <property name="shotcut:caption">Srevol_tuba_recadre.mp4</property>
    <property name="shotcut:skipConvert">1</property>
    <property name="global_feed">1</property>
    <property name="xml">was here</property>
    <filter id="filter543" in="00:02:15.680000" out="00:02:21.960000">
      <property name="background">colour:0</property>
      <property name="mlt_service">affine</property>
      <property name="shotcut:filter">affineSizePosition</property>
      <property name="transition.fill">1</property>
      <property name="transition.distort">0</property>
      <property name="transition.rect">00:00:00.000000=1108.0 802.5 110.0 61.5 1;00:00:00.360000=586.0 221.5 119.0 67.5 1</property>
      <property name="transition.valign">top</property>
      <property name="transition.halign">left</property>
      <property name="shotcut:animIn">00:00:00.400000</property>
      <property name="shotcut:animOut">00:00:00.000</property>
      <property name="transition.threads">0</property>
    </filter>
    <filter id="filter544" in="00:02:15.680000" out="00:02:21.960000">
      <property name="window">75</property>
      <property name="max_gain">20dB</property>
      <property name="mlt_service">volume</property>
      <property name="shotcut:filter">muteVolume</property>
      <property name="gain">0</property>
    </filter>
  </producer>
  <playlist id="playlist44">
    <blank length="00:01:55.000000" /><property name="shotcut:video">1</property>
    <property name="shotcut:name">S Revol recadre</property>
    <property name="shotcut:lock">1</property>
    <entry in="00:01:55.000000" out="00:01:58.560000" producer="producer297" />
    <entry in="00:01:58.600000" out="00:02:01.960000" producer="producer298" />
    <entry in="00:02:02.000000" out="00:02:05.400000" producer="producer299" />
    <entry in="00:02:05.440000" out="00:02:08.800000" producer="producer300" />
    <entry in="00:02:08.840000" out="00:02:12.240000" producer="producer301" />
    <entry in="00:02:12.280000" out="00:02:15.640000" producer="producer302" />
    <entry in="00:02:15.680000" out="00:02:21.960000" producer="producer303" />
    <filter id="filter545" out="00:03:32.600">
      <property name="window">75</property>
      <property name="max_gain">20dB</property>
      <property name="level">-7</property>
      <property name="mlt_service">volume</property>
    </filter>
  </playlist>
  <producer id="producer304" in="00:00:00.000" out="00:03:35.640" title="Anonymous Submission">
    <property name="length">00:03:35:17</property>
    <property name="eof">pause</property>
    <property name="resource">../../006 - Videos format youtube/Bonus/Camille_bonus_recadre.mp4</property>
    <property name="audio_index">1</property>
    <property name="video_index">0</property>
    <property name="mute_on_pause">0</property>
    <property name="mlt_service">avformat-novalidate</property>
    <property name="seekable">1</property>
    <property name="aspect_ratio">1</property>
    <property name="creation_time">2020-05-04T19:45:54</property>
    <property name="shotcut:hash">2e165d68055d486add3c4562e4c703c2</property>
    <property name="ignore_points">0</property>
    <property name="shotcut:caption">Camille_bonus_recadre.mp4</property>
    <property name="shotcut:skipConvert">1</property>
    <property name="global_feed">1</property>
    <property name="xml">was here</property>
    <filter id="filter546" in="00:01:55.000000" out="00:02:21.960000">
      <property name="background">colour:0</property>
      <property name="mlt_service">affine</property>
      <property name="shotcut:filter">affineSizePosition</property>
      <property name="transition.fill">1</property>
      <property name="transition.distort">0</property>
      <property name="transition.rect">-1910.0 -1074.5 -9.0 -4.5 1</property>
      <property name="transition.valign">top</property>
      <property name="transition.halign">left</property>
      <property name="shotcut:animIn">00:00:00.000</property>
      <property name="shotcut:animOut">00:00:00.000</property>
      <property name="transition.threads">0</property>
    </filter>
  </producer>
  <playlist id="playlist45">
    <blank length="00:01:55.000000" /><property name="shotcut:video">1</property>
    <property name="shotcut:name">Camille bonus recadre</property>
    <property name="shotcut:lock">1</property>
    <entry in="00:01:55.000000" out="00:02:21.960000" producer="producer304" />
  </playlist>
  <producer id="producer305" in="00:00:00.000" out="00:03:35.640" title="Anonymous Submission">
    <property name="length">00:03:35:17</property>
    <property name="eof">pause</property>
    <property name="resource">../../006 - Videos format youtube/Bonus/Bidou_bonus_recadre.mp4</property>
    <property name="audio_index">1</property>
    <property name="video_index">0</property>
    <property name="mute_on_pause">0</property>
    <property name="mlt_service">avformat-novalidate</property>
    <property name="seekable">1</property>
    <property name="aspect_ratio">1</property>
    <property name="creation_time">2020-05-04T19:40:43</property>
    <property name="shotcut:hash">cad9e016c8749576a320bd38391ed515</property>
    <property name="ignore_points">0</property>
    <property name="shotcut:caption">Bidou_bonus_recadre.mp4</property>
    <property name="shotcut:skipConvert">1</property>
    <property name="global_feed">1</property>
    <property name="xml">was here</property>
    <filter id="filter547" in="00:01:55.000000" out="00:02:21.960000">
      <property name="background">colour:0</property>
      <property name="mlt_service">affine</property>
      <property name="shotcut:filter">affineSizePosition</property>
      <property name="transition.fill">1</property>
      <property name="transition.distort">0</property>
      <property name="transition.rect">-1910.0 -1074.5 -9.0 -4.5 1</property>
      <property name="transition.valign">top</property>
      <property name="transition.halign">left</property>
      <property name="shotcut:animIn">00:00:00.000</property>
      <property name="shotcut:animOut">00:00:00.000</property>
      <property name="transition.threads">0</property>
    </filter>
  </producer>
  <playlist id="playlist46">
    <blank length="00:01:55.000000" /><property name="shotcut:video">1</property>
    <property name="shotcut:name">Bidou bonus recadre</property>
    <property name="shotcut:lock">1</property>
    <entry in="00:01:55.000000" out="00:02:21.960000" producer="producer305" />
  </playlist>
  <producer id="producer306" in="00:00:00.000" out="00:03:35.640" title="Anonymous Submission">
    <property name="length">00:03:35:17</property>
    <property name="eof">pause</property>
    <property name="resource">../../006 - Videos format youtube/Bonus/Nelly_bonus_recadre.mp4</property>
    <property name="audio_index">1</property>
    <property name="video_index">0</property>
    <property name="mute_on_pause">0</property>
    <property name="mlt_service">avformat-novalidate</property>
    <property name="seekable">1</property>
    <property name="aspect_ratio">1</property>
    <property name="creation_time">2020-05-04T19:36:46</property>
    <property name="shotcut:hash">bda5dde38a2a50f885f7d825540c3463</property>
    <property name="ignore_points">0</property>
    <property name="shotcut:caption">Nelly_bonus_recadre.mp4</property>
    <property name="shotcut:skipConvert">1</property>
    <property name="global_feed">1</property>
    <property name="xml">was here</property>
    <filter id="filter548" in="00:01:55.000000" out="00:02:21.960000">
      <property name="background">colour:0</property>
      <property name="mlt_service">affine</property>
      <property name="shotcut:filter">affineSizePosition</property>
      <property name="transition.fill">1</property>
      <property name="transition.distort">0</property>
      <property name="transition.rect">-1910.0 -1074.5 -9.0 -4.5 1</property>
      <property name="transition.valign">top</property>
      <property name="transition.halign">left</property>
      <property name="shotcut:animIn">00:00:00.000</property>
      <property name="shotcut:animOut">00:00:00.000</property>
      <property name="transition.threads">0</property>
    </filter>
  </producer>
  <playlist id="playlist47">
    <blank length="00:01:55.000000" /><property name="shotcut:video">1</property>
    <property name="shotcut:name">Nelly bonus recadre</property>
    <property name="shotcut:lock">1</property>
    <entry in="00:01:55.000000" out="00:02:21.960000" producer="producer306" />
  </playlist>
  <producer id="producer307" in="00:00:00.000" out="00:03:35.640" title="Anonymous Submission">
    <property name="length">00:03:35:17</property>
    <property name="eof">pause</property>
    <property name="resource">../../006 - Videos format youtube/Bonus/Laurence_bonus_recadre.mp4</property>
    <property name="audio_index">1</property>
    <property name="video_index">0</property>
    <property name="mute_on_pause">0</property>
    <property name="mlt_service">avformat-novalidate</property>
    <property name="seekable">1</property>
    <property name="aspect_ratio">1</property>
    <property name="creation_time">2020-05-04T19:48:20</property>
    <property name="shotcut:hash">96b817e0ade0ca64c6c4eafb78718e1d</property>
    <property name="ignore_points">0</property>
    <property name="shotcut:caption">Laurence_bonus_recadre.mp4</property>
    <property name="shotcut:skipConvert">1</property>
    <property name="global_feed">1</property>
    <property name="xml">was here</property>
    <filter id="filter549" in="00:01:54.960000" out="00:02:21.920000">
      <property name="background">colour:0</property>
      <property name="mlt_service">affine</property>
      <property name="shotcut:filter">affineSizePosition</property>
      <property name="transition.fill">1</property>
      <property name="transition.distort">0</property>
      <property name="transition.rect">-1910.0 -1074.5 -9.0 -4.5 1</property>
      <property name="transition.valign">top</property>
      <property name="transition.halign">left</property>
      <property name="shotcut:animIn">00:00:00.000</property>
      <property name="shotcut:animOut">00:00:00.000</property>
      <property name="transition.threads">0</property>
    </filter>
  </producer>
  <playlist id="playlist48">
    <property name="shotcut:video">1</property>
    <property name="shotcut:name">Laurence bonus recadre</property>
    <property name="shotcut:lock">1</property>
    <blank length="00:01:55.000000" />
    <entry in="00:01:54.960000" out="00:02:21.920000" producer="producer307" />
  </playlist>
  <producer id="producer308" in="00:00:00.000" out="00:03:35.640" title="Anonymous Submission">
    <property name="length">00:03:35:17</property>
    <property name="eof">pause</property>
    <property name="resource">../../006 - Videos format youtube/Bonus/Nadine_bonus_recadre.mp4</property>
    <property name="audio_index">1</property>
    <property name="video_index">0</property>
    <property name="mute_on_pause">0</property>
    <property name="mlt_service">avformat-novalidate</property>
    <property name="seekable">1</property>
    <property name="aspect_ratio">1</property>
    <property name="creation_time">2020-05-04T19:47:08</property>
    <property name="shotcut:hash">72a5c03ede31823c1442cf41fa4ce158</property>
    <property name="ignore_points">0</property>
    <property name="shotcut:caption">Nadine_bonus_recadre.mp4</property>
    <property name="shotcut:skipConvert">1</property>
    <property name="global_feed">1</property>
    <property name="xml">was here</property>
    <filter id="filter550" in="00:01:55.000000" out="00:02:21.960000">
      <property name="background">colour:0</property>
      <property name="mlt_service">affine</property>
      <property name="shotcut:filter">affineSizePosition</property>
      <property name="transition.fill">1</property>
      <property name="transition.distort">0</property>
      <property name="transition.rect">-1910.0 -1074.5 -9.0 -4.5 1</property>
      <property name="transition.valign">top</property>
      <property name="transition.halign">left</property>
      <property name="shotcut:animIn">00:00:00.000</property>
      <property name="shotcut:animOut">00:00:00.000</property>
      <property name="transition.threads">0</property>
    </filter>
  </producer>
  <playlist id="playlist49">
    <blank length="00:01:55.000000" /><property name="shotcut:video">1</property>
    <property name="shotcut:name">Nadine bonus recadre</property>
    <property name="shotcut:lock">1</property>
    <entry in="00:01:55.000000" out="00:02:21.960000" producer="producer308" />
  </playlist>
  <tractor global_feed="1" id="tractor0" in="00:00:00.000" out="00:03:41.600" title="Shotcut version 20.02.17">
    <property name="shotcut">1</property>
    <property name="shotcut:projectAudioChannels">2</property>
    <property name="shotcut:projectFolder">1</property>
    <property name="shotcut:scaleFactor">1.94333</property>
    <track producer="background" />
    <track hide="audio" producer="playlist0" />
    <track hide="audio" producer="playlist1" />
    <track hide="audio" producer="playlist2" />
    <track hide="audio" producer="playlist3" />
    <track hide="audio" producer="playlist4" />
    <track hide="audio" producer="playlist5" />
    <track hide="video" producer="playlist6" />
    <track hide="audio" producer="playlist7" />
    <track hide="audio" producer="playlist8" />
    <track hide="audio" producer="playlist9" />
    <track hide="audio" producer="playlist10" />
    <track hide="audio" producer="playlist11" />
    <track hide="audio" producer="playlist12" />
    <track hide="audio" producer="playlist13" />
    <track hide="audio" producer="playlist14" />
    <track hide="audio" producer="playlist15" />
    <track hide="audio" producer="playlist16" />
    <track hide="audio" producer="playlist17" />
    <track hide="audio" producer="playlist18" />
    <track hide="audio" producer="playlist19" />
    <track hide="audio" producer="playlist20" />
    <track hide="audio" producer="playlist21" />
    <track hide="audio" producer="playlist22" />
    <track hide="audio" producer="playlist23" />
    <track hide="audio" producer="playlist24" />
    <track hide="audio" producer="playlist25" />
    <track hide="audio" producer="playlist26" />
    <track hide="audio" producer="playlist27" />
    <track hide="audio" producer="playlist28" />
    <track hide="audio" producer="playlist29" />
    <track hide="audio" producer="playlist30" />
    <track hide="audio" producer="playlist31" />
    <track hide="audio" producer="playlist32" />
    <track hide="audio" producer="playlist33" />
    <track hide="audio" producer="playlist34" />
    <track hide="audio" producer="playlist35" />
    <track hide="audio" producer="playlist36" />
    <track hide="audio" producer="playlist37" />
    <track hide="audio" producer="playlist38" />
    <track hide="audio" producer="playlist39" />
    <track hide="audio" producer="playlist40" />
    <track hide="audio" producer="playlist41" />
    <track hide="audio" producer="playlist42" />
    <track hide="audio" producer="playlist43" />
    <track hide="audio" producer="playlist44" />
    <track hide="audio" producer="playlist45" />
    <track hide="audio" producer="playlist46" />
    <track hide="audio" producer="playlist47" />
    <track hide="audio" producer="playlist48" />
    <track hide="audio" producer="playlist49" />
    <transition id="transition0">
      <property name="a_track">0</property>
      <property name="b_track">1</property>
      <property name="mlt_service">mix</property>
      <property name="always_active">1</property>
      <property name="sum">1</property>
    </transition>
    <transition id="transition1">
      <property name="a_track">1</property>
      <property name="b_track">1</property>
      <property name="version">0.9</property>
      <property name="mlt_service">frei0r.cairoblend</property>
      <property name="disable">1</property>
    </transition>
    <transition id="transition2">
      <property name="a_track">1</property>
      <property name="b_track">2</property>
      <property name="version">0.9</property>
      <property name="mlt_service">frei0r.cairoblend</property>
    </transition>
    <transition id="transition3">
      <property name="a_track">1</property>
      <property name="b_track">3</property>
      <property name="version">0.9</property>
      <property name="mlt_service">frei0r.cairoblend</property>
    </transition>
    <transition id="transition4">
      <property name="a_track">0</property>
      <property name="b_track">4</property>
      <property name="mlt_service">mix</property>
      <property name="always_active">1</property>
      <property name="sum">1</property>
    </transition>
    <transition id="transition5">
      <property name="a_track">1</property>
      <property name="b_track">4</property>
      <property name="version">0.9</property>
      <property name="mlt_service">frei0r.cairoblend</property>
      <property name="disable">0</property>
    </transition>
    <transition id="transition6">
      <property name="a_track">0</property>
      <property name="b_track">5</property>
      <property name="mlt_service">mix</property>
      <property name="always_active">1</property>
      <property name="sum">1</property>
    </transition>
    <transition id="transition7">
      <property name="a_track">1</property>
      <property name="b_track">5</property>
      <property name="version">0.9</property>
      <property name="mlt_service">frei0r.cairoblend</property>
      <property name="disable">0</property>
    </transition>
    <transition id="transition8">
      <property name="a_track">0</property>
      <property name="b_track">6</property>
      <property name="mlt_service">mix</property>
      <property name="always_active">1</property>
      <property name="sum">1</property>
    </transition>
    <transition id="transition9">
      <property name="a_track">1</property>
      <property name="b_track">6</property>
      <property name="version">0.9</property>
      <property name="mlt_service">frei0r.cairoblend</property>
      <property name="disable">0</property>
    </transition>
    <transition id="transition10">
      <property name="a_track">0</property>
      <property name="b_track">2</property>
      <property name="mlt_service">mix</property>
      <property name="always_active">1</property>
      <property name="sum">1</property>
    </transition>
    <transition id="transition11">
      <property name="a_track">0</property>
      <property name="b_track">3</property>
      <property name="mlt_service">mix</property>
      <property name="always_active">1</property>
      <property name="sum">1</property>
    </transition>
    <transition id="transition12">
      <property name="a_track">0</property>
      <property name="b_track">7</property>
      <property name="mlt_service">mix</property>
      <property name="always_active">1</property>
      <property name="sum">1</property>
    </transition>
  <transition id="transition13">
      <property name="a_track">0</property>
      <property name="b_track">8</property>
      <property name="mlt_service">mix</property>
      <property name="always_active">1</property>
      <property name="sum">1</property>
    </transition>
    <transition id="transition14">
      <property name="a_track">1</property>
      <property name="b_track">8</property>
      <property name="version">0.9</property>
      <property name="mlt_service">frei0r.cairoblend</property>
      <property name="disable">0</property>
    </transition>
    <transition id="transition15">
      <property name="a_track">0</property>
      <property name="b_track">9</property>
      <property name="mlt_service">mix</property>
      <property name="always_active">1</property>
      <property name="sum">1</property>
    </transition>
    <transition id="transition16">
      <property name="a_track">1</property>
      <property name="b_track">9</property>
      <property name="version">0.9</property>
      <property name="mlt_service">frei0r.cairoblend</property>
      <property name="disable">0</property>
    </transition>
  <transition id="transition17">
      <property name="a_track">1</property>
      <property name="b_track">10</property>
      <property name="version">0.9</property>
      <property name="mlt_service">frei0r.cairoblend</property>
    </transition>
    <transition id="transition18">
      <property name="a_track">0</property>
      <property name="b_track">10</property>
      <property name="mlt_service">mix</property>
      <property name="always_active">1</property>
      <property name="sum">1</property>
    </transition>
    <transition id="transition19">
      <property name="a_track">1</property>
      <property name="b_track">11</property>
      <property name="version">0.9</property>
      <property name="mlt_service">frei0r.cairoblend</property>
    </transition>
    <transition id="transition20">
      <property name="a_track">0</property>
      <property name="b_track">11</property>
      <property name="mlt_service">mix</property>
      <property name="always_active">1</property>
      <property name="sum">1</property>
    </transition>
    <transition id="transition21">
      <property name="a_track">0</property>
      <property name="b_track">12</property>
      <property name="mlt_service">mix</property>
      <property name="always_active">1</property>
      <property name="sum">1</property>
    </transition>
    <transition id="transition22">
      <property name="a_track">1</property>
      <property name="b_track">12</property>
      <property name="version">0.9</property>
      <property name="mlt_service">frei0r.cairoblend</property>
      <property name="disable">0</property>
    </transition>
    <transition id="transition23">
      <property name="a_track">0</property>
      <property name="b_track">13</property>
      <property name="mlt_service">mix</property>
      <property name="always_active">1</property>
      <property name="sum">1</property>
    </transition>
    <transition id="transition24">
      <property name="a_track">1</property>
      <property name="b_track">13</property>
      <property name="version">0.9</property>
      <property name="mlt_service">frei0r.cairoblend</property>
      <property name="disable">0</property>
    </transition>
    <transition id="transition25">
      <property name="a_track">1</property>
      <property name="b_track">14</property>
      <property name="version">0.9</property>
      <property name="mlt_service">frei0r.cairoblend</property>
    </transition>
    <transition id="transition26">
      <property name="a_track">0</property>
      <property name="b_track">14</property>
      <property name="mlt_service">mix</property>
      <property name="always_active">1</property>
      <property name="sum">1</property>
    </transition>
    <transition id="transition27">
      <property name="a_track">1</property>
      <property name="b_track">15</property>
      <property name="version">0.9</property>
      <property name="mlt_service">frei0r.cairoblend</property>
    </transition>
    <transition id="transition28">
      <property name="a_track">0</property>
      <property name="b_track">15</property>
      <property name="mlt_service">mix</property>
      <property name="always_active">1</property>
      <property name="sum">1</property>
    </transition>
  <transition id="transition29">
      <property name="a_track">0</property>
      <property name="b_track">16</property>
      <property name="mlt_service">mix</property>
      <property name="always_active">1</property>
      <property name="sum">1</property>
    </transition>
    <transition id="transition30">
      <property name="a_track">1</property>
      <property name="b_track">16</property>
      <property name="version">0.9</property>
      <property name="mlt_service">frei0r.cairoblend</property>
      <property name="disable">0</property>
    </transition>
    <transition id="transition31">
      <property name="a_track">0</property>
      <property name="b_track">17</property>
      <property name="mlt_service">mix</property>
      <property name="always_active">1</property>
      <property name="sum">1</property>
    </transition>
    <transition id="transition32">
      <property name="a_track">1</property>
      <property name="b_track">17</property>
      <property name="version">0.9</property>
      <property name="mlt_service">frei0r.cairoblend</property>
      <property name="disable">0</property>
    </transition>
    <transition id="transition33">
      <property name="a_track">1</property>
      <property name="b_track">18</property>
      <property name="version">0.9</property>
      <property name="mlt_service">frei0r.cairoblend</property>
    </transition>
    <transition id="transition34">
      <property name="a_track">0</property>
      <property name="b_track">18</property>
      <property name="mlt_service">mix</property>
      <property name="always_active">1</property>
      <property name="sum">1</property>
    </transition>
    <transition id="transition35">
      <property name="a_track">0</property>
      <property name="b_track">19</property>
      <property name="mlt_service">mix</property>
      <property name="always_active">1</property>
      <property name="sum">1</property>
    </transition>
    <transition id="transition36">
      <property name="a_track">1</property>
      <property name="b_track">19</property>
      <property name="version">0.9</property>
      <property name="mlt_service">frei0r.cairoblend</property>
      <property name="disable">0</property>
    </transition>
    <transition id="transition37">
      <property name="a_track">0</property>
      <property name="b_track">20</property>
      <property name="mlt_service">mix</property>
      <property name="always_active">1</property>
      <property name="sum">1</property>
    </transition>
    <transition id="transition38">
      <property name="a_track">1</property>
      <property name="b_track">20</property>
      <property name="version">0.9</property>
      <property name="mlt_service">frei0r.cairoblend</property>
      <property name="disable">0</property>
    </transition>
    <transition id="transition39">
      <property name="a_track">0</property>
      <property name="b_track">21</property>
      <property name="mlt_service">mix</property>
      <property name="always_active">1</property>
      <property name="sum">1</property>
    </transition>
    <transition id="transition40">
      <property name="a_track">1</property>
      <property name="b_track">21</property>
      <property name="version">0.9</property>
      <property name="mlt_service">frei0r.cairoblend</property>
      <property name="disable">0</property>
    </transition>
  <transition id="transition41">
      <property name="a_track">0</property>
      <property name="b_track">22</property>
      <property name="mlt_service">mix</property>
      <property name="always_active">1</property>
      <property name="sum">1</property>
    </transition>
    <transition id="transition42">
      <property name="a_track">1</property>
      <property name="b_track">22</property>
      <property name="version">0.9</property>
      <property name="mlt_service">frei0r.cairoblend</property>
      <property name="disable">0</property>
    </transition>
    <transition id="transition43">
      <property name="a_track">1</property>
      <property name="b_track">23</property>
      <property name="version">0.9</property>
      <property name="mlt_service">frei0r.cairoblend</property>
    </transition>
    <transition id="transition44">
      <property name="a_track">0</property>
      <property name="b_track">23</property>
      <property name="mlt_service">mix</property>
      <property name="always_active">1</property>
      <property name="sum">1</property>
    </transition>
    <transition id="transition45">
      <property name="a_track">0</property>
      <property name="b_track">24</property>
      <property name="mlt_service">mix</property>
      <property name="always_active">1</property>
      <property name="sum">1</property>
    </transition>
    <transition id="transition46">
      <property name="a_track">1</property>
      <property name="b_track">24</property>
      <property name="version">0.9</property>
      <property name="mlt_service">frei0r.cairoblend</property>
      <property name="disable">0</property>
    </transition>
    <transition id="transition47">
      <property name="a_track">1</property>
      <property name="b_track">25</property>
      <property name="version">0.9</property>
      <property name="mlt_service">frei0r.cairoblend</property>
    </transition>
    <transition id="transition48">
      <property name="a_track">0</property>
      <property name="b_track">25</property>
      <property name="mlt_service">mix</property>
      <property name="always_active">1</property>
      <property name="sum">1</property>
    </transition>
  <transition id="transition49">
      <property name="a_track">1</property>
      <property name="b_track">26</property>
      <property name="version">0.9</property>
      <property name="mlt_service">frei0r.cairoblend</property>
    </transition>
    <transition id="transition50">
      <property name="a_track">0</property>
      <property name="b_track">26</property>
      <property name="mlt_service">mix</property>
      <property name="always_active">1</property>
      <property name="sum">1</property>
    </transition>
    <transition id="transition51">
      <property name="a_track">1</property>
      <property name="b_track">27</property>
      <property name="version">0.9</property>
      <property name="mlt_service">frei0r.cairoblend</property>
    </transition>
    <transition id="transition52">
      <property name="a_track">0</property>
      <property name="b_track">27</property>
      <property name="mlt_service">mix</property>
      <property name="always_active">1</property>
      <property name="sum">1</property>
    </transition>
    <transition id="transition53">
      <property name="a_track">0</property>
      <property name="b_track">28</property>
      <property name="mlt_service">mix</property>
      <property name="always_active">1</property>
      <property name="sum">1</property>
    </transition>
    <transition id="transition54">
      <property name="a_track">1</property>
      <property name="b_track">28</property>
      <property name="version">0.9</property>
      <property name="mlt_service">frei0r.cairoblend</property>
      <property name="disable">0</property>
    </transition>
    <transition id="transition55">
      <property name="a_track">0</property>
      <property name="b_track">29</property>
      <property name="mlt_service">mix</property>
      <property name="always_active">1</property>
      <property name="sum">1</property>
    </transition>
    <transition id="transition56">
      <property name="a_track">1</property>
      <property name="b_track">29</property>
      <property name="version">0.9</property>
      <property name="mlt_service">frei0r.cairoblend</property>
      <property name="disable">0</property>
    </transition>
    <transition id="transition57">
      <property name="a_track">1</property>
      <property name="b_track">30</property>
      <property name="version">0.9</property>
      <property name="mlt_service">frei0r.cairoblend</property>
    </transition>
    <transition id="transition58">
      <property name="a_track">0</property>
      <property name="b_track">30</property>
      <property name="mlt_service">mix</property>
      <property name="always_active">1</property>
      <property name="sum">1</property>
    </transition>
  <transition id="transition59">
      <property name="a_track">0</property>
      <property name="b_track">31</property>
      <property name="mlt_service">mix</property>
      <property name="always_active">1</property>
      <property name="sum">1</property>
    </transition>
    <transition id="transition60">
      <property name="a_track">1</property>
      <property name="b_track">31</property>
      <property name="version">0.9</property>
      <property name="mlt_service">frei0r.cairoblend</property>
      <property name="disable">0</property>
    </transition>
    <transition id="transition61">
      <property name="a_track">1</property>
      <property name="b_track">32</property>
      <property name="version">0.9</property>
      <property name="mlt_service">frei0r.cairoblend</property>
    </transition>
    <transition id="transition62">
      <property name="a_track">0</property>
      <property name="b_track">32</property>
      <property name="mlt_service">mix</property>
      <property name="always_active">1</property>
      <property name="sum">1</property>
    </transition>
    <transition id="transition63">
      <property name="a_track">1</property>
      <property name="b_track">33</property>
      <property name="version">0.9</property>
      <property name="mlt_service">frei0r.cairoblend</property>
    </transition>
    <transition id="transition64">
      <property name="a_track">0</property>
      <property name="b_track">33</property>
      <property name="mlt_service">mix</property>
      <property name="always_active">1</property>
      <property name="sum">1</property>
    </transition>
    <transition id="transition65">
      <property name="a_track">0</property>
      <property name="b_track">34</property>
      <property name="mlt_service">mix</property>
      <property name="always_active">1</property>
      <property name="sum">1</property>
    </transition>
    <transition id="transition66">
      <property name="a_track">1</property>
      <property name="b_track">34</property>
      <property name="version">0.9</property>
      <property name="mlt_service">frei0r.cairoblend</property>
      <property name="disable">0</property>
    </transition>
    <transition id="transition67">
      <property name="a_track">0</property>
      <property name="b_track">35</property>
      <property name="mlt_service">mix</property>
      <property name="always_active">1</property>
      <property name="sum">1</property>
    </transition>
    <transition id="transition68">
      <property name="a_track">1</property>
      <property name="b_track">35</property>
      <property name="version">0.9</property>
      <property name="mlt_service">frei0r.cairoblend</property>
      <property name="disable">0</property>
    </transition>
    <transition id="transition69">
      <property name="a_track">0</property>
      <property name="b_track">36</property>
      <property name="mlt_service">mix</property>
      <property name="always_active">1</property>
      <property name="sum">1</property>
    </transition>
    <transition id="transition70">
      <property name="a_track">1</property>
      <property name="b_track">36</property>
      <property name="version">0.9</property>
      <property name="mlt_service">frei0r.cairoblend</property>
      <property name="disable">0</property>
    </transition>
    <transition id="transition71">
      <property name="a_track">0</property>
      <property name="b_track">37</property>
      <property name="mlt_service">mix</property>
      <property name="always_active">1</property>
      <property name="sum">1</property>
    </transition>
    <transition id="transition72">
      <property name="a_track">1</property>
      <property name="b_track">37</property>
      <property name="version">0.9</property>
      <property name="mlt_service">frei0r.cairoblend</property>
      <property name="disable">0</property>
    </transition>
    <transition id="transition73">
      <property name="a_track">0</property>
      <property name="b_track">38</property>
      <property name="mlt_service">mix</property>
      <property name="always_active">1</property>
      <property name="sum">1</property>
    </transition>
    <transition id="transition74">
      <property name="a_track">1</property>
      <property name="b_track">38</property>
      <property name="version">0.9</property>
      <property name="mlt_service">frei0r.cairoblend</property>
      <property name="disable">0</property>
    </transition>
    <transition id="transition75">
      <property name="a_track">0</property>
      <property name="b_track">39</property>
      <property name="mlt_service">mix</property>
      <property name="always_active">1</property>
      <property name="sum">1</property>
    </transition>
    <transition id="transition76">
      <property name="a_track">1</property>
      <property name="b_track">39</property>
      <property name="version">0.9</property>
      <property name="mlt_service">frei0r.cairoblend</property>
      <property name="disable">0</property>
    </transition>
  <transition id="transition77">
      <property name="a_track">0</property>
      <property name="b_track">40</property>
      <property name="mlt_service">mix</property>
      <property name="always_active">1</property>
      <property name="sum">1</property>
    </transition>
    <transition id="transition78">
      <property name="a_track">1</property>
      <property name="b_track">40</property>
      <property name="version">0.9</property>
      <property name="mlt_service">frei0r.cairoblend</property>
      <property name="disable">0</property>
    </transition>
    <transition id="transition79">
      <property name="a_track">0</property>
      <property name="b_track">41</property>
      <property name="mlt_service">mix</property>
      <property name="always_active">1</property>
      <property name="sum">1</property>
    </transition>
    <transition id="transition80">
      <property name="a_track">1</property>
      <property name="b_track">41</property>
      <property name="version">0.9</property>
      <property name="mlt_service">frei0r.cairoblend</property>
      <property name="disable">0</property>
    </transition>
    <transition id="transition81">
      <property name="a_track">0</property>
      <property name="b_track">42</property>
      <property name="mlt_service">mix</property>
      <property name="always_active">1</property>
      <property name="sum">1</property>
    </transition>
    <transition id="transition82">
      <property name="a_track">1</property>
      <property name="b_track">42</property>
      <property name="version">0.9</property>
      <property name="mlt_service">frei0r.cairoblend</property>
      <property name="disable">0</property>
    </transition>
    <transition id="transition83">
      <property name="a_track">0</property>
      <property name="b_track">43</property>
      <property name="mlt_service">mix</property>
      <property name="always_active">1</property>
      <property name="sum">1</property>
    </transition>
    <transition id="transition84">
      <property name="a_track">1</property>
      <property name="b_track">43</property>
      <property name="version">0.9</property>
      <property name="mlt_service">frei0r.cairoblend</property>
      <property name="disable">0</property>
    </transition>
    <transition id="transition85">
      <property name="a_track">1</property>
      <property name="b_track">44</property>
      <property name="version">0.9</property>
      <property name="mlt_service">frei0r.cairoblend</property>
    </transition>
    <transition id="transition86">
      <property name="a_track">0</property>
      <property name="b_track">44</property>
      <property name="mlt_service">mix</property>
      <property name="always_active">1</property>
      <property name="sum">1</property>
    </transition>
    <transition id="transition87">
      <property name="a_track">0</property>
      <property name="b_track">45</property>
      <property name="mlt_service">mix</property>
      <property name="always_active">1</property>
      <property name="sum">1</property>
    </transition>
    <transition id="transition88">
      <property name="a_track">1</property>
      <property name="b_track">45</property>
      <property name="version">0.9</property>
      <property name="mlt_service">frei0r.cairoblend</property>
      <property name="disable">0</property>
    </transition>
  <transition id="transition89">
      <property name="a_track">1</property>
      <property name="b_track">46</property>
      <property name="version">0.9</property>
      <property name="mlt_service">frei0r.cairoblend</property>
    </transition>
    <transition id="transition90">
      <property name="a_track">0</property>
      <property name="b_track">46</property>
      <property name="mlt_service">mix</property>
      <property name="always_active">1</property>
      <property name="sum">1</property>
    </transition>
    <transition id="transition91">
      <property name="a_track">1</property>
      <property name="b_track">47</property>
      <property name="version">0.9</property>
      <property name="mlt_service">frei0r.cairoblend</property>
    </transition>
    <transition id="transition92">
      <property name="a_track">0</property>
      <property name="b_track">47</property>
      <property name="mlt_service">mix</property>
      <property name="always_active">1</property>
      <property name="sum">1</property>
    </transition>
    <transition id="transition93">
      <property name="a_track">1</property>
      <property name="b_track">48</property>
      <property name="version">0.9</property>
      <property name="mlt_service">frei0r.cairoblend</property>
    </transition>
    <transition id="transition94">
      <property name="a_track">0</property>
      <property name="b_track">48</property>
      <property name="mlt_service">mix</property>
      <property name="always_active">1</property>
      <property name="sum">1</property>
    </transition>
    <transition id="transition95">
      <property name="a_track">1</property>
      <property name="b_track">49</property>
      <property name="version">0.9</property>
      <property name="mlt_service">frei0r.cairoblend</property>
    </transition>
    <transition id="transition96">
      <property name="a_track">0</property>
      <property name="b_track">49</property>
      <property name="mlt_service">mix</property>
      <property name="always_active">1</property>
      <property name="sum">1</property>
    </transition>
  <transition id="transition97">
      <property name="a_track">0</property>
      <property name="b_track">50</property>
      <property name="mlt_service">mix</property>
      <property name="always_active">1</property>
      <property name="sum">1</property>
    </transition>
    <transition id="transition98">
      <property name="a_track">1</property>
      <property name="b_track">50</property>
      <property name="version">0.9</property>
      <property name="mlt_service">frei0r.cairoblend</property>
      <property name="disable">0</property>
    </transition>
    </tractor>
</mlt>